<?xml version="1.0" encoding="UTF-8" standalone="no"?>
<!-- Created with Inkscape (http://www.inkscape.org/) -->

<svg
   xmlns:dc="http://purl.org/dc/elements/1.1/"
   xmlns:cc="http://creativecommons.org/ns#"
   xmlns:rdf="http://www.w3.org/1999/02/22-rdf-syntax-ns#"
   xmlns:svg="http://www.w3.org/2000/svg"
   xmlns="http://www.w3.org/2000/svg"
   xmlns:sodipodi="http://sodipodi.sourceforge.net/DTD/sodipodi-0.dtd"
   xmlns:inkscape="http://www.inkscape.org/namespaces/inkscape"
   width="512"
   height="512"
   viewBox="0 0 512.00002 512.00002"
   id="svg2"
   version="1.1"
   inkscape:version="0.92.2 2405546, 2018-03-11"
   sodipodi:docname="dribbble.svg">
  <defs
     id="defs4" />
  <sodipodi:namedview
     id="base"
     pagecolor="#ffffff"
     bordercolor="#666666"
     borderopacity="1.0"
     inkscape:pageopacity="0.0"
     inkscape:pageshadow="2"
     inkscape:zoom="1.0344199"
     inkscape:cx="114.15754"
     inkscape:cy="250.53138"
     inkscape:document-units="px"
     inkscape:current-layer="g1198"
     showgrid="false"
     units="px"
     inkscape:showpageshadow="false"
     inkscape:window-width="1920"
     inkscape:window-height="991"
     inkscape:window-x="0"
     inkscape:window-y="25"
     inkscape:window-maximized="1" />
  <metadata
     id="metadata7">
    <rdf:RDF>
      <cc:Work
         rdf:about="">
        <dc:format>image/svg+xml</dc:format>
        <dc:type
           rdf:resource="http://purl.org/dc/dcmitype/StillImage" />
        <dc:title></dc:title>
        <cc:license
           rdf:resource="http://creativecommons.org/licenses/by-sa/4.0/" />
        <dc:date>2019</dc:date>
        <dc:creator>
          <cc:Agent>
            <dc:title>Cristian Pozzessere  &lt; ilnanny &gt;</dc:title>
          </cc:Agent>
        </dc:creator>
        <dc:subject>
          <rdf:Bag>
            <rdf:li>ilnanny</rdf:li>
          </rdf:Bag>
        </dc:subject>
      </cc:Work>
      <cc:License
         rdf:about="http://creativecommons.org/licenses/by-sa/4.0/">
        <cc:permits
           rdf:resource="http://creativecommons.org/ns#Reproduction" />
        <cc:permits
           rdf:resource="http://creativecommons.org/ns#Distribution" />
        <cc:requires
           rdf:resource="http://creativecommons.org/ns#Notice" />
        <cc:requires
           rdf:resource="http://creativecommons.org/ns#Attribution" />
        <cc:permits
           rdf:resource="http://creativecommons.org/ns#DerivativeWorks" />
        <cc:requires
           rdf:resource="http://creativecommons.org/ns#ShareAlike" />
      </cc:License>
    </rdf:RDF>
  </metadata>
  <g
     inkscape:label="Livello 1"
     inkscape:groupmode="layer"
     id="layer1"
     transform="translate(0,-540.3622)">
    <g
       id="g1262"
       transform="translate(28.134506,568.49671)">
      <g
         id="g1200">
	
	<g
   id="g1198">
		
	<g
   id="g1806"
   transform="translate(2.2558597e-7,-3.774414e-6)">
  <g
     id="g1749">
	<rect
   id="rect1745"
   height="455.73099"
   width="455.73099"
   style="fill:#ed4989"
   y="0"
   x="0" />

	<path
   id="path1747"
   d="m 227.866,55.375 c -95.27,0 -172.491,77.23 -172.491,172.491 0,95.261 77.221,172.491 172.491,172.491 95.261,0 172.491,-77.23 172.491,-172.491 0,-95.261 -77.23,-172.491 -172.491,-172.491 z m 145.51,170.577 c -19.721,-5.696 -40.564,-8.751 -62.118,-8.751 -13.018,0 -25.776,1.114 -38.184,3.252 -4.025,-9.604 -8.194,-18.795 -12.407,-27.537 58.92,-25.201 80.356,-56.53 80.356,-56.53 l 0.009,-0.009 c 19.856,24.528 31.904,55.65 32.344,89.575 z M 227.866,82.346 c 37.034,0 70.851,13.836 96.537,36.629 l -0.009,0.009 c -19.622,22.614 -46.8,38.741 -75.819,50.232 -28.004,-51.993 -54.589,-82.899 -54.589,-82.899 10.871,-2.597 22.218,-3.971 33.88,-3.971 z m -63.017,14.312 c 0,0 25.444,32.64 53.098,82.935 -66.601,19.146 -132.475,18.13 -132.475,18.13 H 85.463 C 94.87,153.062 124.761,115.947 164.849,96.658 Z M 82.337,227.866 c 0,-1.276 0.018,-2.543 0.045,-3.809 h 0.009 c 62.235,0.332 110.903,-8.212 148.386,-20.089 3.872,7.736 7.736,15.777 11.509,24.078 -51.588,16.72 -94.956,51.687 -122.484,97.292 C 96.514,299.534 82.337,265.357 82.337,227.866 Z m 145.529,145.519 c -33.17,0 -63.735,-11.096 -88.218,-29.774 24.491,-43.197 64.822,-76.232 113.086,-91.209 13.8,34.114 25.309,71.57 30.789,109.951 -17.141,7.115 -35.946,11.032 -55.657,11.032 z m 80.832,-24.5 c -5.049,-37.357 -14.447,-72.1 -25.785,-103.293 9.254,-1.339 18.723,-2.03 28.346,-2.03 20.916,0 41.068,3.252 59.98,9.299 -6.91,39.962 -30.125,74.336 -62.541,96.024 z"
   style="fill:#ffffff"
   inkscape:connector-curvature="0" />

</g>
  <g
     id="g1751">
</g>
  <g
     id="g1753">
</g>
  <g
     id="g1755">
</g>
  <g
     id="g1757">
</g>
  <g
     id="g1759">
</g>
  <g
     id="g1761">
</g>
  <g
     id="g1763">
</g>
  <g
     id="g1765">
</g>
  <g
     id="g1767">
</g>
  <g
     id="g1769">
</g>
  <g
     id="g1771">
</g>
  <g
     id="g1773">
</g>
  <g
     id="g1775">
</g>
  <g
     id="g1777">
</g>
  <g
     id="g1779">
</g>
</g>
</g>

</g>
      <g
         id="g1202">
</g>
      <g
         id="g1204">
</g>
      <g
         id="g1206">
</g>
      <g
         id="g1208">
</g>
      <g
         id="g1210">
</g>
      <g
         id="g1212">
</g>
      <g
         id="g1214">
</g>
      <g
         id="g1216">
</g>
      <g
         id="g1218">
</g>
      <g
         id="g1220">
</g>
      <g
         id="g1222">
</g>
      <g
         id="g1224">
</g>
      <g
         id="g1226">
</g>
      <g
         id="g1228">
</g>
      <g
         id="g1230">
</g>
    </g>
  </g>
</svg>
