<?xml version="1.0" encoding="UTF-8" standalone="no"?>
<!-- Created with Inkscape (http://www.inkscape.org/) -->

<svg
   xmlns:dc="http://purl.org/dc/elements/1.1/"
   xmlns:cc="http://creativecommons.org/ns#"
   xmlns:rdf="http://www.w3.org/1999/02/22-rdf-syntax-ns#"
   xmlns:svg="http://www.w3.org/2000/svg"
   xmlns="http://www.w3.org/2000/svg"
   xmlns:sodipodi="http://sodipodi.sourceforge.net/DTD/sodipodi-0.dtd"
   xmlns:inkscape="http://www.inkscape.org/namespaces/inkscape"
   width="512"
   height="512"
   viewBox="0 0 512.00002 512.00002"
   id="svg2"
   version="1.1"
   inkscape:version="0.92.2 2405546, 2018-03-11"
   sodipodi:docname="line.svg">
  <defs
     id="defs4" />
  <sodipodi:namedview
     id="base"
     pagecolor="#ffffff"
     bordercolor="#666666"
     borderopacity="1.0"
     inkscape:pageopacity="0.0"
     inkscape:pageshadow="2"
     inkscape:zoom="1.0344199"
     inkscape:cx="114.15754"
     inkscape:cy="250.53138"
     inkscape:document-units="px"
     inkscape:current-layer="g1198"
     showgrid="false"
     units="px"
     inkscape:showpageshadow="false"
     inkscape:window-width="1920"
     inkscape:window-height="991"
     inkscape:window-x="0"
     inkscape:window-y="25"
     inkscape:window-maximized="1" />
  <metadata
     id="metadata7">
    <rdf:RDF>
      <cc:Work
         rdf:about="">
        <dc:format>image/svg+xml</dc:format>
        <dc:type
           rdf:resource="http://purl.org/dc/dcmitype/StillImage" />
        <dc:title></dc:title>
        <cc:license
           rdf:resource="http://creativecommons.org/licenses/by-sa/4.0/" />
        <dc:date>2019</dc:date>
        <dc:creator>
          <cc:Agent>
            <dc:title>Cristian Pozzessere  &lt; ilnanny &gt;</dc:title>
          </cc:Agent>
        </dc:creator>
        <dc:subject>
          <rdf:Bag>
            <rdf:li>ilnanny</rdf:li>
          </rdf:Bag>
        </dc:subject>
      </cc:Work>
      <cc:License
         rdf:about="http://creativecommons.org/licenses/by-sa/4.0/">
        <cc:permits
           rdf:resource="http://creativecommons.org/ns#Reproduction" />
        <cc:permits
           rdf:resource="http://creativecommons.org/ns#Distribution" />
        <cc:requires
           rdf:resource="http://creativecommons.org/ns#Notice" />
        <cc:requires
           rdf:resource="http://creativecommons.org/ns#Attribution" />
        <cc:permits
           rdf:resource="http://creativecommons.org/ns#DerivativeWorks" />
        <cc:requires
           rdf:resource="http://creativecommons.org/ns#ShareAlike" />
      </cc:License>
    </rdf:RDF>
  </metadata>
  <g
     inkscape:label="Livello 1"
     inkscape:groupmode="layer"
     id="layer1"
     transform="translate(0,-540.3622)">
    <g
       id="g1262"
       transform="translate(28.134506,568.49671)">
      <g
         id="g1200">
	
	<g
   id="g1198">
		
	<g
   id="g2551"
   transform="translate(2.2558597e-7,-3.774414e-6)">
  <g
     id="g2489">
	<rect
   id="rect2475"
   height="455.73099"
   width="455.73099"
   style="fill:#00c200"
   y="0"
   x="0" />

	<g
   id="g2487">
		<path
   id="path2477"
   d="m 393.272,219.605 c 0.766,-4.035 1.145,-7.43 1.319,-10.093 0.288,-4.395 -0.04,-10.92 -0.157,-12.963 -4.048,-70.408 -77.096,-126.503 -166.616,-126.503 -92.118,0 -166.793,59.397 -166.793,132.667 0,67.346 63.088,122.97 144.821,131.526 4.997,0.523 8.6,5.034 8.046,10.027 l -3.48,31.322 c -0.79,7.11 6.562,12.283 13.005,9.173 69.054,-33.326 110.346,-67.611 135.004,-97.314 4.487,-5.405 19.118,-25.904 22.101,-31.288 6.332,-11.43 10.697,-23.704 12.75,-36.554 z"
   style="fill:#ffffff"
   inkscape:connector-curvature="0" />

		<path
   id="path2479"
   d="m 136.103,229.588 v -55.882 c 0,-4.712 -3.82,-8.532 -8.532,-8.532 v 0 c -4.712,0 -8.532,3.82 -8.532,8.532 v 64.414 c 0,4.712 3.82,8.532 8.532,8.532 h 34.127 c 4.712,0 8.532,-3.82 8.532,-8.532 v 0 c 0,-4.712 -3.82,-8.532 -8.532,-8.532 z"
   style="fill:#00c500"
   inkscape:connector-curvature="0" />

		<path
   id="path2481"
   d="m 188.731,246.652 h -3.73 c -3.682,0 -6.667,-2.985 -6.667,-6.667 v -68.144 c 0,-3.682 2.985,-6.667 6.667,-6.667 h 3.73 c 3.682,0 6.667,2.985 6.667,6.667 v 68.144 c 0,3.682 -2.985,6.667 -6.667,6.667 z"
   style="fill:#00c500"
   inkscape:connector-curvature="0" />

		<path
   id="path2483"
   d="m 257.678,173.706 v 39.351 c 0,0 -34.073,-44.443 -34.593,-45.027 -1.628,-1.827 -4.027,-2.951 -6.69,-2.85 -4.641,0.176 -8.2,4.232 -8.2,8.876 v 64.063 c 0,4.712 3.82,8.532 8.532,8.532 v 0 c 4.712,0 8.532,-3.82 8.532,-8.532 v -39.112 c 0,0 34.591,44.83 35.099,45.312 1.509,1.428 3.536,2.312 5.773,2.332 4.738,0.043 8.611,-4.148 8.611,-8.886 v -64.059 c 0,-4.712 -3.82,-8.532 -8.532,-8.532 v 0 c -4.712,0.001 -8.532,3.82 -8.532,8.532 z"
   style="fill:#00c500"
   inkscape:connector-curvature="0" />

		<path
   id="path2485"
   d="m 338.729,173.706 v 0 c 0,-4.712 -3.82,-8.532 -8.532,-8.532 H 296.07 c -4.712,0 -8.532,3.82 -8.532,8.532 v 64.414 c 0,4.712 3.82,8.532 8.532,8.532 h 34.127 c 4.712,0 8.532,-3.82 8.532,-8.532 v 0 c 0,-4.712 -3.82,-8.532 -8.532,-8.532 h -25.595 v -15.144 h 25.595 c 4.712,0 8.532,-3.82 8.532,-8.532 v 0 c 0,-4.712 -3.82,-8.532 -8.532,-8.532 h -25.595 v -15.144 h 25.595 c 4.712,0.002 8.532,-3.818 8.532,-8.53 z"
   style="fill:#00c500"
   inkscape:connector-curvature="0" />

	</g>

</g>
  <g
     id="g2491">
</g>
  <g
     id="g2493">
</g>
  <g
     id="g2495">
</g>
  <g
     id="g2497">
</g>
  <g
     id="g2499">
</g>
  <g
     id="g2501">
</g>
  <g
     id="g2503">
</g>
  <g
     id="g2505">
</g>
  <g
     id="g2507">
</g>
  <g
     id="g2509">
</g>
  <g
     id="g2511">
</g>
  <g
     id="g2513">
</g>
  <g
     id="g2515">
</g>
  <g
     id="g2517">
</g>
  <g
     id="g2519">
</g>
</g>
</g>

</g>
      <g
         id="g1202">
</g>
      <g
         id="g1204">
</g>
      <g
         id="g1206">
</g>
      <g
         id="g1208">
</g>
      <g
         id="g1210">
</g>
      <g
         id="g1212">
</g>
      <g
         id="g1214">
</g>
      <g
         id="g1216">
</g>
      <g
         id="g1218">
</g>
      <g
         id="g1220">
</g>
      <g
         id="g1222">
</g>
      <g
         id="g1224">
</g>
      <g
         id="g1226">
</g>
      <g
         id="g1228">
</g>
      <g
         id="g1230">
</g>
    </g>
  </g>
</svg>
