<?xml version="1.0" encoding="UTF-8" standalone="no"?>
<!-- Created with Inkscape (http://www.inkscape.org/) -->

<svg
   xmlns:dc="http://purl.org/dc/elements/1.1/"
   xmlns:cc="http://creativecommons.org/ns#"
   xmlns:rdf="http://www.w3.org/1999/02/22-rdf-syntax-ns#"
   xmlns:svg="http://www.w3.org/2000/svg"
   xmlns="http://www.w3.org/2000/svg"
   xmlns:xlink="http://www.w3.org/1999/xlink"
   xmlns:sodipodi="http://sodipodi.sourceforge.net/DTD/sodipodi-0.dtd"
   xmlns:inkscape="http://www.inkscape.org/namespaces/inkscape"
   width="512"
   height="512"
   viewBox="0 0 512.00002 512.00002"
   id="svg2"
   version="1.1"
   inkscape:version="0.92.2 2405546, 2018-03-11"
   sodipodi:docname="audiocassa.svg"
   inkscape:export-filename="/media/Dati/Git/aRTWORK-rESOURCE/audiocassa.svg.png"
   inkscape:export-xdpi="96"
   inkscape:export-ydpi="96">
  <title
     id="title1615">audiocassa</title>
  <defs
     id="defs4">
    <pattern
       inkscape:collect="always"
       xlink:href="#pattern2353"
       id="pattern2363"
       patternTransform="translate(567.52539,567.52539)" />
    <pattern
       patternUnits="userSpaceOnUse"
       width="696"
       height="695.99998"
       patternTransform="translate(-799.25424,515.45762)"
       id="pattern2353">
      <path
         style="opacity:0.31420767;fill:url(#pattern2356);fill-opacity:1"
         d="m 348,1e-5 c -90.8,0 -169.0512,30.35078 -234.7012,91.05078 -3.85,3.55 -7.5996,7.15039 -11.3496,10.90039 -46.8,46.8 -77.4988,100.24844 -92.0488,160.39844 -6.6,27.2 -9.9004,55.75039 -9.9004,85.65039 0,13.6 0.6988,26.90117 2.0488,39.95117 0.15,1.6 0.3508,3.2 0.5508,4.75 9.05,77.05 42.1996,144.1996 99.3496,201.3496 30.15,30.15 63.05,53.6504 98.75,70.4004 5.15,2.45 10.4012,4.7484 15.7012,6.8984 40.45,16.45 84.3496,24.6504 131.5996,24.6504 53.45,0 102.5488,-10.4988 147.2988,-31.5488 5.3,-2.5 10.55,-5.1504 15.75,-7.9004 29.65,-16 57.35,-36.85 83,-62.5 46.95,-46.95 77.6512,-100.5504 92.2012,-160.90038 2.85,-12 5.1,-24.24922 6.75,-36.69922 0.35,-2.85 0.65,-5.65 1,-8.5 1.35,-13.05 2,-26.35117 2,-39.95117 0,-30 -3.3012,-58.65039 -9.9512,-85.90039 -14.6,-60.05 -45.25,-113.39844 -92,-160.14844 C 526.0988,34.00118 444.1,1e-5 348,1e-5 Z"
         id="path848"
         inkscape:connector-curvature="0" />
      <path
         inkscape:connector-curvature="0"
         id="path2297"
         d="m 695.99999,348 c 0,-90.8 -30.35078,-169.0512 -91.05078,-234.7012 -3.55,-3.85 -7.15039,-7.5996 -10.90039,-11.3496 -46.8,-46.8 -100.24844,-77.4988 -160.39845,-92.0488 C 406.45037,3.30039 377.89998,0 347.99998,0 c -13.6,0 -26.90117,0.6988 -39.95117,2.0488 -1.6,0.15 -3.2,0.3508 -4.75,0.5508 -77.05,9.04999 -144.1996,42.1996 -201.3496,99.3496 -30.15,30.15 -53.6504,63.04999 -70.4004,98.75 -2.45,5.15 -4.7484,10.4012 -6.8984,15.7012 C 8.20041,256.8504 10e-6,300.75 10e-6,348 c 0,53.45 10.4988,102.5488 31.5488,147.29878 2.5,5.3 5.1504,10.55 7.9004,15.75 16,29.65 36.85,57.35 62.5,83 46.95,46.95 100.5504,77.6512 160.90038,92.2012 12,2.85 24.24922,5.1 36.69922,6.75 2.85,0.35 5.65,0.65 8.5,1 13.05,1.35 26.35117,2 39.95117,2 30,0 58.65039,-3.3012 85.90039,-9.9512 60.05,-14.6 113.39844,-45.25 160.14844,-92 C 661.99881,526.09878 695.99998,444.1 695.99999,348 Z"
         style="opacity:0.31420767;fill:url(#pattern2359);fill-opacity:1" />
    </pattern>
    <pattern
       inkscape:collect="always"
       xlink:href="#Strips1_1"
       id="pattern2356"
       patternTransform="matrix(10,0,0,10,799.25424,-515.45762)" />
    <pattern
       inkscape:stockid="Stripes 1:1"
       id="Strips1_1"
       patternTransform="translate(0,0) scale(10,10)"
       height="1"
       width="2"
       patternUnits="userSpaceOnUse"
       inkscape:collect="always">
      <rect
         id="rect1579"
         height="2"
         width="1"
         y="-0.5"
         x="0"
         style="fill:black;stroke:none" />
    </pattern>
    <pattern
       inkscape:collect="always"
       xlink:href="#pattern2299"
       id="pattern2359"
       patternTransform="matrix(0,10,-10,0,1211.4576,799.25428)" />
    <pattern
       inkscape:collect="always"
       xlink:href="#Strips1_1"
       id="pattern2299"
       patternTransform="matrix(0,10,-10,0,412.20338,1314.7119)" />
  </defs>
  <sodipodi:namedview
     id="base"
     pagecolor="#ffffff"
     bordercolor="#666666"
     borderopacity="1.0"
     inkscape:pageopacity="0.0"
     inkscape:pageshadow="2"
     inkscape:zoom="0.7314453"
     inkscape:cx="109.71428"
     inkscape:cy="256"
     inkscape:document-units="px"
     inkscape:current-layer="layer1"
     showgrid="false"
     units="px"
     inkscape:showpageshadow="false"
     inkscape:window-width="1920"
     inkscape:window-height="994"
     inkscape:window-x="0"
     inkscape:window-y="21"
     inkscape:window-maximized="1" />
  <metadata
     id="metadata7">
    <rdf:RDF>
      <cc:Work
         rdf:about="">
        <dc:format>image/svg+xml</dc:format>
        <dc:type
           rdf:resource="http://purl.org/dc/dcmitype/StillImage" />
        <dc:title>audiocassa</dc:title>
        <cc:license
           rdf:resource="http://creativecommons.org/licenses/by-sa/4.0/" />
        <dc:date>2019</dc:date>
        <dc:creator>
          <cc:Agent>
            <dc:title>Cristian Pozzessere  &lt; ilnanny &gt;</dc:title>
          </cc:Agent>
        </dc:creator>
        <dc:subject>
          <rdf:Bag>
            <rdf:li>ilnanny</rdf:li>
          </rdf:Bag>
        </dc:subject>
      </cc:Work>
      <cc:License
         rdf:about="http://creativecommons.org/licenses/by-sa/4.0/">
        <cc:permits
           rdf:resource="http://creativecommons.org/ns#Reproduction" />
        <cc:permits
           rdf:resource="http://creativecommons.org/ns#Distribution" />
        <cc:requires
           rdf:resource="http://creativecommons.org/ns#Notice" />
        <cc:requires
           rdf:resource="http://creativecommons.org/ns#Attribution" />
        <cc:permits
           rdf:resource="http://creativecommons.org/ns#DerivativeWorks" />
        <cc:requires
           rdf:resource="http://creativecommons.org/ns#ShareAlike" />
      </cc:License>
    </rdf:RDF>
  </metadata>
  <g
     inkscape:label="Livello 1"
     inkscape:groupmode="layer"
     id="layer1"
     transform="translate(0,-540.3622)">
    <g
       id="g1613"
       transform="matrix(0.95049506,0,0,0.95049506,275.94488,-191.36087)">
      <g
         id="shadow"
         transform="matrix(0.52388609,0,0,0.52388609,-294.46531,765.68533)">
        <g
           id="shape">
          <path
             d="m 969.65,351.3 q -8.6,-20.85 -19.4,-40.85 C 946.2,302.9 941.9,295.4 937.35,288.05 917.8,256.35 893.95,226.4 865.8,198.25 773.65,106.1 662.35,60 532,60 401.65,60 290.4,106.1 198.25,198.25 106.1,290.4 60,401.65 60,532 60,662.35 106.1,773.65 198.25,865.8 290.4,957.95 401.65,1004 532,1004 662.35,1004 773.65,957.95 865.8,865.8 916.55,815 953.35,758.4 976.15,696.05 994.7,645.2 1004,590.55 1004,532 c 0,-44.9 -5.45,-87.55 -16.4,-127.95 -1.25,-4.55 -2.55,-9.1 -3.9,-13.6 -4.1,-13.3 -8.8,-26.35 -14.05,-39.15 z"
             id="path"
             inkscape:connector-curvature="0"
             style="fill:#000000;fill-opacity:0.09803922" />
        </g>
      </g>
      <g
         id="circle"
         transform="matrix(0.52388609,0,0,0.52388609,-294.46531,765.68533)">
        <g
           id="shape2">
          <path
             d="m 919.75,527.75 q 0,-169.85 -120.1,-289.95 C 719.6,157.75 623,117.75 509.75,117.75 c -113.25,0 -209.9,40 -289.95,120.05 -80.05,80.05 -120.05,176.7 -120.05,289.95 0,113.25 40,209.85 120.05,289.9 80.05,80.05 176.7,120.1 289.95,120.1 113.25,0 209.85,-40.05 289.9,-120.1 C 879.7,737.6 919.75,641 919.75,527.75 Z"
             id="path1"
             inkscape:connector-curvature="0"
             style="fill:#000000;fill-opacity:1" />
          <path
             d="m 919.75,527.75 q 0,-169.85 -120.1,-289.95 C 719.6,157.75 623,117.75 509.75,117.75 c -113.25,0 -209.9,40 -289.95,120.05 -80.05,80.05 -120.05,176.7 -120.05,289.95 0,113.25 40,209.85 120.05,289.9 80.05,80.05 176.7,120.1 289.95,120.1 113.25,0 209.85,-40.05 289.9,-120.1 C 879.7,737.6 919.75,641 919.75,527.75 Z"
             id="path2"
             inkscape:connector-curvature="0"
             style="fill:none;stroke:#cccccc;stroke-width:7.4000001;stroke-linecap:round;stroke-linejoin:round;stroke-opacity:1" />
        </g>
      </g>
      <g
         id="Calque.__204"
         transform="matrix(0.52388609,0,0,0.52388609,-294.46531,765.68533)">
        <g
           id="shape4">
          <path
             d="m 834.8,392 q 0.1,0.25 0.25,0.5 c 5.55,10.95 10.6,22.2 15.05,33.65 C 835.5,366.1 804.85,312.75 758.1,266 690.15,198.05 608.15,164.05 512.05,164.05 c -90.8,0 -169.05,30.35 -234.7,91.05 -3.85,3.55 -7.6,7.15 -11.35,10.9 -46.8,46.8 -77.5,100.25 -92.05,160.4 4.55,-11.75 9.65,-23.2 15.4,-34.4 0.55,-1.05 1.1,-2.15 1.65,-3.25 16.35,-31.4 37.3,-60.75 62.8,-88.1 15.95,-17.1 32.65,-32.3 50.1,-45.55 60.5,-46.05 129.9,-69.1 208.15,-69.1 100.85,0 186.9,38.2 258.2,114.65 26.35,28.25 47.9,58.7 64.55,91.35 z"
             id="path3"
             inkscape:connector-curvature="0"
             style="fill:#f0670b;fill-opacity:1" />
          <path
             d="M 835.05,392.5 Q 834.9,392.25 834.8,392 C 818.15,359.35 796.6,328.9 770.25,300.65 698.95,224.2 612.9,186 512.05,186 433.8,186 364.4,209.05 303.9,255.1 c -17.45,13.25 -34.15,28.45 -50.1,45.55 -25.5,27.35 -46.45,56.7 -62.8,88.1 -0.55,1.1 -1.1,2.2 -1.65,3.25 -5.75,11.2 -10.85,22.65 -15.4,34.4 -6.6,27.2 -9.9,55.75 -9.9,85.65 0,13.6 0.7,26.9 2.05,39.95 0.6,-1.05 1.2,-2.15 1.8,-3.25 17.55,-31.4 39.95,-60.75 67.3,-88.1 C 311.65,384.2 403.95,346 512.05,346 c 108.1,0 200.35,38.2 276.8,114.65 23.65,23.65 43.7,48.85 60.05,75.6 3.15,5.15 6.2,10.4 9.15,15.75 1.35,-13.05 2,-26.35 2,-39.95 0,-30 -3.3,-58.65 -9.95,-85.9 -4.45,-11.45 -9.5,-22.7 -15.05,-33.65 z"
             id="path4"
             inkscape:connector-curvature="0"
             style="fill:#f69833;fill-opacity:1" />
          <path
             d="m 857.05,560.5 c 0.35,-2.85 0.65,-5.65 1,-8.5 -2.95,-5.35 -6,-10.6 -9.15,-15.75 C 832.55,509.5 812.5,484.3 788.85,460.65 712.4,384.2 620.15,346 512.05,346 c -108.1,0 -200.4,38.2 -276.85,114.65 -27.35,27.35 -49.75,56.7 -67.3,88.1 -0.6,1.1 -1.2,2.2 -1.8,3.25 0.15,1.6 0.35,3.2 0.55,4.75 9.05,77.05 42.2,144.2 99.35,201.35 30.15,30.15 63.05,53.65 98.75,70.4 -12.65,-23.45 -19,-49.5 -19,-78.2 0,-45.95 16.25,-85.15 48.7,-117.6 32.45,-32.45 71.65,-48.7 117.6,-48.7 45.95,0 85.15,16.25 117.6,48.7 32.45,32.45 48.7,71.65 48.7,117.6 0,25.5 -5,48.95 -15,70.3 -1.25,2.65 -2.6,5.3 -4,7.9 5.3,-2.5 10.55,-5.15 15.75,-7.9 29.65,-16 57.35,-36.85 83,-62.5 46.95,-46.95 77.65,-100.55 92.2,-160.9 2.85,-12 5.1,-24.25 6.75,-36.7 z"
             id="path5"
             inkscape:connector-curvature="0"
             style="fill:#fdbd39;fill-opacity:1" />
          <path
             d="m 394.45,632.7 c -32.45,32.45 -48.7,71.65 -48.7,117.6 0,28.7 6.35,54.75 19,78.2 5.15,2.45 10.4,4.75 15.7,6.9 40.45,16.45 84.35,24.65 131.6,24.65 53.45,0 102.55,-10.5 147.3,-31.55 1.4,-2.6 2.75,-5.25 4,-7.9 10,-21.35 15,-44.8 15,-70.3 0,-45.95 -16.25,-85.15 -48.7,-117.6 C 597.2,600.25 558,584 512.05,584 c -45.95,0 -85.15,16.25 -117.6,48.7 z m 76.2,110.5 c 11.45,-11.45 25.25,-17.15 41.4,-17.15 16.15,0 29.95,5.7 41.4,17.15 11.45,11.45 17.15,25.25 17.15,41.4 0,16.15 -5.7,29.95 -17.15,41.4 -11.45,11.45 -25.25,17.15 -41.4,17.15 -16.15,0 -29.95,-5.7 -41.4,-17.15 -11.45,-11.45 -17.15,-25.25 -17.15,-41.4 0,-16.15 5.7,-29.95 17.15,-41.4 z"
             id="path6"
             inkscape:connector-curvature="0"
             style="fill:#fccf3a;fill-opacity:1" />
          <path
             d="m 470.65,743.2 c -11.45,11.45 -17.15,25.25 -17.15,41.4 0,16.15 5.7,29.95 17.15,41.4 11.45,11.45 25.25,17.15 41.4,17.15 16.15,0 29.95,-5.7 41.4,-17.15 11.45,-11.45 17.15,-25.25 17.15,-41.4 0,-16.15 -5.7,-29.95 -17.15,-41.4 -11.45,-11.45 -25.25,-17.15 -41.4,-17.15 -16.15,0 -29.95,5.7 -41.4,17.15 z"
             id="path7"
             inkscape:connector-curvature="0"
             style="fill:#fded8f;fill-opacity:1" />
          <g
             style="opacity:0.58469944"
             id="g2303"
             transform="translate(-403.52542,-403.52541)">
            <rect
               id="rect2361"
               y="567.52539"
               x="567.52539"
               height="696"
               width="696"
               style="fill:url(#pattern2363);stroke:none" />
          </g>
        </g>
      </g>
      <g
         id="baf"
         transform="matrix(0.52388609,0,0,0.52388609,-294.46531,765.68533)">
        <g
           id="shape13">
          <path
             d="m 712.8,139.55 c -8.75,-4.8 -17.6,-9.25 -26.55,-13.3 C 658.65,113.7 629.7,104.4 599.4,98.4 592.15,96.95 584.85,95.7 577.45,94.65 562,92.4 546.25,91 530.2,90.4 c -6,-0.25 -12.05,-0.35 -18.15,-0.35 -5.45,0 -10.85,0.1 -16.2,0.3 -15.85,0.5 -31.4,1.8 -46.6,3.95 -7.7,1.05 -15.3,2.3 -22.8,3.75 -30.3,5.9 -59.25,15.05 -86.85,27.45 -9.15,4.05 -18.1,8.5 -26.9,13.3 -7.9,4.3 -15.7,8.9 -23.35,13.75 -8.05,5.15 -16,10.55 -23.8,16.3 -7.05,5.15 -13.95,10.6 -20.75,16.35 -7.2,6 -14.3,12.3 -21.25,18.85 -3.35,3.15 -6.65,6.35 -9.9,9.6 -2.95,2.95 -5.85,5.9 -8.7,8.9 -6.6,6.95 -12.9,14 -18.9,21.2 -5.75,6.8 -11.2,13.7 -16.4,20.7 -5.75,7.75 -11.2,15.7 -16.35,23.75 -4.9,7.65 -9.5,15.4 -13.85,23.25 -4.8,8.8 -9.25,17.75 -13.4,26.8 -12.45,27.5 -21.7,56.35 -27.65,86.55 -1.6,8.05 -2.95,16.2 -4.1,24.45 -2.05,14.65 -3.35,29.6 -3.9,44.85 -0.25,5.95 -0.35,11.9 -0.35,17.95 0,6.1 0.1,12.15 0.35,18.15 0.55,15.3 1.9,30.3 3.95,45.05 1.1,8.15 2.45,16.2 4.05,24.15 6,30.25 15.25,59.1 27.75,86.65 4.1,9.05 8.55,18 13.4,26.75 4.3,7.85 8.9,15.6 13.8,23.25 5.15,8.05 10.6,15.95 16.4,23.75 5.2,7 10.65,13.9 16.35,20.7 6.05,7.15 12.35,14.25 18.95,21.2 2.8,2.95 5.65,5.85 8.6,8.8 3.3,3.3 6.65,6.55 10,9.7 6.95,6.55 14,12.85 21.2,18.85 6.85,5.7 13.75,11.15 20.8,16.3 7.85,5.75 15.8,11.2 23.9,16.35 7.65,4.85 15.4,9.45 23.35,13.75 8.75,4.75 17.7,9.15 26.75,13.25 27.65,12.35 56.6,21.5 86.95,27.4 7.35,1.45 14.8,2.65 22.3,3.7 15.4,2.15 31.15,3.45 47.2,4 5.3,0.15 10.6,0.25 15.95,0.25 6.05,0 12.05,-0.1 18,-0.3 16.2,-0.65 32.05,-2.05 47.6,-4.3 7.3,-1.05 14.55,-2.3 21.7,-3.7 30.5,-6.05 59.65,-15.45 87.4,-28.1 8.75,-4 17.4,-8.35 25.9,-13 7.85,-4.35 15.65,-8.95 23.3,-13.8 8.05,-5.15 15.95,-10.6 23.75,-16.35 7,-5.25 13.9,-10.7 20.75,-16.4 7.15,-6.05 14.2,-12.35 21.15,-18.9 3,-2.85 5.95,-5.75 8.9,-8.7 3.25,-3.25 6.45,-6.55 9.6,-9.9 6.55,-6.95 12.85,-14.05 18.9,-21.2 5.65,-6.85 11.1,-13.75 16.3,-20.8 5.75,-7.8 11.15,-15.75 16.3,-23.8 4.85,-7.65 9.45,-15.45 13.75,-23.35 4.4,-8.1 8.5,-16.35 12.3,-24.7 8.55,-18.8 15.65,-38.2 21.2,-58.25 0.05,-0.25 0.15,-0.5 0.2,-0.75 2.7,-9.9 5.05,-19.95 7,-30.1 1.25,-6.6 2.4,-13.25 3.4,-19.95 2.35,-16.15 3.8,-32.6 4.35,-49.4 0.15,-5.4 0.25,-10.8 0.25,-16.25 0,-5.35 -0.1,-10.65 -0.25,-15.95 -0.55,-16.85 -2,-33.3 -4.3,-49.4 -1,-6.75 -2.15,-13.45 -3.4,-20.1 -1.95,-10.15 -4.3,-20.2 -7,-30.05 -0.05,-0.15 -0.1,-0.35 -0.15,-0.5 C 913.4,376 906.4,356.65 897.9,337.9 c -3.85,-8.45 -8,-16.8 -12.45,-25 -4.3,-7.95 -8.9,-15.75 -13.75,-23.4 -5.15,-8.05 -10.6,-16 -16.35,-23.85 -5.15,-7.05 -10.6,-13.95 -16.3,-20.8 -6,-7.2 -12.3,-14.25 -18.85,-21.2 -3.15,-3.35 -6.4,-6.7 -9.7,-10 -2.95,-2.95 -5.85,-5.8 -8.8,-8.6 -6.95,-6.6 -14.05,-12.9 -21.2,-18.95 -6.8,-5.7 -13.7,-11.15 -20.7,-16.35 -7.8,-5.8 -15.7,-11.25 -23.75,-16.4 -7.65,-4.9 -15.4,-9.5 -23.25,-13.8 z m 71.95,645.2 c -75.3,75.35 -166.2,113 -272.7,113 -106.5,0 -197.4,-37.65 -272.75,-113 C 164,709.45 126.35,618.55 126.35,512.05 126.35,405.55 164,314.65 239.3,239.3 314.65,164 405.55,126.35 512.05,126.35 c 106.5,0 197.4,37.65 272.7,112.95 75.35,75.35 113,166.25 113,272.75 q 0,159.75 -113,272.7 z"
             id="path10"
             inkscape:connector-curvature="0"
             style="fill:#000000;fill-opacity:1" />
          <path
             d="m 784.75,784.75 q 113,-112.95 113,-272.7 c 0,-106.5 -37.65,-197.4 -113,-272.75 C 709.45,164 618.55,126.35 512.05,126.35 405.55,126.35 314.65,164 239.3,239.3 164,314.65 126.35,405.55 126.35,512.05 c 0,106.5 37.65,197.4 112.95,272.7 75.35,75.35 166.25,113 272.75,113 106.5,0 197.4,-37.65 272.7,-113 z"
             id="path12"
             inkscape:connector-curvature="0"
             style="fill:none;stroke:#333333;stroke-width:26.25;stroke-linecap:round;stroke-linejoin:round;stroke-opacity:1" />
        </g>
      </g>
      <g
         id="ico"
         transform="matrix(0.52388609,0,0,0.52388609,-294.46531,765.68533)">
        <g
           id="shape18">
          <path
             d="m 670.9,574.1 q 11.15,-28.7 11.15,-62.05 c 0,-44 -14.6,-81.95 -43.9,-114.05 l -0.025,-0.025 -240.15,240.15 0.025,0.025 c 32.1,29.3 70.05,43.9 114.05,43.9 17.95,0 34.9,-2.45 50.85,-7.3 25.75,-7.85 48.85,-22 69.35,-42.5 C 649.7,614.8 662.6,595.4 670.9,574.1 Z"
             id="path16"
             inkscape:connector-curvature="0"
             style="fill:#000000;fill-opacity:1" />
          <path
             d="m 632.25,391.85 c -4.7,-4.7 -9.55,-9.05 -14.7,-13.25 -29.95,-24.3 -65.2,-36.55 -105.5,-36.55 -46.95,0 -87,16.6 -120.2,49.8 -33.2,33.2 -49.8,73.25 -49.8,120.2 0,40.35 12.25,75.6 36.55,105.5 4.25,5.25 8.6,10.05 13.25,14.7 2.05,2.05 4.15,4.05 6.15,5.9 l -0.025,-0.025 240.15,-240.15 0.025,0.025 c -1.85,-2 -3.85,-4.1 -5.9,-6.15 z"
             id="path17"
             inkscape:connector-curvature="0"
             style="fill:#151515;fill-opacity:1" />
        </g>
      </g>
      <g
         id="ico1"
         transform="matrix(0.52388609,0,0,0.52388609,-294.46531,765.68533)">
        <g
           id="shape22">
          <path
             d="m 557.85,392.1 c -13.95,-5.3 -29.3,-8.05 -45.8,-8.05 -35.35,0 -65.5,12.5 -90.5,37.5 -5.85,5.85 -11.05,12 -15.4,18.3 -6.75,14.7 -10.15,30.8 -10.15,48.25 0,32.05 11.35,59.4 34,82.05 0.7,0.7 1.4,1.4 2.1,2.05 22.25,21.3 48.9,31.95 79.95,31.95 32.05,0 59.4,-11.35 82.05,-34 22.65,-22.65 34,-50 34,-82.05 0,-17.45 -3.35,-33.55 -10.1,-48.2 -4.4,-6.35 -9.6,-12.5 -15.45,-18.35 -13.35,-13.35 -28.15,-23.1 -44.7,-29.45 z"
             id="path18"
             inkscape:connector-curvature="0"
             style="fill:#333333;fill-opacity:1" />
          <path
             d="m 618,439.9 c 6.75,14.65 10.1,30.75 10.1,48.2 0,32.05 -11.35,59.4 -34,82.05 -22.65,22.65 -50,34 -82.05,34 -31.05,0 -57.7,-10.65 -79.95,-31.95 -0.7,-0.65 -1.4,-1.35 -2.1,-2.05 -22.65,-22.65 -34,-50 -34,-82.05 0,-17.45 3.4,-33.55 10.15,-48.25 -14.8,21.1 -22.1,45.15 -22.1,72.2 0,14.35 2.05,27.85 6.1,40.15 6.15,18.85 16.55,35.5 31.4,50.35 25,25 55.15,37.5 90.5,37.5 13.5,0 26.3,-1.85 38.3,-5.5 19.4,-5.9 36.75,-16.55 52.2,-32 13.15,-13.15 22.85,-27.75 29.1,-43.8 q 8.4,-21.6 8.4,-46.7 c 0,-27.05 -7.3,-51.1 -22.05,-72.15 z"
             id="path19"
             inkscape:connector-curvature="0"
             style="fill:#242424;fill-opacity:1" />
        </g>
      </g>
      <g
         id="Capa.__201"
         transform="matrix(0.52388609,0,0,0.52388609,-294.46531,765.68533)">
        <g
           id="shape26">
          <path
             d="m 553.35,438.35 q 0,-16.55 -11.7,-28.25 c -7.75,-7.75 -17.15,-11.65 -28.2,-11.65 -11.05,0 -20.45,3.9 -28.25,11.65 -7.75,7.8 -11.65,17.2 -11.65,28.25 0,11.05 3.9,20.45 11.65,28.2 7.8,7.8 17.2,11.7 28.25,11.7 11.05,0 20.45,-3.9 28.2,-11.7 7.8,-7.75 11.7,-17.15 11.7,-28.2 z m -31.1,-14.85 c -2.6,2.6 -5.75,3.9 -9.4,3.9 -3.65,0 -6.8,-1.3 -9.4,-3.9 -2.6,-2.6 -3.9,-5.75 -3.9,-9.4 0,-3.65 1.3,-6.8 3.9,-9.4 2.6,-2.6 5.75,-3.9 9.4,-3.9 3.65,0 6.8,1.3 9.4,3.9 2.6,2.6 3.9,5.75 3.9,9.4 0,3.65 -1.3,6.8 -3.9,9.4 z"
             id="path20"
             inkscape:connector-curvature="0"
             style="fill:#666666;fill-opacity:1" />
          <path
             d="m 522.25,423.5 c 2.6,-2.6 3.9,-5.75 3.9,-9.4 0,-3.65 -1.3,-6.8 -3.9,-9.4 -2.6,-2.6 -5.75,-3.9 -9.4,-3.9 -3.65,0 -6.8,1.3 -9.4,3.9 -2.6,2.6 -3.9,5.75 -3.9,9.4 0,3.65 1.3,6.8 3.9,9.4 2.6,2.6 5.75,3.9 9.4,3.9 3.65,0 6.8,-1.3 9.4,-3.9 z"
             id="path21"
             inkscape:connector-curvature="0"
             style="fill:#ffffff;fill-opacity:1" />
        </g>
      </g>
      <g
         id="Calque.__205"
         transform="matrix(0.52388609,0,0,0.52388609,-294.46531,765.68533)">
        <g
           id="shape31">
          <path
             d="m 847.1,179.55 c -0.45,-0.45 -0.85,-0.85 -1.25,-1.25 -9.35,-9.35 -18.9,-18.25 -28.8,-26.75 -65.8,-56.75 -140.8,-91.9 -224.85,-105.3 -16.25,-2.6 -32.8,-4.4 -50.05,-5.35 -9.7,-0.55 -19.85,-0.85 -30.1,-0.85 -9.35,0 -18.6,0.25 -27.9,0.75 C 365.8,46.9 263.85,92.75 178.3,178.3 86.15,270.45 40.05,381.7 40.05,512.05 c 0,117.05 37.15,218.75 111.5,305 8.45,9.8 17.35,19.4 26.75,28.8 0.4,0.4 0.8,0.8 1.25,1.25 l -0.025,-0.025 35.35,-35.35 0.025,0.025 c -0.45,-0.45 -0.85,-0.85 -1.25,-1.25 -2.95,-2.95 -5.8,-5.85 -8.6,-8.8 -6.25,-6.6 -12.25,-13.3 -18,-20.1 -0.35,-0.35 -0.65,-0.75 -0.95,-1.1 -5.7,-6.8 -11.15,-13.7 -16.35,-20.7 -5.8,-7.8 -11.25,-15.7 -16.4,-23.75 -4.9,-7.65 -9.5,-15.4 -13.8,-23.25 -4.85,-8.75 -9.3,-17.7 -13.4,-26.75 -12.5,-27.55 -21.75,-56.4 -27.75,-86.65 -1.6,-7.95 -2.95,-16 -4.05,-24.15 -2.05,-14.75 -3.4,-29.75 -3.95,-45.05 -0.25,-6 -0.35,-12.05 -0.35,-18.15 0,-6.05 0.1,-12 0.35,-17.95 0.55,-15.25 1.85,-30.2 3.9,-44.85 1.15,-8.25 2.5,-16.4 4.1,-24.45 5.95,-30.2 15.2,-59.05 27.65,-86.55 4.15,-9.05 8.6,-18 13.4,-26.8 4.35,-7.85 8.95,-15.6 13.85,-23.25 5.15,-8.05 10.6,-16 16.35,-23.75 5.2,-7 10.65,-13.9 16.4,-20.7 6,-7.2 12.3,-14.25 18.9,-21.2 2.85,-3 5.75,-5.95 8.7,-8.9 3.25,-3.25 6.55,-6.45 9.9,-9.6 6.95,-6.55 14.05,-12.85 21.25,-18.85 6.8,-5.75 13.7,-11.2 20.75,-16.35 7.8,-5.75 15.75,-11.15 23.8,-16.3 7.65,-4.85 15.45,-9.45 23.35,-13.75 8.8,-4.8 17.75,-9.25 26.9,-13.3 27.6,-12.4 56.55,-21.55 86.85,-27.45 7.5,-1.45 15.1,-2.7 22.8,-3.75 15.2,-2.15 30.75,-3.45 46.6,-3.95 5.35,-0.2 10.75,-0.3 16.2,-0.3 6.1,0 12.15,0.1 18.15,0.35 16.05,0.6 31.8,2 47.25,4.25 7.4,1.05 14.7,2.3 21.95,3.75 30.3,6 59.25,15.3 86.85,27.85 8.95,4.05 17.8,8.5 26.55,13.3 7.85,4.3 15.6,8.9 23.25,13.8 8.05,5.15 15.95,10.6 23.75,16.4 7,5.2 13.9,10.65 20.7,16.35 0.35,0.3 0.75,0.6 1.1,0.95 6.8,5.75 13.5,11.75 20.1,18 2.95,2.8 5.85,5.65 8.8,8.6 0.4,0.4 0.8,0.8 1.25,1.25 l -0.025,-0.025 35.35,-35.35"
             id="path24"
             inkscape:connector-curvature="0"
             style="fill:#bcbcbc;fill-opacity:1" />
          <path
             d="m 811.75,214.9 c 2.85,2.9 5.7,5.8 8.45,8.75 6.55,6.95 12.85,14 18.85,21.2 5.7,6.85 11.15,13.75 16.3,20.8 5.75,7.85 11.2,15.8 16.35,23.85 4.85,7.65 9.45,15.45 13.75,23.4 4.45,8.2 8.6,16.55 12.45,25 8.5,18.75 15.5,38.1 21.05,58.15 q 0.05,0.25 0.15,0.5 c 2.7,9.85 5.05,19.9 7,30.05 1.25,6.65 2.4,13.35 3.4,20.1 2.3,16.1 3.75,32.55 4.3,49.4 0.15,5.3 0.25,10.6 0.25,15.95 0,5.45 -0.1,10.85 -0.25,16.25 -0.55,16.8 -2,33.25 -4.35,49.4 -1,6.7 -2.15,13.35 -3.4,19.95 -1.95,10.15 -4.3,20.2 -7,30.1 -0.05,0.25 -0.15,0.5 -0.2,0.75 -5.55,20.05 -12.65,39.45 -21.2,58.25 -3.8,8.35 -7.9,16.6 -12.3,24.7 -4.3,7.9 -8.9,15.7 -13.75,23.35 -5.15,8.05 -10.55,16 -16.3,23.8 -5.2,7.05 -10.65,13.95 -16.3,20.8 -6.05,7.15 -12.35,14.25 -18.9,21.2 -3.15,3.35 -6.35,6.65 -9.6,9.9 -2.95,2.95 -5.9,5.85 -8.9,8.7 -6.95,6.55 -14,12.85 -21.15,18.9 -6.85,5.7 -13.75,11.15 -20.75,16.4 -7.8,5.75 -15.7,11.2 -23.75,16.35 -7.65,4.85 -15.45,9.45 -23.3,13.8 -8.5,4.65 -17.15,9 -25.9,13 -27.75,12.65 -56.9,22.05 -87.4,28.1 -7.15,1.4 -14.4,2.65 -21.7,3.7 -15.55,2.25 -31.4,3.65 -47.6,4.3 -5.95,0.2 -11.95,0.3 -18,0.3 -5.35,0 -10.65,-0.1 -15.95,-0.25 -16.05,-0.55 -31.8,-1.85 -47.2,-4 -7.5,-1.05 -14.95,-2.25 -22.3,-3.7 -30.35,-5.9 -59.3,-15.05 -86.95,-27.4 -9.05,-4.1 -18,-8.5 -26.75,-13.25 -7.95,-4.3 -15.7,-8.9 -23.35,-13.75 -8.1,-5.15 -16.05,-10.6 -23.9,-16.35 -7.05,-5.15 -13.95,-10.6 -20.8,-16.3 -7.2,-6 -14.25,-12.3 -21.2,-18.85 -2.95,-2.75 -5.85,-5.6 -8.75,-8.45 l -0.025,-0.025 -35.35,35.35 0.025,0.025 c 85.25,84.7 186.8,130.1 304.6,136.25 0.15,0 0.25,0 0.4,0 8.5,0.45 16.6,0.7 24.5,0.7 1.2,0 2.1,0 3,0 10.3,0 20.5,-0.3 30.1,-0.8 2.5,-0.15 4.75,-0.3 6.95,-0.45 20.2,-1.45 39.9,-4.05 58.7,-7.7 7.95,-1.55 15.8,-3.3 23.4,-5.15 80.8,-20.3 152.15,-61.6 214.65,-124.1 48.6,-48.6 84.4,-102.5 107.35,-161.8 18.45,-47.65 28.65,-98.8 30.55,-153.5 0.2,-6.05 0.3,-12.25 0.3,-18.5 0,-0.65 0,-1.35 0,-2 0,-0.35 0,-0.65 0,-1 -0.2,-40.65 -4.95,-79.5 -14.3,-117 -1.1,-4.35 -2.35,-9 -3.65,-13.6 -2.5,-8.75 -5.35,-17.6 -8.45,-26.35 -6.45,-18.25 -14.15,-36.05 -23.15,-53.65 -3.8,-7.4 -7.95,-14.95 -12.3,-22.4 -20.15,-34.2 -45.2,-66.35 -75.1,-96.5 l -0.025,-0.025 -35.35,35.35"
             id="path28"
             inkscape:connector-curvature="0"
             style="fill:#999999;fill-opacity:1" />
        </g>
      </g>
    </g>
  </g>
</svg>
