<?xml version="1.0" encoding="UTF-8" standalone="no"?>
<!-- Created with Inkscape (http://www.inkscape.org/) -->

<svg
   xmlns:dc="http://purl.org/dc/elements/1.1/"
   xmlns:cc="http://creativecommons.org/ns#"
   xmlns:rdf="http://www.w3.org/1999/02/22-rdf-syntax-ns#"
   xmlns:svg="http://www.w3.org/2000/svg"
   xmlns="http://www.w3.org/2000/svg"
   xmlns:xlink="http://www.w3.org/1999/xlink"
   xmlns:sodipodi="http://sodipodi.sourceforge.net/DTD/sodipodi-0.dtd"
   xmlns:inkscape="http://www.inkscape.org/namespaces/inkscape"
   width="512"
   height="512"
   viewBox="0 0 512.00002 512.00002"
   id="svg2"
   version="1.1"
   inkscape:version="0.92.2 2405546, 2018-03-11"
   sodipodi:docname="prototipo-icona-sferica.svg">
  <title
     id="title862">bottone1</title>
  <defs
     id="defs4">
    <radialGradient
       fx="0"
       fy="0"
       cx="0"
       cy="0"
       r="1"
       gradientUnits="userSpaceOnUse"
       gradientTransform="matrix(210.24438,0,0,210.24438,245.36642,855.33242)"
       spreadMethod="pad"
       id="radialGradient326-6">
      <stop
         style="stop-opacity:1;stop-color:#61ccf5"
         offset="0"
         id="stop320-2" />
      <stop
         style="stop-opacity:1;stop-color:#61ccf5"
         offset="0.8757987"
         id="stop322-9" />
      <stop
         style="stop-opacity:1;stop-color:#050301"
         offset="1"
         id="stop324-1" />
    </radialGradient>
    <linearGradient
       x1="0"
       y1="0"
       x2="1"
       y2="0"
       gradientUnits="userSpaceOnUse"
       gradientTransform="matrix(-1.2659566e-5,-303.17096,503.12913,-2.2154241e-5,4.4358993,1054.0946)"
       spreadMethod="pad"
       id="linearGradient266">
      <stop
         style="stop-opacity:1;stop-color:#ffffff"
         offset="0"
         id="stop260" />
      <stop
         style="stop-opacity:1;stop-color:#ffffff"
         offset="0.45385632"
         id="stop262" />
      <stop
         style="stop-opacity:1;stop-color:#050301"
         offset="1"
         id="stop264" />
    </linearGradient>
    <linearGradient
       x1="0"
       y1="0"
       x2="1"
       y2="0"
       gradientUnits="userSpaceOnUse"
       gradientTransform="matrix(-1.2659566e-5,280.279,-496.54299,-2.2154241e-5,504.27197,543.19886)"
       spreadMethod="pad"
       id="linearGradient286">
      <stop
         style="stop-opacity:1;stop-color:#ffffff"
         offset="0"
         id="stop280" />
      <stop
         style="stop-opacity:1;stop-color:#ffffff"
         offset="0.45385632"
         id="stop282" />
      <stop
         style="stop-opacity:1;stop-color:#5b5e64"
         offset="1"
         id="stop284" />
    </linearGradient>
    <linearGradient
       inkscape:collect="always"
       xlink:href="#linearGradient4431"
       id="linearGradient4449"
       x1="240.7776"
       y1="994.06366"
       x2="241.14569"
       y2="957.83398"
       gradientUnits="userSpaceOnUse"
       gradientTransform="matrix(1.2914091,0,0,1.2914091,-59.15209,-287.91993)" />
    <linearGradient
       inkscape:collect="always"
       id="linearGradient4431">
      <stop
         style="stop-color:#ffffff;stop-opacity:1;"
         offset="0"
         id="stop4427" />
      <stop
         style="stop-color:#ffffff;stop-opacity:0;"
         offset="1"
         id="stop4429" />
    </linearGradient>
    <linearGradient
       inkscape:collect="always"
       xlink:href="#linearGradient4431"
       id="linearGradient4441"
       x1="248.97786"
       y1="677.74567"
       x2="249.35106"
       y2="709.87384"
       gradientUnits="userSpaceOnUse"
       gradientTransform="matrix(1.2914091,0,0,1.2914091,-59.15209,-287.91993)" />
    <linearGradient
       inkscape:collect="always"
       xlink:href="#linearGradient4431"
       id="linearGradient4690"
       gradientUnits="userSpaceOnUse"
       gradientTransform="matrix(1.4502451,0,0,1.4502451,255.9708,90.35669)"
       x1="-100.59241"
       y1="401.95187"
       x2="-49.90176"
       y2="451.85309" />
    <radialGradient
       fx="0"
       fy="0"
       cx="0"
       cy="0"
       r="1"
       gradientUnits="userSpaceOnUse"
       gradientTransform="matrix(193.42283,0,0,193.42283,253.79358,263.7423)"
       spreadMethod="pad"
       id="radialGradient326-6-0">
      <stop
         style="stop-opacity:1;stop-color:#61ccf5"
         offset="0"
         id="stop320-2-9" />
      <stop
         style="stop-opacity:1;stop-color:#61ccf5"
         offset="0.8757987"
         id="stop322-9-3" />
      <stop
         style="stop-opacity:1;stop-color:#050301"
         offset="1"
         id="stop324-1-6" />
    </radialGradient>
  </defs>
  <sodipodi:namedview
     id="base"
     pagecolor="#ffffff"
     bordercolor="#666666"
     borderopacity="1.0"
     inkscape:pageopacity="0.0"
     inkscape:pageshadow="2"
     inkscape:zoom="0.51720995"
     inkscape:cx="276.86981"
     inkscape:cy="247.63121"
     inkscape:document-units="px"
     inkscape:current-layer="layer2"
     showgrid="false"
     units="px"
     inkscape:showpageshadow="false"
     inkscape:window-width="1920"
     inkscape:window-height="991"
     inkscape:window-x="0"
     inkscape:window-y="25"
     inkscape:window-maximized="1" />
  <metadata
     id="metadata7">
    <rdf:RDF>
      <cc:Work
         rdf:about="">
        <dc:format>image/svg+xml</dc:format>
        <dc:type
           rdf:resource="http://purl.org/dc/dcmitype/StillImage" />
        <dc:title>bottone1</dc:title>
        <cc:license
           rdf:resource="http://creativecommons.org/licenses/by-sa/4.0/" />
        <dc:date>2019</dc:date>
        <dc:creator>
          <cc:Agent>
            <dc:title>Cristian Pozzessere  &lt; ilnanny &gt;</dc:title>
          </cc:Agent>
        </dc:creator>
        <dc:subject>
          <rdf:Bag>
            <rdf:li>ilnanny</rdf:li>
          </rdf:Bag>
        </dc:subject>
        <dc:description>Playing with Inkscape on Gnu/Linux O. S.</dc:description>
        <dc:contributor>
          <cc:Agent>
            <dc:title>In the night, alone like a dog.</dc:title>
          </cc:Agent>
        </dc:contributor>
      </cc:Work>
      <cc:License
         rdf:about="http://creativecommons.org/licenses/by-sa/4.0/">
        <cc:permits
           rdf:resource="http://creativecommons.org/ns#Reproduction" />
        <cc:permits
           rdf:resource="http://creativecommons.org/ns#Distribution" />
        <cc:requires
           rdf:resource="http://creativecommons.org/ns#Notice" />
        <cc:requires
           rdf:resource="http://creativecommons.org/ns#Attribution" />
        <cc:permits
           rdf:resource="http://creativecommons.org/ns#DerivativeWorks" />
        <cc:requires
           rdf:resource="http://creativecommons.org/ns#ShareAlike" />
      </cc:License>
    </rdf:RDF>
  </metadata>
  <g
     inkscape:groupmode="layer"
     id="layer2"
     inkscape:label="livello 0">
    <rect
       style="opacity:1;fill:#f9f9ff;fill-opacity:0.98412699;stroke:none;stroke-width:3.03206229;stroke-linecap:round;stroke-linejoin:bevel;stroke-miterlimit:4;stroke-dasharray:none;stroke-opacity:1;paint-order:stroke fill markers"
       id="rect865"
       width="511"
       height="511"
       x="0.5"
       y="0.5" />
  </g>
  <g
     inkscape:label="Base"
     inkscape:groupmode="layer"
     id="layer1"
     transform="translate(0,-540.3622)"
     sodipodi:insensitive="true">
    <g
       id="g5553"
       style="opacity:1"
       transform="matrix(0.91999049,0,0,0.91999049,18.27565,71.458876)">
      <circle
         style="opacity:0.1;fill:#010101;fill-opacity:1;stroke:#f6ffb2;stroke-width:2.18254709;stroke-linecap:round;stroke-linejoin:bevel;stroke-miterlimit:4;stroke-dasharray:none;stroke-opacity:1;paint-order:stroke fill markers"
         id="path876"
         cx="256"
         cy="796.36218"
         r="253.1908" />
      <path
         inkscape:connector-curvature="0"
         id="path268"
         style="fill:url(#linearGradient266);fill-opacity:1;fill-rule:nonzero;stroke:none;stroke-width:0.31648916"
         d="m 256.00143,796.27945 c -84.70674,0 -166.097635,-14.18822 -241.937285,-40.27323 -2.172391,13.09946 -3.298456,26.55027 -3.298456,40.27323 0,135.43521 109.793251,245.23475 245.235741,245.23475 135.439,0 245.23228,-109.79954 245.23228,-245.23475 0,-13.72296 -1.12355,-27.17377 -3.28835,-40.27323 -75.84976,26.08501 -157.24762,40.27323 -241.94393,40.27323"
         mask="none"
         clip-path="none" />
      <path
         inkscape:connector-curvature="0"
         style="fill:#bdbcbc;fill-opacity:1;fill-rule:nonzero;stroke:#0a0a0a;stroke-width:4.0673089;stroke-miterlimit:4;stroke-dasharray:none;stroke-opacity:0.19607843"
         mask="none"
         clip-path="none"
         d="m 256.00595,550.55417 c -58.62233,0 -115.37278,20.96464 -159.854367,59.02563 -43.725574,37.45839 -73.028771,89.12504 -82.571533,145.56318 l -0.03972,-0.0139 -0.119159,0.76262 c -2.196763,13.25455 -3.312633,26.84454 -3.312633,40.38711 0,33.19339 6.505452,65.40263 19.335605,95.71282 12.369022,29.28158 30.113246,55.57956 52.690318,78.17059 22.588139,22.56565 48.879289,40.30168 78.150719,52.69228 30.31398,12.8242 62.52748,19.3157 95.72276,19.3157 33.19622,0 65.39355,-6.4915 95.70687,-19.3157 29.27842,-12.3906 55.58783,-30.12663 78.15668,-52.69228 22.59416,-22.59103 40.31843,-48.88901 52.71216,-78.17059 12.81146,-30.31019 19.30781,-62.51943 19.30781,-95.71282 0,-13.54257 -1.09872,-27.13256 -3.28881,-40.38711 l -0.12908,-0.76262 -0.0417,0.0139 C 488.87434,698.70482 459.58698,647.03821 415.84246,609.5798 371.37889,571.51881 314.60899,550.55417 256.00595,550.55417 Z m 0,1.32267 c 119.99039,0 221.30906,85.61858 241.15885,203.69313 -77.42896,26.56999 -158.56542,40.05346 -241.15686,40.05346 -82.59397,0 -163.731819,-13.4872 -241.176715,-40.0614 C 34.690252,637.49164 135.99682,551.87684 256.00595,551.87684 Z M 497.44482,757.0257 c 2.07323,12.88541 3.12992,26.09585 3.12992,39.25311 0,134.86552 -109.71108,244.57469 -244.5668,244.57469 -134.85512,0 -244.566802,-109.70917 -244.566802,-244.57469 0,-13.15585 1.037255,-26.36504 3.129921,-39.24914 77.523665,26.60194 158.746421,40.07531 241.434891,40.07531 82.67227,0 163.90465,-13.47581 241.43887,-40.07928 z"
         id="path270" />
      <path
         inkscape:connector-curvature="0"
         id="path288"
         style="fill:url(#linearGradient286);fill-opacity:1;fill-rule:nonzero;stroke:none;stroke-width:0.31648916"
         d="m 256.00649,796.44086 c 84.69439,0 166.08593,-14.17554 241.93571,-40.26691 C 478.72499,639.89583 377.71748,551.21873 256.00649,551.21873 c -121.7309,0 -222.73936,88.6771 -241.947409,204.95522 75.841236,26.09137 157.232119,40.26691 241.947409,40.26691"
         mask="none"
         clip-path="none" />
      <path
         inkscape:connector-curvature="0"
         id="path308"
         style="fill:#768087;fill-opacity:1;fill-rule:nonzero;stroke:none;stroke-width:0.31648916"
         d="m 473.83842,796.36805 c 0,120.31337 -97.53249,217.83635 -217.83699,217.83635 -120.31398,0 -217.841064,-97.52298 -217.841064,-217.83635 0,-120.31649 97.527084,-217.83949 217.841064,-217.83949 120.3045,0 217.83699,97.523 217.83699,217.83949"
         mask="none"
         clip-path="none" />
      <path
         inkscape:connector-curvature="0"
         id="path310"
         style="fill:#cdccca;fill-opacity:1;fill-rule:nonzero;stroke:#eae8db;stroke-width:1.20000005;stroke-miterlimit:4;stroke-dasharray:none;stroke-opacity:0.93650794"
         d="m 256.00872,1014.8659 c -58.36125,0 -113.23384,-22.73662 -154.49864,-64.00049 C 60.234231,909.5984 37.501432,854.72552 37.501432,796.36805 c 0,-58.37323 22.732799,-113.24614 64.008648,-154.50681 41.2648,-41.26387 96.13739,-63.99413 154.49864,-63.99413 58.36343,0 113.23635,22.73026 154.49703,63.99413 41.27019,41.26067 63.99095,96.13358 63.99095,154.50681 0,58.35747 -22.72076,113.23035 -63.99095,154.49736 -41.26068,41.26387 -96.1336,64.00049 -154.49703,64.00049 z m 0,-435.67902 c -119.75888,0 -217.189429,97.43118 -217.189429,217.18117 0,119.75004 97.430549,217.17165 217.189429,217.17165 119.74969,0 217.17138,-97.42161 217.17138,-217.17165 0,-119.74999 -97.42169,-217.18117 -217.17138,-217.18117 v 0"
         mask="none"
         clip-path="none" />
      <path
         inkscape:connector-curvature="0"
         id="path330"
         style="fill:#c2c1c1;fill-opacity:1;fill-rule:nonzero;stroke:#ffffff;stroke-width:1;stroke-miterlimit:4;stroke-dasharray:none;stroke-opacity:0.93650794"
         d="m 256.00872,1007.2701 c -56.33508,0 -109.3024,-21.93268 -149.14045,-61.76599 -39.829543,-39.83966 -61.772359,-92.7978 -61.772359,-149.13606 0,-56.34454 21.942816,-109.31533 61.772359,-149.155 39.83805,-39.808 92.80537,-61.75968 149.14045,-61.75968 56.33791,0 109.29288,21.95168 149.11989,61.75968 39.8428,39.83967 61.7755,92.81046 61.7755,149.155 0,56.33826 -21.9327,109.2964 -61.7755,149.13606 -39.82701,39.83331 -92.78198,61.76599 -149.11989,61.76599 z m 0,-420.48432 c -115.56539,0 -209.593689,94.00677 -209.593689,209.58227 0,115.56604 94.028299,209.57915 209.593689,209.57915 115.56571,0 209.58513,-94.01311 209.58513,-209.57915 0,-115.5755 -94.01942,-209.58227 -209.58513,-209.58227 v 0"
         mask="none"
         clip-path="none" />
    </g>
  </g>
  <g
     inkscape:groupmode="layer"
     id="layer6"
     inkscape:label="Colore"
     sodipodi:insensitive="true">
    <path
       clip-path="none"
       mask="none"
       d="m 447.21502,263.75104 c 0,106.82045 -86.59013,193.41354 -193.41995,193.41354 -106.8254,0 -193.423659,-86.59309 -193.423659,-193.41354 0,-106.83208 86.598259,-193.430963 193.423659,-193.430963 106.82982,0 193.41995,86.598883 193.41995,193.430963"
       style="fill:url(#radialGradient326-6-0);fill-opacity:1;fill-rule:nonzero;stroke:none;stroke-width:0.29116702"
       id="path328"
       inkscape:connector-curvature="0" />
  </g>
  <g
     inkscape:groupmode="layer"
     id="layer7"
     inkscape:label="Logo"
     sodipodi:insensitive="true">
    <path
       style="color:#000000;font-style:normal;font-variant:normal;font-weight:normal;font-stretch:normal;font-size:medium;line-height:normal;font-family:sans-serif;font-variant-ligatures:normal;font-variant-position:normal;font-variant-caps:normal;font-variant-numeric:normal;font-variant-alternates:normal;font-feature-settings:normal;text-indent:0;text-align:start;text-decoration:none;text-decoration-line:none;text-decoration-style:solid;text-decoration-color:#000000;letter-spacing:normal;word-spacing:normal;text-transform:none;writing-mode:lr-tb;direction:ltr;text-orientation:mixed;dominant-baseline:auto;baseline-shift:baseline;text-anchor:start;white-space:normal;shape-padding:0;clip-rule:nonzero;display:inline;overflow:visible;visibility:visible;opacity:1;isolation:auto;mix-blend-mode:normal;color-interpolation:sRGB;color-interpolation-filters:linearRGB;solid-color:#000000;solid-opacity:1;vector-effect:none;fill:#72abe4;fill-opacity:0.29761903;fill-rule:nonzero;stroke:none;stroke-width:1.65078604;stroke-linecap:round;stroke-linejoin:bevel;stroke-miterlimit:4;stroke-dasharray:none;stroke-dashoffset:0;stroke-opacity:1;paint-order:stroke fill markers;color-rendering:auto;image-rendering:auto;shape-rendering:auto;text-rendering:auto;enable-background:accumulate"
       d="m 254.61802,38.699474 -1.64951,0.01617 0.31265,31.689359 a 194.46296,194.46296 0 0 1 0.50671,-0.01797 194.46296,194.46296 0 0 1 1.15359,0.0575 z m -5.79486,0.0539 -1.64951,0.05929 1.13202,31.768422 a 194.46296,194.46296 0 0 1 1.66028,-0.05929 l -0.9649,-26.834253 -0.1761,-4.934168 z m 9.93841,0.01617 -0.50671,31.840297 a 194.46296,194.46296 0 0 1 1.66209,0.08445 l 0.49413,-31.822327 0.002,-0.07547 v -0.0018 z m -15.72969,0.185076 -1.64771,0.102421 1.9478,31.700142 a 194.46296,194.46296 0 0 1 1.66209,-0.05929 l -1.96218,-31.741468 z m 21.52096,0.01797 -1.32968,31.887014 a 194.46296,194.46296 0 0 1 1.6603,0.08265 l 1.31889,-31.90139 z m -27.30504,0.334215 -1.64411,0.143748 2.76176,31.62647 a 194.46296,194.46296 0 0 1 1.65131,-0.201248 z m 33.08912,0.01617 -2.14545,31.784594 a 194.46296,194.46296 0 0 1 1.6603,0.08445 l 2.13287,-31.757641 z m -38.86242,0.485152 -1.63873,0.185076 3.59013,31.682173 a 194.46296,194.46296 0 0 1 1.64951,-0.199452 z m 44.63572,0.01617 -2.94684,31.533034 a 194.46296,194.46296 0 0 1 1.64591,0.244372 l 2.94326,-31.624674 z m -50.39284,0.632494 -1.63514,0.228201 4.40589,31.590532 a 194.46296,194.46296 0 0 1 1.65131,-0.19945 z m 56.14996,0.01617 -3.77879,31.624673 a 194.46296,194.46296 0 0 1 1.64413,0.247966 l 3.7734,-31.676781 z m -61.89091,0.779836 -1.62795,0.271325 5.20009,31.351551 a 194.46296,194.46296 0 0 1 1.65131,-0.201248 z m 67.63008,0.01617 v 0.0018 l -4.59816,31.568971 a 194.46296,194.46296 0 0 1 1.64413,0.249763 l 4.58917,-31.581549 z m -73.34769,0.928975 -1.62076,0.312653 5.99971,31.177256 a 194.46296,194.46296 0 0 1 1.62256,-0.364762 z m 79.06528,0.01617 -5.39776,31.369519 a 194.46296,194.46296 0 0 1 1.64233,0.247967 l 5.38159,-31.337176 z m -84.75591,1.07452 -1.61179,0.353981 6.82625,31.13413 a 194.46296,194.46296 0 0 1 1.62257,-0.362964 z m 90.44656,0.01617 -6.174,31.065851 a 194.46296,194.46296 0 0 1 1.61357,0.41148 l 6.17939,-31.155694 z m -96.10846,1.221863 -1.60101,0.395308 h -0.002 l 7.62586,30.945461 a 194.46296,194.46296 0 0 1 1.62257,-0.364761 l -6.49025,-26.296995 -1.15358,-4.679013 z m 101.76855,0.01617 -1.06014,4.709561 -5.94579,26.3509 a 194.46296,194.46296 0 0 1 1.60998,0.41148 l 7.00773,-31.108976 -1.60998,-0.362965 z m -107.39451,1.367408 -1.59201,0.43484 v 0.0018 l 0.34319,1.254205 8.04094,29.355244 a 194.46296,194.46296 0 0 1 1.62435,-0.364762 z m 113.02227,0.01617 -7.81453,30.907727 a 194.46296,194.46296 0 0 1 1.60999,0.411481 l 7.80554,-30.914915 z m -118.61229,1.511157 -1.58124,0.476167 9.17116,30.386638 a 194.46296,194.46296 0 0 1 1.57764,-0.524681 z m 124.20231,0.01437 v 0.0018 l -8.58538,30.611246 a 194.46296,194.46296 0 0 1 1.61178,0.411481 l 8.56382,-30.578903 z m -129.75101,1.654905 -1.56865,0.519291 9.98334,30.244688 a 194.46296,194.46296 0 0 1 1.57943,-0.524683 l -9.99412,-30.237507 z m 135.2997,0.01617 -9.33287,30.260859 a 194.46296,194.46296 0 0 1 1.56327,0.5714 l 9.34724,-30.345311 z m -140.80526,1.796856 -1.55248,0.558822 10.75239,29.958988 a 194.46296,194.46296 0 0 1 1.57763,-0.522886 l -9.7713,-27.193625 -1.00445,-2.799502 h -0.002 z m 146.30903,0.01617 -10.15762,30.156642 a 194.46296,194.46296 0 0 1 1.55967,0.569603 l 10.16122,-30.199765 z m -151.76429,1.938809 -1.5381,0.598352 11.46753,29.53493 a 194.46296,194.46296 0 0 1 1.57944,-0.524682 z m 157.21776,0.01617 -1.58124,4.328627 -9.35624,25.578251 a 194.46296,194.46296 0 0 1 1.55968,0.569604 l 10.92848,-29.910473 -1.54889,-0.566009 z m -162.62091,2.077166 -1.52193,0.637884 12.23839,29.263604 a 194.46296,194.46296 0 0 1 1.51655,-0.679212 L 169.77764,54.970009 Z m 168.02405,0.01617 -11.66699,29.518758 a 194.46296,194.46296 0 0 1 1.56147,0.5714 l 10.977,-27.802759 0.66483,-1.680061 v -0.0018 z m -173.37149,2.217322 -1.50576,0.675618 13.02541,29.024621 a 194.46296,194.46296 0 0 1 1.51834,-0.679211 z m 178.71893,0.01438 -12.38752,29.123449 a 194.46296,194.46296 0 0 1 1.49858,0.724133 l 12.40909,-29.200714 z m -184.00707,2.353882 -1.4878,0.715148 13.75493,28.649079 a 194.46296,194.46296 0 0 1 1.51655,-0.679211 L 159.14206,59.571759 Z m 189.29522,0.01617 -13.19072,28.920403 a 194.46296,194.46296 0 0 1 1.49678,0.724134 l 13.19611,-28.959936 z m -194.52049,2.488646 -1.46983,0.752882 14.41439,28.142366 a 194.46296,194.46296 0 0 1 1.52014,-0.679212 L 153.91679,62.07653 Z m 199.74575,0.01617 -13.93642,28.580798 a 194.46296,194.46296 0 0 1 1.49678,0.722336 l 13.92385,-28.580798 z m -204.90632,2.62341 -1.44826,0.790617 15.16546,27.820728 a 194.46296,194.46296 0 0 1 1.44288,-0.828351 l -13.06854,-23.950323 -2.08974,-3.832695 z m 210.0651,0.01438 -14.61204,28.108226 a 194.46296,194.46296 0 0 1 1.49678,0.722336 l 14.5797,-28.068723 z m -215.1538,2.75635 -1.4285,0.826554 15.91835,27.490106 a 194.46296,194.46296 0 0 1 1.44108,-0.826554 z m 220.24429,0.01438 -15.30203,27.669793 a 194.46296,194.46296 0 0 1 1.41773,0.869678 l 15.32897,-27.741666 z m -225.26111,2.885752 -1.40694,0.864288 16.59397,27.030114 a 194.46296,194.46296 0 0 1 1.44288,-0.828354 z m 230.27613,0.01438 -16.07108,27.371514 a 194.46296,194.46296 0 0 1 1.41772,0.869678 l 16.07827,-27.405653 z m -235.21569,3.013328 -1.38537,0.900226 17.18872,26.446138 a 194.46296,194.46296 0 0 1 1.44468,-0.82836 L 133.71114,73.414741 Z m 240.15705,0.01438 -16.77006,26.945654 a 194.46296,194.46296 0 0 1 1.41772,0.86968 l 15.38468,-24.740914 1.36921,-2.201149 v -0.0018 z m -245.01934,3.140904 -1.36022,0.936162 17.92185,26.077778 a 194.46296,194.46296 0 0 1 1.35303,-0.96851 z m 249.87804,0.01438 -2.25325,3.423011 -15.12953,22.971009 a 194.46296,194.46296 0 0 1 1.41771,0.86789 l 17.34506,-26.354498 -1.37819,-0.907412 z m -254.65588,3.264888 -1.33507,0.970303 18.62442,25.659109 a 194.46296,194.46296 0 0 1 1.35124,-0.96671 z m 259.43373,0.01438 -18.04224,25.914262 a 194.46296,194.46296 0 0 1 1.32428,1.00804 l 16.47358,-23.680773 1.5992,-2.298179 v -0.0018 z m -264.12533,3.387075 -1.3099,1.004443 19.24074,25.120054 a 194.46296,194.46296 0 0 1 1.35123,-0.96671 z m 268.81692,0.01258 -18.76817,25.529737 a 194.46296,194.46296 0 0 1 1.32428,1.00624 l 18.77535,-25.558487 z m -273.41866,3.507464 -1.28475,1.038583 19.76002,24.46779 a 194.46296,194.46296 0 0 1 1.35484,-0.9703 z m 278.0222,0.01438 -19.40605,25.021223 a 194.46296,194.46296 0 0 1 1.32249,1.00624 l 17.53013,-22.618851 1.85795,-2.397007 v -0.0018 z m -282.53411,3.62426 -1.25601,1.070925 20.47159,24.054518 a 194.46296,194.46296 0 0 1 1.24881,-1.09788 z m 287.04422,0.01258 -19.9505,24.399513 a 194.46296,194.46296 0 0 1 1.32249,1.00624 l 19.90558,-24.359983 z m -291.4591,3.741055 -1.22905,1.101472 21.11846,23.556786 a 194.46296,194.46296 0 0 1 1.24702,-1.09788 z m 295.87397,0.01258 -20.57759,23.883818 a 194.46296,194.46296 0 0 1 1.21647,1.13381 l 20.61174,-23.941311 z m -300.19182,3.852458 -1.1985,1.13382 h -0.002 l 21.6629,22.94765 a 194.46296,194.46296 0 0 1 1.25062,-1.09787 z m 304.50788,0.0126 -2.4581,2.71146 -18.78973,20.70517 a 194.46296,194.46296 0 0 1 1.21647,1.13202 L 407.26457,99.14756 406.0427,98.0389 Z m -308.7233,3.96207 -1.17155,1.16436 22.10672,22.24149 a 194.46296,194.46296 0 0 1 1.24702,-1.10506 z m 312.94051,0.0126 -21.82101,22.83625 a 194.46296,194.46296 0 0 1 1.21467,1.13202 l 19.4312,-20.3494 2.36826,-2.47786 v -0.002 z m -317.053513,4.06988 -1.141009,1.19491 h 0.0018 l 22.789542,21.7761 a 194.46296,194.46296 0 0 1 1.13201,-1.21647 z m 321.164733,0.0126 -22.28462,22.14984 a 194.46296,194.46296 0 0 1 1.21468,1.13562 l 22.2343,-22.11572 z m -325.16993,4.1759 -1.110456,1.22186 23.368126,21.20649 a 194.46296,194.46296 0 0 1 1.13382,-1.21646 z m 329.17691,0.0108 -22.87937,21.60001 a 194.46296,194.46296 0 0 1 1.09609,1.24881 l 22.9153,-21.64852 h 0.002 z m -333.074293,4.2765 v 0.002 l -1.078109,1.25057 23.835302,20.53627 a 194.46296,194.46296 0 0 1 1.13561,-1.21827 z M 422.27191,114.57 398.7852,135.62556 a 194.46296,194.46296 0 0 1 1.09788,1.24881 l 20.76986,-18.63339 2.72224,-2.44013 v -0.002 l -1.10327,-1.22725 z m -340.755856,4.37714 -1.043977,1.27936 24.228813,19.81214 a 194.46296,194.46296 0 0 1 1.0907,-1.256 z m 344.541826,0.0108 -23.98264,20.41229 a 194.46296,194.46296 0 0 1 1.09609,1.24881 l 23.95568,-20.4033 z m -348.212809,4.47417 -1.011621,1.30452 24.84872,19.27308 a 194.46296,194.46296 0 0 1 1.00624,-1.32428 z m 351.883799,0.009 -24.36178,19.67558 a 194.46296,194.46296 0 0 1 1.05655,1.28295 l 24.34201,-19.67378 z m -355.437979,4.5676 -0.97749,1.32968 25.353649,18.63879 a 194.46296,194.46296 0 0 1 1.00444,-1.32428 z m 358.992159,0.009 -24.9242,19.08981 a 194.46296,194.46296 0 0 1 0.96851,1.35303 l 24.95833,-19.13113 h 0.002 z m -362.427744,4.65746 -0.943349,1.35482 25.736375,17.91826 a 194.46296,194.46296 0 0 1 1.006238,-1.32608 z m 365.861534,0.009 -25.45786,18.47887 a 194.46296,194.46296 0 0 1 0.9685,1.35303 l 25.45966,-18.49504 z m -369.174935,4.7455 -0.907414,1.37818 26.081371,17.17796 a 194.46296,194.46296 0 0 1 0.916393,-1.38538 z m 372.490135,0.009 -25.87114,17.77989 a 194.46296,194.46296 0 0 1 0.96491,1.35124 l 25.84059,-17.77091 z m -375.681352,4.82816 -0.87148,1.40155 26.62941,16.5724 a 194.46296,194.46296 0 0 1 0.867883,-1.41772 z m 378.870772,0.009 -26.15864,17.00185 a 194.46296,194.46296 0 0 1 0.88046,1.41054 l 26.17841,-17.02881 z m -381.936217,4.90901 -0.835536,1.42312 27.051677,15.8842 a 194.46296,194.46296 0 0 1 0.869676,-1.41771 l -24.931384,-14.62642 -2.15263,-1.26319 z m 385.001647,0.009 -26.68691,16.38373 a 194.46296,194.46296 0 0 1 0.82656,1.44109 l 26.72284,-16.41968 h 0.002 z m -387.937705,4.98628 -0.799601,1.44467 27.342762,15.12234 a 194.46296,194.46296 0 0 1 0.869676,-1.41952 z m 390.873775,0.007 -27.14151,15.7153 a 194.46296,194.46296 0 0 1 0.82654,1.44288 l 27.14332,-15.72968 z m -393.682267,5.06175 -0.760068,1.46443 27.642844,14.37126 a 194.46296,194.46296 0 0 1 0.725927,-1.49498 z m 396.490757,0.007 -27.46855,14.9732 a 194.46296,194.46296 0 0 1 0.82835,1.44288 L 452.82206,158.7044 Z M 52.865177,162.3878 v 0.002 l -0.724134,1.4824 28.111818,13.70643 a 194.46296,194.46296 0 0 1 0.72234,-1.49678 z m 401.841793,0.009 -27.65722,14.16642 a 194.46296,194.46296 0 0 1 0.6864,1.51475 l 27.7237,-14.21314 z m -404.386137,5.19831 -0.684602,1.50217 h 0.0018 L 78.0823,182.0725 a 194.46296,194.46296 0 0 1 0.72234,-1.49678 l -26.606097,-12.12524 -1.875916,-0.85531 z m 406.928687,0.007 -28.15135,13.51596 a 194.46296,194.46296 0 0 1 0.67921,1.51834 l 28.18725,-13.5465 z m -409.336477,5.26479 -0.64507,1.51834 28.641889,12.18269 a 194.46296,194.46296 0 0 1 0.72234,-1.49882 z m 411.744277,0.006 -28.52152,12.8008 a 194.46296,194.46296 0 0 1 0.67922,1.51835 l 28.51969,-12.81159 -0.67739,-1.50577 z m -414.015504,5.32588 -0.605537,1.53452 28.897039,11.42261 a 194.46296,194.46296 0 0 1 0.569603,-1.56146 z m 416.286684,0.006 -28.75327,12.02456 a 194.46296,194.46296 0 0 1 0.67921,1.51835 l 28.71198,-12.01917 z m -418.419553,5.38159 -0.567809,1.55069 29.279774,10.71105 a 194.46296,194.46296 0 0 1 0.571406,-1.56326 z m 420.554203,0.006 -28.88801,11.21597 a 194.46296,194.46296 0 0 1 0.52468,1.57944 l 28.95995,-11.25551 z m -422.548715,5.43548 -0.526483,1.56506 29.522357,9.94381 a 194.46296,194.46296 0 0 1 0.569603,-1.56147 z m 424.541505,0.006 -1.57769,0.56601 -27.72727,9.95279 a 194.46296,194.46296 0 0 1 0.52468,1.57764 l 29.33909,-10.54216 -0.55706,-1.55428 z m -426.395856,5.48326 -0.485157,1.57763 29.621182,9.13522 a 194.46296,194.46296 0 0 1 0.571397,-1.56326 l -28.327436,-8.72553 -1.378192,-0.42406 z m 428.250196,0.006 -29.58346,9.76592 a 194.46296,194.46296 0 0 1 0.52289,1.57763 l 29.57806,-9.77669 z m -429.960808,5.53072 -0.445616,1.59023 29.834998,8.36795 a 194.46296,194.46296 0 0 1 0.413278,-1.61178 z m 431.671438,0.006 -29.72004,8.96991 a 194.46296,194.46296 0 0 1 0.52289,1.57584 l 29.67508,-8.96631 z m -433.240095,5.57385 -0.40429,1.5992 30.127895,7.61867 a 194.46296,194.46296 0 0 1 0.409681,-1.60998 z m 434.808675,0.004 -29.80801,8.16491 a 194.46296,194.46296 0 0 1 0.36476,1.62256 l 29.87988,-8.19546 z m -436.231781,5.61338 -0.362964,1.60998 30.273437,6.82985 a 194.46296,194.46296 0 0 1 0.411475,-1.60998 z m 437.654911,0.004 -1.14097,0.2821 -28.99409,7.1443 a 194.46296,194.46296 0 0 1 0.36297,1.62076 l 30.16741,-7.44437 -0.39348,-1.60279 z m -438.934277,5.64751 -0.321638,1.61897 30.273437,6.01588 a 194.46296,194.46296 0 0 1 0.411484,-1.61179 z m 440.213617,0.004 -30.32191,6.64837 a 194.46296,194.46296 0 0 1 0.36476,1.62077 l 25.68784,-5.64214 4.62332,-1.01343 v -0.002 z m -441.347432,5.67986 -0.278509,1.62616 30.445936,5.23963 a 194.46296,194.46296 0 0 1 0.247965,-1.64232 z m 442.481322,0.004 -30.36152,5.84158 a 194.46296,194.46296 0 0 1 0.36477,1.62256 l 30.30761,-5.84338 v 0 z m -443.4678,5.70681 -0.237183,1.63335 30.645389,4.46518 a 194.46296,194.46296 0 0 1 0.247965,-1.64412 z m 444.45421,0.002 -30.40458,5.04198 a 194.46296,194.46296 0 0 1 0.20125,1.6531 l 30.47289,-5.06533 z m -445.293333,5.73197 -0.195866,1.63874 h 0.0018 l 30.693909,3.66737 a 194.46296,194.46296 0 0 1 0.247965,-1.64411 z m 446.130713,0.002 -0.69183,0.097 -29.94638,4.17769 a 194.46296,194.46296 0 0 1 0.19945,1.64952 l 30.66876,-4.2891 -0.22825,-1.63514 z m -446.820706,5.75174 -0.154531,1.64412 h 0.0018 l 30.595075,2.8588 a 194.46296,194.46296 0 0 1 0.247965,-1.64592 z m 447.512446,0.002 -30.728,3.4823 a 194.46296,194.46296 0 0 1 0.20124,1.64952 l 30.7137,-3.49129 z m -448.055103,5.76791 -0.111401,1.64591 30.729835,2.07537 a 194.46296,194.46296 0 0 1 0.08262,-1.66029 z m 448.597803,0.002 -30.66875,2.67732 a 194.46296,194.46296 0 0 1 0.20124,1.6513 l 30.61122,-2.6845 z m -448.993113,5.77869 -0.06826,1.64951 30.832267,1.28475 a 194.46296,194.46296 0 0 1 0.08261,-1.66029 l -30.638204,-1.26499 -0.206639,-0.009 z m 449.386593,0.002 -0.30185,0.0179 -30.33633,1.86334 a 194.46296,194.46296 0 0 1 0.0593,1.6621 l 30.68133,-1.89569 -0.10065,-1.64772 z m -449.630961,5.78947 -0.02512,1.64951 30.783747,0.49054 a 194.46296,194.46296 0 0 1 0.08262,-1.66029 z m 449.877151,0 -30.70828,1.09429 a 194.46296,194.46296 0 0 1 0.0593,1.66029 l 30.70828,-1.10507 z m -419.285673,5.48041 -30.686716,0.31266 0.01619,1.65131 30.586096,-0.30188 a 194.46296,194.46296 0 0 1 0.08446,-1.66209 z m 419.380893,0.31266 -30.62561,0.30187 a 194.46296,194.46296 0 0 1 0.0575,1.63074 194.46296,194.46296 0 0 1 -0.002,0.0306 l 30.58605,-0.31265 z m -419.397067,4.69258 -30.61663,1.10148 h -0.0018 l 0.05925,1.64951 30.618434,-1.09069 a 194.46296,194.46296 0 0 1 -0.05921,-1.6603 z m 388.660057,0.61274 a 194.46296,194.46296 0 0 1 -0.0827,1.66029 l 30.7406,0.47796 0.0267,-1.64951 v 0 z m -388.482168,4.38971 -30.593271,1.8903 0.102422,1.64771 30.550152,-1.87592 a 194.46296,194.46296 0 0 1 -0.05925,-1.66209 z m 388.232398,0.60914 a 194.46296,194.46296 0 0 1 -0.0845,1.65849 l 30.74776,1.27038 0.0681,-1.64771 z m -388.054508,4.3987 -30.41898,2.66654 0.143749,1.64412 30.39023,-2.65396 a 194.46296,194.46296 0 0 1 -0.114999,-1.6567 z m 387.802948,0.59656 a 194.46296,194.46296 0 0 1 -0.0826,1.66029 l 30.60226,2.05561 0.11142,-1.64772 z m -387.28365,4.38253 -30.438751,3.46075 0.186869,1.64053 30.451326,-3.45176 a 194.46296,194.46296 0 0 1 -0.199444,-1.64952 z m 387.03389,0.61992 a 194.46296,194.46296 0 0 1 -0.14375,1.6567 l 30.37045,2.82645 0.15456,-1.64412 z m -386.430147,4.35018 -30.392033,4.24957 h -0.0018 l 0.228204,1.63514 h 0.0018 l 0.691787,-0.097 29.671487,-4.13995 a 194.46296,194.46296 0 0 1 -0.199445,-1.64773 z M 446.6858,288.1876 a 194.46296,194.46296 0 0 1 -0.24796,1.64412 l 30.42974,3.62426 0.19587,-1.63874 v 0 z m -385.181333,4.35018 -30.199773,5.02042 0.269529,1.62796 h 0.0018 l 0.799601,-0.13298 29.328294,-4.86409 a 194.46296,194.46296 0 0 1 -0.199454,-1.65131 z m 384.433843,0.60016 a 194.46296,194.46296 0 0 1 -0.24797,1.64412 l 30.33812,4.40768 0.23717,-1.63334 z m -383.830099,4.38073 -29.858365,5.75713 h -0.0018 l 0.31265,1.62077 29.872735,-5.74815 a 194.46296,194.46296 0 0 1 -0.325226,-1.62975 z m 383.082609,0.56961 a 194.46296,194.46296 0 0 1 -0.24797,1.64232 l 30.0991,5.16955 0.28032,-1.62795 v 0 z m -382.022467,4.32682 -29.827822,6.55134 0.353985,1.61358 29.836801,-6.54236 a 194.46296,194.46296 0 0 1 -0.362964,-1.62256 z m 381.273177,0.6289 a 194.46296,194.46296 0 0 1 -0.36836,1.62257 l 29.83498,5.91705 0.32163,-1.61898 v -0.002 l -4.71854,-0.93616 z m -380.177091,4.25855 -29.685867,7.32579 0.395311,1.60279 29.655313,-7.30781 a 194.46296,194.46296 0 0 1 -0.364757,-1.62077 z m 378.980381,0.61093 a 194.46296,194.46296 0 0 1 -0.41148,1.60998 l 29.79547,6.71127 0.36478,-1.60998 v 0 z m -377.882502,4.27832 -29.401966,8.06429 0.436636,1.59202 29.328294,-8.03375 a 194.46296,194.46296 0 0 1 -0.362964,-1.62256 z m 376.640872,0.57499 a 194.46296,194.46296 0 0 1 -0.40968,1.60819 l 29.61217,7.47672 0.40434,-1.59921 v -0.002 l -4.6144,-1.16432 z m -375.519633,4.31785 -28.995874,8.76147 0.477963,1.57944 29.040788,-8.76507 a 194.46296,194.46296 0 0 1 -0.522877,-1.57584 z m 374.281603,0.53366 a 194.46296,194.46296 0 0 1 -0.41148,1.61179 l 29.28333,8.20085 0.44564,-1.59022 z m -372.702173,4.22262 -28.904233,9.55388 0.517494,1.56687 28.911419,-9.5449 a 194.46296,194.46296 0 0 1 -0.52468,-1.57585 z m 371.444363,0.63429 a 194.46296,194.46296 0 0 1 -0.5696,1.56146 l 28.98872,8.93039 0.48511,-1.57765 z m -369.863129,4.12019 -28.672433,10.30317 0.558821,1.55429 28.636498,-10.27982 a 194.46296,194.46296 0 0 1 -0.522886,-1.57764 z m 368.143539,0.59297 a 194.46296,194.46296 0 0 1 -0.57139,1.56146 l 28.85567,9.70842 0.52651,-1.56507 z m -366.562305,4.1669 -28.298687,10.99856 0.596549,1.53811 v 0.002 l 28.226817,-10.95902 a 194.46296,194.46296 0 0 1 -0.524679,-1.57944 z m 364.842715,0.54085 a 194.46296,194.46296 0 0 1 -0.5696,1.56148 l 28.57903,10.44153 0.56781,-1.55069 z m -363.180624,4.19567 -27.867441,11.66519 0.637885,1.52374 27.908767,-11.67238 a 194.46296,194.46296 0 0 1 -0.679211,-1.51655 z m 361.462824,0.51389 a 194.46296,194.46296 0 0 1 -0.5696,1.55968 l 28.16392,11.12075 0.60738,-1.53452 v 0 z m -359.4144,4.0627 -27.682376,12.43605 h -0.0018 l 0.677416,1.50576 27.685964,-12.42526 a 194.46296,194.46296 0 0 1 -0.67921,-1.51655 z m 357.61935,0.62171 a 194.46296,194.46296 0 0 1 -0.72233,1.49678 l 27.84052,11.83051 0.645,-1.51835 z m -355.570936,3.95309 -27.362532,13.14939 0.715145,1.4896 27.326597,-13.11885 a 194.46296,194.46296 0 0 1 -0.67921,-1.52014 z m 353.387756,0.56421 a 194.46296,194.46296 0 0 1 -0.72234,1.49678 l 27.61407,12.58338 v 0.002 l 0.68466,-1.50217 v -0.002 l -4.03577,-1.83998 z m -351.337548,4.01777 -26.907919,13.79447 0.752883,1.46803 26.834246,-13.74416 a 194.46296,194.46296 0 0 1 -0.67921,-1.51834 z m 349.157968,0.49773 a 194.46296,194.46296 0 0 1 -0.72414,1.49678 l 27.25292,13.27518 0.72413,-1.48241 v -0.002 l -3.97464,-1.93697 z m -346.972991,4.02136 -26.453315,14.43416 h -0.0018 l 0.790613,1.44826 v 0.002 l 26.491098,-14.44138 a 194.46296,194.46296 0 0 1 -0.826556,-1.44288 z m 344.789801,0.49594 a 194.46296,194.46296 0 0 1 -0.72234,1.49678 l 26.75879,13.89868 0.76186,-1.46444 h -0.002 z m -342.292165,3.85785 -22.49305,13.03439 -3.68895,2.13467 v 0.002 l 0.82835,1.42671 v 0.002 l 26.180197,-15.15828 a 194.46296,194.46296 0 0 1 -0.826547,-1.44108 z m 339.983205,0.59655 a 194.46296,194.46296 0 0 1 -0.86968,1.41773 l 26.40661,14.59227 0.7996,-1.44468 z m -337.489175,3.75184 -24.394118,14.98938 -1.379986,0.84811 -0.0018,0.002 0.864285,1.40515 25.738178,-15.80156 a 194.46296,194.46296 0 0 1 -0.826556,-1.44287 z m 334.863975,0.52828 a 194.46296,194.46296 0 0 1 -0.86789,1.41592 l 26.09395,15.30921 0.83554,-1.4231 z m -332.364545,3.8291 -25.245827,16.42147 0.90022,1.38358 25.173957,-16.36217 a 194.46296,194.46296 0 0 1 -0.82835,-1.44288 z m 329.742925,0.44741 a 194.46296,194.46296 0 0 1 -0.86788,1.41593 l 25.65013,15.95069 0.87147,-1.40155 z m -327.063811,3.79856 -24.769668,17.036 0.93437,1.36021 h 0.0018 l 2.33052,-1.60279 22.469691,-15.44219 a 194.46296,194.46296 0 0 1 -0.966707,-1.35123 z m 324.440401,0.48156 a 194.46296,194.46296 0 0 1 -0.86788,1.41592 l 25.08232,16.50772 0.90921,-1.37819 h -0.002 z m -321.520508,3.6009 -24.410292,17.73138 0.970296,1.33506 v 0.002 l 24.406704,-17.717 a 194.46296,194.46296 0 0 1 -0.966708,-1.35124 z m 318.722798,0.566 a 194.46296,194.46296 0 0 1 -1.00623,1.32429 l 24.70498,17.18693 0.94335,-1.35483 z m -315.8029,3.51645 -23.928746,18.34052 1.002652,1.30991 v 0.002 L 98.19627,381.16614 a 194.46296,194.46296 0 0 1 -0.9667,-1.35124 z m 312.76442,0.48336 a 194.46296,194.46296 0 0 1 -1.00623,1.32248 l 24.30786,17.85536 0.97749,-1.32967 z m -309.84094,3.60449 -23.332186,18.85621 1.036793,1.28296 v 0.002 l 23.262093,-18.78793 a 194.46296,194.46296 0 0 1 -0.9667,-1.35303 z m 306.80425,0.38992 a 194.46296,194.46296 0 0 1 -1.00624,1.32249 l 23.79038,18.43754 1.01163,-1.30452 z m -303.66155,3.52723 -22.83625,19.44918 1.069131,1.2578 22.863199,-19.45817 a 194.46296,194.46296 0 0 1 -1.09608,-1.24881 z m 300.62128,0.47078 a 194.46296,194.46296 0 0 1 -1.00624,1.32428 l 23.15967,18.92269 v -0.002 l 1.04398,-1.27756 z m -297.30788,3.30082 -22.397809,20.09245 1.103271,1.22905 22.390628,-20.07269 a 194.46296,194.46296 0 0 1 -1.09609,-1.24881 z m 294.05736,0.52648 a 194.46296,194.46296 0 0 1 -1.13382,1.21647 l 22.7518,19.58933 1.07812,-1.25061 z m -290.74396,3.24692 -21.844378,20.6369 h -0.0018 l 1.133814,1.20029 21.810254,-20.58837 a 194.46296,194.46296 0 0 1 -1.09788,-1.24882 z m 287.31915,0.42945 a 194.46296,194.46296 0 0 1 -1.13202,1.21467 l 19.7798,17.93623 2.49762,2.26763 h 0.002 l 1.10866,-1.22186 z m -283.99855,3.34754 -21.190334,21.07713 1.164367,1.16975 21.129237,-21.00166 a 194.46296,194.46296 0 0 1 -1.10327,-1.24522 z m 280.57554,0.32523 a 194.46296,194.46296 0 0 1 -1.13382,1.21647 l 21.69705,20.71776 v -0.002 l 1.141,-1.1931 z m -277.01058,3.21279 -20.67284,21.65032 1.19312,1.141 20.6962,-21.65751 a 194.46296,194.46296 0 0 1 -1.21648,-1.13381 z m 273.58577,0.46358 a 194.46296,194.46296 0 0 1 -1.13562,1.21648 l 21.01065,21.12384 1.17155,-1.16437 z m -269.9112,2.96122 -20.16072,22.23251 1.22365,1.10866 20.15355,-22.20915 a 194.46296,194.46296 0 0 1 -1.21648,-1.13202 z m 266.24561,0.47796 a 194.46296,194.46296 0 0 1 -1.24881,1.09788 l 20.574,21.77791 1.2003,-1.13382 z m -262.56923,2.94685 -19.54802,22.70508 1.25062,1.07632 19.51386,-22.64938 a 194.46296,194.46296 0 0 1 -1.21646,-1.13202 z m 258.79404,0.37015 a 194.46296,194.46296 0 0 1 -1.24881,1.09609 l 20.03135,22.32773 1.22905,-1.10147 z m -255.11229,3.05825 -18.84183,23.06086 1.27756,1.04577 18.82926,-23.02851 a 194.46296,194.46296 0 0 1 -1.26499,-1.07812 z m 251.33889,0.25695 a 194.46296,194.46296 0 0 1 -1.24882,1.09608 l 19.38988,22.76618 1.25601,-1.07093 z m -247.39479,2.85701 -18.30277,23.61787 1.30451,1.01163 18.32254,-23.62326 a 194.46296,194.46296 0 0 1 -1.32428,-1.00624 z m 243.6178,0.46179 a 194.46296,194.46296 0 0 1 -1.29194,1.04397 l 18.69809,23.13632 v 0.002 l 1.28475,-1.03859 z m -239.6162,2.58028 -15.99921,21.7797 -1.72857,2.35028 v 0.002 l 1.33147,0.97749 v -0.002 l 17.7188,-24.10123 a 194.46296,194.46296 0 0 1 -1.32249,-1.00624 z m 235.58225,0.42405 a 194.46296,194.46296 0 0 1 -1.35123,0.96672 l 18.18958,23.73108 1.3099,-1.00444 z m -231.58065,2.61803 -17.06115,24.5235 1.35483,0.94335 17.02881,-24.46061 a 194.46296,194.46296 0 0 1 -1.32249,-1.00624 z m 227.49281,0.30547 a 194.46296,194.46296 0 0 1 -1.35124,0.96491 l 17.58584,24.21084 1.33506,-0.9703 z m -223.48581,2.742 -16.31547,24.79122 1.37999,0.90742 16.34061,-24.811 a 194.46296,194.46296 0 0 1 -1.40513,-0.88764 z m 219.39976,0.17968 a 194.46296,194.46296 0 0 1 -1.35304,0.96671 l 16.89585,24.56482 v 0.002 l 1.36021,-0.93616 z m -215.12505,2.46709 -15.75304,25.33388 1.40155,0.87327 h 0.002 l 2.22631,-3.57934 13.54111,-21.75814 a 194.46296,194.46296 0 0 1 -1.41772,-0.86967 z m 211.03181,0.45999 a 194.46296,194.46296 0 0 1 -1.4267,0.85171 l 13.97235,21.47963 2.2281,3.4284 h 0.002 l 1.38358,-0.89843 v -0.002 l -1.45905,-2.24248 z m -206.74631,2.16701 -15.12054,25.77231 1.42491,0.83554 15.11156,-25.73817 a 194.46296,194.46296 0 0 1 -1.41593,-0.86968 z m 202.39612,0.36297 a 194.46296,194.46296 0 0 1 -1.44288,0.82655 l 15.62726,25.43271 1.40694,-0.86429 z m -198.10881,2.26583 -14.41259,26.08137 1.44468,0.79781 h 0.002 l 2.0556,-3.7195 12.32823,-22.29 a 194.46296,194.46296 0 0 1 -1.41772,-0.86968 z m 193.74784,0.23539 a 194.46296,194.46296 0 0 1 -1.44108,0.82656 l 14.9696,25.8316 1.42851,-0.82655 z m -189.43179,2.35927 -13.65791,26.2934 1.46444,0.76187 13.69025,-26.33293 a 194.46296,194.46296 0 0 1 -1.49678,-0.72234 z m 185.07081,0.14195 a 194.46296,194.46296 0 0 1 -1.44107,0.82656 l 14.24188,26.10113 1.44826,-0.79061 z m -180.54274,2.04483 -13.04697,26.78394 1.4842,0.72234 13.05955,-26.78215 a 194.46296,194.46296 0 0 1 -1.49678,-0.72413 z m 176.16021,0.42585 a 194.46296,194.46296 0 0 1 -1.51834,0.67921 l 13.54111,26.41559 1.46983,-0.75109 v -0.002 l -1.02241,-1.99451 z m -171.63393,1.76092 -12.36596,27.13972 1.50217,0.6846 12.36058,-27.10019 a 194.46296,194.46296 0 0 1 -1.49679,-0.72413 z m 167.03758,0.29468 a 194.46296,194.46296 0 0 1 -1.51655,0.67921 l 12.91041,26.86481 1.4878,-0.71335 z m -162.5077,1.8939 -11.62566,27.35893 1.52014,0.64686 v -0.002 l 11.6041,-27.27987 a 194.46296,194.46296 0 0 1 -1.49858,-0.72413 z m 157.91852,0.16171 a 194.46296,194.46296 0 0 1 -1.51475,0.67742 l 12.20964,27.18104 1.50576,-0.67562 z m -153.33833,1.92623 -10.87458,27.54222 1.53632,0.60733 10.90152,-27.57995 a 194.46296,194.46296 0 0 1 -1.56326,-0.5696 z m 148.74916,0.12758 a 194.46296,194.46296 0 0 1 -1.51654,0.67741 l 11.45315,27.35894 v 0.002 l 1.52194,-0.63789 z m -144.02163,1.5974 -10.21333,27.9519 1.55068,0.56602 10.22232,-27.94831 a 194.46296,194.46296 0 0 1 -1.55967,-0.56961 z m 139.38574,0.35937 a 194.46296,194.46296 0 0 1 -1.57764,0.52469 l 10.747,27.65002 1.53811,-0.59835 z m -134.66181,1.36382 -8.98068,26.6923 -0.5157,1.52913 v 0.002 l 1.56326,0.52648 h 0.002 l 1.48601,-4.41847 8.00499,-23.76163 a 194.46296,194.46296 0 0 1 -1.55968,-0.5696 z m 129.88397,0.22281 a 194.46296,194.46296 0 0 1 -1.57584,0.52468 l 10.06778,28.01659 1.55249,-0.55703 z m -125.15824,1.50217 -8.73272,28.3508 1.57764,0.48695 8.71835,-28.26635 a 194.46296,194.46296 0 0 1 -1.56327,-0.5714 z m 120.38759,0.0845 a 194.46296,194.46296 0 0 1 -1.57585,0.52289 l 7.90797,23.92693 1.42491,4.31785 h 0.002 l 1.56685,-0.5175 z m -115.59897,1.46983 -7.62406,27.22417 -0.35936,1.28296 v 0.002 l 1.58841,0.44382 8.0032,-28.54127 a 194.46296,194.46296 0 0 1 -1.60819,-0.41147 z m 110.82472,0.11679 a 194.46296,194.46296 0 0 1 -1.57764,0.52289 l 8.56023,28.32924 1.58123,-0.47617 z m -105.95164,1.12843 -7.27906,28.83056 1.60099,0.4043 7.28806,-28.82338 a 194.46296,194.46296 0 0 1 -1.60999,-0.41148 z m 101.12528,0.2893 a 194.46296,194.46296 0 0 1 -1.62436,0.36476 l 7.84328,28.59697 1.59202,-0.43664 h 0.002 z m -96.25221,0.95592 -6.53516,29.01025 1.61178,0.36296 6.53516,-28.96173 a 194.46296,194.46296 0 0 1 -1.61178,-0.41148 z m 91.3396,0.14555 a 194.46296,194.46296 0 0 1 -1.62075,0.36476 l 7.12633,28.87907 1.60279,-0.39531 z m -86.46113,1.09968 -5.76072,29.04438 1.61896,0.32164 v -0.002 l 5.75354,-28.95274 a 194.46296,194.46296 0 0 1 -1.61178,-0.41148 z m 81.55213,0.004 a 194.46296,194.46296 0 0 1 -1.62077,0.36296 l 6.37345,29.01384 v 0.002 l 1.61179,-0.35398 z m -76.61976,0.99726 -5.00964,29.17556 1.62616,0.2803 5.02581,-29.208 a 194.46296,194.46296 0 0 1 -1.64233,-0.24796 z m 71.71074,0.10422 a 194.46296,194.46296 0 0 1 -1.62076,0.36296 l 5.59182,29.00485 1.62076,-0.31265 z m -66.73524,0.64686 -4.27473,29.41095 1.63334,0.23898 v -0.002 l 4.28371,-29.40016 a 194.46296,194.46296 0 0 1 -1.64232,-0.24797 z m 61.77772,0.21382 a 194.46296,194.46296 0 0 1 -1.65131,0.20125 l 4.86229,29.24923 v 0.002 l 1.62795,-0.27133 z m -56.80583,0.53727 -3.51285,29.49899 1.63873,0.19585 3.51825,-29.44688 a 194.46296,194.46296 0 0 1 -1.64413,-0.24796 z m 51.80877,0.0701 a 194.46296,194.46296 0 0 1 -1.65131,0.19946 l 4.1184,29.44149 1.63513,-0.22821 z m -4.99166,0.60554 a 194.46296,194.46296 0 0 1 -1.65132,0.19945 l 3.35293,29.48462 1.64054,-0.18507 v -0.002 l -0.0629,-0.55523 z m -41.83621,0.0773 -2.74021,29.43789 1.64233,0.15274 2.742,-29.34267 a 194.46296,194.46296 0 0 1 -1.64412,-0.24796 z m 5.01142,0.43304 -1.98372,29.54751 1.64772,0.1114 v -0.002 l 1.9963,-29.57447 a 194.46296,194.46296 0 0 1 -1.6603,-0.0826 z m 31.82773,0.097 a 194.46296,194.46296 0 0 1 -1.65132,0.19945 l 2.57669,29.3786 1.64413,-0.14375 v -0.002 l -0.0377,-0.42945 z m -26.80192,0.15453 -1.22725,29.68946 1.64952,0.0683 1.23624,-29.67509 a 194.46296,194.46296 0 0 1 -1.65851,-0.0826 z m 21.7797,0.18328 a 194.46296,194.46296 0 0 1 -1.6603,0.0593 l 1.82381,29.53134 1.64772,-0.10063 z m -16.75569,0.0683 -0.46178,29.68227 1.6513,0.027 0.47078,-29.62656 a 194.46296,194.46296 0 0 1 -1.6603,-0.0826 z m 11.72449,0.10961 a 194.46296,194.46296 0 0 1 -1.6603,0.0593 l 1.06374,29.55649 1.64952,-0.0593 z m -6.69329,0.14195 0.30188,29.52775 1.64951,-0.0162 v -0.002 -0.0503 l -0.2893,-29.42352 a 194.46296,194.46296 0 0 1 -0.54085,0.0197 194.46296,194.46296 0 0 1 -1.12124,-0.0557 z"
       id="path878"
       inkscape:connector-curvature="0" />
    <path
       inkscape:connector-curvature="0"
       id="path860"
       d="m 761.56358,38.699474 -1.64951,0.01617 0.31265,31.689359 a 194.46296,194.46296 0 0 1 0.50671,-0.01797 194.46296,194.46296 0 0 1 1.15359,0.0575 z m -5.79486,0.0539 -1.64951,0.05929 1.13202,31.768422 a 194.46296,194.46296 0 0 1 1.66029,-0.05929 l -0.96491,-26.834253 -0.17609,-4.934168 z m 9.93841,0.01617 -0.50671,31.840297 a 194.46296,194.46296 0 0 1 1.66209,0.08445 l 0.49414,-31.822327 0.002,-0.07547 v -0.0018 z m -15.72968,0.185076 -1.64772,0.102421 1.9478,31.700142 a 194.46296,194.46296 0 0 1 1.66209,-0.05929 l -1.96217,-31.741468 z m 21.52095,0.01797 -1.32967,31.887014 a 194.46296,194.46296 0 0 1 1.66029,0.08265 l 1.31889,-31.90139 z m -27.30503,0.334215 -1.64412,0.143748 2.76177,31.62647 a 194.46296,194.46296 0 0 1 1.6513,-0.201248 z m 33.08911,0.01617 -2.14545,31.784594 a 194.46296,194.46296 0 0 1 1.6603,0.08445 L 778.9302,39.43439 Z m -38.86241,0.485152 -1.63874,0.185076 3.59013,31.682173 a 194.46296,194.46296 0 0 1 1.64951,-0.199452 z m 44.63571,0.01617 -2.94684,31.533034 a 194.46296,194.46296 0 0 1 1.64592,0.244372 l 2.94325,-31.624674 z m -50.39284,0.632494 -1.63514,0.228201 4.40589,31.590532 a 194.46296,194.46296 0 0 1 1.65131,-0.19945 z m 56.14996,0.01617 -3.77878,31.624673 a 194.46296,194.46296 0 0 1 1.64412,0.247966 l 3.7734,-31.676781 z m -61.89091,0.779836 -1.62795,0.271325 5.2001,31.351551 a 194.46296,194.46296 0 0 1 1.65131,-0.201248 z m 67.63008,0.01617 v 0.0018 l -4.59816,31.568971 a 194.46296,194.46296 0 0 1 1.64413,0.249763 l 4.58917,-31.581549 z m -73.34768,0.928975 -1.62077,0.312653 5.99971,31.177256 a 194.46296,194.46296 0 0 1 1.62256,-0.364762 z m 79.06528,0.01617 -5.39776,31.369519 a 194.46296,194.46296 0 0 1 1.64233,0.247967 l 5.38158,-31.337176 z m -84.75592,1.07452 -1.61179,0.353981 6.82626,31.13413 a 194.46296,194.46296 0 0 1 1.62257,-0.362964 z m 90.44656,0.01617 -6.174,31.065851 a 194.46296,194.46296 0 0 1 1.61357,0.41148 l 6.17939,-31.155694 z m -96.10846,1.221863 -1.601,0.395308 h -0.002 l 7.62585,30.945461 a 194.46296,194.46296 0 0 1 1.62257,-0.364761 l -6.49025,-26.296995 -1.15358,-4.679013 z m 101.76856,0.01617 -1.06015,4.709561 -5.94579,26.3509 a 194.46296,194.46296 0 0 1 1.60998,0.41148 L 813.23218,44.9058 811.6222,44.542835 Z m -107.39452,1.367408 -1.59201,0.43484 v 0.0018 l 0.34319,1.254205 8.04094,29.355244 a 194.46296,194.46296 0 0 1 1.62435,-0.364762 z m 113.02227,0.01617 -7.81452,30.907727 a 194.46296,194.46296 0 0 1 1.60998,0.411481 l 7.80554,-30.914915 z m -118.61229,1.511157 -1.58124,0.476167 9.17116,30.386638 a 194.46296,194.46296 0 0 1 1.57765,-0.524681 z m 124.20231,0.01437 v 0.0018 l -8.58538,30.611246 a 194.46296,194.46296 0 0 1 1.61178,0.411481 l 8.56382,-30.578903 z m -129.751,1.654905 -1.56866,0.519291 9.98334,30.244688 a 194.46296,194.46296 0 0 1 1.57943,-0.524683 l -9.99411,-30.237507 z m 135.29969,0.01617 -9.33287,30.260859 a 194.46296,194.46296 0 0 1 1.56327,0.5714 l 9.34724,-30.345311 z m -140.80526,1.796856 -1.55248,0.558822 10.75239,29.958988 a 194.46296,194.46296 0 0 1 1.57763,-0.522886 l -9.7713,-27.193625 -1.00444,-2.799502 h -0.002 z m 146.30903,0.01617 -10.15762,30.156642 a 194.46296,194.46296 0 0 1 1.55967,0.569603 l 10.16122,-30.199765 z m -151.76429,1.938809 -1.5381,0.598352 11.46753,29.53493 a 194.46296,194.46296 0 0 1 1.57944,-0.524682 z m 157.21776,0.01617 -1.58124,4.328627 -9.35623,25.578251 a 194.46296,194.46296 0 0 1 1.55967,0.569604 L 840.89479,53.457069 839.3459,52.89106 Z m -162.62091,2.077166 -1.52193,0.637884 12.23839,29.263604 a 194.46296,194.46296 0 0 1 1.51655,-0.679212 L 676.7232,54.970009 Z m 168.02405,0.01617 -11.66699,29.518758 a 194.46296,194.46296 0 0 1 1.56147,0.5714 l 10.977,-27.802759 0.66483,-1.680061 v -0.0018 z M 671.37576,57.201721 669.87,57.877339 682.89541,86.90196 a 194.46296,194.46296 0 0 1 1.51834,-0.679211 z m 178.71893,0.01438 -12.38752,29.123449 a 194.46296,194.46296 0 0 1 1.49858,0.724133 l 12.40909,-29.200714 z m -184.00707,2.353882 -1.4878,0.715148 13.75493,28.649079 a 194.46296,194.46296 0 0 1 1.51655,-0.679211 l -13.78368,-28.68324 z m 189.29523,0.01617 -13.19073,28.920403 a 194.46296,194.46296 0 0 1 1.49678,0.724134 l 13.19612,-28.959936 z m -194.52049,2.488646 -1.46984,0.752882 14.41439,28.142366 a 194.46296,194.46296 0 0 1 1.52014,-0.679212 L 660.86236,62.076576 Z m 199.74575,0.01617 -13.93642,28.580798 a 194.46296,194.46296 0 0 1 1.49677,0.722336 l 13.92385,-28.580798 z m -204.90633,2.62341 -1.44826,0.790617 15.16547,27.820728 a 194.46296,194.46296 0 0 1 1.44287,-0.828351 L 657.79332,68.54705 655.70358,64.714355 Z m 210.0651,0.01438 -14.61203,28.108226 a 194.46296,194.46296 0 0 1 1.49677,0.722336 l 14.5797,-28.068723 z m -215.1538,2.75635 -1.42849,0.826554 15.91834,27.490106 a 194.46296,194.46296 0 0 1 1.44108,-0.826554 z m 220.24429,0.01438 -15.30203,27.669793 a 194.46296,194.46296 0 0 1 1.41773,0.869678 l 15.32897,-27.741666 z m -225.26111,2.885752 -1.40694,0.864288 16.59397,27.030111 a 194.46296,194.46296 0 0 1 1.44288,-0.828351 z m 230.27614,0.01438 -16.07109,27.371514 a 194.46296,194.46296 0 0 1 1.41773,0.869675 L 877.2973,71.235163 Z m -235.21569,3.013328 -1.38538,0.900226 17.18872,26.446135 a 194.46296,194.46296 0 0 1 1.44468,-0.82835 L 640.65671,73.414741 Z m 240.15705,0.01438 -16.77007,26.945661 a 194.46296,194.46296 0 0 1 1.41772,0.86968 l 15.38468,-24.740921 1.36922,-2.201149 v -0.0018 z m -245.01935,3.140904 -1.36022,0.936162 17.92185,26.077775 a 194.46296,194.46296 0 0 1 1.35303,-0.9685 z m 249.87805,0.01438 -2.25326,3.423011 -15.12953,22.971016 a 194.46296,194.46296 0 0 1 1.41771,0.86788 l 17.34506,-26.354495 -1.37819,-0.907412 z m -254.65589,3.264888 -1.33507,0.970303 18.62442,25.659106 a 194.46296,194.46296 0 0 1 1.35124,-0.96671 z m 259.43373,0.01438 -18.04224,25.914269 a 194.46296,194.46296 0 0 1 1.32428,1.00803 l 16.47358,-23.68077 1.5992,-2.298179 v -0.0018 z m -264.12533,3.387075 -1.3099,1.004443 19.24074,25.120051 a 194.46296,194.46296 0 0 1 1.35124,-0.96671 z m 268.81692,0.01258 -18.76816,25.529734 a 194.46296,194.46296 0 0 1 1.32428,1.00624 L 896.47336,84.239026 Z M 621.72323,86.769 l -1.28475,1.038583 19.76002,24.467797 a 194.46296,194.46296 0 0 1 1.35484,-0.97031 z m 278.0222,0.01438 -19.40605,25.02123 a 194.46296,194.46296 0 0 1 1.32249,1.00624 l 17.53013,-22.618858 1.85795,-2.397007 v -0.0018 z m -282.53411,3.62426 -1.25601,1.070925 20.47159,24.054515 a 194.46296,194.46296 0 0 1 1.24882,-1.09788 z m 287.04423,0.01258 -19.9505,24.39951 a 194.46296,194.46296 0 0 1 1.32248,1.00624 l 19.90558,-24.35998 z m -291.45911,3.741055 -1.22905,1.101472 21.11846,23.556793 a 194.46296,194.46296 0 0 1 1.24702,-1.09788 z m 295.87398,0.01258 -20.5776,23.883815 a 194.46296,194.46296 0 0 1 1.21647,1.13382 l 20.61174,-23.941318 z m -300.19183,3.852465 -1.19849,1.13381 h -0.002 l 21.66289,22.94765 a 194.46296,194.46296 0 0 1 1.25062,-1.09787 z m 304.50788,0.0126 -2.4581,2.71145 -18.78973,20.70518 a 194.46296,194.46296 0 0 1 1.21647,1.13201 l 21.25502,-23.43998 -1.22187,-1.10866 z m -308.7233,3.96206 -1.17155,1.16437 22.10673,22.24148 a 194.46296,194.46296 0 0 1 1.24701,-1.10506 z m 312.94052,0.0126 -21.82102,22.83625 a 194.46296,194.46296 0 0 1 1.21467,1.13202 l 19.43121,-20.3494 2.36825,-2.47786 v -0.002 z m -317.05352,4.06988 -1.14101,1.19491 h 0.002 l 22.78954,21.7761 a 194.46296,194.46296 0 0 1 1.13202,-1.21647 z m 321.16473,0.0126 -22.28461,22.14984 a 194.46296,194.46296 0 0 1 1.21467,1.13562 l 22.2343,-22.11572 z m -325.16993,4.1759 -1.11045,1.22186 23.36812,21.20649 a 194.46296,194.46296 0 0 1 1.13382,-1.21646 z m 329.17691,0.0108 -22.87937,21.60001 a 194.46296,194.46296 0 0 1 1.09609,1.24881 L 926.4539,111.483 h 0.002 z m -333.07429,4.2765 v 0.002 l -1.07811,1.25057 23.8353,20.53627 a 194.46296,194.46296 0 0 1 1.13561,-1.21827 z m 336.96988,0.0108 -23.48671,21.05556 a 194.46296,194.46296 0 0 1 1.09788,1.24881 l 20.76986,-18.63339 2.72224,-2.44014 v -0.002 l -1.10327,-1.22725 z m -340.75585,4.37714 -1.04398,1.27936 24.22881,19.81214 a 194.46296,194.46296 0 0 1 1.0907,-1.256 z m 344.54183,0.0108 -23.98265,20.41229 a 194.46296,194.46296 0 0 1 1.09609,1.24881 l 23.95569,-20.4033 z m -348.21282,4.47416 -1.01162,1.30452 24.84872,19.27309 a 194.46296,194.46296 0 0 1 1.00624,-1.32428 z m 351.8838,0.009 -24.36178,19.67559 a 194.46296,194.46296 0 0 1 1.05655,1.28295 l 24.34201,-19.67379 z m -355.43798,4.56761 -0.97749,1.32968 25.35365,18.63879 a 194.46296,194.46296 0 0 1 1.00444,-1.32428 z m 358.99212,0.009 -24.92416,19.08981 a 194.46296,194.46296 0 0 1 0.96851,1.35303 l 24.95835,-19.13113 v 0 z m -362.4277,4.65746 -0.94335,1.35482 25.73637,17.91826 a 194.46296,194.46296 0 0 1 1.00624,-1.32608 z m 365.86157,0.009 -25.4579,18.47887 a 194.46296,194.46296 0 0 1 0.9685,1.35303 l 25.45971,-18.49504 z m -369.17497,4.7455 -0.90742,1.37818 26.08137,17.17796 a 194.46296,194.46296 0 0 1 0.9164,-1.38538 z m 372.49015,0.009 -25.87116,17.77989 a 194.46296,194.46296 0 0 1 0.96491,1.35124 l 25.8406,-17.77091 z m -375.68137,4.82816 -0.87148,1.40155 26.62941,16.5724 a 194.46296,194.46296 0 0 1 0.86788,-1.41772 z m 378.8708,0.009 -26.15866,17.00185 a 194.46296,194.46296 0 0 1 0.88045,1.41054 l 26.17842,-17.02881 z m -381.93625,4.90901 -0.83553,1.42312 27.05168,15.8842 a 194.46296,194.46296 0 0 1 0.86967,-1.41771 l -24.93138,-14.62642 -2.15263,-1.26319 z m 385.00165,0.009 -26.6869,16.38373 a 194.46296,194.46296 0 0 1 0.82655,1.44109 l 26.72285,-16.4197 v 0 z m -387.9377,4.98628 -0.7996,1.44467 27.34276,15.12234 a 194.46296,194.46296 0 0 1 0.86967,-1.41952 z m 390.87376,0.007 -27.1415,15.7153 a 194.46296,194.46296 0 0 1 0.82654,1.44288 l 27.14332,-15.72968 z m -393.68226,5.06175 -0.76006,1.46443 27.64284,14.37126 a 194.46296,194.46296 0 0 1 0.72593,-1.49498 z m 396.49081,0.007 -27.4686,14.9732 a 194.46296,194.46296 0 0 1 0.82835,1.44288 l 27.4308,-14.96767 z m -399.16632,5.13181 v 0.002 l -0.72414,1.4824 28.11182,13.70643 a 194.46296,194.46296 0 0 1 0.72234,-1.49678 z m 401.84184,0.009 -27.65726,14.16642 a 194.46296,194.46296 0 0 1 0.68639,1.51475 l 27.72369,-14.21314 z m -404.38619,5.19831 -0.6846,1.50217 h 0.002 l 28.44423,12.9733 a 194.46296,194.46296 0 0 1 0.72234,-1.49678 l -26.6061,-12.12524 -1.87591,-0.85531 z m 406.92867,0.007 -28.15133,13.51596 a 194.46296,194.46296 0 0 1 0.67921,1.51834 l 28.18723,-13.5465 z m -409.33646,5.26479 -0.64507,1.51834 28.64189,12.18269 a 194.46296,194.46296 0 0 1 0.72234,-1.49882 z m 411.74426,0.006 -28.5215,12.8008 a 194.46296,194.46296 0 0 1 0.67918,1.51835 l 28.51971,-12.81159 -0.67739,-1.50577 z m -414.01548,5.32588 -0.60554,1.53452 28.89704,11.42261 a 194.46296,194.46296 0 0 1 0.5696,-1.56146 z m 416.28666,0.006 -28.7532,12.02456 a 194.46296,194.46296 0 0 1 0.67914,1.51835 l 28.71198,-12.01917 z m -418.41953,5.38159 -0.56781,1.55069 29.27977,10.71105 a 194.46296,194.46296 0 0 1 0.57141,-1.56326 z m 420.55418,0.006 -28.88797,11.21597 a 194.46296,194.46296 0 0 1 0.52467,1.57944 l 28.95992,-11.25551 z m -422.54869,5.43548 -0.52649,1.56506 29.52236,9.94381 a 194.46296,194.46296 0 0 1 0.5696,-1.56147 z m 424.54149,0.006 -1.5777,0.56601 -27.72722,9.95279 a 194.46296,194.46296 0 0 1 0.52467,1.57764 l 29.33905,-10.54216 -0.55706,-1.55428 z m -426.39584,5.48326 -0.48516,1.57763 29.62118,9.13522 a 194.46296,194.46296 0 0 1 0.5714,-1.56326 l -28.32744,-8.72553 -1.37819,-0.42406 z m 428.25017,0.006 -29.5834,9.76592 a 194.46296,194.46296 0 0 1 0.52283,1.57763 l 29.57806,-9.77669 z m -429.96079,5.53072 -0.44561,1.59023 29.835,8.36795 a 194.46296,194.46296 0 0 1 0.41327,-1.61178 z m 431.67142,0.006 -29.72002,8.96991 a 194.46296,194.46296 0 0 1 0.52293,1.57584 l 29.67502,-8.96631 z m -433.24007,5.57385 -0.40429,1.5992 30.12789,7.61867 a 194.46296,194.46296 0 0 1 0.40968,-1.60998 z m 434.80865,0.004 -29.80796,8.16491 a 194.46296,194.46296 0 0 1 0.36477,1.62256 l 29.87982,-8.19546 z m -436.23176,5.61338 -0.36296,1.60998 30.27343,6.82985 a 194.46296,194.46296 0 0 1 0.41148,-1.60998 z m 437.6549,0.004 -1.14098,0.2821 -28.99405,7.1443 a 194.46296,194.46296 0 0 1 0.36294,1.62076 l 30.16741,-7.44437 -0.39348,-1.60279 z m -438.93427,5.64751 -0.32163,1.61897 30.27343,6.01588 a 194.46296,194.46296 0 0 1 0.41149,-1.61179 z m 440.21361,0.004 -30.32188,6.64837 a 194.46296,194.46296 0 0 1 0.36478,1.62077 l 25.68779,-5.64214 4.62332,-1.01343 v -0.002 z m -441.34742,5.67986 -0.27851,1.62616 30.44594,5.23963 a 194.46296,194.46296 0 0 1 0.24796,-1.64232 z m 442.4813,0.004 -30.36152,5.84158 a 194.46296,194.46296 0 0 1 0.36477,1.62256 l 30.30762,-5.84338 v 0 z m -443.46778,5.70681 -0.23718,1.63335 30.64539,4.46518 a 194.46296,194.46296 0 0 1 0.24796,-1.64412 z m 444.4542,0.002 -30.40458,5.04198 a 194.46296,194.46296 0 0 1 0.20129,1.6531 l 30.47284,-5.06533 z m -445.29332,5.73197 -0.19587,1.63874 h 0.002 l 30.69391,3.66737 a 194.46296,194.46296 0 0 1 0.24797,-1.64411 z m 446.13069,0.002 -0.69183,0.097 -29.94633,4.17769 a 194.46296,194.46296 0 0 1 0.19945,1.64952 l 30.66871,-4.2891 -0.22825,-1.63514 z m -446.82068,5.75174 -0.15454,1.64412 h 0.002 l 30.59508,2.8588 a 194.46296,194.46296 0 0 1 0.24796,-1.64592 z m 447.51242,0.002 -30.72795,3.4823 a 194.46296,194.46296 0 0 1 0.2012,1.64952 l 30.7137,-3.49129 z m -448.05508,5.76791 -0.1114,1.64591 30.72983,2.07537 a 194.46296,194.46296 0 0 1 0.0826,-1.66029 z m 448.59779,0.002 -30.66872,2.67732 a 194.46296,194.46296 0 0 1 0.20121,1.6513 l 30.61121,-2.6845 z m -448.9931,5.77869 -0.0683,1.64951 30.83226,1.28475 a 194.46296,194.46296 0 0 1 0.0826,-1.66029 l -30.63821,-1.26499 -0.20664,-0.009 z m 449.38658,0.002 -0.30185,0.0179 -30.33632,1.86334 a 194.46296,194.46296 0 0 1 0.0589,1.6621 l 30.68131,-1.89569 -0.10064,-1.64772 z m -449.63095,5.78947 -0.0251,1.64951 30.78375,0.49054 a 194.46296,194.46296 0 0 1 0.0826,-1.66029 z m 449.87714,0 -30.70828,1.09429 a 194.46296,194.46296 0 0 1 0.0589,1.66029 l 30.70827,-1.10507 z m -419.28566,5.48041 -30.68672,0.31266 0.0162,1.65131 30.5861,-0.30188 a 194.46296,194.46296 0 0 1 0.0845,-1.66209 z m 419.38087,0.31266 -30.62556,0.30187 a 194.46296,194.46296 0 0 1 0.057,1.63074 194.46296,194.46296 0 0 1 0,0.0306 l 30.586,-0.31265 z m -419.39705,4.69258 -30.61663,1.10148 h -0.002 l 0.0592,1.64951 30.61844,-1.09069 a 194.46296,194.46296 0 0 1 -0.0593,-1.6603 z m 388.66008,0.61274 a 194.46296,194.46296 0 0 1 -0.0828,1.66029 l 30.74056,0.47796 0.0267,-1.64951 v 0 z m -388.48219,4.38971 -30.59327,1.8903 0.10242,1.64771 30.55016,-1.87592 a 194.46296,194.46296 0 0 1 -0.0593,-1.66209 z m 388.23241,0.60914 a 194.46296,194.46296 0 0 1 -0.0846,1.65849 l 30.74774,1.27038 0.0681,-1.64771 z m -388.05452,4.3987 -30.41898,2.66654 0.14375,1.64412 30.39023,-2.65396 a 194.46296,194.46296 0 0 1 -0.115,-1.6567 z m 387.803,0.59656 a 194.46296,194.46296 0 0 1 -0.0828,1.66029 l 30.60219,2.05561 0.11141,-1.64772 z m -387.2837,4.38253 -30.43875,3.46075 0.18687,1.64053 30.45133,-3.45176 a 194.46296,194.46296 0 0 1 -0.19945,-1.64952 z m 387.03392,0.61992 a 194.46296,194.46296 0 0 1 -0.14379,1.6567 l 30.37045,2.82645 0.15455,-1.64412 z m -386.43017,4.35018 -30.39204,4.24957 h -0.002 l 0.22821,1.63514 h 0.002 l 0.69178,-0.097 29.67149,-4.13995 a 194.46296,194.46296 0 0 1 -0.19944,-1.64773 z m 385.78507,0.61813 a 194.46296,194.46296 0 0 1 -0.24794,1.64412 l 30.4297,3.62426 0.19587,-1.63874 v 0 z m -385.18133,4.35018 -30.19977,5.02042 0.26953,1.62796 h 0.002 l 0.7996,-0.13298 29.32829,-4.86409 a 194.46296,194.46296 0 0 1 -0.19945,-1.65131 z m 384.43384,0.60016 a 194.46296,194.46296 0 0 1 -0.24794,1.64412 l 30.33807,4.40768 0.23717,-1.63334 z m -383.8301,4.38073 -29.85836,5.75713 h -0.002 l 0.31265,1.62077 29.87273,-5.74815 a 194.46296,194.46296 0 0 1 -0.32522,-1.62975 z m 383.08261,0.56961 a 194.46296,194.46296 0 0 1 -0.24794,1.64232 l 30.09905,5.16955 0.28032,-1.62795 v 0 z m -382.02247,4.32682 -29.82782,6.55134 0.35399,1.61358 29.8368,-6.54236 a 194.46296,194.46296 0 0 1 -0.36297,-1.62256 z m 381.27323,0.6289 a 194.46296,194.46296 0 0 1 -0.36837,1.62257 l 29.83493,5.91705 0.32163,-1.61898 v -0.002 l -4.71854,-0.93616 z m -380.17714,4.25855 -29.68587,7.32579 0.39531,1.60279 29.65532,-7.30781 A 194.46296,194.46296 0 0 1 571.21,307.30255 Z m 378.98041,0.61093 a 194.46296,194.46296 0 0 1 -0.41151,1.60998 l 29.79546,6.71127 0.36477,-1.60998 v 0 z m -377.88253,4.27832 -29.40197,8.06429 0.43664,1.59202 29.32829,-8.03375 a 194.46296,194.46296 0 0 1 -0.36296,-1.62256 z m 376.64091,0.57499 a 194.46296,194.46296 0 0 1 -0.40976,1.60819 l 29.61219,7.47672 0.40434,-1.59921 v -0.002 l -4.6144,-1.16432 z m -375.51967,4.31785 -28.99588,8.76147 0.47797,1.57944 29.04079,-8.76507 a 194.46296,194.46296 0 0 1 -0.52288,-1.57584 z m 374.28164,0.53366 a 194.46296,194.46296 0 0 1 -0.41151,1.61179 l 29.2833,8.20085 0.44564,-1.59022 z m -372.70221,4.22262 -28.90423,9.55388 0.51749,1.56687 28.91142,-9.5449 a 194.46296,194.46296 0 0 1 -0.52468,-1.57585 z m 371.4444,0.63429 a 194.46296,194.46296 0 0 1 -0.56966,1.56146 l 28.98872,8.93039 0.48511,-1.57765 z m -369.86317,4.12019 -28.67243,10.30317 0.55882,1.55429 28.6365,-10.27982 a 194.46296,194.46296 0 0 1 -0.52289,-1.57764 z m 368.14353,0.59297 a 194.46296,194.46296 0 0 1 -0.57141,1.56146 l 28.85569,9.70842 0.52651,-1.56507 z m -366.56229,4.1669 -28.29869,10.99856 0.59655,1.53811 v 0.002 L 578.6957,332.9375 a 194.46296,194.46296 0 0 1 -0.52468,-1.57944 z m 364.84273,0.54085 a 194.46296,194.46296 0 0 1 -0.56966,1.56148 l 28.57905,10.44153 0.56782,-1.55069 z m -363.18064,4.19567 -27.86744,11.66519 0.63788,1.52374 27.90877,-11.67238 a 194.46296,194.46296 0 0 1 -0.67921,-1.51655 z m 361.46284,0.51389 a 194.46296,194.46296 0 0 1 -0.56957,1.55968 l 28.16385,11.12075 0.60738,-1.53452 v 0 z m -359.41442,4.0627 -27.68237,12.43605 h -0.002 l 0.67741,1.50576 27.68597,-12.42526 a 194.46296,194.46296 0 0 1 -0.67921,-1.51655 z m 357.61933,0.62171 a 194.46296,194.46296 0 0 1 -0.72228,1.49678 l 27.84047,11.83051 0.64501,-1.51835 z m -355.57091,3.95309 -27.36254,13.14939 0.71515,1.4896 27.3266,-13.11885 a 194.46296,194.46296 0 0 1 -0.67921,-1.52014 z m 353.38775,0.56421 a 194.46296,194.46296 0 0 1 -0.72234,1.49678 l 27.61405,12.58338 v 0.002 l 0.68466,-1.50217 v -0.002 l -4.03572,-1.83998 z m -351.33755,4.01777 -26.90792,13.79447 0.75289,1.46803 26.83424,-13.74416 a 194.46296,194.46296 0 0 1 -0.67921,-1.51834 z m 349.15797,0.49773 a 194.46296,194.46296 0 0 1 -0.72414,1.49678 l 27.25295,13.27518 0.72412,-1.48241 v -0.002 l -3.97463,-1.93697 z m -346.97299,4.02136 -26.45331,14.43416 h -0.002 l 0.79061,1.44826 v 0.002 l 26.4911,-14.44138 a 194.46296,194.46296 0 0 1 -0.82656,-1.44288 z m 344.7898,0.49594 a 194.46296,194.46296 0 0 1 -0.72233,1.49678 l 26.75881,13.89868 0.76185,-1.46444 v 0 z m -342.29216,3.85785 -22.49305,13.03439 -3.68895,2.13467 v 0.002 l 0.82835,1.42671 v 0.002 l 26.18019,-15.15828 a 194.46296,194.46296 0 0 1 -0.82654,-1.44108 z m 339.9832,0.59655 a 194.46296,194.46296 0 0 1 -0.86968,1.41773 l 26.40657,14.59227 0.79966,-1.44468 z m -337.48917,3.75184 -24.39412,14.98938 -1.37999,0.84811 -0.002,0.002 0.86429,1.40515 25.73818,-15.80156 a 194.46296,194.46296 0 0 1 -0.82656,-1.44287 z m 334.86397,0.52828 a 194.46296,194.46296 0 0 1 -0.86788,1.41592 l 26.09392,15.30921 0.83553,-1.4231 z m -332.36454,3.8291 -25.24583,16.42147 0.90022,1.38358 25.17396,-16.36217 a 194.46296,194.46296 0 0 1 -0.82835,-1.44288 z m 329.74292,0.44741 a 194.46296,194.46296 0 0 1 -0.86788,1.41593 l 25.65013,15.95069 0.87151,-1.40155 z m -327.06381,3.79856 -24.76967,17.036 0.93437,1.36021 h 0.002 l 2.33052,-1.60279 22.46969,-15.44219 a 194.46296,194.46296 0 0 1 -0.9667,-1.35123 z m 324.44041,0.48156 a 194.46296,194.46296 0 0 1 -0.86789,1.41592 l 25.08237,16.50772 0.90913,-1.37819 v 0 z m -321.52052,3.6009 -24.41029,17.73138 0.9703,1.33506 v 0.002 l 24.4067,-17.717 a 194.46296,194.46296 0 0 1 -0.96671,-1.35124 z m 318.72281,0.566 a 194.46296,194.46296 0 0 1 -1.00624,1.32429 l 24.70499,17.18693 0.94336,-1.35483 z m -315.80291,3.51645 -23.92874,18.34052 1.00265,1.30991 v 0.002 l 23.89279,-18.30098 a 194.46296,194.46296 0 0 1 -0.9667,-1.35124 z m 312.76443,0.48336 a 194.46296,194.46296 0 0 1 -1.00624,1.32248 l 24.30786,17.85536 0.97749,-1.32967 z m -309.84095,3.60449 -23.33218,18.85621 1.03679,1.28296 v 0.002 l 23.2621,-18.78793 a 194.46296,194.46296 0 0 1 -0.96671,-1.35303 z m 306.80425,0.38992 a 194.46296,194.46296 0 0 1 -1.00624,1.32249 l 23.79039,18.43754 1.01163,-1.30452 z m -303.66155,3.52723 -22.83625,19.44918 1.06913,1.2578 22.8632,-19.45817 a 194.46296,194.46296 0 0 1 -1.09608,-1.24881 z m 300.62128,0.47078 a 194.46296,194.46296 0 0 1 -1.00624,1.32428 L 933.01602,408.54 v -0.002 l 1.04398,-1.2776 z m -297.30787,3.30082 -22.39782,20.09245 1.10327,1.22905 22.39063,-20.07269 a 194.46296,194.46296 0 0 1 -1.09608,-1.24881 z m 294.05735,0.52648 a 194.46296,194.46296 0 0 1 -1.13382,1.21647 l 22.7518,19.58933 1.07812,-1.25061 z m -290.74395,3.24692 -21.84439,20.6369 h -0.002 l 1.13382,1.20029 21.81025,-20.58837 a 194.46296,194.46296 0 0 1 -1.09788,-1.24882 z m 287.31914,0.42945 a 194.46296,194.46296 0 0 1 -1.13202,1.21467 l 19.7798,17.93623 2.49763,2.26763 h 0.002 l 1.10865,-1.22186 z m -283.99855,3.34754 -21.19033,21.07713 1.16437,1.16975 21.12923,-21.00166 a 194.46296,194.46296 0 0 1 -1.10327,-1.24522 z m 280.57554,0.32523 a 194.46296,194.46296 0 0 1 -1.13382,1.21647 l 21.69705,20.71776 v -0.002 l 1.141,-1.1931 z m -277.01058,3.21279 -20.67283,21.65032 1.19311,1.141 20.6962,-21.65751 a 194.46296,194.46296 0 0 1 -1.21648,-1.13381 z m 273.58577,0.46358 a 194.46296,194.46296 0 0 1 -1.13561,1.21648 l 21.01064,21.12384 1.17155,-1.16437 z m -269.91119,2.96122 -20.16073,22.23251 1.22365,1.10866 20.15355,-22.20915 a 194.46296,194.46296 0 0 1 -1.21647,-1.13202 z m 266.2456,0.47796 a 194.46296,194.46296 0 0 1 -1.24881,1.09788 l 20.574,21.77791 1.20031,-1.13382 z m -262.56923,2.94685 -19.54801,22.70508 1.25061,1.07632 19.51387,-22.64938 a 194.46296,194.46296 0 0 1 -1.21647,-1.13202 z m 258.79404,0.37015 a 194.46296,194.46296 0 0 1 -1.24881,1.09609 l 20.03135,22.32773 1.22905,-1.10147 z m -255.11228,3.05825 -18.84184,23.06086 1.27756,1.04577 18.82926,-23.02851 a 194.46296,194.46296 0 0 1 -1.26498,-1.07812 z m 251.33889,0.25695 a 194.46296,194.46296 0 0 1 -1.24883,1.09608 l 19.38988,22.76618 1.25601,-1.07093 z m -247.39479,2.85701 -18.30278,23.61787 1.30452,1.01163 18.32254,-23.62326 a 194.46296,194.46296 0 0 1 -1.32428,-1.00624 z m 243.61779,0.46179 a 194.46296,194.46296 0 0 1 -1.29194,1.04397 l 18.69809,23.13632 v 0.002 l 1.28475,-1.03859 z m -239.61619,2.58028 -15.99922,21.7797 -1.72857,2.35028 v 0.002 l 1.33147,0.97749 v -0.002 l 17.7188,-24.10123 a 194.46296,194.46296 0 0 1 -1.32248,-1.00624 z m 235.58225,0.42405 a 194.46296,194.46296 0 0 1 -1.35124,0.96672 l 18.18958,23.73108 1.3099,-1.00444 z m -231.58065,2.61803 -17.06115,24.5235 1.35482,0.94335 17.02881,-24.46061 a 194.46296,194.46296 0 0 1 -1.32248,-1.00624 z m 227.4928,0.30547 a 194.46296,194.46296 0 0 1 -1.35124,0.96491 l 17.58584,24.21084 1.33506,-0.9703 z m -223.48581,2.742 -16.31546,24.79122 1.37998,0.90742 16.34062,-24.811 a 194.46296,194.46296 0 0 1 -1.40514,-0.88764 z m 219.39976,0.17968 a 194.46296,194.46296 0 0 1 -1.35304,0.96671 l 16.89585,24.56482 v 0.002 l 1.36021,-0.93616 z m -215.12505,2.46709 -15.75304,25.33388 1.40155,0.87327 h 0.002 l 2.22631,-3.57934 13.54111,-21.75814 a 194.46296,194.46296 0 0 1 -1.41772,-0.86967 z m 211.03181,0.45999 a 194.46296,194.46296 0 0 1 -1.4267,0.85171 l 13.97235,21.47963 2.2281,3.4284 h 0.002 l 1.38358,-0.89843 v -0.002 l -1.45905,-2.24248 z m -206.74631,2.16701 -15.12054,25.77231 1.42491,0.83554 15.11156,-25.73817 a 194.46296,194.46296 0 0 1 -1.41593,-0.86968 z m 202.39612,0.36297 a 194.46296,194.46296 0 0 1 -1.44288,0.82655 l 15.62726,25.43271 1.40695,-0.86429 z m -198.10881,2.26583 -14.41259,26.08137 1.44468,0.79781 h 0.002 l 2.05561,-3.7195 12.32823,-22.29 a 194.46296,194.46296 0 0 1 -1.41773,-0.86968 z m 193.74784,0.23539 a 194.46296,194.46296 0 0 1 -1.44108,0.82656 l 14.96961,25.8316 1.4285,-0.82655 z m -189.43179,2.35927 -13.65791,26.2934 1.46444,0.76187 13.69025,-26.33293 a 194.46296,194.46296 0 0 1 -1.49678,-0.72234 z m 185.07082,0.14195 a 194.46296,194.46296 0 0 1 -1.44108,0.82656 l 14.24188,26.10113 1.44827,-0.79061 z m -180.54275,2.04483 -13.04697,26.78394 1.4842,0.72234 13.05955,-26.78215 A 194.46296,194.46296 0 0 1 672.43231,437.89 Z m 176.16021,0.42585 a 194.46296,194.46296 0 0 1 -1.51834,0.67921 l 13.54111,26.41559 1.46983,-0.75109 v -0.002 l -1.02241,-1.99451 z m -171.63393,1.76092 -12.36596,27.13972 1.50217,0.6846 12.36058,-27.10019 a 194.46296,194.46296 0 0 1 -1.49679,-0.72413 z m 167.03758,0.29468 a 194.46296,194.46296 0 0 1 -1.51655,0.67921 l 12.91041,26.86481 1.4878,-0.71335 z m -162.5077,1.8939 -11.62566,27.35893 1.52014,0.64686 v -0.002 l 11.6041,-27.27987 a 194.46296,194.46296 0 0 1 -1.49858,-0.72413 z m 157.91852,0.16171 a 194.46296,194.46296 0 0 1 -1.51475,0.67742 l 12.20964,27.18104 1.50577,-0.67562 z m -153.33833,1.92623 -10.87458,27.54222 1.53632,0.60733 10.90153,-27.57995 a 194.46296,194.46296 0 0 1 -1.56327,-0.5696 z m 148.74916,0.12758 a 194.46296,194.46296 0 0 1 -1.51654,0.67741 l 11.45315,27.35894 v 0.002 l 1.52194,-0.63789 z m -144.02163,1.5974 -10.21333,27.9519 1.55068,0.56602 10.22232,-27.94831 a 194.46296,194.46296 0 0 1 -1.55967,-0.56961 z m 139.38574,0.35937 a 194.46296,194.46296 0 0 1 -1.57763,0.52469 l 10.74699,27.65002 1.53811,-0.59835 z m -134.66181,1.36382 -8.98068,26.6923 -0.5157,1.52913 v 0.002 l 1.56326,0.52648 h 0.002 l 1.48601,-4.41847 8.00499,-23.76163 a 194.46296,194.46296 0 0 1 -1.55968,-0.5696 z m 129.88397,0.22281 a 194.46296,194.46296 0 0 1 -1.57584,0.52468 l 10.06779,28.01659 1.55248,-0.55703 z m -125.15824,1.50217 -8.73271,28.3508 1.57763,0.48695 8.71835,-28.26635 a 194.46296,194.46296 0 0 1 -1.56327,-0.5714 z m 120.38759,0.0845 a 194.46296,194.46296 0 0 1 -1.57585,0.52289 l 7.90797,23.92693 1.42491,4.31785 h 0.002 l 1.56686,-0.5175 z m -115.59896,1.46983 -7.62407,27.22417 -0.35936,1.28296 v 0.002 l 1.58842,0.44382 8.0032,-28.54127 a 194.46296,194.46296 0 0 1 -1.60819,-0.41147 z m 110.82471,0.11679 a 194.46296,194.46296 0 0 1 -1.57764,0.52289 l 8.56023,28.32924 1.58123,-0.47617 z m -105.95163,1.12843 -7.27907,28.83056 1.60099,0.4043 7.28806,-28.82338 a 194.46296,194.46296 0 0 1 -1.60998,-0.41148 z m 101.12528,0.2893 a 194.46296,194.46296 0 0 1 -1.62437,0.36476 l 7.84328,28.59697 1.59202,-0.43664 h 0.002 z m -96.25221,0.95592 -6.53517,29.01025 1.61178,0.36296 6.53516,-28.96173 a 194.46296,194.46296 0 0 1 -1.61177,-0.41148 z m 91.3396,0.14555 a 194.46296,194.46296 0 0 1 -1.62076,0.36476 l 7.12633,28.87907 1.6028,-0.39531 z m -86.46113,1.09968 -5.76073,29.04438 1.61897,0.32164 v -0.002 l 5.75353,-28.95274 a 194.46296,194.46296 0 0 1 -1.61177,-0.41148 z m 81.55212,0.004 a 194.46296,194.46296 0 0 1 -1.62077,0.36296 l 6.37345,29.01384 v 0.002 l 1.61179,-0.35398 z m -76.61976,0.99726 -5.00963,29.17556 1.62615,0.2803 5.02581,-29.208 a 194.46296,194.46296 0 0 1 -1.64233,-0.24796 z m 71.71075,0.10422 a 194.46296,194.46296 0 0 1 -1.62077,0.36296 l 5.59182,29.00485 1.62076,-0.31265 z m -66.73525,0.64686 -4.27473,29.41095 1.63335,0.23898 v -0.002 l 4.2837,-29.40016 a 194.46296,194.46296 0 0 1 -1.64232,-0.24797 z m 61.77772,0.21382 a 194.46296,194.46296 0 0 1 -1.65131,0.20125 l 4.86229,29.24923 v 0.002 l 1.62795,-0.27133 z m -56.80582,0.53727 -3.51286,29.49899 1.63873,0.19585 3.51825,-29.44688 a 194.46296,194.46296 0 0 1 -1.64412,-0.24796 z m 51.80876,0.0701 a 194.46296,194.46296 0 0 1 -1.65131,0.19946 l 4.1184,29.44149 1.63513,-0.22821 z m -4.99166,0.60554 a 194.46296,194.46296 0 0 1 -1.65132,0.19945 l 3.35293,29.48462 1.64054,-0.18507 v -0.002 l -0.0629,-0.55523 z m -41.83621,0.0773 -2.74021,29.43789 1.64233,0.15274 2.742,-29.34267 a 194.46296,194.46296 0 0 1 -1.64412,-0.24796 z m 5.01143,0.43304 -1.98373,29.54751 1.64772,0.1114 v -0.002 l 1.9963,-29.57447 a 194.46296,194.46296 0 0 1 -1.66029,-0.0826 z m 31.82772,0.097 a 194.46296,194.46296 0 0 1 -1.65132,0.19945 l 2.57669,29.3786 1.64413,-0.14375 v -0.002 l -0.0377,-0.42945 z m -26.80192,0.15453 -1.22725,29.68946 1.64952,0.0683 1.23624,-29.67509 a 194.46296,194.46296 0 0 1 -1.65851,-0.0826 z m 21.7797,0.18328 a 194.46296,194.46296 0 0 1 -1.6603,0.0593 l 1.82381,29.53134 1.64772,-0.10063 z m -16.75568,0.0683 -0.46179,29.68227 1.65131,0.027 0.47077,-29.62656 a 194.46296,194.46296 0 0 1 -1.66029,-0.0826 z m 11.72448,0.10961 a 194.46296,194.46296 0 0 1 -1.66029,0.0593 l 1.06374,29.55649 1.64951,-0.0593 z m -6.69329,0.14195 0.30188,29.52775 1.64951,-0.0162 v -0.002 -0.0503 l -0.28929,-29.42352 a 194.46296,194.46296 0 0 1 -0.54086,0.0197 194.46296,194.46296 0 0 1 -1.12124,-0.0557 z"
       style="color:#000000;font-style:normal;font-variant:normal;font-weight:normal;font-stretch:normal;font-size:medium;line-height:normal;font-family:sans-serif;font-variant-ligatures:normal;font-variant-position:normal;font-variant-caps:normal;font-variant-numeric:normal;font-variant-alternates:normal;font-feature-settings:normal;text-indent:0;text-align:start;text-decoration:none;text-decoration-line:none;text-decoration-style:solid;text-decoration-color:#000000;letter-spacing:normal;word-spacing:normal;text-transform:none;writing-mode:lr-tb;direction:ltr;text-orientation:mixed;dominant-baseline:auto;baseline-shift:baseline;text-anchor:start;white-space:normal;shape-padding:0;clip-rule:nonzero;display:inline;overflow:visible;visibility:visible;opacity:1;isolation:auto;mix-blend-mode:normal;color-interpolation:sRGB;color-interpolation-filters:linearRGB;solid-color:#000000;solid-opacity:1;vector-effect:none;fill:#72abe4;fill-opacity:0.29761903;fill-rule:nonzero;stroke:none;stroke-width:1.65078604;stroke-linecap:round;stroke-linejoin:bevel;stroke-miterlimit:4;stroke-dasharray:none;stroke-dashoffset:0;stroke-opacity:1;paint-order:stroke fill markers;color-rendering:auto;image-rendering:auto;shape-rendering:auto;text-rendering:auto;enable-background:accumulate" />
  </g>
  <g
     inkscape:groupmode="layer"
     id="layer8"
     inkscape:label="Riflessi"
     sodipodi:insensitive="true">
    <path
       style="opacity:0.2;fill:#2d2d2d;fill-opacity:1;stroke:none;stroke-width:0.61608917;stroke-linecap:round;stroke-linejoin:bevel;stroke-miterlimit:4;stroke-dasharray:none;stroke-opacity:0.93650794;paint-order:stroke fill markers"
       d="m 66.894995,255.61595 a 192.57379,192.57379 0 0 0 -2.114902,26.85043 192.57379,192.57379 0 0 0 192.574487,192.5745 192.57379,192.57379 0 0 0 192.5745,-192.5745 192.57379,192.57379 0 0 0 -1.90826,-25.35545 1044.9944,1044.9944 0 0 1 -186.573,17.3792 1044.9944,1044.9944 0 0 1 -194.552825,-18.87418 z"
       id="path5586"
       inkscape:connector-curvature="0" />
    <g
       transform="matrix(0.91999049,0,0,0.91999049,18.27565,-467.67752)"
       id="g5440">
      <path
         clip-path="none"
         mask="none"
         d="m 381.15137,952.1029 c 0,2.01917 -56.03125,43.37799 -125.14616,43.37799 -69.12567,0 -125.15564,-41.35882 -125.15564,-43.37799 0,-2.00972 56.02997,36.04178 125.15564,36.04178 69.11491,0 125.14616,-38.0515 125.14616,-36.04178"
         style="opacity:0.597;fill:url(#linearGradient4449);fill-opacity:1;fill-rule:nonzero;stroke:none;stroke-width:0.31648916"
         id="path352"
         inkscape:connector-curvature="0" />
      <path
         clip-path="none"
         mask="none"
         d="m 130.84611,630.16377 c 0,-2.02555 56.03819,-43.378 125.1626,-43.378 69.10825,0 125.14582,41.35245 125.14582,43.378 0,2.02238 -56.03757,-36.04178 -125.14582,-36.04178 -69.12441,0 -125.1626,38.06416 -125.1626,36.04178"
         style="fill:url(#linearGradient4441);fill-opacity:1;fill-rule:nonzero;stroke:none;stroke-width:0.31648916"
         id="path374"
         inkscape:connector-curvature="0" />
      <path
         style="opacity:0.87599996;fill:url(#linearGradient4690);fill-opacity:1;fill-rule:nonzero;stroke:none;stroke-width:0.35541555"
         mask="none"
         clip-path="none"
         d="m 171.5337,630.2416 c -45.04644,34.0488 -67.90946,62.47668 -67.90946,62.47668 18.07609,9.74546 20.58389,11.8561 33.05826,22.6714 0,0 21.04723,-27.33384 55.51719,-49.83518 -8.13972,-11.70028 -15.36284,-19.66396 -20.66599,-35.3129 z m 23.09061,37.67806 c -21.8442,14.39432 -44.96837,36.97294 -55.7268,49.58309 5.43005,2.88242 7.49765,7.36734 7.49765,7.36734 12.89767,-15.87995 34.87715,-35.60227 55.04699,-49.81534 0.12618,-0.11373 -3.42327,-2.55025 -6.81784,-7.13509 z m -93.21791,27.97952 c 0,0 -21.1664,25.58655 -29.98211,45.75637 14.09152,4.02329 27.08136,12.68531 34.8767,20.33742 3.81109,-16.73654 27.85772,-43.66597 27.85772,-43.66597 -12.00487,-11.02144 -16.56843,-14.5447 -32.75231,-22.42782 z m 35.71228,23.89223 c -7.90374,8.96712 -22.29316,26.82988 -28.92275,44.05686 4.54435,3.01037 6.80284,6.26238 7.04729,5.99925 9.10467,-18.45316 16.33913,-29.86158 29.14653,-42.94084 0,0 -2.14809,-4.24706 -7.27107,-7.11527 z"
         id="path392"
         inkscape:connector-curvature="0" />
      <path
         inkscape:connector-curvature="0"
         style="opacity:0.2;fill:#ffffff;fill-opacity:1;stroke:none;stroke-width:3.03038526;stroke-linecap:round;stroke-linejoin:bevel;stroke-miterlimit:4;stroke-dasharray:none;stroke-opacity:0.93650794;paint-order:stroke fill markers"
         d="M 257.65234,606.12832 A 211.83795,211.83795 0 0 0 48.476553,786.2123 1135.8752,1135.8752 0 0 0 262.09375,807.03457 1135.8752,1135.8752 0 0 0 467.11914,787.82168 211.83795,211.83795 0 0 0 257.65234,606.12832 Z"
         id="path5588" />
    </g>
    <path
       inkscape:connector-curvature="0"
       id="path886"
       d="m -432.93554,255.61595 a 192.57379,192.57379 0 0 0 -2.11491,26.85043 192.57379,192.57379 0 0 0 192.57449,192.5745 192.57379,192.57379 0 0 0 192.574502,-192.5745 192.57379,192.57379 0 0 0 -1.908263,-25.35545 1044.9944,1044.9944 0 0 1 -186.572999,17.3792 1044.9944,1044.9944 0 0 1 -194.55282,-18.87418 z"
       style="opacity:0.2;fill:#009100;fill-opacity:1;stroke:none;stroke-width:0.61608917;stroke-linecap:round;stroke-linejoin:bevel;stroke-miterlimit:4;stroke-dasharray:none;stroke-opacity:0.93650794;paint-order:stroke fill markers" />
    <g
       id="g896"
       transform="matrix(0.91999049,0,0,0.91999049,-481.55489,-467.67752)"
       style="fill:#ccff42">
      <path
         id="path894"
         d="M 257.65234,606.12832 A 211.83795,211.83795 0 0 0 48.476553,786.2123 1135.8752,1135.8752 0 0 0 262.09375,807.03457 1135.8752,1135.8752 0 0 0 467.11914,787.82168 211.83795,211.83795 0 0 0 257.65234,606.12832 Z"
         style="opacity:0.2;fill:#ccff42;fill-opacity:1;stroke:none;stroke-width:3.03038526;stroke-linecap:round;stroke-linejoin:bevel;stroke-miterlimit:4;stroke-dasharray:none;stroke-opacity:0.93650794;paint-order:stroke fill markers"
         inkscape:connector-curvature="0" />
    </g>
  </g>
</svg>
