<?xml version="1.0" encoding="UTF-8" standalone="no"?>
<!-- Created with Inkscape (http://www.inkscape.org/) -->

<svg
   xmlns:dc="http://purl.org/dc/elements/1.1/"
   xmlns:cc="http://creativecommons.org/ns#"
   xmlns:rdf="http://www.w3.org/1999/02/22-rdf-syntax-ns#"
   xmlns:svg="http://www.w3.org/2000/svg"
   xmlns="http://www.w3.org/2000/svg"
   xmlns:xlink="http://www.w3.org/1999/xlink"
   xmlns:sodipodi="http://sodipodi.sourceforge.net/DTD/sodipodi-0.dtd"
   xmlns:inkscape="http://www.inkscape.org/namespaces/inkscape"
   width="96"
   height="96"
   viewBox="0 0 96.000001 96.000004"
   version="1.1"
   id="svg1072"
   inkscape:version=""
   sodipodi:docname="botton-folder-template.svg">
  <title
     id="title862">Botton Folder Template  &lt;  Lila HD icon themes  &gt;</title>
  <defs
     id="defs1066">
    <linearGradient
       id="linearGradient6139-0">
      <stop
         style="stop-color:#aac0c4;stop-opacity:1"
         offset="0"
         id="stop6141-2" />
      <stop
         id="stop6151-0"
         offset="0.25"
         style="stop-color:#ffffff;stop-opacity:1;" />
      <stop
         id="stop6147-1"
         offset="0.5"
         style="stop-color:#8ba8af;stop-opacity:1" />
      <stop
         style="stop-color:#fbf9f9;stop-opacity:1;"
         offset="0.75"
         id="stop6149-4" />
      <stop
         style="stop-color:#aabdc4;stop-opacity:1"
         offset="1"
         id="stop6143-4" />
    </linearGradient>
    <linearGradient
       id="linearGradient3832-0-6-1-1">
      <stop
         id="stop3834-6-3-7-1"
         offset="0"
         style="stop-color:#000000;stop-opacity:1;" />
      <stop
         style="stop-color:#000000;stop-opacity:0.58823532;"
         offset="0.1"
         id="stop3872-2-4" />
      <stop
         id="stop3844-6-2-7-6"
         offset="0.89999998"
         style="stop-color:#000000;stop-opacity:0.58823532;" />
      <stop
         id="stop3836-5-0-2-9"
         offset="1"
         style="stop-color:#000000;stop-opacity:1;" />
    </linearGradient>
    <linearGradient
       id="linearGradient3737">
      <stop
         id="stop3739"
         style="stop-color:#ffffff;stop-opacity:1"
         offset="0" />
      <stop
         id="stop3741"
         style="stop-color:#ffffff;stop-opacity:0"
         offset="1" />
    </linearGradient>
    <clipPath
       clipPathUnits="userSpaceOnUse"
       id="clipPath4156-4-1">
      <path
         style="opacity:0.6;fill:#ffffff;fill-opacity:1;stroke:none"
         d="m 27.046336,-55.695463 -14.21366,13.321486 h 0.06127 l 15.653407,21.770763 10.231384,-10.546177 C 38.561832,-32.30156 27.468089,-54.819245 27.046336,-55.695463 Z M 9.6468554,-39.382809 -5.2407289,-25.32124 15.987863,-7.8059573 26.372412,-18.382966 Z m 31.4906096,12.951445 -9.741259,9.713584 8.944804,12.4580526 7.780753,-7.5550056 z m -49.8397109,4.378822 -13.7541661,12.9822847 26.2830181,13.84571 0.06127,-0.0617 -0.122531,-0.0617 L 13.598503,-5.4007374 -8.7022409,-22.052595 Z m 38.0154159,7.400825 -9.802525,9.7752596 11.579232,9.5594001 7.62759,-7.40083 -8.669108,-11.0087257 z m 20.187073,5.6739697 -7.382526,7.2158 6.187844,8.54179 5.820249,-6.13651996 z m -32.195166,6.32154 -9.5574606,9.49772 13.6622686,7.1849703 7.933918,-7.6783603 z m 23.311629,2.37443004 -7.10683,6.93826996 8.362778,6.9074403 5.360756,-5.6739699 -0.06127,-0.0925 -0.0919,0.12335 -6.463539,-8.20258036 z m -8.730374,8.54178036 -7.505057,7.3391599 10.353916,5.45811 c 1.397496,-1.32103 5.67514,-6.12292 5.850882,-6.32154 z"
         id="path4158-0-8"
         inkscape:connector-curvature="0" />
    </clipPath>
    <linearGradient
       gradientUnits="userSpaceOnUse"
       y2="7.0165396"
       x2="45.447727"
       y1="92.539597"
       x1="45.447727"
       gradientTransform="scale(1.0058652,0.994169)"
       id="ButtonShadow-16">
      <stop
         id="stop3750-6"
         offset="0"
         style="stop-color:#000000;stop-opacity:1;" />
      <stop
         id="stop3752-4"
         offset="1"
         style="stop-color:#000000;stop-opacity:0.58823532;" />
    </linearGradient>
    <clipPath
       id="clipPath4355-7"
       clipPathUnits="userSpaceOnUse">
      <rect
         ry="6"
         rx="6"
         y="6"
         x="6"
         height="80"
         width="84"
         id="rect4357-5"
         style="fill:#ffffff;fill-opacity:1;fill-rule:nonzero;stroke:none" />
    </clipPath>
    <clipPath
       id="clipPath4355-9"
       clipPathUnits="userSpaceOnUse">
      <rect
         ry="6"
         rx="6"
         y="6"
         x="6"
         height="80"
         width="84"
         id="rect4357-1"
         style="fill:#ffffff;fill-opacity:1;fill-rule:nonzero;stroke:none" />
    </clipPath>
    <clipPath
       id="clipPath4355-1"
       clipPathUnits="userSpaceOnUse">
      <rect
         ry="6"
         rx="6"
         y="6"
         x="6"
         height="80"
         width="84"
         id="rect4357-9"
         style="fill:#ffffff;fill-opacity:1;fill-rule:nonzero;stroke:none" />
    </clipPath>
    <clipPath
       id="clipPath3943-52-0"
       clipPathUnits="userSpaceOnUse">
      <path
         inkscape:connector-curvature="0"
         style="color:#000000;display:inline;overflow:visible;visibility:visible;opacity:0.8;fill:#ff00ff;fill-opacity:1;fill-rule:nonzero;stroke:none;stroke-width:1;marker:none;enable-background:accumulate"
         d="m 69.78125,20.84375 -5,3.4375 c 5.586891,5.537137 9,13.327613 9,21.8125 0,8.434478 -3.37723,16.095981 -8.90625,21.625 l 5,3.4375 C 76.078226,64.5762 80,55.843726 80,46.09375 c 2e-6,-9.796556 -3.962955,-18.660417 -10.21875,-25.25 z M 40,24.0625 28.90625,36.21875 H 21.5 c -0.823281,0 -1.5,0.676717 -1.5,1.5 v 1 14.84375 1 c 0,0.823281 0.684121,1.610161 1.5,1.5 h 7.40625 L 40,68 V 66 26.0625 Z m 20.59375,3.28125 -5,3.4375 L 55.5,30.875 c 3.93815,3.890071 6.40625,9.25018 6.40625,15.21875 0,5.920869 -2.42961,11.148358 -6.3125,15.03125 l 0.09375,0.09375 5.09375,3.4375 c 4.475428,-4.908367 7.25,-11.402005 7.25,-18.5625 0,-7.230696 -2.87904,-13.83107 -7.4375,-18.75 z m -9.25,6.5 -5.21875,3.625 c 2.222384,2.217802 3.71875,5.239596 3.71875,8.625 0,3.336509 -1.458847,6.227712 -3.625,8.4375 l 5.21875,3.625 c 2.822412,-3.236947 4.53125,-7.43414 4.53125,-12.0625 0,-4.672601 -1.754155,-9.001351 -4.625,-12.25 z"
         id="path3945-4-1" />
    </clipPath>
    <filter
       inkscape:collect="always"
       style="color-interpolation-filters:sRGB"
       id="filter1009"
       x="-0.021301886"
       width="1.0426039"
       y="-0.14664388"
       height="1.2932878">
      <feGaussianBlur
         inkscape:collect="always"
         stdDeviation="0.73298075"
         id="feGaussianBlur1011" />
    </filter>
    <clipPath
       clipPathUnits="userSpaceOnUse"
       id="clipPath4156-4-1-7">
      <path
         style="opacity:0.6;fill:#ffffff;fill-opacity:1;stroke:none"
         d="m 27.046336,-55.695463 -14.21366,13.321486 h 0.06127 l 15.653407,21.770763 10.231384,-10.546177 C 38.561832,-32.30156 27.468089,-54.819245 27.046336,-55.695463 Z M 9.6468554,-39.382809 -5.2407289,-25.32124 15.987863,-7.8059573 26.372412,-18.382966 Z m 31.4906096,12.951445 -9.741259,9.713584 8.944804,12.4580526 7.780753,-7.5550056 z m -49.8397109,4.378822 -13.7541661,12.9822847 26.2830181,13.84571 0.06127,-0.0617 -0.122531,-0.0617 L 13.598503,-5.4007374 -8.7022409,-22.052595 Z m 38.0154159,7.400825 -9.802525,9.7752596 11.579232,9.5594001 7.62759,-7.40083 -8.669108,-11.0087257 z m 20.187073,5.6739697 -7.382526,7.2158 6.187844,8.54179 5.820249,-6.13651996 z m -32.195166,6.32154 -9.5574606,9.49772 13.6622686,7.1849703 7.933918,-7.6783603 z m 23.311629,2.37443004 -7.10683,6.93826996 8.362778,6.9074403 5.360756,-5.6739699 -0.06127,-0.0925 -0.0919,0.12335 -6.463539,-8.20258036 z m -8.730374,8.54178036 -7.505057,7.3391599 10.353916,5.45811 c 1.397496,-1.32103 5.67514,-6.12292 5.850882,-6.32154 z"
         id="path4158-0-8-5"
         inkscape:connector-curvature="0" />
    </clipPath>
    <radialGradient
       inkscape:collect="always"
       xlink:href="#linearGradient3737"
       id="radialGradient958"
       gradientUnits="userSpaceOnUse"
       gradientTransform="matrix(0.97513378,0,0,0.1765891,34.847096,74.470707)"
       cx="13.948145"
       cy="44.892841"
       fx="13.948145"
       fy="44.892841"
       r="43.199203" />
    <filter
       inkscape:collect="always"
       style="color-interpolation-filters:sRGB"
       id="filter981"
       x="-0.034079667"
       width="1.0681593"
       y="-0.67557931"
       height="2.3511586">
      <feGaussianBlur
         inkscape:collect="always"
         stdDeviation="1.1963384"
         id="feGaussianBlur983" />
    </filter>
    <linearGradient
       gradientUnits="userSpaceOnUse"
       y2="88.171875"
       x2="94.5"
       y1="88.171875"
       x1="1.5"
       id="linearGradient4129"
       xlink:href="#linearGradient3832-0-6-1-1"
       inkscape:collect="always"
       gradientTransform="matrix(1,0,0,0.81773038,-0.46376856,17.043158)" />
    <filter
       inkscape:collect="always"
       style="color-interpolation-filters:sRGB"
       id="filter989"
       x="-0.035261709"
       width="1.0705234"
       y="-0.039423428"
       height="1.0788469">
      <feGaussianBlur
         inkscape:collect="always"
         stdDeviation="1.1963384"
         id="feGaussianBlur991" />
    </filter>
    <linearGradient
       y2="47.000011"
       x2="90"
       y1="47.000011"
       x1="6"
       gradientTransform="matrix(1.1071428,0,0,1.1071426,-5.6066246,-4.2170217)"
       gradientUnits="userSpaceOnUse"
       id="linearGradient4071"
       xlink:href="#linearGradient6139-0"
       inkscape:collect="always" />
    <linearGradient
       id="linearGradient6139-0-9">
      <stop
         style="stop-color:#b2babc;stop-opacity:1"
         offset="0"
         id="stop6141-2-1" />
      <stop
         id="stop6151-0-2"
         offset="0.25"
         style="stop-color:#eaeded;stop-opacity:1" />
      <stop
         id="stop6147-1-7"
         offset="0.5"
         style="stop-color:#aeb9ba;stop-opacity:1" />
      <stop
         style="stop-color:#eaeded;stop-opacity:1"
         offset="0.75"
         id="stop6149-4-0" />
      <stop
         style="stop-color:#a1bcc7;stop-opacity:1"
         offset="1"
         id="stop6143-4-9" />
    </linearGradient>
    <linearGradient
       y2="14.514202"
       x2="50.527882"
       y1="-28.64156"
       x1="2.7713892"
       gradientUnits="userSpaceOnUse"
       id="linearGradient4767"
       xlink:href="#linearGradient3737"
       inkscape:collect="always" />
    <clipPath
       clipPathUnits="userSpaceOnUse"
       id="clipPath4156-4-1-7-0">
      <path
         style="opacity:0.6;fill:#ffffff;fill-opacity:1;stroke:none"
         d="m 27.046336,-55.695463 -14.21366,13.321486 h 0.06127 l 15.653407,21.770763 10.231384,-10.546177 C 38.561832,-32.30156 27.468089,-54.819245 27.046336,-55.695463 Z M 9.6468554,-39.382809 -5.2407289,-25.32124 15.987863,-7.8059573 26.372412,-18.382966 Z m 31.4906096,12.951445 -9.741259,9.713584 8.944804,12.4580526 7.780753,-7.5550056 z m -49.8397109,4.378822 -13.7541661,12.9822847 26.2830181,13.84571 0.06127,-0.0617 -0.122531,-0.0617 L 13.598503,-5.4007374 -8.7022409,-22.052595 Z m 38.0154159,7.400825 -9.802525,9.7752596 11.579232,9.5594001 7.62759,-7.40083 -8.669108,-11.0087257 z m 20.187073,5.6739697 -7.382526,7.2158 6.187844,8.54179 5.820249,-6.13651996 z m -32.195166,6.32154 -9.5574606,9.49772 13.6622686,7.1849703 7.933918,-7.6783603 z m 23.311629,2.37443004 -7.10683,6.93826996 8.362778,6.9074403 5.360756,-5.6739699 -0.06127,-0.0925 -0.0919,0.12335 -6.463539,-8.20258036 z m -8.730374,8.54178036 -7.505057,7.3391599 10.353916,5.45811 c 1.397496,-1.32103 5.67514,-6.12292 5.850882,-6.32154 z"
         id="path4158-0-8-5-6"
         inkscape:connector-curvature="0" />
    </clipPath>
    <filter
       inkscape:collect="always"
       style="color-interpolation-filters:sRGB"
       id="filter908"
       x="-0.022970895"
       width="1.0459418"
       y="-0.025125638"
       height="1.0502513">
      <feGaussianBlur
         inkscape:collect="always"
         stdDeviation="0.8434886"
         id="feGaussianBlur910" />
    </filter>
    <linearGradient
       inkscape:collect="always"
       xlink:href="#linearGradient3832-0-6-1-1"
       id="linearGradient918"
       x1="95.37854"
       y1="45.973942"
       x2="-1.0754685"
       y2="45.973942"
       gradientUnits="userSpaceOnUse" />
  </defs>
  <sodipodi:namedview
     id="base"
     pagecolor="#ffffff"
     bordercolor="#666666"
     borderopacity="1.0"
     inkscape:pageopacity="0.0"
     inkscape:pageshadow="2"
     inkscape:zoom="2.9241812"
     inkscape:cx="48"
     inkscape:cy="48"
     inkscape:document-units="px"
     inkscape:current-layer="g1010"
     showgrid="false"
     inkscape:showpageshadow="false"
     units="px"
     inkscape:lockguides="true"
     inkscape:window-width="1920"
     inkscape:window-height="1024"
     inkscape:window-x="0"
     inkscape:window-y="28"
     inkscape:window-maximized="1"
     inkscape:snap-global="false"
     showguides="true"
     inkscape:guide-bbox="true">
    <sodipodi:guide
       position="0,0"
       orientation="0,96"
       id="guide1621"
       inkscape:locked="true" />
    <sodipodi:guide
       position="96.000002,0"
       orientation="-96,0"
       id="guide1623"
       inkscape:locked="true" />
    <sodipodi:guide
       position="96.000002,96.000002"
       orientation="0,-96"
       id="guide1625"
       inkscape:locked="true" />
    <sodipodi:guide
       position="0,96.000002"
       orientation="96,0"
       id="guide1627"
       inkscape:locked="true" />
    <sodipodi:guide
       position="45.702771,62.387912"
       orientation="0,1"
       id="guide1022"
       inkscape:locked="true" />
    <sodipodi:guide
       position="51.264484,22.488666"
       orientation="0,1"
       id="guide1024"
       inkscape:locked="true" />
    <sodipodi:guide
       position="21.279597,36.755669"
       orientation="1,0"
       id="guide1026"
       inkscape:locked="true" />
    <sodipodi:guide
       position="74.47859,24.181361"
       orientation="1,0"
       id="guide1028"
       inkscape:locked="true" />
  </sodipodi:namedview>
  <metadata
     id="metadata1069">
    <rdf:RDF>
      <cc:Work
         rdf:about="">
        <dc:format>image/svg+xml</dc:format>
        <dc:type
           rdf:resource="http://purl.org/dc/dcmitype/StillImage" />
        <dc:title>Botton Folder Template  &lt;  Lila HD icon themes  &gt;</dc:title>
        <dc:date>2019</dc:date>
        <dc:creator>
          <cc:Agent>
            <dc:title>Cristian Pozzessere &lt; ilnanny &gt;</dc:title>
          </cc:Agent>
        </dc:creator>
        <dc:subject>
          <rdf:Bag>
            <rdf:li>ilnanny</rdf:li>
            <rdf:li>inkscape</rdf:li>
            <rdf:li>vectorart</rdf:li>
            <rdf:li>svgfiles</rdf:li>
            <rdf:li>icons</rdf:li>
            <rdf:li />
          </rdf:Bag>
        </dc:subject>
        <dc:description>Botton Folder Template  for   Lila HD icon themes  </dc:description>
        <dc:contributor>
          <cc:Agent>
            <dc:title>In the night, alone like a dog.</dc:title>
          </cc:Agent>
        </dc:contributor>
        <cc:license
           rdf:resource="http://creativecommons.org/licenses/by-sa/4.0/" />
        <dc:coverage>Italy</dc:coverage>
      </cc:Work>
      <cc:License
         rdf:about="http://creativecommons.org/licenses/by-sa/4.0/">
        <cc:permits
           rdf:resource="http://creativecommons.org/ns#Reproduction" />
        <cc:permits
           rdf:resource="http://creativecommons.org/ns#Distribution" />
        <cc:requires
           rdf:resource="http://creativecommons.org/ns#Notice" />
        <cc:requires
           rdf:resource="http://creativecommons.org/ns#Attribution" />
        <cc:permits
           rdf:resource="http://creativecommons.org/ns#DerivativeWorks" />
        <cc:requires
           rdf:resource="http://creativecommons.org/ns#ShareAlike" />
      </cc:License>
    </rdf:RDF>
  </metadata>
  <g
     inkscape:label="Icona"
     inkscape:groupmode="layer"
     id="layer1"
     transform="translate(0,-1026.5197)">
    <g
       transform="translate(-0.14895645,1026.1047)"
       style="display:inline"
       id="g2574">
      <g
         id="g873"
         transform="translate(0.2500015,-0.250026)">
        <g
           id="g1010"
           transform="matrix(0.9958333,0,0,0.99583332,0.56078896,1.045592)">
          <path
             inkscape:connector-curvature="0"
             id="path3288"
             d="M 88.679087,-0.18132172 H 6.3933684 c -3.798848,0 -6.85713496,3.05830002 -6.85713496,6.85720002 V 88.96158 c 0,3.7988 3.05828696,6.8571 6.85713496,6.8571 H 88.679087 c 3.79886,0 6.85715,-3.0583 6.85715,-6.8571 V 6.6758783 c 0,-3.7989 -3.05829,-6.85720002 -6.85715,-6.85720002 z"
             style="display:inline;opacity:0.15;fill:#000000;fill-opacity:1;fill-rule:nonzero;stroke:none" />
          <path
             style="display:inline;opacity:0.15;fill:#000000;fill-opacity:1;fill-rule:nonzero;stroke:none"
             d="M 88.036237,0.56867828 H 7.0362244 c -3.739492,0 -6.74999296,3.01050002 -6.74999296,6.75000002 V 88.31868 c 0,3.7395 3.01050096,6.75 6.74999296,6.75 H 88.036237 c 3.7395,0 6.75,-3.0105 6.75,-6.75 V 7.3186783 c 0,-3.7395 -3.0105,-6.75000002 -6.75,-6.75000002 z"
             id="path4085"
             inkscape:connector-curvature="0" />
          <path
             inkscape:connector-curvature="0"
             id="rect4251-1"
             d="M 87.393367,1.3186783 H 7.6790884 c -3.680143,0 -6.642856,2.9627 -6.642856,6.6429 V 87.67588 c 0,3.6801 2.962713,6.6428 6.642856,6.6428 H 87.393367 c 3.68015,0 6.64286,-2.9627 6.64286,-6.6428 V 7.9615783 c 0,-3.6802 -2.96271,-6.6429 -6.64286,-6.6429 z"
             style="display:inline;fill:url(#linearGradient4071);fill-opacity:1.0;fill-rule:nonzero;stroke:none" />
          <path
             style="display:inline;fill:#008ae8;fill-opacity:1;fill-rule:nonzero;stroke:#103b59;stroke-width:0.29184848;stroke-miterlimit:4;stroke-dasharray:none;stroke-opacity:1"
             d="M 84.413197,5.7777783 H 11.101206 c -3.3845716,0 -6.1093256,2.4872 -6.1093256,5.5766997 v 66.921 c 0,3.0895 2.724754,5.5767 6.1093256,5.5767 h 73.311991 c 3.38457,0 6.10934,-2.4872 6.10934,-5.5767 v -66.921 c 0,-3.0894997 -2.72477,-5.5766997 -6.10934,-5.5766997 z"
             id="rect2419-1"
             inkscape:connector-curvature="0" />
          <path
             style="color:#000000;font-style:normal;font-variant:normal;font-weight:normal;font-stretch:normal;font-size:medium;line-height:normal;font-family:Sans;-inkscape-font-specification:Sans;text-indent:0;text-align:start;text-decoration:none;text-decoration-line:none;letter-spacing:normal;word-spacing:normal;text-transform:none;writing-mode:lr-tb;direction:ltr;baseline-shift:baseline;text-anchor:start;display:inline;overflow:visible;visibility:visible;opacity:0.13718411;fill:#ffffff;fill-opacity:1;fill-rule:nonzero;stroke:none;stroke-width:1.91999805;marker:none;enable-background:accumulate"
             d="m 8.5449564,70.820378 c 0,3.5489 3.2623826,6.4489 7.2548336,6.4489 h 61.666076 c 3.992451,0 7.254831,-2.9 7.254831,-6.4489 v -55.7205 c 0,-3.5489 -3.26238,-6.4488997 -7.254831,-6.4488997 H 15.79979 c -3.992451,0 -7.2548336,2.8999997 -7.2548336,6.4488997 z"
             id="path4843"
             inkscape:connector-curvature="0"
             sodipodi:nodetypes="sssssssss" />
          <path
             sodipodi:nodetypes="sssssssss"
             inkscape:connector-curvature="0"
             id="path4849"
             d="m 9.2734004,70.820378 c 0,3.0587 2.7956836,5.5438 6.2366106,5.5438 h 62.684298 c 3.440928,0 6.236608,-2.4851 6.236608,-5.5438 v -55.7205 c 0,-3.0587 -2.79568,-5.5437997 -6.236608,-5.5437997 H 15.510011 c -3.440927,0 -6.2366106,2.4850997 -6.2366106,5.5437997 z"
             style="color:#000000;font-style:normal;font-variant:normal;font-weight:normal;font-stretch:normal;font-size:medium;line-height:normal;font-family:Sans;-inkscape-font-specification:Sans;text-indent:0;text-align:start;text-decoration:none;text-decoration-line:none;letter-spacing:normal;word-spacing:normal;text-transform:none;writing-mode:lr-tb;direction:ltr;baseline-shift:baseline;text-anchor:start;display:inline;overflow:visible;visibility:visible;opacity:0.24548735;fill:#ffffff;fill-opacity:1;fill-rule:nonzero;stroke:none;stroke-width:1.91999805;marker:none;enable-background:accumulate" />
          <path
             inkscape:connector-curvature="0"
             id="path4046"
             d="m 15.49642,10.644278 c -2.894595,0 -5.212182,2.0292 -5.212182,4.5492 v 27.8069 c 0,-2.52 2.317587,-4.5493 5.212182,-4.5493 h 62.716138 c 2.894599,0 5.212179,2.0293 5.212179,4.5493 v -27.8069 c 0,-2.52 -2.31758,-4.5492 -5.212179,-4.5492 z"
             style="display:inline;fill:#eafdfe;fill-opacity:1;fill-rule:nonzero;stroke:#b4b4b4;stroke-width:0.41990432;stroke-miterlimit:4;stroke-dasharray:none;stroke-opacity:1" />
          <path
             style="display:inline;opacity:0.5;fill:#ffffff;fill-opacity:1;fill-rule:nonzero;stroke:none;stroke-width:0.95999902"
             d="m 10.291623,71.301178 c 0.266601,2.3476 2.504846,4.1579 5.218388,4.1579 h 0.477292 c -2.640951,-0.237 -4.677458,-2.2266 -4.677458,-4.6387 v -55.7205 c 0,-2.4121 2.036507,-4.4017 4.677458,-4.6387 h -0.477292 c -2.894445,0 -5.218388,2.0658 -5.218388,4.6387 v 55.7205 c 0,0.1608 -0.01777,0.3243 0,0.4808 z"
             id="path4820"
             inkscape:connector-curvature="0" />
          <path
             style="display:inline;fill:#ffffff;fill-opacity:1;fill-rule:nonzero;stroke:#b4b4b4;stroke-width:0.41990432;stroke-miterlimit:4;stroke-dasharray:none;stroke-opacity:1"
             d="m 15.505981,10.618478 c -2.894595,0 -5.21218,2.0292 -5.21218,4.5492 v 4.9071 c 0,-2.52 2.317585,-4.5492 5.21218,-4.5492 H 78.22212 c 2.894597,0 5.212177,2.0292 5.212177,4.5492 v -4.9071 c 0,-2.52 -2.31758,-4.5492 -5.212177,-4.5492 z"
             id="path3899"
             inkscape:connector-curvature="0" />
          <path
             inkscape:connector-curvature="0"
             id="path3086"
             d="m 15.466814,13.952478 c -2.893757,0 -5.210672,2.0293 -5.210672,4.5493 v 4.9071 c 0,-2.52 2.316915,-4.5493 5.210672,-4.5493 h 62.697971 c 2.893762,0 5.210672,2.0293 5.210672,4.5493 v -4.9071 c 0,-2.52 -2.31691,-4.5493 -5.210672,-4.5493 z"
             style="display:inline;fill:#fff7fe;fill-opacity:1;fill-rule:nonzero;stroke:#b4b4b4;stroke-width:0.41984349;stroke-miterlimit:4;stroke-dasharray:none;stroke-opacity:1" />
          <path
             style="display:inline;opacity:0.1;fill:#ffffff;fill-opacity:1;fill-rule:nonzero;stroke:none;stroke-width:0.95999902"
             d="m 76.698796,61.408278 h 1.495513 c 2.894448,0 5.218388,-1.6192 5.218388,-3.6359 v -43.6753 c 0,-2.0167 -2.32394,-3.6359 -5.218388,-3.6359 h -1.495513 c 2.64095,0.1858 4.677461,1.7453 4.677461,3.6359 v 43.6753 c 0,1.8907 -2.036511,3.4502 -4.677461,3.6359 z"
             id="path4810"
             inkscape:connector-curvature="0" />
          <path
             inkscape:connector-curvature="0"
             id="path3898"
             d="m 16.334202,75.459078 h -1.495514 c -2.894445,0 -5.2183886,-2.0658 -5.2183886,-4.6387 v -55.7205 c 0,-2.5729 2.3239436,-4.6387 5.2183886,-4.6387 h 1.495514 c -2.640951,0.237 -4.677458,2.2266 -4.677458,4.6387 v 55.7205 c 0,2.4121 2.036507,4.4017 4.677458,4.6387 z"
             style="display:inline;opacity:0.1;fill:#ffffff;fill-opacity:1;fill-rule:nonzero;stroke:none;stroke-width:0.95999902" />
          <path
             sodipodi:nodetypes="ssssssccssss"
             inkscape:connector-curvature="0"
             id="path4187"
             d="m 5.2332766,81.106323 c 0,2.478612 2.7754771,4.473939 6.2230544,4.473939 h 72.602378 c 3.447578,0 6.223054,-1.995327 6.223054,-4.473939 V 34.875766 c 0,-2.47851 -2.775476,-4.473939 -6.223054,-4.473939 H 44.451517 L 40.173162,25.275526 C 39.12179,23.880658 37.065776,22.945332 34.69558,22.945332 H 11.456331 c -3.4475773,0 -6.2230534,1.995327 -6.2230534,4.473938 z"
             style="display:inline;fill:#0c9bff;fill-opacity:1;fill-rule:nonzero;stroke:#f5fafd;stroke-width:1.01358855;stroke-linecap:round;stroke-miterlimit:4;stroke-dasharray:none;stroke-opacity:1;paint-order:stroke fill markers" />
          <g
             style="opacity:0.5;fill:#0078cc;fill-opacity:1"
             transform="matrix(0.99954448,0,0,1.02783,3.3992174,-1046.6123)"
             id="g980">
            <path
               style="opacity:1;fill:#ffffff;fill-opacity:1;stroke:#000000;stroke-width:0.85897899;stroke-linecap:round;stroke-linejoin:bevel;stroke-miterlimit:4;stroke-dasharray:none;stroke-opacity:0.39215686;paint-order:stroke fill markers"
               d="m 40.427161,1091.2396 v 5.4348 h 7.460774 v -5.4348 z m 10.106563,0 v 5.4348 h 7.460775 v -5.4348 z m 10.108526,0 v 5.4348 h 7.458812 v -5.4348 z m 10.106564,0 v 5.4348 h 7.458812 v -5.4348 z m -60.641344,0.086 v 5.4348 h 7.458812 v -5.4348 z m 10.106563,0 v 5.4348 h 7.458813 v -5.4348 z m 10.106564,0 v 5.4348 h 7.460774 v -5.4348 z"
               id="rect959"
               inkscape:connector-curvature="0" />
          </g>
          <path
             inkscape:connector-curvature="0"
             id="path4815"
             d="m 11.323344,8.0569783 c -2.5408756,0.2633 -4.4999996,2.4739997 -4.4999996,5.1542997 v 61.916 c 0,2.6803 1.959124,4.8928 4.4999996,5.1562 h 0.980468 c -2.5408686,-0.2634 -4.4999986,-2.4759 -4.4999986,-5.1562 v -61.916 c 0,-2.6803 1.95913,-4.8909997 4.4999986,-5.1542997 z m 71.447263,0.6055 c 2.54088,0.2634 4.5,2.4738997 4.5,5.1541997 v 61.9161 c 0,2.6803 -1.95912,4.8909 -4.5,5.1543 h 0.97852 c 2.54087,-0.2634 4.5,-2.474 4.5,-5.1543 v -61.9161 c 0,-2.6803 -1.95913,-4.8907997 -4.5,-5.1541997 z"
             style="display:inline;opacity:0.98000004;fill:none;fill-opacity:1;fill-rule:nonzero;stroke:#fbfbfb;stroke-width:0.99260569;stroke-opacity:1;filter:url(#filter989);enable-background:new"
             transform="matrix(0.99808228,0,0,1.0571472,0.09116122,-0.57271199)" />
          <path
             style="color:#000000;font-style:normal;font-variant:normal;font-weight:normal;font-stretch:normal;font-size:medium;line-height:normal;font-family:Sans;-inkscape-font-specification:Sans;text-indent:0;text-align:start;text-decoration:none;text-decoration-line:none;letter-spacing:normal;word-spacing:normal;text-transform:none;writing-mode:lr-tb;direction:ltr;baseline-shift:baseline;text-anchor:start;display:inline;overflow:visible;visibility:visible;fill:url(#linearGradient918);fill-opacity:1;stroke:none;stroke-width:2.3755002;marker:none;filter:url(#filter908);enable-background:accumulate;opacity:0.86"
             d="m 8.5991061,3.785973 c -3.116621,0 -5.667965,2.5395 -5.667965,5.6459997 V 80.615486 c 0,3.1065 2.551344,5.646 5.667965,5.646 H 86.915302 c 3.11662,0 5.66797,-2.5395 5.66797,-5.646 V 9.4319727 c 0,-3.1064997 -2.55135,-5.6459997 -5.66797,-5.6459997 z m 0,2.3194 H 86.915302 c 1.8881,0 3.35202,1.4801 3.35202,3.3265997 V 80.615486 c 0,1.8465 -1.46392,3.3266 -3.35202,3.3266 H 8.5991061 c -1.888099,0 -3.352022,-1.4801 -3.352022,-3.3266 V 9.4319727 c 0,-1.8464997 1.463923,-3.3265997 3.352022,-3.3265997 z"
             id="path4989"
             inkscape:connector-curvature="0"
             sodipodi:nodetypes="ssssssssssssssssss"
             transform="matrix(0.99942124,0,0,1.0258648,0.02763994,-0.07181722)" />
          <path
             id="path4118"
             d="m 1.0362314,83.969319 v 4.906384 c 0,3.00933 2.976106,5.442977 6.656249,5.442977 H 87.379977 c 3.68015,0 6.65626,-2.433647 6.65626,-5.442977 v -4.906384 c 0,3.009331 -2.97611,5.442979 -6.65626,5.442979 H 7.6924804 c -3.680143,0 -6.656249,-2.433648 -6.656249,-5.442979 z"
             style="display:inline;opacity:0.6;fill:url(#linearGradient4129);fill-opacity:1;fill-rule:nonzero;stroke:none;stroke-width:0.90428448"
             inkscape:connector-curvature="0" />
          <rect
             ry="4.25"
             rx="0"
             y="80.273369"
             x="6.3233995"
             height="4.25"
             width="84.250008"
             id="rect4131"
             style="opacity:0.75;fill:url(#radialGradient958);fill-opacity:1;stroke:none;filter:url(#filter981)"
             transform="matrix(1.0134715,0,0,0.64054413,-0.65267583,30.179347)" />
          <path
             sodipodi:nodetypes="scsccscsscccscsccsssccss"
             inkscape:connector-curvature="0"
             id="path1144"
             d="m 13.098734,24.10774 c -1.758269,0 -3.3569596,0.481729 -4.5468746,1.298829 -1.189916,0.8173 -1.984375,2.007321 -1.984375,3.357421 v 0.279297 h 1.148437 V 28.76399 c 0,-0.9172 0.530024,-1.771493 1.494141,-2.433593 0.9641156,-0.6622 2.3458706,-1.095703 3.8886716,-1.095703 h 20.839784 c 2.122557,0 3.930243,0.823162 4.791016,1.914062 l 0.0098,0.01172 4.277344,4.896484 h 39.599669 c 1.54279,0 2.92455,0.43165 3.88867,1.09375 0.96412,0.6622 1.4961,1.516494 1.4961,2.433594 v 0.519531 h 1.14843 v -0.519531 c 0,-1.3501 -0.79641,-2.540222 -1.98632,-3.357422 -1.18992,-0.8172 -2.78861,-1.298828 -4.54688,-1.298828 h -39.07236 l -3.90625,-4.46875 c -1.152612,-1.4608 -3.282834,-2.351563 -5.699219,-2.351563 z"
             style="color:#000000;font-style:normal;font-variant:normal;font-weight:normal;font-stretch:normal;font-size:medium;line-height:normal;font-family:sans-serif;font-variant-ligatures:normal;font-variant-position:normal;font-variant-caps:normal;font-variant-numeric:normal;font-variant-alternates:normal;font-feature-settings:normal;text-indent:0;text-align:start;text-decoration:none;text-decoration-line:none;text-decoration-style:solid;text-decoration-color:#000000;letter-spacing:normal;word-spacing:normal;text-transform:none;writing-mode:lr-tb;direction:ltr;text-orientation:mixed;dominant-baseline:auto;baseline-shift:baseline;text-anchor:start;white-space:normal;shape-padding:0;clip-rule:nonzero;display:inline;overflow:visible;visibility:visible;opacity:1;isolation:auto;mix-blend-mode:normal;color-interpolation:sRGB;color-interpolation-filters:linearRGB;solid-color:#000000;solid-opacity:1;vector-effect:none;fill:#f5fafd;fill-opacity:1;fill-rule:nonzero;stroke:none;stroke-width:1.13828969;stroke-linecap:round;stroke-linejoin:miter;stroke-miterlimit:4;stroke-dasharray:none;stroke-dashoffset:0;stroke-opacity:1;paint-order:stroke fill markers;filter:url(#filter1009);color-rendering:auto;image-rendering:auto;shape-rendering:auto;text-rendering:auto;enable-background:accumulate"
             transform="matrix(0.99954448,0,0,1.02783,0.02206903,-0.64303413)" />
        </g>
      </g>
    </g>
  </g>
  <g
     inkscape:groupmode="layer"
     id="layer3"
     inkscape:label="Logo"
     sodipodi:insensitive="true">
    <path
       inkscape:connector-curvature="0"
       id="path3281"
       d="m 48.035359,35.1902 c -9.558489,0 -19.162786,3.639 -26.455666,10.8676 l 4.951593,4.8378 c 11.878555,-11.7737 31.129589,-11.7737 43.008146,0 l 4.880875,-4.8378 C 67.127402,38.8292 57.593848,35.1902 48.035359,35.1902 Z m 0,9.5354 c -7.096454,0 -14.179757,2.6964 -19.594173,8.063 l 4.668648,4.6276 c 8.232115,-8.1595 21.618935,-8.1595 29.85108,0 l 4.668619,-4.6276 C 62.215152,47.422 55.131811,44.7256 48.035359,44.7256 Z m 0,8.9746 c -4.779241,0 -9.581395,1.7845 -13.227832,5.3987 L 48.03536,72.21 61.19248,59.1691 c -0.01216,-0.014 0.01216,-0.058 0,-0.07 -3.646461,-3.6144 -8.377876,-5.3988 -13.15712,-5.3988 z"
       style="display:inline;fill:#e1ecf2;fill-opacity:0.94713602;stroke:none;stroke-width:0.80696589;stroke-opacity:1" />
    <path
       inkscape:connector-curvature="0"
       style="display:inline;fill:#000000;fill-opacity:0.07843137;stroke:none;stroke-width:0.80696589;stroke-opacity:1"
       d="m 47.929303,35.245022 c -9.523011,0.02715 -19.084035,3.663698 -26.34961,10.865234 l 4.953125,4.837891 c 5.911949,-5.859763 13.649935,-8.801163 21.396485,-8.828125 z m 0,9.535156 c -7.060464,0.02708 -14.101193,2.721033 -19.488282,8.060547 l 4.669922,4.626953 c 4.08876,-4.052693 9.449522,-6.086404 14.81836,-6.113281 z m 0,8.978516 c -4.743673,0.02657 -9.502004,1.805484 -13.121094,5.392578 l 13.121094,13.003906 z"
       id="path1198" />
  </g>
  <g
     inkscape:groupmode="layer"
     id="layer2"
     inkscape:label="Riflesso"
     sodipodi:insensitive="true">
    <rect
       clip-path="url(#clipPath4156-4-1-7-0)"
       ry="3.9569881"
       rx="3.9569874"
       y="-30"
       x="2"
       height="69.024437"
       width="75.965775"
       id="rect4146"
       style="display:inline;opacity:0.51499999;fill:url(#linearGradient4767);fill-opacity:1;stroke:none"
       transform="matrix(1.0647899,0,0,1.0433175,4.4298899,38.317688)" />
  </g>
</svg>
