<?xml version="1.0" encoding="UTF-8" standalone="no"?>
<!-- Created with Inkscape (http://www.inkscape.org/) -->

<svg
   xmlns:dc="http://purl.org/dc/elements/1.1/"
   xmlns:cc="http://creativecommons.org/ns#"
   xmlns:rdf="http://www.w3.org/1999/02/22-rdf-syntax-ns#"
   xmlns:svg="http://www.w3.org/2000/svg"
   xmlns="http://www.w3.org/2000/svg"
   xmlns:sodipodi="http://sodipodi.sourceforge.net/DTD/sodipodi-0.dtd"
   xmlns:inkscape="http://www.inkscape.org/namespaces/inkscape"
   width="256px"
   height="256px"
   viewBox="0 0 256 256"
   version="1.1"
   id="SVGRoot"
   inkscape:version="0.92.2 2405546, 2018-03-11"
   sodipodi:docname="chiave.svg">
  <title
     id="title2333">chiave</title>
  <sodipodi:namedview
     id="base"
     pagecolor="#ffffff"
     bordercolor="#666666"
     borderopacity="1.0"
     inkscape:pageopacity="0.0"
     inkscape:pageshadow="2"
     inkscape:zoom="1"
     inkscape:cx="128"
     inkscape:cy="128"
     inkscape:document-units="px"
     inkscape:current-layer="layer1"
     showgrid="false"
     inkscape:window-width="1920"
     inkscape:window-height="1048"
     inkscape:window-x="0"
     inkscape:window-y="0"
     inkscape:window-maximized="1"
     inkscape:grid-bbox="true" />
  <defs
     id="defs1700">
    <radialGradient
       id="SVGID_5_"
       cx="181.02361"
       cy="337.06281"
       r="10.2861"
       gradientUnits="userSpaceOnUse">
      <stop
         offset="0"
         style="stop-color:#FFFAC2"
         id="stop78" />
      <stop
         offset="1"
         style="stop-color:#CDA349"
         id="stop80" />
    </radialGradient>
    <linearGradient
       id="SVGID_6_"
       gradientUnits="userSpaceOnUse"
       x1="178.063"
       y1="335.8696"
       x2="178.063"
       y2="339.89661">
      <stop
         offset="0"
         style="stop-color:#FBC926;stop-opacity:0.5"
         id="stop85" />
      <stop
         offset="0.5"
         style="stop-color:#CDA349"
         id="stop87" />
      <stop
         offset="1"
         style="stop-color:#FBC926;stop-opacity:0.5"
         id="stop89" />
    </linearGradient>
  </defs>
  <metadata
     id="metadata1703">
    <rdf:RDF>
      <cc:Work
         rdf:about="">
        <dc:format>image/svg+xml</dc:format>
        <dc:type
           rdf:resource="http://purl.org/dc/dcmitype/StillImage" />
        <dc:title>chiave</dc:title>
        <dc:date>2013</dc:date>
        <dc:creator>
          <cc:Agent>
            <dc:title>Cristian Pozzessere &lt; ilnanny &gt;</dc:title>
          </cc:Agent>
        </dc:creator>
        <dc:subject>
          <rdf:Bag>
            <rdf:li>minions</rdf:li>
            <rdf:li>wallpaperhd</rdf:li>
            <rdf:li>ilnanny</rdf:li>
            <rdf:li>inkscape</rdf:li>
            <rdf:li>vectorart</rdf:li>
            <rdf:li>1920x1080</rdf:li>
          </rdf:Bag>
        </dc:subject>
        <dc:coverage>Italy</dc:coverage>
        <dc:description>..when I have nothing to do, I scribble and have fun with inkscape.</dc:description>
      </cc:Work>
    </rdf:RDF>
  </metadata>
  <g
     id="layer1"
     inkscape:groupmode="layer"
     inkscape:label="Livello 1">
    <rect
       style="opacity:1;fill:#ebfbff;fill-opacity:1;stroke:#020202;stroke-width:0.30064651;stroke-linecap:round;stroke-miterlimit:4;stroke-dasharray:none;stroke-opacity:1;paint-order:stroke fill markers"
       id="rect2331"
       width="255.69936"
       height="255.69936"
       x="0.15032196"
       y="0.15032196" />
    <g
       transform="matrix(0,-0.35923804,0.36270983,0,-3.1923599,250.21281)"
       id="g1098">
      <ellipse
         class="st0"
         cx="591.59998"
         cy="360.39999"
         rx="35.400002"
         ry="36.700001"
         id="ellipse4"
         style="fill:none;stroke:#000000" />
      <path
         sodipodi:nodetypes="sscccssccsccccccscccccccccccccssccsccccsssscsscs"
         class="st1"
         d="m 664,361.7 c 0,77.3 -62.7,140 -140,140 -62.2,0 -114.9,-40.6 -133.2,-96.7 H 52.1 L 18.3,370.6 c -1.2,-1.3 -1.9,-3 -1.9,-4.7 v -7.6 c 0,-2 2.4,-5.1 2.4,-5.1 l 48.5,-41 c 0.8,-0.7 1.9,-1.1 3,-1.1 1.2,0 2.4,0.5 3.3,1.3 5,4.9 12.5,11.7 14.1,11.8 1.7,0.2 9.1,-0.3 13.4,-0.7 1.9,-0.2 3.7,0.8 4.7,2.4 4.6,8.1 17.4,30.1 30.7,34.4 15.7,5.1 13.2,2 15.7,0 2.4,-2 20.8,-24.2 21.4,-24.8 l 0.6,-0.6 c 2.6,0 11.6,6.3 17.1,5.7 4.3,-0.5 15,-9.6 20.3,-14.1 1.5,-1.3 3.7,-1.3 5.2,0 4.8,3.9 15.4,9.6 20.5,8.9 5.8,-0.8 14.5,-6.7 20.6,-14.6 1,-1.3 2.7,-1.7 4.2,-1 6.2,3 18.9,9.7 21.8,9.4 3.5,-0.4 7.7,-1.6 14.6,-6.3 5.2,-3.5 7,-5.8 8.6,-8.3 0.9,-1.4 2.9,-1.7 4.2,-0.7 4.7,3.5 12.3,9.4 17.9,8.5 5.5,-0.8 10,-6 11.6,-11.3 v -2.7 c 0,-1.1 0.9,-2 2,-2 2.2,0 5.4,0 7.3,0.1 2.6,-4.3 -0.8,-13.3 -0.7,-14.3 0.1,-1.8 -0.1,-4.5 -0.1,-7.6 0,-1.1 1,-2 2.1,-1.9 8.7,0.6 41,1.5 44.5,1.3 2.6,-0.2 10.5,-3.2 18.2,-8.8 v 0 c 25.6,-32.6 65.4,-53.5 110.1,-53.5 77.1,0 139.8,62.7 139.8,140 z m -72.4,35.4 c 19.6,0 35.4,-16.4 35.4,-36.7 V 360 c -3.5,-16.5 -17.6,-28.9 -34.6,-28.9 -19.6,0 -35.4,16.4 -35.4,36.7 v 0.4 c 3.5,16.6 17.7,28.9 34.6,28.9 z"
         id="path6"
         inkscape:connector-curvature="0"
         style="fill:#fbd24e;stroke:#000000" />
      <ellipse
         class="st2"
         cx="524.09998"
         cy="362"
         rx="124"
         ry="125"
         id="ellipse8"
         style="fill:none;stroke:#cda349;stroke-width:2" />
      <g
         id="g28">
        <radialGradient
           id="SVGID_1_"
           cx="294.2229"
           cy="366.60031"
           r="217.58051"
           gradientUnits="userSpaceOnUse">
          <stop
             offset="0"
             style="stop-color:#FFFAC2"
             id="stop10" />
          <stop
             offset="1"
             style="stop-color:#CDA349"
             id="stop12" />
        </radialGradient>
        <linearGradient
           id="SVGID_2_"
           gradientUnits="userSpaceOnUse"
           x1="219.0687"
           y1="360.5"
           x2="219.0687"
           y2="381.0882">
          <stop
             offset="0"
             style="stop-color:#FBC926;stop-opacity:0.5"
             id="stop17" />
          <stop
             offset="0.5"
             style="stop-color:#CDA349"
             id="stop19" />
          <stop
             offset="1"
             style="stop-color:#FBC926;stop-opacity:0.5"
             id="stop21" />
        </linearGradient>
        <path
           class="st5"
           d="M 338.2,361.3 154.1,359 c -2.2,2.4 -3.3,3.8 -4,4.2 -2.4,1.5 -15.6,-2.5 -18.8,-4.6 L 16.9,357.3 c 0,0 -0.1,2.9 -0.1,4.3 v 4.6 h -0.1 l 0.2,0.8 c 0,1.3 1,2.6 2.2,3.6 l 0.6,0.4 0.1,0.1 8.7,9.2 309.1,3.8 c 3.1,-0.3 59.51271,-5.5 59.91271,-13.7 0.4,-8.2 -51.11271,-9.1 -59.31271,-9.1 z"
           id="path26"
           inkscape:connector-curvature="0"
           style="fill:none;stroke:#4d4d4d;stroke-width:1.14092875;stroke-miterlimit:4;stroke-dasharray:none;stroke-opacity:1"
           sodipodi:nodetypes="cccccsccccccccsc" />
      </g>
      <g
         id="g96">
        <radialGradient
           id="radialGradient1131"
           cx="181.02361"
           cy="337.06281"
           r="10.2861"
           gradientUnits="userSpaceOnUse">
          <stop
             offset="0"
             style="stop-color:#FFFAC2"
             id="stop1127" />
          <stop
             offset="1"
             style="stop-color:#CDA349"
             id="stop1129" />
        </radialGradient>
        <path
           class="st10"
           d="m 186,340.5 c -4.9,-1.5 -9.7,-4.8 -11.7,-5.2 0,0 0,0 -0.6,0.6 -0.2,0.2 -1.5,1.9 -3.6,4.4 z"
           id="path83"
           style="fill:url(#SVGID_5_)"
           inkscape:connector-curvature="0" />
        <linearGradient
           id="linearGradient1140"
           gradientUnits="userSpaceOnUse"
           x1="178.063"
           y1="335.8696"
           x2="178.063"
           y2="339.89661">
          <stop
             offset="0"
             style="stop-color:#FBC926;stop-opacity:0.5"
             id="stop1134" />
          <stop
             offset="0.5"
             style="stop-color:#CDA349"
             id="stop1136" />
          <stop
             offset="1"
             style="stop-color:#FBC926;stop-opacity:0.5"
             id="stop1138" />
        </linearGradient>
        <path
           class="st11"
           d="m 186,340.5 c -4.9,-1.5 -9.7,-4.8 -11.7,-5.2 0,0 0,0 -0.6,0.6 -0.2,0.2 -1.5,1.9 -3.6,4.4 z"
           id="path92"
           style="fill:url(#SVGID_6_)"
           inkscape:connector-curvature="0" />
        <path
           class="st5"
           d="m 186,340.5 c -4.9,-1.5 -9.7,-4.8 -11.7,-5.2 0,0 0,0 -0.6,0.6 -0.2,0.2 -1.5,1.9 -3.6,4.4 z"
           id="path94"
           inkscape:connector-curvature="0"
           style="fill:none;stroke:#754c24;stroke-width:0.25" />
      </g>
      <path
         inkscape:connector-curvature="0"
         style="fill:#b6a15c;fill-opacity:1;stroke:#000000;stroke-width:0.35059157"
         d="m 448.67383,319.60938 c -0.33535,0 -0.66625,0.0187 -1,0.0254 26.63771,0.53474 48.08398,22.29126 48.08398,49.05664 0,21.80679 -14.23415,40.28339 -33.90234,46.69921 v 118.7461 l -12.06055,11.84961 c -0.45577,0.42071 -1.05243,0.66601 -1.64844,0.66601 h 2 c 0.59601,0 1.19267,-0.2453 1.64844,-0.66601 l 12.06055,-11.84961 v -118.7461 c 19.66819,-6.41582 33.90234,-24.89242 33.90234,-46.69921 0,-27.10073 -21.98325,-49.08203 -49.08398,-49.08203 z m -2.59571,12.97265 c -5.78476,1.22707 -10.13085,6.16885 -10.13085,12.12891 0,6.87159 5.74822,12.41211 12.86523,12.41211 h 0.14062 c 0.12193,-0.0257 0.23881,-0.0628 0.35938,-0.0918 -6.40607,-0.71527 -11.36523,-5.93985 -11.36523,-12.32031 0,-5.83659 4.17197,-10.68776 9.77734,-12.03906 -0.49444,-0.0554 -0.99576,-0.0899 -1.50586,-0.0899 z m -20.12695,96.73633 c -1.53986,-0.051 -3.37963,0.61418 -3.64258,0.58789 -0.21848,-0.0121 -0.51783,-0.004 -0.80468,0.002 0.047,0.0111 0.0906,0.0332 0.14062,0.0332 1.08684,0 2.033,-0.0702 2.66406,-0.0352 0.19274,0.0193 1.23652,-0.32508 2.38477,-0.49414 -0.23298,-0.0557 -0.48328,-0.0852 -0.74219,-0.0937 z"
         id="path983"
         transform="matrix(0,2.8523219,-2.8523219,0,1575.629,-918.06432)" />
      <ellipse
         style="fill:none;stroke:#020202;stroke-width:0.85854888;stroke-miterlimit:4;stroke-dasharray:none;stroke-opacity:1"
         id="ellipse986"
         ry="125"
         rx="124"
         cy="362"
         cx="524.09998"
         class="st2" />
      <path
         transform="matrix(0,2.8523219,-2.8523219,0,1575.629,-918.06432)"
         inkscape:connector-curvature="0"
         style="fill:#fbd24e;stroke:#000000;stroke-width:0.35100001;stroke-miterlimit:4;stroke-dasharray:none"
         d="m 433.69922,410.81055 c -0.76991,0.0131 -1.58699,0.25111 -2.4707,0.65429 -0.94648,0.43182 -5.58933,1.66081 -9.79883,2.99805 0.007,2.57286 -0.25872,11.95153 -0.45117,14.74219 -0.0351,0.38565 0.28036,0.73633 0.66601,0.73633 1.08684,0 2.033,-0.0702 2.66406,-0.0352 0.3506,0.0351 3.50613,-1.15763 5.01368,-0.24609 -0.0351,0.66612 -0.0352,1.78729 -0.0352,2.55859 0,0.38565 0.31552,0.70117 0.70117,0.70117 h 0.94727 c 1.85813,0.56095 3.68046,2.14011 3.96093,4.06836 0.31554,1.96331 -1.75339,4.62761 -2.98046,6.27539 -0.3506,0.45577 -0.24474,1.15713 0.24609,1.47266 0.87648,0.56094 1.68309,1.19059 2.91016,3.01367 1.64778,2.41908 2.06874,3.89207 2.20898,5.11914 0.10518,1.01672 -2.2451,5.46891 -3.29687,7.64258 -0.24542,0.52589 -0.10421,1.12206 0.35156,1.47266 2.76967,2.1386 4.83671,5.18922 5.11718,7.22265 0.24542,1.78802 -1.75183,5.50466 -3.11914,7.1875 -0.45576,0.52589 -0.45576,1.29638 0,1.82227 1.23784,1.4579 3.44737,4.06874 4.43555,5.85937 1.5e-4,2.8e-4 0.002,-2.7e-4 0.002,0 0.1808,0.0921 0.30517,0.18365 0.36524,0.27539 l -0.0527,-51.18554 c 0,-1.50755 -3.80279,-20.68436 -5.19531,-21.66602 -0.69626,-0.49083 -1.41955,-0.7026 -2.18945,-0.68945 z"
         id="path992" />
    </g>
  </g>
</svg>
