<?xml version="1.0" encoding="UTF-8" standalone="no"?>
<!-- Created with Inkscape (http://www.inkscape.org/) -->

<svg
   xmlns:dc="http://purl.org/dc/elements/1.1/"
   xmlns:cc="http://creativecommons.org/ns#"
   xmlns:rdf="http://www.w3.org/1999/02/22-rdf-syntax-ns#"
   xmlns:svg="http://www.w3.org/2000/svg"
   xmlns="http://www.w3.org/2000/svg"
   xmlns:xlink="http://www.w3.org/1999/xlink"
   xmlns:sodipodi="http://sodipodi.sourceforge.net/DTD/sodipodi-0.dtd"
   xmlns:inkscape="http://www.inkscape.org/namespaces/inkscape"
   width="96"
   height="96"
   viewBox="0 0 96.000001 96.000002"
   id="svg2"
   version="1.1"
   inkscape:version="0.92.1 r15371"
   sodipodi:docname="costruzione-icona.svg"
   inkscape:export-filename="/media/Dati/Git/aRTWORK-rESOURCE/costruzione-icona.svg.png"
   inkscape:export-xdpi="256"
   inkscape:export-ydpi="256">
  <title
     id="title5603">Lila-HD-Icon-Theme</title>
  <defs
     id="defs4">
    <linearGradient
       x1="45.447727"
       y1="92.539597"
       x2="45.447727"
       y2="7.0165396"
       id="linearGradient5696"
       gradientUnits="userSpaceOnUse"
       gradientTransform="scale(1.0058652,0.994169)">
      <stop
         id="stop5692"
         style="stop-color:#000000;stop-opacity:0.58823532"
         offset="0" />
      <stop
         id="stop5694"
         style="stop-color:#000000;stop-opacity:0.58823532"
         offset="1" />
    </linearGradient>
    <linearGradient
       inkscape:collect="always"
       xlink:href="#linearGradient3737-6"
       id="linearGradient20599"
       gradientUnits="userSpaceOnUse"
       x1="48"
       y1="20.220806"
       x2="48"
       y2="138.66119" />
    <linearGradient
       id="linearGradient3737-6">
      <stop
         offset="0"
         style="stop-color:#ffffff;stop-opacity:1"
         id="stop3739-4" />
      <stop
         offset="1"
         style="stop-color:#ffffff;stop-opacity:0"
         id="stop3741-5" />
    </linearGradient>
    <clipPath
       id="clipPath3613-8">
      <rect
         style="fill:#ffffff;fill-opacity:1;fill-rule:nonzero;stroke:none"
         id="rect3615-25"
         y="6"
         x="6"
         ry="6"
         rx="6"
         height="84"
         width="84" />
    </clipPath>
    <filter
       style="color-interpolation-filters:sRGB"
       id="filter3794-1"
       height="1.3839999"
       width="1.3839999"
       y="-0.192"
       x="-0.192">
      <feGaussianBlur
         stdDeviation="5.28"
         id="feGaussianBlur3796-5" />
    </filter>
    <clipPath
       id="clipPath3649">
      <rect
         style="fill:#ffffff;fill-opacity:1;fill-rule:nonzero;stroke:none"
         id="rect3651"
         y="10"
         x="10"
         ry="4"
         rx="4"
         height="76"
         width="76" />
    </clipPath>
    <filter
       style="color-interpolation-filters:sRGB"
       id="filter3657">
      <feGaussianBlur
         stdDeviation="1.14"
         id="feGaussianBlur3659" />
    </filter>
    <linearGradient
       inkscape:collect="always"
       xlink:href="#linearGradient3700-24"
       id="linearGradient20597"
       gradientUnits="userSpaceOnUse"
       gradientTransform="translate(-0.07567533,1056.0649)"
       x1="48"
       y1="90"
       x2="48"
       y2="5.9877172" />
    <linearGradient
       id="linearGradient3700-24">
      <stop
         offset="0"
         style="stop-color:#2276c5;stop-opacity:1"
         id="stop3702-5" />
      <stop
         offset="1"
         style="stop-color:#68baf4;stop-opacity:1"
         id="stop3704-8" />
    </linearGradient>
    <radialGradient
       inkscape:collect="always"
       xlink:href="#linearGradient3737-6"
       id="radialGradient20595"
       gradientUnits="userSpaceOnUse"
       gradientTransform="matrix(1.1905083,0,0,1.0244736,-9.1444009,955.18819)"
       cx="48"
       cy="90.171875"
       fx="48"
       fy="90.171875"
       r="42" />
    <linearGradient
       inkscape:collect="always"
       xlink:href="#linearGradient3737-6"
       id="linearGradient20593"
       gradientUnits="userSpaceOnUse"
       x1="36.357143"
       y1="6"
       x2="36.357143"
       y2="63.893143"
       gradientTransform="translate(10.938666,955.3139)" />
    <linearGradient
       id="linearGradient3637">
      <stop
         offset="0"
         style="stop-color:#f0f0f0;stop-opacity:1"
         id="stop3639" />
      <stop
         offset="1"
         style="stop-color:#dcdcdc;stop-opacity:1"
         id="stop3641" />
    </linearGradient>
    <linearGradient
       inkscape:collect="always"
       xlink:href="#ButtonShadow-4"
       id="linearGradient20589"
       gradientUnits="userSpaceOnUse"
       gradientTransform="scale(1.0058652,0.994169)"
       x1="45.447727"
       y1="92.539597"
       x2="45.447727"
       y2="7.0165396" />
    <linearGradient
       gradientTransform="scale(1.0058652,0.994169)"
       gradientUnits="userSpaceOnUse"
       id="ButtonShadow-4"
       y2="7.0165396"
       x2="45.447727"
       y1="92.539597"
       x1="45.447727">
      <stop
         offset="0"
         style="stop-color:#000000;stop-opacity:1"
         id="stop3750-9" />
      <stop
         offset="1"
         style="stop-color:#000000;stop-opacity:0.58823532"
         id="stop3752-7" />
    </linearGradient>
    <clipPath
       id="clipPath3625">
      <path
         style="fill:#ffffff;fill-opacity:1;stroke:none"
         id="path3627"
         inkscape:connector-curvature="0"
         d="M 0,0 V 96 H 96 V 0 Z m 12,6 h 72 c 3.324,0 6,2.676 6,6 v 72 c 0,3.324 -2.676,6 -6,6 H 12 C 8.676,90 6,87.324 6,84 V 12 C 6,8.676 8.676,6 12,6 Z" />
    </clipPath>
    <filter
       style="color-interpolation-filters:sRGB"
       id="filter3174-20">
      <feGaussianBlur
         stdDeviation="1.71"
         id="feGaussianBlur3176-3" />
    </filter>
    <linearGradient
       id="linearGradient4648">
      <stop
         id="stop5624"
         offset="0"
         style="stop-color:#7d329a" />
      <stop
         id="stop5626"
         offset="1"
         style="stop-color:#ac5cce" />
    </linearGradient>
    <linearGradient
       xlink:href="#linearGradient4648"
       gradientUnits="userSpaceOnUse"
       gradientTransform="matrix(-1.5383596,0,0,1.4528953,84.53604,968.94786)"
       y2="27.456"
       y1="19.129"
       x2="45"
       x1="30.577"
       id="linearGradient4652" />
    <radialGradient
       inkscape:collect="always"
       xlink:href="#linearGradient3737-6"
       id="radialGradient5727"
       gradientUnits="userSpaceOnUse"
       gradientTransform="matrix(1.1905083,0,0,-1.0244736,-9.1444009,1053.5818)"
       cx="48"
       cy="90.171875"
       fx="48"
       fy="90.171875"
       r="42" />
    <radialGradient
       inkscape:collect="always"
       xlink:href="#linearGradient3737-6"
       id="radialGradient5731"
       gradientUnits="userSpaceOnUse"
       gradientTransform="matrix(0,1.1905083,-1.0244736,0,97.350927,947.39457)"
       cx="48"
       cy="90.171875"
       fx="48"
       fy="90.171875"
       r="42" />
    <radialGradient
       inkscape:collect="always"
       xlink:href="#linearGradient3737-6"
       id="radialGradient5735"
       gradientUnits="userSpaceOnUse"
       gradientTransform="matrix(0,1.1905083,1.0244736,0,-1.3507734,947.39457)"
       cx="48"
       cy="90.171875"
       fx="48"
       fy="90.171875"
       r="42" />
    <linearGradient
       inkscape:collect="always"
       xlink:href="#linearGradient5696"
       id="linearGradient5755"
       x1="5.9243226"
       y1="1004.0649"
       x2="89.924324"
       y2="1004.0649"
       gradientUnits="userSpaceOnUse"
       gradientTransform="translate(9.8878748,58.576271)" />
  </defs>
  <sodipodi:namedview
     id="base"
     pagecolor="#ffffff"
     bordercolor="#666666"
     borderopacity="1.0"
     inkscape:pageopacity="0.0"
     inkscape:pageshadow="2"
     inkscape:zoom="3.9947917"
     inkscape:cx="66.10545"
     inkscape:cy="46.96346"
     inkscape:document-units="px"
     inkscape:current-layer="layer1"
     showgrid="false"
     units="px"
     inkscape:showpageshadow="false"
     inkscape:window-width="1920"
     inkscape:window-height="994"
     inkscape:window-x="0"
     inkscape:window-y="21"
     inkscape:window-maximized="1"
     inkscape:snap-global="false"
     showguides="true"
     inkscape:guide-bbox="true" />
  <metadata
     id="metadata7">
    <rdf:RDF>
      <cc:Work
         rdf:about="">
        <dc:format>image/svg+xml</dc:format>
        <dc:type
           rdf:resource="http://purl.org/dc/dcmitype/StillImage" />
        <dc:title>Lila-HD-Icon-Theme</dc:title>
        <cc:license
           rdf:resource="http://creativecommons.org/licenses/by-sa/4.0/" />
        <dc:date>2015-2019</dc:date>
        <dc:creator>
          <cc:Agent>
            <dc:title>Cristian Pozzessere  == ilnanny ==</dc:title>
          </cc:Agent>
        </dc:creator>
        <dc:subject>
          <rdf:Bag>
            <rdf:li>ilnanny</rdf:li>
            <rdf:li>lila_hd</rdf:li>
            <rdf:li>lila-hd</rdf:li>
            <rdf:li>lila hd icon theme</rdf:li>
            <rdf:li>Lila-HD-Icon-Theme lila hd icon lila icon</rdf:li>
          </rdf:Bag>
        </dc:subject>
        <dc:coverage>CC-BY-SA</dc:coverage>
        <dc:description>Playing with Inkscape on Gnu/Linux O. S.</dc:description>
        <dc:contributor>
          <cc:Agent>
            <dc:title>In the night, alone like a dog.</dc:title>
          </cc:Agent>
        </dc:contributor>
      </cc:Work>
      <cc:License
         rdf:about="http://creativecommons.org/licenses/by-sa/4.0/">
        <cc:permits
           rdf:resource="http://creativecommons.org/ns#Reproduction" />
        <cc:permits
           rdf:resource="http://creativecommons.org/ns#Distribution" />
        <cc:requires
           rdf:resource="http://creativecommons.org/ns#Notice" />
        <cc:requires
           rdf:resource="http://creativecommons.org/ns#Attribution" />
        <cc:permits
           rdf:resource="http://creativecommons.org/ns#DerivativeWorks" />
        <cc:requires
           rdf:resource="http://creativecommons.org/ns#ShareAlike" />
      </cc:License>
    </rdf:RDF>
  </metadata>
  <g
     inkscape:label="Livello 1"
     inkscape:groupmode="layer"
     id="layer1"
     transform="translate(0,-956.36218)">
    <g
       id="g5601"
       transform="translate(107.93514,-99.702639)">
      <rect
         width="84"
         height="84"
         rx="6"
         ry="6"
         x="5.9243226"
         y="1062.0648"
         id="rect2841"
         style="fill:url(#linearGradient20597);fill-opacity:1;fill-rule:nonzero;stroke:none" />
      <rect
         width="76"
         height="76"
         rx="4"
         ry="4"
         x="9.9243231"
         y="1066.0648"
         id="rect3634"
         style="fill:#ff0000;fill-opacity:1;fill-rule:nonzero;stroke:none" />
    </g>
    <g
       id="g5597"
       transform="translate(11.807262,7.9322413)">
      <path
         d="m 14,9 c -2.752703,0 -5,2.247297 -5,5 v 68 c 0,2.752703 2.247297,5 5,5 h 68 c 2.752703,0 5,-2.247297 5,-5 V 14 C 87,11.247297 84.752703,9 82,9 Z m 0,2 h 68 c 1.679297,0 3,1.320703 3,3 v 68 c 0,1.679297 -1.320703,3 -3,3 H 14 c -1.679297,0 -3,-1.320703 -3,-3 V 14 c 0,-1.679297 1.320703,-3 3,-3 z"
         inkscape:connector-curvature="0"
         transform="translate(-104.944,948.42994)"
         clip-path="url(#clipPath3649)"
         id="rect3647"
         style="color:#000000;font-style:normal;font-variant:normal;font-weight:normal;font-stretch:normal;font-size:medium;line-height:normal;font-family:'Abandoned Bitplane';-inkscape-font-specification:'Abandoned Bitplane';text-indent:0;text-align:start;text-decoration:none;text-decoration-line:none;letter-spacing:normal;word-spacing:normal;text-transform:none;writing-mode:lr-tb;direction:ltr;text-anchor:start;display:inline;overflow:visible;visibility:visible;fill:#000000;fill-opacity:1;stroke:none;stroke-width:2;marker:none;filter:url(#filter3657);enable-background:accumulate" />
    </g>
    <path
       d="m 10.967405,961.15749 c -3.4193433,0 -6.1720995,2.75276 -6.1720995,6.1721 v 74.06521 c 0,3.4193 2.7527562,6.1721 6.1720995,6.1721 h 74.065188 c 3.419343,0 6.172099,-2.7528 6.172099,-6.1721 v -74.06521 c 0,-3.41934 -2.752756,-6.1721 -6.172099,-6.1721 z m 2.057366,4.11473 h 69.950455 c 2.279562,0 4.114733,1.83517 4.114733,4.11473 v 69.95045 c 0,2.2796 -1.835171,4.1148 -4.114733,4.1148 H 13.024771 c -2.279562,0 -4.1147328,-1.8352 -4.1147328,-4.1148 v -69.95045 c 0,-2.27956 1.8351708,-4.11473 4.1147328,-4.11473 z"
       inkscape:connector-curvature="0"
       id="path5745"
       style="fill:none;fill-opacity:0.95555558;fill-rule:nonzero;stroke:#000000;stroke-width:2.05736637;stroke-linecap:round;stroke-miterlimit:4;stroke-dasharray:none;stroke-opacity:0.1372549;paint-order:stroke fill markers" />
    <rect
       style="opacity:0.9;fill:url(#linearGradient20589);fill-opacity:1;fill-rule:nonzero;stroke:none;filter:url(#filter3174-20)"
       id="rect3745-8"
       clip-path="url(#clipPath3625)"
       y="7"
       x="5"
       ry="6"
       rx="6"
       height="85"
       width="86"
       transform="matrix(1.0756193,0,0,1.0756193,-3.6297271,952.48213)" />
    <rect
       style="opacity:1;fill:#709af5;fill-opacity:0.82352941;fill-rule:nonzero;stroke:none;stroke-width:1.02868319"
       id="rect2419"
       y="961.15753"
       x="4.7953033"
       ry="6.1720991"
       rx="6.1720991"
       height="86.409386"
       width="86.409386" />
    <path
       style="opacity:0.07999998;fill:#000000;fill-opacity:1;fill-rule:nonzero;stroke:none;stroke-width:1.02868319"
       id="rect3726"
       inkscape:connector-curvature="0"
       d="m 13.024771,965.27222 c -2.279562,0 -4.1147328,1.83517 -4.1147328,4.11473 v 69.95045 c 0,2.2796 1.8351708,4.1148 4.1147328,4.1148 h 69.950455 c 2.279562,0 4.114733,-1.8352 4.114733,-4.1148 v -69.95045 c 0,-2.27956 -1.835171,-4.11473 -4.114733,-4.11473 z m 0,3.15034 h 69.950455 c 0.595371,0 0.964391,0.36902 0.964391,0.96439 v 69.95045 c 0,0.5953 -0.36902,0.9644 -0.964391,0.9644 H 13.024771 c -0.595371,0 -0.96439,-0.3691 -0.96439,-0.9644 v -69.95045 c 0,-0.59537 0.369019,-0.96439 0.96439,-0.96439 z" />
    <path
       style="fill:#000000;fill-opacity:0.15185188;fill-rule:nonzero;stroke:none;stroke-width:1.02868319"
       id="rect3629"
       inkscape:connector-curvature="0"
       d="m 10.967405,961.15749 c -3.4193433,0 -6.1720995,2.75276 -6.1720995,6.1721 v 74.06521 c 0,3.4193 2.7527562,6.1721 6.1720995,6.1721 h 74.065188 c 3.419343,0 6.172099,-2.7528 6.172099,-6.1721 v -74.06521 c 0,-3.41934 -2.752756,-6.1721 -6.172099,-6.1721 z m 2.057366,4.11473 h 69.950455 c 2.279562,0 4.114733,1.83517 4.114733,4.11473 v 69.95045 c 0,2.2796 -1.835171,4.1148 -4.114733,4.1148 H 13.024771 c -2.279562,0 -4.1147328,-1.8352 -4.1147328,-4.1148 v -69.95045 c 0,-2.27956 1.8351708,-4.11473 4.1147328,-4.11473 z" />
    <path
       style="opacity:0.6;fill:url(#radialGradient20595);fill-opacity:1;fill-rule:nonzero;stroke:none;stroke-width:1.02868319"
       id="path3615"
       inkscape:connector-curvature="0"
       d="m 10.967405,1047.5669 c -3.4193433,0 -6.1720995,-2.7528 -6.1720995,-6.1721 v -2.0574 -69.95045 -2.05736 c 0,-0.34432 0.042485,-0.66937 0.096388,-0.99654 0.050097,-0.30408 0.099782,-0.61403 0.1928781,-0.9001 0.010287,-0.0313 0.0215,-0.0654 0.032095,-0.0964 0.1017368,-0.29603 0.2416171,-0.56316 0.3857562,-0.83581 0.1487373,-0.28135 0.324673,-0.55097 0.5143416,-0.80366 0.1896686,-0.25267 0.3845012,-0.48705 0.6107806,-0.70722 0.4525692,-0.44034 0.9699557,-0.83789 1.5430248,-1.12512 0.2865294,-0.14361 0.589919,-0.25403 0.9000981,-0.35361 -0.2635489,0.10309 -0.5006707,0.24305 -0.7393663,0.38576 -0.0072,0.004 -0.024586,-0.005 -0.032095,0 -0.032815,0.0199 -0.064087,0.0437 -0.096388,0.0643 -0.1238534,0.0789 -0.2376464,0.1682 -0.3536098,0.25717 -0.1092153,0.0831 -0.2193976,0.16573 -0.3214635,0.25717 -0.1830336,0.16606 -0.3574263,0.3553 -0.5143416,0.54649 -0.1106657,0.134 -0.2246541,0.2729 -0.3214635,0.4179 -0.02582,0.0395 -0.039604,0.0884 -0.064293,0.12859 -0.066659,0.10598 -0.1339654,0.21038 -0.1928781,0.32146 -0.1039073,0.2003 -0.2115795,0.42762 -0.2893171,0.64293 -0.00823,0.0224 -0.024277,0.0418 -0.032095,0.0643 -0.032712,0.0945 -0.036827,0.19219 -0.064293,0.28932 -0.031169,0.10968 -0.072419,0.20885 -0.096388,0.32146 -0.074991,0.35131 -0.1285854,0.71824 -0.1285854,1.09298 v 2.05736 69.95038 2.0574 c 0,2.8616 2.2817736,5.1434 5.1434164,5.1434 h 2.057366 69.950455 2.057367 c 2.861642,0 5.143416,-2.2818 5.143416,-5.1434 v -2.0574 -69.95038 -2.05736 c 0,-0.37474 -0.0536,-0.74167 -0.128586,-1.09298 -0.04547,-0.21282 -0.09094,-0.40907 -0.160732,-0.61078 -0.0082,-0.0225 -0.02397,-0.0419 -0.03209,-0.0643 -0.0645,-0.17873 -0.14235,-0.37799 -0.225025,-0.54649 -0.04279,-0.0852 -0.08127,-0.17483 -0.128585,-0.25717 -0.05617,-0.1 -0.130406,-0.19375 -0.192878,-0.28932 -0.0968,-0.145 -0.210798,-0.2839 -0.321464,-0.4179 -0.147276,-0.17945 -0.311835,-0.35695 -0.482195,-0.51434 -0.01152,-0.0105 -0.02057,-0.0217 -0.03209,-0.0321 -0.14236,-0.12916 -0.293267,-0.24116 -0.450049,-0.35361 -0.105512,-0.0752 -0.210181,-0.15776 -0.321463,-0.22502 -0.0072,-0.005 -0.02448,0.004 -0.03209,0 -0.238696,-0.14271 -0.475818,-0.28266 -0.739366,-0.38576 0.310178,0.0996 0.613558,0.21 0.900097,0.35361 0.573069,0.28723 1.090456,0.68479 1.543025,1.12512 0.22628,0.22017 0.421112,0.45455 0.610781,0.70722 0.189668,0.25269 0.365604,0.52231 0.514341,0.80366 0.144139,0.27265 0.284051,0.53978 0.385757,0.83581 0.0107,0.0317 0.02191,0.0645 0.03209,0.0964 0.0931,0.28607 0.142782,0.59602 0.192879,0.9001 0.0539,0.32718 0.09639,0.65222 0.09639,0.99654 v 2.05737 69.95038 2.0574 c 0,3.4193 -2.752756,6.1721 -6.172099,6.1721 z" />
    <path
       style="opacity:0.24100001;fill:#0f0f0f;fill-opacity:1;fill-rule:nonzero;stroke:none;stroke-width:1.02868319"
       id="path3709"
       inkscape:connector-curvature="0"
       d="m 13.116622,965.27222 c -2.279562,0 -4.1147324,1.83517 -4.1147324,4.11473 v 69.95045 c 0,2.2796 1.8351704,4.1148 4.1147324,4.1148 h 69.950456 c 2.279561,0 4.114732,-1.8352 4.114732,-4.1148 v -69.95045 c 0,-2.27956 -1.835171,-4.11473 -4.114732,-4.11473 z m 0,2.05737 h 69.950456 c 1.173007,0 2.057366,0.88436 2.057366,2.05736 v 69.95045 c 0,1.173 -0.884359,2.0574 -2.057366,2.0574 H 13.116622 c -1.173017,0 -2.057366,-0.8844 -2.057366,-2.0574 v -69.95045 c 0,-1.173 0.884349,-2.05736 2.057366,-2.05736 z" />
    <path
       id="path5632"
       d="m 57.153334,1003.6998 c 3.100751,9.5893 9.025766,20.2277 21.357465,18.4447 -0.815426,-8.0206 -4.145128,-16.0959 -8.848687,-22.57578 -0.991519,-1.36595 -3.037387,-1.97154 -3.883647,-3.16103 z"
       style="opacity:0.2;stroke-width:1.08967137"
       inkscape:connector-curvature="0" />
    <path
       id="path5634"
       d="m 52.317703,974.39622 c 7.326927,0.10801 21.997594,12.06895 23.81614,26.45248 0.523668,4.1419 -0.01386,8.552 -1.370169,12.6721 -0.749569,12.9298 -17.728016,21.1901 -28.331948,21.8908 -12.972839,0.3056 -25.088909,-10.7316 -27.469923,-13.6941 -4.354545,-6.44 1.808848,-20.3226 7.307567,-28.40705 6.034384,-8.87203 17.283409,-15.33213 26.048333,-18.91423 z"
       style="opacity:0.2;stroke-width:1.08967137"
       inkscape:connector-curvature="0" />
    <path
       id="path5636"
       d="m 57.153334,1002.6101 c 3.100751,9.5894 9.025766,20.2277 21.357465,18.4447 -0.815426,-8.0205 -4.145128,-16.0959 -8.848687,-22.57575 -0.991519,-1.36596 -3.037387,-1.97154 -3.883647,-3.16103 z"
       style="fill:#653578;stroke-width:1.08967137"
       inkscape:connector-curvature="0" />
    <path
       id="path5638"
       d="m 52.317703,973.30655 c 7.326927,0.10801 21.997594,12.06895 23.81614,26.45251 0.523668,4.14184 -0.01386,8.55194 -1.370169,12.67204 -0.749569,12.9298 -17.728016,21.1901 -28.331948,21.8908 -12.972839,0.3057 -25.088909,-10.7316 -27.469923,-13.694 -4.354545,-6.4401 1.808848,-20.3227 7.307567,-28.40712 6.034384,-8.87203 17.283409,-15.33213 26.048333,-18.91423 z"
       style="fill:#7d329a;stroke-width:1.08967137"
       inkscape:connector-curvature="0" />
    <path
       id="path5640"
       d="m 52.318249,973.30655 c 7.326927,0.10801 21.996734,12.06864 23.815279,26.45219 0.155354,1.22876 0.208139,2.48226 0.183031,3.74366 -0.01827,-0.8927 -0.07252,-1.7799 -0.183031,-2.654 -1.818545,-14.38354 -16.488352,-26.34417 -23.815279,-26.45218 -8.764924,3.5821 -20.013444,10.04185 -26.047829,18.91388 -4.057679,5.96578 -8.465555,15.0826 -8.753551,22.0424 -0.174892,-7.0721 4.479215,-16.84775 8.753551,-23.13207 6.034385,-8.87203 17.282905,-15.33178 26.047829,-18.91388 z"
       style="opacity:0.1;fill:#ffffff;stroke-width:1.08967137"
       inkscape:connector-curvature="0" />
    <ellipse
       id="ellipse5642"
       transform="matrix(-0.67816244,-0.73491204,-0.7242635,0.6895233,0,0)"
       ry="13.349565"
       rx="10.44668"
       cy="643.27209"
       cx="-778.66913"
       style="fill:#fcf8fd;stroke-width:1.08967137" />
    <path
       id="path5644"
       d="m 34.108564,991.83096 c -9.669953,3.16405 -20.397792,9.21004 -18.599799,21.79344 8.087996,-0.8321 16.231285,-4.2298 22.765604,-9.0293 1.377441,-1.0118 1.988112,-3.0994 3.187603,-3.9629 z"
       style="opacity:0.2;stroke-width:1.08967137"
       inkscape:connector-curvature="0" />
    <path
       id="path5646"
       d="m 34.108564,990.74129 c -9.669953,3.16404 -20.397792,9.21001 -18.599799,21.79341 8.087996,-0.8321 16.231285,-4.2297 22.765604,-9.0293 1.377441,-1.0118 1.988112,-3.0994 3.187603,-3.96292 z"
       style="fill:url(#linearGradient4652);stroke-width:1.08967137"
       inkscape:connector-curvature="0" />
    <path
       id="path5648"
       d="m 56.717371,1002.728 c -1.514235,6.5746 11.544487,13.355 18.096113,10.7219 3.153475,-1.2673 3.690851,-6.0926 3.557998,-9.8677 -0.133916,-3.3438 0.201513,-4.36194 -3.146007,-4.68104 -6.339813,-0.58734 -17.842722,0.93776 -18.508104,3.82684 z"
       style="opacity:0.2;stroke-width:1.08967137"
       inkscape:connector-curvature="0" />
    <path
       id="path5650"
       d="m 56.838512,1001.2308 c -1.514235,6.5746 11.544487,13.355 18.096113,10.7219 3.153475,-1.2673 3.690851,-6.0926 3.557998,-9.8677 -0.133916,-3.34381 0.201513,-4.36195 -3.146007,-4.68105 -6.339813,-0.58734 -17.842722,0.93776 -18.508104,3.82685 z"
       style="fill:#ffc102;stroke-width:1.08967137"
       inkscape:connector-curvature="0" />
    <circle
       id="circle5652"
       r="6.5380282"
       cy="994.01031"
       cx="74.152115"
       style="opacity:0.2;stroke-width:1.08967137" />
    <circle
       id="circle5654"
       r="9.8070431"
       cy="992.92065"
       cx="59.986385"
       style="opacity:0.2;stroke-width:1.08967137" />
    <circle
       id="circle5656"
       r="6.5380282"
       cy="992.92065"
       cx="74.152115"
       style="fill:#ffffff;stroke-width:1.08967137" />
    <circle
       id="circle5658"
       r="9.8070431"
       cy="991.83093"
       cx="59.986385"
       style="fill:#ffffff;stroke-width:1.08967137" />
    <circle
       id="circle5660"
       r="4.3586855"
       cy="992.92065"
       cx="63.255402"
       style="fill:#3f3f3f;stroke-width:1.08967137" />
    <circle
       id="circle5662"
       r="3.2690141"
       cy="992.92065"
       cx="75.241783"
       style="fill:#3f3f3f;stroke-width:1.08967137" />
    <path
       d="m 10.967405,961.203 c -3.4193433,0 -6.1720995,2.75275 -6.1720995,6.1721 v 2.05736 69.95054 2.0574 c 0,0.3443 0.042485,0.6693 0.096388,0.9964 0.050097,0.3041 0.099782,0.6142 0.1928781,0.9001 0.010287,0.031 0.0215,0.066 0.032095,0.097 0.1017368,0.2961 0.2416171,0.5632 0.3857562,0.8358 0.1487373,0.2815 0.324673,0.5511 0.5143416,0.8038 0.1896686,0.2526 0.3845012,0.487 0.6107806,0.7072 0.4525692,0.4404 0.9699557,0.8378 1.5430248,1.125 0.2865294,0.1438 0.589919,0.2541 0.9000981,0.3537 -0.2635489,-0.1031 -0.5006707,-0.2431 -0.7393663,-0.3858 -0.0072,0 -0.024586,0 -0.032095,0 -0.032815,-0.02 -0.064087,-0.044 -0.096388,-0.064 -0.1238534,-0.079 -0.2376464,-0.1682 -0.3536098,-0.2572 -0.1092153,-0.083 -0.2193976,-0.1657 -0.3214635,-0.2572 -0.1830336,-0.166 -0.3574263,-0.3553 -0.5143416,-0.5465 -0.1106657,-0.1339 -0.2246541,-0.2728 -0.3214635,-0.4179 -0.02582,-0.039 -0.039604,-0.088 -0.064293,-0.1285 -0.066659,-0.106 -0.1339654,-0.2104 -0.1928781,-0.3215 -0.1039073,-0.2003 -0.2115795,-0.4276 -0.2893171,-0.6429 -0.00823,-0.023 -0.024277,-0.042 -0.032095,-0.064 -0.032712,-0.095 -0.036827,-0.1922 -0.064293,-0.2894 -0.031169,-0.1096 -0.072419,-0.2088 -0.096388,-0.3214 -0.074991,-0.3513 -0.1285854,-0.7183 -0.1285854,-1.093 v -2.0574 -69.95042 -2.05736 c 0,-2.86159 2.2817736,-5.14342 5.1434164,-5.14342 h 2.057366 69.950455 2.057367 c 2.861642,0 5.143416,2.28183 5.143416,5.14342 v 2.05736 69.95042 2.0574 c 0,0.3747 -0.0536,0.7417 -0.128586,1.093 -0.04547,0.2128 -0.09094,0.4091 -0.160732,0.6108 -0.0082,0.023 -0.02397,0.042 -0.03209,0.064 -0.0645,0.1786 -0.14235,0.3779 -0.225025,0.5464 -0.04279,0.085 -0.08127,0.1749 -0.128585,0.2572 -0.05617,0.1 -0.130406,0.1938 -0.192878,0.2893 -0.0968,0.1451 -0.210798,0.284 -0.321464,0.4179 -0.147276,0.1795 -0.311835,0.3569 -0.482195,0.5143 -0.01152,0.01 -0.02057,0.022 -0.03209,0.032 -0.14236,0.1292 -0.293267,0.2412 -0.450049,0.3537 -0.105512,0.075 -0.210181,0.1578 -0.321463,0.225 -0.0072,0 -0.02448,0 -0.03209,0 -0.238696,0.1427 -0.475818,0.2826 -0.739366,0.3857 0.310178,-0.1 0.613558,-0.2099 0.900097,-0.3535 0.573069,-0.2873 1.090456,-0.6848 1.543025,-1.1252 0.22628,-0.2202 0.421112,-0.4545 0.610781,-0.7072 0.189668,-0.2527 0.365604,-0.5223 0.514341,-0.8036 0.144139,-0.2728 0.284051,-0.5398 0.385757,-0.8359 0.0107,-0.032 0.02191,-0.065 0.03209,-0.097 0.0931,-0.2861 0.142782,-0.5961 0.192879,-0.9001 0.0539,-0.3273 0.09639,-0.6522 0.09639,-0.9966 v -2.0574 -69.95043 -2.05736 c 0,-3.41935 -2.752756,-6.1721 -6.172099,-6.1721 z"
       inkscape:connector-curvature="0"
       id="path5725"
       style="opacity:0.6;fill:url(#radialGradient5727);fill-opacity:1;fill-rule:nonzero;stroke:none;stroke-width:1.02868319" />
    <path
       d="m 4.9722027,967.50636 c 0,-3.41935 2.7527561,-6.1721 6.1720983,-6.1721 h 2.057367 69.950477 2.057366 c 0.344321,0 0.669364,0.0425 0.996537,0.0964 0.304078,0.0501 0.614031,0.0998 0.900097,0.19287 0.03127,0.0103 0.06543,0.0215 0.09639,0.0321 0.296024,0.10174 0.563153,0.24162 0.835805,0.38575 0.281355,0.14874 0.550973,0.32468 0.803659,0.51435 0.252675,0.18967 0.487051,0.3845 0.70722,0.61078 0.440338,0.45257 0.837893,0.96995 1.125122,1.54302 0.143614,0.28653 0.254033,0.58992 0.35361,0.9001 -0.103095,-0.26355 -0.243047,-0.50067 -0.385757,-0.73937 -0.0041,-0.007 0.0051,-0.0246 0,-0.0321 -0.01985,-0.0328 -0.04372,-0.0641 -0.06429,-0.0964 -0.0789,-0.12385 -0.1682,-0.23765 -0.257171,-0.35361 -0.08312,-0.10921 -0.165731,-0.2194 -0.257171,-0.32146 -0.16606,-0.18304 -0.355297,-0.35743 -0.546488,-0.51434 -0.133996,-0.11067 -0.272899,-0.22466 -0.417902,-0.32147 -0.0395,-0.0258 -0.08836,-0.0396 -0.128586,-0.0643 -0.105985,-0.0667 -0.210386,-0.13397 -0.321463,-0.19288 -0.200295,-0.10391 -0.427624,-0.21158 -0.642927,-0.28932 -0.02242,-0.008 -0.04176,-0.0243 -0.06429,-0.0321 -0.09454,-0.0327 -0.192189,-0.0368 -0.289317,-0.0643 -0.109678,-0.0312 -0.208854,-0.0724 -0.321463,-0.0964 -0.351306,-0.075 -0.718237,-0.12859 -1.092976,-0.12859 H 84.180776 14.230351 12.172984 c -2.8615903,0 -5.143415,2.28178 -5.143415,5.14342 v 2.05737 69.95052 2.0573 c 0,2.8616 2.2818247,5.1433 5.143415,5.1433 h 2.057367 69.950425 2.057367 c 0.374739,0 0.74167,-0.053 1.092976,-0.1286 0.212824,-0.045 0.409066,-0.091 0.61078,-0.1605 0.02253,-0.01 0.04187,-0.024 0.06429,-0.032 0.178723,-0.065 0.377989,-0.1424 0.546488,-0.2252 0.08518,-0.043 0.174824,-0.081 0.257171,-0.1286 0.09999,-0.057 0.193752,-0.1304 0.289317,-0.1929 0.145003,-0.097 0.283906,-0.2107 0.417902,-0.3214 0.179454,-0.1473 0.356953,-0.3118 0.514342,-0.4821 0.01049,-0.011 0.0217,-0.021 0.03209,-0.032 0.129161,-0.1423 0.241164,-0.2932 0.35361,-0.45 0.0752,-0.1055 0.157758,-0.2103 0.225024,-0.3215 0.0051,-0.01 -0.0041,-0.025 0,-0.032 0.142709,-0.2387 0.282662,-0.4758 0.385756,-0.7394 -0.09958,0.3102 -0.209995,0.6136 -0.35361,0.9001 -0.287229,0.5731 -0.684784,1.0905 -1.125122,1.543 -0.220169,0.2264 -0.454544,0.4212 -0.70722,0.6109 -0.252685,0.1895 -0.522303,0.3656 -0.803658,0.5143 -0.272653,0.1441 -0.539781,0.284 -0.835805,0.3858 -0.03168,0.01 -0.0645,0.022 -0.09639,0.032 -0.286066,0.094 -0.596019,0.1427 -0.900098,0.1928 -0.327172,0.053 -0.652216,0.097 -0.996537,0.097 H 83.152093 13.201668 11.144301 c -3.4193422,0 -6.1720983,-2.7527 -6.1720983,-6.1721 z"
       inkscape:connector-curvature="0"
       id="path5729"
       style="opacity:0.65799997;fill:url(#radialGradient5731);fill-opacity:1;fill-rule:nonzero;stroke:none;stroke-width:1.02868319" />
    <path
       style="opacity:0.69499966;fill:url(#radialGradient5735);fill-opacity:1;fill-rule:nonzero;stroke:none;stroke-width:1.02868319"
       id="path5733"
       inkscape:connector-curvature="0"
       d="m 91.027949,967.50636 c 0,-3.41935 -2.752757,-6.1721 -6.172099,-6.1721 H 82.798483 12.848006 10.79064 c -0.344321,0 -0.669364,0.0425 -0.9965367,0.0964 -0.3040788,0.0501 -0.6140313,0.0998 -0.9000974,0.19287 -0.031272,0.0103 -0.065424,0.0215 -0.096388,0.0321 -0.2960242,0.10174 -0.5631526,0.24162 -0.8358051,0.38575 -0.2813552,0.14874 -0.550973,0.32468 -0.8036588,0.51435 -0.2526754,0.18967 -0.4870506,0.3845 -0.7072196,0.61078 -0.4403382,0.45257 -0.8378934,0.96995 -1.1251223,1.54302 -0.1436144,0.28653 -0.2540333,0.58992 -0.3536098,0.9001 0.1030946,-0.26355 0.243047,-0.50067 0.3857562,-0.73937 0.00411,-0.007 -0.00514,-0.0246 0,-0.0321 0.019854,-0.0328 0.043719,-0.0641 0.064293,-0.0964 0.0789,-0.12385 0.1682,-0.23765 0.2571708,-0.35361 0.083118,-0.10921 0.1657311,-0.2194 0.2571708,-0.32146 0.1660603,-0.18304 0.3552969,-0.35743 0.5464879,-0.51434 0.1339963,-0.11067 0.2728994,-0.22466 0.4179026,-0.32147 0.039501,-0.0258 0.088364,-0.0396 0.1285853,-0.0643 0.1059853,-0.0667 0.2103863,-0.13397 0.3214635,-0.19288 0.2002949,-0.10391 0.4276236,-0.21158 0.642927,-0.28932 0.022425,-0.008 0.041765,-0.0243 0.064293,-0.0321 0.094536,-0.0327 0.1921889,-0.0368 0.2893172,-0.0643 0.1096782,-0.0312 0.2088535,-0.0724 0.3214635,-0.0964 0.3513052,-0.075 0.7182364,-0.12859 1.0929754,-0.12859 H 11.819375 81.7698 83.827166 c 2.861591,0 5.143416,2.28178 5.143416,5.14342 v 2.05737 69.95052 2.0573 c 0,2.8616 -2.281825,5.1433 -5.143416,5.1433 H 81.7698 11.819375 9.7620083 c -0.374739,0 -0.7416702,-0.053 -1.0929754,-0.1286 -0.2128243,-0.045 -0.4090662,-0.091 -0.6107807,-0.1605 -0.022528,-0.01 -0.041867,-0.024 -0.064293,-0.032 -0.1787234,-0.065 -0.3779896,-0.1424 -0.5464879,-0.2252 -0.085175,-0.043 -0.1748247,-0.081 -0.2571708,-0.1286 -0.099988,-0.057 -0.1937525,-0.1304 -0.2893171,-0.1929 -0.1450032,-0.097 -0.2839063,-0.2107 -0.4179026,-0.3214 -0.1794538,-0.1473 -0.3569531,-0.3118 -0.5143416,-0.4821 -0.010493,-0.011 -0.021705,-0.021 -0.032095,-0.032 -0.1291615,-0.1423 -0.2411645,-0.2932 -0.3536098,-0.45 -0.075197,-0.1055 -0.1577589,-0.2103 -0.2250245,-0.3215 -0.00514,-0.01 0.00411,-0.025 0,-0.032 -0.1427092,-0.2387 -0.2826616,-0.4758 -0.3857562,-0.7394 0.099577,0.3102 0.2099954,0.6136 0.3536099,0.9001 0.2872289,0.5731 0.6847841,1.0905 1.1251222,1.543 0.2201691,0.2264 0.4545442,0.4212 0.7072197,0.6109 0.2526857,0.1895 0.5223036,0.3656 0.8036587,0.5143 0.2726525,0.1441 0.5397809,0.284 0.8358051,0.3858 0.031683,0.01 0.064498,0.022 0.096388,0.032 0.2860661,0.094 0.5960186,0.1427 0.9000974,0.1928 0.3271723,0.053 0.6522163,0.097 0.9965363,0.097 h 2.057367 69.950425 2.057367 c 3.419342,0 6.172099,-2.7527 6.172099,-6.1721 z" />
  </g>
</svg>
