<?xml version="1.0" encoding="UTF-8" standalone="no"?>
<!-- Created with Inkscape (http://www.inkscape.org/) -->

<svg
   xmlns:dc="http://purl.org/dc/elements/1.1/"
   xmlns:cc="http://creativecommons.org/ns#"
   xmlns:rdf="http://www.w3.org/1999/02/22-rdf-syntax-ns#"
   xmlns:svg="http://www.w3.org/2000/svg"
   xmlns="http://www.w3.org/2000/svg"
   xmlns:xlink="http://www.w3.org/1999/xlink"
   xmlns:sodipodi="http://sodipodi.sourceforge.net/DTD/sodipodi-0.dtd"
   xmlns:inkscape="http://www.inkscape.org/namespaces/inkscape"
   width="48"
   height="48"
   id="svg4230"
   version="1.1"
   inkscape:version="0.92.2 2405546, 2018-03-11"
   sodipodi:docname="ICONA.svg"
   inkscape:export-filename="/home/uri/printer.png"
   inkscape:export-xdpi="960"
   inkscape:export-ydpi="960">
  <defs
     id="defs4232">
    <linearGradient
       inkscape:collect="always"
       id="linearGradient3906">
      <stop
         style="stop-color:#ffffff;stop-opacity:1;"
         offset="0"
         id="stop3908" />
      <stop
         style="stop-color:#ffffff;stop-opacity:0;"
         offset="1"
         id="stop3910" />
    </linearGradient>
    <linearGradient
       id="linearGradient3858">
      <stop
         style="stop-color:#424f66;stop-opacity:1;"
         offset="0"
         id="stop3860" />
      <stop
         style="stop-color:#3b465e;stop-opacity:1;"
         offset="1"
         id="stop3862" />
    </linearGradient>
    <linearGradient
       inkscape:collect="always"
       id="linearGradient6480">
      <stop
         style="stop-color:#2ecc71;stop-opacity:1;"
         offset="0"
         id="stop6482" />
      <stop
         style="stop-color:#2ecc71;stop-opacity:0;"
         offset="1"
         id="stop6484" />
    </linearGradient>
    <linearGradient
       inkscape:collect="always"
       id="linearGradient6466">
      <stop
         style="stop-color:#000000;stop-opacity:1;"
         offset="0"
         id="stop6468" />
      <stop
         style="stop-color:#000000;stop-opacity:0;"
         offset="1"
         id="stop6470" />
    </linearGradient>
    <linearGradient
       inkscape:collect="always"
       id="linearGradient4317">
      <stop
         style="stop-color:#000000;stop-opacity:1;"
         offset="0"
         id="stop4319" />
      <stop
         style="stop-color:#000000;stop-opacity:0;"
         offset="1"
         id="stop4321" />
    </linearGradient>
    <linearGradient
       inkscape:collect="always"
       id="linearGradient4295">
      <stop
         style="stop-color:#000000;stop-opacity:1;"
         offset="0"
         id="stop4297" />
      <stop
         style="stop-color:#000000;stop-opacity:0;"
         offset="1"
         id="stop4299" />
    </linearGradient>
    <linearGradient
       id="linearGradient4243">
      <stop
         style="stop-color:#000000;stop-opacity:1;"
         offset="0"
         id="stop4245" />
      <stop
         style="stop-color:#000000;stop-opacity:0;"
         offset="1"
         id="stop4247" />
    </linearGradient>
    <linearGradient
       id="linearGradient3068">
      <stop
         style="stop-color:#f1efee;stop-opacity:1;"
         offset="0"
         id="stop3070" />
      <stop
         style="stop-color:#f6f6fa;stop-opacity:1;"
         offset="1"
         id="stop3072" />
    </linearGradient>
    <linearGradient
       inkscape:collect="always"
       xlink:href="#linearGradient4295"
       id="linearGradient4301"
       x1="21"
       y1="1035.3622"
       x2="21"
       y2="1041.3622"
       gradientUnits="userSpaceOnUse" />
    <linearGradient
       inkscape:collect="always"
       xlink:href="#linearGradient4317"
       id="linearGradient4323"
       x1="25"
       y1="23"
       x2="25"
       y2="33"
       gradientUnits="userSpaceOnUse" />
    <linearGradient
       inkscape:collect="always"
       xlink:href="#linearGradient4524-8"
       id="linearGradient4344"
       x1="24"
       y1="43"
       x2="24"
       y2="16"
       gradientUnits="userSpaceOnUse" />
    <linearGradient
       inkscape:collect="always"
       xlink:href="#linearGradient4524-8"
       id="linearGradient4555"
       x1="33"
       y1="1025.3622"
       x2="33"
       y2="1015.3622"
       gradientUnits="userSpaceOnUse" />
    <linearGradient
       id="linearGradient4524-8">
      <stop
         id="stop4526-1"
         offset="0"
         style="stop-color:#565656;stop-opacity:1;" />
      <stop
         id="stop4528-7"
         offset="1"
         style="stop-color:#6a6a6a;stop-opacity:1;" />
    </linearGradient>
    <linearGradient
       id="linearGradient4524">
      <stop
         id="stop4526"
         offset="0"
         style="stop-color:#1b96d4;stop-opacity:1;" />
      <stop
         id="stop4528"
         offset="1"
         style="stop-color:#27b7ff;stop-opacity:1;" />
    </linearGradient>
    <linearGradient
       inkscape:collect="always"
       xlink:href="#linearGradient4524"
       id="linearGradient6420"
       x1="32"
       y1="1016.3622"
       x2="32"
       y2="1023.3622"
       gradientUnits="userSpaceOnUse" />
    <linearGradient
       inkscape:collect="always"
       xlink:href="#linearGradient6466"
       id="linearGradient6472"
       x1="26"
       y1="43"
       x2="26"
       y2="24"
       gradientUnits="userSpaceOnUse" />
    <radialGradient
       inkscape:collect="always"
       xlink:href="#linearGradient6480"
       id="radialGradient6486"
       cx="10"
       cy="1027.3622"
       fx="10"
       fy="1027.3622"
       r="2"
       gradientUnits="userSpaceOnUse" />
    <linearGradient
       inkscape:collect="always"
       xlink:href="#linearGradient3858"
       id="linearGradient3864"
       x1="6"
       y1="1044.3622"
       x2="43"
       y2="1009.3622"
       gradientUnits="userSpaceOnUse" />
    <linearGradient
       inkscape:collect="always"
       xlink:href="#linearGradient3858"
       id="linearGradient3887"
       gradientUnits="userSpaceOnUse"
       x1="6"
       y1="1044.3622"
       x2="43"
       y2="1009.3622"
       gradientTransform="translate(0,-1004.3622)" />
    <linearGradient
       inkscape:collect="always"
       xlink:href="#linearGradient3906"
       id="linearGradient3912"
       x1="8"
       y1="6"
       x2="20"
       y2="20"
       gradientUnits="userSpaceOnUse" />
  </defs>
  <sodipodi:namedview
     id="base"
     pagecolor="#ffffff"
     bordercolor="#666666"
     borderopacity="1.0"
     inkscape:pageopacity="0.0"
     inkscape:pageshadow="2"
     inkscape:zoom="10.974887"
     inkscape:cx="11.696773"
     inkscape:cy="24.526726"
     inkscape:document-units="px"
     inkscape:current-layer="g911"
     showgrid="false"
     inkscape:showpageshadow="false"
     borderlayer="true"
     inkscape:window-width="1920"
     inkscape:window-height="994"
     inkscape:window-x="0"
     inkscape:window-y="21"
     inkscape:window-maximized="1"
     showguides="false"
     inkscape:guide-bbox="true"
     inkscape:snap-global="false">
    <inkscape:grid
       type="xygrid"
       id="grid4162" />
    <sodipodi:guide
       position="1.0000013,47.000017"
       orientation="46,0"
       id="guide4163"
       inkscape:locked="false" />
    <sodipodi:guide
       position="1.0000013,1.0000174"
       orientation="0,45.999999"
       id="guide4165"
       inkscape:locked="false" />
    <sodipodi:guide
       position="47,1.0000174"
       orientation="-46,0"
       id="guide4167"
       inkscape:locked="false" />
    <sodipodi:guide
       position="47,47.000017"
       orientation="0,-45.999999"
       id="guide4169"
       inkscape:locked="false" />
    <sodipodi:guide
       position="2.0000007,46.000017"
       orientation="44,0"
       id="guide4173"
       inkscape:locked="false" />
    <sodipodi:guide
       position="2.0000007,2.0000174"
       orientation="0,43.999999"
       id="guide4175"
       inkscape:locked="false" />
    <sodipodi:guide
       position="46,2.0000174"
       orientation="-44,0"
       id="guide4177"
       inkscape:locked="false" />
    <sodipodi:guide
       position="46,46.000017"
       orientation="0,-43.999999"
       id="guide4179"
       inkscape:locked="false" />
    <sodipodi:guide
       position="3,45.000017"
       orientation="42,0"
       id="guide4183"
       inkscape:locked="false" />
    <sodipodi:guide
       position="45,3.0000174"
       orientation="-42,0"
       id="guide4187"
       inkscape:locked="false" />
    <sodipodi:guide
       position="45,45.000017"
       orientation="0,-42"
       id="guide4189"
       inkscape:locked="false" />
    <sodipodi:guide
       position="3,45.000017"
       orientation="42,0"
       id="guide4193"
       inkscape:locked="false" />
    <sodipodi:guide
       position="3,3.0000174"
       orientation="0,42"
       id="guide4195"
       inkscape:locked="false" />
    <sodipodi:guide
       position="45,3.0000174"
       orientation="-42,0"
       id="guide4197"
       inkscape:locked="false" />
    <sodipodi:guide
       position="45,45.000017"
       orientation="0,-42"
       id="guide4199"
       inkscape:locked="false" />
    <sodipodi:guide
       position="3,10.000017"
       orientation="7,0"
       id="guide4203"
       inkscape:locked="false" />
    <sodipodi:guide
       position="3,3.0000174"
       orientation="0,42"
       id="guide4205"
       inkscape:locked="false" />
    <sodipodi:guide
       position="45,3.0000174"
       orientation="-7,0"
       id="guide4207"
       inkscape:locked="false" />
    <sodipodi:guide
       position="45,10.000017"
       orientation="0,-42"
       id="guide4209"
       inkscape:locked="false" />
  </sodipodi:namedview>
  <metadata
     id="metadata4235">
    <rdf:RDF>
      <cc:Work
         rdf:about="">
        <dc:format>image/svg+xml</dc:format>
        <dc:type
           rdf:resource="http://purl.org/dc/dcmitype/StillImage" />
        <dc:title />
        <dc:date>2019</dc:date>
        <dc:creator>
          <cc:Agent>
            <dc:title>Cristian Pozzessere  &lt; ilnanny &gt;</dc:title>
          </cc:Agent>
        </dc:creator>
        <dc:description>Playing with Inkscape on Gnu/Linux O. S.</dc:description>
        <dc:contributor>
          <cc:Agent>
            <dc:title>In the night, alone like a dog.</dc:title>
          </cc:Agent>
        </dc:contributor>
        <cc:license
           rdf:resource="http://creativecommons.org/licenses/by-sa/4.0/" />
      </cc:Work>
      <cc:License
         rdf:about="http://creativecommons.org/licenses/by-sa/4.0/">
        <cc:permits
           rdf:resource="http://creativecommons.org/ns#Reproduction" />
        <cc:permits
           rdf:resource="http://creativecommons.org/ns#Distribution" />
        <cc:requires
           rdf:resource="http://creativecommons.org/ns#Notice" />
        <cc:requires
           rdf:resource="http://creativecommons.org/ns#Attribution" />
        <cc:permits
           rdf:resource="http://creativecommons.org/ns#DerivativeWorks" />
        <cc:requires
           rdf:resource="http://creativecommons.org/ns#ShareAlike" />
      </cc:License>
    </rdf:RDF>
  </metadata>
  <g
     inkscape:groupmode="layer"
     id="layer3"
     inkscape:label="Fake blur shadow"
     style="display:inline" />
  <g
     inkscape:groupmode="layer"
     id="layer6"
     inkscape:label="Blob"
     style="display:inline" />
  <g
     inkscape:groupmode="layer"
     id="layer2"
     inkscape:label="Baseplate"
     style="display:inline" />
  <g
     inkscape:label="Symbol"
     inkscape:groupmode="layer"
     id="layer1"
     transform="translate(0,-1004.3622)"
     style="display:inline">
    <g
       id="g911"
       transform="matrix(0.98958333,0,0,0.98958333,-0.49218742,11.454297)">
      <rect
         rx="9.9988909"
         ry="9.9988909"
         y="1004.886"
         x="2.0240242"
         height="45.45195"
         width="45.45195"
         id="rect3038-4"
         style="display:inline;opacity:0.23999999;fill:#000000;fill-opacity:1;stroke:none;stroke-width:1.02139211" />
      <rect
         style="display:inline;opacity:0.06000001;fill:#000000;fill-opacity:1;stroke:none;stroke-width:1.06729746"
         id="rect919"
         width="47.494736"
         height="47.494736"
         x="1.0026321"
         y="1003.8648"
         ry="9.9988909"
         rx="9.9988909" />
      <rect
         rx="9.9988909"
         ry="9.9988909"
         y="1004.3755"
         x="1.5133282"
         height="46.473343"
         width="46.473343"
         id="rect962"
         style="display:inline;opacity:0.07000002;fill:#000000;fill-opacity:1;stroke:none;stroke-width:1.0443449" />
      <rect
         rx="9.9988909"
         ry="9.9988909"
         y="1005.1412"
         x="2.279372"
         height="44.941257"
         width="44.941257"
         id="rect3038"
         style="display:inline;fill:#bf8539;fill-opacity:1;stroke:none;stroke-width:1.02139211" />
      <rect
         rx="8.9990025"
         ry="8.9990025"
         y="1007.291"
         x="4.0344505"
         height="38.323792"
         width="41.431099"
         id="rect4261"
         style="color:#000000;text-decoration:none;text-decoration-line:none;display:inline;overflow:visible;visibility:visible;fill:#fff9f9;fill-opacity:0.35094341;fill-rule:nonzero;stroke:none;stroke-width:1.03577721;enable-background:accumulate" />
      <path
         style="clip-rule:evenodd;fill:none;fill-opacity:1;fill-rule:evenodd;stroke:#000000;stroke-width:0.70978016;stroke-miterlimit:4;stroke-dasharray:none;stroke-opacity:0.16226418;paint-order:stroke fill markers;image-rendering:optimizeQuality;shape-rendering:geometricPrecision;text-rendering:geometricPrecision"
         inkscape:connector-curvature="0"
         id="path4602"
         d="m 21.161886,1013.3518 c 0.70651,-0.5929 0.820887,-1.3698 1.727267,-2.1107 1.142255,-0.9348 2.591835,-0.7898 3.609916,-2.6853 -0.491494,2.7335 -1.831696,2.6242 -2.73328,3.541 1.82084,-1.1316 3.37995,-0.5846 4.264061,-3.7301 0.144825,0.7422 0.201686,1.4693 -0.05202,2.1204 -0.399736,1.0261 -1.166642,1.2409 -1.965261,1.8336 1.326064,-0.728 2.222699,0.2117 3.419791,-1.2555 -0.607283,1.5584 -2.068074,2.3062 -3.484983,2.6392 -1.940165,0.4553 -2.551235,-1.0963 -4.785499,-0.3526 z m -3.144782,16.9615 c -0.04594,-0.5009 -0.146443,-0.8116 -0.333283,-1.0946 -0.208252,-0.3143 -0.68303,-0.5416 -1.050551,-0.9498 -0.216433,-0.1484 -0.438773,-0.1325 -0.666062,0.048 -0.158206,0.3646 -0.381256,0.3679 -0.613543,0.3199 -0.160684,0.2764 -0.122003,0.6215 0.116698,1.0354 -0.5227,-0.2561 -0.944505,-0.583 -0.657528,-1.4062 -0.230015,-0.675 0.120437,-1.1194 0.687271,-1.1689 0.371762,-0.033 0.674647,0.1744 1.041258,0.2581 0.02532,-0.2715 0.0511,-0.5435 0.07641,-0.8143 -0.248145,-0.2464 -0.34631,-0.5272 -0.175478,-0.8709 -0.22623,-0.3818 -0.552947,-0.3413 -0.894058,-0.2405 0.314397,-0.4656 0.667828,-0.8189 1.292231,-0.3857 0.410797,-0.033 0.571481,0.2096 0.697066,0.4919 0.137707,0.5902 0.09639,1.0791 0.02996,1.5538 0.04114,0.184 0.101348,0.3327 0.217341,0.3906 0.193808,-0.1593 0.316367,-0.3838 0.334192,-0.5807 0.06788,-0.2829 0.161389,-0.5504 0.434128,-0.7178 0.08209,-0.4067 -0.200223,-0.7042 -0.648641,-0.9531 0.464981,-0.1262 0.876686,0.034 1.234715,0.4794 0.12185,0.2943 0.172094,0.597 0.06327,0.9194 0.251884,0.3951 0.171391,0.7603 -0.242083,1.0966 -0.210574,0.091 -0.421705,0.1797 -0.632431,0.2694 0.07892,0.4162 0.158006,0.8322 0.236581,1.2487 l 0.02762,0.1891 c -0.257235,0.2481 -0.462457,0.5614 -0.575065,0.8836 z m 4.801707,-2.6682 c -0.621574,0.6248 -1.307784,1.0518 -2.02803,1.3831 -1.587036,0.7298 -2.318341,1.6768 -2.376414,2.85 0.535679,-0.6032 1.123015,-1.0626 1.823314,-1.2059 -1.800339,2.3418 -1.047519,3.6846 -0.225371,5.0456 -0.899612,-0.5342 -1.697877,-2.2639 -2.49705,-2.474 -0.327072,-0.086 -0.814272,0.099 -1.313794,0.062 -0.245671,0.05 -0.409738,0.2298 -0.491693,0.5418 0.06932,0.4026 -0.101906,0.5742 -0.307278,0.7134 0.02067,0.3361 0.232287,0.5745 0.635056,0.7141 -0.539768,0.1983 -1.038229,0.2654 -1.249661,-0.5909 -0.532496,-0.3486 -0.49523,-0.9589 -0.08178,-1.4275 0.270918,-0.3068 0.614604,-0.3776 0.942182,-0.5906 -0.12291,-0.2297 -0.245822,-0.4594 -0.368581,-0.6894 -0.321921,-0.01 -0.545475,-0.1455 -0.594103,-0.5413 -0.376257,-0.124 -0.60799,0.1552 -0.819473,0.492 -0.0012,-0.5997 0.08708,-1.1412 0.799172,-1.2793 0.300713,-0.3377 0.553151,-0.272 0.79877,-0.1478 0.417059,0.3523 0.641874,0.7627 0.839974,1.1814 0.129175,0.111 0.254004,0.1808 0.374287,0.1375 0.06662,-0.2704 0.04349,-0.5377 -0.0465,-0.7039 -0.09601,-0.2709 -0.164419,-0.5498 -0.04114,-0.8856 -0.150181,-0.3774 -0.525882,-0.3943 -1.003639,-0.2464 0.293745,-0.4517 0.696361,-0.6401 1.208709,-0.5659 0.249002,0.1351 0.447306,0.3323 0.532801,0.6644 0.402767,0.1148 0.532292,0.4593 0.389082,1.0335 -0.115993,0.2297 -0.232137,0.4596 -0.348484,0.6896 0.280059,0.262 0.560117,0.5247 0.840129,0.7868 -0.122003,-0.8794 -0.2738,-1.8187 0.430236,-2.7066 1.289404,-1.6261 2.774081,-1.6824 4.179275,-2.2398 z m 6.910176,13.7387 c -0.688885,1.2447 -1.603294,1.4674 -3.676367,1.5457 0.760139,-0.1443 1.510126,-0.4607 2.239108,-1.1315 0.540325,-0.1115 1.020403,-0.2569 1.437259,-0.4142 z m -3.278548,0.629 c -1.167198,0.7509 -2.797208,0.807 -4.754138,0.3709 0.820536,-0.01 1.833111,-0.1078 2.588453,-0.5013 0.777053,0.1148 1.499977,0.1509 2.165685,0.1304 z m -3.976173,-0.5497 c -1.742063,0.4809 -2.849775,-0.1815 -3.818319,-1.094 0.748021,0.3118 1.520785,0.5038 2.356314,0.3949 0.452105,0.2899 0.944305,0.5209 1.462005,0.6991 z m -1.967231,-1.0614 c -1.996319,-0.1331 -3.254515,-1.4496 -3.809987,-3.1767 0.569512,0.6946 1.113571,1.217 1.958899,1.6945 -0.315507,-0.6497 -0.32798,-1.6028 -0.225925,-2.3304 0.246732,1.7205 1.015606,2.9618 2.077013,3.8126 z m 3.053887,-4.3252 c 0.935111,0.5867 2.254258,0.6198 4.027479,0.6588 2.080899,0.047 2.29415,1.0752 2.147203,1.9202 -0.218605,1.2536 -1.147101,1.5706 -1.974906,1.7704 1.184671,0.1165 2.254208,-0.3703 2.632788,-1.7886 0.363228,-1.36 -0.790994,-2.678 -2.726511,-2.8435 -1.641774,-0.1399 -1.925369,0.4801 -4.106053,0.2827 z m 0.05543,-8.6788 c -0.458214,0.7879 -0.975359,1.4763 -1.647481,2.2825 -0.770289,0.9236 -1.342879,1.5925 -1.462406,2.443 -0.08247,0.5884 0.06948,1.0705 0.372519,1.5338 0.843309,1.2904 2.663944,1.8794 4.026772,1.4599 1.138516,-0.3506 2.377674,-1.4642 4.094285,-1.3419 -0.88022,0.1991 -1.359795,0.5812 -1.509772,1.0928 0.244912,0.01 0.499521,0.014 0.757461,0.044 0.796296,-0.5636 1.692726,-0.7844 2.736258,-0.012 -0.5939,-0.1435 -1.131547,-0.036 -1.423727,0.3253 0.637431,0.2514 1.233299,0.664 1.632333,1.2951 0.77746,0.1742 1.410194,0.6895 1.873001,1.3903 -0.568449,-0.4663 -1.071858,-0.6852 -1.510279,-0.5606 0.02476,0.095 0.04454,0.1899 0.05983,0.2865 0.851742,0.5296 1.186441,1.4838 1.245219,2.4957 -0.272536,-0.6441 -0.671767,-1.2281 -1.264107,-1.4062 -0.08795,0.4729 -0.277885,0.9284 -0.558806,1.3116 0.01318,1.0184 -0.186888,1.6653 -1.049993,2.571 0.343635,-0.62 0.570975,-1.4365 0.456752,-1.9746 -0.08979,0.065 -0.190073,0.1274 -0.284654,0.1815 -2.034596,1.1586 -6.39965,1.1078 -8.174334,0.044 -0.785439,-0.4206 -1.489475,-1.0487 -2.086759,-1.9611 0.836391,0.6295 1.012727,1.441 3.020254,1.7244 0.661417,0.094 0.85846,-0.237 0.327932,-0.6879 -0.335607,-0.2857 -0.698482,-0.3802 -1.047823,-0.4935 0.363935,-0.018 0.811293,-0.1198 1.759535,0.5037 0.464929,0.3059 0.603343,0.6405 1.36313,0.878 0.720093,0.2249 0.89325,-0.1639 0.20522,-0.4438 -0.264505,-0.1082 -0.534061,-0.198 -0.801091,-0.2967 0.298592,-0.083 0.683384,-0.086 1.376713,0.1979 1.421557,0.6352 3.008289,1.054 4.208615,-0.5925 0.87916,-1.2061 0.624754,-2.9595 -1.092871,-3.8034 -1.631622,-0.8017 -3.034898,-0.3704 -4.471955,-0.17 -0.609455,0.1005 -1.218503,0.1291 -1.82811,-0.099 0.315105,0.6072 0.827097,0.9445 1.355857,1.2587 -1.328287,-0.4169 -2.656673,-0.8921 -3.985112,-3.1834 -0.160128,1.0433 -0.0073,1.7872 0.287531,2.3937 -0.720042,-1.0448 -1.102509,-2.1806 -0.8834,-3.4795 0.10029,-0.6222 0.42236,-1.3185 1.068121,-2.1225 -0.701358,-0.1348 -1.278141,0.092 -1.82811,0.3947 0.354189,-0.4879 0.806498,-0.9806 1.95178,-1.5052 1.008283,-0.4703 1.876183,-1.2111 2.731662,-1.9744 z m 0.521589,-0.2725 c -0.08178,0.6454 -0.09816,1.2437 -0.598394,2.1914 0.860779,-0.1592 1.649601,-0.02 2.437211,0.1541 0.834421,0.1839 1.691615,0.1595 2.537296,0.2399 -1.61491,0.4419 -3.961731,-0.017 -5.513568,0.7555 -1.6088,0.8009 -1.716259,2.078 -0.904412,3.1625 0.512651,0.6172 1.602185,0.9692 3.067976,1.0656 -1.178056,0.3177 -2.373937,0.3172 -3.534572,-0.7024 -0.831391,-0.7301 -1.257337,-2.2834 0.583953,-4.0416 0.876838,-0.837 1.454731,-1.755 1.92451,-2.825 z m 4.048132,2.2089 c 1.110035,-0.212 2.154325,-0.6615 3.036112,-1.6958 -0.09994,0.4113 -0.199516,0.8221 -0.299096,1.233 1.144019,-0.8168 1.441703,-2.1421 1.667578,-3.5107 0.389438,0.491 0.836391,0.7766 1.339497,0.8563 -0.683886,1.587 -1.691313,2.5802 -3.02152,2.9801 -0.990455,0.2451 -1.884059,0.2563 -2.722571,0.1371 z m -3.277135,-0.6261 c 1.222442,0.2888 2.590418,0.5764 4.148066,0 0.929204,-0.3441 1.749033,-0.6676 2.773173,-3.062 0.01162,1.0189 -0.176338,1.558 -0.337375,2.1615 0.344694,-1.0011 0.969602,-1.7111 0.499671,-3.557 -0.332425,0.921 -1.221888,3.2504 -3.8978,3.4969 -1.828464,0.1686 -2.573606,0.42 -3.185735,0.9606 z m -0.749789,0.03 c 0.190578,-0.4664 0.374086,-0.9457 0.362876,-1.8156 0.203607,0.2798 0.291068,0.5806 0.262033,0.9006 0.693531,-0.7156 1.649954,-1.1287 2.998541,-1.5766 0.794528,-0.2632 1.328588,-0.8433 1.700704,-1.4288 0.04135,0.049 0.08251,0.095 0.123819,0.1389 0.335254,0.3597 0.673941,0.5542 1.062821,0.6214 -0.820886,1.4976 -2.088727,1.7475 -3.337327,1.7814 -1.26875,0.034 -2.214721,0.5923 -3.173467,1.3787 z m 4.01127,-5.8655 c -0.916377,-0.1885 -2.528412,-0.1525 -1.866589,1.5105 0.07871,0.1978 0.183811,0.3792 0.275564,0.5682 -0.577539,0 -1.048731,-0.1678 -1.58941,-0.6471 -0.309599,-0.2748 -0.4822,-0.3686 -0.696713,-0.4735 0.321569,-0.6685 0.661266,-1.4918 -0.117912,-1.8157 -0.164419,-0.3948 -0.448921,-0.6312 -0.998687,-0.5209 -0.372522,0.1261 -0.622281,0.3158 -0.749082,0.5681 0.246883,-0.091 0.486848,-0.198 0.840987,-0.032 0.104932,0.1057 0.210068,0.2108 0.315155,0.3162 -0.329396,0.3368 -0.19775,0.6369 0,0.9312 0.01797,0.2108 0.03489,0.3266 0.05293,0.5366 -0.285059,-0.1678 -0.525528,-0.2944 -0.670203,-0.6311 -0.205577,-0.6489 -0.750139,-0.9164 -1.012021,-0.426 -0.648791,-0.029 -1.148161,0.429 -1.090242,1.2467 0.112409,-0.2314 0.26385,-0.4262 0.551687,-0.4894 0.122608,0.016 0.179416,0.031 0.301975,0.048 0.01996,0.3636 0.225723,0.495 0.420795,0.5211 0.287128,0.038 0.279857,0.604 0.670001,0.7104 -1.077768,0.4175 -1.369239,1.375 -0.814676,1.9258 -0.04702,0.9897 0.629552,0.8741 1.103623,0.679 -0.305511,-0.061 -0.498664,-0.2818 -0.525528,-0.805 0.241024,-0.1056 0.363581,-0.384 0.394386,-0.7419 0.06095,-0.4624 0.311772,-0.5598 0.551887,-0.6788 0.214311,0.064 0.429177,0.064 0.643993,0 0.78953,-0.1022 1.140335,0.4896 1.644807,0.8641 0.656819,0.4873 1.154372,-0.031 1.837047,-0.2011 0.606222,-0.1514 1.137607,-0.652 1.606678,-1.3079 -0.363076,-0.4811 -0.721505,-1.0745 -1.080443,-1.6548 z m -5.934364,-5.9629 c 1.507652,-0.8393 3.428374,-1.0416 6.0343,-0.014 2.24941,0.8867 3.194269,2.2989 3.779333,3.7091 -0.717571,-0.6157 -1.481801,-0.8395 -2.348842,-0.2012 -0.339394,-1.4226 -1.248802,-2.3149 -2.348487,-2.9896 -0.844772,-0.5183 -1.775039,-0.8049 -2.632434,-0.8063 0.370551,0.1914 0.727364,0.4796 0.88805,0.7925 -0.834069,-0.5415 -2.089789,-0.5768 -3.37192,-0.49 z m 1.006868,-0.8731 c 1.295667,-0.6885 3.322938,-1.1706 5.934872,0.02 2.127963,0.97 3.486295,2.1587 4.018034,4.9513 0.394587,2.0735 -0.167802,3.208 0.754633,4.8371 -0.570974,-0.1566 -0.982276,-0.5235 -1.299752,-1.024 -0.31778,-0.5015 -0.485079,-1.3252 -0.739994,-1.8314 0.01797,1.9486 -1.167904,2.7053 -2.126145,1.5452 -0.419179,-0.5937 -0.866335,-1.2876 -1.285667,-1.8808 -0.312831,-0.4355 -0.533,-0.7304 -0.994244,-0.7714 -0.34308,-0.03 -0.611372,-0.1863 -0.871083,-0.248 -0.152704,0.031 -0.197594,0.06 -0.341008,0.1094 -0.196486,0.3269 -0.415393,0.8145 -0.733022,0.8859 0,0.392 0.08851,0.7101 0.423067,0.9979 -0.634905,0.1274 -1.006515,-0.3357 -1.006515,-1.0413 -0.594305,-1.0599 0.593598,-1.8125 1.342325,-1.5451 -0.09459,-0.176 -0.206991,-0.3551 -0.247994,-0.5716 -0.06837,-0.363 -0.0488,-0.4673 -0.317631,-0.5962 -0.172599,-0.084 -0.287883,-0.2593 -0.301569,-0.5449 -0.272738,-0.1283 -0.707773,0.099 -0.946322,0.4464 0.157147,-0.7182 0.432207,-1.3558 1.33788,-1.0847 0.354137,-0.1459 0.689947,0.046 0.894614,0.4367 0.187245,0.4339 0.254052,0.865 0.531234,1.1422 0.146441,-0.01 0.179012,-0.2566 0.195626,-0.538 -0.106904,-0.2644 -0.05508,-0.5977 0.08387,-0.9405 -0.158209,-0.347 -0.465639,-0.515 -0.922237,-0.5035 0.428978,-0.7405 1.55911,-0.4113 1.677226,0.4703 0.589305,0.651 0.06926,1.4411 -0.426654,1.8479 0.405799,0.3399 0.669799,0.7789 1.03732,1.2655 0.279503,0.3714 0.553654,0.5062 0.85063,0.5912 -0.277383,-1.701 0.401354,-2.1475 1.390448,-1.8189 0.676919,0.2245 1.225775,0.842 1.593499,1.2715 -0.705096,-2.5483 -1.705401,-4.3143 -3.68955,-5.2638 -2.220424,-1.0614 -4.126554,-0.9662 -5.815897,-0.6143 z m 1.930216,-1.4046 c 0.423623,-0.1381 0.73787,-0.3781 1.087918,-0.6489 0.473517,0.029 2.1265,-0.4988 3.213914,-0.3338 0.757616,0.1153 1.35495,0.5332 1.859469,0.9994 -2.344952,-1.1979 -3.775952,0.278 -1.373682,0.4918 1.949405,0.1736 2.650613,0.1044 4.315868,2.462 -2.080195,-2.039 -3.178765,-1.0625 -1.754332,-0.4974 1.674346,0.5569 2.647027,1.9311 3.121602,3.8832 -1.214209,-2.8072 -2.716512,-2.5142 -2.030503,-1.6099 1.900627,2.5061 2.408178,4.3783 1.643743,5.8585 0.17351,-2.3893 -0.893049,-3.2145 -1.188054,-2.1907 -0.192545,0.668 -0.02976,1.4366 0.152149,2.2071 -0.86578,-1.2866 -0.313689,-3.9044 -0.883049,-5.542 -1.256782,-3.6146 -4.989456,-5.176 -8.165043,-5.0793 z m 0.544414,-0.5816 c -0.702268,0.2864 -1.602789,-0.014 -2.172301,-0.295 -0.882546,-0.4363 -1.852704,-0.2467 -2.737519,-0.055 -0.865628,0.3423 -0.98036,-0.3419 -0.854419,-0.9474 -0.323336,0.3949 -0.40509,0.8686 -0.246377,1.4211 -0.360703,-0.1068 -0.65268,-0.3791 -0.821392,-0.9475 0.0465,0.6365 0.184569,1.1358 0.525326,1.3562 -0.367118,0.059 -0.733225,0.021 -1.151849,-0.2286 0.306772,0.3702 0.594809,0.5853 1.238602,0.6595 0.0583,-0.01 0.119376,0.085 0.127053,0.1082 -0.215927,0.2111 -1.989552,0.8266 -2.334046,0.7071 -0.363985,-0.1268 -0.65273,-0.1009 -0.90643,-0.017 0.04349,0.163 0.06754,0.1989 0.06754,0.3502 -0.270769,0.024 -0.516085,-0.082 -0.687776,-0.3103 0.248296,0.7264 0.578044,1.2567 1.134023,1.2437 0.08091,0.4935 0.327071,0.8349 0.561732,1.0664 -0.0875,-0.466 -0.109376,-0.9447 0.06217,-1.3426 0.05946,0.4305 0.233702,0.7128 0.459932,0.9274 -0.05946,-0.3124 -0.04845,-0.6018 0.03282,-0.8683 0.09388,0.3083 0.227491,0.6053 0.449428,0.791 -0.03206,-0.2413 -0.05845,-0.4426 -0.02103,-0.6677 0.811799,0.059 1.413222,-0.091 1.789429,-0.2024 -0.257234,0.6316 -0.599606,1.1086 -1.032522,1.424 -0.271626,-0.099 -0.453719,-0.4347 -0.555421,-0.6222 -0.01817,0.2071 0.02762,0.5387 0.109377,0.6586 -0.205778,-0.025 -0.445035,-0.2596 -0.615161,-0.6919 -0.02261,0.2694 0.05222,0.7443 0.165885,0.9012 -0.244761,-0.1361 -0.512551,-0.4573 -0.749838,-0.801 0.04078,0.4084 0.109227,0.756 0.27915,0.8879 -0.198252,-0.038 -0.417008,-0.1491 -0.459932,0.3158 -0.548704,0.3286 -0.674089,0.7497 -0.738978,1.1841 0.194212,-0.4309 0.484219,-0.7464 0.985358,-0.8091 -0.137355,0.4087 -0.0442,0.678 0.08211,0.9279 0.03314,-0.4543 0.175276,-0.7505 0.427207,-0.8887 0.07126,0.5006 0.230118,0.8687 0.476699,1.1056 -0.142857,-0.3953 -0.109933,-0.7634 0.09816,-1.1056 0.09868,0.5006 0.361462,0.8362 0.591427,0.9675 -0.169771,-0.4211 -0.175124,-0.7962 -0.01624,-1.1452 0.186335,0.5698 0.552795,0.8126 1.002071,0.9086 -0.236075,-0.3222 -0.428117,-0.6645 -0.312124,-1.1451 0.608192,0.2105 1.062265,0.5589 1.494626,0.9274 -0.327984,-0.4589 -0.448924,-1.0741 -0.426655,-1.7958 0.202545,0.4868 0.448569,0.8154 0.738931,0.9868 -0.423625,-1.2185 -0.198101,-3.1734 3.819073,-4.0264 -0.821795,0.026 -1.666922,0.054 -2.488313,0.08 1.04656,-0.2363 2.047219,-0.4923 2.610164,-0.9924 z m -5.771156,0.8949 c 0.232287,-0.1579 0.472049,-0.2698 0.734838,-0.3922 0.328487,-0.153 0.486695,-0.2158 0.767967,-0.2425 -0.393679,0.2104 -0.648084,0.4684 -1.003487,0.8016 -0.07835,-0.071 -0.156594,-0.1423 -0.235319,-0.2126 -0.06717,0.015 -0.184013,0.047 -0.263999,0.047 z"
         class="fil20" />
      <path
         class="fil20"
         d="m 21.156861,1013.3518 c 0.706511,-0.5929 0.820888,-1.3698 1.727267,-2.1107 1.142254,-0.9348 2.591835,-0.7898 3.609916,-2.6853 -0.491493,2.7335 -1.831696,2.6242 -2.733279,3.541 1.820838,-1.1316 3.379948,-0.5846 4.26406,-3.7301 0.144827,0.7422 0.201687,1.4693 -0.05202,2.1204 -0.399739,1.0261 -1.166643,1.2409 -1.965263,1.8336 1.326066,-0.728 2.222699,0.2117 3.419793,-1.2555 -0.607284,1.5584 -2.068076,2.3062 -3.484984,2.6392 -1.940165,0.4553 -2.551236,-1.0963 -4.785498,-0.3526 z m -3.144783,16.9615 c -0.04594,-0.5009 -0.146442,-0.8116 -0.333284,-1.0946 -0.208252,-0.3143 -0.683027,-0.5416 -1.050548,-0.9498 -0.216432,-0.1484 -0.438773,-0.1325 -0.666062,0.048 -0.158209,0.3646 -0.381258,0.3679 -0.613544,0.3199 -0.160684,0.2764 -0.122003,0.6215 0.116698,1.0354 -0.522701,-0.2561 -0.944504,-0.583 -0.657528,-1.4062 -0.230016,-0.675 0.120437,-1.1194 0.687271,-1.1689 0.371762,-0.033 0.674648,0.1744 1.04126,0.2581 0.02532,-0.2715 0.0511,-0.5435 0.07641,-0.8143 -0.248145,-0.2464 -0.346313,-0.5272 -0.175479,-0.8709 -0.22623,-0.3818 -0.552948,-0.3413 -0.894058,-0.2405 0.314397,-0.4656 0.667828,-0.8189 1.292231,-0.3857 0.410798,-0.033 0.57148,0.2096 0.697068,0.4919 0.137707,0.5902 0.09639,1.0791 0.02996,1.5538 0.04114,0.184 0.101349,0.3327 0.217342,0.3906 0.193809,-0.1593 0.316365,-0.3838 0.334191,-0.5807 0.06788,-0.2829 0.161391,-0.5504 0.434128,-0.7178 0.0821,-0.4067 -0.200222,-0.7042 -0.64864,-0.9531 0.46498,-0.1262 0.876686,0.034 1.234714,0.4794 0.121851,0.2943 0.172097,0.597 0.06329,0.9194 0.251883,0.3951 0.171388,0.7603 -0.242085,1.0966 -0.210574,0.091 -0.421706,0.1797 -0.63243,0.2694 0.07892,0.4162 0.158007,0.8322 0.236579,1.2487 l 0.02762,0.1891 c -0.257235,0.2481 -0.462455,0.5614 -0.575066,0.8836 z m 4.801708,-2.6682 c -0.621576,0.6248 -1.307785,1.0518 -2.028031,1.3831 -1.587037,0.7298 -2.318341,1.6768 -2.376413,2.85 0.535677,-0.6032 1.123016,-1.0626 1.823316,-1.2059 -1.800339,2.3418 -1.047522,3.6846 -0.225372,5.0456 -0.899613,-0.5342 -1.697876,-2.2639 -2.497052,-2.474 -0.327071,-0.086 -0.814271,0.099 -1.313793,0.062 -0.245671,0.05 -0.409736,0.2298 -0.491693,0.5418 0.06932,0.4026 -0.101906,0.5742 -0.307279,0.7134 0.02067,0.3361 0.232289,0.5745 0.635058,0.7141 -0.539768,0.1983 -1.038229,0.2654 -1.249662,-0.5909 -0.532497,-0.3486 -0.49523,-0.9589 -0.08178,-1.4275 0.27092,-0.3068 0.614605,-0.3776 0.942183,-0.5906 -0.122911,-0.2297 -0.245823,-0.4594 -0.368581,-0.6894 -0.321922,-0.01 -0.545473,-0.1455 -0.594103,-0.5413 -0.376256,-0.124 -0.607991,0.1552 -0.819473,0.492 -0.0012,-0.5997 0.08711,-1.1412 0.799173,-1.2793 0.300711,-0.3377 0.553149,-0.272 0.798769,-0.1478 0.417059,0.3523 0.641874,0.7627 0.839974,1.1814 0.129174,0.111 0.254004,0.1808 0.374289,0.1375 0.06661,-0.2704 0.04349,-0.5377 -0.0465,-0.7039 -0.09601,-0.2709 -0.164421,-0.5498 -0.04114,-0.8856 -0.15018,-0.3774 -0.52588,-0.3943 -1.003638,-0.2464 0.293745,-0.4517 0.696359,-0.6401 1.208708,-0.5659 0.249003,0.1351 0.447307,0.3323 0.5328,0.6644 0.402767,0.1148 0.532294,0.4593 0.389081,1.0335 -0.115991,0.2297 -0.232136,0.4596 -0.348482,0.6896 0.280059,0.262 0.560119,0.5247 0.840127,0.7868 -0.122001,-0.8794 -0.273798,-1.8187 0.430238,-2.7066 1.289402,-1.6261 2.774082,-1.6824 4.179275,-2.2398 z m 6.910177,13.7387 c -0.688885,1.2447 -1.603296,1.4674 -3.676369,1.5457 0.760141,-0.1443 1.510129,-0.4607 2.239111,-1.1315 0.540321,-0.1115 1.020402,-0.2569 1.437258,-0.4142 z m -3.278549,0.629 c -1.167199,0.7509 -2.797208,0.807 -4.754138,0.3709 0.820534,-0.01 1.83311,-0.1078 2.588452,-0.5013 0.777054,0.1148 1.499978,0.1509 2.165686,0.1304 z m -3.976173,-0.5497 c -1.742064,0.4809 -2.849776,-0.1815 -3.818319,-1.094 0.74802,0.3118 1.520783,0.5038 2.356315,0.3949 0.452106,0.2899 0.944302,0.5209 1.462004,0.6991 z m -1.967232,-1.0614 c -1.996317,-0.1331 -3.254513,-1.4496 -3.809986,-3.1767 0.569513,0.6946 1.113572,1.217 1.958899,1.6945 -0.315508,-0.6497 -0.32798,-1.6028 -0.225925,-2.3304 0.246731,1.7205 1.015605,2.9618 2.077012,3.8126 z m 3.053887,-4.3252 c 0.935113,0.5867 2.254258,0.6198 4.02748,0.6588 2.080901,0.047 2.29415,1.0752 2.147204,1.9202 -0.218604,1.2536 -1.147103,1.5706 -1.974907,1.7704 1.18467,0.1165 2.254207,-0.3703 2.632787,-1.7886 0.363228,-1.36 -0.790992,-2.678 -2.72651,-2.8435 -1.641775,-0.1399 -1.925368,0.4801 -4.106054,0.2827 z m 0.05543,-8.6788 c -0.458213,0.7879 -0.975358,1.4763 -1.64748,2.2825 -0.770288,0.9236 -1.342881,1.5925 -1.462406,2.443 -0.08246,0.5884 0.06948,1.0705 0.37252,1.5338 0.843307,1.2904 2.663944,1.8794 4.026771,1.4599 1.138516,-0.3506 2.377673,-1.4642 4.094287,-1.3419 -0.880221,0.1991 -1.359798,0.5812 -1.509775,1.0928 0.244912,0.01 0.499522,0.014 0.757461,0.044 0.796295,-0.5636 1.692729,-0.7844 2.73626,-0.012 -0.593903,-0.1435 -1.13155,-0.036 -1.423727,0.3253 0.63743,0.2514 1.2333,0.664 1.632334,1.2951 0.777458,0.1742 1.41019,0.6895 1.873001,1.3903 -0.568451,-0.4663 -1.071862,-0.6852 -1.510281,-0.5606 0.02476,0.095 0.04453,0.1899 0.05983,0.2865 0.85174,0.5296 1.186438,1.4838 1.245215,2.4957 -0.272534,-0.6441 -0.671764,-1.2281 -1.264102,-1.4062 -0.08796,0.4729 -0.277888,0.9284 -0.558807,1.3116 0.01317,1.0184 -0.18689,1.6653 -1.049992,2.571 0.343635,-0.62 0.570973,-1.4365 0.45675,-1.9746 -0.08979,0.065 -0.190074,0.1274 -0.284654,0.1815 -2.034596,1.1586 -6.39965,1.1078 -8.174335,0.044 -0.785438,-0.4206 -1.489475,-1.0487 -2.086759,-1.9611 0.836391,0.6295 1.01273,1.441 3.020256,1.7244 0.661415,0.094 0.858458,-0.237 0.32793,-0.6879 -0.335606,-0.2857 -0.69848,-0.3802 -1.047823,-0.4935 0.363937,-0.018 0.811293,-0.1198 1.759536,0.5037 0.464931,0.3059 0.603343,0.6405 1.363129,0.878 0.720094,0.2249 0.89325,-0.1639 0.205222,-0.4438 -0.264506,-0.1082 -0.534062,-0.198 -0.801093,-0.2967 0.298593,-0.083 0.683385,-0.086 1.376713,0.1979 1.421558,0.6352 3.008289,1.054 4.208616,-0.5925 0.879159,-1.2061 0.624753,-2.9595 -1.09287,-3.8034 -1.631623,-0.8017 -3.0349,-0.3704 -4.471956,-0.17 -0.609455,0.1005 -1.218504,0.1291 -1.82811,-0.099 0.315103,0.6072 0.827097,0.9445 1.355857,1.2587 -1.328285,-0.4169 -2.656675,-0.8921 -3.985112,-3.1834 -0.160127,1.0433 -0.0073,1.7872 0.287533,2.3937 -0.720043,-1.0448 -1.102511,-2.1806 -0.883403,-3.4795 0.10029,-0.6222 0.422363,-1.3185 1.068124,-2.1225 -0.701362,-0.1348 -1.278142,0.092 -1.828111,0.3947 0.354189,-0.4879 0.806496,-0.9806 1.951778,-1.5052 1.008285,-0.4703 1.876186,-1.2111 2.731662,-1.9744 z m 0.521591,-0.2725 c -0.08178,0.6454 -0.09816,1.2437 -0.598397,2.1914 0.86078,-0.1592 1.649602,-0.02 2.437212,0.1541 0.834422,0.1839 1.691615,0.1595 2.537298,0.2399 -1.614911,0.4419 -3.961732,-0.017 -5.51357,0.7555 -1.6088,0.8009 -1.716259,2.078 -0.90441,3.1625 0.512649,0.6172 1.602185,0.9692 3.067974,1.0656 -1.178055,0.3177 -2.373937,0.3172 -3.534573,-0.7024 -0.831389,-0.7301 -1.257336,-2.2834 0.583955,-4.0416 0.876838,-0.837 1.454732,-1.755 1.924511,-2.825 z m 4.048132,2.2089 c 1.110035,-0.212 2.154324,-0.6615 3.036112,-1.6958 -0.09994,0.4113 -0.199518,0.8221 -0.299099,1.233 1.144021,-0.8168 1.441706,-2.1421 1.667579,-3.5107 0.38944,0.491 0.836392,0.7766 1.339497,0.8563 -0.683887,1.587 -1.691311,2.5802 -3.021518,2.9801 -0.990458,0.2451 -1.88406,0.2563 -2.722571,0.1371 z m -3.277137,-0.6261 c 1.222443,0.2888 2.59042,0.5764 4.148067,0 0.929205,-0.3441 1.74903,-0.6676 2.77317,-3.062 0.01163,1.0189 -0.176336,1.558 -0.337372,2.1615 0.344695,-1.0011 0.969602,-1.7111 0.499672,-3.557 -0.332428,0.921 -1.221889,3.2504 -3.897801,3.4969 -1.828465,0.1686 -2.573606,0.42 -3.185736,0.9606 z m -0.749787,0.03 c 0.190576,-0.4664 0.374086,-0.9457 0.362875,-1.8156 0.203606,0.2798 0.291068,0.5806 0.262033,0.9006 0.69353,-0.7156 1.649954,-1.1287 2.998541,-1.5766 0.794529,-0.2632 1.328588,-0.8433 1.700705,-1.4288 0.04135,0.049 0.08249,0.095 0.123818,0.1389 0.335256,0.3597 0.673939,0.5542 1.062823,0.6214 -0.820888,1.4976 -2.088728,1.7475 -3.337329,1.7814 -1.268751,0.034 -2.214721,0.5923 -3.173466,1.3787 z m 4.011269,-5.8655 c -0.916376,-0.1885 -2.52841,-0.1525 -1.86659,1.5105 0.07871,0.1978 0.183811,0.3792 0.275564,0.5682 -0.577538,0 -1.048731,-0.1678 -1.589408,-0.6471 -0.309599,-0.2748 -0.4822,-0.3686 -0.696713,-0.4735 0.321567,-0.6685 0.661264,-1.4918 -0.117913,-1.8157 -0.16442,-0.3948 -0.448921,-0.6312 -0.998688,-0.5209 -0.37252,0.1261 -0.622281,0.3158 -0.74908,0.5681 0.246881,-0.091 0.486845,-0.198 0.840985,-0.032 0.104934,0.1057 0.210069,0.2108 0.315155,0.3162 -0.329395,0.3368 -0.197747,0.6369 0,0.9312 0.01797,0.2108 0.03491,0.3266 0.05293,0.5366 -0.285058,-0.1678 -0.525527,-0.2944 -0.670202,-0.6311 -0.205575,-0.6489 -0.75014,-0.9164 -1.012022,-0.426 -0.648791,-0.029 -1.14816,0.429 -1.090239,1.2467 0.112405,-0.2314 0.263848,-0.4262 0.551684,-0.4894 0.122608,0.016 0.179418,0.031 0.301975,0.048 0.01996,0.3636 0.225725,0.495 0.420796,0.5211 0.287129,0.038 0.279856,0.604 0.67,0.7104 -1.077766,0.4175 -1.369239,1.375 -0.814676,1.9258 -0.04702,0.9897 0.629552,0.8741 1.103624,0.679 -0.30551,-0.061 -0.498662,-0.2818 -0.525528,-0.805 0.241025,-0.1056 0.363582,-0.384 0.394386,-0.7419 0.06095,-0.4624 0.31177,-0.5598 0.551887,-0.6788 0.214311,0.064 0.429177,0.064 0.643994,0 0.789529,-0.1022 1.140336,0.4896 1.644806,0.8641 0.65682,0.4873 1.154372,-0.031 1.837048,-0.2011 0.606222,-0.1514 1.137605,-0.652 1.606676,-1.3079 -0.363075,-0.4811 -0.721506,-1.0745 -1.080442,-1.6548 z m -5.934365,-5.9629 c 1.507652,-0.8393 3.428376,-1.0416 6.034301,-0.014 2.24941,0.8867 3.194269,2.2989 3.779331,3.7091 -0.717568,-0.6157 -1.481798,-0.8395 -2.34884,-0.2012 -0.339392,-1.4226 -1.248802,-2.3149 -2.348486,-2.9896 -0.844773,-0.5183 -1.775039,-0.8049 -2.632436,-0.8063 0.370551,0.1914 0.727366,0.4796 0.88805,0.7925 -0.834067,-0.5415 -2.089788,-0.5768 -3.37192,-0.49 z m 1.006869,-0.8731 c 1.295666,-0.6885 3.322938,-1.1706 5.934873,0.02 2.127962,0.97 3.486295,2.1587 4.018034,4.9513 0.394587,2.0735 -0.167803,3.208 0.754634,4.8371 -0.570975,-0.1566 -0.982277,-0.5235 -1.299756,-1.024 -0.317777,-0.5015 -0.485077,-1.3252 -0.73999,-1.8314 0.01797,1.9486 -1.167904,2.7053 -2.126146,1.5452 -0.419181,-0.5937 -0.866334,-1.2876 -1.285668,-1.8808 -0.31283,-0.4355 -0.533001,-0.7304 -0.994245,-0.7714 -0.343079,-0.03 -0.611372,-0.1863 -0.871081,-0.248 -0.152705,0.031 -0.197596,0.06 -0.34101,0.1094 -0.196486,0.3269 -0.415392,0.8145 -0.733022,0.8859 0,0.392 0.08851,0.7101 0.423069,0.9979 -0.634906,0.1274 -1.006517,-0.3357 -1.006517,-1.0413 -0.594305,-1.0599 0.593599,-1.8125 1.342325,-1.5451 -0.09459,-0.176 -0.206989,-0.3551 -0.247994,-0.5716 -0.06837,-0.363 -0.04879,-0.4673 -0.317629,-0.5962 -0.172601,-0.084 -0.287885,-0.2593 -0.301571,-0.5449 -0.272736,-0.1283 -0.707772,0.099 -0.946322,0.4464 0.157149,-0.7182 0.432208,-1.3558 1.33788,-1.0847 0.35414,-0.1459 0.689947,0.046 0.894614,0.4367 0.187245,0.4339 0.254053,0.865 0.531235,1.1422 0.146441,-0.01 0.179012,-0.2566 0.195625,-0.538 -0.106901,-0.2644 -0.05508,-0.5977 0.08387,-0.9405 -0.158208,-0.347 -0.465638,-0.515 -0.922237,-0.5035 0.428977,-0.7405 1.559112,-0.4113 1.677227,0.4703 0.589304,0.651 0.06926,1.4411 -0.426656,1.8479 0.405799,0.3399 0.669799,0.7789 1.03732,1.2655 0.279504,0.3714 0.553654,0.5062 0.85063,0.5912 -0.277382,-1.701 0.401354,-2.1475 1.390448,-1.8189 0.676922,0.2245 1.225778,0.842 1.593501,1.2715 -0.705096,-2.5483 -1.705402,-4.3143 -3.68955,-5.2638 -2.220425,-1.0614 -4.126554,-0.9662 -5.815898,-0.6143 z m 1.930216,-1.4046 c 0.423624,-0.1381 0.73787,-0.3781 1.087918,-0.6489 0.473516,0.029 2.126501,-0.4988 3.213914,-0.3338 0.757615,0.1153 1.354948,0.5332 1.859471,0.9994 -2.344955,-1.1979 -3.775953,0.278 -1.373683,0.4918 1.949405,0.1736 2.650611,0.1044 4.315869,2.462 -2.080195,-2.039 -3.178768,-1.0625 -1.754333,-0.4974 1.674343,0.5569 2.647028,1.9311 3.121602,3.8832 -1.214214,-2.8072 -2.716511,-2.5142 -2.030504,-1.6099 1.900623,2.5061 2.408174,4.3783 1.643744,5.8585 0.173511,-2.3893 -0.893049,-3.2145 -1.188054,-2.1907 -0.192549,0.668 -0.02976,1.4366 0.152149,2.2071 -0.86578,-1.2866 -0.313693,-3.9044 -0.883048,-5.542 -1.256783,-3.6146 -4.989457,-5.176 -8.165045,-5.0793 z m 0.544414,-0.5816 c -0.702269,0.2864 -1.60279,-0.014 -2.172301,-0.295 -0.882546,-0.4363 -1.852702,-0.2467 -2.73752,-0.055 -0.865629,0.3423 -0.980357,-0.3419 -0.854417,-0.9474 -0.323336,0.3949 -0.40509,0.8686 -0.246379,1.4211 -0.360704,-0.1068 -0.652679,-0.3791 -0.821393,-0.9475 0.0465,0.6365 0.184571,1.1358 0.525328,1.3562 -0.367118,0.059 -0.733225,0.021 -1.151849,-0.2286 0.306772,0.3702 0.594809,0.5853 1.238603,0.6595 0.0583,-0.01 0.119377,0.085 0.127052,0.1082 -0.215928,0.2111 -1.989552,0.8266 -2.334046,0.7071 -0.363986,-0.1268 -0.652729,-0.1009 -0.906429,-0.017 0.04349,0.163 0.06754,0.1989 0.06754,0.3502 -0.270768,0.024 -0.516084,-0.082 -0.687775,-0.3103 0.248296,0.7264 0.578043,1.2567 1.134021,1.2437 0.08091,0.4935 0.327073,0.8349 0.561735,1.0664 -0.0875,-0.466 -0.109378,-0.9447 0.06217,-1.3426 0.05946,0.4305 0.233704,0.7128 0.459932,0.9274 -0.05946,-0.3124 -0.04845,-0.6018 0.03282,-0.8683 0.09388,0.3083 0.227491,0.6053 0.449427,0.791 -0.03206,-0.2413 -0.05844,-0.4426 -0.02101,-0.6677 0.811798,0.059 1.413223,-0.091 1.78943,-0.2024 -0.257235,0.6316 -0.599608,1.1086 -1.032522,1.424 -0.271629,-0.099 -0.45372,-0.4347 -0.555424,-0.6222 -0.01816,0.2071 0.02762,0.5387 0.10938,0.6586 -0.20578,-0.025 -0.445037,-0.2596 -0.615163,-0.6919 -0.02261,0.2694 0.05222,0.7443 0.165885,0.9012 -0.244761,-0.1361 -0.512549,-0.4573 -0.749838,-0.801 0.04078,0.4084 0.109227,0.756 0.279151,0.8879 -0.198252,-0.038 -0.417009,-0.1491 -0.459931,0.3158 -0.548706,0.3286 -0.674091,0.7497 -0.73898,1.1841 0.194214,-0.4309 0.48422,-0.7464 0.985357,-0.8091 -0.137353,0.4087 -0.0442,0.678 0.08212,0.9279 0.03314,-0.4543 0.175275,-0.7505 0.427207,-0.8887 0.07126,0.5006 0.230117,0.8687 0.476696,1.1056 -0.142857,-0.3953 -0.109933,-0.7634 0.09816,-1.1056 0.09868,0.5006 0.361459,0.8362 0.591426,0.9675 -0.169773,-0.4211 -0.175125,-0.7962 -0.01622,-1.1452 0.186334,0.5698 0.552796,0.8126 1.002073,0.9086 -0.236078,-0.3222 -0.428118,-0.6645 -0.312126,-1.1451 0.608191,0.2105 1.062267,0.5589 1.494626,0.9274 -0.327984,-0.4589 -0.448925,-1.0741 -0.426656,-1.7958 0.202546,0.4868 0.44857,0.8154 0.738931,0.9868 -0.423623,-1.2185 -0.198101,-3.1734 3.819074,-4.0264 -0.821795,0.026 -1.666921,0.054 -2.488314,0.08 1.046561,-0.2363 2.047221,-0.4923 2.610165,-0.9924 z m -5.771158,0.8949 c 0.232291,-0.1579 0.47205,-0.2698 0.73484,-0.3922 0.328486,-0.153 0.486694,-0.2158 0.767967,-0.2425 -0.39368,0.2104 -0.648085,0.4684 -1.003487,0.8016 -0.07835,-0.071 -0.156592,-0.1423 -0.235317,-0.2126 -0.06717,0.015 -0.184014,0.047 -0.264003,0.047 z"
         id="path104"
         inkscape:connector-curvature="0"
         style="clip-rule:evenodd;fill:#050505;fill-opacity:0.58113206;fill-rule:evenodd;stroke-width:0.00504975;image-rendering:optimizeQuality;shape-rendering:geometricPrecision;text-rendering:geometricPrecision" />
      <rect
         style="color:#000000;text-decoration:none;text-decoration-line:none;display:inline;overflow:visible;visibility:visible;fill:none;fill-opacity:0.58113206;fill-rule:nonzero;stroke:#000000;stroke-width:1.03577721;stroke-opacity:0.4;enable-background:accumulate"
         id="rect4604"
         width="41.431099"
         height="38.323792"
         x="4.0344505"
         y="1007.291"
         ry="8.9990025"
         rx="8.9990025" />
      <path
         style="display:inline;opacity:0.32900002;fill:#000000;fill-opacity:1;stroke:none;stroke-width:1.02139211"
         d="m 2.2798343,1038.0833 v 2.0001 c 0,5.5393 4.4595058,9.9987 9.9988917,9.9987 h 24.942547 c 5.539385,0 9.998892,-4.4594 9.998892,-9.9987 v -2.0001 c 0,5.5398 -4.459507,9.9993 -9.998892,9.9993 H 12.278726 c -5.5393859,0 -9.9988917,-4.4595 -9.9988917,-9.9993 z"
         id="rect4606"
         inkscape:connector-curvature="0" />
    </g>
  </g>
  <g
     inkscape:groupmode="layer"
     id="layer4"
     inkscape:label="Inset"
     style="display:inline" />
  <g
     inkscape:groupmode="layer"
     id="layer7"
     inkscape:label="Baseshape"
     style="display:none">
    <rect
       rx="3"
       ry="3"
       y="2"
       x="2"
       height="44"
       width="44"
       id="rect4169"
       style="display:inline;fill:#abe1ad;fill-opacity:1;stroke:none" />
  </g>
</svg>
