<?xml version="1.0" encoding="UTF-8" standalone="no"?>
<svg
   xmlns:dc="http://purl.org/dc/elements/1.1/"
   xmlns:cc="http://creativecommons.org/ns#"
   xmlns:rdf="http://www.w3.org/1999/02/22-rdf-syntax-ns#"
   xmlns:svg="http://www.w3.org/2000/svg"
   xmlns="http://www.w3.org/2000/svg"
   xmlns:xlink="http://www.w3.org/1999/xlink"
   xmlns:sodipodi="http://sodipodi.sourceforge.net/DTD/sodipodi-0.dtd"
   xmlns:inkscape="http://www.inkscape.org/namespaces/inkscape"
   inkscape:export-ydpi="256"
   inkscape:export-xdpi="256"
   inkscape:export-filename="/media/Dati/Git/aRTWORK-rESOURCE/costruzione-icona.svg.png"
   sodipodi:docname="Icon318.svg"
   inkscape:version="1.0beta2 (2b71d25d45, 2019-12-03)"
   version="1.1"
   id="svg2"
   viewBox="0 0 96.000001 96.000002"
   height="96"
   width="96">
  <title
     id="title5603">Lila-HD-Icon-Theme</title>
  <defs
     id="defs4">
    <linearGradient
       gradientTransform="scale(1.0058652,0.994169)"
       gradientUnits="userSpaceOnUse"
       id="linearGradient5696"
       y2="7.0165396"
       x2="45.447727"
       y1="92.539597"
       x1="45.447727">
      <stop
         offset="0"
         style="stop-color:#000000;stop-opacity:0.58823532"
         id="stop5692" />
      <stop
         offset="1"
         style="stop-color:#000000;stop-opacity:0.58823532"
         id="stop5694" />
    </linearGradient>
    <linearGradient
       y2="138.66119"
       x2="48"
       y1="20.220806"
       x1="48"
       gradientUnits="userSpaceOnUse"
       id="linearGradient20599"
       xlink:href="#linearGradient3737-6"
       inkscape:collect="always" />
    <linearGradient
       id="linearGradient3737-6">
      <stop
         id="stop3739-4"
         style="stop-color:#ffffff;stop-opacity:1"
         offset="0" />
      <stop
         id="stop3741-5"
         style="stop-color:#ffffff;stop-opacity:0"
         offset="1" />
    </linearGradient>
    <clipPath
       id="clipPath3613-8">
      <rect
         width="84"
         height="84"
         rx="6"
         ry="6"
         x="6"
         y="6"
         id="rect3615-25"
         style="fill:#ffffff;fill-opacity:1;fill-rule:nonzero;stroke:none" />
    </clipPath>
    <filter
       x="-0.192"
       y="-0.192"
       width="1.3839999"
       height="1.3839999"
       id="filter3794-1"
       style="color-interpolation-filters:sRGB">
      <feGaussianBlur
         id="feGaussianBlur3796-5"
         stdDeviation="5.28" />
    </filter>
    <clipPath
       id="clipPath3649">
      <rect
         width="76"
         height="76"
         rx="4"
         ry="4"
         x="10"
         y="10"
         id="rect3651"
         style="fill:#ffffff;fill-opacity:1;fill-rule:nonzero;stroke:none" />
    </clipPath>
    <filter
       id="filter3657"
       style="color-interpolation-filters:sRGB">
      <feGaussianBlur
         id="feGaussianBlur3659"
         stdDeviation="1.14" />
    </filter>
    <linearGradient
       y2="5.9877172"
       x2="48"
       y1="90"
       x1="48"
       gradientTransform="translate(-0.07567533,1056.0649)"
       gradientUnits="userSpaceOnUse"
       id="linearGradient20597"
       xlink:href="#linearGradient3700-24"
       inkscape:collect="always" />
    <linearGradient
       id="linearGradient3700-24">
      <stop
         id="stop3702-5"
         style="stop-color:#2276c5;stop-opacity:1"
         offset="0" />
      <stop
         id="stop3704-8"
         style="stop-color:#68baf4;stop-opacity:1"
         offset="1" />
    </linearGradient>
    <radialGradient
       r="42"
       fy="90.171875"
       fx="48"
       cy="90.171875"
       cx="48"
       gradientTransform="matrix(1.093171,0,0,0.94071146,-4.2611438,958.97718)"
       gradientUnits="userSpaceOnUse"
       id="radialGradient20595"
       xlink:href="#linearGradient3737-6"
       inkscape:collect="always" />
    <linearGradient
       gradientTransform="translate(10.938666,955.3139)"
       y2="63.893143"
       x2="36.357143"
       y1="6"
       x1="36.357143"
       gradientUnits="userSpaceOnUse"
       id="linearGradient20593"
       xlink:href="#linearGradient3737-6"
       inkscape:collect="always" />
    <linearGradient
       id="linearGradient3637">
      <stop
         id="stop3639"
         style="stop-color:#f0f0f0;stop-opacity:1"
         offset="0" />
      <stop
         id="stop3641"
         style="stop-color:#dcdcdc;stop-opacity:1"
         offset="1" />
    </linearGradient>
    <linearGradient
       y2="7.0165396"
       x2="45.447727"
       y1="92.539597"
       x1="45.447727"
       gradientTransform="scale(1.0058652,0.994169)"
       gradientUnits="userSpaceOnUse"
       id="linearGradient20589"
       xlink:href="#ButtonShadow-4"
       inkscape:collect="always" />
    <linearGradient
       x1="45.447727"
       y1="92.539597"
       x2="45.447727"
       y2="7.0165396"
       id="ButtonShadow-4"
       gradientUnits="userSpaceOnUse"
       gradientTransform="scale(1.0058652,0.994169)">
      <stop
         id="stop3750-9"
         style="stop-color:#000000;stop-opacity:1"
         offset="0" />
      <stop
         id="stop3752-7"
         style="stop-color:#000000;stop-opacity:0.58823532"
         offset="1" />
    </linearGradient>
    <clipPath
       id="clipPath3625">
      <path
         d="M 0,0 V 96 H 96 V 0 Z m 12,6 h 72 c 3.324,0 6,2.676 6,6 v 72 c 0,3.324 -2.676,6 -6,6 H 12 C 8.676,90 6,87.324 6,84 V 12 C 6,8.676 8.676,6 12,6 Z"
         inkscape:connector-curvature="0"
         id="path3627"
         style="fill:#ffffff;fill-opacity:1;stroke:none" />
    </clipPath>
    <filter
       id="filter3174-20"
       style="color-interpolation-filters:sRGB">
      <feGaussianBlur
         id="feGaussianBlur3176-3"
         stdDeviation="1.71" />
    </filter>
    <linearGradient
       id="linearGradient4648">
      <stop
         style="stop-color:#7d329a"
         offset="0"
         id="stop5624" />
      <stop
         style="stop-color:#ac5cce"
         offset="1"
         id="stop5626" />
    </linearGradient>
    <linearGradient
       id="linearGradient4652"
       x1="30.577"
       x2="45"
       y1="19.129"
       y2="27.456"
       gradientTransform="matrix(-1.5383596,0,0,1.4528953,84.53604,968.94786)"
       gradientUnits="userSpaceOnUse"
       xlink:href="#linearGradient4648" />
    <radialGradient
       r="42"
       fy="90.171875"
       fx="48"
       cy="90.171875"
       cx="48"
       gradientTransform="matrix(1.093171,0,0,-0.94071146,-4.2611438,1049.326)"
       gradientUnits="userSpaceOnUse"
       id="radialGradient5727"
       xlink:href="#linearGradient3737-6"
       inkscape:collect="always" />
    <radialGradient
       r="42"
       fy="90.171875"
       fx="48"
       cy="90.171875"
       cx="48"
       gradientTransform="matrix(0,1.093171,-0.94071146,0,93.527004,951.82077)"
       gradientUnits="userSpaceOnUse"
       id="radialGradient5731"
       xlink:href="#linearGradient3737-6"
       inkscape:collect="always" />
    <radialGradient
       r="42"
       fy="90.171875"
       fx="48"
       cy="90.171875"
       cx="48"
       gradientTransform="matrix(0,1.093171,0.94071146,0,2.8952678,951.82077)"
       gradientUnits="userSpaceOnUse"
       id="radialGradient5735"
       xlink:href="#linearGradient3737-6"
       inkscape:collect="always" />
    <linearGradient
       gradientTransform="translate(9.8878748,58.576271)"
       gradientUnits="userSpaceOnUse"
       y2="1004.0649"
       x2="89.924324"
       y1="1004.0649"
       x1="5.9243226"
       id="linearGradient5755"
       xlink:href="#linearGradient5696"
       inkscape:collect="always" />
    <radialGradient
       gradientTransform="matrix(0.91823885,0,0,0.91823885,4.1356004,81.886271)"
       gradientUnits="userSpaceOnUse"
       r="43.204693"
       fy="1004.3622"
       fx="47.999996"
       cy="1004.3622"
       cx="47.999996"
       id="radialGradient2830"
       xlink:href="#linearGradient4648"
       inkscape:collect="always" />
  </defs>
  <sodipodi:namedview
     inkscape:document-rotation="0"
     inkscape:guide-bbox="true"
     showguides="true"
     inkscape:snap-global="false"
     inkscape:window-maximized="1"
     inkscape:window-y="21"
     inkscape:window-x="0"
     inkscape:window-height="1027"
     inkscape:window-width="1920"
     inkscape:showpageshadow="false"
     units="px"
     showgrid="false"
     inkscape:current-layer="layer1"
     inkscape:document-units="px"
     inkscape:cy="46.96346"
     inkscape:cx="66.10545"
     inkscape:zoom="4.7378705"
     inkscape:pageshadow="2"
     inkscape:pageopacity="0.0"
     borderopacity="1.0"
     bordercolor="#666666"
     pagecolor="#ffffff"
     id="base" />
  <metadata
     id="metadata7">
    <rdf:RDF>
      <cc:Work
         rdf:about="">
        <dc:format>image/svg+xml</dc:format>
        <dc:type
           rdf:resource="http://purl.org/dc/dcmitype/StillImage" />
        <dc:title>Lila-HD-Icon-Theme</dc:title>
        <cc:license
           rdf:resource="http://creativecommons.org/licenses/by-sa/4.0/" />
        <dc:date>2015-2019</dc:date>
        <dc:creator>
          <cc:Agent>
            <dc:title>Cristian Pozzessere  == ilnanny ==</dc:title>
          </cc:Agent>
        </dc:creator>
        <dc:subject>
          <rdf:Bag>
            <rdf:li>ilnanny</rdf:li>
            <rdf:li>lila_hd</rdf:li>
            <rdf:li>lila-hd</rdf:li>
            <rdf:li>lila hd icon theme</rdf:li>
            <rdf:li>Lila-HD-Icon-Theme lila hd icon lila icon</rdf:li>
          </rdf:Bag>
        </dc:subject>
        <dc:coverage>CC-BY-SA</dc:coverage>
        <dc:description>Playing with Inkscape on Gnu/Linux O. S.</dc:description>
        <dc:contributor>
          <cc:Agent>
            <dc:title>In the night, alone like a dog.</dc:title>
          </cc:Agent>
        </dc:contributor>
      </cc:Work>
      <cc:License
         rdf:about="http://creativecommons.org/licenses/by-sa/4.0/">
        <cc:permits
           rdf:resource="http://creativecommons.org/ns#Reproduction" />
        <cc:permits
           rdf:resource="http://creativecommons.org/ns#Distribution" />
        <cc:requires
           rdf:resource="http://creativecommons.org/ns#Notice" />
        <cc:requires
           rdf:resource="http://creativecommons.org/ns#Attribution" />
        <cc:permits
           rdf:resource="http://creativecommons.org/ns#DerivativeWorks" />
        <cc:requires
           rdf:resource="http://creativecommons.org/ns#ShareAlike" />
      </cc:License>
    </rdf:RDF>
  </metadata>
  <g
     transform="translate(0,-956.36218)"
     id="layer1"
     inkscape:groupmode="layer"
     inkscape:label="Livello 1">
    <g
       transform="translate(107.93514,-99.702639)"
       id="g5601">
      <rect
         style="fill:url(#linearGradient20597);fill-opacity:1;fill-rule:nonzero;stroke:none"
         id="rect2841"
         y="1062.0648"
         x="5.9243226"
         ry="6"
         rx="6"
         height="84"
         width="84" />
      <rect
         style="fill:#ff0000;fill-opacity:1;fill-rule:nonzero;stroke:none"
         id="rect3634"
         y="1066.0648"
         x="9.9243231"
         ry="4"
         rx="4"
         height="76"
         width="76" />
    </g>
    <g
       transform="translate(11.807262,7.9322413)"
       id="g5597">
      <path
         style="color:#000000;font-style:normal;font-variant:normal;font-weight:normal;font-stretch:normal;font-size:medium;line-height:normal;font-family:'Abandoned Bitplane';-inkscape-font-specification:'Abandoned Bitplane';text-indent:0;text-align:start;text-decoration:none;text-decoration-line:none;letter-spacing:normal;word-spacing:normal;text-transform:none;writing-mode:lr-tb;direction:ltr;text-anchor:start;display:inline;overflow:visible;visibility:visible;fill:#000000;fill-opacity:1;stroke:none;stroke-width:2;marker:none;filter:url(#filter3657);enable-background:accumulate"
         id="rect3647"
         clip-path="url(#clipPath3649)"
         transform="translate(-104.944,948.42994)"
         inkscape:connector-curvature="0"
         d="m 14,9 c -2.752703,0 -5,2.247297 -5,5 v 68 c 0,2.752703 2.247297,5 5,5 h 68 c 2.752703,0 5,-2.247297 5,-5 V 14 C 87,11.247297 84.752703,9 82,9 Z m 0,2 h 68 c 1.679297,0 3,1.320703 3,3 v 68 c 0,1.679297 -1.320703,3 -3,3 H 14 c -1.679297,0 -3,-1.320703 -3,-3 V 14 c 0,-1.679297 1.320703,-3 3,-3 z" />
    </g>
    <path
       style="fill:none;fill-opacity:0.955556;fill-rule:nonzero;stroke:#000000;stroke-width:1.88916;stroke-linecap:round;stroke-miterlimit:4;stroke-dasharray:none;stroke-opacity:0.137255;paint-order:stroke fill markers"
       id="path5745"
       inkscape:connector-curvature="0"
       d="m 14.206298,964.45842 c -3.139775,0 -5.6674618,2.52769 -5.6674618,5.66747 v 68.00951 c 0,3.1398 2.5276868,5.6675 5.6674618,5.6675 h 68.009533 c 3.139773,0 5.667461,-2.5277 5.667461,-5.6675 v -68.00951 c 0,-3.13978 -2.527688,-5.66747 -5.667461,-5.66747 z m 1.889153,3.77831 h 64.231226 c 2.093182,0 3.778308,1.68512 3.778308,3.7783 v 64.23127 c 0,2.0932 -1.685126,3.7783 -3.778308,3.7783 H 16.095451 c -2.093182,0 -3.778307,-1.6851 -3.778307,-3.7783 v -64.23127 c 0,-2.09318 1.685125,-3.7783 3.778307,-3.7783 z" />
    <rect
       transform="matrix(0.98767547,0,0,0.98767547,0.80264393,956.49237)"
       width="86"
       height="85"
       rx="6"
       ry="6"
       x="5"
       y="7"
       clip-path="url(#clipPath3625)"
       id="rect3745-8"
       style="opacity:0.9;fill:url(#linearGradient20589);fill-opacity:1;fill-rule:nonzero;stroke:none;filter:url(#filter3174-20)" />
    <rect
       width="79.34446"
       height="79.34446"
       rx="5.6674609"
       ry="5.6674609"
       x="8.5388346"
       y="964.4585"
       id="rect2419"
       style="opacity:1;fill:url(#radialGradient2830);fill-opacity:1;fill-rule:nonzero;stroke:none;stroke-width:0.944576" />
    <path
       d="m 16.095451,968.23673 c -2.093182,0 -3.778307,1.68512 -3.778307,3.7783 v 64.23127 c 0,2.0932 1.685125,3.7783 3.778307,3.7783 h 64.231226 c 2.093182,0 3.778308,-1.6851 3.778308,-3.7783 v -64.23127 c 0,-2.09318 -1.685126,-3.7783 -3.778308,-3.7783 z m 0,2.89276 h 64.231226 c 0.546692,0 0.885541,0.33885 0.885541,0.88554 v 64.23127 c 0,0.5466 -0.338849,0.8855 -0.885541,0.8855 H 16.095451 c -0.546693,0 -0.885541,-0.3389 -0.885541,-0.8855 v -64.23127 c 0,-0.54669 0.338848,-0.88554 0.885541,-0.88554 z"
       inkscape:connector-curvature="0"
       id="rect3726"
       style="opacity:0.08;fill:#000000;fill-opacity:1;fill-rule:nonzero;stroke:none;stroke-width:0.944576" />
    <path
       d="m 14.206298,964.45842 c -3.139775,0 -5.6674618,2.52769 -5.6674618,5.66747 v 68.00951 c 0,3.1398 2.5276868,5.6675 5.6674618,5.6675 h 68.009533 c 3.139773,0 5.667461,-2.5277 5.667461,-5.6675 v -68.00951 c 0,-3.13978 -2.527688,-5.66747 -5.667461,-5.66747 z m 1.889153,3.77831 h 64.231226 c 2.093182,0 3.778308,1.68512 3.778308,3.7783 v 64.23127 c 0,2.0932 -1.685126,3.7783 -3.778308,3.7783 H 16.095451 c -2.093182,0 -3.778307,-1.6851 -3.778307,-3.7783 v -64.23127 c 0,-2.09318 1.685125,-3.7783 3.778307,-3.7783 z"
       inkscape:connector-curvature="0"
       id="rect3629"
       style="fill:#000000;fill-opacity:0.151852;fill-rule:nonzero;stroke:none;stroke-width:0.944576" />
    <path
       d="m 14.206298,1043.8029 c -3.139775,0 -5.6674618,-2.5277 -5.6674618,-5.6675 v -1.8891 -64.23127 -1.88914 c 0,-0.31617 0.039012,-0.61465 0.088508,-0.91507 0.046,-0.27921 0.091624,-0.56382 0.1771081,-0.8265 0.00945,-0.0287 0.019742,-0.0601 0.029472,-0.0886 0.093419,-0.27183 0.2218622,-0.51711 0.3542163,-0.76747 0.1365764,-0.25834 0.2981275,-0.50592 0.4722885,-0.73795 0.1741611,-0.23201 0.3530629,-0.44723 0.5608419,-0.6494 0.415567,-0.40434 0.890651,-0.76938 1.416866,-1.03313 0.263102,-0.13187 0.541686,-0.23326 0.826506,-0.32469 -0.242001,0.0947 -0.459735,0.22317 -0.678915,0.35421 -0.0065,0.004 -0.02258,-0.005 -0.02947,0 -0.03012,0.0182 -0.05885,0.0401 -0.08851,0.0591 -0.113726,0.0725 -0.218216,0.15444 -0.324698,0.23614 -0.100286,0.0763 -0.20146,0.15217 -0.295181,0.23613 -0.168068,0.15249 -0.328202,0.32626 -0.472288,0.50182 -0.101617,0.12304 -0.206286,0.25058 -0.295181,0.38373 -0.02371,0.0363 -0.03637,0.0812 -0.05904,0.11808 -0.06121,0.0973 -0.123012,0.19317 -0.177108,0.29517 -0.095413,0.18392 -0.1942813,0.39266 -0.265663,0.59036 -0.00755,0.0205 -0.022292,0.0384 -0.029471,0.0591 -0.030038,0.0867 -0.033816,0.17647 -0.059036,0.26567 -0.02862,0.1007 -0.066497,0.19177 -0.088508,0.29517 -0.06886,0.32259 -0.1180721,0.65952 -0.1180721,1.00362 v 1.88914 64.23118 1.8892 c 0,2.6276 2.0952131,4.7228 4.7228841,4.7228 h 1.889154 64.231225 1.889155 c 2.627671,0 4.722884,-2.0952 4.722884,-4.7228 v -1.8892 -64.23118 -1.88914 c 0,-0.3441 -0.04922,-0.68103 -0.118073,-1.00362 -0.04175,-0.19542 -0.08351,-0.37562 -0.14759,-0.56084 -0.0075,-0.0206 -0.02201,-0.0385 -0.02946,-0.0591 -0.05922,-0.16412 -0.130711,-0.34708 -0.206627,-0.50181 -0.03929,-0.0782 -0.07462,-0.16053 -0.118071,-0.23614 -0.05158,-0.0918 -0.119745,-0.1779 -0.177109,-0.26566 -0.08889,-0.13315 -0.193563,-0.26069 -0.295181,-0.38373 -0.135234,-0.16478 -0.286338,-0.32777 -0.442769,-0.47229 -0.01058,-0.01 -0.01888,-0.0199 -0.02946,-0.0295 -0.13072,-0.11859 -0.26929,-0.22143 -0.413253,-0.3247 -0.09689,-0.0691 -0.192996,-0.14486 -0.295179,-0.20662 -0.0066,-0.005 -0.02248,0.004 -0.02946,0 -0.21918,-0.13104 -0.436914,-0.25954 -0.678915,-0.35422 0.284817,0.0914 0.563393,0.19284 0.826504,0.32471 0.526214,0.26375 1.001299,0.6288 1.416866,1.03313 0.207779,0.20216 0.386681,0.41738 0.560842,0.6494 0.174162,0.23202 0.335712,0.4796 0.472289,0.73794 0.132353,0.25037 0.260826,0.49564 0.354216,0.76748 0.0098,0.0291 0.02012,0.0592 0.02946,0.0885 0.08549,0.26268 0.131108,0.54729 0.17711,0.8265 0.0495,0.30043 0.08851,0.5989 0.08851,0.91507 v 1.88915 64.23127 1.8891 c 0,3.1398 -2.527687,5.6675 -5.667461,5.6675 z"
       inkscape:connector-curvature="0"
       id="path3615"
       style="opacity:0.6;fill:url(#radialGradient20595);fill-opacity:1;fill-rule:nonzero;stroke:none;stroke-width:0.944576" />
    <path
       d="m 16.179793,968.23673 c -2.093183,0 -3.778307,1.68512 -3.778307,3.7783 v 64.23127 c 0,2.0932 1.685124,3.7783 3.778307,3.7783 h 64.231226 c 2.093181,0 3.778307,-1.6851 3.778307,-3.7783 v -64.23127 c 0,-2.09318 -1.685126,-3.7783 -3.778307,-3.7783 z m 0,1.88916 h 64.231226 c 1.0771,0 1.889154,0.81204 1.889154,1.88914 v 64.23127 c 0,1.0771 -0.812054,1.8891 -1.889154,1.8891 H 16.179793 c -1.07711,0 -1.889154,-0.812 -1.889154,-1.8891 v -64.23127 c 0,-1.0771 0.812044,-1.88914 1.889154,-1.88914 z"
       inkscape:connector-curvature="0"
       id="path3709"
       style="opacity:0.241;fill:#0f0f0f;fill-opacity:1;fill-rule:nonzero;stroke:none;stroke-width:0.944576" />
    <path
       inkscape:connector-curvature="0"
       style="opacity:0.2;stroke-width:1.00058"
       d="m 56.616012,1003.5224 c 2.847231,8.8052 8.287809,18.5739 19.611255,16.9366 -0.748756,-7.3648 -3.806218,-14.7799 -8.125209,-20.72989 -0.910452,-1.25427 -2.789046,-1.81035 -3.566115,-2.90259 z"
       id="path5632" />
    <path
       inkscape:connector-curvature="0"
       style="opacity:0.2;stroke-width:1.00058"
       d="m 52.175748,976.61474 c 6.72787,0.0992 20.199046,11.08218 21.868905,24.28966 0.480852,3.8033 -0.01273,7.8528 -1.258142,11.636 -0.688284,11.8727 -16.278554,19.4577 -26.015496,20.101 -11.912165,0.2807 -23.03761,-9.8542 -25.223951,-12.5744 -3.998512,-5.9134 1.660956,-18.661 6.710092,-26.08448 5.541007,-8.14664 15.870299,-14.07855 23.918592,-17.36778 z"
       id="path5634" />
    <path
       inkscape:connector-curvature="0"
       style="opacity:0.1;fill:#ffffff;stroke-width:1.00058"
       d="m 52.176249,975.61416 c 6.727869,0.0992 20.198256,11.0819 21.868115,24.2894 0.142651,1.12834 0.191121,2.27944 0.168066,3.43764 -0.01677,-0.8197 -0.06659,-1.6344 -0.168066,-2.437 -1.669859,-13.20757 -15.140246,-24.19028 -21.868115,-24.28946 -8.048294,3.28923 -18.377122,9.22081 -23.918128,17.36746 -3.725919,5.47801 -7.773402,13.8495 -8.037851,20.2402 -0.160593,-6.4939 4.11299,-15.47028 8.037851,-21.24078 5.541006,-8.14665 15.869834,-14.07823 23.918128,-17.36746 z"
       id="path5640" />
    <ellipse
       style="fill:#fcf8fd;stroke-width:1.00058"
       cx="-777.17059"
       cy="643.1767"
       rx="9.5925465"
       ry="12.258089"
       transform="matrix(-0.67816244,-0.73491204,-0.7242635,0.6895233,0,0)"
       id="ellipse5642" />
    <path
       inkscape:connector-curvature="0"
       style="opacity:0.2;stroke-width:1.00058"
       d="m 35.455409,992.624 c -8.879326,2.90535 -18.730045,8.457 -17.079058,20.0116 7.426712,-0.7641 14.904197,-3.8839 20.904262,-8.291 1.26482,-0.9292 1.825561,-2.846 2.926981,-3.639 z"
       id="path5644" />
    <path
       inkscape:connector-curvature="0"
       style="opacity:0.2;stroke-width:1.00058"
       d="m 56.215693,1002.6301 c -1.390428,6.037 10.600597,12.2631 16.616555,9.8453 2.895643,-1.1637 3.389083,-5.5945 3.267092,-9.061 -0.122967,-3.0704 0.185037,-4.00527 -2.888786,-4.29827 -5.821462,-0.53932 -16.383881,0.86108 -16.994861,3.51397 z"
       id="path5648" />
    <path
       inkscape:connector-curvature="0"
       style="fill:#ffc102;stroke-width:1.00058"
       d="m 56.326931,1001.2553 c -1.390431,6.0371 10.600597,12.263 16.616553,9.8453 2.895644,-1.1638 3.389083,-5.5945 3.267092,-9.061 -0.122966,-3.07036 0.185038,-4.00525 -2.888785,-4.29828 -5.821463,-0.53931 -16.383881,0.8611 -16.99486,3.51398 z"
       id="path5650" />
    <circle
       style="opacity:0.2;stroke-width:1.00058"
       cx="72.224953"
       cy="994.62512"
       r="6.0034714"
       id="circle5652" />
    <circle
       style="opacity:0.2;stroke-width:1.00058"
       cx="59.217426"
       cy="993.62463"
       r="9.005208"
       id="circle5654" />
    <circle
       style="fill:#ffffff;stroke-width:1.00058"
       cx="72.224953"
       cy="993.62463"
       r="6.0034714"
       id="circle5656" />
    <circle
       style="fill:#ffffff;stroke-width:1.00058"
       cx="59.217426"
       cy="992.62396"
       r="9.005208"
       id="circle5658" />
    <circle
       style="fill:#3f3f3f;stroke-width:1.00058"
       cx="62.21917"
       cy="993.62463"
       r="4.0023146"
       id="circle5660" />
    <circle
       style="fill:#3f3f3f;stroke-width:1.00058"
       cx="73.225533"
       cy="993.62463"
       r="3.0017357"
       id="circle5662" />
    <path
       style="opacity:0.6;fill:url(#radialGradient5727);fill-opacity:1;fill-rule:nonzero;stroke:none;stroke-width:0.944576"
       id="path5725"
       inkscape:connector-curvature="0"
       d="m 14.206298,964.50021 c -3.139775,0 -5.6674618,2.52768 -5.6674618,5.66746 v 1.88915 64.23128 1.8892 c 0,0.3162 0.039012,0.6146 0.088508,0.9149 0.046,0.2792 0.091624,0.5641 0.1771081,0.8266 0.00945,0.029 0.019742,0.06 0.029472,0.089 0.093419,0.2718 0.2218622,0.5171 0.3542163,0.7673 0.1365764,0.2585 0.2981275,0.5061 0.4722885,0.7382 0.1741611,0.2319 0.3530629,0.4472 0.5608419,0.6493 0.415567,0.4044 0.890651,0.7693 1.416866,1.033 0.263102,0.1321 0.541686,0.2334 0.826506,0.3248 -0.242001,-0.094 -0.459735,-0.2232 -0.678915,-0.3543 -0.0065,0 -0.02258,0 -0.02947,0 -0.03012,-0.018 -0.05885,-0.04 -0.08851,-0.059 -0.113726,-0.072 -0.218216,-0.1546 -0.324698,-0.2362 -0.100286,-0.076 -0.20146,-0.1522 -0.295181,-0.2362 -0.168068,-0.1525 -0.328202,-0.3262 -0.472288,-0.5019 -0.101617,-0.1229 -0.206286,-0.2504 -0.295181,-0.3837 -0.02371,-0.037 -0.03637,-0.081 -0.05904,-0.118 -0.06121,-0.097 -0.123012,-0.1932 -0.177108,-0.2952 -0.095413,-0.1839 -0.1942813,-0.3927 -0.265663,-0.5903 -0.00755,-0.021 -0.022292,-0.039 -0.029471,-0.06 -0.030038,-0.087 -0.033816,-0.1765 -0.059036,-0.2657 -0.02862,-0.1006 -0.066497,-0.1917 -0.088508,-0.2951 -0.06886,-0.3226 -0.1180721,-0.6596 -0.1180721,-1.0036 v -1.8893 -64.23114 -1.88914 c 0,-2.62763 2.0952131,-4.72289 4.7228841,-4.72289 h 1.889154 64.231225 1.889155 c 2.627671,0 4.722884,2.09526 4.722884,4.72289 v 1.88914 64.23114 1.8893 c 0,0.344 -0.04922,0.681 -0.118073,1.0036 -0.04175,0.1954 -0.08351,0.3757 -0.14759,0.5608 -0.0075,0.021 -0.02201,0.039 -0.02946,0.06 -0.05922,0.1639 -0.130711,0.347 -0.206627,0.5016 -0.03929,0.078 -0.07462,0.1607 -0.118071,0.2363 -0.05158,0.092 -0.119745,0.1779 -0.177109,0.2656 -0.08889,0.1333 -0.193563,0.2608 -0.295181,0.3837 -0.135234,0.1649 -0.286338,0.3277 -0.442769,0.4723 -0.01058,0.01 -0.01888,0.02 -0.02946,0.03 -0.13072,0.1186 -0.26929,0.2215 -0.413253,0.3248 -0.09689,0.068 -0.192996,0.1449 -0.295179,0.2065 -0.0066,0 -0.02248,0 -0.02946,0 -0.21918,0.1311 -0.436914,0.2595 -0.678915,0.3542 0.284817,-0.091 0.563393,-0.1927 0.826504,-0.3246 0.526214,-0.2638 1.001299,-0.6288 1.416866,-1.0332 0.207779,-0.2021 0.386681,-0.4173 0.560842,-0.6493 0.174162,-0.2321 0.335712,-0.4797 0.472289,-0.738 0.132353,-0.2504 0.260826,-0.4956 0.354216,-0.7674 0.0098,-0.03 0.02012,-0.061 0.02946,-0.089 0.08549,-0.2627 0.131108,-0.5475 0.17711,-0.8266 0.0495,-0.3005 0.08851,-0.5988 0.08851,-0.9151 v -1.8892 -64.23116 -1.88915 c 0,-3.13978 -2.527687,-5.66746 -5.667461,-5.66746 z" />
    <path
       style="opacity:0.658;fill:url(#radialGradient5731);fill-opacity:1;fill-rule:nonzero;stroke:none;stroke-width:0.944576"
       id="path5729"
       inkscape:connector-curvature="0"
       d="m 8.7012701,970.2882 c 0,-3.13977 2.5276879,-5.66747 5.6674609,-5.66747 h 1.889154 64.231246 1.889153 c 0.316169,0 0.614636,0.039 0.91506,0.0886 0.279215,0.0461 0.563826,0.0916 0.826502,0.1771 0.02872,0.01 0.06009,0.0198 0.08851,0.0295 0.271821,0.0934 0.517109,0.22187 0.767469,0.35421 0.25835,0.13658 0.505925,0.29814 0.737951,0.4723 0.232016,0.17416 0.447229,0.35306 0.649396,0.56083 0.404336,0.41558 0.769387,0.89065 1.033131,1.41688 0.131872,0.26309 0.233263,0.54168 0.324699,0.8265 -0.09467,-0.242 -0.223176,-0.45973 -0.354218,-0.67892 -0.0038,-0.007 0.0047,-0.0225 0,-0.0295 -0.01823,-0.0301 -0.04014,-0.0589 -0.05903,-0.0885 -0.07245,-0.11372 -0.154447,-0.21822 -0.236145,-0.32471 -0.07632,-0.10027 -0.152181,-0.20145 -0.236143,-0.29517 -0.152483,-0.16808 -0.326248,-0.32821 -0.501808,-0.47228 -0.123039,-0.10163 -0.250586,-0.2063 -0.383733,-0.29518 -0.03628,-0.0237 -0.08114,-0.0364 -0.118073,-0.0591 -0.09732,-0.0612 -0.193183,-0.123 -0.295179,-0.1771 -0.18392,-0.0955 -0.392661,-0.19428 -0.590361,-0.26567 -0.02059,-0.008 -0.03835,-0.0224 -0.05903,-0.0294 -0.08682,-0.03 -0.176476,-0.0338 -0.265663,-0.0591 -0.10071,-0.0286 -0.191777,-0.0665 -0.295179,-0.0885 -0.322583,-0.0689 -0.659514,-0.11808 -1.003613,-0.11808 H 81.43366 17.202461 15.313307 c -2.627623,0 -4.722884,2.09523 -4.722884,4.72289 v 1.88916 64.23131 1.8891 c 0,2.6276 2.095261,4.7228 4.722884,4.7228 h 1.889154 64.231199 1.889154 c 0.3441,0 0.68103,-0.049 1.003613,-0.1181 0.195424,-0.041 0.37562,-0.084 0.560842,-0.1474 0.02069,-0.01 0.03844,-0.022 0.05903,-0.03 0.164111,-0.06 0.347085,-0.1307 0.501807,-0.2068 0.07821,-0.04 0.16053,-0.074 0.236144,-0.118 0.09182,-0.053 0.177911,-0.1199 0.265662,-0.1772 0.133148,-0.089 0.260694,-0.1934 0.383734,-0.295 0.164782,-0.1353 0.327768,-0.2864 0.472289,-0.4428 0.0096,-0.011 0.01993,-0.019 0.02946,-0.03 0.118601,-0.1307 0.221446,-0.2692 0.324699,-0.4131 0.06906,-0.097 0.144859,-0.1931 0.206625,-0.2953 0.0047,-0.01 -0.0038,-0.023 0,-0.03 0.13104,-0.2191 0.259551,-0.4369 0.354216,-0.6788 -0.09144,0.2848 -0.192825,0.5633 -0.324699,0.8264 -0.263745,0.5262 -0.628795,1.0013 -1.03313,1.4169 -0.202168,0.2079 -0.417381,0.3867 -0.649398,0.5608 -0.232024,0.1741 -0.479597,0.3357 -0.73795,0.4724 -0.25036,0.1323 -0.495647,0.2607 -0.767468,0.3543 -0.02909,0.01 -0.05922,0.02 -0.08851,0.03 -0.262677,0.086 -0.547289,0.1311 -0.826506,0.1771 -0.300422,0.049 -0.59889,0.089 -0.915059,0.089 H 80.489083 16.257885 14.368731 c -3.139773,0 -5.6674609,-2.5277 -5.6674609,-5.6675 z" />
    <path
       d="m 87.721,970.2882 c 0,-3.13977 -2.527688,-5.66747 -5.667461,-5.66747 H 80.164384 15.933139 14.043986 c -0.316169,0 -0.614637,0.039 -0.91506,0.0886 -0.279216,0.0461 -0.563826,0.0916 -0.826504,0.1771 -0.02871,0.01 -0.06007,0.0198 -0.08851,0.0295 -0.271821,0.0934 -0.517109,0.22187 -0.767469,0.35421 -0.25835,0.13658 -0.505924,0.29814 -0.737951,0.4723 -0.232016,0.17416 -0.447228,0.35306 -0.649396,0.56083 -0.4043356,0.41558 -0.7693861,0.89065 -1.033131,1.41688 -0.1318723,0.26309 -0.2332632,0.54168 -0.3246983,0.8265 0.094665,-0.242 0.2231753,-0.45973 0.3542164,-0.67892 0.00378,-0.007 -0.00472,-0.0225 0,-0.0295 0.018231,-0.0301 0.040145,-0.0589 0.059036,-0.0885 0.072449,-0.11372 0.1544478,-0.21822 0.2361441,-0.32471 0.076322,-0.10027 0.1521808,-0.20145 0.2361443,-0.29517 0.152483,-0.16808 0.3262474,-0.32821 0.5018065,-0.47228 0.123041,-0.10163 0.250587,-0.2063 0.383734,-0.29518 0.03627,-0.0237 0.08114,-0.0364 0.118072,-0.0591 0.09732,-0.0612 0.193185,-0.123 0.29518,-0.1771 0.18392,-0.0955 0.392662,-0.19428 0.590362,-0.26567 0.0206,-0.008 0.03835,-0.0224 0.05903,-0.0294 0.08681,-0.03 0.176475,-0.0338 0.265662,-0.0591 0.100712,-0.0286 0.191778,-0.0665 0.295181,-0.0885 0.322582,-0.0689 0.659512,-0.11808 1.003612,-0.11808 h 1.889154 64.231198 1.889154 c 2.627623,0 4.722883,2.09523 4.722883,4.72289 v 1.88916 64.23131 1.8891 c 0,2.6276 -2.09526,4.7228 -4.722883,4.7228 H 79.219808 14.98861 13.099456 c -0.3441,0 -0.681031,-0.049 -1.003613,-0.1181 -0.195424,-0.041 -0.37562,-0.084 -0.560843,-0.1474 -0.02069,-0.01 -0.03844,-0.022 -0.05903,-0.03 -0.164111,-0.06 -0.347085,-0.1307 -0.501807,-0.2068 -0.0782,-0.04 -0.160531,-0.074 -0.236144,-0.118 -0.09181,-0.053 -0.177911,-0.1199 -0.265662,-0.1772 -0.133148,-0.089 -0.260694,-0.1934 -0.383735,-0.295 -0.1647814,-0.1353 -0.327768,-0.2864 -0.4722883,-0.4428 -0.00963,-0.011 -0.019931,-0.019 -0.029471,-0.03 -0.1186011,-0.1307 -0.2214466,-0.2692 -0.3246983,-0.4131 -0.069049,-0.097 -0.1448603,-0.1931 -0.2066262,-0.2953 -0.00472,-0.01 0.00378,-0.023 0,-0.03 -0.1310411,-0.2191 -0.2595509,-0.4369 -0.3542162,-0.6788 0.091436,0.2848 0.1928258,0.5633 0.3246982,0.8264 0.2637448,0.5262 0.6287953,1.0013 1.0331308,1.4169 0.202168,0.2079 0.417381,0.3867 0.649397,0.5608 0.232026,0.1741 0.479599,0.3357 0.737951,0.4724 0.25036,0.1323 0.495649,0.2607 0.767469,0.3543 0.02909,0.01 0.05923,0.02 0.08851,0.03 0.262676,0.086 0.547286,0.1311 0.826505,0.1771 0.300423,0.049 0.598889,0.089 0.915058,0.089 h 1.889155 64.231197 1.889155 c 3.139773,0 5.667461,-2.5277 5.667461,-5.6675 z"
       inkscape:connector-curvature="0"
       id="path5733"
       style="opacity:0.695;fill:url(#radialGradient5735);fill-opacity:1;fill-rule:nonzero;stroke:none;stroke-width:0.944576" />
  </g>
</svg>
