<?xml version="1.0" encoding="UTF-8" standalone="no"?>
<svg
   xmlns:dc="http://purl.org/dc/elements/1.1/"
   xmlns:cc="http://creativecommons.org/ns#"
   xmlns:rdf="http://www.w3.org/1999/02/22-rdf-syntax-ns#"
   xmlns:svg="http://www.w3.org/2000/svg"
   xmlns="http://www.w3.org/2000/svg"
   xmlns:xlink="http://www.w3.org/1999/xlink"
   xmlns:sodipodi="http://sodipodi.sourceforge.net/DTD/sodipodi-0.dtd"
   xmlns:inkscape="http://www.inkscape.org/namespaces/inkscape"
   inkscape:export-ydpi="960"
   inkscape:export-xdpi="960"
   inkscape:export-filename="/home/uri/printer.png"
   sodipodi:docname="Icon217.svg"
   inkscape:version="1.0beta2 (2b71d25d45, 2019-12-03)"
   version="1.1"
   id="svg4230"
   height="48"
   width="48">
  <defs
     id="defs4232">
    <pattern
       patternTransform="matrix(0.83459372,-0.83853718,1.315018,1.3088339,-1.4692056,1001.3929)"
       id="pattern2864"
       xlink:href="#Strips1_1"
       inkscape:collect="always" />
    <pattern
       inkscape:collect="always"
       patternUnits="userSpaceOnUse"
       width="2"
       height="1"
       patternTransform="translate(0,0) scale(10,10)"
       id="Strips1_1"
       inkscape:stockid="Stripes 1:1">
      <rect
         style="fill:black;stroke:none"
         x="0"
         y="-0.5"
         width="1"
         height="2"
         id="rect1906" />
    </pattern>
    <linearGradient
       id="linearGradient3906"
       inkscape:collect="always">
      <stop
         id="stop3908"
         offset="0"
         style="stop-color:#ffffff;stop-opacity:1;" />
      <stop
         id="stop3910"
         offset="1"
         style="stop-color:#ffffff;stop-opacity:0;" />
    </linearGradient>
    <linearGradient
       id="linearGradient3858">
      <stop
         id="stop3860"
         offset="0"
         style="stop-color:#424f66;stop-opacity:1;" />
      <stop
         id="stop3862"
         offset="1"
         style="stop-color:#3b465e;stop-opacity:1;" />
    </linearGradient>
    <linearGradient
       id="linearGradient6480"
       inkscape:collect="always">
      <stop
         id="stop6482"
         offset="0"
         style="stop-color:#2ecc71;stop-opacity:1;" />
      <stop
         id="stop6484"
         offset="1"
         style="stop-color:#2ecc71;stop-opacity:0;" />
    </linearGradient>
    <linearGradient
       id="linearGradient6466"
       inkscape:collect="always">
      <stop
         id="stop6468"
         offset="0"
         style="stop-color:#000000;stop-opacity:1;" />
      <stop
         id="stop6470"
         offset="1"
         style="stop-color:#000000;stop-opacity:0;" />
    </linearGradient>
    <linearGradient
       id="linearGradient4317"
       inkscape:collect="always">
      <stop
         id="stop4319"
         offset="0"
         style="stop-color:#000000;stop-opacity:1;" />
      <stop
         id="stop4321"
         offset="1"
         style="stop-color:#000000;stop-opacity:0;" />
    </linearGradient>
    <linearGradient
       id="linearGradient4295"
       inkscape:collect="always">
      <stop
         id="stop4297"
         offset="0"
         style="stop-color:#000000;stop-opacity:1;" />
      <stop
         id="stop4299"
         offset="1"
         style="stop-color:#000000;stop-opacity:0;" />
    </linearGradient>
    <linearGradient
       id="linearGradient4243">
      <stop
         id="stop4245"
         offset="0"
         style="stop-color:#000000;stop-opacity:1;" />
      <stop
         id="stop4247"
         offset="1"
         style="stop-color:#000000;stop-opacity:0;" />
    </linearGradient>
    <linearGradient
       id="linearGradient3068">
      <stop
         id="stop3070"
         offset="0"
         style="stop-color:#f1efee;stop-opacity:1;" />
      <stop
         id="stop3072"
         offset="1"
         style="stop-color:#f6f6fa;stop-opacity:1;" />
    </linearGradient>
    <linearGradient
       gradientUnits="userSpaceOnUse"
       y2="1041.3622"
       x2="21"
       y1="1035.3622"
       x1="21"
       id="linearGradient4301"
       xlink:href="#linearGradient4295"
       inkscape:collect="always" />
    <linearGradient
       gradientUnits="userSpaceOnUse"
       y2="33"
       x2="25"
       y1="23"
       x1="25"
       id="linearGradient4323"
       xlink:href="#linearGradient4317"
       inkscape:collect="always" />
    <linearGradient
       gradientUnits="userSpaceOnUse"
       y2="16"
       x2="24"
       y1="43"
       x1="24"
       id="linearGradient4344"
       xlink:href="#linearGradient4524-8"
       inkscape:collect="always" />
    <linearGradient
       gradientUnits="userSpaceOnUse"
       y2="1015.3622"
       x2="33"
       y1="1025.3622"
       x1="33"
       id="linearGradient4555"
       xlink:href="#linearGradient4524-8"
       inkscape:collect="always" />
    <linearGradient
       id="linearGradient4524-8">
      <stop
         style="stop-color:#565656;stop-opacity:1;"
         offset="0"
         id="stop4526-1" />
      <stop
         style="stop-color:#6a6a6a;stop-opacity:1;"
         offset="1"
         id="stop4528-7" />
    </linearGradient>
    <linearGradient
       id="linearGradient4524">
      <stop
         style="stop-color:#1b96d4;stop-opacity:1;"
         offset="0"
         id="stop4526" />
      <stop
         style="stop-color:#27b7ff;stop-opacity:1;"
         offset="1"
         id="stop4528" />
    </linearGradient>
    <linearGradient
       gradientUnits="userSpaceOnUse"
       y2="1023.3622"
       x2="32"
       y1="1016.3622"
       x1="32"
       id="linearGradient6420"
       xlink:href="#linearGradient4524"
       inkscape:collect="always" />
    <linearGradient
       gradientUnits="userSpaceOnUse"
       y2="24"
       x2="26"
       y1="43"
       x1="26"
       id="linearGradient6472"
       xlink:href="#linearGradient6466"
       inkscape:collect="always" />
    <radialGradient
       gradientUnits="userSpaceOnUse"
       r="2"
       fy="1027.3622"
       fx="10"
       cy="1027.3622"
       cx="10"
       id="radialGradient6486"
       xlink:href="#linearGradient6480"
       inkscape:collect="always" />
    <linearGradient
       gradientUnits="userSpaceOnUse"
       y2="1009.3622"
       x2="43"
       y1="1044.3622"
       x1="6"
       id="linearGradient3864"
       xlink:href="#linearGradient3858"
       inkscape:collect="always" />
    <linearGradient
       gradientTransform="translate(0,-1004.3622)"
       y2="1009.3622"
       x2="43"
       y1="1044.3622"
       x1="6"
       gradientUnits="userSpaceOnUse"
       id="linearGradient3887"
       xlink:href="#linearGradient3858"
       inkscape:collect="always" />
    <linearGradient
       gradientUnits="userSpaceOnUse"
       y2="20"
       x2="20"
       y1="6"
       x1="8"
       id="linearGradient3912"
       xlink:href="#linearGradient3906"
       inkscape:collect="always" />
  </defs>
  <sodipodi:namedview
     inkscape:document-rotation="0"
     inkscape:snap-global="false"
     inkscape:guide-bbox="true"
     showguides="false"
     inkscape:window-maximized="1"
     inkscape:window-y="21"
     inkscape:window-x="0"
     inkscape:window-height="1027"
     inkscape:window-width="1920"
     borderlayer="true"
     inkscape:showpageshadow="false"
     showgrid="false"
     inkscape:current-layer="g911"
     inkscape:document-units="px"
     inkscape:cy="28.99535"
     inkscape:cx="23.997622"
     inkscape:zoom="5.9609382"
     inkscape:pageshadow="2"
     inkscape:pageopacity="0.0"
     borderopacity="1.0"
     bordercolor="#666666"
     pagecolor="#ffffff"
     id="base">
    <inkscape:grid
       id="grid4162"
       type="xygrid" />
    <sodipodi:guide
       inkscape:locked="false"
       id="guide4163"
       orientation="46,0"
       position="1.0000013,47.000017" />
    <sodipodi:guide
       inkscape:locked="false"
       id="guide4165"
       orientation="0,45.999999"
       position="1.0000013,1.0000174" />
    <sodipodi:guide
       inkscape:locked="false"
       id="guide4167"
       orientation="-46,0"
       position="47,1.0000174" />
    <sodipodi:guide
       inkscape:locked="false"
       id="guide4169"
       orientation="0,-45.999999"
       position="47,47.000017" />
    <sodipodi:guide
       inkscape:locked="false"
       id="guide4173"
       orientation="44,0"
       position="2.0000007,46.000017" />
    <sodipodi:guide
       inkscape:locked="false"
       id="guide4175"
       orientation="0,43.999999"
       position="2.0000007,2.0000174" />
    <sodipodi:guide
       inkscape:locked="false"
       id="guide4177"
       orientation="-44,0"
       position="46,2.0000174" />
    <sodipodi:guide
       inkscape:locked="false"
       id="guide4179"
       orientation="0,-43.999999"
       position="46,46.000017" />
    <sodipodi:guide
       inkscape:locked="false"
       id="guide4183"
       orientation="42,0"
       position="3,45.000017" />
    <sodipodi:guide
       inkscape:locked="false"
       id="guide4187"
       orientation="-42,0"
       position="45,3.0000174" />
    <sodipodi:guide
       inkscape:locked="false"
       id="guide4189"
       orientation="0,-42"
       position="45,45.000017" />
    <sodipodi:guide
       inkscape:locked="false"
       id="guide4193"
       orientation="42,0"
       position="3,45.000017" />
    <sodipodi:guide
       inkscape:locked="false"
       id="guide4195"
       orientation="0,42"
       position="3,3.0000174" />
    <sodipodi:guide
       inkscape:locked="false"
       id="guide4197"
       orientation="-42,0"
       position="45,3.0000174" />
    <sodipodi:guide
       inkscape:locked="false"
       id="guide4199"
       orientation="0,-42"
       position="45,45.000017" />
    <sodipodi:guide
       inkscape:locked="false"
       id="guide4203"
       orientation="7,0"
       position="3,10.000017" />
    <sodipodi:guide
       inkscape:locked="false"
       id="guide4205"
       orientation="0,42"
       position="3,3.0000174" />
    <sodipodi:guide
       inkscape:locked="false"
       id="guide4207"
       orientation="-7,0"
       position="45,3.0000174" />
    <sodipodi:guide
       inkscape:locked="false"
       id="guide4209"
       orientation="0,-42"
       position="45,10.000017" />
  </sodipodi:namedview>
  <metadata
     id="metadata4235">
    <rdf:RDF>
      <cc:Work
         rdf:about="">
        <dc:format>image/svg+xml</dc:format>
        <dc:type
           rdf:resource="http://purl.org/dc/dcmitype/StillImage" />
        <dc:title />
        <dc:date>2019</dc:date>
        <dc:creator>
          <cc:Agent>
            <dc:title>Cristian Pozzessere  &lt; ilnanny &gt;</dc:title>
          </cc:Agent>
        </dc:creator>
        <dc:description>Playing with Inkscape on Gnu/Linux O. S.</dc:description>
        <dc:contributor>
          <cc:Agent>
            <dc:title>In the night, alone like a dog.</dc:title>
          </cc:Agent>
        </dc:contributor>
        <cc:license
           rdf:resource="http://creativecommons.org/licenses/by-sa/4.0/" />
      </cc:Work>
      <cc:License
         rdf:about="http://creativecommons.org/licenses/by-sa/4.0/">
        <cc:permits
           rdf:resource="http://creativecommons.org/ns#Reproduction" />
        <cc:permits
           rdf:resource="http://creativecommons.org/ns#Distribution" />
        <cc:requires
           rdf:resource="http://creativecommons.org/ns#Notice" />
        <cc:requires
           rdf:resource="http://creativecommons.org/ns#Attribution" />
        <cc:permits
           rdf:resource="http://creativecommons.org/ns#DerivativeWorks" />
        <cc:requires
           rdf:resource="http://creativecommons.org/ns#ShareAlike" />
      </cc:License>
    </rdf:RDF>
  </metadata>
  <g
     style="display:inline"
     inkscape:label="Fake blur shadow"
     id="layer3"
     inkscape:groupmode="layer" />
  <g
     style="display:inline"
     inkscape:label="Blob"
     id="layer6"
     inkscape:groupmode="layer" />
  <g
     style="display:inline"
     inkscape:label="Baseplate"
     id="layer2"
     inkscape:groupmode="layer" />
  <g
     style="display:inline"
     transform="translate(0,-1004.3622)"
     id="layer1"
     inkscape:groupmode="layer"
     inkscape:label="Symbol">
    <g
       transform="matrix(0.98958333,0,0,0.98958333,-0.49218742,11.454297)"
       id="g911">
      <g
         style="opacity:1"
         id="g930">
        <path
           id="path932"
           d="m 12.277344,1004.5801 c -5.8410334,0 -9.7935696,4.7644 -9.9375002,10.5449 L 1.71875,1040.0684 c -0.1458002,5.8555 4.7177999,10.5761 10.558594,10.5761 h 24.945312 c 5.840884,0 10.759225,-4.7199 10.558594,-10.58 l -0.853516,-24.9434 c -0.09854,-2.8781 -1.034819,-5.5031 -2.703125,-7.4238 -1.668487,-1.921 -4.081338,-3.1172 -7.001953,-3.1172 z m 0,0.1015 h 24.945312 c 2.893059,0 5.273315,1.1818 6.923828,3.0821 1.650692,1.9004 2.581827,4.503 2.679688,7.3613 l 0.853516,24.9434 c 0.198635,5.8018 -4.67057,10.4746 -10.457032,10.4746 H 12.277344 c -5.7863694,0 -10.6014063,-4.6725 -10.4570315,-10.4707 l 0.6210937,-24.9434 c 0.1428214,-5.7359 4.0498077,-10.4473 9.8359378,-10.4473 z m 0,0.92 c -5.2919502,0 -8.7850422,4.2103 -8.917969,9.5488 l -0.6210938,24.9434 c -0.1313969,5.277 4.2468228,9.5292 9.5390628,9.5292 h 24.945312 c 5.292155,0 9.71951,-4.2528 9.539063,-9.5234 l -0.855469,-24.9434 c -0.09168,-2.6778 -0.963525,-5.074 -2.453125,-6.789 -1.489375,-1.7148 -3.58457,-2.7656 -6.230469,-2.7656 z m 0,0.1015 h 24.945312 c 2.6192,0 4.680279,1.0357 6.152344,2.7305 1.471842,1.6946 2.338685,4.0686 2.429688,6.7266 l 0.855468,24.9433 c 0.178449,5.2122 -4.19946,9.418 -9.4375,9.418 H 12.277344 c -5.2381413,0 -9.5674733,-4.2039 -9.4375002,-9.4238 l 0.6210937,-24.9434 c 0.131866,-5.2959 3.5779754,-9.4512 8.8164065,-9.4512 z"
           style="color:#000000;font-style:normal;font-variant:normal;font-weight:normal;font-stretch:normal;font-size:medium;line-height:normal;font-family:sans-serif;font-variant-ligatures:normal;font-variant-position:normal;font-variant-caps:normal;font-variant-numeric:normal;font-variant-alternates:normal;font-variant-east-asian:normal;font-feature-settings:normal;font-variation-settings:normal;text-indent:0;text-align:start;text-decoration:none;text-decoration-line:none;text-decoration-style:solid;text-decoration-color:#000000;letter-spacing:normal;word-spacing:normal;text-transform:none;writing-mode:lr-tb;direction:ltr;text-orientation:mixed;dominant-baseline:auto;baseline-shift:baseline;text-anchor:start;white-space:normal;shape-padding:0;shape-margin:0;inline-size:0;clip-rule:nonzero;display:inline;overflow:visible;visibility:visible;isolation:auto;mix-blend-mode:normal;color-interpolation:sRGB;color-interpolation-filters:linearRGB;solid-color:#000000;solid-opacity:1;vector-effect:none;fill:#000000;fill-opacity:0.15;fill-rule:nonzero;stroke:none;stroke-width:1.01053;stroke-linecap:butt;stroke-linejoin:miter;stroke-miterlimit:4;stroke-dasharray:none;stroke-dashoffset:0;stroke-opacity:1.0;anonymous:0;color-rendering:auto;image-rendering:auto;shape-rendering:auto;text-rendering:auto;enable-background:accumulate;stop-color:#000000;stop-opacity:1;" />
        <path
           sodipodi:nodetypes="sssssscccss"
           inkscape:connector-curvature="0"
           id="path934"
           d="m 12.277344,1004.6953 c -4.143366,0 -6.543361,2.0261 -8.2577785,5.1999 -0.8161371,1.5109 -1.5526394,3.0504 -1.6421349,4.9852 l -1.16454,25.1762 c -0.28387705,6.1371 4.9514192,11.0938 11.0644534,11.0938 h 24.945312 c 6.11308,0 11.275064,-4.9519 11.064453,-11.1035 l -1.629867,-24.9434 c -0.101924,-2.977 -1.14937,-5.7162 -2.90576,-7.7383 -1.758532,-2.0246 -3.47025,-2.6699 -6.528826,-2.6699 z"
           style="color:#000000;font-style:normal;font-variant:normal;font-weight:normal;font-stretch:normal;font-size:medium;line-height:normal;font-family:sans-serif;font-variant-ligatures:normal;font-variant-position:normal;font-variant-caps:normal;font-variant-numeric:normal;font-variant-alternates:normal;font-variant-east-asian:normal;font-feature-settings:normal;font-variation-settings:normal;text-indent:0;text-align:start;text-decoration:none;text-decoration-line:none;text-decoration-style:solid;text-decoration-color:#000000;letter-spacing:normal;word-spacing:normal;text-transform:none;writing-mode:lr-tb;direction:ltr;text-orientation:mixed;dominant-baseline:auto;baseline-shift:baseline;text-anchor:start;white-space:normal;shape-padding:0;shape-margin:0;inline-size:0;clip-rule:nonzero;display:inline;overflow:visible;visibility:visible;isolation:auto;mix-blend-mode:normal;color-interpolation:sRGB;color-interpolation-filters:linearRGB;solid-color:#000000;solid-opacity:1;vector-effect:none;fill:#000000;fill-opacity:0.15;fill-rule:nonzero;stroke:none;stroke-width:1.01053;stroke-linecap:butt;stroke-linejoin:miter;stroke-miterlimit:4;stroke-dasharray:none;stroke-dashoffset:0;stroke-opacity:1;color-rendering:auto;image-rendering:auto;shape-rendering:auto;text-rendering:auto;enable-background:accumulate;stop-color:#000000;stop-opacity:1" />
      </g>
      <path
         id="path922"
         d="M 12.277344 1004.6309 C 6.4637625 1004.6309 2.534001 1009.3688 2.390625 1015.127 L 1.7695312 1040.0703 C 1.6244437 1045.8972 6.4637625 1050.5938 12.277344 1050.5938 L 37.222656 1050.5938 C 43.036329 1050.5938 47.930102 1045.8974 47.730469 1040.0664 L 46.876953 1015.123 C 46.778753 1012.2548 45.845046 1009.6411 44.185547 1007.7305 C 42.526047 1005.8199 40.129493 1004.6309 37.222656 1004.6309 L 12.277344 1004.6309 z M 12.277344 1005.6523 L 37.222656 1005.6523 C 39.855205 1005.6523 41.933342 1006.6956 43.414062 1008.4004 C 44.894783 1010.1052 45.764127 1012.4903 45.855469 1015.1582 L 46.710938 1040.1016 C 46.890386 1045.343 42.487753 1049.5723 37.222656 1049.5723 L 12.277344 1049.5723 C 7.0121536 1049.5723 2.6583775 1045.3442 2.7890625 1040.0957 L 3.4101562 1015.1523 C 3.5425526 1009.8351 7.0121536 1005.6523 12.277344 1005.6523 z "
         style="color:#000000;font-style:normal;font-variant:normal;font-weight:normal;font-stretch:normal;font-size:medium;line-height:normal;font-family:sans-serif;font-variant-ligatures:normal;font-variant-position:normal;font-variant-caps:normal;font-variant-numeric:normal;font-variant-alternates:normal;font-variant-east-asian:normal;font-feature-settings:normal;font-variation-settings:normal;text-indent:0;text-align:start;text-decoration:none;text-decoration-line:none;text-decoration-style:solid;text-decoration-color:#000000;letter-spacing:normal;word-spacing:normal;text-transform:none;writing-mode:lr-tb;direction:ltr;text-orientation:mixed;dominant-baseline:auto;baseline-shift:baseline;text-anchor:start;white-space:normal;shape-padding:0;shape-margin:0;inline-size:0;clip-rule:nonzero;display:inline;overflow:visible;visibility:visible;isolation:auto;mix-blend-mode:normal;color-interpolation:sRGB;color-interpolation-filters:linearRGB;solid-color:#000000;solid-opacity:1;vector-effect:none;fill:#000000;fill-opacity:0.3;fill-rule:nonzero;stroke:none;stroke-width:1.02139;stroke-linecap:butt;stroke-linejoin:miter;stroke-miterlimit:4;stroke-dasharray:none;stroke-dashoffset:0;stroke-opacity:1;anonymous:0;color-rendering:auto;image-rendering:auto;shape-rendering:auto;text-rendering:auto;enable-background:accumulate;stop-color:#000000;stop-opacity:1;opacity:1" />
      <path
         sodipodi:nodetypes="sssssssss"
         inkscape:connector-curvature="0"
         d="m 12.179466,1006.8252 h 25.063433 c 4.985447,0 8.22265,4.0623 8.22265,9.1084 v 20.5728 c 0,5.0461 -4.013555,9.1084 -8.999002,9.1084 H 13.033453 c -4.9854474,0 -8.9990025,-4.0623 -8.9990025,-9.1084 v -20.5728 c 0,-5.0461 3.1595682,-9.1084 8.1450155,-9.1084 z"
         style="color:#000000;text-decoration:none;text-decoration-line:none;display:inline;overflow:visible;visibility:visible;fill:#fff9f9;fill-opacity:0.350943;fill-rule:nonzero;stroke:none;stroke-width:1.04205;enable-background:accumulate"
         id="rect4261" />
      <path
         sodipodi:nodetypes="sssssssss"
         inkscape:connector-curvature="0"
         d="m 12.278263,1005.1412 h 24.943476 c 5.539385,0 8.955362,4.4627 9.144903,9.9989 l 0.853987,24.9434 c 0.189541,5.5362 -4.459505,9.9989 -9.99889,9.9989 H 12.278263 c -5.5393857,0 -10.1367773,-4.4612 -9.998891,-9.9989 l 0.6210814,-24.9434 c 0.1378862,-5.5377 3.8384239,-9.9989 9.3778096,-9.9989 z"
         style="display:inline;fill:#bf8539;fill-opacity:1;stroke:none;stroke-width:1.02139"
         id="rect3038" />
      <path
         sodipodi:nodetypes="ssssssssssssssssss"
         inkscape:connector-curvature="0"
         id="path909"
         d="m 13.037109,1005.687 c -5.2713089,0 -9.0329808,3.5026 -9.1333081,8.8823 l -0.3881759,20.8144 c -0.1003255,5.3795 4.2501751,9.7398 9.521484,9.7398 h 23.425782 c 5.271309,0 9.62181,-4.3603 9.521484,-9.7398 l -0.388176,-20.8144 c -0.100327,-5.3797 -3.861999,-8.8823 -9.133308,-8.8823 z m 0,0.1933 h 23.425782 c 4.696893,0 8.472656,3.8592 8.472656,8.689 v 20.8144 c 0,4.8298 -3.775763,8.6909 -8.472656,8.6909 H 13.037109 c -4.696893,0 -8.4726559,-3.8611 -8.4726559,-8.6909 v -20.8144 c 0,-4.8298 3.7757629,-8.689 8.4726559,-8.689 z"
         style="color:#000000;font-style:normal;font-variant:normal;font-weight:normal;font-stretch:normal;font-size:medium;line-height:normal;font-family:sans-serif;font-variant-ligatures:normal;font-variant-position:normal;font-variant-caps:normal;font-variant-numeric:normal;font-variant-alternates:normal;font-variant-east-asian:normal;font-feature-settings:normal;font-variation-settings:normal;text-indent:0;text-align:start;text-decoration:none;text-decoration-line:none;text-decoration-style:solid;text-decoration-color:#000000;letter-spacing:normal;word-spacing:normal;text-transform:none;writing-mode:lr-tb;direction:ltr;text-orientation:mixed;dominant-baseline:auto;baseline-shift:baseline;text-anchor:start;white-space:normal;shape-padding:0;shape-margin:0;inline-size:0;clip-rule:nonzero;display:inline;overflow:visible;visibility:visible;opacity:1;isolation:auto;mix-blend-mode:normal;color-interpolation:sRGB;color-interpolation-filters:linearRGB;solid-color:#000000;solid-opacity:1;vector-effect:none;fill:#654a27;fill-opacity:1;fill-rule:nonzero;stroke:none;stroke-width:1.04799;stroke-linecap:butt;stroke-linejoin:miter;stroke-miterlimit:4;stroke-dasharray:none;stroke-dashoffset:0;stroke-opacity:1;color-rendering:auto;image-rendering:auto;shape-rendering:auto;text-rendering:auto;enable-background:accumulate;stop-color:#000000;stop-opacity:1" />
      <path
         sodipodi:nodetypes="sssssssss"
         inkscape:connector-curvature="0"
         d="m 13.036184,1005.8849 c -4.696893,0 -8.4710526,3.8578 -8.4710526,8.6876 v 20.816 c 0,4.8298 3.7741596,8.6894 8.4710526,8.6894 h 23.427631 c 4.696893,0 8.471052,-3.8596 8.471052,-8.6894 v -20.816 c 0,-4.8298 -3.774159,-8.6876 -8.471052,-8.6876 z"
         style="color:#000000;text-decoration:none;text-decoration-line:none;display:inline;overflow:visible;visibility:visible;fill:#f3f0ec;fill-opacity:0.73716962;fill-rule:nonzero;stroke:none;stroke-width:1.04308;enable-background:accumulate"
         id="path912" />
      <path
         class="fil20"
         d="m 21.160365,1013.5412 c 0.706872,-0.569 0.821308,-1.3147 1.728152,-2.0258 1.142841,-0.8972 2.593164,-0.758 3.611766,-2.5772 -0.491746,2.6235 -1.832634,2.5186 -2.73468,3.3985 1.821773,-1.0861 3.381682,-0.5611 4.266246,-3.58 0.144899,0.7123 0.201789,1.4102 -0.05205,2.0351 -0.399941,0.9848 -1.16724,1.1909 -1.966268,1.7598 1.326743,-0.6987 2.223838,0.2032 3.421543,-1.205 -0.607594,1.4957 -2.069133,2.2134 -3.486768,2.533 -1.94116,0.437 -2.552543,-1.0522 -4.787952,-0.3384 z m -3.146393,16.2791 c -0.04596,-0.4808 -0.146518,-0.779 -0.333454,-1.0506 -0.208359,-0.3016 -0.68338,-0.5198 -1.051089,-0.9116 -0.216544,-0.1424 -0.438998,-0.1271 -0.666403,0.046 -0.158288,0.3499 -0.381452,0.3531 -0.613858,0.307 -0.160766,0.2653 -0.122065,0.5965 0.116758,0.9938 -0.522968,-0.2458 -0.944989,-0.5596 -0.657865,-1.3496 -0.230133,-0.6479 0.120499,-1.0744 0.687623,-1.1219 0.371953,-0.032 0.674993,0.1674 1.041792,0.2477 0.02533,-0.2606 0.05113,-0.5216 0.07645,-0.7815 -0.248272,-0.2365 -0.346488,-0.506 -0.175568,-0.8359 -0.226346,-0.3664 -0.55323,-0.3276 -0.894516,-0.2308 0.314558,-0.4469 0.66817,-0.786 1.292893,-0.3702 0.411007,-0.032 0.571774,0.2012 0.697423,0.4721 0.137778,0.5665 0.09644,1.0357 0.02998,1.4913 0.04116,0.1766 0.101399,0.3193 0.217452,0.3749 0.193907,-0.1529 0.316529,-0.3684 0.334363,-0.5574 0.06791,-0.2715 0.161472,-0.5282 0.434351,-0.6889 0.08213,-0.3903 -0.200326,-0.6758 -0.648974,-0.9147 0.465219,-0.1212 0.877135,0.033 1.235348,0.4601 0.121912,0.2824 0.172182,0.573 0.0633,0.8824 0.252013,0.3792 0.171479,0.7297 -0.242207,1.0525 -0.210682,0.087 -0.421921,0.1724 -0.632755,0.2585 0.07896,0.3995 0.158087,0.7987 0.236702,1.1985 l 0.02764,0.1815 c -0.257367,0.2381 -0.462694,0.5388 -0.57536,0.848 z m 4.804167,-2.5609 c -0.621892,0.5997 -1.308454,1.0095 -2.029069,1.3275 -1.587849,0.7004 -2.319529,1.6093 -2.377632,2.7353 0.535954,-0.5789 1.123591,-1.0198 1.824249,-1.1574 -1.801262,2.2476 -1.048056,3.5364 -0.225487,4.8426 -0.900073,-0.5127 -1.698747,-2.1728 -2.498329,-2.3744 -0.32724,-0.083 -0.814689,0.095 -1.314467,0.06 -0.245797,0.048 -0.409948,0.2205 -0.491945,0.52 0.06935,0.3864 -0.101959,0.5511 -0.307436,0.6847 0.02068,0.3226 0.232406,0.5514 0.635382,0.6854 -0.540045,0.1903 -1.038761,0.2547 -1.250302,-0.5672 -0.532769,-0.3345 -0.495484,-0.9203 -0.08182,-1.37 0.271057,-0.2945 0.614919,-0.3624 0.942665,-0.5669 -0.122973,-0.2204 -0.245948,-0.4409 -0.36877,-0.6616 -0.322086,-0.01 -0.545754,-0.1397 -0.594407,-0.5196 -0.37645,-0.119 -0.608302,0.149 -0.819893,0.4722 -0.0012,-0.5755 0.08712,-1.0952 0.799581,-1.2278 0.300867,-0.3241 0.553435,-0.261 0.79918,-0.1418 0.417272,0.3381 0.642203,0.732 0.840404,1.1338 0.129241,0.1066 0.254134,0.1736 0.374479,0.132 0.06665,-0.2595 0.04351,-0.5161 -0.04652,-0.6756 -0.09606,-0.26 -0.164503,-0.5277 -0.04116,-0.85 -0.150258,-0.3622 -0.526151,-0.3784 -1.004153,-0.2364 0.293895,-0.4336 0.696718,-0.6144 1.209328,-0.5432 0.24913,0.1297 0.447535,0.319 0.533074,0.6377 0.402973,0.1102 0.532565,0.4408 0.389281,0.9919 -0.116052,0.2205 -0.232255,0.4411 -0.348662,0.6619 0.280202,0.2514 0.560404,0.5036 0.840559,0.7551 -0.122065,-0.844 -0.27394,-1.7455 0.430457,-2.5977 1.290065,-1.5607 2.775502,-1.6147 4.181416,-2.1497 z m 6.913717,13.186 c -0.689238,1.1946 -1.604115,1.4083 -3.678251,1.4835 0.760529,-0.1385 1.5109,-0.4422 2.240256,-1.086 0.540602,-0.107 1.020926,-0.2465 1.437995,-0.3975 z m -3.280228,0.6037 c -1.167796,0.7207 -2.798641,0.7745 -4.756574,0.356 0.820957,-0.01 1.834051,-0.1035 2.58978,-0.4812 0.777451,0.1102 1.500745,0.1449 2.166794,0.1252 z m -3.97821,-0.5276 c -1.742956,0.4615 -2.851235,-0.1742 -3.820276,-1.05 0.748405,0.2993 1.521565,0.4835 2.357522,0.379 0.452336,0.2783 0.944789,0.5 1.462754,0.671 z m -1.968239,-1.0187 c -1.997342,-0.1277 -3.256183,-1.3913 -3.81194,-3.0489 0.569804,0.6667 1.114142,1.168 1.959903,1.6263 -0.315668,-0.6235 -0.328148,-1.5383 -0.22604,-2.2366 0.246858,1.6513 1.016126,2.8426 2.078077,3.6592 z m 3.055452,-4.1512 c 0.93559,0.5631 2.255413,0.5949 4.029542,0.6323 2.081966,0.045 2.295326,1.0319 2.148304,1.843 -0.218717,1.2031 -1.147689,1.5074 -1.975918,1.6991 1.185278,0.1118 2.255363,-0.3554 2.634137,-1.7166 0.363414,-1.3053 -0.791399,-2.5703 -2.727908,-2.7291 -1.642616,-0.1343 -1.926356,0.4608 -4.108157,0.2713 z m 0.05546,-8.3296 c -0.458449,0.7562 -0.975859,1.4169 -1.648325,2.1907 -0.770684,0.8864 -1.343567,1.5284 -1.463155,2.3447 -0.08251,0.5647 0.06952,1.0274 0.372709,1.4721 0.843742,1.2384 2.665309,1.8037 4.028836,1.4011 1.139099,-0.3365 2.378892,-1.4053 4.096383,-1.2879 -0.880671,0.1911 -1.360492,0.5578 -1.510546,1.0488 0.245038,0.01 0.499777,0.014 0.757849,0.042 0.796704,-0.5409 1.693594,-0.7529 2.73766,-0.012 -0.594204,-0.1378 -1.132126,-0.035 -1.424456,0.3122 0.637758,0.2413 1.233931,0.6373 1.633169,1.243 0.777859,0.1672 1.410917,0.6617 1.873961,1.3343 -0.56874,-0.4475 -1.072407,-0.6576 -1.511053,-0.538 0.02477,0.091 0.04456,0.1822 0.05986,0.275 0.852178,0.5082 1.187049,1.4241 1.245857,2.3952 -0.272676,-0.6181 -0.672111,-1.1786 -1.264755,-1.3496 -0.08799,0.4539 -0.278027,0.8911 -0.559092,1.2588 0.01319,0.9775 -0.186984,1.5983 -1.050531,2.4676 0.343811,-0.595 0.571267,-1.3787 0.456986,-1.8951 -0.08984,0.062 -0.190171,0.1222 -0.2848,0.1742 -2.035639,1.1119 -6.402929,1.0632 -8.178523,0.042 -0.785841,-0.4037 -1.490238,-1.0065 -2.087828,-1.8822 0.83682,0.6042 1.013246,1.383 3.021802,1.655 0.661756,0.09 0.8589,-0.2275 0.3281,-0.6602 -0.335779,-0.2742 -0.69884,-0.3649 -1.04836,-0.4737 0.364121,-0.017 0.811708,-0.1149 1.760436,0.4835 0.465168,0.2936 0.603653,0.6147 1.363829,0.8426 0.720462,0.2159 0.893708,-0.1573 0.205325,-0.4259 -0.264641,-0.1038 -0.534335,-0.19 -0.801501,-0.2848 0.298745,-0.08 0.683734,-0.082 1.377418,0.19 1.422285,0.6096 3.00983,1.0116 4.210772,-0.5687 0.87961,-1.1576 0.625074,-2.8404 -1.093431,-3.6504 -1.632459,-0.7694 -3.036454,-0.3555 -4.474247,-0.1631 -0.609767,0.096 -1.219127,0.1239 -1.829047,-0.095 0.315267,0.5827 0.827521,0.9065 1.356552,1.208 -1.328968,-0.4001 -2.658034,-0.8562 -3.987154,-3.0553 -0.16021,1.0013 -0.0073,1.7153 0.287678,2.2974 -0.720411,-1.0028 -1.103074,-2.0929 -0.883852,-3.3395 0.100341,-0.5972 0.422576,-1.2655 1.068668,-2.0371 -0.701717,-0.1294 -1.278796,0.088 -1.829047,0.3788 0.354371,-0.4683 0.806911,-0.9411 1.95278,-1.4446 1.0088,-0.4514 1.877145,-1.1624 2.733062,-1.895 z m 0.521856,-0.2615 c -0.08182,0.6194 -0.09821,1.1936 -0.5987,2.1032 0.86122,-0.1528 1.650446,-0.019 2.43846,0.1479 0.834848,0.1765 1.692481,0.1531 2.538596,0.2302 -1.615738,0.4242 -3.963761,-0.016 -5.516393,0.7251 -1.609625,0.7687 -1.717139,1.9944 -0.904876,3.0353 0.512914,0.5924 1.603006,0.9302 3.069548,1.0227 -1.178659,0.3049 -2.375153,0.3045 -3.536383,-0.6741 -0.831817,-0.7007 -1.257981,-2.1915 0.584252,-3.879 0.877288,-0.8033 1.455477,-1.6844 1.925496,-2.7113 z m 4.050207,2.12 c 1.110604,-0.2035 2.155429,-0.6349 3.037668,-1.6276 -0.09999,0.3948 -0.199619,0.789 -0.29925,1.1834 1.144605,-0.7839 1.442442,-2.0559 1.668433,-3.3694 0.389637,0.4712 0.836819,0.7453 1.340183,0.8218 -0.684236,1.5232 -1.69218,2.4764 -3.023068,2.8602 -0.990963,0.2352 -1.885025,0.246 -2.723966,0.1316 z m -3.278815,-0.6009 c 1.223069,0.2772 2.591746,0.5532 4.150192,0 0.92968,-0.3303 1.749929,-0.6408 2.774594,-2.9388 0.01163,0.9779 -0.176428,1.4953 -0.337548,2.0745 0.344871,-0.9608 0.970099,-1.6423 0.499927,-3.4139 -0.332595,0.884 -1.222514,3.1196 -3.899797,3.3562 -1.829401,0.1618 -2.574925,0.4031 -3.187368,0.922 z m -0.750173,0.029 c 0.190676,-0.4477 0.374278,-0.9077 0.363062,-1.7426 0.203712,0.2686 0.291217,0.5573 0.262167,0.8644 0.693887,-0.6868 1.6508,-1.0833 3.000078,-1.5132 0.794935,-0.2526 1.329269,-0.8094 1.701575,-1.3713 0.04137,0.047 0.08255,0.091 0.123883,0.1333 0.335426,0.3452 0.674286,0.5319 1.063366,0.5964 -0.821307,1.4374 -2.089798,1.6772 -3.339038,1.7097 -1.2694,0.033 -2.215855,0.5685 -3.175093,1.3233 z m 4.013326,-5.6295 c -0.916847,-0.181 -2.529708,-0.1464 -1.867546,1.4497 0.07875,0.1898 0.183905,0.3639 0.275705,0.5453 -0.577835,0 -1.049268,-0.161 -1.590224,-0.621 -0.309758,-0.2638 -0.482447,-0.3538 -0.69707,-0.4545 0.321734,-0.6416 0.661605,-1.4318 -0.117972,-1.7426 -0.164504,-0.379 -0.449151,-0.6058 -0.999199,-0.5 -0.372713,0.121 -0.6226,0.3031 -0.749466,0.5453 0.247009,-0.087 0.487097,-0.1901 0.841418,-0.031 0.104986,0.1014 0.210176,0.2023 0.315316,0.3034 -0.329564,0.3233 -0.197851,0.6113 0,0.8938 0.01798,0.2023 0.03491,0.3134 0.05296,0.515 -0.285206,-0.1611 -0.525798,-0.2826 -0.670547,-0.6057 -0.205682,-0.6228 -0.750523,-0.8796 -1.01254,-0.4089 -0.649123,-0.028 -1.148749,0.4117 -1.0908,1.1965 0.112466,-0.222 0.263985,-0.409 0.55197,-0.4697 0.12267,0.015 0.179507,0.03 0.302129,0.046 0.01997,0.349 0.225839,0.4751 0.421011,0.5001 0.287275,0.036 0.28,0.5797 0.670344,0.6819 -1.07832,0.4007 -1.36994,1.3196 -0.815093,1.8483 -0.04704,0.9499 0.629874,0.8389 1.104188,0.6517 -0.305667,-0.059 -0.498919,-0.2705 -0.525797,-0.7727 0.241147,-0.1013 0.363767,-0.3685 0.394588,-0.712 0.06098,-0.4438 0.311932,-0.5373 0.55217,-0.6515 0.214421,0.061 0.429397,0.061 0.644323,0 0.789934,-0.098 1.140919,0.4699 1.64565,0.8293 0.657155,0.4677 1.154963,-0.03 1.837988,-0.193 0.606533,-0.1453 1.13819,-0.6257 1.607501,-1.2552 -0.363262,-0.4618 -0.721874,-1.0313 -1.080996,-1.5883 z m -5.937405,-5.723 c 1.508424,-0.8056 3.430131,-0.9997 6.037392,-0.013 2.250563,0.8511 3.195906,2.2064 3.78127,3.5599 -0.717939,-0.5909 -1.482561,-0.8057 -2.350046,-0.1931 -0.339568,-1.3654 -1.249442,-2.2218 -2.34969,-2.8693 -0.845205,-0.4975 -1.775949,-0.7725 -2.633783,-0.7739 0.37074,0.1837 0.727736,0.4603 0.888505,0.7606 -0.834497,-0.5197 -2.09086,-0.5536 -3.373648,-0.4703 z m 1.007384,-0.838 c 1.296331,-0.6608 3.32464,-1.1235 5.937913,0.019 2.129053,0.931 3.488081,2.0718 4.020093,4.7521 0.394789,1.9901 -0.167888,3.0789 0.75502,4.6425 -0.571267,-0.1503 -0.98278,-0.5025 -1.300418,-0.9828 -0.317943,-0.4814 -0.485328,-1.2719 -0.740374,-1.7577 0.01798,1.8702 -1.168502,2.5964 -2.127234,1.483 -0.419394,-0.5698 -0.866779,-1.2358 -1.286326,-1.8051 -0.312991,-0.418 -0.533273,-0.7011 -0.994753,-0.7404 -0.343256,-0.029 -0.611686,-0.1788 -0.87153,-0.238 -0.152782,0.03 -0.197695,0.058 -0.341183,0.105 -0.196586,0.3137 -0.415605,0.7817 -0.733397,0.8502 0,0.3763 0.08855,0.6816 0.423284,0.9578 -0.635231,0.1222 -1.007031,-0.3222 -1.007031,-0.9994 -0.59461,-1.0173 0.593902,-1.7396 1.343013,-1.483 -0.09464,-0.1689 -0.207097,-0.3408 -0.248121,-0.5486 -0.06841,-0.3484 -0.04883,-0.4485 -0.317794,-0.5722 -0.172688,-0.081 -0.288031,-0.2488 -0.301724,-0.523 -0.272877,-0.1231 -0.708135,0.095 -0.946807,0.4285 0.157228,-0.6893 0.432429,-1.3013 1.338566,-1.0411 0.354318,-0.14 0.690301,0.044 0.895072,0.4192 0.187341,0.4164 0.254183,0.8302 0.531507,1.0962 0.146516,-0.01 0.179103,-0.2463 0.195726,-0.5164 -0.106959,-0.2537 -0.05511,-0.5736 0.08391,-0.9026 -0.15829,-0.3331 -0.465878,-0.4943 -0.92271,-0.4833 0.429198,-0.7107 1.559909,-0.3947 1.678086,0.4514 0.589607,0.6248 0.0693,1.3831 -0.426873,1.7736 0.406007,0.3262 0.670142,0.7475 1.037852,1.2146 0.279646,0.3564 0.553937,0.4858 0.851066,0.5674 -0.277526,-1.6326 0.401559,-2.0611 1.39116,-1.7457 0.677266,0.2154 1.226403,0.8081 1.594316,1.2203 -0.705458,-2.4458 -1.706275,-4.1407 -3.691441,-5.052 -2.221562,-1.0187 -4.128669,-0.9274 -5.818877,-0.5896 z m 1.931205,-1.3481 c 0.42384,-0.1325 0.738248,-0.3629 1.088475,-0.6228 0.47376,0.028 2.12759,-0.4787 3.215561,-0.3204 0.758004,0.1107 1.355644,0.5118 1.860422,0.9592 -2.346154,-1.1497 -3.777887,0.2668 -1.374386,0.472 1.950404,0.1667 2.651971,0.1002 4.31808,2.363 -2.081261,-1.957 -3.180394,-1.0198 -1.755231,-0.4774 1.675204,0.5345 2.648383,1.8534 3.123201,3.727 -1.214831,-2.6943 -2.717904,-2.4131 -2.031543,-1.5452 1.901601,2.4053 2.409412,4.2022 1.644585,5.6228 0.173599,-2.2931 -0.893507,-3.0851 -1.188663,-2.1025 -0.192643,0.6411 -0.02977,1.3788 0.152227,2.1183 -0.866223,-1.2349 -0.313849,-3.7473 -0.883501,-5.3191 -1.257426,-3.4691 -4.992013,-4.9677 -8.169227,-4.8749 z m 0.544693,-0.5582 c -0.702628,0.2749 -1.603611,-0.013 -2.173414,-0.2831 -0.882999,-0.4188 -1.853654,-0.2368 -2.738922,-0.053 -0.866072,0.3285 -0.980862,-0.3282 -0.854857,-0.9093 -0.323502,0.379 -0.405297,0.8337 -0.246503,1.3639 -0.360888,-0.1025 -0.653015,-0.3638 -0.821813,-0.9093 0.04652,0.6108 0.184664,1.0901 0.525595,1.3016 -0.367306,0.057 -0.733601,0.02 -1.152439,-0.2194 0.306929,0.3553 0.595114,0.5617 1.239237,0.6329 0.05833,-0.01 0.119437,0.082 0.127118,0.1039 -0.216038,0.2026 -1.990572,0.7933 -2.335242,0.6786 -0.364172,-0.1217 -0.653065,-0.097 -0.906895,-0.016 0.04351,0.1565 0.06758,0.1909 0.06758,0.3361 -0.270908,0.023 -0.51635,-0.079 -0.688129,-0.2978 0.248424,0.6972 0.578341,1.2062 1.134604,1.1937 0.08095,0.4736 0.327239,0.8013 0.56202,1.0235 -0.08755,-0.4473 -0.109432,-0.9067 0.0622,-1.2886 0.05949,0.4132 0.233822,0.6841 0.460168,0.8901 -0.05949,-0.2998 -0.04847,-0.5776 0.03284,-0.8334 0.09393,0.2959 0.227607,0.581 0.449658,0.7592 -0.03208,-0.2316 -0.05848,-0.4248 -0.02104,-0.6408 0.812215,0.057 1.413946,-0.087 1.790346,-0.1943 -0.257366,0.6062 -0.599913,1.064 -1.033051,1.3667 -0.271765,-0.095 -0.453951,-0.4172 -0.555706,-0.5972 -0.01818,0.1988 0.02764,0.5171 0.109433,0.6321 -0.205883,-0.024 -0.445263,-0.2491 -0.615476,-0.664 -0.02262,0.2585 0.05225,0.7143 0.16597,0.8649 -0.244886,-0.1306 -0.512813,-0.4389 -0.750222,-0.7687 0.0408,0.3919 0.109283,0.7255 0.279293,0.8521 -0.198354,-0.036 -0.417222,-0.1431 -0.460168,0.3031 -0.548985,0.3154 -0.674434,0.7196 -0.739356,1.1365 0.194311,-0.4136 0.484467,-0.7164 0.985863,-0.7766 -0.137426,0.3923 -0.04422,0.6508 0.08215,0.8906 0.03316,-0.436 0.175366,-0.7203 0.427426,-0.8529 0.0713,0.4804 0.230236,0.8337 0.476943,1.0611 -0.14293,-0.3794 -0.109989,-0.7327 0.09821,-1.0611 0.09873,0.4804 0.361647,0.8025 0.59173,0.9285 -0.169858,-0.4041 -0.175213,-0.7641 -0.01625,-1.0991 0.18643,0.5469 0.553078,0.7799 1.002584,0.8721 -0.236196,-0.3093 -0.428336,-0.6378 -0.312284,-1.0991 0.608504,0.2021 1.06281,0.5364 1.495392,0.8901 -0.328152,-0.4404 -0.449154,-1.0309 -0.426873,-1.7235 0.202649,0.4672 0.448799,0.7826 0.739309,0.9471 -0.423842,-1.1695 -0.198202,-3.0458 3.82103,-3.8644 -0.822216,0.025 -1.667776,0.052 -2.489588,0.077 1.047097,-0.2268 2.048268,-0.4725 2.611502,-0.9524 z m -5.774113,0.8589 c 0.232406,-0.1515 0.47229,-0.2589 0.735214,-0.3764 0.328655,-0.1469 0.486944,-0.2071 0.768361,-0.2328 -0.393881,0.202 -0.648416,0.4496 -1.004002,0.7694 -0.07839,-0.068 -0.156674,-0.1366 -0.235439,-0.2041 -0.0672,0.014 -0.184107,0.045 -0.264134,0.045 z"
         id="path4602"
         inkscape:connector-curvature="0"
         style="clip-rule:evenodd;fill:none;fill-opacity:1;fill-rule:evenodd;stroke:#000000;stroke-width:0.695533;stroke-miterlimit:4;stroke-dasharray:none;stroke-opacity:0.162264;paint-order:stroke fill markers;image-rendering:optimizeQuality;shape-rendering:geometricPrecision;text-rendering:geometricPrecision" />
      <path
         style="clip-rule:evenodd;fill:#050505;fill-opacity:0.581132;fill-rule:evenodd;stroke-width:0.00494839;image-rendering:optimizeQuality;shape-rendering:geometricPrecision;text-rendering:geometricPrecision"
         inkscape:connector-curvature="0"
         id="path104"
         d="m 21.155033,1013.3392 c 0.706873,-0.569 0.821308,-1.3147 1.728152,-2.0258 1.142839,-0.8972 2.593163,-0.758 3.611766,-2.5772 -0.491745,2.6235 -1.832635,2.5186 -2.73468,3.3985 1.821771,-1.0861 3.38168,-0.5611 4.266245,-3.58 0.144901,0.7123 0.20179,1.4102 -0.05205,2.0351 -0.399943,0.9848 -1.16724,1.1909 -1.96627,1.7598 1.326746,-0.6987 2.223838,0.2032 3.421546,-1.205 -0.607595,1.4957 -2.069136,2.2134 -3.48677,2.533 -1.941159,0.437 -2.552543,-1.0522 -4.78795,-0.3384 z m -3.146395,16.2791 c -0.04596,-0.4808 -0.146517,-0.779 -0.333454,-1.0506 -0.208359,-0.3016 -0.683377,-0.5198 -1.051087,-0.9116 -0.216543,-0.1424 -0.438998,-0.1271 -0.666403,0.046 -0.15829,0.3499 -0.381453,0.3531 -0.613858,0.307 -0.160767,0.2653 -0.122066,0.5965 0.116757,0.9938 -0.522969,-0.2458 -0.944988,-0.5596 -0.657865,-1.3496 -0.230133,-0.6479 0.120499,-1.0744 0.687624,-1.1219 0.371952,-0.032 0.674993,0.1674 1.041793,0.2477 0.02533,-0.2606 0.05113,-0.5216 0.07645,-0.7815 -0.248272,-0.2365 -0.34649,-0.506 -0.175569,-0.8359 -0.226346,-0.3664 -0.553231,-0.3276 -0.894516,-0.2308 0.314558,-0.4469 0.66817,-0.786 1.292893,-0.3702 0.411009,-0.032 0.571773,0.2012 0.697426,0.4721 0.137777,0.5665 0.09644,1.0357 0.02997,1.4913 0.04116,0.1766 0.101401,0.3193 0.217453,0.3749 0.193909,-0.1529 0.316527,-0.3684 0.334363,-0.5574 0.06791,-0.2715 0.161473,-0.5282 0.43435,-0.6889 0.08214,-0.3903 -0.200325,-0.6758 -0.648972,-0.9147 0.465218,-0.1212 0.877135,0.033 1.235346,0.4601 0.121914,0.2824 0.172186,0.573 0.06332,0.8824 0.252012,0.3792 0.171476,0.7297 -0.242209,1.0525 -0.210682,0.087 -0.421922,0.1724 -0.632754,0.2585 0.07896,0.3995 0.158088,0.7987 0.2367,1.1985 l 0.02763,0.1815 c -0.257367,0.2381 -0.462692,0.5388 -0.575361,0.848 z m 4.804169,-2.5609 c -0.621895,0.5997 -1.308455,1.0095 -2.02907,1.3275 -1.587851,0.7004 -2.319529,1.6093 -2.377631,2.7353 0.535951,-0.5789 1.123591,-1.0198 1.82425,-1.1574 -1.801261,2.2476 -1.048059,3.5364 -0.225487,4.8426 -0.900074,-0.5127 -1.698746,-2.1728 -2.498332,-2.3744 -0.327238,-0.083 -0.814688,0.095 -1.314466,0.06 -0.245797,0.048 -0.409946,0.2205 -0.491945,0.52 0.06936,0.3864 -0.101958,0.5511 -0.307436,0.6847 0.02068,0.3226 0.232408,0.5514 0.635383,0.6854 -0.540045,0.1903 -1.038761,0.2547 -1.250302,-0.5672 -0.53277,-0.3345 -0.495484,-0.9203 -0.08182,-1.37 0.271059,-0.2945 0.61492,-0.3624 0.942666,-0.5669 -0.122974,-0.2204 -0.245949,-0.4409 -0.36877,-0.6616 -0.322087,-0.01 -0.545753,-0.1397 -0.594408,-0.5196 -0.376449,-0.119 -0.608302,0.149 -0.819893,0.4722 -0.0012,-0.5755 0.08716,-1.0952 0.799583,-1.2278 0.300865,-0.3241 0.553432,-0.261 0.799178,-0.1418 0.417273,0.3381 0.642203,0.732 0.840405,1.1338 0.12924,0.1066 0.254134,0.1736 0.37448,0.132 0.06664,-0.2595 0.04351,-0.5161 -0.04652,-0.6756 -0.09606,-0.26 -0.164506,-0.5277 -0.04116,-0.85 -0.150257,-0.3622 -0.526149,-0.3784 -1.004152,-0.2364 0.293896,-0.4336 0.696716,-0.6144 1.209328,-0.5432 0.24913,0.1297 0.447536,0.319 0.533073,0.6377 0.402973,0.1102 0.532566,0.4408 0.38928,0.9919 -0.116051,0.2205 -0.232255,0.4411 -0.348661,0.6619 0.280203,0.2514 0.560406,0.5036 0.840558,0.7551 -0.122064,-0.844 -0.273938,-1.7455 0.430458,-2.5977 1.290063,-1.5607 2.775504,-1.6147 4.181417,-2.1497 z m 6.913718,13.186 c -0.689238,1.1946 -1.604118,1.4083 -3.678253,1.4835 0.76053,-0.1385 1.510903,-0.4422 2.240258,-1.086 0.540598,-0.107 1.020925,-0.2465 1.437995,-0.3975 z m -3.280229,0.6037 c -1.167797,0.7207 -2.798642,0.7745 -4.756574,0.356 0.820954,-0.01 1.834049,-0.1035 2.589778,-0.4812 0.777452,0.1102 1.500747,0.1449 2.166796,0.1252 z m -3.978211,-0.5276 c -1.742956,0.4615 -2.851236,-0.1742 -3.820275,-1.05 0.748403,0.2993 1.521562,0.4835 2.357522,0.379 0.452338,0.2783 0.944786,0.5 1.462753,0.671 z m -1.96824,-1.0187 c -1.99734,-0.1277 -3.25618,-1.3913 -3.811938,-3.0489 0.569805,0.6667 1.114143,1.168 1.959903,1.6263 -0.31567,-0.6235 -0.328148,-1.5383 -0.226041,-2.2366 0.246857,1.6513 1.016125,2.8426 2.078076,3.6592 z m 3.055452,-4.1512 c 0.935592,0.5631 2.255413,0.5949 4.029544,0.6323 2.081967,0.045 2.295325,1.0319 2.148304,1.843 -0.218716,1.2031 -1.147691,1.5074 -1.975919,1.6991 1.185277,0.1118 2.255362,-0.3554 2.634136,-1.7166 0.363414,-1.3053 -0.791397,-2.5703 -2.727907,-2.7291 -1.642616,-0.1343 -1.926354,0.4608 -4.108158,0.2713 z m 0.05546,-8.3296 c -0.458448,0.7562 -0.975858,1.4169 -1.648325,2.1907 -0.770682,0.8864 -1.343569,1.5284 -1.463155,2.3447 -0.0825,0.5647 0.06952,1.0274 0.372711,1.4721 0.843739,1.2384 2.665309,1.8037 4.028834,1.4011 1.1391,-0.3365 2.378892,-1.4053 4.096385,-1.2879 -0.880672,0.1911 -1.360495,0.5578 -1.510548,1.0488 0.245037,0.01 0.499778,0.014 0.757849,0.042 0.796703,-0.5409 1.693596,-0.7529 2.737662,-0.012 -0.594207,-0.1378 -1.13213,-0.035 -1.424457,0.3122 0.637757,0.2413 1.233932,0.6373 1.633171,1.243 0.777856,0.1672 1.410912,0.6617 1.873961,1.3343 -0.568743,-0.4475 -1.072412,-0.6576 -1.511055,-0.538 0.02477,0.091 0.04455,0.1822 0.05986,0.275 0.852177,0.5082 1.187046,1.4241 1.245853,2.3952 -0.272673,-0.6181 -0.672108,-1.1786 -1.264749,-1.3496 -0.08801,0.4539 -0.278031,0.8911 -0.559094,1.2588 0.01318,0.9775 -0.186986,1.5983 -1.05053,2.4676 0.343811,-0.595 0.571266,-1.3787 0.456984,-1.8951 -0.08984,0.062 -0.190171,0.1222 -0.2848,0.1742 -2.035638,1.1119 -6.402929,1.0632 -8.178523,0.042 -0.785841,-0.4037 -1.490239,-1.0065 -2.087829,-1.8822 0.83682,0.6042 1.013249,1.383 3.021804,1.655 0.661754,0.09 0.858898,-0.2275 0.328098,-0.6602 -0.335778,-0.2742 -0.698838,-0.3649 -1.04836,-0.4737 0.364124,-0.017 0.811709,-0.1149 1.760438,0.4835 0.465169,0.2936 0.603652,0.6147 1.363827,0.8426 0.720463,0.2159 0.893708,-0.1573 0.205327,-0.4259 -0.264641,-0.1038 -0.534335,-0.19 -0.801503,-0.2848 0.298746,-0.08 0.683735,-0.082 1.377418,0.19 1.422287,0.6096 3.009831,1.0116 4.210773,-0.5687 0.879609,-1.1576 0.625073,-2.8404 -1.09343,-3.6504 -1.632459,-0.7694 -3.036455,-0.3555 -4.474248,-0.1631 -0.609767,0.096 -1.219128,0.1239 -1.829046,-0.095 0.315264,0.5827 0.827521,0.9065 1.356551,1.208 -1.328965,-0.4001 -2.658036,-0.8562 -3.987154,-3.0553 -0.160209,1.0013 -0.0073,1.7153 0.287681,2.2974 -0.720412,-1.0028 -1.103076,-2.0929 -0.883856,-3.3395 0.100341,-0.5972 0.422579,-1.2655 1.068671,-2.0371 -0.701721,-0.1294 -1.278797,0.088 -1.829047,0.3788 0.35437,-0.4683 0.806909,-0.9411 1.952778,-1.4446 1.008801,-0.4514 1.877147,-1.1624 2.733062,-1.895 z m 0.521858,-0.2615 c -0.08182,0.6194 -0.09821,1.1936 -0.598704,2.1032 0.861221,-0.1528 1.650447,-0.019 2.438461,0.1479 0.83485,0.1765 1.692482,0.1531 2.538598,0.2302 -1.615738,0.4242 -3.963762,-0.016 -5.516395,0.7251 -1.609624,0.7687 -1.717139,1.9944 -0.904873,3.0353 0.512911,0.5924 1.603005,0.9302 3.069546,1.0227 -1.178659,0.3049 -2.375154,0.3045 -3.536385,-0.6741 -0.831815,-0.7007 -1.25798,-2.1915 0.584255,-3.879 0.877287,-0.8033 1.455477,-1.6844 1.925497,-2.7113 z m 4.050206,2.12 c 1.110604,-0.2035 2.155428,-0.6349 3.037668,-1.6276 -0.09999,0.3948 -0.19962,0.789 -0.299252,1.1834 1.144607,-0.7839 1.442444,-2.0559 1.668433,-3.3694 0.38964,0.4712 0.836821,0.7453 1.340184,0.8218 -0.684238,1.5232 -1.692178,2.4764 -3.023067,2.8602 -0.990965,0.2352 -1.885025,0.246 -2.723966,0.1316 z m -3.278816,-0.6009 c 1.223069,0.2772 2.591747,0.5532 4.150192,0 0.929682,-0.3303 1.749927,-0.6408 2.774591,-2.9388 0.01164,0.9779 -0.176426,1.4953 -0.337544,2.0745 0.344871,-0.9608 0.970098,-1.6423 0.499928,-3.4139 -0.332599,0.884 -1.222515,3.1196 -3.899799,3.3562 -1.829402,0.1618 -2.574924,0.4031 -3.187368,0.922 z m -0.750171,0.029 c 0.190673,-0.4477 0.374277,-0.9077 0.363061,-1.7426 0.20371,0.2686 0.291217,0.5573 0.262167,0.8644 0.693885,-0.6868 1.650799,-1.0833 3.000077,-1.5132 0.794937,-0.2526 1.329269,-0.8094 1.701577,-1.3713 0.04137,0.047 0.08253,0.091 0.123881,0.1333 0.335428,0.3452 0.674285,0.5319 1.063368,0.5964 -0.821309,1.4374 -2.089798,1.6772 -3.339039,1.7097 -1.269401,0.033 -2.215856,0.5685 -3.175092,1.3233 z m 4.013324,-5.6295 c -0.916845,-0.181 -2.529705,-0.1464 -1.867546,1.4497 0.07875,0.1898 0.183905,0.3639 0.275705,0.5453 -0.577834,0 -1.049269,-0.161 -1.590223,-0.621 -0.309757,-0.2638 -0.482447,-0.3538 -0.69707,-0.4545 0.321732,-0.6416 0.661603,-1.4318 -0.117973,-1.7426 -0.164504,-0.379 -0.449151,-0.6058 -0.9992,-0.5 -0.372711,0.121 -0.6226,0.3031 -0.749464,0.5453 0.247008,-0.087 0.487095,-0.1901 0.841416,-0.031 0.104988,0.1014 0.210177,0.2023 0.315317,0.3034 -0.329564,0.3233 -0.197849,0.6113 0,0.8938 0.01798,0.2023 0.03493,0.3134 0.05296,0.515 -0.285204,-0.1611 -0.525796,-0.2826 -0.670545,-0.6057 -0.205681,-0.6228 -0.750525,-0.8796 -1.012541,-0.4089 -0.649124,-0.028 -1.148748,0.4117 -1.090798,1.1965 0.112463,-0.222 0.263983,-0.409 0.551967,-0.4697 0.122671,0.015 0.17951,0.03 0.30213,0.046 0.01997,0.349 0.22584,0.4751 0.421011,0.5001 0.287276,0.036 0.28,0.5797 0.670344,0.6819 -1.078319,0.4007 -1.369941,1.3196 -0.815094,1.8483 -0.04704,0.9499 0.629875,0.8389 1.10419,0.6517 -0.305667,-0.059 -0.498918,-0.2705 -0.525798,-0.7727 0.241149,-0.1013 0.363769,-0.3685 0.394589,-0.712 0.06098,-0.4438 0.311929,-0.5373 0.552169,-0.6515 0.214421,0.061 0.429397,0.061 0.644324,0 0.789934,-0.098 1.140921,0.4699 1.645649,0.8293 0.657157,0.4677 1.154964,-0.03 1.837989,-0.193 0.606533,-0.1453 1.138188,-0.6257 1.6075,-1.2552 -0.363261,-0.4618 -0.721876,-1.0313 -1.080996,-1.5883 z m -5.937406,-5.723 c 1.508425,-0.8056 3.430133,-0.9997 6.037393,-0.013 2.250563,0.8511 3.195906,2.2064 3.781268,3.5599 -0.717936,-0.5909 -1.482557,-0.8057 -2.350044,-0.1931 -0.339566,-1.3654 -1.249442,-2.2218 -2.349689,-2.8693 -0.845206,-0.4975 -1.775949,-0.7725 -2.633785,-0.7739 0.370741,0.1837 0.727739,0.4603 0.888505,0.7606 -0.834494,-0.5197 -2.090859,-0.5536 -3.373648,-0.4703 z m 1.007385,-0.838 c 1.29633,-0.6608 3.324641,-1.1235 5.937914,0.019 2.129053,0.931 3.488082,2.0718 4.020093,4.7521 0.394789,1.9901 -0.167889,3.0789 0.755021,4.6425 -0.571268,-0.1503 -0.98278,-0.5025 -1.300422,-0.9828 -0.31794,-0.4814 -0.485326,-1.2719 -0.740369,-1.7577 0.01798,1.8702 -1.168503,2.5964 -2.127236,1.483 -0.419396,-0.5698 -0.866778,-1.2358 -1.286327,-1.8051 -0.31299,-0.418 -0.533274,-0.7011 -0.994754,-0.7404 -0.343255,-0.029 -0.611685,-0.1788 -0.871527,-0.238 -0.152784,0.03 -0.197698,0.058 -0.341185,0.105 -0.196587,0.3137 -0.415605,0.7817 -0.733398,0.8502 0,0.3763 0.08856,0.6816 0.423286,0.9578 -0.635231,0.1222 -1.007033,-0.3222 -1.007033,-0.9994 -0.594609,-1.0173 0.593903,-1.7396 1.343013,-1.483 -0.09464,-0.1689 -0.207095,-0.3408 -0.248121,-0.5486 -0.06841,-0.3484 -0.04882,-0.4485 -0.317792,-0.5722 -0.172689,-0.081 -0.288032,-0.2488 -0.301725,-0.523 -0.272876,-0.1231 -0.708135,0.095 -0.946807,0.4285 0.157229,-0.6893 0.432429,-1.3013 1.338565,-1.0411 0.354322,-0.14 0.690301,0.044 0.895073,0.4192 0.187341,0.4164 0.254183,0.8302 0.531507,1.0962 0.146516,-0.01 0.179104,-0.2463 0.195725,-0.5164 -0.106955,-0.2537 -0.05511,-0.5736 0.08391,-0.9026 -0.158289,-0.3331 -0.465876,-0.4943 -0.922709,-0.4833 0.429197,-0.7107 1.559911,-0.3947 1.678086,0.4514 0.589606,0.6248 0.0693,1.3831 -0.426874,1.7736 0.406006,0.3262 0.670142,0.7475 1.037851,1.2146 0.279647,0.3564 0.553938,0.4858 0.851066,0.5674 -0.277524,-1.6326 0.40156,-2.0611 1.39116,-1.7457 0.677269,0.2154 1.226407,0.8081 1.594318,1.2203 -0.705457,-2.4458 -1.706276,-4.1407 -3.691441,-5.052 -2.221562,-1.0187 -4.128668,-0.9274 -5.818878,-0.5896 z m 1.931205,-1.3481 c 0.423841,-0.1325 0.738248,-0.3629 1.088476,-0.6228 0.473758,0.028 2.12759,-0.4787 3.215561,-0.3204 0.758003,0.1107 1.355642,0.5118 1.860423,0.9592 -2.346156,-1.1497 -3.777887,0.2668 -1.374386,0.472 1.950403,0.1667 2.651969,0.1002 4.31808,2.363 -2.081261,-1.957 -3.180397,-1.0198 -1.755232,-0.4774 1.675201,0.5345 2.648385,1.8534 3.123202,3.727 -1.214836,-2.6943 -2.717903,-2.4131 -2.031545,-1.5452 1.901597,2.4053 2.409408,4.2022 1.644587,5.6228 0.173599,-2.2931 -0.893507,-3.0851 -1.188663,-2.1025 -0.192648,0.6411 -0.02978,1.3788 0.152227,2.1183 -0.866224,-1.2349 -0.313854,-3.7473 -0.883501,-5.3191 -1.257427,-3.4691 -4.992013,-4.9677 -8.169229,-4.8749 z m 0.544693,-0.5582 c -0.702629,0.2749 -1.603611,-0.013 -2.173414,-0.2831 -0.882998,-0.4188 -1.853651,-0.2368 -2.738923,-0.053 -0.866072,0.3285 -0.980859,-0.3282 -0.854854,-0.9093 -0.323502,0.379 -0.405298,0.8337 -0.246506,1.3639 -0.360889,-0.1025 -0.653013,-0.3638 -0.821814,-0.9093 0.04652,0.6108 0.184666,1.0901 0.525598,1.3016 -0.367307,0.057 -0.733601,0.02 -1.15244,-0.2194 0.30693,0.3553 0.595114,0.5617 1.239238,0.6329 0.05833,-0.01 0.119438,0.082 0.127117,0.1039 -0.216039,0.2026 -1.990571,0.7933 -2.335242,0.6786 -0.364172,-0.1217 -0.653063,-0.097 -0.906893,-0.016 0.04351,0.1565 0.06757,0.1909 0.06757,0.3361 -0.270907,0.023 -0.516348,-0.079 -0.688127,-0.2978 0.248423,0.6972 0.578339,1.2062 1.134602,1.1937 0.08095,0.4736 0.32724,0.8013 0.562023,1.0235 -0.08754,-0.4473 -0.109434,-0.9067 0.0622,-1.2886 0.05949,0.4132 0.233823,0.6841 0.460167,0.8901 -0.05949,-0.2998 -0.04847,-0.5776 0.03284,-0.8334 0.09393,0.2959 0.227608,0.581 0.449657,0.7592 -0.03208,-0.2316 -0.05847,-0.4248 -0.02102,-0.6408 0.812214,0.057 1.413947,-0.087 1.790347,-0.1943 -0.257367,0.6062 -0.599916,1.064 -1.033052,1.3667 -0.271768,-0.095 -0.453952,-0.4172 -0.555708,-0.5972 -0.01817,0.1988 0.02763,0.5171 0.109436,0.6321 -0.205886,-0.024 -0.445265,-0.2491 -0.615478,-0.664 -0.02262,0.2585 0.05225,0.7143 0.16597,0.8649 -0.244887,-0.1306 -0.512812,-0.4389 -0.750223,-0.7687 0.0408,0.3919 0.109283,0.7255 0.279294,0.8521 -0.198353,-0.036 -0.417222,-0.1431 -0.460166,0.3031 -0.548987,0.3154 -0.674437,0.7196 -0.739359,1.1365 0.194314,-0.4136 0.484468,-0.7164 0.985862,-0.7766 -0.137423,0.3923 -0.04422,0.6508 0.08216,0.8906 0.03316,-0.436 0.175365,-0.7203 0.427426,-0.8529 0.0713,0.4804 0.230235,0.8337 0.47694,1.0611 -0.14293,-0.3794 -0.109989,-0.7327 0.09821,-1.0611 0.09873,0.4804 0.361644,0.8025 0.591729,0.9285 -0.16986,-0.4041 -0.175215,-0.7641 -0.01623,-1.0991 0.18643,0.5469 0.55308,0.7799 1.002587,0.8721 -0.236199,-0.3093 -0.428338,-0.6378 -0.312286,-1.0991 0.608503,0.2021 1.062811,0.5364 1.495392,0.8901 -0.328152,-0.4404 -0.449155,-1.0309 -0.426875,-1.7235 0.20265,0.4672 0.4488,0.7826 0.73931,0.9471 -0.42384,-1.1695 -0.198203,-3.0458 3.821031,-3.8644 -0.822216,0.025 -1.667775,0.052 -2.489589,0.077 1.047097,-0.2268 2.04827,-0.4725 2.611502,-0.9524 z m -5.774115,0.8589 c 0.23241,-0.1515 0.472292,-0.2589 0.735217,-0.3764 0.328654,-0.1469 0.486943,-0.2071 0.76836,-0.2328 -0.393882,0.202 -0.648417,0.4496 -1.004001,0.7694 -0.07839,-0.068 -0.156672,-0.1366 -0.235438,-0.2041 -0.0672,0.014 -0.184108,0.045 -0.264138,0.045 z"
         class="fil20" />
      <path
         sodipodi:nodetypes="csssscssc"
         inkscape:connector-curvature="0"
         id="rect4606"
         d="m 2.2798343,1038.0833 v 2.0001 c 0,5.5393 4.4595058,9.9987 9.9988917,9.9987 h 24.942547 c 5.539385,0 9.998892,-4.4594 9.998892,-9.9987 v -2.0001 c 0,5.5398 -4.459507,9.3006 -9.998892,9.3006 H 12.278726 c -5.5393859,0 -9.9988917,-3.7608 -9.9988917,-9.3006 z"
         style="display:inline;opacity:1;fill:#564227;fill-opacity:0.7200554;stroke:none;stroke-width:1.02139" />
    </g>
  </g>
  <g
     style="display:inline"
     inkscape:label="Inset"
     id="layer4"
     inkscape:groupmode="layer" />
  <g
     style="display:none"
     inkscape:label="Baseshape"
     id="layer7"
     inkscape:groupmode="layer">
    <rect
       style="display:inline;fill:#abe1ad;fill-opacity:1;stroke:none"
       id="rect4169"
       width="44"
       height="44"
       x="2"
       y="2"
       ry="3"
       rx="3" />
  </g>
</svg>
