<?xml version="1.0" encoding="UTF-8" standalone="no"?>
<!-- Created with Inkscape (http://www.inkscape.org/) -->

<svg xmlns:dc="http://purl.org/dc/elements/1.1/" xmlns:cc="http://creativecommons.org/ns#" xmlns:rdf="http://www.w3.org/1999/02/22-rdf-syntax-ns#" xmlns:svg="http://www.w3.org/2000/svg" xmlns="http://www.w3.org/2000/svg" xmlns:xlink="http://www.w3.org/1999/xlink" xmlns:sodipodi="http://sodipodi.sourceforge.net/DTD/sodipodi-0.dtd" xmlns:inkscape="http://www.inkscape.org/namespaces/inkscape" width="512" height="512" viewBox="0 0 512 512.00002" version="1.1" id="svg4772" inkscape:version="" sodipodi:docname="logo23.svg">
  <defs id="defs4766">
    <linearGradient id="linearGradient5912" inkscape:collect="always">
      <stop id="stop5902" offset="0" style="stop-color:#000000;stop-opacity:0.07518797" />
      <stop style="stop-color:#000000;stop-opacity:0.15547703" offset="0.45150682" id="stop5904" />
      <stop style="stop-color:#000000;stop-opacity:0.4770318" offset="0.4937802" id="stop5906" />
      <stop id="stop5908" offset="0.56466353" style="stop-color:#000000;stop-opacity:0.06360424" />
      <stop id="stop5910" offset="1" style="stop-color:#000000;stop-opacity:0.09022556" />
    </linearGradient>
    <linearGradient inkscape:collect="always" id="linearGradient5858">
      <stop style="stop-color:#000000;stop-opacity:0.07518797" offset="0" id="stop5854" />
      <stop id="stop5868" offset="0.45150682" style="stop-color:#000000;stop-opacity:0.15547703" />
      <stop id="stop5864" offset="0.50167423" style="stop-color:#000000;stop-opacity:0.4770318" />
      <stop style="stop-color:#000000;stop-opacity:0.06360424" offset="0.55150682" id="stop5866" />
      <stop style="stop-color:#000000;stop-opacity:0.09022556" offset="1" id="stop5856" />
    </linearGradient>
    <linearGradient inkscape:collect="always" id="linearGradient5651">
      <stop style="stop-color:#ff60ba;stop-opacity:1;" offset="0" id="stop5647" />
      <stop style="stop-color:#60d0ff;stop-opacity:1" offset="1" id="stop5649" />
    </linearGradient>
    <linearGradient inkscape:collect="always" xlink:href="#linearGradient5858" id="linearGradient5653" x1="292.82266" y1="915.07666" x2="76.272881" y2="915.07666" gradientUnits="userSpaceOnUse" />
    <linearGradient inkscape:collect="always" xlink:href="#linearGradient5912" id="linearGradient5862" gradientUnits="userSpaceOnUse" x1="377.41794" y1="224.26759" x2="132.97423" y2="224.26759" />
    <linearGradient inkscape:collect="always" xlink:href="#linearGradient5651" id="linearGradient5886" gradientUnits="userSpaceOnUse" x1="292.82266" y1="915.07666" x2="76.272881" y2="915.07666" />
    <linearGradient inkscape:collect="always" xlink:href="#linearGradient5651" id="linearGradient5888" gradientUnits="userSpaceOnUse" x1="292.82266" y1="915.07666" x2="76.272881" y2="915.07666" />
    <linearGradient inkscape:collect="always" xlink:href="#linearGradient5651" id="linearGradient5890" gradientUnits="userSpaceOnUse" x1="292.82266" y1="915.07666" x2="76.272881" y2="915.07666" />
    <linearGradient inkscape:collect="always" xlink:href="#linearGradient5651" id="linearGradient5892" gradientUnits="userSpaceOnUse" x1="292.82266" y1="915.07666" x2="76.272881" y2="915.07666" />
    <linearGradient inkscape:collect="always" xlink:href="#linearGradient5651" id="linearGradient5894" gradientUnits="userSpaceOnUse" x1="292.82266" y1="915.07666" x2="76.272881" y2="915.07666" />
    <linearGradient inkscape:collect="always" xlink:href="#linearGradient5651" id="linearGradient5896" gradientUnits="userSpaceOnUse" x1="292.82266" y1="915.07666" x2="76.272881" y2="915.07666" />
    <linearGradient inkscape:collect="always" xlink:href="#linearGradient5651" id="linearGradient5898" gradientUnits="userSpaceOnUse" x1="292.82266" y1="915.07666" x2="76.272881" y2="915.07666" />
  </defs>
  <sodipodi:namedview id="base" pagecolor="#ffffff" bordercolor="#666666" borderopacity="1.0" inkscape:pageopacity="0.0" inkscape:pageshadow="2" inkscape:zoom="1.5546875" inkscape:cx="256" inkscape:cy="256" inkscape:document-units="px" inkscape:current-layer="g5349" showgrid="false" units="px" inkscape:showpageshadow="false" inkscape:window-width="1920" inkscape:window-height="1022" inkscape:window-x="0" inkscape:window-y="30" inkscape:window-maximized="1" showguides="true" inkscape:guide-bbox="true" inkscape:snap-global="false">
    <sodipodi:guide position="718.47236,269.50755" orientation="1,0" id="guide5637" inkscape:locked="false" />
    <sodipodi:guide position="255.84159,244.79808" orientation="1,0" id="guide5900" inkscape:locked="false" />
  </sodipodi:namedview>
  <metadata id="metadata4769">
    <rdf:RDF>
      <cc:Work rdf:about="">
        <dc:format>image/svg+xml</dc:format>
        <dc:type rdf:resource="http://purl.org/dc/dcmitype/StillImage" />
        <dc:title></dc:title>
        <dc:date>2019</dc:date>
        <dc:creator>
          <cc:Agent>
            <dc:title>Cristian Pozzessere &lt; ilnanny &gt;</dc:title>
          </cc:Agent>
        </dc:creator>
        <dc:subject>
          <rdf:Bag>
            <rdf:li>ilnanny</rdf:li>
            <rdf:li>inkscape</rdf:li>
            <rdf:li>vectorart</rdf:li>
            <rdf:li>svg</rdf:li>
          </rdf:Bag>
        </dc:subject>
        <dc:coverage>Italy</dc:coverage>
        <dc:description>..when I have nothing to do, I scribble and have fun with inkscape.</dc:description>
        <cc:license rdf:resource="http://creativecommons.org/licenses/by-sa/4.0/" />
      </cc:Work>
      <cc:License rdf:about="http://creativecommons.org/licenses/by-sa/4.0/">
        <cc:permits rdf:resource="http://creativecommons.org/ns#Reproduction" />
        <cc:permits rdf:resource="http://creativecommons.org/ns#Distribution" />
        <cc:requires rdf:resource="http://creativecommons.org/ns#Notice" />
        <cc:requires rdf:resource="http://creativecommons.org/ns#Attribution" />
        <cc:permits rdf:resource="http://creativecommons.org/ns#DerivativeWorks" />
        <cc:requires rdf:resource="http://creativecommons.org/ns#ShareAlike" />
      </cc:License>
    </rdf:RDF>
  </metadata>
  <g inkscape:label="Livello 1" inkscape:groupmode="layer" id="layer1" transform="translate(0,-610.51965)">
    <g id="g5349" transform="matrix(1.1396364,0,0,1.1396364,45.539423,-125.62559)">
      <rect y="646.12299" x="-39.784107" height="448.9151" width="448.9151" id="rect5914" style="opacity:1;fill:#4b5770;fill-opacity:1;stroke:none;stroke-width:11.39973259;stroke-linecap:round;stroke-linejoin:bevel;stroke-miterlimit:4;stroke-dasharray:none;stroke-dashoffset:30;stroke-opacity:1;paint-order:stroke fill markers" />
      <rect style="opacity:1;fill:#f6f7f9;fill-opacity:1;stroke:none;stroke-width:11.39973259;stroke-linecap:round;stroke-linejoin:bevel;stroke-miterlimit:4;stroke-dasharray:none;stroke-dashoffset:30;stroke-opacity:1;paint-order:stroke fill markers" id="rect5645" width="448.9151" height="448.9151" x="-39.784107" y="646.12299" />
      <g style="fill:none;fill-opacity:1;stroke:#000000;stroke-width:13.61493397;stroke-linejoin:round;stroke-miterlimit:4;stroke-dasharray:none;stroke-opacity:0.03921569" transform="matrix(1.0002484,0,0,0.93435296,-0.04587285,38.372234)" id="g5679">
        <path sodipodi:nodetypes="cccc" inkscape:connector-curvature="0" id="path5671" d="m 82.11489,784.66436 h 205.1171 L 184.67344,703.93861 Z" style="fill:none;fill-opacity:1;stroke:#000000;stroke-width:13.61493397;stroke-linecap:round;stroke-linejoin:round;stroke-miterlimit:4;stroke-dasharray:none;stroke-dashoffset:26.32418633;stroke-opacity:0.03921569;paint-order:stroke fill markers" />
        <g id="g5677" transform="translate(6.1517133)" style="fill:none;fill-opacity:1;stroke:#000000;stroke-width:13.61493397;stroke-linecap:round;stroke-linejoin:round;stroke-miterlimit:4;stroke-dasharray:none;stroke-dashoffset:26.32418633;stroke-opacity:0.03921569;paint-order:stroke fill markers">
          <path style="fill:none;fill-opacity:1;stroke:#000000;stroke-width:13.61493397;stroke-linecap:round;stroke-linejoin:round;stroke-miterlimit:4;stroke-dasharray:none;stroke-dashoffset:26.32418633;stroke-opacity:0.03921569;paint-order:stroke fill markers" d="m 108.30526,822.30994 -38.184092,57.9792 V 799.11828 H 171.94542 v 69.57507 l -67.1754,137.70005 -6.340214,12.9965 -28.308638,58.0287 V 915.07667 h 50.912122 v -92.76673 z" id="path5673" inkscape:connector-curvature="0" sodipodi:nodetypes="cccccccccccc" />
          <path inkscape:connector-curvature="0" id="path5675" d="m 248.7382,1054.2268 37.7354,-34.7876 v 57.9794 H 185.09804 v -69.5751 l 69.72644,-142.92925 -31.33262,-10.02428 -0.20973,-55.77169 h 63.64016 v 162.34181 h -50.91213 v 92.76671 z" style="fill:none;fill-opacity:1;stroke:#000000;stroke-width:13.61493397;stroke-linecap:round;stroke-linejoin:round;stroke-miterlimit:4;stroke-dasharray:none;stroke-dashoffset:26.32418633;stroke-opacity:0.03921569;paint-order:stroke fill markers" sodipodi:nodetypes="ccccccccccccc" />
        </g>
      </g>
      <g style="fill:none;fill-opacity:1;stroke:none;stroke-width:7.26129818;stroke-linecap:round;stroke-linejoin:round;stroke-miterlimit:4;stroke-dasharray:none;stroke-opacity:0.14117647;paint-order:stroke markers fill" transform="matrix(1.0002484,0,0,0.93435296,-0.04587302,38.372491)" id="g5663">
        <g id="g5661" transform="translate(6.1517133)" style="fill:none;fill-opacity:1;stroke:none;stroke-width:7.26129818;stroke-linecap:round;stroke-linejoin:round;stroke-miterlimit:4;stroke-dasharray:none;stroke-dashoffset:26.32418633;stroke-opacity:0.14117647;paint-order:stroke markers fill">
          <path style="color:#000000;font-style:normal;font-variant:normal;font-weight:normal;font-stretch:normal;font-size:medium;line-height:normal;font-family:sans-serif;font-variant-ligatures:normal;font-variant-position:normal;font-variant-caps:normal;font-variant-numeric:normal;font-variant-alternates:normal;font-feature-settings:normal;text-indent:0;text-align:start;text-decoration:none;text-decoration-line:none;text-decoration-style:solid;text-decoration-color:#000000;letter-spacing:normal;word-spacing:normal;text-transform:none;writing-mode:lr-tb;direction:ltr;text-orientation:mixed;dominant-baseline:auto;baseline-shift:baseline;text-anchor:start;white-space:normal;shape-padding:0;clip-rule:nonzero;display:inline;overflow:visible;visibility:visible;opacity:1;isolation:auto;mix-blend-mode:normal;color-interpolation:sRGB;color-interpolation-filters:linearRGB;solid-color:#000000;solid-opacity:1;vector-effect:none;fill:#020202;fill-opacity:0.09803922;fill-rule:nonzero;stroke:none;stroke-width:0;stroke-linecap:round;stroke-linejoin:round;stroke-miterlimit:4;stroke-dasharray:none;stroke-dashoffset:26.32418633;stroke-opacity:0.14117647;paint-order:stroke markers fill;color-rendering:auto;image-rendering:auto;shape-rendering:auto;text-rendering:auto;enable-background:accumulate" d="m 256.13477,52.974609 a 4.0004,4.0004 0 0 0 -0.40039,0.0059 4.0004,4.0004 0 0 0 -0.39649,0.04687 4.0004,4.0004 0 0 0 -0.77148,0.210937 4.0004,4.0004 0 0 0 -0.93555,0.511719 l -116.9082,85.958975 a 4.0004,4.0004 0 0 0 -0.59375,0.53516 4.0004,4.0004 0 0 0 -0.47461,0.64258 4.0004,4.0004 0 0 0 -0.33789,0.72461 4.0004,4.0004 0 0 0 -0.11133,0.38282 4.0004,4.0004 0 0 0 -0.0742,0.39258 4.0004,4.0004 0 0 0 -0.0293,0.79883 4.0004,4.0004 0 0 0 0.83985,2.20898 4.0004,4.0004 0 0 0 0.55273,0.57813 4.0004,4.0004 0 0 0 0.65625,0.45507 4.0004,4.0004 0 0 0 0.35742,0.17579 4.0004,4.0004 0 0 0 1.58399,0.32812 h 233.8164 a 4.0004,4.0004 0 0 0 1.18164,-0.17969 4.0004,4.0004 0 0 0 0.37696,-0.13672 4.0004,4.0004 0 0 0 0.35937,-0.17382 4.0004,4.0004 0 0 0 0.33985,-0.20899 4.0004,4.0004 0 0 0 0.31836,-0.24219 4.0004,4.0004 0 0 0 0.29296,-0.27343 4.0004,4.0004 0 0 0 0.4961,-0.625 4.0004,4.0004 0 0 0 0.36133,-0.71289 4.0004,4.0004 0 0 0 0.12695,-0.37891 4.0004,4.0004 0 0 0 0.041,-1.97852 4.0004,4.0004 0 0 0 -0.25976,-0.75586 4.0004,4.0004 0 0 0 -1.24414,-1.54101 4.0004,4.0004 0 0 0 -0.0215,-0.0156 L 258.36914,53.75 a 4.0004,4.0004 0 0 0 -0.6875,-0.40625 4.0004,4.0004 0 0 0 -1.54687,-0.369141 z M 256,61.9375 360.7168,138.93164 H 151.2832 Z m -123.56836,92.38477 a 4.0004,4.0004 0 0 0 -0.79492,0.0801 4.0004,4.0004 0 0 0 -0.76367,0.23633 4.0004,4.0004 0 0 0 -0.69922,0.38281 4.0004,4.0004 0 0 0 -0.61133,0.51368 4.0004,4.0004 0 0 0 -0.85938,1.33789 4.0004,4.0004 0 0 0 -0.125,0.38086 4.0004,4.0004 0 0 0 -0.0879,0.38867 4.0004,4.0004 0 0 0 -0.0586,0.67969 v 86.43164 a 4.0004,4.0004 0 0 0 0.0801,0.79492 4.0004,4.0004 0 0 0 0.0996,0.38672 4.0004,4.0004 0 0 0 0.13672,0.37695 4.0004,4.0004 0 0 0 0.17383,0.35938 4.0004,4.0004 0 0 0 1.02343,1.21484 4.0004,4.0004 0 0 0 0.32617,0.23242 4.0004,4.0004 0 0 0 0.71094,0.36328 4.0004,4.0004 0 0 0 0.38086,0.125 4.0004,4.0004 0 0 0 0.39063,0.0879 4.0004,4.0004 0 0 0 0.39648,0.0488 4.0004,4.0004 0 0 0 1.19141,-0.0957 4.0004,4.0004 0 0 0 0.75586,-0.25782 4.0004,4.0004 0 0 0 1,-0.65429 4.0004,4.0004 0 0 0 0.60351,-0.67774 l 42.33203,-60.04101 h 8.43555 v 90.7793 h -54.03711 a 4.0004,4.0004 0 0 0 -0.39844,0.0195 4.0004,4.0004 0 0 0 -0.39648,0.0605 4.0004,4.0004 0 0 0 -0.38672,0.0996 4.0004,4.0004 0 0 0 -1.39453,0.76172 4.0004,4.0004 0 0 0 -0.78906,0.89844 4.0004,4.0004 0 0 0 -0.57618,1.48047 4.0004,4.0004 0 0 0 -0.0488,0.39843 4.0004,4.0004 0 0 0 -0.01,0.28126 v 172.86523 a 4.0004,4.0004 0 0 0 0.0801,0.79492 4.0004,4.0004 0 0 0 0.23633,0.76367 4.0004,4.0004 0 0 0 0.17383,0.35938 4.0004,4.0004 0 0 0 0.45312,0.6582 4.0004,4.0004 0 0 0 0.27148,0.29297 4.0004,4.0004 0 0 0 0.30079,0.26367 4.0004,4.0004 0 0 0 0.32617,0.23242 4.0004,4.0004 0 0 0 2.27929,0.63086 4.0004,4.0004 0 0 0 0.39844,-0.0332 4.0004,4.0004 0 0 0 0.77735,-0.18164 4.0004,4.0004 0 0 0 0.37109,-0.14844 4.0004,4.0004 0 0 0 1,-0.6543 4.0004,4.0004 0 0 0 0.28516,-0.28124 4.0004,4.0004 0 0 0 0.2539,-0.3086 4.0004,4.0004 0 0 0 0.33789,-0.53711 l 32.26953,-61.78906 7.22852,-13.83984 76.57422,-146.62696 a 4.0004,4.0004 0 0 0 0.16797,-0.36328 4.0004,4.0004 0 0 0 0.2207,-0.76758 4.0004,4.0004 0 0 0 0.0664,-0.7207 V 158.3222 a 4.0004,4.0004 0 0 0 -0.0195,-0.39844 4.0004,4.0004 0 0 0 -0.0605,-0.39649 4.0004,4.0004 0 0 0 -0.0996,-0.38672 4.0004,4.0004 0 0 0 -0.13672,-0.37695 4.0004,4.0004 0 0 0 -0.38281,-0.69922 4.0004,4.0004 0 0 0 -0.51367,-0.61133 4.0004,4.0004 0 0 0 -1.3379,-0.85937 4.0004,4.0004 0 0 0 -1.44921,-0.27148 z m 174.5918,0 a 4.0004,4.0004 0 0 0 -0.39844,0.0195 4.0004,4.0004 0 0 0 -0.7832,0.16015 4.0004,4.0004 0 0 0 -0.73633,0.31055 4.0004,4.0004 0 0 0 -0.33985,0.20898 4.0004,4.0004 0 0 0 -0.875,0.81446 4.0004,4.0004 0 0 0 -0.23242,0.32617 4.0004,4.0004 0 0 0 -0.19922,0.3457 4.0004,4.0004 0 0 0 -0.37695,1.13477 4.0004,4.0004 0 0 0 -0.0488,0.39844 4.0004,4.0004 0 0 0 -0.01,0.29687 l 0.23828,59.38672 a 4.0004,4.0004 0 0 0 0.084,0.79492 4.0004,4.0004 0 0 0 0.625,1.46094 4.0004,4.0004 0 0 0 0.24219,0.31641 4.0004,4.0004 0 0 0 0.90234,0.7871 4.0004,4.0004 0 0 0 0.34766,0.19727 4.0004,4.0004 0 0 0 0.6543,0.25977 l 31.07226,9.28515 -77.23828,147.90039 a 4.0004,4.0004 0 0 0 -0.16797,0.36328 4.0004,4.0004 0 0 0 -0.27343,1.16407 4.0004,4.0004 0 0 0 -0.0137,0.32421 v 74.08399 a 4.0004,4.0004 0 0 0 0.0801,0.79492 4.0004,4.0004 0 0 0 0.0996,0.38672 4.0004,4.0004 0 0 0 0.51953,1.07617 4.0004,4.0004 0 0 0 0.51367,0.61133 4.0004,4.0004 0 0 0 0.30079,0.26367 4.0004,4.0004 0 0 0 0.32617,0.23242 4.0004,4.0004 0 0 0 0.3457,0.19922 4.0004,4.0004 0 0 0 0.74609,0.28906 4.0004,4.0004 0 0 0 0.38868,0.0879 4.0004,4.0004 0 0 0 0.39843,0.0488 4.0004,4.0004 0 0 0 0.28125,0.01 h 115.56055 a 4.0004,4.0004 0 0 0 1.91797,-0.49023 4.0004,4.0004 0 0 0 0.95117,-0.72266 4.0004,4.0004 0 0 0 0.85938,-1.33789 4.0004,4.0004 0 0 0 0.125,-0.38086 4.0004,4.0004 0 0 0 0.0879,-0.38867 4.0004,4.0004 0 0 0 0.0488,-0.39844 4.0004,4.0004 0 0 0 0.01,-0.28125 v -61.73828 a 4.0004,4.0004 0 0 0 -0.0195,-0.39844 4.0004,4.0004 0 0 0 -0.16016,-0.7832 4.0004,4.0004 0 0 0 -0.31054,-0.73633 4.0004,4.0004 0 0 0 -0.20899,-0.33984 4.0004,4.0004 0 0 0 -0.51562,-0.61133 4.0004,4.0004 0 0 0 -2.9043,-1.12891 4.0004,4.0004 0 0 0 -0.39844,0.0332 4.0004,4.0004 0 0 0 -0.39258,0.0703 4.0004,4.0004 0 0 0 -0.38476,0.11132 4.0004,4.0004 0 0 0 -0.72656,0.33204 4.0004,4.0004 0 0 0 -0.33399,0.21875 4.0004,4.0004 0 0 0 -0.2539,0.20117 l -41.89063,36.07422 h -9.02539 v -90.7793 h 54.03711 a 4.0004,4.0004 0 0 0 0.39844,-0.0195 4.0004,4.0004 0 0 0 1.51953,-0.4707 4.0004,4.0004 0 0 0 0.6582,-0.45118 4.0004,4.0004 0 0 0 0.29297,-0.27148 4.0004,4.0004 0 0 0 0.26367,-0.30078 4.0004,4.0004 0 0 0 0.23242,-0.32617 4.0004,4.0004 0 0 0 0.19922,-0.34571 4.0004,4.0004 0 0 0 0.16407,-0.36523 4.0004,4.0004 0 0 0 0.125,-0.38086 4.0004,4.0004 0 0 0 0.13671,-0.78711 4.0004,4.0004 0 0 0 0.01,-0.28125 V 158.32227 a 4.0004,4.0004 0 0 0 -0.0195,-0.39844 4.0004,4.0004 0 0 0 -0.0606,-0.39649 4.0004,4.0004 0 0 0 -0.0996,-0.38672 4.0004,4.0004 0 0 0 -0.13672,-0.37695 4.0004,4.0004 0 0 0 -0.38281,-0.69922 4.0004,4.0004 0 0 0 -0.24219,-0.31836 4.0004,4.0004 0 0 0 -0.57226,-0.55664 4.0004,4.0004 0 0 0 -0.32617,-0.23242 4.0004,4.0004 0 0 0 -0.71094,-0.36328 4.0004,4.0004 0 0 0 -0.76953,-0.21289 4.0004,4.0004 0 0 0 -0.67969,-0.0586 z m -170.5918,8 h 108.07227 v 69.10156 l -76.11914,145.75781 -7.22852,13.83984 -24.72461,47.3418 v -152.5664 h 54.03711 a 4.0004,4.0004 0 0 0 0.39844,-0.0195 4.0004,4.0004 0 0 0 0.39648,-0.0605 4.0004,4.0004 0 0 0 0.38672,-0.0996 4.0004,4.0004 0 0 0 2.38281,-2.00586 4.0004,4.0004 0 0 0 0.37696,-1.13477 4.0004,4.0004 0 0 0 0.0488,-0.39844 4.0004,4.0004 0 0 0 0.01,-0.28124 v -98.7793 a 4.0004,4.0004 0 0 0 -0.0801,-0.79492 4.0004,4.0004 0 0 0 -0.61914,-1.46289 4.0004,4.0004 0 0 0 -0.24219,-0.31836 4.0004,4.0004 0 0 0 -0.57226,-0.55664 4.0004,4.0004 0 0 0 -1.41797,-0.72071 4.0004,4.0004 0 0 0 -0.38867,-0.0879 4.0004,4.0004 0 0 0 -0.67969,-0.0586 h -14.50977 a 4.0004,4.0004 0 0 0 -0.79492,0.0801 4.0004,4.0004 0 0 0 -0.76367,0.23632 4.0004,4.0004 0 0 0 -0.35937,0.17383 4.0004,4.0004 0 0 0 -0.65821,0.45117 4.0004,4.0004 0 0 0 -0.55664,0.57227 4.0004,4.0004 0 0 0 -0.13672,0.18164 l -36.25781,51.42578 z m 174.60742,0 h 64.5293 V 327.1875 h -54.03711 a 4.0004,4.0004 0 0 0 -0.39844,0.0195 4.0004,4.0004 0 0 0 -0.7832,0.16016 4.0004,4.0004 0 0 0 -1.07617,0.51953 4.0004,4.0004 0 0 0 -1.10742,1.14062 4.0004,4.0004 0 0 0 -0.19922,0.34571 4.0004,4.0004 0 0 0 -0.16407,0.36523 4.0004,4.0004 0 0 0 -0.27148,1.44922 v 98.7793 a 4.0004,4.0004 0 0 0 0.31641,1.55859 4.0004,4.0004 0 0 0 0.17382,0.35938 4.0004,4.0004 0 0 0 0.20899,0.33984 4.0004,4.0004 0 0 0 0.24219,0.31836 4.0004,4.0004 0 0 0 0.27148,0.29297 4.0004,4.0004 0 0 0 0.30078,0.26367 4.0004,4.0004 0 0 0 0.32617,0.23242 4.0004,4.0004 0 0 0 0.71094,0.36328 4.0004,4.0004 0 0 0 0.38086,0.125 4.0004,4.0004 0 0 0 0.38867,0.0879 4.0004,4.0004 0 0 0 0.39844,0.0488 4.0004,4.0004 0 0 0 0.28125,0.01 h 14.50977 a 4.0004,4.0004 0 0 0 1.55859,-0.31641 4.0004,4.0004 0 0 0 1.01758,-0.625 4.0004,4.0004 0 0 0 0.0332,-0.0273 l 36.40625,-31.35157 v 49.01563 H 267.49609 V 381.56077 L 346.52344,230.2346 a 4.0004,4.0004 0 0 0 0.29687,-0.74219 4.0004,4.0004 0 0 0 0.14453,-0.78516 4.0004,4.0004 0 0 0 0.0117,-0.40039 4.0004,4.0004 0 0 0 -0.0273,-0.39844 4.0004,4.0004 0 0 0 -0.0684,-0.39453 4.0004,4.0004 0 0 0 -0.42969,-1.11523 4.0004,4.0004 0 0 0 -1.37695,-1.42188 4.0004,4.0004 0 0 0 -0.35156,-0.1914 4.0004,4.0004 0 0 0 -0.36719,-0.15625 4.0004,4.0004 0 0 0 -0.23242,-0.0781 L 311.25,214.72656 Z" transform="matrix(0.87725494,0,0,0.93912353,-46.055536,650.43447)" id="path5669" inkscape:connector-curvature="0" />
        </g>
      </g>
      <g id="g5643" transform="matrix(1.0002484,0,0,0.93435296,-0.04587319,38.37232)" style="fill:url(#linearGradient5653);fill-opacity:1.0;stroke:none">
        <path style="fill:url(#linearGradient5888);fill-opacity:1.0;stroke:none;stroke-width:2.32463789;stroke-linecap:round;stroke-linejoin:bevel;stroke-miterlimit:4;stroke-dasharray:none;stroke-dashoffset:26.32418633;stroke-opacity:1;paint-order:stroke fill markers" d="m 82.11489,784.66436 h 205.1171 L 184.67344,703.93861 Z" id="path4721" inkscape:connector-curvature="0" sodipodi:nodetypes="cccc" />
        <g style="fill:url(#linearGradient5898);fill-opacity:1.0;stroke:none;stroke-width:2.63241863;stroke-linecap:round;stroke-linejoin:bevel;stroke-miterlimit:4;stroke-dasharray:none;stroke-dashoffset:26.32418633;paint-order:stroke fill markers" transform="translate(6.1517133)" id="g5353">
          <path sodipodi:nodetypes="cccccccccccc" inkscape:connector-curvature="0" id="path4719" d="m 108.30526,822.30994 -38.184092,57.9792 V 799.11828 H 171.94542 v 69.57507 l -67.1754,137.70005 -6.340214,12.9965 -28.308638,58.0287 V 915.07667 h 50.912122 v -92.76673 z" style="fill:url(#linearGradient5890);fill-opacity:1.0;stroke:none;stroke-width:2.51261258;stroke-linecap:round;stroke-linejoin:bevel;stroke-miterlimit:4;stroke-dasharray:none;stroke-dashoffset:26.32418633;stroke-opacity:1;paint-order:stroke fill markers" />
          <path sodipodi:nodetypes="ccccccccccccc" style="fill:url(#linearGradient5892);fill-opacity:1.0;stroke:none;stroke-width:2.51261258;stroke-linecap:round;stroke-linejoin:bevel;stroke-miterlimit:4;stroke-dasharray:none;stroke-dashoffset:26.32418633;stroke-opacity:1;paint-order:stroke fill markers" d="m 248.7382,1054.2268 37.7354,-34.7876 v 57.9794 H 185.09804 v -69.5751 l 69.72644,-142.92925 -31.33262,-10.02428 -0.20973,-55.77169 h 63.64016 v 162.34181 h -50.91213 v 92.76671 z" id="path4725" inkscape:connector-curvature="0" />
          <path style="fill:url(#linearGradient5894);fill-opacity:1.0;stroke:none;stroke-width:2.51261258;stroke-linecap:round;stroke-linejoin:bevel;stroke-miterlimit:4;stroke-dasharray:none;stroke-dashoffset:26.32418633;stroke-opacity:1;paint-order:stroke fill markers" d="m 108.30526,822.30994 -38.184092,57.9792 V 799.11828 H 171.94542 v 69.57507 l -67.1754,137.70005 -6.340214,12.9965 -28.308638,58.0287 V 915.07667 h 50.912122 v -92.76673 z" id="path5728" inkscape:connector-curvature="0" sodipodi:nodetypes="cccccccccccc" />
          <path inkscape:connector-curvature="0" id="path5730" d="m 248.7382,1054.2268 37.7354,-34.7876 v 57.9794 H 185.09804 v -69.5751 l 69.72644,-142.92925 -31.33262,-10.02428 -0.20973,-55.77169 h 63.64016 v 162.34181 h -50.91213 v 92.76671 z" style="fill:url(#linearGradient5896);fill-opacity:1.0;stroke:none;stroke-width:2.51261258;stroke-linecap:round;stroke-linejoin:bevel;stroke-miterlimit:4;stroke-dasharray:none;stroke-dashoffset:26.32418633;stroke-opacity:1;paint-order:stroke fill markers" sodipodi:nodetypes="ccccccccccccc" />
        </g>
        <g id="g5763" transform="translate(6.1517133)" style="fill:#ff6600;fill-opacity:1.0;stroke:none;stroke-width:2.63241863;stroke-linecap:round;stroke-linejoin:bevel;stroke-miterlimit:4;stroke-dasharray:none;stroke-dashoffset:26.32418633;paint-order:stroke fill markers" />
        <path style="fill:#ffffff;fill-opacity:0.28627452;stroke:none;stroke-width:2.56112647;stroke-linecap:round;stroke-linejoin:bevel;stroke-miterlimit:4;stroke-dasharray:none;stroke-dashoffset:26.32418633;stroke-opacity:1;paint-order:stroke fill markers" d="M 256,56.972656 139.0918,142.93164 h 7.08008 L 259,59.972656 371.82812,142.93164 h 1.08008 z M 132.43164,158.32227 v 86.43164 l 3,-4.25586 v -79.17578 h 113.07227 v -3 z m 174.5918,0 0.23828,59.38671 2.99219,0.89454 -0.23047,-57.28125 h 69.54492 v -3 z m -116.55469,27.69531 v 95.7793 h -58.03711 v 172.86523 l 3,-5.74414 V 284.79688 h 58.03711 v -98.7793 z m 151.55859,44.18554 -78.53125,150.375 v 74.08399 h 3 v -71.08399 l 79.48243,-152.19531 z m 37.0293,162.72071 -43.01562,37.04297 h -11.50977 v 3 h 14.50977 l 40.01562,-34.45899 z" id="path5784" inkscape:connector-curvature="0" transform="matrix(0.87725494,0,0,0.93912353,-39.903822,650.43447)" />
        <path style="fill:#000000;fill-opacity:0.23529412;stroke:none;stroke-width:2.56112647;stroke-linecap:round;stroke-linejoin:bevel;stroke-miterlimit:4;stroke-dasharray:none;stroke-dashoffset:26.32418633;stroke-opacity:1;paint-order:stroke fill markers" d="m 143.17188,139.93164 -4.08008,3 h 233.8164 l -4.08008,-3 z m 102.33203,18.39063 v 71.08398 l -76.57422,146.62695 -7.22852,13.83985 -29.26953,56.04492 v 8.74414 l 32.26953,-61.78906 7.22852,-13.83985 76.57422,-146.62695 v -74.08398 z m 131.06445,0 V 328.1875 h -58.03711 v 98.7793 h 3 v -95.7793 h 58.03711 V 158.32227 Z m -203.60938,21.69531 -40.52734,57.48047 v 7.25586 l 43.52734,-61.73633 h 11.50977 v -3 z m 134.29493,35.58594 0.008,2.10546 31.76562,9.49414 0.95118,-1.82031 z m 71.80273,177.32031 -3,2.58398 v 56.1543 H 263.49609 v 3 h 115.56055 z" transform="matrix(0.87725494,0,0,0.93912353,-39.903822,650.43447)" id="path5788" inkscape:connector-curvature="0" />
        <g id="g5838" transform="translate(6.3761681)" style="fill:url(#linearGradient5886);fill-opacity:1.0;stroke:none;stroke-width:2.63241863;stroke-linecap:round;stroke-linejoin:bevel;stroke-miterlimit:4;stroke-dasharray:none;stroke-dashoffset:26.32418633;paint-order:stroke fill markers">
          <path style="opacity:0.45;fill:url(#linearGradient5862);fill-opacity:1;stroke:none;stroke-width:2.76822424;stroke-linecap:round;stroke-linejoin:bevel;stroke-miterlimit:4;stroke-dasharray:none;stroke-dashoffset:26.32418633;stroke-opacity:1;paint-order:stroke fill markers" d="M 257.1751,57.054688 139.0918,142.93164 h 117.88408 c 0.16158,-28.54636 0.19922,-56.996443 0.19922,-85.876952 z M 132.43164,158.32227 v 16.59765 l 6.875,-16.59765 z m 0,76.08789 v 10.34375 l 5.64453,-8.00586 z m 58.03711,24.03906 v 23.34766 H 132.43164 V 454.66211 L 164.70117,392.87305 171.92969,379.0332 227,273.58203 Z m 112.47656,46.58984 -39.44922,75.53906 v 74.08399 h 115.56055 v -61.73828 l -43.01562,37.04297 h -14.50977 v -98.7793 h 44.54297 z" id="path5836" inkscape:connector-curvature="0" transform="matrix(0.87725494,0,0,0.93912353,-46.055536,650.43447)" sodipodi:nodetypes="cccccccccccccccccccccccccccccc" />
        </g>
      </g>
    </g>
  </g>
</svg>
