<?xml version="1.0" encoding="UTF-8" standalone="no"?>
<!-- Created with Inkscape (http://www.inkscape.org/) -->

<svg
   xmlns:dc="http://purl.org/dc/elements/1.1/"
   xmlns:cc="http://creativecommons.org/ns#"
   xmlns:rdf="http://www.w3.org/1999/02/22-rdf-syntax-ns#"
   xmlns:svg="http://www.w3.org/2000/svg"
   xmlns="http://www.w3.org/2000/svg"
   xmlns:xlink="http://www.w3.org/1999/xlink"
   xmlns:sodipodi="http://sodipodi.sourceforge.net/DTD/sodipodi-0.dtd"
   xmlns:inkscape="http://www.inkscape.org/namespaces/inkscape"
   id="svg3209"
   sodipodi:docname="media-player-22.svg"
   viewBox="0 0 256 256"
   version="1.1"
   inkscape:version="0.92.2 2405546, 2018-03-11">
  <defs
     id="defs3211">
    <clipPath
       id="clipPath4014"
       clipPathUnits="userSpaceOnUse">
      <path
         id="path4016"
         style="color:#000000;fill:url(#linearGradient4018)"
         inkscape:connector-curvature="0"
         d="m16.5 143.12c0 68.613 14.327 124.24 32 124.24s32-55.622 32-124.24c0-68.613-14.327-124.24-32-124.24s-32 55.622-32 124.24zm8 0c0-51.46 10.745-93.176 24-93.176s24 41.717 24 93.176c0 51.46-10.745 93.176-24 93.176s-24-41.717-24-93.176z" />
    </clipPath>
    <linearGradient
       id="linearGradient3985"
       y2="48"
       xlink:href="#linearGradient3836"
       gradientUnits="userSpaceOnUse"
       x2="74"
       gradientTransform="matrix(0 3.711 -3.711 0 306.94 744.27)"
       y1="48"
       x1="22"
       inkscape:collect="always" />
    <linearGradient
       id="linearGradient3836">
      <stop
         id="stop3838"
         style="stop-color:#b4b4b4"
         offset="0" />
      <stop
         id="stop3840"
         style="stop-color:#ebebeb"
         offset="1" />
    </linearGradient>
    <linearGradient
       id="linearGradient4100"
       y2="98.867"
       gradientUnits="userSpaceOnUse"
       x2="49.958"
       y1="20.366"
       x1="49.958"
       inkscape:collect="always">
      <stop
         id="stop4096"
         style="stop-color:#ffffff"
         offset="0" />
      <stop
         id="stop4098"
         style="stop-color:#ffffff;stop-opacity:0"
         offset="1" />
    </linearGradient>
    <linearGradient
       id="linearGradient3875"
       y2="69.906"
       gradientUnits="userSpaceOnUse"
       x2="48.27"
       y1="32.608"
       x1="48.27"
       inkscape:collect="always">
      <stop
         id="stop3871"
         style="stop-color:#ffffff"
         offset="0" />
      <stop
         id="stop3873"
         style="stop-color:#ffffff;stop-opacity:0"
         offset="1" />
    </linearGradient>
    <radialGradient
       id="radialGradient3863"
       gradientUnits="userSpaceOnUse"
       cy="56"
       cx="48"
       r="16"
       inkscape:collect="always">
      <stop
         id="stop3859"
         style="stop-color:#414141"
         offset="0" />
      <stop
         id="stop3861"
         style="stop-color:#000000"
         offset="1" />
    </radialGradient>
    <linearGradient
       id="linearGradient3842"
       y2="48"
       xlink:href="#linearGradient3836"
       gradientUnits="userSpaceOnUse"
       x2="80"
       gradientTransform="matrix(0 -3.711 3.711 0 -49.314 1100.5)"
       y1="48"
       x1="16"
       inkscape:collect="always" />
    <radialGradient
       id="radialGradient3914"
       gradientUnits="userSpaceOnUse"
       cy="62.769"
       cx="55.385"
       gradientTransform="matrix(1.5385 5.7893e-8 -6.9471e-8 1.8462 -29.822 -53.112)"
       r="24"
       inkscape:collect="always">
      <stop
         id="stop3894"
         style="stop-color:#ff15f1"
         offset="0" />
      <stop
         id="stop4156"
         style="stop-color:#eddcf7"
         offset=".5" />
      <stop
         id="stop3896"
         style="stop-color:#770159"
         offset="1" />
    </radialGradient>
  </defs>
  <sodipodi:namedview
     id="base"
     bordercolor="#666666"
     inkscape:pageshadow="2"
     inkscape:window-y="26"
     pagecolor="#ffffff"
     inkscape:window-height="964"
     inkscape:window-maximized="1"
     inkscape:zoom="2.9882812"
     inkscape:window-x="0"
     showgrid="false"
     borderopacity="1.0"
     inkscape:current-layer="layer1"
     inkscape:cx="128"
     inkscape:cy="128"
     inkscape:window-width="1280"
     inkscape:pageopacity="0.0"
     inkscape:document-units="px" />
  <g
     id="layer1"
     inkscape:label="Livello 1"
     inkscape:groupmode="layer"
     transform="translate(0 -796.36)">
    <path
       id="path3957"
       style="opacity:.15;color:#000000;fill:#000000"
       sodipodi:type="inkscape:offset"
       d="m48 15.031c-18.198 0-32.969 14.771-32.969 32.969s14.771 32.969 32.969 32.969 32.969-14.771 32.969-32.969-14.771-32.969-32.969-32.969z"
       inkscape:original="M 48 16 C 30.326888 16 16 30.326888 16 48 C 16 65.673112 30.326888 80 48 80 C 65.673112 80 80 65.673112 80 48 C 80 30.326888 65.673112 16 48 16 z "
       transform="matrix(3.711 0 0 3.711 -49.314 747.98)"
       inkscape:radius="0.97124523"
       clip-path="none"
       mask="none" />
    <path
       id="path3961"
       style="opacity:0.08;color:#000000;fill:#000000"
       sodipodi:type="inkscape:offset"
       d="m48 13.906c-18.803 0-34.094 15.291-34.094 34.094s15.291 34.094 34.094 34.094 34.094-15.291 34.094-34.094-15.291-34.094-34.094-34.094z"
       inkscape:original="M 48 15.03125 C 29.801988 15.03125 15.03125 29.801988 15.03125 48 C 15.03125 66.198012 29.801988 80.96875 48 80.96875 C 66.198012 80.96875 80.96875 66.198012 80.96875 48 C 80.96875 29.801988 66.198012 15.03125 48 15.03125 z "
       transform="matrix(3.711 0 0 3.711 -49.314 747.98)"
       inkscape:radius="1.1188173"
       clip-path="none"
       mask="none" />
    <path
       id="path3953"
       sodipodi:rx="32"
       sodipodi:ry="32"
       style="opacity:.3;color:#000000;fill:#000000"
       sodipodi:type="arc"
       d="M 80,48 A 32,32 0 0 1 48,80 32,32 0 0 1 16,48 32,32 0 0 1 48,16 32,32 0 0 1 80,48 Z"
       transform="matrix(3.711 0 0 3.711 -49.314 747.98)"
       sodipodi:cy="48"
       sodipodi:cx="48"
       clip-path="none"
       mask="none" />
    <path
       id="path3900"
       sodipodi:rx="24"
       sodipodi:ry="24"
       style="color:#000000;fill:url(#radialGradient3914)"
       sodipodi:type="arc"
       d="M 72,48 A 24,24 0 0 1 48,72 24,24 0 0 1 24,48 24,24 0 0 1 48,24 24,24 0 0 1 72,48 Z"
       transform="matrix(4.0203 0 0 4.0203 -64.158 729.43)"
       sodipodi:cy="48"
       sodipodi:cx="48"
       clip-path="none"
       mask="none" />
    <path
       id="path3920"
       style="opacity:.2;color:#000000;fill:#000000"
       sodipodi:type="inkscape:offset"
       d="m48.281 18c-16.55 0-30 13.45-30 30s13.45 30 30 30 30-13.45 30-30-13.45-30-30-30zm-0.281 7.969c12.185 0 22.031 9.846 22.031 22.031s-9.846 22.031-22.031 22.031-22.031-9.846-22.031-22.031 9.846-22.031 22.031-22.031zm0 4.0625c-9.9073 0-17.969 8.0615-17.969 17.969 0 9.9073 8.0615 17.969 17.969 17.969 9.9073 0 17.969-8.0615 17.969-17.969 0-9.9073-8.0615-17.969-17.969-17.969z"
       inkscape:original="M 48.28125 19 C 32.272615 19 19.28125 31.991365 19.28125 48 C 19.28125 64.008635 32.272615 77 48.28125 77 C 64.289881 77 77.28125 64.008635 77.28125 48 C 77.28125 31.991365 64.289881 19 48.28125 19 z M 48 24.96875 C 60.725443 24.96875 71.03125 35.274553 71.03125 48 C 71.03125 60.725447 60.725443 71.03125 48 71.03125 C 35.274553 71.03125 24.96875 60.725447 24.96875 48 C 24.96875 35.274553 35.274553 24.96875 48 24.96875 z M 48 31.03125 C 38.634057 31.03125 31.03125 38.634057 31.03125 48 C 31.03125 57.365943 38.634057 64.96875 48 64.96875 C 57.365947 64.96875 64.96875 57.365943 64.96875 48 C 64.96875 38.634057 57.365947 31.03125 48 31.03125 z "
       transform="matrix(3.711 0 0 3.711 -49.314 744.78)"
       inkscape:radius="1.0002726"
       clip-path="none"
       mask="none" />
    <path
       id="path3916"
       style="opacity:.4;color:#000000;fill:#000000"
       sodipodi:type="inkscape:offset"
       d="m48.281 19c-16.009 0-29 12.991-29 29s12.991 29 29 29 29-12.991 29-29-12.991-29-29-29zm-0.281 5.969c12.725 0 23.031 10.306 23.031 23.031s-10.306 23.031-23.031 23.031-23.031-10.306-23.031-23.031 10.306-23.031 23.031-23.031zm0 6.0625c-9.3659 0-16.969 7.6028-16.969 16.969 0 9.3659 7.6028 16.969 16.969 16.969 9.3659 0 16.969-7.6028 16.969-16.969 0-9.3659-7.6028-16.969-16.969-16.969z"
       inkscape:original="M 48.28125 19.96875 C 32.802166 19.96875 20.25 32.520916 20.25 48 C 20.25 63.479084 32.802166 76.03125 48.28125 76.03125 C 63.76033 76.03125 76.3125 63.479084 76.3125 48 C 76.3125 32.520916 63.76033 19.96875 48.28125 19.96875 z M 48 24 C 61.25483 24 72 34.745166 72 48 C 72 61.254834 61.25483 72 48 72 C 34.745166 72 24 61.254834 24 48 C 24 34.745166 34.745166 24 48 24 z M 48 32 C 39.163444 32 32 39.163444 32 48 C 32 56.836556 39.163444 64 48 64 C 56.83656 64 64 56.836556 64 48 C 64 39.163444 56.83656 32 48 32 z "
       transform="matrix(3.711 0 0 3.711 -49.314 744.27)"
       inkscape:radius="0.97954804"
       clip-path="none"
       mask="none" />
    <path
       id="path3928"
       style="opacity:.6;color:#000000;fill:#000000"
       inkscape:connector-curvature="0"
       d="m128.81 833.34c-49.189 0-89.065 39.876-89.065 89.065 0 0.6145-0.01225 1.244 0 1.8555 0.97911-48.34 40.49-87.209 89.065-87.209s88.085 38.869 89.065 87.209c0.0111-0.6115 0-1.241 0-1.8555 0-49.189-39.876-89.065-89.065-89.065z"
       clip-path="none"
       mask="none" />
    <path
       id="path3811"
       style="color:#000000;fill:url(#linearGradient3842)"
       inkscape:connector-curvature="0"
       d="m10.062 922.4c0 65.585 53.167 118.75 118.75 118.75 65.585 0 118.75-53.167 118.75-118.75 0-65.585-53.167-118.75-118.75-118.75-65.585 0-118.75 53.167-118.75 118.75zm29.688 0c0-49.189 39.876-89.065 89.065-89.065s89.065 39.876 89.065 89.065-39.876 89.065-89.065 89.065-89.065-39.876-89.065-89.065z"
       clip-path="none"
       mask="none" />
    <path
       id="path3855"
       sodipodi:rx="16"
       sodipodi:ry="16"
       style="color:#000000;fill:url(#radialGradient3863)"
       sodipodi:type="arc"
       d="M 64,48 A 16,16 0 0 1 48,64 16,16 0 0 1 32,48 16,16 0 0 1 48,32 16,16 0 0 1 64,48 Z"
       transform="matrix(3.711 0 0 3.711 -49.314 744.27)"
       sodipodi:cy="48"
       sodipodi:cx="48"
       clip-path="none"
       mask="none" />
    <path
       id="path3865"
       sodipodi:rx="16"
       sodipodi:ry="16"
       style="opacity:0.456;color:#000000;fill:url(#linearGradient3875)"
       sodipodi:type="arc"
       d="M 64,48 A 16,16 0 0 1 48,64 16,16 0 0 1 32,48 16,16 0 0 1 48,32 16,16 0 0 1 64,48 Z"
       transform="matrix(2.5635 0 0 1.7395 5.7667 811.07)"
       sodipodi:cy="48"
       sodipodi:cx="48"
       clip-path="none"
       mask="none" />
    <path
       id="path3877"
       style="opacity:.2;color:#000000;fill:#ffffff"
       inkscape:connector-curvature="0"
       d="m73.265 920.55c-0.0208 0.623-0.11596 1.2276-0.11596 1.8555 0 30.743 24.922 55.665 55.665 55.665s55.665-24.922 55.665-55.665c0-0.6279-0.0954-1.2325-0.11615-1.8555-0.98955 29.874-25.434 53.81-55.549 53.81s-54.56-23.936-55.549-53.81z"
       clip-path="none"
       mask="none" />
    <path
       id="path3945"
       style="opacity:0.08;color:#000000;fill:#000000"
       inkscape:connector-curvature="0"
       d="m111.69 889.73c-6.7208 0.3685-12.293 6.8921-11.72 13.743-0.008 15.692 0.0152 31.385-0.0115 47.077 0.39356 5.976 5.2069 11.274 11.083 11.887 5.1126 0.9159 9.3461-2.4985 13.544-4.8696 11.392-6.7521 22.892-13.441 34.217-20.233 5.4033-3.0687 7.864-10.401 5.3275-16.168-1.8765-5.2312-7.2372-7.2381-11.528-9.9451-11.374-6.6657-22.681-13.467-34.096-20.048-2.1062-1.0454-4.4364-1.7438-6.8167-1.4437z"
       clip-path="none"
       mask="none" />
    <path
       id="path3941"
       style="opacity:.15;color:#000000;fill:#000000"
       sodipodi:type="inkscape:offset"
       d="m38.562 17.969c-0.05334 0.004-0.54102 0.05349-0.59375 0.0625-0.05273 0.009-0.5421 0.14235-0.59375 0.15625s-0.54362 0.16883-0.59375 0.1875-0.51434 0.19548-0.5625 0.21875-0.48548 0.28482-0.53125 0.3125c-0.04577 0.02767-0.45701 0.31192-0.5 0.34375s-0.46018 0.33928-0.5 0.375c-0.03982 0.03571-0.40119 0.39822-0.4375 0.4375s-0.34253 0.42624-0.375 0.46875c-0.03247 0.0425-0.31539 0.45464-0.34375 0.5s-0.28851 0.48344-0.3125 0.53125-0.23058 0.51266-0.25 0.5625-0.17283 0.51106-0.1875 0.5625-0.14646 0.54116-0.15625 0.59375c-0.0098 0.05259-0.05767 0.57173-0.0625 0.625-0.0048 0.05327-0.03142 0.54026-0.03125 0.59375v15.5 15.5c0.000137 0.07472 0.05262 0.76969 0.0625 0.84375 0.0099 0.07406 0.13679 0.77161 0.15625 0.84375s0.25255 0.74351 0.28125 0.8125 0.33754 0.7166 0.375 0.78125 0.42318 0.62829 0.46875 0.6875 0.50959 0.60349 0.5625 0.65625 0.59691 0.51709 0.65625 0.5625 0.654 0.43147 0.71875 0.46875 0.68094 0.34648 0.75 0.375 0.74031 0.26199 0.8125 0.28125 0.76966 0.14657 0.84375 0.15625c0.07409 0.0097 0.76903 0.06256 0.84375 0.0625 0.07472-0.000065 0.76968-0.05269 0.84375-0.0625 0.07407-0.0098 0.77159-0.13686 0.84375-0.15625s0.74349-0.25261 0.8125-0.28125 0.71656-0.3376 0.78125-0.375l13.406-7.75 13.406-7.75c0.06433-0.0375 0.62859-0.45445 0.6875-0.5s0.60376-0.50968 0.65625-0.5625 0.51732-0.5658 0.5625-0.625 0.43165-0.65418 0.46875-0.71875 0.34661-0.68116 0.375-0.75 0.26205-0.74055 0.28125-0.8125 0.14657-0.76992 0.15625-0.84375c0.0097-0.07383 0.0625-0.76929 0.0625-0.84375s-0.05282-0.76992-0.0625-0.84375c-0.0097-0.07383-0.13705-0.7718-0.15625-0.84375s-0.25286-0.74366-0.28125-0.8125-0.3379-0.68543-0.375-0.75-0.42358-0.65956-0.46875-0.71875c-0.04518-0.0592-0.51001-0.57218-0.5625-0.625s-0.59734-0.51695-0.65625-0.5625-0.62317-0.4625-0.6875-0.5l-13.406-7.75-13.406-7.75v0.03125c-0.0739-0.0436-0.79541-0.40545-0.875-0.4375s-0.85401-0.29273-0.9375-0.3125-0.88324-0.14919-0.96875-0.15625c-0.08551-0.0071-0.88315-0.0058-0.96875 0a2.4104 2.4104 0 0 0 -0.03125 0z"
       inkscape:original="M 38.75 20.375 A 4.1236838 4.1236838 0 0 0 34.9375 24.5 L 34.9375 40 L 34.9375 55.5 A 4.1236838 4.1236838 0 0 0 41.125 59.0625 L 54.53125 51.3125 L 67.9375 43.5625 A 4.1236838 4.1236838 0 0 0 67.9375 36.4375 L 54.53125 28.6875 L 41.125 20.9375 A 4.1236838 4.1236838 0 0 0 38.75 20.375 z "
       transform="matrix(1.4824 0 0 1.5128 54.756 865.62)"
       inkscape:radius="2.4102025"
       clip-path="none"
       mask="none" />
    <path
       id="path3937"
       style="opacity:.3;color:#000000;fill:#000000"
       sodipodi:type="inkscape:offset"
       d="m38.75 20.375a4.1237 4.1237 0 0 0 -3.812 4.125v15.5 15.5a4.1237 4.1237 0 0 0 6.1875 3.5625l13.406-7.75 13.406-7.75a4.1237 4.1237 0 0 0 0 -7.125l-13.407-7.749-13.406-7.75a4.1237 4.1237 0 0 0 -2.375 -0.563z"
       inkscape:original="M 39.0625 24.5 L 39.0625 40 L 39.0625 55.5 L 52.46875 47.75 L 65.875 40 L 52.46875 32.25 L 39.0625 24.5 z "
       transform="matrix(1.4824 0 0 1.5128 54.756 865.62)"
       inkscape:radius="4.1232715"
       clip-path="none"
       mask="none" />
    <path
       id="path3935"
       style="color:#000000;fill:url(#linearGradient4100)"
       sodipodi:type="inkscape:offset"
       d="m38.75 20.375a4.1237 4.1237 0 0 0 -3.812 4.125v15.5 15.5a4.1237 4.1237 0 0 0 6.1875 3.5625l13.406-7.75 13.406-7.75a4.1237 4.1237 0 0 0 0 -7.125l-13.407-7.749-13.406-7.75a4.1237 4.1237 0 0 0 -2.375 -0.563z"
       inkscape:original="M 39.0625 24.5 L 39.0625 40 L 39.0625 55.5 L 52.46875 47.75 L 65.875 40 L 52.46875 32.25 L 39.0625 24.5 z "
       transform="matrix(1.4824 0 0 1.5128 54.756 861.91)"
       inkscape:radius="4.1232715"
       clip-path="none"
       mask="none" />
    <path
       id="path3963"
       sodipodi:nodetypes="sscscss"
       style="opacity:.75465;color:#000000;fill:#ffffff"
       inkscape:connector-curvature="0"
       d="m128.81 803.65c-65.585 0-118.75 53.167-118.75 118.75 0 0.6186-0.0093 1.2393 0 1.8555 0.98976-64.731 53.786-116.9 118.75-116.9 64.967 0 117.76 52.166 118.75 116.9 0.007-0.6162 0-1.2369 0-1.8555 0-65.585-53.167-118.75-118.75-118.75z"
       clip-path="none"
       mask="none" />
    <path
       id="path3974"
       style="color:#000000;fill:url(#linearGradient3985)"
       inkscape:connector-curvature="0"
       d="m225.3 922.4c0-53.288-43.199-96.487-96.487-96.487s-96.487 43.199-96.487 96.487 43.199 96.487 96.487 96.487 96.487-43.199 96.487-96.487zm-7.422 0c0 49.189-39.876 89.065-89.065 89.065s-89.065-39.876-89.065-89.065 39.876-89.065 89.065-89.065 89.065 39.876 89.065 89.065z"
       clip-path="none"
       mask="none" />
    <rect
       x="741.46765"
       y="438.68692"
       width="3.7110379"
       height="63.087219"
       style="color:#000000;opacity:0.6;fill:#000000;stroke-width:1.88341665"
       id="rect3987"
       transform="rotate(45)"
       clip-path="none"
       mask="none" />
    <rect
       x="745.17871"
       y="438.68692"
       width="3.7110379"
       height="63.087219"
       style="color:#000000;opacity:0.2;fill:#000000;stroke-width:1.88341665"
       id="rect3989"
       transform="rotate(45)"
       clip-path="none"
       mask="none" />
    <rect
       x="737.75659"
       y="438.68692"
       width="3.7110379"
       height="63.087219"
       style="color:#000000;opacity:0.4;fill:#ffffff;stroke-width:1.88341665"
       id="rect3991"
       transform="rotate(45)"
       clip-path="none"
       mask="none" />
    <rect
       x="559.29572"
       y="620.85883"
       width="3.7110379"
       height="63.087219"
       style="color:#000000;opacity:0.6;fill:#000000;stroke-width:1.88341665"
       id="rect4022"
       transform="matrix(-0.70710678,0.70710678,0.70710678,0.70710678,0,0)"
       clip-path="none"
       mask="none" />
    <rect
       x="563.00677"
       y="620.85883"
       width="3.7110379"
       height="63.087219"
       style="color:#000000;opacity:0.2;fill:#000000;stroke-width:1.88341665"
       id="rect4024"
       transform="matrix(-0.70710678,0.70710678,0.70710678,0.70710678,0,0)"
       clip-path="none"
       mask="none" />
    <rect
       x="555.58472"
       y="620.85883"
       width="3.7110379"
       height="63.087219"
       style="color:#000000;opacity:0.4;fill:#ffffff;stroke-width:1.88341665"
       id="rect4026"
       transform="matrix(-0.70710678,0.70710678,0.70710678,0.70710678,0,0)"
       clip-path="none"
       mask="none" />
    <rect
       x="-745.17487"
       y="-683.61176"
       width="3.7110379"
       height="63.087219"
       style="color:#000000;opacity:0.6;fill:#000000;stroke-width:1.88341665"
       id="rect4038"
       transform="rotate(-135)"
       clip-path="none"
       mask="none" />
    <rect
       x="-741.46381"
       y="-683.61176"
       width="3.7110379"
       height="63.087219"
       style="color:#000000;opacity:0.2;fill:#000000;stroke-width:1.88341665"
       id="rect4040"
       transform="rotate(-135)"
       clip-path="none"
       mask="none" />
    <rect
       x="-748.88593"
       y="-683.61176"
       width="3.7110379"
       height="63.087219"
       style="color:#000000;opacity:0.4;fill:#ffffff;stroke-width:1.88341665"
       id="rect4042"
       transform="rotate(-135)"
       clip-path="none"
       mask="none" />
    <rect
       x="-563.00293"
       y="-865.78369"
       width="3.7110379"
       height="63.087219"
       style="color:#000000;opacity:0.6;fill:#000000;stroke-width:1.88341665"
       id="rect4046"
       transform="matrix(0.70710678,-0.70710678,-0.70710678,-0.70710678,0,0)"
       clip-path="none"
       mask="none" />
    <rect
       x="-559.29193"
       y="-865.78369"
       width="3.7110379"
       height="63.087219"
       style="color:#000000;opacity:0.2;fill:#000000;stroke-width:1.88341665"
       id="rect4048"
       transform="matrix(0.70710678,-0.70710678,-0.70710678,-0.70710678,0,0)"
       clip-path="none"
       mask="none" />
    <rect
       x="-566.71399"
       y="-865.78369"
       width="3.7110379"
       height="63.087219"
       style="color:#000000;opacity:0.4;fill:#ffffff;stroke-width:1.88341665"
       id="rect4050"
       transform="matrix(0.70710678,-0.70710678,-0.70710678,-0.70710678,0,0)"
       clip-path="none"
       mask="none" />
    <path
       inkscape:connector-curvature="0"
       style="fill:#1c1c1c;stroke-width:3.77040005"
       d="m 26.923905,930.08327 -3.988706,3.14843 0.352117,3.21359 4.282421,-0.46922 0.153191,1.39817 -10.314306,1.13014 -0.531777,-4.85326 c -0.06417,-0.58561 -0.05252,-1.11038 0.03506,-1.57436 0.08204,-0.46829 0.233086,-0.87006 0.453165,-1.20533 0.220078,-0.33526 0.504328,-0.60345 0.852676,-0.8046 0.348385,-0.20115 0.75193,-0.32686 1.210637,-0.37711 0.326969,-0.0358 0.654429,-0.0222 0.982303,0.0405 0.327383,0.058 0.634068,0.17502 0.920053,0.3511 0.285984,0.17611 0.541542,0.41233 0.766597,0.70868 0.225093,0.29635 0.40102,0.66231 0.527743,1.09783 l 4.122556,-3.41497 0.176454,1.61046 m -7.327018,1.01024 c -0.31234,0.0343 -0.577286,0.11759 -0.794913,0.25009 -0.21759,0.13249 -0.390802,0.30951 -0.519637,0.53106 -0.133698,0.22207 -0.221096,0.48355 -0.262231,0.78435 -0.046,0.30137 -0.04868,0.6375 -0.0079,1.0084 l 0.363353,3.31606 3.806596,-0.41708 -0.369763,-3.37462 c -0.04385,-0.40015 -0.130607,-0.7413 -0.260308,-1.02344 -0.134566,-0.28157 -0.29986,-0.50546 -0.495846,-0.67166 -0.196513,-0.17106 -0.419193,-0.28741 -0.667926,-0.34906 -0.249261,-0.0665 -0.513001,-0.0845 -0.791181,-0.0541"
       id="path4160"
       clip-path="none"
       mask="none" />
    <path
       inkscape:connector-curvature="0"
       style="fill:#1c1c1c;stroke-width:3.77040005"
       d="m 26.678829,926.52401 -10.375764,0.0679 -0.05154,-7.87184 1.148765,-0.008 0.04234,6.46548 3.328471,-0.0219 -0.03944,-6.02359 1.134061,-0.008 0.03944,6.0236 3.615663,-0.0238 -0.0443,-6.76749 1.148765,-0.008 0.05354,8.17385"
       id="path4162"
       clip-path="none"
       mask="none" />
    <path
       inkscape:connector-curvature="0"
       style="fill:#1c1c1c;stroke-width:3.77040005"
       d="m 27.757163,906.60876 -0.190103,1.66821 -6.752033,1.03901 c -0.191461,0.0324 -0.417647,0.0661 -0.678521,0.10056 -0.260308,0.0298 -0.507873,0.0558 -0.742693,0.0784 -0.274938,0.0279 -0.554777,0.0554 -0.83948,0.0822 0.275692,0.0956 0.544333,0.18803 0.805961,0.27712 0.228034,0.0803 0.46308,0.16398 0.705178,0.25085 0.242097,0.0869 0.452787,0.1677 0.631994,0.24251 l 6.343321,2.54619 -0.190103,1.66821 -10.655151,1.86156 0.165936,-1.45601 6.759573,-1.10485 c 0.316751,-0.0479 0.630524,-0.0912 0.94128,-0.12989 0.311322,-0.0436 0.58954,-0.0786 0.834653,-0.105 0.290133,-0.0313 0.565108,-0.0591 0.824851,-0.0839 -0.328213,-0.11153 -0.651299,-0.22491 -0.969219,-0.34021 -0.132681,-0.0497 -0.272675,-0.10025 -0.420023,-0.15164 -0.147309,-0.0513 -0.292206,-0.10248 -0.434651,-0.15331 -0.141881,-0.0557 -0.276748,-0.10813 -0.404564,-0.15726 -0.132115,-0.0546 -0.252617,-0.10289 -0.361469,-0.14497 l -6.212488,-2.52387 0.152588,-1.33894 6.6212,-1.06133 c 0.115525,-0.0166 0.24353,-0.0339 0.383977,-0.0526 0.13615,-0.0241 0.279349,-0.0448 0.429562,-0.0622 0.145915,-0.023 0.296391,-0.0428 0.451505,-0.0597 0.155115,-0.017 0.302877,-0.0347 0.443362,-0.0532 0.335716,-0.0408 0.678446,-0.0783 1.028226,-0.11259 5.54e-4,-0.005 -0.07986,-0.0362 -0.241268,-0.0942 -0.166275,-0.0585 -0.372893,-0.13144 -0.619892,-0.21887 -0.246961,-0.0874 -0.512887,-0.18196 -0.797779,-0.28361 -0.289227,-0.10708 -0.556473,-0.21164 -0.801775,-0.31374 l -6.340682,-2.56813 0.165935,-1.45602 9.963282,4.21116"
       id="path4164"
       clip-path="none"
       mask="none" />
    <path
       inkscape:connector-curvature="0"
       style="fill:#1c1c1c;stroke-width:3.77040005"
       d="m 114.36702,821.35624 -1.44252,0.21258 -5.70197,-9.6477 1.46435,-0.21582 3.90651,6.80821 c 0.10504,0.20783 0.21012,0.41565 0.3152,0.62348 0.10437,0.20296 0.19818,0.38514 0.28154,0.54655 0.0974,0.18913 0.19154,0.37373 0.28259,0.55384 0.0317,-0.1883 0.067,-0.38703 0.10568,-0.59618 0.0332,-0.17856 0.0681,-0.37971 0.1046,-0.60345 0.0414,-0.22445 0.0861,-0.45931 0.13433,-0.70461 l 1.76165,-7.64373 1.46435,-0.21582 -2.67627,10.8825"
       id="path4166"
       clip-path="none"
       mask="none" />
    <path
       inkscape:connector-curvature="0"
       style="fill:#1c1c1c;stroke-width:3.77040005"
       d="m 129.43354,815.00689 c 0.0324,0.80939 -0.0556,1.54994 -0.26442,2.22163 -0.20394,0.67151 -0.51718,1.25159 -0.93973,1.74027 -0.42255,0.48868 -0.94758,0.87338 -1.57501,1.15408 -0.62747,0.28075 -1.34588,0.43737 -2.15528,0.46991 -0.85354,0.0343 -1.60694,-0.0681 -2.2602,-0.3071 -0.65345,-0.24395 -1.20313,-0.59527 -1.64902,-1.05394 -0.44612,-0.46357 -0.79028,-1.01967 -1.03256,-1.66833 -0.24225,-0.64866 -0.37908,-1.36292 -0.41045,-2.14291 -0.0324,-0.80939 0.0509,-1.54484 0.25032,-2.20632 0.19941,-0.66148 0.50825,-1.22911 0.92646,-1.70286 0.41802,-0.47866 0.94098,-0.85343 1.56883,-1.12438 0.63256,-0.27599 1.36334,-0.43069 2.19233,-0.46402 0.8241,-0.0332 1.56004,0.0626 2.2078,0.28708 0.65265,0.22434 1.20411,0.5584 1.65434,1.00213 0.45512,0.44355 0.8086,0.98702 1.0605,1.63036 0.25186,0.64335 0.39389,1.36481 0.42605,2.1644 m -1.43482,0.0577 c -0.0249,-0.62298 -0.1288,-1.18632 -0.31117,-1.68997 -0.17751,-0.50384 -0.43051,-0.93095 -0.75906,-1.28133 -0.32365,-0.35057 -0.71996,-0.61469 -1.18896,-0.79239 -0.469,-0.17766 -1.00519,-0.25439 -1.60853,-0.23011 -0.61808,0.0249 -1.15619,0.14475 -1.61429,0.3597 -0.45815,0.21495 -0.83688,0.51025 -1.13621,0.88585 -0.29443,0.37542 -0.50991,0.82139 -0.64636,1.33785 -0.13155,0.51629 -0.18479,1.08592 -0.15976,1.7089 0.0249,0.62298 0.1265,1.1913 0.30439,1.70498 0.1826,0.50855 0.43601,0.94546 0.76022,1.31078 0.32893,0.36018 0.72822,0.63648 1.19779,0.82888 0.47427,0.18728 1.0131,0.26879 1.61648,0.24455 0.64753,-0.026 1.20004,-0.15391 1.65758,-0.38356 0.46244,-0.22989 0.83578,-0.53721 1.12003,-0.92206 0.28893,-0.38993 0.49408,-0.84777 0.61545,-1.37348 0.12623,-0.52589 0.17705,-1.09541 0.1524,-1.70859"
       id="path4168"
       clip-path="none"
       mask="none" />
    <path
       inkscape:connector-curvature="0"
       style="fill:#1c1c1c;stroke-width:3.77040005"
       d="m 131.59775,820.36463 0.61065,-10.35804 1.4041,0.0828 -0.54305,9.21109 5.23407,0.30857 -0.0676,1.14681 -6.63817,-0.39137"
       id="path4170"
       clip-path="none"
       mask="none" />
    <path
       inkscape:connector-curvature="0"
       style="fill:#1c1c1c;stroke-width:3.77040005"
       d="m 140.10754,821.01691 0.19482,-1.60091 1.42547,0.17347 -0.19485,1.60091 -1.42548,-0.17347"
       id="path4172"
       clip-path="none"
       mask="none" />
    <path
       inkscape:connector-curvature="0"
       style="fill:#1c1c1c;stroke-width:3.77040005"
       d="m 152.85904,818.70942 -0.70869,3.07111 -1.05481,-0.24342 0.70869,-3.0711 -3.04241,-0.70205 0.24175,-1.04761 3.04242,0.70205 0.70868,-3.0711 1.05481,0.24338 -0.70869,3.0711 3.04241,0.70205 -0.24175,1.04764 -3.04241,-0.70205"
       id="path4174"
       clip-path="none"
       mask="none" />
    <path
       inkscape:connector-curvature="0"
       style="fill:#1c1c1c;stroke-width:3.77040005"
       d="m 238.67334,908.52412 -3.83714,0.40947 0.61424,5.75551 -1.15695,0.12348 -0.61423,-5.75551 -4.181,0.44623 -0.14927,-1.3986 10.31732,-1.10107 0.78225,7.32966 -1.14232,0.1219 -0.63298,-5.93122"
       id="path4176"
       clip-path="none"
       mask="none" />
    <path
       inkscape:connector-curvature="0"
       style="fill:#1c1c1c;stroke-width:3.77040005"
       d="m 230.2465,927.17629 0.0143,-1.67896 6.60612,-1.74049 c 0.18701,-0.0524 0.40841,-0.10945 0.66427,-0.17106 0.25578,-0.0567 0.49924,-0.10867 0.7304,-0.1558 0.27049,-0.0566 0.54592,-0.11318 0.82625,-0.1697 -0.28422,-0.0662 -0.56104,-0.13001 -0.83055,-0.1912 -0.23519,-0.056 -0.47771,-0.11454 -0.72757,-0.17559 -0.24987,-0.061 -0.46783,-0.11937 -0.65394,-0.17494 l -6.5752,-1.86778 0.0143,-1.67896 10.40178,-2.96738 -0.0124,1.4654 -6.6065,1.80678 c -0.31,0.0808 -0.61748,0.15673 -0.9225,0.22777 -0.30503,0.0759 -0.57808,0.13988 -0.81909,0.19183 -0.28526,0.0614 -0.55579,0.11798 -0.81154,0.16982 0.3381,0.0765 0.67129,0.15546 0.99954,0.23682 0.13716,0.0354 0.28168,0.0711 0.43359,0.10682 0.15187,0.0358 0.30133,0.0713 0.4483,0.10693 0.14694,0.0405 0.28655,0.0785 0.41878,0.11405 0.13713,0.0405 0.26201,0.0759 0.37467,0.10629 l 6.44248,1.85926 -0.0117,1.34758 -6.4734,1.74897 c -0.11315,0.0287 -0.23863,0.0593 -0.37636,0.0925 -0.13287,0.0381 -0.27313,0.0738 -0.42066,0.10689 -0.14271,0.038 -0.29029,0.0736 -0.44276,0.10666 -0.15248,0.0332 -0.2976,0.0662 -0.43533,0.0994 -0.32957,0.0758 -0.66653,0.14893 -1.01077,0.21966 -4e-5,0.005 0.0832,0.0275 0.24979,0.0684 0.17148,0.0407 0.38462,0.0917 0.63938,0.15274 0.25477,0.0611 0.52914,0.12725 0.82312,0.19851 0.29884,0.0762 0.57559,0.15217 0.83024,0.22803 l 6.57482,1.88988 -0.0124,1.4654 -10.34937,-3.14459"
       id="path4178"
       clip-path="none"
       mask="none" />
    <path
       inkscape:connector-curvature="0"
       style="fill:#1c1c1c;stroke-width:3.77040005"
       d="m 234.02067,941.06644 c -0.85645,-0.11431 -1.59594,-0.34427 -2.21847,-0.68987 -0.61767,-0.34495 -1.118,-0.77082 -1.50107,-1.2776 -0.37821,-0.50613 -0.64074,-1.08104 -0.78764,-1.72473 -0.14267,-0.63818 -0.16691,-1.31002 -0.0727,-2.01565 l 0.51342,-3.84657 10.28489,1.37273 -0.45399,3.40151 c -0.10587,0.79318 -0.30307,1.50982 -0.59154,2.14984 -0.28429,0.64557 -0.6654,1.18161 -1.1433,1.60815 -0.47307,0.42719 -1.04376,0.7324 -1.7121,0.91561 -0.66898,0.18806 -1.44142,0.22366 -2.31736,0.10674 m 0.18705,-1.40146 c 0.69586,0.0929 1.30286,0.0724 1.82099,-0.0616 0.52299,-0.13329 0.96665,-0.35887 1.33102,-0.67671 0.36438,-0.31789 0.653,-0.7177 0.86588,-1.19944 0.21774,-0.48111 0.36656,-1.02091 0.44645,-1.61947 l 0.26404,-1.9781 -8.05131,-1.0746 -0.30593,2.29199 c -0.0721,0.54015 -0.0511,1.05062 0.063,1.53142 0.11349,0.48567 0.32056,0.91945 0.62125,1.30132 0.30069,0.38186 0.69628,0.70212 1.18677,0.96077 0.49049,0.25861 1.07637,0.43341 1.75765,0.52435"
       id="path4180"
       clip-path="none"
       mask="none" />
    <path
       inkscape:connector-curvature="0"
       style="fill:#1c1c1c;stroke-width:3.77040005"
       d="m 142.29437,1023.0387 1.44309,-0.2087 5.67596,9.6628 -1.46495,0.2119 -3.88804,-6.8188 c -0.10452,-0.2081 -0.20903,-0.4162 -0.31351,-0.6243 -0.1038,-0.2033 -0.19715,-0.3857 -0.28006,-0.5473 -0.0968,-0.1894 -0.19056,-0.3743 -0.28113,-0.5546 -0.0324,0.1882 -0.068,0.3868 -0.10726,0.5959 -0.0336,0.1785 -0.0691,0.3795 -0.10622,0.6032 -0.042,0.2243 -0.0874,0.459 -0.13622,0.7042 l -1.78212,7.6388 -1.46495,0.2119 2.70541,-10.8753"
       id="path4182"
       clip-path="none"
       mask="none" />
    <path
       inkscape:connector-curvature="0"
       style="fill:#1c1c1c;stroke-width:3.77040005"
       d="m 127.21277,1029.3466 c -0.0302,-0.8095 0.0598,-1.5498 0.27046,-2.2209 0.20575,-0.671 0.52057,-1.2502 0.94444,-1.7377 0.42387,-0.4875 0.94992,-0.8708 1.57814,-1.1498 0.62823,-0.2791 1.34705,-0.4338 2.15652,-0.4641 0.85362,-0.032 1.60676,0.072 2.25937,0.3132 0.65281,0.2458 1.20152,0.5986 1.64616,1.0585 0.44483,0.4647 0.78752,1.0218 1.028,1.6711 0.24051,0.6493 0.37538,1.364 0.40464,2.144 0.0302,0.8094 -0.0551,1.5447 -0.25631,2.2056 -0.20123,0.661 -0.51157,1.2277 -0.9311,1.7004 -0.41935,0.4775 -0.94328,0.8508 -1.57188,1.1201 -0.63328,0.2743 -1.36451,0.4269 -2.19362,0.458 -0.82421,0.031 -1.55985,-0.067 -2.207,-0.2931 -0.65206,-0.2261 -1.20257,-0.5616 -1.65159,-1.0066 -0.45392,-0.4448 -0.80592,-0.9892 -1.05609,-1.6332 -0.25013,-0.644 -0.39016,-1.3659 -0.42017,-2.1655 m 1.43497,-0.054 c 0.0234,0.6231 0.12556,1.1867 0.30657,1.6908 0.17612,0.5044 0.42798,0.9322 0.75555,1.2835 0.32271,0.3514 0.7183,0.6166 1.18681,0.7955 0.46851,0.179 1.00451,0.2571 1.60793,0.2345 0.61816,-0.023 1.15657,-0.1416 1.61528,-0.3553 0.4587,-0.2137 0.83823,-0.508 1.13862,-0.8828 0.29545,-0.3746 0.51213,-0.8199 0.64998,-1.336 0.13294,-0.516 0.18776,-1.0855 0.16439,-1.7085 -0.0234,-0.623 -0.12329,-1.1917 -0.29975,-1.7058 -0.1812,-0.509 -0.43341,-0.9467 -0.75664,-1.3128 -0.32795,-0.3611 -0.72648,-0.6385 -1.19552,-0.8322 -0.47379,-0.1886 -1.01239,-0.2715 -1.61584,-0.2489 -0.64757,0.024 -1.20046,0.1506 -1.6586,0.3791 -0.46305,0.2286 -0.83722,0.5349 -1.12253,0.919 -0.28998,0.3891 -0.49637,0.8464 -0.61917,1.3718 -0.12767,0.5255 -0.18004,1.0949 -0.15704,1.7081"
       id="path4184"
       clip-path="none"
       mask="none" />
    <path
       inkscape:connector-curvature="0"
       style="fill:#1c1c1c;stroke-width:3.77040005"
       d="m 125.06365,1023.9851 -0.63905,10.3561 -1.40387,-0.087 0.56828,-9.2096 -5.23332,-0.3229 0.0708,-1.1466 6.63704,0.4095"
       id="path4186"
       clip-path="none"
       mask="none" />
    <path
       inkscape:connector-curvature="0"
       style="fill:#1c1c1c;stroke-width:3.77040005"
       d="m 116.55385,1023.3102 -0.19922,1.6004 -1.42499,-0.1774 0.19923,-1.6004 1.42498,0.1774"
       id="path4188"
       clip-path="none"
       mask="none" />
    <path
       inkscape:connector-curvature="0"
       style="fill:#1c1c1c;stroke-width:3.77040005"
       d="m 112.53084,1026.2285 -0.19874,1.1613 -3.62927,-0.6211 0.19873,-1.1613 3.62928,0.6211"
       id="path4190"
       clip-path="none"
       mask="none" />
    <path
       d="m 28.706782,929.92155 -3.907989,3.09173 0.344992,3.15572 4.195759,-0.46078 0.150091,1.373 -10.10558,1.10979 -0.521015,-4.76586 c -0.06287,-0.57507 -0.05146,-1.09039 0.03435,-1.54602 0.08038,-0.45985 0.228369,-0.85439 0.443994,-1.18361 0.215624,-0.32923 0.494122,-0.59259 0.83542,-0.79012 0.341335,-0.19752 0.736715,-0.32097 1.186139,-0.37032 0.320352,-0.0352 0.641185,-0.0218 0.962424,0.0398 0.320758,0.057 0.621237,0.17187 0.901434,0.34478 0.280197,0.17294 0.530584,0.4049 0.751084,0.69592 0.220538,0.29102 0.392905,0.65038 0.517064,1.07806 l 4.039129,-3.35347 0.172883,1.58145 m -7.178744,0.99205 c -0.306019,0.0337 -0.565604,0.11548 -0.778827,0.24559 -0.213187,0.1301 -0.382894,0.30393 -0.509121,0.52149 -0.130993,0.21808 -0.216622,0.47485 -0.256925,0.77023 -0.04507,0.29595 -0.04769,0.62602 -0.0078,0.99024 l 0.356,3.25635 3.729563,-0.40957 -0.36228,-3.31385 c -0.04296,-0.39295 -0.127964,-0.72795 -0.255041,-1.00501 -0.131842,-0.2765 -0.293791,-0.49636 -0.485811,-0.65956 -0.192536,-0.16798 -0.41071,-0.28224 -0.65441,-0.34278 -0.244216,-0.0653 -0.502619,-0.083 -0.775169,-0.0531"
       inkscape:connector-curvature="0"
       style="fill:#d8e6fe;stroke-width:3.6982975"
       id="path4062"
       clip-path="none"
       mask="none" />
    <path
       d="m 28.466665,926.42639 -10.165794,0.0667 -0.0505,-7.73008 1.125518,-0.007 0.04149,6.34905 3.261115,-0.0215 -0.03864,-5.91511 1.111112,-0.007 0.03864,5.91511 3.542494,-0.0233 -0.0434,-6.64561 1.125518,-0.007 0.05246,8.02665"
       inkscape:connector-curvature="0"
       style="fill:#d8e6fe;stroke-width:3.6982975"
       id="path4064"
       clip-path="none"
       mask="none" />
    <path
       d="m 29.523178,906.86978 -0.186257,1.63817 -6.615394,1.0203 c -0.187586,0.0318 -0.409195,0.0649 -0.66479,0.0987 -0.255041,0.0293 -0.497596,0.0548 -0.727664,0.077 -0.269374,0.0274 -0.54355,0.0544 -0.822491,0.0807 0.270112,0.0939 0.533317,0.18465 0.78965,0.27214 0.22342,0.0789 0.45371,0.16102 0.690908,0.24632 0.237198,0.0853 0.443624,0.16469 0.619205,0.23815 l 6.214954,2.50033 -0.186257,1.63818 -10.439526,1.82803 0.162577,-1.42979 6.622782,-1.08495 c 0.310342,-0.047 0.617765,-0.0896 0.922233,-0.12755 0.305021,-0.0428 0.577609,-0.0772 0.817762,-0.10311 0.284261,-0.0307 0.553672,-0.0581 0.808159,-0.0824 -0.321572,-0.10952 -0.638119,-0.22086 -0.949606,-0.33408 -0.129995,-0.0488 -0.267157,-0.0984 -0.411522,-0.14891 -0.144329,-0.0504 -0.286293,-0.10064 -0.425856,-0.15055 -0.139009,-0.0547 -0.271147,-0.10619 -0.396377,-0.15443 -0.129441,-0.0536 -0.247505,-0.10104 -0.354153,-0.14236 l -6.086769,-2.47842 0.1495,-1.31483 6.487209,-1.04222 c 0.113187,-0.0163 0.238602,-0.0333 0.376207,-0.0516 0.133394,-0.0237 0.273696,-0.0439 0.420869,-0.0611 0.142962,-0.0226 0.290393,-0.042 0.442369,-0.0586 0.151975,-0.0167 0.296747,-0.0341 0.434389,-0.0523 0.328922,-0.0401 0.664716,-0.0769 1.007418,-0.11056 5.43e-4,-0.005 -0.07824,-0.0355 -0.236386,-0.0925 -0.162909,-0.0574 -0.365346,-0.12907 -0.607347,-0.21493 -0.241963,-0.0859 -0.502508,-0.17868 -0.781634,-0.2785 -0.283375,-0.10515 -0.545212,-0.20782 -0.785551,-0.30809 l -6.212368,-2.52188 0.162578,-1.42979 9.761659,4.13532"
       inkscape:connector-curvature="0"
       style="fill:#d8e6fe;stroke-width:3.6982975"
       id="path4066"
       clip-path="none"
       mask="none" />
    <path
       d="m 114.38035,823.15255 -1.41333,0.20875 -5.58658,-9.47396 1.43471,-0.21193 3.82746,6.68561 c 0.10291,0.20408 0.20587,0.40816 0.30882,0.61224 0.10226,0.19931 0.19417,0.37821 0.27584,0.53672 0.0954,0.18572 0.18766,0.36699 0.27688,0.54386 0.031,-0.1849 0.0657,-0.38006 0.10354,-0.58544 0.0325,-0.17535 0.0667,-0.37288 0.10248,-0.59259 0.0405,-0.22041 0.0844,-0.45103 0.13162,-0.69192 l 1.72599,-7.50608 1.43471,-0.21193 -2.6221,10.68653"
       inkscape:connector-curvature="0"
       style="fill:#d8e6fe;stroke-width:3.6982975"
       id="path4068"
       clip-path="none"
       mask="none" />
    <path
       d="m 129.14197,816.91754 c 0.0318,0.79482 -0.0545,1.52203 -0.25906,2.18163 -0.19982,0.65941 -0.50672,1.22904 -0.92072,1.70892 -0.414,0.47989 -0.9284,0.85765 -1.54314,1.1333 -0.61477,0.27569 -1.31864,0.42949 -2.11166,0.46145 -0.83627,0.0337 -1.57442,-0.0668 -2.21446,-0.30157 -0.64023,-0.23955 -1.17879,-0.58455 -1.61565,-1.03496 -0.43709,-0.45523 -0.77429,-1.00131 -1.01167,-1.63828 -0.23735,-0.63698 -0.3714,-1.33838 -0.40214,-2.10432 -0.0318,-0.79482 0.0499,-1.51703 0.24525,-2.16659 0.19538,-0.64957 0.49797,-1.20698 0.90772,-1.6722 0.40956,-0.47003 0.92193,-0.83806 1.53707,-1.10412 0.61976,-0.27103 1.33575,-0.42294 2.14798,-0.45567 0.80741,-0.0326 1.52847,0.0615 2.16311,0.28191 0.63945,0.2203 1.17975,0.54834 1.62086,0.98409 0.44592,0.43556 0.79224,0.96924 1.03904,1.60099 0.24677,0.63176 0.38592,1.34024 0.41744,2.12542 m -1.40579,0.0566 c -0.0244,-0.61176 -0.12619,-1.16495 -0.30488,-1.65953 -0.17392,-0.49477 -0.42179,-0.91419 -0.74369,-1.25826 -0.31711,-0.34426 -0.70539,-0.60362 -1.1649,-0.77812 -0.45951,-0.17446 -0.98485,-0.2498 -1.57598,-0.22596 -0.60557,0.0244 -1.13279,0.14214 -1.58163,0.35322 -0.44887,0.21108 -0.81994,0.50106 -1.11321,0.8699 -0.28848,0.36866 -0.49959,0.80659 -0.63328,1.31376 -0.12889,0.50698 -0.18105,1.06636 -0.15652,1.67812 0.0244,0.61176 0.12393,1.16984 0.29822,1.67427 0.17891,0.49939 0.42719,0.92844 0.74484,1.28717 0.32228,0.3537 0.71348,0.62502 1.17354,0.81396 0.46469,0.18391 0.99261,0.26395 1.58378,0.24015 0.63442,-0.0255 1.17575,-0.15114 1.62403,-0.37666 0.45308,-0.22574 0.81887,-0.52753 1.09737,-0.90545 0.28308,-0.38291 0.48408,-0.8325 0.60299,-1.34874 0.12368,-0.51643 0.17348,-1.07569 0.14932,-1.67783"
       inkscape:connector-curvature="0"
       style="fill:#d8e6fe;stroke-width:3.6982975"
       id="path4070"
       clip-path="none"
       mask="none" />
    <path
       d="m 131.26239,822.1788 0.59829,-10.17151 1.37569,0.0813 -0.53207,9.0452 5.12815,0.30302 -0.0662,1.12615 -6.50383,-0.38432"
       inkscape:connector-curvature="0"
       style="fill:#d8e6fe;stroke-width:3.6982975"
       id="path4072"
       clip-path="none"
       mask="none" />
    <path
       d="m 139.59997,822.81933 0.19087,-1.57208 1.39663,0.17035 -0.19091,1.57208 -1.39663,-0.17035"
       inkscape:connector-curvature="0"
       style="fill:#d8e6fe;stroke-width:3.6982975"
       id="path4074"
       clip-path="none"
       mask="none" />
    <path
       d="m 152.09342,820.5534 -0.69435,3.0158 -1.03346,-0.23904 0.69434,-3.01579 -2.98084,-0.68941 0.23687,-1.02874 2.98084,0.68941 0.69434,-3.0158 1.03346,0.239 -0.69434,3.01579 2.98084,0.68941 -0.23686,1.02878 -2.98084,-0.68941"
       inkscape:connector-curvature="0"
       style="fill:#d8e6fe;stroke-width:3.6982975"
       id="path4076"
       clip-path="none"
       mask="none" />
    <path
       d="m 236.17113,908.75065 -3.75948,0.40209 0.6018,5.65187 -1.13353,0.12126 -0.60181,-5.65187 -4.09639,0.43819 -0.14625,-1.3734 10.10854,-1.08124 0.76641,7.19766 -1.1192,0.1197 -0.62016,-5.82441"
       inkscape:connector-curvature="0"
       style="fill:#d8e6fe;stroke-width:3.6982975"
       id="path4078"
       clip-path="none"
       mask="none" />
    <path
       d="m 227.91482,927.06692 0.014,-1.64872 6.47243,-1.70915 c 0.18323,-0.0515 0.40014,-0.10748 0.65083,-0.16798 0.2506,-0.0557 0.48913,-0.10671 0.71562,-0.15299 0.26501,-0.0556 0.53486,-0.11115 0.80952,-0.16665 -0.27846,-0.0651 -0.54968,-0.12766 -0.81374,-0.18775 -0.23043,-0.055 -0.46804,-0.11249 -0.71285,-0.17243 -0.2448,-0.0599 -0.45836,-0.11722 -0.6407,-0.1718 l -6.44214,-1.83414 0.014,-1.64872 10.19128,-2.91395 -0.0122,1.43902 -6.4728,1.77424 c -0.30373,0.0793 -0.60499,0.15391 -0.90384,0.22366 -0.29885,0.0746 -0.56638,0.13737 -0.8025,0.18839 -0.2795,0.0603 -0.54455,0.11585 -0.79512,0.16676 0.33125,0.0752 0.65769,0.15265 0.9793,0.23255 0.13439,0.0348 0.27599,0.0699 0.42482,0.10489 0.1488,0.0352 0.29524,0.07 0.43923,0.10501 0.14396,0.0398 0.28075,0.0771 0.41031,0.112 0.13435,0.0397 0.2567,0.0745 0.36708,0.10437 l 6.31211,1.82578 -0.0114,1.32331 -6.3424,1.71748 c -0.11086,0.0281 -0.2338,0.0582 -0.36875,0.0909 -0.13018,0.0374 -0.2676,0.0724 -0.41215,0.10496 -0.13982,0.0374 -0.28441,0.0723 -0.4338,0.10475 -0.14939,0.0326 -0.29157,0.065 -0.42652,0.0976 -0.3229,0.0744 -0.65304,0.14625 -0.99031,0.21571 -4e-5,0.005 0.0815,0.027 0.24473,0.0672 0.16801,0.04 0.37684,0.09 0.62645,0.14998 0.24961,0.06 0.51843,0.12496 0.80646,0.19494 0.29279,0.0748 0.56394,0.14943 0.81344,0.22393 l 6.44177,1.85584 -0.0122,1.43901 -10.13994,-3.08796"
       inkscape:connector-curvature="0"
       style="fill:#d8e6fe;stroke-width:3.6982975"
       id="path4080"
       clip-path="none"
       mask="none" />
    <path
       d="m 231.61261,940.70693 c -0.83911,-0.11226 -1.56364,-0.33808 -2.17357,-0.67745 -0.60517,-0.33874 -1.09537,-0.75694 -1.47069,-1.25459 -0.37056,-0.49702 -0.62778,-1.06158 -0.7717,-1.69367 -0.13979,-0.62669 -0.16354,-1.28643 -0.0713,-1.97936 l 0.50302,-3.77729 10.07677,1.34801 -0.44481,3.34025 c -0.10373,0.77889 -0.29693,1.48263 -0.57956,2.11112 -0.27854,0.63395 -0.65194,1.16033 -1.12017,1.5792 -0.46349,0.41949 -1.02263,0.71921 -1.67745,0.89911 -0.65544,0.18468 -1.41225,0.21963 -2.27047,0.10482 m 0.18327,-1.37622 c 0.68178,0.0912 1.27649,0.0711 1.78414,-0.0605 0.51241,-0.13089 0.94709,-0.35241 1.30409,-0.66453 0.357,-0.31216 0.63978,-0.70477 0.84835,-1.17784 0.21333,-0.47244 0.35914,-1.00252 0.43742,-1.59029 l 0.25869,-1.94248 -7.88838,-1.05525 -0.29974,2.25071 c -0.0706,0.53042 -0.05,1.0317 0.0618,1.50384 0.11119,0.47692 0.31407,0.90289 0.60868,1.27788 0.2946,0.37499 0.68219,0.68948 1.16275,0.94348 0.48057,0.25395 1.05459,0.4256 1.72208,0.5149"
       inkscape:connector-curvature="0"
       style="fill:#d8e6fe;stroke-width:3.6982975"
       id="path4082"
       clip-path="none"
       mask="none" />
    <path
       d="m 141.74255,1021.203 1.41388,-0.205 5.5611,9.4888 -1.43531,0.2081 -3.80936,-6.696 c -0.1024,-0.2044 -0.2048,-0.4087 -0.30716,-0.6131 -0.1017,-0.1996 -0.19316,-0.3787 -0.2744,-0.5374 -0.0949,-0.186 -0.1867,-0.3675 -0.27543,-0.5446 -0.0318,0.1848 -0.0667,0.3798 -0.1051,0.5851 -0.0329,0.1753 -0.0677,0.3727 -0.10406,0.5923 -0.0411,0.2203 -0.0856,0.4509 -0.13347,0.6916 l -1.74605,7.5013 -1.43531,0.208 2.65067,-10.6795"
       inkscape:connector-curvature="0"
       style="fill:#d8e6fe;stroke-width:3.6982975"
       id="path4084"
       clip-path="none"
       mask="none" />
    <path
       d="m 126.96615,1027.3973 c -0.0296,-0.7949 0.0586,-1.5219 0.26498,-2.181 0.20158,-0.6588 0.51004,-1.2276 0.92533,-1.7064 0.41529,-0.4787 0.93069,-0.8551 1.5462,-1.1291 0.61551,-0.274 1.31979,-0.4259 2.11288,-0.4557 0.83634,-0.032 1.57424,0.071 2.21365,0.3076 0.6396,0.2413 1.1772,0.5878 1.61285,1.0394 0.43583,0.4564 0.77158,1.0034 1.00719,1.641 0.23565,0.6376 0.36779,1.3394 0.39645,2.1054 0.0296,0.7949 -0.054,1.5169 -0.25112,2.1659 -0.19715,0.6491 -0.50122,1.2056 -0.91226,1.6697 -0.41086,0.469 -0.92419,0.8356 -1.54007,1.1 -0.62046,0.2693 -1.33689,0.4193 -2.14923,0.4498 -0.80753,0.03 -1.52828,-0.066 -2.16234,-0.2878 -0.63886,-0.2221 -1.17823,-0.5516 -1.61816,-0.9885 -0.44473,-0.4368 -0.78962,-0.9714 -1.03472,-1.6038 -0.24507,-0.6325 -0.38226,-1.3413 -0.41167,-2.1266 m 1.40594,-0.053 c 0.0229,0.6118 0.12301,1.1653 0.30037,1.6603 0.17255,0.4953 0.41931,0.9154 0.74026,1.2603 0.31617,0.3451 0.70376,0.6056 1.16279,0.7813 0.45903,0.1757 0.98418,0.2525 1.57538,0.2303 0.60565,-0.023 1.13317,-0.1391 1.58259,-0.349 0.44943,-0.2098 0.82128,-0.4988 1.11558,-0.8668 0.28947,-0.3679 0.50177,-0.8053 0.63683,-1.312 0.13025,-0.5067 0.18397,-1.0659 0.16106,-1.6777 -0.0229,-0.6119 -0.12079,-1.1702 -0.29368,-1.6751 -0.17754,-0.4999 -0.42463,-0.9296 -0.74133,-1.2892 -0.32131,-0.3546 -0.71178,-0.627 -1.17132,-0.8172 -0.46421,-0.1852 -0.99191,-0.2666 -1.58315,-0.2444 -0.63446,0.024 -1.17616,0.1479 -1.62503,0.3722 -0.45368,0.2245 -0.82028,0.5254 -1.09981,0.9025 -0.28411,0.3821 -0.48633,0.8312 -0.60665,1.3471 -0.12508,0.5161 -0.17639,1.0752 -0.15385,1.6774"
       inkscape:connector-curvature="0"
       style="fill:#d8e6fe;stroke-width:3.6982975"
       id="path4086"
       clip-path="none"
       mask="none" />
    <path
       d="m 124.86051,1022.1323 -0.62611,10.1697 -1.37546,-0.085 0.55677,-9.0437 -5.12741,-0.3172 0.0693,-1.1259 6.50272,0.4021"
       inkscape:connector-curvature="0"
       style="fill:#d8e6fe;stroke-width:3.6982975"
       id="path4088"
       clip-path="none"
       mask="none" />
    <path
       d="m 116.52293,1021.4696 -0.1952,1.5715 -1.39615,-0.1742 0.1952,-1.5715 1.39615,0.1742"
       inkscape:connector-curvature="0"
       style="fill:#d8e6fe;stroke-width:3.6982975"
       id="path4090"
       clip-path="none"
       mask="none" />
    <path
       d="m 112.58132,1024.3353 -0.19471,1.1404 -3.55583,-0.6099 0.19471,-1.1404 3.55583,0.6099"
       inkscape:connector-curvature="0"
       style="fill:#d8e6fe;stroke-width:3.6982975"
       id="path4092"
       clip-path="none"
       mask="none" />
  </g>
  <metadata
     id="metadata92">
    <rdf:RDF>
      <cc:Work>
        <dc:format>image/svg+xml</dc:format>
        <dc:type
           rdf:resource="http://purl.org/dc/dcmitype/StillImage" />
        <cc:license
           rdf:resource="http://creativecommons.org/licenses/by-sa/4.0/" />
        <dc:publisher>
          <cc:Agent
             rdf:about="http://openclipart.org/">
            <dc:title></dc:title>
          </cc:Agent>
        </dc:publisher>
        <dc:title>Multimedia</dc:title>
        <dc:date>2012-02-11</dc:date>
        <dc:description>Part  the my Icontheme for Gnome.\nGhnomix : http://ilnanny.deviantart.com/art/Ghnomix-283689300</dc:description>
        <dc:source></dc:source>
        <dc:creator>
          <cc:Agent>
            <dc:title>ilnanny</dc:title>
          </cc:Agent>
        </dc:creator>
        <dc:subject>
          <rdf:Bag>
            <rdf:li>Ghnomix</rdf:li>
          </rdf:Bag>
        </dc:subject>
      </cc:Work>
      <cc:License
         rdf:about="http://creativecommons.org/licenses/by-sa/4.0/">
        <cc:permits
           rdf:resource="http://creativecommons.org/ns#Reproduction" />
        <cc:permits
           rdf:resource="http://creativecommons.org/ns#Distribution" />
        <cc:requires
           rdf:resource="http://creativecommons.org/ns#Notice" />
        <cc:requires
           rdf:resource="http://creativecommons.org/ns#Attribution" />
        <cc:permits
           rdf:resource="http://creativecommons.org/ns#DerivativeWorks" />
        <cc:requires
           rdf:resource="http://creativecommons.org/ns#ShareAlike" />
      </cc:License>
    </rdf:RDF>
  </metadata>
</svg>
