<?xml version="1.0" encoding="UTF-8" standalone="no"?>
<!-- Created with Inkscape (http://www.inkscape.org/) -->

<svg
   xmlns:dc="http://purl.org/dc/elements/1.1/"
   xmlns:cc="http://creativecommons.org/ns#"
   xmlns:rdf="http://www.w3.org/1999/02/22-rdf-syntax-ns#"
   xmlns:svg="http://www.w3.org/2000/svg"
   xmlns="http://www.w3.org/2000/svg"
   xmlns:sodipodi="http://sodipodi.sourceforge.net/DTD/sodipodi-0.dtd"
   xmlns:inkscape="http://www.inkscape.org/namespaces/inkscape"
   width="96"
   height="96"
   viewBox="0 0 96.000001 96.000002"
   id="svg2"
   version="1.1"
   inkscape:version="0.92.4 5da689c313, 2019-01-14"
   sodipodi:docname="pattern-18.svg">
  <defs
     id="defs4" />
  <sodipodi:namedview
     id="base"
     pagecolor="#ffffff"
     bordercolor="#666666"
     borderopacity="1.0"
     inkscape:pageopacity="0.0"
     inkscape:pageshadow="2"
     inkscape:zoom="3.8541667"
     inkscape:cx="-57.989188"
     inkscape:cy="48"
     inkscape:document-units="px"
     inkscape:current-layer="layer1"
     showgrid="false"
     units="px"
     inkscape:showpageshadow="false"
     inkscape:window-width="1919"
     inkscape:window-height="1026"
     inkscape:window-x="1"
     inkscape:window-y="28"
     inkscape:window-maximized="1" />
  <metadata
     id="metadata7">
    <rdf:RDF>
      <cc:Work
         rdf:about="">
        <dc:format>image/svg+xml</dc:format>
        <dc:type
           rdf:resource="http://purl.org/dc/dcmitype/StillImage" />
        <dc:title></dc:title>
        <cc:license
           rdf:resource="http://creativecommons.org/licenses/by-sa/4.0/" />
        <dc:date>2019</dc:date>
        <dc:creator>
          <cc:Agent>
            <dc:title>Cristian Pozzessere  &lt; ilnanny &gt;</dc:title>
          </cc:Agent>
        </dc:creator>
        <dc:subject>
          <rdf:Bag>
            <rdf:li>ilnanny</rdf:li>
          </rdf:Bag>
        </dc:subject>
      </cc:Work>
      <cc:License
         rdf:about="http://creativecommons.org/licenses/by-sa/4.0/">
        <cc:permits
           rdf:resource="http://creativecommons.org/ns#Reproduction" />
        <cc:permits
           rdf:resource="http://creativecommons.org/ns#Distribution" />
        <cc:requires
           rdf:resource="http://creativecommons.org/ns#Notice" />
        <cc:requires
           rdf:resource="http://creativecommons.org/ns#Attribution" />
        <cc:permits
           rdf:resource="http://creativecommons.org/ns#DerivativeWorks" />
        <cc:requires
           rdf:resource="http://creativecommons.org/ns#ShareAlike" />
      </cc:License>
    </rdf:RDF>
  </metadata>
  <g
     inkscape:label="Livello 1"
     inkscape:groupmode="layer"
     id="layer1"
     transform="translate(0,-956.36218)">
    <path
       inkscape:connector-curvature="0"
       style="fill:#000000;stroke-width:5.66929245"
       d="m -1.5e-6,956.36218 5.904284,6.00005 5.9023665,5.99997 -5.9023665,5.99999 -5.904284,6.00005 5.904284,5.99997 5.9023665,5.99999 -5.9023665,6.00004 -5.904284,5.99996 5.904284,6 5.9023665,6.0001 -5.9023665,5.9999 -5.904284,6 5.904284,6 5.9023665,6 -5.9023665,6 -5.904284,6 h 1.109367 1.109372 l 5.902352,-6 5.9023055,-6 h 3.880856 3.878929 l -5.902304,6 -5.9043305,6 h 1.1093665 1.107435 l 5.904283,-6 5.902363,-6 -5.902362,-6 -5.904284,-6 5.904284,-6 5.902362,-5.9999 -5.902362,-6.0001 -5.904284,-6 5.904284,-5.99996 5.902362,-6.00004 -5.902362,-5.99999 -5.904284,-5.99997 5.904284,-6.00005 5.902362,-5.99999 -5.902362,-5.99997 -5.904284,-6.00005 H 6.0976155 Z m 23.9999945,0 5.904284,6.00005 5.902355,5.99997 -5.902355,5.99999 -5.904284,6.00005 5.904284,5.99997 5.902355,5.99999 -5.902355,6.00004 -5.904284,5.99996 5.904284,6 5.902355,6.0001 -5.902355,5.9999 -5.904284,6 5.904284,6 5.902355,6 -5.902355,6 -5.904284,6 h 1.109367 1.109367 l 5.902357,-6 5.902356,-6 h 3.880856 3.87893 l -5.902357,6 -5.904283,6 h 1.109367 1.107439 l 5.904227,-6 5.902414,-6 -5.902414,-6 -5.904226,-6 5.904226,-6 5.902414,-5.9999 -5.902414,-6.0001 -5.904226,-6 5.904226,-5.99996 5.902414,-6.00004 -5.902414,-5.99999 -5.904226,-5.99997 5.904226,-6.00005 5.902414,-5.99999 -5.902414,-5.99997 -5.904226,-6.00005 h -6.095737 z m 24.00004,0 5.904226,6.00005 5.902414,5.99997 -5.902414,5.99999 -5.904226,6.00005 5.904226,5.99997 5.902414,5.99999 -5.902414,6.00004 -5.904226,5.99996 5.904226,6 5.902414,6.0001 -5.902414,5.9999 -5.904226,6 5.904226,6 5.902414,6 -5.902414,6 -5.904226,6 h 1.109365 1.109368 l 5.9023,-6 5.902356,-6 h 3.880856 3.87893 l -5.902357,6 -5.904283,6 h 1.109367 1.107439 l 5.904284,-6 5.902357,-6 -5.902357,-6 -5.904284,-6 5.904284,-6 5.902357,-5.9999 -5.902357,-6.0001 -5.904284,-6 5.904284,-5.99996 5.902357,-6.00004 -5.902357,-5.99999 -5.904284,-5.99997 5.904284,-6.00005 5.902357,-5.99999 -5.902357,-5.99997 -5.904284,-6.00005 h -6.095736 z m 23.999983,0 5.904283,6.00005 5.902353,5.99997 -5.902353,5.99999 -5.904283,6.00005 5.904283,5.99997 5.902353,5.99999 -5.902353,6.00004 -5.904283,5.99996 5.904283,6 5.902353,6.0001 -5.902353,5.9999 -5.904283,6 5.904283,6 5.902353,6 -5.902353,6 -5.904283,6 h 1.109367 1.109367 l 5.902356,-6 5.902296,-6 h 3.88086 3.878929 l -5.902299,6 -5.904341,6 h 1.10937 1.10744 l 5.90428,-6 5.90236,-6 -5.90236,-6 -5.90428,-6 5.90428,-6 5.90236,-5.9999 -5.90236,-6.0001 -5.90428,-6 5.90428,-5.99996 5.90236,-6.00004 -5.90236,-5.99999 -5.90428,-5.99997 5.90428,-6.00005 5.90236,-5.99999 -5.90236,-5.99997 -5.90428,-6.00005 h -6.09574 z M 14.023395,968.3622 h 3.880856 3.878929 l -5.902304,5.99999 -5.9043305,6.00005 h -3.87893 -3.878878 l 5.902352,-6.00005 z m 24.000045,0 h 3.880856 3.87893 l -5.902357,5.99999 -5.904283,6.00005 h -3.87893 -3.878929 l 5.902357,-6.00005 z m 23.999983,0 h 3.880856 3.878929 l -5.902356,5.99999 -5.904284,6.00005 h -3.878929 -3.878873 l 5.9023,-6.00005 z m 23.999979,0 h 3.88086 3.878929 l -5.902299,5.99999 -5.904341,6.00005 H 78.097622 74.21875 l 5.902355,-6.00005 z m -72.000007,24 h 3.880857 3.878928 l -5.902304,6.00004 -5.9043305,5.99996 h -3.87893 -3.878878 l 5.902352,-5.99996 z m 24.000045,0 h 3.880857 3.87893 l -5.902357,6.00004 -5.904283,5.99996 h -3.87893 -3.87893 l 5.902357,-5.99996 z m 23.999983,0 h 3.880856 3.878929 l -5.902356,6.00004 -5.904284,5.99996 h -3.878929 -3.878873 l 5.9023,-5.99996 z m 23.999979,0 h 3.88086 3.878929 l -5.902299,6.00004 -5.904341,5.99996 H 78.097622 74.21875 l 5.902355,-5.99996 z m -72.000007,24.0001 h 3.880857 3.878928 l -5.902304,5.9999 -5.9043305,6 h -3.87893 -3.878878 l 5.902352,-6 z m 24.000045,0 h 3.880857 3.87893 l -5.902357,5.9999 -5.904283,6 h -3.87893 -3.87893 l 5.902357,-6 z m 23.999983,0 h 3.880856 3.878929 l -5.902356,5.9999 -5.904284,6 h -3.878929 -3.878873 l 5.9023,-6 z m 23.999979,0 h 3.88086 3.878929 l -5.902299,5.9999 -5.904341,6 H 78.097622 74.21875 l 5.902355,-6 z"
       id="path1085" />
  </g>
</svg>
