<?xml version="1.0" encoding="UTF-8" standalone="no"?>
<!-- Created with Inkscape (http://www.inkscape.org/) -->

<svg
   xmlns:dc="http://purl.org/dc/elements/1.1/"
   xmlns:cc="http://creativecommons.org/ns#"
   xmlns:rdf="http://www.w3.org/1999/02/22-rdf-syntax-ns#"
   xmlns:svg="http://www.w3.org/2000/svg"
   xmlns="http://www.w3.org/2000/svg"
   xmlns:sodipodi="http://sodipodi.sourceforge.net/DTD/sodipodi-0.dtd"
   xmlns:inkscape="http://www.inkscape.org/namespaces/inkscape"
   width="96"
   height="96"
   viewBox="0 0 96.000001 96.000002"
   id="svg2"
   version="1.1"
   inkscape:version="0.92.4 5da689c313, 2019-01-14"
   sodipodi:docname="pattern-23.svg">
  <defs
     id="defs4" />
  <sodipodi:namedview
     id="base"
     pagecolor="#ffffff"
     bordercolor="#666666"
     borderopacity="1.0"
     inkscape:pageopacity="0.0"
     inkscape:pageshadow="2"
     inkscape:zoom="3.8541667"
     inkscape:cx="-57.989188"
     inkscape:cy="48"
     inkscape:document-units="px"
     inkscape:current-layer="layer1"
     showgrid="false"
     units="px"
     inkscape:showpageshadow="false"
     inkscape:window-width="1919"
     inkscape:window-height="1026"
     inkscape:window-x="1"
     inkscape:window-y="28"
     inkscape:window-maximized="1" />
  <metadata
     id="metadata7">
    <rdf:RDF>
      <cc:Work
         rdf:about="">
        <dc:format>image/svg+xml</dc:format>
        <dc:type
           rdf:resource="http://purl.org/dc/dcmitype/StillImage" />
        <dc:title></dc:title>
        <cc:license
           rdf:resource="http://creativecommons.org/licenses/by-sa/4.0/" />
        <dc:date>2019</dc:date>
        <dc:creator>
          <cc:Agent>
            <dc:title>Cristian Pozzessere  &lt; ilnanny &gt;</dc:title>
          </cc:Agent>
        </dc:creator>
        <dc:subject>
          <rdf:Bag>
            <rdf:li>ilnanny</rdf:li>
          </rdf:Bag>
        </dc:subject>
      </cc:Work>
      <cc:License
         rdf:about="http://creativecommons.org/licenses/by-sa/4.0/">
        <cc:permits
           rdf:resource="http://creativecommons.org/ns#Reproduction" />
        <cc:permits
           rdf:resource="http://creativecommons.org/ns#Distribution" />
        <cc:requires
           rdf:resource="http://creativecommons.org/ns#Notice" />
        <cc:requires
           rdf:resource="http://creativecommons.org/ns#Attribution" />
        <cc:permits
           rdf:resource="http://creativecommons.org/ns#DerivativeWorks" />
        <cc:requires
           rdf:resource="http://creativecommons.org/ns#ShareAlike" />
      </cc:License>
    </rdf:RDF>
  </metadata>
  <g
     inkscape:label="Livello 1"
     inkscape:groupmode="layer"
     id="layer1"
     transform="translate(0,-956.36218)">
    <path
       inkscape:connector-curvature="0"
       style="fill:#000000;stroke-width:4.53542233"
       d="m 1.965792,956.36258 c 7.948946,4.28121 8.081059,6.53593 1.683081,12.48285 -1.320804,1.22774 -2.559009,2.3137 -3.648497,3.23167 v 7.23292 c 0.05207,0.0272 0.109716,0.0599 0.160916,0.0862 9.819509,4.96369 10.362396,7.05883 3.487486,13.44904 -1.32085,1.22774 -2.559055,2.31365 -3.648543,3.23157 v 7.23307 c 0.05207,0.028 0.109716,0.06 0.160917,0.086 9.819559,4.9637 10.362445,7.0589 3.487486,13.4491 -1.320804,1.2279 -2.55901,2.3137 -3.648499,3.2316 v 7.233 c 0.05207,0.028 0.109716,0.06 0.160918,0.086 9.819509,4.9636 10.362396,7.0587 3.487485,13.449 -1.320809,1.2277 -2.559054,2.3137 -3.64854299999999,3.2316 v 7.233 c 0.05207,0.028 0.10971599999999,0.06 0.16091799999999,0.086 0.681235,0.3446 1.211871,0.647 1.804404,0.9662 h 6.258136 c -1.684537,-1.6987 -3.569704,-3 -4.89708,-3 -2.81035,0 -2.088694,-2.1822 1.983086,-6.0087 l 3.758841,-3.5316 4.358801,4.1779 c 2.397956,2.2981 7.224306,5.6265 10.725022,7.3962 0.681235,0.3446 1.211871,0.647 1.804445,0.9662 h 6.25809 c -1.684405,-1.6986 -3.567604,-3 -4.894858,-3 -2.81035,0 -2.090952,-2.1822 1.980869,-6.0087 l 3.758841,-3.5316 4.358801,4.1779 c 2.397956,2.2981 7.224301,5.6265 10.725022,7.3962 0.681235,0.3446 1.211867,0.647 1.804399,0.9662 h 6.258095 c -1.684364,-1.6986 -3.567568,-3 -4.894817,-3 -2.81035,0 -2.090952,-2.1822 1.980864,-6.0087 l 3.758846,-3.5316 4.361024,4.1779 c 2.397909,2.2981 7.222078,5.6265 10.722803,7.3962 0.68123,0.3446 1.21186,0.647 1.80439,0.9662 h 6.26032 c -1.68449,-1.6987 -3.5697,-3 -4.89708,-3 -2.81031,0 -2.09091,-2.1822 1.98087,-6.0087 l 3.75884,-3.5316 4.36106,4.1779 c 2.36987,2.2712 7.10714,5.5433 10.59705,7.3278 v -7.2793 c -1.57983,1.3326 -2.79951,2.2616 -3.075,2.2742 -2.05967,0.098 -8.90295,-8.6666 -8.90295,-11.4042 0,-3.2369 -5.76613,-9.5558 -8.71987,-9.5558 -2.81031,0 -2.09091,-2.1822 1.98087,-6.0088 l 3.75884,-3.5315 4.36106,4.1778 c 2.36987,2.2713 7.10714,5.5433 10.59705,7.3279 v -7.2794 c -1.57983,1.3327 -2.79951,2.2617 -3.075,2.2744 -2.05967,0.098 -8.90295,-8.6667 -8.90295,-11.4043 0,-3.2368 -5.76613,-9.5558 -8.71987,-9.5558 -2.81031,0 -2.09091,-2.18226 1.98087,-6.00881 l 3.75884,-3.53155 4.36106,4.17789 c 2.36987,2.27133 7.10714,5.54337 10.59705,7.32787 v -7.27934 c -1.57983,1.33267 -2.79951,2.26156 -3.075,2.27416 -2.05967,0.0984 -8.90295,-8.66655 -8.90295,-11.40417 0,-3.23683 -5.76613,-9.55574 -8.71987,-9.55574 -2.81031,0 -2.09091,-2.18226 1.98087,-6.00874 l 3.75884,-3.53163 4.36106,4.17792 c 2.36987,2.27124 7.10714,5.54327 10.59705,7.32787 v -7.27934 c -1.57983,1.33268 -2.79951,2.26159 -3.075,2.27424 -2.05967,0.0989 -8.90295,-8.66659 -8.90295,-11.40429 8e-5,-1.78219 -1.75882,-4.47445 -3.82271,-6.5558 h -6.26031 c 7.94891,4.28129 8.08324,6.53603 1.6853,12.48294 -3.21625,2.98952 -6.22842,5.45579 -6.692681,5.47715 -2.059663,0.0989 -8.902947,-8.66659 -8.902947,-11.40429 0,-1.78233 -1.758642,-4.47441 -3.822785,-6.5558 h -6.258096 c 7.948906,4.28129 8.08324,6.53603 1.685303,12.48294 -3.216211,2.98952 -6.228424,5.45579 -6.692639,5.47715 -2.059709,0.0989 -8.902993,-8.66659 -8.902993,-11.40429 0,-1.78233 -1.758637,-4.47441 -3.822785,-6.5558 h -6.258096 c 7.94895,4.28129 8.081063,6.53603 1.683086,12.48294 -3.216212,2.98952 -6.226207,5.45579 -6.690422,5.47715 -2.059709,0.0989 -8.902947,-8.66659 -8.902947,-11.40429 0,-1.78219 -1.758896,-4.47445 -3.822831,-6.5558 z m 7.102984,11.45935 4.358806,4.17792 c 2.397909,2.2981 7.224255,5.62655 10.725016,7.39621 9.819512,4.96374 10.3624,7.05887 3.487485,13.44908 -3.216212,2.98942 -6.226207,5.4558 -6.690422,5.47716 -2.059708,0.0984 -8.902947,-8.66669 -8.902947,-11.4043 0,-3.2368 -5.766174,-9.55575 -8.719866,-9.55575 -2.81035,0 -2.088734,-2.18216 1.983042,-6.00869 z m 23.991169,0 4.358842,4.17792 c 2.397914,2.2981 7.22426,5.62655 10.725021,7.39621 9.819512,4.96374 10.364617,7.05887 3.489707,13.44908 -3.216216,2.98942 -6.228429,5.4558 -6.692644,5.47716 -2.059708,0.0984 -8.902988,-8.66669 -8.902988,-11.4043 0,-3.2368 -5.763915,-9.55575 -8.717648,-9.55575 -2.810308,0 -2.090911,-2.18216 1.98091,-6.00869 z m 23.99121,0 4.361064,4.17792 c 2.397911,2.2981 7.222038,5.62655 10.722802,7.39621 9.81951,4.96374 10.36457,7.05887 3.4897,13.44908 -3.21625,2.98942 -6.228425,5.4558 -6.692681,5.47716 -2.059667,0.0984 -8.902952,-8.66669 -8.902952,-11.4043 0,-3.2368 -5.76391,-9.55575 -8.717643,-9.55575 -2.810308,0 -2.090911,-2.18216 1.98091,-6.00869 z m -47.982379,23.99966 4.358806,4.17793 c 2.397909,2.29806 7.224255,5.62658 10.725016,7.39628 9.819512,4.9638 10.3624,7.0588 3.487485,13.4491 -3.216212,2.9895 -6.226207,5.4557 -6.690422,5.4771 -2.059708,0.098 -8.902947,-8.6666 -8.902947,-11.4043 0,-3.2367 -5.766174,-9.5557 -8.719866,-9.5557 -2.81035,0 -2.088734,-2.1823 1.983042,-6.00883 z m 23.991169,0 4.358842,4.17793 c 2.397914,2.29806 7.22426,5.62658 10.725021,7.39628 9.819512,4.9638 10.364617,7.0588 3.489707,13.4491 -3.216216,2.9895 -6.228429,5.4557 -6.692644,5.4771 -2.059708,0.098 -8.902988,-8.6666 -8.902988,-11.4043 0,-3.2367 -5.763915,-9.5557 -8.717648,-9.5557 -2.810308,0 -2.090911,-2.1823 1.98091,-6.00883 z m 23.99121,0 4.361064,4.17793 c 2.397911,2.29806 7.222038,5.62658 10.722802,7.39628 9.81951,4.9638 10.36457,7.0588 3.4897,13.4491 -3.21625,2.9895 -6.228425,5.4557 -6.692681,5.4771 -2.059667,0.098 -8.902952,-8.6666 -8.902952,-11.4043 0,-3.2367 -5.76391,-9.5557 -8.717643,-9.5557 -2.810308,0 -2.090911,-2.1823 1.98091,-6.00883 z m -47.982379,23.99981 4.358806,4.1778 c 2.397909,2.2982 7.224255,5.6267 10.725016,7.3963 9.819512,4.9637 10.3624,7.0588 3.487485,13.4491 -3.216212,2.9894 -6.226207,5.4558 -6.690422,5.4771 -2.059708,0.098 -8.902947,-8.6666 -8.902947,-11.4042 0,-3.2368 -5.766174,-9.5558 -8.719866,-9.5558 -2.81035,0 -2.088734,-2.1822 1.983042,-6.0088 z m 23.991169,0 4.358842,4.1778 c 2.397914,2.2982 7.22426,5.6267 10.725021,7.3963 9.819512,4.9637 10.364617,7.0588 3.489707,13.4491 -3.216216,2.9894 -6.228429,5.4558 -6.692644,5.4771 -2.059708,0.098 -8.902988,-8.6666 -8.902988,-11.4042 0,-3.2368 -5.763915,-9.5558 -8.717648,-9.5558 -2.810308,0 -2.090911,-2.1822 1.98091,-6.0088 z m 23.99121,0 4.361064,4.1778 c 2.397911,2.2982 7.222038,5.6267 10.722802,7.3963 9.81951,4.9637 10.36457,7.0588 3.4897,13.4491 -3.21625,2.9894 -6.228425,5.4558 -6.692681,5.4771 -2.059667,0.098 -8.902952,-8.6666 -8.902952,-11.4042 0,-3.2368 -5.76391,-9.5558 -8.717643,-9.5558 -2.810308,0 -2.090911,-2.1822 1.98091,-6.0088 z"
       id="path5214" />
  </g>
</svg>
