<?xml version="1.0" encoding="UTF-8" standalone="no"?>
<!-- Created with Inkscape (http://www.inkscape.org/) -->

<svg
   xmlns:dc="http://purl.org/dc/elements/1.1/"
   xmlns:cc="http://creativecommons.org/ns#"
   xmlns:rdf="http://www.w3.org/1999/02/22-rdf-syntax-ns#"
   xmlns:svg="http://www.w3.org/2000/svg"
   xmlns="http://www.w3.org/2000/svg"
   xmlns:xlink="http://www.w3.org/1999/xlink"
   xmlns:sodipodi="http://sodipodi.sourceforge.net/DTD/sodipodi-0.dtd"
   xmlns:inkscape="http://www.inkscape.org/namespaces/inkscape"
   width="48"
   height="48"
   viewBox="0 0 48.000001 48.000001"
   id="svg2"
   version="1.1"
   inkscape:version="0.92.2 2405546, 2018-03-11"
   sodipodi:docname="pattern6613.svg">
  <defs
     id="defs4">
    <pattern
       inkscape:collect="always"
       xlink:href="#pattern9313"
       id="pattern9354"
       patternTransform="translate(69.138458,1003.8125)" />
    <pattern
       inkscape:collect="always"
       xlink:href="#pattern9339"
       id="pattern9352"
       patternTransform="translate(-5.8315252,1005.6714)" />
    <pattern
       inkscape:collect="always"
       xlink:href="#pattern9339"
       id="pattern9346"
       patternTransform="matrix(0.26854869,0.32985831,-0.32985831,0.26854869,-344.15419,829.1218)" />
    <pattern
       inkscape:collect="always"
       xlink:href="#pattern6613"
       id="pattern9335"
       patternTransform="rotate(-50.086235,533.6819,680.25938)" />
    <pattern
       patternUnits="userSpaceOnUse"
       width="20.3"
       height="20.3"
       patternTransform="translate(-443.42282,252.6114)"
       id="pattern6613">
      <path
         transform="translate(-193.45907,-1433.6645)"
         inkscape:connector-curvature="0"
         clip-path="url(#clipPath5864)"
         id="rect5076"
         d="m 193.60907,1433.8145 h 20 v 20 h -20 z"
         style="opacity:1;fill:url(#radialGradient5876);fill-opacity:1;stroke:#444444;stroke-width:0.30000001;stroke-linecap:round;stroke-miterlimit:4;stroke-dasharray:none;stroke-opacity:1;paint-order:markers fill stroke" />
    </pattern>
    <radialGradient
       inkscape:collect="always"
       xlink:href="#linearGradient5882"
       id="radialGradient5876"
       cx="203.60907"
       cy="1443.8145"
       fx="203.60907"
       fy="1443.8145"
       r="10"
       gradientUnits="userSpaceOnUse"
       gradientTransform="matrix(1.3465364,-0.0021424,0.00230232,1.4470614,-73.882086,-645.03736)" />
    <linearGradient
       id="linearGradient5882"
       inkscape:collect="always">
      <stop
         id="stop5878"
         offset="0"
         style="stop-color:#b5b5b5;stop-opacity:1" />
      <stop
         id="stop5880"
         offset="1"
         style="stop-color:#444444;stop-opacity:1" />
    </linearGradient>
    <clipPath
       clipPathUnits="userSpaceOnUse"
       id="clipPath5864">
      <path
         id="path5866"
         style="opacity:1;fill:url(#radialGradient5868);fill-opacity:1;stroke:none;stroke-width:0.16373022;stroke-linecap:round;stroke-miterlimit:4;stroke-dasharray:none;stroke-opacity:1;paint-order:markers fill stroke"
         d="m 217.25851,1445.5866 -1.75378,3.9945 4.15065,1.343 -4.06464,1.5844 1.98532,3.8846 -3.99446,-1.7538 -1.34301,4.1507 -1.58441,-4.0646 -3.88458,1.9853 1.75378,-3.9945 -4.15066,-1.343 4.06463,-1.5843 -1.98532,-3.8846 3.99448,1.7537 1.34299,-4.1507 1.58441,4.0647 z m -15.73929,0 -1.75378,3.9945 4.15065,1.343 -4.06464,1.5844 1.98532,3.8846 -3.99446,-1.7538 -1.34301,4.1507 -1.58441,-4.0646 -3.88458,1.9853 1.75378,-3.9945 -4.15066,-1.343 4.06463,-1.5843 -1.98531,-3.8846 3.99447,1.7537 1.34299,-4.1507 1.58441,4.0647 z m 15.73929,-15.7394 -1.75378,3.9944 4.15065,1.343 -4.06464,1.5845 1.98532,3.8846 -3.99446,-1.7539 -1.34301,4.1507 -1.58441,-4.0646 -3.88458,1.9853 1.75378,-3.9945 -4.15066,-1.343 4.06463,-1.5844 -1.98532,-3.8846 3.99448,1.7538 1.34299,-4.1506 1.58441,4.0645 z m -15.73929,0 -1.75378,3.9944 4.15065,1.343 -4.06464,1.5845 1.98532,3.8846 -3.99446,-1.7539 -1.34301,4.1507 -1.58441,-4.0646 -3.88458,1.9853 1.75378,-3.9945 -4.15066,-1.343 4.06463,-1.5844 -1.98531,-3.8846 3.99447,1.7538 1.34299,-4.1506 1.58441,4.0645 z"
         inkscape:connector-curvature="0" />
    </clipPath>
    <pattern
       patternUnits="userSpaceOnUse"
       width="48.00004"
       height="48.001"
       patternTransform="translate(-344.15419,714.08158)"
       id="pattern9313">
      <path
         inkscape:connector-curvature="0"
         id="rect9308"
         d="M 2.33789,5e-4 2.52148,0.3853 0,1.8599 v 5.4726 l 0.30273,0.023 0.0664,12.4863 4.86133,-7.0781 10.84766,6.1855 -3.70117,-7.75 L 23.1582,4.8984 14.59765,4.2285 14.57425,0 Z m 33.10156,0 0.1836,0.3848 -10.78125,6.3007 8.56054,0.67 0.0684,12.4863 4.86133,-7.0781 9.66797,5.5136 V 16.4829 L 45.47856,11.1997 48.00004,9.7251 V 4.2524 L 47.69731,4.2294 47.67391,9e-4 Z M 0.36914,28.1587 0.30274,40.645 1e-5,40.669 v 5.4726 L 2.52149,47.6162 2.3379,48.001 h 12.23633 l 0.0234,-4.2285 8.56054,-0.67 -10.78125,-6.3007 3.70117,-7.75 -10.84765,6.1855 z m 33.10156,0 -0.0684,12.4863 -8.56054,0.6699 10.78125,6.3008 -0.1836,0.3848 h 12.23438 l 0.0234,-4.2285 0.30273,-0.023 v -5.4726 l -2.52148,-1.4746 2.52148,-5.2832 v -1.795 l -9.66797,5.5137 z"
         style="opacity:1;fill:#000000;fill-opacity:1;stroke:none;stroke-width:0.4173913;stroke-linecap:round;stroke-linejoin:round;stroke-miterlimit:4;stroke-dasharray:none;stroke-opacity:1;paint-order:stroke fill markers" />
    </pattern>
    <pattern
       patternUnits="userSpaceOnUse"
       width="48.00004"
       height="48.001"
       patternTransform="translate(-344.15419,829.1218)"
       id="pattern9326">
      <path
         inkscape:connector-curvature="0"
         id="path9324"
         d="M 2.33789,5e-4 2.52148,0.3853 0,1.8599 v 5.4726 l 0.30273,0.023 0.0664,12.4863 4.86133,-7.0781 10.84766,6.1855 -3.70117,-7.75 L 23.1582,4.8984 14.59765,4.2285 14.57425,0 Z m 33.10156,0 0.1836,0.3848 -10.78125,6.3007 8.56054,0.67 0.0684,12.4863 4.86133,-7.0781 9.66797,5.5136 V 16.4829 L 45.47856,11.1997 48.00004,9.7251 V 4.2524 L 47.69731,4.2294 47.67391,9e-4 Z M 0.36914,28.1587 0.30274,40.645 1e-5,40.669 v 5.4726 L 2.52149,47.6162 2.3379,48.001 h 12.23633 l 0.0234,-4.2285 8.56054,-0.67 -10.78125,-6.3007 3.70117,-7.75 -10.84765,6.1855 z m 33.10156,0 -0.0684,12.4863 -8.56054,0.6699 10.78125,6.3008 -0.1836,0.3848 h 12.23438 l 0.0234,-4.2285 0.30273,-0.023 v -5.4726 l -2.52148,-1.4746 2.52148,-5.2832 v -1.795 l -9.66797,5.5137 z"
         style="opacity:1;fill:#ffffff;fill-opacity:1;stroke:none;stroke-width:0.4173913;stroke-linecap:round;stroke-linejoin:round;stroke-miterlimit:4;stroke-dasharray:none;stroke-opacity:1;paint-order:stroke fill markers" />
    </pattern>
    <pattern
       patternUnits="userSpaceOnUse"
       width="48.00004"
       height="48.001"
       patternTransform="translate(-344.15419,829.1218)"
       id="pattern9339">
      <path
         inkscape:connector-curvature="0"
         id="path9337"
         d="M 2.33789,5e-4 2.52148,0.3853 0,1.8599 v 5.4726 l 0.30273,0.023 0.0664,12.4863 4.86133,-7.0781 10.84766,6.1855 -3.70117,-7.75 L 23.1582,4.8984 14.59765,4.2285 14.57425,0 Z m 33.10156,0 0.1836,0.3848 -10.78125,6.3007 8.56054,0.67 0.0684,12.4863 4.86133,-7.0781 9.66797,5.5136 V 16.4829 L 45.47856,11.1997 48.00004,9.7251 V 4.2524 L 47.69731,4.2294 47.67391,9e-4 Z M 0.36914,28.1587 0.30274,40.645 1e-5,40.669 v 5.4726 L 2.52149,47.6162 2.3379,48.001 h 12.23633 l 0.0234,-4.2285 8.56054,-0.67 -10.78125,-6.3007 3.70117,-7.75 -10.84765,6.1855 z m 33.10156,0 -0.0684,12.4863 -8.56054,0.6699 10.78125,6.3008 -0.1836,0.3848 h 12.23438 l 0.0234,-4.2285 0.30273,-0.023 v -5.4726 l -2.52148,-1.4746 2.52148,-5.2832 v -1.795 l -9.66797,5.5137 z"
         style="opacity:1;fill:#ebeef1;fill-opacity:1;stroke:none;stroke-width:0.4173913;stroke-linecap:round;stroke-linejoin:round;stroke-miterlimit:4;stroke-dasharray:none;stroke-opacity:1;paint-order:stroke fill markers" />
    </pattern>
  </defs>
  <sodipodi:namedview
     id="base"
     pagecolor="#ffffff"
     bordercolor="#666666"
     borderopacity="1.0"
     inkscape:pageopacity="0.0"
     inkscape:pageshadow="2"
     inkscape:zoom="0.46940104"
     inkscape:cx="588.97205"
     inkscape:cy="101.05835"
     inkscape:document-units="px"
     inkscape:current-layer="g9298"
     showgrid="false"
     units="px"
     inkscape:showpageshadow="false"
     inkscape:window-width="1920"
     inkscape:window-height="991"
     inkscape:window-x="0"
     inkscape:window-y="25"
     inkscape:window-maximized="1"
     inkscape:snap-global="false" />
  <metadata
     id="metadata7">
    <rdf:RDF>
      <cc:Work
         rdf:about="">
        <dc:format>image/svg+xml</dc:format>
        <dc:type
           rdf:resource="http://purl.org/dc/dcmitype/StillImage" />
        <dc:title />
        <cc:license
           rdf:resource="http://creativecommons.org/licenses/by-sa/4.0/" />
        <dc:date>2019</dc:date>
        <dc:creator>
          <cc:Agent>
            <dc:title>Cristian Pozzessere  &lt; ilnanny &gt;</dc:title>
          </cc:Agent>
        </dc:creator>
        <dc:subject>
          <rdf:Bag>
            <rdf:li>ilnanny</rdf:li>
          </rdf:Bag>
        </dc:subject>
      </cc:Work>
      <cc:License
         rdf:about="http://creativecommons.org/licenses/by-sa/4.0/">
        <cc:permits
           rdf:resource="http://creativecommons.org/ns#Reproduction" />
        <cc:permits
           rdf:resource="http://creativecommons.org/ns#Distribution" />
        <cc:requires
           rdf:resource="http://creativecommons.org/ns#Notice" />
        <cc:requires
           rdf:resource="http://creativecommons.org/ns#Attribution" />
        <cc:permits
           rdf:resource="http://creativecommons.org/ns#DerivativeWorks" />
        <cc:requires
           rdf:resource="http://creativecommons.org/ns#ShareAlike" />
      </cc:License>
    </rdf:RDF>
  </metadata>
  <g
     inkscape:label="Livello 1"
     inkscape:groupmode="layer"
     id="layer1"
     transform="translate(0,-1004.3622)">
    <g
       id="g9298"
       transform="translate(5.8314909,-1.309736)">
      <rect
         style="fill:url(#pattern9354);stroke:none"
         width="48.000038"
         height="48.000999"
         x="69.138474"
         y="1003.8126"
         id="rect9316" />
      <rect
         id="rect9320"
         y="829.12183"
         x="-344.15417"
         height="48.000999"
         width="48.000038"
         style="fill:none;stroke:none" />
      <rect
         style="stroke:none;fill:none"
         width="48.00004"
         height="48.001"
         x="-344.15419"
         y="829.1218"
         id="rect9329" />
      <rect
         style="fill:url(#pattern9352);stroke:none"
         width="48.000038"
         height="48.000999"
         x="-5.8315101"
         y="1005.6714"
         id="rect9342" />
    </g>
  </g>
</svg>
