<?xml version="1.0" encoding="UTF-8" standalone="no"?>
<!-- Created with Inkscape (http://www.inkscape.org/) -->

<svg
   xmlns:dc="http://purl.org/dc/elements/1.1/"
   xmlns:cc="http://creativecommons.org/ns#"
   xmlns:rdf="http://www.w3.org/1999/02/22-rdf-syntax-ns#"
   xmlns:svg="http://www.w3.org/2000/svg"
   xmlns="http://www.w3.org/2000/svg"
   xmlns:sodipodi="http://sodipodi.sourceforge.net/DTD/sodipodi-0.dtd"
   xmlns:inkscape="http://www.inkscape.org/namespaces/inkscape"
   width="96"
   height="96"
   viewBox="0 0 96.000001 96.000002"
   id="svg2"
   version="1.1"
   inkscape:version="0.92.4 5da689c313, 2019-01-14"
   sodipodi:docname="pattern-17.svg">
  <defs
     id="defs4" />
  <sodipodi:namedview
     id="base"
     pagecolor="#ffffff"
     bordercolor="#666666"
     borderopacity="1.0"
     inkscape:pageopacity="0.0"
     inkscape:pageshadow="2"
     inkscape:zoom="3.8541667"
     inkscape:cx="-57.989188"
     inkscape:cy="48"
     inkscape:document-units="px"
     inkscape:current-layer="layer1"
     showgrid="false"
     units="px"
     inkscape:showpageshadow="false"
     inkscape:window-width="1919"
     inkscape:window-height="1026"
     inkscape:window-x="1"
     inkscape:window-y="28"
     inkscape:window-maximized="1" />
  <metadata
     id="metadata7">
    <rdf:RDF>
      <cc:Work
         rdf:about="">
        <dc:format>image/svg+xml</dc:format>
        <dc:type
           rdf:resource="http://purl.org/dc/dcmitype/StillImage" />
        <dc:title></dc:title>
        <cc:license
           rdf:resource="http://creativecommons.org/licenses/by-sa/4.0/" />
        <dc:date>2019</dc:date>
        <dc:creator>
          <cc:Agent>
            <dc:title>Cristian Pozzessere  &lt; ilnanny &gt;</dc:title>
          </cc:Agent>
        </dc:creator>
        <dc:subject>
          <rdf:Bag>
            <rdf:li>ilnanny</rdf:li>
          </rdf:Bag>
        </dc:subject>
      </cc:Work>
      <cc:License
         rdf:about="http://creativecommons.org/licenses/by-sa/4.0/">
        <cc:permits
           rdf:resource="http://creativecommons.org/ns#Reproduction" />
        <cc:permits
           rdf:resource="http://creativecommons.org/ns#Distribution" />
        <cc:requires
           rdf:resource="http://creativecommons.org/ns#Notice" />
        <cc:requires
           rdf:resource="http://creativecommons.org/ns#Attribution" />
        <cc:permits
           rdf:resource="http://creativecommons.org/ns#DerivativeWorks" />
        <cc:requires
           rdf:resource="http://creativecommons.org/ns#ShareAlike" />
      </cc:License>
    </rdf:RDF>
  </metadata>
  <g
     inkscape:label="Livello 1"
     inkscape:groupmode="layer"
     id="layer1"
     transform="translate(0,-956.36218)">
    <path
       inkscape:connector-curvature="0"
       style="fill:#000000;stroke-width:1.27995527"
       d="m 2.8858694,956.36143 c 0.031747,0.65603 -0.156466,1.33501 -0.6532118,1.93354 -0.4968364,0.59861 -1.49549805,1.08838 -2.21905155,1.08838 -0.00907,0 -0.013606,-10e-4 -0.013606,-10e-4 v 4.53653 C 2.4220947,962.11959 4.0173681,962.00521 5.2554456,963.49709 c 1.4557692,1.75407 0.3170139,4.40581 -3.3366728,7.77368 -0.6999703,0.64525 -1.32701355,1.15502 -1.918772750000001,1.59226 v 4.57748 C 2.1361926,977.39971 3.8958689,980.28203 2.2351518,982.28309 c -0.4968365,0.59878 -1.49545285,1.08837 -2.21905165,1.08837 -0.00907,0 -0.00907,-10e-4 -0.013606,-10e-4 v 4.53634 c 2.42213995,-1.79922 4.01741355,-1.91358 5.25549085,-0.42166 1.455724,1.75398 0.3170139,4.40579 -3.3366727,7.77359 -0.7000156,0.6453 -1.32701365,1.1551 -1.91881815,1.5924 v 4.57747 c 2.13623795,-0.041 3.89586875,2.8418 2.23519705,4.8427 -0.496791,0.5987 -1.49545265,1.0882 -2.21905155,1.0882 -0.00907,0 -0.00907,0 -0.013606,0 v 4.5366 c 2.42204925,-1.7992 4.01732275,-1.9137 5.25544555,-0.4218 1.4557239,1.7541 0.3170137,4.4057 -3.3367182,7.7737 -0.6999702,0.6453 -1.32701365,1.155 -1.91872735,1.5923 v 4.576 c 2.13614725,-0.041 3.89582345,2.8431 2.23515175,4.8441 -0.4968365,0.5987 -1.49545285,1.0884 -2.21909705,1.0884 -0.00907,0 -0.00907,0 -0.013606,0 v 4.5364 c 2.42213995,-1.7991 4.01741355,-1.9136 5.25544555,-0.4216 1.4557693,1.7541 0.3170139,4.4059 -3.3366727,7.7737 -0.6999249,0.6451 -1.32696825,1.1548 -1.91877285,1.5921 v 4.5761 c 1.51241455,-0.031 2.83262535,1.4021 2.88700295,2.9574 h 4.5904413 c -1.4731393,-2.0291 -1.7206278,-3.6849 -0.7074534,-4.9057 1.5360885,-1.8508 3.5993548,-1.2762 7.1434698,1.9906 1.130773,1.0424 2.017821,2.0154 2.664367,2.9151 h 4.60364 c 0.03175,-0.9558 0.504273,-1.93 1.510101,-2.5634 1.964806,-1.2374 4.113606,0.5709 4.183267,2.5634 h 4.590489 c -1.473185,-2.0291 -1.720628,-3.6849 -0.707454,-4.9057 1.536043,-1.8508 3.597949,-1.2762 7.142018,1.9906 1.130773,1.0424 2.019229,2.0154 2.665773,2.9151 h 4.60364 c 0.03175,-0.9558 0.50432,-1.93 1.510147,-2.5634 1.964851,-1.2374 4.113606,0.5709 4.183268,2.5634 h 4.589035 c -1.472821,-2.0289 -1.719084,-3.685 -0.706002,-4.9057 1.536045,-1.8508 3.597904,-1.2762 7.141974,1.9906 1.130818,1.0424 2.019274,2.0154 2.665864,2.9151 h 4.602143 c 0.03175,-0.9558 0.505771,-1.93 1.511598,-2.5634 1.964851,-1.2374 4.11211,0.5709 4.181816,2.5634 h 4.590488 c -1.473184,-2.0291 -1.719177,-3.6849 -0.706002,-4.9057 1.536043,-1.8508 3.597858,-1.2762 7.142018,1.9906 1.130818,1.0424 2.019228,2.0154 2.665774,2.9151 h 4.602188 c 0.03175,-0.9558 0.504319,-1.93 1.510101,-2.5634 0.445362,-0.2803 0.900475,-0.3945 1.338806,-0.3955 v -4.6068 c -2.428217,1.8071 -4.025804,1.9247 -5.265695,0.4308 -1.455724,-1.7541 -0.317014,-4.4058 3.336627,-7.7736 0.704097,-0.649 1.334451,-1.1625 1.929068,-1.6011 v -4.5043 c -0.0091,2e-4 -0.01814,0 -0.02721,0 -2.982607,0 -3.907797,-3.9038 -1.312365,-5.5384 0.445361,-0.2804 0.900382,-0.3946 1.33876,-0.3955 v -4.6066 c -2.428263,1.8069 -4.02585,1.9245 -5.265741,0.4303 -1.455723,-1.754 -0.317014,-4.4058 3.336672,-7.7736 0.704098,-0.6491 1.334407,-1.1624 1.929069,-1.601 v -4.5043 c -0.0091,10e-5 -0.01814,0 -0.02721,0 -2.982605,0 -3.907841,-3.9042 -1.312454,-5.5386 0.445814,-0.2801 0.900383,-0.3945 1.338804,-0.3953 v -4.60687 c -2.428262,1.8069 -4.025803,1.9246 -5.26574,0.4309 -1.455769,-1.7543 -0.317014,-4.406 3.336672,-7.7738 0.704098,-0.64905 1.334453,-1.1624 1.929068,-1.60099 v -4.5043 c -0.0091,1.2e-4 -0.01814,10e-4 -0.02721,10e-4 -2.982605,0 -3.907796,-3.90409 -1.312409,-5.53844 0.445361,-0.28043 0.900382,-0.39455 1.338759,-0.39563 v -4.60671 c -2.428534,1.80704 -4.02603,1.92465 -5.265967,0.4304 -1.455769,-1.75403 -0.317014,-4.40583 3.336627,-7.77365 0.704143,-0.649 1.334497,-1.16244 1.929113,-1.60105 v -4.50415 c -0.0091,1.4e-4 -0.01814,10e-4 -0.02721,10e-4 -1.845709,0 -2.900971,-1.49501 -2.824008,-3.02191 h -4.637479 c 1.473139,2.02913 1.720628,3.68488 0.707498,4.90565 -1.536088,1.85085 -3.599399,1.27619 -7.143515,-1.99068 -1.13041,-1.04194 -2.019318,-2.01549 -2.665818,-2.91498 H 74.85436 c 0.03629,0.65603 -0.156466,1.33501 -0.653258,1.93354 -0.496836,0.59861 -1.495452,1.08838 -2.219096,1.08838 -1.845711,0 -2.900972,-1.49501 -2.824009,-3.02192 h -4.637336 c 1.473185,2.02914 1.720628,3.68489 0.707453,4.90566 -1.536043,1.85085 -3.599308,1.27619 -7.143515,-1.99068 -1.13041,-1.04194 -2.017777,-2.01549 -2.664322,-2.91498 h -4.552346 c 0.03175,0.65603 -0.158281,1.33501 -0.654753,1.93354 -0.496792,0.59861 -1.495453,1.08838 -2.219097,1.08838 -1.845665,0 -2.89943,-1.49501 -2.822512,-3.02192 H 40.53278 c 1.473185,2.02914 1.720674,3.68489 0.7075,4.90566 -1.536089,1.85085 -3.597903,1.27619 -7.142019,-1.99068 -1.13041,-1.04194 -2.019364,-2.01549 -2.665818,-2.91498 h -4.552392 c 0.03175,0.65603 -0.156466,1.33501 -0.653256,1.93354 -0.496838,0.59861 -1.495454,1.08838 -2.219052,1.08838 -1.845756,0 -2.900972,-1.49501 -2.824009,-3.02192 h -4.637337 c 1.472777,2.02886 1.719041,3.68502 0.706003,4.90566 -1.536044,1.85085 -3.597903,1.27619 -7.142018,-1.99068 -1.1304089,-1.04224 -2.0193176,-2.01579 -2.6658172,-2.91528 H 2.8920374 Z m 24.3541006,6.09069 c 0.774439,-0.002 1.423297,0.35012 1.999365,1.04434 1.455724,1.75412 0.318374,4.40591 -3.335177,7.77378 -3.544159,3.26682 -5.605974,3.84153 -7.142063,1.99063 -1.45577,-1.75412 -0.318828,-4.40583 3.335221,-7.77373 2.215061,-2.04171 3.851922,-3.03135 5.142654,-3.03502 z m 23.98788,0 c 0.774439,-0.002 1.423342,0.35012 1.999319,1.04434 1.455815,1.75412 0.318375,4.40591 -3.335176,7.77378 -3.544069,3.26682 -5.607381,3.84153 -7.14347,1.99063 -1.455769,-1.75412 -0.317014,-4.40583 3.336673,-7.77373 2.215061,-2.04171 3.851923,-3.03135 5.142654,-3.03502 z m 23.986429,0 c 0.774439,-0.002 1.424793,0.35012 2.000815,1.04434 1.45577,1.75412 0.318375,4.40591 -3.33522,7.77378 -3.544116,3.26682 -5.607427,3.84153 -7.14347,1.99063 -1.455724,-1.75412 -0.317014,-4.40583 3.336627,-7.77373 2.215061,-2.04171 3.850516,-3.03135 5.141248,-3.03502 z m -63.058136,2.98527 c 2.060364,0.10379 3.687656,2.90191 2.069707,4.85136 -0.496792,0.59866 -1.495454,1.08833 -2.219097,1.08833 -2.9825612,0 -3.9063006,-3.90389 -1.310914,-5.53841 0.48704,-0.30659 0.984874,-0.42541 1.460304,-0.40138 z m 23.987925,0 c 2.060318,0.10379 3.687565,2.90191 2.069661,4.85136 -0.496792,0.59866 -1.495453,1.08833 -2.219051,1.08833 -2.982607,0 -3.907843,-3.90389 -1.312411,-5.53841 0.48695,-0.30659 0.986371,-0.42541 1.461801,-0.40138 z m 23.987835,0 c 2.060363,0.10379 3.687611,2.90191 2.069706,4.85136 -0.496836,0.59866 -1.495498,1.08833 -2.219097,1.08833 -2.982606,0 -3.907751,-3.90389 -1.312365,-5.53841 0.486995,-0.30659 0.986326,-0.42541 1.461756,-0.40138 z m 23.98788,0 c 2.060318,0.10379 3.687656,2.90191 2.069706,4.85136 -0.496791,0.59866 -1.495453,1.08833 -2.219097,1.08833 -2.982606,0 -3.907797,-3.90389 -1.31241,-5.53841 0.48704,-0.30659 0.986371,-0.42541 1.461801,-0.40138 z m -75.3515152,9.00855 c 1.2907312,0.002 2.9275932,0.99327 5.1426082,3.03505 3.653777,3.36794 4.791036,6.01962 3.335222,7.77373 -1.536043,1.85083 -3.597903,1.27616 -7.141973,-1.99074 -3.6537319,-3.36782 -4.792442,-6.01962 -3.3366726,-7.77365 0.5760218,-0.69403 1.2263763,-1.04666 2.0008154,-1.04439 z m 23.9878342,0 c 1.290777,0.002 2.926142,0.99327 5.141248,3.03505 3.653732,3.36794 4.792397,6.01962 3.336627,7.77373 -1.535997,1.85083 -3.597903,1.27616 -7.141972,-1.99074 -3.653777,-3.36782 -4.792442,-6.01962 -3.336674,-7.77365 0.576022,-0.69403 1.226332,-1.04666 2.000771,-1.04439 z m 23.987926,0 c 1.29073,0.002 2.926141,0.99327 5.141156,3.03505 3.653732,3.36794 4.792488,6.01962 3.336719,7.77373 -1.536135,1.85083 -3.599446,1.27616 -7.143515,-1.99074 -3.653731,-3.36782 -4.790946,-6.01962 -3.335176,-7.77365 0.575977,-0.69403 1.226377,-1.04666 2.000816,-1.04439 z m 23.987834,0 c 1.290777,0.002 2.926142,0.99327 5.141248,3.03505 3.653732,3.36794 4.792397,6.01962 3.336628,7.77373 -1.536044,1.85083 -3.599355,1.27616 -7.143515,-1.99074 -3.653732,-3.36782 -4.790901,-6.01962 -3.335131,-7.77365 0.576022,-0.69403 1.226376,-1.04666 2.00077,-1.04439 z m -56.582482,2.98525 c 2.060364,0.1044 3.689107,2.902 2.071158,4.85134 -0.496837,0.59866 -1.495498,1.08837 -2.219098,1.08837 -2.982561,0 -3.907796,-3.90385 -1.31241,-5.53844 0.487041,-0.30659 0.98492,-0.42539 1.46035,-0.40139 z m 23.98788,0 c 2.060318,0.1044 3.68761,2.902 2.069707,4.85134 -0.496882,0.59866 -1.495499,1.08837 -2.219098,1.08837 -2.982606,0 -3.906345,-3.90385 -1.310959,-5.53844 0.486995,-0.30659 0.984875,-0.42539 1.46035,-0.40139 z m 23.987835,0 c 2.060363,0.1044 3.687655,2.902 2.069706,4.85134 -0.496792,0.59866 -1.495454,1.08837 -2.219097,1.08837 -2.982606,0 -3.906255,-3.90385 -1.310913,-5.53844 0.486994,-0.30659 0.984874,-0.42539 1.460304,-0.40139 z m -44.885125,9.0085 c 0.774439,0 1.423297,0.35015 1.999365,1.04445 1.455724,1.7541 0.318374,4.40579 -3.335177,7.77359 -3.544159,3.2669 -5.605974,3.8417 -7.142063,1.9908 -1.45577,-1.754 -0.318828,-4.4058 3.335221,-7.7738 2.215061,-2.04171 3.851922,-3.03132 5.142654,-3.03504 z m 23.98788,0 c 0.774439,0 1.423342,0.35015 1.999319,1.04445 1.455815,1.7541 0.318375,4.40579 -3.335176,7.77359 -3.544069,3.2669 -5.607381,3.8417 -7.14347,1.9908 -1.455769,-1.754 -0.317014,-4.4058 3.336673,-7.7738 2.215061,-2.04171 3.851923,-3.03132 5.142654,-3.03504 z m 23.986429,0 c 0.774439,0 1.424793,0.35015 2.000815,1.04445 1.45577,1.7541 0.318375,4.40579 -3.33522,7.77359 -3.544116,3.2669 -5.607427,3.8417 -7.14347,1.9908 -1.455724,-1.754 -0.317014,-4.4058 3.336627,-7.7738 2.215061,-2.04171 3.850516,-3.03132 5.141248,-3.03504 z m -63.058136,2.98524 c 2.060364,0.1032 3.687656,2.902 2.069707,4.8515 -0.496792,0.5986 -1.495454,1.0884 -2.219097,1.0884 -2.9825612,0 -3.9063006,-3.904 -1.310914,-5.5385 0.48704,-0.3071 0.984874,-0.4254 1.460304,-0.4014 z m 23.987925,0 c 2.060318,0.1032 3.687565,2.902 2.069661,4.8515 -0.496792,0.5986 -1.495453,1.0884 -2.219051,1.0884 -2.982607,0 -3.907843,-3.904 -1.312411,-5.5385 0.48695,-0.3071 0.986371,-0.4254 1.461801,-0.4014 z m 23.987835,0 c 2.060363,0.1032 3.687611,2.902 2.069706,4.8515 -0.496836,0.5986 -1.495498,1.0884 -2.219097,1.0884 -2.982606,0 -3.907751,-3.904 -1.312365,-5.5385 0.486995,-0.3071 0.986326,-0.4254 1.461756,-0.4014 z m 23.98788,0 c 2.060318,0.1032 3.687656,2.902 2.069706,4.8515 -0.496791,0.5986 -1.495453,1.0884 -2.219097,1.0884 -2.982606,0 -3.907797,-3.904 -1.31241,-5.5385 0.48704,-0.3071 0.986371,-0.4254 1.461801,-0.4014 z m -75.3515152,9.0086 c 1.2907312,0 2.9275932,0.9934 5.1426082,3.03507 3.653777,3.3678 4.791036,6.0196 3.335222,7.7737 -1.536043,1.8509 -3.597903,1.2762 -7.141973,-1.9907 -3.6537319,-3.3678 -4.792442,-6.0196 -3.3366726,-7.77367 0.5760218,-0.694 1.2263763,-1.0466 2.0008154,-1.0444 z m 23.9878342,0 c 1.290777,0 2.926142,0.9934 5.141248,3.03507 3.653732,3.3678 4.792397,6.0196 3.336627,7.7737 -1.535997,1.8509 -3.597903,1.2762 -7.141972,-1.9907 -3.653777,-3.3678 -4.792442,-6.0196 -3.336674,-7.77367 0.576022,-0.694 1.226332,-1.0466 2.000771,-1.0444 z m 23.987926,0 c 1.29073,0 2.926141,0.9934 5.141156,3.03507 3.653732,3.3678 4.792488,6.0196 3.336719,7.7737 -1.536135,1.8509 -3.599446,1.2762 -7.143515,-1.9907 -3.653731,-3.3678 -4.790946,-6.0196 -3.335176,-7.77367 0.575977,-0.694 1.226377,-1.0466 2.000816,-1.0444 z m 23.987834,0 c 1.290777,0 2.926142,0.9934 5.141248,3.03507 3.653732,3.3678 4.792397,6.0196 3.336628,7.7737 -1.536044,1.8509 -3.599355,1.2762 -7.143515,-1.9907 -3.653732,-3.3678 -4.790901,-6.0196 -3.335131,-7.77367 0.576022,-0.694 1.226376,-1.0466 2.00077,-1.0444 z m -56.582482,2.98527 c 2.060364,0.1032 3.689107,2.9019 2.071158,4.8514 -0.496837,0.5986 -1.495498,1.0883 -2.219098,1.0883 -2.982561,0 -3.907796,-3.9039 -1.31241,-5.5383 0.487041,-0.3071 0.98492,-0.4254 1.46035,-0.4014 z m 23.98788,0 c 2.060318,0.1032 3.68761,2.9019 2.069707,4.8514 -0.496882,0.5986 -1.495499,1.0883 -2.219098,1.0883 -2.982606,0 -3.906345,-3.9039 -1.310959,-5.5383 0.486995,-0.3071 0.984875,-0.4254 1.46035,-0.4014 z m 23.987835,0 c 2.060363,0.1032 3.687655,2.9019 2.069706,4.8514 -0.496792,0.5986 -1.495454,1.0883 -2.219097,1.0883 -2.982606,0 -3.906255,-3.9039 -1.310913,-5.5383 0.486994,-0.3071 0.984874,-0.4254 1.460304,-0.4014 z m -44.885125,9.0086 c 0.774439,0 1.423297,0.3501 1.999365,1.0444 1.455724,1.7539 0.318374,4.4058 -3.335177,7.7737 -3.544159,3.2668 -5.605974,3.8414 -7.142063,1.9906 -1.45577,-1.7541 -0.318828,-4.4058 3.335221,-7.7736 2.215061,-2.0419 3.851922,-3.0315 5.142654,-3.0351 z m 23.98788,0 c 0.774439,0 1.423342,0.3501 1.999319,1.0444 1.455815,1.7539 0.318375,4.4058 -3.335176,7.7737 -3.544069,3.2668 -5.607381,3.8414 -7.14347,1.9906 -1.455769,-1.7541 -0.317014,-4.4058 3.336673,-7.7736 2.215061,-2.0419 3.851923,-3.0315 5.142654,-3.0351 z m 23.986429,0 c 0.774439,0 1.424793,0.3501 2.000815,1.0444 1.45577,1.7539 0.318375,4.4058 -3.33522,7.7737 -3.544116,3.2668 -5.607427,3.8414 -7.14347,1.9906 -1.455724,-1.7541 -0.317014,-4.4058 3.336627,-7.7736 2.215061,-2.0419 3.850516,-3.0315 5.141248,-3.0351 z m -63.058136,2.9852 c 2.060364,0.1032 3.687656,2.9019 2.069707,4.8514 -0.496792,0.5987 -1.495454,1.0884 -2.219097,1.0884 -2.9825612,0 -3.9063006,-3.904 -1.310914,-5.5384 0.48704,-0.3071 0.984874,-0.4255 1.460304,-0.4014 z m 23.987925,0 c 2.060318,0.1032 3.687565,2.9019 2.069661,4.8514 -0.496792,0.5987 -1.495453,1.0884 -2.219051,1.0884 -2.982607,0 -3.907843,-3.904 -1.312411,-5.5384 0.48695,-0.3071 0.986371,-0.4255 1.461801,-0.4014 z m 23.987835,0 c 2.060363,0.1032 3.687611,2.9019 2.069706,4.8514 -0.496836,0.5987 -1.495498,1.0884 -2.219097,1.0884 -2.982606,0 -3.907751,-3.904 -1.312365,-5.5384 0.486995,-0.3071 0.986326,-0.4255 1.461756,-0.4014 z m 23.98788,0 c 2.060318,0.1032 3.687656,2.9019 2.069706,4.8514 -0.496791,0.5987 -1.495453,1.0884 -2.219097,1.0884 -2.982606,0 -3.907797,-3.904 -1.31241,-5.5384 0.48704,-0.3071 0.986371,-0.4255 1.461801,-0.4014 z m -75.3515152,9.0085 c 1.2907312,0 2.9275932,0.9933 5.1426082,3.0351 3.653777,3.3679 4.791036,6.0196 3.335222,7.7737 -1.536043,1.8508 -3.597903,1.2761 -7.141973,-1.9906 -3.6537319,-3.3679 -4.792442,-6.0197 -3.3366726,-7.7738 0.5760218,-0.694 1.2263763,-1.0466 2.0008154,-1.0444 z m 23.9878342,0 c 1.290777,0 2.926142,0.9933 5.141248,3.0351 3.653732,3.3679 4.792397,6.0196 3.336627,7.7737 -1.535997,1.8508 -3.597903,1.2761 -7.141972,-1.9906 -3.653777,-3.3679 -4.792442,-6.0197 -3.336674,-7.7738 0.576022,-0.694 1.226332,-1.0466 2.000771,-1.0444 z m 23.987926,0 c 1.29073,0 2.926141,0.9933 5.141156,3.0351 3.653732,3.3679 4.792488,6.0196 3.336719,7.7737 -1.536135,1.8508 -3.599446,1.2761 -7.143515,-1.9906 -3.653731,-3.3679 -4.790946,-6.0197 -3.335176,-7.7738 0.575977,-0.694 1.226377,-1.0466 2.000816,-1.0444 z m 23.987834,0 c 1.290777,0 2.926142,0.9933 5.141248,3.0351 3.653732,3.3679 4.792397,6.0196 3.336628,7.7737 -1.536044,1.8508 -3.599355,1.2761 -7.143515,-1.9906 -3.653732,-3.3679 -4.790901,-6.0197 -3.335131,-7.7738 0.576022,-0.694 1.226376,-1.0466 2.00077,-1.0444 z m -56.582482,2.9838 c 2.060364,0.1044 3.689107,2.9034 2.071158,4.8529 -0.496837,0.5987 -1.495498,1.0884 -2.219098,1.0884 -2.982561,0 -3.907796,-3.904 -1.31241,-5.5383 0.487041,-0.3071 0.98492,-0.4269 1.46035,-0.4029 z m 23.98788,0 c 2.060318,0.1044 3.68761,2.9034 2.069707,4.8529 -0.496882,0.5987 -1.495499,1.0884 -2.219098,1.0884 -2.982606,0 -3.906345,-3.904 -1.310959,-5.5383 0.486995,-0.3071 0.984875,-0.4269 1.46035,-0.4029 z m 23.987835,0 c 2.060363,0.1044 3.687655,2.9034 2.069706,4.8529 -0.496792,0.5987 -1.495454,1.0884 -2.219097,1.0884 -2.982606,0 -3.906255,-3.904 -1.310913,-5.5383 0.486994,-0.3071 0.984874,-0.4269 1.460304,-0.4029 z m -44.885125,9.0101 c 0.774439,0 1.423297,0.3501 1.999365,1.0444 1.455724,1.754 0.318374,4.4058 -3.335177,7.7736 -3.544159,3.2669 -5.605974,3.8416 -7.142063,1.9908 -1.45577,-1.7541 -0.318828,-4.4059 3.335221,-7.7739 2.215061,-2.0416 3.851922,-3.0313 5.142654,-3.0349 z m 23.98788,0 c 0.774439,0 1.423342,0.3501 1.999319,1.0444 1.455815,1.754 0.318375,4.4058 -3.335176,7.7736 -3.544069,3.2669 -5.607381,3.8416 -7.14347,1.9908 -1.455769,-1.7541 -0.317014,-4.4059 3.336673,-7.7739 2.215061,-2.0416 3.851923,-3.0313 5.142654,-3.0349 z m 23.986429,0 c 0.774439,0 1.424793,0.3501 2.000815,1.0444 1.45577,1.754 0.318375,4.4058 -3.33522,7.7736 -3.544116,3.2669 -5.607427,3.8416 -7.14347,1.9908 -1.455724,-1.7541 -0.317014,-4.4059 3.336627,-7.7739 2.215061,-2.0416 3.850516,-3.0313 5.141248,-3.0349 z m -63.058136,2.9838 c 2.060364,0.1044 3.687656,2.9033 2.069707,4.8529 -0.496792,0.5985 -1.495454,1.0884 -2.219097,1.0884 -2.9825612,0 -3.9063006,-3.9041 -1.310914,-5.5385 0.48704,-0.307 0.984874,-0.4268 1.460304,-0.4028 z m 23.987925,0 c 2.060318,0.1044 3.687565,2.9033 2.069661,4.8529 -0.496792,0.5985 -1.495453,1.0884 -2.219051,1.0884 -2.982607,0 -3.907843,-3.9041 -1.312411,-5.5385 0.48695,-0.307 0.986371,-0.4268 1.461801,-0.4028 z m 23.987835,0 c 2.060363,0.1044 3.687611,2.9033 2.069706,4.8529 -0.496836,0.5985 -1.495498,1.0884 -2.219097,1.0884 -2.982606,0 -3.907751,-3.9041 -1.312365,-5.5385 0.486995,-0.307 0.986326,-0.4268 1.461756,-0.4028 z m 23.98788,0 c 2.060318,0.1044 3.687656,2.9033 2.069706,4.8529 -0.496791,0.5985 -1.495453,1.0884 -2.219097,1.0884 -2.982606,0 -3.907797,-3.9041 -1.31241,-5.5385 0.48704,-0.307 0.986371,-0.4268 1.461801,-0.4028 z"
       id="path4160" />
  </g>
</svg>
