<?xml version="1.0" encoding="UTF-8" standalone="no"?>
<!-- Created with Inkscape (http://www.inkscape.org/) -->

<svg
   xmlns:dc="http://purl.org/dc/elements/1.1/"
   xmlns:cc="http://creativecommons.org/ns#"
   xmlns:rdf="http://www.w3.org/1999/02/22-rdf-syntax-ns#"
   xmlns:svg="http://www.w3.org/2000/svg"
   xmlns="http://www.w3.org/2000/svg"
   xmlns:xlink="http://www.w3.org/1999/xlink"
   xmlns:sodipodi="http://sodipodi.sourceforge.net/DTD/sodipodi-0.dtd"
   xmlns:inkscape="http://www.inkscape.org/namespaces/inkscape"
   width="512"
   height="512"
   viewBox="0 0 512.00002 512.00002"
   id="svg2"
   version="1.1"
   inkscape:version="0.92.2 2405546, 2018-03-11"
   sodipodi:docname="prototipo-icona-sferica.svg.2019_03_10_02_19_19.2.svg">
  <title
     id="title5557">Prototipo-icona-sferica</title>
  <defs
     id="defs4">
    <radialGradient
       fx="0"
       fy="0"
       cx="0"
       cy="0"
       r="1"
       gradientUnits="userSpaceOnUse"
       gradientTransform="matrix(210.24438,0,0,210.24438,245.36642,855.33242)"
       spreadMethod="pad"
       id="radialGradient326-6">
      <stop
         style="stop-opacity:1;stop-color:#61ccf5"
         offset="0"
         id="stop320-2" />
      <stop
         style="stop-opacity:1;stop-color:#61ccf5"
         offset="0.8757987"
         id="stop322-9" />
      <stop
         style="stop-opacity:1;stop-color:#050301"
         offset="1"
         id="stop324-1" />
    </radialGradient>
    <linearGradient
       x1="0"
       y1="0"
       x2="1"
       y2="0"
       gradientUnits="userSpaceOnUse"
       gradientTransform="matrix(-1.2659566e-5,-303.17096,503.12913,-2.2154241e-5,4.4358993,1054.0946)"
       spreadMethod="pad"
       id="linearGradient266">
      <stop
         style="stop-opacity:1;stop-color:#ffffff"
         offset="0"
         id="stop260" />
      <stop
         style="stop-opacity:1;stop-color:#ffffff"
         offset="0.45385632"
         id="stop262" />
      <stop
         style="stop-opacity:1;stop-color:#050301"
         offset="1"
         id="stop264" />
    </linearGradient>
    <linearGradient
       x1="0"
       y1="0"
       x2="1"
       y2="0"
       gradientUnits="userSpaceOnUse"
       gradientTransform="matrix(-1.2659566e-5,280.279,-496.54299,-2.2154241e-5,504.27197,543.19886)"
       spreadMethod="pad"
       id="linearGradient286">
      <stop
         style="stop-opacity:1;stop-color:#ffffff"
         offset="0"
         id="stop280" />
      <stop
         style="stop-opacity:1;stop-color:#ffffff"
         offset="0.45385632"
         id="stop282" />
      <stop
         style="stop-opacity:1;stop-color:#5b5e64"
         offset="1"
         id="stop284" />
    </linearGradient>
    <linearGradient
       inkscape:collect="always"
       xlink:href="#linearGradient4431"
       id="linearGradient4449"
       x1="240.7776"
       y1="994.06366"
       x2="241.14569"
       y2="957.83398"
       gradientUnits="userSpaceOnUse"
       gradientTransform="matrix(1.2914091,0,0,1.2914091,-59.15209,-287.91993)" />
    <linearGradient
       inkscape:collect="always"
       id="linearGradient4431">
      <stop
         style="stop-color:#ffffff;stop-opacity:1;"
         offset="0"
         id="stop4427" />
      <stop
         style="stop-color:#ffffff;stop-opacity:0;"
         offset="1"
         id="stop4429" />
    </linearGradient>
    <linearGradient
       inkscape:collect="always"
       xlink:href="#linearGradient4431"
       id="linearGradient4441"
       x1="248.97786"
       y1="677.74567"
       x2="249.35106"
       y2="709.87384"
       gradientUnits="userSpaceOnUse"
       gradientTransform="matrix(1.2914091,0,0,1.2914091,-59.15209,-287.91993)" />
    <linearGradient
       inkscape:collect="always"
       xlink:href="#linearGradient4431"
       id="linearGradient4690"
       gradientUnits="userSpaceOnUse"
       gradientTransform="matrix(1.4502451,0,0,1.4502451,255.9708,90.35669)"
       x1="-100.59241"
       y1="401.95187"
       x2="-49.90176"
       y2="451.85309" />
    <radialGradient
       fx="0"
       fy="0"
       cx="0"
       cy="0"
       r="1"
       gradientUnits="userSpaceOnUse"
       gradientTransform="matrix(210.24438,0,0,210.24438,256.0004,255.99997)"
       spreadMethod="pad"
       id="radialGradient326-6-0">
      <stop
         style="stop-opacity:1;stop-color:#61ccf5"
         offset="0"
         id="stop320-2-9" />
      <stop
         style="stop-opacity:1;stop-color:#61ccf5"
         offset="0.8757987"
         id="stop322-9-3" />
      <stop
         style="stop-opacity:1;stop-color:#050301"
         offset="1"
         id="stop324-1-6" />
    </radialGradient>
  </defs>
  <sodipodi:namedview
     id="base"
     pagecolor="#ffffff"
     bordercolor="#666666"
     borderopacity="1.0"
     inkscape:pageopacity="0.0"
     inkscape:pageshadow="2"
     inkscape:zoom="1.0344199"
     inkscape:cx="479.39878"
     inkscape:cy="242.79758"
     inkscape:document-units="px"
     inkscape:current-layer="layer7"
     showgrid="false"
     units="px"
     inkscape:showpageshadow="false"
     inkscape:window-width="1920"
     inkscape:window-height="991"
     inkscape:window-x="0"
     inkscape:window-y="25"
     inkscape:window-maximized="1" />
  <metadata
     id="metadata7">
    <rdf:RDF>
      <cc:Work
         rdf:about="">
        <dc:format>image/svg+xml</dc:format>
        <dc:type
           rdf:resource="http://purl.org/dc/dcmitype/StillImage" />
        <dc:title>Prototipo-icona-sferica</dc:title>
        <cc:license
           rdf:resource="http://creativecommons.org/licenses/by-sa/4.0/" />
        <dc:date>2019</dc:date>
        <dc:creator>
          <cc:Agent>
            <dc:title>Cristian Pozzessere  &lt; ilnanny &gt;</dc:title>
          </cc:Agent>
        </dc:creator>
        <dc:subject>
          <rdf:Bag>
            <rdf:li>ilnanny</rdf:li>
          </rdf:Bag>
        </dc:subject>
        <dc:description>Playing with Inkscape on Gnu/Linux O. S.</dc:description>
        <dc:contributor>
          <cc:Agent>
            <dc:title>In the night, alone like a dog.</dc:title>
          </cc:Agent>
        </dc:contributor>
      </cc:Work>
      <cc:License
         rdf:about="http://creativecommons.org/licenses/by-sa/4.0/">
        <cc:permits
           rdf:resource="http://creativecommons.org/ns#Reproduction" />
        <cc:permits
           rdf:resource="http://creativecommons.org/ns#Distribution" />
        <cc:requires
           rdf:resource="http://creativecommons.org/ns#Notice" />
        <cc:requires
           rdf:resource="http://creativecommons.org/ns#Attribution" />
        <cc:permits
           rdf:resource="http://creativecommons.org/ns#DerivativeWorks" />
        <cc:requires
           rdf:resource="http://creativecommons.org/ns#ShareAlike" />
      </cc:License>
    </rdf:RDF>
  </metadata>
  <g
     inkscape:label="Base"
     inkscape:groupmode="layer"
     id="layer1"
     transform="translate(0,-540.3622)"
     sodipodi:insensitive="true">
    <g
       id="g5553"
       style="opacity:1">
      <circle
         style="opacity:0.1;fill:#010101;fill-opacity:1;stroke:#f6ffb2;stroke-width:2.18254709;stroke-linecap:round;stroke-linejoin:bevel;stroke-miterlimit:4;stroke-dasharray:none;stroke-opacity:1;paint-order:stroke fill markers"
         id="path876"
         cx="256"
         cy="796.36218"
         r="253.1908" />
      <path
         inkscape:connector-curvature="0"
         id="path268"
         style="fill:url(#linearGradient266);fill-opacity:1;fill-rule:nonzero;stroke:none;stroke-width:0.31648916"
         d="m 256.00143,796.27945 c -84.70674,0 -166.097635,-14.18822 -241.937285,-40.27323 -2.172391,13.09946 -3.298456,26.55027 -3.298456,40.27323 0,135.43521 109.793251,245.23475 245.235741,245.23475 135.439,0 245.23228,-109.79954 245.23228,-245.23475 0,-13.72296 -1.12355,-27.17377 -3.28835,-40.27323 -75.84976,26.08501 -157.24762,40.27323 -241.94393,40.27323"
         mask="none"
         clip-path="none" />
      <path
         inkscape:connector-curvature="0"
         style="fill:#bdbcbc;fill-opacity:1;fill-rule:nonzero;stroke:#0a0a0a;stroke-width:4.0673089;stroke-miterlimit:4;stroke-dasharray:none;stroke-opacity:0.19607843"
         mask="none"
         clip-path="none"
         d="m 256.00595,550.55417 c -58.62233,0 -115.37278,20.96464 -159.854367,59.02563 -43.725574,37.45839 -73.028771,89.12504 -82.571533,145.56318 l -0.03972,-0.0139 -0.119159,0.76262 c -2.196763,13.25455 -3.312633,26.84454 -3.312633,40.38711 0,33.19339 6.505452,65.40263 19.335605,95.71282 12.369022,29.28158 30.113246,55.57956 52.690318,78.17059 22.588139,22.56565 48.879289,40.30168 78.150719,52.69228 30.31398,12.8242 62.52748,19.3157 95.72276,19.3157 33.19622,0 65.39355,-6.4915 95.70687,-19.3157 29.27842,-12.3906 55.58783,-30.12663 78.15668,-52.69228 22.59416,-22.59103 40.31843,-48.88901 52.71216,-78.17059 12.81146,-30.31019 19.30781,-62.51943 19.30781,-95.71282 0,-13.54257 -1.09872,-27.13256 -3.28881,-40.38711 l -0.12908,-0.76262 -0.0417,0.0139 C 488.87434,698.70482 459.58698,647.03821 415.84246,609.5798 371.37889,571.51881 314.60899,550.55417 256.00595,550.55417 Z m 0,1.32267 c 119.99039,0 221.30906,85.61858 241.15885,203.69313 -77.42896,26.56999 -158.56542,40.05346 -241.15686,40.05346 -82.59397,0 -163.731819,-13.4872 -241.176715,-40.0614 C 34.690252,637.49164 135.99682,551.87684 256.00595,551.87684 Z M 497.44482,757.0257 c 2.07323,12.88541 3.12992,26.09585 3.12992,39.25311 0,134.86552 -109.71108,244.57469 -244.5668,244.57469 -134.85512,0 -244.566802,-109.70917 -244.566802,-244.57469 0,-13.15585 1.037255,-26.36504 3.129921,-39.24914 77.523665,26.60194 158.746421,40.07531 241.434891,40.07531 82.67227,0 163.90465,-13.47581 241.43887,-40.07928 z"
         id="path270" />
      <path
         inkscape:connector-curvature="0"
         id="path288"
         style="fill:url(#linearGradient286);fill-opacity:1;fill-rule:nonzero;stroke:none;stroke-width:0.31648916"
         d="m 256.00649,796.44086 c 84.69439,0 166.08593,-14.17554 241.93571,-40.26691 C 478.72499,639.89583 377.71748,551.21873 256.00649,551.21873 c -121.7309,0 -222.73936,88.6771 -241.947409,204.95522 75.841236,26.09137 157.232119,40.26691 241.947409,40.26691"
         mask="none"
         clip-path="none" />
      <path
         inkscape:connector-curvature="0"
         id="path308"
         style="fill:#768087;fill-opacity:1;fill-rule:nonzero;stroke:none;stroke-width:0.31648916"
         d="m 473.83842,796.36805 c 0,120.31337 -97.53249,217.83635 -217.83699,217.83635 -120.31398,0 -217.841064,-97.52298 -217.841064,-217.83635 0,-120.31649 97.527084,-217.83949 217.841064,-217.83949 120.3045,0 217.83699,97.523 217.83699,217.83949"
         mask="none"
         clip-path="none" />
      <path
         inkscape:connector-curvature="0"
         id="path310"
         style="fill:#cdccca;fill-opacity:1;fill-rule:nonzero;stroke:#eae8db;stroke-width:1.20000005;stroke-miterlimit:4;stroke-dasharray:none;stroke-opacity:0.93650794"
         d="m 256.00872,1014.8659 c -58.36125,0 -113.23384,-22.73662 -154.49864,-64.00049 C 60.234231,909.5984 37.501432,854.72552 37.501432,796.36805 c 0,-58.37323 22.732799,-113.24614 64.008648,-154.50681 41.2648,-41.26387 96.13739,-63.99413 154.49864,-63.99413 58.36343,0 113.23635,22.73026 154.49703,63.99413 41.27019,41.26067 63.99095,96.13358 63.99095,154.50681 0,58.35747 -22.72076,113.23035 -63.99095,154.49736 -41.26068,41.26387 -96.1336,64.00049 -154.49703,64.00049 z m 0,-435.67902 c -119.75888,0 -217.189429,97.43118 -217.189429,217.18117 0,119.75004 97.430549,217.17165 217.189429,217.17165 119.74969,0 217.17138,-97.42161 217.17138,-217.17165 0,-119.74999 -97.42169,-217.18117 -217.17138,-217.18117 v 0"
         mask="none"
         clip-path="none" />
      <path
         inkscape:connector-curvature="0"
         id="path330"
         style="fill:#c2c1c1;fill-opacity:1;fill-rule:nonzero;stroke:#ffffff;stroke-width:1;stroke-miterlimit:4;stroke-dasharray:none;stroke-opacity:0.93650794"
         d="m 256.00872,1007.2701 c -56.33508,0 -109.3024,-21.93268 -149.14045,-61.76599 -39.829543,-39.83966 -61.772359,-92.7978 -61.772359,-149.13606 0,-56.34454 21.942816,-109.31533 61.772359,-149.155 39.83805,-39.808 92.80537,-61.75968 149.14045,-61.75968 56.33791,0 109.29288,21.95168 149.11989,61.75968 39.8428,39.83967 61.7755,92.81046 61.7755,149.155 0,56.33826 -21.9327,109.2964 -61.7755,149.13606 -39.82701,39.83331 -92.78198,61.76599 -149.11989,61.76599 z m 0,-420.48432 c -115.56539,0 -209.593689,94.00677 -209.593689,209.58227 0,115.56604 94.028299,209.57915 209.593689,209.57915 115.56571,0 209.58513,-94.01311 209.58513,-209.57915 0,-115.5755 -94.01942,-209.58227 -209.58513,-209.58227 v 0"
         mask="none"
         clip-path="none" />
    </g>
  </g>
  <g
     inkscape:groupmode="layer"
     id="layer6"
     inkscape:label="Colore"
     sodipodi:insensitive="true">
    <path
       clip-path="none"
       mask="none"
       d="m 466.24326,256.00947 c 0,116.11039 -94.12067,210.23428 -210.24124,210.23428 -116.11577,0 -210.245285,-94.12389 -210.245285,-210.23428 0,-116.12303 94.129515,-210.253219 210.245285,-210.253219 116.12057,0 210.24124,94.130189 210.24124,210.253219"
       style="fill:url(#radialGradient326-6-0);fill-opacity:1;fill-rule:nonzero;stroke:none;stroke-width:0.31648916"
       id="path328"
       inkscape:connector-curvature="0" />
  </g>
  <g
     inkscape:groupmode="layer"
     id="layer7"
     inkscape:label="Logo">
    <path
       style="color:#000000;font-style:normal;font-variant:normal;font-weight:normal;font-stretch:normal;font-size:medium;line-height:normal;font-family:sans-serif;font-variant-ligatures:normal;font-variant-position:normal;font-variant-caps:normal;font-variant-numeric:normal;font-variant-alternates:normal;font-feature-settings:normal;text-indent:0;text-align:start;text-decoration:none;text-decoration-line:none;text-decoration-style:solid;text-decoration-color:#000000;letter-spacing:normal;word-spacing:normal;text-transform:none;writing-mode:lr-tb;direction:ltr;text-orientation:mixed;dominant-baseline:auto;baseline-shift:baseline;text-anchor:start;white-space:normal;shape-padding:0;clip-rule:nonzero;display:inline;overflow:visible;visibility:visible;opacity:1;isolation:auto;mix-blend-mode:normal;color-interpolation:sRGB;color-interpolation-filters:linearRGB;solid-color:#000000;solid-opacity:1;vector-effect:none;fill:#ba00ff;fill-opacity:0.19047618;fill-rule:nonzero;stroke:none;stroke-width:1.79435122;stroke-linecap:round;stroke-linejoin:bevel;stroke-miterlimit:4;stroke-dasharray:none;stroke-dashoffset:0;stroke-opacity:1;paint-order:stroke fill markers;color-rendering:auto;image-rendering:auto;shape-rendering:auto;text-rendering:auto;enable-background:accumulate"
       d="m 779.90079,10.181641 -1.79296,0.01758 0.33984,34.445312 a 211.37497,211.37497 0 0 1 0.55078,-0.01953 211.37497,211.37497 0 0 1 1.25391,0.0625 z m -6.29882,0.05859 -1.79297,0.06445 1.23047,34.53125 a 211.37497,211.37497 0 0 1 1.80468,-0.06445 l -1.04882,-29.167968 -0.19141,-5.363282 z m 10.80273,0.01758 -0.55078,34.609376 a 211.37497,211.37497 0 0 1 1.80664,0.0918 l 0.53711,-34.589843 0.002,-0.08203 v -0.002 z m -17.09766,0.201172 -1.79101,0.111328 2.11719,34.457032 a 211.37497,211.37497 0 0 1 1.80664,-0.06445 L 767.30704,10.46094 Z m 23.39258,0.01953 -1.44531,34.660156 a 211.37497,211.37497 0 0 1 1.80469,0.08984 l 1.43359,-34.675782 z m -29.67969,0.363281 -1.7871,0.15625 3.00195,34.376953 a 211.37497,211.37497 0 0 1 1.79492,-0.21875 z m 35.9668,0.01758 -2.33203,34.548828 a 211.37497,211.37497 0 0 1 1.80469,0.0918 l 2.31836,-34.519531 z m -42.24219,0.527344 -1.78125,0.201172 3.90235,34.4375 a 211.37497,211.37497 0 0 1 1.79297,-0.216797 z m 48.51758,0.01758 -3.20312,34.275391 a 211.37497,211.37497 0 0 1 1.78906,0.265624 l 3.19922,-34.375 z m -54.77539,0.6875 -1.77734,0.248047 4.78906,34.33789 a 211.37497,211.37497 0 0 1 1.79492,-0.216796 z m 61.0332,0.01758 -4.10742,34.375 a 211.37497,211.37497 0 0 1 1.78711,0.269531 l 4.10156,-34.43164 z m -67.27343,0.847656 -1.76953,0.294922 5.65234,34.078125 a 211.37497,211.37497 0 0 1 1.79492,-0.21875 z m 73.51172,0.01758 v 0.002 l -4.99805,34.314454 a 211.37497,211.37497 0 0 1 1.78711,0.271484 l 4.98828,-34.328125 z m -79.72657,1.009766 -1.76172,0.339844 6.52149,33.888672 a 211.37497,211.37497 0 0 1 1.76367,-0.396485 z m 85.94141,0.01758 -5.86719,34.097656 a 211.37497,211.37497 0 0 1 1.78516,0.269532 l 5.84961,-34.0625 z m -92.12695,1.167969 -1.75196,0.384766 7.41992,33.841796 a 211.37497,211.37497 0 0 1 1.76368,-0.394531 z m 98.3125,0.01758 -6.71094,33.767578 a 211.37497,211.37497 0 0 1 1.7539,0.447266 l 6.7168,-33.865235 z m -104.4668,1.328125 -1.74024,0.429687 h -0.002 l 8.28906,33.636719 a 211.37497,211.37497 0 0 1 1.76368,-0.396484 l -7.05469,-28.583985 -1.25391,-5.085937 z m 110.61914,0.01758 -1.15234,5.119141 -6.46289,28.642578 a 211.37497,211.37497 0 0 1 1.75,0.447266 l 7.61718,-33.814454 -1.75,-0.394531 z m -116.73438,1.486328 -1.73046,0.472657 v 0.002 l 0.37304,1.363281 8.74024,31.908203 a 211.37497,211.37497 0 0 1 1.76562,-0.396484 z m 122.85157,0.01758 -8.49414,33.595703 a 211.37497,211.37497 0 0 1 1.75,0.447266 l 8.48437,-33.603516 z m -128.92774,1.642579 -1.71875,0.517578 9.96875,33.029296 a 211.37497,211.37497 0 0 1 1.71485,-0.570312 z m 135.00391,0.01562 v 0.002 l -9.33203,33.273437 a 211.37497,211.37497 0 0 1 1.75195,0.447266 l 9.3086,-33.238281 z m -141.03516,1.798829 -1.70508,0.564453 10.85157,32.875 a 211.37497,211.37497 0 0 1 1.71679,-0.570313 L 705.46915,21.496094 Z m 147.06641,0.01758 -10.14453,32.892578 a 211.37497,211.37497 0 0 1 1.69922,0.621094 L 854.2504,22.041027 Z m -153.05078,1.953125 -1.6875,0.607422 11.6875,32.564453 a 211.37497,211.37497 0 0 1 1.71484,-0.56836 l -10.62109,-29.558593 -1.0918,-3.042969 h -0.002 z m 159.0332,0.01758 -11.04101,32.779297 a 211.37497,211.37497 0 0 1 1.69531,0.61914 L 860.2172,24.054701 Z m -164.96289,2.107422 -1.67187,0.65039 12.46484,32.103516 a 211.37497,211.37497 0 0 1 1.7168,-0.570312 z m 170.89063,0.01758 -1.71875,4.705078 -10.16993,27.802734 a 211.37497,211.37497 0 0 1 1.69532,0.619141 l 11.8789,-32.511719 -1.68359,-0.615234 z m -176.76368,2.257812 -1.65429,0.69336 13.30273,31.808594 a 211.37497,211.37497 0 0 1 1.64844,-0.738282 L 687.68204,27.867188 Z m 182.63672,0.01758 -12.68164,32.085938 a 211.37497,211.37497 0 0 1 1.69727,0.621094 l 11.93164,-30.220703 0.72265,-1.826172 v -0.002 z m -188.44922,2.410157 -1.63671,0.734375 14.1582,31.548828 a 211.37497,211.37497 0 0 1 1.65039,-0.738281 z m 194.26172,0.01563 -13.46484,31.65625 a 211.37497,211.37497 0 0 1 1.62891,0.787109 l 13.48828,-31.740234 z m -200.00976,2.558594 -1.61719,0.777343 14.95117,31.140625 a 211.37497,211.37497 0 0 1 1.64844,-0.738281 L 676.1215,32.869141 Z m 205.75781,0.01758 -14.33789,31.435546 a 211.37497,211.37497 0 0 1 1.62695,0.78711 L 883.51212,33.62893 Z m -211.4375,2.705078 -1.59766,0.818359 15.66797,30.589844 a 211.37497,211.37497 0 0 1 1.65235,-0.738281 L 670.44181,35.591797 Z m 217.11719,0.01758 -15.14844,31.066406 a 211.37497,211.37497 0 0 1 1.62695,0.785156 l 15.13477,-31.066406 z m -222.72657,2.851562 -1.57421,0.859375 16.48437,30.240235 a 211.37497,211.37497 0 0 1 1.56836,-0.900391 L 667.10587,42.625 664.83439,38.458984 Z m 228.33399,0.01563 -15.88281,30.552735 a 211.37497,211.37497 0 0 1 1.62695,0.785156 L 894.75822,39.302734 Z M 659.30118,41.470703 657.74845,42.369141 675.05118,72.25 a 211.37497,211.37497 0 0 1 1.56641,-0.898438 z m 239.39844,0.01563 -16.63281,30.076172 a 211.37497,211.37497 0 0 1 1.54102,0.945312 l 16.6621,-30.154296 z m -244.85156,3.136719 -1.5293,0.939453 18.03711,29.380859 a 211.37497,211.37497 0 0 1 1.56836,-0.90039 z m 250.30273,0.01563 -17.46875,29.751953 a 211.37497,211.37497 0 0 1 1.54102,0.945313 l 17.47656,-29.789063 z m -255.67187,3.27539 -1.50586,0.978516 18.68359,28.746094 a 211.37497,211.37497 0 0 1 1.57032,-0.900391 L 648.47892,47.916016 Z m 261.04297,0.01563 -18.22852,29.289062 a 211.37497,211.37497 0 0 1 1.54102,0.945312 l 16.72265,-26.892578 1.48829,-2.392578 v -0.002 z m -266.32813,3.414062 -1.47851,1.017578 19.48047,28.345703 a 211.37497,211.37497 0 0 1 1.4707,-1.052734 z m 271.60938,0.01563 -2.44922,3.720703 -16.44531,24.96875 a 211.37497,211.37497 0 0 1 1.54101,0.94336 l 18.85352,-28.646485 -1.49805,-0.986328 z m -276.80274,3.548828 -1.45117,1.054688 20.24414,27.890625 a 211.37497,211.37497 0 0 1 1.46875,-1.050782 z m 281.9961,0.01563 -19.61133,28.167969 a 211.37497,211.37497 0 0 1 1.43945,1.095703 l 17.90625,-25.740234 1.73828,-2.498047 v -0.002 z m -287.09571,3.681641 -1.42382,1.091797 20.91406,27.304687 a 211.37497,211.37497 0 0 1 1.46875,-1.050781 z m 292.19532,0.01367 -20.40039,27.75 a 211.37497,211.37497 0 0 1 1.43945,1.09375 l 20.4082,-27.78125 z m -297.19727,3.8125 -1.39648,1.128906 21.47851,26.595703 a 211.37497,211.37497 0 0 1 1.47266,-1.054688 z m 302.20117,0.01563 -21.09375,27.197265 a 211.37497,211.37497 0 0 1 1.4375,1.09375 l 19.05469,-24.585964 2.01953,-2.605469 v -0.002 z m -307.10547,3.939453 -1.36524,1.164062 22.25196,26.146485 a 211.37497,211.37497 0 0 1 1.35742,-1.19336 z m 312.00782,0.01367 -21.68555,26.521484 a 211.37497,211.37497 0 0 1 1.4375,1.09375 l 21.63672,-26.478516 z m -316.80665,4.066406 -1.33594,1.197265 22.95509,25.605469 a 211.37497,211.37497 0 0 1 1.35547,-1.193359 z m 321.60547,0.01367 -22.36718,25.960937 a 211.37497,211.37497 0 0 1 1.32226,1.232422 l 22.4043,-26.023437 z m -326.29883,4.1875 -1.30273,1.232422 h -0.002 l 23.54687,24.943356 a 211.37497,211.37497 0 0 1 1.35938,-1.193356 z m 330.99024,0.01367 -2.67187,2.947265 -20.42383,22.505863 a 211.37497,211.37497 0 0 1 1.32226,1.23046 l 23.10352,-25.47851 -1.32813,-1.205078 z m -335.57227,4.30664 -1.27344,1.265625 24.0293,24.175783 a 211.37497,211.37497 0 0 1 1.35547,-1.20117 z m 340.15625,0.01367 -23.71874,24.822268 a 211.37497,211.37497 0 0 1 1.32031,1.23047 l 21.12109,-22.119144 2.57422,-2.693359 v -0.002 z m -344.62695,4.423828 -1.24024,1.298828 h 0.002 l 24.7715,23.669922 a 211.37497,211.37497 0 0 1 1.23046,-1.32226 z m 349.09571,0.01367 -24.22266,24.07617 a 211.37497,211.37497 0 0 1 1.32031,1.23438 l 24.16797,-24.039082 z m -353.44923,4.539063 -1.20703,1.328125 25.4004,23.050782 a 211.37497,211.37497 0 0 1 1.23242,-1.32226 z m 357.80469,0.01172 -24.86914,23.478517 a 211.37497,211.37497 0 0 1 1.19141,1.35742 l 24.9082,-23.531249 h 0.002 z m -362.04102,4.648419 v 0.002 L 594.6879,94 l 25.9082,22.32227 a 211.37497,211.37497 0 0 1 1.23438,-1.32422 z m 366.2754,0.01172 -25.5293,22.886718 a 211.37497,211.37497 0 0 1 1.19336,1.35742 l 22.57617,-20.253904 2.95899,-2.652344 v -0.002 l -1.19922,-1.333984 z m -370.39063,4.757812 -1.13477,1.390625 26.33594,21.535151 a 211.37497,211.37497 0 0 1 1.18555,-1.36523 z m 374.50586,0.01172 -26.06836,22.187496 a 211.37497,211.37497 0 0 1 1.19141,1.35742 l 26.03906,-22.177729 z m -378.4961,4.863276 -1.0996,1.41797 27.00976,20.94922 a 211.37497,211.37497 0 0 1 1.09375,-1.43945 z m 382.48634,0.01 -26.48047,21.38672 a 211.37497,211.37497 0 0 1 1.14844,1.39453 l 26.45898,-21.38477 z m -386.34962,4.96484 -1.0625,1.44531 27.5586,20.25977 a 211.37497,211.37497 0 0 1 1.09179,-1.43945 z m 390.2129,0.01 -27.0918,20.75 a 211.37497,211.37497 0 0 1 1.05274,1.4707 l 27.1289,-20.79492 h 0.002 z m -393.94727,5.0625 -1.02539,1.47265 27.97461,19.47657 a 211.37497,211.37497 0 0 1 1.09375,-1.44141 z m 397.67969,0.01 -27.67187,20.08594 a 211.37497,211.37497 0 0 1 1.05273,1.4707 l 27.67383,-20.10351 z m -401.28125,5.15821 -0.98633,1.49804 28.34961,18.67188 a 211.37497,211.37497 0 0 1 0.99609,-1.50586 z m 404.88477,0.01 -28.1211,19.32617 a 211.37497,211.37497 0 0 1 1.04883,1.46875 l 28.08789,-19.3164 z m -408.35352,5.24805 -0.94727,1.52344 28.94531,18.01367 a 211.37497,211.37497 0 0 1 0.94336,-1.54102 z m 411.82031,0.01 -28.43359,18.48047 a 211.37497,211.37497 0 0 1 0.95703,1.53321 l 28.45508,-18.50977 z m -415.15235,5.33594 -0.9082,1.54688 29.4043,17.26562 a 211.37497,211.37497 0 0 1 0.94531,-1.54101 l -27.09961,-15.89844 -2.33984,-1.37305 z m 418.48438,0.01 -29.00781,17.80859 a 211.37497,211.37497 0 0 1 0.89844,1.56641 l 29.04687,-17.84766 h 0.002 z m -421.67578,5.41992 -0.86914,1.57031 29.7207,16.4375 a 211.37497,211.37497 0 0 1 0.94531,-1.54297 z m 424.86719,0.008 -29.50195,17.08203 a 211.37497,211.37497 0 0 1 0.89843,1.56836 l 29.50391,-17.09765 z m -427.91993,5.50196 -0.82617,1.59179 30.04688,15.6211 a 211.37497,211.37497 0 0 1 0.78906,-1.625 z m 430.97267,0.008 -29.85743,16.27539 a 211.37497,211.37497 0 0 1 0.90039,1.56836 L 995.3422,140.625 Z m -433.88087,5.57812 v 0.002 l -0.78711,1.61132 30.55664,14.89844 a 211.37497,211.37497 0 0 1 0.78516,-1.62695 z m 436.78907,0.01 -30.0625,15.39844 a 211.37497,211.37497 0 0 1 0.74609,1.64648 l 30.13477,-15.44922 z m -439.55469,5.65039 -0.74414,1.63281 h 0.002 l 30.91796,14.10156 a 211.37497,211.37497 0 0 1 0.78516,-1.62695 l -28.91997,-13.17975 -2.03906,-0.92969 z m 442.31836,0.008 -30.59961,14.69141 a 211.37497,211.37497 0 0 1 0.73828,1.65039 l 30.63863,-14.72461 z m -444.93555,5.72266 -0.70117,1.65039 31.13281,13.24219 a 211.37497,211.37497 0 0 1 0.78516,-1.62917 z m 447.55275,0.006 -31.00197,13.91406 a 211.37497,211.37497 0 0 1 0.73829,1.65039 l 30.99998,-13.92578 -0.7363,-1.63672 z m -450.0215,5.78906 -0.6582,1.66797 31.41015,12.41601 a 211.37497,211.37497 0 0 1 0.61914,-1.69726 z m 452.4902,0.006 -31.25387,13.07031 a 211.37497,211.37497 0 0 1 0.73828,1.65039 L 1005.934,163.4771 Z m -454.80856,5.84961 -0.61719,1.68555 31.82617,11.64257 a 211.37497,211.37497 0 0 1 0.6211,-1.69921 z m 457.12886,0.006 -31.40034,12.1914 a 211.37497,211.37497 0 0 1 0.57031,1.7168 l 31.47853,-12.23437 z m -459.29683,5.9082 -0.57227,1.70117 32.08985,10.8086 a 211.37497,211.37497 0 0 1 0.61914,-1.69727 z m 461.46293,0.006 -1.7149,0.61523 -30.13865,10.81836 a 211.37497,211.37497 0 0 1 0.57031,1.71485 l 31.89064,-11.45899 -0.6055,-1.68945 z m -463.47855,5.96012 -0.52735,1.71484 32.19727,9.92969 a 211.37497,211.37497 0 0 1 0.62109,-1.69922 l -30.79101,-9.48437 -1.49805,-0.46094 z m 465.49415,0.006 -32.15626,10.61524 a 211.37497,211.37497 0 0 1 0.56836,1.71484 l 32.1504,-10.62695 z m -467.35353,6.01172 -0.48437,1.72852 32.42968,9.0957 a 211.37497,211.37497 0 0 1 0.44922,-1.75196 z m 469.21293,0.006 -32.30472,9.75 a 211.37497,211.37497 0 0 1 0.56836,1.71289 l 32.25586,-9.74609 z m -470.91801,6.05859 -0.43945,1.73828 32.74805,8.28125 a 211.37497,211.37497 0 0 1 0.44531,-1.75 z m 472.62301,0.004 -32.40035,8.875 a 211.37497,211.37497 0 0 1 0.39649,1.76367 l 32.47846,-8.9082 z m -474.16988,6.10156 -0.39453,1.75 32.90625,7.42383 a 211.37497,211.37497 0 0 1 0.44726,-1.75 z m 475.71678,0.004 -1.2402,0.30664 -31.51564,7.76562 a 211.37497,211.37497 0 0 1 0.39453,1.76172 l 32.79101,-8.09179 -0.4277,-1.74219 z m -477.10741,6.13867 -0.34961,1.75976 32.90625,6.53907 a 211.37497,211.37497 0 0 1 0.44727,-1.75196 z m 478.49801,0.004 -32.95894,7.22656 a 211.37497,211.37497 0 0 1 0.39648,1.76172 l 27.92186,-6.13282 5.0254,-1.10156 v -0.002 z m -479.73043,6.17382 -0.30273,1.76758 33.09375,5.69531 a 211.37497,211.37497 0 0 1 0.26953,-1.78515 z m 480.96293,0.004 -33.00199,6.34961 a 211.37497,211.37497 0 0 1 0.39649,1.76367 l 32.9434,-6.35156 h 0 z m -482.0352,6.20312 -0.25781,1.7754 33.31055,4.85351 a 211.37497,211.37497 0 0 1 0.26953,-1.78711 z m 483.1074,0.002 -33.0488,5.48047 a 211.37497,211.37497 0 0 1 0.21875,1.79687 l 33.12305,-5.50586 z m -484.0195,6.23047 -0.2129,1.78125 h 0.002 l 33.36329,3.98632 a 211.37497,211.37497 0 0 1 0.26953,-1.7871 z m 484.9297,0.002 -0.752,0.10547 -32.55075,4.54101 a 211.37497,211.37497 0 0 1 0.2168,1.79297 l 33.33595,-4.66211 -0.2481,-1.77734 z m -485.6797,6.25195 -0.16797,1.78711 h 0.002 l 33.25586,3.10742 a 211.37497,211.37497 0 0 1 0.26953,-1.78906 z m 486.4316,0.002 -33.40035,3.78515 a 211.37497,211.37497 0 0 1 0.21875,1.79297 l 33.3848,-3.79492 z m -487.02145,6.26953 -0.12109,1.78906 33.40234,2.25586 a 211.37497,211.37497 0 0 1 0.0898,-1.80469 z m 487.61135,0.002 -33.33595,2.91016 a 211.37497,211.37497 0 0 1 0.21875,1.79492 l 33.2734,-2.91797 z m -488.04104,6.28125 -0.0742,1.79297 33.51368,1.39648 a 211.37497,211.37497 0 0 1 0.0898,-1.80468 l -33.30274,-1.375 -0.22461,-0.01 z m 488.46874,0.002 -0.3281,0.0195 -32.97462,2.0254 a 211.37497,211.37497 0 0 1 0.0645,1.80664 l 33.34962,-2.06055 -0.1094,-1.79102 z m -488.73436,6.29297 -0.0273,1.79297 33.46094,0.5332 a 211.37497,211.37497 0 0 1 0.0898,-1.80468 z m 489.00196,0 -33.37891,1.18946 a 211.37497,211.37497 0 0 1 0.0644,1.80468 l 33.37891,-1.20117 z m -455.75001,5.95703 -33.35547,0.33985 0.0176,1.79492 33.2461,-0.32813 a 211.37497,211.37497 0 0 1 0.0918,-1.80664 z m 455.85351,0.33985 -33.28905,0.32812 a 211.37497,211.37497 0 0 1 0.0625,1.77257 211.37497,211.37497 0 0 1 -0.002,0.0332 l 33.24605,-0.33984 z M 567.72891,259 l -33.27929,1.19727 h -0.002 l 0.0644,1.79296 33.28125,-1.18554 A 211.37497,211.37497 0 0 1 567.72891,259 Z m 422.46095,0.66602 a 211.37497,211.37497 0 0 1 -0.0899,1.80468 l 33.41404,0.51953 0.029,-1.79296 h -0 z m -422.26759,4.77148 -33.2539,2.05469 0.11133,1.79101 33.20703,-2.03906 a 211.37497,211.37497 0 0 1 -0.0644,-1.80664 z m 421.9961,0.66211 a 211.37497,211.37497 0 0 1 -0.0918,1.80273 l 33.42183,1.38086 0.074,-1.79101 z m -421.80274,4.78125 -33.06445,2.89844 0.15625,1.78711 33.0332,-2.88477 a 211.37497,211.37497 0 0 1 -0.125,-1.80078 z m 421.5293,0.64844 a 211.37497,211.37497 0 0 1 -0.0898,1.80468 l 33.26367,2.23438 0.1211,-1.79102 z m -420.96484,4.76367 -33.08594,3.76172 0.20312,1.7832 33.09961,-3.75195 a 211.37497,211.37497 0 0 1 -0.21679,-1.79297 z m 420.69336,0.67383 a 211.37497,211.37497 0 0 1 -0.15625,1.80078 l 33.0117,3.07226 0.168,-1.78711 z m -420.03711,4.72851 -33.03516,4.61914 h -0.002 l 0.24805,1.77735 h 0.002 l 0.75195,-0.10547 32.25195,-4.5 a 211.37497,211.37497 0 0 1 -0.21679,-1.79102 z m 419.33594,0.67188 a 211.37497,211.37497 0 0 1 -0.26953,1.78711 l 33.07615,3.93945 0.2129,-1.78125 h -0 z m -418.67969,4.72851 -32.82618,5.45703 0.29297,1.76954 h 0.002 l 0.86914,-0.14454 31.87891,-5.28711 a 211.37497,211.37497 0 0 1 -0.2168,-1.79492 z m 417.86719,0.65235 a 211.37497,211.37497 0 0 1 -0.26953,1.78711 l 32.97655,4.79101 0.2578,-1.77539 z m -417.21094,4.76172 -32.45508,6.25781 h -0.002 l 0.33984,1.76172 32.4707,-6.24805 a 211.37497,211.37497 0 0 1 -0.35351,-1.77148 z m 416.39844,0.61914 a 211.37497,211.37497 0 0 1 -0.26953,1.78515 l 32.71675,5.61914 0.3047,-1.76953 h -0 z m -415.2461,4.70312 -32.42188,7.12109 0.38477,1.75391 32.43164,-7.11133 a 211.37497,211.37497 0 0 1 -0.39453,-1.76367 z m 414.43165,0.68359 a 211.37497,211.37497 0 0 1 -0.4004,1.76368 l 32.42967,6.43164 0.3496,-1.75977 v -0.002 l -5.1289,-1.01758 z m -413.24024,4.62891 -32.26758,7.96289 0.42969,1.74219 32.23437,-7.94336 a 211.37497,211.37497 0 0 1 -0.39648,-1.76172 z m 411.93945,0.66406 a 211.37497,211.37497 0 0 1 -0.44726,1.75 l 32.38672,7.29493 0.3965,-1.75 h -0 z m -410.74609,4.65039 -31.95899,8.76563 0.47461,1.73047 31.87891,-8.73242 a 211.37497,211.37497 0 0 1 -0.39453,-1.76368 z m 409.39648,0.625 a 211.37497,211.37497 0 0 1 -0.44531,1.74805 l 32.18748,8.12695 0.4395,-1.73828 v -0.002 l -5.0157,-1.26558 z m -408.17773,4.69336 -31.51758,9.52344 0.51953,1.7168 31.5664,-9.52735 a 211.37497,211.37497 0 0 1 -0.56835,-1.71289 z m 406.83203,0.58008 a 211.37497,211.37497 0 0 1 -0.44726,1.75196 l 31.83003,8.91406 0.4844,-1.72852 z m -405.11524,4.58985 -31.41797,10.38476 0.5625,1.70313 31.42578,-10.375 a 211.37497,211.37497 0 0 1 -0.57031,-1.71289 z m 403.74805,0.68945 a 211.37497,211.37497 0 0 1 -0.61914,1.69726 l 31.5098,9.70704 0.5273,-1.71485 z m -402.0293,4.47851 -31.16601,11.19922 0.60742,1.68946 31.12695,-11.17383 a 211.37497,211.37497 0 0 1 -0.56836,-1.71485 z m 400.16016,0.64454 a 211.37497,211.37497 0 0 1 -0.62109,1.69726 l 31.36519,10.55274 0.5723,-1.70118 z m -398.44141,4.52929 -30.75976,11.95508 0.64843,1.67188 v 0.002 l 30.68164,-11.91211 a 211.37497,211.37497 0 0 1 -0.57031,-1.7168 z m 396.57227,0.58789 a 211.37497,211.37497 0 0 1 -0.61914,1.69727 l 31.06448,11.34961 0.6172,-1.68555 z m -394.76563,4.56055 -30.29101,12.67969 0.69336,1.65625 30.33593,-12.6875 a 211.37497,211.37497 0 0 1 -0.73828,-1.64844 z m 392.89844,0.55859 a 211.37497,211.37497 0 0 1 -0.61914,1.69532 l 30.61327,12.08789 0.6602,-1.66797 h -0 z m -390.67187,4.41602 -30.08985,13.51758 h -0.002 l 0.73633,1.63672 30.09375,-13.50586 a 211.37497,211.37497 0 0 1 -0.73828,-1.64844 z m 388.7207,0.67578 a 211.37497,211.37497 0 0 1 -0.78515,1.62695 l 30.26175,12.85938 0.7011,-1.65039 z m -386.49414,4.29688 -29.74219,14.29296 0.77734,1.61915 29.70313,-14.25977 a 211.37497,211.37497 0 0 1 -0.73828,-1.65234 z m 384.1211,0.61328 a 211.37497,211.37497 0 0 1 -0.78516,1.62695 l 30.0156,13.67773 0,0.002 0.7442,-1.63281 v -0.002 l -4.38675,-2 z m -381.89259,4.36718 -29.24804,14.99415 0.81836,1.5957 29.16796,-14.93946 a 211.37497,211.37497 0 0 1 -0.73828,-1.65039 z m 379.52345,0.54102 a 211.37497,211.37497 0 0 1 -0.78711,1.62695 l 29.62304,14.42969 0.78711,-1.61133 v -0.002 l -4.32031,-2.10542 z m -377.14845,4.37109 -28.7539,15.68946 h -0.002 l 0.85937,1.57422 v 0.002 l 28.79497,-15.69732 a 211.37497,211.37497 0 0 1 -0.89844,-1.56836 z m 374.7754,0.53907 a 211.37497,211.37497 0 0 1 -0.78516,1.62695 l 29.08594,15.10742 0.82812,-1.5918 h -0.002 z m -372.06055,4.19336 -24.44922,14.16796 -4.00977,2.32032 v 0.002 l 0.90039,1.55078 v 0.002 l 28.45703,-16.47656 a 211.37497,211.37497 0 0 1 -0.89843,-1.5664 z m 369.55078,0.64843 a 211.37497,211.37497 0 0 1 -0.94531,1.54102 l 28.70313,15.86133 0.86914,-1.57032 z m -366.83985,4.07813 -26.51562,16.29297 -1.5,0.92187 -0.002,0.002 0.93945,1.52735 27.97657,-17.17578 a 211.37497,211.37497 0 0 1 -0.89844,-1.56836 z m 363.98634,0.57422 a 211.37497,211.37497 0 0 1 -0.94336,1.53906 l 28.36328,16.64062 0.9082,-1.54687 z m -361.26954,4.16211 -27.4414,17.84961 0.97851,1.5039 27.36328,-17.78515 a 211.37497,211.37497 0 0 1 -0.90039,-1.56836 z m 358.41993,0.48632 a 211.37497,211.37497 0 0 1 -0.94336,1.53907 l 27.88086,17.33789 0.94726,-1.52344 z m -355.50782,4.12891 -26.92383,18.51758 1.01563,1.47851 h 0.002 l 2.5332,-1.74218 24.42383,-16.78516 a 211.37497,211.37497 0 0 1 -1.05078,-1.46875 z m 352.65626,0.52344 a 211.37497,211.37497 0 0 1 -0.94336,1.53906 l 27.26367,17.94336 0.98828,-1.49805 h -0.002 z m -349.48243,3.91406 -26.5332,19.27344 1.05468,1.45117 v 0.002 l 26.5293,-19.25781 a 211.37497,211.37497 0 0 1 -1.05078,-1.46875 z m 346.44141,0.61523 a 211.37497,211.37497 0 0 1 -1.09375,1.43946 l 26.85352,18.68164 1.02539,-1.47266 z m -343.26758,3.82227 -26.00977,19.93555 1.08985,1.42383 v 0.002 l 25.9707,-19.89258 a 211.37497,211.37497 0 0 1 -1.05078,-1.46875 z m 339.96485,0.52539 a 211.37497,211.37497 0 0 1 -1.09375,1.4375 l 26.42187,19.4082 1.0625,-1.44531 z m -336.78712,3.91797 -25.36133,20.49609 1.12696,1.39454 v 0.002 L 613.05313,386.877 a 211.37497,211.37497 0 0 1 -1.05078,-1.4707 z m 333.48633,0.42383 a 211.37497,211.37497 0 0 1 -1.09375,1.4375 l 25.85938,20.04101 1.09961,-1.41797 z m -330.07031,3.83398 -24.82227,21.14063 1.16211,1.36719 24.85156,-21.1504 a 211.37497,211.37497 0 0 1 -1.1914,-1.35742 z m 326.76563,0.51172 a 211.37497,211.37497 0 0 1 -1.09375,1.43945 l 25.17382,20.56836 v -0.002 l 1.13477,-1.38867 z m -323.16407,3.58789 -24.3457,21.83985 1.19922,1.33593 24.33789,-21.81836 a 211.37497,211.37497 0 0 1 -1.19141,-1.35742 z m 319.63086,0.57227 a 211.37497,211.37497 0 0 1 -1.23242,1.32226 l 24.73047,21.29297 1.17188,-1.35937 z m -316.0293,3.52929 -23.74414,22.43165 h -0.002 l 1.23242,1.30468 23.70704,-22.3789 a 211.37497,211.37497 0 0 1 -1.19336,-1.35743 z m 312.30665,0.4668 a 211.37497,211.37497 0 0 1 -1.23047,1.32031 l 21.5,19.4961 2.71484,2.46484 h 0.002 l 1.20507,-1.32812 z m -308.69727,3.63867 -23.03321,22.91016 1.26563,1.27148 22.9668,-22.82812 a 211.37497,211.37497 0 0 1 -1.19922,-1.35352 z m 304.97656,0.35352 a 211.37497,211.37497 0 0 1 -1.23242,1.32226 l 23.58399,22.51954 v -0.002 l 1.24023,-1.29687 z m -301.10156,3.49219 -22.47071,23.5332 1.29688,1.24023 22.4961,-23.54101 a 211.37497,211.37497 0 0 1 -1.32227,-1.23242 z m 297.37891,0.5039 a 211.37497,211.37497 0 0 1 -1.23438,1.32227 l 22.83789,22.96094 1.27344,-1.26563 z m -293.38477,3.21875 -21.91406,24.16602 1.33007,1.20508 21.90626,-24.14063 a 211.37497,211.37497 0 0 1 -1.32227,-1.23047 z m 289.40039,0.51953 a 211.37497,211.37497 0 0 1 -1.35742,1.19336 l 22.36328,23.67188 1.30469,-1.23242 z m -285.40429,3.20313 -21.24806,24.67969 1.35938,1.16992 21.21094,-24.61914 a 211.37497,211.37497 0 0 1 -1.32226,-1.23047 z m 281.30078,0.40234 a 211.37497,211.37497 0 0 1 -1.35742,1.19141 l 21.77343,24.26953 1.33594,-1.19727 z m -277.29883,3.32422 -20.48047,25.06641 1.38867,1.13672 20.4668,-25.03125 a 211.37497,211.37497 0 0 1 -1.375,-1.17188 z m 273.19727,0.2793 a 211.37497,211.37497 0 0 1 -1.35743,1.1914 l 21.07617,24.7461 1.36524,-1.16406 z m -268.91016,3.10547 -19.89453,25.67187 1.41797,1.09961 19.91601,-25.67773 a 211.37497,211.37497 0 0 1 -1.43945,-1.09375 z m 264.80469,0.50195 a 211.37497,211.37497 0 0 1 -1.4043,1.13477 l 20.32422,25.14843 v 0.002 l 1.39648,-1.12891 z m -260.45508,2.80469 -17.39063,23.67383 -1.8789,2.55468 v 0.002 l 1.44726,1.0625 v -0.002 l 19.25977,-26.19726 a 211.37497,211.37497 0 0 1 -1.4375,-1.09375 z m 256.07031,0.46093 a 211.37497,211.37497 0 0 1 -1.46875,1.05079 l 19.77149,25.79492 1.42382,-1.0918 z m -251.7207,2.84571 -18.54492,26.65625 1.47265,1.02539 18.50977,-26.58789 a 211.37497,211.37497 0 0 1 -1.4375,-1.09375 z m 247.27734,0.33203 a 211.37497,211.37497 0 0 1 -1.46875,1.04883 l 19.11524,26.3164 1.45117,-1.05468 z m -242.92187,2.98047 -17.73438,26.94726 1.5,0.98633 17.76172,-26.96875 a 211.37497,211.37497 0 0 1 -1.52734,-0.96484 z m 238.48047,0.19531 a 211.37497,211.37497 0 0 1 -1.47071,1.05078 l 18.36524,26.70117 v 0.002 l 1.47851,-1.01758 z m -233.83399,2.68164 -17.12305,27.53711 1.52344,0.94922 h 0.002 l 2.41993,-3.89063 14.71875,-23.65039 a 211.37497,211.37497 0 0 1 -1.54102,-0.94531 z m 229.38477,0.5 a 211.37497,211.37497 0 0 1 -1.55078,0.92578 l 15.1875,23.34766 2.42187,3.72656 h 0.002 l 1.50391,-0.97656 v -0.002 l -1.58594,-2.4375 z m -224.72657,2.35547 -16.43554,28.01367 1.54883,0.9082 16.42578,-27.97656 a 211.37497,211.37497 0 0 1 -1.53907,-0.94531 z m 219.99805,0.39453 a 211.37497,211.37497 0 0 1 -1.56836,0.89844 l 16.98633,27.64453 1.5293,-0.93945 z m -215.33789,2.46289 -15.66602,28.34961 1.57032,0.86719 h 0.002 l 2.23438,-4.04297 13.40039,-24.22852 a 211.37497,211.37497 0 0 1 -1.54102,-0.94531 z m 210.59766,0.25586 a 211.37497,211.37497 0 0 1 -1.56641,0.89844 l 16.27148,28.07812 1.55274,-0.89843 z m -205.90625,2.56445 -14.84571,28.58008 1.5918,0.82813 14.88086,-28.62305 a 211.37497,211.37497 0 0 1 -1.62695,-0.78516 z m 201.16601,0.1543 a 211.37497,211.37497 0 0 1 -1.5664,0.89844 l 15.48046,28.37109 1.57422,-0.85937 z m -196.24414,2.22266 -14.18164,29.11328 1.61328,0.78516 14.19531,-29.11133 a 211.37497,211.37497 0 0 1 -1.62695,-0.78711 z m 191.48047,0.46289 a 211.37497,211.37497 0 0 1 -1.65039,0.73828 L 887.56681,474 l 1.59766,-0.81641 v -0.002 l -1.11133,-2.16797 z m -186.56055,1.91406 -13.4414,29.5 1.63281,0.74414 13.43555,-29.45703 a 211.37497,211.37497 0 0 1 -1.62696,-0.78711 z m 181.56446,0.32031 a 211.37497,211.37497 0 0 1 -1.64844,0.73828 l 14.0332,29.20118 1.61719,-0.77539 z m -176.64063,2.0586 -12.63672,29.73828 1.65235,0.70312 v -0.002 l 12.61328,-29.65234 a 211.37497,211.37497 0 0 1 -1.62891,-0.78711 z m 171.65234,0.17578 a 211.37497,211.37497 0 0 1 -1.64648,0.73633 l 13.27148,29.54492 1.63672,-0.73438 z m -166.67382,2.09375 -11.82032,29.9375 1.66993,0.66015 11.84961,-29.97851 a 211.37497,211.37497 0 0 1 -1.69922,-0.61914 z M 859.52579,451.25 a 211.37497,211.37497 0 0 1 -1.64843,0.73633 l 12.44921,29.73828 v 0.002 l 1.6543,-0.69336 z m -156.54687,1.73633 -11.10156,30.38281 1.68554,0.61524 11.11133,-30.37891 a 211.37497,211.37497 0 0 1 -1.69531,-0.61914 z m 151.50781,0.39062 a 211.37497,211.37497 0 0 1 -1.71484,0.57032 l 11.68164,30.05468 1.67187,-0.65039 z m -146.37305,1.48243 -9.76171,29.01367 -0.56055,1.66211 v 0.002 l 1.69922,0.57227 h 0.002 l 1.61524,-4.80274 8.70117,-25.82812 a 211.37497,211.37497 0 0 1 -1.69532,-0.61914 z m 141.17969,0.24218 a 211.37497,211.37497 0 0 1 -1.71289,0.57032 l 10.94336,30.45312 1.6875,-0.60547 z m -136.04297,1.63282 -9.49218,30.8164 1.71484,0.5293 9.47656,-30.72461 a 211.37497,211.37497 0 0 1 -1.69922,-0.62109 z m 130.85743,0.0918 a 211.37497,211.37497 0 0 1 -1.7129,0.56836 l 8.59571,26.00781 1.54883,4.69336 h 0.002 l 1.70312,-0.5625 z m -125.65235,1.59766 -8.28711,29.59179 -0.39062,1.39454 v 0.002 l 1.72656,0.48242 8.69922,-31.02344 a 211.37497,211.37497 0 0 1 -1.74805,-0.44726 z m 120.46289,0.12695 a 211.37497,211.37497 0 0 1 -1.71484,0.56836 l 9.30469,30.79297 1.71875,-0.51758 z m -115.16601,1.22656 -7.91211,31.33789 1.74023,0.43946 7.92188,-31.33008 a 211.37497,211.37497 0 0 1 -1.75,-0.44727 z m 109.91992,0.31446 a 211.37497,211.37497 0 0 1 -1.76563,0.39648 l 8.52539,31.08399 1.73047,-0.47461 h 0.002 z m -104.62305,1.03906 -7.10351,31.5332 1.75195,0.39453 7.10351,-31.48047 a 211.37497,211.37497 0 0 1 -1.75195,-0.44726 z m 99.2832,0.1582 a 211.37497,211.37497 0 0 1 -1.76171,0.39649 l 7.74609,31.39062 1.74219,-0.42969 z m -93.98046,1.19532 -6.26172,31.57031 1.75976,0.34961 v -0.002 l 6.25391,-31.4707 a 211.37497,211.37497 0 0 1 -1.75195,-0.44726 z m 88.64453,0.004 a 211.37497,211.37497 0 0 1 -1.76172,0.39453 l 6.92773,31.53711 v 0.002 l 1.75196,-0.38477 z m -83.28321,1.08399 -5.44531,31.71289 1.76758,0.30468 5.46289,-31.74815 a 211.37497,211.37497 0 0 1 -1.78516,-0.26953 z m 77.94727,0.11328 a 211.37497,211.37497 0 0 1 -1.76172,0.39453 l 6.07813,31.52734 1.76171,-0.33984 z m -72.53906,0.70312 -4.64649,31.96875 1.77539,0.25977 v -0.002 l 4.65625,-31.95703 a 211.37497,211.37497 0 0 1 -1.78515,-0.26953 z m 67.15039,0.23242 a 211.37497,211.37497 0 0 1 -1.79492,0.21875 l 5.28515,31.79297 v 0.002 l 1.76953,-0.29493 z m -61.7461,0.58399 -3.81836,32.06445 1.78125,0.21289 3.82422,-32.00781 a 211.37497,211.37497 0 0 1 -1.78711,-0.26953 z m 56.31446,0.0762 a 211.37497,211.37497 0 0 1 -1.79492,0.2168 l 4.47656,32.00195 1.77734,-0.24805 z m -5.42578,0.6582 a 211.37497,211.37497 0 0 1 -1.79493,0.2168 l 3.64453,32.04883 1.78321,-0.20117 v -0.002 l -0.0684,-0.60351 z m -45.47461,0.084 -2.97852,31.99804 1.78516,0.16602 2.98047,-31.89453 a 211.37497,211.37497 0 0 1 -1.78711,-0.26953 z m 5.44726,0.4707 -2.15625,32.11719 1.79102,0.12109 v -0.002 l 2.16992,-32.14649 a 211.37497,211.37497 0 0 1 -1.80469,-0.0898 z m 34.59571,0.10547 a 211.37497,211.37497 0 0 1 -1.79493,0.2168 l 2.80078,31.93359 1.78711,-0.15625 v -0.002 l -0.041,-0.4668 z m -29.13282,0.16797 -1.33398,32.27148 1.79297,0.0742 1.34375,-32.25586 a 211.37497,211.37497 0 0 1 -1.80274,-0.0898 z m 23.67383,0.19922 a 211.37497,211.37497 0 0 1 -1.80469,0.0645 l 1.98242,32.09961 1.79102,-0.10938 z m -18.21289,0.0742 -0.50195,32.26367 1.79492,0.0293 0.51172,-32.20312 a 211.37497,211.37497 0 0 1 -1.80469,-0.0898 z m 12.74414,0.11914 a 211.37497,211.37497 0 0 1 -1.80469,0.0644 l 1.15625,32.12695 1.79297,-0.0645 z m -7.27539,0.15429 0.32813,32.09571 1.79296,-0.0176 v -0.002 -0.0547 l -0.31445,-31.98242 a 211.37497,211.37497 0 0 1 -0.58789,0.0214 211.37497,211.37497 0 0 1 -1.21875,-0.0605 z"
       id="path878"
       inkscape:connector-curvature="0" />
  </g>
  <g
     inkscape:groupmode="layer"
     id="layer8"
     inkscape:label="Riflessi"
     sodipodi:insensitive="true">
    <path
       style="opacity:0.2;fill:#2d2d2d;fill-opacity:1;stroke:none;stroke-width:0.66966903;stroke-linecap:round;stroke-linejoin:bevel;stroke-miterlimit:4;stroke-dasharray:none;stroke-opacity:0.93650794;paint-order:stroke fill markers"
       d="M 52.84766,247.16689 A 209.3215,209.3215 0 0 0 50.54883,276.35244 209.3215,209.3215 0 0 0 259.87109,485.67471 209.3215,209.3215 0 0 0 469.19336,276.35244 209.3215,209.3215 0 0 0 467.11914,248.79189 1135.8752,1135.8752 0 0 1 264.32031,267.68252 1135.8752,1135.8752 0 0 1 52.84766,247.16689 Z"
       id="path5586"
       inkscape:connector-curvature="0" />
    <g
       transform="translate(0,-539.02979)"
       id="g5440">
      <path
         clip-path="none"
         mask="none"
         d="m 381.15137,952.1029 c 0,2.01917 -56.03125,43.37799 -125.14616,43.37799 -69.12567,0 -125.15564,-41.35882 -125.15564,-43.37799 0,-2.00972 56.02997,36.04178 125.15564,36.04178 69.11491,0 125.14616,-38.0515 125.14616,-36.04178"
         style="opacity:0.597;fill:url(#linearGradient4449);fill-opacity:1;fill-rule:nonzero;stroke:none;stroke-width:0.31648916"
         id="path352"
         inkscape:connector-curvature="0" />
      <path
         clip-path="none"
         mask="none"
         d="m 130.84611,630.16377 c 0,-2.02555 56.03819,-43.378 125.1626,-43.378 69.10825,0 125.14582,41.35245 125.14582,43.378 0,2.02238 -56.03757,-36.04178 -125.14582,-36.04178 -69.12441,0 -125.1626,38.06416 -125.1626,36.04178"
         style="fill:url(#linearGradient4441);fill-opacity:1;fill-rule:nonzero;stroke:none;stroke-width:0.31648916"
         id="path374"
         inkscape:connector-curvature="0" />
      <path
         style="opacity:0.87599996;fill:url(#linearGradient4690);fill-opacity:1;fill-rule:nonzero;stroke:none;stroke-width:0.35541555"
         mask="none"
         clip-path="none"
         d="m 171.5337,630.2416 c -45.04644,34.0488 -67.90946,62.47668 -67.90946,62.47668 18.07609,9.74546 20.58389,11.8561 33.05826,22.6714 0,0 21.04723,-27.33384 55.51719,-49.83518 -8.13972,-11.70028 -15.36284,-19.66396 -20.66599,-35.3129 z m 23.09061,37.67806 c -21.8442,14.39432 -44.96837,36.97294 -55.7268,49.58309 5.43005,2.88242 7.49765,7.36734 7.49765,7.36734 12.89767,-15.87995 34.87715,-35.60227 55.04699,-49.81534 0.12618,-0.11373 -3.42327,-2.55025 -6.81784,-7.13509 z m -93.21791,27.97952 c 0,0 -21.1664,25.58655 -29.98211,45.75637 14.09152,4.02329 27.08136,12.68531 34.8767,20.33742 3.81109,-16.73654 27.85772,-43.66597 27.85772,-43.66597 -12.00487,-11.02144 -16.56843,-14.5447 -32.75231,-22.42782 z m 35.71228,23.89223 c -7.90374,8.96712 -22.29316,26.82988 -28.92275,44.05686 4.54435,3.01037 6.80284,6.26238 7.04729,5.99925 9.10467,-18.45316 16.33913,-29.86158 29.14653,-42.94084 0,0 -2.14809,-4.24706 -7.27107,-7.11527 z"
         id="path392"
         inkscape:connector-curvature="0" />
      <path
         inkscape:connector-curvature="0"
         style="opacity:0.2;fill:#ffffff;fill-opacity:1;stroke:none;stroke-width:3.03038526;stroke-linecap:round;stroke-linejoin:bevel;stroke-miterlimit:4;stroke-dasharray:none;stroke-opacity:0.93650794;paint-order:stroke fill markers"
         d="M 257.65234,606.12832 A 211.83795,211.83795 0 0 0 48.476553,786.2123 1135.8752,1135.8752 0 0 0 262.09375,807.03457 1135.8752,1135.8752 0 0 0 467.11914,787.82168 211.83795,211.83795 0 0 0 257.65234,606.12832 Z"
         id="path5588" />
    </g>
    <path
       inkscape:connector-curvature="0"
       id="path886"
       d="m -490.45202,247.16689 a 209.3215,209.3215 0 0 0 -2.29883,29.18555 209.3215,209.3215 0 0 0 209.32226,209.32227 209.3215,209.3215 0 0 0 209.322271,-209.32227 209.3215,209.3215 0 0 0 -2.07422,-27.56055 1135.8752,1135.8752 0 0 1 -202.798831,18.89063 1135.8752,1135.8752 0 0 1 -211.47265,-20.51563 z"
       style="opacity:0.2;fill:#009100;fill-opacity:1;stroke:none;stroke-width:0.66966903;stroke-linecap:round;stroke-linejoin:bevel;stroke-miterlimit:4;stroke-dasharray:none;stroke-opacity:0.93650794;paint-order:stroke fill markers" />
    <g
       id="g896"
       transform="translate(-543.29968,-539.02979)"
       style="fill:#ccff42">
      <path
         id="path894"
         d="M 257.65234,606.12832 A 211.83795,211.83795 0 0 0 48.476553,786.2123 1135.8752,1135.8752 0 0 0 262.09375,807.03457 1135.8752,1135.8752 0 0 0 467.11914,787.82168 211.83795,211.83795 0 0 0 257.65234,606.12832 Z"
         style="opacity:0.2;fill:#ccff42;fill-opacity:1;stroke:none;stroke-width:3.03038526;stroke-linecap:round;stroke-linejoin:bevel;stroke-miterlimit:4;stroke-dasharray:none;stroke-opacity:0.93650794;paint-order:stroke fill markers"
         inkscape:connector-curvature="0" />
    </g>
  </g>
</svg>
