<?xml version="1.0" encoding="UTF-8" standalone="no"?>
<!-- Created with Inkscape (http://www.inkscape.org/) -->

<svg
   xmlns:dc="http://purl.org/dc/elements/1.1/"
   xmlns:cc="http://creativecommons.org/ns#"
   xmlns:rdf="http://www.w3.org/1999/02/22-rdf-syntax-ns#"
   xmlns:svg="http://www.w3.org/2000/svg"
   xmlns="http://www.w3.org/2000/svg"
   xmlns:xlink="http://www.w3.org/1999/xlink"
   xmlns:sodipodi="http://sodipodi.sourceforge.net/DTD/sodipodi-0.dtd"
   xmlns:inkscape="http://www.inkscape.org/namespaces/inkscape"
   width="512"
   height="256"
   viewBox="0 0 135.46666 67.733335"
   version="1.1"
   id="svg8"
   inkscape:version="0.92.4 5da689c313, 2019-01-14"
   sodipodi:docname="sfera.svg">
  <title
     id="title962">Sfera</title>
  <defs
     id="defs2">
    <linearGradient
       inkscape:collect="always"
       id="linearGradient2424">
      <stop
         style="stop-color:#1e1e1e;stop-opacity:1"
         offset="0"
         id="stop2420" />
      <stop
         style="stop-color:#1e1e1e;stop-opacity:0.32217574"
         offset="1"
         id="stop2422" />
    </linearGradient>
    <linearGradient
       id="linearGradient2312"
       inkscape:collect="always">
      <stop
         id="stop2308"
         offset="0"
         style="stop-color:#0c0c0c;stop-opacity:1" />
      <stop
         id="stop2310"
         offset="1"
         style="stop-color:#020202;stop-opacity:0" />
    </linearGradient>
    <linearGradient
       inkscape:collect="always"
       id="linearGradient2290">
      <stop
         style="stop-color:#fdfdfd;stop-opacity:1;"
         offset="0"
         id="stop2286" />
      <stop
         style="stop-color:#fdfdfd;stop-opacity:0;"
         offset="1"
         id="stop2288" />
    </linearGradient>
    <linearGradient
       inkscape:collect="always"
       id="linearGradient2100">
      <stop
         style="stop-color:#ffffff;stop-opacity:1;"
         offset="0"
         id="stop2096" />
      <stop
         style="stop-color:#ffffff;stop-opacity:0;"
         offset="1"
         id="stop2098" />
    </linearGradient>
    <linearGradient
       id="linearGradient1784"
       inkscape:collect="always">
      <stop
         id="stop1778"
         offset="0"
         style="stop-color:#f10000;stop-opacity:1" />
      <stop
         id="stop1782"
         offset="1"
         style="stop-color:#ff8d00;stop-opacity:1" />
    </linearGradient>
    <linearGradient
       inkscape:collect="always"
       id="linearGradient1678">
      <stop
         style="stop-color:#f10000;stop-opacity:1"
         offset="0"
         id="stop1674" />
      <stop
         id="stop1680"
         offset="0.52624321"
         style="stop-color:#ff740e;stop-opacity:1" />
      <stop
         style="stop-color:#fff400;stop-opacity:1"
         offset="1"
         id="stop1676" />
    </linearGradient>
    <linearGradient
       inkscape:collect="always"
       id="linearGradient1644">
      <stop
         style="stop-color:#ffffff;stop-opacity:1;"
         offset="0"
         id="stop1640" />
      <stop
         style="stop-color:#ffffff;stop-opacity:0;"
         offset="1"
         id="stop1642" />
    </linearGradient>
    <linearGradient
       inkscape:collect="always"
       id="linearGradient821">
      <stop
         style="stop-color:#e5f4fb;stop-opacity:1;"
         offset="0"
         id="stop817" />
      <stop
         id="stop825"
         offset="0.2277419"
         style="stop-color:#95d2ef;stop-opacity:1" />
      <stop
         style="stop-color:#135a7c;stop-opacity:1"
         offset="1"
         id="stop819" />
    </linearGradient>
    <radialGradient
       inkscape:collect="always"
       xlink:href="#linearGradient821"
       id="radialGradient823"
       cx="65.280594"
       cy="151.81863"
       fx="65.280594"
       fy="151.81863"
       r="44.837902"
       gradientUnits="userSpaceOnUse"
       gradientTransform="matrix(0.08610848,1.4164979,-2.8222013,0.1715606,489.42645,28.820786)" />
    <linearGradient
       id="linearGradient4588"
       inkscape:collect="always">
      <stop
         id="stop4584"
         offset="0"
         style="stop-color:#ff0000;stop-opacity:1" />
      <stop
         id="stop4586"
         offset="1"
         style="stop-color:#ffff00;stop-opacity:1" />
    </linearGradient>
    <linearGradient
       gradientTransform="rotate(180,396.85059,658.23438)"
       gradientUnits="userSpaceOnUse"
       y2="765.41034"
       x2="180.14001"
       y1="507.64355"
       x1="575.36914"
       id="linearGradient4598"
       xlink:href="#linearGradient4588"
       inkscape:collect="always" />
    <linearGradient
       gradientTransform="matrix(0.26076568,0,0,0.26076568,-53.417244,74.604192)"
       gradientUnits="userSpaceOnUse"
       y2="566.56238"
       x2="679.37201"
       y1="640.83337"
       x1="478.78534"
       id="linearGradient4618"
       xlink:href="#linearGradient4588"
       inkscape:collect="always" />
    <radialGradient
       gradientUnits="userSpaceOnUse"
       gradientTransform="matrix(2.1321152e-7,0.48943412,-0.25431273,1.1125492e-7,171.27447,66.252179)"
       r="101.02672"
       fy="661.2016"
       fx="367.76529"
       cy="661.2016"
       cx="367.76529"
       id="radialGradient4634"
       xlink:href="#linearGradient4588"
       inkscape:collect="always" />
    <linearGradient
       gradientUnits="userSpaceOnUse"
       y2="219.91534"
       x2="119.02526"
       y1="219.91534"
       x1="74.213806"
       id="linearGradient845"
       xlink:href="#linearGradient4588"
       inkscape:collect="always" />
    <radialGradient
       inkscape:collect="always"
       xlink:href="#linearGradient1644"
       id="radialGradient1646"
       cx="92.485809"
       cy="172.26022"
       fx="92.485809"
       fy="172.26022"
       r="44.837902"
       gradientUnits="userSpaceOnUse" />
    <radialGradient
       inkscape:collect="always"
       xlink:href="#linearGradient1644"
       id="radialGradient1648"
       gradientUnits="userSpaceOnUse"
       cx="77.409988"
       cy="167.50127"
       fx="77.409988"
       fy="167.50127"
       r="44.837902"
       gradientTransform="matrix(0.51807916,0.86161584,-0.8570056,0.51530708,181.48711,11.352794)" />
    <linearGradient
       inkscape:collect="always"
       xlink:href="#linearGradient1678"
       id="linearGradient1712"
       x1="47.968643"
       y1="286.52237"
       x2="133.72899"
       y2="342.50754"
       gradientUnits="userSpaceOnUse" />
    <radialGradient
       inkscape:collect="always"
       xlink:href="#linearGradient1678"
       id="radialGradient1720"
       cx="93.304306"
       cy="286.52237"
       fx="93.304306"
       fy="286.52237"
       r="39.763222"
       gradientTransform="matrix(0.98624752,0,0,1.1126857,99.951184,-146.1745)"
       gradientUnits="userSpaceOnUse" />
    <linearGradient
       inkscape:collect="always"
       xlink:href="#linearGradient4588"
       id="linearGradient1738"
       x1="83.661774"
       y1="286.52237"
       x2="104.58385"
       y2="286.52237"
       gradientUnits="userSpaceOnUse"
       gradientTransform="matrix(0.98624752,0,0,0.98675378,99.143937,-110.09218)" />
    <linearGradient
       inkscape:collect="always"
       xlink:href="#linearGradient4588"
       id="linearGradient1740"
       x1="122.29482"
       y1="294.05255"
       x2="64.641197"
       y2="293.72513"
       gradientUnits="userSpaceOnUse"
       gradientTransform="matrix(0.98624752,0,0,0.98675378,99.628287,-110.09218)" />
    <radialGradient
       inkscape:collect="always"
       xlink:href="#linearGradient1678"
       id="radialGradient1748"
       cx="93.468002"
       cy="286.52237"
       fx="93.468002"
       fy="286.52237"
       r="45.499359"
       gradientUnits="userSpaceOnUse"
       gradientTransform="matrix(0.88486956,1.2304606,-1.0738392,0.77223729,318.43995,-49.749586)" />
    <radialGradient
       inkscape:collect="always"
       xlink:href="#linearGradient1644"
       id="radialGradient1764"
       cx="71.970329"
       cy="273.96274"
       fx="71.970329"
       fy="273.96274"
       r="45.499359"
       gradientUnits="userSpaceOnUse"
       gradientTransform="matrix(0.49550975,1.3201953,-0.98026827,0.36792468,300.1711,69.756293)" />
    <linearGradient
       inkscape:collect="always"
       xlink:href="#linearGradient1678"
       id="linearGradient1772"
       gradientUnits="userSpaceOnUse"
       x1="89.548279"
       y1="363.46106"
       x2="100.98911"
       y2="342.83493"
       gradientTransform="translate(-0.98219317)" />
    <linearGradient
       inkscape:collect="always"
       xlink:href="#linearGradient1784"
       id="linearGradient1776"
       x1="89.548279"
       y1="363.46106"
       x2="66.612251"
       y2="260.65787"
       gradientUnits="userSpaceOnUse"
       gradientTransform="translate(-0.98219317)" />
    <linearGradient
       inkscape:collect="always"
       xlink:href="#linearGradient1784"
       id="linearGradient1840"
       gradientUnits="userSpaceOnUse"
       gradientTransform="matrix(0.98624752,0,0,0.98675378,99.78974,-110.09218)"
       x1="89.548279"
       y1="363.46106"
       x2="66.612251"
       y2="260.65787" />
    <linearGradient
       inkscape:collect="always"
       xlink:href="#linearGradient1678"
       id="linearGradient1842"
       gradientUnits="userSpaceOnUse"
       gradientTransform="matrix(0.98624752,0,0,0.98675378,99.78974,-110.09218)"
       x1="89.548279"
       y1="363.46106"
       x2="100.98911"
       y2="342.83493" />
    <radialGradient
       inkscape:collect="always"
       xlink:href="#linearGradient1644"
       id="radialGradient1844"
       gradientUnits="userSpaceOnUse"
       cx="92.485809"
       cy="172.26022"
       fx="92.485809"
       fy="172.26022"
       r="44.837902" />
    <linearGradient
       inkscape:collect="always"
       xlink:href="#linearGradient1784"
       id="linearGradient2082"
       gradientUnits="userSpaceOnUse"
       gradientTransform="matrix(0.98624752,0,0,0.98675378,99.78974,-110.09218)"
       x1="89.548279"
       y1="363.46106"
       x2="66.612251"
       y2="260.65787" />
    <linearGradient
       inkscape:collect="always"
       xlink:href="#linearGradient1678"
       id="linearGradient2084"
       gradientUnits="userSpaceOnUse"
       gradientTransform="matrix(0.98624752,0,0,0.98675378,99.78974,-110.09218)"
       x1="89.548279"
       y1="363.46106"
       x2="100.98911"
       y2="342.83493" />
    <radialGradient
       inkscape:collect="always"
       xlink:href="#linearGradient1644"
       id="radialGradient2086"
       gradientUnits="userSpaceOnUse"
       cx="92.485809"
       cy="172.26022"
       fx="92.485809"
       fy="172.26022"
       r="44.837902" />
    <radialGradient
       inkscape:collect="always"
       xlink:href="#linearGradient2100"
       id="radialGradient2102"
       cx="191.01286"
       cy="140.25587"
       fx="191.01286"
       fy="140.25587"
       r="44.221272"
       gradientTransform="matrix(-2.0734305e-4,0.96271854,-1.5999543,-3.4458422e-4,416.08754,-10.761844)"
       gradientUnits="userSpaceOnUse" />
    <linearGradient
       inkscape:collect="always"
       xlink:href="#linearGradient1784"
       id="linearGradient2276"
       gradientUnits="userSpaceOnUse"
       gradientTransform="matrix(0.98624752,0,0,0.98675378,99.78974,-110.09218)"
       x1="89.548279"
       y1="363.46106"
       x2="66.612251"
       y2="260.65787" />
    <linearGradient
       inkscape:collect="always"
       xlink:href="#linearGradient1678"
       id="linearGradient2278"
       gradientUnits="userSpaceOnUse"
       gradientTransform="matrix(0.98624752,0,0,0.98675378,99.78974,-110.09218)"
       x1="89.548279"
       y1="363.46106"
       x2="100.98911"
       y2="342.83493" />
    <radialGradient
       inkscape:collect="always"
       xlink:href="#linearGradient2290"
       id="radialGradient2292"
       cx="388.52936"
       cy="39.006828"
       fx="388.52936"
       fy="39.006828"
       r="106.92871"
       gradientTransform="matrix(0.99994995,-0.01000513,0.00508272,0.50798591,-0.24405247,29.389369)"
       gradientUnits="userSpaceOnUse" />
    <radialGradient
       inkscape:collect="always"
       xlink:href="#linearGradient2312"
       id="radialGradient2306"
       gradientUnits="userSpaceOnUse"
       gradientTransform="matrix(-0.36083911,-8.0539884e-4,-5.5551581e-4,0.24887923,332.35559,178.08671)"
       cx="392.01816"
       cy="143.75473"
       fx="392.01816"
       fy="143.75473"
       r="106.92871" />
    <linearGradient
       inkscape:collect="always"
       xlink:href="#linearGradient1784"
       id="linearGradient2276-3"
       gradientUnits="userSpaceOnUse"
       gradientTransform="matrix(0.98624752,0,0,0.98675375,99.997995,-110.61323)"
       x1="89.548279"
       y1="363.46106"
       x2="66.612251"
       y2="260.65787" />
    <linearGradient
       inkscape:collect="always"
       xlink:href="#linearGradient2424"
       id="linearGradient2428"
       x1="148.1464"
       y1="172.11379"
       x2="236.21479"
       y2="172.11379"
       gradientUnits="userSpaceOnUse" />
    <radialGradient
       fx="0"
       fy="0"
       cx="0"
       cy="0"
       r="1"
       gradientUnits="userSpaceOnUse"
       gradientTransform="matrix(60.042817,0,0,60.042811,87.522096,155.07541)"
       spreadMethod="pad"
       id="radialGradient5632">
      <stop
         style="stop-opacity:1;stop-color:#f9f9f8"
         offset="0"
         id="stop5620" />
      <stop
         style="stop-opacity:1;stop-color:#f6f6f5"
         offset="0.10112"
         id="stop5622" />
      <stop
         style="stop-opacity:1;stop-color:#d7d7d4"
         offset="0.449432"
         id="stop5624" />
      <stop
         style="stop-opacity:1;stop-color:#c6c6c2"
         offset="0.59137669"
         id="stop5626" />
      <stop
         style="stop-opacity:1;stop-color:#726d54"
         offset="0.91011"
         id="stop5628" />
      <stop
         style="stop-opacity:1;stop-color:#5c5c4f"
         offset="1"
         id="stop5630" />
    </radialGradient>
    <filter
       inkscape:menu-tooltip="Glowing metal texture"
       inkscape:menu="Bevels"
       inkscape:label="Glowing Metal"
       style="color-interpolation-filters:sRGB;"
       id="filter960">
      <feGaussianBlur
         stdDeviation="3"
         result="result10"
         id="feGaussianBlur942" />
      <feBlend
         in2="SourceGraphic"
         result="result5"
         mode="multiply"
         in="result10"
         id="feBlend944" />
      <feComposite
         in2="SourceGraphic"
         in="result5"
         result="fbSourceGraphic"
         operator="over"
         id="feComposite946" />
      <feGaussianBlur
         result="result9"
         stdDeviation="5"
         id="feGaussianBlur948" />
      <feSpecularLighting
         in="result9"
         result="result1"
         lighting-color="rgb(255,255,255)"
         surfaceScale="1"
         specularConstant="2.2"
         specularExponent="45"
         id="feSpecularLighting952">
        <fePointLight
           x="-5000"
           y="-10000"
           z="20000"
           id="fePointLight950" />
      </feSpecularLighting>
      <feComposite
         in2="fbSourceGraphic"
         in="result1"
         result="result2"
         operator="in"
         id="feComposite954" />
      <feComposite
         in="result2"
         result="result4"
         operator="arithmetic"
         k2="2"
         k3="0.8"
         in2="fbSourceGraphic"
         id="feComposite956" />
      <feBlend
         in="result4"
         in2="result4"
         mode="multiply"
         id="feBlend958" />
    </filter>
  </defs>
  <sodipodi:namedview
     id="base"
     pagecolor="#ffffff"
     bordercolor="#666666"
     borderopacity="1.0"
     inkscape:pageopacity="0.0"
     inkscape:pageshadow="2"
     inkscape:zoom="2.7011719"
     inkscape:cx="256"
     inkscape:cy="128"
     inkscape:document-units="mm"
     inkscape:current-layer="g1622"
     showgrid="false"
     units="px"
     inkscape:window-width="1919"
     inkscape:window-height="1026"
     inkscape:window-x="1"
     inkscape:window-y="28"
     inkscape:window-maximized="1"
     inkscape:snap-global="true"
     showguides="false"
     inkscape:guide-bbox="true">
    <sodipodi:guide
       position="149.20045,106.02274"
       orientation="0,1"
       id="guide1850"
       inkscape:locked="false" />
  </sodipodi:namedview>
  <metadata
     id="metadata5">
    <rdf:RDF>
      <cc:Work
         rdf:about="">
        <dc:format>image/svg+xml</dc:format>
        <dc:type
           rdf:resource="http://purl.org/dc/dcmitype/StillImage" />
        <dc:title>Sfera</dc:title>
        <dc:date>Giugno 2012</dc:date>
        <dc:creator>
          <cc:Agent>
            <dc:title>Cristian Pozzessere  </dc:title>
          </cc:Agent>
        </dc:creator>
        <dc:description>Studio di una sfera</dc:description>
        <cc:license
           rdf:resource="http://creativecommons.org/licenses/by-nc-sa/4.0/" />
        <dc:subject>
          <rdf:Bag>
            <rdf:li>==  ilnanny  ==</rdf:li>
          </rdf:Bag>
        </dc:subject>
      </cc:Work>
      <cc:License
         rdf:about="http://creativecommons.org/licenses/by-nc-sa/4.0/">
        <cc:permits
           rdf:resource="http://creativecommons.org/ns#Reproduction" />
        <cc:permits
           rdf:resource="http://creativecommons.org/ns#Distribution" />
        <cc:requires
           rdf:resource="http://creativecommons.org/ns#Notice" />
        <cc:requires
           rdf:resource="http://creativecommons.org/ns#Attribution" />
        <cc:prohibits
           rdf:resource="http://creativecommons.org/ns#CommercialUse" />
        <cc:permits
           rdf:resource="http://creativecommons.org/ns#DerivativeWorks" />
        <cc:requires
           rdf:resource="http://creativecommons.org/ns#ShareAlike" />
      </cc:License>
    </rdf:RDF>
  </metadata>
  <g
     inkscape:label="Livello 1"
     inkscape:groupmode="layer"
     id="layer1"
     transform="translate(0,-229.26665)">
    <g
       transform="matrix(0.69047705,0,0,0.69047705,-29.992662,143.19177)"
       id="g1622"
       style="fill:url(#radialGradient1646);fill-opacity:1;stroke:none">
      <rect
         style="opacity:1;fill:#f4f4f6;fill-opacity:1;stroke:none;stroke-width:2.79728103;stroke-miterlimit:9;stroke-dasharray:none;stroke-opacity:0.13656389"
         id="rect964"
         width="196.19286"
         height="97.458069"
         x="43.437595"
         y="124.97919" />
      <path
         cx="93.468002"
         cy="286.52237"
         r="44.837902"
         style="opacity:1;fill:url(#radialGradient1748);fill-opacity:1;stroke:url(#linearGradient1712);stroke-width:1.32291663;stroke-linecap:round;stroke-linejoin:bevel;stroke-miterlimit:4;stroke-dasharray:none;stroke-opacity:0.15929206;paint-order:fill markers stroke"
         id="path1750"
         d=""
         inkscape:connector-curvature="0" />
      <g
         id="g1807"
         style="fill:url(#radialGradient1844)"
         transform="translate(100.11252,-114.49039)" />
      <g
         id="g2031"
         style="fill:url(#radialGradient2086)"
         transform="translate(0.20825904,-0.52105204)">
        <ellipse
           ry="44.243965"
           rx="44.221272"
           id="circle1662"
           style="opacity:1;fill:url(#linearGradient2276);fill-opacity:1;stroke:url(#linearGradient2278);stroke-width:1.30505812;stroke-linecap:round;stroke-linejoin:bevel;stroke-miterlimit:4;stroke-dasharray:none;stroke-opacity:0.15929206;paint-order:fill markers stroke"
           cy="172.63484"
           cx="191.97234" />
        <ellipse
           ry="44.243965"
           rx="39.216377"
           cy="172.63484"
           cx="191.97234"
           id="ellipse1686"
           style="opacity:0.55800003;fill:url(#radialGradient1720);fill-opacity:1;stroke:none;stroke-width:1.22898901;stroke-linecap:round;stroke-linejoin:bevel;stroke-miterlimit:4;stroke-dasharray:none;stroke-opacity:0.44725737;paint-order:fill markers stroke" />
        <ellipse
           style="opacity:0.25500039;fill:url(#linearGradient1740);fill-opacity:1;stroke:none;stroke-width:1.05472839;stroke-linecap:round;stroke-linejoin:bevel;stroke-miterlimit:4;stroke-dasharray:none;stroke-opacity:0.44725737;paint-order:fill markers stroke"
           id="circle1682"
           cx="191.97234"
           cy="172.63484"
           rx="28.883703"
           ry="44.243965" />
        <ellipse
           ry="44.243965"
           rx="10.317172"
           cy="172.63484"
           cx="191.97234"
           id="ellipse1688"
           style="opacity:0.556;fill:url(#linearGradient1738);fill-opacity:1;stroke:none;stroke-width:0.63036859;stroke-linecap:round;stroke-linejoin:bevel;stroke-miterlimit:4;stroke-dasharray:none;stroke-opacity:0.44725737;paint-order:fill markers stroke" />
      </g>
      <g
         id="g2003"
         style="opacity:1;fill:#ffffff;fill-opacity:0.5;stroke:none;stroke-opacity:0.09734515"
         transform="translate(0.10685486,-106.24333)">
        <g
           id="g2106"
           style="fill:#ffffff;fill-opacity:0.5">
          <path
             inkscape:connector-curvature="0"
             id="ellipse1985"
             d="m 192.13452,234.23979 c -24.18593,0 -43.80862,19.7511 -43.80862,44.11811 0,0.20826 0.005,0.41554 0.007,0.62312 -0.0156,0.1079 -0.0295,0.21605 -0.0427,0.32436 -0.0933,0.30436 -0.15605,0.61302 -0.18785,0.92498 -0.0884,0.14364 -0.14595,0.30069 -0.14595,0.47025 0,0.16977 0.0581,0.32819 0.14669,0.47258 0.021,0.20498 0.0533,0.40897 0.10104,0.6107 0.023,0.44236 0.0671,0.88094 0.13023,1.31685 0.27143,4.45568 1.49741,8.69727 3.50483,12.58966 6.69009,15.74906 22.21657,26.78406 40.2948,26.78406 18.07822,0 33.60451,-11.035 40.29404,-26.78406 2.00726,-3.89239 3.23269,-8.13398 3.50409,-12.58966 0.0632,-0.43591 0.10725,-0.87449 0.13023,-1.31685 0.0842,-0.35594 0.12873,-0.7174 0.12873,-1.08328 -1e-5,-0.47354 -0.0748,-0.93853 -0.2148,-1.39523 -0.0131,-0.10831 -0.0271,-0.21646 -0.0427,-0.32436 0.003,-0.20758 0.007,-0.41486 0.007,-0.62312 0,-24.36701 -19.62121,-44.11811 -43.80712,-44.11811 z m 0,0.59518 c 22.44488,0 40.88131,17.21013 43.02203,39.23093 -3.97762,-16.83731 -21.75081,-29.49614 -43.02203,-29.49614 -21.27252,0 -39.04697,12.6604 -43.02353,29.49925 2.13951,-22.02228 20.5776,-39.23404 43.02353,-39.23404 z m 0,10.33153 c 21.38052,0 39.09373,12.90059 42.63509,29.81274 -1.97431,-4.46668 -6.07523,-8.43671 -11.62517,-11.55604 -7.95513,-4.47116 -18.91088,-7.22369 -31.00992,-7.22368 -12.09906,0 -23.05631,2.75252 -31.01143,7.22368 -5.54966,3.11919 -9.65074,7.08884 -11.62517,11.55526 3.54206,-16.91179 21.25638,-29.81196 42.6366,-29.81196 z m 0,11.6282 c 12.01485,0 22.88931,2.74009 30.73675,7.15075 6.42462,3.61094 10.79779,8.32267 12.17301,13.54954 -0.59599,-0.81464 -1.41043,-1.59337 -2.41364,-2.33029 -2.25522,-1.65659 -5.48476,-3.1277 -9.46449,-4.36416 -7.95948,-2.47295 -18.92137,-3.99557 -31.03163,-3.99557 -12.11027,0 -23.07366,1.52262 -31.03313,3.99557 -3.97974,1.23646 -7.20926,2.70757 -9.46449,4.36416 -1.00285,0.73666 -1.81696,1.51519 -2.4129,2.32952 1.37549,-5.22653 5.74801,-9.93803 12.17226,-13.54877 7.84745,-4.41066 18.7234,-7.15075 30.73826,-7.15075 z m 0,10.60544 c 12.06371,0 22.98527,1.5225 30.86773,3.97152 3.94123,1.22451 7.12221,2.68375 9.29684,4.28114 1.57207,1.15478 2.60235,2.36723 3.05429,3.60913 2.3e-4,0.004 5.2e-4,0.007 7.5e-4,0.0109 -0.003,0.15286 -0.008,0.30538 -0.0127,0.45783 -0.1194,-0.0829 -0.25138,-0.16281 -0.39965,-0.24055 -0.61762,-0.32384 -1.49163,-0.61962 -2.60973,-0.90325 -2.2362,-0.56725 -5.44587,-1.07313 -9.40986,-1.49844 -7.92798,-0.85062 -18.86627,-1.37505 -30.9493,-1.37505 -12.08303,0 -23.02131,0.52443 -30.94931,1.37505 -3.96399,0.42531 -7.1744,0.93119 -9.4106,1.49844 -1.1181,0.28363 -1.99137,0.57941 -2.60898,0.90325 -0.0316,0.0166 -0.055,0.0344 -0.0853,0.0512 -0.002,-0.0891 -0.003,-0.17855 -0.005,-0.26772 2.5e-4,-0.004 5e-4,-0.007 7.5e-4,-0.0116 0.45191,-1.24194 1.48216,-2.45431 3.05429,-3.60913 2.17463,-1.59739 5.35562,-3.05662 9.29684,-4.28113 7.88247,-2.44902 18.8055,-3.97152 30.86923,-3.97152 z m -0.16166,8.90838 c 12.06695,0 22.99197,0.52529 30.89018,1.37271 3.94911,0.42371 7.14277,0.92913 9.33202,1.48447 1.09463,0.27767 1.93964,0.56971 2.48699,0.85669 0.27368,0.14351 0.47192,0.28684 0.58751,0.40895 0.022,0.0232 0.0274,0.0392 0.0434,0.0597 -0.007,0.15273 -0.0166,0.30474 -0.0254,0.45706 -0.008,0.009 -0.009,0.0146 -0.018,0.0241 -0.11559,0.12211 -0.31383,0.26544 -0.58751,0.40894 -0.54735,0.28699 -1.39236,0.57902 -2.48699,0.85669 -2.18925,0.55534 -5.38291,1.06077 -9.33202,1.48447 -7.89821,0.84743 -18.82323,1.37273 -30.89018,1.37273 -12.06696,0 -22.99272,-0.5253 -30.89093,-1.37273 -3.9491,-0.4237 -7.14276,-0.92913 -9.33202,-1.48447 -1.09462,-0.27767 -1.93888,-0.5697 -2.48624,-0.85669 -0.10291,-0.0539 -0.18443,-0.10703 -0.26569,-0.15985 -0.0216,-0.33456 -0.0399,-0.66988 -0.0539,-1.00646 0.0923,-0.0629 0.19576,-0.12752 0.31957,-0.19245 0.54736,-0.28698 1.39162,-0.57903 2.48624,-0.85669 2.18926,-0.55534 5.38292,-1.06076 9.33202,-1.48447 7.89821,-0.84742 18.82397,-1.37272 30.89093,-1.37272 z m 43.26377,5.42804 c -0.022,0.28889 -0.0487,0.5764 -0.0763,0.86367 -0.52153,1.08206 -1.48367,2.13942 -2.8612,3.15129 -2.17463,1.59739 -5.35561,3.05664 -9.29684,4.28115 -7.88246,2.44902 -18.80402,3.97074 -30.86773,3.97074 -12.06373,0 -22.98676,-1.52172 -30.86923,-3.97074 -3.94122,-1.22451 -7.12222,-2.68376 -9.29684,-4.28115 -1.37755,-1.01188 -2.33968,-2.06922 -2.8612,-3.15129 -0.0212,-0.2212 -0.0404,-0.44287 -0.0584,-0.66502 0.61503,0.31552 1.47054,0.6049 2.56407,0.8823 2.2362,0.56726 5.44661,1.07312 9.4106,1.49843 7.928,0.85061 18.86628,1.37506 30.94931,1.37506 12.08303,0 23.02132,-0.52445 30.9493,-1.37506 3.96399,-0.42531 7.17366,-0.93117 9.40986,-1.49843 1.1181,-0.28363 1.99211,-0.57942 2.60973,-0.90326 0.10943,-0.0573 0.20115,-0.11773 0.29488,-0.17769 z m -85.97969,2.217 c 0.5928,0.7977 1.39595,1.56092 2.37996,2.28373 2.25523,1.6566 5.48475,3.13002 9.46449,4.3665 7.95947,2.47294 18.92286,3.99557 31.03313,3.99557 12.11026,0 23.07215,-1.52263 31.03163,-3.99557 3.97973,-1.23648 7.20927,-2.7099 9.46449,-4.3665 0.98401,-0.72281 1.78716,-1.48603 2.37996,-2.28373 -0.0624,0.48988 -0.13482,0.97654 -0.21329,1.46119 -1.60326,4.89233 -5.84577,9.29485 -11.92604,12.71226 -7.84744,4.41065 -18.7219,7.1523 -30.73675,7.15229 -12.01486,1e-5 -22.89081,-2.74164 -30.73826,-7.15229 -6.0792,-3.41681 -10.32064,-7.81864 -11.92453,-12.70993 -0.0786,-0.48546 -0.15225,-0.97281 -0.21479,-1.46352 z m 0.73943,4.17328 c 2.12235,4.04637 6.00805,7.6478 11.12672,10.52474 7.95512,4.47117 18.91237,7.22291 31.01143,7.22291 12.09904,0 23.05479,-2.75174 31.00992,-7.22291 5.11837,-2.87677 9.0043,-6.4779 11.12673,-10.52398 -0.5722,2.51228 -1.36068,4.94088 -2.34405,7.26638 -6.61243,12.8349 -21.92115,21.84721 -39.7926,21.84721 -17.87442,0 -33.1859,-9.01513 -39.7971,-21.85342 -0.98229,-2.3238 -1.76931,-4.7507 -2.34105,-7.26093 z m 5.14687,12.77123 c 7.79454,10.19423 21.46128,16.94063 36.99128,16.94063 15.53,0 29.19657,-6.7464 36.99053,-16.94063 -7.57679,12.57738 -21.3052,20.98121 -36.99053,20.98121 -15.68535,0 -29.41391,-8.40383 -36.99128,-20.98121 z"
             style="color:#000000;font-style:normal;font-variant:normal;font-weight:normal;font-stretch:normal;font-size:medium;line-height:normal;font-family:sans-serif;font-variant-ligatures:normal;font-variant-position:normal;font-variant-caps:normal;font-variant-numeric:normal;font-variant-alternates:normal;font-feature-settings:normal;text-indent:0;text-align:start;text-decoration:none;text-decoration-line:none;text-decoration-style:solid;text-decoration-color:#000000;letter-spacing:normal;word-spacing:normal;text-transform:none;writing-mode:lr-tb;direction:ltr;text-orientation:mixed;dominant-baseline:auto;baseline-shift:baseline;text-anchor:start;white-space:normal;shape-padding:0;clip-rule:nonzero;display:inline;overflow:visible;visibility:visible;opacity:0.5;isolation:auto;mix-blend-mode:normal;color-interpolation:sRGB;color-interpolation-filters:linearRGB;solid-color:#000000;solid-opacity:1;vector-effect:none;fill:#ffffff;fill-opacity:0.5;fill-rule:nonzero;stroke:none;stroke-width:0.58527654;stroke-linecap:round;stroke-linejoin:bevel;stroke-miterlimit:4;stroke-dasharray:none;stroke-dashoffset:0;stroke-opacity:0.09734515;paint-order:markers stroke fill;color-rendering:auto;image-rendering:auto;shape-rendering:auto;text-rendering:auto;enable-background:accumulate" />
          <path
             style="color:#000000;font-style:normal;font-variant:normal;font-weight:normal;font-stretch:normal;font-size:medium;line-height:normal;font-family:sans-serif;font-variant-ligatures:normal;font-variant-position:normal;font-variant-caps:normal;font-variant-numeric:normal;font-variant-alternates:normal;font-feature-settings:normal;text-indent:0;text-align:start;text-decoration:none;text-decoration-line:none;text-decoration-style:solid;text-decoration-color:#000000;letter-spacing:normal;word-spacing:normal;text-transform:none;writing-mode:lr-tb;direction:ltr;text-orientation:mixed;dominant-baseline:auto;baseline-shift:baseline;text-anchor:start;white-space:normal;shape-padding:0;clip-rule:nonzero;display:inline;overflow:visible;visibility:visible;opacity:0.5;isolation:auto;mix-blend-mode:normal;color-interpolation:sRGB;color-interpolation-filters:linearRGB;solid-color:#000000;solid-opacity:1;vector-effect:none;fill:#ffffff;fill-opacity:0.5;fill-rule:nonzero;stroke:none;stroke-width:0.58527654;stroke-linecap:round;stroke-linejoin:bevel;stroke-miterlimit:4;stroke-dasharray:none;stroke-dashoffset:0;stroke-opacity:0.09734515;paint-order:markers stroke fill;color-rendering:auto;image-rendering:auto;shape-rendering:auto;text-rendering:auto;enable-background:accumulate"
             d="m 236.19108,278.41791 c 0,-24.18594 -19.7511,-43.80863 -44.11811,-43.80863 -0.20826,0 -0.41554,0.005 -0.62312,0.007 -0.1079,-0.0156 -0.21605,-0.0295 -0.32436,-0.0427 -0.30436,-0.0933 -0.61302,-0.15605 -0.92498,-0.18785 -0.14364,-0.0884 -0.30069,-0.14595 -0.47025,-0.14595 -0.16977,0 -0.32819,0.0581 -0.47258,0.14669 -0.20498,0.021 -0.40897,0.0533 -0.6107,0.10104 -0.44236,0.023 -0.88094,0.0671 -1.31685,0.13024 -4.45568,0.27143 -8.69727,1.49741 -12.58966,3.50482 -15.74906,6.69009 -26.78406,22.21658 -26.78406,40.29481 0,18.07822 11.035,33.60451 26.78406,40.29404 3.89239,2.00726 8.13398,3.23269 12.58966,3.50408 0.43591,0.0632 0.87449,0.10726 1.31685,0.13024 0.35594,0.0842 0.7174,0.12872 1.08328,0.12872 0.47354,0 0.93853,-0.0748 1.39523,-0.21479 0.10831,-0.0131 0.21646,-0.0271 0.32436,-0.0427 0.20758,0.003 0.41486,0.007 0.62312,0.007 24.36701,0 44.11811,-19.62121 44.11811,-43.80712 z m -0.59518,0 c 0,22.44488 -17.21013,40.8813 -39.23093,43.02202 16.83731,-3.97762 29.49614,-21.75081 29.49614,-43.02202 0,-21.27253 -12.6604,-39.04698 -29.49925,-43.02354 22.02228,2.13951 39.23404,20.5776 39.23404,43.02354 z m -10.33153,0 c 0,21.38051 -12.90059,39.09372 -29.81274,42.63508 4.46668,-1.97431 8.43671,-6.07523 11.55604,-11.62517 4.47116,-7.95513 7.22368,-18.91088 7.22368,-31.00991 0,-12.09907 -2.75252,-23.05632 -7.22368,-31.01144 -3.11919,-5.54966 -7.08884,-9.65074 -11.55526,-11.62517 16.91179,3.54206 29.81196,21.25638 29.81196,42.63661 z m -11.6282,0 c 0,12.01484 -2.74009,22.8893 -7.15075,30.73674 -3.61094,6.42462 -8.32267,10.79779 -13.54954,12.17302 0.81464,-0.596 1.59337,-1.41044 2.33029,-2.41364 1.65659,-2.25522 3.1277,-5.48477 4.36416,-9.4645 2.47295,-7.95948 3.99557,-18.92137 3.99557,-31.03162 0,-12.11028 -1.52262,-23.07367 -3.99557,-31.03314 -1.23646,-3.97974 -2.70757,-7.20926 -4.36416,-9.46449 -0.73666,-1.00285 -1.51519,-1.81696 -2.32952,-2.4129 5.22653,1.37549 9.93803,5.74801 13.54877,12.17226 4.41066,7.84745 7.15075,18.7234 7.15075,30.73827 z m -10.60544,0 c 0,12.06371 -1.5225,22.98527 -3.97152,30.86772 -1.22451,3.94123 -2.68375,7.12221 -4.28114,9.29684 -1.15478,1.57207 -2.36723,2.60235 -3.60913,3.05429 -0.004,2.3e-4 -0.007,5.3e-4 -0.0109,7.5e-4 -0.15286,-0.003 -0.30538,-0.008 -0.45783,-0.0127 0.0829,-0.1194 0.16281,-0.25138 0.24055,-0.39965 0.32384,-0.61761 0.61962,-1.49162 0.90325,-2.60973 0.56725,-2.2362 1.07313,-5.44587 1.49844,-9.40986 0.85062,-7.92797 1.37505,-18.86627 1.37505,-30.9493 0,-12.08303 -0.52443,-23.02131 -1.37505,-30.94931 -0.42531,-3.96399 -0.93119,-7.1744 -1.49844,-9.4106 -0.28363,-1.1181 -0.57941,-1.99137 -0.90325,-2.60898 -0.0166,-0.0316 -0.0344,-0.055 -0.0512,-0.0853 0.0891,-0.002 0.17855,-0.003 0.26772,-0.005 0.004,2.5e-4 0.007,5e-4 0.0116,7.5e-4 1.24194,0.45191 2.45431,1.48216 3.60913,3.05429 1.59739,2.17464 3.05662,5.35562 4.28113,9.29684 2.44902,7.88248 3.97152,18.8055 3.97152,30.86924 z m -8.90838,-0.16167 c 0,12.06695 -0.52529,22.99197 -1.37271,30.89019 -0.42371,3.9491 -0.92913,7.14276 -1.48447,9.33201 -0.27767,1.09464 -0.56971,1.93965 -0.85669,2.48699 -0.14351,0.27368 -0.28684,0.47193 -0.40895,0.58752 -0.0232,0.022 -0.0392,0.0274 -0.0597,0.0434 -0.15273,-0.007 -0.30474,-0.0166 -0.45706,-0.0254 -0.009,-0.008 -0.0146,-0.009 -0.0241,-0.018 -0.12211,-0.11559 -0.26544,-0.31384 -0.40894,-0.58752 -0.28699,-0.54734 -0.57902,-1.39235 -0.85669,-2.48699 -0.55534,-2.18925 -1.06077,-5.38291 -1.48447,-9.33201 -0.84743,-7.89822 -1.37273,-18.82324 -1.37273,-30.89019 0,-12.06696 0.5253,-22.99272 1.37273,-30.89093 0.4237,-3.9491 0.92913,-7.14276 1.48447,-9.33202 0.27767,-1.09462 0.5697,-1.93888 0.85669,-2.48624 0.0539,-0.10291 0.10703,-0.18443 0.15985,-0.26569 0.33456,-0.0216 0.66988,-0.0399 1.00646,-0.0539 0.0629,0.0923 0.12752,0.19576 0.19245,0.31957 0.28698,0.54736 0.57903,1.39162 0.85669,2.48624 0.55534,2.18926 1.06076,5.38292 1.48447,9.33202 0.84742,7.89821 1.37272,18.82397 1.37272,30.89093 z m -5.42804,43.26377 c -0.28889,-0.022 -0.5764,-0.0487 -0.86367,-0.0763 -1.08206,-0.52153 -2.13942,-1.48367 -3.1513,-2.8612 -1.59739,-2.17463 -3.05664,-5.35561 -4.28115,-9.29684 -2.44902,-7.88246 -3.97074,-18.80402 -3.97074,-30.86773 0,-12.06373 1.52173,-22.98676 3.97074,-30.86923 1.22451,-3.94122 2.68376,-7.12222 4.28115,-9.29684 1.01189,-1.37755 2.06922,-2.33968 3.1513,-2.8612 0.2212,-0.0212 0.44287,-0.0404 0.66502,-0.0584 -0.31552,0.61503 -0.6049,1.47054 -0.8823,2.56407 -0.56726,2.2362 -1.07312,5.44661 -1.49843,9.4106 -0.85061,7.928 -1.37506,18.86628 -1.37506,30.94931 0,12.08303 0.52445,23.02132 1.37506,30.9493 0.42531,3.96399 0.93117,7.17366 1.49843,9.40986 0.28363,1.1181 0.57942,1.99211 0.90326,2.60973 0.0573,0.10943 0.11773,0.20115 0.17769,0.29488 z m -2.217,-85.97969 c -0.7977,0.5928 -1.56092,1.39595 -2.28373,2.37996 -1.6566,2.25523 -3.13002,5.48475 -4.3665,9.46449 -2.47294,7.95947 -3.99557,18.92286 -3.99557,31.03314 0,12.11025 1.52263,23.07214 3.99557,31.03162 1.23648,3.97973 2.7099,7.20928 4.3665,9.4645 0.72281,0.98401 1.48603,1.78715 2.28373,2.37996 -0.48988,-0.0624 -0.97654,-0.13482 -1.46119,-0.2133 -4.89233,-1.60325 -9.29485,-5.84576 -12.71226,-11.92603 -4.41065,-7.84744 -7.1523,-18.7219 -7.15229,-30.73675 -1e-5,-12.01486 2.74164,-22.89082 7.15229,-30.73827 3.41681,-6.0792 7.81864,-10.32064 12.70993,-11.92453 0.48546,-0.0786 0.97281,-0.15225 1.46352,-0.21479 z m -4.17328,0.73943 c -4.04637,2.12235 -7.6478,6.00805 -10.52474,11.12672 -4.47117,7.95512 -7.22291,18.91237 -7.22291,31.01143 0,12.09904 2.75174,23.05479 7.22291,31.00992 2.87677,5.11837 6.4779,9.0043 10.52398,11.12673 -2.51228,-0.5722 -4.94088,-1.36068 -7.26638,-2.34405 -12.8349,-6.61243 -21.84721,-21.92115 -21.84721,-39.7926 0,-17.87442 9.01513,-33.1859 21.85341,-39.7971 2.3238,-0.98229 4.7507,-1.76931 7.26094,-2.34105 z m -12.77123,5.14687 c -10.19423,7.79454 -16.94063,21.46128 -16.94063,36.99129 0,15.52999 6.7464,29.19656 16.94063,36.99052 -12.57738,-7.57679 -20.98121,-21.30519 -20.98121,-36.99052 0,-15.68536 8.40383,-29.41392 20.98121,-36.99129 z"
             id="path2024"
             inkscape:connector-curvature="0" />
        </g>
      </g>
      <path
         style="opacity:1;fill:url(#radialGradient2292);fill-opacity:1;stroke:none;stroke-width:3.40578032;stroke-linecap:round;stroke-linejoin:bevel;stroke-miterlimit:4;stroke-dasharray:none;stroke-opacity:0.15929206;paint-order:fill markers stroke"
         d="M 388.40625 8.6621094 A 143.73562 43.177169 0 0 0 378.81445 8.8105469 A 115.40324 115.46246 0 0 0 281.26367 80.554688 A 143.73562 43.177169 0 0 0 388.40625 95.015625 A 143.73562 43.177169 0 0 0 495.12109 80.634766 A 115.40324 115.46246 0 0 0 395.80078 8.7578125 A 143.73562 43.177169 0 0 0 388.40625 8.6621094 z "
         id="ellipse2224"
         transform="matrix(0.38318918,0,0,0.38318918,43.437594,124.66002)" />
      <path
         id="path2302"
         d="m 192.27067,215.81342 a 55.077934,16.545024 0 0 1 -3.67548,-0.0569 44.221273,44.243965 0 0 1 -37.3804,-27.49158 55.077934,16.545024 0 0 1 41.05588,-5.54128 55.077934,16.545024 0 0 1 40.89197,5.51059 44.221273,44.243965 0 0 1 -38.05847,27.54247 55.077934,16.545024 0 0 1 -2.8335,0.0367 z"
         style="opacity:0.182;fill:url(#radialGradient2306);fill-opacity:1;stroke:none;stroke-width:1.30505812;stroke-linecap:round;stroke-linejoin:bevel;stroke-miterlimit:4;stroke-dasharray:none;stroke-opacity:0.15929206;paint-order:fill markers stroke"
         inkscape:connector-curvature="0" />
      <g
         aria-label="CP"
         style="font-style:normal;font-variant:normal;font-weight:normal;font-stretch:normal;font-size:15.3275671px;line-height:1.25;font-family:'URW Gothic L';-inkscape-font-specification:'URW Gothic L';letter-spacing:0px;word-spacing:0px;fill:none;fill-opacity:1;stroke:#020202;stroke-width:1.14956748;stroke-miterlimit:4;stroke-dasharray:none;stroke-opacity:1"
         id="text2316"
         transform="matrix(1.1226996,0,0,1.0406758,-24.742795,-5.6561353)" />
      <path
         d="m 51.166046,172.31783 c 0,24.68723 20.01228,44.69899 44.69581,44.69899 v 0 c 24.683514,0 44.697384,-20.01176 44.697384,-44.69899 v 0 c 0,-24.68564 -20.01387,-44.69579 -44.697384,-44.69579 v 0 c -24.68353,0 -44.69581,20.01015 -44.69581,44.69579"
         style="fill:url(#radialGradient5632);stroke:none;stroke-width:0.5315485"
         id="path5634"
         inkscape:connector-curvature="0" />
      <g
         aria-label="@2012 ilnanny"
         style="font-style:normal;font-weight:normal;font-size:15.3275671px;line-height:1.25;font-family:sans-serif;letter-spacing:0px;word-spacing:0px;fill:#3273ad;fill-opacity:1;stroke:none;stroke-width:0.38318917;filter:url(#filter960)"
         id="text895"
         transform="matrix(0.36439186,0,0,0.36439186,83.441705,129.20589)">
        <path
           d="m 130.71412,245.3801 q 0,1.39205 -0.43408,2.52216 -0.4266,1.12262 -1.19747,1.73633 -0.76338,0.6137 -1.71387,0.6137 -0.74093,0 -1.14508,-0.32931 -0.40414,-0.3293 -0.40414,-0.98791 l 0.0225,-0.52389 h -0.0449 q -0.49395,0.92055 -1.2274,1.38457 -0.72596,0.45654 -1.57167,0.45654 -1.17502,0 -1.82614,-0.76339 -0.64364,-0.76338 -0.64364,-2.11802 0,-1.2274 0.47899,-2.28267 0.48647,-1.05526 1.35463,-1.67645 0.86817,-0.62118 1.92343,-0.62118 1.63903,0 2.25274,1.36211 h 0.0449 l 0.29188,-1.19746 h 1.16753 l -0.86816,3.78698 q -0.27691,1.22741 -0.27691,1.8935 0,0.70351 0.60621,0.70351 0.59874,0 1.10018,-0.51641 0.50892,-0.51641 0.8008,-1.42199 0.29188,-0.90558 0.29188,-2.00576 0,-1.33966 -0.57628,-2.37248 -0.57628,-1.04029 -1.66148,-1.59412 -1.08521,-0.56131 -2.53713,-0.56131 -1.81117,0 -3.20323,0.8008 -1.39205,0.80081 -2.18537,2.31261 -0.79332,1.50431 -0.79332,3.37536 0,1.44444 0.58376,2.5521 0.59125,1.10017 1.69891,1.69142 1.11514,0.59125 2.597,0.59125 1.08521,0 2.20035,-0.2844 1.11514,-0.27692 2.3126,-0.92804 l 0.41163,0.83823 q -1.0852,0.65112 -2.35751,0.98791 -1.26482,0.34427 -2.56707,0.34427 -1.80368,0 -3.15831,-0.71848 -1.34715,-0.711 -2.06563,-2.02821 -0.711,-1.3247 -0.711,-3.04605 0,-2.09557 0.92804,-3.80944 0.93552,-1.71388 2.58952,-2.66437 1.654,-0.95797 3.70466,-0.95797 1.80368,0 3.11341,0.68106 1.30973,0.67357 1.99827,1.90846 0.69603,1.23489 0.69603,2.86644 z m -4.5354,0.0599 q 0,-0.76339 -0.49396,-1.2274 -0.49395,-0.47151 -1.31721,-0.47151 -0.7559,0 -1.34715,0.47899 -0.58377,0.4715 -0.92055,1.31721 -0.33679,0.83823 -0.33679,1.81866 0,0.89809 0.35176,1.40702 0.35924,0.50892 1.10017,0.50892 0.93552,0 1.71387,-0.78584 0.77835,-0.78583 1.07772,-1.96085 0.17214,-0.68854 0.17214,-1.0852 z"
           style="fill:#3273ad;fill-opacity:1;stroke-width:0.38318917"
           id="path897"
           inkscape:connector-curvature="0" />
        <path
           d="m 132.81717,251.03064 v -0.95049 q 0.38169,-0.87565 0.92804,-1.54174 0.55382,-0.67357 1.16004,-1.21243 0.60622,-0.54635 1.19747,-1.01036 0.59873,-0.46402 1.07772,-0.92804 0.47898,-0.46402 0.77087,-0.97294 0.29936,-0.50892 0.29936,-1.15256 0,-0.86817 -0.50892,-1.34715 -0.50892,-0.47899 -1.41451,-0.47899 -0.86068,0 -1.42199,0.4715 -0.55383,0.46402 -0.65112,1.30973 l -1.37709,-0.12723 q 0.14969,-1.26482 1.07024,-2.01324 0.92803,-0.74841 2.37996,-0.74841 1.59413,0 2.44732,0.7559 0.86068,0.74841 0.86068,2.13298 0,0.6137 -0.2844,1.21992 -0.27691,0.60622 -0.83074,1.21244 -0.55383,0.60621 -2.11802,1.87852 -0.86067,0.70351 -1.3696,1.27231 -0.50892,0.56131 -0.73345,1.0852 h 5.50086 v 1.14508 z"
           style="fill:#3273ad;fill-opacity:1;stroke-width:0.38318917"
           id="path899"
           inkscape:connector-curvature="0" />
        <path
           d="m 148.50398,245.7543 q 0,2.64191 -0.93552,4.03397 -0.92804,1.39205 -2.74669,1.39205 -1.81865,0 -2.73172,-1.38457 -0.91307,-1.38457 -0.91307,-4.04145 0,-2.71675 0.88313,-4.07138 0.89062,-1.35463 2.80656,-1.35463 1.86356,0 2.74669,1.3696 0.89062,1.3696 0.89062,4.05641 z m -1.36961,0 q 0,-2.28267 -0.53137,-3.308 -0.52389,-1.02533 -1.73633,-1.02533 -1.24237,0 -1.78871,1.01037 -0.53886,1.01036 -0.53886,3.32296 0,2.24525 0.54634,3.28555 0.55383,1.0403 1.7513,1.0403 1.18998,0 1.74381,-1.06275 0.55382,-1.06275 0.55382,-3.2631 z"
           style="fill:#3273ad;fill-opacity:1;stroke-width:0.38318917"
           id="path901"
           inkscape:connector-curvature="0" />
        <path
           d="m 150.27772,251.03064 v -1.14508 h 2.68682 v -8.11283 l -2.37997,1.6989 v -1.2723 l 2.49223,-1.71388 h 1.24237 v 9.40011 h 2.56707 v 1.14508 z"
           style="fill:#3273ad;fill-opacity:1;stroke-width:0.38318917"
           id="path903"
           inkscape:connector-curvature="0" />
        <path
           d="m 158.41301,251.03064 v -0.95049 q 0.38169,-0.87565 0.92803,-1.54174 0.55383,-0.67357 1.16005,-1.21243 0.60622,-0.54635 1.19747,-1.01036 0.59873,-0.46402 1.07772,-0.92804 0.47898,-0.46402 0.77086,-0.97294 0.29937,-0.50892 0.29937,-1.15256 0,-0.86817 -0.50892,-1.34715 -0.50893,-0.47899 -1.41451,-0.47899 -0.86068,0 -1.42199,0.4715 -0.55383,0.46402 -0.65112,1.30973 l -1.37709,-0.12723 q 0.14968,-1.26482 1.07024,-2.01324 0.92803,-0.74841 2.37996,-0.74841 1.59413,0 2.44732,0.7559 0.86068,0.74841 0.86068,2.13298 0,0.6137 -0.2844,1.21992 -0.27691,0.60622 -0.83074,1.21244 -0.55383,0.60621 -2.11802,1.87852 -0.86068,0.70351 -1.3696,1.27231 -0.50892,0.56131 -0.73345,1.0852 h 5.50086 v 1.14508 z"
           style="fill:#3273ad;fill-opacity:1;stroke-width:0.38318917"
           id="path905"
           inkscape:connector-curvature="0" />
        <path
           d="m 171.45042,241.21142 v -1.28728 h 1.34715 v 1.28728 z m 0,9.81922 v -8.09787 h 1.34715 v 8.09787 z"
           style="fill:#3273ad;fill-opacity:1;stroke-width:0.38318917"
           id="path907"
           inkscape:connector-curvature="0" />
        <path
           d="m 174.87068,251.03064 v -11.1065 h 1.34715 v 11.1065 z"
           style="fill:#3273ad;fill-opacity:1;stroke-width:0.38318917"
           id="path909"
           inkscape:connector-curvature="0" />
        <path
           d="m 183.42508,251.03064 v -5.13414 q 0,-0.8008 -0.15716,-1.24237 -0.15717,-0.44156 -0.50144,-0.63615 -0.34427,-0.19459 -1.01037,-0.19459 -0.97294,0 -1.53425,0.66609 -0.56131,0.66609 -0.56131,1.84859 v 4.69257 h -1.34715 v -6.36902 q 0,-1.41451 -0.0449,-1.72885 h 1.27231 q 0.007,0.0374 0.015,0.20208 0.007,0.16465 0.015,0.38169 0.015,0.20956 0.0299,0.8008 h 0.0224 q 0.46402,-0.83822 1.07023,-1.18249 0.61371,-0.35176 1.51929,-0.35176 1.33218,0 1.94588,0.66609 0.62119,0.65861 0.62119,2.18538 v 5.39608 z"
           style="fill:#3273ad;fill-opacity:1;stroke-width:0.38318917"
           id="path911"
           inkscape:connector-curvature="0" />
        <path
           d="m 188.88104,251.18032 q -1.21992,0 -1.83362,-0.64364 -0.6137,-0.64363 -0.6137,-1.76626 0,-1.25734 0.82325,-1.93091 0.83075,-0.67358 2.67185,-0.71848 l 1.81865,-0.0299 v -0.44156 q 0,-0.98791 -0.41911,-1.41451 -0.41912,-0.4266 -1.31721,-0.4266 -0.90559,0 -1.31722,0.30685 -0.41163,0.30685 -0.49395,0.98043 l -1.40703,-0.12723 q 0.34428,-2.18538 3.24813,-2.18538 1.52677,0 2.29764,0.70351 0.77087,0.69603 0.77087,2.02073 v 3.48762 q 0,0.59873 0.15717,0.90558 0.15716,0.29937 0.59873,0.29937 0.19459,0 0.44157,-0.0524 v 0.83822 q -0.50893,0.11975 -1.0403,0.11975 -0.74842,0 -1.09269,-0.38918 -0.33679,-0.39666 -0.38169,-1.23488 h -0.0449 q -0.51641,0.92803 -1.20495,1.31721 -0.68106,0.38169 -1.66148,0.38169 z m 0.30685,-1.01036 q 0.74093,0 1.31721,-0.33679 0.57628,-0.33678 0.90558,-0.92055 0.33679,-0.59125 0.33679,-1.21243 v -0.66609 l -1.47438,0.0299 q -0.95049,0.015 -1.44444,0.19459 -0.48647,0.17962 -0.74842,0.55383 -0.26194,0.37421 -0.26194,0.98042 0,0.65861 0.35175,1.01785 0.35924,0.35924 1.01785,0.35924 z"
           style="fill:#3273ad;fill-opacity:1;stroke-width:0.38318917"
           id="path913"
           inkscape:connector-curvature="0" />
        <path
           d="m 200.48897,251.03064 v -5.13414 q 0,-0.8008 -0.15717,-1.24237 -0.15716,-0.44156 -0.50143,-0.63615 -0.34428,-0.19459 -1.01037,-0.19459 -0.97294,0 -1.53425,0.66609 -0.56131,0.66609 -0.56131,1.84859 v 4.69257 h -1.34715 v -6.36902 q 0,-1.41451 -0.0449,-1.72885 h 1.27231 q 0.007,0.0374 0.015,0.20208 0.007,0.16465 0.015,0.38169 0.015,0.20956 0.0299,0.8008 h 0.0225 q 0.46402,-0.83822 1.07023,-1.18249 0.6137,-0.35176 1.51929,-0.35176 1.33218,0 1.94588,0.66609 0.62119,0.65861 0.62119,2.18538 v 5.39608 z"
           style="fill:#3273ad;fill-opacity:1;stroke-width:0.38318917"
           id="path915"
           inkscape:connector-curvature="0" />
        <path
           d="m 209.02092,251.03064 v -5.13414 q 0,-0.8008 -0.15716,-1.24237 -0.15717,-0.44156 -0.50144,-0.63615 -0.34427,-0.19459 -1.01036,-0.19459 -0.97295,0 -1.53426,0.66609 -0.56131,0.66609 -0.56131,1.84859 v 4.69257 h -1.34715 v -6.36902 q 0,-1.41451 -0.0449,-1.72885 h 1.2723 q 0.007,0.0374 0.015,0.20208 0.007,0.16465 0.015,0.38169 0.015,0.20956 0.0299,0.8008 h 0.0225 q 0.46402,-0.83822 1.07023,-1.18249 0.61371,-0.35176 1.51929,-0.35176 1.33218,0 1.94588,0.66609 0.62119,0.65861 0.62119,2.18538 v 5.39608 z"
           style="fill:#3273ad;fill-opacity:1;stroke-width:0.38318917"
           id="path917"
           inkscape:connector-curvature="0" />
        <path
           d="m 212.80791,254.21141 q -0.55383,0 -0.92804,-0.0823 v -1.01036 q 0.2844,0.0449 0.62867,0.0449 1.25734,0 1.99079,-1.84859 l 0.12723,-0.32182 -3.21071,-8.06045 h 1.43696 l 1.70639,4.47553 q 0.0374,0.10478 0.0898,0.25447 0.0524,0.1422 0.33679,0.97294 0.2844,0.83074 0.30685,0.92803 l 0.52389,-1.47438 1.77375,-5.15659 h 1.42199 l -3.11341,8.09787 q -0.50144,1.29476 -0.93552,1.92343 -0.43408,0.63615 -0.96546,0.943 -0.52389,0.31434 -1.18998,0.31434 z"
           style="fill:#3273ad;fill-opacity:1;stroke-width:0.38318917"
           id="path919"
           inkscape:connector-curvature="0" />
      </g>
    </g>
  </g>
</svg>
