<?xml version="1.0" encoding="UTF-8" standalone="no"?>
<svg
   xmlns:dc="http://purl.org/dc/elements/1.1/"
   xmlns:cc="http://creativecommons.org/ns#"
   xmlns:rdf="http://www.w3.org/1999/02/22-rdf-syntax-ns#"
   xmlns:svg="http://www.w3.org/2000/svg"
   xmlns="http://www.w3.org/2000/svg"
   xmlns:xlink="http://www.w3.org/1999/xlink"
   xmlns:sodipodi="http://sodipodi.sourceforge.net/DTD/sodipodi-0.dtd"
   xmlns:inkscape="http://www.inkscape.org/namespaces/inkscape"
   version="1.1"
   id="Layer_1"
   x="0px"
   y="0px"
   viewBox="0 0 419.99998 800"
   enable-background="new 0 0 605.4 1141"
   xml:space="preserve"
   sodipodi:docname="smart-Phone-ilnanny.svg"
   inkscape:version="0.92.1 r"
   width="420"
   height="800"><title
     id="title1018">SmartPhone</title><metadata
     id="metadata181"><rdf:RDF><cc:Work
         rdf:about=""><dc:format>image/svg+xml</dc:format><dc:type
           rdf:resource="http://purl.org/dc/dcmitype/StillImage" /><dc:title>SmartPhone</dc:title><cc:license
           rdf:resource="http://artlibre.org/licence/lal" /><dc:date>2017</dc:date><dc:creator><cc:Agent><dc:title>Cristian Pozzessere &quot;ilnanny&quot;</dc:title></cc:Agent></dc:creator><dc:subject><rdf:Bag><rdf:li>Global language</rdf:li></rdf:Bag></dc:subject><dc:description>Playing with Inkscape on Gnu/Linux O. S.</dc:description><dc:contributor><cc:Agent><dc:title>In the night, alone like a dog.</dc:title></cc:Agent></dc:contributor></cc:Work><cc:License
         rdf:about="http://artlibre.org/licence/lal"><cc:permits
           rdf:resource="http://creativecommons.org/ns#Reproduction" /><cc:permits
           rdf:resource="http://creativecommons.org/ns#Distribution" /><cc:permits
           rdf:resource="http://creativecommons.org/ns#DerivativeWorks" /><cc:requires
           rdf:resource="http://creativecommons.org/ns#ShareAlike" /><cc:requires
           rdf:resource="http://creativecommons.org/ns#Notice" /><cc:requires
           rdf:resource="http://creativecommons.org/ns#Attribution" /></cc:License></rdf:RDF></metadata><defs
     id="defs179"><linearGradient
       gradientTransform="matrix(0.9867182,0,0,0.9867182,9.6265307,-3.0449713)"
       id="linearGradient1085"
       gradientUnits="userSpaceOnUse"
       x1="2.5989001"
       y1="570.50598"
       x2="602.82397"
       y2="570.50598"><stop
         offset="0"
         style="stop-color:#14171A"
         id="stop1071" /><stop
         offset="4.000000e-02"
         style="stop-color:#F2F2F2"
         id="stop1073" /><stop
         offset="0.21888874"
         style="stop-color:#34393F"
         id="stop1075" /><stop
         offset="0.5"
         style="stop-color:#34393F"
         id="stop1077" /><stop
         offset="0.80092603"
         style="stop-color:#34393F"
         id="stop1079" /><stop
         offset="0.96"
         style="stop-color:#F2F2F2"
         id="stop1081" /><stop
         offset="1"
         style="stop-color:#14171A"
         id="stop1083" /></linearGradient><linearGradient
       id="SVGID_3_"
       gradientUnits="userSpaceOnUse"
       x1="35.341999"
       y1="21.641899"
       x2="565.34198"
       y2="1109.642"
       gradientTransform="matrix(0.97026659,0,0,0.97026659,14.606853,6.3405022)"><stop
         offset="0"
         style="stop-color:#F2F2F2"
         id="stop36" /><stop
         offset="1"
         style="stop-color:#E7E7E7"
         id="stop38" /></linearGradient><radialGradient
       id="SVGID_4_"
       cx="593.45947"
       cy="93.012604"
       r="957.20947"
       gradientUnits="userSpaceOnUse"><stop
         offset="2.534075e-04"
         style="stop-color:#FBB041"
         id="stop43" /><stop
         offset="1"
         style="stop-color:#8EC641"
         id="stop45" /></radialGradient><linearGradient
       y2="24.702801"
       x2="508.2475"
       y1="39.373699"
       x1="508.2475"
       gradientUnits="userSpaceOnUse"
       id="SVGID_9_"
       gradientTransform="matrix(1.3411791,0,0,1.3411791,-583.56194,-7.5840986)"><stop
         id="stop124"
         style="stop-color:#3C3D41"
         offset="0" /><stop
         id="stop126"
         style="stop-color:#1C1D21"
         offset="1" /></linearGradient><linearGradient
       y2="36.537399"
       x2="508.2475"
       y1="26.1702"
       x1="508.2475"
       gradientUnits="userSpaceOnUse"
       id="SVGID_10_"
       gradientTransform="matrix(1.3411791,0,0,1.3411791,-583.56194,-7.5840986)"><stop
         id="stop131"
         style="stop-color:#3C3D41"
         offset="0" /><stop
         id="stop133"
         style="stop-color:#1C1D21"
         offset="1" /></linearGradient><linearGradient
       y2="27.146999"
       x2="508.2475"
       y1="35.6572"
       x1="508.2475"
       gradientUnits="userSpaceOnUse"
       id="SVGID_11_"
       gradientTransform="matrix(1.3411791,0,0,1.3411791,-583.56194,-7.5840986)"><stop
         id="stop138"
         style="stop-color:#3C3D41"
         offset="0" /><stop
         id="stop140"
         style="stop-color:#1C1D21"
         offset="1" /></linearGradient><radialGradient
       gradientUnits="userSpaceOnUse"
       r="5.4857001"
       cy="34.321098"
       cx="509.75421"
       id="SVGID_12_"
       gradientTransform="matrix(1.3411791,0,0,1.3411791,-583.56194,-7.5840986)"><stop
         id="stop145"
         style="stop-color:#FFFFFF"
         offset="4.140787e-03" /><stop
         id="stop147"
         style="stop-color:#FFFFFF;stop-opacity:0"
         offset="1" /></radialGradient><linearGradient
       y2="27.8613"
       x2="410.996"
       y1="27.8613"
       x1="401.4989"
       gradientUnits="userSpaceOnUse"
       id="SVGID_8_"
       gradientTransform="matrix(1.3411791,0,0,1.3411791,-29.417976,-1.7045871)"><stop
         id="stop111"
         style="stop-color:#2075BC"
         offset="0.2156" /><stop
         id="stop113"
         style="stop-color:#673090"
         offset="0.742" /></linearGradient><linearGradient
       y2="27.8613"
       x2="386.6723"
       y1="27.8613"
       x1="378.556"
       gradientUnits="userSpaceOnUse"
       id="SVGID_7_"
       gradientTransform="matrix(1.3411791,0,0,1.3411791,-29.417976,-1.7045871)"><stop
         id="stop94"
         style="stop-color:#2075BC"
         offset="0.2156" /><stop
         id="stop96"
         style="stop-color:#673090"
         offset="0.742" /></linearGradient><linearGradient
       y2="570.50598"
       x2="602.82397"
       y1="570.50598"
       x1="2.5989001"
       gradientUnits="userSpaceOnUse"
       id="SVGID_1_"
       gradientTransform="matrix(0.97544529,0,0,0.97544529,13.03928,3.3860683)"><stop
         id="stop8"
         style="stop-color:#14171A"
         offset="0" /><stop
         id="stop10"
         style="stop-color:#F2F2F2"
         offset="4.000000e-02" /><stop
         id="stop12"
         style="stop-color:#34393F"
         offset="0.1" /><stop
         id="stop14"
         style="stop-color:#34393F"
         offset="0.5" /><stop
         id="stop16"
         style="stop-color:#34393F"
         offset="0.9" /><stop
         id="stop18"
         style="stop-color:#F2F2F2"
         offset="0.96" /><stop
         id="stop20"
         style="stop-color:#14171A"
         offset="1" /></linearGradient><linearGradient
       y2="1129.0198"
       x2="302.71149"
       y1="11.0126"
       x1="302.71149"
       gradientUnits="userSpaceOnUse"
       id="SVGID_2_"
       gradientTransform="matrix(0.98147965,0,0,0.98147965,11.212219,-0.05639393)"><stop
         id="stop25"
         style="stop-color:#F2F2F2"
         offset="6.712603e-04" /><stop
         id="stop27"
         style="stop-color:#424143"
         offset="0.4604" /><stop
         id="stop29"
         style="stop-color:#F2F2F2"
         offset="1" /></linearGradient><linearGradient
       id="SVGID_5_"
       gradientUnits="userSpaceOnUse"
       x1="302.7117"
       y1="31.6793"
       x2="302.7117"
       y2="19.8339"><stop
         offset="0"
         style="stop-color:#6E6F72"
         id="stop50" /><stop
         offset="0.1593"
         style="stop-color:#F2F2F2"
         id="stop52" /><stop
         offset="0.3081"
         style="stop-color:#939598"
         id="stop54" /><stop
         offset="0.4874"
         style="stop-color:#F2F2F2"
         id="stop56" /><stop
         offset="0.7304"
         style="stop-color:#939598"
         id="stop58" /><stop
         offset="0.8863"
         style="stop-color:#F2F2F2"
         id="stop60" /><stop
         offset="1"
         style="stop-color:#939598"
         id="stop62" /></linearGradient><linearGradient
       id="SVGID_6_"
       gradientUnits="userSpaceOnUse"
       x1="302.71149"
       y1="74.3022"
       x2="302.71149"
       y2="51.622799"><stop
         offset="0"
         style="stop-color:#D2D3D4"
         id="stop77" /><stop
         offset="1"
         style="stop-color:#D2D3D4"
         id="stop79" /></linearGradient><linearGradient
       id="SVGID_13_"
       gradientUnits="userSpaceOnUse"
       x1="302.71149"
       y1="1077.6344"
       x2="302.71149"
       y2="1113.2548"><stop
         offset="6.712603e-04"
         style="stop-color:#F2F2F2"
         id="stop160" /><stop
         offset="0.4604"
         style="stop-color:#424143"
         id="stop162" /><stop
         offset="1"
         style="stop-color:#F2F2F2"
         id="stop164" /></linearGradient><linearGradient
       inkscape:collect="always"
       xlink:href="#SVGID_5_"
       id="linearGradient1274"
       x1="25.65"
       y1="576.29999"
       x2="579.65002"
       y2="576.29999"
       gradientUnits="userSpaceOnUse"
       gradientTransform="matrix(0.95542976,0,0,0.99584672,17.410735,-24.473254)" /><linearGradient
       inkscape:collect="always"
       xlink:href="#SVGID_5_"
       id="linearGradient1304"
       gradientUnits="userSpaceOnUse"
       x1="302.7117"
       y1="31.6793"
       x2="302.7117"
       y2="19.8339"
       gradientTransform="matrix(1.3029092,0,0,1.3029092,-173.87493,-0.10431819)" /><linearGradient
       inkscape:collect="always"
       xlink:href="#SVGID_5_"
       id="linearGradient1322"
       gradientUnits="userSpaceOnUse"
       gradientTransform="matrix(1.3029092,0,0,1.3029092,-18.981407,-0.10431819)"
       x1="302.7117"
       y1="31.6793"
       x2="302.7117"
       y2="19.8339" /><linearGradient
       inkscape:collect="always"
       xlink:href="#SVGID_13_"
       id="linearGradient1344"
       gradientUnits="userSpaceOnUse"
       x1="302.71149"
       y1="1077.6344"
       x2="302.71149"
       y2="1113.2548"
       gradientTransform="matrix(0.97026659,0,0,1.4225237,11.199151,-489.92601)" /><linearGradient
       inkscape:collect="always"
       xlink:href="#linearGradient1085"
       id="linearGradient1069"
       x1="250.9877"
       y1="1081.2878"
       x2="365.62451"
       y2="1081.2878"
       gradientUnits="userSpaceOnUse"
       gradientTransform="matrix(0.98857535,0,0,0.98857535,3.5227293,6.3962519)" /><linearGradient
       inkscape:collect="always"
       xlink:href="#SVGID_5_"
       id="linearGradient1093"
       x1="29.294922"
       y1="576.30078"
       x2="576.10547"
       y2="576.30078"
       gradientUnits="userSpaceOnUse"
       gradientTransform="matrix(0.95542976,0,0,0.99584672,17.410735,-24.473255)" /><linearGradient
       inkscape:collect="always"
       xlink:href="#SVGID_13_"
       id="linearGradient1152"
       gradientUnits="userSpaceOnUse"
       gradientTransform="matrix(0.97026659,0,0,1.4225237,14.606853,-483.47072)"
       x1="302.71149"
       y1="1077.6344"
       x2="302.71149"
       y2="1113.2548" /></defs><sodipodi:namedview
     pagecolor="#ffffff"
     bordercolor="#666666"
     borderopacity="1"
     objecttolerance="10"
     gridtolerance="10"
     guidetolerance="10"
     inkscape:pageopacity="0"
     inkscape:pageshadow="2"
     inkscape:window-width="1280"
     inkscape:window-height="973"
     id="namedview177"
     showgrid="false"
     inkscape:snap-global="false"
     inkscape:zoom="0.62431887"
     inkscape:cx="311.33463"
     inkscape:cy="293.11985"
     inkscape:current-layer="g1061"
     inkscape:window-x="0"
     inkscape:window-y="25"
     inkscape:window-maximized="1"
     inkscape:showpageshadow="false" /><g
     id="g1386"
     transform="translate(-5.6060973,-330.37776)"><g
       id="g1061"
       transform="matrix(0.70514745,0,0,0.7079906,-1.7951696,333.98957)"><path
         style="color:#000000;font-style:normal;font-variant:normal;font-weight:normal;font-stretch:normal;font-size:medium;line-height:normal;font-family:sans-serif;font-variant-ligatures:normal;font-variant-position:normal;font-variant-caps:normal;font-variant-numeric:normal;font-variant-alternates:normal;font-feature-settings:normal;text-indent:0;text-align:start;text-decoration:none;text-decoration-line:none;text-decoration-style:solid;text-decoration-color:#000000;letter-spacing:normal;word-spacing:normal;text-transform:none;writing-mode:lr-tb;direction:ltr;text-orientation:mixed;dominant-baseline:auto;baseline-shift:baseline;text-anchor:start;white-space:normal;shape-padding:0;clip-rule:nonzero;display:inline;overflow:visible;visibility:visible;opacity:1;isolation:auto;mix-blend-mode:normal;color-interpolation:sRGB;color-interpolation-filters:linearRGB;solid-color:#000000;solid-opacity:1;vector-effect:none;fill:#3c4148;fill-opacity:0.53156143;fill-rule:nonzero;stroke:none;stroke-width:4.21437073;stroke-linecap:butt;stroke-linejoin:miter;stroke-miterlimit:4;stroke-dasharray:none;stroke-dashoffset:0;stroke-opacity:1;color-rendering:auto;image-rendering:auto;shape-rendering:auto;text-rendering:auto;enable-background:accumulate"
         d="m 77.266811,-0.97507909 c -35.813497,0 -64.984861,29.17136409 -64.984861,64.98486109 V 1055.7457 c 0,35.8096 29.076644,64.9849 64.984861,64.9849 H 539.34541 c 35.90426,0 64.98486,-29.0828 64.98486,-65.0818 V 64.009782 c 0,-35.809529 -29.07664,-64.98486099 -64.98486,-64.98486109 z m 0,4.21458459 H 539.34541 c 33.62889,0 60.77028,27.2385715 60.77028,60.7702765 V 1055.6488 c 0,33.734 -27.13743,60.8672 -60.77028,60.8672 H 77.266811 c -33.628895,0 -60.770276,-27.2385 -60.770276,-60.7703 V 64.009782 c 0,-33.527737 27.242539,-60.7702765 60.770276,-60.7702765 z"
         id="path1095"
         inkscape:connector-curvature="0" /><path
         d="M 30.977838,154.77916 H 19.608224 c -1.242058,0 -2.197489,0.99586 -2.197489,2.29046 v 207.53445 c 0,1.2946 0.955431,2.29046 2.197489,2.29046 h 11.369614 c 1.242059,0 2.197488,-0.99586 2.197488,-2.29046 V 157.06962 c 0.09555,-1.2946 -0.955429,-2.29046 -2.197488,-2.29046 z"
         id="path2"
         inkscape:connector-curvature="0"
         style="fill:#bdbec0;stroke-width:0.975429" /><path
         d="m 594.87248,154.77916 h -5.06378 c -0.57326,0 -0.95543,0.49793 -0.95543,0.99586 v 92.61375 c 0,0.5975 0.47772,0.99584 0.95543,0.99584 h 5.06378 c 0.57326,0 0.95543,-0.49793 0.95543,-0.99584 v -92.61375 c 0,-0.49793 -0.38217,-0.99586 -0.95543,-0.99586 z"
         id="path4"
         inkscape:connector-curvature="0"
         style="fill:#bdbec0;stroke-width:0.975429" /><path
         inkscape:connector-curvature="0"
         style="fill:url(#SVGID_1_);stroke-width:0.97544527"
         id="path23"
         d="M 538.4141,1116.3692 H 78.199023 c -34.628305,0 -62.623585,-28.0929 -62.623585,-62.6237 V 66.009654 c 0,-34.530762 28.092823,-62.6235857 62.623585,-62.6235857 H 538.4141 c 34.62831,0 62.62359,28.0928237 62.62359,62.6235857 V 1053.648 c 0,34.7259 -27.99528,62.7212 -62.62359,62.7212 z" /><path
         d="M 537.28947,1105.4585 H 79.323635 c -30.660425,0 -55.499249,-24.8388 -55.499249,-55.4993 V 69.795937 c 0,-30.660424 24.838824,-55.499249 55.499249,-55.499249 H 537.28947 c 30.66041,0 55.49924,24.838825 55.49924,55.499249 V 1049.9592 c 0,30.6605 -24.83883,55.4993 -55.49924,55.4993 z"
         id="path41"
         style="opacity:0.21600001;fill:url(#SVGID_3_);stroke-width:0.97026658"
         inkscape:connector-curvature="0" /><path
         d="M 565.3497,67.64257 H 47.888945 c -2.57966,0 -4.777149,2.190864 -4.777149,4.979233 V 1026.2445 c 0,2.6888 2.101946,4.9793 4.777149,4.9793 H 565.25416 c 2.57965,0 4.77715,-2.1909 4.77715,-4.9793 V 72.621803 c 0,-2.788369 -2.10196,-4.979233 -4.68161,-4.979233 z"
         id="path48"
         style="clip-rule:evenodd;fill:#1a1e22;fill-opacity:0.83388702;fill-rule:evenodd;stroke-width:0.975429"
         inkscape:connector-curvature="0" /><path
         d="m 351.19233,1052.9971 c 7.66511,0 13.77779,9.9577 13.77779,22.0492 v 0.5689 c 0,12.2339 -6.20971,22.0491 -13.77779,22.0491 h -85.77156 c -7.66511,0 -13.77779,-9.9575 -13.77779,-22.0491 v -0.5689 c 0,-12.2337 6.20971,-22.0492 13.77779,-22.0492 h 85.77156"
         id="path156"
         inkscape:connector-curvature="0"
         style="fill:url(#linearGradient1069);fill-opacity:1;stroke-width:1.17483068" /><path
         d="m 349.54287,1055.6999 c 7.37403,0 13.29266,8.6775 13.29266,19.4886 v 0.569 c 0,10.8112 -5.91863,19.4886 -13.29266,19.4886 h -82.47266 c -7.37402,0 -13.29265,-8.6774 -13.29265,-19.4886 v -0.569 c 0,-10.8111 5.91863,-19.4886 13.29265,-19.4886 h 82.47266 m 0,-7.1126 h -82.47266 c -9.99374,0 -18.14398,11.9492 -18.14398,26.6012 v 0.569 c 0,14.6521 8.15024,26.6012 18.14398,26.6012 h 82.47266 c 9.99376,0 18.14399,-11.9491 18.14399,-26.6012 v -0.569 c 0,-14.7943 -8.15023,-26.6012 -18.14399,-26.6012 z"
         id="path167"
         style="fill:url(#linearGradient1152);stroke-width:1.17483068"
         inkscape:connector-curvature="0" /><path
         inkscape:connector-curvature="0"
         style="clip-rule:evenodd;fill:none;fill-rule:evenodd;stroke:url(#linearGradient1274);stroke-width:4.87714481;stroke-miterlimit:4;stroke-dasharray:none;stroke-opacity:1"
         id="path1266"
         d="M 565.3497,67.64257 H 47.888945 c -2.57966,0 -4.777149,2.190864 -4.777149,4.979233 V 1026.2445 c 0,2.6888 2.101946,4.9793 4.777149,4.9793 H 565.25416 c 2.57965,0 4.77715,-2.1909 4.77715,-4.9793 V 72.621803 c 0,-2.788369 -2.10196,-4.979233 -4.68161,-4.979233 z" /><path
         inkscape:connector-curvature="0"
         style="clip-rule:evenodd;opacity:0.10100002;fill:#ffffff;fill-rule:evenodd;stroke-width:0.96679509"
         id="path1276"
         d="M 561.34721,71.228946 H 121.346 c 263.72353,949.486654 2.45121,5.116767 265.52573,955.209754 h 174.3808 c 2.55642,0 4.73408,-2.1721 4.73408,-4.9362 V 76.164918 c 0,-2.764142 -2.08299,-4.935972 -4.6394,-4.935972 z"
         sodipodi:nodetypes="sccssss" /><path
         inkscape:connector-curvature="0"
         id="path1278"
         d="m 52.444404,71.993565 c -3.816051,0 -7.044428,3.271623 -7.044428,7.357982 V 1019.5144 c 0,3.9775 3.124126,7.3599 7.044428,7.3599 H 560.79461 c 3.81607,0 7.04442,-3.2735 7.04442,-7.3599 V 79.351547 c 0,-4.02822 -3.13506,-7.357982 -6.95111,-7.357982 z m 0,4.899485 H 560.88792 c 1.25337,0 2.24861,0.988697 2.24861,2.458497 V 1019.5144 c 0,1.4117 -1.08858,2.4585 -2.34192,2.4585 H 52.444404 c -1.336868,0 -2.343788,-1.1341 -2.343788,-2.4585 V 79.351547 c 0,-1.411633 1.090424,-2.458497 2.343788,-2.458497 z"
         style="color:#000000;font-style:normal;font-variant:normal;font-weight:normal;font-stretch:normal;font-size:medium;line-height:normal;font-family:sans-serif;font-variant-ligatures:normal;font-variant-position:normal;font-variant-caps:normal;font-variant-numeric:normal;font-variant-alternates:normal;font-feature-settings:normal;text-indent:0;text-align:start;text-decoration:none;text-decoration-line:none;text-decoration-style:solid;text-decoration-color:#000000;letter-spacing:normal;word-spacing:normal;text-transform:none;writing-mode:lr-tb;direction:ltr;text-orientation:mixed;dominant-baseline:auto;baseline-shift:baseline;text-anchor:start;white-space:normal;shape-padding:0;clip-rule:evenodd;display:inline;overflow:visible;visibility:visible;opacity:0.70603015;isolation:auto;mix-blend-mode:normal;color-interpolation:sRGB;color-interpolation-filters:linearRGB;solid-color:#000000;solid-opacity:1;vector-effect:none;fill:url(#linearGradient1093);fill-opacity:1;fill-rule:evenodd;stroke:none;stroke-width:4.80022144;stroke-linecap:butt;stroke-linejoin:miter;stroke-miterlimit:4;stroke-dasharray:none;stroke-dashoffset:0;stroke-opacity:1;color-rendering:auto;image-rendering:auto;shape-rendering:auto;text-rendering:auto;enable-background:accumulate" /><path
         style="clip-rule:evenodd;fill:#010101;fill-rule:evenodd;stroke-width:1.34117913"
         inkscape:connector-curvature="0"
         id="path88"
         d="m 483.71715,23.777816 c 6.57178,0 11.80237,5.230599 11.80237,11.802377 0,6.571777 -5.23059,11.802375 -11.80237,11.802375 -6.57178,0 -11.80238,-5.230598 -11.80238,-11.802375 0,-6.43766 5.2306,-11.802377 11.80238,-11.802377 z" /><path
         style="clip-rule:evenodd;opacity:0.5;fill:#424143;fill-rule:evenodd;stroke-width:1.34117913"
         inkscape:connector-curvature="0"
         id="path90"
         d="m 483.71715,26.862528 c 4.96236,0 8.85178,4.023538 8.85178,8.851782 0,4.962363 -4.02354,8.851782 -8.85178,8.851782 -4.96237,0 -8.85178,-4.023537 -8.85178,-8.851782 0,-4.962362 4.02353,-8.851782 8.85178,-8.851782 z" /><path
         style="clip-rule:evenodd;opacity:0.5;fill:#010101;fill-rule:evenodd;stroke-width:1.34117913"
         inkscape:connector-curvature="0"
         id="path92"
         d="m 483.71715,29.813122 c 3.21883,0 5.90119,2.682359 5.90119,5.901188 0,3.21883 -2.68236,5.901188 -5.90119,5.901188 -3.21883,0 -5.90119,-2.682358 -5.90119,-5.901188 0,-3.218829 2.68236,-5.901188 5.90119,-5.901188 z" /><path
         inkscape:connector-curvature="0"
         style="clip-rule:evenodd;fill:url(#SVGID_7_);fill-rule:evenodd;stroke-width:1.34117913"
         id="path99"
         d="m 483.71715,30.215476 c 2.95059,0 5.49883,2.414122 5.49883,5.498834 0,2.950595 -2.41412,5.498834 -5.49883,5.498834 -3.08471,0 -5.49884,-2.414122 -5.49884,-5.498834 0.13412,-3.084712 2.54825,-5.498834 5.49884,-5.498834 z" /><path
         style="clip-rule:evenodd;opacity:0.3;fill:#ffffff;fill-rule:evenodd;stroke-width:1.34117913"
         inkscape:connector-curvature="0"
         id="path101"
         d="m 483.71715,31.154301 c 1.4753,0 2.54824,0.670589 2.54824,1.34118 0,0.804707 -1.20706,1.341179 -2.54824,1.341179 -1.47529,0 -2.54824,-0.67059 -2.54824,-1.341179 0,-0.670591 1.07295,-1.34118 2.54824,-1.34118 z" /><path
         style="clip-rule:evenodd;fill:#010101;fill-rule:evenodd;stroke-width:1.34117913"
         inkscape:connector-curvature="0"
         id="path105"
         d="m 515.36898,21.766047 c 7.64472,0 13.81415,6.169424 13.81415,13.814146 0,7.64472 -6.16943,13.814144 -13.81415,13.814144 -7.64473,0 -13.81415,-6.169424 -13.81415,-13.814144 0,-7.510604 6.30354,-13.814146 13.81415,-13.814146 z" /><path
         style="clip-rule:evenodd;opacity:0.5;fill:#424143;fill-rule:evenodd;stroke-width:1.34117913"
         inkscape:connector-curvature="0"
         id="path107"
         d="m 515.36898,25.253113 c 5.76707,0 10.32707,4.694127 10.32707,10.32708 0,5.767069 -4.69412,10.327078 -10.32707,10.327078 -5.76708,0 -10.32708,-4.694127 -10.32708,-10.327078 0,-5.632953 4.69412,-10.32708 10.32708,-10.32708 z" /><path
         style="clip-rule:evenodd;opacity:0.5;fill:#010101;fill-rule:evenodd;stroke-width:1.34117913"
         inkscape:connector-curvature="0"
         id="path109"
         d="m 515.36898,28.740178 c 3.7553,0 6.97413,3.084712 6.97413,6.974132 0,3.889419 -3.08471,6.974131 -6.97413,6.974131 -3.7553,0 -6.97414,-3.084712 -6.97414,-6.974131 0,-3.88942 3.21884,-6.974132 6.97414,-6.974132 z" /><path
         inkscape:connector-curvature="0"
         style="clip-rule:evenodd;fill:url(#SVGID_8_);fill-rule:evenodd;stroke-width:1.34117913"
         id="path116"
         d="m 515.36898,29.276651 c 3.48706,0 6.30354,2.816475 6.30354,6.437659 0,3.487066 -2.81648,6.43766 -6.30354,6.43766 -3.48706,0 -6.30355,-2.816476 -6.30355,-6.43766 0,-3.621184 2.81649,-6.437659 6.30355,-6.437659 z" /><path
         style="clip-rule:evenodd;opacity:0.3;fill:#ffffff;fill-rule:evenodd;stroke-width:1.34117913"
         inkscape:connector-curvature="0"
         id="path118"
         d="m 515.36898,30.349593 c 1.60941,0 3.08471,0.67059 3.08471,1.609415 0,0.938826 -1.34118,1.609415 -3.08471,1.609415 -1.60941,0 -3.08471,-0.670589 -3.08471,-1.609415 0.13412,-0.804707 1.4753,-1.609415 3.08471,-1.609415 z" /><path
         style="clip-rule:evenodd;opacity:0.5;fill:#ffffff;fill-rule:evenodd;stroke-width:1.34117913"
         inkscape:connector-curvature="0"
         id="path122"
         d="m 98.025284,25.543025 c 5.767076,0 10.595316,4.694127 10.595316,10.595316 0,5.767069 -4.69412,10.595314 -10.595316,10.595314 -5.767067,0 -10.595309,-4.694127 -10.595309,-10.595314 0.134118,-5.901189 4.828242,-10.595316 10.595309,-10.595316 z" /><path
         inkscape:connector-curvature="0"
         style="clip-rule:evenodd;fill:url(#SVGID_9_);fill-rule:evenodd;stroke-width:1.34117913"
         id="path129"
         d="m 98.025284,24.738318 c 5.767076,0 10.595316,4.694127 10.595316,10.595315 0,5.76707 -4.69412,10.595315 -10.595316,10.595315 -5.767067,0 -10.595309,-4.694127 -10.595309,-10.595315 0.134118,-5.901188 4.828242,-10.595315 10.595309,-10.595315 z" /><path
         inkscape:connector-curvature="0"
         style="clip-rule:evenodd;fill:url(#SVGID_10_);fill-rule:evenodd;stroke-width:1.34117913"
         id="path136"
         d="m 98.025284,27.286558 c 4.425896,0 7.912966,3.487066 7.912966,7.912957 0,4.425891 -3.48707,7.912957 -7.912966,7.912957 -4.425889,0 -7.912952,-3.487066 -7.912952,-7.912957 0,-4.291773 3.621181,-7.912957 7.912952,-7.912957 z" /><path
         inkscape:connector-curvature="0"
         style="clip-rule:evenodd;fill:url(#SVGID_11_);fill-rule:evenodd;stroke-width:1.34117913"
         id="path143"
         d="m 98.025284,29.968917 c 2.950606,0 5.230606,2.414122 5.230606,5.230598 0,2.816476 -2.41412,5.230598 -5.230606,5.230598 -2.950592,0 -5.230596,-2.414122 -5.230596,-5.230598 0,-2.816476 2.414121,-5.230598 5.230596,-5.230598 z" /><path
         inkscape:connector-curvature="0"
         style="clip-rule:evenodd;opacity:0.5;fill:url(#SVGID_12_);fill-rule:evenodd;stroke-width:1.34117913"
         id="path150"
         d="m 98.025284,31.578332 c 2.011766,0 3.621186,1.609415 3.621186,3.621183 0,2.011768 -1.60942,3.621183 -3.621186,3.621183 -2.011768,0 -3.621182,-1.609415 -3.621182,-3.621183 0.134118,-2.011768 1.743532,-3.621183 3.621182,-3.621183 z" /><path
         style="clip-rule:evenodd;opacity:0.3;fill:#ffffff;fill-rule:evenodd;stroke-width:1.34117913"
         inkscape:connector-curvature="0"
         id="path152"
         d="m 98.025284,32.517157 c 0.938825,0 1.743532,0.402354 1.743532,0.938825 0,0.536472 -0.804707,0.938826 -1.743532,0.938826 -0.938825,0 -1.743532,-0.402354 -1.743532,-0.938826 0,-0.536471 0.804707,-0.938825 1.743532,-0.938825 z" /><path
         d="m 150.28888,25.302412 h 140.32333 c 4.42989,0 7.94774,3.517854 7.94774,7.947746 0,4.429891 -3.51785,7.947746 -7.94774,7.947746 H 150.28888 c -4.42989,0 -7.94774,-3.517855 -7.94774,-7.947746 0.13029,-4.429892 3.64814,-7.947746 7.94774,-7.947746 z"
         id="path65"
         style="clip-rule:evenodd;fill:url(#linearGradient1304);fill-rule:evenodd;stroke-width:1.30290926"
         inkscape:connector-curvature="0" /><path
         d="M 290.7425,41.979649 H 150.28888 c -4.82076,0 -8.72949,-3.908727 -8.72949,-8.729491 0,-4.820764 3.90873,-8.729492 8.72949,-8.729492 h 140.32333 c 4.82076,0 8.72949,3.908728 8.72949,8.729492 0,4.820764 -3.77844,8.729491 -8.5992,8.729491 z M 150.28888,25.953866 c -3.90872,0 -7.166,3.257273 -7.166,7.166001 0,3.908728 3.25728,7.166001 7.166,7.166001 h 140.32333 c 3.90872,0 7.16599,-3.257273 7.16599,-7.166001 0,-3.908728 -3.25727,-7.166001 -7.16599,-7.166001 z"
         id="path67"
         inkscape:connector-curvature="0"
         style="opacity:0.1;fill:#010101;stroke-width:1.30290926" /><path
         style="clip-rule:evenodd;opacity:0.2;fill:#ffffff;fill-rule:evenodd;stroke-width:1.30290926"
         inkscape:connector-curvature="0"
         id="path71"
         d="m 288.00639,37.680049 c -1.95437,0 -3.64815,-1.563491 -3.64815,-3.387564 0,-1.824073 1.56349,-3.387564 3.64815,-3.387564 1.95436,0 3.64814,1.563491 3.64814,3.387564 0,1.824073 -1.69378,3.387564 -3.64814,3.387564 z m -11.20502,0 c -1.95436,0 -3.64815,-1.563491 -3.64815,-3.387564 0,-1.824073 1.5635,-3.387564 3.64815,-3.387564 1.95436,0 3.64814,1.563491 3.64814,3.387564 0,1.824073 -1.56349,3.387564 -3.64814,3.387564 z m -11.07473,0 c -1.95436,0 -3.64815,-1.563491 -3.64815,-3.387564 0,-1.824073 1.5635,-3.387564 3.64815,-3.387564 2.08465,0 3.64815,1.563491 3.64815,3.387564 -0.13029,1.824073 -1.69379,3.387564 -3.64815,3.387564 z m -11.20502,0 c -1.95436,0 -3.64814,-1.563491 -3.64814,-3.387564 0,-1.824073 1.56349,-3.387564 3.64814,-3.387564 1.95436,0 3.64815,1.563491 3.64815,3.387564 0,1.824073 -1.69379,3.387564 -3.64815,3.387564 z m -11.20502,0 c -1.95436,0 -3.64814,-1.563491 -3.64814,-3.387564 0,-1.824073 1.56348,-3.387564 3.64814,-3.387564 1.95437,0 3.64815,1.563491 3.64815,3.387564 0,1.824073 -1.69378,3.387564 -3.64815,3.387564 z m -11.20502,0 c -1.95436,0 -3.64814,-1.563491 -3.64814,-3.387564 0,-1.824073 1.56349,-3.387564 3.64814,-3.387564 1.95437,0 3.64815,1.563491 3.64815,3.387564 0,1.824073 -1.56349,3.387564 -3.64815,3.387564 z m -11.07473,0 c -1.95436,0 -3.64814,-1.563491 -3.64814,-3.387564 0,-1.824073 1.56349,-3.387564 3.64814,-3.387564 1.95437,0 3.64815,1.563491 3.64815,3.387564 -0.13029,1.824073 -1.69378,3.387564 -3.64815,3.387564 z m -11.20502,0 c -1.95436,0 -3.64814,-1.563491 -3.64814,-3.387564 0,-1.824073 1.56349,-3.387564 3.64814,-3.387564 2.08466,0 3.64815,1.563491 3.64815,3.387564 0,1.824073 -1.69378,3.387564 -3.64815,3.387564 z m -11.20501,0 c -1.95437,0 -3.64815,-1.563491 -3.64815,-3.387564 0,-1.824073 1.56349,-3.387564 3.64815,-3.387564 2.08465,0 3.64814,1.563491 3.64814,3.387564 0,1.824073 -1.56349,3.387564 -3.64814,3.387564 z m -11.07473,0 c -1.95436,0 -3.64815,-1.563491 -3.64815,-3.387564 0,-1.824073 1.56349,-3.387564 3.64815,-3.387564 1.95436,0 3.64814,1.563491 3.64814,3.387564 -0.13029,1.824073 -1.69378,3.387564 -3.64814,3.387564 z m -11.20502,0 c -1.95437,0 -3.64815,-1.563491 -3.64815,-3.387564 0,-1.824073 1.56349,-3.387564 3.64815,-3.387564 1.95436,0 3.64814,1.563491 3.64814,3.387564 0,1.824073 -1.69378,3.387564 -3.64814,3.387564 z m -11.20502,0 c -1.95437,0 -3.64815,-1.563491 -3.64815,-3.387564 0,-1.824073 1.56349,-3.387564 3.64815,-3.387564 1.95436,0 3.64814,1.563491 3.64814,3.387564 0,1.824073 -1.56349,3.387564 -3.64814,3.387564 z m -11.20502,0 c -1.95437,0 -3.64815,-1.563491 -3.64815,-3.387564 0,-1.824073 1.5635,-3.387564 3.64815,-3.387564 1.95436,0 3.64814,1.563491 3.64814,3.387564 0,1.824073 -1.56348,3.387564 -3.64814,3.387564 z" /><path
         style="clip-rule:evenodd;fill:#010101;fill-rule:evenodd;stroke-width:1.30290926"
         inkscape:connector-curvature="0"
         id="path73"
         d="m 288.00639,36.637722 c -1.95437,0 -3.64815,-1.563491 -3.64815,-3.387564 0,-1.824073 1.56349,-3.387564 3.64815,-3.387564 1.95436,0 3.64814,1.563491 3.64814,3.387564 0,1.824073 -1.69378,3.387564 -3.64814,3.387564 z m -11.20502,0 c -1.95436,0 -3.64815,-1.563491 -3.64815,-3.387564 0,-1.824073 1.5635,-3.387564 3.64815,-3.387564 1.95436,0 3.64814,1.563491 3.64814,3.387564 0,1.824073 -1.56349,3.387564 -3.64814,3.387564 z m -11.07473,0 c -1.95436,0 -3.64815,-1.563491 -3.64815,-3.387564 0,-1.824073 1.5635,-3.387564 3.64815,-3.387564 2.08465,0 3.64815,1.563491 3.64815,3.387564 -0.13029,1.824073 -1.69379,3.387564 -3.64815,3.387564 z m -11.20502,0 c -1.95436,0 -3.64814,-1.563491 -3.64814,-3.387564 0,-1.824073 1.56349,-3.387564 3.64814,-3.387564 1.95436,0 3.64815,1.563491 3.64815,3.387564 0,1.824073 -1.69379,3.387564 -3.64815,3.387564 z m -11.20502,0 c -1.95436,0 -3.64814,-1.563491 -3.64814,-3.387564 0,-1.824073 1.56348,-3.387564 3.64814,-3.387564 1.95437,0 3.64815,1.563491 3.64815,3.387564 0,1.824073 -1.69378,3.387564 -3.64815,3.387564 z m -11.20502,0 c -1.95436,0 -3.64814,-1.563491 -3.64814,-3.387564 0,-1.824073 1.56349,-3.387564 3.64814,-3.387564 1.95437,0 3.64815,1.563491 3.64815,3.387564 0,1.824073 -1.56349,3.387564 -3.64815,3.387564 z m -11.07473,0 c -1.95436,0 -3.64814,-1.563491 -3.64814,-3.387564 0,-1.824073 1.56349,-3.387564 3.64814,-3.387564 1.95437,0 3.64815,1.563491 3.64815,3.387564 -0.13029,1.824073 -1.69378,3.387564 -3.64815,3.387564 z m -11.20502,0 c -1.95436,0 -3.64814,-1.563491 -3.64814,-3.387564 0,-1.824073 1.56349,-3.387564 3.64814,-3.387564 2.08466,0 3.64815,1.563491 3.64815,3.387564 0,1.824073 -1.69378,3.387564 -3.64815,3.387564 z m -11.20501,0 c -1.95437,0 -3.64815,-1.563491 -3.64815,-3.387564 0,-1.824073 1.56349,-3.387564 3.64815,-3.387564 2.08465,0 3.64814,1.563491 3.64814,3.387564 0,1.824073 -1.56349,3.387564 -3.64814,3.387564 z m -11.07473,0 c -1.95436,0 -3.64815,-1.563491 -3.64815,-3.387564 0,-1.824073 1.56349,-3.387564 3.64815,-3.387564 1.95436,0 3.64814,1.563491 3.64814,3.387564 -0.13029,1.824073 -1.69378,3.387564 -3.64814,3.387564 z m -11.20502,0 c -1.95437,0 -3.64815,-1.563491 -3.64815,-3.387564 0,-1.824073 1.56349,-3.387564 3.64815,-3.387564 1.95436,0 3.64814,1.563491 3.64814,3.387564 0,1.824073 -1.69378,3.387564 -3.64814,3.387564 z m -11.20502,0 c -1.95437,0 -3.64815,-1.563491 -3.64815,-3.387564 0,-1.824073 1.56349,-3.387564 3.64815,-3.387564 1.95436,0 3.64814,1.563491 3.64814,3.387564 0,1.824073 -1.56349,3.387564 -3.64814,3.387564 z m -11.20502,0 c -1.95437,0 -3.64815,-1.563491 -3.64815,-3.387564 0,-1.824073 1.5635,-3.387564 3.64815,-3.387564 1.95436,0 3.64814,1.563491 3.64814,3.387564 0,1.824073 -1.56348,3.387564 -3.64814,3.387564 z" /><path
         inkscape:connector-curvature="0"
         style="clip-rule:evenodd;fill:url(#linearGradient1322);fill-rule:evenodd;stroke-width:1.30290926"
         id="path1312"
         d="m 305.1824,25.302412 h 140.32333 c 4.42989,0 7.94774,3.517854 7.94774,7.947746 0,4.429891 -3.51785,7.947746 -7.94774,7.947746 H 305.1824 c -4.42989,0 -7.94774,-3.517855 -7.94774,-7.947746 0.13029,-4.429892 3.64814,-7.947746 7.94774,-7.947746 z" /><path
         style="opacity:0.1;fill:#010101;stroke-width:1.30290926"
         inkscape:connector-curvature="0"
         id="path1314"
         d="M 445.63602,41.979649 H 305.1824 c -4.82076,0 -8.72949,-3.908727 -8.72949,-8.729491 0,-4.820764 3.90873,-8.729492 8.72949,-8.729492 h 140.32333 c 4.82076,0 8.72949,3.908728 8.72949,8.729492 0,4.820764 -3.77844,8.729491 -8.5992,8.729491 z M 305.1824,25.953866 c -3.90872,0 -7.166,3.257273 -7.166,7.166001 0,3.908728 3.25728,7.166001 7.166,7.166001 h 140.32333 c 3.90873,0 7.166,-3.257273 7.166,-7.166001 0,-3.908728 -3.25727,-7.166001 -7.166,-7.166001 z" /><path
         d="m 442.89991,37.680049 c -1.95437,0 -3.64815,-1.563491 -3.64815,-3.387564 0,-1.824073 1.5635,-3.387564 3.64815,-3.387564 1.95436,0 3.64814,1.563491 3.64814,3.387564 0,1.824073 -1.69378,3.387564 -3.64814,3.387564 z m -11.20502,0 c -1.95436,0 -3.64815,-1.563491 -3.64815,-3.387564 0,-1.824073 1.5635,-3.387564 3.64815,-3.387564 1.95436,0 3.64815,1.563491 3.64815,3.387564 0,1.824073 -1.5635,3.387564 -3.64815,3.387564 z m -11.07473,0 c -1.95436,0 -3.64815,-1.563491 -3.64815,-3.387564 0,-1.824073 1.5635,-3.387564 3.64815,-3.387564 2.08465,0 3.64815,1.563491 3.64815,3.387564 -0.13029,1.824073 -1.69379,3.387564 -3.64815,3.387564 z m -11.20502,0 c -1.95436,0 -3.64814,-1.563491 -3.64814,-3.387564 0,-1.824073 1.56349,-3.387564 3.64814,-3.387564 1.95437,0 3.64815,1.563491 3.64815,3.387564 0,1.824073 -1.69378,3.387564 -3.64815,3.387564 z m -11.20502,0 c -1.95436,0 -3.64814,-1.563491 -3.64814,-3.387564 0,-1.824073 1.56349,-3.387564 3.64814,-3.387564 1.95437,0 3.64815,1.563491 3.64815,3.387564 0,1.824073 -1.69378,3.387564 -3.64815,3.387564 z m -11.20502,0 c -1.95436,0 -3.64814,-1.563491 -3.64814,-3.387564 0,-1.824073 1.56349,-3.387564 3.64814,-3.387564 1.95437,0 3.64815,1.563491 3.64815,3.387564 0,1.824073 -1.56349,3.387564 -3.64815,3.387564 z m -11.07473,0 c -1.95436,0 -3.64814,-1.563491 -3.64814,-3.387564 0,-1.824073 1.56349,-3.387564 3.64814,-3.387564 1.95437,0 3.64815,1.563491 3.64815,3.387564 -0.13029,1.824073 -1.69378,3.387564 -3.64815,3.387564 z m -11.20502,0 c -1.95436,0 -3.64814,-1.563491 -3.64814,-3.387564 0,-1.824073 1.56349,-3.387564 3.64814,-3.387564 2.08466,0 3.64815,1.563491 3.64815,3.387564 0,1.824073 -1.69378,3.387564 -3.64815,3.387564 z m -11.20501,0 c -1.95437,0 -3.64815,-1.563491 -3.64815,-3.387564 0,-1.824073 1.56349,-3.387564 3.64815,-3.387564 2.08465,0 3.64814,1.563491 3.64814,3.387564 0,1.824073 -1.56349,3.387564 -3.64814,3.387564 z m -11.07473,0 c -1.95436,0 -3.64815,-1.563491 -3.64815,-3.387564 0,-1.824073 1.56349,-3.387564 3.64815,-3.387564 1.95436,0 3.64815,1.563491 3.64815,3.387564 -0.1303,1.824073 -1.69379,3.387564 -3.64815,3.387564 z m -11.20502,0 c -1.95437,0 -3.64815,-1.563491 -3.64815,-3.387564 0,-1.824073 1.56349,-3.387564 3.64815,-3.387564 1.95437,0 3.64814,1.563491 3.64814,3.387564 0,1.824073 -1.69377,3.387564 -3.64814,3.387564 z m -11.20502,0 c -1.95437,0 -3.64815,-1.563491 -3.64815,-3.387564 0,-1.824073 1.56349,-3.387564 3.64815,-3.387564 1.95436,0 3.64814,1.563491 3.64814,3.387564 0,1.824073 -1.56348,3.387564 -3.64814,3.387564 z m -11.20502,0 c -1.95436,0 -3.64815,-1.563491 -3.64815,-3.387564 0,-1.824073 1.5635,-3.387564 3.64815,-3.387564 1.95436,0 3.64814,1.563491 3.64814,3.387564 0,1.824073 -1.56348,3.387564 -3.64814,3.387564 z"
         id="path1316"
         inkscape:connector-curvature="0"
         style="clip-rule:evenodd;opacity:0.2;fill:#ffffff;fill-rule:evenodd;stroke-width:1.30290926" /><path
         d="m 442.89991,36.637722 c -1.95437,0 -3.64815,-1.563491 -3.64815,-3.387564 0,-1.824073 1.5635,-3.387564 3.64815,-3.387564 1.95436,0 3.64814,1.563491 3.64814,3.387564 0,1.824073 -1.69378,3.387564 -3.64814,3.387564 z m -11.20502,0 c -1.95436,0 -3.64815,-1.563491 -3.64815,-3.387564 0,-1.824073 1.5635,-3.387564 3.64815,-3.387564 1.95436,0 3.64815,1.563491 3.64815,3.387564 0,1.824073 -1.5635,3.387564 -3.64815,3.387564 z m -11.07473,0 c -1.95436,0 -3.64815,-1.563491 -3.64815,-3.387564 0,-1.824073 1.5635,-3.387564 3.64815,-3.387564 2.08465,0 3.64815,1.563491 3.64815,3.387564 -0.13029,1.824073 -1.69379,3.387564 -3.64815,3.387564 z m -11.20502,0 c -1.95436,0 -3.64814,-1.563491 -3.64814,-3.387564 0,-1.824073 1.56349,-3.387564 3.64814,-3.387564 1.95437,0 3.64815,1.563491 3.64815,3.387564 0,1.824073 -1.69378,3.387564 -3.64815,3.387564 z m -11.20502,0 c -1.95436,0 -3.64814,-1.563491 -3.64814,-3.387564 0,-1.824073 1.56349,-3.387564 3.64814,-3.387564 1.95437,0 3.64815,1.563491 3.64815,3.387564 0,1.824073 -1.69378,3.387564 -3.64815,3.387564 z m -11.20502,0 c -1.95436,0 -3.64814,-1.563491 -3.64814,-3.387564 0,-1.824073 1.56349,-3.387564 3.64814,-3.387564 1.95437,0 3.64815,1.563491 3.64815,3.387564 0,1.824073 -1.56349,3.387564 -3.64815,3.387564 z m -11.07473,0 c -1.95436,0 -3.64814,-1.563491 -3.64814,-3.387564 0,-1.824073 1.56349,-3.387564 3.64814,-3.387564 1.95437,0 3.64815,1.563491 3.64815,3.387564 -0.13029,1.824073 -1.69378,3.387564 -3.64815,3.387564 z m -11.20502,0 c -1.95436,0 -3.64814,-1.563491 -3.64814,-3.387564 0,-1.824073 1.56349,-3.387564 3.64814,-3.387564 2.08466,0 3.64815,1.563491 3.64815,3.387564 0,1.824073 -1.69378,3.387564 -3.64815,3.387564 z m -11.20501,0 c -1.95437,0 -3.64815,-1.563491 -3.64815,-3.387564 0,-1.824073 1.56349,-3.387564 3.64815,-3.387564 2.08465,0 3.64814,1.563491 3.64814,3.387564 0,1.824073 -1.56349,3.387564 -3.64814,3.387564 z m -11.07473,0 c -1.95436,0 -3.64815,-1.563491 -3.64815,-3.387564 0,-1.824073 1.56349,-3.387564 3.64815,-3.387564 1.95436,0 3.64815,1.563491 3.64815,3.387564 -0.1303,1.824073 -1.69379,3.387564 -3.64815,3.387564 z m -11.20502,0 c -1.95437,0 -3.64815,-1.563491 -3.64815,-3.387564 0,-1.824073 1.56349,-3.387564 3.64815,-3.387564 1.95437,0 3.64814,1.563491 3.64814,3.387564 0,1.824073 -1.69377,3.387564 -3.64814,3.387564 z m -11.20502,0 c -1.95437,0 -3.64815,-1.563491 -3.64815,-3.387564 0,-1.824073 1.56349,-3.387564 3.64815,-3.387564 1.95436,0 3.64814,1.563491 3.64814,3.387564 0,1.824073 -1.56348,3.387564 -3.64814,3.387564 z m -11.20502,0 c -1.95436,0 -3.64815,-1.563491 -3.64815,-3.387564 0,-1.824073 1.5635,-3.387564 3.64815,-3.387564 1.95436,0 3.64814,1.563491 3.64814,3.387564 0,1.824073 -1.56348,3.387564 -3.64814,3.387564 z"
         id="path1318"
         inkscape:connector-curvature="0"
         style="clip-rule:evenodd;fill:#010101;fill-rule:evenodd;stroke-width:1.30290926" /></g></g></svg>