<?xml version="1.0" encoding="UTF-8" standalone="no"?>
<svg
   xmlns:dc="http://purl.org/dc/elements/1.1/"
   xmlns:cc="http://creativecommons.org/ns#"
   xmlns:rdf="http://www.w3.org/1999/02/22-rdf-syntax-ns#"
   xmlns:svg="http://www.w3.org/2000/svg"
   xmlns="http://www.w3.org/2000/svg"
   xmlns:xlink="http://www.w3.org/1999/xlink"
   xmlns:sodipodi="http://sodipodi.sourceforge.net/DTD/sodipodi-0.dtd"
   xmlns:inkscape="http://www.inkscape.org/namespaces/inkscape"
   height="512"
   style="clip-rule:evenodd;fill-rule:evenodd;image-rendering:optimizeQuality;shape-rendering:geometricPrecision;text-rendering:geometricPrecision"
   viewBox="0 0 512 512"
   width="512"
   xml:space="preserve"
   version="1.1"
   id="svg163"
   sodipodi:docname="Watch.svg"
   inkscape:version="0.92.2 2405546, 2018-03-11"><title
     id="title943">smart-watch</title><metadata
     id="metadata167"><rdf:RDF><cc:Work
         rdf:about=""><dc:format>image/svg+xml</dc:format><dc:type
           rdf:resource="http://purl.org/dc/dcmitype/StillImage" /><dc:title>smart-watch</dc:title><cc:license
           rdf:resource="http://creativecommons.org/licenses/by-sa/4.0/" /><dc:date>2015</dc:date><dc:creator><cc:Agent><dc:title>Cristian Pozzessere  &lt; ilnanny &gt;</dc:title></cc:Agent></dc:creator><dc:subject><rdf:Bag><rdf:li>ilnanny</rdf:li><rdf:li>lila_hd</rdf:li><rdf:li>lila-hd</rdf:li><rdf:li>lila hd icon theme</rdf:li><rdf:li>Lila-HD-Icon-Theme lila hd icon lila icon</rdf:li></rdf:Bag></dc:subject><dc:description>Playing with Inkscape on Gnu/Linux O. S.</dc:description><dc:contributor><cc:Agent><dc:title>In the night, alone like a dog.</dc:title></cc:Agent></dc:contributor></cc:Work><cc:License
         rdf:about="http://creativecommons.org/licenses/by-sa/4.0/"><cc:permits
           rdf:resource="http://creativecommons.org/ns#Reproduction" /><cc:permits
           rdf:resource="http://creativecommons.org/ns#Distribution" /><cc:requires
           rdf:resource="http://creativecommons.org/ns#Notice" /><cc:requires
           rdf:resource="http://creativecommons.org/ns#Attribution" /><cc:permits
           rdf:resource="http://creativecommons.org/ns#DerivativeWorks" /><cc:requires
           rdf:resource="http://creativecommons.org/ns#ShareAlike" /></cc:License></rdf:RDF></metadata><sodipodi:namedview
     pagecolor="#ffffff"
     bordercolor="#666666"
     borderopacity="1"
     objecttolerance="10"
     gridtolerance="10"
     guidetolerance="10"
     inkscape:pageopacity="0"
     inkscape:pageshadow="2"
     inkscape:window-width="1280"
     inkscape:window-height="973"
     id="namedview165"
     showgrid="false"
     inkscape:zoom="1.4941406"
     inkscape:cx="256"
     inkscape:cy="256"
     inkscape:window-x="0"
     inkscape:window-y="23"
     inkscape:window-maximized="1"
     inkscape:current-layer="g4263"
     inkscape:showpageshadow="false" /><defs
     id="defs28"><pattern
       inkscape:collect="always"
       xlink:href="#Strips1_1"
       id="pattern2423"
       patternTransform="matrix(0.16798893,9.9985887,-9.9985887,0.16798893,0,0)" /><pattern
       inkscape:collect="always"
       xlink:href="#Strips1_1"
       id="pattern2421"
       patternTransform="matrix(0.24284208,9.9970521,-9.9970521,0.24284208,0,0)" /><pattern
       inkscape:stockid="Stripes 1:1"
       id="Strips1_1"
       patternTransform="translate(0,0) scale(10,10)"
       height="1"
       width="2"
       patternUnits="userSpaceOnUse"
       inkscape:collect="always"><rect
         id="rect1703"
         height="2"
         width="1"
         y="-0.5"
         x="0"
         style="fill:black;stroke:none" /></pattern><linearGradient
       id="linearGradient981"
       inkscape:collect="always"><stop
         id="stop975"
         offset="0"
         style="stop-color:#aab1b4;stop-opacity:0.99607843" /><stop
         style="stop-color:#ced2d3;stop-opacity:0.99607843"
         offset="0.48282373"
         id="stop977" /><stop
         id="stop979"
         offset="1"
         style="stop-color:#a8afb3;stop-opacity:0.99607843" /></linearGradient><linearGradient
       inkscape:collect="always"
       id="linearGradient951"><stop
         style="stop-color:#2c3641;stop-opacity:1;"
         offset="0"
         id="stop947" /><stop
         id="stop963"
         offset="0.48282373"
         style="stop-color:#526479;stop-opacity:0.99607843" /><stop
         style="stop-color:#2c3641;stop-opacity:0.99603176"
         offset="1"
         id="stop949" /></linearGradient><style
       type="text/css"
       id="style2"><![CDATA[
    .fil0 {fill:none}
    .fil3 {fill:#212121}
    .fil5 {fill:#A7A8A9}
    .fil4 {fill:#C6C8C9}
    .fil9 {fill:#D13733}
    .fil6 {fill:#D8DADC}
    .fil2 {fill:#ECEFF1}
    .fil1 {fill:#EF5350}
    .fil7 {fill:#EF5350;fill-rule:nonzero}
    .fil8 {fill:#FAFAFA;fill-rule:nonzero}
    .fil10 {fill:black;fill-opacity:0.000000}
   ]]></style><clipPath
       id="id0"><path
         d="m 681.891,664.452 c 0.39567,-0.56693 0.77362,-1.14331 1.13622,-1.73268 -0.17953,0.75827 -0.30236,1.5685 -1.13622,1.73268 l 0,0 z"
         id="path4"
         inkscape:connector-curvature="0" /></clipPath><clipPath
       id="id1"><path
         d="m 681.891,664.452 c 0.39567,-0.56693 0.77362,-1.14331 1.13622,-1.73268 -0.17953,0.75827 -0.30236,1.5685 -1.13622,1.73268 l 0,0 z"
         id="path7"
         inkscape:connector-curvature="0" /></clipPath><clipPath
       id="id2"><path
         d="m 681.891,664.452 c 0.39567,-0.56693 0.77362,-1.14331 1.13622,-1.73268 -0.17953,0.75827 -0.30236,1.5685 -1.13622,1.73268 l 0,0 z"
         id="path10"
         inkscape:connector-curvature="0" /></clipPath><clipPath
       id="id3"><path
         d="m 681.891,664.452 c 0.39567,-0.56693 0.77362,-1.14331 1.13622,-1.73268 -0.17953,0.75827 -0.30236,1.5685 -1.13622,1.73268 l 0,0 z"
         id="path13"
         inkscape:connector-curvature="0" /></clipPath><clipPath
       id="id4"><path
         d="m 626.279,669.454 c -0.19488,-0.15472 -0.37913,-0.32362 -0.5563,-0.50197 -0.0236,-0.0224 -0.0661,-0.0921 -0.11811,-0.18661 0.22205,0.23267 0.44646,0.46299 0.67441,0.68858 l 0,0 z m -2.42362,-2.66339 c -0.098,-0.0921 -0.18189,-0.19606 -0.25394,-0.31181 0.0839,0.10394 0.17008,0.20905 0.25394,0.31181 z"
         id="path16"
         inkscape:connector-curvature="0" /></clipPath><clipPath
       id="id5"><path
         d="m 626.279,669.454 c -0.19488,-0.15472 -0.37913,-0.32362 -0.5563,-0.50197 -0.0236,-0.0224 -0.0661,-0.0921 -0.11811,-0.18661 0.22205,0.23267 0.44646,0.46299 0.67441,0.68858 l 0,0 z m -2.42362,-2.66339 c -0.098,-0.0921 -0.18189,-0.19606 -0.25394,-0.31181 0.0839,0.10394 0.17008,0.20905 0.25394,0.31181 z"
         id="path19"
         inkscape:connector-curvature="0" /></clipPath><clipPath
       id="id6"><path
         d="m 626.279,669.454 c -0.19488,-0.15472 -0.37913,-0.32362 -0.5563,-0.50197 -0.0236,-0.0224 -0.0661,-0.0921 -0.11811,-0.18661 0.22205,0.23267 0.44646,0.46299 0.67441,0.68858 l 0,0 z m -2.42362,-2.66339 c -0.098,-0.0921 -0.18189,-0.19606 -0.25394,-0.31181 0.0839,0.10394 0.17008,0.20905 0.25394,0.31181 z"
         id="path22"
         inkscape:connector-curvature="0" /></clipPath><clipPath
       id="id7"><path
         d="m 626.279,669.454 c -0.19488,-0.15472 -0.37913,-0.32362 -0.5563,-0.50197 -0.0236,-0.0224 -0.0661,-0.0921 -0.11811,-0.18661 0.22205,0.23267 0.44646,0.46299 0.67441,0.68858 l 0,0 z m -2.42362,-2.66339 c -0.098,-0.0921 -0.18189,-0.19606 -0.25394,-0.31181 0.0839,0.10394 0.17008,0.20905 0.25394,0.31181 z"
         id="path25"
         inkscape:connector-curvature="0" /></clipPath><linearGradient
       inkscape:collect="always"
       xlink:href="#linearGradient951"
       id="linearGradient953"
       x1="567.44019"
       y1="324.64334"
       x2="1003.469"
       y2="324.64334"
       gradientUnits="userSpaceOnUse" /><linearGradient
       inkscape:collect="always"
       xlink:href="#linearGradient951"
       id="linearGradient955"
       x1="567.4402"
       y1="1275.3546"
       x2="1003.469"
       y2="1275.3546"
       gradientUnits="userSpaceOnUse" /><linearGradient
       inkscape:collect="always"
       xlink:href="#linearGradient981"
       id="linearGradient973"
       x1="479.151"
       y1="799.98651"
       x2="1091.76"
       y2="799.98651"
       gradientUnits="userSpaceOnUse" /></defs><g
     id="Layer_x0020_1"
     transform="translate(0,-1088)"><rect
       style="opacity:0.83699999;fill:#f0f2f4;fill-opacity:0.9952153;stroke:none;stroke-width:0.79483557;stroke-linecap:round;stroke-linejoin:round;stroke-miterlimit:4;stroke-dasharray:none;stroke-dashoffset:0;stroke-opacity:1;paint-order:normal"
       id="rect945"
       width="512"
       height="512"
       x="0"
       y="1088" /><rect
       class="fil0"
       height="1600"
       width="1600"
       y="0.0011811"
       id="rect30"
       x="0"
       style="fill:none" /><g
       clip-path="url(#id3)"
       id="g99"><g
         id="_309162296" /></g><g
       clip-path="url(#id7)"
       id="g138"><g
         id="_310058888" /></g><g
       id="g4263"
       transform="matrix(0.41360914,0,0,0.41360914,-74.885409,1013.1131)"><path
   style="fill:url(#linearGradient953);fill-opacity:1.0"
   id="_305298080"
   d="m 786.217,197.068 c 33.3898,1.78228 178.487,1.51654 180.241,43.3559 5.81221,125.346 22.7162,182.76 37.011,209.076 -5.36339,-0.80315 -10.8472,-1.22362 -16.4256,-1.22362 h -390.339 c -10.1197,0 -19.9311,1.37717 -29.2642,3.94252 14.5937,-24.9992 32.5158,-81.9615 38.5347,-211.794 1.75512,-41.8394 146.854,-41.5736 180.243,-43.3559 h -10e-4 v -0.001 z"
   class="fil1"
   inkscape:connector-curvature="0" /><path
   style="fill:url(#linearGradient955);fill-opacity:1"
   id="_305297288"
   d="m 786.217,1402.93 c 33.3898,-1.7823 178.487,-1.5165 180.241,-43.3559 5.81221,-125.346 22.7162,-182.76 37.011,-209.076 -5.36339,0.8032 -10.8472,1.2248 -16.4256,1.2248 h -390.339 c -10.1197,0 -19.9311,-1.3783 -29.2642,-3.9437 14.5937,24.9992 32.5158,81.9615 38.5347,211.794 1.75512,41.8394 146.854,41.5736 180.243,43.3559 h -10e-4 v 0 z"
   class="fil1"
   inkscape:connector-curvature="0" /><path
   id="_305297600"
   d="m 1091.76,582.324 v 16.4032 6.29055 c -13.4906,7.56969 -22.6595,22.0193 -22.6595,38.5099 v 46.1185 c 0,16.4906 9.1689,30.9402 22.6595,38.5099 v 6.81851 14.7366 52.9973 0.49842 1.71969 c -2.7437,1.8874 -4.5531,5.04803 -4.5531,8.61142 v 185.704 c 0,3.56341 1.8094,6.72401 4.5531,8.61141 v 8.9729 20.7803 2.9539 c 0,61.1244 -50.0103,111.135 -111.135,111.135 H 590.286 c -61.1244,0 -111.135,-50.0103 -111.135,-111.135 V 559.41249 c 0,-61.1256 50.0103,-111.135 111.135,-111.135 h 390.339 c 61.1244,0 111.135,50.0091 111.135,111.135 v 22.9122 10e-4 -10e-4 z"
   class="fil2"
   inkscape:connector-curvature="0"
   style="fill:url(#linearGradient973);fill-opacity:1;stroke:#e2e6eb;stroke-opacity:0.99607843;stroke-width:1.69241908;stroke-miterlimit:4;stroke-dasharray:none" /><path
   id="_307664560"
   d="m 579.828,488.099 h 411.245 c 36.4441,0 66,29.5559 66,66 v 491.77 c 0,36.4429 -29.5559,65.9989 -66,65.9989 H 579.828 c -36.4429,0 -65.9989,-29.5571 -65.9989,-66.0012 l -0.001,-491.76902 c 0.001,-36.4441 29.5571,-66 66.0012,-66 h -10e-4 z"
   class="fil3"
   inkscape:connector-curvature="0"
   style="fill:#212121;stroke:#e2e6eb;stroke-opacity:0.99607843;stroke-width:1.93419323;stroke-miterlimit:4;stroke-dasharray:none" /><path
   id="_305297024"
   d="M 1102.79,727.48 V 605.689 c 0.711,-0.0839 1.4315,-0.12992 2.1591,-0.13583 l 0.045,-10e-4 h 0.026 0.091 v 0 0.006 c 8.6964,0.24094 15.7287,27.4689 15.7287,61.0276 0,33.5563 -7.0323,60.7855 -15.7287,61.0264 v 0.006 0 l -0.091,-10e-4 -0.026,10e-4 -0.045,-0.002 c -0.7276,-0.006 -1.4481,-0.052 -2.1591,-0.13583 z"
   class="fil4"
   inkscape:connector-curvature="0"
   style="fill:#c6c8c9" /><path
   id="_305297504"
   d="m 1102.79,726.613 v -0.81378 h 6.0473 c -0.3213,0.30827 -0.6473,0.58228 -0.9756,0.81378 z m 0,-2.9811 v -0.81378 h 8.3681 c -0.1736,0.28347 -0.3496,0.55512 -0.5268,0.81378 z m 0,-2.9811 v -0.81496 h 9.9473 c -0.1288,0.27874 -0.2587,0.55039 -0.3898,0.81496 z m 0,-2.9811 v -0.81496 h 11.1886 l -0.3154,0.81496 z m 0,-2.9811 v -0.81496 h 12.2185 l -0.2646,0.81496 z m 0,-2.9811 v -0.81496 h 13.0984 l -0.2268,0.81496 h -12.8717 z m 0,-2.9811 v -0.81496 h 13.8614 l -0.1984,0.81496 z m 0,-2.9811 v -0.81496 h 14.5299 l -0.1748,0.81496 z m 0,-2.9811 v -0.81496 h 15.1193 l -0.1547,0.81496 z m 0,-2.9811 v -0.81496 h 15.6354 l -0.1346,0.81496 z m 0,-2.9811 v -0.81496 h 16.0913 l -0.1181,0.81496 z m 0,-2.9811 v -0.81496 h 16.4906 l -0.1039,0.81496 h -16.3866 z m 0,-2.9811 v -0.81496 h 16.8378 l -0.091,0.81496 h -16.7469 z m 0,-2.9811 v -0.81496 h 17.1354 l -0.077,0.81496 h -17.0587 z m 0,-2.9811 v -0.81496 h 17.3894 l -0.065,0.81496 z m 0,-2.98228 v -0.81378 h 17.5973 l -0.052,0.81378 z m 0,-2.9811 v -0.81378 h 17.7662 l -0.041,0.81378 h -17.7248 z m 0,-2.9811 v -0.81378 h 17.8949 l -0.031,0.81378 h -17.8642 z m 0,-2.9811 v -0.81496 h 17.9823 l -0.019,0.81496 h -17.9634 z m 0,-2.9811 v -0.81496 h 18.0343 l -0.011,0.81496 h -18.0236 z m 0,-2.9811 v -0.81496 h 18.0484 v 0.40866 0.4063 z m 0,-2.9811 v -0.81496 h 18.0236 l 0.011,0.81496 h -18.0343 z m 0,-2.9811 v -0.81496 h 17.9634 l 0.019,0.81496 h -17.9823 z m 0,-2.9811 v -0.81496 h 17.8642 l 0.031,0.81496 h -17.8949 z m 0,-2.9811 v -0.81496 h 17.7248 l 0.041,0.81496 h -17.7662 z m 0,-2.9811 v -0.81496 h 17.5453 l 0.052,0.81496 z m 0,-2.9811 v -0.81496 h 17.3244 l 0.064,0.81496 h -17.3882 z m 0,-2.9811 v -0.81496 h 17.0587 l 0.077,0.81496 h -17.1354 z m 0,-2.9811 v -0.81496 h 16.7469 l 0.091,0.81496 h -16.8378 z m 0,-2.9811 v -0.81496 h 16.3866 l 0.1039,0.81496 h -16.4906 z m 0,-2.98228 v -0.81378 h 15.9732 l 0.1169,0.81378 h -16.0902 z m 0,-2.9811 v -0.81378 h 15.5008 l 0.1346,0.81378 z m 0,-2.9811 v -0.81378 h 14.9646 l 0.1547,0.81378 z m 0,-2.9811 v -0.81378 h 14.3551 l 0.1748,0.81378 z m 0,-2.9811 v -0.81496 h 13.663 l 0.1984,0.81496 z m 0,-2.9811 v -0.81496 h 12.8717 l 0.2268,0.81496 h -13.0984 z m 0,-2.9811 v -0.81496 h 11.9539 l 0.2646,0.81496 z m 0,-2.9811 v -0.81496 h 10.8732 c 0.1063,0.26693 0.2114,0.53858 0.3154,0.81496 z m 0,-2.9811 v -0.81496 h 9.5575 c 0.1311,0.26457 0.2598,0.53622 0.3886,0.81496 z m 0,-2.9811 v -0.81496 h 7.8413 c 0.1772,0.26102 0.352,0.5315 0.5268,0.81496 z m 0,-2.9811 v -0.81496 h 5.0717 c 0.3295,0.2315 0.6555,0.50551 0.9756,0.81496 z"
   class="fil5"
   inkscape:connector-curvature="0"
   style="fill:#344859;fill-opacity:1" /><path
   id="_305296424"
   d="m 1102.79,727.809 c -16.748,-4.60394 -29.1449,-20.0055 -29.1449,-38.1638 v -46.1185 c 0,-18.1595 12.3969,-33.5599 29.1449,-38.1638 v 122.446 z"
   class="fil6"
   inkscape:connector-curvature="0"
   style="fill:#525c66;fill-opacity:1" /><path
   id="_305296880"
   d="m 1091.76,605.018 c -13.4906,7.56969 -22.6595,22.0193 -22.6595,38.5099 v 46.1185 c 0,16.4906 9.1689,30.9402 22.6595,38.5099 v -123.138 z"
   class="fil4"
   inkscape:connector-curvature="0"
   style="fill:#c6c8c9;fill-opacity:0.29365081" /><path
   id="_305296856"
   d="m 1091.8142,1010.2677 c -2.809,-1.9323 -4.6615,-5.1682 -4.6615,-8.8166 V 811.32204 c 0,-3.6483 1.8525,-6.88425 4.6615,-8.81662 v 207.76148 z"
   class="fil4"
   inkscape:connector-curvature="0"
   style="fill:#23272a;fill-opacity:1;stroke-width:1.02382874" /><path
   id="_307667104"
   d="m 1094.91,807.648 v 0 c 3.2528,-10e-4 5.8913,11.1945 5.8913,24.998 v 147.486 c 0,13.8036 -2.6385,24.9992 -5.8913,24.9992 v 0 c -3.2528,0 -5.8913,-11.19692 -5.8913,-25.00162 v -147.483 c 0,-13.8047 2.6374,-25.0004 5.8902,-25.0004 v 0.001 z"
   class="fil6"
   inkscape:connector-curvature="0"
   style="fill:#73818c;fill-opacity:1;stroke:#e2e6eb;stroke-opacity:0.99607843;stroke-width:0.27562254;stroke-miterlimit:4;stroke-dasharray:none" /><path
   style="fill:#dff3f6;fill-opacity:1"
   id="_305296544"
   d="m 688.413,643.649 c 0,20.1165 -16.3075,36.4252 -36.4252,36.4252 -20.1165,0 -36.4252,-16.3087 -36.4252,-36.4252 0,-20.1177 16.3087,-36.4252 36.4252,-36.4252 20.1177,0 36.4252,16.3075 36.4252,36.4252 z"
   class="fil1"
   inkscape:connector-curvature="0" /><path
   style="fill:#dff3f6;fill-opacity:1;fill-rule:nonzero"
   id="_307668592"
   d="m 765.855,679.898 h -8.00079 v -56.1083 c -1.92874,2.01969 -4.44921,4.04055 -7.57678,6.06142 -3.14173,2.02087 -5.95158,3.53977 -8.44134,4.54252 v -8.5004 c 4.47874,-2.32087 8.39646,-5.12599 11.752,-8.41654 3.33898,-3.30591 5.72362,-6.49607 7.11969,-9.60119 h 5.14725 v 72.0225 z"
   class="fil7"
   inkscape:connector-curvature="0" /><path
   style="fill:#dff3f6;fill-opacity:1;fill-rule:nonzero"
   id="_307669720"
   d="m 812.97,679.898 h -8.00079 v -56.1083 c -1.92874,2.01969 -4.44921,4.04055 -7.57678,6.06142 -3.14173,2.02087 -5.95158,3.53977 -8.44134,4.54252 v -8.5004 c 4.47874,-2.32087 8.39646,-5.12599 11.752,-8.41654 3.33898,-3.30591 5.72362,-6.49607 7.11969,-9.60119 h 5.14725 v 72.0225 z"
   class="fil7"
   inkscape:connector-curvature="0" /><path
   style="fill:#dff3f6;fill-opacity:1;fill-rule:nonzero"
   id="_307670392"
   d="m 841.138,637.967 v -10.0193 h 9.1252 v 10.0193 z m 0,41.9315 v -10.0358 h 9.1252 v 10.0358 z"
   class="fil7"
   inkscape:connector-curvature="0" /><path
   style="fill:#dff3f6;fill-opacity:1;fill-rule:nonzero"
   id="_307671208"
   d="m 895.361,679.898 h -8.00079 v -56.1083 c -1.92874,2.01969 -4.44921,4.04055 -7.57678,6.06142 -3.14173,2.02087 -5.95158,3.53977 -8.44134,4.54252 v -8.5004 c 4.47874,-2.32087 8.39646,-5.12599 11.752,-8.41654 3.33898,-3.30591 5.72244,-6.49607 7.11969,-9.60119 h 5.14725 v 72.0225 z"
   class="fil7"
   inkscape:connector-curvature="0" /><path
   style="fill:#dff3f6;fill-opacity:1;fill-rule:nonzero"
   id="_307672624"
   d="m 944.738,679.898 v -17.1662 h -28.2839 v -8.08229 l 29.7567,-46.474 h 6.54331 v 46.474 h 8.80512 v 8.08229 h -8.80512 v 17.1662 h -8.01615 z m 0,-25.2484 v -32.3303 l -20.4059,32.3303 z"
   class="fil7"
   inkscape:connector-curvature="0" /><path
   style="fill:#dff3f6;fill-opacity:1;fill-rule:nonzero"
   id="_307673248"
   d="m 613.911,756.405 3.72992,-0.32717 c 0.1748,1.49646 0.58465,2.72126 1.23189,3.6815 0.64843,0.96142 1.65,1.73386 3.00709,2.32559 1.35709,0.59055 2.88898,0.88347 4.58622,0.88347 1.51063,0 2.84055,-0.22323 3.99567,-0.6685 1.15512,-0.45237 2.0185,-1.06417 2.58189,-1.84371 0.56339,-0.78661 0.84921,-1.63583 0.84921,-2.56181 0,-0.93897 -0.27165,-1.75393 -0.82086,-2.45669 -0.54331,-0.70275 -1.44095,-1.2874 -2.68701,-1.76102 -0.80788,-0.31299 -2.5748,-0.7996 -5.32441,-1.46102 -2.74252,-0.66141 -4.67008,-1.2815 -5.76969,-1.86496 -1.42677,-0.74527 -2.49213,-1.67835 -3.19488,-2.78503 -0.69567,-1.10669 -1.0441,-2.34449 -1.0441,-3.72285 0,-1.50354 0.42519,-2.91614 1.2815,-4.22481 0.85512,-1.31575 2.10827,-2.31024 3.75118,-2.99291 1.64882,-0.67441 3.47244,-1.01575 5.48386,-1.01575 2.22047,0 4.16929,0.35434 5.86772,1.07126 1.69134,0.70985 2.99291,1.76102 3.90473,3.14646 0.90472,1.38425 1.39843,2.95748 1.46811,4.71142 l -3.7937,0.28583 c -0.20788,-1.88622 -0.89764,-3.32008 -2.07402,-4.28032 -1.1752,-0.96732 -2.90906,-1.44803 -5.20512,-1.44803 -2.3941,0 -4.13504,0.43819 -5.23465,1.31575 -1.09252,0.87638 -1.64173,1.93465 -1.64173,3.16654 0,1.07835 0.38976,1.96299 1.16221,2.65158 0.76535,0.69567 2.74843,1.40551 5.96457,2.12953 3.21496,0.73111 5.42126,1.36417 6.6189,1.90748 1.73976,0.8067 3.02717,1.82362 3.85512,3.04843 0.82795,1.23189 1.23898,2.65158 1.23898,4.25197 0,1.59449 -0.45237,3.09095 -1.36417,4.49646 -0.91181,1.40551 -2.22047,2.49803 -3.92481,3.28465 -1.70551,0.77953 -3.62599,1.16929 -5.7567,1.16929 -2.70709,0 -4.97599,-0.38976 -6.79961,-1.18347 -1.82953,-0.78543 -3.26339,-1.9689 -4.30748,-3.5563 -1.03701,-1.57913 -1.5874,-3.37559 -1.63583,-5.37284 z m 42.9213,9.60473 v -3.18071 c -1.69134,2.44961 -3.9815,3.66732 -6.87638,3.66732 -1.27441,0 -2.47087,-0.24331 -3.57756,-0.72992 -1.10669,-0.4878 -1.92756,-1.10669 -2.46378,-1.84488 -0.54331,-0.7441 -0.9189,-1.64882 -1.13504,-2.72126 -0.14528,-0.72402 -0.22205,-1.86496 -0.22205,-3.4311 v -13.4114 h 3.66732 v 12.0059 c 0,1.92047 0.0768,3.20788 0.22323,3.87638 0.23622,0.96732 0.72402,1.7185 1.46811,2.27599 0.75236,0.54921 1.67717,0.82087 2.77677,0.82087 1.09961,0 2.12953,-0.27756 3.09803,-0.84213 0.96732,-0.56339 1.64882,-1.33583 2.04567,-2.30315 0.40394,-0.97441 0.60591,-2.38701 0.60591,-4.23189 v -11.602 h 3.66732 v 21.652 h -3.27756 z m 9.03308,0 v -21.652 h 3.3 v 3.07559 c 1.59331,-2.37992 3.89055,-3.56929 6.88937,-3.56929 1.30866,0 2.5063,0.23622 3.59882,0.70276 1.09961,0.47244 1.91339,1.08543 2.45669,1.85079 0.55039,0.75826 0.92598,1.66299 1.14803,2.70709 0.13228,0.68267 0.20197,1.87323 0.20197,3.57047 v 13.3146 h -3.67441 v -13.1752 c 0,-1.48937 -0.13937,-2.61024 -0.4252,-3.35433 -0.28464,-0.73819 -0.79252,-1.32992 -1.51654,-1.76811 -0.7311,-0.44528 -1.58032,-0.66851 -2.56181,-0.66851 -1.56614,0 -2.90906,0.50197 -4.05,1.49055 -1.13504,0.99449 -1.69843,2.87362 -1.69843,5.6504 v 11.8252 h -3.66851 z m 21.7571,-6.46536 3.62599,-0.57047 c 0.20197,1.45394 0.77244,2.56772 1.70551,3.34725 0.92598,0.77244 2.22756,1.16221 3.90473,1.16221 1.68425,0 2.93622,-0.34843 3.75118,-1.02992 0.81378,-0.68977 1.2248,-1.49646 1.2248,-2.41536 0,-0.83504 -0.36142,-1.48228 -1.08543,-1.96299 -0.50197,-0.32717 -1.75394,-0.73701 -3.75118,-1.23898 -2.68701,-0.6815 -4.55906,-1.26614 -5.59607,-1.76693 -1.03701,-0.49488 -1.83071,-1.18347 -2.36693,-2.06102 -0.53504,-0.87638 -0.80669,-1.8437 -0.80669,-2.90197 0,-0.96733 0.22204,-1.85787 0.6685,-2.67874 0.43819,-0.82914 1.04291,-1.51063 1.80236,-2.05394 0.57047,-0.41693 1.35,-0.77953 2.3315,-1.07126 0.98858,-0.29292 2.04567,-0.43819 3.17362,-0.43819 1.69843,0 3.1878,0.25039 4.4752,0.73701 1.2874,0.48779 2.23347,1.14803 2.84646,1.98425 0.61181,0.84212 1.02992,1.95473 1.25906,3.35433 l -3.58347,0.4937 c -0.16772,-1.11378 -0.64016,-1.98307 -1.41969,-2.61024 -0.77953,-0.62599 -1.88622,-0.93898 -3.31299,-0.93898 -1.68425,0 -2.88898,0.27874 -3.60591,0.83504 -0.72402,0.5563 -1.08543,1.21063 -1.08543,1.95591 0,0.48071 0.15354,0.90473 0.45236,1.2874 0.29882,0.39685 0.76536,0.71693 1.40551,0.9815 0.36969,0.13228 1.44803,0.44527 3.24331,0.93307 2.59606,0.69567 4.40551,1.25906 5.42953,1.70433 1.02992,0.43819 1.83662,1.08543 2.42126,1.92874 0.58465,0.84212 0.87756,1.88504 0.87756,3.13819 0,1.2248 -0.3626,2.37402 -1.07244,3.45945 -0.71693,1.07835 -1.74685,1.91339 -3.08977,2.50512 -1.34291,0.59173 -2.86772,0.88346 -4.56614,0.88346 -2.81811,0 -4.96181,-0.58346 -6.43701,-1.75276 -1.47638,-1.16929 -2.41536,-2.90315 -2.81929,-5.19922 z m 37.1658,-0.50787 3.79252,0.46535 c -0.59764,2.22047 -1.70433,3.94016 -3.3189,5.16496 -1.62165,1.21772 -3.68858,1.82953 -6.20197,1.82953 -3.16654,0 -5.67874,-0.97323 -7.53071,-2.92205 -1.85787,-1.94882 -2.78386,-4.68425 -2.78386,-8.2063 0,-3.64725 0.94016,-6.47244 2.81221,-8.48386 1.87913,-2.01142 4.30866,-3.02008 7.3004,-3.02008 2.89606,0 5.26181,0.9874 7.09252,2.95748 1.8378,1.97008 2.75669,4.74685 2.75669,8.31733 0,0.22205 -0.007,0.54921 -0.0213,0.9815 h -16.1469 c 0.13228,2.37992 0.80669,4.20355 2.0185,5.4626 1.21063,1.26732 2.71417,1.90039 4.52362,1.90039 1.34291,0 2.49213,-0.35551 3.44528,-1.06535 0.95315,-0.70276 1.70551,-1.82953 2.26181,-3.3815 z m -12.0473,-5.9374 h 12.0886 c -0.15945,-1.81654 -0.62598,-3.1878 -1.38425,-4.09252 -1.16929,-1.4126 -2.68701,-2.12244 -4.54488,-2.12244 -1.68425,0 -3.10394,0.56338 -4.25315,1.69134 -1.14803,1.12677 -1.7811,2.6374 -1.9063,4.52362 z m 28.4658,9.62599 0.52913,3.24331 c -1.02992,0.21496 -1.95591,0.32716 -2.76969,0.32716 -1.33701,0 -2.36693,-0.20905 -3.10512,-0.63425 -0.72992,-0.41693 -1.24488,-0.97441 -1.54488,-1.66299 -0.29882,-0.6815 -0.45236,-2.12953 -0.45236,-4.32874 v -12.4583 h -2.69291 v -2.85354 h 2.69291 v -5.36575 l 3.65433,-2.19921 v 7.56496 h 3.68858 v 2.85354 h -3.68858 v 12.6602 c 0,1.05 0.0626,1.7185 0.1878,2.0185 0.13228,0.29882 0.34134,0.53504 0.63307,0.71575 0.29291,0.1748 0.70984,0.26456 1.25315,0.26456 0.41102,0 0.94606,-0.0484 1.61457,-0.14527 z m 14.4142,-22.689 v -3.52914 h 19.3476 v 2.85354 c -1.90039,2.02559 -3.78543,4.71851 -5.65866,8.07284 -1.86496,3.35551 -3.31299,6.81378 -4.32874,10.3571 -0.73701,2.50512 -1.20354,5.24055 -1.40551,8.2193 h -3.77244 c 0.0413,-2.35276 0.50079,-5.19213 1.38543,-8.52638 0.88346,-3.32599 2.14961,-6.54213 3.79961,-9.63189 1.65709,-3.08977 3.40984,-5.7 5.27599,-7.81536 h -14.6433 z m 25.0205,8.49804 v -4.17638 h 4.18229 v 4.17638 z m 0,17.4756 v -4.18229 h 4.18229 v 4.18229 z m 23.3847,0 h -3.66732 v -23.3847 c -0.88465,0.84212 -2.03976,1.68425 -3.47362,2.52638 -1.44095,0.84212 -2.72835,1.4752 -3.86929,1.89213 v -3.54213 c 2.05276,-0.96733 3.84921,-2.13662 5.38701,-3.50788 1.53071,-1.37835 2.62323,-2.70709 3.26339,-4.00158 h 2.35984 v 30.0177 z m 9.40276,-14.7413 c 0,-3.53504 0.3626,-6.3815 1.09252,-8.53229 0.72402,-2.15788 1.81063,-3.82087 3.24331,-4.99016 1.43386,-1.16929 3.23622,-1.75394 5.40827,-1.75394 1.60748,0 3.01299,0.32716 4.22362,0.97441 1.21063,0.64015 2.2063,1.57323 3,2.79095 0.78543,1.21772 1.40551,2.7 1.85079,4.44685 0.45236,1.74685 0.67559,4.09961 0.67559,7.06418 0,3.50788 -0.3626,6.33426 -1.07953,8.49095 -0.72401,2.15788 -1.80236,3.82087 -3.23622,4.99725 -1.43386,1.17638 -3.24213,1.76102 -5.43425,1.76102 -2.88189,0 -5.1437,-1.02992 -6.78544,-3.09685 -1.97008,-2.48504 -2.95866,-6.54213 -2.95866,-12.1524 z m 3.77244,0 c 0,4.90748 0.57756,8.17087 1.72559,9.79961 1.14921,1.62165 2.56181,2.43662 4.24607,2.43662 1.69134,0 3.10276,-0.82205 4.25079,-2.45079 1.14921,-1.62756 1.72677,-4.89213 1.72677,-9.78544 0,-4.92047 -0.57756,-8.19095 -1.72677,-9.80552 -1.14803,-1.62165 -2.57362,-2.42953 -4.28504,-2.42953 -1.69134,0 -3.03543,0.71692 -4.0441,2.1437 -1.26024,1.81654 -1.89331,5.18504 -1.89331,10.0913 z"
   class="fil7"
   inkscape:connector-curvature="0" /><path
   style="fill:#dff3f6;fill-opacity:1;fill-rule:nonzero"
   id="_307677304"
   d="m 621.203,992.299 h -2.79567 v -19.6075 c -0.67441,0.7063 -1.55433,1.41142 -2.64803,2.11772 -1.09724,0.7063 -2.07874,1.2378 -2.94921,1.5874 v -2.97047 c 1.56496,-0.81024 2.93386,-1.79055 4.10669,-2.94095 1.16693,-1.15512 1.99961,-2.27008 2.48858,-3.35551 h 1.79764 v 25.1693 z"
   class="fil7"
   inkscape:connector-curvature="0" /><path
   style="fill:#dff3f6;fill-opacity:1;fill-rule:nonzero"
   id="_307678048"
   d="m 629.508,985.684 2.79567,-0.40866 c 0.32362,1.74567 0.86929,3 1.63937,3.77008 0.7748,0.77008 1.71378,1.15512 2.82284,1.15512 1.31457,0 2.42953,-0.50197 3.33662,-1.50473 0.90236,-1.00394 1.35827,-2.24764 1.35827,-3.72992 0,-1.41142 -0.41929,-2.57835 -1.25669,-3.49488 -0.84449,-0.91654 -1.91102,-1.37717 -3.20433,-1.37717 -0.5315,0 -1.18937,0.11693 -1.97362,0.3437 l 0.31181,-2.70118 c 0.18661,0.0224 0.33425,0.0343 0.45118,0.0343 1.18937,0 2.26063,-0.3437 3.21496,-1.02638 0.95551,-0.68268 1.43268,-1.73976 1.43268,-3.16299 0,-1.12677 -0.3496,-2.06575 -1.04528,-2.80158 -0.69449,-0.74055 -1.59095,-1.11378 -2.68937,-1.11378 -1.0878,0 -1.99488,0.37914 -2.71654,1.12559 -0.72756,0.75236 -1.1941,1.88504 -1.40079,3.39095 l -2.79567,-0.54921 c 0.33898,-2.06575 1.1185,-3.66496 2.32914,-4.79646 1.21417,-1.13268 2.72126,-1.70433 4.52599,-1.70433 1.24134,0 2.38701,0.29764 3.4311,0.8811 1.04646,0.58937 1.84725,1.38898 2.40354,2.40473 0.55158,1.01575 0.83386,2.08937 0.83386,3.23268 0,1.07953 -0.26575,2.06575 -0.79606,2.95866 -0.53032,0.88701 -1.30984,1.59331 -2.34567,2.1189 1.34764,0.3378 2.39291,1.05 3.14173,2.12953 0.74291,1.07362 1.11378,2.42126 1.11378,4.03819 0,2.18858 -0.72166,4.0441 -2.17559,5.56772 -1.44803,1.52244 -3.28347,2.28189 -5.50158,2.28189 -1.99961,0 -3.66024,-0.65433 -4.98189,-1.96772 -1.32047,-1.3063 -2.07402,-3.00473 -2.25945,-5.0941 z"
   class="fil7"
   inkscape:connector-curvature="0" /><path
   style="fill:#dff3f6;fill-opacity:1;fill-rule:nonzero"
   id="_307678768"
   d="m 649.874,977.645 v -3.50197 h 3.18898 v 3.50197 z m 0,14.6528 v -3.50669 h 3.18898 v 3.50669 z"
   class="fil7"
   inkscape:connector-curvature="0" /><path
   style="fill:#dff3f6;fill-opacity:1;fill-rule:nonzero"
   id="_307679392"
   d="m 672.991,989.339 v 2.95866 h -15.0626 c -0.0213,-0.74055 0.085,-1.45276 0.3248,-2.13543 0.38032,-1.13268 0.99567,-2.24173 1.84016,-3.33898 0.84922,-1.09016 2.06929,-2.35748 3.66024,-3.79252 2.47795,-2.23465 4.15512,-4.00276 5.02441,-5.31024 0.87048,-1.30158 1.3063,-2.53819 1.3063,-3.7004 0,-1.2189 -0.39921,-2.24646 -1.18937,-3.08622 -0.79606,-0.83504 -1.83071,-1.25551 -3.10276,-1.25551 -1.34764,0 -2.4248,0.4441 -3.2315,1.33701 -0.81142,0.88701 -1.22126,2.11772 -1.23189,3.6874 l -2.8748,-0.32008 c 0.19607,-2.36339 0.93898,-4.16103 2.22284,-5.39882 1.28386,-1.23661 3.01299,-1.85551 5.17796,-1.85551 2.18504,0 3.91536,0.67087 5.18859,2.00197 1.27913,1.33583 1.91575,2.98819 1.91575,4.96063 0,1.00276 -0.18543,1.98898 -0.5622,2.95866 -0.37205,0.96851 -0.99213,1.98898 -1.85669,3.05788 -0.86575,1.07362 -2.30315,2.5441 -4.31339,4.41142 -1.67717,1.55197 -2.75433,2.60197 -3.2315,3.15709 -0.47717,0.54803 -0.87048,1.10315 -1.18347,1.66299 h 11.1791 z"
   class="fil7"
   inkscape:connector-curvature="0" /><path
   style="fill:#dff3f6;fill-opacity:1;fill-rule:nonzero"
   id="_307680328"
   d="m 687.646,992.299 h -2.79567 v -19.6075 c -0.67441,0.7063 -1.55433,1.41142 -2.64803,2.11772 -1.09724,0.7063 -2.07874,1.2378 -2.94921,1.5874 v -2.97047 c 1.56496,-0.81024 2.93386,-1.79055 4.10669,-2.94095 1.16693,-1.15512 1.99961,-2.27008 2.48858,-3.35551 h 1.79764 v 25.1693 z"
   class="fil7"
   inkscape:connector-curvature="0" /><path
   style="fill:#dff3f6;fill-opacity:1;fill-rule:nonzero"
   id="_307681864"
   d="m 772.028,973.373 -2.78032,0.23858 c -0.24921,-1.20709 -0.59882,-2.08819 -1.05591,-2.6315 -0.75827,-0.8811 -1.69252,-1.31811 -2.80158,-1.31811 -0.89055,0 -1.67008,0.27402 -2.34331,0.82205 -0.88228,0.7063 -1.57677,1.73976 -2.08583,3.09331 -0.50433,1.35354 -0.77008,3.28465 -0.79016,5.79449 0.67323,-1.12677 1.49528,-1.96654 2.47205,-2.51457 0.97087,-0.54331 1.99488,-0.81732 3.06142,-0.81732 1.86732,0 3.45355,0.75236 4.76457,2.26417 1.30984,1.51181 1.96772,3.46063 1.96772,5.85355 0,1.57559 -0.31299,3.03425 -0.92834,4.3878 -0.61536,1.34764 -1.46339,2.38701 -2.54056,3.10512 -1.07717,0.71693 -2.29843,1.07362 -3.66732,1.07362 -2.33504,0 -4.23307,-0.94016 -5.70354,-2.8311 -1.4752,-1.88504 -2.20631,-4.99488 -2.20631,-9.32481 0,-4.8437 0.81142,-8.36221 2.44016,-10.5626 1.41732,-1.91457 3.326,-2.87717 5.73545,-2.87717 1.78818,0 3.25747,0.55512 4.40314,1.66299 1.14685,1.10315 1.83071,2.63268 2.05867,4.5815 z m -11.4224,10.8012 c 0,1.06299 0.20669,2.07756 0.61535,3.04606 0.40867,0.96969 0.9815,1.70433 1.71379,2.21221 0.73818,0.50787 1.51181,0.76417 2.3185,0.76417 1.18348,0 2.19567,-0.52441 3.04489,-1.57559 0.84921,-1.05 1.27441,-2.47441 1.27441,-4.27087 0,-1.73386 -0.42048,-3.09921 -1.25788,-4.09725 -0.83858,-0.99803 -1.89449,-1.4941 -3.16772,-1.4941 -1.2685,0 -2.33976,0.49607 -3.22087,1.4941 -0.87992,0.99804 -1.32047,2.30551 -1.32047,3.92126 z"
   class="fil7"
   inkscape:connector-curvature="0" /><path
   style="fill:#dff3f6;fill-opacity:1;fill-rule:nonzero"
   id="_307682440"
   d="m 777.892,977.645 v -3.50197 h 3.18898 v 3.50197 z m 0,14.6528 v -3.50669 h 3.18898 v 3.50669 z"
   class="fil7"
   inkscape:connector-curvature="0" /><path
   style="fill:#dff3f6;fill-opacity:1;fill-rule:nonzero"
   id="_307683184"
   d="m 786.32,985.684 2.79685,-0.40866 c 0.32362,1.74567 0.86929,3 1.63937,3.77008 0.7748,0.77008 1.71378,1.15512 2.82165,1.15512 1.31575,0 2.43071,-0.50197 3.3378,-1.50473 0.90236,-1.00394 1.35827,-2.24764 1.35827,-3.72992 0,-1.41142 -0.41929,-2.57835 -1.25669,-3.49488 -0.84449,-0.91654 -1.91102,-1.37717 -3.20433,-1.37717 -0.5315,0 -1.18937,0.11693 -1.97362,0.3437 l 0.31181,-2.70118 c 0.18543,0.0224 0.33425,0.0343 0.45118,0.0343 1.18819,0 2.26063,-0.3437 3.21496,-1.02638 0.95551,-0.68268 1.43268,-1.73976 1.43268,-3.16299 0,-1.12677 -0.35079,-2.06575 -1.04528,-2.80158 -0.69449,-0.74055 -1.59095,-1.11378 -2.68937,-1.11378 -1.0878,0 -1.99488,0.37914 -2.71654,1.12559 -0.72756,0.75236 -1.1941,1.88504 -1.40079,3.39095 l -2.79567,-0.54921 c 0.33898,-2.06575 1.1185,-3.66496 2.32914,-4.79646 1.21417,-1.13268 2.72126,-1.70433 4.52599,-1.70433 1.24134,0 2.38701,0.29764 3.4311,0.8811 1.04646,0.58937 1.84725,1.38898 2.40354,2.40473 0.55158,1.01575 0.83386,2.08937 0.83386,3.23268 0,1.07953 -0.26575,2.06575 -0.79606,2.95866 -0.53032,0.88701 -1.30984,1.59331 -2.34567,2.1189 1.34764,0.3378 2.39291,1.05 3.14173,2.12953 0.74291,1.07362 1.11378,2.42126 1.11378,4.03819 0,2.18858 -0.72166,4.0441 -2.17559,5.56772 -1.44803,1.52244 -3.28347,2.28189 -5.50158,2.28189 -1.99961,0 -3.66142,-0.65433 -4.98189,-1.96772 -1.32047,-1.3063 -2.07402,-3.00473 -2.26063,-5.0941 z"
   class="fil7"
   inkscape:connector-curvature="0" /><path
   style="fill:#dff3f6;fill-opacity:1;fill-rule:nonzero"
   id="_307684264"
   d="m 805.128,985.733 2.93858,-0.2752 c 0.2185,1.57559 0.72165,2.75433 1.51299,3.54803 0.79606,0.7937 1.75039,1.19055 2.87008,1.19055 1.34764,0 2.48858,-0.55984 3.41693,-1.6748 0.93307,-1.11969 1.40079,-2.60197 1.40079,-4.44685 0,-1.7563 -0.44528,-3.13937 -1.34291,-4.15512 -0.89646,-1.01457 -2.06929,-1.52244 -3.52323,-1.52244 -0.90118,0 -1.71378,0.22796 -2.44016,0.67677 -0.72756,0.45001 -1.29449,1.03347 -1.70906,1.7504 l -2.62441,-0.37323 2.2063,-12.8728 h 11.3327 v 2.94095 h -9.09449 l -1.22953,6.73465 c 1.3689,-1.05118 2.8063,-1.57559 4.30748,-1.57559 1.99016,0 3.66614,0.75826 5.03504,2.2748 1.36772,1.51772 2.05276,3.46654 2.05276,5.84764 0,2.27008 -0.60354,4.23071 -1.80354,5.88307 -1.46457,2.02441 -3.45945,3.04016 -5.98465,3.04016 -2.07402,0 -3.76654,-0.63662 -5.07756,-1.91457 -1.30984,-1.27795 -2.05866,-2.97047 -2.2441,-5.07638 z"
   class="fil7"
   inkscape:connector-curvature="0" /><path
   style="fill:#dff3f6;fill-opacity:1;fill-rule:nonzero"
   id="_307685824"
   d="m 877.265,979.937 c 0,-2.96457 0.2752,-5.3504 0.83268,-7.15394 0.55275,-1.80945 1.38071,-3.20433 2.47205,-4.18465 1.0937,-0.98032 2.46732,-1.47047 4.12205,-1.47047 1.22717,0 2.29843,0.27402 3.22205,0.81732 0.92244,0.53622 1.68189,1.31929 2.28543,2.33976 0.6,1.02165 1.07244,2.26417 1.41142,3.72874 0.34488,1.46575 0.51614,3.43819 0.51614,5.92323 0,2.94095 -0.27638,5.31024 -0.82323,7.11969 -0.55157,1.80945 -1.3748,3.20433 -2.46732,4.19055 -1.0937,0.98622 -2.47205,1.47638 -4.14449,1.47638 -2.19567,0 -3.92008,-0.86456 -5.17205,-2.59725 -1.50118,-2.08347 -2.25473,-5.48504 -2.25473,-10.1894 z m 2.8748,0 c 0,4.11496 0.44055,6.85158 1.31693,8.21693 0.8752,1.35945 1.95236,2.04213 3.23504,2.04213 1.28976,0 2.36693,-0.68858 3.24213,-2.05394 0.87638,-1.36536 1.31693,-4.10197 1.31693,-8.20512 0,-4.12559 -0.44055,-6.86811 -1.31693,-8.22166 -0.8752,-1.36063 -1.96299,-2.0374 -3.26693,-2.0374 -1.28976,0 -2.31378,0.60118 -3.08386,1.79764 -0.95906,1.52362 -1.44331,4.34764 -1.44331,8.46142 z"
   class="fil7"
   inkscape:connector-curvature="0" /><path
   style="fill:#dff3f6;fill-opacity:1;fill-rule:nonzero"
   id="_307686952"
   d="m 896.091,979.937 c 0,-2.96457 0.2752,-5.3504 0.83268,-7.15394 0.55275,-1.80945 1.38071,-3.20433 2.47205,-4.18465 1.0937,-0.98032 2.46732,-1.47047 4.12205,-1.47047 1.22717,0 2.29843,0.27402 3.22205,0.81732 0.92244,0.53622 1.68189,1.31929 2.28543,2.33976 0.6,1.02165 1.07244,2.26417 1.41142,3.72874 0.34488,1.46575 0.51496,3.43819 0.51496,5.92323 0,2.94095 -0.2752,5.31024 -0.82205,7.11969 -0.55157,1.80945 -1.3748,3.20433 -2.46732,4.19055 -1.0937,0.98622 -2.47205,1.47638 -4.14449,1.47638 -2.19567,0 -3.92008,-0.86456 -5.17205,-2.59725 -1.50118,-2.08347 -2.25473,-5.48504 -2.25473,-10.1894 z m 2.8748,0 c 0,4.11496 0.44055,6.85158 1.31693,8.21693 0.8752,1.35945 1.95236,2.04213 3.23504,2.04213 1.28976,0 2.36693,-0.68858 3.24213,-2.05394 0.87638,-1.36536 1.31693,-4.10197 1.31693,-8.20512 0,-4.12559 -0.44055,-6.86811 -1.31693,-8.22166 -0.8752,-1.36063 -1.96299,-2.0374 -3.26693,-2.0374 -1.28976,0 -2.31378,0.60118 -3.08386,1.79764 -0.95906,1.52362 -1.44331,4.34764 -1.44331,8.46142 z"
   class="fil7"
   inkscape:connector-curvature="0" /><path
   style="fill:#dff3f6;fill-opacity:1;fill-rule:nonzero"
   id="_307687984"
   d="m 916.473,977.645 v -3.50197 h 3.1878 v 3.50197 z m 0,14.6528 v -3.50669 h 3.1878 v 3.50669 z"
   class="fil7"
   inkscape:connector-curvature="0" /><path
   style="fill:#dff3f6;fill-opacity:1;fill-rule:nonzero"
   id="_307685704"
   d="m 924.898,985.684 2.79685,-0.40866 c 0.32244,1.74567 0.86929,3 1.63937,3.77008 0.7748,0.77008 1.71378,1.15512 2.82165,1.15512 1.31575,0 2.43071,-0.50197 3.3378,-1.50473 0.90236,-1.00394 1.35827,-2.24764 1.35827,-3.72992 0,-1.41142 -0.41929,-2.57835 -1.25787,-3.49488 -0.84331,-0.91654 -1.90984,-1.37717 -3.20315,-1.37717 -0.5315,0 -1.18937,0.11693 -1.97362,0.3437 l 0.31181,-2.70118 c 0.18543,0.0224 0.33425,0.0343 0.45118,0.0343 1.18819,0 2.26063,-0.3437 3.21496,-1.02638 0.95551,-0.68268 1.43268,-1.73976 1.43268,-3.16299 0,-1.12677 -0.35079,-2.06575 -1.04528,-2.80158 -0.69449,-0.74055 -1.59095,-1.11378 -2.68937,-1.11378 -1.0878,0 -1.99606,0.37914 -2.71654,1.12559 -0.72756,0.75236 -1.1941,1.88504 -1.40079,3.39095 l -2.79567,-0.54921 c 0.33898,-2.06575 1.1185,-3.66496 2.32914,-4.79646 1.21417,-1.13268 2.72126,-1.70433 4.52599,-1.70433 1.24134,0 2.38701,0.29764 3.4311,0.8811 1.04646,0.58937 1.84725,1.38898 2.40354,2.40473 0.55158,1.01575 0.83268,2.08937 0.83268,3.23268 0,1.07953 -0.26457,2.06575 -0.79488,2.95866 -0.53032,0.88701 -1.30984,1.59331 -2.34567,2.1189 1.34764,0.3378 2.39291,1.05 3.14055,2.12953 0.74409,1.07362 1.11496,2.42126 1.11496,4.03819 0,2.18858 -0.72166,4.0441 -2.17559,5.56772 -1.44803,1.52244 -3.28347,2.28189 -5.50158,2.28189 -1.99961,0 -3.66142,-0.65433 -4.98189,-1.96772 -1.32047,-1.3063 -2.07402,-3.00473 -2.26063,-5.0941 z"
   class="fil7"
   inkscape:connector-curvature="0" /><path
   style="fill:#dff3f6;fill-opacity:1;fill-rule:nonzero"
   id="_308155008"
   d="m 958.415,989.339 v 2.95866 h -15.0626 c -0.0213,-0.74055 0.085,-1.45276 0.32362,-2.13543 0.3815,-1.13268 0.99685,-2.24173 1.84134,-3.33898 0.84921,-1.09016 2.06929,-2.35748 3.66024,-3.79252 2.47795,-2.23465 4.15394,-4.00276 5.02441,-5.31024 0.87047,-1.30158 1.30512,-2.53819 1.30512,-3.7004 0,-1.2189 -0.39803,-2.24646 -1.18819,-3.08622 -0.79606,-0.83504 -1.83071,-1.25551 -3.10276,-1.25551 -1.34764,0 -2.4248,0.4441 -3.2315,1.33701 -0.81142,0.88701 -1.22126,2.11772 -1.23189,3.6874 l -2.87599,-0.32008 c 0.19725,-2.36339 0.94016,-4.16103 2.22402,-5.39882 1.28386,-1.23661 3.01299,-1.85551 5.17796,-1.85551 2.18504,0 3.91536,0.67087 5.18859,2.00197 1.27913,1.33583 1.91575,2.98819 1.91575,4.96063 0,1.00276 -0.18543,1.98898 -0.5622,2.95866 -0.37205,0.96851 -0.99213,1.98898 -1.85669,3.05788 -0.86575,1.07362 -2.30315,2.5441 -4.31339,4.41142 -1.67717,1.55197 -2.75433,2.60197 -3.2315,3.15709 -0.47717,0.54803 -0.87048,1.10315 -1.18347,1.66299 h 11.1791 z"
   class="fil7"
   inkscape:connector-curvature="0" /><path
   style="fill:#dff3f6;fill-opacity:1"
   id="_305295632"
   d="m 769.988,916.19 c 2.64567,-4.03229 6.77008,-7.00748 11.5866,-8.17796 0.37559,-0.0839 0.68031,-0.34842 0.82559,-0.70512 0.14528,-0.35433 0.10984,-0.75354 -0.0957,-1.07835 -1.54488,-2.45906 -4.27323,-4.09843 -7.39252,-4.09843 -4.82244,0 -8.73662,3.90827 -8.73662,8.73189 0,2.04921 0.70984,3.92835 1.88976,5.41772 0.23386,0.30118 0.59882,0.46536 0.98386,0.44528 0.38032,-0.0154 0.72992,-0.21496 0.93898,-0.53504 z"
   class="fil1"
   inkscape:connector-curvature="0" /><path
   style="fill:#dff3f6;fill-opacity:1"
   id="_305295416"
   d="m 801.524,902.131 c -3.10394,0 -5.82874,1.62402 -7.37244,4.06772 -0.21024,0.32598 -0.24449,0.72638 -0.10039,1.08543 0.14527,0.35433 0.4559,0.6189 0.83031,0.70512 4.83307,1.13858 8.97166,4.09252 11.635,8.11654 0.21614,0.32008 0.56693,0.51496 0.95079,0.53031 0.38504,0.0142 0.74882,-0.15945 0.98504,-0.46063 1.12913,-1.46811 1.80945,-3.30827 1.80945,-5.30788 -0.006,-4.82835 -3.91299,-8.73662 -8.7378,-8.73662 z"
   class="fil1"
   inkscape:connector-curvature="0" /><path
   style="fill:#dff3f6;fill-opacity:1"
   id="_305311520"
   d="m 807.526,928.881 c 0,-3.37441 -0.87402,-6.54213 -2.40236,-9.30237 -2.83465,-5.10827 -7.92874,-8.77678 -13.9169,-9.69686 -0.95433,-0.1441 -1.92284,-0.24449 -2.92441,-0.24449 -1.03819,0 -2.04803,0.10512 -3.04725,0.26575 -5.96457,0.95906 -11.0327,4.64292 -13.8366,9.75591 -1.49882,2.73898 -2.35984,5.88307 -2.35984,9.22205 0,5.7189 2.5252,10.8461 6.4937,14.3705 l -1.61929,2.28898 c -0.69921,0.98031 -0.46417,2.34449 0.51968,3.0437 0.38032,0.27047 0.8256,0.40039 1.26024,0.40039 0.68504,0 1.35945,-0.32008 1.78347,-0.92008 l 1.62047,-2.28425 c 2.72835,1.49528 5.863,2.34449 9.18544,2.34449 3.32953,0 6.45827,-0.84921 9.19252,-2.34449 l 1.62047,2.28425 c 0.4252,0.6 1.09961,0.92008 1.78347,0.92008 0.43465,0 0.8752,-0.12992 1.25906,-0.40039 0.98623,-0.69921 1.21654,-2.06339 0.52087,-3.0437 l -1.6252,-2.28898 c 3.97441,-3.52441 6.49252,-8.65158 6.49252,-14.3705 z m -19.2437,13.8602 c -7.64055,0 -13.8602,-6.21733 -13.8602,-13.8602 0,-2.38347 0.60591,-4.62756 1.67008,-6.58819 2.01969,-3.72874 5.70827,-6.41693 10.0559,-7.09252 0.70039,-0.10866 1.41024,-0.18425 2.13425,-0.18425 0.68976,0 1.36063,0.0697 2.01969,0.16535 4.38425,0.64488 8.11182,3.32717 10.1575,7.07717 1.0748,1.9689 1.68898,4.22362 1.68898,6.62244 0,7.64292 -6.21733,13.8602 -13.8661,13.8602 z"
   class="fil1"
   inkscape:connector-curvature="0" /><path
   style="fill:#dff3f6;fill-opacity:1"
   id="_305311352"
   d="m 796.05,932.124 -5.28898,-3.26811 c -0.10984,-0.61417 -0.44528,-1.14921 -0.91536,-1.52953 l 0.24449,-6.63307 c 0.0307,-0.85039 -0.63425,-1.55906 -1.47874,-1.59449 -0.84449,-0.0354 -1.56024,0.63425 -1.58976,1.47992 l -0.24449,6.64252 c -0.65433,0.46417 -1.08425,1.2248 -1.08425,2.08937 0,1.41378 1.14332,2.55945 2.55827,2.55945 0.4004,0 0.77481,-0.10039 1.11496,-0.26457 l 5.07402,3.12874 c 0.24922,0.15473 0.52914,0.23032 0.80434,0.23032 0.51496,0 1.01457,-0.25512 1.30394,-0.72638 0.45,-0.72402 0.22559,-1.66772 -0.49843,-2.11417 z"
   class="fil1"
   inkscape:connector-curvature="0" /><circle
   style="fill:#dff3f6;fill-opacity:1"
   r="2.66221"
   id="_305311328"
   cy="928.52399"
   cx="649.05701"
   class="fil1" /><polygon
   style="fill:#dff3f6;fill-opacity:1"
   points="649.04,915.278 650.714,927.365 647.4,927.365 "
   id="_305311160"
   class="fil1" /><path
   style="fill:#dff3f6;fill-opacity:1"
   id="_305310872"
   d="m 648.502,908.069 c 11.2996,0 20.4579,9.15827 20.4579,20.4579 0,11.3008 -9.15827,20.4591 -20.4579,20.4591 -11.3008,0 -20.4591,-9.15827 -20.4591,-20.4591 0,-11.2996 9.15827,-20.4579 20.4591,-20.4579 z m 0,5.67992 c 8.1626,0 14.778,6.61536 14.778,14.778 0,8.16378 -6.61536,14.7791 -14.778,14.7791 -8.16378,0 -14.7791,-6.61536 -14.7791,-14.7791 0,-8.1626 6.61536,-14.778 14.7791,-14.778 z"
   class="fil1"
   inkscape:connector-curvature="0" /><path
   style="fill:#dff3f6;fill-opacity:1"
   id="_308156952"
   d="m 649.056,902.131 v 0 c 3.19843,-0.002 5.79095,1.03347 5.79095,2.31142 l -10e-4,10e-4 c 10e-4,1.27677 -2.59134,2.3126 -5.78859,2.3126 l -10e-4,10e-4 c -3.19606,-10e-4 -5.78859,-1.03701 -5.78859,-2.31496 l -0.001,10e-4 c 0.001,-1.27913 2.5937,-2.31496 5.79095,-2.31496 l -10e-4,0.002 z"
   class="fil1"
   inkscape:connector-curvature="0" /><rect
   style="fill:#dff3f6;fill-opacity:1"
   y="905.63702"
   x="646.64801"
   width="4.8177199"
   id="_305310920"
   height="3.2456701"
   class="fil1" /><path
   style="fill:#dff3f6;fill-opacity:1"
   id="_308158536"
   d="m 649.056,902.131 v 0 c 3.19843,-0.002 5.79095,1.03347 5.79095,2.31142 l -10e-4,10e-4 c 10e-4,1.27677 -2.59134,2.3126 -5.78859,2.3126 l -10e-4,10e-4 c -3.19606,-10e-4 -5.78859,-1.03701 -5.78859,-2.31496 l -0.001,10e-4 c 0.001,-1.27913 2.5937,-2.31496 5.79095,-2.31496 l -10e-4,0.002 z"
   class="fil1"
   inkscape:connector-curvature="0" /><rect
   style="fill:#dff3f6;fill-opacity:1"
   y="905.63702"
   x="646.64801"
   width="4.8177199"
   id="_305310056"
   height="3.2456701"
   class="fil1" /><path
   style="fill:#dff3f6;fill-opacity:1"
   id="_308159232"
   d="m 665.461,907.908 4.72796,4.8815 c 0.66142,0.68268 0.64488,1.77284 -0.039,2.43425 l -0.46535,0.45 c -0.6815,0.66142 -1.77165,0.6437 -2.43307,-0.039 l -4.72796,-4.88032 c -0.66142,-0.68386 -0.6437,-1.77402 0.039,-2.43543 l 0.46418,-0.45 c 0.68386,-0.66141 1.77402,-0.6437 2.43543,0.039 h -10e-4 z"
   class="fil1"
   inkscape:connector-curvature="0" /><rect
   style="fill:#dff3f6;fill-opacity:1"
   width="14.8441"
   transform="matrix(0.199622,0.206109,-0.20611,0.199621,664.116,910.975)"
   id="_305310080"
   height="10.0004"
   class="fil1"
   x="0"
   y="0" /><path
   style="fill:#dff3f6;fill-opacity:1"
   id="_305310224"
   d="m 916.393,908.069 c 11.3008,0 20.4591,9.15827 20.4591,20.4579 0,11.3008 -9.15827,20.4591 -20.4591,20.4591 -11.2984,0 -20.4579,-9.15827 -20.4579,-20.4591 0,-4.92402 1.73976,-9.44292 4.63701,-12.9721 l 4.0441,4.0441 c -1.88268,2.48032 -3.00118,5.57362 -3.00118,8.92796 0,8.16378 6.61654,14.7791 14.778,14.7791 8.16378,0 14.7791,-6.61536 14.7791,-14.7791 0,-8.1626 -6.61536,-14.778 -14.7791,-14.778 -0.62717,0 -1.2437,0.0378 -1.84961,0.11457 v -5.71181 c 0.60945,-0.0555 1.22598,-0.0827 1.84961,-0.0827 z"
   class="fil1"
   inkscape:connector-curvature="0" /><polygon
   style="fill:#dff3f6;fill-opacity:1"
   points="914.543,909.159 919.359,909.159 919.359,920.337 914.543,920.337 "
   id="_305310680"
   class="fil1" /><circle
   style="fill:#dff3f6;fill-opacity:1"
   transform="matrix(0.182388,-0.26845,0.26845,0.182388,916.707,928.066)"
   r="8.2027597"
   id="_305309432"
   class="fil1"
   cx="0"
   cy="0" /><polygon
   style="fill:#dff3f6;fill-opacity:1"
   points="905.737,920.634 916.678,926.044 914.815,928.784 "
   id="_305309648"
   class="fil1" /><path
   style="fill:#dff3f6;fill-opacity:1"
   id="_305306024"
   d="m 644.976,609.845 c -0.28228,-0.085 -0.56457,-0.17008 -0.84567,-0.25394 0.29882,-0.0201 0.60118,-0.0697 0.89646,-0.0697 0.33779,0 0.66496,0.065 0.96968,0.31417 -0.34015,0.004 -0.68031,0.007 -1.02047,0.009 z"
   class="fil9"
   inkscape:connector-curvature="0" /><path
   style="fill:#dff3f6;fill-opacity:1"
   id="_305305904"
   d="m 634.016,614.641 c -0.32126,0 -0.64724,-0.12165 -0.98032,-0.4748 0.5067,-0.40394 1.01457,-0.8067 1.52126,-1.20945 0.74292,-0.20079 1.41142,-0.54449 1.99725,-1.04528 0.11103,0.006 0.22205,0.0118 0.33308,0.0177 0.4937,0.20788 0.68504,0.56457 0.53385,1.08898 -0.33425,0.62363 -0.94724,0.83622 -1.55551,1.05591 -0.61889,0.11103 -1.22717,0.56693 -1.84961,0.56693 z"
   class="fil9"
   inkscape:connector-curvature="0" /><g
   id="g86"
   clip-path="url(#id0)"
   style="fill:#dff3f6;fill-opacity:1"><polygon
     style="fill:#dff3f6;fill-opacity:1"
     id="polygon84"
     points="681.891,662.719 683.027,662.719 683.027,664.452 681.891,664.452 "
     class="fil10" /></g><g
   id="g90"
   clip-path="url(#id1)"
   style="fill:#dff3f6;fill-opacity:1"><g
     style="fill:#dff3f6;fill-opacity:1"
     id="_309153656"><polygon
       style="fill:#dff3f6;fill-opacity:1"
       points="681.891,662.719 683.028,662.719 683.028,664.452 681.891,664.452 "
       id="_3081588961"
       class="fil10" /></g></g><path
   style="fill:#dff3f6;fill-opacity:1"
   id="path92"
   d="m 681.891,664.452 c 0.39567,-0.56693 0.77362,-1.14331 1.13622,-1.73268 -0.17953,0.75827 -0.30236,1.5685 -1.13622,1.73268 z"
   class="fil0"
   inkscape:connector-curvature="0" /><g
   id="g96"
   clip-path="url(#id2)"
   style="fill:#dff3f6;fill-opacity:1"><polygon
     style="fill:#dff3f6;fill-opacity:1"
     id="polygon94"
     points="681.891,662.719 683.027,662.719 683.027,664.452 681.891,664.452 "
     class="fil10" /></g><path
   style="fill:#dff3f6;fill-opacity:1"
   id="path101"
   d="m 681.891,664.452 c 0.39567,-0.56693 0.77362,-1.14331 1.13622,-1.73268 -0.17953,0.75827 -0.30236,1.5685 -1.13622,1.73268 z"
   class="fil0"
   inkscape:connector-curvature="0" /><path
   style="fill:#dff3f6;fill-opacity:1"
   id="path103"
   d="m 681.891,664.452 c 0.39567,-0.56693 0.77362,-1.14331 1.13622,-1.73268 -0.17953,0.75827 -0.30236,1.5685 -1.13622,1.73268 z"
   class="fil0"
   inkscape:connector-curvature="0" /><path
   style="fill:#dff3f6;fill-opacity:1"
   id="_305305784"
   d="m 679.804,666.596 c -0.62008,-1.16457 -1.97362,-1.58032 -2.69291,-2.64331 0.68622,-0.7252 1.35236,-1.46929 2.01614,-2.22047 0.13346,-0.0213 0.26339,-0.0319 0.38976,-0.0319 0.63071,0 1.18347,0.25039 1.71969,0.54803 0.039,-0.12165 0.0744,-0.24567 0.1063,-0.36968 0.0567,-0.30473 0.21024,-0.5752 0.32126,-0.86103 0.0791,-0.21614 0.2067,-0.40157 0.37087,-0.55984 0.1311,-0.0898 0.24094,-0.21378 0.35551,-0.33071 -0.0685,-0.41575 -0.13819,-0.83149 -0.20669,-1.24843 0.12519,-0.0614 0.24921,-0.12401 0.37323,-0.18543 -0.0378,-0.14764 -0.0508,-0.29646 -0.0413,-0.44882 0.39449,-1.10079 1.2,-1.73504 2.28898,-2.04449 -0.76772,-0.94488 0.41457,-1.73858 0.33898,-2.63032 0.66614,-0.6626 0.57755,-1.48937 0.4996,-2.31614 0.28701,-0.76417 0.28347,-1.57795 0.40512,-2.37165 -0.0106,-0.74173 0.16181,-1.44685 0.41693,-2.13071 0.16299,-0.43701 0.38504,-0.79252 0.79843,-0.79252 0.12874,0 0.27519,0.0343 0.44527,0.11102 0.43229,0.79843 0.11811,1.57323 -0.0732,2.35276 l -0.007,-0.0165 c -0.013,0.67323 -0.026,1.34528 -0.039,2.0185 -0.0815,0.0697 -0.0957,0.15118 -0.0413,0.2433 -0.0449,0.0343 -0.0909,0.0673 -0.13701,0.1004 -0.0319,0.37795 -0.098,0.7559 -0.0106,1.13622 -0.008,0.15354 -0.0354,0.30354 -0.0803,0.45236 -0.16772,0.35433 -0.21732,0.77717 -0.45709,1.09252 -0.006,0.0744 -0.007,0.14882 -10e-4,0.22205 -0.078,0.0295 -0.15709,0.0449 -0.23976,0.0449 -0.0177,0 -0.0366,-10e-4 -0.0555,-0.002 -0.40511,0.42874 -0.36732,0.97677 -0.40039,1.50473 -0.14882,0.38031 -0.12283,0.84094 -0.50905,1.1126 -0.0354,0.0177 -0.0697,0.0307 -0.10512,0.0437 0.0236,0.15945 0.0484,0.32008 0.072,0.47953 -0.33307,0.69212 -0.42874,1.50591 -1.06063,2.04095 v 10e-4 0 c -0.0354,0.2563 0.0484,0.56693 -0.31063,0.67441 0.0461,0.42283 -0.23976,0.69685 -0.45118,1.00276 0.004,0.18661 0.006,0.37441 0.009,0.56102 -0.34724,0.2941 -0.54685,0.67559 -0.65433,1.11142 -0.052,0.15118 -0.0921,0.31181 -0.1311,0.4748 -0.3626,0.58937 -0.74055,1.16575 -1.13622,1.73268 -0.0992,0.0189 -0.20787,0.0295 -0.32953,0.0295 -0.0968,0 -0.20197,-0.007 -0.31417,-0.0213 0.0284,0.0933 0.0213,0.18898 -0.026,0.28819 -0.0331,0.0142 -0.0626,0.0295 -0.0921,0.0437 0.008,0.17008 0.0154,0.33898 0.0236,0.50788 -0.32835,0.34724 -0.65787,0.69448 -0.98622,1.04173 -0.12047,0.0838 -0.24095,0.16889 -0.36142,0.25275 z m 3.41693,-7.00866 c 0.013,0.0756 0.013,0.15354 -0.006,0.23622 l 0.004,0.002 c 0.008,-0.0343 0.0165,-0.0673 0.0236,-0.10157 0.026,-0.0319 0.0555,-0.0579 0.0862,-0.0815 -0.0366,-0.0165 -0.0732,-0.0354 -0.10748,-0.0555 z"
   class="fil9"
   inkscape:connector-curvature="0" /><path
   style="fill:#dff3f6;fill-opacity:1"
   id="_305305616"
   d="m 673.732,616.592 c -0.45473,-0.56811 -0.90945,-1.13622 -1.36417,-1.70433 0.86575,0.19016 1.50827,0.73346 2.12008,1.32756 -0.25157,0.12638 -0.50433,0.25157 -0.75591,0.37677 z"
   class="fil9"
   inkscape:connector-curvature="0" /><path
   style="fill:#dff3f6;fill-opacity:1"
   id="_305305520"
   d="m 671.07,615.514 c -0.34252,0 -0.60945,-0.26457 -0.83622,-0.67559 -0.052,-0.57402 0.49961,-0.61063 0.78898,-0.87992 0.34134,0.20433 0.68267,0.40866 1.0252,0.61181 0.0461,0.0957 0.0874,0.1937 0.12165,0.29291 -0.15354,0.12992 -0.30709,0.25985 -0.46063,0.38859 -0.23976,0.18188 -0.45118,0.2622 -0.63898,0.2622 z"
   class="fil9"
   inkscape:connector-curvature="0" /><path
   style="fill:#dff3f6;fill-opacity:1"
   id="_305305304"
   d="m 680.12,622.007 c -0.77126,-0.11929 -0.97913,-0.65315 -0.98032,-1.33819 0.17717,0.1311 0.35434,0.26102 0.5315,0.39213 0.15,0.31535 0.3,0.6307 0.44882,0.94606 z"
   class="fil9"
   inkscape:connector-curvature="0" /><path
   style="fill:#dff3f6;fill-opacity:1"
   id="_305305280"
   d="m 663.325,611.366 c -0.0909,0 -0.18189,-0.0118 -0.2752,-0.0437 -0.60945,-0.23504 -1.28622,-0.38032 -1.51772,-1.12441 -0.0957,-0.14646 -0.19134,-0.29173 -0.28582,-0.43819 1.18819,0.3378 2.50512,0.35551 3.40866,1.39016 -0.13465,0.0307 -0.27048,0.0626 -0.4063,0.0933 -0.0189,-10e-4 -0.039,-10e-4 -0.0579,-10e-4 -0.14527,0 -0.28937,0.0307 -0.43346,0.0626 -0.14291,0.0307 -0.28701,0.0614 -0.43229,0.0614 z"
   class="fil9"
   inkscape:connector-curvature="0" /><path
   style="fill:#dff3f6;fill-opacity:1"
   id="_305304608"
   d="m 656.313,679.596 c -0.1878,0 -0.21969,-0.1689 -0.1748,-0.41929 0.38858,-0.36851 0.87992,-0.3378 1.35945,-0.35315 0.84212,-0.85866 1.97362,-0.83859 3.0437,-1.00039 0.22204,0.21614 0.44409,0.43228 0.66614,0.64842 -1.33465,0.75355 -2.76614,1.08071 -4.27441,1.08071 -0.13229,0 -0.26457,-0.002 -0.39803,-0.007 -0.0909,0.0343 -0.16418,0.0508 -0.22205,0.0508 z"
   class="fil9"
   inkscape:connector-curvature="0" /><path
   style="fill:#dff3f6;fill-opacity:1"
   id="_305304824"
   d="m 645.516,679.441 c -0.10866,0 -0.17362,-0.0933 -0.22205,-0.22677 0.23032,-0.13347 0.46181,-0.26693 0.69213,-0.39921 0.1937,-0.0579 0.38504,-0.10749 0.57402,-0.10749 0.22559,0 0.44645,0.0709 0.65669,0.28583 -0.53032,0.13583 -1.03465,0.26457 -1.53898,0.39331 -0.0626,0.0378 -0.11575,0.0543 -0.16181,0.0543 z"
   class="fil9"
   inkscape:connector-curvature="0" /><path
   style="fill:#dff3f6;fill-opacity:1"
   id="_305305232"
   d="m 640.424,675.988 c -0.28465,0 -0.57047,-0.0744 -0.8563,-0.20669 -0.20551,-0.11811 -0.40984,-0.23504 -0.61536,-0.35197 0.23741,-0.47008 0.47363,-0.62717 0.71103,-0.62717 0.42047,0 0.84212,0.49843 1.2626,0.62717 0.10866,0.10984 0.21614,0.22086 0.3248,0.33071 -0.2752,0.15708 -0.55039,0.22795 -0.82677,0.22795 z"
   class="fil9"
   inkscape:connector-curvature="0" /><path
   style="fill:#dff3f6;fill-opacity:1"
   id="_305305088"
   d="m 685.568,632.496 c -1.02756,-0.80906 -1.23071,-1.88032 -0.99213,-3.09449 0.68977,0.91654 1.0937,1.92402 0.99213,3.09449 z"
   class="fil9"
   inkscape:connector-curvature="0" /><path
   style="fill:#dff3f6;fill-opacity:1"
   id="_305304944"
   d="m 681.854,625.392 c -0.0165,-0.34961 -0.24685,-0.70984 0.0472,-1.04646 0.22323,0.34606 0.44646,0.69095 0.66969,1.03583 -0.23858,0.004 -0.47835,0.007 -0.71693,0.0106 z"
   class="fil9"
   inkscape:connector-curvature="0" /><path
   style="fill:#dff3f6;fill-opacity:1"
   id="_305305016"
   d="m 675.976,670.479 c -0.37913,0 -0.3874,-0.37677 -0.30472,-0.84803 0.25275,-0.44646 0.47716,-0.92717 1.10078,-0.92717 0.005,0 0.009,0 0.0142,0 0.0413,0.009 0.0815,0.0142 0.11929,0.0142 0.25394,0 0.42992,-0.19843 0.60591,-0.39686 0.17716,-0.19842 0.35315,-0.39685 0.60708,-0.39685 0.1063,0 0.22559,0.0343 0.36496,0.11811 -0.1311,0.32126 -0.26338,0.64252 -0.39567,0.96496 -0.3307,0.32599 -0.66259,0.65315 -0.9933,0.97914 -0.22441,0.12874 -0.44764,0.2563 -0.67087,0.38386 -0.18779,0.0756 -0.33425,0.10866 -0.44764,0.10866 z"
   class="fil9"
   inkscape:connector-curvature="0" /><path
   style="fill:#dff3f6;fill-opacity:1"
   id="_305305112"
   d="m 672.435,673.245 c -0.23504,-0.0921 -0.45473,-0.20433 -0.59528,-0.42874 -0.14527,-0.33661 -0.0921,-0.65079 0.0992,-0.95079 0.10039,-0.12874 0.22322,-0.23267 0.36378,-0.31653 0.47598,-0.41811 0.9437,-0.84686 1.3878,-1.30276 0.2374,-0.25867 0.48425,-0.49843 0.84685,-0.57048 0.059,-0.008 0.11693,-0.013 0.17244,-0.013 0.22086,0 0.42638,0.0614 0.6189,0.18543 0.38149,0.39567 0.35787,0.82914 0.12165,1.28386 -0.79724,0.67205 -1.59567,1.3441 -2.3941,2.01614 -0.20669,0.0319 -0.41457,0.065 -0.62126,0.0969 z"
   class="fil9"
   inkscape:connector-curvature="0" /><path
   style="fill:#dff3f6;fill-opacity:1"
   id="_305304776"
   d="m 621.083,627.976 c -0.15945,0 -0.3378,-0.0768 -0.53622,-0.25394 0.66378,-1.99725 2.16378,-3.49725 3.15591,-5.29843 0.53149,-0.2433 0.66024,-0.98858 1.32874,-1.06063 -0.004,0.21733 -0.007,0.43347 -0.0106,0.65079 0.11457,0.11103 0.22795,0.22441 0.34252,0.33543 -0.008,0.11103 -0.0154,0.22205 -0.0189,0.33308 -0.052,0.26338 -0.19842,0.42401 -0.47835,0.43937 -0.0626,-0.0295 -0.11574,-0.0614 -0.16063,-0.0945 -0.53858,0.85984 -1.32047,1.56614 -1.62874,2.57126 -0.18307,0.27165 -0.25866,0.60118 -0.46535,0.86102 -0.32244,0.3 -0.66142,0.57165 -0.87756,0.9815 -0.16772,0.32008 -0.38268,0.53504 -0.65079,0.53504 z"
   class="fil9"
   inkscape:connector-curvature="0" /><path
   style="fill:#dff3f6;fill-opacity:1"
   id="_305303960"
   d="m 618.364,632.502 c 0.36614,-1.3937 0.87047,-2.71654 1.89803,-3.77717 0.0697,1.05709 -0.7441,1.80591 -0.96142,2.7626 0.21024,0.46772 0.065,0.79843 -0.39331,1.0063 -0.1807,0.002 -0.36259,0.005 -0.5433,0.008 z"
   class="fil9"
   inkscape:connector-curvature="0" /><path
   style="fill:#dff3f6;fill-opacity:1"
   id="_305303888"
   d="m 687.591,645.014 c -0.61063,-1.46929 -0.25748,-3 -0.29528,-4.50591 0.11339,0.11102 0.22678,0.22205 0.34016,0.33425 0.33189,0.79607 -0.0862,1.6748 0.27048,2.46851 -0.004,0.56575 -0.006,1.13268 -0.009,1.69843 -0.10158,0 -0.20433,0.002 -0.30591,0.005 z"
   class="fil9"
   inkscape:connector-curvature="0" /><path
   style="fill:#dff3f6;fill-opacity:1"
   id="_305304056"
   d="m 687.344,639.972 c -0.25512,-0.1252 -0.51024,-0.25039 -0.76417,-0.37677 -0.33426,-0.63071 -1.00039,-1.1811 -0.50315,-2.01969 0.0272,-0.0248 0.0543,-0.0473 0.0815,-0.0661 -0.92244,-0.64725 -0.56575,-1.3063 0.0685,-1.9689 0.0177,-0.15237 0.0354,-0.30473 0.0531,-0.45709 0.6496,0.32362 0.072,1.1563 0.62834,1.51772 0.71339,0.89173 0.51378,1.97835 0.64134,2.99528 0.085,0.20905 -0.0118,0.3189 -0.20551,0.37559 z"
   class="fil9"
   inkscape:connector-curvature="0" /><path
   style="fill:#dff3f6;fill-opacity:1"
   id="_305304344"
   d="m 683.874,634.185 c -1.50591,-0.0779 -2.2937,-1.49646 -1.69134,-3.0437 -0.14409,-0.35315 -0.12402,-0.6248 0.33898,-0.67323 h 10e-4 c 0.44882,0.22677 0.77953,0.57284 1.01693,1.01221 0.11338,0.3378 0.22677,0.67441 0.34016,1.01221 -10e-4,0.56457 -0.004,1.12913 -0.006,1.69252 z"
   class="fil9"
   inkscape:connector-curvature="0" /><path
   style="fill:#dff3f6;fill-opacity:1"
   id="_305304200"
   d="m 660.932,616.93 c -0.50197,0 -0.96496,-0.26811 -1.41024,-0.66614 -0.25276,-0.2752 -0.50551,-0.36733 -0.75945,-0.36733 -0.42047,0 -0.84094,0.25276 -1.26142,0.3567 -0.11457,-1.24016 -0.23031,-2.48032 -0.34488,-3.72047 0.25275,-0.0803 0.50669,-0.16181 0.75945,-0.24331 0.0165,-0.085 0.0354,-0.17244 0.059,-0.26102 0.37559,-0.34725 0.73819,-0.4689 1.0937,-0.4689 0.72638,0 1.42559,0.50787 2.14488,0.64724 0.10276,0.008 0.20552,0.0142 0.30827,0.0154 -0.0201,0.42047 0.0591,0.79842 0.2504,1.12795 0.15944,0.0496 0.31771,0.0874 0.47362,0.0874 0.0177,0 0.0366,0 0.0555,-10e-4 0.25275,0.0933 0.42638,0.28228 0.57874,0.49488 0.11102,0.10512 0.22205,0.21142 0.33307,0.31772 -0.10158,0.22086 -0.20079,0.44291 -0.30118,0.66496 v 0 c 10e-4,0.10512 0.005,0.21141 0.0118,0.31653 -0.005,0.71103 -0.0697,1.3748 -1.02047,1.3748 -0.004,0 -0.008,0 -0.0118,0 -0.33662,0.22678 -0.65433,0.32481 -0.95906,0.32481 z"
   class="fil9"
   inkscape:connector-curvature="0" /><g
   id="g125"
   clip-path="url(#id4)"
   style="fill:#dff3f6;fill-opacity:1"><polygon
     style="fill:#dff3f6;fill-opacity:1"
     id="polygon123"
     points="623.601,666.479 626.279,666.479 626.279,669.454 623.601,669.454 "
     class="fil10" /></g><g
   id="g129"
   clip-path="url(#id5)"
   style="fill:#dff3f6;fill-opacity:1"><g
     style="fill:#dff3f6;fill-opacity:1"
     id="_310058144"><polygon
       style="fill:#dff3f6;fill-opacity:1"
       points="623.601,666.48 626.279,666.48 626.279,669.454 623.601,669.454 "
       id="_3086262401"
       class="fil10" /></g></g><path
   style="fill:#dff3f6;fill-opacity:1"
   id="path131"
   d="m 626.279,669.454 c -0.19488,-0.15472 -0.37913,-0.32362 -0.5563,-0.50197 -0.0236,-0.0224 -0.0661,-0.0921 -0.11811,-0.18661 0.22205,0.23267 0.44646,0.46299 0.67441,0.68858 z m -2.42362,-2.66339 c -0.098,-0.0921 -0.18189,-0.19606 -0.25394,-0.31181 0.0839,0.10394 0.17008,0.20905 0.25394,0.31181 z"
   class="fil0"
   inkscape:connector-curvature="0" /><g
   id="g135"
   clip-path="url(#id6)"
   style="fill:#dff3f6;fill-opacity:1"><polygon
     style="fill:#dff3f6;fill-opacity:1"
     id="polygon133"
     points="623.601,666.479 626.279,666.479 626.279,669.454 623.601,669.454 "
     class="fil10" /></g><path
   style="fill:#dff3f6;fill-opacity:1"
   id="path140"
   d="m 626.279,669.454 c -0.19488,-0.15472 -0.37913,-0.32362 -0.5563,-0.50197 -0.0236,-0.0224 -0.0661,-0.0921 -0.11811,-0.18661 0.22205,0.23267 0.44646,0.46299 0.67441,0.68858 z m -2.42362,-2.66339 c -0.098,-0.0921 -0.18189,-0.19606 -0.25394,-0.31181 0.0839,0.10394 0.17008,0.20905 0.25394,0.31181 z"
   class="fil0"
   inkscape:connector-curvature="0" /><path
   style="fill:#dff3f6;fill-opacity:1"
   id="path142"
   d="m 626.279,669.454 c -0.19488,-0.15472 -0.37913,-0.32362 -0.5563,-0.50197 -0.0236,-0.0224 -0.0661,-0.0921 -0.11811,-0.18661 0.22205,0.23267 0.44646,0.46299 0.67441,0.68858 z m -2.42362,-2.66339 c -0.098,-0.0921 -0.18189,-0.19606 -0.25394,-0.31181 0.0839,0.10394 0.17008,0.20905 0.25394,0.31181 z"
   class="fil0"
   inkscape:connector-curvature="0" /><path
   style="fill:#dff3f6;fill-opacity:1"
   id="_305304272"
   d="m 645.845,674.149 c -0.10158,0 -0.1937,-0.013 -0.25984,-0.0331 -0.54449,-0.17244 -1.10669,-0.19488 -1.67008,-0.19488 -0.10158,0 -0.20315,0 -0.30473,10e-4 -0.10157,10e-4 -0.20197,10e-4 -0.30354,10e-4 -0.72284,0 -1.43858,-0.0378 -2.11299,-0.3815 -0.13347,0.006 -0.26575,0.009 -0.39685,0.009 -0.82914,0 -1.62638,-0.13346 -2.32914,-0.66142 -0.45118,-10e-4 -0.90118,-0.002 -1.35236,-0.004 -0.5126,-0.39449 -1.18583,-0.62598 -1.36181,-1.35827 -0.0177,-0.009 -0.0354,-0.0189 -0.0531,-0.0272 -0.0154,0.0567 -0.0354,0.11929 -0.0626,0.18543 -0.2374,0.17716 -0.46536,0.25512 -0.68386,0.25512 -0.31299,0 -0.60827,-0.15945 -0.89291,-0.42048 -1.74449,-0.4748 -3.49488,-0.93307 -5.23229,-1.43622 -0.62126,-0.18071 -1.02165,-0.6496 -1.22126,-1.27323 -0.11221,-0.002 -0.22441,-0.006 -0.3378,-0.0106 -0.12401,0.35906 -0.24921,0.7193 -0.37323,1.07953 -0.2185,-0.12519 -0.42283,-0.26811 -0.61771,-0.42401 -0.22796,-0.22559 -0.45237,-0.45591 -0.67441,-0.68859 -0.17599,-0.3248 -0.45591,-0.9437 -0.38032,-0.9437 0.001,0 0.002,10e-4 0.005,10e-4 -0.1063,-0.026 -0.21497,-0.0437 -0.32245,-0.065 -0.13346,-0.21023 -0.26811,-0.41929 -0.40157,-0.62952 -0.27165,-0.065 -0.48189,-0.18308 -0.64961,-0.3378 -0.0839,-0.10276 -0.17008,-0.20787 -0.25393,-0.31181 -0.13937,-0.22441 -0.23386,-0.4878 -0.30945,-0.76772 -0.88819,-0.37204 -0.89882,-1.39016 -1.46929,-1.99725 -0.33307,-0.67795 -0.66615,-1.35709 -0.99922,-2.0374 -0.0673,-0.0921 -0.10393,-0.19606 -0.11102,-0.31181 -0.33307,-0.2622 -0.50197,-0.62008 -0.59528,-1.02165 -0.38149,-0.50669 -0.62244,-1.0748 -0.74882,-1.6937 0.0614,0.052 0.12166,0.10512 0.18189,0.15827 -0.0437,-0.0685 -0.0992,-0.12638 -0.18189,-0.15827 -0.46181,-0.49134 -0.72047,-1.08425 -0.87401,-1.73032 -0.009,-0.1122 -0.0189,-0.22441 -0.0283,-0.33543 -0.67913,-0.68504 -0.3496,-1.65709 -0.69449,-2.4378 -0.0248,10e-4 -0.0496,0.002 -0.0732,0.002 -0.0779,0 -0.15472,-0.009 -0.23031,-0.0284 -0.026,-0.28937 -0.0508,-0.57874 -0.0768,-0.86811 -0.0921,-0.0272 -0.18425,-0.0555 -0.2752,-0.0862 -0.10748,-0.67204 -0.21378,-1.34528 -0.32008,-2.0185 -0.0248,-0.42165 -0.0508,-0.8433 -0.0756,-1.26496 -0.0992,-0.14173 -0.1996,-0.28464 -0.29882,-0.42637 -0.0969,-1.14449 -0.19252,-2.28898 -0.28937,-3.43229 -0.006,-1.22008 -0.0118,-2.43898 -0.0189,-3.65906 0.0957,-0.0709 0.19489,-0.10748 0.29764,-0.10748 0.0721,0 0.14646,0.0177 0.22205,0.0531 1.00158,0.86693 0.49606,1.62874 -0.16772,2.37874 0.009,0.052 0.0165,0.10512 0.0248,0.15709 0.12401,-0.0898 0.21968,-0.13937 0.31417,-0.13937 0.21968,0 0.42992,0.27047 0.94724,0.94252 0.15945,0.21969 0.32953,0.4311 0.43819,0.68268 0.065,0.25748 0.0732,0.52323 0.0744,0.7878 -10e-4,0.0213 -10e-4,0.0425 -10e-4,0.0626 0.22677,0.12284 0.38268,0.34134 0.52087,0.58111 0.11456,-10e-4 0.22795,-10e-4 0.34252,-0.002 0.11102,-0.22914 0.22323,-0.45709 0.33425,-0.68504 -0.22323,-0.82914 0.82323,-1.23071 0.68504,-2.03268 0.026,-0.64607 0.27283,-0.92953 0.61535,-0.92953 0.20788,0 0.45119,0.10512 0.70158,0.29764 0.75945,0.58346 1.36063,1.35591 1.22362,2.43898 0.002,0.25748 0.004,0.51614 0.013,0.77244 -0.0555,0.60826 0.22205,1.05 0.66142,1.45512 0.47717,0.43937 0.74055,0.93779 0.3815,1.48819 0.41102,0.0484 0.68622,0.31299 0.92834,0.62598 0.34134,0.46417 0.71929,0.60118 1.1126,0.6 0.44292,0 0.90355,-0.17126 1.35354,-0.24685 -0.0224,-0.0579 -0.0413,-0.11929 -0.052,-0.18543 -0.0295,-0.14764 -0.0673,-0.29292 -0.10984,-0.43701 -0.15118,-0.11102 -0.27874,-0.25748 -0.37913,-0.4441 -0.16772,-0.42401 -0.37559,-0.84685 -0.25276,-1.27087 -0.0413,-0.1122 -0.0815,-0.22559 -0.11693,-0.33897 -0.0177,-0.7441 -0.14291,-1.46575 -0.34724,-2.16969 -0.19961,-0.17362 -0.50433,-0.28701 -0.96851,-0.31063 -0.0106,-0.21969 -0.0224,-0.43701 -0.0331,-0.65551 -0.28582,-0.28937 -0.58228,-0.57638 -0.34606,-1.04055 0.009,-0.22087 0.0189,-0.44174 0.0272,-0.6626 0.11338,-0.11339 0.22677,-0.22796 0.34015,-0.34134 0.44292,-0.37796 0.53859,-1.01221 1.00748,-1.37126 0.11339,-0.11339 0.22678,-0.22677 0.34016,-0.33898 0.008,-0.21968 0.0154,-0.44055 0.0224,-0.66024 -0.005,-0.11574 -0.009,-0.23149 -0.0153,-0.34606 0.11456,-0.90591 0.22795,-1.81181 0.34252,-2.71772 -0.004,-0.22795 -0.007,-0.45472 -0.0118,-0.68268 0.11338,-0.22559 0.22677,-0.45236 0.34015,-0.67795 0.013,-0.10039 0.0201,-0.20197 0.0201,-0.30354 0.14174,-0.0732 0.26929,-0.10512 0.38504,-0.10512 0.31654,0 0.5563,0.23149 0.78544,0.49134 0.27756,0.3437 0.71338,0.40157 1.07835,0.59055 0.26102,-0.26221 0.63661,-0.4252 0.75472,-0.81024 0.0992,-0.12756 0.21969,-0.22677 0.35788,-0.30945 0.75236,-0.24685 1.40315,-0.86338 2.2252,-0.86338 0.17716,0 0.36259,0.0283 0.55984,0.0957 0.15,0.10866 0.2622,0.24685 0.34016,0.41338 0.10748,0.44173 0.16181,0.86929 -0.0945,1.21535 0.17953,0.0118 0.35551,0.0602 0.52913,0.13347 0.29292,0.2126 0.59292,0.3933 0.91063,0.47716 0.24331,0 0.4878,0 0.73111,10e-4 0.10157,-0.0272 0.20551,-0.065 0.31299,-0.11811 0.45236,-0.23385 0.9248,-0.59645 1.3878,-0.59645 0.27519,0 0.54685,0.12756 0.81023,0.48779 0.4878,0.66733 0.22678,1.27087 -0.25157,1.78583 0.0779,0.0154 0.15472,0.0437 0.22795,0.0862 0.34961,0.42166 0.62481,0.89646 0.94725,1.33937 0.32598,0.6378 0.0803,1.40315 0.46299,2.03032 0.002,0.0248 0.004,0.0484 0.005,0.0721 0.004,0 0.007,0 0.0106,0 0.008,0 0.0165,0 0.0248,0 0.008,0 0.0154,0 0.0224,0 0.007,0 0.0142,0 0.0213,0 0.0756,-0.0827 0.16181,-0.12283 0.25748,-0.12283 0.0142,0 0.0295,10e-4 0.0437,0.004 0.46653,-0.18662 0.93307,-0.37205 1.40079,-0.55748 0.0402,-0.78425 0.49016,-1.23543 1.21772,-1.39134 0.10039,-0.0213 0.1937,-0.0307 0.27992,-0.0307 0.64724,0 0.92717,0.56102 1.20827,1.0937 10e-4,0.44764 0.002,0.89409 0.004,1.34055 0.43819,0.28937 0.59882,0.7252 0.63189,1.22835 -0.0177,0.29055 -0.13228,0.5374 -0.34015,0.73937 -0.20434,0.16299 -0.45355,0.23031 -0.69095,0.32008 -1.05236,0.47008 -1.68662,1.31693 -2.10473,2.35748 -0.86339,0.73464 -1.39843,1.5685 -0.89882,2.75669 0.20197,0.47953 0.14882,0.94842 -0.16181,1.37244 0.013,0.0437 0.0236,0.0886 0.0284,0.13582 -0.13937,0.78189 -0.70985,1.37717 -1.11378,1.97244 -0.87166,1.28504 -0.52323,2.06457 0.6059,2.79685 0.15118,0.30355 0.2374,0.61418 0.0685,0.94134 0.22086,0.0614 0.38149,0.18189 0.48307,0.3626 0.0673,0.0319 0.13464,0.065 0.20197,0.10158 0.12165,0.14409 0.19606,0.30827 0.22795,0.49252 -0.19488,0.74173 -0.47244,0.96968 -0.78662,0.96968 -0.49488,0 -1.07953,-0.5622 -1.57795,-0.587 -0.0532,-10e-4 -0.10511,-10e-4 -0.15826,-0.002 -0.0768,0.10276 -0.17363,0.18544 -0.28937,0.24804 -0.098,0.0342 -0.19016,0.0508 -0.27874,0.0508 -0.23741,0 -0.44292,-0.11574 -0.63189,-0.29645 -0.11221,-0.11457 -0.22559,-0.22914 -0.33898,-0.3437 -0.18543,-0.0142 -0.37087,-0.0189 -0.55748,-0.0189 -0.25984,0 -0.51969,0.0106 -0.78071,0.0201 -0.25984,0.009 -0.52087,0.0201 -0.78071,0.0201 -0.66142,0 -1.31693,-0.065 -1.95354,-0.35906 -1.25669,-0.25748 -1.65236,-1.26969 -2.1189,-2.21929 -0.0531,0.004 -0.1063,0.007 -0.16063,0.009 -0.46654,0.0354 -0.84685,0.0756 -1.15276,0.13464 0.16063,0.1063 0.25984,0.26221 0.24213,0.48662 -0.0272,0.34724 -0.2315,0.48779 -0.5067,0.48779 -0.0614,0 -0.12519,-0.006 -0.19252,-0.0201 -0.31889,-0.0614 -0.43819,-0.31063 -0.37795,-0.59764 -0.35433,0.36023 -0.28346,1.00039 -0.004,2.22165 l 0.008,0.0343 c 0.0756,-0.0402 0.163,-0.0744 0.25867,-0.10394 0.0248,-0.002 0.0496,-0.004 0.0732,-0.004 0.3248,0 0.56574,0.17953 0.78779,0.40039 0.12638,0.085 0.23268,0.1937 0.32599,0.31418 0.16889,0.22441 0.21732,0.51732 0.41338,0.72637 0.15118,0.13465 0.31299,0.2504 0.50197,0.32953 0.61417,-0.59291 1.28858,-0.94134 2.05039,-0.94134 0.47953,0 0.99331,0.13701 1.54843,0.43937 0.56457,0 1.13032,10e-4 1.69606,10e-4 0.28819,0.30591 0.26339,0.57402 0.039,0.81733 0.1937,-0.0815 0.37677,-0.12638 0.54685,-0.12638 0.41338,0 0.75472,0.25866 1.00158,0.85748 0.0319,0.15591 0.0354,0.30473 0,0.44291 l 0.0154,0.013 c 0.16654,0.16299 0.30945,0.34134 0.41339,0.55039 0.0508,-0.0106 0.10394,-0.0154 0.15709,-0.0154 0.16063,0 0.32598,0.0413 0.49133,0.0827 0.58937,0.31772 1.20945,0.60473 1.86142,0.60473 0.17245,0 0.34725,-0.0213 0.52441,-0.0661 0.24686,-0.0626 0.48189,-0.091 0.70512,-0.091 0.75118,0 1.38543,0.32717 1.99016,0.82087 -0.0957,-0.27638 -0.19134,-0.55394 -0.28582,-0.82913 -0.33662,-0.22914 -0.67323,-0.45827 -1.00984,-0.68623 l 0.005,-0.005 c -0.12874,-0.69449 0.0354,-0.90827 0.33189,-0.90827 0.17008,0 0.38268,0.0697 0.60709,0.16063 -0.006,-0.65079 0.6,-0.93425 1.09252,-1.28386 0.0744,-0.45236 0.0472,-1.14449 0.54094,-1.14449 0.085,0 0.18543,0.0201 0.30473,0.0661 0.67795,0.26103 0.53976,0.82205 0.33307,1.35591 0.14409,-0.0402 0.28819,-0.0602 0.43228,-0.0602 0.15827,0 0.31772,0.0236 0.47717,0.0732 0.0354,0.0354 0.072,0.0685 0.11102,0.10157 0.17362,-0.26457 0.34606,-0.39685 0.51851,-0.39685 0.22795,0 0.4559,0.22913 0.68385,0.68386 0.0473,0.2811 0.18308,0.47598 0.4004,0.59173 0.11575,-0.0602 0.2374,-0.10394 0.38031,-0.10394 0.008,0 0.0177,0 0.026,0.001 0.10157,0.0307 0.19252,0.0697 0.27756,0.1122 -0.0709,-0.16417 -0.12284,-0.33898 -0.17599,-0.5126 0.43937,-0.96968 -0.28701,-1.95354 0.0319,-2.92795 0.0709,-0.16181 0.17481,-0.29527 0.30945,-0.40748 0.24331,-0.13465 0.4748,-0.19724 0.69803,-0.19724 0.35552,0 0.68859,0.15945 1.00276,0.44173 0.42756,0.38622 1.0748,0.37677 1.48819,0.79016 0.38741,-0.48307 0.84804,-0.87284 1.5189,-1.00039 0.25276,-0.0189 0.52441,-0.0921 0.77008,-0.0921 0.2067,0 0.39567,0.0508 0.54449,0.22441 0.21496,-0.16181 0.45591,-0.27047 0.74173,-0.2752 0.1689,0.0236 0.32244,0.0862 0.46181,0.18662 0.1063,0.14882 0.10276,0.3 0.004,0.45236 -0.052,1.02402 0.17834,2.07992 -0.3437,3.05079 -0.33662,0.002 -0.67441,0.004 -1.01102,0.006 0.15236,0.68031 -0.43111,1.35354 -0.0201,2.0374 -0.32835,0.29645 -0.70748,0.33425 -1.09606,0.33425 -0.0661,0 -0.13465,-10e-4 -0.20197,-0.002 -0.0673,-10e-4 -0.13465,-0.002 -0.20197,-0.002 -0.0591,0 -0.11811,0.001 -0.17716,0.004 -0.51497,-0.45473 -0.67914,-1.35591 -1.55197,-1.35591 -0.0508,0 -0.10394,0.002 -0.15945,0.009 -0.0921,0.0531 -0.18189,0.0756 -0.27048,0.0756 -0.13228,0 -0.2622,-0.0508 -0.38858,-0.12166 -0.18071,-0.27874 -0.38622,-0.36023 -0.60118,-0.36023 -0.2563,0 -0.52795,0.11693 -0.78898,0.1559 0.28819,0.40512 0.44174,0.91418 0.67796,1.35945 0.009,0.0791 0.0189,0.15827 0.0283,0.23622 -0.31535,0.25867 -0.73228,0.44174 -0.9248,0.79252 0.0165,0 0.0319,0.002 0.0484,0.002 0.11457,0.0153 0.22677,0.0224 0.3378,0.0224 0.52913,0 1.02992,-0.15237 1.54016,-0.30473 0.50905,-0.15118 1.02638,-0.30354 1.58858,-0.30354 0.0898,0 0.18189,0.005 0.27401,0.013 1.10551,0.10158 2.21575,0.13701 3.30591,0.40039 0.15709,0.0827 0.27756,0.20079 0.36378,0.35552 0.0543,0.16535 0.0685,0.33425 0.0413,0.50551 -0.0909,0.33189 -0.24212,0.60945 -0.51614,0.77362 0.0366,0.0449 0.072,0.091 0.10512,0.13937 0.3059,0.56811 0.35197,1.28504 0.95551,1.6878 10e-4,0.0248 0.004,0.0484 0.006,0.072 0.0626,0.0307 0.12165,0.0661 0.17716,0.10866 0.0472,-0.23386 0.17717,-0.41811 0.37323,-0.56575 0.48898,-0.2752 0.99685,-0.45709 1.53898,-0.45709 0.1689,0 0.34134,0.0177 0.51732,0.0555 0.17244,0.0461 0.32481,0.1311 0.45591,0.25275 0.2374,0.29528 0.2185,0.62953 0.14882,0.97205 -0.44055,0.64488 0.12047,1.36417 -0.13465,2.02441 -0.43228,0.68268 -1.00984,1.21181 -1.71969,1.59803 -0.37913,0.0768 -0.61181,0.29882 -0.68031,0.68386 -0.52678,0.29764 -1.09606,0.34134 -1.67244,0.34134 -0.11929,0 -0.23859,-10e-4 -0.35788,-0.004 -0.17834,-0.14291 -0.37323,-0.17126 -0.57283,-0.17126 -0.0614,0 -0.12402,0.004 -0.18544,0.006 -0.0626,0.002 -0.12401,0.005 -0.18543,0.005 -0.0555,0 -0.10984,-10e-4 -0.16417,-0.008 -1.57913,-0.17481 -1.95,-0.80079 -1.45512,-2.45906 0.16063,-0.14764 0.32244,-0.19489 0.48543,-0.19489 0.0106,0 0.0224,0 0.0331,0.001 10e-4,-0.19016 0.002,-0.38032 0.004,-0.5693 -0.31772,-0.18189 -0.77481,0.0508 -1.02165,-0.34488 -0.22796,-0.22441 -0.45591,-0.44882 -0.68386,-0.67205 -0.11103,-0.22441 -0.22087,-0.44882 -0.33189,-0.67204 -0.3874,0.28582 -0.8067,0.3437 -1.23307,0.3437 -0.27756,0 -0.55748,-0.0248 -0.83504,-0.0272 0.0508,0.38858 -0.23859,0.6815 -0.31536,1.03583 -0.20787,1.08543 -1.51299,1.72205 -1.22953,3.00709 -0.26574,0.0142 -0.53267,0.0284 -0.79842,0.0425 -0.28347,-0.2811 -0.64607,-0.32126 -1.01811,-0.33307 l -0.16654,0.002 -0.16535,-0.004 c -0.008,0.37795 0.0425,0.73583 0.33543,1.01457 0.15591,0.73465 -0.38858,0.92953 -0.77953,0.92953 z m -13.7161,-4.78465 v 0 l -0.006,-0.009 -0.002,0.009 z m -11.6528,-10.0181 c -0.0236,0.007 -0.0472,0.0142 -0.072,0.0189 0.10985,0.14173 0.14292,0.29409 0.11103,0.45708 0.0472,-0.0472 0.10039,-0.0874 0.1559,-0.12283 -0.1122,-0.10158 -0.18189,-0.21732 -0.19488,-0.35315 z m 15.0815,-5.51575 v 0 c -0.11575,-0.31654 -0.19134,-0.63307 -0.0496,-0.94961 -0.0791,0.0402 -0.16417,0.0661 -0.25157,0.0839 -0.0721,0.0555 -0.14055,0.11575 -0.20315,0.18307 0.20905,0.17953 0.3496,0.43937 0.50433,0.68268 z m 2.80984,-9.10276 v 0 c -0.0531,-0.1063 -0.0862,-0.2126 -0.0992,-0.3189 -0.0791,0.0898 -0.13819,0.1937 -0.18425,0.30709 0.0343,-0.005 0.0697,-0.007 0.10511,-0.007 0.0579,0 0.11693,0.006 0.17835,0.0189 z m -2.18268,-3.77126 v 0 -0.002 l -10e-4,0.002 z"
   class="fil9"
   inkscape:connector-curvature="0" /><path
   style="fill:#dff3f6;fill-opacity:1"
   id="_305304008"
   d="m 651.891,677.955 c -0.13228,0 -0.28465,-0.008 -0.46063,-0.0224 0.30472,-0.30118 0.53622,-0.44173 0.77362,-0.44173 0.14055,0 0.28229,0.0484 0.44173,0.14291 -0.15944,0.24803 -0.37559,0.32126 -0.75472,0.32126 z"
   class="fil9"
   inkscape:connector-curvature="0" /><path
   style="fill:#dff3f6;fill-opacity:1"
   id="_305304416"
   d="m 671.109,662.313 c -0.39213,0 -0.68622,-0.46772 -0.90827,-1.09606 -0.38267,-1.08307 -0.13346,-2.23465 -0.19134,-3.35433 -0.20669,-0.30236 -0.17244,-0.60118 0.009,-0.89528 0.0921,-0.10984 0.20906,-0.19133 0.34134,-0.24094 0.026,-0.008 0.052,-0.0118 0.0768,-0.0118 0.0602,0 0.11103,0.0248 0.14292,0.0709 0,0.006 0.004,0.013 0.0106,0.0189 v 0 c -0.004,-0.007 -0.007,-0.013 -0.0106,-0.0189 -0.002,-0.0142 0.008,-0.0272 0.008,-0.0272 0,0 -0.0886,-0.14291 -0.0992,-0.15827 -0.10984,-0.31299 -0.0378,-0.5622 0.19961,-0.76299 0.33779,-10e-4 0.67559,-10e-4 1.01221,-0.002 0.84921,0.0201 1.03465,1.03937 1.72795,1.29331 -0.0425,-0.0732 -0.0862,-0.14764 -0.13465,-0.21851 -0.072,-0.85157 0.24921,-1.38543 1.15748,-1.45158 0.0106,10e-4 0.0224,10e-4 0.0343,10e-4 0.005,0 0.009,0 0.0154,0 0.005,0 0.009,0 0.0154,0 0.039,0 0.0768,0.002 0.0921,0.0213 0.90354,1.12087 1.9063,1.81654 3.23386,1.81654 0.38976,0 0.80669,-0.0591 1.25787,-0.18661 0.0791,-0.0224 0.15945,-0.0331 0.23622,-0.0331 0.59291,0 1.06063,0.62953 0.48189,1.46221 l 10e-4,10e-4 c -0.22559,0 -0.45118,0 -0.67795,0 -0.49607,0.43937 -0.6189,1.01457 -0.68504,1.65118 -0.1063,1.01221 -0.29055,1.44803 -0.79843,1.44803 -0.28819,0 -0.68031,-0.13937 -1.22126,-0.39331 -0.33779,0 -0.67677,-10e-4 -1.01457,-10e-4 0.0945,-0.82323 -0.49961,-1.23307 -1.01575,-1.69016 -0.98031,0.29646 -2.22165,0.22441 -2.36693,1.69016 -10e-4,0.11339 -0.002,0.22677 -0.002,0.34016 -0.35906,0.51614 -0.66614,0.72756 -0.92835,0.72756 z"
   class="fil9"
   inkscape:connector-curvature="0" /><path
   style="fill:#dff3f6;fill-opacity:1"
   id="_305304296"
   d="m 673.245,662.67 c -0.0803,0 -0.16417,-0.0189 -0.24803,-0.0366 -0.085,-0.0189 -0.1689,-0.0366 -0.2504,-0.0366 -0.009,0 -0.0189,0 -0.0283,10e-4 v -10e-4 c 0.085,-0.27756 0.19724,-0.54094 0.48307,-0.54094 0.0532,0 0.1122,0.009 0.17835,0.0295 0.10039,0.0295 0.23858,0.29764 0.1996,0.37087 -0.0898,0.16772 -0.20669,0.21378 -0.33425,0.21378 z"
   class="fil9"
   inkscape:connector-curvature="0" /><path
   style="fill:#dff3f6;fill-opacity:1"
   id="_305304032"
   d="m 671.231,626.463 c -0.026,0 -0.0508,-10e-4 -0.0768,-0.002 -0.48662,-0.32481 -0.97559,-0.49607 -1.46693,-0.49607 -0.46063,0 -0.92362,0.15 -1.38898,0.463 -1.30984,-0.0165 -1.95827,-0.82205 -2.32795,-1.95709 0.007,-0.0957 0.0272,-0.1878 0.0567,-0.27756 -0.0461,0.0118 -0.0921,0.0201 -0.14173,0.0213 -0.42992,-0.15709 -0.81969,-0.35906 -0.95197,-0.8504 0.33189,-0.52086 0.73583,-1.01339 0.67795,-1.69134 -0.0626,-0.61299 -0.48189,-0.94134 -1.19882,-1.18583 0.8315,-0.62716 1.47874,-1.19055 2.39528,-1.19055 0.0496,0 0.1004,10e-4 0.15118,0.005 l 0.006,0.009 h 10e-4 l -0.007,-0.009 c 0.004,-0.10984 0.009,-0.21851 0.0165,-0.32717 0.45118,-0.17598 0.82205,-0.82323 1.30394,-0.82323 0.2126,0 0.44646,0.1252 0.71929,0.47244 0.33662,0.002 0.67205,0.005 1.00748,0.008 0.31654,0.55748 -0.1063,0.93071 -0.33661,1.35118 0.1122,0.11221 0.22559,0.22559 0.33661,0.3378 0.0189,-10e-4 0.0354,-10e-4 0.0531,-10e-4 0.78425,0 0.78425,0.67204 1.08661,1.17756 0.40866,0.68031 0.74055,1.50709 1.56614,1.8685 0.11457,0.22559 0.22677,0.45118 0.34134,0.67559 -0.002,0.67559 -0.002,1.35236 -0.004,2.02795 -0.33898,0.002 -0.67796,0.005 -1.01693,0.007 -0.20552,0.27166 -0.47835,0.38741 -0.80197,0.38741 z"
   class="fil9"
   inkscape:connector-curvature="0" /><path
   style="fill:#dff3f6;fill-opacity:1"
   id="_305303120"
   d="m 666.9,664.752 c -0.36024,0 -0.7063,-0.17008 -1.01929,-0.6874 0.0579,-0.11929 0.13228,-0.17835 0.22441,-0.17835 0.0543,0 0.11457,0.0201 0.18071,0.0626 0.0402,0.004 0.0791,0.006 0.11811,0.006 0.52441,-10e-4 0.88701,-0.32717 1.23661,-0.68032 0.3815,0.0709 0.60827,0.29882 0.67913,0.68032 -10e-4,0.11102 -0.002,0.22322 -0.004,0.33425 -0.4748,0.18897 -0.95787,0.46299 -1.41614,0.46299 z"
   class="fil9"
   inkscape:connector-curvature="0" /><path
   style="fill:#dff3f6;fill-opacity:1"
   id="_305303576"
   d="m 626.714,632.496 c -0.32717,-0.43465 -0.56811,-1.01693 -0.0874,-1.33583 0.0803,-0.0531 0.14882,-0.0768 0.20905,-0.0768 0.28111,0 0.36615,0.50669 0.5504,0.73346 -0.22323,0.22559 -0.44764,0.45237 -0.67205,0.67914 z"
   class="fil9"
   inkscape:connector-curvature="0" /><path
   style="fill:#dff3f6;fill-opacity:1"
   id="_305303528"
   d="m 662.354,665.882 c -0.51378,0 -1.02638,0 -1.59921,0 0.19606,-0.17953 0.39331,-0.23976 0.58819,-0.23976 0.34134,0 0.68031,0.18307 1.01102,0.23976 z"
   class="fil9"
   inkscape:connector-curvature="0" /><path
   style="fill:#dff3f6;fill-opacity:1"
   id="_305303504"
   d="m 662.907,662.935 c -0.90472,-0.54449 -1.54843,-1.27677 -1.69134,-2.36575 -1.42913,-0.60236 -0.20669,-1.5815 -0.33779,-2.36811 0.45118,-0.11221 0.90236,-0.22559 1.35236,-0.3378 0.21614,-0.19015 0.41338,-0.43937 0.6933,-0.43937 0.0957,0 0.20197,0.0295 0.32126,0.1004 0.33898,0.11338 0.67677,0.22677 1.01575,0.33898 0.34134,10e-4 0.68386,10e-4 1.02638,10e-4 0.0307,-0.0236 0.0626,-0.0472 0.0957,-0.0709 0.19961,-0.18661 0.4311,-0.2811 0.69449,-0.2811 0.0342,0 0.0697,0.002 0.10512,0.005 0.48661,0.16299 0.85157,0.41811 0.7689,1.01339 -0.59764,0.54922 -0.63544,1.3748 -1.00276,2.03858 -0.19016,0.36378 -0.30945,0.85985 -0.69922,0.85985 -0.0886,0 -0.19134,-0.026 -0.31181,-0.0839 -0.002,0.52795 -0.006,1.05591 -0.009,1.58268 -0.67323,0.002 -1.34646,0.005 -2.02087,0.007 z m -0.002,-2.49213 c -0.13583,0 -0.30236,0.0957 -0.55866,0.27165 v 0 c 0.0189,0.0791 0.0165,0.15237 0.002,0.22323 0.0839,-0.0638 0.17835,-0.11575 0.28464,-0.15118 0.18307,-0.0472 0.35906,-0.11811 0.52441,-0.20905 -0.0838,-0.0921 -0.16181,-0.13465 -0.25275,-0.13465 z"
   class="fil9"
   inkscape:connector-curvature="0" /><path
   style="fill:#dff3f6;fill-opacity:1"
   id="_305303192"
   d="m 628.179,635.267 c -0.12047,0 -0.26575,-0.0236 -0.43701,-0.0744 -0.002,-0.10984 -0.006,-0.2185 -0.008,-0.32835 0.2126,-0.40748 0.54213,-0.63897 1.00512,-0.67204 0.0496,0.59409 -0.0142,1.0748 -0.55984,1.0748 z"
   class="fil9"
   inkscape:connector-curvature="0" /><path
   style="fill:#dff3f6;fill-opacity:1"
   id="_305303792"
   d="m 658.339,662.981 c -0.28465,0 -0.56929,-0.12638 -0.85394,-0.37677 -0.21968,-0.11693 -0.43937,-0.23386 -0.66023,-0.35079 -0.10748,-0.61654 0.26693,-0.9248 0.74527,-1.16693 0.42402,-0.21378 0.88347,-0.29055 1.33701,-0.29055 0.15118,0 0.30236,0.008 0.45,0.0236 0.83386,0.085 1.40315,0.46772 0.84449,1.43858 -0.33661,0.11339 -0.67441,0.22795 -1.01102,0.34252 -0.28346,0.25394 -0.56811,0.38032 -0.85157,0.38032 z"
   class="fil9"
   inkscape:connector-curvature="0" /><path
   style="fill:#dff3f6;fill-opacity:1"
   id="_305303336"
   d="m 672.038,638.921 c -0.0472,-0.0284 -0.0957,-0.0543 -0.14055,-0.0862 -0.5126,-0.36614 -0.97559,-0.77244 -0.75354,-1.49291 0.0484,-0.15709 0.1807,-0.23976 0.32244,-0.23976 0.0744,0 0.15,0.0213 0.21968,0.0673 0.63071,0.41457 1.17165,0.88937 0.68504,1.75158 h -0.16653 -0.16654 z"
   class="fil9"
   inkscape:connector-curvature="0" /><path
   style="fill:#dff3f6;fill-opacity:1"
   id="_305303696"
   d="m 669.666,638.817 c -0.36496,0 -0.5811,-0.2185 -0.56693,-0.60236 0.013,-0.36851 0.23977,-0.54685 0.55158,-0.54685 0.0425,0 0.0874,0.002 0.13228,0.009 0.30236,0.0437 0.4748,0.2693 0.46417,0.59528 -0.0248,0.32598 -0.20787,0.52441 -0.52323,0.54331 -0.0189,10e-4 -0.039,10e-4 -0.0579,10e-4 z"
   class="fil9"
   inkscape:connector-curvature="0" /><path
   style="fill:#dff3f6;fill-opacity:1"
   id="_305303552"
   d="m 649.766,654.169 c -0.12638,0 -0.2563,-0.008 -0.38976,-0.026 -0.2256,0 -0.45119,10e-4 -0.67678,10e-4 -0.59645,-0.0791 -0.93543,-0.41693 -1.01811,-1.01339 -0.44173,-0.56457 -0.43346,-1.12913 0.002,-1.6937 0.50551,-0.13347 1.00984,-0.64489 1.51536,-0.64489 0.28464,0 0.56811,0.16182 0.85275,0.64607 0.50315,0.42283 0.4004,0.89291 0.23859,1.36654 0.13346,-0.13229 0.29055,-0.23032 0.47244,-0.28937 -0.072,-0.48662 -0.19961,-0.95551 -0.56221,-1.33465 -0.0307,-0.12756 -0.0378,-0.25512 -0.0213,-0.38268 -0.0366,0.004 -0.072,0.006 -0.1063,0.006 -0.50551,0 -0.71338,-0.39449 -0.83149,-0.90827 -0.0402,-0.098 0.039,-0.17835 0.13582,-0.2563 -0.001,-0.0295 -0.002,-0.0602 -0.004,-0.0898 l -0.002,0.002 c -0.19843,0.0779 -0.37205,0.11102 -0.52796,0.11102 -0.86338,0 -1.15984,-1.03937 -1.83071,-1.39488 -0.46417,-0.78779 -1.2626,-0.80551 -2.03504,-0.88464 0.007,-0.53977 -0.0165,-1.08071 0.0284,-1.61575 0.0508,-0.60709 0.28819,-0.92481 0.7063,-0.92481 0.17362,0 0.37914,0.0543 0.61418,0.16654 0.11338,-0.22559 0.22677,-0.45118 0.33897,-0.67677 -0.1937,-0.22678 -0.20669,-0.45119 0.006,-0.67441 0.34842,-0.23741 0.73346,-0.43583 1.04055,-0.71812 0.72992,-0.67322 -0.0248,-0.54685 -0.36614,-0.63543 -0.27284,-0.90236 -0.2693,-1.80473 -0.002,-2.70709 0.11339,-0.1122 0.22678,-0.22441 0.34016,-0.33661 0.1689,-0.16418 0.3626,-0.27874 0.6,-0.29882 -0.12874,-0.61181 -0.026,-1.00394 0.49488,-1.00394 0.17481,0 0.39804,0.0437 0.67559,0.13937 0.11339,0.0402 0.22323,0.0591 0.32953,0.0591 0.21969,0 0.4252,-0.0827 0.61418,-0.24212 0.0697,-0.0437 0.13937,-0.0661 0.20905,-0.0661 0.0673,0 0.13347,0.0201 0.19961,0.059 0.0354,-0.002 0.0709,-0.005 0.1063,-0.007 -0.008,-0.27283 0.10157,-0.50078 0.28228,-0.70748 0.39685,-0.45236 0.12402,-0.70393 -0.28701,-0.88819 -0.13582,-0.0602 -0.25275,-0.0886 -0.35197,-0.0886 -0.26338,0 -0.40275,0.20669 -0.42756,0.58465 -0.0307,0.47716 -0.15354,0.89173 -0.69685,1.0252 -0.5563,0 -1.10551,-0.0614 -1.66063,-0.0614 -0.004,0 -0.006,0 -0.009,0 -10e-4,0 -0.004,0 -0.006,0 -1.12795,0 -1.67362,-0.49606 -1.29685,-1.68307 0.0461,-0.0449 0.0933,-0.0898 0.14055,-0.13465 l -0.004,-0.005 c -0.23268,0.19252 -0.46654,0.27165 -0.7004,0.27165 -0.30708,0 -0.61417,-0.137 -0.92126,-0.33189 -0.10984,-10e-4 -0.21968,-0.004 -0.32953,-0.006 -0.002,-0.25512 -0.004,-0.51024 -0.005,-0.76536 -0.41102,-0.0862 -0.70748,-0.2622 -0.71102,-0.66496 -0.53622,0.26103 -1.07126,0.48662 -1.59449,0.48662 -0.47481,0 -0.93898,-0.18544 -1.38543,-0.69685 -0.47599,-0.85749 -0.21378,-1.90394 -0.70158,-2.76142 -0.0484,-0.90473 -1.54252,-1.80118 -0.013,-2.71417 10e-4,-0.10748 0.004,-0.21378 0.009,-0.32126 0.22559,-0.11339 0.45,-0.22678 0.67441,-0.34016 1.35354,-0.29764 2.33976,-1.18937 2.8441,-2.35866 0.49488,-1.14921 1.27441,-1.36654 2.23701,-1.36654 0.10866,0 0.21968,0.002 0.33189,0.007 0.11338,-0.11102 0.22677,-0.22322 0.33898,-0.33543 0.35433,-0.16417 0.69567,-0.22913 1.02874,-0.22913 0.64724,0 1.26378,0.24685 1.88032,0.4937 0.61771,0.24685 1.23425,0.4937 1.8815,0.4937 0.20196,0 0.40629,-0.0248 0.61535,-0.0791 0.14646,0.10866 0.24331,0.25039 0.2941,0.42519 0.5185,0.20906 1.02165,0.53268 1.56732,0.53268 0.24212,0 0.4937,-0.0638 0.75708,-0.2315 -0.013,-0.0189 -0.0272,-0.039 -0.039,-0.059 -0.0378,-0.15827 -0.0331,-0.31536 0.0142,-0.47126 0.20551,-0.30709 0.36024,-0.63307 0.33661,-1.01693 -0.004,-0.20669 -0.0768,-0.38504 -0.21968,-0.53622 1.27323,-0.1311 0.29409,-1.76693 1.36063,-2.03622 0.44882,0.11456 0.89646,0.22795 1.34528,0.34252 0.56457,0.11338 1.12795,0.22559 1.69134,0.33897 0.22677,-0.22559 0.45118,-0.45 0.67795,-0.67559 0.31181,-0.13228 0.56103,-0.18897 0.76181,-0.18897 0.89646,0 0.84095,1.13976 1.2,1.78228 0.27166,-0.32481 0.63662,-0.4689 1.07717,-0.4689 10e-4,0 0.002,0 0.002,0 0.33898,0.0508 0.49252,0.32717 0.67796,0.56575 0.22441,0.11456 0.45,0.22913 0.67559,0.3437 v 0 0 0 c 0.11338,-0.002 0.22677,-0.005 0.34134,-0.006 0.43701,0.42402 1.00866,0.70866 1.32165,1.26496 0.14291,0.30473 0.29291,0.60945 0.14882,0.92126 0.14055,0.3189 0.0779,0.62008 -0.091,0.91418 -0.0945,0.13819 -0.21496,0.25275 -0.35197,0.34606 -0.059,0.0295 -0.11575,0.0567 -0.17244,0.0827 -0.18661,0.18307 -0.36732,0.38149 -0.59291,0.47598 -1.31575,0.55512 -1.20827,1.26614 -0.28583,2.10591 0.12165,0.10039 0.19488,0.22795 0.21969,0.38504 -0.007,0.11339 -0.039,0.2185 -0.0898,0.31535 0.49252,0.2941 0.52677,0.92835 0.90827,1.30512 0.25157,0.8126 0.42756,1.49882 -0.44055,1.49882 -0.17008,0 -0.3815,-0.0272 -0.64134,-0.085 -0.11102,-0.0248 -0.2185,-0.0366 -0.32008,-0.0366 -0.69331,0 -1.15158,0.54921 -1.29921,1.33347 -0.0839,0.4252 -0.35669,0.6626 -0.76181,0.76654 -0.12402,0.0142 -0.24685,0.0236 -0.36614,0.0236 -0.009,0 -0.0189,0 -0.0284,0 -0.76063,0.58228 -1.5874,0.82323 -2.45906,0.82323 -0.44409,0 -0.9,-0.0626 -1.36536,-0.17362 -0.3189,-0.25158 -0.89291,-0.24567 -1.07244,-0.63662 -0.0319,-0.005 -0.0638,-0.008 -0.0968,-0.0142 -0.42756,-0.11811 -0.85039,-0.24685 -1.29685,-0.2811 -1.97599,-0.42402 -2.23583,-0.72284 -2.19685,-2.51457 0.0236,-0.30473 0.0827,-0.59055 0.26339,-0.81969 -0.4004,-0.0165 -0.79134,-0.12638 -1.18819,-0.17598 0.0236,0.072 0.0378,0.14764 0.0413,0.22913 -0.0815,0.57166 -0.36024,1.02165 -0.8315,1.35354 -0.12047,0.1004 -0.25748,0.16772 -0.40748,0.20906 -0.0425,-0.002 -0.0862,-0.005 -0.12874,-0.008 -0.13701,0.2374 -0.31536,0.43583 -0.50788,0.62244 0.10748,-0.0709 0.21851,-0.13465 0.33898,-0.18189 0.15945,-0.0295 0.3189,-0.0449 0.47835,-0.0449 0.18307,0 0.36496,0.0201 0.54803,0.059 1.58504,0.78071 2.18504,2.09764 2.07047,3.80433 0.0709,0.82796 0.19843,1.64173 -0.001,2.4815 -0.18307,0.77244 -0.54213,1.23425 -1.31929,1.23425 -0.0508,0 -0.10394,-0.002 -0.15827,-0.006 -0.11457,-0.0295 -0.2185,-0.0803 -0.31299,-0.14528 0.18071,0.48898 0.22559,0.88701 -0.32008,0.88701 -0.0909,0 -0.19842,-0.0106 -0.32362,-0.0343 0.0189,0.0744 0.026,0.15236 0.0201,0.23504 -0.26575,0.68504 -1.09488,0.80197 -1.4315,1.41732 -0.17363,0.18543 -0.32008,0.40157 -0.53386,0.54212 0.53031,0.60827 0.28228,1.21535 -0.0154,1.82244 0.41811,0.20433 0.90473,0.32362 1.07244,0.84095 0.13937,-0.0827 0.29764,-0.12638 0.47363,-0.12756 0.70393,0.24921 1.62756,-0.11693 2.11181,0.75 0.002,0.10394 -0.0154,0.20669 -0.0413,0.30827 0.77716,0.66968 0.24449,1.07717 -0.24803,1.49291 0.0272,0.0579 0.0579,0.11574 0.10039,0.1748 -0.0319,0.23622 -0.0862,0.46299 -0.26102,0.64016 -0.2504,0.22559 -0.2504,0.45236 10e-4,0.67677 0.46771,1.28858 0.48897,2.40354 -1.11378,2.89488 -0.11221,-0.002 -0.2126,-0.0248 -0.30473,-0.0591 -0.35197,0.64961 -0.89764,0.91063 -1.57323,0.91063 z m 7.68426,-20.9988 0.008,0.0154 0.0343,-0.0106 c -0.013,-0.002 -0.0284,-0.004 -0.0425,-0.005 z m -7.5437,-7.43268 c 0.0248,0.0342 0.0496,0.0673 0.0756,0.10039 l 0.009,-0.008 c -0.0283,-0.0295 -0.0567,-0.0591 -0.085,-0.0921 z"
   class="fil9"
   inkscape:connector-curvature="0" /><path
   style="fill:#dff3f6;fill-opacity:1"
   id="_305303360"
   d="m 659.99,658.258 c -0.15472,-0.35669 -0.30945,-0.71339 -0.46417,-1.07008 -0.53622,-0.30354 -0.93898,-0.70866 -1.02165,-1.35354 0.46063,-0.24213 0.9496,-0.33898 1.4563,-0.33898 0.0791,0 0.15827,0.002 0.2374,0.007 0.1311,0.0177 0.2622,0.0331 0.39331,0.039 0.39921,-10e-4 0.76417,-0.12048 1.10551,-0.32244 0.0661,-0.0201 0.1311,-0.0402 0.19606,-0.0602 0.54094,1.70551 0.34842,1.93583 -1.68898,2.03032 -0.001,0.1122 -0.001,0.22441 -0.001,0.33661 -0.0709,0.24449 -0.14173,0.48898 -0.2126,0.73229 z"
   class="fil9"
   inkscape:connector-curvature="0" /><path
   style="fill:#dff3f6;fill-opacity:1"
   id="_305302856"
   d="m 657.492,656.504 c -0.55984,-0.004 -1.1185,-0.006 -1.67835,-0.009 -0.45,-0.42638 -0.97795,-0.77953 -1.25551,-1.36536 -0.0319,-0.25512 0.0496,-0.47008 0.22913,-0.64961 1.21654,0.0614 2.57599,-0.10748 2.70827,1.69134 -10e-4,0.11103 -0.002,0.22205 -0.004,0.33308 z"
   class="fil9"
   inkscape:connector-curvature="0" /><path
   style="fill:#dff3f6;fill-opacity:1"
   id="_305302736"
   d="m 646.669,659.894 c 0.0945,-0.35315 0.26929,-0.62599 0.62953,-0.62599 0.0449,0 0.0921,0.004 0.14173,0.013 0.36732,0.0626 0.31535,0.34488 0.24331,0.61063 -0.3378,10e-4 -0.67678,10e-4 -1.01457,0.002 z"
   class="fil9"
   inkscape:connector-curvature="0" /><path
   style="fill:#dff3f6;fill-opacity:1"
   id="_305302520"
   d="m 642.769,661.132 c -0.0803,0 -0.19016,-0.0425 -0.22205,-0.098 -0.0933,-0.16299 -0.0106,-0.2811 0.16063,-0.2811 0.006,0 0.013,0 0.0189,0 0.0779,0.004 0.15,0.10984 0.22559,0.16889 -0.0508,0.0768 -0.0909,0.19725 -0.15118,0.20788 -0.009,10e-4 -0.0201,0.002 -0.0319,0.002 z"
   class="fil9"
   inkscape:connector-curvature="0" /><text
   id="text4646"
   y="862.87811"
   x="608.83093"
   style="font-style:normal;font-variant:normal;font-weight:bold;font-stretch:normal;line-height:0%;font-family:sans-serif;-inkscape-font-specification:'sans-serif Bold';letter-spacing:0px;word-spacing:0px;fill:#dff3f6;fill-opacity:1;stroke:none"
   xml:space="preserve"><tspan
     y="862.87811"
     x="608.83093"
     id="tspan4644"
     sodipodi:role="line"
     style="font-size:40px;line-height:1.25">Taranto ,TA</tspan></text>

<path
   style="fill:#ffffff;fill-opacity:0.17735849"
   inkscape:connector-curvature="0"
   class="fil3"
   d="m 579.828,488.099 68.24314,0 343.00186,623.7689 H 579.828 c -36.4429,0 -65.9989,-29.5571 -65.9989,-66.0012 l -0.001,-491.76902 c 0.001,-36.4441 29.5571,-66 66.0012,-66 h -10e-4 z"
   id="path965"
   sodipodi:nodetypes="cccsccccc" /><path
   inkscape:connector-curvature="0"
   class="fil1"
   d="m 786.217,197.068 c 33.3898,1.78228 178.487,1.51654 180.241,43.3559 5.81221,125.346 22.7162,182.76 37.011,209.076 -5.36339,-0.80315 -10.8472,-1.22362 -16.4256,-1.22362 h -390.339 c -10.1197,0 -19.9311,1.37717 -29.2642,3.94252 14.5937,-24.9992 32.5158,-81.9615 38.5347,-211.794 1.75512,-41.8394 146.854,-41.5736 180.243,-43.3559 h -10e-4 v -0.001 z"
   id="path983"
   style="fill:url(#pattern2423);fill-opacity:1;opacity:0.255" /><path
   inkscape:connector-curvature="0"
   class="fil1"
   d="m 786.217,1402.93 c 33.3898,-1.7823 178.487,-1.5165 180.241,-43.3559 5.81221,-125.346 22.7162,-182.76 37.011,-209.076 -5.36339,0.8032 -10.8472,1.2248 -16.4256,1.2248 h -390.339 c -10.1197,0 -19.9311,-1.3783 -29.2642,-3.9437 14.5937,24.9992 32.5158,81.9615 38.5347,211.794 1.75512,41.8394 146.854,41.5736 180.243,43.3559 h -10e-4 v 0 z"
   id="path985"
   style="fill:url(#pattern2421);fill-opacity:1;opacity:0.255" /></g></g></svg>