<?xml version="1.0" encoding="UTF-8" standalone="no"?>
<!-- Created with sK1/UniConvertor (http://sk1project.org/) -->

<svg
   xmlns:dc="http://purl.org/dc/elements/1.1/"
   xmlns:cc="http://creativecommons.org/ns#"
   xmlns:rdf="http://www.w3.org/1999/02/22-rdf-syntax-ns#"
   xmlns:svg="http://www.w3.org/2000/svg"
   xmlns="http://www.w3.org/2000/svg"
   xmlns:xlink="http://www.w3.org/1999/xlink"
   xmlns:sodipodi="http://sodipodi.sourceforge.net/DTD/sodipodi-0.dtd"
   xmlns:inkscape="http://www.inkscape.org/namespaces/inkscape"
   width="187.087pt"
   height="187.087pt"
   viewBox="0 0 187.087 187.087"
   fill-rule="evenodd"
   id="svg2"
   version="1.1"
   inkscape:version="0.48.4 r9939"
   sodipodi:docname="REALISTIC-SOCCER-BALL-BY-ILNANNY.svg">
  <metadata
     id="metadata564">
    <rdf:RDF>
      <cc:Work
         rdf:about="">
        <dc:format>image/svg+xml</dc:format>
        <dc:type
           rdf:resource="http://purl.org/dc/dcmitype/StillImage" />
        <dc:title />
      </cc:Work>
    </rdf:RDF>
  </metadata>
  <sodipodi:namedview
     pagecolor="#430000"
     bordercolor="#666666"
     borderopacity="1"
     objecttolerance="10"
     gridtolerance="10"
     guidetolerance="10"
     inkscape:pageopacity="0"
     inkscape:pageshadow="2"
     inkscape:window-width="1278"
     inkscape:window-height="973"
     id="namedview562"
     showgrid="false"
     inkscape:zoom="2.0183122"
     inkscape:cx="154.08648"
     inkscape:cy="109.4023"
     inkscape:window-x="0"
     inkscape:window-y="28"
     inkscape:window-maximized="1"
     inkscape:current-layer="g3541" />
  <defs
     id="defs4">
    <linearGradient
       inkscape:collect="always"
       id="linearGradient4028">
      <stop
         style="stop-color:#ffffff;stop-opacity:1;"
         offset="0"
         id="stop4030" />
      <stop
         style="stop-color:#ffffff;stop-opacity:0;"
         offset="1"
         id="stop4032" />
    </linearGradient>
    <linearGradient
       inkscape:collect="always"
       id="linearGradient4002">
      <stop
         style="stop-color:#ffffff;stop-opacity:1;"
         offset="0"
         id="stop4004" />
      <stop
         style="stop-color:#ffffff;stop-opacity:0;"
         offset="1"
         id="stop4006" />
    </linearGradient>
    <linearGradient
       id="linearGradient4664">
      <stop
         style="stop-color:#d2d2d2;stop-opacity:1;"
         offset="0"
         id="stop4666" />
      <stop
         style="stop-color:#d6d6d6;stop-opacity:0"
         offset="1"
         id="stop4668" />
    </linearGradient>
    <marker
       id="ArrowEnd"
       viewBox="0 0 10 10"
       refX="0"
       refY="5"
       markerUnits="strokeWidth"
       markerWidth="4"
       markerHeight="3"
       orient="auto">
      <path
         d="M 0 0 L 10 5 L 0 10 z"
         id="path7" />
    </marker>
    <marker
       id="ArrowStart"
       viewBox="0 0 10 10"
       refX="10"
       refY="5"
       markerUnits="strokeWidth"
       markerWidth="4"
       markerHeight="3"
       orient="auto">
      <path
         d="M 10 0 L 0 5 L 10 10 z"
         id="path10" />
    </marker>
    <radialGradient
       inkscape:collect="always"
       xlink:href="#linearGradient4664"
       id="radialGradient4670"
       cx="43.210201"
       cy="156.571"
       fx="43.210201"
       fy="156.571"
       r="18.2988"
       gradientTransform="matrix(1.2276365,0.50267278,-0.45128791,1.1021434,60.822375,-37.713292)"
       gradientUnits="userSpaceOnUse" />
    <radialGradient
       inkscape:collect="always"
       xlink:href="#linearGradient4664"
       id="radialGradient4727"
       gradientUnits="userSpaceOnUse"
       gradientTransform="matrix(1.2276365,0.50267278,-0.45128791,1.1021434,60.822375,-37.713292)"
       cx="43.210201"
       cy="156.571"
       fx="43.210201"
       fy="156.571"
       r="18.2988" />
    <filter
       inkscape:collect="always"
       id="filter4749"
       x="-0.077587357"
       width="1.1551747"
       y="-0.25600498"
       height="1.51201">
      <feGaussianBlur
         inkscape:collect="always"
         stdDeviation="1.0862424"
         id="feGaussianBlur4751" />
    </filter>
    <radialGradient
       inkscape:collect="always"
       xlink:href="#linearGradient4664"
       id="radialGradient4989"
       gradientUnits="userSpaceOnUse"
       gradientTransform="matrix(0.88660985,0.36303469,-0.32592409,0.79597763,54.851603,16.903686)"
       cx="43.210201"
       cy="156.571"
       fx="43.210201"
       fy="156.571"
       r="18.2988" />
    <radialGradient
       inkscape:collect="always"
       xlink:href="#linearGradient4664"
       id="radialGradient4991"
       gradientUnits="userSpaceOnUse"
       gradientTransform="matrix(0.9153317,0.38179658,-0.33648245,0.83711432,56.031581,9.9263725)"
       cx="43.210201"
       cy="156.571"
       fx="43.210201"
       fy="156.571"
       r="18.2988" />
    <radialGradient
       inkscape:collect="always"
       xlink:href="#linearGradient4002"
       id="radialGradient4008"
       cx="18.864746"
       cy="90.272815"
       fx="18.864746"
       fy="90.272815"
       r="12.146023"
       gradientTransform="matrix(1,0,0,1.6931076,0,-62.568778)"
       gradientUnits="userSpaceOnUse" />
    <filter
       inkscape:collect="always"
       id="filter4018"
       x="-0.55961526"
       width="2.1192305"
       y="-0.26534957"
       height="1.5306991">
      <feGaussianBlur
         inkscape:collect="always"
         stdDeviation="3.5401515"
         id="feGaussianBlur4020" />
    </filter>
    <filter
       inkscape:collect="always"
       id="filter4024"
       x="-0.081438593"
       width="1.1628772"
       y="-0.22792146"
       height="1.4558429">
      <feGaussianBlur
         inkscape:collect="always"
         stdDeviation="1.0539843"
         id="feGaussianBlur4026" />
    </filter>
    <radialGradient
       inkscape:collect="always"
       xlink:href="#linearGradient4028"
       id="radialGradient4034"
       cx="75.579925"
       cy="48.286028"
       fx="75.579925"
       fy="48.286028"
       r="19.598666"
       gradientTransform="matrix(1,0,0,0.49071577,0,24.591313)"
       gradientUnits="userSpaceOnUse" />
    <filter
       inkscape:collect="always"
       id="filter4052"
       x="-0.10263842"
       width="1.2052768"
       y="-0.15812262"
       height="1.3162452">
      <feGaussianBlur
         inkscape:collect="always"
         stdDeviation="0.97244752"
         id="feGaussianBlur4054" />
    </filter>
    <filter
       inkscape:collect="always"
       id="filter4056"
       x="-0.18958032"
       width="1.3791606"
       y="-0.087781996"
       height="1.175564">
      <feGaussianBlur
         inkscape:collect="always"
         stdDeviation="1.3574194"
         id="feGaussianBlur4058" />
    </filter>
    <filter
       inkscape:collect="always"
       id="filter4060"
       x="-0.11418715"
       width="1.2283743"
       y="-0.12643642"
       height="1.2528728">
      <feGaussianBlur
         inkscape:collect="always"
         stdDeviation="1.2575387"
         id="feGaussianBlur4062" />
    </filter>
    <filter
       inkscape:collect="always"
       id="filter4080"
       x="-0.081428343"
       width="1.1628567"
       y="-0.10008776"
       height="1.2001755">
      <feGaussianBlur
         inkscape:collect="always"
         stdDeviation="0.7908621"
         id="feGaussianBlur4082" />
    </filter>
    <filter
       inkscape:collect="always"
       id="filter4084"
       x="-0.11516409"
       width="1.2303282"
       y="-0.12517975"
       height="1.2503595">
      <feGaussianBlur
         inkscape:collect="always"
         stdDeviation="1.3093844"
         id="feGaussianBlur4086" />
    </filter>
    <filter
       inkscape:collect="always"
       id="filter4096"
       x="-0.14118233"
       width="1.2823647"
       y="-0.17353446"
       height="1.3470689">
      <feGaussianBlur
         inkscape:collect="always"
         stdDeviation="1.3712148"
         id="feGaussianBlur4098" />
    </filter>
    <filter
       inkscape:collect="always"
       id="filter4114"
       x="-0.47232785"
       width="1.9446557"
       y="-0.48792551"
       height="1.975851">
      <feGaussianBlur
         inkscape:collect="always"
         stdDeviation="5.2498375"
         id="feGaussianBlur4116" />
    </filter>
    <filter
       inkscape:collect="always"
       id="filter4118"
       x="-0.099206603"
       width="1.1984132"
       y="-1.3950929"
       height="3.7901857">
      <feGaussianBlur
         inkscape:collect="always"
         stdDeviation="4.6081172"
         id="feGaussianBlur4120" />
    </filter>
  </defs>
  <g
     id="g12">
    <g
       id="g3541">
      <path
         sodipodi:type="arc"
         style="fill:#454545;fill-opacity:0.84680852;stroke:none;filter:url(#filter4118)"
         id="path4993"
         sodipodi:cx="120.14989"
         sodipodi:cy="228.40866"
         sodipodi:rx="55.739643"
         sodipodi:ry="3.9637079"
         d="m 175.88953,228.40866 a 55.739643,3.9637079 0 1 1 -111.479286,0 55.739643,3.9637079 0 1 1 111.479286,0 z"
         transform="matrix(0.99464132,0,0,0.76176498,-26.160728,5.3174141)" />
      <g
         id="g152" />
      <g
         id="g4774"
         transform="matrix(1.2866026,0,0,1.2866026,-3.9027513,-51.004527)">
        <g
           id="g62">
          <path
             style="fill:#ffffff;stroke:none"
             d="M 99.76,97.0951 C 92.8961,90.4977 85.3833,84.489 75.8576,80.3065 c 0,-7.312 0,-14.624 0,-21.9359 2.8848,-2.7212 15.5985,-8.292 21.7224,-7.1376 9.391,4.6398 16.629,10.463 22.647,16.9565 3.171,7.8788 2.564,15.2755 1.014,22.5521 -7.16,2.1178 -14.321,4.2356 -21.481,6.3535 z"
             id="path64"
             inkscape:connector-curvature="0" />
          <g
             id="g66">
            <path
               style="fill:#f9f9f9;stroke:none"
               d="M 99.9997,96.9654 C 93.3489,90.2743 85.8861,84.4873 76.4844,80.3038 c 0,-7.2002 -0.1439,-14.0336 0.1729,-21.1466 2.7757,-2.7503 14.4868,-8.1939 20.958,-7.4392 9.1527,4.4321 16.7207,10.5193 22.6467,16.9135 3.123,7.7583 2.438,14.9122 0.912,22.0775 -7.051,2.0855 -14.123,4.1709 -21.1743,6.2564 z"
               id="path68"
               inkscape:connector-curvature="0" />
            <path
               style="fill:#f4f4f4;stroke:none"
               d="M 100.239,96.8357 C 93.8017,90.051 86.3889,84.4855 77.1113,80.3011 c 0,-7.0883 -0.2878,-13.4431 0.3458,-20.3572 2.6665,-2.7795 13.3749,-8.0959 20.1936,-7.7408 8.9133,4.2243 16.8123,10.5754 22.6463,16.8704 3.074,7.6378 2.312,14.549 0.81,21.603 -6.941,2.0531 -13.926,4.1061 -20.868,6.1592 z"
               id="path70"
               inkscape:connector-curvature="0" />
            <path
               style="fill:#efefef;stroke:none"
               d="M 100.479,96.706 C 94.2545,89.8276 86.8917,84.4837 77.7381,80.2984 c 0,-6.9765 -0.4316,-12.8527 0.5188,-19.5679 2.5572,-2.8085 12.2631,-7.9978 19.4291,-8.0423 8.675,4.0166 16.904,10.6316 22.646,16.8272 3.026,7.5174 2.187,14.1858 0.708,21.1286 -6.832,2.0206 -13.729,4.0413 -20.561,6.062 z"
               id="path72"
               inkscape:connector-curvature="0" />
            <path
               style="fill:#eaeaea;stroke:none"
               d="M 100.719,96.5763 C 94.7072,89.6043 87.3945,84.4819 78.3649,80.2957 c 0,-6.8647 -0.5754,-12.2623 0.6917,-18.7785 2.4481,-2.8377 11.1513,-7.8999 18.6647,-8.3439 8.4367,3.8088 16.9957,10.6878 22.6457,16.7841 2.977,7.3969 2.061,13.8225 0.606,20.654 -6.722,1.9883 -13.531,3.9766 -20.254,5.9649 z"
               id="path74"
               inkscape:connector-curvature="0" />
            <path
               style="fill:#e5e5e5;stroke:none"
               d="M 100.959,96.4466 C 95.16,89.3809 87.8973,84.4801 78.9918,80.2931 c 0,-6.753 -0.7194,-11.672 0.8646,-17.9893 2.3389,-2.8668 10.0395,-7.8018 17.9002,-8.6454 8.1974,3.601 17.0864,10.7439 22.6444,16.741 2.929,7.2764 1.936,13.4592 0.505,20.1795 -6.613,1.9559 -13.334,3.9118 -19.947,5.8677 z"
               id="path76"
               inkscape:connector-curvature="0" />
            <path
               style="fill:#e0e0e0;stroke:none"
               d="M 101.198,96.3169 C 95.6128,89.1576 88.4001,84.4783 79.6186,80.2904 c 0,-6.6411 -0.8632,-11.0816 1.0375,-17.1999 2.2297,-2.896 8.9277,-7.7038 17.1358,-8.947 7.9591,3.3933 17.1781,10.8001 22.6441,16.6979 2.881,7.1559 1.81,13.0959 0.403,19.7049 -6.504,1.9236 -13.137,3.8471 -19.641,5.7706 z"
               id="path78"
               inkscape:connector-curvature="0" />
            <path
               style="fill:#dbdbdb;stroke:none"
               d="M 101.438,96.1872 C 96.0656,88.9342 88.903,84.4765 80.2454,80.2877 c 0,-6.5293 -1.007,-10.4912 1.2105,-16.4106 2.1205,-2.925 7.8159,-7.6057 16.3713,-9.2485 7.7198,3.1855 17.2698,10.8563 22.6438,16.6547 2.832,7.0356 1.684,12.7328 0.301,19.2305 -6.394,1.8911 -12.94,3.7823 -19.334,5.6734 z"
               id="path80"
               inkscape:connector-curvature="0" />
            <path
               style="fill:#d6d6d6;stroke:none"
               d="M 101.678,96.0575 C 96.5183,88.7109 89.4058,84.4747 80.8723,80.285 c 0,-6.4175 -1.1509,-9.9008 1.3834,-15.6212 2.0113,-2.9542 6.704,-7.5077 15.6068,-9.5501 7.4815,2.9777 17.3615,10.9124 22.6435,16.6116 2.784,6.9151 1.559,12.3695 0.199,18.7559 -6.285,1.8588 -12.742,3.7176 -19.027,5.5763 z"
               id="path82"
               inkscape:connector-curvature="0" />
            <path
               style="fill:#d1d1d1;stroke:none"
               d="M 101.918,95.9278 C 96.9711,88.4875 89.9086,84.473 81.4991,80.2824 c 0,-6.3058 -1.2948,-9.3105 1.5563,-14.832 1.9022,-2.9833 5.5923,-7.4096 14.8425,-9.8516 7.2421,2.77 17.4531,10.9686 22.6431,16.5685 2.735,6.7946 1.433,12.0062 0.097,18.2814 -6.176,1.8264 -12.545,3.6528 -18.72,5.4791 z"
               id="path84"
               inkscape:connector-curvature="0" />
          </g>
          <path
             style="fill:#cccccc;stroke:none"
             d="m 102.157,95.7982 c -4.7331,-7.534 -11.7456,-11.327 -20.031,-15.5185 0,-6.1939 -1.4387,-8.7201 1.7292,-14.0426 1.7929,-3.0125 4.4804,-7.3116 14.078,-10.1532 7.0038,2.5622 17.5448,11.0248 22.6428,16.5254 2.686,6.6741 1.307,11.6429 -0.005,17.8069 -6.066,1.794 -12.348,3.588 -18.414,5.382 z"
             id="path86"
             inkscape:connector-curvature="0" />
        </g>
        <g
           id="g88">
          <path
             style="fill:#ffffff;stroke:none"
             d="m 12.9006,88.8139 c -3.01471,9.1947 -3.24057,12.6111 -2.5126,15.0191 0.8425,2.786 2.9291,6.195 6.9684,7.773 -0.0576,11.371 2.1735,21.135 7.9125,28.439 -0.1192,4.875 -0.2383,9.749 -0.3575,14.624 C 16.1765,143.518 6.13751,126.433 8.58496,102.404 9.33344,95.0013 10.8203,90.3844 12.0144,86.7432 c 0,0 0,0 0,0 7.9036,-23.4707 25.3162,-38.2693 49.6809,-42.8614 -2.9105,2.4504 -5.8211,4.9007 -8.7316,7.3512 -14.2431,4.7951 -18.7978,11.3259 -23.0447,17.5987 -3.5982,1.0169 -7.321,2.0495 -10.2054,5.0082 -2.8131,4.5741 -6.877,14.822 -6.813,14.974 z"
             id="path90"
             inkscape:connector-curvature="0" />
          <g
             id="g92">
            <path
               style="fill:#f9f9f9;stroke:none"
               d="m 12.92,88.725 c -2.9855,9.1588 -3.20289,12.575 -2.5531,14.982 0.7478,2.97 2.9439,6.431 6.944,8.002 -0.057,11.326 2.2389,21.031 7.9223,28.306 -0.1181,4.856 -0.1928,8.869 -0.3108,13.725 C 15.5372,141.724 6.82769,124.9 8.55972,102.63 9.30093,95.2557 11.4073,89.102 12.7556,85.5816 c 0.1946,-0.1729 0.3375,-0.1805 0.9943,-0.7781 7.7701,-21.7213 23.77,-36.0483 47.3402,-40.4029 -2.8823,2.4408 -5.2459,4.4277 -8.1282,6.8685 -13.4222,4.3658 -18.9613,11.044 -22.994,17.5301 -3.5634,1.013 -7.4446,2.5603 -10.301,5.5074 -2.7858,4.5563 -6.8103,14.2671 -6.7469,14.4184 z"
               id="path94"
               inkscape:connector-curvature="0" />
            <path
               style="fill:#f4f4f4;stroke:none"
               d="m 12.9393,88.6361 c -2.9562,9.123 -3.16511,12.5379 -2.5935,14.9449 0.6532,3.154 2.9587,6.666 6.9196,8.231 -0.0564,11.282 2.3043,20.927 7.932,28.174 -0.1169,4.837 -0.1473,7.988 -0.2641,12.825 C 14.898,139.931 7.51788,123.368 8.53448,102.855 9.26843,95.5101 11.9943,87.8196 13.4969,84.4201 c 0.3891,-0.3459 0.675,-0.361 1.9886,-1.5563 7.6365,-19.9718 22.2236,-33.8273 44.9994,-37.9445 -2.8541,2.4313 -4.6707,3.9547 -7.5248,6.386 -12.6014,3.9363 -19.1248,10.762 -22.9434,17.4613 -3.5284,1.0091 -7.5681,3.0711 -10.3966,6.0067 -2.7585,4.5384 -6.7436,13.7121 -6.6808,13.8628 z"
               id="path96"
               inkscape:connector-curvature="0" />
            <path
               style="fill:#efefef;stroke:none"
               d="m 12.9587,88.5473 c -2.927,9.087 -3.12743,12.5017 -2.634,14.9077 0.5585,3.337 2.9735,6.901 6.8953,8.461 -0.0559,11.237 2.3696,20.823 7.9416,28.04 -0.1157,4.818 -0.1017,7.107 -0.2173,11.925 C 14.2587,138.137 8.20806,121.835 8.50924,103.081 9.23593,95.7646 12.5813,86.5372 14.2381,83.2585 14.8217,82.7398 15.2506,82.717 17.221,80.9241 24.724,62.7017 37.8984,49.3178 59.8797,45.4381 57.0538,47.8598 55.7842,48.9197 52.9584,51.3414 41.1777,54.8484 33.67,61.8215 30.0655,68.7341 26.572,69.7392 22.3739,72.316 19.5734,75.24 16.8422,79.7606 12.8965,88.3971 12.9587,88.5473 z"
               id="path98"
               inkscape:connector-curvature="0" />
            <path
               style="fill:#eaeaea;stroke:none"
               d="m 12.978,88.4584 c -2.8977,9.0512 -3.08965,12.4646 -2.6745,14.8706 0.464,3.521 2.9884,7.137 6.871,8.69 -0.0554,11.193 2.435,20.719 7.9514,27.908 -0.1146,4.799 -0.0562,6.226 -0.1707,11.025 C 13.6195,136.343 8.89824,120.302 8.484,103.307 c 0.71943,-7.288 4.6843,-18.0522 6.4954,-21.21 0.7781,-0.6917 1.35,-0.722 3.9772,-3.1126 7.3693,-16.473 19.1311,-29.3853 40.3178,-33.0276 -2.7976,2.4122 -3.5202,3.0086 -6.3178,5.4208 -10.9598,3.0776 -19.4518,10.1981 -22.8423,17.324 -3.4586,1.0011 -7.8151,4.0926 -10.5876,7.0051 -2.7039,4.5027 -6.6102,12.6021 -6.5487,12.7517 z"
               id="path100"
               inkscape:connector-curvature="0" />
            <path
               style="fill:#e5e5e5;stroke:none"
               d="m 12.9974,88.3695 c -2.8685,9.0153 -3.05197,12.4285 -2.715,14.8345 0.3693,3.704 3.0032,7.371 6.8466,8.918 -0.0548,11.149 2.5004,20.615 7.9611,27.776 -0.1134,4.779 -0.0106,5.344 -0.124,10.124 C 12.9802,134.549 9.58842,118.77 8.45876,103.532 9.17093,96.2735 13.7553,83.9724 15.7206,80.9355 c 0.9727,-0.8647 1.6875,-0.9026 4.9715,-3.8908 7.2358,-14.7235 17.5848,-27.1643 37.9771,-30.5691 -2.7694,2.4026 -2.945,2.5356 -5.7144,4.9382 -10.139,2.6481 -19.6153,9.9161 -22.7916,17.2553 -3.4238,0.9971 -7.9387,4.6034 -10.6832,7.5044 -2.6767,4.4848 -6.5435,12.0471 -6.4826,12.196 z"
               id="path102"
               inkscape:connector-curvature="0" />
            <path
               style="fill:#e0e0e0;stroke:none"
               d="m 13.0167,88.2807 c -2.8392,8.9794 -3.0142,12.3913 -2.7554,14.7973 0.2747,3.888 3.018,7.606 6.8222,9.147 -0.0542,11.104 2.5658,20.511 7.9709,27.643 -0.1123,4.761 0.0349,4.464 -0.0773,9.225 C 12.341,132.756 10.2786,117.237 8.43351,103.758 9.13843,96.5279 14.3423,82.69 16.4619,79.7739 c 1.1672,-1.0375 2.025,-1.083 5.9658,-4.6689 7.1022,-12.9741 16.0385,-24.9433 35.6363,-28.1106 -2.7412,2.393 -2.3698,2.0625 -5.1109,4.4555 -9.3183,2.2188 -19.7789,9.6342 -22.7411,17.1867 -3.3888,0.9932 -8.0622,5.1141 -10.7787,8.0036 -2.6494,4.467 -6.4768,11.4921 -6.4166,11.6405 z"
               id="path104"
               inkscape:connector-curvature="0" />
            <path
               style="fill:#dbdbdb;stroke:none"
               d="m 13.0361,88.1918 c -2.81,8.9435 -2.9765,12.3542 -2.7959,14.7602 0.18,4.072 3.0328,7.842 6.7979,9.376 -0.0537,11.06 2.6311,20.407 7.9805,27.511 -0.1111,4.742 0.0805,3.582 -0.0306,8.324 C 11.7017,130.962 10.9688,115.705 8.40827,103.983 9.10593,96.7824 14.9293,81.4076 17.2031,78.6124 c 1.3618,-1.2105 2.3625,-1.2636 6.9601,-5.4471 6.9687,-11.2247 14.4922,-22.7223 33.2956,-25.6521 -2.713,2.3834 -1.7946,1.5894 -4.5075,3.9729 -8.4975,1.7893 -19.9424,9.3522 -22.6905,17.118 -3.3539,0.9892 -8.1857,5.6249 -10.8743,8.5028 -2.622,4.4491 -6.4101,10.9371 -6.3504,11.0849 z"
               id="path106"
               inkscape:connector-curvature="0" />
            <path
               style="fill:#d6d6d6;stroke:none"
               d="m 13.0555,88.1029 c -2.7808,8.9077 -2.9388,12.3181 -2.8364,14.7231 0.0854,4.256 3.0476,8.077 6.7735,9.606 -0.0531,11.015 2.6965,20.302 7.9902,27.377 -0.1099,4.723 0.1261,2.702 0.0161,7.425 C 11.0624,129.168 11.659,114.172 8.38303,104.209 9.07343,97.0368 15.5163,80.1252 17.9444,77.4508 c 1.5563,-1.3834 2.7,-1.444 7.9544,-6.2252 6.8351,-9.4752 12.9459,-20.5013 30.9547,-23.1937 -2.6847,2.3739 -1.2193,1.1164 -3.904,3.4903 -7.6766,1.36 -20.1059,9.0703 -22.6398,17.0494 -3.3191,0.9852 -8.3093,6.1356 -10.9699,9.002 -2.5948,4.4313 -6.3434,10.3821 -6.2843,10.5293 z"
               id="path108"
               inkscape:connector-curvature="0" />
            <path
               style="fill:#d1d1d1;stroke:none"
               d="m 13.0748,88.0141 c -2.7515,8.8718 -2.901,12.2809 -2.8768,14.6859 -0.0093,4.439 3.0624,8.312 6.7491,9.835 -0.0525,10.971 2.7619,20.198 8,27.245 -0.1088,4.704 0.1715,1.821 0.0628,6.524 C 10.4232,127.374 12.3492,112.64 8.35779,104.434 9.04092,97.2913 16.1033,78.8427 18.6857,76.2893 c 1.7508,-1.5563 3.0375,-1.6246 8.9486,-7.0033 6.7016,-7.7259 11.3997,-18.2804 28.614,-20.7353 -2.6565,2.3643 -0.6441,0.6433 -3.3005,3.0077 -6.8559,0.9306 -20.2695,8.7883 -22.5893,16.9807 -3.2841,0.9812 -8.4328,6.6464 -11.0654,9.5012 -2.5675,4.4135 -6.2767,9.8271 -6.2183,9.9738 z"
               id="path110"
               inkscape:connector-curvature="0" />
          </g>
          <path
             style="fill:#cccccc;stroke:none"
             d="m 13.0942,87.9252 c -2.7223,8.8359 -2.8634,12.2448 -2.9174,14.6488 -0.1038,4.623 3.0773,8.548 6.7248,10.064 -0.052,10.927 2.8273,20.094 8.0097,27.113 -0.1076,4.684 0.2171,0.939 0.1095,5.624 C 9.78394,125.58 13.0393,111.107 8.33255,104.66 9.00842,97.5457 16.6902,77.5603 19.4269,75.1277 c 1.9454,-1.7292 3.375,-1.805 9.943,-7.7814 6.568,-5.9765 9.8533,-16.0594 26.2732,-18.2769 -2.6283,2.3548 -0.0689,0.1704 -2.6971,2.5252 -6.0351,0.5011 -20.4329,8.5063 -22.5387,16.912 -3.2492,0.9772 -8.5563,7.1572 -11.1609,10.0004 -2.5403,4.3956 -6.21,9.2722 -6.1522,9.4182 z"
             id="path112"
             inkscape:connector-curvature="0" />
        </g>
        <g
           id="g114">
          <path
             style="fill:#ffffff;stroke:none"
             d="m 124.332,140.474 c 5.723,-8.689 10.45,-17.683 10.181,-28.207 -2.843,-7.538 -6.463,-14.906 -13.505,-21.5254 -7.287,2.1551 -14.573,4.3102 -21.8597,6.4652 l -9.2601,27.9812 13.1218,21.678 c 7.224,-0.56 15.656,-2.545 21.322,-6.392 z"
             id="path116"
             inkscape:connector-curvature="0" />
          <g
             id="g118">
            <path
               style="fill:#fbfbfb;stroke:none"
               d="m 123.962,139.527 c 5.868,-8.303 10.421,-17.02 10.199,-27.291 -2.803,-7.461 -6.283,-14.7394 -13.226,-21.2916 -7.576,2.2648 -13.989,4.1495 -21.5656,6.4143 -5.7187,18.4993 -3.2639,9.4613 -9.2465,27.7553 8.4088,13.834 4.5711,7.537 12.9801,21.371 6.991,-0.892 15.045,-3.174 20.859,-6.958 z"
               id="path120"
               inkscape:connector-curvature="0" />
            <path
               style="fill:#f8f8f8;stroke:none"
               d="m 123.593,138.58 c 6.013,-7.917 10.39,-16.357 10.216,-26.374 -2.762,-7.385 -6.104,-14.5737 -12.947,-21.0588 -7.866,2.3746 -13.406,3.9889 -21.2714,6.3634 -5.2641,18.3454 -3.4412,9.5954 -9.2331,27.5304 8.0701,13.215 4.7684,7.848 12.8385,21.063 6.757,-1.224 14.434,-3.803 20.397,-7.524 z"
               id="path122"
               inkscape:connector-curvature="0" />
            <path
               style="fill:#f4f4f4;stroke:none"
               d="m 123.224,137.633 c 6.158,-7.53 10.36,-15.693 10.233,-25.457 -2.722,-7.308 -5.924,-14.408 -12.668,-20.8259 -8.156,2.4842 -12.822,3.8282 -20.9773,6.3124 -4.8094,18.1905 -3.6184,9.7305 -9.2196,27.3055 7.7314,12.596 4.9658,8.158 12.6969,20.754 6.523,-1.555 13.823,-4.432 19.935,-8.089 z"
               id="path124"
               inkscape:connector-curvature="0" />
            <path
               style="fill:#f1f1f1;stroke:none"
               d="m 122.855,136.686 c 6.302,-7.144 10.329,-15.03 10.251,-24.54 -2.683,-7.232 -5.746,-14.2424 -12.39,-20.5931 -8.445,2.5939 -12.238,3.6675 -20.683,6.2615 -4.3549,18.0366 -3.7958,9.8646 -9.2063,27.0796 7.3927,11.978 5.1632,8.469 12.5563,20.447 6.288,-1.886 13.211,-5.061 19.472,-8.655 z"
               id="path126"
               inkscape:connector-curvature="0" />
            <path
               style="fill:#ededed;stroke:none"
               d="m 122.485,135.739 c 6.448,-6.758 10.3,-14.366 10.269,-23.623 -2.642,-7.156 -5.566,-14.0767 -12.111,-20.3603 -8.735,2.7037 -11.654,3.5069 -20.389,6.2106 -3.9001,17.8827 -3.9729,9.9987 -9.1927,26.8547 7.054,11.359 5.3605,8.78 12.4147,20.139 6.055,-2.218 12.6,-5.691 19.009,-9.221 z"
               id="path128"
               inkscape:connector-curvature="0" />
            <path
               style="fill:#eaeaea;stroke:none"
               d="m 122.116,134.792 c 6.593,-6.371 10.269,-13.703 10.286,-22.707 -2.602,-7.079 -5.387,-13.9101 -11.832,-20.1265 -9.025,2.8134 -11.07,3.3463 -20.095,6.1597 -3.4453,17.7278 -4.15,10.1328 -9.179,26.6298 6.7153,10.74 5.5578,9.09 12.273,19.831 5.821,-2.55 11.989,-6.32 18.547,-9.787 z"
               id="path130"
               inkscape:connector-curvature="0" />
            <path
               style="fill:#e7e7e7;stroke:none"
               d="m 121.747,133.845 c 6.737,-5.985 10.238,-13.04 10.303,-21.79 -2.561,-7.002 -5.207,-13.7444 -11.553,-19.8937 -9.315,2.9231 -10.487,3.1856 -19.801,6.1088 -2.9905,17.5739 -4.3271,10.2679 -9.1654,26.4039 6.3766,10.122 5.7551,9.401 12.1314,19.523 5.587,-2.881 11.378,-6.949 18.085,-10.352 z"
               id="path132"
               inkscape:connector-curvature="0" />
            <path
               style="fill:#e3e3e3;stroke:none"
               d="m 121.378,132.898 c 6.882,-5.598 10.208,-12.376 10.321,-20.873 -2.522,-6.926 -5.029,-13.5787 -11.275,-19.6609 -9.604,3.0329 -9.903,3.025 -19.507,6.0579 -2.5357,17.419 -4.5043,10.402 -9.1518,26.179 6.0379,9.503 5.9525,9.712 11.9908,19.215 5.352,-3.213 10.766,-7.578 17.622,-10.918 z"
               id="path134"
               inkscape:connector-curvature="0" />
            <path
               style="fill:#e0e0e0;stroke:none"
               d="m 121.008,131.952 c 7.028,-5.213 10.178,-11.714 10.339,-19.957 -2.482,-6.85 -4.849,-13.4131 -10.996,-19.428 -9.894,3.1425 -9.319,2.8643 -19.213,6.0069 -2.0809,17.2651 -4.6814,10.5361 -9.1382,25.9541 5.6992,8.885 6.1499,10.022 11.8492,18.907 5.118,-3.545 10.155,-8.208 17.159,-11.483 z"
               id="path136"
               inkscape:connector-curvature="0" />
            <path
               style="fill:#dddddd;stroke:none"
               d="m 120.639,131.005 c 7.172,-4.827 10.148,-11.051 10.356,-19.041 -2.441,-6.773 -4.67,-13.2464 -10.717,-19.1942 -10.184,3.2523 -8.735,2.7037 -18.919,5.9559 -1.6261,17.1103 -4.8585,10.6713 -9.1246,25.7283 5.3605,8.267 6.3472,10.333 11.7076,18.6 4.885,-3.876 9.544,-8.837 16.697,-12.049 z"
               id="path138"
               inkscape:connector-curvature="0" />
            <path
               style="fill:#d9d9d9;stroke:none"
               d="m 120.27,130.058 c 7.317,-4.44 10.117,-10.387 10.373,-18.124 -2.401,-6.696 -4.49,-13.0808 -10.438,-18.9614 -10.473,3.362 -8.151,2.543 -18.624,5.905 -1.172,16.9564 -5.0366,10.8054 -9.1119,25.5034 5.0217,7.648 6.5445,10.644 11.5659,18.291 4.651,-4.207 8.933,-9.465 16.235,-12.614 z"
               id="path140"
               inkscape:connector-curvature="0" />
            <path
               style="fill:#d6d6d6;stroke:none"
               d="m 119.901,129.111 c 7.462,-4.054 10.087,-9.724 10.39,-17.207 -2.36,-6.62 -4.311,-12.9151 -10.159,-18.7286 -10.763,3.4717 -7.568,2.3824 -18.33,5.8541 -0.718,16.8025 -5.2137,10.9395 -9.0983,25.2785 4.683,7.029 6.7418,10.954 11.4253,17.983 4.416,-4.539 8.321,-10.095 15.772,-13.18 z"
               id="path142"
               inkscape:connector-curvature="0" />
            <path
               style="fill:#d2d2d2;stroke:none"
               d="m 119.531,128.164 c 7.607,-3.668 10.057,-9.061 10.409,-16.29 -2.321,-6.544 -4.132,-12.7494 -9.881,-18.4958 -11.053,3.5815 -6.984,2.2218 -18.036,5.8032 -0.263,16.6476 -5.3908,11.0736 -9.0847,25.0526 4.3443,6.411 6.9392,11.265 11.2837,17.676 4.182,-4.871 7.71,-10.724 15.309,-13.746 z"
               id="path144"
               inkscape:connector-curvature="0" />
            <path
               style="fill:#cfcfcf;stroke:none"
               d="m 119.162,127.217 c 7.752,-3.281 10.026,-8.397 10.426,-15.373 -2.281,-6.468 -3.953,-12.5838 -9.602,-18.2629 -11.342,3.6911 -6.4,2.061 -17.742,5.7522 0.192,16.4937 -5.5679,11.2087 -9.0711,24.8277 4.0057,5.792 7.1361,11.576 11.1421,17.368 3.948,-5.203 7.099,-11.354 14.847,-14.312 z"
               id="path146"
               inkscape:connector-curvature="0" />
          </g>
          <path
             style="fill:#cccccc;stroke:none"
             d="m 118.793,126.27 c 7.897,-2.895 9.996,-7.734 10.443,-14.457 -2.24,-6.39 -3.773,-12.4171 -9.323,-18.0291 l -17.448,5.7013 c 0.647,16.3388 -5.745,11.3428 -9.0575,24.6028 3.667,5.173 7.3335,11.886 11.0005,17.059 3.715,-5.534 6.488,-11.982 14.385,-14.877 z"
             id="path148"
             inkscape:connector-curvature="0" />
        </g>
        <path
           style="fill:#ffffff;stroke:none"
           d="m 143.137,105.466 c -0.99,0.5 -1.391,0.759 -2.262,1.739 -0.535,-10.4911 -3.662,-22.7828 -12.048,-34.6934 1.99,0.5578 2.447,1.1157 5.144,2.0337 4.802,9.0088 8.508,18.8326 9.166,30.9207 z"
           id="path150"
           inkscape:connector-curvature="0" />
        <g
           style="fill:#910000;fill-opacity:1"
           id="g156">
          <path
             style="fill:#910000;fill-opacity:1;stroke:none"
             d="m 143.137,105.466 c -2.749,2.293 -5.745,4.902 -8.392,6.857 -2.863,-8.212 -6.483,-15.8048 -12.439,-21.4186 1.906,-8.7081 0.948,-16.195 -1.662,-22.4402 4.106,1.7977 8.871,4.0425 13.327,6.0811 4.802,9.0088 8.508,18.8326 9.166,30.9207 z"
             id="path158"
             inkscape:connector-curvature="0" />
          <path
             style="fill:#910000;fill-opacity:1;stroke:none"
             d="m 143.137,105.466 c -2.624,2.165 -5.741,4.963 -8.161,6.452 -2.597,-8.145 -6.034,-15.9087 -11.605,-21.2809 1.73,-8.2453 0.533,-15.7956 -2.311,-21.8983 3.633,1.4768 8.581,3.848 12.911,5.8065 4.802,9.0088 8.508,18.8326 9.166,30.9207 z"
             id="path160"
             inkscape:connector-curvature="0" />
          <path
             style="fill:#910000;fill-opacity:1;stroke:none"
             d="m 143.137,105.466 c -2.498,2.036 -5.737,5.024 -7.929,6.047 -2.331,-8.077 -5.587,-16.0127 -10.772,-21.1431 1.554,-7.7826 0.117,-15.3964 -2.959,-21.3564 3.158,1.1559 8.289,3.6533 12.494,5.5318 4.802,9.0088 8.508,18.8326 9.166,30.9207 z"
             id="path162"
             inkscape:connector-curvature="0" />
          <path
             style="fill:#910000;fill-opacity:1;stroke:none"
             d="m 143.137,105.466 c -2.372,1.908 -5.733,5.085 -7.697,5.642 -2.066,-8.01 -5.14,-16.1167 -9.939,-21.0054 1.378,-7.3198 -0.298,-14.9971 -3.607,-20.8144 2.683,0.835 7.998,3.4586 12.077,5.2571 4.802,9.0088 8.508,18.8326 9.166,30.9207 z"
             id="path164"
             inkscape:connector-curvature="0" />
          <path
             style="fill:#910000;fill-opacity:1;stroke:none"
             d="m 143.137,105.466 c -2.247,1.78 -5.729,5.146 -7.466,5.236 -1.8,-7.942 -4.692,-16.2196 -9.105,-20.8666 1.203,-6.8572 -0.714,-14.5979 -4.255,-20.2726 2.208,0.5141 7.707,3.2641 11.66,4.9825 4.802,9.0088 8.508,18.8326 9.166,30.9207 z"
             id="path166"
             inkscape:connector-curvature="0" />
          <path
             style="fill:#910000;fill-opacity:1;stroke:none"
             d="m 143.137,105.466 c -2.121,1.652 -5.725,5.207 -7.234,4.831 -1.534,-7.875 -4.245,-16.3236 -8.272,-20.7289 1.027,-6.3944 -1.13,-14.1986 -4.904,-19.7306 1.734,0.1932 7.416,3.0694 11.244,4.7078 4.802,9.0088 8.508,18.8326 9.166,30.9207 z"
             id="path168"
             inkscape:connector-curvature="0" />
          <path
             style="fill:#910000;fill-opacity:1;stroke:none"
             d="m 143.137,105.466 c -1.995,1.524 -5.721,5.268 -7.002,4.426 -1.269,-7.808 -3.797,-16.4276 -7.439,-20.5912 0.851,-5.9316 -1.545,-13.7993 -5.552,-19.1886 1.26,-0.1277 7.125,2.8748 10.827,4.4331 4.802,9.0088 8.508,18.8326 9.166,30.9207 z"
             id="path170"
             inkscape:connector-curvature="0" />
          <path
             style="fill:#910000;fill-opacity:1;stroke:none"
             d="m 143.137,105.466 c -1.87,1.396 -5.716,5.329 -6.771,4.021 -1.003,-7.741 -3.349,-16.5316 -6.605,-20.4534 0.675,-5.4689 -1.961,-13.4 -6.2,-18.6468 0.785,-0.4486 6.834,2.6802 10.41,4.1585 4.802,9.0088 8.508,18.8326 9.166,30.9207 z"
             id="path172"
             inkscape:connector-curvature="0" />
          <path
             style="fill:#910000;fill-opacity:1;stroke:none"
             d="m 143.137,105.466 c -1.744,1.268 -5.712,5.389 -6.539,3.616 -0.737,-7.674 -2.902,-16.6355 -5.772,-20.3157 0.499,-5.0062 -2.376,-13.0007 -6.849,-18.1048 0.311,-0.7695 6.543,2.4855 9.994,3.8838 4.802,9.0088 8.508,18.8326 9.166,30.9207 z"
             id="path174"
             inkscape:connector-curvature="0" />
          <path
             style="fill:#910000;fill-opacity:1;stroke:none"
             d="m 143.137,105.466 c -1.618,1.14 -5.708,5.45 -6.307,3.211 -0.472,-7.607 -2.455,-16.7395 -4.939,-20.1779 0.323,-4.5435 -2.792,-12.6015 -7.497,-17.5629 -0.164,-1.0904 6.252,2.2909 9.577,3.6091 4.802,9.0088 8.508,18.8326 9.166,30.9207 z"
             id="path176"
             inkscape:connector-curvature="0" />
          <path
             style="fill:#910000;fill-opacity:1;stroke:none"
             d="m 143.137,105.466 c -1.493,1.012 -5.704,5.511 -6.076,2.806 -0.206,-7.54 -2.007,-16.8435 -4.106,-20.0402 0.148,-4.0807 -3.207,-12.2022 -8.144,-17.0209 -0.639,-1.4114 5.961,2.0962 9.16,3.3344 4.802,9.0088 8.508,18.8326 9.166,30.9207 z"
             id="path178"
             inkscape:connector-curvature="0" />
          <path
             style="fill:#910000;fill-opacity:1;stroke:none"
             d="m 143.137,105.466 c -1.367,0.884 -5.7,5.572 -5.844,2.401 0.06,-7.473 -1.559,-16.9474 -3.273,-19.9024 -0.028,-3.618 -3.622,-11.803 -8.792,-16.4791 -1.113,-1.7322 5.669,1.9017 8.743,3.0598 4.802,9.0088 8.508,18.8326 9.166,30.9207 z"
             id="path180"
             inkscape:connector-curvature="0" />
          <path
             style="fill:#910000;fill-opacity:1;stroke:none"
             d="m 143.137,105.466 c -1.241,0.756 -5.696,5.633 -5.612,1.996 0.325,-7.406 -1.112,-17.0514 -2.44,-19.7647 -0.204,-3.1553 -4.038,-11.4037 -9.441,-15.9371 -1.587,-2.0531 5.379,1.707 8.327,2.7851 4.802,9.0088 8.508,18.8326 9.166,30.9207 z"
             id="path182"
             inkscape:connector-curvature="0" />
          <path
             style="fill:#910000;fill-opacity:1;stroke:none"
             d="m 143.137,105.466 c -1.116,0.628 -5.692,5.694 -5.381,1.591 0.591,-7.3388 -0.664,-17.1554 -1.606,-19.6269 -0.38,-2.6926 -4.453,-11.0044 -10.089,-15.3952 -2.062,-2.3741 5.088,1.5123 7.91,2.5104 4.802,9.0088 8.508,18.8326 9.166,30.9207 z"
             id="path184"
             inkscape:connector-curvature="0" />
        </g>
        <path
           style="fill:#ffffff;stroke:none;fill-opacity:1;filter:url(#filter4056);opacity:0.82999999"
           d="m 143.137,105.466 c -0.99,0.5 -5.687,5.755 -5.149,1.185 0.857,-7.2708 -0.217,-17.2584 -0.773,-19.4882 -0.556,-2.2298 -4.869,-10.6051 -10.737,-14.8533 -2.537,-2.6949 4.796,1.3178 7.493,2.2358 4.802,9.0088 8.508,18.8326 9.166,30.9207 z"
           id="path186"
           inkscape:connector-curvature="0" />
        <g
           id="g188" />
        <g
           id="g200">
          <path
             style="fill:#ffffff;stroke:none"
             d="m 87.4641,43.9404 c 6.9201,2.4339 8.3173,4.7388 10.1159,7.2926 8.199,4.2147 15.611,9.6234 22.647,16.9565 4.581,2.079 9.162,4.1579 13.744,6.2369 C 123.635,58.7283 100.304,45.7921 87.4641,43.9404 z"
             id="path202"
             inkscape:connector-curvature="0" />
          <g
             id="g204">
            <path
               style="fill:#fbfbfb;stroke:none"
               d="m 88.2079,44.3123 c 6.499,2.3385 7.8526,4.5595 9.6033,7.0538 7.8648,4.0291 15.5648,9.6088 22.3978,16.7846 4.284,1.7094 8.577,3.6838 13.024,5.6577 C 123.019,58.684 100.59,46.1945 88.2079,44.3123 z"
               id="path206"
               inkscape:connector-curvature="0" />
            <path
               style="fill:#f8f8f8;stroke:none"
               d="m 88.9517,44.6842 c 6.0779,2.2431 7.3879,4.3802 9.0907,6.8151 7.5306,3.8435 15.5176,9.5941 22.1486,16.6127 3.987,1.3397 7.992,3.2096 12.305,5.0783 C 122.402,58.6397 100.877,46.5969 88.9517,44.6842 z"
               id="path208"
               inkscape:connector-curvature="0" />
            <path
               style="fill:#f4f4f4;stroke:none"
               d="m 89.6955,45.0562 c 5.6567,2.1477 6.9231,4.2009 8.5782,6.5763 7.1953,3.6578 15.4713,9.5794 21.8993,16.4407 3.689,0.9702 7.407,2.7354 11.585,4.4991 -9.973,-13.9769 -30.595,-25.573 -42.0625,-27.5161 z"
               id="path210"
               inkscape:connector-curvature="0" />
            <path
               style="fill:#f1f1f1;stroke:none"
               d="m 90.4393,45.4282 c 5.2356,2.0522 6.4584,4.0215 8.0656,6.3375 6.8611,3.4721 15.4251,9.5647 21.6501,16.2688 3.392,0.6005 6.821,2.2612 10.866,3.9198 C 121.168,58.5511 101.45,47.4017 90.4393,45.4282 z"
               id="path212"
               inkscape:connector-curvature="0" />
            <path
               style="fill:#ededed;stroke:none"
               d="m 91.1831,45.8001 c 4.8145,1.9569 5.9937,3.8422 7.553,6.0988 6.5269,3.2864 15.3789,9.55 21.4009,16.0968 3.095,0.2309 6.236,1.7871 10.146,3.3406 C 120.552,58.5068 101.736,47.8042 91.1831,45.8001 z"
               id="path214"
               inkscape:connector-curvature="0" />
            <path
               style="fill:#eaeaea;stroke:none"
               d="m 91.9269,46.1721 c 4.3934,1.8614 5.5289,3.6629 7.0404,5.86 6.1927,3.1007 15.3317,9.5353 21.1517,15.9248 2.797,-0.1386 5.651,1.313 9.427,2.7614 C 119.935,58.4625 102.023,48.2066 91.9269,46.1721 z"
               id="path216"
               inkscape:connector-curvature="0" />
            <path
               style="fill:#e7e7e7;stroke:none"
               d="m 92.6707,46.544 c 3.9722,1.766 5.0642,3.4836 6.5278,5.6213 5.8585,2.915 15.2855,9.5206 20.9025,15.7529 2.5,-0.5083 5.065,0.8388 8.708,2.182 -9.491,-11.682 -26.5,-21.4912 -36.1383,-23.5562 z"
               id="path218"
               inkscape:connector-curvature="0" />
            <path
               style="fill:#e3e3e3;stroke:none"
               d="m 93.4145,46.916 c 3.5511,1.6706 4.5995,3.3043 6.0153,5.3824 5.5242,2.7294 15.2392,9.5061 20.6532,15.581 2.202,-0.8779 4.48,0.3646 7.988,1.6028 C 118.701,58.3739 102.596,49.0114 93.4145,46.916 z"
               id="path220"
               inkscape:connector-curvature="0" />
            <path
               style="fill:#e0e0e0;stroke:none"
               d="m 94.1584,47.2879 c 3.1299,1.5752 4.1346,3.125 5.5026,5.1437 5.189,2.5437 15.193,9.4914 20.404,15.4091 1.905,-1.2475 3.895,-0.1096 7.269,1.0235 C 118.085,58.3296 102.882,49.4138 94.1584,47.2879 z"
               id="path222"
               inkscape:connector-curvature="0" />
            <path
               style="fill:#dddddd;stroke:none"
               d="m 94.9022,47.6599 c 2.7087,1.4798 3.6699,2.9456 4.99,4.9049 4.8548,2.3581 15.1458,9.4767 20.1548,15.2371 1.608,-1.6171 3.309,-0.5837 6.549,0.4443 -9.128,-9.961 -23.427,-18.43 -31.6938,-20.5863 z"
               id="path224"
               inkscape:connector-curvature="0" />
            <path
               style="fill:#d9d9d9;stroke:none"
               d="m 95.646,48.0318 c 2.2876,1.3844 3.2052,2.7664 4.477,4.6662 4.521,2.1724 15.1,9.462 19.906,15.0651 1.31,-1.9866 2.724,-1.0578 5.83,-0.135 C 116.851,58.241 103.455,50.2186 95.646,48.0318 z"
               id="path226"
               inkscape:connector-curvature="0" />
            <path
               style="fill:#d6d6d6;stroke:none"
               d="m 96.3898,48.4038 c 1.8665,1.289 2.7404,2.587 3.9652,4.4274 4.186,1.9867 15.053,9.4473 19.656,14.8932 1.013,-2.3563 2.139,-1.5321 5.11,-0.7143 C 116.235,58.1966 103.742,50.621 96.3898,48.4038 z"
               id="path228"
               inkscape:connector-curvature="0" />
            <path
               style="fill:#d2d2d2;stroke:none"
               d="m 97.1336,48.7757 c 1.4454,1.1936 2.2757,2.4078 3.4524,4.1887 3.852,1.801 15.006,9.4326 19.407,14.7212 0.716,-2.7259 1.554,-2.0062 4.391,-1.2935 -8.766,-8.2398 -20.356,-15.3686 -27.2504,-17.6164 z"
               id="path230"
               inkscape:connector-curvature="0" />
            <path
               style="fill:#cfcfcf;stroke:none"
               d="m 97.8774,49.1477 c 1.0242,1.0981 1.811,2.2284 2.9396,3.9499 3.517,1.6153 14.96,9.4179 19.158,14.5493 0.418,-3.0955 0.968,-2.4804 3.672,-1.8728 C 115.001,58.108 104.315,51.4259 97.8774,49.1477 z"
               id="path232"
               inkscape:connector-curvature="0" />
          </g>
          <path
             style="fill:#cccccc;stroke:none"
             d="m 98.6212,49.5196 c 0.6031,1.0028 1.3462,2.0491 2.4268,3.7112 3.183,1.4296 14.914,9.4032 18.909,14.3773 0.121,-3.4651 0.383,-2.9545 2.952,-2.452 -8.525,-7.0924 -18.308,-13.3278 -24.2878,-15.6365 z"
             id="path234"
             inkscape:connector-curvature="0" />
        </g>
        <g
           id="g236">
          <path
             inkscape:connector-curvature="0"
             style="fill:#ffffff;stroke:none"
             d="m 90.508997,167.08462 c -10.4229,3.706 -19.4818,2.123 -28.4332,0.124 -6.0738,-6.001 -11.4073,-12.483 -14.2126,-20.607 4.7213,-7.392 9.4426,-14.785 14.1639,-22.178 10.6885,1.84 20.1542,1.184 29.3615,0 4.3221,7.141 8.644103,14.281 12.965603,21.422 -2.855,9.235 -8.018903,15.642 -13.845203,21.239 z"
             id="path238" />
          <g
             id="g240">
            <path
               style="fill:#fbfbfb;stroke:none"
               d="m 88.8838,165.878 c -10.2937,3.783 -18.4724,2.893 -27.7328,0.909 -6.0268,-5.955 -11.188,-12.27 -13.9716,-20.331 4.6848,-7.335 9.3926,-14.729 14.0773,-22.064 10.6809,2.196 20.0942,1.163 29.2499,0.056 4.2886,7.085 8.4238,14.245 12.7124,21.331 -3.095,8.624 -8.4842,14.639 -14.3352,20.099 z"
               id="path242"
               inkscape:connector-curvature="0" />
            <path
               style="fill:#f8f8f8;stroke:none"
               d="m 88.0588,164.751 c -10.1645,3.86 -17.4629,3.662 -27.0324,1.694 -5.9798,-5.908 -10.9687,-12.057 -13.7305,-20.055 4.6482,-7.278 9.3424,-14.673 13.9906,-21.951 10.6733,2.554 20.0342,1.142 29.1383,0.113 4.2551,7.03 8.2035,14.209 12.4582,21.239 -3.3348,8.015 -8.9485,13.637 -14.8242,18.96 z"
               id="path244"
               inkscape:connector-curvature="0" />
            <path
               style="fill:#f4f4f4;stroke:none"
               d="m 87.2339,163.624 c -10.0353,3.937 -16.4536,4.432 -26.3321,2.479 -5.9327,-5.862 -10.7494,-11.844 -13.4895,-19.779 4.6116,-7.221 9.2924,-14.616 13.904,-21.837 10.6657,2.91 19.9742,1.121 29.0267,0.169 4.2216,6.975 7.9832,14.173 12.205,21.148 -3.5752,7.405 -9.4137,12.633 -15.3141,17.82 z"
               id="path246"
               inkscape:connector-curvature="0" />
            <path
               style="fill:#f1f1f1;stroke:none"
               d="m 86.4089,162.497 c -9.9061,4.014 -15.4441,5.201 -25.6317,3.264 -5.8857,-5.815 -10.5301,-11.631 -13.2485,-19.503 4.5751,-7.164 9.2424,-14.56 13.8174,-21.724 10.6581,3.268 19.9142,1.101 28.915,0.226 4.1882,6.919 7.763,14.137 11.9509,21.056 -3.8145,6.795 -9.878,11.631 -15.8031,16.681 z"
               id="path248"
               inkscape:connector-curvature="0" />
            <path
               style="fill:#ededed;stroke:none"
               d="m 85.584,161.37 c -9.777,4.091 -14.4348,5.971 -24.9314,4.049 -5.8386,-5.769 -10.3108,-11.418 -13.0074,-19.227 4.5385,-7.106 9.1922,-14.504 13.7307,-21.61 10.6505,3.624 19.8542,1.08 28.8034,0.282 4.1547,6.864 7.5427,14.101 11.6977,20.965 -4.0549,6.185 -10.3433,10.628 -16.293,15.541 z"
               id="path250"
               inkscape:connector-curvature="0" />
            <path
               style="fill:#eaeaea;stroke:none"
               d="m 84.759,160.244 c -9.6478,4.167 -13.4254,6.739 -24.2309,4.833 -5.7917,-5.723 -10.0915,-11.205 -12.7665,-18.951 4.5019,-7.049 9.1422,-14.448 13.6441,-21.497 10.6429,3.981 19.7942,1.059 28.6918,0.339 4.1212,6.809 7.3224,14.065 11.4435,20.874 -4.2943,5.575 -10.8075,9.625 -16.782,14.402 z"
               id="path252"
               inkscape:connector-curvature="0" />
            <path
               inkscape:connector-curvature="0"
               style="fill:#e7e7e7;stroke:none"
               d="m 81.691888,158.55645 c -9.5186,4.244 -12.416,7.509 -23.5306,5.618 -5.7446,-5.676 -9.8722,-10.992 -12.5255,-18.675 4.4654,-6.992 9.0921,-14.391 13.5575,-21.383 10.6353,4.338 19.7342,1.038 28.5802,0.395 4.0877,6.753 7.1021,14.029 11.1903,20.782 -4.5347,4.965 -11.2728,8.622 -17.2719,13.263 z"
               id="path254" />
            <path
               style="fill:#e3e3e3;stroke:none"
               d="m 83.1091,157.99 c -9.3894,4.321 -11.4066,8.278 -22.8302,6.403 -5.6976,-5.63 -9.6529,-10.779 -12.2845,-18.399 4.4289,-6.935 9.0421,-14.335 13.4709,-21.27 10.6277,4.695 19.6742,1.018 28.4685,0.452 4.0543,6.698 6.8819,13.992 10.9362,20.691 -4.774,4.355 -11.7371,7.619 -17.7609,12.123 z"
               id="path256"
               inkscape:connector-curvature="0" />
            <path
               style="fill:#e0e0e0;stroke:none"
               d="m 82.2842,156.863 c -9.2603,4.398 -10.3973,9.048 -22.1299,7.188 -5.6505,-5.583 -9.4336,-10.565 -12.0434,-18.123 4.3923,-6.877 8.992,-14.279 13.3842,-21.156 10.6201,5.052 19.6142,0.997 28.3569,0.508 4.0208,6.642 6.6616,13.956 10.682,20.599 -5.0134,3.746 -12.2014,6.617 -18.2498,10.984 z"
               id="path258"
               inkscape:connector-curvature="0" />
            <path
               style="fill:#dddddd;stroke:none"
               d="m 81.4592,155.736 c -9.1311,4.475 -9.3878,9.817 -21.4295,7.973 -5.6035,-5.537 -9.2143,-10.352 -11.8024,-17.847 4.3557,-6.82 8.9419,-14.223 13.2976,-21.043 10.6125,5.409 19.5542,0.977 28.2453,0.564 3.9873,6.588 6.4414,13.921 10.4288,20.509 -5.2538,3.135 -12.6666,5.614 -18.7398,9.844 z"
               id="path260"
               inkscape:connector-curvature="0" />
            <path
               style="fill:#d9d9d9;stroke:none"
               d="m 80.6343,154.61 c -9.002,4.55 -8.3785,10.586 -20.7292,8.757 -5.5565,-5.49 -8.995,-10.139 -11.5614,-17.571 4.3192,-6.763 8.8919,-14.166 13.211,-20.929 10.6049,5.765 19.4942,0.955 28.1337,0.62 3.9538,6.533 6.2211,13.885 10.1749,20.418 -5.4934,2.525 -13.1312,4.611 -19.229,8.705 z"
               id="path262"
               inkscape:connector-curvature="0" />
            <path
               style="fill:#d6d6d6;stroke:none"
               d="m 79.8093,153.483 c -8.8727,4.627 -7.369,11.356 -20.0288,9.542 -5.5094,-5.444 -8.7757,-9.926 -11.3203,-17.295 4.2826,-6.706 8.8417,-14.11 13.1243,-20.816 10.5973,6.123 19.4342,0.935 28.022,0.677 3.9204,6.477 6.0009,13.849 9.9213,20.326 -5.7333,1.916 -13.596,3.608 -19.7185,7.566 z"
               id="path264"
               inkscape:connector-curvature="0" />
            <path
               style="fill:#d2d2d2;stroke:none"
               d="m 78.9844,152.356 c -8.7436,4.704 -6.3597,12.125 -19.3285,10.327 -5.4624,-5.397 -8.5564,-9.713 -11.0793,-17.019 4.246,-6.649 8.7917,-14.054 13.0377,-20.702 10.5897,6.479 19.3742,0.914 27.9104,0.733 3.8869,6.422 5.7806,13.813 9.6675,20.235 -5.9731,1.305 -14.0606,2.605 -20.2078,6.426 z"
               id="path266"
               inkscape:connector-curvature="0" />
            <path
               style="fill:#cfcfcf;stroke:none"
               d="m 78.1594,151.229 c -8.6144,4.781 -5.3503,12.895 -18.628,11.112 -5.4154,-5.351 -8.3372,-9.5 -10.8384,-16.743 4.2095,-6.591 8.7416,-13.997 12.9511,-20.589 10.5821,6.836 19.3142,0.894 27.7988,0.79 3.8534,6.367 5.5603,13.777 9.4138,20.143 -6.213,0.696 -14.5254,1.603 -20.6973,5.287 z"
               id="path268"
               inkscape:connector-curvature="0" />
          </g>
          <path
             style="fill:#cccccc;stroke:none"
             d="m 77.3344,150.102 c -8.4852,4.858 -4.3408,13.664 -17.9276,11.897 -5.3684,-5.304 -8.1179,-9.287 -10.5974,-16.467 4.173,-6.534 8.6916,-13.941 12.8645,-20.475 10.5745,7.193 19.2542,0.873 27.6872,0.846 3.8199,6.311 5.34,13.741 9.16,20.052 -6.4527,0.086 -14.9901,0.6 -21.1867,4.147 z"
             id="path270"
             inkscape:connector-curvature="0" />
        </g>
        <g
           id="g272">
          <path
             style="fill:#ffffff;stroke:none"
             d="m 89.7852,167.017 c -9.677,2.955 -19.0395,2.495 -28.0245,-0.003 -3.6374,1.986 -7.5264,4.098 -11.1637,6.083 16.9134,6.174 33.9482,6.895 51.159,-0.293 -5.0221,-1.087 -8.3937,-3.521 -11.9708,-5.787 z"
             id="path274"
             inkscape:connector-curvature="0" />
          <g
             id="g276">
            <path
               style="fill:#f9f9f9;stroke:none"
               d="m 89.7055,167.036 c -9.1754,2.975 -19.1055,2.512 -27.916,0.012 -3.5651,1.911 -6.7428,4.241 -9.6323,6.11 15.6062,5.639 31.7054,6.392 47.6963,-0.275 -4.019,-1.177 -6.642,-3.666 -10.148,-5.847 z"
               id="path278"
               inkscape:connector-curvature="0" />
            <path
               style="fill:#f4f4f4;stroke:none"
               d="m 89.6257,167.055 c -8.6736,2.995 -19.1715,2.528 -27.8074,0.026 -3.4929,1.836 -5.9593,4.386 -8.1008,6.139 14.299,5.103 29.4626,5.889 44.2333,-0.259 -3.0158,-1.267 -4.89,-3.81 -8.3251,-5.906 z"
               id="path280"
               inkscape:connector-curvature="0" />
            <path
               style="fill:#efefef;stroke:none"
               d="m 89.546,167.073 c -8.172,3.017 -19.2375,2.545 -27.6988,0.041 -3.4207,1.762 -5.1759,4.531 -6.5695,6.167 12.9918,4.568 27.2198,5.386 40.7705,-0.241 -2.0126,-1.357 -3.1382,-3.955 -6.5022,-5.967 z"
               id="path282"
               inkscape:connector-curvature="0" />
            <path
               style="fill:#eaeaea;stroke:none"
               d="m 89.4662,167.092 c -7.6703,3.037 -19.3035,2.561 -27.5902,0.055 -3.3484,1.688 -4.3923,4.676 -5.0381,6.195 11.6847,4.032 24.9771,4.884 37.3076,-0.224 -1.0093,-1.447 -1.3863,-4.099 -4.6793,-6.026 z"
               id="path284"
               inkscape:connector-curvature="0" />
            <path
               style="fill:#e5e5e5;stroke:none"
               d="m 89.3864,167.111 c -7.1685,3.057 -19.3694,2.578 -27.4815,0.069 -3.2762,1.613 -3.6089,4.821 -3.5068,6.223 10.3775,3.497 22.7343,4.381 33.8448,-0.206 -0.0062,-1.537 0.3655,-4.245 -2.8565,-6.086 z"
               id="path286"
               inkscape:connector-curvature="0" />
            <path
               style="fill:#e0e0e0;stroke:none"
               d="m 89.3067,167.13 c -6.6669,3.078 -19.4355,2.594 -27.373,0.083 -3.204,1.539 -2.8254,4.966 -1.9754,6.252 9.0703,2.961 20.4916,3.878 30.3819,-0.19 0.9971,-1.627 2.1174,-4.389 -1.0335,-6.145 z"
               id="path288"
               inkscape:connector-curvature="0" />
            <path
               style="fill:#dbdbdb;stroke:none"
               d="m 89.2269,167.149 c -6.1652,3.098 -19.5014,2.61 -27.2644,0.097 -3.1317,1.464 -2.0419,5.111 -0.4439,6.28 7.7631,2.425 18.2487,3.375 26.919,-0.172 2.0003,-1.718 3.8692,-4.534 0.7893,-6.205 z"
               id="path290"
               inkscape:connector-curvature="0" />
            <path
               style="fill:#d6d6d6;stroke:none"
               d="m 89.1472,167.168 c -5.6635,3.118 -19.5674,2.627 -27.1558,0.111 -3.0595,1.39 -1.2584,5.255 1.0874,6.308 6.4559,1.89 16.006,2.873 23.4561,-0.155 3.0035,-1.807 5.6211,-4.678 2.6123,-6.264 z"
               id="path292"
               inkscape:connector-curvature="0" />
            <path
               style="fill:#d1d1d1;stroke:none"
               d="m 89.0674,167.187 c -5.1618,3.139 -19.6334,2.643 -27.0472,0.125 -2.9872,1.316 -0.4749,5.4 2.6188,6.336 5.1488,1.355 13.7632,2.37 19.9933,-0.137 4.0067,-1.898 7.3729,-4.823 4.4351,-6.324 z"
               id="path294"
               inkscape:connector-curvature="0" />
          </g>
          <path
             style="fill:#cccccc;stroke:none"
             d="m 88.9877,167.206 c -4.6602,3.159 -19.6994,2.659 -26.9386,0.14 -2.9151,1.24 0.3085,5.544 4.1501,6.363 3.8416,0.82 11.5205,1.867 16.5304,-0.12 5.01,-1.987 9.1248,-4.967 6.2581,-6.383 z"
             id="path296"
             inkscape:connector-curvature="0" />
        </g>
        <g
           id="g390">
          <path
             style="fill:#ffffff;stroke:none"
             d="m 143.134,104.769 c -2.937,2.394 -5.874,4.788 -8.811,7.182 0.167,9.47 -4.175,18.776 -10.221,27.939 3.466,4.536 1.388,11.243 -0.489,17.871 11.945,-13.185 20.861,-28.864 19.521,-52.992 z"
             id="path392"
             inkscape:connector-curvature="0" />
          <g
             id="g394">
            <path
               style="fill:#f9f9f9;stroke:none"
               d="m 143.129,105.073 c -2.875,2.358 -5.712,4.701 -8.548,7.098 0.178,9.427 -4.072,18.625 -10.054,27.65 3.393,4.468 1.273,10.936 -0.564,17.465 11.679,-13.025 20.385,-28.447 19.166,-52.213 z"
               id="path396"
               inkscape:connector-curvature="0" />
            <path
               style="fill:#f4f4f4;stroke:none"
               d="m 143.125,105.378 c -2.814,2.322 -5.55,4.614 -8.286,7.013 0.19,9.385 -3.97,18.473 -9.887,27.362 3.321,4.399 1.159,10.629 -0.639,17.058 11.413,-12.866 19.909,-28.029 18.812,-51.433 z"
               id="path398"
               inkscape:connector-curvature="0" />
            <path
               style="fill:#efefef;stroke:none"
               d="m 143.121,105.682 c -2.753,2.287 -5.389,4.527 -8.025,6.929 0.203,9.342 -3.866,18.322 -9.719,27.073 3.248,4.332 1.044,10.323 -0.714,16.652 11.148,-12.706 19.434,-27.611 18.458,-50.654 z"
               id="path400"
               inkscape:connector-curvature="0" />
            <path
               style="fill:#eaeaea;stroke:none"
               d="m 143.116,105.987 c -2.691,2.25 -5.226,4.44 -7.762,6.843 0.215,9.301 -3.764,18.172 -9.553,26.785 3.177,4.264 0.931,10.016 -0.789,16.247 10.883,-12.547 18.959,-27.195 18.104,-49.875 z"
               id="path402"
               inkscape:connector-curvature="0" />
            <path
               style="fill:#e5e5e5;stroke:none"
               d="m 143.112,106.291 c -2.63,2.215 -5.065,4.353 -7.5,6.759 0.226,9.258 -3.661,18.02 -9.386,26.496 3.104,4.196 0.816,9.71 -0.864,15.841 10.617,-12.388 18.483,-26.777 17.75,-49.096 z"
               id="path404"
               inkscape:connector-curvature="0" />
            <path
               style="fill:#e0e0e0;stroke:none"
               d="m 143.107,106.596 c -2.568,2.179 -4.903,4.265 -7.238,6.674 0.239,9.216 -3.558,17.869 -9.218,26.207 3.032,4.128 0.702,9.403 -0.939,15.435 10.351,-12.228 18.008,-26.359 17.395,-48.316 z"
               id="path406"
               inkscape:connector-curvature="0" />
            <path
               style="fill:#dbdbdb;stroke:none"
               d="m 143.103,106.9 c -2.507,2.143 -4.741,4.179 -6.976,6.59 0.251,9.173 -3.455,17.717 -9.051,25.919 2.959,4.059 0.587,9.096 -1.015,15.028 10.086,-12.069 17.533,-25.941 17.042,-47.537 z"
               id="path408"
               inkscape:connector-curvature="0" />
            <path
               style="fill:#d6d6d6;stroke:none"
               d="m 143.099,107.205 c -2.446,2.107 -4.58,4.091 -6.714,6.505 0.263,9.131 -3.353,17.566 -8.884,25.63 2.886,3.992 0.473,8.79 -1.09,14.622 9.821,-11.909 17.057,-25.524 16.688,-46.757 z"
               id="path410"
               inkscape:connector-curvature="0" />
            <path
               style="fill:#d1d1d1;stroke:none"
               d="m 143.094,107.51 c -2.383,2.071 -4.417,4.004 -6.451,6.42 0.274,9.088 -3.25,17.415 -8.717,25.341 2.814,3.924 0.358,8.483 -1.165,14.217 9.555,-11.75 16.582,-25.107 16.333,-45.978 z"
               id="path412"
               inkscape:connector-curvature="0" />
          </g>
          <path
             style="fill:#cccccc;stroke:none"
             d="m 143.09,107.814 c -2.322,2.035 -4.256,3.917 -6.19,6.335 0.287,9.047 -3.147,17.264 -8.549,25.053 2.741,3.856 0.244,8.177 -1.24,13.811 9.289,-11.591 16.106,-24.689 15.979,-45.199 z"
             id="path414"
             inkscape:connector-curvature="0" />
        </g>
        <g
           id="g416">
          <path
             style="fill:#ffffff;stroke:none"
             d="m 61.4606,124.592 -14.0857,22.056 c -7.9352,-0.467 -15.2585,-2.807 -22.106,-6.603 -6.3442,-7.588 -8.066,-17.535 -7.9125,-28.439 3.1215,-7.599 6.367,-15.1402 13.2826,-20.9524 7.3675,2.0004 14.7349,4.0009 22.1024,6.0013 0.8516,9.4741 3.9994,18.7671 8.7192,27.9371 z"
             id="path418"
             inkscape:connector-curvature="0" />
          <g
             id="g420">
            <path
               style="fill:#f9f9f9;stroke:none"
               d="m 61.3255,124.44 -13.8868,21.665 c -7.8993,-0.459 -15.1894,-2.766 -22.0058,-6.509 -6.3156,-7.479 -7.8714,-16.977 -7.5525,-27.708 2.9479,-7.542 6.0355,-14.7079 12.6389,-20.1562 7.0746,1.6909 14.787,3.2035 22.1211,5.1754 0.8478,9.3388 4.0785,18.6668 8.6851,27.5328 z"
               id="path422"
               inkscape:connector-curvature="0" />
            <path
               style="fill:#f4f4f4;stroke:none"
               d="M 61.1904,124.288 47.5025,145.563 C 39.6392,145.11 32.3823,142.837 25.5968,139.148 19.31,131.777 17.92,122.728 18.4044,112.17 c 2.7743,-7.485 5.7041,-14.2756 11.9951,-19.3599 6.7819,1.3814 14.8392,2.4061 22.1399,4.3494 0.8439,9.2035 4.1577,18.5665 8.651,27.1285 z"
               id="path424"
               inkscape:connector-curvature="0" />
            <path
               style="fill:#efefef;stroke:none"
               d="m 61.0553,124.136 -13.489,20.885 c -7.8274,-0.447 -15.0511,-2.687 -21.8056,-6.321 -6.258,-7.263 -7.4821,-15.864 -6.8323,-26.248 2.6007,-7.428 5.3726,-13.8433 11.3513,-18.5636 6.4892,1.0718 14.8913,1.6086 22.1587,3.5234 0.8401,9.0682 4.2368,18.4662 8.6169,26.7242 z"
               id="path426"
               inkscape:connector-curvature="0" />
            <path
               style="fill:#eaeaea;stroke:none"
               d="m 60.9202,123.985 -13.2901,20.493 c -7.7914,-0.44 -14.982,-2.646 -21.7055,-6.226 -6.2293,-7.155 -7.2875,-15.307 -6.4722,-25.518 2.427,-7.371 5.0412,-13.4109 10.7075,-17.7673 6.1965,0.7622 14.9435,0.8112 22.1774,2.6974 0.8363,8.9329 4.3161,18.3659 8.5829,26.3209 z"
               id="path428"
               inkscape:connector-curvature="0" />
            <path
               style="fill:#e5e5e5;stroke:none"
               d="M 60.7852,123.833 47.694,143.936 c -7.7556,-0.433 -14.913,-2.606 -21.6054,-6.132 -6.2006,-7.046 -7.0929,-14.75 -6.1122,-24.788 2.2534,-7.314 4.7097,-12.979 10.0638,-16.971 5.9036,0.4527 14.9956,0.0137 22.1961,1.8714 0.8324,8.7976 4.3952,18.2656 8.5489,25.9166 z"
               id="path430"
               inkscape:connector-curvature="0" />
            <path
               style="fill:#e0e0e0;stroke:none"
               d="m 60.6501,123.681 -12.8923,19.713 c -7.7196,-0.427 -14.8439,-2.567 -21.5053,-6.038 -6.1718,-6.938 -6.8983,-14.193 -5.7521,-24.058 2.0798,-7.257 4.3783,-12.546 9.42,-16.1748 5.6109,0.1432 15.0477,-0.7836 22.2149,1.0455 0.8286,8.6623 4.4743,18.1653 8.5148,25.5123 z"
               id="path432"
               inkscape:connector-curvature="0" />
            <path
               style="fill:#dbdbdb;stroke:none"
               d="m 60.515,123.529 -12.6934,19.322 c -7.6837,-0.42 -14.7748,-2.526 -21.4052,-5.943 -6.1431,-6.83 -6.7036,-13.636 -5.392,-23.328 1.9062,-7.199 4.0468,-12.114 8.7762,-15.3785 5.3182,-0.1664 15.0999,-1.5811 22.2337,0.2195 0.8247,8.527 4.5535,18.065 8.4807,25.108 z"
               id="path434"
               inkscape:connector-curvature="0" />
            <path
               style="fill:#d6d6d6;stroke:none"
               d="m 60.3799,123.377 -12.4945,18.932 c -7.6478,-0.413 -14.7056,-2.486 -21.305,-5.849 -6.1144,-6.722 -6.5091,-13.079 -5.032,-22.597 1.7326,-7.143 3.7154,-11.683 8.1324,-14.5832 5.0255,-0.476 15.1521,-2.3785 22.2525,-0.6065 0.8209,8.3917 4.6326,17.9647 8.4466,24.7037 z"
               id="path436"
               inkscape:connector-curvature="0" />
            <path
               style="fill:#d1d1d1;stroke:none"
               d="m 60.2448,123.225 -12.2956,18.541 c -7.6118,-0.406 -14.6365,-2.445 -21.2049,-5.754 -6.0856,-6.614 -6.3144,-12.522 -4.6719,-21.867 1.559,-7.086 3.3839,-11.25 7.4887,-13.787 4.7327,-0.7854 15.2041,-3.1759 22.2712,-1.4324 0.817,8.2564 4.7118,17.8634 8.4125,24.2994 z"
               id="path438"
               inkscape:connector-curvature="0" />
          </g>
          <path
             style="fill:#cccccc;stroke:none"
             d="M 60.1097,123.073 48.013,141.224 c -7.5759,-0.4 -14.5674,-2.406 -21.1048,-5.66 -6.0569,-6.505 -6.1197,-11.965 -4.3118,-21.137 1.3854,-7.029 3.0525,-10.818 6.8449,-12.991 4.4399,-1.095 15.2563,-3.973 22.29,-2.2581 0.8131,8.1211 4.7909,17.7631 8.3784,23.8951 z"
             id="path440"
             inkscape:connector-curvature="0" />
        </g>
        <path
           style="fill:#ffffff;stroke:none"
           d="m 52.7414,96.6549 c 6.9212,-5.4495 12.414,-10.899 23.1162,-16.3484 0,-7.312 0,-14.624 0,-21.9359 -5.4111,-4.192 -13.0153,-6.5933 -22.8939,-7.1376 -11.6248,2.8257 -18.1113,9.5273 -22.933,17.4847 -1.8621,7.3119 -1.3971,14.6239 0.6083,21.9359 7.3675,2.0004 14.7349,4.0009 22.1024,6.0013 z"
           id="path442"
           inkscape:connector-curvature="0" />
        <g
           id="g444">
          <path
             style="fill:#ffffff;stroke:none"
             d="m 53.0701,97.3018 c 7.0165,-5.5271 12.585,-11.0541 23.4344,-16.5812 0,-7.4161 0,-14.8322 0,-22.2484 C 71.019,54.2206 63.3101,51.785 53.2955,51.233 41.5107,54.0989 34.935,60.896 30.0469,68.9667 c -1.8878,7.4161 -1.4163,14.8322 0.6167,22.2483 7.4688,2.029 14.9377,4.0579 22.4065,6.0868 z"
             id="path446"
             inkscape:connector-curvature="0" />
          <g
             id="g448">
            <path
               style="fill:#fbfbfb;stroke:none"
               d="m 53.2007,97.0936 c 6.9052,-5.4982 12.51,-11.0293 23.1943,-16.4288 -0.011,-7.3222 0,-14.48 0.0219,-21.857 -5.4242,-4.2041 -12.6196,-5.7355 -22.5222,-6.2814 -11.653,2.8339 -17.9571,9.2039 -22.901,16.9545 -2.0794,7.1248 -1.7742,14.2725 0.3688,21.5282 7.3085,2.1393 14.4529,4.0782 21.8382,6.0845 z"
               id="path450"
               inkscape:connector-curvature="0" />
            <path
               style="fill:#f7f7f7;stroke:none"
               d="m 53.3313,96.8853 c 6.7938,-5.4692 12.435,-11.0043 22.9541,-16.2762 -0.0219,-7.2283 0,-14.1278 0.0438,-21.4657 -5.3628,-4.1566 -12.0447,-4.7838 -21.8353,-5.3235 -11.5212,2.8018 -17.5537,8.7446 -22.5534,16.1752 -2.2711,6.8335 -2.1322,13.7127 0.1209,20.808 7.1482,2.2497 13.9681,4.0987 21.2699,6.0822 z"
               id="path452"
               inkscape:connector-curvature="0" />
            <path
               style="fill:#f3f3f3;stroke:none"
               d="m 53.4619,96.677 c 6.6825,-5.4403 12.36,-10.9793 22.7139,-16.1236 -0.0328,-7.1344 0,-13.7756 0.0658,-21.0744 -5.3015,-4.109 -11.4699,-3.8321 -21.1485,-4.3657 -11.3894,2.7698 -17.1502,8.2855 -22.2057,15.396 -2.4628,6.5422 -2.4902,13.153 -0.1271,20.0878 6.9878,2.3602 13.4833,4.1191 20.7016,6.0799 z"
               id="path454"
               inkscape:connector-curvature="0" />
            <path
               style="fill:#efefef;stroke:none"
               d="m 53.5925,96.4688 c 6.5711,-5.4114 12.285,-10.9544 22.4738,-15.9711 -0.0439,-7.0405 0,-13.4234 0.0876,-20.6831 -5.2401,-4.0615 -10.895,-2.8804 -20.4616,-3.4078 -11.2576,2.7378 -16.7468,7.8263 -21.8581,14.6166 -2.6545,6.251 -2.8481,12.5933 -0.375,19.3678 6.8275,2.4705 12.9986,4.1394 20.1333,6.0776 z"
               id="path456"
               inkscape:connector-curvature="0" />
            <path
               style="fill:#ebebeb;stroke:none"
               d="m 53.7231,96.2605 c 6.4598,-5.3825 12.21,-10.9294 22.2336,-15.8186 -0.0548,-6.9466 0,-13.0711 0.1096,-20.2918 -5.1788,-4.0139 -10.3202,-1.9286 -19.7748,-2.4498 -11.1258,2.7057 -16.3433,7.367 -21.5104,13.8373 -2.8462,5.9597 -3.2061,12.0336 -0.623,18.6476 6.6672,2.5809 12.5138,4.1598 19.565,6.0753 z"
               id="path458"
               inkscape:connector-curvature="0" />
            <path
               style="fill:#e8e8e8;stroke:none"
               d="m 53.8537,96.0522 c 6.3484,-5.3535 12.1349,-10.9044 21.9934,-15.666 -0.0657,-6.8527 0,-12.7189 0.1315,-19.9005 -5.1174,-3.9663 -9.7453,-0.9769 -19.0879,-1.492 -10.9941,2.6737 -15.9399,6.9079 -21.1628,13.0581 -3.0379,5.6684 -3.564,11.4738 -0.8709,17.9274 6.5068,2.6913 12.029,4.1802 18.9967,6.073 z"
               id="path460"
               inkscape:connector-curvature="0" />
            <path
               style="fill:#e4e4e4;stroke:none"
               d="m 53.9843,95.844 c 6.2371,-5.3247 12.0599,-10.8795 21.7533,-15.5135 -0.0767,-6.7588 0,-12.3667 0.1534,-19.5092 -5.0562,-3.9188 -9.1705,-0.0253 -18.4011,-0.5341 -10.8623,2.6416 -15.5365,6.4487 -20.8152,12.2788 -3.2296,5.3771 -3.9219,10.9141 -1.1188,17.2073 6.3465,2.8016 11.5442,4.2006 18.4284,6.0707 z"
               id="path462"
               inkscape:connector-curvature="0" />
            <path
               style="fill:#e0e0e0;stroke:none"
               d="M 54.1149,95.6357 C 60.2407,90.34 66.0998,84.7812 75.628,80.2748 c -0.0876,-6.665 0,-12.0145 0.1753,-19.1179 -4.9948,-3.8713 -8.5956,0.9264 -17.7142,0.4237 -10.7305,2.6096 -15.133,5.9895 -20.4675,11.4996 -3.4213,5.0858 -4.2799,10.3543 -1.3668,16.4871 6.1862,2.9121 11.0594,4.221 17.8601,6.0684 z"
               id="path464"
               inkscape:connector-curvature="0" />
            <path
               style="fill:#dcdcdc;stroke:none"
               d="m 54.2455,95.4274 c 6.0144,-5.2667 11.9099,-10.8295 21.273,-15.2084 -0.0987,-6.571 0,-11.6622 0.1972,-18.7265 -4.9335,-3.8238 -8.0208,1.8781 -17.0274,1.3816 -10.5987,2.5775 -14.7296,5.5303 -20.1199,10.7203 -3.613,4.7945 -4.6378,9.7946 -1.6147,15.7669 6.0258,3.0225 10.5746,4.2414 17.2918,6.0661 z"
               id="path466"
               inkscape:connector-curvature="0" />
            <path
               style="fill:#d8d8d8;stroke:none"
               d="m 54.3761,95.2192 c 5.9031,-5.2379 11.8349,-10.8046 21.0328,-15.0559 -0.1096,-6.4771 0,-11.31 0.2191,-18.3353 -4.8721,-3.7761 -7.4459,2.8299 -16.3406,2.3395 -10.4668,2.5455 -14.3261,5.0712 -19.7722,9.941 -3.8046,4.5033 -4.9957,9.2349 -1.8626,15.0469 5.8655,3.1328 10.0898,4.2617 16.7235,6.0638 z"
               id="path468"
               inkscape:connector-curvature="0" />
            <path
               style="fill:#d4d4d4;stroke:none"
               d="m 54.5066,95.0109 c 5.7918,-5.2089 11.76,-10.7796 20.7927,-14.9033 -0.1205,-6.3832 0,-10.9578 0.2411,-17.944 -4.8108,-3.7286 -6.8711,3.7816 -15.6538,3.2974 -10.335,2.5134 -13.9226,4.6119 -19.4245,9.1617 -3.9964,4.212 -5.3537,8.6752 -2.1106,14.3267 5.7052,3.2432 9.6051,4.2822 16.1551,6.0615 z"
               id="path470"
               inkscape:connector-curvature="0" />
            <path
               style="fill:#d1d1d1;stroke:none"
               d="m 54.6372,94.8026 c 5.6805,-5.18 11.685,-10.7546 20.5526,-14.7507 -0.1315,-6.2894 0,-10.6057 0.2629,-17.5527 -4.7494,-3.6811 -6.2962,4.7333 -14.9669,4.2553 -10.2032,2.4813 -13.5192,4.1527 -19.0769,8.3824 -4.188,3.9207 -5.7116,8.1154 -2.3585,13.6065 5.5449,3.3536 9.1203,4.3026 15.5868,6.0592 z"
               id="path472"
               inkscape:connector-curvature="0" />
            <path
               style="fill:#cdcdcd;stroke:none"
               d="m 54.7678,94.5944 c 5.5691,-5.1511 11.61,-10.7297 20.3124,-14.5983 -0.1424,-6.1954 0,-10.2534 0.2849,-17.1613 -4.6881,-3.6335 -5.7214,5.685 -14.2801,5.2131 -10.0715,2.4493 -13.1157,3.6936 -18.7292,7.6032 -4.3798,3.6294 -6.0696,7.5557 -2.6065,12.8864 5.3845,3.464 8.6355,4.3229 15.0185,6.0569 z"
               id="path474"
               inkscape:connector-curvature="0" />
            <path
               style="fill:#c9c9c9;stroke:none"
               d="m 54.8984,94.3861 c 5.4578,-5.1222 11.535,-10.7047 20.0722,-14.4457 -0.1534,-6.1015 0,-9.9012 0.3068,-16.77 -4.6267,-3.586 -5.1465,6.6366 -13.5932,6.171 -9.9397,2.4172 -12.7123,3.2343 -18.3816,6.8239 -4.5715,3.3381 -6.4275,6.9959 -2.8544,12.1662 5.2242,3.5744 8.1507,4.3433 14.4502,6.0546 z"
               id="path476"
               inkscape:connector-curvature="0" />
            <path
               style="fill:#c5c5c5;stroke:none"
               d="m 55.029,94.1778 c 5.3465,-5.0932 11.46,-10.6797 19.8321,-14.2931 -0.1644,-6.0076 0,-9.549 0.3287,-16.3788 -4.5654,-3.5384 -4.5717,7.5884 -12.9064,7.1289 -9.8079,2.3853 -12.3089,2.7752 -18.034,6.0446 -4.7631,3.0469 -6.7854,6.4363 -3.1023,11.4461 5.0639,3.6848 7.6659,4.3637 13.8819,6.0523 z"
               id="path478"
               inkscape:connector-curvature="0" />
            <path
               style="fill:#c1c1c1;stroke:none"
               d="m 55.1596,93.9696 c 5.2351,-5.0643 11.385,-10.6548 19.5919,-14.1406 -0.1753,-5.9138 0,-9.1968 0.3506,-15.9875 -4.504,-3.4909 -3.9968,8.5401 -12.2195,8.0868 -9.6761,2.3532 -11.9054,2.3159 -17.6863,5.2653 -4.9549,2.7556 -7.1434,5.8765 -3.3503,10.7259 4.9035,3.7952 7.1811,4.3842 13.3136,6.0501 z"
               id="path480"
               inkscape:connector-curvature="0" />
            <path
               style="fill:#bdbdbd;stroke:none"
               d="m 55.2902,93.7613 c 5.1238,-5.0354 11.31,-10.6298 19.3518,-13.988 -0.1863,-5.8199 0,-8.8446 0.3725,-15.5962 -4.4427,-3.4433 -3.422,9.4918 -11.5327,9.0447 -9.5443,2.3211 -11.502,1.8567 -17.3387,4.486 -5.1465,2.4643 -7.5013,5.3168 -3.5982,10.0058 4.7432,3.9055 6.6964,4.4045 12.7453,6.0477 z"
               id="path482"
               inkscape:connector-curvature="0" />
            <path
               style="fill:#bababa;stroke:none"
               d="m 55.4208,93.553 c 5.0124,-5.0064 11.235,-10.6048 19.1116,-13.8355 -0.1972,-5.7259 0,-8.4923 0.3944,-15.2048 -4.3813,-3.3958 -2.8471,10.4435 -10.8458,10.0025 -9.4125,2.2891 -11.0985,1.3976 -16.9911,3.7068 -5.3382,2.1731 -7.8592,4.757 -3.8461,9.2856 4.5829,4.016 6.2116,4.4249 12.177,6.0454 z"
               id="path484"
               inkscape:connector-curvature="0" />
            <path
               style="fill:#b6b6b6;stroke:none"
               d="m 55.5514,93.3447 c 4.9011,-4.9775 11.1599,-10.5798 18.8714,-13.6829 -0.2081,-5.6321 0,-8.1401 0.4163,-14.8135 -4.3199,-3.3483 -2.2722,11.3952 -10.1589,10.9604 -9.2808,2.257 -10.6951,0.9383 -16.6434,2.9275 -5.5299,1.8818 -8.2172,4.1973 -4.0941,8.5654 4.4225,4.1264 5.7268,4.4453 11.6087,6.0431 z"
               id="path486"
               inkscape:connector-curvature="0" />
          </g>
          <path
             style="fill:#b2b2b2;stroke:none"
             d="m 55.682,93.1365 c 4.7897,-4.9486 11.0849,-10.5549 18.6313,-13.5304 -0.2192,-5.5382 0,-7.7879 0.4382,-14.4223 -4.2586,-3.3007 -1.6974,12.3469 -9.4721,11.9183 -9.149,2.225 -10.2917,0.4792 -16.2958,2.1483 -5.7216,1.5905 -8.5751,3.6375 -4.342,7.8453 4.2622,4.2367 5.242,4.4656 11.0404,6.0408 z"
             id="path488"
             inkscape:connector-curvature="0" />
        </g>
        <path
           style="fill:#910000;fill-opacity:1;stroke:none"
           d="m 87.4641,43.9404 c 5.5984,1.5569 8.3665,4.2248 10.1159,7.2926 -4.4654,-0.8614 -19.4527,4.1615 -21.7224,7.1376 -5.6142,-4.6094 -13.7212,-6.4627 -22.8939,-7.1376 2.058,-2.8767 4.7392,-5.4418 8.7316,-7.3512 8.742,-2.0018 17.3246,-1.8907 25.7688,0.0586 z"
           id="path490"
           inkscape:connector-curvature="0" />
        <path
           style="fill:#840000;fill-opacity:1;stroke:none"
           d="m 17.3527,112.136 c -3.0542,-1.55945 -8.46555,-4.99606 -7.0925,-13.08711 2.0484,-9.395351 4.9293,-15.646158 9.3443,-24.150244 3.0999,-2.135421 5.53,-3.822344 10.4161,-4.948644 -1.2303,7.312202 -1.7034,14.561055 0.608,21.576816 C 23.7445,96.686984 20.4379,104.33488 17.3527,112.136 z"
           id="path492"
           inkscape:connector-curvature="0" />
        <path
           style="fill:#910000;fill-opacity:1;stroke:none"
           d="m 52.7414,96.6549 c 6.9453,-6.1143 14.1171,-12.0306 23.1162,-16.3484 9.7726,4.1611 17.474,10.4699 23.9273,16.7623 -2.3919,9.5882 -5.3744,18.7032 -9.1249,27.5232 -9.8677,1.511 -19.6289,1.826 -29.1994,0 -4.9719,-9.368 -8.096,-18.723 -8.7192,-27.9371 z"
           id="path494"
           inkscape:connector-curvature="0" />
        <g
           style="fill:#430000;fill-opacity:1;filter:url(#filter4749)"
           id="g496">
          <path
             style="fill:#430000;fill-opacity:1;stroke:none"
             d="m 58.8417,116.716 c 1.4284,-2 3.0205,4.724 6.7203,5.063 4.7532,0.437 17.2421,0.193 22.1568,-0.256 1.9164,-0.175 3.1021,-5.352 4.7235,-7.213 -0.9974,4.008 -1.3515,6.174 -2.3327,9.599 -8.1911,0.545 -19.0955,0.879 -27.0399,0.22 -2.2032,-2.887 -3.7107,-4.091 -4.228,-7.413 z"
             id="path498"
             inkscape:connector-curvature="0" />
          <g
             style="fill:#430000;fill-opacity:1"
             id="g500">
            <path
               style="fill:#430000;fill-opacity:1;stroke:none"
               d="m 59.2265,117.047 c 1.419,-1.138 2.965,4.595 6.0818,4.909 4.4413,0.518 17.6739,0.289 22.5665,-0.278 1.7054,-0.177 2.7589,-4.673 4.2659,-6.633 -1.0078,3.947 -1.2844,5.699 -2.2006,8.684 -6.7559,0.544 -20.0826,0.755 -26.5896,0.192 -1.9141,-2.346 -3.3674,-3.588 -4.124,-6.874 z"
               id="path502"
               inkscape:connector-curvature="0" />
            <path
               style="fill:#430000;fill-opacity:1;stroke:none"
               d="m 59.6114,117.378 c 1.4095,-0.275 2.9095,4.467 5.4432,4.754 4.1295,0.601 18.1056,0.385 22.9762,-0.299 1.4944,-0.179 2.4156,-3.995 3.8083,-6.053 -1.0182,3.886 -1.2174,5.225 -2.0686,7.768 -5.3206,0.544 -21.0695,0.632 -26.1392,0.165 -1.625,-1.805 -3.0242,-3.086 -4.0199,-6.335 z"
               id="path504"
               inkscape:connector-curvature="0" />
            <path
               style="fill:#430000;fill-opacity:1;stroke:none"
               d="m 59.9962,117.709 c 1.4001,0.587 2.854,4.339 4.8046,4.6 3.8178,0.682 18.5374,0.481 23.386,-0.321 1.2833,-0.181 2.0724,-3.317 3.3507,-5.472 -1.0286,3.824 -1.1502,4.749 -1.9365,6.851 -3.8854,0.545 -22.0565,0.509 -25.6889,0.137 -1.3359,-1.263 -2.681,-2.583 -3.9159,-5.795 z"
               id="path506"
               inkscape:connector-curvature="0" />
            <path
               style="fill:#430000;fill-opacity:1;stroke:none"
               d="m 60.381,118.04 c 1.3906,1.45 2.7985,4.211 4.1661,4.445 3.506,0.764 18.9692,0.578 23.7957,-0.342 1.0723,-0.184 1.7292,-2.638 2.8931,-4.892 -1.039,3.763 -1.0832,4.275 -1.8044,5.935 -2.4502,0.545 -23.0436,0.386 -25.2386,0.11 -1.0468,-0.721 -2.3378,-2.081 -3.8119,-5.256 z"
               id="path508"
               inkscape:connector-curvature="0" />
          </g>
          <path
             style="fill:#430000;fill-opacity:1;stroke:none"
             d="m 60.7658,118.371 c 1.3812,2.312 2.7431,4.083 3.5276,4.291 3.1941,0.846 19.4009,0.674 24.2054,-0.364 0.8613,-0.186 1.386,-1.96 2.4355,-4.312 -1.0494,3.702 -1.0161,3.8 -1.6724,5.019 -1.0149,0.545 -24.0305,0.263 -24.7882,0.083 -0.7577,-0.18 -1.9946,-1.579 -3.7079,-4.717 z"
             id="path510"
             inkscape:connector-curvature="0" />
        </g>
        <g
           id="g512">
          <path
             style="fill:#ffffff;stroke:none;fill-opacity:1;filter:url(#filter4052)"
             d="m 76.0277,82.0679 c 3.8811,1.7458 -9.7644,6.136 -22.066,14.7599 5.9984,-5.1506 17.0588,-12.4838 22.066,-14.7599 z"
             id="path514"
             inkscape:connector-curvature="0" />
        </g>
        <g
           id="g528">
          <path
             style="fill:#7f7f7f;stroke:none"
             d="m 74.7676,54.0193 c 1.0146,2.0605 -8.2028,-2.6533 -18.9096,-4.0547 6.3941,-0.6903 15.327,2.5679 18.9096,4.0547 z"
             id="path530"
             inkscape:connector-curvature="0" />
          <g
             id="g532">
            <path
               style="fill:#999999;stroke:none"
               d="m 74.7238,54.0379 c 0.9124,1.8412 -8.3288,-2.7072 -18.3245,-4.0209 5.7796,-0.5925 15.0371,2.6054 18.3245,4.0209 z"
               id="path534"
               inkscape:connector-curvature="0" />
            <path
               style="fill:#b2b2b2;stroke:none"
               d="m 74.6799,54.0564 c 0.8102,1.622 -8.4547,-2.7609 -17.7392,-3.987 5.1651,-0.4947 14.747,2.6429 17.7392,3.987 z"
               id="path536"
               inkscape:connector-curvature="0" />
            <path
               style="fill:#cccccc;stroke:none"
               d="m 74.6361,54.075 c 0.7079,1.4028 -8.5807,-2.8148 -17.1541,-3.9533 4.5506,-0.3968 14.457,2.6805 17.1541,3.9533 z"
               id="path538"
               inkscape:connector-curvature="0" />
            <path
               style="fill:#e5e5e5;stroke:none"
               d="m 74.5922,54.0936 c 0.6057,1.1835 -8.7066,-2.8686 -16.5688,-3.9195 3.936,-0.299 14.167,2.718 16.5688,3.9195 z"
               id="path540"
               inkscape:connector-curvature="0" />
          </g>
          <path
             style="fill:#ffffff;stroke:none"
             d="m 74.5483,54.1121 c 0.5035,0.9643 -8.8325,-2.9224 -15.9835,-3.8856 3.3215,-0.2012 13.8769,2.7555 15.9835,3.8856 z"
             id="path542"
             inkscape:connector-curvature="0" />
        </g>
        <g
           id="g544">
          <path
             style="fill:#7f7f7f;stroke:none"
             d="m 27.6187,72.1716 c 1.7392,-1.5 -0.5059,8.6065 0.8296,19.3218 -2.2757,-6.0153 -1.368,-15.4804 -0.8296,-19.3218 z"
             id="path546"
             inkscape:connector-curvature="0" />
          <g
             id="g548">
            <path
               style="fill:#999999;stroke:none"
               d="m 27.6477,72.2094 c 1.5527,-1.3459 -0.5263,8.7419 0.7152,18.7468 -2.0265,-5.445 -1.2587,-15.2091 -0.7152,-18.7468 z"
               id="path550"
               inkscape:connector-curvature="0" />
            <path
               style="fill:#b2b2b2;stroke:none"
               d="M 27.6767,72.2472 C 29.0429,71.0553 27.13,81.1245 28.2775,90.4191 26.5002,85.5443 27.128,75.4813 27.6767,72.2472 z"
               id="path552"
               inkscape:connector-curvature="0" />
            <path
               style="fill:#cccccc;stroke:none"
               d="m 27.7056,72.285 c 1.1798,-1.0379 -0.5671,9.0127 0.4865,17.597 -1.5282,-4.3047 -1.0403,-14.6666 -0.4865,-17.597 z"
               id="path554"
               inkscape:connector-curvature="0" />
            <path
               style="fill:#e5e5e5;stroke:none"
               d="m 27.7346,72.3228 c 0.9932,-0.8838 -0.5875,9.1481 0.372,17.022 -1.2789,-3.7344 -0.9309,-14.3953 -0.372,-17.022 z"
               id="path556"
               inkscape:connector-curvature="0" />
          </g>
          <path
             style="fill:#ffffff;stroke:none"
             d="m 27.7636,72.3606 c 0.8067,-0.7298 -0.6079,9.2835 0.2576,16.4471 -1.0297,-3.1643 -0.8217,-14.124 -0.2576,-16.4471 z"
             id="path558"
             inkscape:connector-curvature="0" />
        </g>
        <g
           id="g4708">
          <g
             id="g298">
            <path
               id="path300"
               d="m 47.3749,146.648 c 3.0835,7.993 8.0789,14.621 14.1341,20.492 -3.6373,1.986 -7.2747,3.972 -10.912,5.957 -8.0629,-3.8 -16.164,-7.78 -25.6856,-18.428 0.1192,-4.875 0.2383,-9.749 0.3575,-14.624 7.0532,3.971 14.4577,5.971 22.106,6.603 z"
               style="fill:#910000;fill-opacity:1;stroke:none"
               inkscape:connector-curvature="0" />
            <path
               style="opacity:0.594697;fill:url(#radialGradient4989);fill-opacity:1;stroke:none;filter:url(#filter4060)"
               d="m 45.139719,150.05102 c 2.226931,5.77262 5.834652,10.55942 10.207771,14.79951 -2.62689,1.4343 -5.253852,2.86861 -7.880742,4.30219 -5.823097,-2.74439 -11.673783,-5.61878 -18.550366,-13.30886 0.08609,-3.52077 0.172102,-7.04081 0.25819,-10.56158 5.093883,2.86789 10.441477,4.31231 15.965147,4.76874 z"
               id="path4662"
               inkscape:connector-curvature="0"
               transform="matrix(1.0927112,0,0,1.0927112,-3.3252885,-15.346015)" />
          </g>
          <g
             id="g4672"
             transform="matrix(-1,0,0,1,104.59648,73.432431)">
            <path
               style="opacity:0.35271319000000001;fill:#fefefe;fill-opacity:1;stroke:none;filter:url(#filter4080)"
               d="M 78.830465,80.386241 C 80.469353,83.253147 65.142194,94.650258 55.643359,99.350288 55.475677,97.282729 73.823265,82.662341 78.830465,80.386241 z"
               id="path4674"
               inkscape:connector-curvature="0"
               sodipodi:nodetypes="ccc"
               transform="matrix(1,0,0,0.95313535,-0.92422656,3.1333803)" />
          </g>
        </g>
        <g
           transform="matrix(-0.99269761,0,0,1.0090097,151.17343,-1.2617635)"
           id="g4715">
          <g
             id="g4717">
            <path
               inkscape:connector-curvature="0"
               style="fill:#910000;fill-opacity:1;stroke:none"
               d="m 47.3749,146.648 c 3.0835,7.993 8.0789,14.621 14.1341,20.492 -3.6373,1.986 -7.2747,3.972 -10.912,5.957 -8.0629,-3.8 -16.164,-7.78 -25.6856,-18.428 0.1192,-4.875 0.2383,-9.749 0.3575,-14.624 7.0532,3.971 14.4577,5.971 22.106,6.603 z"
               id="path4719" />
            <path
               inkscape:connector-curvature="0"
               id="path4721"
               d="m 46.005078,149.95486 c 2.299073,6.07095 6.023668,11.10514 10.538454,15.56436 -2.711989,1.50842 -5.424051,3.01686 -8.13604,4.52453 -6.011737,-2.88623 -12.051956,-5.90916 -19.151307,-13.99667 0.08888,-3.70272 0.177677,-7.40469 0.266553,-11.10741 5.2589,3.0161 10.779731,4.53517 16.48234,5.01519 z"
               style="opacity:0.51550388999999996;fill:url(#radialGradient4991);fill-opacity:1;stroke:none;filter:url(#filter4084)" />
          </g>
          <g
             transform="matrix(-1,0,0,1,104.59648,73.432431)"
             id="g4723">
            <path
               sodipodi:nodetypes="ccc"
               inkscape:connector-curvature="0"
               id="path4725"
               d="M 78.830465,80.386241 C 80.469353,83.253147 65.142194,94.650258 55.643359,99.350288 55.475677,97.282729 73.823265,82.662341 78.830465,80.386241 z"
               style="opacity:0.51893939000000000;fill:#fefefe;fill-opacity:1;stroke:none;filter:url(#filter4096)" />
          </g>
        </g>
        <path
           inkscape:connector-curvature="0"
           id="path3216"
           d="m 16.66548,106.28257 c -2.252368,-1.18363 -6.243053,-3.79205 -5.230476,-9.933225 1.510625,-7.131146 3.63519,-11.875557 6.891101,-18.330226 2.28607,-1.620802 4.078185,-2.90119 7.681516,-3.75606 -0.907304,5.550019 -1.256199,11.051956 0.448379,16.376974 -5.076787,3.916602 -7.515291,9.721427 -9.79052,15.642537 z"
           style="fill:url(#radialGradient4008);fill-opacity:1;stroke:none;filter:url(#filter4018);opacity:0.95000004" />
        <path
           inkscape:connector-curvature="0"
           id="path4022"
           d="m 84.067927,43.789208 c 3.897494,1.083882 5.82459,2.941222 7.042487,5.076962 -3.108722,-0.599689 -13.542581,2.897154 -15.122701,4.969055 -3.908494,-3.208972 -9.552425,-4.499202 -15.938276,-4.969055 1.432739,-2.0027 3.299336,-3.788472 6.078766,-5.117758 6.086005,-1.393614 12.061041,-1.316268 17.939724,0.0408 z"
           style="fill:url(#radialGradient4034);fill-opacity:1;stroke:none;filter:url(#filter4024);opacity:0.65000001" />
        <path
           inkscape:connector-curvature="0"
           id="path4100"
           d="m 62.599817,100.05126 c 3.938265,-3.467046 8.004965,-6.821826 13.107817,-9.270196 5.541458,2.35951 9.908462,5.93686 13.567743,9.504896 -1.356303,5.4369 -3.047501,10.60547 -5.174186,15.60677 -5.595383,0.85679 -11.130377,1.03541 -16.557236,0 -2.819268,-5.31204 -4.590758,-10.6167 -4.944138,-15.84147 z"
           style="fill:#ffffff;fill-opacity:1;stroke:none;opacity:0.41000002;filter:url(#filter4114)" />
      </g>
    </g>
  </g>
  <g
     id="g560" />
</svg>
