<?xml version="1.0" encoding="UTF-8" standalone="no"?>
<!-- Created with Inkscape (http://www.inkscape.org/) -->

<svg
   xmlns:dc="http://purl.org/dc/elements/1.1/"
   xmlns:cc="http://creativecommons.org/ns#"
   xmlns:rdf="http://www.w3.org/1999/02/22-rdf-syntax-ns#"
   xmlns:svg="http://www.w3.org/2000/svg"
   xmlns="http://www.w3.org/2000/svg"
   xmlns:sodipodi="http://sodipodi.sourceforge.net/DTD/sodipodi-0.dtd"
   xmlns:inkscape="http://www.inkscape.org/namespaces/inkscape"
   width="512"
   height="512"
   viewBox="0 0 512.00002 512.00002"
   id="svg2"
   version="1.1"
   inkscape:version="0.92.2 2405546, 2018-03-11"
   sodipodi:docname="spongebob.svg">
  <title
     id="title6011">SpongeBob</title>
  <defs
     id="defs4" />
  <sodipodi:namedview
     id="base"
     pagecolor="#ffffff"
     bordercolor="#666666"
     borderopacity="1.0"
     inkscape:pageopacity="0.0"
     inkscape:pageshadow="2"
     inkscape:zoom="4.5323727"
     inkscape:cx="353.96011"
     inkscape:cy="316.16972"
     inkscape:document-units="px"
     inkscape:current-layer="layer1"
     showgrid="false"
     units="px"
     inkscape:showpageshadow="false"
     inkscape:window-width="1920"
     inkscape:window-height="994"
     inkscape:window-x="0"
     inkscape:window-y="21"
     inkscape:window-maximized="1" />
  <metadata
     id="metadata7">
    <rdf:RDF>
      <cc:Work
         rdf:about="">
        <dc:format>image/svg+xml</dc:format>
        <dc:type
           rdf:resource="http://purl.org/dc/dcmitype/StillImage" />
        <dc:title>SpongeBob</dc:title>
        <cc:license
           rdf:resource="http://creativecommons.org/licenses/by-sa/4.0/" />
        <dc:date>2019</dc:date>
        <dc:creator>
          <cc:Agent>
            <dc:title>Cristian Pozzessere  &lt; ilnanny &gt;</dc:title>
          </cc:Agent>
        </dc:creator>
        <dc:subject>
          <rdf:Bag>
            <rdf:li>ilnanny</rdf:li>
          </rdf:Bag>
        </dc:subject>
      </cc:Work>
      <cc:License
         rdf:about="http://creativecommons.org/licenses/by-sa/4.0/">
        <cc:permits
           rdf:resource="http://creativecommons.org/ns#Reproduction" />
        <cc:permits
           rdf:resource="http://creativecommons.org/ns#Distribution" />
        <cc:requires
           rdf:resource="http://creativecommons.org/ns#Notice" />
        <cc:requires
           rdf:resource="http://creativecommons.org/ns#Attribution" />
        <cc:permits
           rdf:resource="http://creativecommons.org/ns#DerivativeWorks" />
        <cc:requires
           rdf:resource="http://creativecommons.org/ns#ShareAlike" />
      </cc:License>
    </rdf:RDF>
  </metadata>
  <g
     inkscape:label="Livello 1"
     inkscape:groupmode="layer"
     id="layer1"
     transform="translate(0,-540.3622)">
    <path
       style="fill:#000000;stroke-width:0.25293773"
       inkscape:connector-curvature="0"
       d="m 297.18972,1012.0176 c 0,0 -3.03525,5.5646 -2.27644,8.094 0.75882,2.5294 9.86458,7.5881 9.86458,7.5881 2.47879,-1.5454 8.9034,1.0396 11.38219,-0.5058 3.33878,-2.0817 2.73173,-8.2888 6.07051,-10.3705 z m -0.25293,0.2529 c 3.09342,4.1583 8.9287,6.5764 15.02956,6.5764 9.2904,0 16.08178,-3.6752 16.08178,-12.2675 0,-1.3734 1.51762,-4.1406 1.51762,-5.944 0,-1.11546 -1.01175,-2.52938 -1.01175,-2.52938 -0.32882,-1.50245 -1.31274,-2.05132 -2.52937,-3.28819 -3.07573,-3.13137 -9.86205,-3.79406 -14.79686,-3.79406 -4.391,0 -8.52147,-1.13064 -13.0263,3.03525 -4.33535,4.00906 -3.54112,10.20098 -3.54112,10.37048 0,2.9492 0.66016,5.6683 2.27644,7.841 z m 37.94066,27.5702 c 11.59466,0 20.99383,-9.2853 20.99383,-20.7408 0,-3.8017 0,-7.3352 -2.0235,-11.8881 -0.80688,-1.8136 -1.69722,-3.0327 -2.52938,-4.047 -1.25457,-1.5328 -2.4965,-2.4763 -4.04701,-3.28821 -1.9982,-0.78411 -2.59008,-1.24699 -4.80581,-1.77057 -2.21574,-0.52358 -4.76282,-0.50587 -4.80582,-0.50587 -11.59466,0 -23.77615,10.04415 -23.77615,21.49975 0,11.4555 9.39917,20.7408 20.99384,20.7408 z"
       class="shp1"
       id="Shoe right" />
    <path
       style="fill:#000000;stroke-width:0.25293773"
       inkscape:connector-curvature="0"
       d="m 187.01005,1015.6675 c 3.33878,2.0817 2.73173,8.2888 6.0705,10.3704 2.47879,1.5455 8.90341,-1.0395 11.3822,0.5059 0,0 9.10576,-5.0587 9.86457,-7.5881 0.75882,-2.5294 -2.27644,-8.094 -2.27644,-8.094 z m 27.57021,-12.394 c 0,-0.1694 0.79423,-6.36134 -3.54113,-10.37041 -4.50482,-4.16588 -8.63529,-3.03525 -13.02629,-3.03525 -4.93482,0 -9.79881,0.55393 -12.87453,3.6853 -1.21663,1.23687 -2.20056,1.78574 -2.52938,3.28819 0,0 -1.41645,2.86579 -1.41645,5.32937 0,1.4418 0,2.7469 0,3.2528 0,8.5923 6.79138,12.2675 16.08178,12.2675 6.10086,0 11.93613,-2.4181 15.02956,-6.5764 1.61627,-2.1727 2.27644,-4.8918 2.27644,-7.8411 z m -19.22327,14.6704 c 0,-9.4598 -11.23043,-12.3585 -14.01275,-16.2967 -2.78231,-3.93829 -7.74242,-5.20298 -9.76339,-5.20298 -0.043,0 -2.59009,-0.0177 -4.80582,0.50588 -2.21573,0.52358 -2.80761,0.98645 -4.80582,1.77056 -5.31169,2.78234 -8.59988,11.83244 -8.59988,19.22324 0,11.4556 9.39917,20.7409 20.99383,20.7409 11.59467,0 20.99383,-9.2853 20.99383,-20.7409 z"
       class="shp1"
       id="Shoe left" />
    <path
       style="fill:#2c2f34;stroke-width:0.25293773"
       inkscape:connector-curvature="0"
       d="m 306.04254,1023.3998 h 7.3352 c -0.41735,-0.4983 -0.34147,-1.2723 -0.75881,-1.7706 -0.42747,-0.5134 -1.09017,-0.7512 -1.51763,-1.2647 -0.52105,-0.1593 -0.99658,-0.5994 -1.51763,-0.7588 -0.2757,-0.061 -0.48311,-0.1922 -0.75881,-0.2529 -0.48311,-0.1062 -1.03452,-0.1467 -1.51763,-0.2529 z"
       class="shp2"
       id="Triangle 5" />
    <path
       style="fill:#ffffff;stroke:#000000;stroke-width:4.55287933"
       inkscape:connector-curvature="0"
       d="m 134.55076,822.22324 1.27228,82.12888 h 235.2245 l 2.27644,-82.12888 z"
       class="shp3"
       id="Rectangle 29" />
    <path
       style="fill:#8b572a;stroke:#000000;stroke-width:2.02350187"
       inkscape:connector-curvature="0"
       d="m 137.58602,856.20796 v 44.76997 h 232.19683 v -44.76997 z"
       class="shp4"
       id="Rectangle 30" />
    <path
       style="fill:#ffffff;stroke:#000000;stroke-width:2.02350187"
       inkscape:connector-curvature="0"
       d="m 199.30282,822.56724 c 0,0 34.90541,26.30552 37.18185,26.30552 2.27644,0 16.18801,-22.51146 16.18801,-22.51146 z"
       class="shp5"
       id="Triangle 2" />
    <path
       style="fill:#000000;stroke-width:0.25293773"
       inkscape:connector-curvature="0"
       d="m 213.97321,869.61366 v 11.63513 h 82.4577 v -11.63513 z"
       class="shp1"
       id="Rectangle 31" />
    <path
       style="fill:#e10000;stroke:#000000;stroke-width:2.02350187"
       inkscape:connector-curvature="0"
       d="m 258.49025,887.3193 c 3.28819,0 20.23502,-15.93508 19.47621,-17.70564 -0.20488,-0.47806 -6.57638,-15.68214 -9.10576,-21.75265 -2.52938,-6.0705 -5.74675,-17.70564 -8.88317,-17.70564 -3.65243,0 -6.04016,11.12926 -9.32835,17.70564 -3.28819,6.57638 -8.44812,20.84207 -8.85282,21.24677 -1.26469,1.26469 13.4057,18.21152 16.69389,18.21152 z"
       class="shp6"
       id="Triangle 3" />
    <path
       style="fill:#ffffff;stroke:#000000;stroke-width:4.29994154"
       inkscape:connector-curvature="0"
       d="m 363.54288,776.2341 c 0,0 10.28698,45.82726 14.33398,48.86252 2.07662,1.55809 9.17911,1.75538 16.18801,0.50587 6.64215,-1.18375 13.36776,-4.88929 15.36091,-8.37224 2.89108,-8.16483 -2.65331,-26.43199 -9.03746,-41.59561 -5.01829,-11.91842 -11.12926,-20.99383 -11.12926,-20.99383 z"
       class="shp7"
       id="Rectangle 36" />
    <path
       style="fill:#ffffff;stroke:#000000;stroke-width:2.02350187"
       inkscape:connector-curvature="0"
       d="m 268.35482,827.37306 c 0,0 13.46135,21.24676 15.20409,21.4997 1.74274,0.25294 34.90541,-22.25852 34.90541,-22.25852 z"
       class="shp5"
       id="Triangle 1" />
    <path
       style="fill:#e10000;stroke:#000000;stroke-width:1.5176264"
       inkscape:connector-curvature="0"
       d="m 259.75494,847.24131 c 5.31169,0 12.14101,-12.50018 12.14101,-18.71739 0,-6.21721 -8.22048,-9.10576 -12.89982,-9.10576 -4.67935,0 -10.11751,7.18849 -10.11751,13.4057 0,6.21721 5.56463,14.41745 10.87632,14.41745 z"
       class="shp8"
       id="Oval 27" />
    <path
       style="fill:#ffffff;stroke:#000000;stroke-width:4.29994154"
       inkscape:connector-curvature="0"
       d="m 121.94941,760.67591 c 0,0 -6.11098,9.0754 -11.12926,20.99383 -6.38415,15.16108 -11.926018,33.43078 -9.03747,41.59561 1.99315,3.48295 8.71876,7.18849 15.36091,8.37224 7.0089,1.24951 14.11139,1.05222 16.18801,-0.50588 4.04701,-3.03525 14.33398,-48.86251 14.33398,-48.86251 z"
       class="shp7"
       id="Rectangle 37" />
    <path
       inkscape:connector-curvature="0"
       id="Rectangle 4"
       d="m 345.02734,554.65517 c -14.08306,0.0791 -25.46164,4.94516 -28.25976,4.85742 -8.72635,-0.27317 -26.15381,-3.50912 -29.08789,-3.28906 -11.31644,0.84481 -16.011,4.72473 -29.59375,4.55273 -13.58276,-0.17199 -9.6279,-5.66719 -27.31836,-5.31054 -17.69047,0.35664 -21.41764,6.57617 -35.41016,6.57617 -13.99251,0 -12.5736,-5.91095 -28.58203,-6.57617 -16.00843,-0.66523 -31.08191,4.04687 -32.37695,4.04687 -6.83944,0 -3.74335,8e-5 -16.28906,-2.5293 -2.68114,0 -22.113305,-2.85979 -20.638678,19.47461 1.474627,22.33441 6.526958,28.58196 6.580078,39.47852 -0.0556,9.62681 -2.24079,20.11704 -1.77539,24.51562 1.53786,14.57175 6.9135,23.87237 8.34766,27.57032 3.25531,8.38741 -0.301,23.65738 0,27.06445 1.20145,13.55746 5.28116,20.08097 5.56445,23.01758 1.36333,14.12657 -1.26563,15.68222 -1.26562,28.07617 0,12.64689 9.25781,19.98215 9.25781,28.58203 0,10.70685 -5.1194,12.40581 -2.02344,24.78711 2.0235,8.09401 3.28795,5.8172 7.58789,11.63477 4.29994,5.81756 -3.03525,12.39532 0,18.21289 3.03525,5.81756 6.07965,4.98021 12.64844,4.04687 6.56879,-0.93334 8.59943,-3.28806 14.16406,-4.04687 5.56463,-0.75882 12.14037,2.78125 20.23438,2.78125 1.2748,0 8.02114,-2.9659 15.42968,-2.78125 7.40855,0.18464 7.5876,4.04687 16.69336,4.04687 10.37045,0 14.77126,-4.04687 21.85352,-4.04687 1.29504,0 8.08909,2.41802 13.81054,2.02343 7.3352,-0.50587 9.88272,-4.3504 16.94727,-4.04687 1.69215,0.0733 15.75472,6.07031 24.28125,6.07031 9.3587,0 13.44397,-4.80664 20.48828,-4.80664 1.96533,0 8.25128,2.52774 16.44141,2.7832 6.9482,0.21753 15.78517,-3.9027 21.24609,-4.04687 2.42062,-0.0632 8.85428,1.99461 15.6836,2.78125 8.57206,0.98646 10.80147,2.61132 16.43945,-0.75781 5.63798,-3.36913 6.42578,-7.54064 6.42578,-12.90039 0,-5.3117 -3.43995,-7.33568 0,-15.42969 3.43995,-8.09401 9.50977,-15.93436 9.50977,-22.76367 0,-7.18849 -3.06864,-23.85216 -2.68164,-26.5586 1.26468,-8.85282 6.28626,-23.09435 6.83007,-25.80078 1.93751,-9.61922 -3.0352,-15.6804 -1.51757,-24.02734 1.30515,-7.18343 5.41361,-11.38256 7.33593,-19.47657 1.92233,-8.094 -2.27776,-16.18825 -1.36719,-23.01757 0.91058,-6.82932 7.50575,-19.67602 8.95508,-31.11133 1.44934,-11.43532 -2.52929,-17.70686 -2.52929,-23.27149 0,-5.56463 5.91598,-12.71959 7.08203,-20.23437 1.56568,-10.10486 3.66023,-17.40739 -7.08203,-24.0293 -10.74227,-6.62191 -12.60489,1.48062 -29.84766,1.26563 -12.22954,-0.15177 -13.96123,-6.69348 -29.33984,-7.33594 -0.96117,-0.0402 -1.9127,-0.0561 -2.85157,-0.0508 z"
       style="fill:#feff00;stroke:#7a9335;stroke-width:3.54112816" />
    <path
       style="fill:#ffffff;stroke:#000000;stroke-width:2.78231502"
       inkscape:connector-curvature="0"
       d="m 208.53505,703.68651 c 25.91347,0 46.91995,-21.00648 46.91995,-46.91995 0,-25.91347 -21.00648,-46.91995 -46.91995,-46.91995 -25.91347,0 -46.91995,21.00648 -46.91995,46.91995 0,25.91347 21.00648,46.91995 46.91995,46.91995 z"
       class="shp10"
       id="Oval 5" />
    <path
       style="fill:#00c7ff;stroke:#000000;stroke-width:2.02350187"
       inkscape:connector-curvature="0"
       d="m 222.32016,678.13979 c 11.59466,0 20.99383,-9.39916 20.99383,-20.99383 0,-11.59466 -9.39917,-20.99383 -20.99383,-20.99383 -11.59467,0 -20.99384,9.39917 -20.99384,20.99383 0,11.59467 9.39917,20.99383 20.99384,20.99383 z"
       class="shp11"
       id="Auge 1" />
    <path
       style="fill:#ffffff;stroke:#000000;stroke-width:2.78231502"
       inkscape:connector-curvature="0"
       d="m 304.75256,702.92769 c 25.91347,0 46.91995,-21.00648 46.91995,-46.91995 0,-25.91347 -21.00648,-46.91995 -46.91995,-46.91995 -25.91347,0 -46.91995,21.00648 -46.91995,46.91995 0,25.91347 21.00648,46.91995 46.91995,46.91995 z"
       class="shp10"
       id="Oval 6" />
    <path
       style="fill:#000000;stroke-width:0.25293773"
       inkscape:connector-curvature="0"
       d="m 298.20147,591.63509 v 16.94683 h 6.82932 v -16.94683 z"
       class="shp1"
       id="Rectangle 5" />
    <path
       style="fill:#000000;stroke-width:0.25293773"
       inkscape:connector-curvature="0"
       d="m 329.2774,596.58761 -7.95489,14.9638 6.03004,3.20725 7.95489,-14.9638 z"
       class="shp1"
       id="Rectangle 6" />
    <path
       style="fill:#000000;stroke-width:0.25293773"
       inkscape:connector-curvature="0"
       d="m 268.79999,601.68684 8.47342,14.67544 5.91368,-3.41466 -8.47341,-14.67544 z"
       class="shp1"
       id="Rectangle 7" />
    <path
       style="fill:#000000;stroke-width:0.25293773"
       inkscape:connector-curvature="0"
       d="m 222.44662,668.02229 c 6.07557,0 11.0028,-4.92723 11.0028,-11.0028 0,-6.07556 -4.92723,-11.00279 -11.0028,-11.00279 -6.07556,0 -11.00279,4.92723 -11.00279,11.00279 0,6.07557 4.92723,11.0028 11.00279,11.0028 z"
       class="shp1"
       id="Oval 2" />
    <path
       style="fill:#00c7ff;stroke:#000000;stroke-width:2.02350187"
       inkscape:connector-curvature="0"
       d="m 290.36041,677.88686 c 11.59466,0 20.99383,-9.39917 20.99383,-20.99383 0,-11.59467 -9.39917,-20.99384 -20.99383,-20.99384 -11.59467,0 -20.99384,9.39917 -20.99384,20.99384 0,11.59466 9.39917,20.99383 20.99384,20.99383 z"
       class="shp11"
       id="Oval 4" />
    <path
       style="fill:#000000;stroke-width:0.25293773"
       inkscape:connector-curvature="0"
       d="m 290.48687,667.76935 c 6.07557,0 11.0028,-4.92723 11.0028,-11.00279 0,-6.07557 -4.92723,-11.0028 -11.0028,-11.0028 -6.07556,0 -11.00279,4.92723 -11.00279,11.0028 0,6.07556 4.92723,11.00279 11.00279,11.00279 z"
       class="shp1"
       id="Oval 3" />
    <path
       style="fill:#000000;stroke-width:0.25293773"
       inkscape:connector-curvature="0"
       d="m 165.17899,716.9455 0.74111,-0.29847 c 1.27228,-0.91057 2.28909,-2.07914 3.55883,-2.98972 1.17869,-0.84481 2.61538,-1.43163 3.79407,-2.27644 2.75702,-1.35069 5.46851,-1.00669 8.22554,-2.35738 0,0 0.84481,-1.36586 -0.38447,-1.68962 -1.23181,-0.32376 -3.36154,-0.18212 -5.05875,0.25293 -1.89704,0.48565 -4.92976,1.61122 -7.08226,3.54113 -1.29251,1.15846 -2.3852,2.55973 -3.03525,3.79407 -0.54888,1.03957 -0.75882,2.0235 -0.75882,2.0235 z"
       class="shp1"
       id="Rectangle 11" />
    <path
       style="fill:#000000;stroke-width:0.25293773"
       inkscape:connector-curvature="0"
       d="m 351.73827,710.69794 c -0.65005,-1.23434 -1.74274,-2.63561 -3.03525,-3.79407 -2.1525,-1.92991 -5.18522,-3.05548 -7.08225,-3.54113 -1.69722,-0.43505 -3.82695,-0.57669 -5.05876,-0.25293 -1.23181,0.32376 -0.38446,1.68962 -0.38446,1.68962 2.75702,1.35069 5.46851,1.00669 8.22553,2.35738 1.17869,0.84481 2.61538,1.43163 3.79407,2.27644 1.27227,0.91058 2.28908,2.07915 3.55883,2.98972 l 0.74111,0.29847 c 0,0 -0.20994,-0.98393 -0.75882,-2.0235 z"
       class="shp1"
       id="Rectangle 12" />
    <path
       style="fill:#000000;stroke-width:0.25293773"
       inkscape:connector-curvature="0"
       d="m 203.34983,591.88803 v 16.94683 h 6.82931 v -16.94683 z"
       class="shp1"
       id="Rectangle 1" />
    <path
       style="fill:#000000;stroke-width:0.25293773"
       inkscape:connector-curvature="0"
       d="m 234.67869,597.34642 -7.95489,14.9638 6.03004,3.20725 7.95489,-14.96379 z"
       class="shp1"
       id="Rectangle 2" />
    <path
       style="fill:#000000;stroke-width:0.25293773"
       inkscape:connector-curvature="0"
       d="m 173.39188,602.32424 7.95489,14.9638 6.03004,-3.20726 -7.95489,-14.96379 z"
       class="shp1"
       id="Rectangle 3" />
    <path
       style="fill:#6d2c3e;stroke:#000000;stroke-width:2.27643967"
       inkscape:connector-curvature="0"
       d="m 258.36378,736.31547 c -48.69051,0 -55.57042,-26.05258 -86.63117,-26.05258 0,0 5.81757,84.98707 86.63117,84.98707 80.81361,0 86.37824,-89.79289 86.37824,-89.79289 -30.90899,0 -37.68772,30.8584 -86.37824,30.8584 z"
       class="shp12"
       id="Rectangle 8" />
    <path
       style="fill:#ffffff;stroke:#000000;stroke-width:2.27643967"
       inkscape:connector-curvature="0"
       d="m 225.98775,733.40163 c 0,0 -4.80834,22.90098 -3.32866,27.11239 1.47716,4.21142 26.59388,7.44649 28.61991,3.51331 2.02603,-3.93065 3.32866,-27.1124 3.32866,-27.1124 z"
       class="shp13"
       id="Rectangle 9" />
    <path
       style="fill:#ffffff;stroke:#000000;stroke-width:2.27643967"
       inkscape:connector-curvature="0"
       d="m 262.59037,737.50175 c 0,0 2.11203,23.12357 4.27212,26.98087 2.16009,3.85983 27.15034,-0.25041 28.48079,-4.50988 1.33045,-4.25947 -4.27212,-26.98087 -4.27212,-26.98087 z"
       class="shp13"
       id="Rectangle 10" />
    <path
       style="fill:#ffa9a9;stroke:#000000;stroke-width:2.02350187"
       inkscape:connector-curvature="0"
       d="m 220.04372,785.89127 c 1.97797,0.97887 3.97871,1.7655 7.33519,2.78231 7.92707,2.40291 18.76039,5.56463 30.98487,5.56463 10.08716,0 19.62544,-2.72667 27.19081,-4.29994 0.20741,-0.043 6.42462,-2.16768 10.62338,-4.047 2.65079,-1.18628 4.04701,-1.65422 4.04701,-3.40202 0,-4.29235 -16.65089,-15.32043 -25.62512,-13.18311 -9.43458,2.24609 -14.19993,8.89076 -17.12389,8.89076 -2.8582,0 -9.81904,-7.0089 -17.88523,-7.97007 -8.06618,-0.96116 -23.08815,7.8689 -23.08815,12.26242 0,1.72757 1.91727,2.6002 3.54113,3.40202 z"
       class="shp14"
       id="Oval 7" />
    <path
       style="fill:#a5c32b;stroke-width:0.25293773"
       inkscape:connector-curvature="0"
       d="m 135.61563,624.87617 c 8.66059,2.48385 18.57069,-5.57222 22.13205,-17.99399 3.56137,-12.42177 -0.57164,-24.50461 -9.23222,-26.98846 -8.66059,-2.48385 -18.57069,5.57222 -22.13206,17.99399 -3.56136,12.42177 0.57164,24.50461 9.23223,26.98846 z"
       class="shp15"
       id="Oval 8" />
    <path
       style="fill:#feff00;stroke:#000000;stroke-width:2.78231502"
       inkscape:connector-curvature="0"
       d="m 251.91387,711.23923 c 9.8494,0 24.28202,-18.94251 24.28202,-28.58197 0,-9.63945 -7.98271,-17.4527 -17.83211,-17.4527 -9.84939,0 -17.83211,7.81325 -17.83211,17.4527 0,9.63946 1.53281,28.58197 11.3822,28.58197 z"
       class="shp16"
       id="Oval 20" />
    <path
       style="fill:#a5c32b;stroke-width:0.25293773"
       inkscape:connector-curvature="0"
       d="m 135.61563,624.87617 c 8.66059,2.48385 18.57069,-5.57222 22.13205,-17.99399 3.56137,-12.42177 -0.57164,-24.50461 -9.23222,-26.98846 -8.66059,-2.48385 -18.57069,5.57222 -22.13206,17.99399 -3.56136,12.42177 0.57164,24.50461 9.23223,26.98846 z"
       class="shp15"
       id="Oval 9" />
    <path
       style="fill:#a5c32b;stroke-width:0.25293773"
       inkscape:connector-curvature="0"
       d="m 137.84148,671.80876 c 5.21052,-0.54634 8.72383,-7.75001 7.84613,-16.08431 -0.87516,-8.33682 -5.80998,-14.65015 -11.0205,-14.10128 -5.21051,0.54635 -8.72382,7.75002 -7.84612,16.08431 0.87516,8.33683 5.80998,14.65016 11.02049,14.10128 z"
       class="shp15"
       id="Oval 13" />
    <path
       style="fill:#a5c32b;stroke-width:0.25293773"
       inkscape:connector-curvature="0"
       d="m 143.9044,765.9623 c 5.84033,1.67445 12.13848,-2.41049 14.06334,-9.12346 1.92485,-6.71297 -1.24951,-13.51446 -7.08985,-15.18891 -5.84033,-1.67445 -12.13848,2.4105 -14.06333,9.12346 -1.92486,6.71297 1.24951,13.51447 7.08984,15.18891 z"
       class="shp15"
       id="Oval 14" />
    <path
       style="fill:#a5c32b;stroke-width:0.25293773"
       inkscape:connector-curvature="0"
       d="m 166.23374,812.78361 c 7.63872,2.19044 16.23355,-4.41377 19.19798,-14.75133 2.96443,-10.33757 -0.82458,-20.49302 -8.4633,-22.68346 -7.63872,-2.19044 -16.23354,4.41377 -19.19797,14.75133 -2.96443,10.33757 0.82457,20.49302 8.46329,22.68346 z"
       class="shp15"
       id="Oval 15" />
    <path
       style="fill:#a5c32b;stroke-width:0.25293773"
       inkscape:connector-curvature="0"
       d="m 371.15125,610.77236 c 5.4078,-1.24951 8.47594,-7.95489 6.85461,-14.9815 -1.62133,-7.02661 -7.32002,-11.70849 -12.72783,-10.46151 -5.40781,1.24952 -8.47594,7.95489 -6.85461,14.9815 1.62133,7.02661 7.32002,11.70849 12.72783,10.46151 z"
       class="shp15"
       id="Oval 10" />
    <path
       style="fill:#a5c32b;stroke-width:0.25293773"
       inkscape:connector-curvature="0"
       d="m 362.49066,778.55607 c 7.31496,-0.51093 12.77082,-7.70448 12.18654,-16.0666 -0.58429,-8.36212 -6.98867,-14.72351 -14.30363,-14.21257 -7.31496,0.51093 -12.77083,7.70448 -12.18654,16.0666 0.58429,8.36212 6.98867,14.72351 14.30363,14.21257 z"
       class="shp15"
       id="Oval 11" />
    <path
       style="fill:#a5c32b;stroke-width:0.25293773"
       inkscape:connector-curvature="0"
       d="m 333.38511,812.22714 c 3.31602,1.54545 7.95237,-1.37851 10.35274,-6.53085 2.40291,-5.15234 1.66181,-10.58291 -1.65168,-12.12836 -3.31601,-1.54545 -7.95236,1.37851 -10.35274,6.53085 -2.40291,5.15234 -1.6618,10.58291 1.65168,12.12836 z"
       class="shp15"
       id="Oval 12" />
    <path
       style="fill:#e66232;stroke-width:0.25293773"
       inkscape:connector-curvature="0"
       d="m 327.38037,707.49322 c -0.008,-0.008 -0.0127,-0.0127 -0.0127,-0.0127 -0.57416,-0.215 -0.94345,1.22675 -1.51762,1.01175 -0.73352,-0.2757 -1.37345,-1.46957 -2.09686,-1.84138 -1.56062,-3.70301 -1.93497,-7.75255 -0.81193,-11.67561 2.96443,-10.34009 15.21927,-15.89714 27.37293,-12.41165 12.15365,3.48548 19.60014,14.69062 16.63571,25.03071 -1.60363,5.58993 -5.91874,9.78111 -11.4682,11.90072 h -0.23523 c 0.0531,-0.43252 -0.36423,-0.70569 -0.31111,-1.13822 0.0303,-0.24029 0.72846,-0.77146 0.75881,-1.01175 0,0 -0.10623,-0.0253 -0.30605,-0.0632 3.69795,-1.69721 6.63455,-4.57312 8.094,-8.37477 3.32866,-8.67323 -2.27138,-18.88939 -12.50777,-22.81751 -10.23639,-3.93066 -21.23665,-0.086 -24.56531,8.58723 -1.61627,4.20889 -1.1281,8.77947 0.97128,12.81889 z m -3.74854,-0.89793 c 0.0405,0.0152 0.0809,0.0329 0.12394,0.0557 0.11636,0.2757 0.23777,0.54887 0.36676,0.81951 -0.0531,-0.0354 -0.10623,-0.0708 -0.15429,-0.0936 -0.2327,-0.49323 -0.33641,-0.78158 -0.33641,-0.78158 z"
       class="shp18"
       id="Oval 17" />
    <path
       style="fill:#e66232;stroke-width:0.25293773"
       inkscape:connector-curvature="0"
       d="m 342.98916,692.93665 c 1.2571,0 2.27644,-0.73605 2.27644,-1.64409 0,-0.90805 -1.01934,-1.6441 -2.27644,-1.6441 -1.2571,0 -2.27644,0.73605 -2.27644,1.6441 0,0.90804 1.01934,1.64409 2.27644,1.64409 z m 12.89982,8.09401 c 1.2571,0 2.27644,-1.07499 2.27644,-2.40291 0,-1.32792 -1.01934,-2.40291 -2.27644,-2.40291 -1.2571,0 -2.27644,0.36929 -2.27644,1.69721 0,1.32793 1.01934,3.10861 2.27644,3.10861 z m -8.59988,0.50587 c 1.39622,0 2.52938,-0.96369 2.52938,-2.14997 0,-1.18627 -1.13316,-2.14997 -2.52938,-2.14997 -1.39622,0 -2.52938,0.9637 -2.52938,2.14997 0,1.18628 1.13316,2.14997 2.52938,2.14997 z"
       class="shp18"
       id="Oval 21" />
    <path
       style="fill:#e66232;stroke-width:0.25293773"
       inkscape:connector-curvature="0"
       d="m 176.03255,692.55724 c 0,-0.90804 -1.01934,-1.64409 -2.27644,-1.64409 -1.2571,0 -2.27644,0.73605 -2.27644,1.64409 0,0.90805 1.01934,1.6441 2.27644,1.6441 1.2571,0 2.27644,-0.73605 2.27644,-1.6441 z m -12.89982,6.6295 c 0,-1.32792 -1.01934,-1.69721 -2.27644,-1.69721 -1.2571,0 -2.27644,1.07499 -2.27644,2.40291 0,1.32792 1.01934,2.40291 2.27644,2.40291 1.2571,0 2.27644,-1.78321 2.27644,-3.10861 z m 8.85282,1.46451 c 0,-1.18628 -1.13316,-2.14997 -2.52938,-2.14997 -1.39622,0 -2.52938,0.96369 -2.52938,2.14997 0,1.18628 1.13316,2.14997 2.52938,2.14997 1.39622,0 2.52938,-0.96369 2.52938,-2.14997 z"
       class="shp18"
       id="Oval 24" />
    <path
       style="fill:#e66232;stroke-width:0.25293773"
       inkscape:connector-curvature="0"
       d="m 159.06549,718.79953 c -0.19982,0.0405 -0.30606,0.0632 -0.30606,0.0632 0.0304,0.24029 0.72846,0.77146 0.75882,1.01175 0.0531,0.43252 -0.36423,0.7057 -0.31112,1.13822 h -0.23523 c -5.54692,-2.12215 -9.86457,-6.31333 -11.4682,-11.90072 -2.96443,-10.34009 4.48206,-21.54777 16.63572,-25.03072 12.15366,-3.48548 24.40849,2.07156 27.37292,12.41166 1.12557,3.92306 0.75123,7.97259 -0.81193,11.6756 -0.7234,0.37182 -1.36333,1.56822 -2.09685,1.84139 -0.57417,0.215 -0.94346,-1.22675 -1.51763,-1.01175 0,0 -0.005,0.005 -0.0126,0.0126 2.09939,-4.03941 2.58503,-8.61253 0.97128,-12.81888 -3.32866,-8.67323 -14.32639,-12.51789 -24.56531,-8.58724 -10.23639,3.93066 -15.83896,14.14681 -12.50777,22.81752 1.45945,3.80418 4.39606,6.67755 8.09401,8.37477 z m 31.75886,-10.68661 c 0,0 -0.1037,0.28834 -0.33641,0.78157 -0.0481,0.0228 -0.10117,0.0582 -0.15429,0.0936 0.129,-0.27064 0.25294,-0.54382 0.36676,-0.81952 0.0405,-0.0202 0.0809,-0.0405 0.12394,-0.0556 z"
       class="shp18"
       id="Oval 18" />
    <path
       style="fill:#ffa9a9;stroke-width:0.25293773"
       inkscape:connector-curvature="0"
       d="m 289.60159,803.84985 c -3.94583,1.97291 -7.17078,4.07229 -10.11751,5.05875 -3.85224,1.28998 -7.03925,1.12051 -8.85282,0.75881 -6.32344,-1.26468 -6.60926,-3.80671 -13.65864,-3.54112 -7.04937,0.26558 -10.1175,3.54112 -13.15276,4.55287 -1.88691,0.62982 -4.31511,-0.091 -6.57638,-0.75881 -1.37851,-0.40723 -2.68873,-0.60958 -3.79406,-1.01175 -5.40528,-1.96533 -11.82484,-6.39427 -15.93508,-9.10576 -2.23597,-1.47462 -4.047,-2.27644 -4.047,-2.27644 1.23433,1.40381 1.0421,2.13733 2.27643,3.54113 1.37852,1.56822 4.18612,3.80418 5.56463,5.3724 0,0 8.53918,6.23744 12.64689,7.27449 6.40186,1.61374 8.02824,0.75881 9.10576,0.75881 1.27986,0 2.83543,-2.48385 7.33519,-2.78231 1.72757,-0.11383 3.76878,-0.1543 6.57638,0.75881 10.11751,3.28819 16.54466,3.5133 19.98209,2.0235 7.58813,-3.28819 6.0705,-2.27644 10.87632,-4.80582 4.80581,-2.52937 5.90104,-4.80581 8.09401,-4.80581 1.84897,-1.58339 3.97112,-2.96949 5.81756,-4.55288 0.0228,-0.0177 1.26469,-1.51763 1.26469,-1.51763 0,0 -4.29994,0.50588 -13.4057,5.05876 z"
       class="shp19"
       id="Rectangle 28" />
    <path
       style="fill:#000000;stroke-width:0.25293773"
       inkscape:connector-curvature="0"
       d="m 321.61592,869.59848 v 11.12926 h 36.67597 v -11.12926 z"
       class="shp1"
       id="Rectangle 32" />
    <path
       style="fill:#000000;stroke-width:0.25293773"
       inkscape:connector-curvature="0"
       d="m 152.11223,869.86659 v 11.12926 h 36.67597 v -11.12926 z"
       class="shp1"
       id="Rectangle 33" />
    <path
       style="fill:#8b572a;stroke:#000000;stroke-width:2.78231502"
       inkscape:connector-curvature="0"
       d="m 310.69913,902.28815 c -8.26854,0 -18.1407,0 -26.40923,0 0,0 -3.54113,12.89983 2.52938,16.94683 2.83037,1.88692 14.1291,3.74348 24.78789,3.24266 12.19666,-0.57164 23.80903,-3.30337 25.29378,-5.05875 2.78231,-3.28819 0,-15.13074 0,-15.13074 -9.26764,0 -16.93165,0 -26.20182,0 z"
       class="shp20"
       id="Rectangle 34" />
    <path
       style="fill:#8b572a;stroke:#000000;stroke-width:2.78231502"
       inkscape:connector-curvature="0"
       d="m 200.41828,901.98969 c -8.26854,0 -18.1407,0 -26.40923,0 0,0 -4.29994,13.65863 1.77056,17.70564 2.83038,1.88691 13.9824,3.789 24.63867,3.28819 5.79227,-0.27318 12.62665,-0.56152 17.349,-1.77057 5.2181,-1.33804 8.07377,-3.63218 8.85282,-4.55288 2.78231,-3.28819 0,-14.67038 0,-14.67038 -9.26764,0 -16.93165,0 -26.20182,0 z"
       class="shp20"
       id="Rectangle 35" />
    <path
       style="fill:#000000;stroke-width:0.25293773"
       inkscape:connector-curvature="0"
       d="m 301.48967,921.46589 c 0,13.00353 1.77056,25.44301 1.77056,38.44654 0,13.30199 -1.77056,27.16804 -1.77056,40.47007 h 18.46445 c 0,-13.83067 -0.75881,-27.65119 -0.75881,-41.48183 0,-12.47488 0.75881,-24.95989 0.75881,-37.43478 z"
       class="shp1"
       id="Rectangle 38" />
    <path
       style="fill:#feff00;stroke-width:0.25293773"
       inkscape:connector-curvature="0"
       d="m 305.28373,922.73058 0.75881,25.04083 c 1.86921,0 2.93661,1.01176 4.80582,1.01176 1.83886,0 2.96696,-0.75882 4.80582,-0.75882 l 0.75881,-25.29377 z"
       class="shp17"
       id="Rectangle 39" />
    <path
       style="fill:#ffffff;stroke-width:0.25293773"
       inkscape:connector-curvature="0"
       d="m 310.84836,951.56548 c -1.47463,0 -3.07825,-0.75881 -4.55288,-0.75881 -0.29341,10.39827 0.29341,19.70132 0,30.09959 -0.129,4.52505 -1.77056,13.15276 -1.26469,14.67039 0.50588,1.51762 4.31512,2.78231 6.32345,2.78231 2.03867,0 3.52595,-2.78231 5.56463,-2.78231 l -1.01175,-44.76998 c -1.7301,0 -3.32866,0.75881 -5.05876,0.75881 z"
       class="shp21"
       id="Rectangle 40" />
    <path
       style="fill:#2e65ff;stroke-width:0.25293773"
       inkscape:connector-curvature="0"
       d="m 310.84836,957.88892 c -1.52015,0 -3.03272,-0.75881 -4.55288,-0.75881 v 3.79407 c 1.67698,0 3.25531,0.50587 4.93229,0.50587 1.61121,0 3.32107,-0.50587 4.93228,-0.50587 v -3.79407 c -1.76803,0 -3.54365,0.75881 -5.31169,0.75881 z"
       class="shp22"
       id="Rectangle 41" />
    <path
       style="fill:#ff0000;stroke-width:0.25293773"
       inkscape:connector-curvature="0"
       d="m 310.96471,965.47706 c -1.56062,0 -3.1086,-0.75882 -4.66923,-0.75882 v 3.79407 c 1.71998,0 3.33878,0.50587 5.05876,0.50587 1.65168,0 3.40707,-0.50587 5.05875,-0.50587 v -3.79407 c -1.81356,0 -3.63471,0.75882 -5.44828,0.75882 z"
       class="shp23"
       id="Rectangle 42" />
    <path
       style="fill:#000000;stroke-width:0.25293773"
       inkscape:connector-curvature="0"
       d="m 190.45,921.46589 c 0,13.00353 1.77057,25.44301 1.77057,38.44654 0,13.30199 -1.77057,27.16804 -1.77057,40.47007 h 18.46446 c 0,-13.83067 -0.75882,-27.65119 -0.75882,-41.48183 0,-12.47488 0.75882,-24.95989 0.75882,-37.43478 z"
       class="shp1"
       id="Rectangle 47" />
    <path
       style="fill:#feff00;stroke-width:0.25293773"
       inkscape:connector-curvature="0"
       d="m 194.24407,922.73058 0.75881,25.04083 c 1.86921,0 2.93661,1.01176 4.80582,1.01176 1.83886,0 2.96696,-0.75882 4.80581,-0.75882 l 0.75882,-25.29377 z"
       class="shp17"
       id="Rectangle 43" />
    <path
       style="fill:#ffffff;stroke-width:0.25293773"
       inkscape:connector-curvature="0"
       d="m 199.8087,951.56548 c -1.47463,0 -3.07825,-0.75881 -4.55288,-0.75881 -0.29341,10.39827 -0.21247,19.44838 -0.50588,29.84665 -0.12899,4.52506 -1.26469,13.91157 -0.75881,14.92333 0.50588,1.01175 4.31512,2.78231 6.32344,2.78231 2.03868,0 4.29994,0.25294 5.56463,-2.78231 0.44264,-1.06234 0.17706,-6.80909 0,-13.91158 -0.32629,-13.17553 -1.01175,-30.8584 -1.01175,-30.8584 -1.73009,0 -3.32866,0.75881 -5.05875,0.75881 z"
       class="shp21"
       id="Rectangle 44" />
    <path
       style="fill:#2e65ff;stroke-width:0.25293773"
       inkscape:connector-curvature="0"
       d="m 199.78846,957.88892 c -1.59856,0 -3.18701,-0.75881 -4.78558,-0.75881 v 3.79407 c 1.76298,0 3.42225,0.50587 5.18522,0.50587 1.69469,0 3.49055,-0.50587 5.18523,-0.50587 v -3.79407 c -1.85909,0 -3.72577,0.75881 -5.58487,0.75881 z"
       class="shp22"
       id="Rectangle 45" />
    <path
       style="fill:#ff0000;stroke-width:0.25293773"
       inkscape:connector-curvature="0"
       d="m 199.90481,965.47706 c -1.63903,0 -3.26542,-0.75882 -4.90193,-0.75882 v 3.79407 c 1.80598,0 3.50572,0.50587 5.31169,0.50587 1.73516,0 3.57654,-0.50587 5.3117,-0.50587 v -3.79407 c -1.9021,0 -3.81683,0.75882 -5.72146,0.75882 z"
       class="shp23"
       id="Rectangle 46" />
    <path
       style="fill:#ffffff;stroke-width:0.25293773"
       inkscape:connector-curvature="0"
       d="m 176.19443,1012.6044 c 1.1534,-2.1677 -1.04716,-5.2232 -3.79912,-6.6877 -2.7545,-1.4645 -5.91875,-0.8928 -7.07214,1.2748 -1.1534,2.1677 0.14417,5.1119 2.89866,6.5764 2.7545,1.4645 6.82173,1.0067 7.9726,-1.161 z"
       class="shp21"
       id="Oval 30" />
    <path
       style="fill:#ffffff;stroke-width:0.25293773"
       inkscape:connector-curvature="0"
       d="m 340.68743,1015.1211 c 2.75449,-1.4645 4.05206,-4.4087 2.89866,-6.5763 -1.15339,-2.1677 -4.31765,-2.7368 -7.07214,-1.2748 -2.75449,1.4645 -4.95252,4.52 -3.79912,6.6876 1.15339,2.1677 5.22063,2.6255 7.9726,1.161 z"
       class="shp21"
       id="Oval 31" />
    <path
       style="fill:#2c2f34;stroke-width:0.25293773"
       inkscape:connector-curvature="0"
       d="m 195.00288,1022.641 6.23239,0.1037 -0.33135,-6.3159 z"
       class="shp2"
       id="path81" />
    <path
       style="fill:#000000;stroke-width:0.25293773"
       inkscape:connector-curvature="0"
       d="m 180.96484,1001.3942 c 1.84138,0 2.0665,-3.30335 2.14997,-4.04699 0.003,-0.0177 0.75881,2.27644 -2.27644,2.78229 -3.03525,0.5059 -2.52938,-1.96277 -2.52938,-1.26466 0,0.6981 0.76893,2.52936 2.65585,2.52936 z"
       class="shp1"
       id="Oval 34" />
    <path
       style="fill:#000000;stroke-width:0.25293773"
       inkscape:connector-curvature="0"
       d="m 386.72968,825.85543 c 0.62982,11.7186 1.89956,22.17505 2.52938,33.89365 0.64499,12.00696 2.46614,38.01655 0.72846,41.60067 -8.58977,9.48264 -1.74021,4.18106 -1.74021,4.18106 l 19.98208,-0.25293 c 0,0 -2.51926,-3.65495 -2.52938,-4.04701 -0.1037,-4.40111 -0.77146,-30.10212 -1.26469,-42.74647 -0.47299,-12.11066 -1.55051,-23.55357 -2.0235,-35.66422 z"
       class="shp1"
       id="Arm right" />
    <path
       style="fill:#feff00;stroke-width:0.25293773"
       inkscape:connector-curvature="0"
       d="m 391.78843,825.09662 1.77057,41.22885 0.75881,36.17009 h 8.34695 l -4.55288,-78.4107 z"
       class="shp17"
       id="Rectangle 51" />
    <path
       style="fill:#000000;stroke-width:0.25293773"
       inkscape:connector-curvature="0"
       d="m 109.00405,828.38481 c -0.47299,12.11065 -1.55051,24.31237 -2.0235,36.42303 -0.44011,11.28102 -1.1281,34.92058 -1.26469,40.2171 -0.0177,0.63993 -0.34652,2.33208 -0.75881,3.54113 -0.41229,1.20904 -0.15682,1.00163 -0.50588,1.77056 l 18.21152,0.50588 c 0,0 7.44902,6.15397 -1.16857,-3.36155 -0.96622,-3.95847 0.0177,-29.40148 0.66269,-41.40843 0.62982,-11.71861 1.89957,-22.17505 2.52938,-33.89366 z"
       class="shp1"
       id="Rectangle 55" />
    <path
       style="fill:#feff00;stroke-width:0.25293773"
       inkscape:connector-curvature="0"
       d="m 113.80987,829.64949 -4.55288,77.90483 h 8.34695 l 0.75881,-36.1701 1.77056,-40.47004 z"
       class="shp17"
       id="Rectangle 54" />
    <path
       inkscape:connector-curvature="0"
       id="Oval 37"
       d="m 109.50977,905.53017 c 0,0.83514 0.0371,1.08079 -0.10743,1.55664 -0.19141,0.0335 -0.38893,0.0503 -0.57812,0.0898 -2.07409,0.43 -2.36472,-2.33963 -4.37305,1.38867 -1.77056,3.2882 -0.95443,1.51742 -3.79492,6.57618 -3.199663,5.69868 -3.540936,5.56531 -6.070313,9.35937 -0.703167,1.05475 -8.182134,3.27028 -12.646485,6.57617 -4.79317,3.54872 -5.872069,8.43011 -5.310547,9.61133 0.85493,1.79586 2.148777,5.87498 6.828125,6.07227 1.059809,0.0455 2.966799,-0.25894 5.058594,-1.26563 1.527607,-0.73517 4.719707,-2.90284 6.703125,-4.26758 -2.133821,1.58016 -5.57669,4.54273 -7.714844,8.56836 0,0 -3.224827,3.65727 -4.046875,6.57618 -0.12141,0.43505 -0.455288,4.03166 0,5.05859 0.751225,1.69215 1.292399,3.04777 3.541016,4.04687 0.862518,0.38194 3.235913,0.79323 4.300781,0.75782 1.714918,-0.0556 2.022421,-0.75778 3.28711,-1.76953 0.784106,-0.62729 2.025918,-1.96364 3.541015,-4.30079 0.93334,-1.43921 2.023388,-3.28801 3.541018,-5.56445 2.51816,-2.88347 3.24008,-3.96663 3.41211,-4.33594 0.025,0.0203 0.0622,0.0371 0.13086,0.0371 0.29341,0 -0.51397,2.89841 -1.71289,8.09375 -0.38447,1.6618 -0.88567,2.64209 -1.07032,4.29883 -0.18211,1.62133 -0.0506,3.93305 0,4.04688 0.70064,1.62639 1.96216,2.92228 4.11719,3.79492 2.15503,0.87263 5.1056,0.0152 5.24219,0 1.19134,-0.129 3.70138,-1.607 5.33789,-4.30078 1.70227,-2.80508 2.50195,-6.82813 2.50195,-6.82813 1.15593,-5.8808 -0.49735,-13.82946 1.26563,-18.71875 0.42746,-1.18375 0.27812,6.92201 3.54101,10.11914 1.53028,1.49739 2.86972,2.82677 4.80469,3.28711 2.54708,0.60705 5.60588,-0.12036 6.32422,-2.27539 0.19223,-0.57417 0.87513,-1.38094 1.01172,-3.03515 0.15429,-1.86163 -0.50586,-4.80665 -0.50586,-4.80665 -1.40128,-7.32254 -5.56445,-17.21782 -5.56445,-19.47656 0,-8.06671 -5.47744,-14.86078 -12.96094,-16.99609 -0.088,-0.68633 0.0606,-0.89123 0.0606,-1.7207 z"
       style="fill:#feff00;stroke:#000000;stroke-width:4.04700375" />
    <path
       style="fill:#000000;stroke-width:0.25293773"
       inkscape:connector-curvature="0"
       d="m 100.22964,942.6646 c 1.23434,-1.23433 0.95358,-3.51583 -0.624753,-5.09669 -1.580861,-1.58086 -3.862359,-1.86163 -5.096695,-0.62476 -1.234337,1.23434 -0.953576,3.51583 0.624756,5.0967 1.580861,1.58086 3.862359,1.86162 5.096692,0.62475 z"
       class="shp1"
       id="Oval 38" />
    <path
       inkscape:connector-curvature="0"
       id="Oval 40"
       d="m 404.07422,898.53017 c -0.49422,0.0673 -0.97417,0.82035 -1.55274,2.44726 h -8.20312 v 1.10352 c -7.41891,1.95025 -10.64812,3.68245 -13.00977,17.01953 -0.39205,2.21574 -4.16317,12.15402 -5.56445,19.47656 0,0 -0.66015,2.94502 -0.50586,4.80664 0.13659,1.65422 0.81949,2.46099 1.01172,3.03516 0.71834,2.15503 3.77714,2.88244 6.32422,2.27539 1.93497,-0.46035 3.27441,-1.78972 4.80469,-3.28711 3.26289,-3.19713 3.11355,-11.30289 3.54101,-10.11914 1.76298,4.88929 0.1097,12.83795 1.26563,18.71875 0,0 0.80221,4.02305 2.50195,6.82813 1.63398,2.69378 4.14851,4.17178 5.33984,4.30078 0.13912,0.0152 3.08521,0.87263 5.24024,0 2.15503,-0.87264 3.41655,-2.16853 4.11719,-3.79492 0.0506,-0.11383 0.18211,-2.42555 0,-4.04688 -0.18465,-1.65674 -0.68838,-2.63703 -1.07032,-4.29883 -1.19892,-5.19534 -2.00181,-8.09375 -1.71093,-8.09375 0.76893,0 -0.34292,-2.34551 3.64843,4.64063 1.01175,1.77056 1.26561,2.39837 1.77149,3.45312 0.59187,1.23181 1.52009,2.18782 2.02344,3.03516 0.87769,1.47716 2.56757,2.54446 3.17968,3.03515 1.26469,1.01176 1.57219,1.71389 3.28711,1.76954 1.06487,0.0354 1.97984,0.22762 4.31445,-0.77149 2.33462,-0.9991 2.93512,-2.44032 3.38282,-4.45117 0.4477,-2.01085 -0.64905,-4.42275 -0.75782,-4.80469 -0.82204,-2.9189 -3.54101,-5.90625 -3.54101,-5.90625 -2.42492,-4.56555 -6.33955,-8.0736 -8.18555,-9.57226 1.39617,1.10521 5.40663,4.2548 7.17383,5.10742 2.0918,1.00669 3.54098,2.5293 4.55273,2.5293 0.70823,0 1.8489,0.0531 2.5293,0 0.51852,-0.0405 1.35724,-0.17044 1.76953,-0.25391 0.95105,-0.1897 1.26563,-0.75781 1.26563,-0.75781 0.63234,-0.26812 0.84222,-0.57759 2.02344,-2.78321 0.88022,-1.64156 0.36071,-2.94659 0.25195,-4.04687 -0.003,-0.0303 -1.47195,-3.53744 -4.55274,-5.81641 -4.46435,-3.30589 -12.8105,-9.15228 -13.51367,-10.20703 -2.52937,-3.79406 -3.45838,-5.25973 -7.84179,-12.39258 -2.87662,-4.67927 -4.13582,-8.33783 -5.31055,-8.17773 z"
       style="fill:#feff00;stroke:#000000;stroke-width:4.04700375" />
    <path
       style="fill:#feff00;stroke-width:0.25293773"
       inkscape:connector-curvature="0"
       d="m 394.31781,900.97793 c 0,1.59857 -0.4907,1.37093 -2.1525,3.94077 -1.65421,2.32956 -3.32613,3.81178 -3.32613,4.15324 l 16.48648,-1.26469 c 0,0 -0.34905,-0.64752 -0.8524,-1.41898 -0.23523,-0.35917 -0.55393,-0.78916 -0.79675,-1.11039 -0.75881,-1.01176 -1.12557,-3.08584 -1.12557,-4.51241 z"
       class="shp17"
       id="Rectangle 56" />
    <path
       style="fill:#000000;stroke-width:0.25293773"
       inkscape:connector-curvature="0"
       d="m 416.7888,936.47522 c 1.58086,-1.58087 1.86162,-3.86236 0.62476,-5.0967 -1.23434,-1.23434 -3.51584,-0.95357 -5.0967,0.62476 -1.58086,1.58086 -1.86162,3.86236 -0.62476,5.09669 1.23434,1.23434 3.51584,0.95358 5.0967,-0.62475 z"
       class="shp1"
       id="Oval 36" />
  </g>
</svg>
