<?xml version="1.0" encoding="UTF-8" standalone="no"?>
<!-- Created with Inkscape (http://www.inkscape.org/) -->

<svg
   xmlns:dc="http://purl.org/dc/elements/1.1/"
   xmlns:cc="http://creativecommons.org/ns#"
   xmlns:rdf="http://www.w3.org/1999/02/22-rdf-syntax-ns#"
   xmlns:svg="http://www.w3.org/2000/svg"
   xmlns="http://www.w3.org/2000/svg"
   xmlns:sodipodi="http://sodipodi.sourceforge.net/DTD/sodipodi-0.dtd"
   xmlns:inkscape="http://www.inkscape.org/namespaces/inkscape"
   width="512"
   height="512"
   viewBox="0 0 512.00002 512.00002"
   id="svg2"
   version="1.1"
   inkscape:version="0.92.4 5da689c313, 2019-01-14"
   sodipodi:docname="spongebob.svg">
  <title
     id="title6011">SpongeBob</title>
  <defs
     id="defs4">
    <filter
       inkscape:collect="always"
       style="color-interpolation-filters:sRGB"
       id="filter958"
       x="-0.12916504"
       width="1.2583301"
       y="-0.37388302"
       height="1.747766">
      <feGaussianBlur
         inkscape:collect="always"
         stdDeviation="12.011874"
         id="feGaussianBlur960" />
    </filter>
    <filter
       inkscape:collect="always"
       style="color-interpolation-filters:sRGB"
       id="filter1175"
       x="-0.041075995"
       width="1.082152"
       y="-0.29131939"
       height="1.5826388">
      <feGaussianBlur
         inkscape:collect="always"
         stdDeviation="4.5257802"
         id="feGaussianBlur1177" />
    </filter>
  </defs>
  <sodipodi:namedview
     id="base"
     pagecolor="#ffffff"
     bordercolor="#666666"
     borderopacity="1.0"
     inkscape:pageopacity="0.0"
     inkscape:pageshadow="2"
     inkscape:zoom="1.5527344"
     inkscape:cx="256"
     inkscape:cy="127.19497"
     inkscape:document-units="px"
     inkscape:current-layer="layer1"
     showgrid="false"
     units="px"
     inkscape:showpageshadow="false"
     inkscape:window-width="1919"
     inkscape:window-height="1026"
     inkscape:window-x="1"
     inkscape:window-y="28"
     inkscape:window-maximized="1"
     inkscape:snap-global="false" />
  <metadata
     id="metadata7">
    <rdf:RDF>
      <cc:Work
         rdf:about="">
        <dc:format>image/svg+xml</dc:format>
        <dc:type
           rdf:resource="http://purl.org/dc/dcmitype/StillImage" />
        <dc:title>SpongeBob</dc:title>
        <cc:license
           rdf:resource="http://creativecommons.org/licenses/by-nc-sa/4.0/" />
        <dc:date>2017</dc:date>
        <dc:creator>
          <cc:Agent>
            <dc:title>Cristian Pozzessere  &lt; ilnanny &gt;</dc:title>
          </cc:Agent>
        </dc:creator>
        <dc:subject>
          <rdf:Bag>
            <rdf:li>ilnanny</rdf:li>
          </rdf:Bag>
        </dc:subject>
      </cc:Work>
      <cc:License
         rdf:about="http://creativecommons.org/licenses/by-nc-sa/4.0/">
        <cc:permits
           rdf:resource="http://creativecommons.org/ns#Reproduction" />
        <cc:permits
           rdf:resource="http://creativecommons.org/ns#Distribution" />
        <cc:requires
           rdf:resource="http://creativecommons.org/ns#Notice" />
        <cc:requires
           rdf:resource="http://creativecommons.org/ns#Attribution" />
        <cc:prohibits
           rdf:resource="http://creativecommons.org/ns#CommercialUse" />
        <cc:permits
           rdf:resource="http://creativecommons.org/ns#DerivativeWorks" />
        <cc:requires
           rdf:resource="http://creativecommons.org/ns#ShareAlike" />
      </cc:License>
    </rdf:RDF>
  </metadata>
  <g
     inkscape:label="Livello 1"
     inkscape:groupmode="layer"
     id="layer1"
     transform="translate(0,-540.3622)">
    <rect
       style="opacity:1;fill:#eff4f6;fill-opacity:1;stroke:none;stroke-width:7.30000019;stroke-miterlimit:9;stroke-dasharray:none;stroke-opacity:0.13656389"
       id="rect885"
       width="510.10809"
       height="511.87317"
       x="0.94595337"
       y="540.4256" />
    <path
       style="opacity:1;fill:#033a5f;fill-opacity:0.18942733;stroke:none;stroke-width:7.30000019;stroke-miterlimit:9;stroke-dasharray:none;stroke-opacity:0.13656389;filter:url(#filter958)"
       d="m 326.93758,979.43353 c -2e-5,22.24527 -75.85261,0.38601 -132.92023,0.38601 -57.06762,0 -89.54647,-18.84093 -89.54649,-41.08617 1e-5,-22.24525 -10.299291,-1.3435 46.76834,-1.3435 57.06764,0 175.69837,19.79841 175.69838,42.04366 z"
       id="path887"
       inkscape:connector-curvature="0"
       sodipodi:nodetypes="cscsc"
       transform="matrix(0.95441555,0,0,0.8903489,9.8162461,121.98544)" />
    <path
       style="fill:#000000;stroke-width:0.22747068"
       inkscape:connector-curvature="0"
       d="m 293.04444,994.69038 c 0,0 -2.72964,5.00434 -2.04723,7.27902 0.68241,2.2748 8.87136,6.8241 8.87136,6.8241 2.22921,-1.3898 8.00696,0.935 10.23617,-0.4548 3.00261,-1.8722 2.45669,-7.4543 5.45931,-9.32639 z m -0.22746,0.22741 c 2.78196,3.73968 8.02971,5.91431 13.51631,5.91431 8.35499,0 14.46258,-3.30517 14.46258,-11.03241 0,-1.23512 1.36482,-3.72372 1.36482,-5.3455 0,-1.00313 -0.90988,-2.27467 -0.90988,-2.27467 -0.29572,-1.35122 -1.18057,-1.84482 -2.27471,-2.95716 -2.76605,-2.81609 -8.86909,-3.41205 -13.30703,-3.41205 -3.94889,0 -7.66349,-1.01681 -11.71475,2.72965 -3.89884,3.60543 -3.18458,9.17386 -3.18458,9.32632 0,2.65225 0.59369,5.09755 2.04724,7.05151 z m 34.1206,24.79431 c 10.42725,0 18.88007,-8.3504 18.88007,-18.6525 0,-3.41892 0,-6.59663 -1.81977,-10.69115 -0.72564,-1.63096 -1.52633,-2.72738 -2.27471,-3.6395 -1.12825,-1.37851 -2.24514,-2.22697 -3.63954,-2.95718 -1.79701,-0.70517 -2.32929,-1.12147 -4.32193,-1.59225 -1.99265,-0.47088 -4.28328,-0.45501 -4.32195,-0.45501 -10.42725,0 -21.38224,9.0329 -21.38224,19.33509 0,10.3021 8.45281,18.6525 18.88007,18.6525 z"
       class="shp1"
       id="Shoe right" />
    <path
       style="fill:#000000;stroke-width:0.22747068"
       inkscape:connector-curvature="0"
       d="m 193.95821,997.97276 c 3.00262,1.87214 2.45669,7.45424 5.45929,9.32624 2.22922,1.3899 8.00697,-0.9348 10.23619,0.455 0,0 8.18894,-4.5494 8.87135,-6.8241 0.68242,-2.27472 -2.04724,-7.27906 -2.04724,-7.27906 z m 24.79431,-11.14612 c 0,-0.15227 0.71426,-5.72082 -3.18459,-9.32623 -4.05125,-3.74644 -7.76585,-2.72965 -11.71474,-2.72965 -4.43796,0 -8.81221,0.49816 -11.57826,3.31424 -1.09413,1.11234 -1.979,1.60595 -2.27471,2.95713 0,0 -1.27384,2.57727 -1.27384,4.79276 0,1.29669 0,2.47034 0,2.92535 0,7.72714 6.1076,11.03227 14.46259,11.03227 5.4866,0 10.73434,-2.17458 13.51631,-5.91427 1.45354,-1.95386 2.04724,-4.39925 2.04724,-7.0516 z M 201.46474,1000.02 c 0,-8.50733 -10.09969,-11.11417 -12.60187,-14.65589 -2.50217,-3.54172 -6.96288,-4.67911 -8.78036,-4.67911 -0.0387,0 -2.32931,-0.016 -4.32195,0.45494 -1.99264,0.47086 -2.52493,0.88711 -4.32194,1.59228 -4.77689,2.50217 -7.73401,10.64112 -7.73401,17.28778 0,10.3022 8.45282,18.6526 18.88007,18.6526 10.42726,0 18.88006,-8.3504 18.88006,-18.6526 z"
       class="shp1"
       id="Shoe left" />
    <path
       style="fill:#2c2f34;stroke-width:0.22747068"
       inkscape:connector-curvature="0"
       d="m 301.00592,1004.9266 h 6.59665 c -0.37533,-0.4482 -0.30709,-1.1442 -0.68241,-1.5924 -0.38443,-0.4617 -0.98041,-0.6755 -1.36482,-1.1373 -0.4686,-0.1433 -0.89625,-0.5391 -1.36483,-0.6824 -0.24794,-0.054 -0.43447,-0.1729 -0.68241,-0.2274 -0.43447,-0.096 -0.93036,-0.132 -1.36483,-0.2275 z"
       class="shp2"
       id="Triangle 5" />
    <path
       style="fill:#ffffff;stroke:#000000;stroke-width:4.09447241"
       inkscape:connector-curvature="0"
       d="m 146.78079,824.00547 1.14418,73.85972 h 211.54091 l 2.04724,-73.85972 z"
       class="shp3"
       id="Rectangle 29" />
    <path
       style="fill:#2a5d8b;stroke:#000000;stroke-width:1.81976545;fill-opacity:1"
       inkscape:connector-curvature="0"
       d="m 149.51045,854.56843 v 40.26231 h 208.81808 v -40.26231 z"
       class="shp4"
       id="Rectangle 30" />
    <path
       style="fill:#ffffff;stroke:#000000;stroke-width:1.81976545"
       inkscape:connector-curvature="0"
       d="m 205.01328,824.31483 c 0,0 31.39097,23.65695 33.43821,23.65695 2.04722,0 14.55811,-20.2449 14.55811,-20.2449 z"
       class="shp5"
       id="Triangle 2" />
    <path
       style="fill:#000000;stroke-width:0.22747068"
       inkscape:connector-curvature="0"
       d="m 218.20659,866.62437 v 10.46365 h 74.15544 v -10.46365 z"
       class="shp1"
       id="Rectangle 31" />
    <path
       style="fill:#e10000;stroke:#000000;stroke-width:1.81976545"
       inkscape:connector-curvature="0"
       d="m 258.24143,882.54732 c 2.95712,0 18.19766,-14.33065 17.51525,-15.92295 -0.18426,-0.42992 -5.91424,-14.10317 -8.18895,-19.56248 -2.27471,-5.45929 -5.16814,-15.92295 -7.98877,-15.92295 -3.28468,0 -5.432,10.00872 -8.38913,15.92295 -2.95711,5.91424 -7.59752,18.74359 -7.96147,19.10754 -1.13735,1.13735 12.05595,16.37789 15.01307,16.37789 z"
       class="shp6"
       id="Triangle 3" />
    <path
       style="fill:#ffffff;stroke:#000000;stroke-width:3.86700201"
       inkscape:connector-curvature="0"
       d="m 352.71683,782.64675 c 0,0 9.25123,41.21313 12.89077,43.94279 1.86752,1.40121 8.25491,1.57864 14.55812,0.45493 5.97338,-1.06456 12.02182,-4.39701 13.81429,-7.52927 2.59999,-7.34276 -2.38617,-23.77069 -8.12752,-37.40756 -4.51303,-10.71841 -10.00871,-18.88007 -10.00871,-18.88007 z"
       class="shp7"
       id="Rectangle 36" />
    <path
       style="fill:#ffffff;stroke:#000000;stroke-width:1.81976545"
       inkscape:connector-curvature="0"
       d="m 267.11278,828.63677 c 0,0 12.106,19.10753 13.67327,19.33501 1.56727,0.22747 31.39095,-20.01742 31.39095,-20.01742 z"
       class="shp5"
       id="Triangle 1" />
    <path
       style="fill:#e10000;stroke:#000000;stroke-width:1.36482406"
       inkscape:connector-curvature="0"
       d="m 259.37878,846.50459 c 4.77689,0 10.91859,-11.2416 10.91859,-16.83283 0,-5.59123 -7.3928,-8.18895 -11.60099,-8.18895 -4.20821,0 -9.09883,6.46472 -9.09883,12.05595 0,5.59123 5.00435,12.96583 9.78123,12.96583 z"
       class="shp8"
       id="Oval 27" />
    <path
       style="fill:#ffffff;stroke:#000000;stroke-width:3.86700201"
       inkscape:connector-curvature="0"
       d="m 135.44821,768.65503 c 0,0 -5.4957,8.16164 -10.00871,18.88006 -5.74136,13.63459 -10.72525,30.0648 -8.12754,37.40756 1.79248,3.13227 7.84091,6.46472 13.81431,7.52928 6.3032,1.1237 12.69058,0.94628 14.55812,-0.45494 3.63953,-2.72965 12.89075,-43.94279 12.89075,-43.94279 z"
       class="shp7"
       id="Rectangle 37" />
    <path
       inkscape:connector-curvature="0"
       id="Rectangle 4"
       d="m 336.06553,583.3775 c -12.6651,0.0711 -22.89804,4.44725 -25.41443,4.36834 -7.84773,-0.24567 -23.52051,-3.1558 -26.15917,-2.9579 -10.17705,0.75975 -14.39893,4.24902 -26.6141,4.09435 -12.21518,-0.15468 -8.65852,-5.09659 -24.56781,-4.77586 -15.90931,0.32074 -19.2612,5.91405 -31.84489,5.91405 -12.58368,0 -11.30762,-5.31581 -25.70424,-5.91405 -14.39663,-0.59825 -27.95243,3.63941 -29.11708,3.63941 -6.15081,0 -3.36646,8e-5 -14.649,-2.27464 -2.41119,0 -19.88682,-2.57185 -18.56067,17.51381 1.32615,20.08567 5.86979,25.70419 5.91756,35.50363 -0.05,8.65753 -2.01517,18.09155 -1.59664,22.04726 1.38302,13.10459 6.21742,21.46879 7.50718,24.7944 2.92755,7.54293 -0.27069,21.27544 0,24.33947 1.08049,12.19243 4.74943,18.05911 5.00419,20.70005 1.22607,12.70424 -1.13819,14.10326 -1.13818,25.24933 0,11.37353 8.32568,17.97024 8.32568,25.70424 0,9.62884 -4.60395,11.15673 -1.81971,22.29142 1.81976,7.27907 2.9569,5.23149 6.82391,10.46332 3.867,5.23183 -2.72965,11.1473 0,16.37913 2.72964,5.23182 5.46751,4.47878 11.37493,3.63941 5.9074,-0.83937 7.73359,-2.957 12.73794,-3.63941 5.00436,-0.68242 10.91803,2.50122 18.19708,2.50122 1.14646,0 7.21354,-2.66728 13.87615,-2.50122 6.66262,0.16605 6.82364,3.63941 15.01259,3.63941 9.3263,0 13.28401,-3.63941 19.6532,-3.63941 1.16464,0 7.27464,2.17455 12.42002,1.81969 6.59666,-0.45493 8.88768,-3.91237 15.24094,-3.63941 1.52177,0.066 14.16845,5.45913 21.83649,5.45913 8.41641,0 12.09036,-4.32268 18.42542,-4.32268 1.76744,0 7.42049,2.27323 14.786,2.50296 6.24862,0.19564 14.19583,-3.50975 19.10693,-3.63941 2.1769,-0.0569 7.96278,1.79379 14.1045,2.50123 7.70897,0.88714 9.71391,2.3484 14.78423,-0.68151 5.07033,-3.02991 5.7788,-6.78142 5.7788,-11.60152 0,-4.77689 -3.0936,-6.59708 0,-13.87615 3.0936,-7.27906 8.55229,-14.33 8.55229,-20.47171 0,-6.46472 -2.75968,-21.4506 -2.41164,-23.88454 1.13734,-7.96148 5.65332,-20.7691 6.14238,-23.20303 1.74243,-8.65071 -2.7296,-14.10162 -1.36478,-21.60815 1.17375,-6.46016 4.86854,-10.23651 6.59732,-17.51557 1.72878,-7.27906 -2.04842,-14.55834 -1.22954,-20.70004 0.8189,-6.14171 6.75004,-17.69495 8.05344,-27.97889 1.30341,-10.28395 -2.27463,-15.92405 -2.27463,-20.9284 0,-5.00435 5.32033,-11.43891 6.36898,-18.19707 1.40804,-9.08745 3.29169,-15.65472 -6.36898,-21.6099 -9.66068,-5.95519 -11.33576,1.33154 -26.84244,1.13819 -10.99821,-0.13648 -12.55555,-6.01954 -26.38576,-6.59732 -0.86439,-0.0361 -1.72012,-0.0505 -2.56446,-0.0457 z"
       style="fill:#feff00;stroke:#0c0c0c;stroke-width:3.18458962;stroke-opacity:1" />
    <path
       style="fill:#ffffff;stroke:#000000;stroke-width:2.50217748"
       inkscape:connector-curvature="0"
       d="m 213.31597,717.40361 c 23.30437,0 42.19582,-18.89144 42.19582,-42.19582 0,-23.30436 -18.89145,-42.19581 -42.19582,-42.19581 -23.30437,0 -42.19581,18.89145 -42.19581,42.19581 0,23.30438 18.89144,42.19582 42.19581,42.19582 z"
       class="shp10"
       id="Oval 5" />
    <path
       style="fill:#00c7ff;stroke:#000000;stroke-width:1.81976545"
       inkscape:connector-curvature="0"
       d="m 225.71313,694.42906 c 10.42725,0 18.88006,-8.45281 18.88006,-18.88007 0,-10.42725 -8.45281,-18.88006 -18.88006,-18.88006 -10.42726,0 -18.88008,8.45281 -18.88008,18.88006 0,10.42726 8.45282,18.88007 18.88008,18.88007 z"
       class="shp11"
       id="Auge 1" />
    <path
       style="fill:#ffffff;stroke:#000000;stroke-width:2.50217748"
       inkscape:connector-curvature="0"
       d="m 299.84581,716.72119 c 23.30438,0 42.19582,-18.89144 42.19582,-42.19582 0,-23.30436 -18.89144,-42.19581 -42.19582,-42.19581 -23.30436,0 -42.19581,18.89145 -42.19581,42.19581 0,23.30438 18.89145,42.19582 42.19581,42.19582 z"
       class="shp10"
       id="Oval 6" />
    <path
       style="fill:#000000;stroke-width:0.22747068"
       inkscape:connector-curvature="0"
       d="m 293.95432,616.63409 v 15.24054 h 6.14171 v -15.24054 z"
       class="shp1"
       id="Rectangle 5" />
    <path
       style="fill:#000000;stroke-width:0.22747068"
       inkscape:connector-curvature="0"
       d="m 321.90137,621.08797 -7.15395,13.45716 5.4229,2.88434 7.15395,-13.45718 z"
       class="shp1"
       id="Rectangle 6" />
    <path
       style="fill:#000000;stroke-width:0.22747068"
       inkscape:connector-curvature="0"
       d="m 267.51313,625.67378 7.62027,13.19784 5.31826,-3.07085 -7.62026,-13.19784 z"
       class="shp1"
       id="Rectangle 7" />
    <path
       style="fill:#000000;stroke-width:0.22747068"
       inkscape:connector-curvature="0"
       d="m 225.82685,685.33024 c 5.46385,0 9.89499,-4.43113 9.89499,-9.89498 0,-5.46385 -4.43114,-9.89497 -9.89499,-9.89497 -5.46384,0 -9.89497,4.43112 -9.89497,9.89497 0,5.46385 4.43113,9.89498 9.89497,9.89498 z"
       class="shp1"
       id="Oval 2" />
    <path
       style="fill:#00c7ff;stroke:#000000;stroke-width:1.81976545"
       inkscape:connector-curvature="0"
       d="m 286.90274,694.2016 c 10.42725,0 18.88006,-8.45281 18.88006,-18.88006 0,-10.42727 -8.45281,-18.88009 -18.88006,-18.88009 -10.42726,0 -18.88007,8.45282 -18.88007,18.88009 0,10.42725 8.45281,18.88006 18.88007,18.88006 z"
       class="shp11"
       id="Oval 4" />
    <path
       style="fill:#000000;stroke-width:0.22747068"
       inkscape:connector-curvature="0"
       d="m 287.01646,685.10277 c 5.46386,0 9.89499,-4.43113 9.89499,-9.89498 0,-5.46384 -4.43113,-9.89498 -9.89499,-9.89498 -5.46383,0 -9.89497,4.43114 -9.89497,9.89498 0,5.46385 4.43114,9.89498 9.89497,9.89498 z"
       class="shp1"
       id="Oval 3" />
    <path
       style="fill:#000000;stroke-width:0.22747068"
       inkscape:connector-curvature="0"
       d="m 174.32521,729.32762 0.6665,-0.26843 c 1.14418,-0.81888 2.05861,-1.86979 3.20051,-2.68869 1.06001,-0.75976 2.35204,-1.28749 3.41206,-2.04724 2.47943,-1.2147 4.91792,-0.90533 7.39735,-2.12002 0,0 0.75975,-1.22834 -0.34576,-1.51951 -1.10778,-0.29116 -3.02308,-0.16378 -4.5494,0.22747 -1.70604,0.43675 -4.43342,1.449 -6.36919,3.18459 -1.16238,1.04182 -2.14504,2.30201 -2.72965,3.41206 -0.49361,0.9349 -0.68242,1.81977 -0.68242,1.81977 z"
       class="shp1"
       id="Rectangle 11" />
    <path
       style="fill:#000000;stroke-width:0.22747068"
       inkscape:connector-curvature="0"
       d="m 342.10077,723.70909 c -0.5846,-1.11006 -1.56727,-2.37024 -2.72965,-3.41206 -1.93577,-1.73559 -4.66314,-2.74784 -6.36917,-3.18459 -1.52634,-0.39125 -3.44164,-0.51863 -4.54942,-0.22747 -1.10778,0.29116 -0.34575,1.51951 -0.34575,1.51951 2.47943,1.21469 4.91791,0.90532 7.39734,2.12002 1.06002,0.75975 2.35206,1.28749 3.41207,2.04724 1.14417,0.8189 2.0586,1.86981 3.2005,2.68869 l 0.6665,0.26842 c 0,0 -0.1888,-0.88486 -0.68242,-1.81976 z"
       class="shp1"
       id="Rectangle 12" />
    <path
       style="fill:#000000;stroke-width:0.22747068"
       inkscape:connector-curvature="0"
       d="m 208.65283,616.86156 v 15.24054 h 6.14169 v -15.24054 z"
       class="shp1"
       id="Rectangle 1" />
    <path
       style="fill:#000000;stroke-width:0.22747068"
       inkscape:connector-curvature="0"
       d="m 236.82734,621.77038 -7.15395,13.45716 5.4229,2.88434 7.15395,-13.45717 z"
       class="shp1"
       id="Rectangle 2" />
    <path
       style="fill:#000000;stroke-width:0.22747068"
       inkscape:connector-curvature="0"
       d="m 181.71119,626.247 7.15395,13.45717 5.42291,-2.88433 -7.15395,-13.45717 z"
       class="shp1"
       id="Rectangle 3" />
    <path
       style="fill:#6d2c3e;stroke:#000000;stroke-width:2.0472362"
       inkscape:connector-curvature="0"
       d="m 258.12769,746.74732 c -43.7881,0 -49.97531,-23.42947 -77.90871,-23.42947 0,0 5.23183,76.43014 77.90871,76.43014 72.67689,0 77.68125,-80.75209 77.68125,-80.75209 -27.79692,0 -33.89314,27.75142 -77.68125,27.75142 z"
       class="shp12"
       id="Rectangle 8" />
    <path
       style="fill:#ffffff;stroke:#000000;stroke-width:2.0472362"
       inkscape:connector-curvature="0"
       d="m 229.01144,744.12686 c 0,0 -4.32421,20.59519 -2.99351,24.38257 1.32844,3.7874 23.91628,6.69675 25.73831,3.15958 1.82204,-3.53489 2.99352,-24.38259 2.99352,-24.38259 z"
       class="shp13"
       id="Rectangle 9" />
    <path
       style="fill:#ffffff;stroke:#000000;stroke-width:2.0472362"
       inkscape:connector-curvature="0"
       d="m 261.92873,747.81416 c 0,0 1.89938,20.79538 3.84198,24.2643 1.9426,3.4712 24.4167,-0.2252 25.6132,-4.0558 1.19649,-3.83061 -3.84199,-24.2643 -3.84199,-24.2643 z"
       class="shp13"
       id="Rectangle 10" />
    <path
       style="fill:#ffa9a9;stroke:#000000;stroke-width:1.81976545"
       inkscape:connector-curvature="0"
       d="m 223.66589,791.33158 c 1.77882,0.88032 3.57811,1.58774 6.59664,2.50217 7.12894,2.16097 16.8715,5.00436 27.86516,5.00436 9.07153,0 17.64946,-2.45214 24.45311,-3.867 0.18652,-0.0387 5.77775,-1.94943 9.55376,-3.63953 2.38389,-1.06684 3.63954,-1.48767 3.63954,-3.05949 0,-3.86017 -14.9744,-13.77789 -23.04506,-11.85577 -8.48466,2.01995 -12.77021,7.9956 -15.39977,7.9956 -2.57042,0 -8.83041,-6.30321 -16.08445,-7.1676 -7.25404,-0.86439 -20.76352,7.07661 -20.76352,11.02777 0,1.55363 1.72423,2.3384 3.18459,3.05949 z"
       class="shp14"
       id="Oval 7" />
    <path
       style="fill:#a5c32b;stroke-width:0.22747068"
       inkscape:connector-curvature="0"
       d="m 147.73844,646.52829 c 7.7886,2.23376 16.7009,-5.01118 19.90368,-16.18227 3.2028,-11.17107 -0.51407,-22.03735 -8.30267,-24.27112 -7.78859,-2.23376 -16.7009,5.01118 -19.90369,16.18227 -3.20278,11.17108 0.51409,22.03735 8.30268,24.27112 z"
       class="shp15"
       id="Oval 8" />
    <path
       style="fill:#feff00;stroke:#000000;stroke-width:2.50217748"
       inkscape:connector-curvature="0"
       d="m 252.32719,724.19588 c 8.85771,0 21.83718,-17.03528 21.83718,-25.70419 0,-8.6689 -7.17896,-15.69548 -16.03668,-15.69548 -8.8577,0 -16.03668,7.02658 -16.03668,15.69548 0,8.66891 1.37848,25.70419 10.23618,25.70419 z"
       class="shp16"
       id="Oval 20" />
    <path
       style="fill:#a5c32b;stroke-width:0.22747068"
       inkscape:connector-curvature="0"
       d="m 147.73844,646.52829 c 7.7886,2.23376 16.7009,-5.01118 19.90368,-16.18227 3.2028,-11.17107 -0.51407,-22.03735 -8.30267,-24.27112 -7.78859,-2.23376 -16.7009,5.01118 -19.90369,16.18227 -3.20278,11.17108 0.51409,22.03735 8.30268,24.27112 z"
       class="shp15"
       id="Oval 9" />
    <path
       style="fill:#a5c32b;stroke-width:0.22747068"
       inkscape:connector-curvature="0"
       d="m 149.74019,688.73547 c 4.68589,-0.49133 7.84547,-6.9697 7.05614,-14.46486 -0.78705,-7.49743 -5.22501,-13.1751 -9.9109,-12.68149 -4.6859,0.49134 -7.84547,6.96971 -7.05613,14.46486 0.78704,7.49743 5.22499,13.17511 9.91089,12.68149 z"
       class="shp15"
       id="Oval 13" />
    <path
       style="fill:#a5c32b;stroke-width:0.22747068"
       inkscape:connector-curvature="0"
       d="m 155.19266,773.40916 c 5.2523,1.50586 10.91632,-2.16779 12.64737,-8.20487 1.73105,-6.03707 -1.1237,-12.15375 -6.37601,-13.65961 -5.25229,-1.50586 -10.91631,2.1678 -12.64736,8.20487 -1.73105,6.03707 1.1237,12.15376 6.376,13.65961 z"
       class="shp15"
       id="Oval 14" />
    <path
       style="fill:#a5c32b;stroke-width:0.22747068"
       inkscape:connector-curvature="0"
       d="m 175.27377,815.51626 c 6.86961,1.9699 14.59908,-3.96937 17.26502,-13.26609 2.66596,-9.29673 -0.74155,-18.42968 -7.61117,-20.39958 -6.86961,-1.96989 -14.59906,3.96937 -17.26501,13.2661 -2.66596,9.29673 0.74154,18.42968 7.61116,20.39957 z"
       class="shp15"
       id="Oval 15" />
    <path
       style="fill:#a5c32b;stroke-width:0.22747068"
       inkscape:connector-curvature="0"
       d="m 359.55915,633.84452 c 4.86332,-1.1237 7.62254,-7.15395 6.16445,-13.47308 -1.45808,-6.31914 -6.583,-10.52963 -11.44633,-9.4082 -4.86332,1.12371 -7.62253,7.15395 -6.16444,13.47309 1.45808,6.31913 6.583,10.52962 11.44632,9.40819 z"
       class="shp15"
       id="Oval 10" />
    <path
       style="fill:#a5c32b;stroke-width:0.22747068"
       inkscape:connector-curvature="0"
       d="m 351.77055,784.73493 c 6.57845,-0.4595 11.48499,-6.92876 10.95954,-14.44894 -0.52546,-7.52018 -6.28502,-13.24108 -12.86347,-12.78157 -6.57845,0.45948 -11.48499,6.92875 -10.95953,14.44892 0.52546,7.52019 6.28501,13.24108 12.86346,12.78159 z"
       class="shp15"
       id="Oval 11" />
    <path
       style="fill:#a5c32b;stroke-width:0.22747068"
       inkscape:connector-curvature="0"
       d="m 325.59549,815.01582 c 2.98215,1.38984 7.15169,-1.23971 9.31038,-5.87329 2.16097,-4.63358 1.49449,-9.51737 -1.48538,-10.90722 -2.98214,-1.38984 -7.15168,1.23972 -9.31037,5.8733 -2.16098,4.63357 -1.49448,9.51736 1.48537,10.90721 z"
       class="shp15"
       id="Oval 12" />
    <path
       style="fill:#e66232;stroke-width:0.22747068"
       inkscape:connector-curvature="0"
       d="m 320.19535,720.82704 c -0.008,-0.008 -0.0115,-0.0115 -0.0115,-0.0115 -0.51635,-0.19335 -0.84846,1.10324 -1.36482,0.90989 -0.65967,-0.24795 -1.23517,-1.32162 -1.88574,-1.65599 -1.40349,-3.33017 -1.74015,-6.97199 -0.73019,-10.50005 2.66596,-9.299 13.68692,-14.29654 24.61689,-11.16198 10.92996,3.13454 17.6267,13.21149 14.96075,22.51049 -1.44217,5.02711 -5.32282,8.7963 -10.31353,10.70249 h -0.21154 c 0.0478,-0.38896 -0.32756,-0.63463 -0.27979,-1.02361 0.0272,-0.2161 0.65512,-0.69378 0.68241,-0.90988 0,0 -0.0955,-0.0227 -0.27524,-0.0569 3.32563,-1.52633 5.96656,-4.11268 7.27906,-7.53155 2.99352,-7.79997 -2.04269,-16.98751 -11.24843,-20.52014 -9.20574,-3.5349 -19.09844,-0.0773 -22.09194,7.72263 -1.45354,3.78512 -1.01452,7.89551 0.87348,11.52822 z m -3.37113,-0.80753 c 0.0364,0.0137 0.0727,0.0296 0.11147,0.0501 0.10464,0.24795 0.21383,0.4936 0.32983,0.73699 -0.0478,-0.0318 -0.0955,-0.0637 -0.13875,-0.0842 -0.20928,-0.44357 -0.30255,-0.70289 -0.30255,-0.70289 z"
       class="shp18"
       id="Oval 17" />
    <path
       style="fill:#e66232;stroke-width:0.22747068"
       inkscape:connector-curvature="0"
       d="m 334.23256,707.7361 c 1.13054,0 2.04724,-0.66194 2.04724,-1.47855 0,-0.81663 -0.9167,-1.47857 -2.04724,-1.47857 -1.13053,0 -2.04723,0.66194 -2.04723,1.47857 0,0.81661 0.9167,1.47855 2.04723,1.47855 z m 11.601,7.27906 c 1.13053,0 2.04724,-0.96675 2.04724,-2.16097 0,-1.19422 -0.91671,-2.16097 -2.04724,-2.16097 -1.13053,0 -2.04724,0.3321 -2.04724,1.52632 0,1.19423 0.91671,2.79562 2.04724,2.79562 z m -7.734,0.45494 c 1.25565,0 2.27471,-0.86666 2.27471,-1.9335 0,-1.06683 -1.01906,-1.9335 -2.27471,-1.9335 -1.25564,0 -2.27471,0.86667 -2.27471,1.9335 0,1.06684 1.01907,1.9335 2.27471,1.9335 z"
       class="shp18"
       id="Oval 21" />
    <path
       style="fill:#e66232;stroke-width:0.22747068"
       inkscape:connector-curvature="0"
       d="m 184.08598,707.39489 c 0,-0.81662 -0.9167,-1.47855 -2.04723,-1.47855 -1.13054,0 -2.04724,0.66193 -2.04724,1.47855 0,0.81662 0.9167,1.47856 2.04724,1.47856 1.13053,0 2.04723,-0.66194 2.04723,-1.47856 z m -11.60099,5.96201 c 0,-1.19422 -0.91671,-1.52633 -2.04724,-1.52633 -1.13053,0 -2.04724,0.96676 -2.04724,2.16097 0,1.19422 0.91671,2.16098 2.04724,2.16098 1.13053,0 2.04724,-1.60367 2.04724,-2.79562 z m 7.96147,1.31705 c 0,-1.06684 -1.01907,-1.9335 -2.27471,-1.9335 -1.25565,0 -2.27471,0.86666 -2.27471,1.9335 0,1.06685 1.01906,1.93351 2.27471,1.93351 1.25564,0 2.27471,-0.86666 2.27471,-1.93351 z"
       class="shp18"
       id="Oval 24" />
    <path
       style="fill:#e66232;stroke-width:0.22747068"
       inkscape:connector-curvature="0"
       d="m 168.82725,730.99497 c -0.1797,0.0364 -0.27524,0.0569 -0.27524,0.0569 0.0273,0.21609 0.65512,0.69379 0.68242,0.90988 0.0478,0.38897 -0.32756,0.63465 -0.27979,1.02362 h -0.21156 c -4.98842,-1.90848 -8.87135,-5.67768 -10.31351,-10.7025 -2.66596,-9.29899 4.03077,-19.37823 14.96074,-22.51049 10.92997,-3.13455 21.95092,1.86297 24.61688,11.16198 1.01225,3.52807 0.6756,7.16987 -0.73017,10.50004 -0.65057,0.33439 -1.22608,1.41032 -1.88573,1.65599 -0.51636,0.19336 -0.84847,-1.10323 -1.36483,-0.90987 0,0 -0.005,0.005 -0.0114,0.0113 1.88802,-3.6327 2.32476,-7.74538 0.8735,-11.52822 -2.99352,-7.79996 -12.88394,-11.25752 -22.09196,-7.72262 -9.20574,3.5349 -14.24421,12.72243 -11.24843,20.52013 1.31251,3.42116 3.95345,6.00522 7.27907,7.53155 z m 28.56122,-9.61063 c 0,0 -0.0933,0.25931 -0.30254,0.70288 -0.0433,0.0205 -0.091,0.0524 -0.13875,0.0842 0.11601,-0.24338 0.22747,-0.48906 0.32984,-0.737 0.0364,-0.0182 0.0727,-0.0364 0.11145,-0.05 z"
       class="shp18"
       id="Oval 18" />
    <path
       style="fill:#ffa9a9;stroke-width:0.22747068"
       inkscape:connector-curvature="0"
       d="m 286.22032,807.482 c -3.54854,1.77426 -6.44879,3.66227 -9.09883,4.54941 -3.46438,1.1601 -6.3305,1.00769 -7.96147,0.68241 -5.68676,-1.13735 -5.94381,-3.42343 -12.28342,-3.18458 -6.3396,0.23883 -9.09882,3.18458 -11.82847,4.09446 -1.69693,0.56641 -3.88065,-0.0818 -5.91424,-0.68241 -1.23972,-0.36623 -2.41802,-0.5482 -3.41205,-0.90988 -4.86106,-1.76745 -10.63426,-5.75046 -14.33067,-8.18894 -2.01083,-1.32616 -3.63952,-2.04724 -3.63952,-2.04724 1.11005,1.26246 0.93718,1.92213 2.04723,3.18459 1.23972,1.41032 3.76464,3.42116 5.00435,4.83148 0,0 7.67941,5.60942 11.37354,6.54206 5.75729,1.45126 7.21992,0.68241 8.18895,0.68241 1.151,0 2.54994,-2.23377 6.59665,-2.50218 1.55363,-0.10236 3.38931,-0.13876 5.91423,0.68241 9.09883,2.95712 14.87886,3.15956 17.97019,1.81977 6.82412,-2.95713 5.45929,-2.04724 9.78124,-4.32195 4.32194,-2.2747 5.30689,-4.32194 7.27906,-4.32194 1.66281,-1.42396 3.5713,-2.67051 5.23183,-4.09447 0.0206,-0.0159 1.13735,-1.36483 1.13735,-1.36483 0,0 -3.867,0.45494 -12.05595,4.54942 z"
       class="shp19"
       id="Rectangle 28" />
    <path
       style="fill:#000000;stroke-width:0.22747068"
       inkscape:connector-curvature="0"
       d="m 315.01128,866.61072 v 10.00871 h 32.98325 v -10.00871 z"
       class="shp1"
       id="Rectangle 32" />
    <path
       style="fill:#000000;stroke-width:0.22747068"
       inkscape:connector-curvature="0"
       d="m 162.57409,866.85184 v 10.00871 h 32.98325 v -10.00871 z"
       class="shp1"
       id="Rectangle 33" />
    <path
       style="fill:#2a648b;stroke:#000000;stroke-width:2.50217748;fill-opacity:1"
       inkscape:connector-curvature="0"
       d="m 305.19365,896.00904 c -7.43602,0 -16.3142,0 -23.75021,0 0,0 -3.18459,11.601 2.27471,15.24054 2.5454,1.69693 12.70651,3.36656 22.29212,2.91616 10.96864,-0.51408 21.41181,-2.97076 22.74708,-4.5494 2.50217,-2.95712 0,-13.6073 0,-13.6073 -8.33453,0 -15.22689,0 -23.5637,0 z"
       class="shp20"
       id="Rectangle 34" />
    <path
       style="fill:#2a628b;stroke:#000000;stroke-width:2.50217748;fill-opacity:1"
       inkscape:connector-curvature="0"
       d="m 206.01644,895.74062 c -7.43602,0 -16.3142,0 -23.75022,0 0,0 -3.867,12.28342 1.59229,15.92295 2.5454,1.69693 12.57459,3.40751 22.15793,2.95713 5.20907,-0.24568 11.35533,-0.50499 15.60221,-1.59231 4.69272,-1.20332 7.26086,-3.26647 7.96148,-4.09447 2.50217,-2.95712 0,-13.1933 0,-13.1933 -8.33453,0 -15.22689,0 -23.56369,0 z"
       class="shp20"
       id="Rectangle 35" />
    <path
       style="fill:#000000;stroke-width:0.22747068"
       inkscape:connector-curvature="0"
       d="m 296.91145,913.25587 c 0,11.69427 1.59229,22.88127 1.59229,34.57554 0,11.96268 -1.59229,24.43263 -1.59229,36.39537 h 16.60536 c 0,-12.43816 -0.68241,-24.86716 -0.68241,-37.30525 0,-11.21886 0.68241,-22.44681 0.68241,-33.66566 z"
       class="shp1"
       id="Rectangle 38" />
    <path
       style="fill:#feff00;stroke-width:0.22747068"
       inkscape:connector-curvature="0"
       d="m 300.32351,914.39322 0.68241,22.51959 c 1.681,0 2.64093,0.90989 4.32194,0.90989 1.65371,0 2.66823,-0.68242 4.32195,-0.68242 l 0.6824,-22.74706 z"
       class="shp17"
       id="Rectangle 39" />
    <path
       style="fill:#ffffff;stroke-width:0.22747068"
       inkscape:connector-curvature="0"
       d="m 305.32786,940.32488 c -1.32615,0 -2.76831,-0.68241 -4.09448,-0.68241 -0.26386,9.35132 0.26387,17.71769 0,27.069 -0.11601,4.06946 -1.59228,11.82849 -1.13735,13.19331 0.45494,1.36481 3.88065,2.50215 5.68677,2.50215 1.83342,0 3.17095,-2.50215 5.00436,-2.50215 l -0.90988,-40.26231 c -1.5559,0 -2.99351,0.68241 -4.54942,0.68241 z"
       class="shp21"
       id="Rectangle 40" />
    <path
       style="fill:#2e65ff;stroke-width:0.22747068"
       inkscape:connector-curvature="0"
       d="m 305.32786,946.01164 c -1.36709,0 -2.72737,-0.68241 -4.09448,-0.68241 v 3.41207 c 1.50814,0 2.92755,0.45493 4.43569,0.45493 1.44899,0 2.98669,-0.45493 4.43567,-0.45493 v -3.41207 c -1.59001,0 -3.18686,0.68241 -4.77688,0.68241 z"
       class="shp22"
       id="Rectangle 41" />
    <path
       style="fill:#ff0000;stroke-width:0.22747068"
       inkscape:connector-curvature="0"
       d="m 305.43249,952.83577 c -1.40348,0 -2.7956,-0.68242 -4.19911,-0.68242 v 3.41206 c 1.54681,0 3.00262,0.45494 4.54942,0.45494 1.48538,0 3.06404,-0.45494 4.54941,-0.45494 v -3.41206 c -1.63096,0 -3.26874,0.68242 -4.89972,0.68242 z"
       class="shp23"
       id="Rectangle 42" />
    <path
       style="fill:#000000;stroke-width:0.22747068"
       inkscape:connector-curvature="0"
       d="m 197.05181,913.25587 c 0,11.69427 1.5923,22.88127 1.5923,34.57554 0,11.96268 -1.5923,24.43263 -1.5923,36.39537 h 16.60537 c 0,-12.43816 -0.68242,-24.86716 -0.68242,-37.30525 0,-11.21886 0.68242,-22.44681 0.68242,-33.66566 z"
       class="shp1"
       id="Rectangle 47" />
    <path
       style="fill:#feff00;stroke-width:0.22747068"
       inkscape:connector-curvature="0"
       d="m 200.46388,914.39322 0.6824,22.51959 c 1.68102,0 2.64094,0.90989 4.32196,0.90989 1.65371,0 2.66823,-0.68242 4.32193,-0.68242 l 0.68242,-22.74706 z"
       class="shp17"
       id="Rectangle 43" />
    <path
       style="fill:#ffffff;stroke-width:0.22747068"
       inkscape:connector-curvature="0"
       d="m 205.46824,940.32488 c -1.32617,0 -2.76833,-0.68241 -4.09448,-0.68241 -0.26387,9.35132 -0.19108,17.49021 -0.45494,26.84154 -0.11601,4.06945 -1.13736,12.51088 -0.68241,13.42077 0.45494,0.90988 3.88065,2.50215 5.68676,2.50215 1.83341,0 3.867,0.2275 5.00435,-2.50215 0.39808,-0.95538 0.15924,-6.12352 0,-12.5109 -0.29343,-11.84894 -0.90988,-27.75141 -0.90988,-27.75141 -1.5559,0 -2.99351,0.68241 -4.5494,0.68241 z"
       class="shp21"
       id="Rectangle 44" />
    <path
       style="fill:#2e65ff;stroke-width:0.22747068"
       inkscape:connector-curvature="0"
       d="m 205.45003,946.01164 c -1.43761,0 -2.86613,-0.68241 -4.30375,-0.68241 v 3.41207 c 1.58548,0 3.07769,0.45493 4.66316,0.45493 1.52405,0 3.1391,-0.45493 4.66315,-0.45493 v -3.41207 c -1.67191,0 -3.35064,0.68241 -5.02256,0.68241 z"
       class="shp22"
       id="Rectangle 45" />
    <path
       style="fill:#ff0000;stroke-width:0.22747068"
       inkscape:connector-curvature="0"
       d="m 205.55467,952.83577 c -1.47401,0 -2.93664,-0.68242 -4.40839,-0.68242 v 3.41206 c 1.62415,0 3.15275,0.45494 4.77689,0.45494 1.56045,0 3.21643,-0.45494 4.77689,-0.45494 v -3.41206 c -1.71058,0 -3.43254,0.68242 -5.14539,0.68242 z"
       class="shp23"
       id="Rectangle 46" />
    <path
       style="fill:#ffffff;stroke-width:0.22747068"
       inkscape:connector-curvature="0"
       d="m 184.23156,995.21813 c 1.03727,-1.94947 -0.94172,-4.6973 -3.4166,-6.01435 -2.47716,-1.31704 -5.32282,-0.80296 -6.36008,1.14642 -1.03727,1.94947 0.12965,4.59722 2.60681,5.91427 2.47716,1.31704 6.13488,0.90533 7.16987,-1.04414 z"
       class="shp21"
       id="Oval 30" />
    <path
       style="fill:#ffffff;stroke-width:0.22747068"
       inkscape:connector-curvature="0"
       d="m 332.16258,997.48143 c 2.47715,-1.31705 3.64408,-3.9648 2.60681,-5.91418 -1.03726,-1.94947 -3.88292,-2.46126 -6.36008,-1.14651 -2.47716,1.31705 -4.45388,4.06498 -3.41661,6.01426 1.03726,1.94947 4.695,2.36118 7.16988,1.04413 z"
       class="shp21"
       id="Oval 31" />
    <path
       style="fill:#2c2f34;stroke-width:0.22747068"
       inkscape:connector-curvature="0"
       d="m 201.14628,1004.2442 5.60488,0.094 -0.29798,-5.67994 z"
       class="shp2"
       id="path81" />
    <path
       style="fill:#000000;stroke-width:0.22747068"
       inkscape:connector-curvature="0"
       d="m 188.52167,985.13661 c 1.65598,0 1.85843,-2.97076 1.93349,-3.63954 0.003,-0.0159 0.68241,2.04719 -2.04723,2.5022 -2.72964,0.45492 -2.27471,-1.76517 -2.27471,-1.13733 0,0.62774 0.69151,2.27467 2.38845,2.27467 z"
       class="shp1"
       id="Oval 34" />
    <path
       style="fill:#000000;stroke-width:0.22747068"
       inkscape:connector-curvature="0"
       d="m 373.56907,827.27195 c 0.56641,10.53871 1.7083,19.94235 2.27471,30.48106 0.58004,10.79804 2.21783,34.18885 0.65511,37.41211 -7.7249,8.52788 -1.565,3.76008 -1.565,3.76008 l 17.97019,-0.22745 c 0,0 -2.26561,-3.28695 -2.27471,-3.63954 -0.0933,-3.95798 -0.69379,-27.07129 -1.13736,-38.44254 -0.42536,-10.8913 -1.39439,-21.18208 -1.81976,-32.07337 z"
       class="shp1"
       id="Arm right" />
    <path
       style="fill:#feff00;stroke-width:0.22747068"
       inkscape:connector-curvature="0"
       d="m 378.11848,826.58954 1.59229,37.07772 0.68241,32.5283 h 7.50655 l -4.09448,-70.51591 z"
       class="shp17"
       id="Rectangle 51" />
    <path
       style="fill:#000000;stroke-width:0.22747068"
       inkscape:connector-curvature="0"
       d="m 123.80626,829.54666 c -0.42537,10.89128 -1.39441,21.86448 -1.81978,32.75577 -0.39579,10.14519 -1.01451,31.4046 -1.13735,36.16784 -0.0159,0.5755 -0.31162,2.09728 -0.68241,3.18459 -0.37078,1.08731 -0.14102,0.90079 -0.45494,1.5923 l 16.37789,0.45494 c 0,0 6.69902,5.53436 -1.05091,-3.02309 -0.86894,-3.55992 0.0159,-26.44119 0.59597,-37.23923 0.5664,-10.53872 1.70831,-19.94235 2.2747,-30.48107 z"
       class="shp1"
       id="Rectangle 55" />
    <path
       style="fill:#feff00;stroke-width:0.22747068"
       inkscape:connector-curvature="0"
       d="m 128.1282,830.684 -4.09448,70.06099 h 7.50654 l 0.68241,-32.52832 1.59229,-36.39532 z"
       class="shp17"
       id="Rectangle 54" />
    <path
       inkscape:connector-curvature="0"
       id="Oval 37"
       d="m 124.26105,898.92463 c 0,0.75105 0.0334,0.97197 -0.0966,1.39991 -0.17214,0.0301 -0.34977,0.0452 -0.51991,0.0808 -1.86526,0.38671 -2.12663,-2.10406 -3.93275,1.24885 -1.59229,2.95713 -0.85834,1.36464 -3.41283,5.91406 -2.8775,5.12491 -3.18441,5.00497 -5.45912,8.41702 -0.63237,0.94855 -7.35832,2.94102 -11.373176,5.91405 -4.31057,3.19141 -5.28084,7.58132 -4.775855,8.64361 0.768851,1.61504 1.932427,5.28346 6.140631,5.46088 0.95311,0.0409 2.66809,-0.23287 4.54927,-1.13819 1.3738,-0.66115 4.2445,-2.61057 6.02823,-3.83791 -1.91898,1.42107 -5.01521,4.08535 -6.93808,7.70566 0,0 -2.90014,3.28904 -3.63942,5.91406 -0.10918,0.39124 -0.40944,3.62573 0,4.54926 0.67559,1.52178 1.16228,2.74091 3.18449,3.63941 0.77568,0.34349 2.91011,0.71337 3.86776,0.68152 1.54225,-0.05 1.8188,-0.68148 2.95615,-1.59136 0.70515,-0.56413 1.82193,-1.76593 3.18449,-3.86776 0.83937,-1.29431 1.81965,-2.95697 3.18448,-5.00419 2.26462,-2.59316 2.91385,-3.56726 3.06857,-3.89938 0.0225,0.0183 0.0559,0.0334 0.11768,0.0334 0.26387,0 -0.46222,2.60658 -1.54043,7.27883 -0.34576,1.49448 -0.7965,2.37607 -0.96255,3.86601 -0.16377,1.45808 -0.0455,3.53704 0,3.63942 0.6301,1.46263 1.7646,2.62804 3.70265,3.41282 1.93805,0.78477 4.59154,0.0137 4.71438,0 1.07139,-0.11601 3.32871,-1.4452 4.80045,-3.86776 1.53087,-2.52265 2.25003,-6.14063 2.25003,-6.14063 1.03955,-5.2887 -0.44727,-12.43704 1.1382,-16.83406 0.38442,-1.06456 0.25013,6.22507 3.18449,9.10029 1.37621,1.34663 2.58078,2.54216 4.32093,2.95615 2.29062,0.54594 5.04145,-0.10823 5.68746,-2.04629 0.17288,-0.51636 0.78702,-1.2419 0.90986,-2.72955 0.13875,-1.67419 -0.45493,-4.32269 -0.45493,-4.32269 -1.26019,-6.58528 -5.00419,-15.48425 -5.00419,-17.51557 0,-7.25451 -4.92595,-13.36452 -11.65597,-15.28484 -0.0791,-0.61722 0.0545,-0.80149 0.0545,-1.54745 z"
       style="fill:#feff00;stroke:#000000;stroke-width:3.6395309" />
    <path
       style="fill:#000000;stroke-width:0.22747068"
       inkscape:connector-curvature="0"
       d="m 115.91529,932.32018 c 1.11007,-1.11005 0.85757,-3.16184 -0.56185,-4.58353 -1.42168,-1.42169 -3.47347,-1.67419 -4.58353,-0.56186 -1.11006,1.11006 -0.85756,3.16184 0.56186,4.58355 1.42168,1.42168 3.47347,1.67418 4.58352,0.56184 z"
       class="shp1"
       id="Oval 38" />
    <path
       inkscape:connector-curvature="0"
       id="Oval 40"
       d="m 389.16727,892.62942 c -0.44446,0.0605 -0.87608,0.73776 -1.3964,2.20087 h -7.37719 v 0.99241 c -6.67194,1.75389 -9.57601,3.31168 -11.69988,15.30592 -0.35258,1.99265 -3.744,10.93029 -5.0042,17.51556 0,0 -0.59368,2.6485 -0.45492,4.32268 0.12283,1.48767 0.73698,2.21321 0.90986,2.72957 0.64601,1.93805 3.39683,2.59222 5.68746,2.04629 1.74015,-0.414 2.94473,-1.60953 4.32093,-2.95615 2.93437,-2.87523 2.80006,-10.16486 3.18448,-9.10029 1.58548,4.39701 0.0987,11.54536 1.1382,16.83405 0,0 0.72144,3.61799 2.25004,6.14064 1.46947,2.42256 3.73082,3.75174 4.8022,3.86775 0.12511,0.0137 2.77458,0.78478 4.71263,0 1.93805,-0.78478 3.07256,-1.95019 3.70265,-3.41282 0.0455,-0.10237 0.16377,-2.18134 0,-3.63942 -0.16606,-1.48993 -0.61907,-2.37152 -0.96256,-3.86601 -1.0782,-4.67225 -1.80025,-7.27883 -1.53866,-7.27883 0.69151,0 -0.30839,-2.10934 3.28108,4.17339 0.90989,1.59229 1.13819,2.15689 1.59313,3.10544 0.53229,1.10779 1.36705,1.96754 1.81972,2.72957 0.78931,1.32843 2.30905,2.28827 2.85953,2.72955 1.13735,0.90989 1.41389,1.54133 2.95614,1.59138 0.95765,0.0318 1.78051,0.2047 3.88005,-0.69381 2.09957,-0.89851 2.6396,-2.19462 3.04222,-4.00301 0.40263,-1.80839 -0.58369,-3.97744 -0.68151,-4.32093 -0.73928,-2.62501 -3.18449,-5.31158 -3.18449,-5.31158 -2.18077,-4.10586 -5.70125,-7.26071 -7.36139,-8.60847 1.2556,0.99393 4.86227,3.8264 6.45154,4.59318 1.88118,0.90533 3.18445,2.27464 4.09434,2.27464 0.63692,0 1.66274,0.0477 2.27463,0 0.46632,-0.0364 1.22059,-0.15328 1.59137,-0.22835 0.85529,-0.1706 1.1382,-0.68151 1.1382,-0.68151 0.56867,-0.24113 0.75742,-0.51944 1.81971,-2.50298 0.79159,-1.47628 0.32439,-2.64991 0.22658,-3.63942 -0.003,-0.0272 -1.32375,-3.18127 -4.09435,-5.23078 -4.01485,-2.97303 -11.52067,-8.23078 -12.15304,-9.17933 -2.2747,-3.41206 -3.11017,-4.73016 -7.05224,-11.14484 -2.58699,-4.20813 -3.71941,-7.49833 -4.77586,-7.35436 z"
       style="fill:#feff00;stroke:#000000;stroke-width:3.6395309" />
    <path
       style="fill:#feff00;stroke-width:0.22747068"
       inkscape:connector-curvature="0"
       d="m 380.39318,894.83074 c 0,1.43762 -0.44129,1.23289 -1.93577,3.54399 -1.48765,2.095 -2.99124,3.42799 -2.99124,3.73507 l 14.82654,-1.13736 c 0,0 -0.3139,-0.58232 -0.76658,-1.27611 -0.21154,-0.323 -0.49815,-0.7097 -0.71653,-0.99858 -0.68241,-0.9099 -1.01224,-2.77514 -1.01224,-4.05808 z"
       class="shp17"
       id="Rectangle 56" />
    <path
       style="fill:#000000;stroke-width:0.22747068"
       inkscape:connector-curvature="0"
       d="m 400.60168,926.75398 c 1.4217,-1.4217 1.67418,-3.47348 0.56185,-4.58354 -1.11005,-1.11006 -3.16184,-0.85756 -4.58353,0.56186 -1.42169,1.42168 -1.67418,3.47347 -0.56185,4.58353 1.11006,1.11006 3.16184,0.85757 4.58353,-0.56185 z"
       class="shp1"
       id="Oval 36" />
    <g
       aria-label="@2017 ilnanny"
       style="font-style:normal;font-weight:normal;font-size:40px;line-height:1.25;font-family:sans-serif;letter-spacing:0px;word-spacing:0px;fill:#806600;fill-opacity:1;stroke:none"
       id="text964"
       transform="matrix(0.26873808,0,0,0.26873808,254.42103,757.92157)">
      <path
         d="m 646.10101,1021.7303 q 0,3.6329 -1.13281,6.5821 -1.11328,2.9297 -3.125,4.5312 -1.99219,1.6016 -4.47266,1.6016 -1.93359,0 -2.98828,-0.8594 -1.05468,-0.8594 -1.05468,-2.5781 l 0.0586,-1.3672 h -0.11719 q -1.28906,2.4023 -3.20312,3.6133 -1.89453,1.1914 -4.10157,1.1914 -3.0664,0 -4.76562,-1.9922 -1.67969,-1.9922 -1.67969,-5.5273 0,-3.2032 1.25,-5.9571 1.26953,-2.7539 3.53516,-4.375 2.26562,-1.6211 5.01953,-1.6211 4.27734,0 5.87891,3.5547 h 0.11718 l 0.76172,-3.125 h 3.04688 l -2.26563,9.8828 q -0.72265,3.2032 -0.72265,4.9414 0,1.836 1.58203,1.836 1.5625,0 2.87109,-1.3477 1.32813,-1.3476 2.08984,-3.7109 0.76172,-2.3633 0.76172,-5.2344 0,-3.4961 -1.5039,-6.1914 -1.50391,-2.7148 -4.33594,-4.1602 -2.83203,-1.4648 -6.62109,-1.4648 -4.72657,0 -8.35938,2.0898 -3.63281,2.0899 -5.70312,6.0352 -2.07032,3.9258 -2.07032,8.8086 0,3.7695 1.52344,6.6602 1.54297,2.871 4.43359,4.414 2.91016,1.543 6.77735,1.543 2.83203,0 5.74219,-0.7422 2.91015,-0.7227 6.03515,-2.4219 l 1.07422,2.1875 q -2.83203,1.6992 -6.15234,2.5781 -3.30078,0.8985 -6.69922,0.8985 -4.70703,0 -8.24219,-1.875 -3.51562,-1.8555 -5.39062,-5.293 -1.85547,-3.457 -1.85547,-7.9492 0,-5.4688 2.42187,-9.9414 2.44141,-4.4727 6.75781,-6.9531 4.31641,-2.5 9.66797,-2.5 4.70703,0 8.125,1.7773 3.41797,1.7578 5.21485,4.9805 1.8164,3.2226 1.8164,7.4804 z m -11.83593,0.1563 q 0,-1.9922 -1.28907,-3.2031 -1.28906,-1.2305 -3.4375,-1.2305 -1.97265,0 -3.51562,1.25 -1.52344,1.2305 -2.40235,3.4375 -0.8789,2.1875 -0.8789,4.7461 0,2.3437 0.91797,3.6719 0.9375,1.3281 2.87109,1.3281 2.44141,0 4.47266,-2.0508 2.03125,-2.0508 2.8125,-5.1172 0.44922,-1.7968 0.44922,-2.832 z"
         style="fill:#806600"
         id="path966"
         inkscape:connector-curvature="0" />
      <path
         d="m 651.58929,1036.4764 v -2.4804 q 0.9961,-2.2852 2.42188,-4.0235 1.44531,-1.7578 3.02734,-3.164 1.58203,-1.4258 3.125,-2.6367 1.5625,-1.211 2.8125,-2.4219 1.25,-1.211 2.01172,-2.5391 0.78125,-1.3281 0.78125,-3.0078 0,-2.2656 -1.32812,-3.5156 -1.32813,-1.25 -3.69141,-1.25 -2.24609,0 -3.71094,1.2304 -1.44531,1.211 -1.69922,3.418 l -3.59375,-0.332 q 0.39063,-3.3008 2.79297,-5.2539 2.42188,-1.9531 6.21094,-1.9531 4.16016,0 6.38672,1.9726 2.24609,1.9531 2.24609,5.5664 0,1.6016 -0.74218,3.1836 -0.72266,1.582 -2.16797,3.1641 -1.44532,1.582 -5.52735,4.9023 -2.24609,1.836 -3.57422,3.3203 -1.32812,1.4649 -1.91406,2.8321 h 14.35547 v 2.9882 z"
         style="fill:#806600"
         id="path968"
         inkscape:connector-curvature="0" />
      <path
         d="m 692.52679,1022.7069 q 0,6.8945 -2.4414,10.5274 -2.42188,3.6328 -7.16797,3.6328 -4.74609,0 -7.12891,-3.6133 -2.38281,-3.6133 -2.38281,-10.5469 0,-7.0898 2.30469,-10.625 2.32422,-3.5351 7.32422,-3.5351 4.86328,0 7.16797,3.5742 2.32421,3.5742 2.32421,10.5859 z m -3.57421,0 q 0,-5.957 -1.38672,-8.6328 -1.36719,-2.6758 -4.53125,-2.6758 -3.24219,0 -4.66797,2.6367 -1.40625,2.6368 -1.40625,8.6719 0,5.8594 1.42578,8.5742 1.44531,2.7149 4.57031,2.7149 3.10547,0 4.55078,-2.7735 1.44532,-2.7734 1.44532,-8.5156 z"
         style="fill:#806600"
         id="path970"
         inkscape:connector-curvature="0" />
      <path
         d="m 697.1557,1036.4764 v -2.9882 h 7.01172 v -21.1719 l -6.21094,4.4336 v -3.3203 l 6.50391,-4.4727 h 3.24219 v 24.5313 h 6.69921 v 2.9882 z"
         style="fill:#806600"
         id="path972"
         inkscape:connector-curvature="0" />
      <path
         d="m 736.60883,1011.8085 q -4.21875,6.4453 -5.95704,10.0976 -1.73828,3.6524 -2.61718,7.2071 -0.85938,3.5546 -0.85938,7.3632 h -3.67187 q 0,-5.2734 2.22656,-11.0937 2.24609,-5.8399 7.48047,-13.4375 h -14.78516 v -2.9883 h 18.1836 z"
         style="fill:#806600"
         id="path974"
         inkscape:connector-curvature="0" />
      <path
         d="m 752.40961,1010.8514 v -3.3593 h 3.51562 v 3.3593 z m 0,25.625 v -21.1328 h 3.51562 v 21.1328 z"
         style="fill:#806600"
         id="path976"
         inkscape:connector-curvature="0" />
      <path
         d="m 761.33539,1036.4764 v -28.9843 h 3.51562 v 28.9843 z"
         style="fill:#806600"
         id="path978"
         inkscape:connector-curvature="0" />
      <path
         d="m 783.65961,1036.4764 v -13.3984 q 0,-2.0898 -0.41016,-3.2422 -0.41016,-1.1523 -1.30859,-1.6601 -0.89844,-0.5079 -2.63672,-0.5079 -2.53906,0 -4.00391,1.7383 -1.46484,1.7383 -1.46484,4.8242 v 12.2461 h -3.51563 v -16.6211 q 0,-3.6914 -0.11718,-4.5117 h 3.32031 q 0.0195,0.098 0.0391,0.5274 0.0195,0.4297 0.0391,0.9961 0.0391,0.5468 0.0781,2.0898 h 0.0586 q 1.21094,-2.1875 2.79297,-3.0859 1.60156,-0.918 3.96484,-0.918 3.47657,0 5.07813,1.7383 1.62109,1.7187 1.62109,5.7031 v 14.082 z"
         style="fill:#806600"
         id="path980"
         inkscape:connector-curvature="0" />
      <path
         d="m 797.89789,1036.8671 q -3.1836,0 -4.78516,-1.6797 -1.60156,-1.6797 -1.60156,-4.6094 0,-3.2812 2.14844,-5.0391 2.16797,-1.7578 6.97265,-1.875 l 4.7461,-0.078 v -1.1523 q 0,-2.5782 -1.09375,-3.6914 -1.09375,-1.1133 -3.4375,-1.1133 -2.36328,0 -3.4375,0.8008 -1.07422,0.8007 -1.28907,2.5586 l -3.67187,-0.3321 q 0.89844,-5.7031 8.47656,-5.7031 3.98438,0 5.9961,1.8359 2.01171,1.8164 2.01171,5.2735 v 9.1015 q 0,1.5625 0.41016,2.3633 0.41016,0.7813 1.5625,0.7813 0.50781,0 1.15234,-0.1367 v 2.1875 q -1.32812,0.3125 -2.71484,0.3125 -1.95312,0 -2.85156,-1.0157 -0.87891,-1.0351 -0.9961,-3.2226 h -0.11718 q -1.34766,2.4218 -3.14453,3.4375 -1.77735,0.9961 -4.33594,0.9961 z m 0.80078,-2.6368 q 1.93359,0 3.4375,-0.8789 1.50391,-0.8789 2.36328,-2.4023 0.87891,-1.543 0.87891,-3.1641 v -1.7382 l -3.84766,0.078 q -2.48047,0.039 -3.76953,0.5078 -1.26953,0.4687 -1.95313,1.4453 -0.68359,0.9766 -0.68359,2.5586 0,1.7187 0.91797,2.6562 0.9375,0.9375 2.65625,0.9375 z"
         style="fill:#806600"
         id="path982"
         inkscape:connector-curvature="0" />
      <path
         d="m 828.19086,1036.4764 v -13.3984 q 0,-2.0898 -0.41016,-3.2422 -0.41016,-1.1523 -1.30859,-1.6601 -0.89844,-0.5079 -2.63672,-0.5079 -2.53906,0 -4.00391,1.7383 -1.46484,1.7383 -1.46484,4.8242 v 12.2461 h -3.51563 v -16.6211 q 0,-3.6914 -0.11718,-4.5117 h 3.32031 q 0.0195,0.098 0.0391,0.5274 0.0195,0.4297 0.0391,0.9961 0.0391,0.5468 0.0781,2.0898 h 0.0586 q 1.21094,-2.1875 2.79297,-3.0859 1.60156,-0.918 3.96484,-0.918 3.47657,0 5.07813,1.7383 1.62109,1.7187 1.62109,5.7031 v 14.082 z"
         style="fill:#806600"
         id="path984"
         inkscape:connector-curvature="0" />
      <path
         d="m 850.45648,1036.4764 v -13.3984 q 0,-2.0898 -0.41015,-3.2422 -0.41016,-1.1523 -1.3086,-1.6601 -0.89844,-0.5079 -2.63672,-0.5079 -2.53906,0 -4.0039,1.7383 -1.46485,1.7383 -1.46485,4.8242 v 12.2461 h -3.51562 v -16.6211 q 0,-3.6914 -0.11719,-4.5117 h 3.32031 q 0.0195,0.098 0.0391,0.5274 0.0195,0.4297 0.0391,0.9961 0.0391,0.5468 0.0781,2.0898 h 0.0586 q 1.21093,-2.1875 2.79297,-3.0859 1.60156,-0.918 3.96484,-0.918 3.47656,0 5.07812,1.7383 1.6211,1.7187 1.6211,5.7031 v 14.082 z"
         style="fill:#806600"
         id="path986"
         inkscape:connector-curvature="0" />
      <path
         d="m 860.33929,1044.7772 q -1.44531,0 -2.42187,-0.2148 v -2.6367 q 0.74219,0.1171 1.64062,0.1171 3.28125,0 5.19532,-4.8242 l 0.33203,-0.8398 -8.37891,-21.0352 h 3.75 l 4.45313,11.6797 q 0.0976,0.2735 0.23437,0.6641 0.13672,0.3711 0.87891,2.539 0.74219,2.168 0.80078,2.4219 l 1.36719,-3.8476 4.6289,-13.4571 h 3.71094 l -8.125,21.1328 q -1.30859,3.3789 -2.44141,5.0196 -1.13281,1.6601 -2.51953,2.4609 -1.36718,0.8203 -3.10547,0.8203 z"
         style="fill:#806600"
         id="path988"
         inkscape:connector-curvature="0" />
    </g>
    <g
       transform="matrix(0.26873808,0,0,0.26873808,254.42103,757.92157)"
       id="g1061"
       style="font-style:normal;font-weight:normal;font-size:40px;line-height:1.25;font-family:sans-serif;letter-spacing:0px;word-spacing:0px;fill:none;fill-opacity:1;stroke:#018bf7;stroke-opacity:1;stroke-width:1.74519368;stroke-miterlimit:4;stroke-dasharray:none;opacity:0.456;filter:url(#filter1175)"
       aria-label="@2017 ilnanny">
      <path
         inkscape:connector-curvature="0"
         id="path1037"
         style="fill:none;stroke:#018bf7;stroke-opacity:1;stroke-width:1.74519368;stroke-miterlimit:4;stroke-dasharray:none"
         d="m 646.10101,1021.7303 q 0,3.6329 -1.13281,6.5821 -1.11328,2.9297 -3.125,4.5312 -1.99219,1.6016 -4.47266,1.6016 -1.93359,0 -2.98828,-0.8594 -1.05468,-0.8594 -1.05468,-2.5781 l 0.0586,-1.3672 h -0.11719 q -1.28906,2.4023 -3.20312,3.6133 -1.89453,1.1914 -4.10157,1.1914 -3.0664,0 -4.76562,-1.9922 -1.67969,-1.9922 -1.67969,-5.5273 0,-3.2032 1.25,-5.9571 1.26953,-2.7539 3.53516,-4.375 2.26562,-1.6211 5.01953,-1.6211 4.27734,0 5.87891,3.5547 h 0.11718 l 0.76172,-3.125 h 3.04688 l -2.26563,9.8828 q -0.72265,3.2032 -0.72265,4.9414 0,1.836 1.58203,1.836 1.5625,0 2.87109,-1.3477 1.32813,-1.3476 2.08984,-3.7109 0.76172,-2.3633 0.76172,-5.2344 0,-3.4961 -1.5039,-6.1914 -1.50391,-2.7148 -4.33594,-4.1602 -2.83203,-1.4648 -6.62109,-1.4648 -4.72657,0 -8.35938,2.0898 -3.63281,2.0899 -5.70312,6.0352 -2.07032,3.9258 -2.07032,8.8086 0,3.7695 1.52344,6.6602 1.54297,2.871 4.43359,4.414 2.91016,1.543 6.77735,1.543 2.83203,0 5.74219,-0.7422 2.91015,-0.7227 6.03515,-2.4219 l 1.07422,2.1875 q -2.83203,1.6992 -6.15234,2.5781 -3.30078,0.8985 -6.69922,0.8985 -4.70703,0 -8.24219,-1.875 -3.51562,-1.8555 -5.39062,-5.293 -1.85547,-3.457 -1.85547,-7.9492 0,-5.4688 2.42187,-9.9414 2.44141,-4.4727 6.75781,-6.9531 4.31641,-2.5 9.66797,-2.5 4.70703,0 8.125,1.7773 3.41797,1.7578 5.21485,4.9805 1.8164,3.2226 1.8164,7.4804 z m -11.83593,0.1563 q 0,-1.9922 -1.28907,-3.2031 -1.28906,-1.2305 -3.4375,-1.2305 -1.97265,0 -3.51562,1.25 -1.52344,1.2305 -2.40235,3.4375 -0.8789,2.1875 -0.8789,4.7461 0,2.3437 0.91797,3.6719 0.9375,1.3281 2.87109,1.3281 2.44141,0 4.47266,-2.0508 2.03125,-2.0508 2.8125,-5.1172 0.44922,-1.7968 0.44922,-2.832 z" />
      <path
         inkscape:connector-curvature="0"
         id="path1039"
         style="fill:none;stroke:#018bf7;stroke-opacity:1;stroke-width:1.74519368;stroke-miterlimit:4;stroke-dasharray:none"
         d="m 651.58929,1036.4764 v -2.4804 q 0.9961,-2.2852 2.42188,-4.0235 1.44531,-1.7578 3.02734,-3.164 1.58203,-1.4258 3.125,-2.6367 1.5625,-1.211 2.8125,-2.4219 1.25,-1.211 2.01172,-2.5391 0.78125,-1.3281 0.78125,-3.0078 0,-2.2656 -1.32812,-3.5156 -1.32813,-1.25 -3.69141,-1.25 -2.24609,0 -3.71094,1.2304 -1.44531,1.211 -1.69922,3.418 l -3.59375,-0.332 q 0.39063,-3.3008 2.79297,-5.2539 2.42188,-1.9531 6.21094,-1.9531 4.16016,0 6.38672,1.9726 2.24609,1.9531 2.24609,5.5664 0,1.6016 -0.74218,3.1836 -0.72266,1.582 -2.16797,3.1641 -1.44532,1.582 -5.52735,4.9023 -2.24609,1.836 -3.57422,3.3203 -1.32812,1.4649 -1.91406,2.8321 h 14.35547 v 2.9882 z" />
      <path
         inkscape:connector-curvature="0"
         id="path1041"
         style="fill:none;stroke:#018bf7;stroke-opacity:1;stroke-width:1.74519368;stroke-miterlimit:4;stroke-dasharray:none"
         d="m 692.52679,1022.7069 q 0,6.8945 -2.4414,10.5274 -2.42188,3.6328 -7.16797,3.6328 -4.74609,0 -7.12891,-3.6133 -2.38281,-3.6133 -2.38281,-10.5469 0,-7.0898 2.30469,-10.625 2.32422,-3.5351 7.32422,-3.5351 4.86328,0 7.16797,3.5742 2.32421,3.5742 2.32421,10.5859 z m -3.57421,0 q 0,-5.957 -1.38672,-8.6328 -1.36719,-2.6758 -4.53125,-2.6758 -3.24219,0 -4.66797,2.6367 -1.40625,2.6368 -1.40625,8.6719 0,5.8594 1.42578,8.5742 1.44531,2.7149 4.57031,2.7149 3.10547,0 4.55078,-2.7735 1.44532,-2.7734 1.44532,-8.5156 z" />
      <path
         inkscape:connector-curvature="0"
         id="path1043"
         style="fill:none;stroke:#018bf7;stroke-opacity:1;stroke-width:1.74519368;stroke-miterlimit:4;stroke-dasharray:none"
         d="m 697.1557,1036.4764 v -2.9882 h 7.01172 v -21.1719 l -6.21094,4.4336 v -3.3203 l 6.50391,-4.4727 h 3.24219 v 24.5313 h 6.69921 v 2.9882 z" />
      <path
         inkscape:connector-curvature="0"
         id="path1045"
         style="fill:none;stroke:#018bf7;stroke-opacity:1;stroke-width:1.74519368;stroke-miterlimit:4;stroke-dasharray:none"
         d="m 736.60883,1011.8085 q -4.21875,6.4453 -5.95704,10.0976 -1.73828,3.6524 -2.61718,7.2071 -0.85938,3.5546 -0.85938,7.3632 h -3.67187 q 0,-5.2734 2.22656,-11.0937 2.24609,-5.8399 7.48047,-13.4375 h -14.78516 v -2.9883 h 18.1836 z" />
      <path
         inkscape:connector-curvature="0"
         id="path1047"
         style="fill:none;stroke:#018bf7;stroke-opacity:1;stroke-width:1.74519368;stroke-miterlimit:4;stroke-dasharray:none"
         d="m 752.40961,1010.8514 v -3.3593 h 3.51562 v 3.3593 z m 0,25.625 v -21.1328 h 3.51562 v 21.1328 z" />
      <path
         inkscape:connector-curvature="0"
         id="path1049"
         style="fill:none;stroke:#018bf7;stroke-opacity:1;stroke-width:1.74519368;stroke-miterlimit:4;stroke-dasharray:none"
         d="m 761.33539,1036.4764 v -28.9843 h 3.51562 v 28.9843 z" />
      <path
         inkscape:connector-curvature="0"
         id="path1051"
         style="fill:none;stroke:#018bf7;stroke-opacity:1;stroke-width:1.74519368;stroke-miterlimit:4;stroke-dasharray:none"
         d="m 783.65961,1036.4764 v -13.3984 q 0,-2.0898 -0.41016,-3.2422 -0.41016,-1.1523 -1.30859,-1.6601 -0.89844,-0.5079 -2.63672,-0.5079 -2.53906,0 -4.00391,1.7383 -1.46484,1.7383 -1.46484,4.8242 v 12.2461 h -3.51563 v -16.6211 q 0,-3.6914 -0.11718,-4.5117 h 3.32031 q 0.0195,0.098 0.0391,0.5274 0.0195,0.4297 0.0391,0.9961 0.0391,0.5468 0.0781,2.0898 h 0.0586 q 1.21094,-2.1875 2.79297,-3.0859 1.60156,-0.918 3.96484,-0.918 3.47657,0 5.07813,1.7383 1.62109,1.7187 1.62109,5.7031 v 14.082 z" />
      <path
         inkscape:connector-curvature="0"
         id="path1053"
         style="fill:none;stroke:#018bf7;stroke-opacity:1;stroke-width:1.74519368;stroke-miterlimit:4;stroke-dasharray:none"
         d="m 797.89789,1036.8671 q -3.1836,0 -4.78516,-1.6797 -1.60156,-1.6797 -1.60156,-4.6094 0,-3.2812 2.14844,-5.0391 2.16797,-1.7578 6.97265,-1.875 l 4.7461,-0.078 v -1.1523 q 0,-2.5782 -1.09375,-3.6914 -1.09375,-1.1133 -3.4375,-1.1133 -2.36328,0 -3.4375,0.8008 -1.07422,0.8007 -1.28907,2.5586 l -3.67187,-0.3321 q 0.89844,-5.7031 8.47656,-5.7031 3.98438,0 5.9961,1.8359 2.01171,1.8164 2.01171,5.2735 v 9.1015 q 0,1.5625 0.41016,2.3633 0.41016,0.7813 1.5625,0.7813 0.50781,0 1.15234,-0.1367 v 2.1875 q -1.32812,0.3125 -2.71484,0.3125 -1.95312,0 -2.85156,-1.0157 -0.87891,-1.0351 -0.9961,-3.2226 h -0.11718 q -1.34766,2.4218 -3.14453,3.4375 -1.77735,0.9961 -4.33594,0.9961 z m 0.80078,-2.6368 q 1.93359,0 3.4375,-0.8789 1.50391,-0.8789 2.36328,-2.4023 0.87891,-1.543 0.87891,-3.1641 v -1.7382 l -3.84766,0.078 q -2.48047,0.039 -3.76953,0.5078 -1.26953,0.4687 -1.95313,1.4453 -0.68359,0.9766 -0.68359,2.5586 0,1.7187 0.91797,2.6562 0.9375,0.9375 2.65625,0.9375 z" />
      <path
         inkscape:connector-curvature="0"
         id="path1055"
         style="fill:none;stroke:#018bf7;stroke-opacity:1;stroke-width:1.74519368;stroke-miterlimit:4;stroke-dasharray:none"
         d="m 828.19086,1036.4764 v -13.3984 q 0,-2.0898 -0.41016,-3.2422 -0.41016,-1.1523 -1.30859,-1.6601 -0.89844,-0.5079 -2.63672,-0.5079 -2.53906,0 -4.00391,1.7383 -1.46484,1.7383 -1.46484,4.8242 v 12.2461 h -3.51563 v -16.6211 q 0,-3.6914 -0.11718,-4.5117 h 3.32031 q 0.0195,0.098 0.0391,0.5274 0.0195,0.4297 0.0391,0.9961 0.0391,0.5468 0.0781,2.0898 h 0.0586 q 1.21094,-2.1875 2.79297,-3.0859 1.60156,-0.918 3.96484,-0.918 3.47657,0 5.07813,1.7383 1.62109,1.7187 1.62109,5.7031 v 14.082 z" />
      <path
         inkscape:connector-curvature="0"
         id="path1057"
         style="fill:none;stroke:#018bf7;stroke-opacity:1;stroke-width:1.74519368;stroke-miterlimit:4;stroke-dasharray:none"
         d="m 850.45648,1036.4764 v -13.3984 q 0,-2.0898 -0.41015,-3.2422 -0.41016,-1.1523 -1.3086,-1.6601 -0.89844,-0.5079 -2.63672,-0.5079 -2.53906,0 -4.0039,1.7383 -1.46485,1.7383 -1.46485,4.8242 v 12.2461 h -3.51562 v -16.6211 q 0,-3.6914 -0.11719,-4.5117 h 3.32031 q 0.0195,0.098 0.0391,0.5274 0.0195,0.4297 0.0391,0.9961 0.0391,0.5468 0.0781,2.0898 h 0.0586 q 1.21093,-2.1875 2.79297,-3.0859 1.60156,-0.918 3.96484,-0.918 3.47656,0 5.07812,1.7383 1.6211,1.7187 1.6211,5.7031 v 14.082 z" />
      <path
         inkscape:connector-curvature="0"
         id="path1059"
         style="fill:none;stroke:#018bf7;stroke-opacity:1;stroke-width:1.74519368;stroke-miterlimit:4;stroke-dasharray:none"
         d="m 860.33929,1044.7772 q -1.44531,0 -2.42187,-0.2148 v -2.6367 q 0.74219,0.1171 1.64062,0.1171 3.28125,0 5.19532,-4.8242 l 0.33203,-0.8398 -8.37891,-21.0352 h 3.75 l 4.45313,11.6797 q 0.0976,0.2735 0.23437,0.6641 0.13672,0.3711 0.87891,2.539 0.74219,2.168 0.80078,2.4219 l 1.36719,-3.8476 4.6289,-13.4571 h 3.71094 l -8.125,21.1328 q -1.30859,3.3789 -2.44141,5.0196 -1.13281,1.6601 -2.51953,2.4609 -1.36718,0.8203 -3.10547,0.8203 z" />
    </g>
  </g>
</svg>
