<?xml version="1.0" encoding="UTF-8" standalone="no"?>
<!-- Created with Inkscape (http://www.inkscape.org/) -->

<svg
   xmlns:dc="http://purl.org/dc/elements/1.1/"
   xmlns:cc="http://creativecommons.org/ns#"
   xmlns:rdf="http://www.w3.org/1999/02/22-rdf-syntax-ns#"
   xmlns:svg="http://www.w3.org/2000/svg"
   xmlns="http://www.w3.org/2000/svg"
   xmlns:xlink="http://www.w3.org/1999/xlink"
   xmlns:sodipodi="http://sodipodi.sourceforge.net/DTD/sodipodi-0.dtd"
   xmlns:inkscape="http://www.inkscape.org/namespaces/inkscape"
   width="96"
   height="96"
   viewBox="0 0 96.000001 96.000004"
   version="1.1"
   id="svg1072"
   inkscape:version="0.92.2 2405546, 2018-03-11"
   sodipodi:docname="samba.svg">
  <defs
     id="defs1066">
    <linearGradient
       y2="47.000011"
       x2="90"
       y1="47.000011"
       x1="6"
       gradientTransform="matrix(1.1071428,0,0,1.1071426,-5.142859,1022.484)"
       gradientUnits="userSpaceOnUse"
       id="linearGradient4071"
       xlink:href="#linearGradient6139-0"
       inkscape:collect="always" />
    <linearGradient
       id="linearGradient6139-0">
      <stop
         style="stop-color:#b2babc;stop-opacity:1"
         offset="0"
         id="stop6141-2" />
      <stop
         id="stop6151-0"
         offset="0.25"
         style="stop-color:#eaeded;stop-opacity:1" />
      <stop
         id="stop6147-1"
         offset="0.5"
         style="stop-color:#aeb9ba;stop-opacity:1" />
      <stop
         style="stop-color:#eaeded;stop-opacity:1"
         offset="0.75"
         id="stop6149-4" />
      <stop
         style="stop-color:#aeb9ba;stop-opacity:1"
         offset="1"
         id="stop6143-4" />
    </linearGradient>
    <linearGradient
       gradientUnits="userSpaceOnUse"
       y2="88.171875"
       x2="94.5"
       y1="88.171875"
       x1="1.5"
       id="linearGradient4129"
       xlink:href="#linearGradient3832-0-6-1-1"
       inkscape:collect="always"
       gradientTransform="translate(-2.95e-6,1026.5197)" />
    <linearGradient
       id="linearGradient3832-0-6-1-1">
      <stop
         id="stop3834-6-3-7-1"
         offset="0"
         style="stop-color:#000000;stop-opacity:1;" />
      <stop
         style="stop-color:#000000;stop-opacity:0.58823532;"
         offset="0.1"
         id="stop3872-2-4" />
      <stop
         id="stop3844-6-2-7-6"
         offset="0.89999998"
         style="stop-color:#000000;stop-opacity:0.58823532;" />
      <stop
         id="stop3836-5-0-2-9"
         offset="1"
         style="stop-color:#000000;stop-opacity:1;" />
    </linearGradient>
    <radialGradient
       r="43.199203"
       fy="44.892841"
       fx="13.948145"
       cy="44.892841"
       cx="13.948145"
       gradientTransform="matrix(0.97513378,0,0,0.04919072,35.459818,79.581722)"
       gradientUnits="userSpaceOnUse"
       id="radialGradient7462"
       xlink:href="#linearGradient3737"
       inkscape:collect="always" />
    <linearGradient
       id="linearGradient3737">
      <stop
         id="stop3739"
         style="stop-color:#ffffff;stop-opacity:1"
         offset="0" />
      <stop
         id="stop3741"
         style="stop-color:#ffffff;stop-opacity:0"
         offset="1" />
    </linearGradient>
    <linearGradient
       y2="14.514202"
       x2="50.527882"
       y1="-28.64156"
       x1="2.7713892"
       gradientUnits="userSpaceOnUse"
       id="linearGradient4767"
       xlink:href="#linearGradient3737"
       inkscape:collect="always" />
    <clipPath
       clipPathUnits="userSpaceOnUse"
       id="clipPath4156-4-1">
      <path
         style="opacity:0.6;fill:#ffffff;fill-opacity:1;stroke:none"
         d="m 27.046336,-55.695463 -14.21366,13.321486 h 0.06127 l 15.653407,21.770763 10.231384,-10.546177 C 38.561832,-32.30156 27.468089,-54.819245 27.046336,-55.695463 Z M 9.6468554,-39.382809 -5.2407289,-25.32124 15.987863,-7.8059573 26.372412,-18.382966 Z m 31.4906096,12.951445 -9.741259,9.713584 8.944804,12.4580526 7.780753,-7.5550056 z m -49.8397109,4.378822 -13.7541661,12.9822847 26.2830181,13.84571 0.06127,-0.0617 -0.122531,-0.0617 L 13.598503,-5.4007374 -8.7022409,-22.052595 Z m 38.0154159,7.400825 -9.802525,9.7752596 11.579232,9.5594001 7.62759,-7.40083 -8.669108,-11.0087257 z m 20.187073,5.6739697 -7.382526,7.2158 6.187844,8.54179 5.820249,-6.13651996 z m -32.195166,6.32154 -9.5574606,9.49772 13.6622686,7.1849703 7.933918,-7.6783603 z m 23.311629,2.37443004 -7.10683,6.93826996 8.362778,6.9074403 5.360756,-5.6739699 -0.06127,-0.0925 -0.0919,0.12335 -6.463539,-8.20258036 z m -8.730374,8.54178036 -7.505057,7.3391599 10.353916,5.45811 c 1.397496,-1.32103 5.67514,-6.12292 5.850882,-6.32154 z"
         id="path4158-0-8"
         inkscape:connector-curvature="0" />
    </clipPath>
    <linearGradient
       gradientUnits="userSpaceOnUse"
       y2="7.0165396"
       x2="45.447727"
       y1="92.539597"
       x1="45.447727"
       gradientTransform="scale(1.0058652,0.994169)"
       id="ButtonShadow-16">
      <stop
         id="stop3750-6"
         offset="0"
         style="stop-color:#000000;stop-opacity:1;" />
      <stop
         id="stop3752-4"
         offset="1"
         style="stop-color:#000000;stop-opacity:0.58823532;" />
    </linearGradient>
    <clipPath
       id="clipPath4355-7"
       clipPathUnits="userSpaceOnUse">
      <rect
         ry="6"
         rx="6"
         y="6"
         x="6"
         height="80"
         width="84"
         id="rect4357-5"
         style="fill:#ffffff;fill-opacity:1;fill-rule:nonzero;stroke:none" />
    </clipPath>
    <clipPath
       id="clipPath4355-9"
       clipPathUnits="userSpaceOnUse">
      <rect
         ry="6"
         rx="6"
         y="6"
         x="6"
         height="80"
         width="84"
         id="rect4357-1"
         style="fill:#ffffff;fill-opacity:1;fill-rule:nonzero;stroke:none" />
    </clipPath>
    <clipPath
       id="clipPath4355-1"
       clipPathUnits="userSpaceOnUse">
      <rect
         ry="6"
         rx="6"
         y="6"
         x="6"
         height="80"
         width="84"
         id="rect4357-9"
         style="fill:#ffffff;fill-opacity:1;fill-rule:nonzero;stroke:none" />
    </clipPath>
    <clipPath
       id="clipPath3943-52-0"
       clipPathUnits="userSpaceOnUse">
      <path
         inkscape:connector-curvature="0"
         style="color:#000000;display:inline;overflow:visible;visibility:visible;opacity:0.8;fill:#ff00ff;fill-opacity:1;fill-rule:nonzero;stroke:none;stroke-width:1;marker:none;enable-background:accumulate"
         d="m 69.78125,20.84375 -5,3.4375 c 5.586891,5.537137 9,13.327613 9,21.8125 0,8.434478 -3.37723,16.095981 -8.90625,21.625 l 5,3.4375 C 76.078226,64.5762 80,55.843726 80,46.09375 c 2e-6,-9.796556 -3.962955,-18.660417 -10.21875,-25.25 z M 40,24.0625 28.90625,36.21875 H 21.5 c -0.823281,0 -1.5,0.676717 -1.5,1.5 v 1 14.84375 1 c 0,0.823281 0.684121,1.610161 1.5,1.5 h 7.40625 L 40,68 V 66 26.0625 Z m 20.59375,3.28125 -5,3.4375 L 55.5,30.875 c 3.93815,3.890071 6.40625,9.25018 6.40625,15.21875 0,5.920869 -2.42961,11.148358 -6.3125,15.03125 l 0.09375,0.09375 5.09375,3.4375 c 4.475428,-4.908367 7.25,-11.402005 7.25,-18.5625 0,-7.230696 -2.87904,-13.83107 -7.4375,-18.75 z m -9.25,6.5 -5.21875,3.625 c 2.222384,2.217802 3.71875,5.239596 3.71875,8.625 0,3.336509 -1.458847,6.227712 -3.625,8.4375 l 5.21875,3.625 c 2.822412,-3.236947 4.53125,-7.43414 4.53125,-12.0625 0,-4.672601 -1.754155,-9.001351 -4.625,-12.25 z"
         id="path3945-4-1" />
    </clipPath>
    <linearGradient
       id="linearGradient4167"
       inkscape:collect="always">
      <stop
         id="stop4169"
         offset="0"
         style="stop-color:#000000;stop-opacity:1;" />
      <stop
         id="stop4171"
         offset="1"
         style="stop-color:#000000;stop-opacity:0;" />
    </linearGradient>
    <linearGradient
       id="linearGradient4153">
      <stop
         id="stop4155"
         offset="0"
         style="stop-color:#ffff00;stop-opacity:1;" />
      <stop
         id="stop4157"
         offset="1"
         style="stop-color:#ffab00;stop-opacity:1;" />
    </linearGradient>
    <linearGradient
       id="linearGradient3894">
      <stop
         id="stop3896"
         offset="0"
         style="stop-color:#1282ff;stop-opacity:1;" />
      <stop
         id="stop3898"
         offset="1"
         style="stop-color:#0d588c;stop-opacity:1;" />
    </linearGradient>
    <linearGradient
       id="linearGradient3861">
      <stop
         id="stop3863"
         offset="0"
         style="stop-color:#1e1e1e;stop-opacity:1;" />
      <stop
         id="stop3865"
         offset="1"
         style="stop-color:#000000;stop-opacity:1;" />
    </linearGradient>
    <radialGradient
       r="42.150002"
       fy="46.50005"
       fx="48"
       cy="46.50005"
       cx="48"
       gradientUnits="userSpaceOnUse"
       id="radialGradient4027"
       xlink:href="#linearGradient4049"
       inkscape:collect="always" />
    <linearGradient
       id="linearGradient4049">
      <stop
         style="stop-color:#d16d14;stop-opacity:1;"
         offset="0"
         id="stop3859" />
      <stop
         id="stop4053"
         offset="1"
         style="stop-color:#d26b0f;stop-opacity:1;" />
    </linearGradient>
    <linearGradient
       gradientTransform="matrix(1.1232873,0,0,1.1364669,-4.801255,-10.126158)"
       y2="31.02902"
       x2="90.002403"
       y1="31.02902"
       x1="5.9975944"
       gradientUnits="userSpaceOnUse"
       id="linearGradient4029"
       xlink:href="#linearGradient3832"
       inkscape:collect="always" />
    <linearGradient
       id="linearGradient3832">
      <stop
         id="stop3834"
         offset="0"
         style="stop-color:#d8d8d8;stop-opacity:0;" />
      <stop
         style="stop-color:#ffffff;stop-opacity:1;"
         offset="0.05"
         id="stop3842" />
      <stop
         id="stop3846"
         offset="0.1"
         style="stop-color:#d8d8d8;stop-opacity:0;" />
      <stop
         style="stop-color:#d8d8d8;stop-opacity:0;"
         offset="0.5"
         id="stop3840" />
      <stop
         id="stop3844"
         offset="0.89999998"
         style="stop-color:#d8d8d8;stop-opacity:0;" />
      <stop
         style="stop-color:#ffffff;stop-opacity:1;"
         offset="0.94999999"
         id="stop3848" />
      <stop
         id="stop3836"
         offset="1"
         style="stop-color:#d8d8d8;stop-opacity:0;" />
    </linearGradient>
    <linearGradient
       id="linearGradient4188-5">
      <stop
         id="stop4190-0"
         offset="0"
         style="stop-color:#ffffff;stop-opacity:0;" />
      <stop
         style="stop-color:#ffffff;stop-opacity:1;"
         offset="0.15000001"
         id="stop4198-3" />
      <stop
         style="stop-color:#ffffff;stop-opacity:1;"
         offset="0.85000002"
         id="stop4196-6" />
      <stop
         id="stop4192-1"
         offset="1"
         style="stop-color:#ffffff;stop-opacity:0;" />
    </linearGradient>
    <linearGradient
       id="linearGradient3255">
      <stop
         id="stop3257"
         offset="0"
         style="stop-color:#eb6d08;stop-opacity:1;" />
      <stop
         id="stop3259"
         offset="1"
         style="stop-color:#d27206;stop-opacity:1;" />
    </linearGradient>
    <linearGradient
       gradientTransform="matrix(1.1232873,0,0,1.0563239,-5.6093769,-3.1660074)"
       y2="47.472744"
       x2="89.924011"
       y1="47.472744"
       x1="6.0759845"
       gradientUnits="userSpaceOnUse"
       id="linearGradient4035"
       xlink:href="#linearGradient3832"
       inkscape:collect="always" />
    <linearGradient
       id="linearGradient3262">
      <stop
         id="stop3264"
         offset="0"
         style="stop-color:#000000;stop-opacity:1;" />
      <stop
         style="stop-color:#ffffff;stop-opacity:1;"
         offset="0.05"
         id="stop3266" />
      <stop
         id="stop3268"
         offset="0.1"
         style="stop-color:#000000;stop-opacity:1;" />
      <stop
         style="stop-color:#000000;stop-opacity:0.49803922;"
         offset="0.5"
         id="stop3270" />
      <stop
         id="stop3272"
         offset="0.89999998"
         style="stop-color:#000000;stop-opacity:1;" />
      <stop
         style="stop-color:#ffffff;stop-opacity:1;"
         offset="0.94999999"
         id="stop3274" />
      <stop
         id="stop3276"
         offset="1"
         style="stop-color:#000000;stop-opacity:1;" />
    </linearGradient>
    <linearGradient
       gradientTransform="matrix(1.1232873,0,0,1.1364669,-9.0438957,-3.8632118)"
       y2="80.625"
       x2="89.75"
       y1="80.625"
       x1="6.25"
       gradientUnits="userSpaceOnUse"
       id="linearGradient4037"
       xlink:href="#linearGradient3832"
       inkscape:collect="always" />
    <linearGradient
       gradientTransform="matrix(1.1232873,0,0,1.1364669,-6.0134379,-11.540371)"
       y2="83.625"
       x2="89.75"
       y1="83.625"
       x1="6.25"
       gradientUnits="userSpaceOnUse"
       id="linearGradient4039"
       xlink:href="#linearGradient3832"
       inkscape:collect="always" />
    <linearGradient
       inkscape:collect="always"
       xlink:href="#linearGradient3179-1"
       id="linearGradient3092"
       gradientUnits="userSpaceOnUse"
       gradientTransform="matrix(0.7053571,0,0,0.7053571,35.375029,9.6963751)"
       x1="45.5"
       y1="0.48100731"
       x2="45.5"
       y2="96.024994" />
    <linearGradient
       id="linearGradient3179-1">
      <stop
         offset="0"
         style="stop-color:#000000;stop-opacity:0.56910568"
         id="stop3181-3" />
      <stop
         offset="0.07017544"
         style="stop-color:#000000;stop-opacity:0"
         id="stop3187-1" />
      <stop
         offset="0.20271669"
         style="stop-color:#750202;stop-opacity:0.09019608"
         id="stop3194-1" />
      <stop
         offset="0.26648945"
         style="stop-color:#e44404;stop-opacity:0.13725491;"
         id="stop3200-0" />
      <stop
         offset="0.35024518"
         style="stop-color:#fffbee;stop-opacity:0.18431373;"
         id="stop3190-3" />
      <stop
         offset="0.43899667"
         style="stop-color:#b70a03;stop-opacity:0.13725489;"
         id="stop3198-4" />
      <stop
         offset="0.49777371"
         style="stop-color:#700000;stop-opacity:0.09019608"
         id="stop3192-0" />
      <stop
         offset="0.65896344"
         style="stop-color:#fd5200;stop-opacity:0.19215687;"
         id="stop3196-3" />
      <stop
         offset="1"
         style="stop-color:#7c0000;stop-opacity:0.60975611"
         id="stop3183-9" />
    </linearGradient>
    <linearGradient
       inkscape:collect="always"
       xlink:href="#linearGradient3179-1"
       id="linearGradient3361"
       gradientUnits="userSpaceOnUse"
       gradientTransform="matrix(0.7053571,0,0,0.7053571,34.803601,10.553518)"
       x1="45.5"
       y1="0.48100731"
       x2="45.5"
       y2="96.024994" />
    <radialGradient
       gradientUnits="userSpaceOnUse"
       gradientTransform="matrix(1.354083,-0.50470422,0.43180158,1.1584908,429.18517,-176.67478)"
       r="46.428409"
       fy="44.519756"
       fx="48.207397"
       cy="44.519756"
       cx="48.207397"
       id="radialGradient3857"
       xlink:href="#linearGradient3737"
       inkscape:collect="always" />
    <radialGradient
       gradientUnits="userSpaceOnUse"
       gradientTransform="matrix(1,0,0,0.79447305,0,9.6350811)"
       r="47.087845"
       fy="46.87989"
       fx="48.308414"
       cy="46.87989"
       cx="48.308414"
       id="radialGradient3869"
       xlink:href="#linearGradient4049"
       inkscape:collect="always" />
    <radialGradient
       gradientUnits="userSpaceOnUse"
       gradientTransform="matrix(1.6991473,0.00742092,-9.9578932e-5,0.02348932,-31.241655,-183.43815)"
       r="36.915546"
       fy="-187.51126"
       fx="44.658661"
       cy="-187.51126"
       cx="44.658661"
       id="radialGradient3910"
       xlink:href="#linearGradient3737"
       inkscape:collect="always" />
    <radialGradient
       gradientUnits="userSpaceOnUse"
       gradientTransform="matrix(0.50683902,-0.00401321,0.00531993,0.67186928,20.061247,22.594801)"
       r="27.977107"
       fy="68.352608"
       fx="41.416252"
       cy="68.352608"
       cx="41.416252"
       id="radialGradient4159"
       xlink:href="#linearGradient4153"
       inkscape:collect="always" />
    <radialGradient
       gradientUnits="userSpaceOnUse"
       r="1.9192898"
       fy="35.895924"
       fx="31.415745"
       cy="35.895924"
       cx="31.415745"
       id="radialGradient4173"
       xlink:href="#linearGradient4167"
       inkscape:collect="always" />
    <radialGradient
       gradientTransform="matrix(2.5246684,0.19414892,-0.13049585,1.6969385,-52.226271,-31.831674)"
       gradientUnits="userSpaceOnUse"
       r="8.0778262"
       fy="35.289833"
       fx="37.274628"
       cy="35.289833"
       cx="37.274628"
       id="radialGradient4355"
       xlink:href="#linearGradient3737"
       inkscape:collect="always" />
    <radialGradient
       inkscape:collect="always"
       xlink:href="#linearGradient3737"
       id="radialGradient958"
       gradientUnits="userSpaceOnUse"
       gradientTransform="matrix(0.97513378,0,0,0.04919072,35.310862,1105.6864)"
       cx="13.948145"
       cy="44.892841"
       fx="13.948145"
       fy="44.892841"
       r="43.199203" />
    <filter
       inkscape:collect="always"
       style="color-interpolation-filters:sRGB"
       id="filter1140"
       x="-0.034099837"
       width="1.0681997"
       y="-0.038124427"
       height="1.0762489">
      <feGaussianBlur
         inkscape:collect="always"
         stdDeviation="1.1569191"
         id="feGaussianBlur1142" />
    </filter>
    <filter
       inkscape:collect="always"
       style="color-interpolation-filters:sRGB"
       id="filter1188"
       x="-0.013743153"
       width="1.0274863"
       y="-0.09460892"
       height="1.1892178">
      <feGaussianBlur
         inkscape:collect="always"
         stdDeviation="0.47289063"
         id="feGaussianBlur1190" />
    </filter>
  </defs>
  <sodipodi:namedview
     id="base"
     pagecolor="#ffffff"
     bordercolor="#666666"
     borderopacity="1.0"
     inkscape:pageopacity="0.0"
     inkscape:pageshadow="2"
     inkscape:zoom="3.5050671"
     inkscape:cx="49.959902"
     inkscape:cy="37.79899"
     inkscape:document-units="px"
     inkscape:current-layer="layer1"
     showgrid="false"
     inkscape:showpageshadow="false"
     units="px"
     inkscape:lockguides="true"
     inkscape:window-width="1920"
     inkscape:window-height="1023"
     inkscape:window-x="0"
     inkscape:window-y="28"
     inkscape:window-maximized="1"
     inkscape:snap-global="true"
     showguides="true"
     inkscape:guide-bbox="true">
    <sodipodi:guide
       position="60.769166,62.480975"
       orientation="0,1"
       id="guide1192"
       inkscape:locked="true" />
    <sodipodi:guide
       position="51.924827,22.253498"
       orientation="0,1"
       id="guide1194"
       inkscape:locked="true" />
    <sodipodi:guide
       position="47.93061,71.325314"
       orientation="1,0"
       id="guide1200"
       inkscape:locked="true" />
  </sodipodi:namedview>
  <metadata
     id="metadata1069">
    <rdf:RDF>
      <cc:Work
         rdf:about="">
        <dc:format>image/svg+xml</dc:format>
        <dc:type
           rdf:resource="http://purl.org/dc/dcmitype/StillImage" />
        <dc:title></dc:title>
        <dc:date>2017</dc:date>
        <dc:creator>
          <cc:Agent>
            <dc:title>Cristian Pozzessere &quot;ilnanny&quot;</dc:title>
          </cc:Agent>
        </dc:creator>
        <dc:subject>
          <rdf:Bag>
            <rdf:li>Global language</rdf:li>
          </rdf:Bag>
        </dc:subject>
        <dc:description>Playing with Inkscape on Gnu/Linux O. S.</dc:description>
        <dc:contributor>
          <cc:Agent>
            <dc:title>In the night, alone like a dog.</dc:title>
          </cc:Agent>
        </dc:contributor>
        <cc:license
           rdf:resource="http://creativecommons.org/licenses/by-sa/4.0/" />
      </cc:Work>
      <cc:License
         rdf:about="http://creativecommons.org/licenses/by-sa/4.0/">
        <cc:permits
           rdf:resource="http://creativecommons.org/ns#Reproduction" />
        <cc:permits
           rdf:resource="http://creativecommons.org/ns#Distribution" />
        <cc:requires
           rdf:resource="http://creativecommons.org/ns#Notice" />
        <cc:requires
           rdf:resource="http://creativecommons.org/ns#Attribution" />
        <cc:permits
           rdf:resource="http://creativecommons.org/ns#DerivativeWorks" />
        <cc:requires
           rdf:resource="http://creativecommons.org/ns#ShareAlike" />
      </cc:License>
    </rdf:RDF>
  </metadata>
  <g
     inkscape:label="Livello 1"
     inkscape:groupmode="layer"
     id="layer1"
     transform="translate(0,-1026.5197)">
    <rect
       style="opacity:1;fill:#dbdcdd;fill-opacity:1;stroke:none;stroke-width:1.19974589;stroke-linecap:round;stroke-miterlimit:4;stroke-dasharray:none;stroke-opacity:1;paint-order:stroke fill markers"
       id="rect1058"
       width="38.678299"
       height="79.769211"
       x="-72.56646"
       y="1014.9378" />
    <path
       style="display:inline;opacity:0.15;fill:#000000;fill-opacity:1;fill-rule:nonzero;stroke:none"
       d="M 89.142854,1026.5197 H 6.8571346 c -3.7988479,0 -6.85713515,3.0583 -6.85713515,6.8572 v 82.2857 c 0,3.7988 3.05828725,6.8571 6.85713515,6.8571 H 89.142854 c 3.798857,0 6.857147,-3.0583 6.857147,-6.8571 v -82.2857 c 0,-3.7989 -3.05829,-6.8572 -6.857147,-6.8572 z"
       id="path3288"
       inkscape:connector-curvature="0" />
    <path
       inkscape:connector-curvature="0"
       id="path4085"
       d="M 88.499998,1027.2697 H 7.4999906 c -3.7394919,0 -6.74999295,3.0105 -6.74999295,6.75 v 81 c 0,3.7395 3.01050105,6.75 6.74999295,6.75 H 88.499998 c 3.739503,0 6.750003,-3.0105 6.750003,-6.75 v -81 c 0,-3.7395 -3.0105,-6.75 -6.750003,-6.75 z"
       style="display:inline;opacity:0.15;fill:#000000;fill-opacity:1;fill-rule:nonzero;stroke:none" />
    <path
       style="display:inline;fill:url(#linearGradient4071);fill-opacity:1;fill-rule:nonzero;stroke:none"
       d="M 87.857137,1028.0197 H 8.1428547 c -3.6801431,0 -6.6428566,2.9627 -6.6428566,6.6429 v 79.7143 c 0,3.6801 2.9627135,6.6428 6.6428566,6.6428 H 87.857137 c 3.680143,0 6.642854,-2.9627 6.642854,-6.6428 v -79.7143 c 0,-3.6802 -2.962711,-6.6429 -6.642854,-6.6429 z"
       id="rect4251-1"
       inkscape:connector-curvature="0" />
    <path
       inkscape:connector-curvature="0"
       id="rect2419-1"
       d="M 84.876959,1032.4788 H 11.564972 c -3.384572,0 -6.1093257,2.4872 -6.1093257,5.5767 v 66.921 c 0,3.0895 2.7247537,5.5767 6.1093257,5.5767 h 73.311987 c 3.384572,0 6.10934,-2.4872 6.10934,-5.5767 v -66.921 c 0,-3.0895 -2.724768,-5.5767 -6.10934,-5.5767 z"
       style="display:inline;fill:#008ae8;fill-opacity:1;fill-rule:nonzero;stroke:#103b59;stroke-width:0.29184848;stroke-miterlimit:4;stroke-dasharray:none;stroke-opacity:1" />
    <path
       sodipodi:nodetypes="sssssssss"
       inkscape:connector-curvature="0"
       id="path4843"
       d="m 9.0087219,1097.5214 c 0,3.5489 3.2623831,6.4489 7.2548341,6.4489 h 61.666076 c 3.99245,0 7.254832,-2.9 7.254832,-6.4489 v -55.7205 c 0,-3.5489 -3.262382,-6.4489 -7.254832,-6.4489 H 16.263556 c -3.992451,0 -7.2548341,2.9 -7.2548341,6.4489 z"
       style="color:#000000;font-style:normal;font-variant:normal;font-weight:normal;font-stretch:normal;font-size:medium;line-height:normal;font-family:Sans;-inkscape-font-specification:Sans;text-indent:0;text-align:start;text-decoration:none;text-decoration-line:none;letter-spacing:normal;word-spacing:normal;text-transform:none;writing-mode:lr-tb;direction:ltr;baseline-shift:baseline;text-anchor:start;display:inline;overflow:visible;visibility:visible;opacity:0.13718411;fill:#ffffff;fill-opacity:1;fill-rule:nonzero;stroke:none;stroke-width:1.91999805;marker:none;enable-background:accumulate" />
    <path
       style="color:#000000;font-style:normal;font-variant:normal;font-weight:normal;font-stretch:normal;font-size:medium;line-height:normal;font-family:Sans;-inkscape-font-specification:Sans;text-indent:0;text-align:start;text-decoration:none;text-decoration-line:none;letter-spacing:normal;word-spacing:normal;text-transform:none;writing-mode:lr-tb;direction:ltr;baseline-shift:baseline;text-anchor:start;display:inline;overflow:visible;visibility:visible;opacity:0.24548735;fill:#ffffff;fill-opacity:1;fill-rule:nonzero;stroke:none;stroke-width:1.91999805;marker:none;enable-background:accumulate"
       d="m 9.7371664,1097.5214 c 0,3.0587 2.7956836,5.5438 6.2366106,5.5438 h 62.684298 c 3.440927,0 6.236611,-2.4851 6.236611,-5.5438 v -55.7205 c 0,-3.0587 -2.795684,-5.5438 -6.236611,-5.5438 H 15.973777 c -3.440927,0 -6.2366106,2.4851 -6.2366106,5.5438 z"
       id="path4849"
       inkscape:connector-curvature="0"
       sodipodi:nodetypes="sssssssss" />
    <path
       style="display:inline;fill:#eafdfe;fill-opacity:1;fill-rule:nonzero;stroke:#b4b4b4;stroke-width:0.41990432;stroke-miterlimit:4;stroke-dasharray:none;stroke-opacity:1"
       d="m 15.960186,1037.3453 c -2.894595,0 -5.212182,2.0292 -5.212182,4.5492 v 27.8069 c 0,-2.52 2.317587,-4.5493 5.212182,-4.5493 h 62.716138 c 2.894594,0 5.212181,2.0293 5.212181,4.5493 v -27.8069 c 0,-2.52 -2.317587,-4.5492 -5.212181,-4.5492 z"
       id="path4046"
       inkscape:connector-curvature="0" />
    <path
       inkscape:connector-curvature="0"
       id="path4820"
       d="m 10.755389,1098.0022 c 0.266601,2.3476 2.504846,4.1579 5.218388,4.1579 h 0.477292 c -2.640951,-0.237 -4.677458,-2.2266 -4.677458,-4.6387 v -55.7205 c 0,-2.4121 2.036507,-4.4017 4.677458,-4.6387 h -0.477292 c -2.894445,0 -5.218388,2.0658 -5.218388,4.6387 v 55.7205 c 0,0.1608 -0.01777,0.3243 0,0.4808 z"
       style="display:inline;opacity:0.5;fill:#ffffff;fill-opacity:1;fill-rule:nonzero;stroke:none;stroke-width:0.95999902" />
    <path
       inkscape:connector-curvature="0"
       id="path3899"
       d="m 15.969747,1037.3195 c -2.894595,0 -5.21218,2.0292 -5.21218,4.5492 v 4.9071 c 0,-2.52 2.317585,-4.5492 5.21218,-4.5492 h 62.716139 c 2.894595,0 5.212181,2.0292 5.212181,4.5492 v -4.9071 c 0,-2.52 -2.317586,-4.5492 -5.212181,-4.5492 z"
       style="display:inline;fill:#ffffff;fill-opacity:1;fill-rule:nonzero;stroke:#b4b4b4;stroke-width:0.41990432;stroke-miterlimit:4;stroke-dasharray:none;stroke-opacity:1" />
    <path
       style="display:inline;fill:#fff7fe;fill-opacity:1;fill-rule:nonzero;stroke:#b4b4b4;stroke-width:0.41984349;stroke-miterlimit:4;stroke-dasharray:none;stroke-opacity:1"
       d="m 15.93058,1040.6535 c -2.893757,0 -5.210672,2.0293 -5.210672,4.5493 v 4.9071 c 0,-2.52 2.316915,-4.5493 5.210672,-4.5493 h 62.697971 c 2.893757,0 5.210672,2.0293 5.210672,4.5493 v -4.9071 c 0,-2.52 -2.316915,-4.5493 -5.210672,-4.5493 z"
       id="path3086"
       inkscape:connector-curvature="0" />
    <path
       inkscape:connector-curvature="0"
       id="path4810"
       d="m 77.162562,1088.1093 h 1.495513 c 2.894445,0 5.218388,-1.6192 5.218388,-3.6359 v -43.6753 c 0,-2.0167 -2.323943,-3.6359 -5.218388,-3.6359 h -1.495513 c 2.64095,0.1858 4.677457,1.7453 4.677457,3.6359 v 43.6753 c 0,1.8907 -2.036507,3.4502 -4.677457,3.6359 z"
       style="display:inline;opacity:0.1;fill:#ffffff;fill-opacity:1;fill-rule:nonzero;stroke:none;stroke-width:0.95999902" />
    <path
       style="display:inline;opacity:0.1;fill:#ffffff;fill-opacity:1;fill-rule:nonzero;stroke:none;stroke-width:0.95999902"
       d="m 16.797968,1102.1601 h -1.495514 c -2.894445,0 -5.218389,-2.0658 -5.218389,-4.6387 v -55.7205 c 0,-2.5729 2.323944,-4.6387 5.218389,-4.6387 h 1.495514 c -2.640951,0.237 -4.677458,2.2266 -4.677458,4.6387 v 55.7205 c 0,2.4121 2.036507,4.4017 4.677458,4.6387 z"
       id="path3898"
       inkscape:connector-curvature="0" />
    <path
       style="display:inline;fill:#0c9bff;fill-opacity:1;fill-rule:nonzero;stroke:#f5fafd;stroke-width:1;stroke-linecap:round;stroke-miterlimit:4;stroke-dasharray:none;stroke-opacity:1;paint-order:stroke fill markers"
       d="m 5.6773488,1106.2369 c 0,2.4115 2.7767411,4.3528 6.2258902,4.3528 h 72.635467 c 3.449142,0 6.22589,-1.9413 6.22589,-4.3528 v -44.9788 c 0,-2.4114 -2.776748,-4.3528 -6.22589,-4.3528 H 44.913462 l -4.280305,-4.9875 c -1.051851,-1.3571 -3.108802,-2.2671 -5.480078,-2.2671 h -23.24984 c -3.4491491,0 -6.2258902,1.9413 -6.2258902,4.3528 z"
       id="path4187"
       inkscape:connector-curvature="0"
       sodipodi:nodetypes="ssssssccssss" />
    <path
       style="opacity:0.375;fill:none;stroke:#000000;stroke-width:1.42534578px;stroke-linecap:butt;stroke-linejoin:miter;stroke-opacity:1"
       d="m 12.843591,1104.811 h 68.036045 v 0 0"
       id="path4114"
       inkscape:connector-curvature="0" />
    <path
       inkscape:connector-curvature="0"
       id="path4116"
       d="m 12.843591,1101.4043 h 68.036045 v 0 0"
       style="opacity:0.375;fill:none;stroke:#000000;stroke-width:1.42534578px;stroke-linecap:butt;stroke-linejoin:miter;stroke-opacity:1" />
    <path
       style="display:inline;opacity:0.85;fill:none;fill-opacity:1;fill-rule:nonzero;stroke:#fbfbfb;stroke-width:0.99260569;enable-background:new;stroke-opacity:1;filter:url(#filter1140)"
       d="m 11.78711,1034.758 c -2.5408752,0.2633 -4.4999999,2.474 -4.4999999,5.1543 v 61.916 c 0,2.6803 1.9591247,4.8928 4.4999999,5.1562 h 0.980468 c -2.540869,-0.2634 -4.4999991,-2.4759 -4.4999991,-5.1562 v -61.916 c 0,-2.6803 1.9591301,-4.891 4.4999991,-5.1543 z m 71.447265,0.6055 c 2.540876,0.2634 4.5,2.4739 4.5,5.1542 v 61.9161 c 0,2.6803 -1.959124,4.8909 -4.5,5.1543 h 0.978516 c 2.540875,-0.2634 4.5,-2.474 4.5,-5.1543 v -61.9161 c 0,-2.6803 -1.959125,-4.8908 -4.5,-5.1542 z"
       id="path4815"
       inkscape:connector-curvature="0" />
    <path
       inkscape:connector-curvature="0"
       id="path3281"
       d="m 48.036403,1062.2653 c -9.558489,0 -19.162786,3.639 -26.455666,10.8676 l 4.951593,4.8378 c 11.878554,-11.7737 31.129589,-11.7737 43.008145,0 l 4.880875,-4.8378 c -7.292904,-7.2286 -16.826458,-10.8676 -26.384947,-10.8676 z m 0,9.5354 c -7.096454,0 -14.179757,2.6964 -19.594173,8.063 l 4.668648,4.6276 c 8.232115,-8.1595 21.618935,-8.1595 29.85108,0 l 4.668619,-4.6276 c -5.414381,-5.3666 -12.497722,-8.063 -19.594174,-8.063 z m 0,8.9746 c -4.779241,0 -9.581395,1.7845 -13.227833,5.3987 l 13.227833,13.1111 13.15712,-13.0409 c -0.01216,-0.014 0.01216,-0.058 0,-0.07 -3.646461,-3.6144 -8.377876,-5.3988 -13.15712,-5.3988 z"
       style="fill:#ececec;fill-opacity:0.94713602;stroke:none;stroke-width:0.80696589;stroke-opacity:1" />
    <path
       inkscape:connector-curvature="0"
       id="path4989"
       d="m 9.8250777,1031.2492 c -3.116621,0 -5.667965,2.5395 -5.667965,5.646 v 69.278 c 0,3.1065 2.551344,5.646 5.667965,5.646 H 86.616863 c 3.116621,0 5.667968,-2.5395 5.667968,-5.646 v -69.278 c 0,-3.1065 -2.551347,-5.646 -5.667968,-5.646 z m 0,2.3194 H 86.616863 c 1.888099,0 3.352022,1.4801 3.352022,3.3266 v 69.278 c 0,1.8465 -1.463923,3.3266 -3.352022,3.3266 H 9.8250777 c -1.888099,0 -3.352022,-1.4801 -3.352022,-3.3266 v -69.278 c 0,-1.8465 1.463923,-3.3266 3.352022,-3.3266 z"
       style="color:#000000;font-style:normal;font-variant:normal;font-weight:normal;font-stretch:normal;font-size:medium;line-height:normal;font-family:Sans;-inkscape-font-specification:Sans;text-indent:0;text-align:start;text-decoration:none;text-decoration-line:none;letter-spacing:normal;word-spacing:normal;text-transform:none;writing-mode:lr-tb;direction:ltr;baseline-shift:baseline;text-anchor:start;display:inline;overflow:visible;visibility:visible;fill:#1f2024;fill-opacity:1;stroke:none;stroke-width:2.3755002;marker:none;enable-background:accumulate" />
    <path
       inkscape:connector-curvature="0"
       style="display:inline;opacity:0.65818182;fill:url(#linearGradient4129);fill-opacity:1;fill-rule:nonzero;stroke:none"
       d="m 1.499997,1108.3635 v 6 c 0,3.6801 2.9761066,6.6562 6.6562497,6.6562 H 87.843747 c 3.680143,0 6.656254,-2.9761 6.656254,-6.6562 v -6 c 0,3.6801 -2.976111,6.6562 -6.656254,6.6562 H 8.1562467 c -3.6801431,0 -6.6562496,-2.9761 -6.6562497,-6.6562 z"
       id="path4118" />
    <rect
       style="opacity:1;fill:url(#radialGradient958);fill-opacity:1;stroke:none"
       id="rect4131"
       width="84.250008"
       height="4.25"
       x="6.7871666"
       y="1105.7698"
       rx="0"
       ry="4.25" />
    <rect
       transform="matrix(1.0692451,0,0,1.0476829,4.2952237,1064.9987)"
       style="opacity:0.51499999;fill:url(#linearGradient4767);fill-opacity:1;stroke:none"
       id="rect4146"
       width="75.965775"
       height="69.024437"
       x="2"
       y="-30"
       rx="3.9569874"
       ry="3.9569881"
       clip-path="url(#clipPath4156-4-1)" />
    <text
       xml:space="preserve"
       style="font-style:normal;font-weight:normal;font-size:5.21338224px;line-height:1.25;font-family:sans-serif;letter-spacing:0px;word-spacing:0px;fill:#000000;fill-opacity:1;stroke:none;stroke-width:0.65167278"
       x="-67.107582"
       y="1035.2698"
       id="text1018"><tspan
         sodipodi:role="line"
         id="tspan1016"
         x="-67.107582"
         y="1035.2698"
         style="stroke-width:0.65167278">eaededff</tspan></text>
    <text
       xml:space="preserve"
       style="font-style:normal;font-weight:normal;font-size:5.21338224px;line-height:1.25;font-family:sans-serif;letter-spacing:0px;word-spacing:0px;fill:#000000;fill-opacity:1;stroke:none;stroke-width:0.65167278"
       x="-67.139404"
       y="1029.6238"
       id="text1022"><tspan
         sodipodi:role="line"
         id="tspan1020"
         x="-67.139404"
         y="1029.6238"
         style="stroke-width:0.65167278">b2babcff</tspan></text>
    <text
       xml:space="preserve"
       style="font-style:normal;font-weight:normal;font-size:5.21338224px;line-height:1.25;font-family:sans-serif;letter-spacing:0px;word-spacing:0px;fill:#000000;fill-opacity:1;stroke:none;stroke-width:0.65167278"
       x="-67.139404"
       y="1040.9158"
       id="text1022-3"><tspan
         sodipodi:role="line"
         id="tspan1020-6"
         x="-67.139404"
         y="1040.9158"
         style="stroke-width:0.65167278">b2babcff</tspan></text>
    <text
       xml:space="preserve"
       style="font-style:normal;font-weight:normal;font-size:5.21338224px;line-height:1.25;font-family:sans-serif;letter-spacing:0px;word-spacing:0px;fill:#000000;fill-opacity:1;stroke:none;stroke-width:0.65167278"
       x="-67.139404"
       y="1052.2078"
       id="text1022-7"><tspan
         sodipodi:role="line"
         id="tspan1020-5"
         x="-67.139404"
         y="1052.2078"
         style="stroke-width:0.65167278">b2babcff</tspan></text>
    <text
       id="text1052"
       y="1046.5618"
       x="-67.107582"
       style="font-style:normal;font-weight:normal;font-size:5.21338224px;line-height:1.25;font-family:sans-serif;letter-spacing:0px;word-spacing:0px;fill:#000000;fill-opacity:1;stroke:none;stroke-width:0.65167278"
       xml:space="preserve"><tspan
         y="1046.5618"
         x="-67.107582"
         id="tspan1050"
         sodipodi:role="line"
         style="stroke-width:0.65167278">eaededff</tspan></text>
    <text
       xml:space="preserve"
       style="font-style:normal;font-weight:normal;font-size:6.87541294px;line-height:1.25;font-family:sans-serif;letter-spacing:0px;word-spacing:0px;fill:#000000;fill-opacity:1;stroke:none;stroke-width:0.85942662"
       x="-68.571388"
       y="1022.5738"
       id="text1056"><tspan
         sodipodi:role="line"
         id="tspan1054"
         x="-68.571388"
         y="1022.5738"
         style="stroke-width:0.85942662">gradient:</tspan></text>
    <text
       xml:space="preserve"
       style="font-style:normal;font-weight:normal;font-size:6.87541294px;line-height:1.25;font-family:sans-serif;letter-spacing:0px;word-spacing:0px;fill:#000000;fill-opacity:1;stroke:none;stroke-width:0.85942662"
       x="-68.349815"
       y="1073.5474"
       id="text1064"><tspan
         sodipodi:role="line"
         id="tspan1062"
         x="-68.349815"
         y="1073.5474"
         style="stroke-width:0.85942662">folder:</tspan><tspan
         sodipodi:role="line"
         x="-68.349815"
         y="1082.1416"
         id="tspan1066"
         style="stroke-width:0.85942662" /></text>
    <text
       xml:space="preserve"
       style="font-style:normal;font-weight:normal;font-size:5.87448883px;line-height:1.25;font-family:sans-serif;letter-spacing:0px;word-spacing:0px;fill:#000000;fill-opacity:1;stroke:none;stroke-width:0.7343111"
       x="-67.81189"
       y="1088.299"
       id="text1070"><tspan
         sodipodi:role="line"
         id="tspan1068"
         x="-67.81189"
         y="1088.299"
         style="stroke-width:0.7343111">0c9bffff</tspan></text>
    <text
       xml:space="preserve"
       style="font-style:normal;font-weight:normal;font-size:5.87448883px;line-height:1.25;font-family:sans-serif;letter-spacing:0px;word-spacing:0px;fill:#000000;fill-opacity:1;stroke:none;stroke-width:0.7343111"
       x="-67.81189"
       y="1082.6696"
       id="text1074"><tspan
         sodipodi:role="line"
         id="tspan1072"
         x="-67.81189"
         y="1082.6696"
         style="stroke-width:0.7343111">008ae8ff</tspan></text>
    <path
       style="opacity:0.17900002;fill:none;stroke:#000000;stroke-width:0.85942662px;stroke-linecap:butt;stroke-linejoin:miter;stroke-opacity:1"
       d="m -70.478556,1060.0387 h 32.942084"
       id="path1076"
       inkscape:connector-curvature="0" />
    <path
       style="color:#000000;font-style:normal;font-variant:normal;font-weight:normal;font-stretch:normal;font-size:medium;line-height:normal;font-family:sans-serif;font-variant-ligatures:normal;font-variant-position:normal;font-variant-caps:normal;font-variant-numeric:normal;font-variant-alternates:normal;font-feature-settings:normal;text-indent:0;text-align:start;text-decoration:none;text-decoration-line:none;text-decoration-style:solid;text-decoration-color:#000000;letter-spacing:normal;word-spacing:normal;text-transform:none;writing-mode:lr-tb;direction:ltr;text-orientation:mixed;dominant-baseline:auto;baseline-shift:baseline;text-anchor:start;white-space:normal;shape-padding:0;clip-rule:nonzero;display:inline;overflow:visible;visibility:visible;opacity:0.85;isolation:auto;mix-blend-mode:normal;color-interpolation:sRGB;color-interpolation-filters:linearRGB;solid-color:#000000;solid-opacity:1;vector-effect:none;fill:#f5fafd;fill-opacity:1;fill-rule:nonzero;stroke:none;stroke-width:1.13828969;stroke-linecap:round;stroke-linejoin:miter;stroke-miterlimit:4;stroke-dasharray:none;stroke-dashoffset:0;stroke-opacity:1;paint-order:stroke fill markers;filter:url(#filter1188);color-rendering:auto;image-rendering:auto;shape-rendering:auto;text-rendering:auto;enable-background:accumulate"
       d="m 13.5625,24.289062 c -1.758269,0 -3.35696,0.481729 -4.546875,1.298829 -1.1899154,0.8173 -1.984375,2.007321 -1.984375,3.357421 v 0.279297 h 1.1484375 v -0.279297 c 0,-0.9172 0.5300241,-1.771493 1.4941406,-2.433593 0.9641159,-0.6622 2.3458709,-1.095703 3.8886719,-1.095703 h 20.839784 c 2.122557,0 3.930243,0.823162 4.791016,1.914062 l 0.0098,0.01172 4.277344,4.896484 h 39.599669 c 1.542792,0 2.924552,0.43165 3.888672,1.09375 0.964121,0.6622 1.496094,1.516494 1.496094,2.433594 v 0.519531 h 1.148437 v -0.519531 c 0,-1.3501 -0.796414,-2.540222 -1.986328,-3.357422 -1.189913,-0.8172 -2.788604,-1.298828 -4.546875,-1.298828 H 44.007753 l -3.90625,-4.46875 c -1.152612,-1.4608 -3.282834,-2.351563 -5.699219,-2.351563 z"
       transform="translate(0,1026.5197)"
       id="path1144"
       inkscape:connector-curvature="0"
       sodipodi:nodetypes="scsccscsscccscsccsssccss" />
    <path
       style="fill:#000000;fill-opacity:0.07843138;stroke:none;stroke-width:0.80696589;stroke-opacity:1"
       d="M 47.929688 35.748047 C 38.406677 35.775193 28.845653 39.411745 21.580078 46.613281 L 26.533203 51.451172 C 32.445152 45.591409 40.183138 42.650009 47.929688 42.623047 L 47.929688 35.748047 z M 47.929688 45.283203 C 40.869224 45.310283 33.828495 48.004236 28.441406 53.34375 L 33.111328 57.970703 C 37.200088 53.91801 42.56085 51.884299 47.929688 51.857422 L 47.929688 45.283203 z M 47.929688 54.261719 C 43.186015 54.288288 38.427684 56.067203 34.808594 59.654297 L 47.929688 72.658203 L 47.929688 54.261719 z "
       transform="translate(0,1026.5197)"
       id="path1198" />
  </g>
</svg>
