<?xml version="1.0" encoding="UTF-8" standalone="no"?>
<!-- Created with Inkscape (http://www.inkscape.org/) -->

<svg
   xmlns:dc="http://purl.org/dc/elements/1.1/"
   xmlns:cc="http://creativecommons.org/ns#"
   xmlns:rdf="http://www.w3.org/1999/02/22-rdf-syntax-ns#"
   xmlns:svg="http://www.w3.org/2000/svg"
   xmlns="http://www.w3.org/2000/svg"
   xmlns:xlink="http://www.w3.org/1999/xlink"
   xmlns:sodipodi="http://sodipodi.sourceforge.net/DTD/sodipodi-0.dtd"
   xmlns:inkscape="http://www.inkscape.org/namespaces/inkscape"
   width="1280"
   height="1024"
   viewBox="0 0 1280 1024"
   version="1.1"
   id="svg8"
   sodipodi:docname="backtex.svg"
   inkscape:version="0.92.2 5c3e80d, 2017-08-06"
   inkscape:export-filename="/media/Dati/ArtWork/backtex.svg.png"
   inkscape:export-xdpi="96"
   inkscape:export-ydpi="96">
  <defs
     id="defs2">
    <pattern
       inkscape:collect="always"
       xlink:href="#pattern5984"
       id="pattern5990"
       patternTransform="matrix(-2.7975664,4.8455281,1.013619,0.5852131,-1280,0)" />
    <pattern
       inkscape:collect="always"
       xlink:href="#Wavywhite"
       id="pattern5984"
       patternTransform="matrix(-2.7975664,4.8455281,1.013619,0.5852131,0,0)" />
    <pattern
       inkscape:stockid="Wavy white"
       id="Wavywhite"
       height="5.1805778"
       width="30.066020"
       patternUnits="userSpaceOnUse"
       inkscape:collect="always">
      <path
         id="path5897"
         d="M 7.597,0.061 C 5.079,-0.187 2.656,0.302 -0.01,1.788 L -0.01,3.061 C 2.773,1.431 5.173,1.052 7.472,1.280 C 9.770,1.508 11.969,2.361 14.253,3.218 C 18.820,4.931 23.804,6.676 30.066,3.061 L 30.062,1.788 C 23.622,5.497 19.246,3.770 14.691,2.061 C 12.413,1.207 10.115,0.311 7.597,0.061 z "
         style="fill:white;stroke:none;" />
    </pattern>
    <pattern
       inkscape:collect="always"
       xlink:href="#pattern4539"
       id="pattern5262"
       patternTransform="matrix(0.7071067,0,0,0.7071067,-630.13092,388.47684)" />
    <clipPath
       clipPathUnits="userSpaceOnUse"
       id="clipPath4533">
      <path
         style="opacity:0.85;fill:#010101;fill-opacity:1;stroke:none;stroke-width:2;stroke-linecap:round;stroke-miterlimit:4;stroke-dasharray:none;stroke-opacity:1;paint-order:markers fill stroke"
         d="M 186.82227,-3.9589844 A 336.43924,336.43924 0 0 0 -149.61719,332.48047 336.43924,336.43924 0 0 0 186.82227,668.91992 336.43924,336.43924 0 0 0 523.26172,332.48047 336.43924,336.43924 0 0 0 186.82227,-3.9589844 Z m 712.46093,0 A 336.43924,336.43924 0 0 0 562.84375,332.48047 336.43924,336.43924 0 0 0 899.2832,668.91992 336.43924,336.43924 0 0 0 1235.7207,332.48047 336.43924,336.43924 0 0 0 899.2832,-3.9589844 Z M 186.82227,708.50195 A 336.43924,336.43924 0 0 0 -149.61719,1044.9414 336.43924,336.43924 0 0 0 186.82227,1381.3809 336.43924,336.43924 0 0 0 523.26172,1044.9414 336.43924,336.43924 0 0 0 186.82227,708.50195 Z m 712.46093,0 A 336.43924,336.43924 0 0 0 562.84375,1044.9414 336.43924,336.43924 0 0 0 899.2832,1381.3809 336.43924,336.43924 0 0 0 1235.7207,1044.9414 336.43924,336.43924 0 0 0 899.2832,708.50195 Z"
         id="path4535"
         inkscape:connector-curvature="0" />
    </clipPath>
    <pattern
       patternUnits="userSpaceOnUse"
       width="20.000002"
       height="20.000002"
       patternTransform="translate(-630.13092,388.47684)"
       id="pattern4539">
      <rect
         transform="matrix(0.02807177,0,0,0.02807177,-5.244445,-9.3333341)"
         clip-path="url(#clipPath4533)"
         y="332.48114"
         x="186.82274"
         height="712.45959"
         width="712.45959"
         id="rect4503"
         style="opacity:1;fill:#010101;fill-opacity:1;stroke:none;stroke-width:2;stroke-linecap:round;stroke-miterlimit:4;stroke-dasharray:none;stroke-opacity:1;paint-order:markers fill stroke" />
    </pattern>
  </defs>
  <sodipodi:namedview
     id="base"
     pagecolor="#ffffff"
     bordercolor="#666666"
     borderopacity="1.0"
     inkscape:pageopacity="0.0"
     inkscape:pageshadow="2"
     inkscape:zoom="0.38636095"
     inkscape:cx="262.81646"
     inkscape:cy="-212.71092"
     inkscape:document-units="px"
     inkscape:current-layer="layer1"
     showgrid="false"
     inkscape:showpageshadow="false"
     inkscape:window-width="1280"
     inkscape:window-height="941"
     inkscape:window-x="0"
     inkscape:window-y="21"
     inkscape:window-maximized="1"
     units="px"
     inkscape:snap-object-midpoints="true" />
  <metadata
     id="metadata5">
    <rdf:RDF>
      <cc:Work
         rdf:about="">
        <dc:format>image/svg+xml</dc:format>
        <dc:type
           rdf:resource="http://purl.org/dc/dcmitype/StillImage" />
        <dc:title></dc:title>
        <cc:license
           rdf:resource="http://creativecommons.org/licenses/by-sa/4.0/" />
        <dc:date>2018</dc:date>
        <dc:creator>
          <cc:Agent>
            <dc:title>Cristian Pozzessere  == ilnanny ==</dc:title>
          </cc:Agent>
        </dc:creator>
        <dc:description>Playing with Inkscape on Gnu/Linux O. S.</dc:description>
        <dc:subject>
          <rdf:Bag>
            <rdf:li>Global language</rdf:li>
          </rdf:Bag>
        </dc:subject>
        <dc:contributor>
          <cc:Agent>
            <dc:title>In the night, alone like a dog.</dc:title>
          </cc:Agent>
        </dc:contributor>
      </cc:Work>
      <cc:License
         rdf:about="http://creativecommons.org/licenses/by-sa/4.0/">
        <cc:permits
           rdf:resource="http://creativecommons.org/ns#Reproduction" />
        <cc:permits
           rdf:resource="http://creativecommons.org/ns#Distribution" />
        <cc:requires
           rdf:resource="http://creativecommons.org/ns#Notice" />
        <cc:requires
           rdf:resource="http://creativecommons.org/ns#Attribution" />
        <cc:permits
           rdf:resource="http://creativecommons.org/ns#DerivativeWorks" />
        <cc:requires
           rdf:resource="http://creativecommons.org/ns#ShareAlike" />
      </cc:License>
    </rdf:RDF>
  </metadata>
  <g
     inkscape:label="Layer 1"
     inkscape:groupmode="layer"
     id="layer1"
     transform="translate(0,-98.519653)">
    <rect
       y="98.519653"
       x="0"
       height="1024"
       width="1280"
       id="rect5260"
       style="opacity:1;fill:#2d2d2d;fill-opacity:1;stroke:none;stroke-width:2.00304961;stroke-linecap:round;stroke-miterlimit:4;stroke-dasharray:none;stroke-opacity:1;paint-order:markers fill stroke" />
    <rect
       style="stroke:none;fill:url(#pattern4539)"
       width="20.000002"
       height="20.000002"
       x="-630.13092"
       y="388.47684"
       id="rect4542" />
    <rect
       y="98.519653"
       x="0"
       height="1024"
       width="1280"
       id="rect5264"
       style="opacity:0.2;fill:url(#pattern5984);fill-opacity:1;stroke:none;stroke-width:2.00304961;stroke-linecap:round;stroke-miterlimit:4;stroke-dasharray:none;stroke-opacity:1;paint-order:markers fill stroke" />
    <rect
       style="opacity:0.2;fill:url(#pattern5990);fill-opacity:1;stroke:none;stroke-width:2.00304961;stroke-linecap:round;stroke-miterlimit:4;stroke-dasharray:none;stroke-opacity:1;paint-order:markers fill stroke"
       id="rect5988"
       width="1280"
       height="1024"
       x="-1280"
       y="98.519653"
       transform="scale(-1,1)" />
    <rect
       style="opacity:0.3;fill:url(#pattern5262);fill-opacity:1;stroke:none;stroke-width:2.00304961;stroke-linecap:round;stroke-miterlimit:4;stroke-dasharray:none;stroke-opacity:1;paint-order:markers fill stroke"
       id="rect4537"
       width="1280"
       height="1024"
       x="0"
       y="98.519653" />
  </g>
</svg>
