<?xml version="1.0" encoding="UTF-8" standalone="no"?>
<!-- Created with Inkscape (http://www.inkscape.org/) -->

<svg
   xmlns:dc="http://purl.org/dc/elements/1.1/"
   xmlns:cc="http://creativecommons.org/ns#"
   xmlns:rdf="http://www.w3.org/1999/02/22-rdf-syntax-ns#"
   xmlns:svg="http://www.w3.org/2000/svg"
   xmlns="http://www.w3.org/2000/svg"
   xmlns:xlink="http://www.w3.org/1999/xlink"
   xmlns:sodipodi="http://sodipodi.sourceforge.net/DTD/sodipodi-0.dtd"
   xmlns:inkscape="http://www.inkscape.org/namespaces/inkscape"
   width="1920"
   height="1080"
   viewBox="0 0 1920.0001 1080"
   id="svg2"
   version="1.1"
   inkscape:version="0.92.2 2405546, 2018-03-11"
   sodipodi:docname="dreamhorse.svg"
   inkscape:export-filename="/media/Dati/Artworks/stamps/dreamhorse.svg.png"
   inkscape:export-xdpi="192"
   inkscape:export-ydpi="192">
  <defs
     id="defs4">
    <pattern
       inkscape:collect="always"
       xlink:href="#Wavy"
       id="pattern2611"
       patternTransform="scale(0.66576267,1)" />
    <pattern
       inkscape:collect="always"
       xlink:href="#Wavy"
       id="pattern2573"
       patternTransform="matrix(0.08225427,0,0,0.63267363,509.04255,505.23662)" />
    <pattern
       inkscape:collect="always"
       xlink:href="#Wavy"
       id="pattern2566"
       patternTransform="matrix(-0.90506079,0,0,0.44901045,164.84097,-35.426577)" />
    <pattern
       inkscape:collect="always"
       xlink:href="#pattern2536"
       id="pattern2548"
       patternTransform="translate(-524.27015,537.04545)" />
    <pattern
       inkscape:collect="always"
       xlink:href="#pattern2534"
       id="pattern2539"
       patternTransform="matrix(0.27356454,0.10960053,-0.19137363,0.47767139,5.7858778,-4.4107613)" />
    <pattern
       inkscape:collect="always"
       xlink:href="#pattern2526"
       id="pattern2534"
       patternTransform="matrix(0.27356454,0.10960053,-0.19137363,0.47767139,-532.32558,536.89356)" />
    <pattern
       inkscape:collect="always"
       xlink:href="#pattern2526"
       id="pattern2532"
       patternTransform="matrix(0.27356454,0.10960053,-0.19137363,0.47767139,-504.3299,-4.4107613)" />
    <pattern
       inkscape:collect="always"
       xlink:href="#Wavy"
       id="pattern2526"
       patternTransform="matrix(0.27356454,0.10960053,-0.19137363,0.47767139,6.7279895,536.89356)" />
    <pattern
       inkscape:stockid="Wavy"
       id="Wavy"
       height="5.1805778"
       width="30.066020"
       patternUnits="userSpaceOnUse"
       inkscape:collect="always"
       inkscape:isstock="true">
      <path
         id="path2434"
         d="M 7.597,0.061 C 5.079,-0.187 2.656,0.302 -0.01,1.788 L -0.01,3.061 C 2.773,1.431 5.173,1.052 7.472,1.280 C 9.770,1.508 11.969,2.361 14.253,3.218 C 18.820,4.931 23.804,6.676 30.066,3.061 L 30.062,1.788 C 23.622,5.497 19.246,3.770 14.691,2.061 C 12.413,1.207 10.115,0.311 7.597,0.061 z "
         style="fill:black;stroke:none;" />
    </pattern>
    <pattern
       patternUnits="userSpaceOnUse"
       width="510.11576"
       height="510.11575"
       patternTransform="translate(-538.11146,541.30432)"
       id="pattern2536">
      <rect
         style="opacity:1;fill:url(#pattern2539);fill-opacity:1;stroke:none;stroke-width:1.88425231;stroke-linecap:round;stroke-linejoin:round;stroke-miterlimit:4;stroke-dasharray:none;stroke-opacity:0.14682539;paint-order:stroke markers fill"
         id="rect1088"
         width="510.11575"
         height="510.11575"
         x="7.6293945e-06"
         y="0" />
      <rect
         transform="scale(-1,1)"
         y="0"
         x="-510.11575"
         height="510.11575"
         width="510.11575"
         id="rect2530"
         style="opacity:1;fill:url(#pattern2532);fill-opacity:1;stroke:none;stroke-width:1.88425231;stroke-linecap:round;stroke-linejoin:round;stroke-miterlimit:4;stroke-dasharray:none;stroke-opacity:0.14682539;paint-order:stroke markers fill" />
    </pattern>
    <filter
       inkscape:collect="always"
       style="color-interpolation-filters:sRGB"
       id="filter2621"
       x="-0.28233452"
       width="1.564669"
       y="-0.23752742"
       height="1.4750548">
      <feGaussianBlur
         inkscape:collect="always"
         stdDeviation="42.982085"
         id="feGaussianBlur2623" />
    </filter>
  </defs>
  <sodipodi:namedview
     id="base"
     pagecolor="#ffffff"
     bordercolor="#666666"
     borderopacity="1.0"
     inkscape:pageopacity="0.0"
     inkscape:pageshadow="2"
     inkscape:zoom="0.66759259"
     inkscape:cx="960"
     inkscape:cy="540"
     inkscape:document-units="px"
     inkscape:current-layer="g2607"
     showgrid="false"
     units="px"
     inkscape:showpageshadow="false"
     inkscape:window-width="1920"
     inkscape:window-height="994"
     inkscape:window-x="0"
     inkscape:window-y="21"
     inkscape:window-maximized="1"
     inkscape:snap-global="false" />
  <metadata
     id="metadata7">
    <rdf:RDF>
      <cc:Work
         rdf:about="">
        <dc:format>image/svg+xml</dc:format>
        <dc:type
           rdf:resource="http://purl.org/dc/dcmitype/StillImage" />
        <dc:title></dc:title>
        <cc:license
           rdf:resource="http://creativecommons.org/licenses/by-sa/4.0/" />
        <dc:date>2019</dc:date>
        <dc:creator>
          <cc:Agent>
            <dc:title>Cristian Pozzessere  &lt; ilnanny &gt;</dc:title>
          </cc:Agent>
        </dc:creator>
        <dc:subject>
          <rdf:Bag>
            <rdf:li>ilnanny</rdf:li>
          </rdf:Bag>
        </dc:subject>
        <dc:description>Playing with Inkscape on Gnu/Linux O. S.</dc:description>
        <dc:contributor>
          <cc:Agent>
            <dc:title>In the night, alone like a dog.</dc:title>
          </cc:Agent>
        </dc:contributor>
      </cc:Work>
      <cc:License
         rdf:about="http://creativecommons.org/licenses/by-sa/4.0/">
        <cc:permits
           rdf:resource="http://creativecommons.org/ns#Reproduction" />
        <cc:permits
           rdf:resource="http://creativecommons.org/ns#Distribution" />
        <cc:requires
           rdf:resource="http://creativecommons.org/ns#Notice" />
        <cc:requires
           rdf:resource="http://creativecommons.org/ns#Attribution" />
        <cc:permits
           rdf:resource="http://creativecommons.org/ns#DerivativeWorks" />
        <cc:requires
           rdf:resource="http://creativecommons.org/ns#ShareAlike" />
      </cc:License>
    </rdf:RDF>
  </metadata>
  <g
     inkscape:label="Livello 1"
     inkscape:groupmode="layer"
     id="layer1"
     transform="translate(0,27.6378)">
    <rect
       style="opacity:1;fill:#3f5279;fill-opacity:1;stroke:#050505;stroke-width:5.29864407;stroke-linecap:round;stroke-linejoin:round;stroke-miterlimit:4;stroke-dasharray:none;stroke-opacity:0.14682539;paint-order:stroke markers fill"
       id="rect146"
       width="1914.7014"
       height="1074.7014"
       x="2.649292"
       y="-24.988508" />
    <rect
       y="-24.988508"
       x="2.649292"
       height="1074.7014"
       width="1914.7014"
       id="rect2609"
       style="opacity:0.158;fill:url(#pattern2611);fill-opacity:1;stroke:#050505;stroke-width:5.29864407;stroke-linecap:round;stroke-linejoin:round;stroke-miterlimit:4;stroke-dasharray:none;stroke-opacity:0.14682539;paint-order:stroke markers fill" />
    <g
       id="g2607"
       transform="translate(715.20652,-281.71569)">
      <path
         sodipodi:nodetypes="cssssssscssssscccsssssscscssc"
         transform="matrix(1.1599221,0,0,1.1599221,-48.427885,-124.54098)"
         inkscape:connector-curvature="0"
         id="path1047"
         d="m 169.30582,668.72847 c 0,0 9.72464,3.80001 -15.78156,15.32435 -25.5062,11.52434 -0.45242,12.79794 -29.6713,12.18862 -29.218895,-0.60932 -28.240085,-13.60398 -29.218895,-0.60932 -0.97881,12.99465 2.155533,56.66151 1.343306,61.69637 -0.812227,5.03486 9.802969,16.16749 13.440499,27.08007 3.63752,10.91258 3.83824,22.86972 2.89545,38.41406 -0.9428,15.54435 1.92904,18.98718 -0.78633,32.72436 -2.71537,13.73718 10.57671,21.04286 19.67285,21.74256 9.09613,0.69971 33.38717,-24.37424 21.26208,-4.9741 -12.12508,19.40013 -36.98151,37.58776 -43.6503,41.22528 -6.66881,3.63753 -30.432863,4.58035 -26.675198,18.18763 3.757666,13.60729 -18.187628,18.79389 -10.306323,30.91898 7.881306,12.12508 58.806671,29.10024 83.056841,28.49399 24.25017,-0.60626 35.75069,7.70263 63.95067,10.52008 28.19999,2.8174 53.66267,10.0925 91.25043,6.455 37.58778,-3.6376 66.68798,-24.8564 77.60056,-36.37526 10.91258,-11.51883 33.22162,-42.03883 44.11837,-48.05017 10.89675,-6.01134 -5.92435,-39.8567 -5.92435,-67.7444 0,-27.88771 2.42502,-44.25657 -7.27504,-66.68798 -9.70008,-22.43141 -3.7641,-18.96538 -42.80422,-47.07046 -39.04012,-28.10508 53.91504,-114.22012 -43.2544,-62.82542 -18.44824,9.75761 -1.90746,-26.88639 -26.38682,-21.45157 l -31.34831,6.95983 c 0,0 7.03552,-18.57132 -13.22613,-37.48229 -20.26165,-18.91096 -33.76085,-43.30024 -33.76085,-43.30024 0,0 13.77985,-21.45696 -3.81422,0.91844 -17.59408,22.37542 -32.14418,33.288 -38.20672,44.20057 -6.06255,10.91258 -16.50009,39.52102 -16.50009,39.52102 z"
         style="opacity:1;fill:#99f8ff;fill-opacity:0.64905661;stroke:none;stroke-width:0.90109283px;stroke-linecap:butt;stroke-linejoin:miter;stroke-opacity:1;filter:url(#filter2621)" />
      <g
         transform="matrix(-1,0,0,1,474.32848,12.446793)"
         id="g144">
        <path
           d="m 354.42475,761.0339 c -1.05294,-19.39553 -14.11063,-16.64205 -18.69668,-23.42559 4.01298,7.92966 2.57955,17.96211 16.72125,24.07785 1.62445,2.43668 3.08118,0.85261 1.97543,-0.65226 m 9.24041,-34.19416 c 12.16628,4.65903 21.0293,-2.07015 32.28862,20.83673 -13.20058,-10.54804 -22.71276,0.64605 -30.47781,-3.10601 6.21204,20.18911 0,44.64901 6.21204,65.22638 0,0 14.4554,19.54928 6.10799,41.29142 -9.47647,-16.80046 -0.74235,-20.46711 -12.90396,-17.27723 -4.65748,1.22222 4.48509,0 11.06674,18.56312 0,0 -3.30014,17.79594 -19.99499,22.84321 0,0 0.90695,-21.74213 -10.09456,-21.548 0.77805,11.58234 0,22.32451 0,22.32451 0,0 -28.92325,-12.08552 -22.71277,-40.76649 4.91839,-22.71277 -34.68491,1.09953 -44.26076,-38.76157 -10.48282,40.89695 62.50863,82.8282 56.29658,113.11189 -25.62465,-11.90693 -76.4857,33.71738 -119.19346,32.61319 -45.76253,-1.18339 -35.79066,-90.65692 -64.52133,-107.93415 -2.32951,-58.82022 44.85091,-186.10176 184.50994,-129.10477 -2.00339,-27.76004 23.72843,-18.56157 28.12966,-30.8552 -0.19413,4.07665 -4.65903,16.50073 -8.1533,19.21849 8.54155,-0.58237 35.52509,-10.48281 44.26077,-26.59528 -3.30015,25.43053 -33.77796,33.19558 -37.85461,44.26077 8.9298,2.71776 33.19558,5.11095 42.31951,-5.56599 -6.85809,21.35389 -30.15323,17.21356 -41.0243,21.22498 M 258.70658,1013.2407 c 1.16475,-55.13147 -53.83662,-20.57732 -71.95558,-49.04833 27.43701,-8.1533 75.81014,24.25179 93.6977,24.52544 26.72419,0.40828 56.1677,-38.13446 111.29953,2.65222 -38.82524,-69.10891 -97.89705,-27.16057 -110.52302,-35.20205 60.60464,-72.99145 92.92121,21.48278 125.01725,-5.43554 -30.80083,9.31806 -44.26077,-39.29424 -84.6359,-35.08092 -28.24303,2.94916 -72.96969,34.39759 -100.56046,32.75141 -69.49717,-4.14033 -36.88397,-93.18057 -69.65092,-96.63757 21.48433,15.4012 -4.76309,79.55447 16.97905,94.56741 -8.08962,1.48778 -21.48433,-23.5545 -14.08268,-51.50867 10.45952,-31.60219 -22.54349,-36.10747 -2.89637,-98.22784 -15.27074,28.47132 -31.68139,83.00525 -20.03538,105.99289 14.75359,29.11893 8.54156,48.14329 22.93175,56.29659 28.31757,69.10866 87.72018,14.75359 104.41503,54.35496 M 114.53605,807.33687 c 0.13511,9.61003 6.7292,32.74365 -19.153262,55.65054 -28.338539,25.0811 -31.318919,39.08459 -31.059255,59.53307 6.082205,-32.74365 20.640114,-34.87904 37.917347,-40.12044 -6.600293,7.76503 -36.583933,42.51363 -19.218494,83.47424 -3.562603,-47.00959 22.972114,-60.1791 34.773434,-82.1806 11.80132,-21.99993 13.30618,-73.25079 43.65354,-114.98791 -7.15781,3.6884 -24.65402,32.93777 -46.91331,38.6311 m -44.260765,68.59178 c 37.012875,-20.96563 22.777989,-47.36679 41.866025,-63.8023 -30.831893,8.54156 -29.636076,46.52506 -41.866025,63.8023 M 180.27961,734.08764 c 23.03733,-27.17767 71.95713,-67.16766 153.80538,-31.82116 0,-53.31947 -26.84688,-56.57148 -26.84688,-56.57148 5.6949,6.3425 10.09457,27.43702 9.06026,34.94271 -15.07816,-3.23491 -16.53644,-36.94919 -52.54452,-37.78937 -25.01121,-32.87255 -44.64901,-10.87107 -59.14325,-26.53161 6.21203,20.96562 42.70776,7.63615 43.22492,27.17766 0,0 -23.8123,1.81236 -29.76499,-9.0587 2.84667,31.31954 75.57876,4.65903 63.41404,39.08459 -13.26582,-35.52509 -106.44637,6.1468 -84.89836,-34.03731 -24.41953,20.57737 3.68838,30.54303 3.68838,30.54303 -21.2638,4.11237 -35.33406,4.46956 -39.79585,2.71777 -8.81023,-2.91344 -0.087,-15.0378 8.41264,-20.06023 -27.84701,7.80543 -30.02433,27.56592 -8.41264,31.7078 24.42572,3.2784 74.6749,-15.53009 76.22791,3.10602 -107.41701,-11.00153 -114.53445,27.95417 -152.194927,37.78938 24.329447,4.14187 55.908337,-18.24787 59.790857,-17.60026 -27.69636,39.60174 -89.039925,35.46141 -92.922448,79.46282 14.753588,-43.2249 66.415688,-21.48433 92.922448,-60.82671 0,8.54155 -46.849631,44.64902 -63.156229,50.4728 0,0 44.947199,-9.50596 58.366749,-24.07163 -28.15916,39.27404 -81.838932,22.51863 -92.791996,78.81521 0,0 20.965625,-23.68339 36.883661,-21.15975 0.194127,6.79442 -15.044002,14.07337 -21.547694,24.65403 -6.330377,10.29956 -18.92606,21.15819 -31.642566,30.28368 3.98083,-1.16476 32.724858,-7.02116 35.047072,-17.60181 6.75497,8.54311 -33.234399,51.37976 -24.433185,76.42204 -1.339471,-31.12542 30.180252,-41.89087 38.964074,-84.50545 4.388804,-21.29331 23.879074,-27.62804 33.507734,-33.84629 31.06019,-20.06022 37.89498,-27.43701 66.77941,-71.69778 m 131.42341,-58.62611 c 3.68839,-33.19556 -33.19557,-47.46462 -32.03082,-72.99143 -18.63611,28.53654 27.37179,53.57882 32.03082,72.99143 M 212.1163,1015.9585 c -89.8152,11.1307 -96.78666,-72.27517 -96.67484,-84.63867 -13.39471,10.28869 -6.21204,44.64902 -6.21204,44.64902 -32.742097,-43.87252 7.95918,-70.27367 6.98854,-86.19202 42.96712,33.1319 -14.62313,114.01727 95.89834,126.18167"
           style="fill:#322d2e;fill-opacity:1;fill-rule:nonzero;stroke:#a2961c;stroke-width:1;stroke-miterlimit:4;stroke-dasharray:none;stroke-opacity:1"
           id="path14"
           inkscape:connector-curvature="0" />
        <path
           inkscape:connector-curvature="0"
           id="path2571"
           style="opacity:0.54599998;fill:url(#pattern2573);fill-opacity:1;fill-rule:nonzero;stroke:#a2961c;stroke-width:1;stroke-miterlimit:4;stroke-dasharray:none;stroke-opacity:1"
           d="m 354.42475,761.0339 c -1.05294,-19.39553 -14.11063,-16.64205 -18.69668,-23.42559 4.01298,7.92966 2.57955,17.96211 16.72125,24.07785 1.62445,2.43668 3.08118,0.85261 1.97543,-0.65226 m 9.24041,-34.19416 c 12.16628,4.65903 21.0293,-2.07015 32.28862,20.83673 -13.20058,-10.54804 -22.71276,0.64605 -30.47781,-3.10601 6.21204,20.18911 0,44.64901 6.21204,65.22638 0,0 14.4554,19.54928 6.10799,41.29142 -9.47647,-16.80046 -0.74235,-20.46711 -12.90396,-17.27723 -4.65748,1.22222 4.48509,0 11.06674,18.56312 0,0 -3.30014,17.79594 -19.99499,22.84321 0,0 0.90695,-21.74213 -10.09456,-21.548 0.77805,11.58234 0,22.32451 0,22.32451 0,0 -28.92325,-12.08552 -22.71277,-40.76649 4.91839,-22.71277 -34.68491,1.09953 -44.26076,-38.76157 -10.48282,40.89695 62.50863,82.8282 56.29658,113.11189 -25.62465,-11.90693 -76.4857,33.71738 -119.19346,32.61319 -45.76253,-1.18339 -35.79066,-90.65692 -64.52133,-107.93415 -2.32951,-58.82022 44.85091,-186.10176 184.50994,-129.10477 -2.00339,-27.76004 23.72843,-18.56157 28.12966,-30.8552 -0.19413,4.07665 -4.65903,16.50073 -8.1533,19.21849 8.54155,-0.58237 35.52509,-10.48281 44.26077,-26.59528 -3.30015,25.43053 -33.77796,33.19558 -37.85461,44.26077 8.9298,2.71776 33.19558,5.11095 42.31951,-5.56599 -6.85809,21.35389 -30.15323,17.21356 -41.0243,21.22498 M 258.70658,1013.2407 c 1.16475,-55.13147 -53.83662,-20.57732 -71.95558,-49.04833 27.43701,-8.1533 75.81014,24.25179 93.6977,24.52544 26.72419,0.40828 56.1677,-38.13446 111.29953,2.65222 -38.82524,-69.10891 -97.89705,-27.16057 -110.52302,-35.20205 60.60464,-72.99145 92.92121,21.48278 125.01725,-5.43554 -30.80083,9.31806 -44.26077,-39.29424 -84.6359,-35.08092 -28.24303,2.94916 -72.96969,34.39759 -100.56046,32.75141 -69.49717,-4.14033 -36.88397,-93.18057 -69.65092,-96.63757 21.48433,15.4012 -4.76309,79.55447 16.97905,94.56741 -8.08962,1.48778 -21.48433,-23.5545 -14.08268,-51.50867 10.45952,-31.60219 -22.54349,-36.10747 -2.89637,-98.22784 -15.27074,28.47132 -31.68139,83.00525 -20.03538,105.99289 14.75359,29.11893 8.54156,48.14329 22.93175,56.29659 28.31757,69.10866 87.72018,14.75359 104.41503,54.35496 M 114.53605,807.33687 c 0.13511,9.61003 6.7292,32.74365 -19.153262,55.65054 -28.338539,25.0811 -31.318919,39.08459 -31.059255,59.53307 6.082205,-32.74365 20.640114,-34.87904 37.917347,-40.12044 -6.600293,7.76503 -36.583933,42.51363 -19.218494,83.47424 -3.562603,-47.00959 22.972114,-60.1791 34.773434,-82.1806 11.80132,-21.99993 13.30618,-73.25079 43.65354,-114.98791 -7.15781,3.6884 -24.65402,32.93777 -46.91331,38.6311 m -44.260765,68.59178 c 37.012875,-20.96563 22.777989,-47.36679 41.866025,-63.8023 -30.831893,8.54156 -29.636076,46.52506 -41.866025,63.8023 M 180.27961,734.08764 c 23.03733,-27.17767 71.95713,-67.16766 153.80538,-31.82116 0,-53.31947 -26.84688,-56.57148 -26.84688,-56.57148 5.6949,6.3425 10.09457,27.43702 9.06026,34.94271 -15.07816,-3.23491 -16.53644,-36.94919 -52.54452,-37.78937 -25.01121,-32.87255 -44.64901,-10.87107 -59.14325,-26.53161 6.21203,20.96562 42.70776,7.63615 43.22492,27.17766 0,0 -23.8123,1.81236 -29.76499,-9.0587 2.84667,31.31954 75.57876,4.65903 63.41404,39.08459 -13.26582,-35.52509 -106.44637,6.1468 -84.89836,-34.03731 -24.41953,20.57737 3.68838,30.54303 3.68838,30.54303 -21.2638,4.11237 -35.33406,4.46956 -39.79585,2.71777 -8.81023,-2.91344 -0.087,-15.0378 8.41264,-20.06023 -27.84701,7.80543 -30.02433,27.56592 -8.41264,31.7078 24.42572,3.2784 74.6749,-15.53009 76.22791,3.10602 -107.41701,-11.00153 -114.53445,27.95417 -152.194927,37.78938 24.329447,4.14187 55.908337,-18.24787 59.790857,-17.60026 -27.69636,39.60174 -89.039925,35.46141 -92.922448,79.46282 14.753588,-43.2249 66.415688,-21.48433 92.922448,-60.82671 0,8.54155 -46.849631,44.64902 -63.156229,50.4728 0,0 44.947199,-9.50596 58.366749,-24.07163 -28.15916,39.27404 -81.838932,22.51863 -92.791996,78.81521 0,0 20.965625,-23.68339 36.883661,-21.15975 0.194127,6.79442 -15.044002,14.07337 -21.547694,24.65403 -6.330377,10.29956 -18.92606,21.15819 -31.642566,30.28368 3.98083,-1.16476 32.724858,-7.02116 35.047072,-17.60181 6.75497,8.54311 -33.234399,51.37976 -24.433185,76.42204 -1.339471,-31.12542 30.180252,-41.89087 38.964074,-84.50545 4.388804,-21.29331 23.879074,-27.62804 33.507734,-33.84629 31.06019,-20.06022 37.89498,-27.43701 66.77941,-71.69778 m 131.42341,-58.62611 c 3.68839,-33.19556 -33.19557,-47.46462 -32.03082,-72.99143 -18.63611,28.53654 27.37179,53.57882 32.03082,72.99143 M 212.1163,1015.9585 c -89.8152,11.1307 -96.78666,-72.27517 -96.67484,-84.63867 -13.39471,10.28869 -6.21204,44.64902 -6.21204,44.64902 -32.742097,-43.87252 7.95918,-70.27367 6.98854,-86.19202 42.96712,33.1319 -14.62313,114.01727 95.89834,126.18167" />
        <path
           d="m 260.2161,734.99304 c 0,0 45.33235,-8.47632 65.78392,-33.97208 20.45313,-25.48489 -0.68798,-66.2405 -36.87155,-59.22712 0,0 39.80208,3.82507 30.19982,41.70296 -8.04148,-5.07213 -75.47004,-50.23053 -66.36475,-132.64408 0,0 -26.12161,80.64156 62.82079,142.22616 -0.76098,1.23464 -1.94437,3.06408 -3.56106,5.28954 l 0.0373,-0.74078 c 0,0 -76.82582,-45.50939 -67.14125,-133.12396 0,0 -25.82189,79.70354 61.27243,141.14525 -1.11973,1.27036 -2.33262,2.58731 -3.64026,3.93066 -7.80231,-4.90905 -75.54303,-50.08455 -66.41289,-132.67979 0,0 -25.36995,78.32291 59.02678,139.53788 -8.83041,7.40631 -20.47798,14.58432 -35.14926,18.55536 m 47.40405,-1.40236 c -3.09825,9.9377 -1.89622,21.07433 4.0487,30.36754 -6.7618,-6.96525 -15.06885,-13.8839 -25.26746,-20.4112 8.25735,-3.0936 15.26918,-6.46052 21.21876,-9.95634 m 21.70487,100.90367 c 0,0 2.08103,-49.84384 -56.93954,-86.33644 1.27968,-0.37118 2.54227,-0.74701 3.77692,-1.12905 17.0831,8.14089 52.76505,30.76667 65.04935,81.51747 0,0 1.13525,-27.18388 -22.04496,-56.10091 3.27839,2.7069 6.95593,4.7724 10.84621,6.1639 -3.06875,-1.81393 -5.83466,-4.25215 -8.1005,-7.28829 -9.1581,-12.28119 -6.62825,-29.65005 5.64674,-38.8097 12.27965,-9.15654 29.65006,-6.63135 38.80816,5.64674 7.74951,10.3912 7.12831,24.43661 -0.68954,34.05906 14.62624,-12.28586 17.30207,-34.00004 5.73061,-49.50994 -2.30622,-3.08739 -5.00225,-5.70576 -7.97471,-7.83183 7.72001,-1.60426 13.9802,-7.87842 15.18066,-16.14198 0.57152,-3.90116 -0.0699,-7.70914 -1.64307,-11.0217 0.47211,1.83409 0.59479,3.79554 0.30593,5.79117 -1.17407,8.06167 -8.65957,13.64629 -16.7228,12.46911 -8.06478,-1.16787 -13.6494,-8.65648 -12.47533,-16.7228 0.99238,-6.82393 6.51333,-11.86966 13.07324,-12.54677 -9.22332,-0.80291 -17.65616,5.06902 -20.20155,13.82489 0.0341,-0.58238 0.028,-0.89608 0.028,-0.89608 -35.03124,45.13355 -59.36378,38.3733 -132.55556,63.72928 -73.18868,25.35133 -81.00498,102.08708 -81.00498,102.08708 25.09664,-97.66721 105.60155,-99.43764 105.60155,-99.43764 -28.51792,15.66365 -38.48203,46.72849 -38.48203,46.72849 13.11206,-27.81595 37.26912,-41.29295 50.65141,-46.89311 10.60704,3.95552 57.73777,24.65713 72.24288,84.59087 0,0 2.16179,-51.79442 -60.43381,-88.43767 1.15544,-0.25004 2.29225,-0.50473 3.42129,-0.76254 14.8359,6.30989 55.59617,28.28031 68.90547,83.25839"
           style="fill:#e5e7ea;fill-opacity:1;fill-rule:nonzero;stroke:none;stroke-width:0.15530093"
           id="path16"
           inkscape:connector-curvature="0" />
        <path
           d="m 257.62723,734.99304 c 0,0 45.33235,-8.47632 65.78393,-33.97208 20.45313,-25.48489 -0.68799,-66.2405 -36.87155,-59.22712 0,0 39.80208,3.82507 30.20137,41.70296 -8.04303,-5.07213 -75.4716,-50.23053 -66.36629,-132.64408 0,0 -26.12163,80.64156 62.82077,142.22616 -0.76097,1.23464 -1.94436,3.06408 -3.56105,5.28954 l 0.0373,-0.74078 c 0,0 -76.82583,-45.50939 -67.14126,-133.12396 0,0 -25.82188,79.70354 61.27243,141.14525 -1.11972,1.27036 -2.33262,2.58731 -3.64025,3.93066 -7.80232,-4.90905 -75.54303,-50.08455 -66.4129,-132.67979 0,0 -25.36996,78.32291 59.02678,139.53788 -8.83041,7.40631 -20.47798,14.58432 -35.14926,18.55536 m 47.40406,-1.40236 c -3.09825,9.9377 -1.89622,21.07433 4.0487,30.36754 -6.76181,-6.96525 -15.06886,-13.8839 -25.26747,-20.4112 8.25736,-3.0936 15.2692,-6.46052 21.21877,-9.95634 m 21.70486,100.90367 c 0,0 2.08103,-49.84384 -56.93954,-86.33644 1.27969,-0.37118 2.54228,-0.74701 3.77693,-1.12905 17.08309,8.14089 52.76504,30.76667 65.04935,81.51747 0,0 1.13524,-27.18388 -22.04497,-56.10091 3.2784,2.7069 6.95747,4.7724 10.84621,6.1639 -3.06875,-1.81393 -5.83465,-4.25215 -8.1005,-7.28829 -9.15809,-12.28119 -6.62823,-29.65005 5.64674,-38.8097 12.27965,-9.15654 29.65006,-6.63135 38.80816,5.64674 7.74951,10.3912 7.12831,24.43661 -0.68954,34.05906 14.62624,-12.28586 17.30209,-34.00004 5.73061,-49.50994 -2.30622,-3.08739 -5.00225,-5.70576 -7.97471,-7.83183 7.72001,-1.60426 13.9802,-7.87842 15.18068,-16.14198 0.5715,-3.90116 -0.0699,-7.70914 -1.64309,-11.0217 0.47211,1.83409 0.59635,3.79554 0.30594,5.79117 -1.17407,8.06167 -8.65958,13.64629 -16.72281,12.46911 -8.06478,-1.16787 -13.64939,-8.65648 -12.47531,-16.7228 0.99237,-6.82393 6.51332,-11.86966 13.07323,-12.54677 -9.22333,-0.80291 -17.65617,5.06902 -20.20155,13.82489 0.0341,-0.58238 0.028,-0.89608 0.028,-0.89608 -35.03124,45.13355 -59.36379,38.3733 -132.55556,63.72928 -73.18869,25.35133 -81.00498,102.08708 -81.00498,102.08708 25.09664,-97.66721 105.60154,-99.43764 105.60154,-99.43764 -28.51792,15.66365 -38.48203,46.72849 -38.48203,46.72849 13.11207,-27.81595 37.26913,-41.29295 50.65141,-46.89311 10.60705,3.95552 57.73777,24.65713 72.24289,84.59087 0,0 2.16179,-51.79442 -60.43381,-88.43767 1.15544,-0.25004 2.29225,-0.50473 3.42128,-0.76254 14.83589,6.30989 55.59618,28.28031 68.90547,83.25839"
           style="fill:#a2961c;fill-opacity:1;fill-rule:nonzero;stroke:none;stroke-width:0.15530093"
           id="path18"
           inkscape:connector-curvature="0" />
        <path
           d="m 316.06076,900.60752 c -18.11896,-37.78938 -62.33623,-54.71408 -47.1944,-116.31575 -15.51146,43.51066 4.36241,73.44647 15.65899,99.46714 -12.51725,8.32259 -39.98999,34.74859 -64.06163,37.85461 23.29515,0.7765 54.8088,-24.58879 66.93159,-31.0928 0.82465,2.31243 2.68516,6.39374 3.27686,8.70462 -18.5802,9.40346 -51.76646,35.00638 -83.14968,31.57734 27.88895,11.4084 88.06805,-29.76653 108.53827,-30.19516"
           style="fill:#e5e7ea;fill-opacity:1;fill-rule:nonzero;stroke:none;stroke-width:0.15530093"
           id="path20"
           inkscape:connector-curvature="0" />
        <path
           d="m 314.40748,899.50547 c -18.11896,-37.78938 -62.33625,-54.71407 -47.19441,-116.31574 -15.51145,43.51066 4.3624,73.44647 15.659,99.46714 -12.51726,8.32258 -40.37824,34.6523 -64.44989,37.75832 23.29514,0.7765 55.19706,-24.49252 67.31985,-30.99652 0.82464,2.31244 2.68515,6.39375 3.27684,8.70463 -18.5802,9.40501 -51.76645,33.97052 -83.14966,30.54302 27.88894,11.40842 88.06805,-28.73222 108.53827,-29.16085"
           style="fill:#a2961c;fill-opacity:1;fill-rule:nonzero;stroke:none;stroke-width:0.15530093"
           id="path22"
           inkscape:connector-curvature="0" />
        <path
           inkscape:connector-curvature="0"
           id="path2558"
           style="opacity:0;fill:url(#Wavy);fill-opacity:1;fill-rule:nonzero;stroke:none;stroke-width:0.15530093"
           d="m 257.62723,734.99304 c 0,0 45.33235,-8.47632 65.78393,-33.97208 20.45313,-25.48489 -0.68799,-66.2405 -36.87155,-59.22712 0,0 39.80208,3.82507 30.20137,41.70296 -8.04303,-5.07213 -75.4716,-50.23053 -66.36629,-132.64408 0,0 -26.12163,80.64156 62.82077,142.22616 -0.76097,1.23464 -1.94436,3.06408 -3.56105,5.28954 l 0.0373,-0.74078 c 0,0 -76.82583,-45.50939 -67.14126,-133.12396 0,0 -25.82188,79.70354 61.27243,141.14525 -1.11972,1.27036 -2.33262,2.58731 -3.64025,3.93066 -7.80232,-4.90905 -75.54303,-50.08455 -66.4129,-132.67979 0,0 -25.36996,78.32291 59.02678,139.53788 -8.83041,7.40631 -20.47798,14.58432 -35.14926,18.55536 m 47.40406,-1.40236 c -3.09825,9.9377 -1.89622,21.07433 4.0487,30.36754 -6.76181,-6.96525 -15.06886,-13.8839 -25.26747,-20.4112 8.25736,-3.0936 15.2692,-6.46052 21.21877,-9.95634 m 21.70486,100.90367 c 0,0 2.08103,-49.84384 -56.93954,-86.33644 1.27969,-0.37118 2.54228,-0.74701 3.77693,-1.12905 17.08309,8.14089 52.76504,30.76667 65.04935,81.51747 0,0 1.13524,-27.18388 -22.04497,-56.10091 3.2784,2.7069 6.95747,4.7724 10.84621,6.1639 -3.06875,-1.81393 -5.83465,-4.25215 -8.1005,-7.28829 -9.15809,-12.28119 -6.62823,-29.65005 5.64674,-38.8097 12.27965,-9.15654 29.65006,-6.63135 38.80816,5.64674 7.74951,10.3912 7.12831,24.43661 -0.68954,34.05906 14.62624,-12.28586 17.30209,-34.00004 5.73061,-49.50994 -2.30622,-3.08739 -5.00225,-5.70576 -7.97471,-7.83183 7.72001,-1.60426 13.9802,-7.87842 15.18068,-16.14198 0.5715,-3.90116 -0.0699,-7.70914 -1.64309,-11.0217 0.47211,1.83409 0.59635,3.79554 0.30594,5.79117 -1.17407,8.06167 -8.65958,13.64629 -16.72281,12.46911 -8.06478,-1.16787 -13.64939,-8.65648 -12.47531,-16.7228 0.99237,-6.82393 6.51332,-11.86966 13.07323,-12.54677 -9.22333,-0.80291 -17.65617,5.06902 -20.20155,13.82489 0.0341,-0.58238 0.028,-0.89608 0.028,-0.89608 -35.03124,45.13355 -59.36379,38.3733 -132.55556,63.72928 -73.18869,25.35133 -81.00498,102.08708 -81.00498,102.08708 25.09664,-97.66721 105.60154,-99.43764 105.60154,-99.43764 -28.51792,15.66365 -38.48203,46.72849 -38.48203,46.72849 13.11207,-27.81595 37.26913,-41.29295 50.65141,-46.89311 10.60705,3.95552 57.73777,24.65713 72.24289,84.59087 0,0 2.16179,-51.79442 -60.43381,-88.43767 1.15544,-0.25004 2.29225,-0.50473 3.42128,-0.76254 14.83589,6.30989 55.59618,28.28031 68.90547,83.25839" />
        <path
           inkscape:connector-curvature="0"
           id="path2560"
           style="opacity:0;fill:url(#Wavy);fill-opacity:1;fill-rule:nonzero;stroke:none;stroke-width:0.15530093"
           d="m 314.50776,900.60596 c -18.11896,-37.78938 -62.33625,-54.71407 -47.19441,-116.31574 -15.51145,43.51066 4.3624,73.44647 15.659,99.46714 -12.51726,8.32258 -40.37824,34.6523 -64.44989,37.75832 23.29514,0.7765 55.19706,-24.49252 67.31985,-30.99652 0.82464,2.31244 2.68515,6.39375 3.27684,8.70463 -18.5802,9.40501 -51.76645,33.97052 -83.14966,30.54302 27.88894,11.40842 88.06805,-28.73222 108.53827,-29.16085" />
        <path
           inkscape:connector-curvature="0"
           id="path2562"
           transform="matrix(-1,0,0,1,474.32848,527.91541)"
           d="m 223.95312,22.9375 c 9.10532,82.41355 -58.3222,127.5724 -66.36523,132.64453 -9.60071,-37.87789 30.20117,-41.70312 30.20117,-41.70312 -36.18356,-7.01338 -57.32422,33.74167 -36.87109,59.22656 20.45158,25.49576 65.7832,33.97265 65.7832,33.97265 -14.67128,-3.97103 -26.31803,-11.15033 -35.14844,-18.55664 84.39674,-61.21497 59.02539,-139.537105 59.02539,-139.537105 9.13013,82.595235 -58.60978,127.770635 -66.4121,132.679685 -1.30763,-1.34335 -2.52091,-2.65933 -3.64063,-3.92968 C 257.6197,116.29266 231.79883,36.587891 231.79883,36.587891 241.4834,124.20246 164.65625,169.71289 164.65625,169.71289 l 0.0371,0.74023 c -1.61669,-2.22545 -2.79958,-4.05442 -3.56055,-5.28906 C 250.0752,103.57946 223.95311,22.9375 223.95311,22.9375 Z M 117.48438,148.71289 c -0.56904,-10e-4 -1.1423,0.024 -1.71876,0.0742 6.55992,0.67711 12.0799,5.72294 13.07227,12.54687 1.17408,8.06632 -4.40983,15.55479 -12.47461,16.72266 -8.06323,1.17718 -15.54859,-4.40708 -16.722655,-12.46875 -0.29041,-1.99563 -0.167422,-3.95693 0.304687,-5.79101 -1.573189,3.31255 -2.214078,7.12032 -1.642578,11.02148 1.20048,8.26356 7.461626,14.53636 15.181646,16.14062 -2.97247,2.12607 -5.66839,4.74465 -7.97461,7.83204 -11.571484,15.5099 -8.895776,37.2239 5.73046,49.50976 -7.81785,-9.62245 -8.43896,-23.66739 -0.68945,-34.05859 9.1581,-12.27809 26.52699,-14.80303 38.80664,-5.64649 12.27497,9.15965 14.80458,26.52936 5.64649,38.81055 -2.26585,3.03614 -5.03086,5.47318 -8.09961,7.28711 3.88874,-1.3915 7.5673,-3.45716 10.8457,-6.16406 -23.18021,28.91703 -22.04492,56.10156 -22.04492,56.10156 12.28431,-50.7508 47.96769,-73.37669 65.05078,-81.51758 1.23465,0.38204 2.4957,0.75773 3.77539,1.12891 -59.02057,36.4926 -56.93945,86.33593 -56.93945,86.33593 13.30929,-54.97807 54.07036,-76.94792 68.90625,-83.25781 1.12903,0.25781 2.26643,0.51363 3.42187,0.76367 -62.5956,36.64325 -60.43554,88.4375 -60.43554,88.4375 14.50511,-59.93374 61.63709,-80.63627 72.24414,-84.59179 13.38228,5.60016 37.53832,19.07663 50.65039,46.89258 0,0 -9.96255,-31.06487 -38.48047,-46.72852 0,0 80.50297,1.77029 105.59961,99.4375 0,0 -7.81522,-76.73461 -81.00391,-102.08594 -73.19177,-25.35598 -97.52345,-18.59692 -132.55469,-63.73047 0,0 -0.007,0.31411 0.0274,0.89649 -2.3863,-8.20863 -9.94685,-13.88284 -18.48242,-13.89844 z m 51.8125,56.96289 c 5.94957,3.49582 12.96138,6.86148 21.21874,9.95508 -10.19861,6.5273 -18.50576,13.44686 -25.26757,20.41211 5.94492,-9.29321 7.14708,-20.42949 4.04883,-30.36719 z m 37.81835,49.59766 c 15.14184,61.60167 -29.07439,78.52702 -47.19335,116.3164 20.47021,0.42863 80.64816,40.56858 108.5371,29.16016 -31.38321,3.4275 -64.56823,-21.13796 -83.14843,-30.54297 0.59169,-2.31088 2.45075,-6.39068 3.27539,-8.70312 12.12279,6.504 44.02517,31.77259 67.32031,30.99609 -24.07165,-3.10602 -51.93196,-29.43523 -64.44922,-37.75781 11.2966,-26.02067 31.16965,-55.95809 15.6582,-99.46875 z"
           style="opacity:0.47300002;fill:url(#pattern2566);fill-opacity:1;fill-rule:nonzero;stroke:none;stroke-width:0.15530093" />
      </g>
    </g>
    <g
       transform="matrix(-1,0,0,1,62.575523,21.865978)"
       id="g963" />
  </g>
</svg>
