<?xml version="1.0" encoding="UTF-8" standalone="no"?>
<!-- Created with Inkscape (http://www.inkscape.org/) -->

<svg
   xmlns:dc="http://purl.org/dc/elements/1.1/"
   xmlns:cc="http://creativecommons.org/ns#"
   xmlns:rdf="http://www.w3.org/1999/02/22-rdf-syntax-ns#"
   xmlns:svg="http://www.w3.org/2000/svg"
   xmlns="http://www.w3.org/2000/svg"
   xmlns:xlink="http://www.w3.org/1999/xlink"
   xmlns:sodipodi="http://sodipodi.sourceforge.net/DTD/sodipodi-0.dtd"
   xmlns:inkscape="http://www.inkscape.org/namespaces/inkscape"
   width="1920"
   height="1080"
   viewBox="0 0 1920 1080"
   id="svg2"
   version="1.1"
   inkscape:version="0.92.2 5c3e80d, 2017-08-06"
   sodipodi:docname="foxwall-fhd.svg"
   inkscape:export-filename="/home/ilnanny/3.png"
   inkscape:export-xdpi="96"
   inkscape:export-ydpi="96">
  <defs
     id="defs4">
    <pattern
       patternTransform="matrix(7.0479591,-5.2827315,-0.36604206,-0.24143539,-1536.2778,261.07527)"
       id="pattern9941"
       xlink:href="#pattern9639"
       inkscape:collect="always" />
    <pattern
       inkscape:collect="always"
       xlink:href="#pattern9639"
       id="pattern9643"
       patternTransform="matrix(7.0479591,-5.2827315,-0.36604206,-0.24143539,383.72208,261.07525)" />
    <pattern
       inkscape:collect="always"
       xlink:href="#pattern9635"
       id="pattern9639"
       patternTransform="matrix(4.6986396,-5.0088121,-0.24402805,-0.22891652,-1024.1853,302.10495)" />
    <pattern
       inkscape:collect="always"
       xlink:href="#Wavy"
       id="pattern9635"
       patternTransform="matrix(0.25419829,0.96715211,-0.96715211,0.25419829,0,0)" />
    <pattern
       inkscape:stockid="Wavy"
       id="Wavy"
       height="5.1805778"
       width="30.066020"
       patternUnits="userSpaceOnUse"
       inkscape:collect="always">
      <path
         id="path9536"
         d="M 7.597,0.061 C 5.079,-0.187 2.656,0.302 -0.01,1.788 L -0.01,3.061 C 2.773,1.431 5.173,1.052 7.472,1.280 C 9.770,1.508 11.969,2.361 14.253,3.218 C 18.820,4.931 23.804,6.676 30.066,3.061 L 30.062,1.788 C 23.622,5.497 19.246,3.770 14.691,2.061 C 12.413,1.207 10.115,0.311 7.597,0.061 z "
         style="fill:black;stroke:none;" />
    </pattern>
    <pattern
       inkscape:collect="always"
       xlink:href="#pattern9635"
       id="pattern9881"
       patternTransform="matrix(4.6986396,-5.0088121,-0.24402805,-0.22891652,-1024.1853,302.10495)" />
    <pattern
       inkscape:collect="always"
       xlink:href="#Wavy"
       id="pattern9883"
       patternTransform="matrix(0.25419829,0.96715211,-0.96715211,0.25419829,0,0)" />
  </defs>
  <sodipodi:namedview
     id="base"
     pagecolor="#ffffff"
     bordercolor="#666666"
     borderopacity="1.0"
     inkscape:pageopacity="0.0"
     inkscape:pageshadow="2"
     inkscape:zoom="0.51412556"
     inkscape:cx="972.24838"
     inkscape:cy="540"
     inkscape:document-units="px"
     inkscape:current-layer="layer1"
     showgrid="false"
     units="px"
     inkscape:showpageshadow="false"
     inkscape:window-width="1920"
     inkscape:window-height="1002"
     inkscape:window-x="0"
     inkscape:window-y="19"
     inkscape:window-maximized="1" />
  <metadata
     id="metadata7">
    <rdf:RDF>
      <cc:Work
         rdf:about="">
        <dc:format>image/svg+xml</dc:format>
        <dc:type
           rdf:resource="http://purl.org/dc/dcmitype/StillImage" />
        <dc:title />
        <cc:license
           rdf:resource="http://creativecommons.org/licenses/by-sa/4.0/" />
        <dc:date>20192017</dc:date>
        <dc:creator>
          <cc:Agent>
            <dc:title>Cristian Pozzessere  &lt; ilnanny &gt;</dc:title>
          </cc:Agent>
        </dc:creator>
        <dc:subject>
          <rdf:Bag>
            <rdf:li>ilnanny</rdf:li>
          </rdf:Bag>
        </dc:subject>
      </cc:Work>
      <cc:License
         rdf:about="http://creativecommons.org/licenses/by-sa/3.0/">
        <cc:permits
           rdf:resource="http://creativecommons.org/ns#Reproduction" />
        <cc:permits
           rdf:resource="http://creativecommons.org/ns#Distribution" />
        <cc:requires
           rdf:resource="http://creativecommons.org/ns#Notice" />
        <cc:requires
           rdf:resource="http://creativecommons.org/ns#Attribution" />
        <cc:permits
           rdf:resource="http://creativecommons.org/ns#DerivativeWorks" />
        <cc:requires
           rdf:resource="http://creativecommons.org/ns#ShareAlike" />
      </cc:License>
    </rdf:RDF>
  </metadata>
  <g
     inkscape:label="Livello 1"
     inkscape:groupmode="layer"
     id="layer1"
     transform="translate(0,27.63782)">
    <rect
       style="opacity:1;fill:#3c4148;fill-opacity:1;stroke:none;stroke-width:4.60461617;stroke-miterlimit:4;stroke-dasharray:none;stroke-opacity:1"
       id="rect9629"
       width="1919.9999"
       height="1080"
       x="6.1035156e-05"
       y="-27.637819" />
    <rect
       y="-27.637819"
       x="-1920"
       height="1080"
       width="1919.9999"
       id="rect9637"
       style="opacity:0.48600003;fill:url(#pattern9941);fill-opacity:1;stroke:none;stroke-width:4.60461617;stroke-miterlimit:4;stroke-dasharray:none;stroke-opacity:1"
       transform="scale(-1,1)" />
    <rect
       style="opacity:0.48600003;fill:url(#pattern9643);fill-opacity:1;stroke:none;stroke-width:4.60461617;stroke-miterlimit:4;stroke-dasharray:none;stroke-opacity:1"
       id="rect9641"
       width="1919.9999"
       height="1080"
       x="6.1035156e-05"
       y="-27.637819" />
    <rect
       y="-27.637819"
       x="6.1035156e-05"
       height="1080"
       width="1919.9999"
       id="rect9627"
       style="opacity:1;fill:#5a85a0;fill-opacity:0.13215859;stroke:none;stroke-width:4.60461617;stroke-miterlimit:4;stroke-dasharray:none;stroke-opacity:1" />
    <g
       transform="matrix(0.88704561,0,0,0.88704561,392.29081,33.036276)"
       id="g9819"
       style="fill:#e6ebf4;fill-opacity:0.41228071;stroke:none;stroke-opacity:1">
      <g
         style="fill:#e6ebf4;fill-opacity:0.41228071;stroke:none;stroke-opacity:1"
         transform="matrix(1.0555228,0,0,-1.0555228,403.87691,642.89015)"
         id="g6553">
        <g
           style="fill:#e6ebf4;fill-opacity:0.41228071;stroke:none;stroke-opacity:1"
           clip-path="none"
           mask="none"
           transform="translate(257.9072,93.3594)"
           id="g502">
          <path
             inkscape:connector-curvature="0"
             id="path504"
             style="fill:#e6ebf4;fill-opacity:0.41228071;fill-rule:nonzero;stroke:none;stroke-opacity:1"
             d="m 0,0 c -2.252,0 -4.078,-1.825 -4.078,-4.08 0,-2.253 1.826,-4.08 4.078,-4.08 2.257,0 4.081,1.827 4.081,4.08 C 4.081,-1.825 2.257,0 0,0" />
        </g>
        <g
           style="fill:#e6ebf4;fill-opacity:0.41228071;stroke:none;stroke-opacity:1"
           clip-path="none"
           mask="none"
           transform="translate(293.668,87.0205)"
           id="g506">
          <path
             inkscape:connector-curvature="0"
             id="path508"
             style="fill:#e6ebf4;fill-opacity:0.41228071;fill-rule:nonzero;stroke:none;stroke-opacity:1"
             d="m 0,0 0.001,0.012 c -0.162,0.016 -0.321,0.024 -0.48,0.042 -1.939,0.229 -3.802,0.34 -5.597,0.342 l 0,0.013 C -6.122,0.407 -6.162,0.398 -6.204,0.396 -29.15,0.363 -40.63,-17.171 -47.229,-27.275 c -0.844,-1.297 -1.643,-2.519 -2.354,-3.526 -6.352,-9.021 -18.505,-8.865 -20.271,-8.788 l 0,0.011 c -0.007,-10e-4 -0.052,-0.002 -0.111,-0.007 -0.057,0.005 -0.103,0.006 -0.11,0.007 l 0,-0.011 c -1.766,-0.077 -13.913,-0.236 -20.272,8.788 -0.71,1.007 -1.509,2.229 -2.354,3.526 -6.6,10.105 -18.081,27.649 -41.038,27.671 -0.037,0.002 -0.076,0.012 -0.114,0.013 l 0,-0.013 c -1.806,-0.002 -3.683,-0.113 -5.636,-0.345 -0.147,-0.015 -0.292,-0.025 -0.442,-0.039 l 0.002,-0.01 c -1.819,-0.234 -3.702,-0.57 -5.649,-1.021 0.587,1.314 2.092,4.52 4.515,8.712 l 0.018,-0.036 c 16.438,8.878 30.759,10.809 42.568,5.743 17.145,-7.356 23.265,-27.316 23.727,-28.908 l -1.389,0 c 0,0 -3.164,-4.47 -2.632,-5.786 0.508,-1.275 3.976,-8.214 8.49,-7.947 -0.546,-1.938 -2.092,-4.958 -6.345,-3.973 0,0 4.269,-4.341 6.662,-0.615 2.391,-3.726 6.661,0.615 6.661,0.615 -4.252,-0.985 -5.798,2.035 -6.345,3.973 4.516,-0.267 7.982,6.672 8.491,7.947 0.529,1.316 -2.634,5.786 -2.634,5.786 l -1.389,0 c 0.463,1.592 6.584,21.552 23.728,28.908 11.807,5.064 26.131,3.134 42.567,-5.743 L 1.136,7.691 C 3.557,3.501 5.062,0.295 5.65,-1.019 3.7,-0.569 1.818,-0.233 0,0 m 3.654,-1.501 0.009,0.08 C 3.736,-1.438 3.811,-1.448 3.882,-1.463 3.808,-1.479 3.731,-1.487 3.654,-1.501 m -127.628,-0.103 c 16.197,-4.084 25.107,-17.711 30.596,-26.115 0.849,-1.301 1.652,-2.528 2.369,-3.548 5.948,-8.445 16.741,-9.146 20.153,-9.146 0.422,0 0.719,0.01 0.891,0.018 0.173,-0.008 0.467,-0.018 0.892,-0.018 3.413,0 14.204,0.702 20.153,9.146 0.718,1.02 1.521,2.247 2.37,3.548 5.487,8.403 14.398,22.031 30.588,26.115 -13.325,-4.632 -21.196,-16.897 -26.897,-25.792 -1.876,-2.928 -3.494,-5.455 -5.061,-7.395 -7.596,-9.409 -20.457,-7.978 -21.969,-7.774 l -0.002,0.023 c -0.005,-10e-4 -0.033,-0.006 -0.072,-0.011 -0.041,0.005 -0.07,0.01 -0.077,0.011 l -0.002,-0.023 c -1.51,-0.206 -14.363,-1.643 -21.968,7.774 -1.567,1.94 -3.185,4.467 -5.06,7.395 -5.701,8.895 -13.573,21.16 -26.904,25.792 m 26.221,-26.23 c 1.887,-2.948 3.52,-5.493 5.112,-7.466 5.78,-7.154 14.463,-8.268 19.303,-8.268 1.703,0 2.919,0.139 3.373,0.196 0.457,-0.057 1.67,-0.196 3.374,-0.196 4.84,0 13.524,1.115 19.304,8.268 1.59,1.973 3.224,4.518 5.112,7.466 6.064,9.469 13.835,21.575 27.25,25.782 -10.864,-5.331 -18.769,-18.084 -24.87,-27.943 -3.715,-5.997 -6.92,-11.176 -9.665,-12.838 -7.803,-4.712 -18.943,-3.475 -20.421,-3.282 l -0.003,0.02 c -0.005,-10e-4 -0.038,-0.005 -0.081,-0.01 -0.043,0.004 -0.076,0.009 -0.08,0.01 l -0.004,-0.02 c -1.477,-0.193 -12.61,-1.433 -20.421,3.282 -2.744,1.662 -5.951,6.841 -9.665,12.838 -6.108,9.868 -14.022,22.641 -24.906,27.962 13.437,-4.195 21.215,-16.323 27.288,-25.801 m 69.404,6.55 -0.091,-0.121 c -6.124,-8.053 -13.482,-21.443 -13.554,-21.576 l 0.07,-0.041 c -1.279,-1.018 -2.468,-1.774 -3.553,-2.204 -10.088,-3.99 -21.916,-4.192 -24.186,-4.192 l -0.306,0.002 -0.299,-0.002 c -2.269,0 -14.096,0.202 -24.184,4.192 -1.087,0.43 -2.274,1.186 -3.554,2.204 l 0.07,0.041 c -0.072,0.133 -7.429,13.523 -13.552,21.576 l -0.091,0.121 c -6.115,8.039 -16.351,21.494 -31.946,19.87 1.466,0.29 2.896,0.515 4.285,0.674 2.727,0.272 5.289,0.274 7.692,0.031 13.901,-2.55 23.567,-18.149 30.726,-29.712 3.923,-6.336 7.022,-11.344 9.936,-13.103 5.073,-3.066 11.35,-3.712 15.742,-3.712 2.617,0 4.56,0.231 5.179,0.312 0.622,-0.081 2.56,-0.312 5.182,-0.312 4.39,0 10.668,0.646 15.741,3.712 2.913,1.759 6.01,6.767 9.936,13.103 7.14,11.535 16.776,27.09 30.627,29.694 2.439,0.256 5.041,0.261 7.82,-0.016 1.383,-0.158 2.804,-0.385 4.263,-0.671 -15.607,1.623 -25.838,-11.829 -31.953,-19.87 m 0.245,-7.085 c -4.542,-5.286 -8.677,-10.093 -12.22,-13.286 2.188,3.878 7.741,13.467 12.528,19.759 l 0.09,0.119 c 5.727,7.533 15.135,19.878 29.104,19.673 -9.719,-3.256 -20.144,-15.38 -29.502,-26.265 m -83.722,0 c -9.356,10.885 -19.782,23.009 -29.5,26.265 13.973,0.203 23.375,-12.14 29.101,-19.673 l 0.092,-0.119 c 4.786,-6.292 10.337,-15.881 12.529,-19.759 -3.544,3.193 -7.679,8 -12.222,13.286 m -31.986,26.905 c 0.074,0.016 0.146,0.026 0.221,0.04 l 0.008,-0.077 c -0.078,0.014 -0.154,0.022 -0.229,0.037 m 8.677,18.391 c 0.989,-0.085 1.652,-0.41 1.959,-0.982 0.614,-1.143 -0.212,-3.129 -0.64,-3.909 -2.136,-0.909 -4.308,-1.939 -6.52,-3.1 1.447,2.436 3.179,5.149 5.201,7.991 m 5.715,7.352 c 2.019,0.192 3.45,-0.252 4.251,-1.318 1.755,-2.339 0.178,-7.011 -0.157,-7.919 -2.403,-0.67 -4.86,-1.508 -7.375,-2.532 0.419,1.018 0.876,2.63 0.24,3.816 -0.387,0.724 -1.118,1.158 -2.145,1.337 1.563,2.162 3.291,4.389 5.186,6.616 m 6.421,6.836 c 2.222,-0.052 3.84,-0.804 4.802,-2.24 2.519,-3.745 0.098,-11.049 -0.378,-12.39 -1.894,-0.271 -3.827,-0.669 -5.801,-1.185 0.548,1.666 1.628,5.781 -0.145,8.146 -0.862,1.151 -2.26,1.717 -4.164,1.684 1.708,1.966 3.603,3.985 5.686,5.985 m -2.594,2.095 0.079,0 c -0.033,10.531 9.028,20.713 11.089,22.892 1.001,-2.324 1.689,-4.761 2.16,-6.976 -1.31,-1.208 -9.401,-8.909 -12.717,-17.607 -0.172,0.468 -0.379,1.035 -0.611,1.691 m -2.143,6.501 0.065,-0.006 c 1.228,13.191 7.21,21.646 8.513,23.348 1.86,-1.658 3.284,-3.824 4.373,-6.154 -1.476,-1.528 -10.49,-11.259 -11.451,-21.836 -0.462,1.361 -0.975,2.932 -1.5,4.648 m -3.008,11.964 0.244,-0.029 c 0.789,7.207 3.444,13.272 4.03,14.542 2.512,-0.215 4.75,-1.086 6.691,-2.617 -1.268,-1.651 -6.913,-9.605 -8.5,-22.041 -0.927,3.178 -1.827,6.698 -2.465,10.145 m 0.009,14.292 c 1.179,0.21 2.311,0.294 3.398,0.267 -0.724,-1.621 -2.795,-6.626 -3.727,-12.705 -0.765,4.878 -0.89,9.43 0.329,12.438 m 3.113,3.249 c 0.667,0.238 1.396,0.366 2.169,0.408 l -0.382,-0.16 c 12.308,-1.234 17.763,-21.133 18.642,-25.793 -1.11,-0.615 -2.203,-1.248 -3.258,-1.909 -0.138,2.9 -1.176,16.219 -8.645,22.312 -3.07,2.505 -6.855,3.423 -11.235,2.765 0.657,1.169 1.567,1.968 2.709,2.377 m 10.234,-1.422 c 9.258,-5.332 13.642,-19.79 14.272,-22.042 -1.206,-0.565 -2.383,-1.155 -3.529,-1.777 -0.777,3.67 -3.775,14.106 -9.001,20.539 -1.834,2.256 -3.777,3.804 -5.801,4.653 1.297,-0.316 2.657,-0.785 4.059,-1.373 m 17.801,-20.521 c -0.999,-0.394 -1.976,-0.815 -2.94,-1.252 -0.566,2.329 -3.613,13.564 -10.945,19.781 9.186,-5.871 13.24,-16.66 13.885,-18.529 m -10.211,16.553 c 7.004,-5.316 13.701,-13.257 15.028,-14.874 -1.441,-0.436 -2.859,-0.913 -4.235,-1.442 -0.618,1.769 -3.845,10.263 -10.845,16.35 0.016,-0.01 0.034,-0.021 0.052,-0.034 m 18.506,-13.919 c -0.956,-0.228 -1.897,-0.48 -2.826,-0.751 -0.649,0.861 -4.586,5.994 -9.79,10.771 6.114,-4.336 11.189,-8.752 12.616,-10.02 m 6.512,0.569 c 0.497,-1.828 1.248,-3.249 2.243,-4.262 -1.7,-0.721 -7.117,-2.474 -10.578,2.597 2.666,0.735 5.446,1.299 8.335,1.665 m 7.459,0.471 c 0.389,0 0.783,-0.007 1.175,-0.016 0.015,-2.047 0.563,-3.688 1.63,-4.887 -0.034,-0.022 -3.149,-1.601 -5.885,-0.369 -1.669,0.748 -2.866,2.406 -3.569,4.903 2.156,0.243 4.372,0.369 6.649,0.369 m 7.389,-0.422 c 1.784,0.204 3.573,0.334 5.34,0.389 -0.018,-1.945 -0.552,-3.473 -1.6,-4.532 -1.479,-1.491 -3.535,-1.598 -3.861,-1.608 -0.614,0.038 -2.381,0.292 -3.682,1.608 -1.051,1.059 -1.585,2.587 -1.601,4.532 1.77,-0.055 3.57,-0.185 5.404,-0.389 m 7.323,0.422 c 2.276,0 4.494,-0.126 6.649,-0.369 -0.702,-2.496 -1.896,-4.151 -3.564,-4.903 -2.725,-1.229 -5.852,0.346 -5.889,0.369 1.067,1.199 1.617,2.84 1.629,4.887 0.395,0.009 0.786,0.016 1.175,0.016 m 15.795,-2.136 c -3.464,-5.07 -8.881,-3.318 -10.579,-2.597 0.996,1.012 1.747,2.434 2.245,4.262 2.888,-0.366 5.668,-0.931 8.334,-1.665 M -31.65,62.879 C -39.001,57.135 -44.939,49.12 -45.008,49.027 l 0.29,-0.214 c -1.285,0.401 -2.584,0.776 -3.92,1.094 1.757,1.56 9.038,7.894 16.988,12.972 m -8.483,-15.692 c -1.402,0.562 -2.841,1.077 -4.312,1.543 0.687,0.846 7.841,9.531 15.322,15.177 -7.764,-6.714 -10.913,-16.411 -11.01,-16.72 m 3.54,-1.538 c -1.1,0.52 -2.229,1.008 -3.378,1.472 l 0.431,-0.134 c 0.043,0.137 3.958,12.409 13.983,18.815 -7.88,-6.68 -10.811,-19.161 -11.036,-20.153 m 20.025,23.889 c -2.393,-0.715 -4.678,-2.394 -6.817,-5.024 -5.457,-6.716 -8.486,-17.804 -9.089,-20.989 -1.246,0.697 -2.521,1.367 -3.836,1.995 l 0.318,-0.066 c 0.04,0.181 5.191,19.81 17.313,23.664 0.723,0.186 1.429,0.334 2.111,0.42 m 3.364,-0.078 c 0.307,-0.064 0.608,-0.141 0.895,-0.244 1.142,-0.409 2.053,-1.208 2.709,-2.377 -4.379,0.656 -8.162,-0.259 -11.234,-2.765 -7.469,-6.094 -8.507,-19.416 -8.645,-22.312 -0.795,0.499 -1.611,0.981 -2.436,1.452 0.557,3.595 5.945,24.959 18.711,26.246 m 4.34,-15.931 c -0.934,6.079 -3.004,11.084 -3.728,12.705 1.088,0.027 2.218,-0.057 3.396,-0.267 1.22,-3.008 1.096,-7.56 0.332,-12.438 M -11.648,41.53 c -1.589,12.436 -7.236,20.39 -8.502,22.041 1.941,1.531 4.179,2.402 6.691,2.617 0.585,-1.269 3.24,-7.331 4.031,-14.542 l 0.243,0.029 c -0.638,-3.447 -1.538,-6.967 -2.463,-10.145 m -2.045,-6.467 c -0.962,10.577 -9.976,20.308 -11.452,21.836 1.09,2.33 2.514,4.496 4.374,6.154 1.301,-1.699 7.283,-10.144 8.513,-23.348 l 0.066,0.006 c -0.525,-1.716 -1.039,-3.287 -1.501,-4.648 m -1.253,-3.544 c -3.318,8.698 -11.408,16.399 -12.719,17.607 0.473,2.215 1.16,4.652 2.158,6.976 2.064,-2.177 11.125,-12.354 11.091,-22.892 l 0.077,0 c -0.23,-0.656 -0.437,-1.223 -0.607,-1.691 m -13.634,1.966 c 0.971,1.87 2.496,3.135 4.522,3.77 2.265,-1.734 4.372,-3.545 6.326,-5.379 -2.103,-0.21 -3.675,-1.064 -4.674,-2.549 -2.566,-3.821 -0.567,-10.614 0.148,-12.715 -2.046,0.256 -4.041,0.357 -5.992,0.325 -0.287,0.894 -3.343,10.744 -0.33,16.548 m -0.107,7.769 c 0.014,0.409 0.129,3.277 0.834,6.94 2.059,-1.953 9.549,-9.45 12.406,-17.68 -3.77,3.748 -8.187,7.481 -13.24,10.74 m -2.868,1.059 c 2.373,-1.394 4.607,-2.902 6.718,-4.474 -1.974,-0.749 -3.477,-2.083 -4.46,-3.981 -3.027,-5.833 -0.37,-15.107 0.204,-16.937 -1.664,-0.063 -3.29,-0.228 -4.882,-0.503 -1.073,1.997 -7.5,15.155 2.42,25.895 m -47.666,-14.33 c 3.973,0.872 7.11,1.267 8.554,1.418 -1.488,-2.121 -2.768,-4.174 -3.871,-6.157 -0.91,0.148 -4.004,0.936 -4.683,4.739 m -6.634,-1.745 c 2.052,0.637 4.025,1.15 5.844,1.567 0.717,-3.906 3.772,-5.007 5.066,-5.297 -1.037,-1.913 -1.913,-3.753 -2.641,-5.496 -1.422,0.289 -7.666,1.987 -8.269,9.226 m -0.801,-0.251 c 0.712,-7.305 6.975,-9.309 8.764,-9.735 -0.8,-1.995 -1.419,-3.872 -1.892,-5.595 -2.126,0.529 -13.445,3.753 -14.473,12.392 2.552,1.175 5.126,2.144 7.601,2.938 m -16.459,9.244 c -0.52,1.499 -1.247,3.014 -2.226,4.517 6.166,1.703 11.38,1.341 15.498,-1.085 5.919,-3.492 7.766,-10.227 7.836,-10.507 -2.111,-0.531 -4.38,-1.192 -6.71,-2.007 -0.276,1.403 -1.373,5.631 -4.934,8.003 -2.507,1.671 -5.695,2.025 -9.464,1.079 m 6.541,-12.412 c -2.644,-1.345 -5.227,-2.92 -7.601,-4.772 0.869,2.001 2.122,5.608 2.199,9.885 1.61,0.106 2.888,-0.26 3.796,-1.095 1.613,-1.489 1.577,-3.994 1.577,-4.017 l 0.029,-0.001 z m -1.051,4.607 c -1.07,0.988 -2.535,1.425 -4.351,1.313 -0.033,1.823 -0.292,3.753 -0.888,5.72 3.515,0.868 6.463,0.55 8.76,-0.978 3.379,-2.246 4.396,-6.469 4.614,-7.611 -2.09,-0.757 -4.217,-1.637 -6.316,-2.664 -0.053,0.851 -0.34,2.854 -1.819,4.22 m 51.345,6.726 c -3.56,-2.372 -4.656,-6.6 -4.932,-8.003 -2.247,0.787 -4.436,1.423 -6.483,1.949 0.122,0.513 1.79,7.127 7.601,10.558 4.12,2.433 9.336,2.794 15.507,1.092 -0.979,-1.503 -1.706,-3.018 -2.226,-4.517 -3.773,0.946 -6.956,0.592 -9.467,-1.079 m -6.993,-8.165 c 2.476,-0.794 5.049,-1.763 7.6,-2.938 -1.023,-8.608 -12.263,-11.84 -14.452,-12.388 -0.464,1.684 -1.084,3.56 -1.902,5.595 1.8,0.428 8.045,2.439 8.754,9.731 M -65.39,23.244 c -1.101,1.974 -2.379,4.027 -3.874,6.157 1.448,-0.151 4.585,-0.546 8.556,-1.418 -0.678,-3.804 -3.776,-4.591 -4.682,-4.739 m 5.473,4.561 c 1.817,-0.417 3.791,-0.93 5.843,-1.567 -0.604,-7.231 -6.832,-8.935 -8.262,-9.226 -0.727,1.73 -1.601,3.57 -2.647,5.496 1.295,0.291 4.347,1.392 5.066,5.297 m 21.965,0.934 c -1.818,0.112 -3.284,-0.326 -4.352,-1.313 -1.481,-1.366 -1.765,-3.369 -1.82,-4.22 -2.097,1.027 -4.225,1.907 -6.314,2.664 0.217,1.142 1.232,5.365 4.611,7.611 2.299,1.528 5.247,1.846 8.761,0.978 -0.596,-1.967 -0.856,-3.897 -0.886,-5.72 m -3.802,-1.908 c 0.907,0.841 2.192,1.207 3.802,1.101 0.073,-4.277 1.33,-7.884 2.199,-9.885 -2.377,1.852 -4.958,3.427 -7.603,4.773 l 0.029,0 c -0.001,0.023 -0.043,2.516 1.573,4.011 m -15.614,18.513 c 2.199,-0.823 7.835,-2.212 11.372,3.241 4.848,-1.41 9.32,-3.384 13.42,-5.697 -0.012,-0.102 -0.016,-0.181 -0.01,-0.215 l 0.299,0.04 c -0.676,-0.746 -1.285,-1.498 -1.822,-2.256 -6.505,1.847 -12.02,1.481 -16.395,-1.103 -6.11,-3.605 -7.81,-10.347 -7.977,-11.06 -2.401,0.588 -4.582,1.014 -6.384,1.316 0.791,1.168 2.133,4.163 0.02,9.305 1.767,-0.605 5.612,-1.635 7.388,0.139 1.169,1.169 1.199,3.28 0.089,6.29 m -7.49,-0.407 c 1.236,-0.437 3.515,-0.966 5.662,-10e-4 0.321,0.144 0.618,0.323 0.908,0.525 1.118,-2.858 1.219,-4.876 0.257,-5.834 -1.539,-1.537 -5.632,-0.34 -7.266,0.317 0.745,1.382 1.088,3.06 0.439,4.993 m -9.254,-5.833 c 1.585,-2.239 4.063,-3.5 4.109,-3.521 l 0.039,0.078 0.039,-0.078 c 0.044,0.021 2.522,1.282 4.109,3.521 2.575,-5.805 0.583,-8.724 0.052,-9.348 -1.445,0.225 -2.591,0.364 -3.337,0.443 l -0.752,0.093 c -0.008,0 -0.05,-0.005 -0.111,-0.01 -0.062,0.005 -0.104,0.01 -0.114,0.01 l -0.749,-0.093 c -0.747,-0.079 -1.893,-0.218 -3.339,-0.442 -0.516,0.625 -2.499,3.586 0.054,9.347 m 4.021,4.858 c 0.024,0 0.069,0.002 0.126,0.005 0.057,-0.003 0.102,-0.005 0.128,-0.005 l 0.019,0 0,0.011 c 0.676,0.047 2.409,0.279 3.86,1.521 2.394,-4.98 -2.645,-8.244 -4.006,-9.013 -1.364,0.769 -6.401,4.033 -4.006,9.013 1.451,-1.242 3.181,-1.474 3.86,-1.521 l 0,-0.011 0.019,0 z m -4.543,-4.018 c -1.632,-0.661 -5.723,-1.855 -7.267,-0.317 -0.959,0.958 -0.859,2.976 0.26,5.834 0.291,-0.202 0.589,-0.381 0.908,-0.525 2.146,-0.965 4.424,-0.436 5.662,10e-4 -0.648,-1.933 -0.305,-3.611 0.437,-4.993 m -31.889,3.407 c 3.871,2.112 8.067,3.919 12.591,5.234 3.536,-5.452 9.171,-4.064 11.373,-3.241 -1.112,-3.01 -1.083,-5.121 0.086,-6.29 1.777,-1.77 5.622,-0.744 7.388,-0.139 -2.112,-5.142 -0.769,-8.137 0.02,-9.305 -1.744,-0.291 -3.843,-0.701 -6.154,-1.262 -0.13,0.531 -2.004,7.343 -8.206,11.006 -4.375,2.584 -9.89,2.953 -16.394,1.103 -0.54,0.763 -1.152,1.519 -1.835,2.268 0.185,0.104 0.378,0.206 0.565,0.31 0.015,-0.124 0.026,-0.228 0.026,-0.28 l 0.619,-0.082 c 0.013,0.079 -0.016,0.316 -0.079,0.678 m -4.109,-9.493 c -0.986,1.901 -2.488,3.232 -4.463,3.981 2.111,1.574 4.346,3.08 6.72,4.474 9.799,-10.611 3.221,-23.608 1.982,-25.824 -1.451,0.23 -2.932,0.379 -4.441,0.432 0.573,1.83 3.23,11.104 0.202,16.937 m -13.849,-3.339 c 2.855,8.221 10.346,15.721 12.405,17.675 0.702,-3.654 0.82,-6.519 0.834,-6.939 -5.053,-3.26 -9.469,-6.988 -13.239,-10.736 m 8.606,6.736 c 2.029,-0.635 3.555,-1.899 4.525,-3.769 3.011,-5.801 -0.043,-15.653 -0.328,-16.549 -1.953,0.032 -3.947,-0.069 -5.994,-0.325 0.715,2.102 2.714,8.894 0.149,12.715 -0.999,1.485 -2.571,2.34 -4.676,2.549 1.953,1.835 4.059,3.645 6.324,5.379 m 34.628,-37.628 c -3.798,5.531 -9.276,11.239 -16.906,14.514 -2.218,0.953 -4.522,1.658 -6.909,2.129 3.04,2.616 6.5,4.721 10.037,6.417 1.279,-8.927 12.774,-12.249 15.035,-12.815 -1.218,-4.781 -1.327,-8.356 -1.257,-10.245 m 21.646,-1.38 c -4.554,-7.096 -6.357,-13.53 -6.391,-13.646 l 0.392,-0.109 -4.224,0 -0.282,0 -4.221,0 0.391,0.109 c -0.034,0.116 -1.837,6.55 -6.394,13.646 l 0.003,0 c -0.022,0.129 -2.019,13.126 10.363,30.736 12.362,-17.587 10.384,-30.607 10.361,-30.736 l 0.002,0 z m 0.279,9.001 c -0.154,0.804 -0.351,1.689 -0.594,2.631 2.317,0.583 13.737,3.911 15.012,12.808 3.537,-1.696 6.997,-3.801 10.035,-6.417 -2.384,-0.471 -4.692,-1.176 -6.908,-2.129 -7.62,-3.272 -13.094,-8.968 -16.891,-14.495 0.063,1.521 0.012,4.123 -0.654,7.602 m 48.078,17.882 c -1.905,0.03 -3.303,-0.534 -4.165,-1.684 -1.771,-2.365 -0.69,-6.48 -0.145,-8.146 -1.971,0.516 -3.907,0.913 -5.8,1.185 -0.477,1.338 -2.899,8.641 -0.379,12.388 0.962,1.438 2.579,2.189 4.801,2.242 2.079,-2 3.978,-4.019 5.688,-5.985 m 0.732,-0.851 c 1.896,-2.227 3.622,-4.454 5.186,-6.616 -1.024,-0.179 -1.755,-0.614 -2.142,-1.337 -0.636,-1.186 -0.18,-2.798 0.24,-3.816 -2.515,1.024 -4.971,1.858 -7.376,2.531 -0.332,0.908 -1.914,5.576 -0.158,7.92 0.8,1.066 2.233,1.511 4.25,1.318 M 0.404,8.937 c -2.21,1.16 -4.382,2.19 -6.517,3.096 -0.427,0.782 -1.254,2.768 -0.641,3.912 0.307,0.572 0.97,0.897 1.959,0.981 2.02,-2.841 3.754,-5.554 5.199,-7.989 M 6.498,-1.438 C 6.467,-1.368 4.799,2.604 1.472,8.317 L 1.501,8.368 C 1.472,8.386 1.443,8.397 1.417,8.412 c -2.777,4.761 -6.698,10.713 -11.782,16.633 -1.381,1.608 -2.892,3.258 -4.521,4.907 0.054,0.141 0.136,0.361 0.251,0.665 l 0.011,0.002 c -10e-4,0.005 -0.003,0.007 -0.005,0.015 0.224,0.592 0.548,1.467 0.94,2.573 l 0.085,0 c 0,0.076 -0.004,0.151 -0.006,0.228 0.598,1.697 1.333,3.883 2.081,6.336 l 0.077,0.008 c -0.005,0.062 -0.013,0.121 -0.021,0.183 0.432,1.421 0.864,2.926 1.278,4.473 2.802,10.581 3.285,18.015 1.431,22.103 -0.738,1.629 -1.862,2.723 -3.339,3.25 -4.682,1.674 -12.4,-1.162 -22.943,-8.425 -7.293,-5.023 -13.476,-10.532 -14.31,-11.283 -4.165,0.943 -8.581,1.475 -13.253,1.475 -2.429,0 -4.914,-0.142 -7.323,-0.424 -2.475,0.282 -4.963,0.424 -7.389,0.424 -4.672,0 -9.087,-0.532 -13.252,-1.475 -0.835,0.753 -7.017,6.261 -14.31,11.283 -1.334,0.919 -2.621,1.766 -3.863,2.541 -0.749,0.543 -1.508,1.059 -2.277,1.53 l -0.621,0.191 c -1.074,0.612 -2.11,1.161 -3.108,1.649 -0.54,0.293 -1.089,0.573 -1.661,0.828 l -0.019,-0.045 c -4.82,2.125 -8.638,2.715 -11.394,1.731 -1.477,-0.527 -2.599,-1.621 -3.339,-3.25 -1.855,-4.088 -1.372,-11.522 1.432,-22.103 0.412,-1.547 0.845,-3.052 1.275,-4.473 -0.007,-0.062 -0.014,-0.121 -0.02,-0.183 l 0.078,-0.008 c 0.748,-2.453 1.483,-4.639 2.081,-6.336 0,-0.077 -0.007,-0.152 -0.007,-0.228 l 0.087,0 c 0.392,-1.106 0.715,-1.981 0.939,-2.573 -0.002,-0.008 -0.005,-0.01 -0.007,-0.015 l 0.012,-0.002 c 0.114,-0.304 0.2,-0.524 0.253,-0.665 -1.632,-1.649 -3.145,-3.298 -4.526,-4.907 -5.083,-5.92 -9.002,-11.872 -11.78,-16.633 -0.027,-0.016 -0.054,-0.026 -0.081,-0.044 l 0.027,-0.051 c -3.326,-5.713 -4.994,-9.685 -5.024,-9.755 l -0.175,-0.423 0.455,0 c 0.025,0 0.049,-0.002 0.075,-0.002 l 0.021,-0.087 c 0.114,0.025 0.222,0.045 0.333,0.072 0.729,-0.023 1.462,-0.114 2.2,-0.262 l 0.009,-0.085 c 0.102,0.013 0.199,0.014 0.299,0.025 9.999,-2.226 21.058,-15.091 30.922,-26.565 5.096,-5.93 9.685,-11.261 13.545,-14.432 0.058,-0.107 0.093,-0.167 0.096,-0.176 l 0.07,0.04 c 1.401,-1.137 2.708,-1.985 3.901,-2.457 10.189,-4.031 22.12,-4.236 24.407,-4.236 l 0.299,0.003 0.306,-0.003 c 2.291,0 14.219,0.205 24.407,4.236 1.196,0.472 2.5,1.32 3.902,2.457 l 0.072,-0.04 c 0.004,0.009 0.037,0.069 0.094,0.176 3.861,3.171 8.449,8.502 13.545,14.432 9.865,11.474 20.926,24.339 30.925,26.565 0.098,-0.011 0.195,-0.012 0.296,-0.025 l 0.009,0.085 c 0.74,0.148 1.475,0.239 2.201,0.262 0.111,-0.027 0.22,-0.047 0.331,-0.072 l 0.023,0.087 c 0.025,0 0.05,0.002 0.073,0.002 l 0.455,0 -0.172,0.423 z" />
        </g>
        <g
           style="fill:#e6ebf4;fill-opacity:0.41228071;stroke:none;stroke-opacity:1"
           clip-path="none"
           mask="none"
           transform="translate(189.499,93.3594)"
           id="g510">
          <path
             inkscape:connector-curvature="0"
             id="path512"
             style="fill:#e6ebf4;fill-opacity:0.41228071;fill-rule:nonzero;stroke:none;stroke-opacity:1"
             d="m 0,0 c -2.255,0 -4.081,-1.825 -4.081,-4.08 0,-2.253 1.826,-4.08 4.081,-4.08 2.253,0 4.078,1.827 4.078,4.08 C 4.078,-1.825 2.253,0 0,0" />
        </g>
        <g
           style="fill:#e6ebf4;fill-opacity:0.41228071;stroke:none;stroke-opacity:1"
           clip-path="none"
           mask="none"
           transform="translate(223.8437,111.8027)"
           id="g514">
          <path
             inkscape:connector-curvature="0"
             id="path516"
             style="fill:#e6ebf4;fill-opacity:0.41228071;fill-rule:nonzero;stroke:none;stroke-opacity:1"
             d="M 0,0 C 0,0 -5.789,-17.206 -5.922,-23.391 L 0,-32.47 l 0.066,-0.053 5.922,9.079 c -0.13,6.185 -5.922,23.39 -5.922,23.39 L 0,0 Z" />
        </g>
        <g
           style="fill:#e6ebf4;fill-opacity:0.41228071;stroke:none;stroke-opacity:1"
           clip-path="none"
           mask="none"
           transform="translate(259.7754,107.5557)"
           id="g518">
          <path
             inkscape:connector-curvature="0"
             id="path520"
             style="fill:#e6ebf4;fill-opacity:0.41228071;fill-rule:nonzero;stroke:none;stroke-opacity:1"
             d="M 0,0 1.103,-1.108 2.213,0 1.103,1.107 0,0 Z" />
        </g>
        <g
           style="fill:#e6ebf4;fill-opacity:0.41228071;stroke:none;stroke-opacity:1"
           clip-path="none"
           mask="none"
           transform="translate(260.8779,114.7588)"
           id="g522">
          <path
             inkscape:connector-curvature="0"
             id="path524"
             style="fill:#e6ebf4;fill-opacity:0.41228071;fill-rule:nonzero;stroke:none;stroke-opacity:1"
             d="M 0,0 -1.103,1.106 -2.213,0 -1.103,-1.106 0,0 Z" />
        </g>
        <g
           style="fill:#e6ebf4;fill-opacity:0.41228071;stroke:none;stroke-opacity:1"
           clip-path="none"
           mask="none"
           transform="translate(261.9883,121.3359)"
           id="g526">
          <path
             inkscape:connector-curvature="0"
             id="path528"
             style="fill:#e6ebf4;fill-opacity:0.41228071;fill-rule:nonzero;stroke:none;stroke-opacity:1"
             d="M 0,0 -1.11,1.106 -2.213,0 -1.11,-1.108 0,0 Z" />
        </g>
        <g
           style="fill:#e6ebf4;fill-opacity:0.41228071;stroke:none;stroke-opacity:1"
           clip-path="none"
           mask="none"
           transform="translate(265.8252,125.5117)"
           id="g530">
          <path
             inkscape:connector-curvature="0"
             id="path532"
             style="fill:#e6ebf4;fill-opacity:0.41228071;fill-rule:nonzero;stroke:none;stroke-opacity:1"
             d="M 0,0 -1.108,1.107 -2.214,0 -1.108,-1.107 0,0 Z" />
        </g>
        <g
           style="fill:#e6ebf4;fill-opacity:0.41228071;stroke:none;stroke-opacity:1"
           clip-path="none"
           mask="none"
           transform="translate(273.5264,106.1563)"
           id="g534">
          <path
             inkscape:connector-curvature="0"
             id="path536"
             style="fill:#e6ebf4;fill-opacity:0.41228071;fill-rule:nonzero;stroke:none;stroke-opacity:1"
             d="M 0,0 1.108,-1.107 2.218,0 1.108,1.109 0,0 Z" />
        </g>
        <g
           style="fill:#e6ebf4;fill-opacity:0.41228071;stroke:none;stroke-opacity:1"
           clip-path="none"
           mask="none"
           transform="translate(274.6348,112.252)"
           id="g538">
          <path
             inkscape:connector-curvature="0"
             id="path540"
             style="fill:#e6ebf4;fill-opacity:0.41228071;fill-rule:nonzero;stroke:none;stroke-opacity:1"
             d="M 0,0 -1.108,1.108 -2.214,0 -1.108,-1.106 0,0 Z" />
        </g>
        <g
           style="fill:#e6ebf4;fill-opacity:0.41228071;stroke:none;stroke-opacity:1"
           clip-path="none"
           mask="none"
           transform="translate(276.5557,114.7588)"
           id="g542">
          <path
             inkscape:connector-curvature="0"
             id="path544"
             style="fill:#e6ebf4;fill-opacity:0.41228071;fill-rule:nonzero;stroke:none;stroke-opacity:1"
             d="M 0,0 1.107,-1.106 2.215,0 1.107,1.106 0,0 Z" />
        </g>
        <g
           style="fill:#e6ebf4;fill-opacity:0.41228071;stroke:none;stroke-opacity:1"
           clip-path="none"
           mask="none"
           transform="translate(290.3564,100.667)"
           id="g546">
          <path
             inkscape:connector-curvature="0"
             id="path548"
             style="fill:#e6ebf4;fill-opacity:0.41228071;fill-rule:nonzero;stroke:none;stroke-opacity:1"
             d="M 0,0 -1.106,1.104 -2.213,0 -1.106,-1.109 0,0 Z" />
        </g>
        <g
           style="fill:#e6ebf4;fill-opacity:0.41228071;stroke:none;stroke-opacity:1"
           clip-path="none"
           mask="none"
           transform="translate(242.8501,128.1221)"
           id="g550">
          <path
             inkscape:connector-curvature="0"
             id="path552"
             style="fill:#e6ebf4;fill-opacity:0.41228071;fill-rule:nonzero;stroke:none;stroke-opacity:1"
             d="M 0,0 -2.144,2.146 -4.291,0 -2.144,-2.146 0,0 Z" />
        </g>
        <g
           style="fill:#e6ebf4;fill-opacity:0.41228071;stroke:none;stroke-opacity:1"
           clip-path="none"
           mask="none"
           transform="translate(186.4692,108.6631)"
           id="g554">
          <path
             inkscape:connector-curvature="0"
             id="path556"
             style="fill:#e6ebf4;fill-opacity:0.41228071;fill-rule:nonzero;stroke:none;stroke-opacity:1"
             d="M 0,0 -1.109,-1.107 0,-2.216 1.105,-1.107 0,0 Z" />
        </g>
        <g
           style="fill:#e6ebf4;fill-opacity:0.41228071;stroke:none;stroke-opacity:1"
           clip-path="none"
           mask="none"
           transform="translate(186.4692,114.7588)"
           id="g558">
          <path
             inkscape:connector-curvature="0"
             id="path560"
             style="fill:#e6ebf4;fill-opacity:0.41228071;fill-rule:nonzero;stroke:none;stroke-opacity:1"
             d="M 0,0 1.105,-1.106 2.213,0 1.105,1.106 0,0 Z" />
        </g>
        <g
           style="fill:#e6ebf4;fill-opacity:0.41228071;stroke:none;stroke-opacity:1"
           clip-path="none"
           mask="none"
           transform="translate(187.5747,121.3359)"
           id="g562">
          <path
             inkscape:connector-curvature="0"
             id="path564"
             style="fill:#e6ebf4;fill-opacity:0.41228071;fill-rule:nonzero;stroke:none;stroke-opacity:1"
             d="M 0,0 -1.105,1.106 -2.214,0 -1.105,-1.108 0,0 Z" />
        </g>
        <g
           style="fill:#e6ebf4;fill-opacity:0.41228071;stroke:none;stroke-opacity:1"
           clip-path="none"
           mask="none"
           transform="translate(181.5249,125.5117)"
           id="g566">
          <path
             inkscape:connector-curvature="0"
             id="path568"
             style="fill:#e6ebf4;fill-opacity:0.41228071;fill-rule:nonzero;stroke:none;stroke-opacity:1"
             d="M 0,0 1.107,-1.107 2.214,0 1.107,1.107 0,0 Z" />
        </g>
        <g
           style="fill:#e6ebf4;fill-opacity:0.41228071;stroke:none;stroke-opacity:1"
           clip-path="none"
           mask="none"
           transform="translate(173.8213,106.1563)"
           id="g570">
          <path
             inkscape:connector-curvature="0"
             id="path572"
             style="fill:#e6ebf4;fill-opacity:0.41228071;fill-rule:nonzero;stroke:none;stroke-opacity:1"
             d="M 0,0 -1.107,1.109 -2.215,0 -1.107,-1.107 0,0 Z" />
        </g>
        <g
           style="fill:#e6ebf4;fill-opacity:0.41228071;stroke:none;stroke-opacity:1"
           clip-path="none"
           mask="none"
           transform="translate(174.9282,112.252)"
           id="g574">
          <path
             inkscape:connector-curvature="0"
             id="path576"
             style="fill:#e6ebf4;fill-opacity:0.41228071;fill-rule:nonzero;stroke:none;stroke-opacity:1"
             d="M 0,0 -1.107,1.108 -2.214,0 -1.107,-1.106 0,0 Z" />
        </g>
        <g
           style="fill:#e6ebf4;fill-opacity:0.41228071;stroke:none;stroke-opacity:1"
           clip-path="none"
           mask="none"
           transform="translate(170.793,114.7588)"
           id="g578">
          <path
             inkscape:connector-curvature="0"
             id="path580"
             style="fill:#e6ebf4;fill-opacity:0.41228071;fill-rule:nonzero;stroke:none;stroke-opacity:1"
             d="M 0,0 -1.107,1.106 -2.213,0 -1.107,-1.106 0,0 Z" />
        </g>
        <g
           style="fill:#e6ebf4;fill-opacity:0.41228071;stroke:none;stroke-opacity:1"
           clip-path="none"
           mask="none"
           transform="translate(156.9912,100.667)"
           id="g582">
          <path
             inkscape:connector-curvature="0"
             id="path584"
             style="fill:#e6ebf4;fill-opacity:0.41228071;fill-rule:nonzero;stroke:none;stroke-opacity:1"
             d="M 0,0 1.107,-1.109 2.214,0 1.107,1.104 0,0 Z" />
        </g>
        <g
           style="fill:#e6ebf4;fill-opacity:0.41228071;stroke:none;stroke-opacity:1"
           clip-path="none"
           mask="none"
           transform="translate(208.7896,128.1221)"
           id="g586">
          <path
             inkscape:connector-curvature="0"
             id="path588"
             style="fill:#e6ebf4;fill-opacity:0.41228071;fill-rule:nonzero;stroke:none;stroke-opacity:1"
             d="M 0,0 -2.146,2.146 -4.291,0 -2.146,-2.146 0,0 Z" />
        </g>
      </g>
      <path
         inkscape:connector-curvature="0"
         id="path9792"
         d="M 771.0723,540.36219 A 131.0723,89.510152 0 0 1 640,629.87234 131.0723,89.510152 0 0 1 508.9277,540.36219 131.0723,89.510152 0 0 1 640,450.85203 131.0723,89.510152 0 0 1 771.0723,540.36219 Z"
         style="opacity:0.052;fill:#e6ebf4;fill-opacity:0.41228071;stroke:none;stroke-width:4;stroke-miterlimit:4;stroke-dasharray:none;stroke-opacity:1" />
      <path
         inkscape:connector-curvature="0"
         id="path9795"
         transform="translate(0,28.36218)"
         d="M 640,422.49023 A 131.0723,89.510152 0 0 0 508.92773,512 131.0723,89.510152 0 0 0 509.23047,517.85547 131.0723,89.510152 0 0 1 640,432.49023 131.0723,89.510152 0 0 1 770.76953,516.14453 131.0723,89.510152 0 0 0 771.07227,512 131.0723,89.510152 0 0 0 640,422.49023 Z"
         style="opacity:0.081;fill:#e6ebf4;fill-opacity:0.41228071;stroke:none;stroke-width:4;stroke-miterlimit:4;stroke-dasharray:none;stroke-opacity:1" />
    </g>
  </g>
</svg>
