<?xml version="1.0" encoding="UTF-8" standalone="no"?>
<!-- Created with Inkscape (http://www.inkscape.org/) -->

<svg
   xmlns:dc="http://purl.org/dc/elements/1.1/"
   xmlns:cc="http://creativecommons.org/ns#"
   xmlns:rdf="http://www.w3.org/1999/02/22-rdf-syntax-ns#"
   xmlns:svg="http://www.w3.org/2000/svg"
   xmlns="http://www.w3.org/2000/svg"
   xmlns:xlink="http://www.w3.org/1999/xlink"
   xmlns:sodipodi="http://sodipodi.sourceforge.net/DTD/sodipodi-0.dtd"
   xmlns:inkscape="http://www.inkscape.org/namespaces/inkscape"
   width="1920"
   height="1080"
   viewBox="0 0 1920 1080"
   id="svg2"
   version="1.1"
   inkscape:version="0.92.2 2405546, 2018-03-11"
   sodipodi:docname="disegno.svg"
   inkscape:export-filename="/media/Dati/ArtWork/disegno.png"
   inkscape:export-xdpi="96"
   inkscape:export-ydpi="96">
  <title
     id="title2225">furia</title>
  <defs
     id="defs4">
    <linearGradient
       inkscape:collect="always"
       id="linearGradient2249">
      <stop
         style="stop-color:#fcfcfc;stop-opacity:1;"
         offset="0"
         id="stop2245" />
      <stop
         style="stop-color:#fcfcfc;stop-opacity:0.27380952"
         offset="1"
         id="stop2247" />
    </linearGradient>
    <pattern
       inkscape:collect="always"
       xlink:href="#pattern6622"
       id="pattern2221"
       patternTransform="matrix(1.2076272,-0.49023566,0.69722404,0.84911288,0,-57.551058)" />
    <pattern
       inkscape:collect="always"
       xlink:href="#pattern6613"
       id="pattern2219"
       patternTransform="matrix(0.61643811,0,0,0.57274465,5.0313751,-11.252358)" />
    <pattern
       inkscape:collect="always"
       xlink:href="#pattern6622"
       id="pattern6626"
       patternTransform="matrix(1.2076272,-0.49023566,0.69722404,0.84911288,-1920,-57.551058)" />
    <pattern
       inkscape:collect="always"
       xlink:href="#Wavywhite"
       id="pattern6622"
       patternTransform="matrix(0.8050848,-0.46481603,0.46481603,0.8050848,0,0)" />
    <pattern
       inkscape:stockid="Wavy white"
       id="Wavywhite"
       height="5.1805778"
       width="30.066020"
       patternUnits="userSpaceOnUse"
       inkscape:collect="always">
      <path
         id="path6522"
         d="M 7.597,0.061 C 5.079,-0.187 2.656,0.302 -0.01,1.788 L -0.01,3.061 C 2.773,1.431 5.173,1.052 7.472,1.280 C 9.770,1.508 11.969,2.361 14.253,3.218 C 18.820,4.931 23.804,6.676 30.066,3.061 L 30.062,1.788 C 23.622,5.497 19.246,3.770 14.691,2.061 C 12.413,1.207 10.115,0.311 7.597,0.061 z "
         style="fill:white;stroke:none;" />
    </pattern>
    <linearGradient
       id="linearGradient5882"
       inkscape:collect="always">
      <stop
         id="stop5878"
         offset="0"
         style="stop-color:#b5b5b5;stop-opacity:1" />
      <stop
         id="stop5880"
         offset="1"
         style="stop-color:#444444;stop-opacity:1" />
    </linearGradient>
    <linearGradient
       inkscape:collect="always"
       id="linearGradient5096">
      <stop
         style="stop-color:#252525;stop-opacity:1"
         offset="0"
         id="stop5092" />
      <stop
         style="stop-color:#7c7c7c;stop-opacity:1"
         offset="1"
         id="stop5094" />
    </linearGradient>
    <radialGradient
       inkscape:collect="always"
       xlink:href="#linearGradient5096"
       id="radialGradient5100"
       cx="210.33942"
       cy="1433.3282"
       fx="210.33942"
       fy="1433.3282"
       r="6.5863857"
       gradientUnits="userSpaceOnUse" />
    <clipPath
       clipPathUnits="userSpaceOnUse"
       id="clipPath5864">
      <path
         id="path5866"
         style="opacity:1;fill:url(#radialGradient5868);fill-opacity:1;stroke:none;stroke-width:0.16373022;stroke-linecap:round;stroke-miterlimit:4;stroke-dasharray:none;stroke-opacity:1;paint-order:markers fill stroke"
         d="m 217.25851,1445.5866 -1.75378,3.9945 4.15065,1.343 -4.06464,1.5844 1.98532,3.8846 -3.99446,-1.7538 -1.34301,4.1507 -1.58441,-4.0646 -3.88458,1.9853 1.75378,-3.9945 -4.15066,-1.343 4.06463,-1.5843 -1.98532,-3.8846 3.99448,1.7537 1.34299,-4.1507 1.58441,4.0647 z m -15.73929,0 -1.75378,3.9945 4.15065,1.343 -4.06464,1.5844 1.98532,3.8846 -3.99446,-1.7538 -1.34301,4.1507 -1.58441,-4.0646 -3.88458,1.9853 1.75378,-3.9945 -4.15066,-1.343 4.06463,-1.5843 -1.98531,-3.8846 3.99447,1.7537 1.34299,-4.1507 1.58441,4.0647 z m 15.73929,-15.7394 -1.75378,3.9944 4.15065,1.343 -4.06464,1.5845 1.98532,3.8846 -3.99446,-1.7539 -1.34301,4.1507 -1.58441,-4.0646 -3.88458,1.9853 1.75378,-3.9945 -4.15066,-1.343 4.06463,-1.5844 -1.98532,-3.8846 3.99448,1.7538 1.34299,-4.1506 1.58441,4.0645 z m -15.73929,0 -1.75378,3.9944 4.15065,1.343 -4.06464,1.5845 1.98532,3.8846 -3.99446,-1.7539 -1.34301,4.1507 -1.58441,-4.0646 -3.88458,1.9853 1.75378,-3.9945 -4.15066,-1.343 4.06463,-1.5844 -1.98531,-3.8846 3.99447,1.7538 1.34299,-4.1506 1.58441,4.0645 z"
         inkscape:connector-curvature="0" />
    </clipPath>
    <radialGradient
       inkscape:collect="always"
       xlink:href="#linearGradient5096"
       id="radialGradient5868"
       gradientUnits="userSpaceOnUse"
       gradientTransform="matrix(1.6723647,-1.6723337,1.7897545,1.7897877,-2714.1738,-794.06564)"
       cx="203.49919"
       cy="1440.3802"
       fx="203.49919"
       fy="1440.3802"
       r="6.5863857" />
    <radialGradient
       inkscape:collect="always"
       xlink:href="#linearGradient5882"
       id="radialGradient5876"
       cx="203.60907"
       cy="1443.8145"
       fx="203.60907"
       fy="1443.8145"
       r="10"
       gradientUnits="userSpaceOnUse"
       gradientTransform="matrix(1.3465364,-0.0021424,0.00230232,1.4470614,-73.882086,-645.03736)" />
    <pattern
       patternUnits="userSpaceOnUse"
       width="20.3"
       height="20.3"
       patternTransform="translate(-443.42282,252.6114)"
       id="pattern6613">
      <path
         transform="translate(-193.45907,-1433.6645)"
         inkscape:connector-curvature="0"
         clip-path="url(#clipPath5864)"
         id="rect5076"
         d="m 193.60907,1433.8145 h 20 v 20 h -20 z"
         style="opacity:1;fill:url(#radialGradient5876);fill-opacity:1;stroke:#444444;stroke-width:0.30000001;stroke-linecap:round;stroke-miterlimit:4;stroke-dasharray:none;stroke-opacity:1;paint-order:markers fill stroke" />
    </pattern>
    <radialGradient
       inkscape:collect="always"
       xlink:href="#linearGradient2249"
       id="radialGradient2251"
       cx="-176.63948"
       cy="-123.68391"
       fx="-176.63948"
       fy="-123.68391"
       r="109.69339"
       gradientTransform="matrix(1,0,0,1.1982621,0,27.850721)"
       gradientUnits="userSpaceOnUse" />
    <radialGradient
       inkscape:collect="always"
       xlink:href="#linearGradient2249"
       id="radialGradient2253"
       gradientUnits="userSpaceOnUse"
       gradientTransform="matrix(1,0,0,1.1982621,0,27.850721)"
       cx="-176.63948"
       cy="-123.68391"
       fx="-176.63948"
       fy="-123.68391"
       r="109.69339" />
    <radialGradient
       inkscape:collect="always"
       xlink:href="#linearGradient2249"
       id="radialGradient2255"
       gradientUnits="userSpaceOnUse"
       gradientTransform="matrix(1,0,0,1.1982621,0,27.850721)"
       cx="-176.63948"
       cy="-123.68391"
       fx="-176.63948"
       fy="-123.68391"
       r="109.69339" />
    <radialGradient
       inkscape:collect="always"
       xlink:href="#linearGradient2249"
       id="radialGradient2257"
       gradientUnits="userSpaceOnUse"
       gradientTransform="matrix(1,0,0,1.1982621,0,27.850721)"
       cx="-176.63948"
       cy="-123.68391"
       fx="-176.63948"
       fy="-123.68391"
       r="109.69339" />
    <radialGradient
       inkscape:collect="always"
       xlink:href="#linearGradient2249"
       id="radialGradient2259"
       gradientUnits="userSpaceOnUse"
       gradientTransform="matrix(1,0,0,1.1982621,0,27.850721)"
       cx="-176.63948"
       cy="-123.68391"
       fx="-176.63948"
       fy="-123.68391"
       r="109.69339" />
    <radialGradient
       inkscape:collect="always"
       xlink:href="#linearGradient2249"
       id="radialGradient2261"
       gradientUnits="userSpaceOnUse"
       gradientTransform="matrix(1,0,0,1.1982621,0,27.850721)"
       cx="-176.63948"
       cy="-123.68391"
       fx="-176.63948"
       fy="-123.68391"
       r="109.69339" />
    <radialGradient
       inkscape:collect="always"
       xlink:href="#linearGradient2249"
       id="radialGradient2263"
       gradientUnits="userSpaceOnUse"
       gradientTransform="matrix(1,0,0,1.1982621,0,27.850721)"
       cx="-176.63948"
       cy="-123.68391"
       fx="-176.63948"
       fy="-123.68391"
       r="109.69339" />
    <radialGradient
       inkscape:collect="always"
       xlink:href="#linearGradient2249"
       id="radialGradient2265"
       gradientUnits="userSpaceOnUse"
       gradientTransform="matrix(1,0,0,1.1982621,0,27.850721)"
       cx="-176.63948"
       cy="-123.68391"
       fx="-176.63948"
       fy="-123.68391"
       r="109.69339" />
    <radialGradient
       inkscape:collect="always"
       xlink:href="#linearGradient2249"
       id="radialGradient2267"
       gradientUnits="userSpaceOnUse"
       gradientTransform="matrix(1,0,0,1.1982621,0,27.850721)"
       cx="-176.63948"
       cy="-123.68391"
       fx="-176.63948"
       fy="-123.68391"
       r="109.69339" />
  </defs>
  <sodipodi:namedview
     id="base"
     pagecolor="#ffffff"
     bordercolor="#666666"
     borderopacity="1.0"
     inkscape:pageopacity="0.0"
     inkscape:pageshadow="2"
     inkscape:zoom="0.61328125"
     inkscape:cx="916.48954"
     inkscape:cy="498.95541"
     inkscape:document-units="px"
     inkscape:current-layer="layer1"
     showgrid="false"
     inkscape:showpageshadow="false"
     width="1280mm"
     units="px"
     inkscape:window-width="1920"
     inkscape:window-height="991"
     inkscape:window-x="0"
     inkscape:window-y="25"
     inkscape:window-maximized="1"
     inkscape:snap-global="false" />
  <metadata
     id="metadata7">
    <rdf:RDF>
      <cc:Work
         rdf:about="">
        <dc:format>image/svg+xml</dc:format>
        <dc:type
           rdf:resource="http://purl.org/dc/dcmitype/StillImage" />
        <dc:title>furia</dc:title>
        <dc:date>2016</dc:date>
        <dc:creator>
          <cc:Agent>
            <dc:title>Cristian Pozzessere  &lt; ilnanny &gt;</dc:title>
          </cc:Agent>
        </dc:creator>
        <cc:license
           rdf:resource="http://creativecommons.org/licenses/by-sa/4.0/" />
        <dc:subject>
          <rdf:Bag>
            <rdf:li>Global language</rdf:li>
          </rdf:Bag>
        </dc:subject>
        <dc:description>Playing with Inkscape on Gnu/Linux O. S.</dc:description>
        <dc:contributor>
          <cc:Agent>
            <dc:title>In the night, alone like a dog.</dc:title>
          </cc:Agent>
        </dc:contributor>
      </cc:Work>
      <cc:License
         rdf:about="http://creativecommons.org/licenses/by-sa/4.0/">
        <cc:permits
           rdf:resource="http://creativecommons.org/ns#Reproduction" />
        <cc:permits
           rdf:resource="http://creativecommons.org/ns#Distribution" />
        <cc:requires
           rdf:resource="http://creativecommons.org/ns#Notice" />
        <cc:requires
           rdf:resource="http://creativecommons.org/ns#Attribution" />
        <cc:permits
           rdf:resource="http://creativecommons.org/ns#DerivativeWorks" />
        <cc:requires
           rdf:resource="http://creativecommons.org/ns#ShareAlike" />
      </cc:License>
    </rdf:RDF>
  </metadata>
  <g
     inkscape:label="Livello 1"
     inkscape:groupmode="layer"
     id="layer1"
     transform="translate(0,27.637786)">
    <rect
       style="opacity:0.2;fill:url(#pattern2221);fill-opacity:1;stroke:none;stroke-width:2.5155766;stroke-linecap:round;stroke-miterlimit:4;stroke-dasharray:none;stroke-opacity:0.99778514;paint-order:markers fill stroke"
       id="rect6618"
       width="1920"
       height="1080"
       x="0"
       y="-27.637787" />
    <rect
       style="opacity:1;fill:#121212;fill-opacity:1;stroke:none;stroke-width:2.5155766;stroke-linecap:round;stroke-miterlimit:4;stroke-dasharray:none;stroke-opacity:0.99778514;paint-order:markers fill stroke"
       id="rect4155"
       width="1920"
       height="1080"
       x="0"
       y="-27.637787" />
    <rect
       style="fill:url(#pattern6613);stroke:none"
       width="20.299999"
       height="20.299999"
       x="-443.42282"
       y="252.6114"
       id="rect6616" />
    <g
       id="g5082"
       transform="matrix(1.1601704,0,0,1.1601704,-32.015515,-227.49581)">
      <g
         id="g5130" />
    </g>
    <rect
       y="-27.637787"
       x="-1920"
       height="1080"
       width="1920"
       id="rect6624"
       style="opacity:0.2;fill:url(#pattern6626);fill-opacity:1;stroke:none;stroke-width:2.5155766;stroke-linecap:round;stroke-miterlimit:4;stroke-dasharray:none;stroke-opacity:0.99778514;paint-order:markers fill stroke"
       transform="scale(-1,1)" />
    <g
       transform="matrix(1.0982413,0,0,-1.0982413,1148.4688,358.32961)"
       id="g1852"
       style="fill:#d3d3d3;fill-opacity:1;opacity:0.96">
      <path
         d="m -254.56418,-187.75959 c 1.093,3.361 1.344,6.802 1.278,9.266 -0.015,0.572 0.371,1.232 0.874,1.502 0.126,0.068 0.254,0.14 0.379,0.211 0.494,0.286 1.178,0.309 1.488,-0.172 0.463,-0.716 0.844,-1.668 1.068,-2.456 0.156,-0.548 0.026,-1.436 -0.195,-1.962 -0.715,-1.708 -2.096,-4.811 -4.404,-6.749 -0.437,-0.368 -0.664,-0.184 -0.488,0.36 z m -12.715,9.941 c -0.518,2.821 -5.491,4.11 -6.848,0.981 -0.228,-0.524 -0.403,-0.542 -0.445,0.027 -0.278,3.813 3.542,5.956 6.266,4.34 2.547,-1.512 2.182,-4.14 1.578,-5.519 -0.229,-0.523 -0.447,-0.391 -0.551,0.171 z m 47.217,90.170005 c -0.2,-14.801005 -9.995,-10.381 -13.311,-8.175 -0.476,0.316 -1.181,0.308 -1.642,-0.028 -5.446,-3.967 2.987,10.451 13.927,9.382 0.568,-0.056 1.033,-0.608 1.026,-1.179 z m -11.837,59.688 c -0.411,0.397 -0.323,0.604 0.23,0.459 7.705,-2.027 19.627,-13.055 21.029,-20.714 1.527,-8.316 -1.523,-14.001 -13.998,0.692 -5.211,6.138 -2.113,14.59 -7.261,19.563 z m 44.408,-113.067005 c 0.41,0.399 0.246,0.655 -0.312,0.532 -13.599,-2.993 -17.608,1.896 -30.735,1.896 -11.254,0 -33.51,-11.799 -28.391,-25.935 0.194,-0.537 0.108,-0.589 -0.202,-0.109 -4.949,7.659 -2.763,19.315 12.095,27.57 24.952,13.861 37.983,-8.043 59.47,9.011 14.694,11.657 23.007,52.110005 -13.728,66.449005 -0.532,0.208 -0.719,0.764 -0.323,1.175 6.46,6.695 43.415,17.914 59.184,-27.277 0.189,-0.54 0.379,-0.517 0.411,0.053 1.153,19.963 -15.218,53.202 -62.001,43.136 -0.559,-0.12 -0.899,-0.674 -0.836,-1.241 0.265,-2.388 0.057,-6.798 -0.497,-9.619 -0.11,-0.56 -0.347,-0.559 -0.51,-0.011 -2.416,8.13 -13.088,32.692 -49.154,37.278 -0.567,0.072 -0.674,-0.177 -0.277,-0.586 3.771,-3.889 6.501,-11.485 7.845,-17.865 2.261,-10.743 8.675,-16.782 10.961,-18.642 0.443,-0.36 0.463,-0.92 0.027,-1.288 -6.16,-5.204 -19.229,-17.834 -22.767,-22.867 -0.328,-0.467 -0.491,-1.334 -0.561,-1.9 -1.059,-8.638 -23.023,-47.631005 -23.289,-50.539005 -0.23,-2.538 -5.162,-23.785 -7.133,-32.292 -0.128,-0.557 0.226,-1.086 0.771,-1.255 1.748,-0.544 4.048,-1.815 4.647,-4.063 0.147,-0.552 -0.129,-0.644 -0.554,-0.262 -1.22,1.094 -3.081,1.895 -4.661,2.28 -0.555,0.136 -1.453,0.034 -1.944,-0.256 -0.933,-0.55 -1.244,-1.159 -1.244,-2.137 0,-1.247 -0.416,-8.871 0.417,-10.118 0.831,-1.249 5.128,-4.852 5.682,-4.991 0.301,-0.075 1.088,-0.19 1.746,-0.281 0.566,-0.079 1.121,-0.591 1.311,-1.13 0.976,-2.76 4.475,-9.219 12.986,-7.552 0.561,0.11 1.049,-0.231 1.098,-0.8 l 0.098,-1.128 c 0.049,-0.568 0.549,-1.087 1.111,-1.19 2.652,-0.487 8.606,-1.841 9.791,-1.366 1.387,0.555 7.624,8.039 8.041,9.564 0.416,1.525 -0.277,5.962 0.277,7.209 0.526,1.184 44.735,34.32 51.15,40.547"
         style="fill:#d3d3d3;fill-opacity:1;fill-rule:nonzero;stroke:none;stroke-width:0.1"
         id="path860"
         inkscape:connector-curvature="0" />
      <path
         d="m -229.41918,-57.183585 c -9.95,-4.66 -36.536,12.071 -44.196,-6.147 -0.222,-0.526 -0.112,-0.579 0.295,-0.177 7.34,7.238 29.578,-9.414 44.107,6.066 0.391,0.417 0.311,0.5 -0.206,0.258"
         style="fill:#d3d3d3;fill-opacity:1;fill-rule:nonzero;stroke:none;stroke-width:0.1"
         id="path862"
         inkscape:connector-curvature="0" />
      <path
         d="m -239.92618,-66.602585 c -4.869,-1.01 -10.065,-0.844 -13.148,0.244 -0.539,0.19 -1.4,0.275 -1.937,0.08 -5.997,-2.179 -19.397,-10.735 -8.857,-23.03 0.373,-0.434 0.506,-0.346 0.328,0.197 -3.995,12.251 17.931,13.847 24.045,21.879 0.346,0.454 0.128,0.746 -0.431,0.63"
         style="fill:#d3d3d3;fill-opacity:1;fill-rule:nonzero;stroke:none;stroke-width:0.1"
         id="path864"
         inkscape:connector-curvature="0" />
      <path
         d="m -157.56318,-41.551585 c 20.415,-8.898 36.569,-25.821 28.418,-58.478005 -0.138,-0.554 -0.346,-0.548 -0.466,0.011 -5.493,25.696005 -24.183,50.165005 -54.265,40.082005 -0.541,-0.182 -0.574,-0.568 -0.072,-0.84 6.412,-3.49 21.698,-10.875 23.949,-31.74 0.061,-0.567 0.48,-0.764 0.994,-0.511 3.817,1.878 7.364,-0.641 10.194,-5.786 3.05,-5.544005 7.346,-23.567005 -11.922,-42.557005 -19.032,-18.758 -75.66,-58.208 -77.183,-86.026 -0.03,-0.57 0.214,-0.639 0.533,-0.165 4.011,5.971 10.648,11.576 15.949,13.979 0.52,0.235 0.59,0.115 0.155,-0.255 -13.148,-11.19 -24.104,-37.783 -19.944,-57.664 0.117,-0.5609 0.276,-0.5488 0.353,0.0168 4.878,35.6412 57.228,86.8762 110.156,86.4612 0.571,-0.006 0.577,-0.086 0.013,-0.178 -13.944,-2.257 -62.93,-12.098 -79.274,-51.833 -0.217,-0.528 0.001,-0.706 0.481,-0.397 15.77,10.129 58.738,32.92 78.545,27.73 0.551,-0.145 1.174,0.135 1.414,0.654 7.782,16.812 25.401,22.828 37.637001,22.398 0.571,-0.019 1.306,0.322 1.63,0.792 24.862,35.891 27.186,139.283005 -67.213001,144.658005 -0.57,0.033 -0.605,-0.124 -0.082,-0.352"
         style="fill:#d3d3d3;fill-opacity:1;fill-rule:nonzero;stroke:none;stroke-width:0.1"
         id="path866"
         inkscape:connector-curvature="0" />
      <path
         d="m -150.76618,-122.48859 c 5.232,20.485 -3.184,28.286005 -8.276,25.635005 -0.506,-0.264 -0.86,-1.037 -0.878,-1.608 -0.043,-1.434 -0.182,-4.154005 -0.626,-6.822005 -0.095,-0.563 0.217,-0.777 0.762,-0.608 4.896,1.523 8.508,-6.581 8.743,-16.562 0.013,-0.572 0.134,-0.588 0.275,-0.035"
         style="fill:#d3d3d3;fill-opacity:1;fill-rule:nonzero;stroke:none;stroke-width:0.1"
         id="path868"
         inkscape:connector-curvature="0" />
      <path
         d="m -193.56318,-41.137585 c 1.653,0.465 4.995,1.378 7.133,1.775 0.562,0.104 1.019,0.622 1.052,1.192 0.309,5.204 2.968,8.924 7.404,11.738 0.482,0.306 0.927,0.998 0.938,1.569 0.125,6.179 -3.177,15.0019998 -12.884,15.8239998 -0.569,0.047 -0.621,-0.157 -0.124,-0.437 16.899,-9.5159998 -9.316,-16.6319998 -4.86,-30.9699998 0.169,-0.546 0.791,-0.845 1.341,-0.691"
         style="fill:#d3d3d3;fill-opacity:1;fill-rule:nonzero;stroke:none;stroke-width:0.1"
         id="path870"
         inkscape:connector-curvature="0" />
      <path
         d="m -180.50418,-38.776585 c 33.092,4.721 54.812,-5.239 63.23,-9.901 0.5,-0.276 1.354,-0.61 1.917,-0.698 7.218,-1.133 9.122,3.672 8.435,6.966 -0.116,0.56 -0.481,0.555 -0.824,0.098 -2.476,-3.305 -10.206,-5.351 -13.046,3.227 -0.18,0.542 0.087,0.725 0.586,0.447 6.066,-3.393 12.752,0.076 15.752,2.149 0.47,0.325 0.373,0.627 -0.198,0.671 -19.327,1.465 -30.388,21.085 -52.397,9.58 -0.507,-0.264 -0.668,-0.097 -0.362,0.386 2.195,3.478 5.385,8.617 1.18,14.653 -0.326,0.469 -0.641,0.366 -0.727,-0.199 -1.957,-12.825 -25.645,-14.723 -24.709,-26.504 0.046,-0.57 0.599,-0.956 1.163,-0.875"
         style="fill:#d3d3d3;fill-opacity:1;fill-rule:nonzero;stroke:none;stroke-width:0.1"
         id="path872"
         inkscape:connector-curvature="0" />
      <path
         d="m -62.091179,-114.34259 c -4.989,7.011 -5.71,14.893005 -5.207,19.411005 3.247,29.228 -17.654,24.727 -19.321,38.339 -0.07,0.567 0.316,0.8 0.85,0.596 5.094,-1.948 10.393,2.328 15.476,-6.424 0.286,-0.494 0.518,-0.442 0.503,0.13 -0.442,15.237 -22.533,11.022 -32.982001,17.781 -0.479,0.31 -0.815,0.13 -0.825,-0.441 -0.068,-3.9 -1.896,-5.909 -5.149,-7.207 -0.531,-0.212 -0.579,-0.601 -0.101,-0.914 29.023001,-18.941 36.067001,-52.382005 36.539001,-74.373005 0.013,-0.572 0.252,-0.634 0.477,-0.109 3.252,7.595 -1.542,22.625 -0.972,27.736005 0.064,0.568 0.293,0.544 0.395,-0.018 0.815,-4.472005 3.694,-12.012005 9.978,-14.940005 0.517,-0.241 0.67,-0.032 0.339,0.433"
         style="fill:#d3d3d3;fill-opacity:1;fill-rule:nonzero;stroke:none;stroke-width:0.1"
         id="path874"
         inkscape:connector-curvature="0" />
    </g>
    <rect
       y="-27.637787"
       x="0"
       height="1080"
       width="1920"
       id="rect5889"
       style="opacity:0.3;fill:url(#pattern2219);fill-opacity:1;stroke:none;stroke-width:2.5155766;stroke-linecap:round;stroke-miterlimit:4;stroke-dasharray:none;stroke-opacity:0.99778514;paint-order:markers fill stroke" />
    <g
       style="fill:url(#radialGradient2251);fill-opacity:1;opacity:0.96"
       id="g2243"
       transform="matrix(1.0982413,0,0,-1.0982413,1148.4688,358.32961)">
      <path
         inkscape:connector-curvature="0"
         id="path2227"
         style="fill:url(#radialGradient2253);fill-opacity:1;fill-rule:nonzero;stroke:none;stroke-width:0.1"
         d="m -254.56418,-187.75959 c 1.093,3.361 1.344,6.802 1.278,9.266 -0.015,0.572 0.371,1.232 0.874,1.502 0.126,0.068 0.254,0.14 0.379,0.211 0.494,0.286 1.178,0.309 1.488,-0.172 0.463,-0.716 0.844,-1.668 1.068,-2.456 0.156,-0.548 0.026,-1.436 -0.195,-1.962 -0.715,-1.708 -2.096,-4.811 -4.404,-6.749 -0.437,-0.368 -0.664,-0.184 -0.488,0.36 z m -12.715,9.941 c -0.518,2.821 -5.491,4.11 -6.848,0.981 -0.228,-0.524 -0.403,-0.542 -0.445,0.027 -0.278,3.813 3.542,5.956 6.266,4.34 2.547,-1.512 2.182,-4.14 1.578,-5.519 -0.229,-0.523 -0.447,-0.391 -0.551,0.171 z m 47.217,90.170005 c -0.2,-14.801005 -9.995,-10.381 -13.311,-8.175 -0.476,0.316 -1.181,0.308 -1.642,-0.028 -5.446,-3.967 2.987,10.451 13.927,9.382 0.568,-0.056 1.033,-0.608 1.026,-1.179 z m -11.837,59.688 c -0.411,0.397 -0.323,0.604 0.23,0.459 7.705,-2.027 19.627,-13.055 21.029,-20.714 1.527,-8.316 -1.523,-14.001 -13.998,0.692 -5.211,6.138 -2.113,14.59 -7.261,19.563 z m 44.408,-113.067005 c 0.41,0.399 0.246,0.655 -0.312,0.532 -13.599,-2.993 -17.608,1.896 -30.735,1.896 -11.254,0 -33.51,-11.799 -28.391,-25.935 0.194,-0.537 0.108,-0.589 -0.202,-0.109 -4.949,7.659 -2.763,19.315 12.095,27.57 24.952,13.861 37.983,-8.043 59.47,9.011 14.694,11.657 23.007,52.110005 -13.728,66.449005 -0.532,0.208 -0.719,0.764 -0.323,1.175 6.46,6.695 43.415,17.914 59.184,-27.277 0.189,-0.54 0.379,-0.517 0.411,0.053 1.153,19.963 -15.218,53.202 -62.001,43.136 -0.559,-0.12 -0.899,-0.674 -0.836,-1.241 0.265,-2.388 0.057,-6.798 -0.497,-9.619 -0.11,-0.56 -0.347,-0.559 -0.51,-0.011 -2.416,8.13 -13.088,32.692 -49.154,37.278 -0.567,0.072 -0.674,-0.177 -0.277,-0.586 3.771,-3.889 6.501,-11.485 7.845,-17.865 2.261,-10.743 8.675,-16.782 10.961,-18.642 0.443,-0.36 0.463,-0.92 0.027,-1.288 -6.16,-5.204 -19.229,-17.834 -22.767,-22.867 -0.328,-0.467 -0.491,-1.334 -0.561,-1.9 -1.059,-8.638 -23.023,-47.631005 -23.289,-50.539005 -0.23,-2.538 -5.162,-23.785 -7.133,-32.292 -0.128,-0.557 0.226,-1.086 0.771,-1.255 1.748,-0.544 4.048,-1.815 4.647,-4.063 0.147,-0.552 -0.129,-0.644 -0.554,-0.262 -1.22,1.094 -3.081,1.895 -4.661,2.28 -0.555,0.136 -1.453,0.034 -1.944,-0.256 -0.933,-0.55 -1.244,-1.159 -1.244,-2.137 0,-1.247 -0.416,-8.871 0.417,-10.118 0.831,-1.249 5.128,-4.852 5.682,-4.991 0.301,-0.075 1.088,-0.19 1.746,-0.281 0.566,-0.079 1.121,-0.591 1.311,-1.13 0.976,-2.76 4.475,-9.219 12.986,-7.552 0.561,0.11 1.049,-0.231 1.098,-0.8 l 0.098,-1.128 c 0.049,-0.568 0.549,-1.087 1.111,-1.19 2.652,-0.487 8.606,-1.841 9.791,-1.366 1.387,0.555 7.624,8.039 8.041,9.564 0.416,1.525 -0.277,5.962 0.277,7.209 0.526,1.184 44.735,34.32 51.15,40.547" />
      <path
         inkscape:connector-curvature="0"
         id="path2229"
         style="fill:url(#radialGradient2255);fill-opacity:1;fill-rule:nonzero;stroke:none;stroke-width:0.1"
         d="m -229.41918,-57.183585 c -9.95,-4.66 -36.536,12.071 -44.196,-6.147 -0.222,-0.526 -0.112,-0.579 0.295,-0.177 7.34,7.238 29.578,-9.414 44.107,6.066 0.391,0.417 0.311,0.5 -0.206,0.258" />
      <path
         inkscape:connector-curvature="0"
         id="path2231"
         style="fill:url(#radialGradient2257);fill-opacity:1;fill-rule:nonzero;stroke:none;stroke-width:0.1"
         d="m -239.92618,-66.602585 c -4.869,-1.01 -10.065,-0.844 -13.148,0.244 -0.539,0.19 -1.4,0.275 -1.937,0.08 -5.997,-2.179 -19.397,-10.735 -8.857,-23.03 0.373,-0.434 0.506,-0.346 0.328,0.197 -3.995,12.251 17.931,13.847 24.045,21.879 0.346,0.454 0.128,0.746 -0.431,0.63" />
      <path
         inkscape:connector-curvature="0"
         id="path2233"
         style="fill:url(#radialGradient2259);fill-opacity:1;fill-rule:nonzero;stroke:none;stroke-width:0.1"
         d="m -157.56318,-41.551585 c 20.415,-8.898 36.569,-25.821 28.418,-58.478005 -0.138,-0.554 -0.346,-0.548 -0.466,0.011 -5.493,25.696005 -24.183,50.165005 -54.265,40.082005 -0.541,-0.182 -0.574,-0.568 -0.072,-0.84 6.412,-3.49 21.698,-10.875 23.949,-31.74 0.061,-0.567 0.48,-0.764 0.994,-0.511 3.817,1.878 7.364,-0.641 10.194,-5.786 3.05,-5.544005 7.346,-23.567005 -11.922,-42.557005 -19.032,-18.758 -75.66,-58.208 -77.183,-86.026 -0.03,-0.57 0.214,-0.639 0.533,-0.165 4.011,5.971 10.648,11.576 15.949,13.979 0.52,0.235 0.59,0.115 0.155,-0.255 -13.148,-11.19 -24.104,-37.783 -19.944,-57.664 0.117,-0.5609 0.276,-0.5488 0.353,0.0168 4.878,35.6412 57.228,86.8762 110.156,86.4612 0.571,-0.006 0.577,-0.086 0.013,-0.178 -13.944,-2.257 -62.93,-12.098 -79.274,-51.833 -0.217,-0.528 0.001,-0.706 0.481,-0.397 15.77,10.129 58.738,32.92 78.545,27.73 0.551,-0.145 1.174,0.135 1.414,0.654 7.782,16.812 25.401,22.828 37.637001,22.398 0.571,-0.019 1.306,0.322 1.63,0.792 24.862,35.891 27.186,139.283005 -67.213001,144.658005 -0.57,0.033 -0.605,-0.124 -0.082,-0.352" />
      <path
         inkscape:connector-curvature="0"
         id="path2235"
         style="fill:url(#radialGradient2261);fill-opacity:1;fill-rule:nonzero;stroke:none;stroke-width:0.1"
         d="m -150.76618,-122.48859 c 5.232,20.485 -3.184,28.286005 -8.276,25.635005 -0.506,-0.264 -0.86,-1.037 -0.878,-1.608 -0.043,-1.434 -0.182,-4.154005 -0.626,-6.822005 -0.095,-0.563 0.217,-0.777 0.762,-0.608 4.896,1.523 8.508,-6.581 8.743,-16.562 0.013,-0.572 0.134,-0.588 0.275,-0.035" />
      <path
         inkscape:connector-curvature="0"
         id="path2237"
         style="fill:url(#radialGradient2263);fill-opacity:1;fill-rule:nonzero;stroke:none;stroke-width:0.1"
         d="m -193.56318,-41.137585 c 1.653,0.465 4.995,1.378 7.133,1.775 0.562,0.104 1.019,0.622 1.052,1.192 0.309,5.204 2.968,8.924 7.404,11.738 0.482,0.306 0.927,0.998 0.938,1.569 0.125,6.179 -3.177,15.0019998 -12.884,15.8239998 -0.569,0.047 -0.621,-0.157 -0.124,-0.437 16.899,-9.5159998 -9.316,-16.6319998 -4.86,-30.9699998 0.169,-0.546 0.791,-0.845 1.341,-0.691" />
      <path
         inkscape:connector-curvature="0"
         id="path2239"
         style="fill:url(#radialGradient2265);fill-opacity:1;fill-rule:nonzero;stroke:none;stroke-width:0.1"
         d="m -180.50418,-38.776585 c 33.092,4.721 54.812,-5.239 63.23,-9.901 0.5,-0.276 1.354,-0.61 1.917,-0.698 7.218,-1.133 9.122,3.672 8.435,6.966 -0.116,0.56 -0.481,0.555 -0.824,0.098 -2.476,-3.305 -10.206,-5.351 -13.046,3.227 -0.18,0.542 0.087,0.725 0.586,0.447 6.066,-3.393 12.752,0.076 15.752,2.149 0.47,0.325 0.373,0.627 -0.198,0.671 -19.327,1.465 -30.388,21.085 -52.397,9.58 -0.507,-0.264 -0.668,-0.097 -0.362,0.386 2.195,3.478 5.385,8.617 1.18,14.653 -0.326,0.469 -0.641,0.366 -0.727,-0.199 -1.957,-12.825 -25.645,-14.723 -24.709,-26.504 0.046,-0.57 0.599,-0.956 1.163,-0.875" />
      <path
         inkscape:connector-curvature="0"
         id="path2241"
         style="fill:url(#radialGradient2267);fill-opacity:1;fill-rule:nonzero;stroke:none;stroke-width:0.1"
         d="m -62.091179,-114.34259 c -4.989,7.011 -5.71,14.893005 -5.207,19.411005 3.247,29.228 -17.654,24.727 -19.321,38.339 -0.07,0.567 0.316,0.8 0.85,0.596 5.094,-1.948 10.393,2.328 15.476,-6.424 0.286,-0.494 0.518,-0.442 0.503,0.13 -0.442,15.237 -22.533,11.022 -32.982001,17.781 -0.479,0.31 -0.815,0.13 -0.825,-0.441 -0.068,-3.9 -1.896,-5.909 -5.149,-7.207 -0.531,-0.212 -0.579,-0.601 -0.101,-0.914 29.023001,-18.941 36.067001,-52.382005 36.539001,-74.373005 0.013,-0.572 0.252,-0.634 0.477,-0.109 3.252,7.595 -1.542,22.625 -0.972,27.736005 0.064,0.568 0.293,0.544 0.395,-0.018 0.815,-4.472005 3.694,-12.012005 9.978,-14.940005 0.517,-0.241 0.67,-0.032 0.339,0.433" />
    </g>
  </g>
</svg>
