<?xml version="1.0" encoding="UTF-8" standalone="no"?>
<!-- Created with Inkscape (http://www.inkscape.org/) -->

<svg
   xmlns:dc="http://purl.org/dc/elements/1.1/"
   xmlns:cc="http://creativecommons.org/ns#"
   xmlns:rdf="http://www.w3.org/1999/02/22-rdf-syntax-ns#"
   xmlns:svg="http://www.w3.org/2000/svg"
   xmlns="http://www.w3.org/2000/svg"
   xmlns:xlink="http://www.w3.org/1999/xlink"
   xmlns:sodipodi="http://sodipodi.sourceforge.net/DTD/sodipodi-0.dtd"
   xmlns:inkscape="http://www.inkscape.org/namespaces/inkscape"
   width="1280"
   height="1024"
   viewBox="0 0 1280 1024"
   id="svg2"
   version="1.1"
   inkscape:version="0.92.2 5c3e80d, 2017-08-06"
   sodipodi:docname="LOL.svg"
   inkscape:export-filename="/media/Dati/ArtWork/AAA-Resource/LOL.png"
   inkscape:export-xdpi="96"
   inkscape:export-ydpi="96">
  <defs
     id="defs4">
    <pattern
       inkscape:collect="always"
       xlink:href="#Wavywhite"
       id="pattern6681"
       patternTransform="matrix(2.6196242,0,0,0.34280809,0,28.362181)" />
    <pattern
       inkscape:stockid="Wavy white"
       id="Wavywhite"
       height="5.1805778"
       width="30.066020"
       patternUnits="userSpaceOnUse"
       inkscape:collect="always">
      <path
         id="path6592"
         d="M 7.597,0.061 C 5.079,-0.187 2.656,0.302 -0.01,1.788 L -0.01,3.061 C 2.773,1.431 5.173,1.052 7.472,1.280 C 9.770,1.508 11.969,2.361 14.253,3.218 C 18.820,4.931 23.804,6.676 30.066,3.061 L 30.062,1.788 C 23.622,5.497 19.246,3.770 14.691,2.061 C 12.413,1.207 10.115,0.311 7.597,0.061 z "
         style="fill:white;stroke:none;" />
    </pattern>
    <filter
       inkscape:collect="always"
       style="color-interpolation-filters:sRGB"
       id="filter4634"
       x="-0.048478577"
       width="1.0969572"
       y="-0.047530778"
       height="1.0950615">
      <feGaussianBlur
         inkscape:collect="always"
         stdDeviation="4.5226553"
         id="feGaussianBlur4636" />
    </filter>
    <filter
       inkscape:collect="always"
       style="color-interpolation-filters:sRGB"
       id="filter5133"
       x="-0.18656586"
       width="1.3731318"
       y="-0.48145631"
       height="1.9629126">
      <feGaussianBlur
         inkscape:collect="always"
         stdDeviation="6.8404314"
         id="feGaussianBlur5135" />
    </filter>
    <filter
       inkscape:collect="always"
       style="color-interpolation-filters:sRGB"
       id="filter5129"
       x="-0.32510948"
       width="1.6502188"
       y="-0.19965217"
       height="1.3993043">
      <feGaussianBlur
         inkscape:collect="always"
         stdDeviation="6.8404314"
         id="feGaussianBlur5131" />
    </filter>
    <filter
       inkscape:collect="always"
       style="color-interpolation-filters:sRGB"
       id="filter5125"
       x="-0.46698302"
       width="1.933966"
       y="-0.41122377"
       height="1.8224475">
      <feGaussianBlur
         inkscape:collect="always"
         stdDeviation="6.8404314"
         id="feGaussianBlur5127" />
    </filter>
    <filter
       inkscape:collect="always"
       style="color-interpolation-filters:sRGB"
       id="filter5257"
       x="-0.067345455"
       width="1.1346909"
       y="-0.26457143"
       height="1.5291429">
      <feGaussianBlur
         inkscape:collect="always"
         stdDeviation="2.7864036"
         id="feGaussianBlur5259" />
    </filter>
    <filter
       inkscape:collect="always"
       style="color-interpolation-filters:sRGB"
       id="filter5253"
       x="-0.087496065"
       width="1.1749921"
       y="-0.15874287"
       height="1.3174857">
      <feGaussianBlur
         inkscape:collect="always"
         stdDeviation="2.7864036"
         id="feGaussianBlur5255" />
    </filter>
    <filter
       inkscape:collect="always"
       style="color-interpolation-filters:sRGB"
       id="filter5669"
       x="-0.085642099"
       width="1.1712842"
       y="-0.070137933"
       height="1.140276">
      <feGaussianBlur
         inkscape:collect="always"
         stdDeviation="2.0401529"
         id="feGaussianBlur5671" />
    </filter>
    <filter
       inkscape:collect="always"
       style="color-interpolation-filters:sRGB"
       id="filter5665"
       x="-0.21410526"
       width="1.4282105"
       y="-0.7396369"
       height="2.4792738">
      <feGaussianBlur
         inkscape:collect="always"
         stdDeviation="2.0401529"
         id="feGaussianBlur5667" />
    </filter>
    <filter
       inkscape:collect="always"
       style="color-interpolation-filters:sRGB"
       id="filter5661"
       x="-0.2034"
       width="1.4068"
       y="-0.7396369"
       height="2.4792738">
      <feGaussianBlur
         inkscape:collect="always"
         stdDeviation="2.0401529"
         id="feGaussianBlur5663" />
    </filter>
    <filter
       inkscape:collect="always"
       style="color-interpolation-filters:sRGB"
       id="filter5657"
       x="-0.21410526"
       width="1.4282105"
       y="-0.67799997"
       height="2.3559999">
      <feGaussianBlur
         inkscape:collect="always"
         stdDeviation="2.0401529"
         id="feGaussianBlur5659" />
    </filter>
    <filter
       inkscape:collect="always"
       style="color-interpolation-filters:sRGB"
       id="filter5653"
       x="-0.26245168"
       width="1.5249034"
       y="-0.90400082"
       height="2.8080018">
      <feGaussianBlur
         inkscape:collect="always"
         stdDeviation="2.0401529"
         id="feGaussianBlur5655" />
    </filter>
    <filter
       inkscape:collect="always"
       style="color-interpolation-filters:sRGB"
       id="filter5649"
       x="-0.36981818"
       width="1.7396364"
       y="-1.017"
       height="3.0339999">
      <feGaussianBlur
         inkscape:collect="always"
         stdDeviation="2.0401529"
         id="feGaussianBlur5651" />
    </filter>
    <filter
       inkscape:collect="always"
       style="color-interpolation-filters:sRGB"
       id="filter5645"
       x="-0.42821035"
       width="1.8564208"
       y="-1.6272027"
       height="4.2544055">
      <feGaussianBlur
         inkscape:collect="always"
         stdDeviation="2.0401529"
         id="feGaussianBlur5647" />
    </filter>
    <filter
       inkscape:collect="always"
       style="color-interpolation-filters:sRGB"
       id="filter5641"
       x="-0.42821035"
       width="1.8564208"
       y="-1.3559999"
       height="3.7119999">
      <feGaussianBlur
         inkscape:collect="always"
         stdDeviation="2.0401529"
         id="feGaussianBlur5643" />
    </filter>
  </defs>
  <sodipodi:namedview
     id="base"
     pagecolor="#ffffff"
     bordercolor="#666666"
     borderopacity="1.0"
     inkscape:pageopacity="0.0"
     inkscape:pageshadow="2"
     inkscape:zoom="0.575"
     inkscape:cx="640"
     inkscape:cy="512"
     inkscape:document-units="px"
     inkscape:current-layer="layer1"
     showgrid="false"
     units="px"
     inkscape:showpageshadow="false"
     inkscape:window-width="1280"
     inkscape:window-height="945"
     inkscape:window-x="0"
     inkscape:window-y="17"
     inkscape:window-maximized="1" />
  <metadata
     id="metadata7">
    <rdf:RDF>
      <cc:Work
         rdf:about="">
        <dc:format>image/svg+xml</dc:format>
        <dc:type
           rdf:resource="http://purl.org/dc/dcmitype/StillImage" />
        <dc:title></dc:title>
        <cc:license
           rdf:resource="http://creativecommons.org/licenses/by-sa/4.0/" />
        <dc:date>20192017</dc:date>
        <dc:creator>
          <cc:Agent>
            <dc:title>Cristian Pozzessere  &lt; ilnanny &gt;</dc:title>
          </cc:Agent>
        </dc:creator>
        <dc:subject>
          <rdf:Bag>
            <rdf:li>ilnanny</rdf:li>
          </rdf:Bag>
        </dc:subject>
      </cc:Work>
      <cc:License
         rdf:about="http://creativecommons.org/licenses/by-sa/3.0/">
        <cc:permits
           rdf:resource="http://creativecommons.org/ns#Reproduction" />
        <cc:permits
           rdf:resource="http://creativecommons.org/ns#Distribution" />
        <cc:requires
           rdf:resource="http://creativecommons.org/ns#Notice" />
        <cc:requires
           rdf:resource="http://creativecommons.org/ns#Attribution" />
        <cc:permits
           rdf:resource="http://creativecommons.org/ns#DerivativeWorks" />
        <cc:requires
           rdf:resource="http://creativecommons.org/ns#ShareAlike" />
      </cc:License>
    </rdf:RDF>
  </metadata>
  <g
     inkscape:label="Livello 1"
     inkscape:groupmode="layer"
     id="layer1"
     transform="translate(0,-28.36218)">
    <rect
       style="opacity:1;fill:#282d32;fill-opacity:1;stroke:none;stroke-width:17.3432312;stroke-linecap:round;stroke-linejoin:bevel;stroke-miterlimit:4;stroke-dasharray:none;stroke-dashoffset:50;stroke-opacity:0.95594716;paint-order:fill markers stroke"
       id="rect5239"
       width="1280"
       height="1024"
       x="0"
       y="28.362181" />
    <g
       transform="matrix(0.63836775,0,0,0.58220708,560.3605,57.358471)"
       id="g6924">
      <path
         style="color:#000000;font-style:normal;font-variant:normal;font-weight:normal;font-stretch:normal;font-size:medium;line-height:normal;font-family:sans-serif;font-variant-ligatures:normal;font-variant-position:normal;font-variant-caps:normal;font-variant-numeric:normal;font-variant-alternates:normal;font-feature-settings:normal;text-indent:0;text-align:start;text-decoration:none;text-decoration-line:none;text-decoration-style:solid;text-decoration-color:#000000;letter-spacing:normal;word-spacing:normal;text-transform:none;writing-mode:lr-tb;direction:ltr;text-orientation:mixed;dominant-baseline:auto;baseline-shift:baseline;text-anchor:start;white-space:normal;shape-padding:0;clip-rule:nonzero;display:inline;overflow:visible;visibility:visible;opacity:1;isolation:auto;mix-blend-mode:normal;color-interpolation:sRGB;color-interpolation-filters:linearRGB;solid-color:#000000;solid-opacity:1;vector-effect:none;fill:#050505;fill-opacity:0.58149779;fill-rule:nonzero;stroke:none;stroke-width:9.50335884;stroke-linecap:round;stroke-linejoin:bevel;stroke-miterlimit:4;stroke-dasharray:none;stroke-dashoffset:50;stroke-opacity:1;paint-order:fill markers stroke;filter:url(#filter4634);color-rendering:auto;image-rendering:auto;shape-rendering:auto;text-rendering:auto;enable-background:accumulate"
         d="m 124.75391,813.14844 c -61.824164,0 -111.949222,51.19955 -111.949222,114.11914 -2.7e-5,63.26142 56.239309,117.28162 112.218752,114.11332 23.15089,-1.3105 50.48996,-15.4932 72.60937,-36.295 22.11942,-20.80175 39.07228,-48.51949 39.07227,-77.81832 -3e-5,-62.91959 -50.127,-114.11913 -111.95117,-114.11914 z m 0,9.5039 c 56.58422,10e-6 102.44723,46.72975 102.44726,104.61524 1e-5,25.57723 -15.28042,51.33571 -36.07812,70.89453 -20.79771,19.55879 -47.0587,32.62229 -66.63672,33.73049 -49.393318,2.7956 -102.17776,-47.08135 -102.177736,-104.62502 0,-57.88549 45.861103,-104.61524 102.445316,-104.61524 z"
         id="path4606"
         inkscape:connector-curvature="0" />
      <path
         style="opacity:0.86299995;fill:#ffffff;fill-opacity:1;stroke:#a4c9d9;stroke-width:1.05834222;stroke-linecap:round;stroke-linejoin:bevel;stroke-miterlimit:4;stroke-dasharray:none;stroke-dashoffset:50;stroke-opacity:0.15833333;paint-order:fill markers stroke"
         d="m 237.62183,930.22412 c 3e-5,58.77892 -73.24755,115.45568 -112.02147,117.14688 -61.807645,2.696 -112.021499,-52.44845 -112.021473,-117.14688 0,-64.69841 50.153723,-117.14684 112.021473,-117.14684 61.86775,10e-6 112.02144,52.44843 112.02147,117.14684 z"
         id="path4583"
         inkscape:connector-curvature="0"
         sodipodi:nodetypes="sssss" />
      <path
         inkscape:connector-curvature="0"
         id="path4978"
         d="m 130.00099,810.08181 -1.701,0.0329 -1.17028,0.57997 -0.40712,1.32682 0.61268,1.22969 1.02114,0.37207 1.69028,-0.0329 h 0.0107 l 1.47931,0.0123 1.18238,-0.54578 0.43937,-1.31724 -0.5845,-1.24475 -1.01171,-0.40078 -1.52098,-0.0123 z m 4.8249,0.0957 -1.19581,0.51568 -0.46892,1.3022 0.55357,1.26117 1.00369,0.42814 0.65165,0.0245 2.52597,0.16004 1.20524,-0.48148 0.49846,-1.28851 -0.52265,-1.27758 -0.99428,-0.45686 -2.52329,-0.16004 -0.0417,-0.001 z m -9.78818,0.0615 -0.4958,0.0232 -0.0416,0.002 -2.69664,0.20243 -0.0416,0.004 -0.0228,10e-4 -1.12462,0.67573 -0.31305,1.3569 0.69598,1.17499 1.02653,0.28042 v 0.006 l 0.0188,-10e-4 h 10e-4 l 2.63616,-0.19697 h 0.0101 l 0.4864,-0.0232 1.1555,-0.6128 0.37621,-1.33777 -0.64091,-1.21192 z m 16.33829,0.43224 -1.22537,0.41308 -0.56028,1.25981 0.46488,1.30355 0.96874,0.51158 2.35669,0.28315 0.0174,0.002 0.0241,0.002 0.76183,0.11349 1.23611,-0.37889 0.5885,-1.24338 -0.43263,-1.31724 -0.95665,-0.53758 -0.80214,-0.12037 -0.0416,-0.005 z m -22.88435,0.15045 -2.74366,0.35975 -0.0403,0.006 -0.45414,0.0711 -1.09102,0.73727 -0.25126,1.37196 0.75109,1.1353 1.05741,0.22706 0.44474,-0.0697 0.007,-10e-4 2.7047,-0.35291 1.10847,-0.70717 0.28082,-1.36512 -0.72421,-1.15447 z m 29.35651,0.78104 -1.24417,0.34335 -0.61806,1.22696 0.40039,1.32818 0.9432,0.56493 1.34496,0.238 0.0202,0.004 0.0228,0.004 1.74131,0.36386 1.25493,-0.30915 0.64763,-1.20781 -0.36816,-1.33913 -0.92977,-0.5923 -1.78431,-0.36929 -0.043,-0.007 z m -35.82197,0.1792 -2.92772,0.54714 -0.0404,0.007 -0.24721,0.0547 -1.05609,0.79609 -0.18675,1.3829 0.80212,1.09292 1.0655,0.16961 0.20824,-0.0452 0.0161,-0.002 0.0242,-0.005 2.88608,-0.53893 1.07623,-0.76601 0.21767,-1.38016 -0.77662,-1.11343 z m 42.23233,1.18044 -1.2603,0.26948 -0.67852,1.18869 0.3359,1.35004 0.91634,0.61965 0.33321,0.0781 0.0255,0.006 0.0175,0.004 2.54077,0.68393 0.0228,0.006 0.0202,0.005 0.0833,0.026 1.27107,-0.1956 0.73763,-1.14626 -0.26738,-1.36785 -0.88275,-0.673 -0.12495,-0.0368 -0.0444,-0.0123 -2.62675,-0.70717 -0.0416,-0.0109 z m -48.64806,0.12312 -3.12255,0.7619 -0.0404,0.0109 -0.0214,0.005 -1.0171,0.85218 -0.12228,1.39247 0.85185,1.04777 1.0534,0.10945 0.001,0.005 0.016,-0.004 0.0228,-0.005 3.08358,-0.75232 1.03727,-0.82346 0.15316,-1.38973 -0.82631,-1.06966 z m -6.310938,1.63185 -0.09272,0.026 -0.04036,0.0109 -3.011025,0.91372 -0.998298,0.8809 -0.08869,1.3952 0.876041,1.02316 1.073544,0.0806 2.973395,-0.90141 0.03622,-0.0103 0.002,-10e-4 0.0537,-0.0151 1.01845,-0.85218 0.12227,-1.39246 -0.85185,-1.04778 z m 61.319648,0.0698 -1.27776,0.15592 -0.76453,1.12301 0.23111,1.37606 0.86528,0.69898 1.90927,0.63877 0.0228,0.007 0.0202,0.006 1.07489,0.39668 1.28046,-0.11763 0.79408,-1.09976 -0.19618,-1.3829 -0.84646,-0.72495 -1.11654,-0.41173 -0.043,-0.0151 z m -67.587583,1.91362 -0.325155,0.10943 -0.04036,0.0138 -2.732905,0.9958 -0.955312,0.9356 -0.0228,1.39795 0.924397,0.97391 1.076236,0.0205 2.722156,-0.99308 0.01029,-0.004 0.287537,-0.0944 0.975466,-0.90826 0.05643,-1.39658 -0.900219,-0.99853 z m 73.777603,0.35838 -1.2818,0.0794 -0.8223,1.07514 0.16258,1.38837 0.82766,0.74958 0.52132,0.20929 2.2304,0.96842 0.0228,0.0109 0.016,0.006 0.1263,0.0601 1.28582,-0.005 0.87201,-1.02727 -0.094,-1.39521 -0.79003,-0.79608 -0.16527,-0.078 -0.039,-0.0177 -2.31101,-1.00399 -0.0403,-0.0163 z m -78.871225,1.95466 -1.077581,0.0103 -0.54685,0.2175 -0.04036,0.0163 -2.454771,1.0546 -0.90829,0.98897 0.04434,1.39795 0.968741,0.91783 1.077581,-0.0412 2.415809,-1.0382 0.02416,-0.0103 0.01482,-0.006 0.507887,-0.19971 0.932457,-0.96433 -0.01029,-1.39795 z m 83.653125,0.76599 -0.89618,1.00127 0.059,1.39794 0.77123,0.81936 1.40003,0.70307 0.006,0.002 1.46186,0.7865 1.28314,0.0683 0.92172,-0.97391 -0.0269,-1.39932 -0.75107,-0.84122 -1.46857,-0.79064 -0.0391,-0.0192 -1.43766,-0.72359 z m -89.710116,1.83429 -1.074891,0.0727 -0.748391,0.34605 -0.04036,0.0192 -2.190091,1.09428 -0.85722,1.04231 0.11421,1.39246 1.013072,0.85903 1.073546,-0.10398 2.149783,-1.07513 0.0269,-0.0123 0.01345,-0.006 0.706738,-0.32693 0.8841,-1.01631 -0.07922,-1.39659 z m 95.558846,1.26117 -0.9459,0.94792 -0.006,1.39796 0.7296,0.86448 0.0847,0.0465 0.0148,0.0103 2.12829,1.30082 0.0255,0.0163 0.0121,0.006 0.46489,0.30228 1.27374,0.17919 0.99023,-0.8932 0.0753,-1.39659 -0.68658,-0.90277 -0.50252,-0.32692 -0.0376,-0.0232 -2.18068,-1.33228 -0.0362,-0.0217 -0.12227,-0.0697 z m -101.484165,1.68109 -1.070856,0.13679 -0.91904,0.49243 -0.04036,0.0232 -1.942861,1.1189 -0.802139,1.09291 0.185422,1.3829 1.056082,0.7961 1.065476,-0.16961 1.934802,-1.11343 0.0091,-0.005 0.87872,-0.47055 0.829006,-1.06692 -0.149137,-1.38973 z m 107.159575,1.83704 -1.0104,0.8631 -0.10886,1.3952 0.66374,0.92195 0.97278,0.66889 0.007,0.006 0.0269,0.0178 1.64996,1.20781 1.26432,0.25033 1.03055,-0.83303 0.14378,-1.38973 -0.64225,-0.94109 -1.68624,-1.23242 -0.035,-0.026 -1.0077,-0.69349 z m -112.933065,1.45403 -1.061452,0.20243 -1.050701,0.64836 -0.01345,0.0178 -0.02416,0.005 -2.761119,1.80967 -0.747046,1.13808 0.256622,1.37056 1.09639,0.73181 1.054726,-0.23527 2.724847,-1.78506 0.01607,-0.0103 0.02018,-0.0137 1.014429,-0.62374 0.773926,-1.11753 -0.22304,-1.37743 z m 118.384075,2.47033 -1.07218,0.77148 -0.21095,1.38014 0.59388,0.97804 1.74801,1.42939 0.0188,0.0178 0.0148,0.0109 0.74303,0.64426 1.23881,0.36384 1.091,-0.74002 0.24722,-1.37194 -0.57103,-0.99581 -0.77661,-0.67435 -0.0348,-0.0287 -1.78163,-1.4595 z m -125.004048,1.84797 -1.049357,0.25988 -0.468925,0.32556 -0.03226,0.0232 -2.216959,1.61544 -0.693298,1.17771 0.317096,1.35555 1.125938,0.67161 1.042643,-0.28863 2.184709,-1.59353 0.01482,-0.0103 0.01743,-0.0138 0.435331,-0.29955 0.720177,-1.15859 -0.284848,-1.36374 z m 130.140688,2.49633 -1.10848,0.70719 -0.28082,1.36512 0.54416,1.0122 0.54012,0.4938 0.007,0.006 1.83672,1.78368 1.21999,0.43909 1.1273,-0.673 0.31575,-1.35552 -0.51863,-1.02863 -1.84478,-1.7919 -0.0336,-0.0329 -0.57372,-0.52525 z m -135.54737,1.44173 -1.038607,0.31732 -0.941872,0.72634 -0.03499,0.026 -1.656668,1.34595 -0.638217,1.21466 0.378903,1.33639 1.156853,0.60869 1.029202,-0.34743 1.623076,-1.31861 0.0046,-0.002 0.940528,-0.7236 0.666429,-1.1955 -0.347999,-1.34597 z m 140.40317,3.2678 -1.14207,0.64152 -0.348,1.34733 0.49445,1.04231 0.32515,0.32965 0.0101,0.0103 0.016,0.0178 1.93077,2.06545 1.1985,0.49927 1.15418,-0.6128 0.3762,-1.33774 -0.47295,-1.05326 -1.9563,-2.0928 -0.0255,-0.0275 -0.35202,-0.35701 z m -145.64325,0.93834 -1.021132,0.37615 -1.397356,1.19824 -0.03352,0.0301 -1.109818,1.00673 -0.577765,1.25023 0.446079,1.31177 1.185078,0.53895 1.009048,-0.40491 1.076225,-0.97664 0.01345,-0.0109 0.02018,-0.0192 1.362417,-1.16817 0.608657,-1.23242 -0.411152,-1.32545 z m 150.28542,4.00782 -1.16625,0.58407 -0.40578,1.32681 0.45012,1.06556 1.03322,1.15858 1.15416,1.35826 1.17701,0.56357 1.17969,-0.55263 0.43398,-1.31587 -0.42459,-1.07648 -1.18101,-1.39249 -0.0282,-0.03 -1.03324,-1.1572 z m -155.337389,0.46918 -0.999644,0.43771 -1.804472,1.7317 -0.03489,0.0341 -0.596563,0.60868 -0.510577,1.28305 0.511912,1.28167 1.2106,0.46644 0.988893,-0.4678 0.562971,-0.57313 0.0046,-0.005 1.799093,-1.72759 0.545504,-1.26665 -0.478317,-1.29807 z m 159.799519,4.67805 -1.19179,0.51843 -0.46624,1.30493 0.40041,1.08879 1.66338,2.05726 0.004,0.005 0.42057,0.54987 1.14743,0.62786 1.20522,-0.48422 0.49578,-1.28989 -0.37352,-1.10113 -0.44743,-0.58406 -0.0281,-0.0341 -1.66743,-2.0641 z m -164.640541,0.0781 -0.974121,0.50063 -2.143057,2.3158 -0.03625,0.0383 -0.138388,0.16005 -0.439365,1.31588 0.584468,1.24474 1.234777,0.38573 0.959337,-0.53348 0.104757,-0.12036 0.0091,-0.0109 2.133665,-2.3062 0.476983,-1.29946 -0.548196,-1.26389 z m -4.549461,5.03097 -0.959336,0.5321 -0.0644,0.0766 -0.03625,0.0423 -2.075881,2.54559 -0.399057,1.32954 0.620752,1.22287 1.245529,0.34196 0.943204,-0.56629 2.039609,-2.50316 0.01029,-0.0109 0.05643,-0.0656 0.43802,-1.31449 -0.584479,-1.24612 z m 173.450582,0.24212 -1.21731,0.45003 -0.5267,1.27483 0.34531,1.10934 1.99661,2.75621 1.13131,0.66205 1.21597,-0.45004 0.52804,-1.27483 -0.34531,-1.11071 -1.99525,-2.75484 z m -177.762231,5.08842 -0.927086,0.60047 -0.431306,0.56494 -0.03352,0.0479 -1.559922,2.19541 -0.314406,1.35554 0.694643,1.17635 1.264336,0.24758 0.905588,-0.63467 1.554554,-2.18858 0.0057,-0.005 0.395022,-0.51842 0.358738,-1.34323 -0.657024,-1.20098 z m 181.733941,0.48148 -1.22672,0.41034 -0.56162,1.25844 0.31574,1.12163 0.49715,0.72634 0.006,0.0103 1.33557,2.08187 1.09367,0.73181 1.23882,-0.37071 0.59523,-1.23927 -0.28485,-1.13121 -1.34226,-2.09144 -0.0282,-0.0424 -0.52401,-0.76737 z m -185.740587,5.13765 -0.885434,0.66889 -0.712107,1.0806 -0.02553,0.041 -0.978144,1.57441 -0.01608,0.0275 -0.138399,0.23254 -0.212291,1.37878 0.781985,1.11071 1.277765,0.13405 0.855887,-0.71266 0.122269,-0.20517 0.951278,-1.53474 0.008,-0.0137 0.01743,-0.026 0.686583,-1.0423 0.271408,-1.36648 -0.733618,-1.149 z m 189.502687,0.64972 -1.2482,0.32829 -0.63151,1.22013 0.25396,1.13942 1.04398,1.74128 0.001,0.002 0.653,1.16951 1.04936,0.80704 1.25762,-0.28452 0.66777,-1.19551 -0.22034,-1.14899 -0.67986,-1.21876 -0.0281,-0.0479 -1.04669,-1.744 z m -193.159989,5.24984 -0.835721,0.74001 -0.808853,1.44445 -0.03089,0.0546 -0.815566,1.58397 -0.130329,1.39248 0.846471,1.05187 1.284491,0.0452 0.810197,-0.77284 0.787354,-1.52926 0.008,-0.0163 0.800794,-1.42803 0.174661,-1.38701 -0.808842,-1.08477 z m 196.633219,0.74273 -1.26434,0.25032 -0.69462,1.17773 0.19346,1.15447 0.51326,0.97253 0.0134,0.026 0.87067,1.71938 0.001,0.001 0.0121,0.026 0.12763,0.26674 1.00368,0.87406 1.27107,-0.20244 0.73092,-1.149 -0.15451,-1.16131 -0.14244,-0.29407 -0.0135,-0.0275 -0.89752,-1.77272 -0.0148,-0.026 -0.52536,-0.99989 z m -198.608329,5.41807 -1.28448,0.004 -0.784675,0.80294 -0.781985,1.65512 -0.02553,0.0533 -0.646274,1.48959 -0.04035,1.39795 0.910968,0.98623 1.283145,-0.0519 0.760487,-0.83166 0.644929,-1.48823 0.0012,-0.002 0.757795,-1.60038 0.08469,-1.39522 z m 201.733579,0.79062 -1.27374,0.17782 -0.74974,1.13395 0.13571,1.16405 0.0712,0.15046 0.0121,0.0287 0.7793,1.75905 0.0121,0.0301 0.48101,1.14216 0.95664,0.93287 1.28046,-0.12446 0.7887,-1.10387 -0.0968,-1.16678 -0.49444,-1.17363 -0.0121,-0.0301 -0.80482,-1.81788 -0.0135,-0.0287 -0.0832,-0.17919 z m -204.598148,5.50424 -1.280467,0.0985 -0.733606,0.859 -0.752415,1.89038 -0.02017,0.0521 -0.487733,1.34733 0.04298,1.39931 0.967396,0.91783 1.277777,-0.14225 0.708082,-0.885 0.482353,-1.33093 0.0069,-0.0163 0.730928,-1.83978 -0.0012,-1.39793 z m 207.384788,0.92467 -1.28314,0.0712 -0.82768,1.06966 0.0537,1.17225 0.42323,1.11618 0.65836,1.83837 0.005,0.0205 0.005,0.0123 0.0699,0.20794 0.88544,1.01358 1.2845,-0.0138 0.86662,-1.03136 -0.0107,-1.17362 -0.0806,-0.23938 -0.0107,-0.0355 -0.66913,-1.87259 -0.0135,-0.0329 -0.43399,-1.14902 z m -209.871808,5.55759 -1.272396,0.1874 -0.682559,0.90688 -0.710763,2.15164 -0.01482,0.0492 -0.349334,1.16404 0.122269,1.39248 1.018453,0.85217 1.267027,-0.22843 0.657026,-0.93014 0.343965,-1.14901 0.0046,-0.0138 0.694643,-2.10104 -0.08196,-1.39521 z m 210.939978,1.0382 -0.89216,1.00811 -0.0174,1.17362 0.67584,2.18172 0.005,0.0192 0.3023,1.08334 0.83036,1.06556 1.28448,0.0655 0.91903,-0.978 0.0512,-1.1709 -0.30767,-1.10248 -0.0148,-0.0519 -0.69195,-2.2337 -0.86127,-1.0382 z m -213.061536,5.59589 -1.260313,0.26947 -0.63149,0.95066 -0.654335,2.42657 -0.01208,0.0479 -0.228408,0.94793 0.194826,1.38291 1.062796,0.78788 1.252243,-0.30914 0.607312,-0.96843 0.216327,-0.90142 0.652988,-2.42658 -0.159887,-1.38699 z m 215.071566,1.06556 -0.94724,0.94518 -0.0832,1.16953 0.83975,3.38816 0.80079,1.09428 1.28047,0.10803 0.94724,-0.9452 0.082,-1.1695 -0.83842,-3.38817 -0.80078,-1.09429 z m -216.8411,5.69026 -1.245528,0.34744 -0.579098,0.98758 -0.577754,2.70153 -0.0091,0.0465 -0.135709,0.72087 0.266038,1.36922 1.100414,0.72086 1.234767,-0.38435 0.556267,-1.00403 0.135697,-0.72085 0.567005,-2.65364 -0.2311,-1.37606 z m 218.47225,1.09428 -0.97277,0.91374 -0.11689,1.16539 0.16659,0.77422 0.48507,2.60577 0.73629,1.14488 1.27105,0.19697 0.99965,-0.87954 0.15183,-1.1613 -0.49445,-2.66047 -0.0121,-0.0546 -0.16796,-0.77286 -0.76855,-1.12027 z m -219.900509,5.75731 -1.22672,0.41993 -0.529374,1.02042 -0.47833,2.95729 -0.008,0.0465 -0.06851,0.50063 0.333225,1.35143 1.133997,0.65657 1.214625,-0.45548 0.506541,-1.03685 0.06179,-0.45411 0.0012,-0.005 0.476984,-2.95183 -0.299621,-1.35964 z m 221.244119,1.09838 -1.02517,0.8426 -0.18677,1.15448 0.32381,2.08048 0.002,0.0218 0.004,0.0217 0.17062,1.29809 0.67315,1.1914 1.25898,0.27495 1.04531,-0.81387 0.2123,-1.15037 -0.17602,-1.34049 -0.006,-0.0438 -0.32918,-2.12426 -0.70138,-1.17226 z m -222.340498,5.82433 -1.203876,0.48832 -0.481018,1.0505 -0.356059,3.1748 -0.0056,0.0452 -0.0269,0.3105 0.397713,1.32956 1.162222,0.59092 1.193125,-0.52253 0.455484,-1.06283 0.02279,-0.26398 0.356059,-3.17479 -0.365464,-1.34049 z m 223.341488,1.09975 -1.06817,0.77557 -0.24857,1.14078 0.13839,1.38699 h -0.001 l 0.17198,2.07505 0.61538,1.22833 1.24552,0.34608 1.08162,-0.75369 0.26736,-1.1367 -0.17198,-2.07503 -0.002,-0.0301 -0.14108,-1.41711 -0.63552,-1.21601 z m -224.116759,5.87492 -1.176995,0.56082 -0.427271,1.0765 -0.154518,2.50728 -0.0022,0.0533 -0.03352,0.99719 0.470257,1.30217 1.193126,0.51431 1.160876,-0.60049 0.396367,-1.0888 0.03352,-0.99717 0.153162,-2.45256 -0.432629,-1.31725 z m 224.725419,1.10523 -1.10713,0.71128 -0.30367,1.12438 0.0323,0.65519 10e-4,0.0205 v 0.0123 l 0.0659,2.05589 0.0101,0.69759 0.53206,1.27347 1.21732,0.44594 1.12998,-0.6648 0.34396,-1.11206 -0.0121,-0.73043 v -0.0329 l -0.0672,-2.08872 -0.001,-0.0329 -0.0336,-0.68666 -0.57641,-1.25158 z m -225.080132,5.90912 -1.143413,0.63743 -0.365452,1.10385 -0.0057,1.00128 v 0.0506 l 0.05506,2.50864 0.53879,1.268 1.221339,0.43634 1.125949,-0.67298 0.335893,-1.1148 -0.05369,-2.4977 v -0.0103 l 0.0046,-0.94929 -0.503852,-1.28578 z m 225.328692,1.09566 -1.15415,0.6169 -0.3816,1.097 -0.0404,1.97657 h -0.001 l -0.059,1.49505 0.46087,1.30493 1.19178,0.5239 1.16356,-0.59091 0.40308,-1.08882 0.059,-1.49505 0.001,-0.0341 0.0417,-2.01211 -0.48503,-1.29536 z m -225.242695,5.93237 -1.089677,0.74275 -0.276777,1.13395 0.167948,2.26927 0.0046,0.0479 0.122269,1.2256 0.635526,1.21465 1.249563,0.3228 1.069511,-0.7742 0.248563,-1.14078 -0.116889,-1.17911 -0.166613,-2.26789 -0.605955,-1.2338 z m 225.031745,1.07513 -1.18505,0.53894 -0.44475,1.06692 -0.094,1.21467 -0.19348,1.98201 -0.001,0.0103 -0.002,0.0274 -0.0214,0.18328 0.35739,1.34323 1.14745,0.63195 1.20522,-0.48284 0.48638,-1.04778 0.0269,-0.21885 0.004,-0.0383 0.2002,-2.05589 0.002,-0.0368 0.094,-1.21603 -0.41115,-1.32407 z m -224.435183,5.91871 -1.048012,0.80566 -0.221706,1.14763 0.0994,0.79609 0.0056,0.0452 0.396366,2.67141 0.695989,1.17773 1.261646,0.25032 1.031893,-0.83575 0.192137,-1.1531 -0.389653,-2.62628 -0.0022,-0.0178 -0.0057,-0.0274 -0.09267,-0.75096 -0.665096,-1.19549 z m 223.776823,1.05461 -1.21463,0.45139 -0.50788,1.03548 -0.0537,0.38709 v 0.002 l -0.31843,1.98887 -0.18139,0.9958 0.27275,1.36648 1.10445,0.71401 1.23343,-0.38984 0.55089,-1.00947 0.1881,-1.03547 0.006,-0.041 0.32515,-2.02717 0.005,-0.0397 0.0537,-0.38984 -0.33054,-1.35144 z m -222.790619,5.89134 -0.988895,0.89048 -0.139733,1.16268 0.407117,2.06272 0.008,0.0424 0.300967,1.36101 0.773913,1.11616 1.277777,0.14638 0.970086,-0.91647 0.111486,-1.16679 -0.291562,-1.31859 -0.0057,-0.0248 -0.0046,-0.0177 -0.397712,-2.02033 -0.747046,-1.13806 z m 221.684829,1.00948 -1.24957,0.32829 -0.59253,0.97665 -0.34262,1.50326 -0.004,0.0151 -0.006,0.0275 -0.44203,1.74812 -0.002,0.004 -0.002,0.007 v 10e-4 l -0.006,0.0301 0.0107,0.002 0.14512,1.35692 1.03321,0.83029 1.263,-0.25717 0.63956,-0.94382 0.004,-0.0123 0.0107,-0.0438 0.4649,-1.83566 0.0107,-0.0438 0.35202,-1.54431 -0.21229,-1.37879 z m -220.2512,5.83799 -0.949931,0.94383 -0.08469,1.16814 0.149138,0.6087 0.01029,0.041 0.712118,2.65364 0.01029,0.0397 0.03352,0.10942 0.843792,1.05189 1.28449,0.0452 0.906934,-0.9917 0.03499,-1.17226 -0.02144,-0.0697 -0.0057,-0.0178 -0.0057,-0.0218 -0.701358,-2.61124 -0.139732,-0.56902 -0.798104,-1.09701 z m 190.08448,0.61416 -0.0874,0.002 -0.12764,0.58954 -0.13974,0.30503 -0.93111,-0.84533 -95.90015,3.87785 h -0.008 l -67.161674,3.40187 -0.02963,0.001 0.02816,0.71948 -1.570684,-0.093 -0.967383,0.81112 c 0.0091,-0.14299 0.03374,-0.21318 0.05506,-0.25305 -0.0619,0.0561 -0.190381,0.15656 -0.380236,0.27905 -0.398454,0.25707 -1.0216,0.59649 -1.773571,0.97253 -1.503928,0.75208 -3.537312,1.66521 -5.573283,2.57977 -2.035959,0.91457 -4.074108,1.83072 -5.631079,2.61398 -0.778462,0.39163 -1.434985,0.74689 -1.936135,1.07512 -0.250558,0.16411 -0.461502,0.31633 -0.650299,0.49927 -0.01436,0.0139 -0.03078,0.0296 -0.04572,0.0438 l -0.829018,-2.14752 -0.270051,-0.74548 -0.909636,-0.98759 -1.28449,0.0492 -0.841091,1.05461 0.03762,1.17225 0.270063,0.74684 0.01345,0.0355 0.964715,2.49496 0.929779,0.96708 1.2818,-0.0807 0.463544,-0.60732 c 0.04628,0.20786 0.09199,0.4158 0.141077,0.62374 l -0.806161,0.0916 -0.773926,1.11752 0.112853,1.16541 1.089678,2.48677 0.01743,0.0383 0.313072,0.67162 0.990239,0.89321 0.986204,-0.14089 c 0.01709,0.0459 0.03374,0.0921 0.05107,0.13815 l -0.689273,1.10523 0.166613,1.15855 0.75645,1.52379 0.02017,0.0425 0.812888,1.53884 1.031893,0.83439 0.571028,-0.11349 c 0.07991,0.15915 0.161848,0.31836 0.243194,0.47737 l -0.389642,0.70582 0.221695,1.14899 0.337239,0.60049 0.02553,0.0425 1.406762,2.34861 1.070856,0.77009 0.442056,-0.11489 c 0.114688,0.18345 0.238132,0.36539 0.354714,0.54852 l -0.286193,0.64015 0.315751,1.123 1.444378,2.12158 0.03227,0.045 0.494447,0.6784 1.132675,0.6594 0.403069,-0.1491 c 0.130408,0.175 0.257591,0.3506 0.389653,0.5252 l -0.239158,0.6346 0.381582,1.0958 0.931122,1.1968 0.03762,0.045 1.198506,1.4376 1.17028,0.5733 0.403082,-0.1834 c 0.142161,0.1647 0.290387,0.3271 0.433985,0.4911 l -0.192135,0.6346 0.45146,1.0656 0.303655,0.3378 0.03898,0.042 2.015419,2.0984 1.20522,0.4828 1.146103,-0.6292 0.360084,-1.3419 -0.483698,-1.0491 -0.19885,-0.2066 -1.058774,-41.57317 14.435738,-0.29547 v 53.66634 h -0.274097 l -0.240504,-0.1834 h -0.0046 l -0.420545,-0.3418 -1.252243,-0.32 -1.066831,0.7783 -0.20691,1.3799 0.599242,0.9754 0.460864,0.3719 0.03887,0.033 2.169923,1.6524 1.260303,0.2789 0.397712,-0.3104 c 0.15844,0.1138 0.315169,0.229 0.474293,0.3419 l -0.06851,0.7428 0.651643,0.9344 1.649955,1.1761 0.04035,0.028 1.06682,0.7127 1.272396,0.1943 0.433996,-0.383 c 0.141615,0.091 0.27981,0.1848 0.421891,0.2749 l -0.03226,0.87 0.702712,0.8878 2.798749,1.7425 1.277765,0.1519 0.519981,-0.4883 c 0.122305,0.069 0.246899,0.136 0.369488,0.2051 l -0.008,0.9424 0.726891,0.8646 0.751081,0.435 0.04298,0.023 2.130961,1.1408 1.281802,0.067 0.920373,-0.9766 -0.0091,-0.4829 0.327845,-0.1874 v -68.30917 l 30.739093,-1.62638 -0.34397,79.75535 c -0.19296,-0.036 -0.38488,-0.077 -0.57775,-0.1138 l -0.84379,-0.5155 -1.78298,-0.3309 h -0.0121 l -1.3248,-0.2944 -0.74168,0.1725 c -0.54374,-0.1259 -1.086841,-0.2594 -1.628436,-0.3968 l -0.729582,-0.5116 -1.616361,-0.4144 h -0.008 l -1.451102,-0.4268 -1.271052,0.2053 -0.729581,1.1517 0.275443,1.3652 0.888124,0.6662 1.498126,0.4403 0.0497,0.014 1.624418,0.4172 1.264343,-0.2489 0.448751,-0.7577 0.275444,0.078 0.286195,1.0822 0.92172,0.6044 1.33689,0.2956 0.0497,0.012 1.83134,0.3422 1.24821,-0.3338 0.17332,-0.3366 0.70808,0.2025 0.15049,0.4637 0.9553,0.5416 1.19985,0.1821 0.0497,0.012 1.99929,0.2352 1.22672,-0.4157 0.30097,-0.6798 c 0.1339,0.016 0.2678,0.033 0.40173,0.048 l 0.34531,0.885 0.98488,0.4746 1.07353,0.091 h 0.0511 l 2.14305,0.1059 1.20119,-0.5006 0.20288,-0.5431 c 0.18058,0.012 0.36087,0.022 0.54147,0.032 l 0.31844,0.6881 1.00905,0.4062 0.94321,0.013 h 0.0537 l 2.27877,-0.048 1.16759,-0.5826 0.12496,-0.4089 c 0.22113,-0.012 0.44245,-0.014 0.66374,-0.021 l 0.2835,0.5252 1.03189,0.3337 0.7981,-0.044 h 0.0537 l 2.4158,-0.2287 1.12864,-0.6661 0.086,-0.3598 c 0.23467,-0.027 0.4693,-0.057 0.70405,-0.087 l 0.2862,0.4554 1.05203,0.2572 0.62344,-0.082 0.0564,-0.012 2.56227,-0.4378 1.08564,-0.7495 0.0632,-0.3638 c 0.23386,-0.047 0.46755,-0.095 0.70137,-0.1437 l 0.30902,0.4241 1.06548,0.1737 0.41922,-0.09 0.0578,-0.014 2.72349,-0.6895 1.0319,-0.8343 0.14377,-1.391 -0.83707,-1.0617 -1.06951,-0.1312 -1.48738,0.3776 -2.64288,-79.02637 37.26366,-2.1243 2.11887,64.36297 -0.33321,0.079 -0.81289,0.5456 -0.0202,0.014 -1.86225,1.2053 h -0.0101 l -0.0121,0.012 h -0.002 l -0.76855,1.1231 0.23111,1.376 1.0816,0.7549 1.06012,-0.2092 0.0241,-0.016 0.0215,-0.014 1.90388,-1.2324 0.0202,-0.014 0.83438,-0.5594 0.73495,-1.1463 -0.0214,-0.109 c 0.25064,-0.1689 0.49751,-0.3426 0.74705,-0.513 l 0.23916,0.1505 1.04936,-0.2614 0.19348,-0.1339 0.0202,-0.014 1.85015,-1.3239 0.0297,-0.021 0.64091,-0.4827 0.67986,-1.186 -0.0148,-0.058 c 0.25138,-0.1861 0.50915,-0.3652 0.75916,-0.5526 l 0.19078,0.1113 1.03996,-0.3036 0.35068,-0.2627 0.0376,-0.03 2.25593,-1.8001 0.64896,-1.2076 -0.0107,-0.038 c 0.25517,-0.2066 0.50837,-0.4148 0.76184,-0.6224 l 0.1881,0.094 1.02114,-0.3693 2.2277,-1.8808 0.035,-0.032 0.31171,-0.2777 0.57506,-1.227 c 0.25254,-0.223 0.49655,-0.4501 0.74705,-0.6744 l 0.15318,0.071 1.01442,-0.398 0.60194,-0.5375 0.0323,-0.03 1.84613,-1.7468 0.5549,-1.261 -10e-4,-0.01 c 0.2427,-0.2342 0.4919,-0.4654 0.73228,-0.7004 l 0.16526,0.065 0.99158,-0.4582 2.27742,-2.2721 0.0283,-0.03 0.0968,-0.1 0.49312,-1.2913 -0.52938,-1.2748 -0.17066,-0.062 -0.002,-0.569 0.33321,0.8016 1.2173,0.4472 0.98084,-0.4841 0.11286,-0.1177 0.0242,-0.028 2.16322,-2.3691 0.46757,-1.3022 -0.55492,-1.2612 -1.2267,-0.4186 -0.97144,0.5075 -2.16321,2.3705 -0.086,0.089 -0.30097,0.7893 -0.19885,-42.9616 12.52513,5.69983 3.44905,17.51537 -0.0269,-0.004 -0.88141,0.67435 -0.58583,0.89593 -0.005,0.007 -1.30061,1.86712 -0.30502,1.35828 0.70406,1.16951 1.26569,0.23665 0.90156,-0.6429 1.33151,-1.91225 0.0309,-0.0438 0.58985,-0.90414 0.2647,-1.36923 -0.69196,-1.0724 0.12764,0.0191 0.0403,0.0575 1.27777,0.14635 0.8599,-0.70581 1.59353,-2.62903 0.0241,-0.0383 0.17332,-0.30503 0.18945,-1.38291 -0.80078,-1.0943 -0.0524,-0.004 c 0.0191,-0.0432 0.0348,-0.0856 0.0537,-0.12857 l 0.18945,0.24894 1.28316,0.0835 0.83035,-0.74823 0.0148,-0.0287 0.88007,-1.67426 0.016,-0.03 0.69465,-1.38701 0.11419,-1.39248 -0.85587,-1.04231 -0.93918,-0.0205 c 0.087,-0.28895 0.17015,-0.57652 0.2499,-0.86311 l 0.87603,0.97938 1.28315,-0.0287 0.77393,-0.81799 0.27678,-0.6128 0.0148,-0.0329 0.74571,-1.73581 0.0148,-0.0355 0.33725,-0.83304 0.005,-1.39931 -0.93517,-0.95887 -1.28045,0.0903 -0.73898,0.85217 -0.32247,0.79747 -0.0121,0.0287 -0.002,0.007 -0.46355,1.07787 c -0.0392,-0.23104 -0.14285,-0.37484 -0.22437,-0.47328 -0.0979,-0.11807 -0.18999,-0.19266 -0.28485,-0.26536 -0.18977,-0.14541 -0.40009,-0.26981 -0.65434,-0.40762 -0.50848,-0.27563 -1.18824,-0.58942 -2.01945,-0.94655 -1.66237,-0.71427 -3.91646,-1.59113 -6.37273,-2.51411 -4.77741,-1.79519 -10.21082,-3.72528 -13.50596,-4.94481 l 0.059,-0.0546 -0.11958,-0.0561 -0.0174,0.0821 c -0.0401,-0.0149 -0.12718,-0.0455 -0.1666,-0.0601 z m -166.841381,8.51755 c 0.0022,-0.002 0.01618,-0.0116 0.01881,-0.0138 0.0326,-0.0307 0.01029,-0.0398 -0.01881,0.0138 z m 195.336651,-8.20165 -1.26838,0.22022 -0.66104,0.92604 -0.0712,0.23252 -0.001,0.002 -0.57641,1.75086 -0.0101,0.0302 -0.004,0.0109 -0.42188,1.18592 0.0525,1.39933 0.97412,0.91097 1.27643,-0.15456 0.7027,-0.89047 0.43535,-1.22696 0.0135,-0.0397 0.59252,-1.79324 0.0121,-0.0411 0.0833,-0.2722 -0.11555,-1.39385 z m -28.76265,0.51431 -0.016,0.0697 -0.0525,0.11627 v -0.10262 l -0.0107,-0.0103 z m -0.0981,0.0903 -0.17872,0.39395 -0.14108,-0.0958 z m -0.50521,0.0109 c 0.0125,0.158 0.0448,0.15229 0.0766,0.21474 l -0.0376,-0.026 z m 0.12228,0.34606 c 0.0101,0.0109 0.0248,0.0724 0.0296,0.0794 0.0252,0.0381 0.0116,0.0348 -0.039,-0.0697 z m -1.40543,0.54441 0.20558,44.49765 -0.20558,0.102 -0.0685,0.071 -2.2774,2.272 -0.52267,1.279 0.20154,0.5156 c -0.12525,0.1223 -0.25568,0.242 -0.38158,0.3638 l -0.67181,-0.2886 -1.00368,0.4282 -1.81253,1.7153 -0.60058,0.5362 -0.58582,1.2462 0.18139,0.5443 c -0.13236,0.118 -0.26077,0.238 -0.39368,0.3557 l -0.67853,-0.3159 -1.01308,0.3992 -0.27679,0.2477 h -0.005 l -2.22233,1.878 -0.6167,1.2283 0.15451,0.5061 c -0.14094,0.1149 -0.28045,0.2314 -0.42191,0.3461 l -0.62075,-0.3338 -1.03188,0.3365 -2.24786,1.792 -0.0101,0.012 -0.31172,0.2352 -0.67986,1.1859 0.1236,0.4979 c -0.15441,0.116 -0.30996,0.2299 -0.46489,0.3449 l -0.59253,-0.3434 -1.03995,0.3062 -0.61268,0.4583 -1.83268,1.3118 -0.0188,0.014 -0.17198,0.1191 -0.57908,0.9315 -2.10141,-63.77466 z m -66.13111,2.67416 2.68451,80.29419 -0.8505,0.6348 -0.043,0.3161 c -0.22716,0.048 -0.45408,0.096 -0.68121,0.1422 l -0.26872,-0.3968 -1.05878,-0.2147 -2.5421,0.4335 h -0.0202 l -0.56834,0.074 -1.10714,0.7073 -0.0658,0.3201 c -0.2262,0.03 -0.45247,0.06 -0.67853,0.09 l -0.2526,-0.4337 -1.0413,-0.294 -2.39163,0.2229 -0.7672,0.046 -1.15012,0.6237 -0.0779,0.2858 c -0.23698,0.012 -0.47405,0.018 -0.71078,0.023 l -0.2069,-0.4132 -1.02115,-0.3707 -2.25726,0.049 -0.91232,-0.014 -1.18506,0.5418 -0.0483,0.1409 c -0.27417,-0.013 -0.54808,-0.032 -0.82229,-0.047 l -0.11688,-0.275 -0.9983,-0.4404 -2.09335,-0.1011 h -0.0101 l -1.0628,-0.09 -1.15415,0.4364 c -0.33247,-0.038 -0.66469,-0.077 -0.99697,-0.119 l -0.0391,-0.109 -0.97008,-0.5089 -1.98048,-0.2324 h -0.0188 l -1.04264,-0.1614 0.3453,-80.02217 z m -120.016583,1.64279 -0.884099,1.01359 -0.0091,1.17361 0.56298,1.77682 0.01208,0.0368 0.518637,1.52788 0.890815,1.00948 1.284492,-0.0192 0.862588,-1.03547 -0.01482,-1.17362 -0.507887,-1.48959 -0.561636,-1.7782 -0.869314,-1.03 z m 202.254883,0.89731 c 2.12363,0.80433 4.15623,1.58875 5.58404,2.20223 0.80428,0.34558 1.45338,0.64817 1.86762,0.8727 0.0791,0.0428 0.0982,0.061 0.15855,0.0972 -0.84865,3.70856 -2.51338,7.74419 -4.64217,11.90306 z m -144.804825,0.33375 v 66.60484 l -1.359729,-0.729 h -0.0091 l -0.741666,-0.4296 -0.956646,-0.084 c -0.38068,-0.2139 -0.76297,-0.4264 -1.140734,-0.6442 v -0.012 l -0.702702,-0.888 -2.797402,-1.7412 -1.061451,-0.1259 c -0.329726,-0.2094 -0.656273,-0.4223 -0.983526,-0.6346 l 0.008,-0.1177 -0.678511,-0.9109 -1.066832,-0.7139 -1.606956,-1.1464 -1.249553,-0.2339 c -0.262276,-0.187 -0.521521,-0.3763 -0.781984,-0.5649 l 0.02144,-0.1751 -0.624776,-0.9534 -0.255288,-0.1941 0.425925,-0.4063 v -55.11259 z m -34.674538,2.34862 1.052048,0.0629 0.988905,38.87012 -0.208266,-0.2338 -1.190435,-0.528 -0.05506,0.028 c -0.201461,-0.2311 -0.399388,-0.4628 -0.597896,-0.6948 l 0.07124,-0.2121 -0.416521,-1.0819 -1.194458,-1.4322 h -0.0046 l -0.89485,-1.1503 -1.151473,-0.6183 -0.02018,0.01 c -0.18819,-0.2495 -0.380988,-0.498 -0.565658,-0.7483 l 0.08594,-0.2079 -0.349334,-1.1093 -0.481017,-0.66477 -0.01208,-0.0151 -1.413476,-2.07776 -1.09101,-0.6853 c -0.174273,-0.27421 -0.347429,-0.54862 -0.517291,-0.82346 l 0.07387,-0.14363 -0.252611,-1.14077 -1.381226,-2.30621 -0.01208,-0.0191 -0.01208,-0.0218 -0.314406,-0.56081 -0.847815,-0.64699 c -0.203467,-0.39431 -0.399992,-0.78832 -0.593873,-1.18321 l -0.192136,-1.13942 -0.791389,-1.49779 -0.0046,-0.0103 -0.752425,-1.51557 -0.185412,-0.15868 c -1.121206,-2.81148 -1.993223,-5.62397 -2.579731,-8.41502 0.06976,-0.055 0.115237,-0.0975 0.233778,-0.17509 0.389995,-0.25541 1.006301,-0.59397 1.753415,-0.96982 1.49424,-0.7517 3.52304,-1.66542 5.558521,-2.57976 2.035504,-0.91434 4.07746,-1.83031 5.641806,-2.61259 0.782167,-0.39116 1.442759,-0.74491 1.948241,-1.07104 0.252747,-0.16308 0.46693,-0.31676 0.657025,-0.49517 0.0057,-0.004 0.01163,-0.0136 0.01743,-0.0191 z m 177.322863,20.85565 -0.91768,0.61417 -1.05607,1.42392 -0.0101,0.0109 -0.96337,1.22697 -0.37621,1.33776 0.6409,1.21191 1.25092,0.31735 0.93514,-0.58545 0.97143,-1.23791 0.0282,-0.0384 1.08429,-1.46223 0.34262,-1.34869 -0.67181,-1.19276 z m -4.08724,5.32916 -0.94725,0.55807 -1.62443,1.95876 -0.52266,0.60049 -0.43937,1.31449 0.58314,1.2461 1.23477,0.3857 0.96068,-0.5321 0.55088,-0.6319 0.0255,-0.031 1.62442,-1.96013 0.40847,-1.32545 -0.61135,-1.23107 z m -168.003601,16.80121 -1.129974,0.6689 -0.321119,1.3555 0.51459,1.0286 1.299276,1.2723 0.03762,0.036 1.127294,1.0369 1.230754,0.4007 1.109819,-0.7056 0.283503,-1.3639 -0.544171,-1.0122 -1.091011,-1.0013 -0.01482,-0.015 -1.284503,-1.2571 z m 4.806095,4.5645 -1.089665,0.7429 -0.243195,1.3732 0.57103,0.9932 2.431928,2.1038 0.03762,0.032 0.09405,0.075 1.252241,0.3187 1.066832,-0.7769 0.206922,-1.3802 -0.599264,-0.9753 -0.05506,-0.046 -2.431939,-2.1009 z m 123.659096,13.5718 -1.06278,0.1931 -1.00369,0.6059 -0.0228,0.014 -1.78564,1.034 -0.79946,1.0956 0.19079,1.3829 1.05876,0.7919 1.06414,-0.1736 1.80984,-1.0491 0.0214,-0.013 1.02651,-0.6196 0.78333,-1.108 -0.20961,-1.3789 z m -5.63241,3.2736 -1.06952,0.1366 -1.19177,0.6375 -0.0202,0.012 h -0.004 l -1.66608,0.8535 -0.84781,1.052 0.12764,1.3925 1.02248,0.8467 1.07087,-0.1163 1.69025,-0.8658 0.0228,-0.013 1.21595,-0.6513 0.83306,-1.0668 -0.14915,-1.3884 z m -91.081941,1.7 -0.890814,1.0081 0.06714,1.3967 0.775271,0.8139 2.031536,1.004 0.04709,0.021 0.915004,0.4143 1.284491,-0.021 0.86259,-1.0369 -0.110118,-1.3925 -0.798115,-0.7879 -0.86797,-0.3926 h -0.0069 l -2.024822,-1.0012 z m 85.315181,1.275 -1.0749,0.075 -1.36781,0.6401 -1.57737,0.7044 -0.89755,1.0027 0.0617,1.3966 0.9795,0.9041 1.07622,-0.055 1.57741,-0.7044 0.0269,-0.012 1.39333,-0.6538 0.88006,-1.0178 -0.0834,-1.3966 z m -78.199427,1.4621 -1.284492,0.067 -0.830352,1.0682 0.150483,1.3884 0.822293,0.7592 3.013716,1.2422 1.281802,-0.067 0.831697,-1.0656 -0.150484,-1.3911 -0.820948,-0.7578 z m 72.306347,1.1928 -1.07892,0.014 -1.52635,0.6128 h -0.006 l -0.0215,0.012 -1.4511,0.5487 -0.94457,0.9464 -0.007,1.4008 0.93382,0.9603 1.07757,0.012 1.47931,-0.5593 0.0281,-0.012 1.55456,-0.6235 0.92844,-0.9657 -0.016,-1.3981 z m -66.313841,1.1805 -1.279122,0.1244 -0.788699,1.1038 0.202886,1.3816 0.84916,0.7209 0.966051,0.3502 0.02553,0.012 1.847472,0.632 0.0269,0.012 0.256634,0.085 1.275086,-0.1723 0.755105,-1.1312 -0.245873,-1.3734 -0.872005,-0.6894 -0.229765,-0.076 -0.0269,-0.012 -1.796403,-0.6143 -0.02553,-0.012 z m 59.226291,1.0792 -1.66608,0.5525 -0.0202,0.012 h -0.0107 l -1.36376,0.4226 -0.99293,0.8878 -0.0806,1.3951 0.88007,1.0178 1.07622,0.074 1.39467,-0.4323 0.0296,-0.012 1.69428,-0.5635 0.97682,-0.9084 0.0578,-1.398 -0.89889,-0.9984 z"
         style="color:#000000;font-style:normal;font-variant:normal;font-weight:normal;font-stretch:normal;font-size:medium;line-height:normal;font-family:sans-serif;font-variant-ligatures:normal;font-variant-position:normal;font-variant-caps:normal;font-variant-numeric:normal;font-variant-alternates:normal;font-feature-settings:normal;text-indent:0;text-align:start;text-decoration:none;text-decoration-line:none;text-decoration-style:solid;text-decoration-color:#000000;letter-spacing:normal;word-spacing:normal;text-transform:none;writing-mode:lr-tb;direction:ltr;text-orientation:mixed;dominant-baseline:auto;baseline-shift:baseline;text-anchor:start;white-space:normal;shape-padding:0;clip-rule:nonzero;display:inline;overflow:visible;visibility:visible;opacity:0.62400004;isolation:auto;mix-blend-mode:normal;color-interpolation:sRGB;color-interpolation-filters:linearRGB;solid-color:#000000;solid-opacity:1;vector-effect:none;fill:#081019;fill-opacity:1;fill-rule:nonzero;stroke:#000000;stroke-width:0.59244645;stroke-linecap:round;stroke-linejoin:bevel;stroke-miterlimit:4;stroke-dasharray:none;stroke-dashoffset:50;stroke-opacity:1;paint-order:markers fill stroke;color-rendering:auto;image-rendering:auto;shape-rendering:auto;text-rendering:auto;enable-background:accumulate" />
      <path
         transform="matrix(0.68182436,0,0,0.68182436,-132.62189,541.99007)"
         sodipodi:nodetypes="csssc"
         inkscape:connector-curvature="0"
         id="path4950"
         d="m 340.05527,514.56002 c 13.7047,6.5865 -26.47385,23.53633 -47.37058,23.53633 -20.89674,10e-6 -37.83689,-9.2037 -37.83689,-20.55705 1e-5,-11.35334 15.74845,-13.40676 36.64518,-13.40676 20.89672,0 12.21504,-2.11757 48.56229,10.42748 z"
         style="opacity:0.48787884;fill:#fefefe;fill-opacity:1;stroke:#000000;stroke-width:5;stroke-linecap:round;stroke-linejoin:bevel;stroke-miterlimit:4;stroke-dasharray:none;stroke-dashoffset:50;stroke-opacity:1;paint-order:markers fill stroke;filter:url(#filter5133)" />
      <path
         transform="matrix(0.68182436,0,0,0.68182436,-132.62189,541.99007)"
         sodipodi:nodetypes="sssss"
         inkscape:connector-curvature="0"
         id="path4952"
         d="m 465.1851,509.49524 c 0,20.73219 -11.07112,37.53895 -24.72804,37.53895 -13.65692,1e-5 -30.09076,-7.27305 -24.72805,-37.53895 3.61712,-20.41422 12.85869,-44.68924 26.51562,-44.68924 13.65692,1e-5 22.94047,23.95705 22.94047,44.68924 z"
         style="opacity:0.48787884;fill:#fefefe;fill-opacity:1;stroke:#000000;stroke-width:5;stroke-linecap:round;stroke-linejoin:bevel;stroke-miterlimit:4;stroke-dasharray:none;stroke-dashoffset:50;stroke-opacity:1;paint-order:markers fill stroke;filter:url(#filter5129)" />
      <path
         transform="matrix(0.68182436,0,0,0.68182436,-132.62189,541.99007)"
         sodipodi:nodetypes="ssscs"
         inkscape:connector-curvature="0"
         id="path4958"
         d="m 388.31967,582.78557 c 0,7.5689 -7.86984,13.7047 -17.57777,13.7047 -9.70793,0 -17.57776,-6.13581 -17.57776,-13.7047 0,-7.56889 7.86983,-18.47155 17.57776,-26.21769 0,0 17.57777,18.64879 17.57777,26.21769 z"
         style="opacity:0.48787884;fill:#fefefe;fill-opacity:1;stroke:#000000;stroke-width:5;stroke-linecap:round;stroke-linejoin:bevel;stroke-miterlimit:4;stroke-dasharray:none;stroke-dashoffset:50;stroke-opacity:1;paint-order:markers fill stroke;filter:url(#filter5125)" />
      <path
         style="opacity:0.797;fill:#fefefe;fill-opacity:1;stroke:#000000;stroke-width:3.30405045;stroke-linecap:round;stroke-linejoin:bevel;stroke-miterlimit:4;stroke-dasharray:none;stroke-dashoffset:50;stroke-opacity:1;paint-order:markers fill stroke"
         d="m 101.08595,894.19354 c 9.05621,4.35241 -17.494175,15.55304 -31.302946,15.55304 -13.808782,0 -25.003,-6.0819 -25.003,-13.58431 1.2e-5,-7.50239 10.406731,-8.85931 24.215503,-8.85931 13.808771,0 8.071819,-1.39934 32.090443,6.89058 z"
         id="path5137"
         inkscape:connector-curvature="0"
         sodipodi:nodetypes="csssc" />
      <path
         style="opacity:0.797;fill:#fefefe;fill-opacity:1;stroke:#000000;stroke-width:3.30405045;stroke-linecap:round;stroke-linejoin:bevel;stroke-miterlimit:4;stroke-dasharray:none;stroke-dashoffset:50;stroke-opacity:1;paint-order:markers fill stroke"
         d="m 183.77301,890.84668 c 0,13.70003 -7.31592,24.80611 -16.34054,24.80611 -9.02462,10e-6 -19.88428,-4.8061 -16.34054,-24.80611 2.39022,-13.48991 8.49714,-29.53111 17.52178,-29.53111 9.02463,10e-6 15.1593,15.83107 15.1593,29.53111 z"
         id="path5139"
         inkscape:connector-curvature="0"
         sodipodi:nodetypes="sssss" />
      <path
         style="opacity:0.63599997;fill:#fefefe;fill-opacity:1;stroke:#000000;stroke-width:3.30405045;stroke-linecap:round;stroke-linejoin:bevel;stroke-miterlimit:4;stroke-dasharray:none;stroke-dashoffset:50;stroke-opacity:1;paint-order:markers fill stroke"
         d="m 132.97956,939.27767 c 0,5.0016 -5.20047,9.0562 -11.61556,9.0562 -6.4151,0 -11.61557,-4.05461 -11.61557,-9.0562 0,-5.0016 5.20047,-12.20619 11.61557,-17.32492 0,0 11.61556,12.32332 11.61556,17.32492 z"
         id="path5141"
         inkscape:connector-curvature="0"
         sodipodi:nodetypes="ssscs" />
      <path
         sodipodi:nodetypes="ccccc"
         inkscape:connector-curvature="0"
         id="rect5182"
         d="m 78.606482,965.21543 h 27.677628 v 73.63477 l -27.677628,-7.7962 z"
         style="opacity:0.74900004;fill:#000000;fill-opacity:1;stroke:none;stroke-width:2.76281309;stroke-linecap:round;stroke-linejoin:bevel;stroke-miterlimit:4;stroke-dasharray:none;stroke-dashoffset:50;stroke-opacity:1;paint-order:markers fill stroke" />
      <path
         sodipodi:nodetypes="ccccc"
         inkscape:connector-curvature="0"
         id="rect5184"
         d="m 139.49533,964.44233 35.10634,-1.34649 2.51024,58.47296 -35.927,15.2979 z"
         style="opacity:0.74900004;fill:#000000;fill-opacity:1;stroke:none;stroke-width:3.10462356;stroke-linecap:round;stroke-linejoin:bevel;stroke-miterlimit:4;stroke-dasharray:none;stroke-dashoffset:50;stroke-opacity:1;paint-order:markers fill stroke" />
      <path
         sodipodi:nodetypes="ccccc"
         inkscape:connector-curvature="0"
         id="rect5187"
         d="m 43.820933,968.59076 h 13.130629 l 1.230997,45.95724 -13.130629,-6.5653 z"
         style="opacity:0.74900004;fill:#000000;fill-opacity:1;stroke:none;stroke-width:2.94820857;stroke-linecap:round;stroke-linejoin:bevel;stroke-miterlimit:4;stroke-dasharray:none;stroke-dashoffset:50;stroke-opacity:1;paint-order:markers fill stroke" />
      <path
         style="opacity:0.74900004;fill:#000000;fill-opacity:1;stroke:none;stroke-width:2.94820857;stroke-linecap:round;stroke-linejoin:bevel;stroke-miterlimit:4;stroke-dasharray:none;stroke-dashoffset:50;stroke-opacity:1;paint-order:markers fill stroke"
         d="m 204.2608,961.61511 12.30996,4.51367 3.28266,15.59261 -13.95128,17.23395 z"
         id="path5191"
         inkscape:connector-curvature="0"
         sodipodi:nodetypes="ccccc" />
      <ellipse
         ry="7.7963109"
         rx="4.7188201"
         cy="898.01361"
         cx="162.20177"
         id="path5193"
         style="opacity:0.74900004;fill:#000000;fill-opacity:1;stroke:none;stroke-width:2.94820857;stroke-linecap:round;stroke-linejoin:bevel;stroke-miterlimit:4;stroke-dasharray:none;stroke-dashoffset:50;stroke-opacity:1;paint-order:markers fill stroke" />
      <ellipse
         ry="3.8981555"
         rx="11.284135"
         cy="898.62909"
         cx="79.724983"
         id="path5195"
         style="opacity:0.74900004;fill:#000000;fill-opacity:1;stroke:none;stroke-width:2.94820857;stroke-linecap:round;stroke-linejoin:bevel;stroke-miterlimit:4;stroke-dasharray:none;stroke-dashoffset:50;stroke-opacity:1;paint-order:markers fill stroke" />
      <path
         transform="matrix(0.68182436,0,0,0.68182436,-132.62189,541.99007)"
         sodipodi:nodetypes="caac"
         inkscape:connector-curvature="0"
         id="path5201"
         d="m 353.26542,508.92322 c 0,0 -22.11316,-9.53101 -33.70164,-12.63812 -17.67905,-4.74013 -36.36514,-4.75624 -54.16335,-9.02722 -3.88669,-0.93268 -11.43449,-3.61089 -11.43449,-3.61089"
         style="opacity:0.4314869;fill:none;stroke:#000000;stroke-width:7.19999981;stroke-linecap:round;stroke-linejoin:bevel;stroke-miterlimit:4;stroke-dasharray:none;stroke-opacity:1;paint-order:fill markers stroke;filter:url(#filter5257)" />
      <path
         transform="matrix(0.68182436,0,0,0.68182436,-132.62189,541.99007)"
         sodipodi:nodetypes="caac"
         inkscape:connector-curvature="0"
         id="path5203"
         d="m 392.98521,487.85969 c 0,0 22.35105,-26.14878 37.31253,-33.70164 11.69517,-5.90396 26.97469,-1.62455 38.51616,-7.8236 0.24993,-0.13424 0.60182,-0.60181 0.60182,-0.60181"
         style="opacity:0.4314869;fill:none;stroke:#000000;stroke-width:7.19999981;stroke-linecap:round;stroke-linejoin:bevel;stroke-miterlimit:4;stroke-dasharray:none;stroke-opacity:1;paint-order:fill markers stroke;filter:url(#filter5253)" />
      <path
         style="opacity:0.68500001;fill:none;stroke:#000000;stroke-width:1.09091902;stroke-linecap:round;stroke-linejoin:bevel;stroke-miterlimit:4;stroke-dasharray:none;stroke-opacity:1;paint-order:fill markers stroke"
         d="m 108.24308,888.98632 c 0,0 -15.077286,-6.49849 -22.978604,-8.61697 -12.053999,-3.23195 -24.794638,-3.24294 -36.929883,-6.155 -2.650042,-0.63592 -7.796324,-2.46199 -7.796324,-2.46199"
         id="path5261"
         inkscape:connector-curvature="0"
         sodipodi:nodetypes="caac" />
      <path
         style="opacity:0.68500001;fill:none;stroke:#000000;stroke-width:1.09091902;stroke-linecap:round;stroke-linejoin:bevel;stroke-miterlimit:4;stroke-dasharray:none;stroke-opacity:1;paint-order:fill markers stroke"
         d="m 135.325,874.62469 c 0,0 15.23948,-17.82888 25.44059,-22.9786 7.97406,-4.02547 18.39201,-1.10765 26.26126,-5.33432 0.17041,-0.0915 0.41034,-0.41033 0.41034,-0.41033"
         id="path5263"
         inkscape:connector-curvature="0"
         sodipodi:nodetypes="caac" />
      <path
         transform="matrix(0.68182436,0,0,0.68182436,-132.62189,541.99007)"
         inkscape:connector-curvature="0"
         id="path5305"
         d="m 509.13551,529.38493 -57.17243,69.81054"
         style="opacity:0.54242428;fill:none;stroke:#000000;stroke-width:1.39999998;stroke-linecap:butt;stroke-linejoin:miter;stroke-miterlimit:4;stroke-dasharray:none;stroke-opacity:1;filter:url(#filter5669)" />
      <path
         transform="matrix(0.68182436,0,0,0.68182436,-132.62189,541.99007)"
         inkscape:connector-curvature="0"
         id="path5307"
         d="m 446.54675,587.15917 22.86897,6.61996"
         style="opacity:0.54242428;fill:none;stroke:#000000;stroke-width:1.39999998;stroke-linecap:butt;stroke-linejoin:miter;stroke-miterlimit:4;stroke-dasharray:none;stroke-opacity:1;filter:url(#filter5665)" />
      <path
         transform="matrix(0.68182436,0,0,0.68182436,-132.62189,541.99007)"
         inkscape:connector-curvature="0"
         id="path5309"
         d="m 454.37034,575.12287 24.0726,6.61996"
         style="opacity:0.54242428;fill:none;stroke:#000000;stroke-width:1.39999998;stroke-linecap:butt;stroke-linejoin:miter;stroke-miterlimit:4;stroke-dasharray:none;stroke-opacity:1;filter:url(#filter5661)" />
      <path
         transform="matrix(0.68182436,0,0,0.68182436,-132.62189,541.99007)"
         inkscape:connector-curvature="0"
         id="path5311"
         d="m 466.40664,564.2902 22.86897,7.22178"
         style="opacity:0.54242428;fill:none;stroke:#000000;stroke-width:1.39999998;stroke-linecap:butt;stroke-linejoin:miter;stroke-miterlimit:4;stroke-dasharray:none;stroke-opacity:1;filter:url(#filter5657)" />
      <path
         transform="matrix(0.68182436,0,0,0.68182436,-132.62189,541.99007)"
         inkscape:connector-curvature="0"
         id="path5313"
         d="m 477.84113,552.2539 18.65626,5.41633"
         style="opacity:0.54242428;fill:none;stroke:#000000;stroke-width:1.39999998;stroke-linecap:butt;stroke-linejoin:miter;stroke-miterlimit:4;stroke-dasharray:none;stroke-opacity:1;filter:url(#filter5653)" />
      <path
         transform="matrix(0.68182436,0,0,0.68182436,-132.62189,541.99007)"
         inkscape:connector-curvature="0"
         id="path5315"
         d="m 489.87743,542.62486 13.23993,4.81452"
         style="opacity:0.54242428;fill:none;stroke:#000000;stroke-width:1.39999998;stroke-linecap:butt;stroke-linejoin:miter;stroke-miterlimit:4;stroke-dasharray:none;stroke-opacity:1;filter:url(#filter5649)" />
      <path
         transform="matrix(0.68182436,0,0,0.68182436,-132.62189,541.99007)"
         inkscape:connector-curvature="0"
         id="path5317"
         d="m 497.09921,536.60671 11.43449,3.00907"
         style="opacity:0.54242428;fill:none;stroke:#000000;stroke-width:1.39999998;stroke-linecap:butt;stroke-linejoin:miter;stroke-miterlimit:4;stroke-dasharray:none;stroke-opacity:1;filter:url(#filter5645)" />
      <path
         transform="matrix(0.68182436,0,0,0.68182436,-132.62189,541.99007)"
         inkscape:connector-curvature="0"
         id="path5319"
         d="m 501.31191,531.79219 11.43449,3.61089"
         style="opacity:0.54242428;fill:none;stroke:#000000;stroke-width:1.39999998;stroke-linecap:butt;stroke-linejoin:miter;stroke-miterlimit:4;stroke-dasharray:none;stroke-opacity:1;filter:url(#filter5641)" />
      <path
         style="opacity:0.7;fill:none;stroke:#000000;stroke-width:0.61364192;stroke-linecap:butt;stroke-linejoin:miter;stroke-miterlimit:4;stroke-dasharray:none;stroke-opacity:1"
         d="m 214.51911,902.93761 -38.98157,47.59853"
         id="path5673"
         inkscape:connector-curvature="0" />
      <path
         style="opacity:0.7;fill:none;stroke:#000000;stroke-width:0.61364192;stroke-linecap:butt;stroke-linejoin:miter;stroke-miterlimit:4;stroke-dasharray:none;stroke-opacity:1"
         d="m 171.84456,942.32949 15.59263,4.51366"
         id="path5675"
         inkscape:connector-curvature="0" />
      <path
         style="opacity:0.7;fill:none;stroke:#000000;stroke-width:0.61364192;stroke-linecap:butt;stroke-linejoin:miter;stroke-miterlimit:4;stroke-dasharray:none;stroke-opacity:1"
         d="m 177.17888,934.12285 16.41328,4.51365"
         id="path5677"
         inkscape:connector-curvature="0" />
      <path
         style="opacity:0.7;fill:none;stroke:#000000;stroke-width:0.61364192;stroke-linecap:butt;stroke-linejoin:miter;stroke-miterlimit:4;stroke-dasharray:none;stroke-opacity:1"
         d="m 185.38552,926.73687 15.59261,4.92398"
         id="path5679"
         inkscape:connector-curvature="0" />
      <path
         style="opacity:0.7;fill:none;stroke:#000000;stroke-width:0.61364192;stroke-linecap:butt;stroke-linejoin:miter;stroke-miterlimit:4;stroke-dasharray:none;stroke-opacity:1"
         d="m 193.18184,918.53023 12.72028,3.69298"
         id="path5681"
         inkscape:connector-curvature="0" />
      <path
         style="opacity:0.7;fill:none;stroke:#000000;stroke-width:0.61364192;stroke-linecap:butt;stroke-linejoin:miter;stroke-miterlimit:4;stroke-dasharray:none;stroke-opacity:1"
         d="m 201.38848,911.96492 9.0273,3.28266"
         id="path5683"
         inkscape:connector-curvature="0" />
      <path
         style="opacity:0.7;fill:none;stroke:#000000;stroke-width:0.61364192;stroke-linecap:butt;stroke-linejoin:miter;stroke-miterlimit:4;stroke-dasharray:none;stroke-opacity:1"
         d="m 206.31247,907.8616 7.7963,2.05165"
         id="path5685"
         inkscape:connector-curvature="0" />
      <path
         style="opacity:0.7;fill:none;stroke:#000000;stroke-width:0.61364192;stroke-linecap:butt;stroke-linejoin:miter;stroke-miterlimit:4;stroke-dasharray:none;stroke-opacity:1"
         d="m 209.18479,904.57894 7.79631,2.46199"
         id="path5687"
         inkscape:connector-curvature="0" />
    </g>
    <rect
       y="28.362181"
       x="0"
       height="1024"
       width="1280"
       id="rect5242"
       style="opacity:0.467;fill:url(#pattern6681);fill-opacity:1;stroke:none;stroke-width:17.3432312;stroke-linecap:round;stroke-linejoin:bevel;stroke-miterlimit:4;stroke-dasharray:none;stroke-dashoffset:50;stroke-opacity:0.95594716;paint-order:fill markers stroke" />
    <g
       id="g4673"
       transform="translate(569.21961,-426.6938)" />
  </g>
</svg>
