<?xml version="1.0" encoding="UTF-8" standalone="no"?>
<!-- Generator: Adobe Illustrator 19.0.0, SVG Export Plug-In . SVG Version: 6.00 Build 0)  -->

<svg
   xmlns:dc="http://purl.org/dc/elements/1.1/"
   xmlns:cc="http://creativecommons.org/ns#"
   xmlns:rdf="http://www.w3.org/1999/02/22-rdf-syntax-ns#"
   xmlns:svg="http://www.w3.org/2000/svg"
   xmlns="http://www.w3.org/2000/svg"
   xmlns:xlink="http://www.w3.org/1999/xlink"
   xmlns:sodipodi="http://sodipodi.sourceforge.net/DTD/sodipodi-0.dtd"
   xmlns:inkscape="http://www.inkscape.org/namespaces/inkscape"
   version="1.1"
   id="svg2"
   sodipodi:docname="Strawhat-wall.svg"
   inkscape:version="0.92.2 5c3e80d, 2017-08-06"
   x="0px"
   y="0px"
   viewBox="-105 197 1280 1024"
   xml:space="preserve"
   width="1280"
   height="1024"
   inkscape:export-filename="/media/Dati/ArtWork/Strawhat-wall.png"
   inkscape:export-xdpi="96"
   inkscape:export-ydpi="96"><metadata
     id="metadata39"><rdf:RDF><cc:Work
         rdf:about=""><dc:format>image/svg+xml</dc:format><dc:type
           rdf:resource="http://purl.org/dc/dcmitype/StillImage" /><dc:title /></cc:Work></rdf:RDF></metadata><style
     type="text/css"
     id="style2">
	.st0{fill:#FFFFFF;stroke:#000000;stroke-linecap:round;}
	.st1{fill:#FFFFFF;stroke:#000000;stroke-width:1.2498;stroke-linecap:round;}
	.st2{fill:#FFFFFF;stroke:#000000;}
	.st3{fill:#FFF419;stroke:#000000;}
	.st4{fill:#FF1919;stroke:#000000;}
	.st5{fill:#231F20;stroke:#000000;}
</style><defs
     id="defs5"><pattern
       inkscape:collect="always"
       xlink:href="#pattern2312"
       id="pattern31760"
       patternTransform="matrix(4.8340239,7.0093167,-1.0124661,0.69825428,-1175,197)" /><pattern
       inkscape:collect="always"
       xlink:href="#Wavy"
       id="pattern2312"
       patternTransform="matrix(4.8340239,7.0093167,-1.0124661,0.69825428,-105,197)" /><pattern
       inkscape:stockid="Wavy"
       id="Wavy"
       height="5.1805778"
       width="30.066020"
       patternUnits="userSpaceOnUse"
       inkscape:collect="always"><path
         id="path2220"
         d="M 7.597,0.061 C 5.079,-0.187 2.656,0.302 -0.01,1.788 L -0.01,3.061 C 2.773,1.431 5.173,1.052 7.472,1.280 C 9.770,1.508 11.969,2.361 14.253,3.218 C 18.820,4.931 23.804,6.676 30.066,3.061 L 30.062,1.788 C 23.622,5.497 19.246,3.770 14.691,2.061 C 12.413,1.207 10.115,0.311 7.597,0.061 z "
         style="fill:black;stroke:none;" /></pattern><inkscape:perspective
       id="perspective10"
       inkscape:vp_y="0 : 2.5 : 0"
       sodipodi:type="inkscape:persp3d"
       inkscape:vp_x="0 : 0.00125 : 1"
       inkscape:vp_z="0.0025 : 0.00125 : 1"
       inkscape:persp3d-origin="0.00125 : 0.00083333333 : 1" /></defs><sodipodi:namedview
     id="namedview4"
     inkscape:cx="564.86413"
     guidetolerance="10"
     gridtolerance="10"
     objecttolerance="10"
     inkscape:zoom="0.575"
     inkscape:cy="498.08696"
     bordercolor="#666666"
     borderopacity="1"
     showgrid="false"
     pagecolor="#ffffff"
     inkscape:current-layer="g65"
     inkscape:window-maximized="1"
     inkscape:window-y="17"
     inkscape:window-x="0"
     inkscape:window-height="947"
     inkscape:window-width="1280"
     inkscape:pageshadow="2"
     inkscape:pageopacity="0"
     inkscape:showpageshadow="false" /><rect
     style="opacity:1;fill:#2c2c2c;fill-opacity:1;stroke:none;stroke-width:15.74421692;stroke-linecap:round;stroke-miterlimit:4;stroke-dasharray:none;stroke-opacity:1;paint-order:markers fill stroke"
     id="rect872"
     width="1280"
     height="1024"
     x="-105"
     y="197" /><rect
     y="197"
     x="-105"
     height="1024"
     width="1280"
     id="rect874"
     style="opacity:0.51;fill:url(#pattern2312);fill-opacity:1;stroke:none;stroke-width:15.74421692;stroke-linecap:round;stroke-miterlimit:4;stroke-dasharray:none;stroke-opacity:1;paint-order:markers fill stroke" /><rect
     style="opacity:0.51;fill:url(#pattern31760);fill-opacity:1;stroke:none;stroke-width:15.74421692;stroke-linecap:round;stroke-miterlimit:4;stroke-dasharray:none;stroke-opacity:1;paint-order:markers fill stroke"
     id="rect31758"
     width="1280"
     height="1024"
     x="-1175"
     y="197"
     transform="scale(-1,1)" /><g
     id="g65"
     transform="matrix(1.780573,0,0,1.780573,366.20168,-1123.7663)"
     style="opacity:0.2"><g
       transform="matrix(1.1994921,0,0,1.157882,-171.24113,473.85452)"
       id="base"
       style="opacity:0.40900005"><path
         style="fill:#ffffff;fill-opacity:0.67083333;stroke:#000000;stroke-linecap:round"
         inkscape:connector-curvature="0"
         d="m 232,221.5 c -9.1,0 -16.5,7.4 -16.5,16.5 0,4.3 1.7,8.2 4.4,11.2 0.9,0.9 1.8,1.7 2.6,2.6 l -68.3,68.3 c -16.4,-12.7 -37,-20.3 -59.3,-20.3 -22.7,0 -43.5,7.8 -60,20.9 l -68.3,-68.3 c 0.7,-0.7 1.3,-1.3 2,-2 2.7,-2.9 4.4,-6.9 4.4,-11.2 0,-9.1 -7.4,-16.5 -16.5,-16.5 -9.1,0 -16.5,7.4 -16.5,16.5 0,1.9 0.3,3.7 0.9,5.4 -1.7,-0.6 -3.5,-0.9 -5.4,-0.9 -9.1,0 -16.5,7.4 -16.5,16.5 0,9.1 7.4,16.5 16.5,16.5 4.3,0 8.2,-1.7 11.2,-4.4 0.9,-0.9 1.7,-1.8 2.6,-2.6 l 68.5,68.5 c -12.5,16.2 -19.7,36.4 -19.7,58.4 0,22.3 7.6,42.9 20.3,59.3 l -69.3,69.3 c -0.5,-0.5 -0.9,-0.9 -1.4,-1.4 -2.9,-2.7 -6.9,-4.4 -11.2,-4.4 -9.1,0 -16.5,7.4 -16.5,16.5 0,9.1 7.4,16.5 16.5,16.5 1.9,0 3.7,-0.3 5.4,-0.9 -0.6,1.7 -0.9,3.5 -0.9,5.4 0,9.1 7.4,16.5 16.5,16.5 9.1,0 16.5,-7.4 16.5,-16.5 0,-4.3 -1.7,-8.2 -4.4,-11.2 -1.1,-1.1 -2.1,-2.2 -3.2,-3.2 l 69.3,-69.3 c 16.3,12.6 36.8,20.1 59.1,20.1 21.9,0 42.1,-7.3 58.3,-19.6 l 69.3,69.3 c -0.5,0.5 -0.9,0.9 -1.4,1.4 -2.7,2.9 -4.4,6.9 -4.4,11.2 0,9.1 7.4,16.5 16.5,16.5 9.1,0 16.5,-7.4 16.5,-16.5 0,-1.9 -0.3,-3.7 -0.9,-5.4 1.7,0.6 3.5,0.9 5.4,0.9 9.1,0 16.5,-7.4 16.5,-16.5 0,-9.1 -7.4,-16.5 -16.5,-16.5 -4.3,0 -8.2,1.7 -11.2,4.4 -1.1,1.1 -2.2,2.1 -3.2,3.2 l -69.1,-69.1 c 13.1,-16.5 20.9,-37.3 20.9,-60 0,-22.3 -7.5,-42.7 -20.2,-59.1 l 68.3,-68.3 c 0.7,0.7 1.3,1.3 2,2 2.9,2.7 6.9,4.4 11.2,4.4 9.1,0 16.5,-7.4 16.5,-16.5 0,-9.1 -7.4,-16.5 -16.5,-16.5 -1.9,0 -3.7,0.3 -5.4,0.9 0.6,-1.7 0.9,-3.5 0.9,-5.4 0.2,-9.2 -7.2,-16.6 -16.3,-16.6 z"
         class="st0"
         id="os" /><g
         id="dents" /><path
         id="crane"
         style="fill:#ffffff;fill-opacity:0.67083333;stroke:#000000"
         d="M 95,297 C 39.8,297 -5,341.8 -5,397 -5,452.2 39.8,497 95,497 150.2,497 195,452.2 195,397 195,341.8 150.2,297 95,297 Z M 67.3,493 c -0.7,-0.2 -1.4,-0.3 -2.1,-0.5 -3.1,-1 -6.2,-2.1 -9.2,-3.3 -0.3,-0.1 -0.5,-0.3 -0.8,-0.4 l -4.4,25.1 c 2.3,0.9 4.6,1.8 7,2.5 2.1,0.7 4.4,1.1 6.6,1.7 z m 0,0 -2.9,25 c 1.8,0.5 3.6,1 5.4,1.4 3.7,0.8 7.5,1.3 11.3,1.7 l 1.8,-25 c -2.7,-0.3 -5.5,-0.7 -8.1,-1.2 -2.5,-0.5 -5,-1.2 -7.5,-1.9 z m 13.8,28.2 c 0.4,0 0.7,0.1 1.1,0.2 4.2,0.4 8.5,0.7 12.8,0.7 2.6,0 5.1,-0.2 7.7,-0.4 L 101,496.8 c -2,0.1 -4,0.3 -6,0.3 -3.5,0 -6.9,-0.2 -10.2,-0.5 -0.6,-0.1 -1.2,-0.2 -1.8,-0.3 z m 19.9,-24.5 1.7,24.9 c 1.7,-0.1 3.4,-0.1 5.1,-0.3 4.2,-0.4 8.3,-1.1 12.3,-1.9 l -3.1,-25 c -0.6,0.1 -1.2,0.3 -1.8,0.5 -3.3,0.7 -6.6,1.2 -9.9,1.5 -1.5,0.2 -2.9,0.2 -4.3,0.3 z m 16,-2.2 3.1,25 c 0,0 0.1,0 0.1,0 4.1,-0.8 8.1,-1.9 12,-3.1 1.4,-0.4 2.8,-1 4.2,-1.5 l -4.4,-25 c -2.4,0.9 -4.8,1.9 -7.2,2.6 -2.6,0.8 -5.2,1.4 -7.8,2 z m -52.6,23.6 c -2.2,-0.6 -4.4,-1 -6.6,-1.7 -2.4,-0.7 -4.7,-1.7 -7,-2.5 l -0.5,2.9 c -0.8,3.3 -1.2,6.7 -1.2,10.3 0,4.8 1,9.2 2.3,13.5 3.3,1 6.7,1.8 10,2.6 z m 0,0 -2.9,25 c 1.1,0.3 2.2,0.6 3.3,0.8 4.8,1 9.6,1.7 14.5,2.2 l 1.8,-25 c -3.8,-0.4 -7.6,-1 -11.3,-1.7 -1.8,-0.3 -3.6,-0.9 -5.4,-1.3 z m 14.9,28.1 c 0.1,0 0.2,0.1 0.3,0.1 5,0.5 10.2,0.8 15.3,0.8 3.1,0 6.2,-0.3 9.3,-0.5 l -1.6,-24.9 c -2.5,0.2 -5.1,0.4 -7.7,0.4 -4.3,0 -8.6,-0.2 -12.8,-0.7 -0.4,0 -0.7,-0.1 -1.1,-0.2 z m 23.4,-24.6 1.6,24.9 c 2,-0.1 4.1,-0.1 6.1,-0.3 4.3,-0.4 8.6,-1.2 12.8,-2 l -3.1,-24.8 c -4,0.8 -8.1,1.5 -12.3,1.9 -1.7,0.2 -3.4,0.2 -5.1,0.3 z m 17.4,-2.1 3.1,24.8 c 0.7,-0.1 1.4,-0.2 2.1,-0.3 3.4,-0.7 6.7,-1.7 10.1,-2.6 1.6,-4.5 2.6,-9.3 2.6,-14.3 0,-3.1 -0.3,-6.2 -1,-9.2 l -0.5,-3 c -1.4,0.5 -2.8,1.1 -4.2,1.5 -4.1,1.2 -8,2.2 -12.2,3.1 0.1,0 0,0 0,0 z m -68.6,21 c 5.7,17.8 22.3,30.8 42,30.8 19.5,0 35.8,-12.6 41.8,-30 -3.3,0.9 -6.6,1.9 -10.1,2.6 -4.9,1 -9.8,1.8 -14.9,2.3 -5.1,0.5 -10.1,0.8 -15.3,0.8 -5.2,0 -10.3,-0.3 -15.3,-0.8 -5,-0.5 -10,-1.3 -14.9,-2.3 -4.5,-0.9 -9,-2 -13.3,-3.4 z"
         inkscape:connector-curvature="0" /></g><g
       transform="matrix(1.1994921,0,0,1.157882,-171.24113,473.85452)"
       id="g3699"
       style="opacity:0.40900005"><path
         style="fill:#d3d19f;fill-opacity:1;stroke:#000000"
         inkscape:connector-curvature="0"
         d="m 95,297 c -44.7,0 -82.5,29.3 -95.3,69.8 -35.6,4.2 -58.4,10.6 -58.4,17.8 0,6.9 20.9,13.1 53.9,17.3 0,0 0.1,0 0.1,0 0,-0.3 -0.1,-0.5 -0.1,-0.8 -0.1,-1.4 -0.2,-2.7 -0.2,-4.1 0,-2.6 0.1,-5.1 0.3,-7.6 0.2,-2.5 0.5,-5 0.9,-7.4 4,-0.8 8.2,-1.5 13,-2.1 5.6,-0.8 11.7,-1.4 18.2,-2 6.5,-0.6 13.5,-1.1 20.9,-1.5 7.4,-0.4 15.1,-0.7 23.1,-1 8,-0.3 16.3,-0.3 24.8,-0.3 8.5,0 16.8,0.1 24.8,0.3 8,0.2 15.8,0.5 23.1,1 7.3,0.5 14.4,0.9 20.9,1.5 6.5,0.6 12.7,1.3 18.3,2 3.8,0.5 7,1.1 10.3,1.7 0.4,2.5 0.7,5.1 0.9,7.7 0.2,2.6 0.4,5.2 0.4,7.8 0,1.5 -0.2,3 -0.3,4.5 0,0.2 0,0.3 0,0.5 0,0 0.1,0 0.1,0 33.5,-4.2 54.7,-10.4 54.7,-17.4 0,-7.3 -23.2,-13.7 -59.3,-17.9 C 177.5,326.3 139.7,297 95,297 Z"
         class="st3"
         id="path2828" /><path
         style="fill:#c77c7c;fill-opacity:1;stroke:#000000"
         inkscape:connector-curvature="0"
         d="m 184.3,352 c -5.7,-0.6 -11.1,-1.4 -17.2,-1.9 -11,-1 -22.6,-1.7 -34.6,-2.2 -12,-0.5 -24.4,-0.8 -37.1,-0.8 -12.7,0 -25.1,0.3 -37.1,0.8 -12,0.5 -23.5,1.2 -34.5,2.2 -6.4,0.6 -12.2,1.3 -18.2,2 -2.4,4.7 -4.4,9.6 -6,14.8 7.2,-0.7 9.6,-0.9 9.6,-0.9 0,0 16.9,-1.5 26.2,-2.1 9.3,-0.6 18.9,-1 28.9,-1.3 10,-0.3 20.4,-0.5 31.1,-0.5 10.7,0 21,0.2 31.1,0.5 10.1,0.3 19.7,0.7 28.9,1.3 9.2,0.6 17.5,1.3 26.2,2.1 2.9,0.2 3.1,0.4 8.8,0.8 -1.7,-5.2 -3.7,-10.1 -6.1,-14.8 z"
         class="st4"
         id="path3697" /></g><g
       transform="matrix(1.1994921,0,0,1.157882,-171.24113,473.85452)"
       id="g28"
       style="opacity:0.40900005"><circle
         style="fill:#231f20;stroke:#000000"
         id="circle26"
         r="30"
         cy="426"
         cx="50"
         class="st5" /></g><g
       transform="matrix(1.1994921,0,0,1.157882,-171.24113,473.85452)"
       id="g32"
       style="opacity:0.40900005"><circle
         style="fill:#231f20;stroke:#000000"
         id="circle30"
         r="30"
         cy="426"
         cx="137"
         class="st5" /></g><g
       transform="matrix(1.1994921,0,0,1.157882,-171.24113,473.85452)"
       id="g36"
       style="opacity:0.40900005"><circle
         style="fill:#231f20;stroke:#000000"
         id="circle34"
         r="15"
         cy="464"
         cx="95"
         class="st5" /></g></g></svg>