<?xml version="1.0" encoding="UTF-8" standalone="no"?>
<!-- Created with Inkscape (http://www.inkscape.org/) -->

<svg
   xmlns:dc="http://purl.org/dc/elements/1.1/"
   xmlns:cc="http://creativecommons.org/ns#"
   xmlns:rdf="http://www.w3.org/1999/02/22-rdf-syntax-ns#"
   xmlns:svg="http://www.w3.org/2000/svg"
   xmlns="http://www.w3.org/2000/svg"
   xmlns:sodipodi="http://sodipodi.sourceforge.net/DTD/sodipodi-0.dtd"
   xmlns:inkscape="http://www.inkscape.org/namespaces/inkscape"
   width="1920"
   height="1080"
   id="svg2"
   version="1.1"
   inkscape:version="0.48.5 r10040"
   sodipodi:docname="Regular-by-ilnanny.svg"
   inkscape:export-filename="C:\Users\Cristian\Desktop\wallpaper-1280x1024.png"
   inkscape:export-xdpi="180"
   inkscape:export-ydpi="180">
  <sodipodi:namedview
     id="base"
     pagecolor="#ffffff"
     bordercolor="#666666"
     borderopacity="1.0"
     inkscape:pageopacity="0.0"
     inkscape:pageshadow="2"
     inkscape:zoom="0.85209997"
     inkscape:cx="1002.0581"
     inkscape:cy="1265.8873"
     inkscape:document-units="px"
     inkscape:current-layer="g3908"
     showgrid="false"
     inkscape:window-width="1280"
     inkscape:window-height="962"
     inkscape:window-x="-8"
     inkscape:window-y="-8"
     inkscape:window-maximized="1" />
  <defs
     id="defs4">
    <mask
       id="mask4532"
       maskUnits="userSpaceOnUse">
      <rect
         transform="matrix(0.99427142,-0.10688471,0.10688471,0.99427142,0,0)"
         y="894.16785"
         x="-150.83351"
         height="141.1689"
         width="2004.0449"
         id="rect4534"
         style="fill:#ff81f1;fill-opacity:1;stroke:none" />
    </mask>
  </defs>
  <metadata
     id="metadata7">
    <rdf:RDF>
      <cc:Work
         rdf:about="">
        <dc:format>image/svg+xml</dc:format>
        <dc:type
           rdf:resource="http://purl.org/dc/dcmitype/StillImage" />
        <dc:title />
      </cc:Work>
    </rdf:RDF>
  </metadata>
  <g
     style="display:inline"
     inkscape:label="Livello"
     id="layer2"
     inkscape:groupmode="layer">
    <g
       transform="matrix(0.66677516,0,0,0.94828534,-0.10415568,55.851832)"
       style="stroke:none"
       id="g3776">
      <g
         id="g3777"
         transform="matrix(1.5,0,0,1.0546875,-0.07810405,-59.0625)">
        <rect
           y="0.28143311"
           x="0.28143623"
           height="1079.4371"
           width="1919.4371"
           id="rect3770"
           style="fill:#b3defd;fill-opacity:1;stroke:none" />
        <path
           inkscape:connector-curvature="0"
           id="rect3767"
           d="m 0.1562078,0.15625 0,50.03125 1919.6875922,204.71875 0,-254.75 -1919.6875922,0 z"
           style="fill:#aed7ff;fill-opacity:1;stroke:none" />
        <path
           inkscape:connector-curvature="0"
           id="rect4536"
           d="M 1919.7188,697.94087 0.28121093,907.1799 l 0,123.6013 L 1919.7188,821.51561 l 0,-123.57474 z"
           style="fill:#ff90f0;fill-opacity:1;stroke:none" />
        <path
           style="fill:#a10a5c;fill-opacity:1;stroke:none"
           d="m 0.15620624,1080 0,-60.9036 L 1919.8438,769.8896 l 0,310.1104 -1919.68759376,0 z"
           id="path3772"
           inkscape:connector-curvature="0" />
        <rect
           style="fill:#b3defd;fill-opacity:1;stroke:none"
           id="rect3756"
           width="1919.4371"
           height="1079.4371"
           x="0.28143623"
           y="0.28143311" />
        <path
           style="fill:#aed7ff;fill-opacity:1;stroke:none"
           d="m 0.1562078,0.15625 0,50.03125 1919.6875922,204.71875 0,-254.75 -1919.6875922,0 z"
           id="path3758"
           inkscape:connector-curvature="0" />
        <path
           style="fill:#ff90f0;fill-opacity:1;stroke:none"
           d="M 1919.7188,697.94087 0.28121093,907.1799 l 0,123.6013 L 1919.7188,821.51561 l 0,-123.57474 z"
           id="path3760"
           inkscape:connector-curvature="0" />
        <path
           inkscape:connector-curvature="0"
           id="path3762"
           d="m 0.15620624,1080 0,-60.9036 L 1919.8438,769.8896 l 0,310.1104 -1919.68759376,0 z"
           style="fill:#a10a5c;fill-opacity:1;stroke:none" />
        <rect
           y="0.28143311"
           x="0.28143623"
           height="1079.4371"
           width="1919.4371"
           id="rect3764"
           style="fill:#b3defd;fill-opacity:1;stroke:none" />
        <path
           inkscape:connector-curvature="0"
           id="path3766"
           d="m 0.1562078,0.15625 0,50.03125 1919.6875922,204.71875 0,-254.75 -1919.6875922,0 z"
           style="fill:#aed7ff;fill-opacity:1;stroke:none" />
        <path
           inkscape:connector-curvature="0"
           id="path3768"
           d="M 1919.7188,697.94087 0.28121093,907.1799 l 0,123.6013 L 1919.7188,821.51561 l 0,-123.57474 z"
           style="fill:#ff90f0;fill-opacity:1;stroke:none" />
        <path
           style="fill:#a10a5c;fill-opacity:1;stroke:none"
           d="m 0.15620624,1080 0,-60.9036 L 1919.8438,769.8896 l 0,310.1104 -1919.68759376,0 z"
           id="path3770"
           inkscape:connector-curvature="0" />
        <rect
           style="fill:#b3defd;fill-opacity:1;stroke:none"
           id="rect3772"
           width="1919.4371"
           height="1079.4371"
           x="0.28143623"
           y="0.28143311" />
        <path
           style="fill:#aed7ff;fill-opacity:1;stroke:none"
           d="m 0.1562078,0.15625 0,50.03125 1919.6875922,204.71875 0,-254.75 -1919.6875922,0 z"
           id="path3774"
           inkscape:connector-curvature="0" />
        <path
           style="fill:#ff90f0;fill-opacity:1;stroke:none"
           d="M 1919.7188,697.94087 0.28121093,907.1799 l 0,123.6013 L 1919.7188,821.51561 l 0,-123.57474 z"
           id="path3776"
           inkscape:connector-curvature="0" />
        <path
           inkscape:connector-curvature="0"
           id="path3778"
           d="m 0.15620624,1080 0,-60.9036 L 1919.8438,769.8896 l 0,310.1104 -1919.68759376,0 z"
           style="fill:#a10a5c;fill-opacity:1;stroke:none" />
        <rect
           y="0.28143311"
           x="0.28143623"
           height="1079.4371"
           width="1919.4371"
           id="rect3780"
           style="fill:#b3defd;fill-opacity:1;stroke:none" />
        <path
           inkscape:connector-curvature="0"
           id="path3782"
           d="m 0.1562078,0.15625 0,50.03125 1919.6875922,204.71875 0,-254.75 -1919.6875922,0 z"
           style="fill:#aed7ff;fill-opacity:1;stroke:none" />
        <path
           inkscape:connector-curvature="0"
           id="path3784"
           d="M 1919.7188,697.94087 0.28121093,907.1799 l 0,123.6013 L 1919.7188,821.51561 l 0,-123.57474 z"
           style="fill:#ff90f0;fill-opacity:1;stroke:none" />
        <path
           style="fill:#a10a5c;fill-opacity:1;stroke:none"
           d="m 0.15620624,1080 0,-60.9036 L 1919.8438,769.8896 l 0,310.1104 -1919.68759376,0 z"
           id="path3786"
           inkscape:connector-curvature="0" />
        <rect
           style="fill:#b3defd;fill-opacity:1;stroke:none"
           id="rect3788"
           width="1919.4371"
           height="1079.4371"
           x="0.28143623"
           y="0.28143311" />
        <path
           style="fill:#aed7ff;fill-opacity:1;stroke:none"
           d="m 0.1562078,0.15625 0,50.03125 1919.6875922,204.71875 0,-254.75 -1919.6875922,0 z"
           id="path3790"
           inkscape:connector-curvature="0" />
        <path
           style="fill:#ff90f0;fill-opacity:1;stroke:none"
           d="M 1919.7188,697.94087 0.28121093,907.1799 l 0,123.6013 L 1919.7188,821.51561 l 0,-123.57474 z"
           id="path3792"
           inkscape:connector-curvature="0" />
        <path
           inkscape:connector-curvature="0"
           id="path3794"
           d="m 0.15620624,1080 0,-60.9036 L 1919.8438,769.8896 l 0,310.1104 -1919.68759376,0 z"
           style="fill:#a10a5c;fill-opacity:1;stroke:none" />
      </g>
      <g
         id="g3908"
         transform="translate(-1040.8318,-1163.3686)">
        <g
           id="text3803"
           style="font-size:54.05073166px;font-style:normal;font-variant:normal;font-weight:normal;font-stretch:normal;line-height:125%;letter-spacing:0px;word-spacing:0px;fill:#3a3a3a;fill-opacity:1;stroke:none;font-family:Pristina;-inkscape-font-specification:Pristina"
           transform="matrix(1.1925588,0,0,0.83853307,1040.8318,572.08886)">
          <path
             inkscape:connector-curvature="0"
             id="path3808"
             style="fill:#3a3a3a;fill-opacity:1;stroke:none;font-family:Arial Rounded MT Bold;-inkscape-font-specification:Arial Rounded MT Bold"
             d="m 909.58892,611.65982 -2.74476,0 0,12.43061 c -2e-5,1.63631 -0.36071,2.84154 -1.08207,3.6157 -0.72139,0.77417 -1.66271,1.16125 -2.82394,1.16125 -1.24923,0 -2.21693,-0.40468 -2.90312,-1.21403 -0.68619,-0.80935 -1.02929,-1.99699 -1.02929,-3.56292 l 0,-29.77012 c 0,-1.68905 0.37829,-2.91188 1.13486,-3.66849 0.75656,-0.75653 1.97939,-1.13481 3.66848,-1.13485 l 12.74732,0 c 1.75944,4e-5 3.26378,0.0748 4.51302,0.22433 1.24919,0.14959 2.37525,0.4531 3.37817,0.91052 1.214,0.51028 2.28727,1.24046 3.21982,2.19054 0.93248,0.95014 1.64067,2.0542 2.12455,3.31219 0.48382,1.25804 0.72575,2.59084 0.72578,3.99838 -3e-5,2.88554 -0.81378,5.19044 -2.44125,6.91469 -1.62754,1.7243 -4.09518,2.94712 -7.40295,3.66848 1.38995,0.739 2.71835,1.82986 3.98519,3.27261 1.26678,1.44277 2.39724,2.9779 3.39137,4.60539 0.99406,1.62752 1.76822,3.09667 2.32249,4.40746 0.55419,1.31081 0.83131,2.21253 0.83134,2.70518 -3e-5,0.51024 -0.16278,1.01609 -0.48825,1.51753 -0.32553,0.50145 -0.7698,0.89733 -1.33279,1.18764 -0.56306,0.29031 -1.21406,0.43547 -1.95301,0.43547 -0.87976,0 -1.61873,-0.20674 -2.21692,-0.62021 -0.59825,-0.41348 -1.11289,-0.93692 -1.54393,-1.57032 -0.4311,-0.63341 -1.01612,-1.56592 -1.75506,-2.79755 l -3.14065,-5.22561 c -1.12608,-1.9178 -2.13337,-3.37816 -3.02188,-4.38106 -0.88855,-1.00288 -1.79027,-1.68907 -2.70517,-2.05858 -0.91494,-0.36947 -2.06739,-0.55421 -3.45735,-0.55423 z m 4.48663,-16.25744 -7.23139,0 0,10.63596 7.02026,0 c 1.8826,2e-5 3.46612,-0.16273 4.75055,-0.48826 1.28438,-0.32547 2.26528,-0.8797 2.9427,-1.66269 0.67737,-0.78294 1.01607,-1.86061 1.01609,-3.23301 -2e-5,-1.07325 -0.27274,-2.01896 -0.81815,-2.83714 -0.54546,-0.81812 -1.30203,-1.42953 -2.26971,-1.83424 -0.91494,-0.38705 -2.71839,-0.58059 -5.41035,-0.58062 z" />
          <path
             inkscape:connector-curvature="0"
             id="path3810"
             style="fill:#3a3a3a;fill-opacity:1;stroke:none;font-family:Arial Rounded MT Bold;-inkscape-font-specification:Arial Rounded MT Bold"
             d="m 963.40213,595.56073 -17.65622,0 0,9.5011 16.25744,0 c 1.19641,3e-5 2.08933,0.26834 2.67879,0.80496 0.58938,0.53666 0.88409,1.24484 0.88413,2.12455 -4e-5,0.87975 -0.29035,1.59673 -0.87094,2.15094 -0.58065,0.55425 -1.47798,0.83137 -2.69198,0.83135 l -16.25744,0 0,11.00545 18.26323,0 c 1.23159,0 2.15971,0.28592 2.78435,0.85774 0.62458,0.57183 0.93688,1.33279 0.93692,2.2829 -4e-5,0.91492 -0.31234,1.6583 -0.93692,2.23012 -0.62464,0.57183 -1.55276,0.85774 -2.78435,0.85774 l -21.29831,0 c -1.70669,0 -2.93391,-0.37828 -3.68168,-1.13485 -0.74777,-0.75657 -1.12166,-1.9794 -1.12166,-3.66849 l 0,-29.08393 c 0,-1.12603 0.16715,-2.04535 0.50145,-2.75796 0.33429,-0.71255 0.85773,-1.23159 1.57032,-1.55713 0.71258,-0.32546 1.6231,-0.48821 2.73157,-0.48825 l 20.6913,0 c 1.24918,4e-5 2.1773,0.27715 2.78435,0.83135 0.60698,0.55426 0.91049,1.28004 0.91052,2.17733 -3e-5,0.91496 -0.30354,1.64953 -0.91052,2.20373 -0.60705,0.55426 -1.53517,0.83138 -2.78435,0.83135 z" />
          <path
             inkscape:connector-curvature="0"
             id="path3812"
             style="fill:#3a3a3a;fill-opacity:1;stroke:none;font-family:Arial Rounded MT Bold;-inkscape-font-specification:Arial Rounded MT Bold"
             d="m 1009.3505,612.47797 0,7.41614 c 0,0.98531 -0.097,1.77267 -0.2903,2.36208 -0.1936,0.58943 -0.5499,1.12167 -1.0689,1.59672 -0.519,0.47506 -1.1832,0.93252 -1.9926,1.37238 -2.3401,1.26681 -4.5922,2.19053 -6.7563,2.77115 -2.16416,0.58063 -4.52184,0.87094 -7.07304,0.87094 -2.97351,0 -5.68309,-0.45746 -8.12872,-1.37238 -2.44567,-0.91492 -4.53063,-2.24332 -6.2549,-3.98519 -1.72428,-1.74186 -3.04827,-3.85322 -3.97199,-6.33407 -0.92372,-2.48083 -1.38558,-5.25198 -1.38558,-8.31347 0,-3.00866 0.44866,-5.76221 1.34599,-8.26068 0.89733,-2.49841 2.21692,-4.61856 3.9588,-6.36046 1.74186,-1.74183 3.86201,-3.07463 6.36046,-3.99838 2.49842,-0.92368 5.33116,-1.38554 8.49821,-1.38558 2.60398,4e-5 4.90888,0.34753 6.91469,1.04248 2.00578,0.69503 3.63328,1.57036 4.88248,2.626 1.2492,1.05572 2.1905,2.17297 2.824,3.35178 0.6333,1.17887 0.95,2.22575 0.9501,3.14064 -1e-4,0.98533 -0.3651,1.82548 -1.0953,2.52044 -0.7302,0.69501 -1.6055,1.0425 -2.626,1.04248 -0.563,2e-5 -1.1041,-0.13194 -1.6231,-0.39588 -0.5191,-0.26389 -0.9545,-0.63338 -1.3064,-1.10846 -0.9677,-1.51311 -1.78587,-2.65676 -2.45444,-3.43096 -0.66862,-0.77413 -1.57035,-1.42513 -2.70517,-1.953 -1.13488,-0.52781 -2.58204,-0.79173 -4.34148,-0.79176 -1.81227,3e-5 -3.43098,0.31234 -4.85612,0.93691 -1.42518,0.62464 -2.64361,1.53077 -3.65529,2.71837 -1.0117,1.18767 -1.78587,2.64363 -2.32249,4.36787 -0.53665,1.7243 -0.80497,3.63332 -0.80496,5.72706 -1e-5,4.53943 1.04247,8.03196 3.12745,10.47761 2.08495,2.44566 4.99246,3.66848 8.72254,3.66848 1.81223,0 3.51451,-0.23752 5.10685,-0.71258 1.59228,-0.47505 3.20661,-1.15245 4.84291,-2.03218 l 0,-6.28129 -6.07014,0 c -1.46038,1e-5 -2.56444,-0.21992 -3.31219,-0.6598 -0.74779,-0.43985 -1.12168,-1.18762 -1.12166,-2.24332 -2e-5,-0.86212 0.31229,-1.5747 0.93692,-2.13775 0.62458,-0.563 1.47352,-0.84452 2.54682,-0.84454 l 8.89405,0 c 1.0909,2e-5 2.0146,0.0968 2.7712,0.29031 0.7565,0.19356 1.3679,0.62463 1.8342,1.29321 0.4663,0.66861 0.6994,1.67151 0.6994,3.00868 z" />
          <path
             inkscape:connector-curvature="0"
             id="path3814"
             style="fill:#3a3a3a;fill-opacity:1;stroke:none;font-family:Arial Rounded MT Bold;-inkscape-font-specification:Arial Rounded MT Bold"
             d="m 1016.925,612.21405 0,-18.60633 c 0,-1.58348 0.3563,-2.77112 1.0689,-3.56291 0.7126,-0.79172 1.6495,-1.1876 2.8107,-1.18764 1.2141,4e-5 2.1774,0.39592 2.89,1.18764 0.7125,0.79179 1.0688,1.97943 1.0688,3.56291 l 0,19.0286 c 0,2.16416 0.2419,3.97201 0.7258,5.42355 0.4838,1.45157 1.3416,2.57762 2.5732,3.37817 1.2316,0.80057 2.9559,1.20084 5.1728,1.20084 3.0615,0 5.2256,-0.81375 6.4925,-2.44126 1.2668,-1.62749 1.9002,-4.09514 1.9002,-7.40294 l 0,-19.18696 c 0,-1.60107 0.3519,-2.79311 1.0557,-3.57611 0.7037,-0.78292 1.645,-1.1744 2.8239,-1.17444 1.1788,4e-5 2.1333,0.39152 2.8635,1.17444 0.7302,0.783 1.0953,1.97504 1.0953,3.57611 l 0,18.60633 c 0,3.02629 -0.2947,5.55112 -0.8841,7.5745 -0.5895,2.02339 -1.7023,3.80044 -3.3386,5.33117 -1.4076,1.30201 -3.0439,2.25212 -4.9089,2.85033 -1.8651,0.59822 -4.0468,0.89733 -6.5452,0.89733 -2.9735,0 -5.5335,-0.3211 -7.6801,-0.96331 -2.1465,-0.6422 -3.8972,-1.6363 -5.252,-2.98229 -1.3548,-1.34598 -2.3489,-3.07026 -2.9823,-5.17282 -0.6334,-2.10255 -0.9501,-4.61418 -0.9501,-7.53491 z" />
          <path
             inkscape:connector-curvature="0"
             id="path3816"
             style="fill:#3a3a3a;fill-opacity:1;stroke:none;font-family:Arial Rounded MT Bold;-inkscape-font-specification:Arial Rounded MT Bold"
             d="m 1065.6182,593.60772 0,28.16022 15.8879,0 c 1.2668,1e-5 2.2389,0.30791 2.9164,0.92372 0.6773,0.61582 1.016,1.38998 1.016,2.32249 0,0.95012 -0.3343,1.71988 -1.0029,2.3093 -0.6686,0.58942 -1.6451,0.88413 -2.9295,0.88413 l -18.923,0 c -1.7067,0 -2.9339,-0.37828 -3.6817,-1.13485 -0.7477,-0.75657 -1.1216,-1.9794 -1.1216,-3.66849 l 0,-29.79652 c 0,-1.58348 0.3563,-2.77112 1.0688,-3.56291 0.7126,-0.79172 1.6495,-1.1876 2.8108,-1.18764 1.1788,4e-5 2.1333,0.39152 2.8635,1.17444 0.7302,0.783 1.0953,1.97504 1.0953,3.57611 z" />
          <path
             inkscape:connector-curvature="0"
             id="path3818"
             style="fill:#3a3a3a;fill-opacity:1;stroke:none;font-family:Arial Rounded MT Bold;-inkscape-font-specification:Arial Rounded MT Bold"
             d="m 1115.3142,623.82652 -1.8474,-4.85613 -15.7296,0 -1.8474,4.96169 c -0.7214,1.93542 -1.3372,3.24182 -1.8475,3.91921 -0.5102,0.67739 -1.346,1.01609 -2.5072,1.01609 -0.9853,0 -1.8562,-0.36069 -2.6128,-1.08207 -0.7566,-0.72138 -1.1349,-1.53953 -1.1349,-2.45445 0,-0.52784 0.088,-1.07327 0.264,-1.6363 0.1759,-0.56303 0.4662,-1.34599 0.8709,-2.34889 l 9.897,-25.12514 c 0.2815,-0.72135 0.6202,-1.58789 1.0161,-2.59961 0.3958,-1.01166 0.8181,-1.8518 1.2668,-2.52043 0.4486,-0.66856 1.038,-1.2096 1.7682,-1.62311 0.7302,-0.41343 1.6319,-0.62017 2.7052,-0.62021 1.0909,4e-5 2.0014,0.20678 2.7316,0.62021 0.7301,0.41351 1.3196,0.94575 1.7682,1.59671 0.4487,0.65104 0.827,1.35043 1.1349,2.09817 0.3079,0.7478 0.6994,1.7463 1.1744,2.99548 l 10.1082,24.9668 c 0.7917,1.90022 1.1876,3.2814 1.1876,4.14353 0,0.89733 -0.3739,1.71988 -1.1217,2.46765 -0.7478,0.74777 -1.6495,1.12166 -2.7051,1.12166 -0.6159,0 -1.1437,-0.10997 -1.5836,-0.3299 -0.4399,-0.21993 -0.8093,-0.51904 -1.1084,-0.89733 -0.2992,-0.37828 -0.6203,-0.9589 -0.9633,-1.74187 -0.3431,-0.78295 -0.6379,-1.47354 -0.8842,-2.07176 z m -15.5184,-10.74153 11.5597,0 -5.8327,-15.96714 z" />
          <path
             inkscape:connector-curvature="0"
             id="path3820"
             style="fill:#3a3a3a;fill-opacity:1;stroke:none;font-family:Arial Rounded MT Bold;-inkscape-font-specification:Arial Rounded MT Bold"
             d="m 1139.9379,611.65982 -2.7447,0 0,12.43061 c 0,1.63631 -0.3607,2.84154 -1.0821,3.6157 -0.7214,0.77417 -1.6627,1.16125 -2.8239,1.16125 -1.2493,0 -2.217,-0.40468 -2.9032,-1.21403 -0.6861,-0.80935 -1.0292,-1.99699 -1.0292,-3.56292 l 0,-29.77012 c 0,-1.68905 0.3782,-2.91188 1.1348,-3.66849 0.7566,-0.75653 1.9794,-1.13481 3.6685,-1.13485 l 12.7473,0 c 1.7595,4e-5 3.2638,0.0748 4.513,0.22433 1.2492,0.14959 2.3753,0.4531 3.3782,0.91052 1.214,0.51028 2.2873,1.24046 3.2198,2.19054 0.9325,0.95014 1.6407,2.0542 2.1246,3.31219 0.4838,1.25804 0.7257,2.59084 0.7258,3.99838 -10e-5,2.88554 -0.8138,5.19044 -2.4413,6.91469 -1.6275,1.7243 -4.0952,2.94712 -7.4029,3.66848 1.3899,0.739 2.7183,1.82986 3.9851,3.27261 1.2668,1.44277 2.3973,2.9779 3.3914,4.60539 0.9941,1.62752 1.7682,3.09667 2.3225,4.40746 0.5542,1.31081 0.8313,2.21253 0.8313,2.70518 0,0.51024 -0.1627,1.01609 -0.4882,1.51753 -0.3255,0.50145 -0.7698,0.89733 -1.3328,1.18764 -0.5631,0.29031 -1.2141,0.43547 -1.953,0.43547 -0.8798,0 -1.6187,-0.20674 -2.2169,-0.62021 -0.5983,-0.41348 -1.1129,-0.93692 -1.544,-1.57032 -0.4311,-0.63341 -1.0161,-1.56592 -1.755,-2.79755 l -3.1407,-5.22561 c -1.126,-1.9178 -2.1333,-3.37816 -3.0218,-4.38106 -0.8886,-1.00288 -1.7903,-1.68907 -2.7052,-2.05858 -0.915,-0.36947 -2.0674,-0.55421 -3.4574,-0.55423 z m 4.4867,-16.25744 -7.2314,0 0,10.63596 7.0202,0 c 1.8826,2e-5 3.4662,-0.16273 4.7506,-0.48826 1.2844,-0.32547 2.2653,-0.8797 2.9427,-1.66269 0.6774,-0.78294 1.0161,-1.86061 1.0161,-3.23301 0,-1.07325 -0.2728,-2.01896 -0.8182,-2.83714 -0.5454,-0.81812 -1.302,-1.42953 -2.2697,-1.83424 -0.9149,-0.38705 -2.7184,-0.58059 -5.4103,-0.58062 z" />
          <path
             inkscape:connector-curvature="0"
             id="path3822"
             style="fill:#3a3a3a;fill-opacity:1;stroke:none;font-family:Arial Rounded MT Bold;-inkscape-font-specification:Arial Rounded MT Bold"
             d="m 1209.164,622.11104 -6.2548,-23.19853 -6.3341,23.19853 c -0.4927,1.75947 -0.8842,3.02188 -1.1745,3.78724 -0.2903,0.76537 -0.7961,1.45156 -1.5175,2.05858 -0.7214,0.60701 -1.6803,0.91052 -2.8767,0.91052 -0.9677,0 -1.7639,-0.18035 -2.3885,-0.54104 -0.6246,-0.36069 -1.1305,-0.87093 -1.5175,-1.53073 -0.3871,-0.6598 -0.7038,-1.44276 -0.9501,-2.34888 -0.2464,-0.90612 -0.4663,-1.74627 -0.6598,-2.52044 l -6.4397,-26.04886 c -0.3871,-1.5131 -0.5806,-2.66555 -0.5806,-3.45735 0,-1.00285 0.3519,-1.8474 1.0557,-2.53362 0.7038,-0.68616 1.5747,-1.02925 2.6128,-1.02929 1.4251,4e-5 2.384,0.4575 2.8767,1.37238 0.4926,0.91496 0.9237,2.24335 1.2932,3.98519 l 5.0673,22.59151 5.6742,-21.13995 c 0.4223,-1.61868 0.8006,-2.8503 1.1349,-3.69488 0.3343,-0.8445 0.8797,-1.57468 1.6363,-2.19053 0.7565,-0.61577 1.7858,-0.92368 3.0879,-0.92372 1.3195,4e-5 2.3444,0.32114 3.0746,0.96331 0.7302,0.64224 1.236,1.34162 1.5176,2.09816 0.2814,0.7566 0.6597,2.00582 1.1348,3.74766 l 5.7271,21.13995 5.0672,-22.59151 c 0.2463,-1.17881 0.4794,-2.10253 0.6994,-2.77116 0.2199,-0.66856 0.5982,-1.26677 1.1349,-1.79465 0.5366,-0.5278 1.3151,-0.79172 2.3356,-0.79176 1.0205,4e-5 1.887,0.33874 2.5997,1.01609 0.7125,0.67743 1.0688,1.52637 1.0688,2.54682 0,0.72142 -0.1936,1.87387 -0.5806,3.45735 l -6.4396,26.04886 c -0.4399,1.75947 -0.805,3.04828 -1.0953,3.86643 -0.2904,0.81815 -0.783,1.53513 -1.4779,2.15094 -0.6951,0.61581 -1.676,0.92372 -2.9428,0.92372 -1.1964,0 -2.1553,-0.29911 -2.8767,-0.89733 -0.7214,-0.59821 -1.2228,-1.27121 -1.5043,-2.01898 -0.2816,-0.74777 -0.6774,-2.02778 -1.1877,-3.84003 z" />
          <path
             inkscape:connector-curvature="0"
             id="path3824"
             style="fill:#3a3a3a;fill-opacity:1;stroke:none;font-family:Arial Rounded MT Bold;-inkscape-font-specification:Arial Rounded MT Bold"
             d="m 1257.1974,623.82652 -1.8474,-4.85613 -15.7296,0 -1.8475,4.96169 c -0.7213,1.93542 -1.3372,3.24182 -1.8474,3.91921 -0.5102,0.67739 -1.346,1.01609 -2.5072,1.01609 -0.9853,0 -1.8563,-0.36069 -2.6128,-1.08207 -0.7566,-0.72138 -1.1349,-1.53953 -1.1349,-2.45445 0,-0.52784 0.088,-1.07327 0.2639,-1.6363 0.176,-0.56303 0.4663,-1.34599 0.871,-2.34889 l 9.897,-25.12514 c 0.2815,-0.72135 0.6201,-1.58789 1.016,-2.59961 0.3959,-1.01166 0.8182,-1.8518 1.2669,-2.52043 0.4486,-0.66856 1.038,-1.2096 1.7682,-1.62311 0.7302,-0.41343 1.6319,-0.62017 2.7052,-0.62021 1.0908,4e-5 2.0014,0.20678 2.7316,0.62021 0.7301,0.41351 1.3195,0.94575 1.7682,1.59671 0.4487,0.65104 0.8269,1.35043 1.1349,2.09817 0.3079,0.7478 0.6993,1.7463 1.1744,2.99548 l 10.1081,24.9668 c 0.7918,1.90022 1.1876,3.2814 1.1877,4.14353 -10e-5,0.89733 -0.3739,1.71988 -1.1217,2.46765 -0.7478,0.74777 -1.6495,1.12166 -2.7052,1.12166 -0.6158,0 -1.1436,-0.10997 -1.5835,-0.3299 -0.4399,-0.21993 -0.8094,-0.51904 -1.1084,-0.89733 -0.2992,-0.37828 -0.6203,-0.9589 -0.9633,-1.74187 -0.3432,-0.78295 -0.6379,-1.47354 -0.8842,-2.07176 z m -15.5184,-10.74153 11.5596,0 -5.8326,-15.96714 z" />
          <path
             inkscape:connector-curvature="0"
             id="path3826"
             style="fill:#3a3a3a;fill-opacity:1;stroke:none;font-family:Arial Rounded MT Bold;-inkscape-font-specification:Arial Rounded MT Bold"
             d="m 1278.9708,593.60772 0,28.16022 15.8879,0 c 1.2668,1e-5 2.2389,0.30791 2.9163,0.92372 0.6774,0.61582 1.0161,1.38998 1.0161,2.32249 0,0.95012 -0.3343,1.71988 -1.0029,2.3093 -0.6686,0.58942 -1.6451,0.88413 -2.9295,0.88413 l -18.923,0 c -1.7067,0 -2.9339,-0.37828 -3.6817,-1.13485 -0.7478,-0.75657 -1.1216,-1.9794 -1.1216,-3.66849 l 0,-29.79652 c 0,-1.58348 0.3562,-2.77112 1.0688,-3.56291 0.7126,-0.79172 1.6495,-1.1876 2.8108,-1.18764 1.1788,4e-5 2.1333,0.39152 2.8635,1.17444 0.7302,0.783 1.0953,1.97504 1.0953,3.57611 z" />
          <path
             inkscape:connector-curvature="0"
             id="path3828"
             style="fill:#3a3a3a;fill-opacity:1;stroke:none;font-family:Arial Rounded MT Bold;-inkscape-font-specification:Arial Rounded MT Bold"
             d="m 1311.5912,593.60772 0,28.16022 15.888,0 c 1.2668,1e-5 2.2389,0.30791 2.9163,0.92372 0.6774,0.61582 1.0161,1.38998 1.0161,2.32249 0,0.95012 -0.3343,1.71988 -1.0029,2.3093 -0.6686,0.58942 -1.6451,0.88413 -2.9295,0.88413 l -18.923,0 c -1.7067,0 -2.9339,-0.37828 -3.6817,-1.13485 -0.7478,-0.75657 -1.1217,-1.9794 -1.1217,-3.66849 l 0,-29.79652 c 0,-1.58348 0.3563,-2.77112 1.0689,-3.56291 0.7126,-0.79172 1.6495,-1.1876 2.8108,-1.18764 1.1788,4e-5 2.1333,0.39152 2.8635,1.17444 0.7301,0.783 1.0952,1.97504 1.0952,3.57611 z" />
          <path
             inkscape:connector-curvature="0"
             id="path3830"
             style="fill:#3a3a3a;fill-opacity:1;stroke:none;font-family:Arial Rounded MT Bold;-inkscape-font-specification:Arial Rounded MT Bold"
             d="m 1351.5487,613.13777 -7.1786,0 0,10.95266 c -1e-4,1.56593 -0.3695,2.75357 -1.1085,3.56292 -0.739,0.80935 -1.6715,1.21403 -2.7976,1.21403 -1.1788,0 -2.1289,-0.40028 -2.8503,-1.20083 -0.7214,-0.80056 -1.0821,-1.975 -1.0821,-3.52333 l 0,-29.82291 c 0,-1.72424 0.3959,-2.95587 1.1877,-3.69488 0.7917,-0.73894 2.0497,-1.10842 3.774,-1.10846 l 10.0554,0 c 2.9734,4e-5 5.2607,0.22877 6.8619,0.68619 1.5835,0.4399 2.9514,1.17008 4.1039,2.19053 1.1524,1.02053 2.0278,2.26974 2.626,3.74766 0.5982,1.47798 0.8973,3.14067 0.8974,4.98808 -10e-5,3.94122 -1.2141,6.92791 -3.6421,8.96007 -2.4281,2.0322 -6.0438,3.04829 -10.8471,3.04827 z m -1.9003,-17.73539 -5.2783,0 0,11.82359 5.2783,0 c 1.8475,2e-5 3.3914,-0.19352 4.6318,-0.58062 1.2404,-0.38706 2.1861,-1.02047 2.8372,-1.90022 0.6509,-0.87971 0.9764,-2.03216 0.9765,-3.45735 -10e-5,-1.70665 -0.5015,-3.09662 -1.5044,-4.16993 -1.126,-1.14362 -3.4397,-1.71544 -6.9411,-1.71547 z" />
          <path
             inkscape:connector-curvature="0"
             id="path3832"
             style="fill:#3a3a3a;fill-opacity:1;stroke:none;font-family:Arial Rounded MT Bold;-inkscape-font-specification:Arial Rounded MT Bold"
             d="m 1397.3915,623.82652 -1.8474,-4.85613 -15.7297,0 -1.8474,4.96169 c -0.7214,1.93542 -1.3372,3.24182 -1.8474,3.91921 -0.5103,0.67739 -1.346,1.01609 -2.5073,1.01609 -0.9853,0 -1.8562,-0.36069 -2.6128,-1.08207 -0.7565,-0.72138 -1.1348,-1.53953 -1.1348,-2.45445 0,-0.52784 0.088,-1.07327 0.2639,-1.6363 0.1759,-0.56303 0.4662,-1.34599 0.8709,-2.34889 l 9.897,-25.12514 c 0.2815,-0.72135 0.6202,-1.58789 1.0161,-2.59961 0.3959,-1.01166 0.8181,-1.8518 1.2668,-2.52043 0.4487,-0.66856 1.0381,-1.2096 1.7683,-1.62311 0.7301,-0.41343 1.6319,-0.62017 2.7052,-0.62021 1.0908,4e-5 2.0013,0.20678 2.7315,0.62021 0.7302,0.41351 1.3196,0.94575 1.7683,1.59671 0.4486,0.65104 0.8269,1.35043 1.1348,2.09817 0.3079,0.7478 0.6994,1.7463 1.1745,2.99548 l 10.1081,24.9668 c 0.7917,1.90022 1.1876,3.2814 1.1876,4.14353 0,0.89733 -0.3739,1.71988 -1.1216,2.46765 -0.7478,0.74777 -1.6496,1.12166 -2.7052,1.12166 -0.6158,0 -1.1437,-0.10997 -1.5835,-0.3299 -0.4399,-0.21993 -0.8094,-0.51904 -1.1085,-0.89733 -0.2991,-0.37828 -0.6202,-0.9589 -0.9633,-1.74187 -0.3431,-0.78295 -0.6378,-1.47354 -0.8841,-2.07176 z m -15.5185,-10.74153 11.5597,0 -5.8326,-15.96714 z" />
          <path
             inkscape:connector-curvature="0"
             id="path3834"
             style="fill:#3a3a3a;fill-opacity:1;stroke:none;font-family:Arial Rounded MT Bold;-inkscape-font-specification:Arial Rounded MT Bold"
             d="m 1426.5018,613.13777 -7.1786,0 0,10.95266 c 0,1.56593 -0.3695,2.75357 -1.1085,3.56292 -0.7389,0.80935 -1.6715,1.21403 -2.7975,1.21403 -1.1788,0 -2.129,-0.40028 -2.8503,-1.20083 -0.7214,-0.80056 -1.0821,-1.975 -1.0821,-3.52333 l 0,-29.82291 c 0,-1.72424 0.3959,-2.95587 1.1876,-3.69488 0.7918,-0.73894 2.0498,-1.10842 3.7741,-1.10846 l 10.0553,0 c 2.9735,4e-5 5.2608,0.22877 6.8619,0.68619 1.5835,0.4399 2.9515,1.17008 4.104,2.19053 1.1524,1.02053 2.0277,2.26974 2.626,3.74766 0.5982,1.47798 0.8973,3.14067 0.8973,4.98808 0,3.94122 -1.2141,6.92791 -3.6421,8.96007 -2.4281,2.0322 -6.0438,3.04829 -10.8471,3.04827 z m -1.9002,-17.73539 -5.2784,0 0,11.82359 5.2784,0 c 1.8474,2e-5 3.3913,-0.19352 4.6318,-0.58062 1.2404,-0.38706 2.1861,-1.02047 2.8371,-1.90022 0.651,-0.87971 0.9765,-2.03216 0.9765,-3.45735 0,-1.70665 -0.5014,-3.09662 -1.5043,-4.16993 -1.1261,-1.14362 -3.4398,-1.71544 -6.9411,-1.71547 z" />
          <path
             inkscape:connector-curvature="0"
             id="path3836"
             style="fill:#3a3a3a;fill-opacity:1;stroke:none;font-family:Arial Rounded MT Bold;-inkscape-font-specification:Arial Rounded MT Bold"
             d="m 1473.0836,595.56073 -17.6562,0 0,9.5011 16.2574,0 c 1.1964,3e-5 2.0894,0.26834 2.6788,0.80496 0.5894,0.53666 0.8841,1.24484 0.8842,2.12455 -1e-4,0.87975 -0.2904,1.59673 -0.871,2.15094 -0.5806,0.55425 -1.478,0.83137 -2.692,0.83135 l -16.2574,0 0,11.00545 18.2632,0 c 1.2316,0 2.1597,0.28592 2.7844,0.85774 0.6246,0.57183 0.9369,1.33279 0.9369,2.2829 0,0.91492 -0.3123,1.6583 -0.9369,2.23012 -0.6247,0.57183 -1.5528,0.85774 -2.7844,0.85774 l -21.2983,0 c -1.7067,0 -2.9339,-0.37828 -3.6817,-1.13485 -0.7477,-0.75657 -1.1216,-1.9794 -1.1216,-3.66849 l 0,-29.08393 c 0,-1.12603 0.1671,-2.04535 0.5014,-2.75796 0.3343,-0.71255 0.8578,-1.23159 1.5704,-1.55713 0.7125,-0.32546 1.6231,-0.48821 2.7315,-0.48825 l 20.6913,0 c 1.2492,4e-5 2.1773,0.27715 2.7844,0.83135 0.607,0.55426 0.9105,1.28004 0.9105,2.17733 0,0.91496 -0.3035,1.64953 -0.9105,2.20373 -0.6071,0.55426 -1.5352,0.83138 -2.7844,0.83135 z" />
          <path
             inkscape:connector-curvature="0"
             id="path3838"
             style="fill:#3a3a3a;fill-opacity:1;stroke:none;font-family:Arial Rounded MT Bold;-inkscape-font-specification:Arial Rounded MT Bold"
             d="m 1494.2236,611.65982 -2.7448,0 0,12.43061 c 0,1.63631 -0.3607,2.84154 -1.0821,3.6157 -0.7214,0.77417 -1.6627,1.16125 -2.8239,1.16125 -1.2492,0 -2.2169,-0.40468 -2.9031,-1.21403 -0.6862,-0.80935 -1.0293,-1.99699 -1.0293,-3.56292 l 0,-29.77012 c 0,-1.68905 0.3783,-2.91188 1.1348,-3.66849 0.7566,-0.75653 1.9794,-1.13481 3.6685,-1.13485 l 12.7473,0 c 1.7595,4e-5 3.2638,0.0748 4.5131,0.22433 1.2492,0.14959 2.3752,0.4531 3.3781,0.91052 1.214,0.51028 2.2873,1.24046 3.2199,2.19054 0.9324,0.95014 1.6406,2.0542 2.1245,3.31219 0.4838,1.25804 0.7258,2.59084 0.7258,3.99838 0,2.88554 -0.8138,5.19044 -2.4413,6.91469 -1.6275,1.7243 -4.0952,2.94712 -7.4029,3.66848 1.3899,0.739 2.7183,1.82986 3.9852,3.27261 1.2668,1.44277 2.3972,2.9779 3.3913,4.60539 0.9941,1.62752 1.7683,3.09667 2.3225,4.40746 0.5542,1.31081 0.8313,2.21253 0.8314,2.70518 -10e-5,0.51024 -0.1628,1.01609 -0.4883,1.51753 -0.3255,0.50145 -0.7698,0.89733 -1.3328,1.18764 -0.563,0.29031 -1.214,0.43547 -1.953,0.43547 -0.8797,0 -1.6187,-0.20674 -2.2169,-0.62021 -0.5982,-0.41348 -1.1129,-0.93692 -1.5439,-1.57032 -0.4311,-0.63341 -1.0161,-1.56592 -1.7551,-2.79755 l -3.1406,-5.22561 c -1.1261,-1.9178 -2.1334,-3.37816 -3.0219,-4.38106 -0.8886,-1.00288 -1.7903,-1.68907 -2.7052,-2.05858 -0.9149,-0.36947 -2.0674,-0.55421 -3.4573,-0.55423 z m 4.4866,-16.25744 -7.2314,0 0,10.63596 7.0203,0 c 1.8826,2e-5 3.4661,-0.16273 4.7505,-0.48826 1.2844,-0.32547 2.2653,-0.8797 2.9427,-1.66269 0.6774,-0.78294 1.0161,-1.86061 1.0161,-3.23301 0,-1.07325 -0.2727,-2.01896 -0.8181,-2.83714 -0.5455,-0.81812 -1.3021,-1.42953 -2.2698,-1.83424 -0.9149,-0.38705 -2.7183,-0.58059 -5.4103,-0.58062 z" />
        </g>
      </g>
    </g>
  </g>
</svg>
