<?xml version="1.0" encoding="UTF-8" standalone="no"?>
<svg width="22px" height="15px" viewBox="0 0 22 15" version="1.1" xmlns="http://www.w3.org/2000/svg" xmlns:xlink="http://www.w3.org/1999/xlink" xmlns:sketch="http://www.bohemiancoding.com/sketch/ns">
    <!-- Generator: Sketch 3.0.1 (7597) - http://www.bohemiancoding.com/sketch -->
    <title>business_namecard_contact_info_glyph</title>
    <description>Created with Sketch.</description>
    <defs></defs>
    <g id="miu" stroke="none" stroke-width="1" fill="none" fill-rule="evenodd" sketch:type="MSPage">
        <path d="M0,0 L0,15 L22,15 L22,0 L0,0 L0,0 Z M9,4 L9,6 L16,6 L16,4 L9,4 L9,4 Z M9,8 L9,9 L19,9 L19,8 L9,8 L9,8 Z M9,10 L9,11 L18,11 L18,10 L9,10 L9,10 Z M3,4 L3,11 L7,11 L7,4 L3,4 L3,4 Z" id="business_namecard_contact_info_glyph" fill="#000000" sketch:type="MSShapeGroup"></path>
    </g>
</svg>