<?xml version="1.0" encoding="UTF-8" standalone="no"?>
<svg width="22px" height="11px" viewBox="0 0 22 11" version="1.1" xmlns="http://www.w3.org/2000/svg" xmlns:xlink="http://www.w3.org/1999/xlink" xmlns:sketch="http://www.bohemiancoding.com/sketch/ns">
    <!-- Generator: Sketch 3.0.1 (7597) - http://www.bohemiancoding.com/sketch -->
    <title>business_money_cash_salary_outline_stroke</title>
    <description>Created with Sketch.</description>
    <defs>
        <path d="M0,0 L0,11 L22,11 L21.9999999,0 L0,0 Z M1,1 L1,10 L21,10 L21,1 L1,1 Z M11.2127958,2.25244141 L11.2127958,2.9183636 C11.4800721,2.96139961 11.6986464,3.04973534 11.8685254,3.18337346 C12.0384043,3.31701157 12.2003532,3.52199578 12.3543768,3.79833222 L11.6918521,4.16866651 C11.4925275,3.80625806 11.2320503,3.62505655 10.9104128,3.62505655 C10.7110882,3.62505655 10.5457418,3.68394704 10.4143687,3.80172978 C10.2829957,3.91951253 10.2173101,4.06673876 10.2173101,4.24341287 C10.2173101,4.40423162 10.2705381,4.53786774 10.3769955,4.64432522 C10.481188,4.74851765 10.6918347,4.87196117 11.0089421,5.0146595 C11.2830135,5.13923741 11.5095154,5.25645213 11.6884546,5.36630719 C11.8673937,5.47616225 12.0021624,5.58205188 12.0927645,5.68397926 C12.3487154,5.9603157 12.476689,6.29440598 12.476689,6.68626012 C12.476689,7.0713191 12.361173,7.41107192 12.1301376,7.70552879 C11.9013673,7.9977206 11.5955898,8.19477724 11.2127958,8.29670462 L11.2127958,9 L10.6182225,9 L10.6182225,8.31708999 C10.1742721,8.2446083 9.83565179,8.09171953 9.60235135,7.85841909 C9.36905091,7.62511865 9.19690948,7.26498065 9.08592189,6.7779943 L9.83338558,6.62170644 C9.93531296,6.96599446 10.059889,7.21174901 10.2071174,7.35897744 C10.361141,7.49941072 10.5661252,7.5696263 10.8220762,7.5696263 C11.071232,7.5696263 11.2796137,7.48921813 11.4472276,7.32839938 C11.6125765,7.16984568 11.6952497,6.96486148 11.6952497,6.71344062 C11.6952497,6.48920039 11.6261666,6.30913139 11.4879984,6.17322822 C11.4177817,6.10754169 11.3141571,6.03336232 11.1771214,5.9506879 C11.0400857,5.86801347 10.865113,5.77797897 10.6521981,5.6805817 C10.2127778,5.4835221 9.92398793,5.3023206 9.78581971,5.13697174 C9.56610958,4.89008098 9.45625617,4.59449603 9.45625617,4.250208 C9.45625617,4.0871242 9.48230389,3.93536793 9.5344001,3.79493466 C9.58649632,3.65450139 9.66180819,3.52709408 9.76033799,3.41270891 C9.85886779,3.29832374 9.98061255,3.19922917 10.1255759,3.11542221 C10.2705393,3.03161526 10.4347532,2.96592971 10.6182225,2.9183636 L10.6182225,2.25244141 L11.2127958,2.25244141 Z" id="path-1"></path>
    </defs>
    <g id="miu" stroke="none" stroke-width="1" fill="none" fill-rule="evenodd" sketch:type="MSPage">
        <g id="business_money_cash_salary_outline_stroke">
            <use fill="#000000" fill-rule="evenodd" sketch:type="MSShapeGroup" xlink:href="#path-1"></use>
            <use fill="none" xlink:href="#path-1"></use>
        </g>
    </g>
</svg>