<?xml version="1.0" encoding="UTF-8" standalone="no"?>
<svg width="22px" height="17px" viewBox="0 0 22 17" version="1.1" xmlns="http://www.w3.org/2000/svg" xmlns:xlink="http://www.w3.org/1999/xlink" xmlns:sketch="http://www.bohemiancoding.com/sketch/ns">
    <!-- Generator: Sketch 3.0.1 (7597) - http://www.bohemiancoding.com/sketch -->
    <title>business_telephone_office_glyph</title>
    <description>Created with Sketch.</description>
    <defs></defs>
    <g id="miu" stroke="none" stroke-width="1" fill="none" fill-rule="evenodd" sketch:type="MSPage">
        <path d="M0.00889829375,8.5 C0.136420875,16 1,16 1,16 L1.99999993,16 L1.99999993,1 L1,1 C1,1 -0.118624256,0.999999966 0.00889829375,8.5 Z M22,8.5 C22,16 20.7494737,16 20.7494737,16 L10,16 L10,1 L20.7494737,1 C20.7494737,1 21.9999997,1 22,8.5 Z M18,14 C18.5522848,14 19,13.5522848 19,13 C19,12.4477152 18.5522848,12 18,12 C17.4477152,12 17,12.4477152 17,13 C17,13.5522848 17.4477152,14 18,14 Z M15,14 C15.5522848,14 16,13.5522848 16,13 C16,12.4477152 15.5522848,12 15,12 C14.4477152,12 14,12.4477152 14,13 C14,13.5522848 14.4477152,14 15,14 Z M12,14 C12.5522848,14 13,13.5522848 13,13 C13,12.4477152 12.5522848,12 12,12 C11.4477152,12 11,12.4477152 11,13 C11,13.5522848 11.4477152,14 12,14 Z M18,11 C18.5522848,11 19,10.5522848 19,10 C19,9.44771522 18.5522848,9 18,9 C17.4477152,9 17,9.44771522 17,10 C17,10.5522848 17.4477152,11 18,11 Z M15,11 C15.5522848,11 16,10.5522848 16,10 C16,9.44771522 15.5522848,9 15,9 C14.4477152,9 14,9.44771522 14,10 C14,10.5522848 14.4477152,11 15,11 Z M12,11 C12.5522848,11 13,10.5522848 13,10 C13,9.44771522 12.5522848,9 12,9 C11.4477152,9 11,9.44771522 11,10 C11,10.5522848 11.4477152,11 12,11 Z M19,7 C19,6.44771522 18.5522848,6 18,6 C17.4477152,6 17,6.44771522 17,7 C17,7.55228478 17.4477152,8 18,8 C18.5522848,8 19,7.55228478 19,7 Z M15,8 C15.5522848,8 16,7.55228478 16,7 C16,6.44771522 15.5522848,6 15,6 C14.4477152,6 14,6.44771522 14,7 C14,7.55228478 14.4477152,8 15,8 Z M12,8 C12.5522848,8 13,7.55228478 13,7 C13,6.44771522 12.5522848,6 12,6 C11.4477152,6 11,6.44771522 11,7 C11,7.55228478 11.4477152,8 12,8 Z M11.1670914,3 C11.0748094,3 11,3.06884452 11,3.15361574 L11,4.84638426 C11,4.93122389 11.0740884,5 11.1670914,5 L18.8329087,5 C18.9251907,5 19,4.93115548 19,4.84638426 L19,3.15361574 C19,3.06877611 18.9259115,3 18.8329087,3 L11.1670914,3 Z M4.64705882,0 C4.64705882,0 3,-6.68098812e-17 3,1.37547408 L3,15.6245259 C3,17 4.64705882,17 4.64705882,17 L7.35294118,17 C7.35294118,17 9,17 9,15.6245259 L9,1.37547408 C9,-6.68098812e-17 7.35294118,0 7.35294118,0 L4.64705882,0 Z" id="business_telephone_office_glyph" fill="#000000" sketch:type="MSShapeGroup"></path>
    </g>
</svg>