<?xml version="1.0" encoding="UTF-8" standalone="no"?>
<svg width="22px" height="19px" viewBox="0 0 22 19" version="1.1" xmlns="http://www.w3.org/2000/svg" xmlns:xlink="http://www.w3.org/1999/xlink" xmlns:sketch="http://www.bohemiancoding.com/sketch/ns">
    <!-- Generator: Sketch 3.0.1 (7597) - http://www.bohemiancoding.com/sketch -->
    <title>business_suitcase_outline_stroke</title>
    <description>Created with Sketch.</description>
    <defs>
        <path d="M14.0262447,9.98486333 L21.056274,9.98486371 L21.0562744,18.0675049 L0.969604492,18.0675049 L0.969604492,9.98486407 L8.00524902,9.9848637 L8.00524902,9.00000005 L2.53042031e-14,9 L0,17.8888889 C3.37433912e-07,19 1.09999993,19 1.09999993,19 L20.9,19 C20.9,19 22,19 22,17.8888889 L22,9 L14.0262451,9.00000005 L14.0262447,9.98486333 Z M21,4 L1,4 L1,8 L2.54019029e-14,8 L0,4.13636364 C0,3 1.09999993,3 1.09999993,3 L20.9,3 C20.9,3 22,3 22,4.13636364 L22,8 L21,8 L21,4 Z M13.0544434,0.979248047 L9.01098633,0.979248034 L9.01098633,2.99999999 L8,3 L8,1.25 C8,5.55111513e-17 9.15384608,0 9.15384608,0 L12.8461538,0 C12.8461538,0 14,5.55111513e-17 14,1.25000001 L14,3 L13.0544434,3 L13.0544434,0.979248047 Z M9,9.9906311 C9,10.5480902 9.44335318,11 10.0093689,11 L11.9906311,11 C12.5480902,11 13,10.5566468 13,9.9906311 L13,8.0093689 C13,7.45190985 12.5566468,7 11.9906311,7 L10.0093689,7 C9.45190985,7 9,7.44335318 9,8.0093689 L9,9.9906311 Z M10,8 L10,10 L12,10 L12,8 L10,8 Z" id="path-1"></path>
    </defs>
    <g id="miu" stroke="none" stroke-width="1" fill="none" fill-rule="evenodd" sketch:type="MSPage">
        <g id="business_suitcase_outline_stroke">
            <use fill="#000000" fill-rule="evenodd" sketch:type="MSShapeGroup" xlink:href="#path-1"></use>
            <use fill="none" xlink:href="#path-1"></use>
        </g>
    </g>
</svg>