<?xml version="1.0" encoding="UTF-8" standalone="no"?>
<svg width="22px" height="19px" viewBox="0 0 22 19" version="1.1" xmlns="http://www.w3.org/2000/svg" xmlns:xlink="http://www.w3.org/1999/xlink" xmlns:sketch="http://www.bohemiancoding.com/sketch/ns">
    <!-- Generator: Sketch 3.0.1 (7597) - http://www.bohemiancoding.com/sketch -->
    <title>business_suitcase_glyph</title>
    <description>Created with Sketch.</description>
    <defs></defs>
    <g id="miu" stroke="none" stroke-width="1" fill="none" fill-rule="evenodd" sketch:type="MSPage">
        <path d="M13,9.00000005 L14.0262451,9.00000005 L22,9 L22,17.8888889 C22,19 20.9,19 20.9,19 L1.09999993,19 C1.09999993,19 3.37433912e-07,19 0,17.8888889 L2.53042031e-14,9 L8.00524902,9.00000005 L9,9.00000005 L9,9.9906311 C9,10.5480902 9.44335318,11 10.0093689,11 L11.9906311,11 C12.5480902,11 13,10.5566468 13,9.9906311 L13,9.00000005 L13,9.00000005 Z M12.9999582,8 L14,8 L22,8 L22,4.13636364 C22,3 20.9,3 20.9,3 L1.09999993,3 C1.09999993,3 0,3 0,4.13636364 L2.54019029e-14,8 L8,8 L9.00004131,8 C9.00499601,7.43846845 9.45498931,7 10.0093689,7 L11.9906311,7 C12.5534725,7 12.9950234,7.44685532 12.9999582,8 L12.9999582,8 Z M13.0544434,0.979248047 L9.01098633,0.979248034 L9.01098633,2.99999999 L8,3 L8,1.25 C8,5.55111513e-17 9.15384608,0 9.15384608,0 L12.8461538,0 C12.8461538,0 14,5.55111513e-17 14,1.25000001 L14,3 L13.0544434,3 L13.0544434,0.979248047 Z M10,8 L10,10 L12,10 L12,8 L10,8 Z" id="business_suitcase_glyph" fill="#000000" sketch:type="MSShapeGroup"></path>
    </g>
</svg>