<?xml version="1.0" encoding="UTF-8" standalone="no"?>
<svg width="16px" height="23px" viewBox="0 0 16 23" version="1.1" xmlns="http://www.w3.org/2000/svg" xmlns:xlink="http://www.w3.org/1999/xlink" xmlns:sketch="http://www.bohemiancoding.com/sketch/ns">
    <!-- Generator: Sketch 3.0.1 (7597) - http://www.bohemiancoding.com/sketch -->
    <title>business_coins_money_stack_salary_glyph</title>
    <description>Created with Sketch.</description>
    <defs>
        <path d="M0.110887299,13.2535023 C0.746335466,17.0363111 4.03657903,19.9185245 8,19.9185245 C11.963421,19.9185245 15.2536645,17.0363111 15.8891127,13.2535023 C14.357812,16.0343516 11.3989422,17.9185245 8,17.9185245 C4.60105777,17.9185245 1.642188,16.0343516 0.110887299,13.2535023 L0.110887299,13.2535023 Z M0.110887299,16.2535023 C0.746335466,20.0363111 4.03657903,22.9185245 8,22.9185245 C11.963421,22.9185245 15.2536645,20.0363111 15.8891127,16.2535023 C14.357812,19.0343516 11.3989422,20.9185245 8,20.9185245 C4.60105777,20.9185245 1.642188,19.0343516 0.110887299,16.2535023 L0.110887299,16.2535023 Z M16,8.91852455 C16,4.50024633 12.4182782,0.918524548 8,0.918524548 C3.58172178,0.918524548 0,4.50024633 0,8.91852455 C0,13.3368028 3.58172178,16.9185245 8,16.9185245 C12.4182782,16.9185245 16,13.3368028 16,8.91852455 Z M8.38176353,5.41852455 L8.38176353,6.1093604 C8.61823766,6.15400648 8.81162249,6.24564705 8.96192385,6.38428487 C9.1122252,6.52292269 9.25551034,6.73557582 9.39178357,7.02225063 L8.80561122,7.40643996 C8.62925764,7.03047299 8.39879902,6.84249232 8.11422846,6.84249232 C7.93787487,6.84249232 7.79158375,6.90358604 7.6753507,7.0257753 C7.55911766,7.14796457 7.501002,7.30069886 7.501002,7.48398276 C7.501002,7.6508181 7.54809572,7.78945384 7.64228457,7.89989414 C7.7344694,8.00798464 7.92084028,8.13604647 8.20140281,8.28408346 C8.44388899,8.41332211 8.64428779,8.5349221 8.80260521,8.64888709 C8.96092264,8.76285207 9.08015992,8.87270327 9.16032064,8.97844398 C9.38677468,9.2651188 9.5,9.61170815 9.5,10.0182224 C9.5,10.4176873 9.39779661,10.7701511 9.19338677,11.0756242 C8.99098095,11.3787476 8.72044258,11.5831766 8.38176353,11.6889173 L8.38176353,12.4185245 L7.85571142,12.4185245 L7.85571142,11.7100653 C7.46292389,11.6348719 7.16332769,11.4762633 6.95691383,11.2342345 C6.75049997,10.9922058 6.59819688,10.6185942 6.5,10.1133886 L7.16132265,9.95125365 C7.25150346,10.3084223 7.3617228,10.563371 7.49198397,10.7161076 C7.62825719,10.8617948 7.80961811,10.9346373 8.03607214,10.9346373 C8.25651413,10.9346373 8.44088102,10.8512209 8.58917836,10.6843856 C8.73547167,10.5199 8.80861723,10.3072469 8.80861723,10.0464198 C8.80861723,9.81379025 8.7474956,9.62698447 8.6252505,9.48599685 C8.56312594,9.41785284 8.47144349,9.34089826 8.3502004,9.25513079 C8.22895731,9.16936333 8.07414924,9.07596043 7.88577154,8.97491931 C7.49699204,8.77048727 7.24148358,8.58250661 7.11923848,8.41097168 C6.92484873,8.15484418 6.82765531,7.84820072 6.82765531,7.4910321 C6.82765531,7.32184696 6.85070117,7.16441316 6.89679359,7.01872596 C6.942886,6.87303876 7.0095186,6.74086485 7.09669339,6.62220028 C7.18386817,6.5035357 7.29158253,6.40073378 7.41983968,6.31379142 C7.54809683,6.22684905 7.69338596,6.15870606 7.85571142,6.1093604 L7.85571142,5.41852455 L8.38176353,5.41852455 Z" id="path-1"></path>
    </defs>
    <g id="miu" stroke="none" stroke-width="1" fill="none" fill-rule="evenodd" sketch:type="MSPage">
        <g id="business_coins_money_stack_salary_glyph">
            <use fill="#000000" fill-rule="evenodd" sketch:type="MSShapeGroup" xlink:href="#path-1"></use>
            <use fill="none" xlink:href="#path-1"></use>
        </g>
    </g>
</svg>