<?xml version="1.0" encoding="UTF-8" standalone="no"?>
<svg width="22px" height="15px" viewBox="0 0 22 15" version="1.1" xmlns="http://www.w3.org/2000/svg" xmlns:xlink="http://www.w3.org/1999/xlink" xmlns:sketch="http://www.bohemiancoding.com/sketch/ns">
    <!-- Generator: Sketch 3.0.1 (7597) - http://www.bohemiancoding.com/sketch -->
    <title>business_stack_money_cash_salary_outline_stroke</title>
    <description>Created with Sketch.</description>
    <defs>
        <path d="M0,4 L0,15 L22,15 L21.9999999,4 L0,4 Z M1,2 L1,3 L21,3 L20.9999999,2 L1,2 Z M2,0 L2,1 L20,1 L19.9999999,0 L2,0 Z M1,5 L1,14 L21,14 L21,5 L1,5 Z M11.126874,6 L11.126874,6.6659222 C11.3941502,6.7089582 11.6127245,6.79729394 11.7826035,6.93093205 C11.9524824,7.06457017 12.1144313,7.26955437 12.2684549,7.54589082 L11.6059302,7.9162251 C11.4066056,7.55381665 11.1461284,7.37261514 10.8244909,7.37261514 C10.6251663,7.37261514 10.4598199,7.43150563 10.3284468,7.54928838 C10.1970738,7.66707112 10.1313882,7.81429735 10.1313882,7.99097147 C10.1313882,8.15179022 10.1846162,8.28542633 10.2910736,8.39188381 C10.3952661,8.49607624 10.6059128,8.61951977 10.9230202,8.7622181 C11.1970916,8.886796 11.4235935,9.00401072 11.6025327,9.11386579 C11.7814718,9.22372085 11.9162405,9.32961048 12.0068426,9.43153785 C12.2627935,9.7078743 12.3907671,10.0419646 12.3907671,10.4338187 C12.3907671,10.8188777 12.2752511,11.1586305 12.0442158,11.4530874 C11.8154454,11.7452792 11.5096679,11.9423358 11.126874,12.0442632 L11.126874,12.7475586 L10.5323006,12.7475586 L10.5323006,12.0646486 C10.0883502,11.9921669 9.7497299,11.8392781 9.51642946,11.6059777 C9.28312902,11.3726772 9.11098759,11.0125392 9,10.5255529 L9.74746369,10.369265 C9.84939107,10.7135531 9.9739671,10.9593076 10.1211955,11.106536 C10.2752191,11.2469693 10.4802033,11.3171849 10.7361543,11.3171849 C10.9853101,11.3171849 11.1936918,11.2367767 11.3613058,11.075958 C11.5266546,10.9174043 11.6093278,10.7124201 11.6093278,10.4609992 C11.6093278,10.236759 11.5402447,10.05669 11.4020765,9.92078682 C11.3318599,9.85510028 11.2282352,9.78092092 11.0911996,9.69824649 C10.9541639,9.61557206 10.7791912,9.52553756 10.5662762,9.42814029 C10.1268559,9.2310807 9.83806604,9.04987919 9.69989782,8.88453034 C9.4801877,8.63763958 9.37033428,8.34205462 9.37033428,7.99776659 C9.37033428,7.83468279 9.396382,7.68292653 9.44847821,7.54249325 C9.50057443,7.40205998 9.57588631,7.27465267 9.6744161,7.1602675 C9.7729459,7.04588234 9.89469066,6.94678776 10.039654,6.86298081 C10.1846174,6.77917385 10.3488313,6.71348831 10.5323006,6.6659222 L10.5323006,6 L11.126874,6 Z" id="path-1"></path>
    </defs>
    <g id="miu" stroke="none" stroke-width="1" fill="none" fill-rule="evenodd" sketch:type="MSPage">
        <g id="business_money_cash_salary_stack_outline_stroke">
            <use fill="#000000" fill-rule="evenodd" sketch:type="MSShapeGroup" xlink:href="#path-1"></use>
            <use fill="none" xlink:href="#path-1"></use>
        </g>
    </g>
</svg>