<?xml version="1.0" encoding="UTF-8" standalone="no"?>
<svg width="12px" height="22px" viewBox="0 0 12 22" version="1.1" xmlns="http://www.w3.org/2000/svg" xmlns:xlink="http://www.w3.org/1999/xlink" xmlns:sketch="http://www.bohemiancoding.com/sketch/ns">
    <!-- Generator: Sketch 3.0.1 (7597) - http://www.bohemiancoding.com/sketch -->
    <title>business_tie_outline_stroke</title>
    <description>Created with Sketch.</description>
    <defs>
        <path d="M0.691164439,0.865826225 L3.82608695,4.76587039 C3.82608695,4.76587039 7.04926423e-08,17.8603194 0,18.5868945 C-8.5938946e-08,19.3134696 4.91634409,22 5.50006907,22 C6.08379402,22 11.0000005,19.2366337 11,18.5868945 C10.9999996,17.9371553 7.17391305,4.76587039 7.17391305,4.76587039 L10.1370784,0.865826225 C10.1370784,0.865826225 10.8282429,0 9.445914,0 L1.61271702,0 C0.230388146,0 0.691164439,0.865826225 0.691164439,0.865826225 Z M5.06827104,4.49433992 C5.06827104,4.49433992 1.50000006,17.9185022 1.5,18.2139228 C1.49999994,18.5093433 5.5,20.5128174 5.5,20.5128174 C5.5,20.5128174 9.50000028,18.4318557 9.5,18.2139228 C9.4999997,17.9959898 5.93172896,4.49433992 5.93172896,4.49433992 L8.62780762,1 L2.28747559,1 L5.06827104,4.49433992 Z M8,5 L11.8753066,11.4392024 C12.0544127,11.7368047 12.0383846,12.2100014 11.8413176,12.4935118 L10.7941633,14 L8,5 Z" id="path-1"></path>
    </defs>
    <g id="miu" stroke="none" stroke-width="1" fill="none" fill-rule="evenodd" sketch:type="MSPage">
        <g id="business_tie_outline_stroke">
            <use fill="#000000" fill-rule="evenodd" sketch:type="MSShapeGroup" xlink:href="#path-1"></use>
            <use fill="none" xlink:href="#path-1"></use>
        </g>
    </g>
</svg>