<?xml version="1.0" encoding="UTF-8" standalone="no"?>
<svg width="22px" height="22px" viewBox="0 0 22 22" version="1.1" xmlns="http://www.w3.org/2000/svg" xmlns:xlink="http://www.w3.org/1999/xlink" xmlns:sketch="http://www.bohemiancoding.com/sketch/ns">
    <!-- Generator: Sketch 3.0.1 (7597) - http://www.bohemiancoding.com/sketch -->
    <title>circle_clock_time_history_recent_2_outline_stroke</title>
    <description>Created with Sketch.</description>
    <defs>
        <path d="M0,11 C0,4.92486744 4.92486744,0 11,0 C17.0751326,0 22,4.92486744 22,11 C22,17.0751326 17.0751326,22 11,22 C4.92486744,22 0,17.0751326 0,11 Z M21,11 C21,5.47715222 16.5228478,1 11,1 C5.47715222,1 1,5.47715222 1,11 C1,16.5228478 5.47715222,21 11,21 C16.5228478,21 21,16.5228478 21,11 Z M10.5,3.5 L11.5,3.5 L11.5,11.5 L5.5,11.5 L5.5,10.5 L10.5,10.5 L10.5,3.5 Z" id="path-1"></path>
    </defs>
    <g id="miu" stroke="none" stroke-width="1" fill="none" fill-rule="evenodd" sketch:type="MSPage">
        <g id="circle_clock_time_history_recent_2_outline_stroke">
            <use fill="#000000" fill-rule="evenodd" sketch:type="MSShapeGroup" xlink:href="#path-1"></use>
            <use fill="none" xlink:href="#path-1"></use>
        </g>
    </g>
</svg>