<?xml version="1.0" encoding="UTF-8" standalone="no"?>
<svg width="22px" height="22px" viewBox="0 0 22 22" version="1.1" xmlns="http://www.w3.org/2000/svg" xmlns:xlink="http://www.w3.org/1999/xlink" xmlns:sketch="http://www.bohemiancoding.com/sketch/ns">
    <!-- Generator: Sketch 3.0.1 (7597) - http://www.bohemiancoding.com/sketch -->
    <title>circle_gear_setting_configure_glyph</title>
    <description>Created with Sketch.</description>
    <defs>
        <path d="M11.5,15.9753124 C14.0266615,15.7244502 16,13.5926742 16,11 C16,10.2216801 15.822163,9.48489621 15.5049062,8.82806545 L15.5049062,8.82806545 L11.9899163,10.8574458 C11.9965618,10.9040069 12,10.9516019 12,11 C12,11.3701412 11.7989007,11.6933131 11.5,11.8662178 L11.5,15.9753124 Z M10.5,15.9753124 C7.97333853,15.7244502 6,13.5926742 6,11 C6,10.2783664 6.15287598,9.59243883 6.42800833,8.97283703 L10.0006178,11.0354841 C10.0130069,11.3907271 10.2106908,11.6988615 10.5,11.8662178 L10.5,15.9753124 Z M14.9817688,7.9753984 C14.0684907,6.77495492 12.6247456,6 11,6 C9.31786471,6 7.82974249,6.83066813 6.92345496,8.10418274 L6.92345496,8.10418274 L10.4700527,10.1518119 C10.6236986,10.0556112 10.805355,10 11,10 C11.1267792,10 11.2480481,10.0235924 11.3596558,10.0666263 L14.9817688,7.9753984 L14.9817688,7.9753984 Z M0,11 C0,4.92486745 4.92486745,0 11,0 C17.0751325,0 22,4.92486745 22,11 C22,17.0751325 17.0751325,22 11,22 C4.92486745,22 0,17.0751325 0,11 Z M7.37805485,6.2161226 L5.34210995,5.3435748 L6.2147858,7.37981845 C6.0623979,7.5809335 5.9223972,7.7919526 5.79591965,8.01173985 L3.58117099,8.00406335 L5.1796283,9.5370043 C5.12708665,9.7467022 5.0855804,9.9607764 5.05576255,10.1785739 L2.99853516,11.0014648 L5.05618775,11.8245259 C5.09092735,12.0772921 5.14141095,12.3250377 5.20661725,12.5667415 L3.63461278,14.1278862 L5.8507124,14.0815201 C5.9627072,14.2682639 6.08457275,14.4484109 6.21558785,14.6212399 L5.34210995,16.6593549 L7.3805241,15.7857488 C7.58098265,15.9375928 7.79127705,16.077132 8.010283,16.2032417 L8.0025985,18.4202939 L9.5369559,16.8203595 C9.74597285,16.8727325 9.95933785,16.9141415 10.1764041,16.94394 L11,19.0029297 L11.8235959,16.94394 C12.0758817,16.9093067 12.3231677,16.8589894 12.5644384,16.7940035 L14.1264214,18.366852 L14.0800432,16.1501731 C14.2666787,16.038316 14.4467295,15.9166014 14.6194759,15.7857488 L16.6578901,16.6593549 L15.7844122,14.6212399 C15.9364349,14.4206987 16.0761386,14.2103044 16.2023967,13.991184 L18.418829,13.9988664 L16.8197795,12.4653574 C16.8723519,12.2558999 16.9139132,12.0420724 16.9438123,11.8245259 L19.0014649,11.0014648 L16.9442375,10.1785739 C16.9095954,9.9255389 16.8591768,9.67752945 16.7940057,9.43556955 L18.3653872,7.87504345 L16.1510218,7.9213733 C16.0387795,7.73397805 15.916601,7.55321705 15.7852142,7.37981845 L16.6578901,5.3435748 L14.6219452,6.2161226 C14.4207476,6.06355585 14.2096289,5.92339025 13.9897272,5.79676415 L13.9974015,3.58263583 L12.465309,5.1802084 C12.2551707,5.12746695 12.0406338,5.0858083 11.822356,5.05588995 L11,3 L10.177644,5.05588995 C9.92412845,5.0906382 9.6756593,5.14122325 9.4332665,5.2066151 L7.8735786,3.63607762 L7.91989635,5.8498632 C7.7323929,5.9622434 7.55153585,6.0845731 7.37805485,6.2161226 Z" id="path-1"></path>
    </defs>
    <g id="miu" stroke="none" stroke-width="1" fill="none" fill-rule="evenodd" sketch:type="MSPage">
        <g id="circle_gear_setting_configure_glyph">
            <use fill="#000000" fill-rule="evenodd" sketch:type="MSShapeGroup" xlink:href="#path-1"></use>
            <use fill="none" xlink:href="#path-1"></use>
        </g>
    </g>
</svg>