<?xml version="1.0" encoding="UTF-8" standalone="no"?>
<svg width="22px" height="22px" viewBox="0 0 22 22" version="1.1" xmlns="http://www.w3.org/2000/svg" xmlns:xlink="http://www.w3.org/1999/xlink" xmlns:sketch="http://www.bohemiancoding.com/sketch/ns">
    <!-- Generator: Sketch 3.0.1 (7597) - http://www.bohemiancoding.com/sketch -->
    <title>circle_sync_backup_2_outline_stroke</title>
    <description>Created with Sketch.</description>
    <defs>
        <path d="M21.955157,12 C21.4499283,17.6065003 16.7380429,22 11,22 C6.7376321,22 3.04148823,19.5757082 1.21520553,16.0307617 L2.3556897,16.0307617 C4.08907246,19.0027963 7.31130015,21 11,21 C16.1853484,21 20.4489004,17.0533229 20.9506248,12 L19,12 L21.5,9 L24,12 L21.955157,12 Z M0.181376201,9 C1.12188879,3.87976372 5.60786045,0 11,0 C14.8558099,0 18.2482608,1.9838748 20.2123004,4.98657227 L18.990629,4.98657227 C17.1656063,2.56531772 14.265603,1 11,1 C6.16208393,1 2.1265768,4.4355192 1.20003621,9 L3,9 L0.5,12 L-2,9 L0.181376201,9 L0.181376201,9 Z" id="path-1"></path>
    </defs>
    <g id="miu" stroke="none" stroke-width="1" fill="none" fill-rule="evenodd" sketch:type="MSPage">
        <g id="circle_sync_backup_2_outline_stroke">
            <use fill="#000000" fill-rule="evenodd" sketch:type="MSShapeGroup" transform="translate(11.000000, 11.000000) rotate(-45.000000) translate(-11.000000, -11.000000) " xlink:href="#path-1"></use>
            <use fill="none" xlink:href="#path-1"></use>
        </g>
    </g>
</svg>