<?xml version="1.0" encoding="UTF-8" standalone="no"?>
<svg width="22px" height="22px" viewBox="0 0 22 22" version="1.1" xmlns="http://www.w3.org/2000/svg" xmlns:xlink="http://www.w3.org/1999/xlink" xmlns:sketch="http://www.bohemiancoding.com/sketch/ns">
    <!-- Generator: Sketch 3.0.1 (7597) - http://www.bohemiancoding.com/sketch -->
    <title>circle_email_glyph</title>
    <description>Created with Sketch.</description>
    <defs></defs>
    <g id="miu" stroke="none" stroke-width="1" fill="none" fill-rule="evenodd" sketch:type="MSPage">
        <path d="M0,11 C0,4.92486745 4.92486745,0 11,0 C17.0751325,0 22,4.92486745 22,11 C22,17.0751325 17.0751325,22 11,22 C4.92486745,22 0,17.0751325 0,11 Z M11,11.5 L3.5,7 L3.5,8 L11,12.5 L18.5,8 L18.5,7 L11,11.5 Z M6.52288818,11.2963257 L3.1673584,13.9933472 L3.65783691,15.0065918 L7.44366455,11.8164673 L6.52288818,11.2963257 Z M15.0881348,11.5 L18.4436646,14.1970215 L17.953186,15.2102661 L14.1673584,12.0201416 L15.0881348,11.5 Z" id="circle_email_glyph" fill="#000000" sketch:type="MSShapeGroup"></path>
    </g>
</svg>