<?xml version="1.0" encoding="UTF-8" standalone="no"?>
<svg width="22px" height="22px" viewBox="0 0 22 22" version="1.1" xmlns="http://www.w3.org/2000/svg" xmlns:xlink="http://www.w3.org/1999/xlink" xmlns:sketch="http://www.bohemiancoding.com/sketch/ns">
    <!-- Generator: Sketch 3.0.1 (7597) - http://www.bohemiancoding.com/sketch -->
    <title>circle-social_google-plus_outline_stroke</title>
    <description>Created with Sketch.</description>
    <defs></defs>
    <g id="miu" stroke="none" stroke-width="1" fill="none" fill-rule="evenodd" sketch:type="MSPage">
        <path d="M14.3846154,11.4230769 L12.6923077,11.4230769 L12.6923077,10.5769231 L14.3846154,10.5769231 L14.3846154,8.88461538 L15.2307692,8.88461538 L15.2307692,10.5769231 L16.9230769,10.5769231 L16.9230769,11.4230769 L15.2307692,11.4230769 L15.2307692,13.1153846 L14.3846154,13.1153846 L14.3846154,11.4230769 Z M11,22 C17.0751325,22 22,17.0751325 22,11 C22,4.92486745 17.0751325,0 11,0 C4.92486745,0 0,4.92486745 0,11 C0,17.0751325 4.92486745,22 11,22 Z M11,21 C16.5228478,21 21,16.5228478 21,11 C21,5.47715223 16.5228478,1 11,1 C5.47715223,1 1,5.47715223 1,11 C1,16.5228478 5.47715223,21 11,21 Z M10.9092741,6.06274154 C11.2686856,6.35999568 12.0193899,6.98523858 12.0193899,8.17391111 C12.0193899,9.33104625 11.3626096,9.87830581 10.7060587,10.394028 C10.5028433,10.5973581 10.2679758,10.8163995 10.2679758,11.1604437 C10.2679758,11.5044878 10.5028433,11.6922212 10.6744067,11.8327059 L11.2376069,12.2702154 C11.9258099,12.8486683 12.5509381,13.3806752 12.5509381,14.459827 C12.5509381,15.9292396 11.1279715,17.4149369 8.43846375,17.4149369 C6.17155687,17.4149369 5.07692308,16.3361291 5.07692308,15.1787646 C5.07692308,14.6157937 5.35846587,13.8185287 6.28130695,13.2710398 C7.25047931,12.6767609 8.56426923,12.5992363 9.26749546,12.5518729 C9.0485687,12.2702154 8.79844861,11.9728466 8.79844861,11.4886618 C8.79844861,11.2228303 8.87666131,11.0661756 8.95487402,10.8786715 C8.7825079,10.8941535 8.61094455,10.9102089 8.45428978,10.9102089 C6.79714381,10.9102089 5.85893542,9.67440231 5.85893542,8.45510986 C5.85893542,7.73617227 6.18715354,6.93821921 6.85953048,6.35976632 C7.75094887,5.62511739 8.81404528,5.5 9.65832961,5.5 L12.8792709,5.5 L11.8785612,6.06251218 L10.9092741,6.06251218 L10.9092741,6.06274154 Z M10.2528379,10.0348459 C10.61202,9.67451699 10.6434427,9.17450617 10.6434427,8.89284869 C10.6434427,7.76748029 9.97118042,6.01595154 8.67321654,6.01595154 C8.26667104,6.01595154 7.8289322,6.21939631 7.57846807,6.53247648 C7.3127513,6.86080928 7.23430924,7.28249272 7.23430924,7.6891529 C7.23430924,8.73653797 7.84418483,10.4725847 9.18893872,10.4725847 C9.57988755,10.47247 10.0021444,10.2847366 10.2528379,10.0348459 Z M9.79892899,13.0054377 C9.6738116,12.989497 9.5955989,12.989497 9.43951754,12.989497 C9.2986888,12.989497 8.4541751,13.0209197 7.79750951,13.2400758 C7.45358004,13.3651932 6.4528703,13.7400867 6.4528703,14.8504318 C6.4528703,15.9605476 7.53167806,16.7576979 9.20487943,16.7576979 C10.7060587,16.7576979 11.5033237,16.0387603 11.5033237,15.0694733 C11.5033237,14.2717496 10.9874868,13.8499514 9.79892899,13.0054377 Z" id="circle-social_google-plus_outline_stroke" fill="#000000" sketch:type="MSShapeGroup"></path>
    </g>
</svg>