<?xml version="1.0" encoding="UTF-8" standalone="no"?>
<svg width="22px" height="22px" viewBox="0 0 22 22" version="1.1" xmlns="http://www.w3.org/2000/svg" xmlns:xlink="http://www.w3.org/1999/xlink" xmlns:sketch="http://www.bohemiancoding.com/sketch/ns">
    <!-- Generator: Sketch 3.0.1 (7597) - http://www.bohemiancoding.com/sketch -->
    <title>circle_no_forbidden_outline_stroke</title>
    <description>Created with Sketch.</description>
    <defs>
        <path d="M17.708725,18.4158317 C15.9345855,20.0217955 13.5815288,21 11,21 C5.47715225,21 1,16.5228478 1,11 C1,8.4184712 1.97820451,6.06541445 3.58416825,4.29127503 L17.708725,18.4158317 L17.708725,18.4158317 Z M18.4158317,17.708725 C20.0217955,15.9345855 21,13.5815288 21,11 C21,5.47715225 16.5228478,1 11,1 C8.4184712,1 6.06541445,1.97820451 4.29127503,3.58416825 L18.4158317,17.708725 L18.4158317,17.708725 Z M11,22 C17.0751325,22 22,17.0751325 22,11 C22,4.92486745 17.0751325,0 11,0 C4.92486745,0 0,4.92486745 0,11 C0,17.0751325 4.92486745,22 11,22 L11,22 Z" id="path-1"></path>
    </defs>
    <g id="miu" stroke="none" stroke-width="1" fill="none" fill-rule="evenodd" sketch:type="MSPage">
        <g id="circle_no_forbidden_outline_stroke">
            <use fill="#000000" fill-rule="evenodd" sketch:type="MSShapeGroup" xlink:href="#path-1"></use>
            <use fill="none" xlink:href="#path-1"></use>
        </g>
    </g>
</svg>