<?xml version="1.0" encoding="UTF-8" standalone="no"?>
<svg width="22px" height="22px" viewBox="0 0 22 22" version="1.1" xmlns="http://www.w3.org/2000/svg" xmlns:xlink="http://www.w3.org/1999/xlink" xmlns:sketch="http://www.bohemiancoding.com/sketch/ns">
    <!-- Generator: Sketch 3.0.1 (7597) - http://www.bohemiancoding.com/sketch -->
    <title>circle_world_global_internet_earth_outline_stroke</title>
    <description>Created with Sketch.</description>
    <defs>
        <path d="M11,22 C17.0751325,22 22,17.0751325 22,11 C22,4.92486745 17.0751325,0 11,0 C4.92486745,0 0,4.92486745 0,11 C0,17.0751325 4.92486745,22 11,22 L11,22 Z M11,21 C16.5228478,21 21,16.5228478 21,11 C21,5.47715225 16.5228478,1 11,1 C5.47715225,1 1,5.47715225 1,11 C1,16.5228478 5.47715225,21 11,21 L11,21 Z M13.2486348,5.22145775 C12.7100535,5.3693943 13.3299002,6.7945377 12.7615743,6.67556935 C12.1988917,6.55778225 11.5231428,6.00311245 11.1560223,5.68626265 C10.7225836,5.31217575 11.8922176,5.34270565 12.1102009,5.0350231 C12.3714659,4.66624851 12.1446973,4.31351534 11.9300919,4.24494815 C11.1145728,3.98438688 9.9830475,4.59516519 9.4480042,4.460626 C8.5025974,4.22289899 8.94004655,3.99194594 7.92231465,3.85010485 C7.41449155,3.77932964 6.8602475,4.14560049 6.01725475,3.9795493 C4.98885742,3.77697756 4.99816387,5.70587105 4.61365051,6.15736715 C5.5761813,5.3173935 7.5226498,5.9318468 7.3319838,6.6755695 C7.08274145,7.6477786 8.8613855,9.1743247 9.14411165,9.87285665 C9.2922368,10.2388297 9.90360705,9.4765038 10.3990718,10.8601064 C10.4888761,11.2909072 11.0284698,11.0046428 11.4920376,11.0890401 C12.0597634,11.1924003 12.3834894,11.656349 12.5706789,11.762024 C13.1387504,12.08272 10.2506164,12.7570996 13.0929691,14.8312298 C13.0207123,15.8637157 13.0633248,16.8253234 12.953571,16.9994243 C12.7031734,17.3966262 12.8362672,17.6512589 12.953571,17.7772231 C12.2755916,17.950822 13.0892896,19.3945611 13.6315504,19.0648745 C13.964604,18.8623828 13.6315504,18.4410976 13.9215267,18.0404048 C13.6315504,17.3401122 16.0449033,15.4243572 16.4892278,15.091484 C16.4892278,15.091484 16.4741157,14.2492348 17.146835,13.7198663 C17.4810781,13.4568475 16.643115,12.9243302 16.0704743,13.1083073 C16.0704743,13.1083073 16.0363678,12.0248234 14.4673729,12.160023 C13.8668061,12.2117735 13.4660654,11.8349967 13.4660654,11.8349967 C13.4660654,11.8349967 12.9535711,10.8601065 12.3906953,10.8601065 C12.2998334,10.8601065 12.4603283,10.4990519 12.1102009,10.3157229 C11.835544,10.1719107 11.0714723,10.1628419 11.0714723,9.8728567 C11.0714723,9.5828715 11.8124279,9.6984562 12.2739877,9.33215265 C12.4126707,9.2220909 12.6171564,9.76330515 12.7615744,9.6415173 C12.9266067,9.5023453 12.5804748,9.24733445 13.0929691,8.81154445 C13.1856445,8.7327396 13.6885673,8.19172625 14.1158821,7.84099415 C14.2701258,7.7143938 14.5732513,7.8120391 14.6202154,7.6843777 C14.7980185,7.20105955 13.9722856,7.6076734 14.2502326,6.9946049 C14.3498011,6.77498635 15.8796461,7.3810794 15.9674,7.2929309 C16.1792451,7.08013315 14.8358932,7.0078135 15.3927308,6.67556945 C15.6290636,6.5345585 13.7872161,5.07352125 13.2486348,5.22145775 L13.2486348,5.22145775 Z" id="path-1"></path>
    </defs>
    <g id="miu" stroke="none" stroke-width="1" fill="none" fill-rule="evenodd" sketch:type="MSPage">
        <g id="circle_world_global_internet_earth_outline_stroke">
            <use fill="#000000" fill-rule="evenodd" sketch:type="MSShapeGroup" xlink:href="#path-1"></use>
            <use fill="none" xlink:href="#path-1"></use>
        </g>
    </g>
</svg>