<?xml version="1.0" encoding="UTF-8" standalone="no"?>
<svg width="22px" height="22px" viewBox="0 0 22 22" version="1.1" xmlns="http://www.w3.org/2000/svg" xmlns:xlink="http://www.w3.org/1999/xlink" xmlns:sketch="http://www.bohemiancoding.com/sketch/ns">
    <!-- Generator: Sketch 3.0.1 (7597) - http://www.bohemiancoding.com/sketch -->
    <title>circle_music_outline_stroke</title>
    <description>Created with Sketch.</description>
    <defs></defs>
    <g id="miu" stroke="none" stroke-width="1" fill="none" fill-rule="evenodd" sketch:type="MSPage">
        <path d="M0,11 C0,4.92486745 4.92486745,0 11,0 C17.0751325,0 22,4.92486745 22,11 C22,17.0751325 17.0751325,22 11,22 C4.92486745,22 0,17.0751325 0,11 Z M21,11 C21,5.47715223 16.5228478,1 11,1 C5.47715223,1 1,5.47715223 1,11 C1,16.5228478 5.47715223,21 11,21 C16.5228478,21 21,16.5228478 21,11 Z M9.21464679,9.20210506 L14.5277816,7.87651565 L14.5277816,12.6615701 C14.26913,12.5537986 13.9458155,12.4999129 13.6117239,12.4999129 C13.406958,12.4999129 13.0189806,12.6184615 12.7711062,12.7477873 C12.3076888,12.9956618 12.0274829,13.3944163 12.0274829,13.8147251 C12.0274829,14.0410453 12.1244772,14.2889197 12.2645802,14.4613541 C12.4477917,14.66612 12.7387747,14.7738915 13.1267521,14.7738915 C13.5901696,14.7738915 14.0751413,14.5691256 14.4631187,14.2242568 C14.8187646,13.8901652 15.0019762,13.4590792 15.0019762,12.9202217 L15.0019762,6.10906309 L8.74045221,7.6286412 L8.74045221,14.1811482 C8.52490921,14.0841539 8.22314902,14.0302681 7.88905738,14.0302681 C7.68429153,14.0302681 7.46874854,14.0733767 7.23165125,14.1703711 C6.63890801,14.4074684 6.27248492,14.8493315 6.27248492,15.3343032 C6.27248492,15.5606234 6.36947927,15.8084978 6.50958221,15.9809322 C6.69279376,16.1856981 6.99455395,16.2934696 7.38253134,16.2934696 C8.01838317,16.2934696 8.8051151,15.8300521 9.05298955,15.2911946 C9.13920674,15.097206 9.21464679,14.7200057 9.21464679,14.450577 C9.21464679,14.450577 9.21464679,14.7200057 9.21464679,14.450577 L9.21464679,9.20210506 Z" id="circle_music_outline_stroke" fill="#000000" sketch:type="MSShapeGroup"></path>
    </g>
</svg>