<?xml version="1.0" encoding="UTF-8" standalone="no"?>
<svg width="22px" height="22px" viewBox="0 0 22 22" version="1.1" xmlns="http://www.w3.org/2000/svg" xmlns:xlink="http://www.w3.org/1999/xlink" xmlns:sketch="http://www.bohemiancoding.com/sketch/ns">
    <!-- Generator: Sketch 3.0.1 (7597) - http://www.bohemiancoding.com/sketch -->
    <title>circle_music_2_glyph</title>
    <description>Created with Sketch.</description>
    <defs></defs>
    <g id="miu" stroke="none" stroke-width="1" fill="none" fill-rule="evenodd" sketch:type="MSPage">
        <path d="M0,11 C0,4.92486745 4.92486745,0 11,0 C17.0751325,0 22,4.92486745 22,11 C22,17.0751325 17.0751325,22 11,22 C4.92486745,22 0,17.0751325 0,11 Z M13.8173117,9.83099101 L13.6224768,9.51146189 C13.866671,9.20492022 13.9887663,8.94254527 13.9887663,8.72432916 C13.9887663,8.38661377 13.6770337,8.11124996 13.0535591,7.89822948 C12.4196933,7.69040462 11.9157256,7.4618007 11.5416408,7.21241087 L11.5494342,14.1095639 L11.5494342,14.507027 C11.5494342,14.7304387 11.5390431,14.8837072 11.5182607,14.9668372 C11.4403263,15.2785745 11.2026302,15.5396505 10.8051652,15.7500732 C10.4077001,15.9604959 9.88944465,16.0657056 9.25038321,16.0657056 C7.80080481,16.0657056 7.07602649,15.6448666 7.07602649,14.8031759 C7.07602649,14.4498737 7.30333152,14.1485321 7.7579484,13.8991423 C8.21256528,13.6497525 8.75679847,13.5250594 9.39066429,13.5250594 C9.96218265,13.5250594 10.515508,13.7562611 11.0506571,14.2186714 L11.0506571,5.47448417 L11.526054,5.45110399 C11.6455533,5.77323252 11.7767408,5.9966409 11.9196204,6.12133581 C12.0625,6.24603073 12.3339671,6.37072377 12.73403,6.49541869 C14.1004785,6.90587279 14.7836924,7.46958926 14.7836924,8.18658503 C14.7836924,8.65419096 14.4615687,9.20232081 13.8173117,9.83099101 C13.8173117,9.83099101 14.4615687,9.20232081 13.8173117,9.83099101 Z" id="circle_music_2_glyph" fill="#000000" sketch:type="MSShapeGroup"></path>
    </g>
</svg>