<?xml version="1.0" encoding="UTF-8" standalone="no"?>
<svg width="26px" height="22px" viewBox="0 0 26 22" version="1.1" xmlns="http://www.w3.org/2000/svg" xmlns:xlink="http://www.w3.org/1999/xlink" xmlns:sketch="http://www.bohemiancoding.com/sketch/ns">
    <!-- Generator: Sketch 3.0.1 (7597) - http://www.bohemiancoding.com/sketch -->
    <title>cirlce_sync_backup_1_outline_stroke</title>
    <description>Created with Sketch.</description>
    <defs>
        <path d="M23.955157,12 C23.4499283,17.6065003 18.7380429,22 13,22 C8.7376321,22 5.04148823,19.5757082 3.21520553,16.0307617 L4.3556897,16.0307617 C6.08907246,19.0027963 9.31130015,21 13,21 C18.1853484,21 22.4489004,17.0533229 22.9506248,12 L21,12 L23.5,9 L26,12 L23.955157,12 Z M2.1813762,9 C3.12188879,3.87976372 7.60786045,0 13,0 C16.8558099,0 20.2482608,1.9838748 22.2123004,4.98657227 L20.990629,4.98657227 C19.1656063,2.56531772 16.265603,1 13,1 C8.16208393,1 4.1265768,4.4355192 3.20003621,9 L5,9 L2.5,12 L0,9 L2.1813762,9 L2.1813762,9 Z" id="path-1"></path>
    </defs>
    <g id="miu" stroke="none" stroke-width="1" fill="none" fill-rule="evenodd" sketch:type="MSPage">
        <g id="circle_sync_backup_1_outline_stroke">
            <use fill="#000000" fill-rule="evenodd" sketch:type="MSShapeGroup" xlink:href="#path-1"></use>
            <use fill="none" xlink:href="#path-1"></use>
        </g>
    </g>
</svg>