<?xml version="1.0" encoding="UTF-8" standalone="no"?>
<svg width="22px" height="22px" viewBox="0 0 22 22" version="1.1" xmlns="http://www.w3.org/2000/svg" xmlns:xlink="http://www.w3.org/1999/xlink" xmlns:sketch="http://www.bohemiancoding.com/sketch/ns">
    <!-- Generator: Sketch 3.0.1 (7597) - http://www.bohemiancoding.com/sketch -->
    <title>circle-social_facebook_glyph</title>
    <description>Created with Sketch.</description>
    <defs></defs>
    <g id="miu" stroke="none" stroke-width="1" fill="none" fill-rule="evenodd" sketch:type="MSPage">
        <path d="M11,22 C17.0751325,22 22,17.0751325 22,11 C22,4.92486745 17.0751325,0 11,0 C4.92486745,0 0,4.92486745 0,11 C0,17.0751325 4.92486745,22 11,22 Z M9.33614878,17.3485814 L9.33614878,10.9996191 L8.04587261,10.9996191 L8.04587261,8.89509733 L9.33614878,8.89509733 L9.33614878,7.62240835 C9.33614878,5.90576881 9.8493981,4.66789363 11.7289708,4.66789363 L13.9649985,4.66789363 L13.9649985,6.76809465 L12.3904933,6.76809465 C11.6020279,6.76809465 11.4223537,7.29203798 11.4223537,7.84071235 L11.4223537,8.89509695 L13.8487885,8.89509714 L13.5175967,10.9996191 L11.4223537,10.9996191 L11.4223537,17.3485812 L9.33614878,17.3485814 Z" id="circle-social_facebook_glyph" fill="#000000" sketch:type="MSShapeGroup"></path>
    </g>
</svg>