<?xml version="1.0" encoding="UTF-8" standalone="no"?>
<svg width="22px" height="22px" viewBox="0 0 22 22" version="1.1" xmlns="http://www.w3.org/2000/svg" xmlns:xlink="http://www.w3.org/1999/xlink" xmlns:sketch="http://www.bohemiancoding.com/sketch/ns">
    <!-- Generator: Sketch 3.0.1 (7597) - http://www.bohemiancoding.com/sketch -->
    <title>circle-social_pinterest_glyph</title>
    <description>Created with Sketch.</description>
    <defs></defs>
    <g id="miu" stroke="none" stroke-width="1" fill="none" fill-rule="evenodd" sketch:type="MSPage">
        <path d="M11,22 C17.0751325,22 22,17.0751325 22,11 C22,4.92486745 17.0751325,0 11,0 C4.92486745,0 0,4.92486745 0,11 C0,17.0751325 4.92486745,22 11,22 Z M12.0117996,14.3309471 C14.4338556,14.3309471 16.0769231,12.0769181 16.0769231,9.05971388 C16.0769231,6.77889713 14.1838752,4.65384615 11.3075352,4.65384615 C7.72801076,4.65384615 5.92307692,7.27375389 5.92307692,9.45844342 C5.92307692,10.7812951 6.4133192,11.9581921 7.46593631,12.3968277 C7.63838497,12.4687026 7.79290847,12.3991427 7.84312051,12.2043528 C7.87745906,12.0693117 7.9604979,11.7286774 7.99656418,11.587022 C8.04710017,11.3941061 8.02766325,11.3265305 7.88836534,11.1583078 C7.58514941,10.7925393 7.39164409,10.3199506 7.39164409,9.64981596 C7.39164409,7.70632638 8.81539836,5.96644572 11.100748,5.96644572 C13.1233753,5.96644572 14.235491,7.22811551 14.235491,8.91386948 C14.235491,11.1314098 13.2742274,13.0030245 11.8468017,13.0030245 C11.0583108,13.0030245 10.4688322,12.3376301 10.6575863,11.5216511 C10.8835945,10.5473708 11.3228688,9.49548327 11.3228688,8.79216713 C11.3228688,8.16293069 10.9919013,7.63742786 10.3066419,7.63742786 C9.5007657,7.63742786 8.8536243,8.48868291 8.8536243,9.62842986 C8.8536243,10.3543447 9.09431814,10.8454534 9.09431814,10.8454534 C9.09431814,10.8454534 8.26965288,14.4119717 8.12484784,15.0363577 C7.99354066,15.6049635 7.97388778,16.2299006 7.99235285,16.7580492 C8.0475321,17.2318506 8.50645934,17.6176823 8.90459222,17.0979118 C9.18448384,16.6411973 9.48543213,16.064434 9.64114344,15.4863478 C9.73400872,15.1442804 10.1713394,13.3723206 10.1713394,13.3723206 C10.4334138,13.8820594 11.1984725,14.3309471 12.0117996,14.3309471 Z" id="circle-social_pinterest_glyph" fill="#000000" sketch:type="MSShapeGroup"></path>
    </g>
</svg>