<?xml version="1.0" encoding="UTF-8" standalone="no"?>
<svg width="22px" height="22px" viewBox="0 0 22 22" version="1.1" xmlns="http://www.w3.org/2000/svg" xmlns:xlink="http://www.w3.org/1999/xlink" xmlns:sketch="http://www.bohemiancoding.com/sketch/ns">
    <!-- Generator: Sketch 3.0.1 (7597) - http://www.bohemiancoding.com/sketch -->
    <title>circle_no_forbidden_glyph</title>
    <description>Created with Sketch.</description>
    <defs>
        <path d="M17.0988409,17.7416652 C15.4859869,19.2016323 13.3468444,20.0909091 11,20.0909091 C5.97922932,20.0909091 1.90909091,16.0207707 1.90909091,11 C1.90909091,8.65315564 2.79836774,6.51401314 4.25833477,4.90115912 L17.0988409,17.7416652 L17.0988409,17.7416652 Z M17.7416652,17.0988409 C19.2016323,15.4859869 20.0909091,13.3468444 20.0909091,11 C20.0909091,5.97922932 16.0207707,1.90909091 11,1.90909091 C8.65315564,1.90909091 6.51401314,2.79836774 4.90115912,4.25833477 L17.7416652,17.0988409 L17.7416652,17.0988409 Z M22,11 C22,4.92486745 17.0751325,0 11,0 C4.92486745,0 0,4.92486745 0,11 C0,17.0751325 4.92486745,22 11,22 C17.0751325,22 22,17.0751325 22,11 Z" id="path-1"></path>
    </defs>
    <g id="miu" stroke="none" stroke-width="1" fill="none" fill-rule="evenodd" sketch:type="MSPage">
        <g id="circle_no_forbidden_glyph">
            <use fill="#000000" fill-rule="evenodd" sketch:type="MSShapeGroup" xlink:href="#path-1"></use>
            <use fill="none" xlink:href="#path-1"></use>
        </g>
    </g>
</svg>