<?xml version="1.0" encoding="UTF-8" standalone="no"?>
<svg width="22px" height="14px" viewBox="0 0 22 14" version="1.1" xmlns="http://www.w3.org/2000/svg" xmlns:xlink="http://www.w3.org/1999/xlink" xmlns:sketch="http://www.bohemiancoding.com/sketch/ns">
    <!-- Generator: Sketch 3.0.1 (7597) - http://www.bohemiancoding.com/sketch -->
    <title>cloud_cloud-download_outline_stroke</title>
    <description>Created with Sketch.</description>
    <defs></defs>
    <g id="miu" stroke="none" stroke-width="1" fill="none" fill-rule="evenodd" sketch:type="MSPage">
        <path d="M13,13.9639007 L18.5625,13.9639007 C20.513625,13.6461296 22,11.9985269 22,10.0137931 C22,8.26939033 20.851875,6.78534621 19.248625,6.23592277 C19.190875,2.78183174 16.2889375,0 12.71875,0 C10.143375,0 7.9165625,1.44732688 6.853,3.55022343 C6.34975,3.01014619 5.6216875,2.67034483 4.81250001,2.67034483 C3.29381251,2.67034483 2.0625,3.86599174 2.0625,5.34068968 C2.0625,5.72588689 2.146375,6.09172412 2.2969375,6.4221793 C0.9356875,7.07641379 0,8.43895727 0,10.0137931 C0,11.9985269 1.486375,13.6461296 3.4375,13.9639007 L9,13.9639007 L9,13.0333938 L4.23067915,13.0333938 L3.77397305,12.9969349 C2.45642037,12.7866453 1,11.2237921 1,9.94642893 C1,8.9483669 1.85122473,7.3480845 3.49487704,6.78084302 L3.16406321,5.91641978 C3.08692153,5.7504016 3.04800938,5.5733156 3.04800938,5.38906802 C3.04800938,4.67095813 3.77397317,3.60420639 4.91334896,3.60420627 C5.30451875,3.60420623 5.76271249,3.79900933 6.02485769,4.07635729 L7.10024804,4.82359598 L8.01450605,3.60420616 C9.04995554,2.06084019 10.7959145,1 12.7640515,1 C15.5411522,1 18.282071,3.64678212 18.3264445,6.29330673 L18.3264448,7.23107201 L19.2933911,7.49001138 C20.382932,7.85655344 21.1147541,8.84419865 21.1147541,9.94642893 C21.1147541,11.2237921 19.8064731,12.8231043 18.4889204,13.0333939 L17.8840749,13.0333938 L13,13.0333938 L13,13.9639007 L13,13.9639007 Z M15,9.5 L13.0045166,9.5 L13.0045166,5 L9.01318359,5 L9.01318359,9.5 L7,9.5 L11,14 L15,9.5 Z" id="cloud_cloud-download_outline_stroke" fill="#000000" sketch:type="MSShapeGroup"></path>
    </g>
</svg>