<?xml version="1.0" encoding="UTF-8" standalone="no"?>
<svg width="22px" height="15px" viewBox="0 0 22 15" version="1.1" xmlns="http://www.w3.org/2000/svg" xmlns:xlink="http://www.w3.org/1999/xlink" xmlns:sketch="http://www.bohemiancoding.com/sketch/ns">
    <!-- Generator: Sketch 3.0.1 (7597) - http://www.bohemiancoding.com/sketch -->
    <title>cloud_cloud-upload_outline_stroke</title>
    <description>Created with Sketch.</description>
    <defs></defs>
    <g id="miu" stroke="none" stroke-width="1" fill="none" fill-rule="evenodd" sketch:type="MSPage">
        <path d="M3.4375,13.9639007 C1.486375,13.6461296 0,11.9985269 0,10.0137931 C0,8.43895727 0.9356875,7.07641379 2.2969375,6.4221793 C2.146375,6.09172412 2.0625,5.72588689 2.0625,5.34068968 C2.0625,3.86599174 3.29381251,2.67034483 4.81250001,2.67034483 C5.6216875,2.67034483 6.34975,3.01014619 6.853,3.55022343 C7.9165625,1.44732688 10.143375,0 12.71875,0 C16.2889375,0 19.190875,2.78183174 19.248625,6.23592277 C20.851875,6.78534621 22,8.26939033 22,10.0137931 C22,11.9985269 20.513625,13.6461296 18.5625,13.9639007 L17.875,14.0193103 L4.12500001,14.0193103 L3.4375,13.9639007 Z M14,13.0333938 L17.8840749,13.0333938 L18.4889204,13.0333939 C19.8064731,12.8231043 21.1147541,11.2237921 21.1147541,9.94642893 C21.1147541,8.84419865 20.382932,7.85655344 19.2933911,7.49001138 L18.3264448,7.23107201 L18.3264445,6.29330673 C18.282071,3.64678212 15.5411522,1 12.7640515,1 C10.7959145,1 9.04995554,2.06084019 8.01450605,3.60420616 L7.10024804,4.82359598 L6.02485769,4.07635729 C5.76271249,3.79900933 5.30451875,3.60420623 4.91334896,3.60420627 C3.77397317,3.60420639 3.04800938,4.67095813 3.04800938,5.38906802 C3.04800938,5.5733156 3.08692153,5.7504016 3.16406321,5.91641978 L3.49487704,6.78084302 C1.85122473,7.3480845 1,8.9483669 1,9.94642893 C1,11.2237921 2.45642037,12.7866453 3.77397305,12.9969349 L4.23067915,13.0333938 L8,13.0333938 L8,14 L14,14 L14,13.0333938 L14,13.0333938 Z M7,9.5 L8.9954834,9.5 L8.9954834,14 L12.9868164,14 L12.9868164,9.5 L15,9.5 L11,5 L7,9.5 Z" id="cloud_cloud-upload_outline_stroke" fill="#000000" sketch:type="MSShapeGroup"></path>
    </g>
</svg>