<?xml version="1.0" encoding="UTF-8" standalone="no"?>
<svg width="22px" height="21px" viewBox="0 0 22 21" version="1.1" xmlns="http://www.w3.org/2000/svg" xmlns:xlink="http://www.w3.org/1999/xlink" xmlns:sketch="http://www.bohemiancoding.com/sketch/ns">
    <!-- Generator: Sketch 3.0.1 (7597) - http://www.bohemiancoding.com/sketch -->
    <title>cloud_cloud-download_2_glyph</title>
    <description>Created with Sketch.</description>
    <defs>
        <path d="M3.4375,14.0453761 C1.486375,13.7276051 0,12.0800023 0,10.0952686 C0,8.52043272 0.9356875,7.15788924 2.2969375,6.50365476 C2.146375,6.17319958 2.0625,5.80736234 2.0625,5.42216513 C2.0625,3.94746719 3.29381251,2.75182028 4.81250001,2.75182028 C5.6216875,2.75182028 6.34975,3.09162165 6.853,3.63169888 C7.9165625,1.52880233 10.143375,0.081475452 12.71875,0.081475452 C16.2889375,0.081475452 19.190875,2.86330719 19.248625,6.31739822 C20.851875,6.86682166 22,8.35086578 22,10.0952686 C22,12.0800023 20.513625,13.7276051 18.5625,14.0453761 L17.875,14.1007858 L14.0689655,14.1007858 L14.0689659,12.1078274 L17.8266979,12.1078275 C17.8266979,12.1078275 20.0118313,11.935714 20.0118313,10.0208628 C20.0118313,8.30550608 17.4463177,7.866183 17.4463177,7.866183 C17.4463177,7.866183 17.8340173,2.41258897 12.9050226,1.94955356 C9.63906288,1.64274557 7.44218731,5.81897326 7.44218731,5.81897326 C7.44218731,5.81897326 5.68939734,3.91897316 4.47511148,4.93482132 C3.26082563,5.95066948 4.47511148,7.5677454 4.47511148,7.5677454 C2.83145916,8.13498688 1.88766987,9.02341513 1.94262296,10.0208626 C2.0000844,11.0638392 2.39904333,11.861079 3.71659601,12.0713686 L4.17330211,12.1078275 L7.957129,12.1078272 L7.957129,14.1007854 L4.12500001,14.1007858 L3.4375,14.0453761 Z M6,17.0814755 L6,15.0814755 L10,17.5 L10,6.08147545 L12,6.08147545 L12,17.5 L16,15.0814755 L16,17.0814755 L11,20.0814755 L6,17.0814755 Z" id="path-1"></path>
    </defs>
    <g id="miu" stroke="none" stroke-width="1" fill="none" fill-rule="evenodd" sketch:type="MSPage">
        <g id="cloud_cloud-download_2_glyph">
            <use fill="#000000" fill-rule="evenodd" sketch:type="MSShapeGroup" xlink:href="#path-1"></use>
            <use fill="none" xlink:href="#path-1"></use>
        </g>
    </g>
</svg>