<?xml version="1.0" encoding="UTF-8" standalone="no"?>
<svg width="22px" height="15px" viewBox="0 0 22 15" version="1.1" xmlns="http://www.w3.org/2000/svg" xmlns:xlink="http://www.w3.org/1999/xlink" xmlns:sketch="http://www.bohemiancoding.com/sketch/ns">
    <!-- Generator: Sketch 3.0.1 (7597) - http://www.bohemiancoding.com/sketch -->
    <title>common_envelope_mail_glyph</title>
    <description>Created with Sketch.</description>
    <defs></defs>
    <g id="miu" stroke="none" stroke-width="1" fill="none" fill-rule="evenodd" sketch:type="MSPage">
        <path d="M0,0 L0,15 L22,15 L22,0 L0,0 L0,0 Z M2,2 L2,3 L10,3 L10,2 L2,2 L2,2 Z M2,4 L2,5 L10,5 L10,4 L2,4 L2,4 Z M12,10 L12,11 L20,11 L20,10 L12,10 L12,10 Z M12,12 L12,13 L20,13 L20,12 L12,12 L12,12 Z M17,2 L17,5 L20,5 L20,2 L17,2 L17,2 Z" id="common_envelope_mail_glyph" fill="#000000" sketch:type="MSShapeGroup"></path>
    </g>
</svg>