<?xml version="1.0" encoding="UTF-8" standalone="no"?>
<svg width="22px" height="24px" viewBox="0 0 22 24" version="1.1" xmlns="http://www.w3.org/2000/svg" xmlns:xlink="http://www.w3.org/1999/xlink" xmlns:sketch="http://www.bohemiancoding.com/sketch/ns">
    <!-- Generator: Sketch 3.0.1 (7597) - http://www.bohemiancoding.com/sketch -->
    <title>common_heart_like_favourite_favorite_glyph</title>
    <description>Created with Sketch.</description>
    <defs></defs>
    <g id="miu" stroke="none" stroke-width="1" fill="none" fill-rule="evenodd" sketch:type="MSPage">
        <path d="M11.7554396,22.5235985 C12.1191384,22.2446871 12.5239104,21.9228265 12.9595424,21.5620491 C14.2038245,20.5315714 15.4480927,19.3943297 16.610866,18.1818997 C19.2071488,15.4747417 21.0223396,12.7928809 21.7065396,10.2462055 C21.9001493,9.5255667 22,8.82210429 22,8.1379533 C22,1.34682512 15.7999878,-1.55708933 10.9952146,3.55955889 C6.20795689,-1.5570894 0,1.52633462 0,8.1379533 C0,8.82210429 0.0998507065,9.5255667 0.293460422,10.2462055 C0.977660419,12.7928809 2.79285117,15.4747417 5.38913398,18.1818997 C6.55190728,19.3943297 7.79617546,20.5315714 9.04045764,21.5620491 C9.47608957,21.9228265 9.88086159,22.2446871 10.2445604,22.5235985 C10.4639215,22.691821 10.6216787,22.8089331 10.7076065,22.8708786 L11,23.081666 L11.2923935,22.8708786 C11.3783213,22.8089331 11.5360785,22.691821 11.7554396,22.5235985 Z" id="common_heart_like_favourite_favorite_glyph" fill="#000000" sketch:type="MSShapeGroup"></path>
    </g>
</svg>