<?xml version="1.0" encoding="UTF-8" standalone="no"?>
<svg width="22px" height="23px" viewBox="0 0 22 23" version="1.1" xmlns="http://www.w3.org/2000/svg" xmlns:xlink="http://www.w3.org/1999/xlink" xmlns:sketch="http://www.bohemiancoding.com/sketch/ns">
    <!-- Generator: Sketch 3.0.1 (7597) - http://www.bohemiancoding.com/sketch -->
    <title>common_heart_like_favourite_favorite_outline_stroke</title>
    <description>Created with Sketch.</description>
    <defs></defs>
    <g id="miu" stroke="none" stroke-width="1" fill="none" fill-rule="evenodd" sketch:type="MSPage">
        <path d="M11.7554396,21.5583133 C12.1191384,21.2794019 12.5239104,20.9575413 12.9595424,20.5967639 C14.2038245,19.5662862 15.4480927,18.4290445 16.610866,17.2166145 C19.2071488,14.5094565 21.0223396,11.8275957 21.7065396,9.28092033 C21.9001493,8.56028149 22,7.85681908 22,7.1726681 C22,0.381539913 15.7999878,-2.52237453 10.9952146,2.59427369 C6.20795689,-2.5223746 0,0.561049415 0,7.1726681 C0,7.85681908 0.0998507065,8.56028149 0.293460422,9.28092033 C0.977660419,11.8275957 2.79285117,14.5094565 5.38913398,17.2166145 C6.55190728,18.4290445 7.79617546,19.5662862 9.04045764,20.5967639 C9.47608957,20.9575413 9.88086159,21.2794019 10.2445604,21.5583133 C10.4639215,21.7265358 10.6216787,21.8436479 10.7076065,21.9055934 L11,22.1163808 L11.2923935,21.9055934 C11.3783213,21.8436479 11.5360785,21.7265358 11.7554396,21.5583133 Z M9.67829236,19.8265906 C8.46163704,18.8189927 7.24496772,17.7069759 6.11086602,16.524442 C3.62064932,13.9278797 1.89071441,11.3719804 1.25921345,9.02145725 C1.08755253,8.38251447 1,7.7656945 1,7.1726681 C1,1.25938479 6.42693484,-1.28333671 10.618149,3.67483071 L11,4.12655691 L11.381851,3.67483071 C15.5730652,-1.28333671 21,1.25938479 21,7.1726681 C21,7.7656945 20.9124475,8.38251447 20.7407865,9.02145725 C20.1092856,11.3719804 18.3793507,13.9278797 15.889134,16.524442 C14.7550323,17.7069759 13.538363,18.8189927 12.3217076,19.8265906 C11.8960114,20.1791396 11,20.9121712 11,20.9121712 C11,20.9121712 9.9345746,20.0388359 9.67829236,19.8265906 Z" id="common_heart_like_favourite_favorite_outline_stroke" fill="#000000" sketch:type="MSShapeGroup"></path>
    </g>
</svg>