<?xml version="1.0" encoding="UTF-8" standalone="no"?>
<svg width="21px" height="21px" viewBox="0 0 21 21" version="1.1" xmlns="http://www.w3.org/2000/svg" xmlns:xlink="http://www.w3.org/1999/xlink" xmlns:sketch="http://www.bohemiancoding.com/sketch/ns">
    <!-- Generator: Sketch 3.0.1 (7597) - http://www.bohemiancoding.com/sketch -->
    <title>common_calendar_month_outline_stroke</title>
    <description>Created with Sketch.</description>
    <defs>
        <path d="M12.9203652,3 L12.9255371,2.00000004 L8.01831055,1.99999987 L8.01313863,3 L12.9203652,3 Z M3.97053609,3 L3.97570801,1.99999993 L0.628782437,2 C0.281515485,2 0,2.29084156 0,2.6485265 L0,20.3514735 C0,20.7096448 0.280982629,21 0.628488288,21 L20.3715117,21 C20.7186162,21 21,20.7091584 21,20.3514735 L21,2.6485265 C21,2.2903552 20.7179045,2 20.3712176,2 L17.0072021,2.00000004 L17.0020302,3 L20,3 L20,8 L1,8 L1,3 L3.97053609,3 Z M1,17 L1,19.6261137 C1,19.8326054 1.19222717,20 1.42982686,20 L4,20 L4,17 L1,17 L1,17 Z M5,17 L5,20 L8,20 L8,17 L5,17 L5,17 Z M9,17 L9,20 L12,20 L12,17 L9,17 L9,17 Z M13,17 L13,20 L16,20 L16,17 L13,17 L13,17 Z M17,17 L17,20 L19.5701731,20 C19.80756,20 20,19.8322787 20,19.6261137 L20,17 L17,17 L17,17 Z M1,13 L1,16 L4,16 L4,13 L1,13 L1,13 Z M5,13 L5,16 L8,16 L8,13 L5,13 L5,13 Z M13,13 L13,16 L16,16 L16,13 L13,13 L13,13 Z M17,13 L17,16 L20,16 L20,13 L17,13 L17,13 Z M1,9 L1,12 L4,12 L4,9 L1,9 L1,9 Z M5,9 L5,12 L8,12 L8,9 L5,9 L5,9 Z M9,9 L9,12 L12,12 L12,9 L9,9 L9,9 Z M13,9 L13,12 L16,12 L16,9 L13,9 L13,9 Z M17,9 L17,12 L20,12 L20,9 L17,9 L17,9 Z M5.75041638,0 C5.33597285,0 5,0.334157765 5,0.752369405 L5,3.2476306 C5,3.66315275 5.33475502,4 5.75041638,4 L6.24958362,4 C6.66402715,4 7,3.66584223 7,3.2476306 L7,0.752369405 C7,0.336847255 6.66524498,0 6.24958362,0 L5.75041638,0 L5.75041638,0 Z M15,0 C14.4477153,0 14,0.447207593 14,0.999050678 L14,3.00094933 C14,3.55270978 14.4488391,4 15,4 C15.5522847,4 16,3.5527924 16,3.00094933 L16,0.999050678 C16,0.447290223 15.5511609,0 15,0 L15,0 Z" id="path-1"></path>
    </defs>
    <g id="miu" stroke="none" stroke-width="1" fill="none" fill-rule="evenodd" sketch:type="MSPage">
        <g id="common_calendar_month_outline_stroke">
            <use fill="#000000" fill-rule="evenodd" sketch:type="MSShapeGroup" xlink:href="#path-1"></use>
            <use fill="none" xlink:href="#path-1"></use>
        </g>
    </g>
</svg>