<?xml version="1.0" encoding="UTF-8" standalone="no"?>
<svg width="22px" height="23px" viewBox="0 0 22 23" version="1.1" xmlns="http://www.w3.org/2000/svg" xmlns:xlink="http://www.w3.org/1999/xlink" xmlns:sketch="http://www.bohemiancoding.com/sketch/ns">
    <!-- Generator: Sketch 3.0.1 (7597) - http://www.bohemiancoding.com/sketch -->
    <title>common_new_edit_compose_outline_stroke</title>
    <description>Created with Sketch.</description>
    <defs>
        <path d="M17.8798806,1.52705014 L8.79625419,13.1535617 L8.7460828,15.696904 L11.2017393,15.0329327 L20.2853657,3.40642112 L19.4835373,2.77996413 L10.5892552,14.1641262 L9.68576827,14.4941614 L9.78742677,13.5376692 L18.681709,2.15350714 L17.8798806,1.52705014 Z M20.2478514,0.148936173 C19.8393207,-0.170242982 18.8195661,0.324307566 18.8195661,0.324307566 L18.1931091,1.12613595 L20.5985942,3.00550693 L21.2250512,2.20367854 C21.2250512,2.20367854 21.4602975,1.09620283 21.0496798,0.775393164 L20.2478514,0.148936173 Z M0,3.02122051 L0,22.0212205 L19,22.0212205 L19,7.02122051 L18,8.02122051 L18,21.0212205 L1,21.0212205 L1,4.02122051 L14,4.02122051 L15,3.02122051 L0,3.02122051 Z" id="path-1"></path>
    </defs>
    <g id="miu" stroke="none" stroke-width="1" fill="none" fill-rule="evenodd" sketch:type="MSPage">
        <g id="common_new_edit_compose_outline_stroke">
            <use fill="#000000" fill-rule="evenodd" sketch:type="MSShapeGroup" xlink:href="#path-1"></use>
            <use fill="none" xlink:href="#path-1"></use>
        </g>
    </g>
</svg>