<?xml version="1.0" encoding="UTF-8" standalone="no"?>
<svg width="22px" height="19px" viewBox="0 0 22 19" version="1.1" xmlns="http://www.w3.org/2000/svg" xmlns:xlink="http://www.w3.org/1999/xlink" xmlns:sketch="http://www.bohemiancoding.com/sketch/ns">
    <!-- Generator: Sketch 3.0.1 (7597) - http://www.bohemiancoding.com/sketch -->
    <title>common_bookmark_book_open_outline_stroke</title>
    <description>Created with Sketch.</description>
    <defs>
        <path d="M9.73304163,0 L2,0 C2,0 0,0 0,2 L0,16.0948968 C0,16.5830208 0.393786683,16.9787234 0.879487061,16.9787234 C0.879487061,16.9787234 7.66351788,16.9787237 8.92190317,16.9787234 C10.1802885,16.9787234 10.6183425,19 10.6183425,19 L11,19 L11,1.23319585 C11,0.818725582 10.3665208,0 9.73304163,0 Z M12.2929359,0 L20,0 C20,0 22,0 22,2 L22,16.0948968 C22,16.5830208 21.6062133,16.9787234 21.1205129,16.9787234 C21.1205129,16.9787234 14.3364821,16.9787237 13.0780968,16.9787234 C11.8197115,16.9787234 11.3816575,19 11.3816575,19 L11,19 L11,1.22993891 C11,0.817097112 11.6464679,0 12.2929359,0 Z M1.4802527,1 C1.23517573,1 1.03599815,1.20153378 1.03537552,1.45078097 L1.00000145,15.6113938 C0.999379535,15.8603533 1.19887764,16.0621748 1.43928294,16.0621748 C1.43928294,16.0621748 8.16607481,16.062175 9.00576341,16.0621748 C9.845452,16.0621748 10.5,17 10.5,17 L10.5,1.67728046 C10.5,1.30322879 10.2011462,1 9.83830649,1 L1.4802527,1 Z M20.5197473,1 C20.7648243,1 20.9640019,1.20153378 20.9646245,1.45078097 L20.9999985,15.6113938 C21.0006205,15.8603533 20.8011224,16.0621748 20.5607171,16.0621748 C20.5607171,16.0621748 13.8339252,16.062175 12.9942366,16.0621748 C12.154548,16.0621748 11.5,17 11.5,17 L11.5,1.67728046 C11.5,1.30322879 11.7988538,1 12.1616935,1 L20.5197473,1 L20.5197473,1 Z" id="path-1"></path>
    </defs>
    <g id="miu" stroke="none" stroke-width="1" fill="none" fill-rule="evenodd" sketch:type="MSPage">
        <g id="common_bookmark_book_open_outline_stroke">
            <use fill="#000000" fill-rule="evenodd" sketch:type="MSShapeGroup" xlink:href="#path-1"></use>
            <use fill="none" xlink:href="#path-1"></use>
        </g>
    </g>
</svg>