<?xml version="1.0" encoding="UTF-8" standalone="no"?>
<svg width="22px" height="21px" viewBox="0 0 22 21" version="1.1" xmlns="http://www.w3.org/2000/svg" xmlns:xlink="http://www.w3.org/1999/xlink" xmlns:sketch="http://www.bohemiancoding.com/sketch/ns">
    <!-- Generator: Sketch 3.0.1 (7597) - http://www.bohemiancoding.com/sketch -->
    <title>common_calendar_day_glyph</title>
    <description>Created with Sketch.</description>
    <defs></defs>
    <g id="miu" stroke="none" stroke-width="1" fill="none" fill-rule="evenodd" sketch:type="MSPage">
        <path d="M14,2.00000004 L8,2.00000002 L8,2.00000002 L8,3.8714459 C8,4.49876334 7.3280543,5 6.49916725,5 L5.50083275,5 C4.66951005,5 4,4.49472913 4,3.8714459 L3.99951172,2 L0,2 L0,20 C0,21 1.10000002,21 1.10000002,21 L21,21 C21,21 22,21 22,20 L22,2 L18,2.00000005 L18,3.8714459 C18,4.49876334 17.3280543,5 16.4991672,5 L15.5008328,5 C14.66951,5 14,4.49472913 14,3.8714459 L14,2.00000004 L14,2.00000004 Z M16,0 C15.4477152,0 15,0.447207592 15,0.999050678 L15,3.00094933 C15,3.55270978 15.448839,4 16,4 C16.5522847,4 17,3.5527924 17,3.00094933 L17,0.999050678 C17,0.447290222 16.5511609,0 16,0 Z M5,0.752369405 L5,3.2476306 C5,3.66315275 5.33475502,4 5.75041638,4 L6.24958362,4 C6.66402715,4 7,3.66584223 7,3.2476306 L7,0.752369405 C7,0.336847255 6.66524498,0 6.24958362,0 L5.75041638,0 C5.33597285,0 5,0.334157765 5,0.752369405 Z M2,6 L2,7 L20,7 L20,6 L2,6 L2,6 Z M6,11.345021 C6.73724376,11.2828421 7.2514163,11.1789395 7.54253307,11.0333099 C7.83364984,10.8876804 8.05103898,10.5432472 8.19470699,10 L9,10 L9,18 L8.02545166,18 L8.02545166,12.0224404 L6,12.0224404 L6,11.345021 Z M15.51417,11.2454113 C15.8380583,11.8871548 16,12.7663665 16,13.8830728 C16,14.9417683 15.8532403,15.8173543 15.5597166,16.5098572 C15.1346132,17.5032907 14.4396135,18 13.4746963,18 C12.6042467,18 11.9564798,17.5939311 11.5313765,16.7817811 C11.1771237,16.1037809 11,15.1937515 11,14.0516655 C11,13.1670022 11.1062742,12.4074358 11.3188259,11.7729436 C11.7169386,10.5909753 12.4372418,10 13.4797571,10 C14.4176835,10 15.0958144,10.415133 15.51417,11.2454113 C15.51417,11.2454113 15.0958144,10.415133 15.51417,11.2454113 L15.51417,11.2454113 Z M14.5843072,16.3502183 C14.8614371,15.9170284 15,15.1100496 15,13.9292576 C15,13.0768516 14.8998341,12.3755486 14.6994992,11.8253275 C14.4991643,11.2751064 14.1101865,11 13.5325543,11 C13.0016668,11 12.6135238,11.2611327 12.3681135,11.7834061 C12.1227033,12.3056795 12,13.0751041 12,14.0917031 C12,14.8567724 12.0784633,15.4716134 12.2353923,15.9362445 C12.4757942,16.6454184 12.8864746,17 13.4674457,17 C13.9348938,17 14.3071772,16.7834083 14.5843072,16.3502183 C14.5843072,16.3502183 14.3071772,16.7834083 14.5843072,16.3502183 L14.5843072,16.3502183 Z" id="common_calendar_day_glyph" fill="#000000" sketch:type="MSShapeGroup"></path>
    </g>
</svg>