<?xml version="1.0" encoding="UTF-8" standalone="no"?>
<svg width="22px" height="15px" viewBox="0 0 22 15" version="1.1" xmlns="http://www.w3.org/2000/svg" xmlns:xlink="http://www.w3.org/1999/xlink" xmlns:sketch="http://www.bohemiancoding.com/sketch/ns">
    <!-- Generator: Sketch 3.0.1 (7597) - http://www.bohemiancoding.com/sketch -->
    <title>device_laptop_computer_outline_stroke</title>
    <description>Created with Sketch.</description>
    <defs>
        <path d="M2,12 L1,12 L1,2 C1,0 3.00000001,0 3.00000001,0 L19,0 C19,0 21,0 21,2 L21,12 L20,12 L20,1.99687737 C20,1.09090909 18.8991501,1 18.8991501,1 L3.07958466,1 C3.07958466,1 2,1.09090909 2,1.99687737 L2.09086182,12 L2,12 Z M0.970979194,13 C0.970979194,13 -4.8082529e-07,13 0,14 C8.30476874e-07,15 0.970979194,15 0.970979194,15 L20.9968137,15 C20.9968137,15 22,15 22,14 C21.9999995,13 20.9968137,13 20.9968137,13 L0.970979194,13 L0.970979194,13 Z M8.5,13.5 C8.5,13.5 7.99999989,13.5 8,14 C8.00000017,14.5 8.5,14.5 8.5,14.5 L12.5,14.5 C12.5,14.5 13,14.5 13,14 C12.9999999,13.5 12.5,13.5 12.5,13.5 L8.5,13.5 L8.5,13.5 Z" id="path-1"></path>
    </defs>
    <g id="miu" stroke="none" stroke-width="1" fill="none" fill-rule="evenodd" sketch:type="MSPage">
        <g id="device_laptop_computer_outline_stroke">
            <use fill="#000000" fill-rule="evenodd" sketch:type="MSShapeGroup" xlink:href="#path-1"></use>
            <use fill="none" xlink:href="#path-1"></use>
        </g>
    </g>
</svg>