<?xml version="1.0" encoding="UTF-8" standalone="no"?>
<svg width="24px" height="24px" viewBox="0 0 24 24" version="1.1" xmlns="http://www.w3.org/2000/svg" xmlns:xlink="http://www.w3.org/1999/xlink" xmlns:sketch="http://www.bohemiancoding.com/sketch/ns">
    <!-- Generator: Sketch 3.0.1 (7597) - http://www.bohemiancoding.com/sketch -->
    <title>device_smart-phones_iphones_vertical_outline_stroke</title>
    <description>Created with Sketch.</description>
    <defs>
        <path d="M14,11 L22,11 C24,11 24,13 24,13 L24,22 C24,22 24,24 22,24 L4,24 C3,24 2.5,23.5 2.25,23 L9,23 L22,23 C22.4821737,23 22.7068621,22.8502077 22.8555728,22.5527864 C22.9611702,22.3415917 23,22.1086127 23,22 L23,13 C23,12.8913873 22.9611702,12.6584083 22.8555728,12.4472136 C22.7068621,12.1497923 22.4821737,12 22,12 L14,12 L14,11 L14,11 Z M22.5,17.5 C22.5,16.9477152 22.0522848,16.5 21.5,16.5 C20.9477152,16.5 20.5,16.9477152 20.5,17.5 C20.5,18.0522848 20.9477152,18.5 21.5,18.5 C22.0522848,18.5 22.5,18.0522848 22.5,17.5 Z M19,23 L20,23 L20,12 L19,12 L19,23 Z M0,2 L0,20 C0,22 2.00000001,22 2.00000001,22 L11,22 C11,22 13,22 13,20 L13,2 C13,0 11,0 11,0 L2.00000001,0 C2.00000001,0 0,0 0,2 Z M11,1 C11.1086127,1 11.3415917,1.03882982 11.5527864,1.14442719 C11.8502077,1.29313786 12,1.51782625 12,2 L12,20 C12,20.4821737 11.8502077,20.7068621 11.5527864,20.8555728 C11.3415917,20.9611702 11.1086127,21 11,21 L2.00000001,21 C1.89138725,21 1.65840834,20.9611702 1.4472136,20.8555728 C1.14979226,20.7068621 1,20.4821737 1,20 L1,2 C1,1.51782625 1.14979226,1.29313786 1.4472136,1.14442719 C1.65840834,1.03882982 1.89138725,1 2.00000001,1 L11,1 Z M6.5,20.5 C7.05228477,20.5 7.5,20.0522848 7.5,19.5 C7.5,18.9477152 7.05228477,18.5 6.5,18.5 C5.94771523,18.5 5.5,18.9477152 5.5,19.5 C5.5,20.0522848 5.94771523,20.5 6.5,20.5 Z M4.22129529,1.5 C4.09907726,1.5 4.00000001,1.59655358 4.00000001,1.7211029 L4.00000001,1.77966755 C4.00000001,1.9017793 4.09987689,2.00077042 4.22129529,2.00077042 L8.77870471,2.00077042 C8.90092274,2.00077042 8.99999999,1.90421684 8.99999999,1.77966755 L8.99999999,1.7211029 C8.99999999,1.59899114 8.90012311,1.5 8.77870471,1.5 L4.22129529,1.5 Z M1,2.5 L1,3.5 L12,3.5 L12,2.5 L1,2.5 Z M1,17 L1,18 L12,18 L12,17 L1,17 Z" id="path-1"></path>
    </defs>
    <g id="miu" stroke="none" stroke-width="1" fill="none" fill-rule="evenodd" sketch:type="MSPage">
        <g id="device_smart-phones_iphones_vertical_outline_stroke">
            <use fill="#000000" fill-rule="evenodd" sketch:type="MSShapeGroup" xlink:href="#path-1"></use>
            <use fill="none" xlink:href="#path-1"></use>
        </g>
    </g>
</svg>