<?xml version="1.0" encoding="UTF-8" standalone="no"?>
<svg width="22px" height="15px" viewBox="0 0 22 15" version="1.1" xmlns="http://www.w3.org/2000/svg" xmlns:xlink="http://www.w3.org/1999/xlink" xmlns:sketch="http://www.bohemiancoding.com/sketch/ns">
    <!-- Generator: Sketch 3.0.1 (7597) - http://www.bohemiancoding.com/sketch -->
    <title>device_laptop_computer_glyph</title>
    <description>Created with Sketch.</description>
    <defs></defs>
    <g id="miu" stroke="none" stroke-width="1" fill="none" fill-rule="evenodd" sketch:type="MSPage">
        <path d="M1,12 L1,2 C1,0 3.00000001,0 3.00000001,0 L19,0 C19,0 21,0 21,2 L21,12 L1,12 Z M0.970979194,13 C0.970979194,13 -4.8082529e-07,13 0,14 C8.30476874e-07,15 0.970979194,15 0.970979194,15 L20.9968137,15 C20.9968137,15 22,15 22,14 C21.9999995,13 20.9968137,13 20.9968137,13 L0.970979194,13 L0.970979194,13 Z M8.5,13.5 C8.5,13.5 7.99999989,13.5 8,14 C8.00000017,14.5 8.5,14.5 8.5,14.5 L12.5,14.5 C12.5,14.5 13,14.5 13,14 C12.9999999,13.5 12.5,13.5 12.5,13.5 L8.5,13.5 L8.5,13.5 Z" id="device_laptop_computer_glyph" fill="#000000" sketch:type="MSShapeGroup"></path>
    </g>
</svg>