<?xml version="1.0" encoding="UTF-8" standalone="no"?>
<svg width="15px" height="24px" viewBox="0 0 15 24" version="1.1" xmlns="http://www.w3.org/2000/svg" xmlns:xlink="http://www.w3.org/1999/xlink" xmlns:sketch="http://www.bohemiancoding.com/sketch/ns">
    <!-- Generator: Sketch 3.0.1 (7597) - http://www.bohemiancoding.com/sketch -->
    <title>device_smart-phones_iphones_horizontal_outline_stroke</title>
    <description>Created with Sketch.</description>
    <defs>
        <path d="M14,21.75 C14.5,21.5 15,21 15,20 L15,2 C15,0 13,0 13,0 L4.00000001,0 C4.00000001,0 2.74007895,0 2.22023685,1 L13,1 C13.1086127,1 13.3415917,1.03882982 13.5527864,1.14442719 C13.8502077,1.29313786 14,1.51782625 14,2 L14,21.75 Z M0,4 L0,22 C0,24 2.00000001,24 2.00000001,24 L11,24 C11,24 13,24 13,22 L13,4 C13,2 11,2 11,2 L2.00000001,2 C2.00000001,2 0,2 0,4 Z M11,3 C11.1086127,3 11.3415917,3.03882982 11.5527864,3.14442719 C11.8502077,3.29313786 12,3.51782625 12,4 L12,22 C12,22.4821737 11.8502077,22.7068621 11.5527864,22.8555728 C11.3415917,22.9611702 11.1086127,23 11,23 L2.00000001,23 C1.89138725,23 1.65840834,22.9611702 1.4472136,22.8555728 C1.14979226,22.7068621 1,22.4821737 1,22 L1,4 C1,3.51782625 1.14979226,3.29313786 1.4472136,3.14442719 C1.65840834,3.03882982 1.89138725,3 2.00000001,3 L11,3 Z M6.5,22.5 C7.05228477,22.5 7.5,22.0522848 7.5,21.5 C7.5,20.9477152 7.05228477,20.5 6.5,20.5 C5.94771523,20.5 5.5,20.9477152 5.5,21.5 C5.5,22.0522848 5.94771523,22.5 6.5,22.5 Z M4.22129529,3.5 C4.09907726,3.5 4.00000001,3.59655358 4.00000001,3.7211029 L4.00000001,3.77966755 C4.00000001,3.9017793 4.09987689,4.00077042 4.22129529,4.00077042 L8.77870471,4.00077042 C8.90092274,4.00077042 8.99999999,3.90421684 8.99999999,3.77966755 L8.99999999,3.7211029 C8.99999999,3.59899114 8.90012311,3.5 8.77870471,3.5 L4.22129529,3.5 Z M1,4.5 L1,5.5 L12,5.5 L12,4.5 L1,4.5 Z M1,19 L1,20 L12,20 L12,19 L1,19 Z" id="path-1"></path>
    </defs>
    <g id="miu" stroke="none" stroke-width="1" fill="none" fill-rule="evenodd" sketch:type="MSPage">
        <g id="device_smart-phones_iphones_horizontal_outline_stroke">
            <use fill="#000000" fill-rule="evenodd" sketch:type="MSShapeGroup" xlink:href="#path-1"></use>
            <use fill="none" xlink:href="#path-1"></use>
        </g>
    </g>
</svg>