<?xml version="1.0" encoding="UTF-8" standalone="no"?>
<svg width="15px" height="16px" viewBox="0 0 15 16" version="1.1" xmlns="http://www.w3.org/2000/svg" xmlns:xlink="http://www.w3.org/1999/xlink" xmlns:sketch="http://www.bohemiancoding.com/sketch/ns">
    <!-- Generator: Sketch 3.0.1 (7597) - http://www.bohemiancoding.com/sketch -->
    <title>device_volume_loudspeaker_speaker_down_outline_stroke</title>
    <description>Created with Sketch.</description>
    <defs>
        <path d="M3.12499999,4.8 L1.04166667,4.8 C0,4.8 0,5.86666667 0,5.86666667 L0,10.1333333 C0,10.1333333 1.55718031e-11,11.2 1.04166667,11.2 L3.12499999,11.2 L11,16 L11,0 L3.12499999,4.8 L3.12499999,4.8 Z M1.00000012,5.80212402 L1.00000012,10.1168213 L3.12183619,10.1168213 L10,14 L10,2 L3.12183619,5.80212402 L1.00000012,5.80212402 Z M12,13 C12,13 15,11.7565918 15,8 C15,4.2434082 12,3 12,3 L12,4.11111112 C12,4.11111112 14,4.95874023 14,8 C13.9999999,11.0412598 12,11.8888889 12,11.8888889 L12,13 Z" id="path-1"></path>
    </defs>
    <g id="miu" stroke="none" stroke-width="1" fill="none" fill-rule="evenodd" sketch:type="MSPage">
        <g id="device_volume_loudspeaker_speaker_down_outline_stroke">
            <use fill="#000000" fill-rule="evenodd" sketch:type="MSShapeGroup" xlink:href="#path-1"></use>
            <use fill="none" xlink:href="#path-1"></use>
        </g>
    </g>
</svg>