<?xml version="1.0" encoding="UTF-8" standalone="no"?>
<svg width="24px" height="24px" viewBox="0 0 24 24" version="1.1" xmlns="http://www.w3.org/2000/svg" xmlns:xlink="http://www.w3.org/1999/xlink" xmlns:sketch="http://www.bohemiancoding.com/sketch/ns">
    <!-- Generator: Sketch 3.0.1 (7597) - http://www.bohemiancoding.com/sketch -->
    <title>device_smart-phones_iphones_vertical_glyph</title>
    <description>Created with Sketch.</description>
    <defs>
        <path d="M1.75038521,23 C2.00077042,23.5 2.50154083,24 3.50308167,24 L21.5308166,24 C23.5338983,24 23.5338983,22 23.5338983,22 L23.5338983,13 C23.5338983,13 23.5338983,11 21.5308166,11 L14,11 L14,12 L20,12 L20,23 L9,23 L1.75038521,23 L1.75038521,23 Z M22.6999969,17.5 C22.6999969,16.9477152 22.2522817,16.5 21.6999969,16.5 C21.1477122,16.5 20.6999969,16.9477152 20.6999969,17.5 C20.6999969,18.0522848 21.1477122,18.5 21.6999969,18.5 C22.2522817,18.5 22.6999969,18.0522848 22.6999969,17.5 Z M2.00000001,0 C2.00000001,0 0,0 0,2.00308167 L0,20.0308166 C0,22.0338983 2.00000001,22.0338983 2.00000001,22.0338983 L11,22.0338983 C11,22.0338983 13,22.0338983 13,20.0308166 L13,2.00308167 C13,0 11,0 11,0 L2.00000001,0 Z M1,2.5 L1,18.5 L12,18.5 L12,2.5 L1,2.5 Z M6.5,21.1999969 C7.05228477,21.1999969 7.5,20.7522817 7.5,20.1999969 C7.5,19.6477122 7.05228477,19.1999969 6.5,19.1999969 C5.94771523,19.1999969 5.5,19.6477122 5.5,20.1999969 C5.5,20.7522817 5.94771523,21.1999969 6.5,21.1999969 Z M4.22129529,1 C4.09907726,1 4.00000001,1.09655358 4.00000001,1.2211029 L4.00000001,1.27966755 C4.00000001,1.4017793 4.09987689,1.50077042 4.22129529,1.50077042 L8.77870471,1.50077042 C8.90092274,1.50077042 8.99999999,1.40421684 8.99999999,1.27966755 L8.99999999,1.2211029 C8.99999999,1.09899114 8.90012311,1 8.77870471,1 L4.22129529,1 Z" id="path-1"></path>
    </defs>
    <g id="miu" stroke="none" stroke-width="1" fill="none" fill-rule="evenodd" sketch:type="MSPage">
        <g id="device_smart-phones_iphones_vertical_glyph">
            <use fill="#000000" fill-rule="evenodd" sketch:type="MSShapeGroup" xlink:href="#path-1"></use>
            <use fill="none" xlink:href="#path-1"></use>
        </g>
    </g>
</svg>