<?xml version="1.0" encoding="UTF-8" standalone="no"?>
<svg width="20px" height="22px" viewBox="0 0 20 22" version="1.1" xmlns="http://www.w3.org/2000/svg" xmlns:xlink="http://www.w3.org/1999/xlink" xmlns:sketch="http://www.bohemiancoding.com/sketch/ns">
    <!-- Generator: Sketch 3.0.1 (7597) - http://www.bohemiancoding.com/sketch -->
    <title>device_power_glyph</title>
    <description>Created with Sketch.</description>
    <defs>
        <path d="M15.4062368,3.11547206 C18.1697908,4.94024826 20,8.1231911 20,11.7445233 C20,17.408467 15.5228478,22 10,22 C4.47715224,22 0,17.408467 0,11.7445233 C0,8.04556036 1.90951894,4.80398379 4.77276858,3 L6.17063617,7.47772476 C5.02106512,8.56573823 4.30107527,10.1240383 4.30107527,11.8547972 C4.30107527,15.1435387 6.90071204,17.8095902 10.1075269,17.8095902 C13.3143417,17.8095902 15.9139785,15.1435387 15.9139785,11.8547972 C15.9139785,10.1240383 15.1939886,8.56573823 14.0444178,7.47772524 L15.4062368,3.11547206 Z M10,0 C8,-8.30476896e-07 8,2.09523809 8,2.09523809 L8,8.90476191 C8,8.90476191 8,10.9999992 10,11 C12,11.000001 12,8.90476191 12,8.90476191 L12,2.09523809 C12,2.09523809 12,8.30476865e-07 10,0 L10,0 Z" id="path-1"></path>
    </defs>
    <g id="miu" stroke="none" stroke-width="1" fill="none" fill-rule="evenodd" sketch:type="MSPage">
        <g id="device_power_glyph">
            <use fill="#000000" fill-rule="evenodd" sketch:type="MSShapeGroup" xlink:href="#path-1"></use>
            <use fill="none" xlink:href="#path-1"></use>
        </g>
    </g>
</svg>