<?xml version="1.0" encoding="UTF-8" standalone="no"?>
<svg width="12px" height="22px" viewBox="0 0 12 22" version="1.1" xmlns="http://www.w3.org/2000/svg" xmlns:xlink="http://www.w3.org/1999/xlink" xmlns:sketch="http://www.bohemiancoding.com/sketch/ns">
    <!-- Generator: Sketch 3.0.1 (7597) - http://www.bohemiancoding.com/sketch -->
    <title>device_battery_half_outline_stroke</title>
    <description>Created with Sketch.</description>
    <defs>
        <path d="M9.81818182,2 L2.18181818,2 C2.18181818,2 0,2 0,4.10513467 L0,19.8947368 C-5.23186284e-08,21.9827817 2.18181818,22 2.18181818,22 L9.81818182,22 C9.81818182,22 12,22 12,19.8947368 L12,4.10513467 C12,2 9.81818182,2 9.81818182,2 L9.81818182,2 Z M9.88888889,3.00010504 L2.11111111,3.00010504 C2.11111111,3.00010504 1,2.96734528 1,4.05892237 L1,19.9411826 C1.00000004,21 2.11111111,21 2.11111111,21 L9.88888889,21 C9.88888889,21 11,21 11,19.9411827 L11,4.05892237 C11,3.00010504 9.88888889,3.00010504 9.88888889,3.00010504 L9.88888889,3.00010504 Z M3.97021484,1.50268555 L8,1.50268555 C8,1.50268555 8,0 7,0 L5,0 C4,0 4,1.50268555 3.97021484,1.50268555 Z M2,19 L2,20 L10,20 L10,19 L2,19 Z M2,17 L2,18 L10,18 L10,17 L2,17 Z M2,15 L2,16 L10,16 L10,15 L2,15 Z M2,13 L2,14 L10,14 L10,13 L2,13 Z" id="path-1"></path>
    </defs>
    <g id="miu" stroke="none" stroke-width="1" fill="none" fill-rule="evenodd" sketch:type="MSPage">
        <g id="device_battery_half_outline_stroke">
            <use fill="#000000" fill-rule="evenodd" sketch:type="MSShapeGroup" xlink:href="#path-1"></use>
            <use fill="none" xlink:href="#path-1"></use>
        </g>
    </g>
</svg>