<?xml version="1.0" encoding="UTF-8" standalone="no"?>
<svg width="23px" height="13px" viewBox="0 0 23 13" version="1.1" xmlns="http://www.w3.org/2000/svg" xmlns:xlink="http://www.w3.org/1999/xlink" xmlns:sketch="http://www.bohemiancoding.com/sketch/ns">
    <!-- Generator: Sketch 3.0.1 (7597) - http://www.bohemiancoding.com/sketch -->
    <title>device_smart-phone_horizontal_glyph</title>
    <description>Created with Sketch.</description>
    <defs>
        <path d="M6.50000001,-4.5 C6.50000001,-4.5 4.5,-4.5 4.5,-2.49691833 L4.5,15.5308166 C4.5,17.5338983 6.50000001,17.5338983 6.50000001,17.5338983 L15.5,17.5338983 C15.5,17.5338983 17.5,17.5338983 17.5,15.5308166 L17.5,-2.49691833 C17.5,-4.5 15.5,-4.5 15.5,-4.5 L6.50000001,-4.5 L6.50000001,-4.5 Z M5.5,-2 L5.5,14 L16.5,14 L16.5,-2 L5.5,-2 L5.5,-2 Z M11,16.6999969 C11.5522848,16.6999969 12,16.2522817 12,15.6999969 C12,15.1477122 11.5522848,14.6999969 11,14.6999969 C10.4477152,14.6999969 10,15.1477122 10,15.6999969 C10,16.2522817 10.4477152,16.6999969 11,16.6999969 L11,16.6999969 Z M8.72129529,-3.5 C8.59907726,-3.5 8.50000001,-3.40344642 8.50000001,-3.2788971 L8.50000001,-3.22033245 C8.50000001,-3.0982207 8.59987689,-2.99922958 8.72129529,-2.99922958 L13.2787047,-2.99922958 C13.4009227,-2.99922958 13.5,-3.09578316 13.5,-3.22033245 L13.5,-3.2788971 C13.5,-3.40100886 13.4001231,-3.5 13.2787047,-3.5 L8.72129529,-3.5 L8.72129529,-3.5 Z" id="path-1"></path>
    </defs>
    <g id="miu" stroke="none" stroke-width="1" fill="none" fill-rule="evenodd" sketch:type="MSPage">
        <g id="device_smart-phone_horizontal_glyph">
            <use fill="#000000" fill-rule="evenodd" sketch:type="MSShapeGroup" transform="translate(11.000000, 6.500000) rotate(-90.000000) translate(-11.000000, -6.500000) " xlink:href="#path-1"></use>
            <use fill="none" xlink:href="#path-1"></use>
        </g>
    </g>
</svg>