<?xml version="1.0" encoding="UTF-8" standalone="no"?>
<svg width="11px" height="22px" viewBox="0 0 11 22" version="1.1" xmlns="http://www.w3.org/2000/svg" xmlns:xlink="http://www.w3.org/1999/xlink" xmlns:sketch="http://www.bohemiancoding.com/sketch/ns">
    <!-- Generator: Sketch 3.0.1 (7597) - http://www.bohemiancoding.com/sketch -->
    <title>device_iPhone_smart-phone_vertical_outline_stroke</title>
    <description>Created with Sketch.</description>
    <defs>
        <path d="M0,2 L0,20 C0,22 2.00000001,22 2.00000001,22 L8.99999999,22 C8.99999999,22 11,22 11,20 L11,2 C11,0 8.99999999,0 8.99999999,0 L2.00000001,0 C2.00000001,0 0,0 0,2 Z M8.99999999,1 C9.10861275,1 9.34159166,1.03882982 9.5527864,1.14442719 C9.85020774,1.29313786 10,1.51782625 10,2 L10,20 C10,20.4821737 9.85020774,20.7068621 9.5527864,20.8555728 C9.34159166,20.9611702 9.10861275,21 8.99999999,21 L2.00000001,21 C1.89138725,21 1.65840834,20.9611702 1.4472136,20.8555728 C1.14979226,20.7068621 1,20.4821737 1,20 L1,2 C1,1.51782625 1.14979226,1.29313786 1.4472136,1.14442719 C1.65840834,1.03882982 1.89138725,1 2.00000001,1 L8.99999999,1 Z M5.5,20.5 C6.05228477,20.5 6.5,20.0522848 6.5,19.5 C6.5,18.9477152 6.05228477,18.5 5.5,18.5 C4.94771523,18.5 4.5,18.9477152 4.5,19.5 C4.5,20.0522848 4.94771523,20.5 5.5,20.5 L5.5,20.5 Z M4.13277718,1.5 C4.05944636,1.5 4.00000001,1.59655358 4.00000001,1.7211029 L4.00000001,1.77966755 C4.00000001,1.9017793 4.05992614,2.00077042 4.13277718,2.00077042 L6.86722284,2.00077042 C6.94055366,2.00077042 7.00000001,1.90421684 7.00000001,1.77966755 L7.00000001,1.7211029 C7.00000001,1.59899114 6.94007388,1.5 6.86722284,1.5 L4.13277718,1.5 L4.13277718,1.5 Z M1,2.5 L1,3.5 L10,3.5 L10,2.5 L1,2.5 L1,2.5 Z M1,17 L1,18 L10,18 L10,17 L1,17 L1,17 Z" id="path-1"></path>
    </defs>
    <g id="miu" stroke="none" stroke-width="1" fill="none" fill-rule="evenodd" sketch:type="MSPage">
        <g id="device_iPhone_smart-phone_vertical_outline_stroke">
            <use fill="#000000" fill-rule="evenodd" sketch:type="MSShapeGroup" xlink:href="#path-1"></use>
            <use fill="none" xlink:href="#path-1"></use>
        </g>
    </g>
</svg>