<?xml version="1.0" encoding="UTF-8" standalone="no"?>
<svg width="24px" height="24px" viewBox="0 0 24 24" version="1.1" xmlns="http://www.w3.org/2000/svg" xmlns:xlink="http://www.w3.org/1999/xlink" xmlns:sketch="http://www.bohemiancoding.com/sketch/ns">
    <!-- Generator: Sketch 3.0.1 (7597) - http://www.bohemiancoding.com/sketch -->
    <title>device_tablets_ipads_horizontal_glyph</title>
    <description>Created with Sketch.</description>
    <defs>
        <path d="M16,8 L22,8 C24,8 24,10.0606061 24,10.0606061 L24,21.9393939 C24,21.9393939 24,24 22,24 L4,24 C3.01961036,24 2.51980264,23.504855 2.26499808,23 L10.5172511,23 L19.9654979,23 C21,23 21,21.8888889 21,21.8888889 L21,10.1111111 C21,10.1111111 21,9 19.9654979,9 L17,9 L17,8 L16,8 L16,2 C16,0 13.9393939,0 13.9393939,0 L2.06060606,0 C2.06060606,0 0,0 0,2 L0,20 C0,22 2.06060606,22 2.06060606,22 L13.9393939,22 C13.9393939,22 16,22 16,20 L16,8 L16,8 Z M22.4942627,15.2506752 C22.0800492,15.2506752 21.7442627,15.597504 21.7442627,16.0253391 C21.7442627,16.4531742 22.0800492,16.8000031 22.4942627,16.8000031 C22.9084763,16.8000031 23.2442627,16.4531742 23.2442627,16.0253391 C23.2442627,15.597504 22.9084763,15.2506752 22.4942627,15.2506752 Z M1,2.03450212 L1,17.9654979 C1,19 2.11111111,19 2.11111111,19 L13.8888889,19 C13.8888889,19 15,19 15,17.9654979 L15,2.03450212 C15,1 13.8888889,1 13.8888889,1 L2.11111111,1 C2.11111111,1 1,1 1,2.03450212 Z M8.74932481,20.4942627 C8.74932481,20.0800492 8.40249596,19.7442627 7.97466088,19.7442627 C7.54682578,19.7442627 7.19999695,20.0800492 7.19999695,20.4942627 C7.19999695,20.9084763 7.54682578,21.2442627 7.97466088,21.2442627 C8.40249596,21.2442627 8.74932481,20.9084763 8.74932481,20.4942627 Z" id="path-1"></path>
    </defs>
    <g id="miu" stroke="none" stroke-width="1" fill="none" fill-rule="evenodd" sketch:type="MSPage">
        <g id="device_tablets_ipads_horizontal_glyph">
            <use fill="#000000" fill-rule="evenodd" sketch:type="MSShapeGroup" xlink:href="#path-1"></use>
            <use fill="none" xlink:href="#path-1"></use>
        </g>
    </g>
</svg>