<?xml version="1.0" encoding="UTF-8" standalone="no"?>
<svg width="23px" height="11px" viewBox="0 0 23 11" version="1.1" xmlns="http://www.w3.org/2000/svg" xmlns:xlink="http://www.w3.org/1999/xlink" xmlns:sketch="http://www.bohemiancoding.com/sketch/ns">
    <!-- Generator: Sketch 3.0.1 (7597) - http://www.bohemiancoding.com/sketch -->
    <title>device_iPhone_smart-phone_horizontal_glyph</title>
    <description>Created with Sketch.</description>
    <defs>
        <path d="M5.5,-3.49691833 L5.5,14.5308166 C5.5,16.5338983 7.50000001,16.5338983 7.50000001,16.5338983 L14.5,16.5338983 C14.5,16.5338983 16.5,16.5338983 16.5,14.5308166 L16.5,-3.49691833 C16.5,-5.5 14.5,-5.5 14.5,-5.5 L7.50000001,-5.5 C7.50000001,-5.5 5.5,-5.5 5.5,-3.49691833 Z M6.5,-3 L6.5,13 L15.5,13 L15.5,-3 L6.5,-3 L6.5,-3 Z M11,15.6999969 C11.5522848,15.6999969 12,15.2522817 12,14.6999969 C12,14.1477122 11.5522848,13.6999969 11,13.6999969 C10.4477152,13.6999969 10,14.1477122 10,14.6999969 C10,15.2522817 10.4477152,15.6999969 11,15.6999969 L11,15.6999969 Z M9.63277718,-4.5 C9.55944636,-4.5 9.50000001,-4.40344642 9.50000001,-4.2788971 L9.50000001,-4.22033245 C9.50000001,-4.0982207 9.55992614,-3.99922958 9.63277718,-3.99922958 L12.3672228,-3.99922958 C12.4405537,-3.99922958 12.5,-4.09578316 12.5,-4.22033245 L12.5,-4.2788971 C12.5,-4.40100886 12.4400739,-4.5 12.3672228,-4.5 L9.63277718,-4.5 L9.63277718,-4.5 Z" id="path-1"></path>
    </defs>
    <g id="miu" stroke="none" stroke-width="1" fill="none" fill-rule="evenodd" sketch:type="MSPage">
        <g id="device_iPhone_smart-phone_horizontal_glyph">
            <use fill="#000000" fill-rule="evenodd" sketch:type="MSShapeGroup" transform="translate(11.000000, 5.500000) rotate(-90.000000) translate(-11.000000, -5.500000) " xlink:href="#path-1"></use>
            <use fill="none" xlink:href="#path-1"></use>
        </g>
    </g>
</svg>