<?xml version="1.0" encoding="UTF-8" standalone="no"?>
<svg width="22px" height="22px" viewBox="0 0 22 22" version="1.1" xmlns="http://www.w3.org/2000/svg" xmlns:xlink="http://www.w3.org/1999/xlink" xmlns:sketch="http://www.bohemiancoding.com/sketch/ns">
    <!-- Generator: Sketch 3.0.1 (7597) - http://www.bohemiancoding.com/sketch -->
    <title>device_projector_screen_content_chart_presentation_outline_stroke</title>
    <description>Created with Sketch.</description>
    <defs>
        <path d="M3.35294117,4 C3.35294117,4 1,4 1,6.28571429 L1,17.7142857 C1,20 3.35294117,20 3.35294117,20 L18.6470588,20 C18.6470588,20 21,20 21,17.7142857 L21,6.28571429 C21,4 18.6470588,4 18.6470588,4 L3.35294117,4 L3.35294117,4 Z M3.20000001,5 C3.20000001,5 2,5 2,6.16666666 L2,17.8333333 C2,19 3.20000001,19 3.20000001,19 L18.8,19 C18.8,19 20,19 20,17.8333333 L20,6.16666666 C20,5 18.8,5 18.8,5 L3.20000001,5 L3.20000001,5 Z M7,17 C8.65685434,17 10,15.6568543 10,14 L7,14 L7,11 C5.34314566,11 4,12.3431457 4,14 C4,15.6568543 5.34314566,17 7,17 L7,17 Z M0.578947369,21 C0.578947369,21 7.43058274e-07,21 0,21.5 C-3.30809602e-07,22 0.578947369,22 0.578947369,22 L21.4210526,22 C21.4210526,22 22,22 22,21.5 C21.9999996,21 21.4210526,21 21.4210526,21 L0.578947369,21 L0.578947369,21 Z M0.578947369,2 C0.578947369,2 7.43058274e-07,2 0,2.5 C-3.30809602e-07,3 0.578947369,3 0.578947369,3 L21.4210526,3 C21.4210526,3 22,3 22,2.5 C21.9999996,2 21.4210526,2 21.4210526,2 L0.578947369,2 L0.578947369,2 Z M12,10 L12,11 L13,11 L13,10 L12,10 L12,10 Z M14,10 L14,11 L18,11 L18,10 L14,10 L14,10 Z M4,7 L4,8 L18,8 L18,7 L4,7 L4,7 Z M12,13 L12,14 L13,14 L13,13 L12,13 L12,13 Z M14,13 L14,14 L18,14 L18,13 L14,13 L14,13 Z M12,16 L12,17 L13,17 L13,16 L12,16 L12,16 Z M14,16 L14,17 L18,17 L18,16 L14,16 L14,16 Z M10,0 L10,2 L12,2 L12,0 L10,0 Z" id="path-1"></path>
    </defs>
    <g id="miu" stroke="none" stroke-width="1" fill="none" fill-rule="evenodd" sketch:type="MSPage">
        <g id="device_projector_screen_content_chart_presentation_outline_stroke">
            <use fill="#000000" fill-rule="evenodd" sketch:type="MSShapeGroup" xlink:href="#path-1"></use>
            <use fill="none" xlink:href="#path-1"></use>
        </g>
    </g>
</svg>