<?xml version="1.0" encoding="UTF-8" standalone="no"?>
<svg width="22px" height="13px" viewBox="0 0 22 13" version="1.1" xmlns="http://www.w3.org/2000/svg" xmlns:xlink="http://www.w3.org/1999/xlink" xmlns:sketch="http://www.bohemiancoding.com/sketch/ns">
    <!-- Generator: Sketch 3.0.1 (7597) - http://www.bohemiancoding.com/sketch -->
    <title>device_smart-phone_horizontal_outline_stroke</title>
    <description>Created with Sketch.</description>
    <defs>
        <path d="M4.5,-2.5 L4.5,15.5 C4.5,17.5 6.50000001,17.5 6.50000001,17.5 L15.5,17.5 C15.5,17.5 17.5,17.5 17.5,15.5 L17.5,-2.5 C17.5,-4.5 15.5,-4.5 15.5,-4.5 L6.50000001,-4.5 C6.50000001,-4.5 4.5,-4.5 4.5,-2.5 Z M15.5,-3.5 C15.6086127,-3.5 15.8415917,-3.46117018 16.0527864,-3.35557281 C16.3502077,-3.20686214 16.5,-2.98217375 16.5,-2.5 L16.5,15.5 C16.5,15.9821737 16.3502077,16.2068621 16.0527864,16.3555728 C15.8415917,16.4611702 15.6086127,16.5 15.5,16.5 L6.50000001,16.5 C6.39138725,16.5 6.15840834,16.4611702 5.9472136,16.3555728 C5.64979226,16.2068621 5.5,15.9821737 5.5,15.5 L5.5,-2.5 C5.5,-2.98217375 5.64979226,-3.20686214 5.9472136,-3.35557281 C6.15840834,-3.46117018 6.39138725,-3.5 6.50000001,-3.5 L15.5,-3.5 Z M11,16 C11.5522848,16 12,15.5522848 12,15 C12,14.4477152 11.5522848,14 11,14 C10.4477152,14 10,14.4477152 10,15 C10,15.5522848 10.4477152,16 11,16 L11,16 Z M8.72129529,-3 C8.59907726,-3 8.50000001,-2.90344642 8.50000001,-2.7788971 L8.50000001,-2.72033245 C8.50000001,-2.5982207 8.59987689,-2.49922958 8.72129529,-2.49922958 L13.2787047,-2.49922958 C13.4009227,-2.49922958 13.5,-2.59578316 13.5,-2.72033245 L13.5,-2.7788971 C13.5,-2.90100886 13.4001231,-3 13.2787047,-3 L8.72129529,-3 L8.72129529,-3 Z M5.5,-2 L5.5,-1 L16.5,-1 L16.5,-2 L5.5,-2 L5.5,-2 Z M5.5,12.5 L5.5,13.5 L16.5,13.5 L16.5,12.5 L5.5,12.5 L5.5,12.5 Z" id="path-1"></path>
    </defs>
    <g id="miu" stroke="none" stroke-width="1" fill="none" fill-rule="evenodd" sketch:type="MSPage">
        <g id="device_smart-phone_horizontal_outline_stroke">
            <use fill="#000000" fill-rule="evenodd" sketch:type="MSShapeGroup" transform="translate(11.000000, 6.500000) rotate(-90.000000) translate(-11.000000, -6.500000) " xlink:href="#path-1"></use>
            <use fill="none" xlink:href="#path-1"></use>
        </g>
    </g>
</svg>