<?xml version="1.0" encoding="UTF-8" standalone="no"?>
<svg width="22px" height="15px" viewBox="0 0 22 15" version="1.1" xmlns="http://www.w3.org/2000/svg" xmlns:xlink="http://www.w3.org/1999/xlink" xmlns:sketch="http://www.bohemiancoding.com/sketch/ns">
    <!-- Generator: Sketch 3.0.1 (7597) - http://www.bohemiancoding.com/sketch -->
    <title>device_camera_recorder_video_outline_stroke</title>
    <description>Created with Sketch.</description>
    <defs>
        <path d="M17.0809326,6.07843342 L17.0809326,4.82508652 L22,0.918524548 L22,14.9185245 L17.0809326,11.0473087 L17.0809326,9.82265319 L21,12.761298 L21,3.13837318 L17.0809326,6.07843342 Z M0,2.91852455 L0,12.9185246 C0,14.9185245 2,14.9185245 2,14.9185245 L13.9160156,14.9185245 C13.9160156,14.9185245 15.9160156,14.9185245 15.9160156,12.9185246 L15.9160156,2.91852455 C15.9160156,0.918524549 13.9160156,0.918524549 13.9160156,0.918524549 L2,0.918524548 C2,0.918524548 0,0.918524548 0,2.91852455 Z M1,2.93704307 L1,12.900006 C1,13.9185245 2.01111111,13.9185245 2.01111111,13.9185245 L14.0201416,13.9185245 C14.0201416,13.9185245 15.0312527,13.9185245 15.0312527,12.900006 L15.0312527,2.93704307 C15.0312527,1.91852455 14.0201416,1.91852455 14.0201416,1.91852455 L2.01111111,1.91852455 C2.01111111,1.91852455 1,1.91852455 1,2.93704307 Z" id="path-1"></path>
    </defs>
    <g id="miu" stroke="none" stroke-width="1" fill="none" fill-rule="evenodd" sketch:type="MSPage">
        <g id="device_camera_recorder_video_outline_stroke">
            <use fill="#000000" fill-rule="evenodd" sketch:type="MSShapeGroup" xlink:href="#path-1"></use>
            <use fill="none" xlink:href="#path-1"></use>
        </g>
    </g>
</svg>