<?xml version="1.0" encoding="UTF-8" standalone="no"?>
<svg width="22px" height="17px" viewBox="0 0 22 17" version="1.1" xmlns="http://www.w3.org/2000/svg" xmlns:xlink="http://www.w3.org/1999/xlink" xmlns:sketch="http://www.bohemiancoding.com/sketch/ns">
    <!-- Generator: Sketch 3.0.1 (7597) - http://www.bohemiancoding.com/sketch -->
    <title>device_camera_capture_photo_outline_stroke</title>
    <description>Created with Sketch.</description>
    <defs>
        <path d="M15.5824139,3.95836944 L19.9888889,3.95836944 C19.9888889,3.95836944 21,3.95836944 21,4.97688795 L21,14.9398509 C21,15.9583694 19.9888889,15.9583694 19.9888889,15.9583694 L2.01111111,15.9583694 C2.01111111,15.9583694 1,15.9583694 1,14.9398509 L1,4.97688795 C1,3.95836944 2.01111111,3.95836944 2.01111111,3.95836944 L7.47366234,3.95836944 L8.58720684,1.95836944 L14.314929,1.95836944 L15.5824139,3.95836944 Z M16.2,2.95836944 L20,2.95836944 C20,2.95836944 22,2.95836944 22,4.95836943 L22,14.9583694 C22,16.9583694 20,16.9583694 20,16.9583694 L2,16.9583694 C2,16.9583694 0,16.9583694 0,14.9583694 L0,4.95836943 C0,2.95836944 2,2.95836944 2,2.95836944 L6.8,2.95836944 L7.73871995,1.39383621 C7.88229752,1.15454025 8.22539005,0.95836944 8.50342275,0.95836944 L14.4965773,0.95836944 C14.7670975,0.95836944 15.1169791,1.15333455 15.2612801,1.39383621 L16.2,2.95836944 L16.2,2.95836944 Z M11.5,13.9583694 C13.9852815,13.9583694 16,11.9436509 16,9.45836944 C16,6.97308795 13.9852815,4.95836944 11.5,4.95836944 C9.01471851,4.95836944 7,6.97308795 7,9.45836944 C7,11.9436509 9.01471851,13.9583694 11.5,13.9583694 Z M11.5,12.9583694 C13.4329967,12.9583694 15,11.3913661 15,9.45836944 C15,7.52537273 13.4329967,5.95836944 11.5,5.95836944 C9.56700329,5.95836944 8,7.52537273 8,9.45836944 C8,11.3913661 9.56700329,12.9583694 11.5,12.9583694 Z M17,6.95836944 C17.5522848,6.95836944 18,6.51065421 18,5.95836944 C18,5.40608467 17.5522848,4.95836944 17,4.95836944 C16.4477152,4.95836944 16,5.40608467 16,5.95836944 C16,6.51065421 16.4477152,6.95836944 17,6.95836944 Z M4.22167658,1.45836944 C4.099248,1.45836944 4,1.54711277 4,1.65833094 L4,2.25840794 C4,2.36884363 4.09918031,2.45836944 4.22167658,2.45836944 L5.77832342,2.45836944 C5.900752,2.45836944 6,2.36962611 6,2.25840794 L6,1.65833094 C6,1.54789525 5.90081969,1.45836944 5.77832342,1.45836944 L4.22167658,1.45836944 Z" id="path-1"></path>
    </defs>
    <g id="miu" stroke="none" stroke-width="1" fill="none" fill-rule="evenodd" sketch:type="MSPage">
        <g id="device_camera_capture_photo_outline_stroke">
            <use fill="#000000" fill-rule="evenodd" sketch:type="MSShapeGroup" xlink:href="#path-1"></use>
            <use fill="none" xlink:href="#path-1"></use>
        </g>
    </g>
</svg>