<?xml version="1.0" encoding="UTF-8" standalone="no"?>
<svg width="22px" height="22px" viewBox="0 0 22 22" version="1.1" xmlns="http://www.w3.org/2000/svg" xmlns:xlink="http://www.w3.org/1999/xlink" xmlns:sketch="http://www.bohemiancoding.com/sketch/ns">
    <!-- Generator: Sketch 3.0.1 (7597) - http://www.bohemiancoding.com/sketch -->
    <title>device_monitor_screen_glyph</title>
    <description>Created with Sketch.</description>
    <defs></defs>
    <g id="miu" stroke="none" stroke-width="1" fill="none" fill-rule="evenodd" sketch:type="MSPage">
        <path d="M0,2 L0,16 C0,18 2,18 2,18 L20,18 C20,18 22,18 22,16 L22,2 C22,-2.35922393e-16 20,0 20,0 L2,0 C2,0 0,0 0,2 Z M1,2.04 L1,12.96 C1,14 2,14 2,14 L20,14 C20,14 21,14 21,12.96 L21,2.04 C21,1 20,1 20,1 L2,1 C2,1 1,1 1,2.04 Z M7.8,18 L7.8,20 L6,22 L16,22 L13.8,20 L13.8,18 L7.8,18 Z" id="device_monitor_screen_glyph" fill="#000000" sketch:type="MSShapeGroup"></path>
    </g>
</svg>