<?xml version="1.0" encoding="UTF-8" standalone="no"?>
<svg width="22px" height="16px" viewBox="0 0 22 16" version="1.1" xmlns="http://www.w3.org/2000/svg" xmlns:xlink="http://www.w3.org/1999/xlink" xmlns:sketch="http://www.bohemiancoding.com/sketch/ns">
    <!-- Generator: Sketch 3.0.1 (7597) - http://www.bohemiancoding.com/sketch -->
    <title>device_tablet_ipad_horizontal_outline_stroke</title>
    <description>Created with Sketch.</description>
    <defs>
        <path d="M3,-1 L3,17 C3,19 5.06060606,19 5.06060606,19 L16.9393939,19 C16.9393939,19 19,19 19,17 L19,-1 C19,-3 16.9393939,-3 16.9393939,-3 L5.06060606,-3 C5.06060606,-3 3,-3 3,-1 Z M4,-0.965497885 L4,16.9654979 C4,18 5.11111111,18 5.11111111,18 L16.8888889,18 C16.8888889,18 18,18 18,16.9654979 L18,-0.965497885 C18,-2 16.8888889,-2 16.8888889,-2 L5.11111111,-2 C5.11111111,-2 4,-2 4,-0.965497885 Z M11.7493248,16.9500122 C11.7493248,16.5357986 11.402496,16.2000122 10.9746609,16.2000122 C10.5468258,16.2000122 10.1999969,16.5357986 10.1999969,16.9500122 C10.1999969,17.3642258 10.5468258,17.7000122 10.9746609,17.7000122 C11.402496,17.7000122 11.7493248,17.3642258 11.7493248,16.9500122 Z M4,15 L4,16 L18,16 L18,15 L4,15 Z" id="path-1"></path>
    </defs>
    <g id="miu" stroke="none" stroke-width="1" fill="none" fill-rule="evenodd" sketch:type="MSPage">
        <g id="device_tablet_ipad_horizontal_outline_stroke">
            <use fill="#000000" fill-rule="evenodd" sketch:type="MSShapeGroup" transform="translate(11.000000, 8.000000) rotate(-90.000000) translate(-11.000000, -8.000000) " xlink:href="#path-1"></use>
            <use fill="none" xlink:href="#path-1"></use>
        </g>
    </g>
</svg>