<?xml version="1.0" encoding="UTF-8" standalone="no"?>
<svg width="18px" height="24px" viewBox="0 0 18 24" version="1.1" xmlns="http://www.w3.org/2000/svg" xmlns:xlink="http://www.w3.org/1999/xlink" xmlns:sketch="http://www.bohemiancoding.com/sketch/ns">
    <!-- Generator: Sketch 3.0.1 (7597) - http://www.bohemiancoding.com/sketch -->
    <title>device_tablets_ipads_vertical_glyph</title>
    <description>Created with Sketch.</description>
    <defs>
        <path d="M16,21.9978409 C16.0578289,21.9946328 16.153708,21.9866583 16.2730439,21.9668352 L16,21.9674281 L16,4 C16,2 13.9393939,2 13.9393939,2 L2.06060606,2 C2.06060606,2 0,2 0,4 L0,22 C0,24 2.06060606,24 2.06060606,24 L13.9393939,24 C13.9393939,24 16,24 16,22 L16,21.9978409 L16,21.9978409 Z M16.8888889,21.7872331 C17.4295162,21.5509659 18,21.0523354 18,20 L18,2 C18,0 15.9393939,0 15.9393939,0 L4.06060606,0 C4.06060606,0 2.76250559,0 2.22691069,1 L15.7777778,1 C15.7777778,1 16.8888889,1 16.8888889,2.03450212 L16.8888889,21.7872331 L16.8888889,21.7872331 Z M1,4.03450212 L1,19.9654979 C1,21 2.11111111,21 2.11111111,21 L13.8888889,21 C13.8888889,21 15,21 15,19.9654979 L15,4.03450212 C15,3 13.8888889,3 13.8888889,3 L2.11111111,3 C2.11111111,3 1,3 1,4.03450212 Z M8.74932481,22.4942627 C8.74932481,22.0800492 8.40249596,21.7442627 7.97466088,21.7442627 C7.54682578,21.7442627 7.19999695,22.0800492 7.19999695,22.4942627 C7.19999695,22.9084763 7.54682578,23.2442627 7.97466088,23.2442627 C8.40249596,23.2442627 8.74932481,22.9084763 8.74932481,22.4942627 Z" id="path-1"></path>
    </defs>
    <g id="miu" stroke="none" stroke-width="1" fill="none" fill-rule="evenodd" sketch:type="MSPage">
        <g id="device_tablets_ipads_vertical_glyph">
            <use fill="#000000" fill-rule="evenodd" sketch:type="MSShapeGroup" xlink:href="#path-1"></use>
            <use fill="none" xlink:href="#path-1"></use>
        </g>
    </g>
</svg>