<?xml version="1.0" encoding="UTF-8" standalone="no"?>
<svg width="17px" height="23px" viewBox="0 0 17 23" version="1.1" xmlns="http://www.w3.org/2000/svg" xmlns:xlink="http://www.w3.org/1999/xlink" xmlns:sketch="http://www.bohemiancoding.com/sketch/ns">
    <!-- Generator: Sketch 3.0.1 (7597) - http://www.bohemiancoding.com/sketch -->
    <title>device_board_presentation_empty_outline_stroke</title>
    <description>Created with Sketch.</description>
    <defs>
        <path d="M9.03092146,19.0416306 L11.1328134,22.0350388 L12.1420898,22.0350388 L10.0401979,19.0416306 L16.5,19.0416306 C16.5,19.0416306 17,19.1307395 17,18.586185 C16.9999996,18.0416306 16.5,18.0416306 16.5,18.0416306 L0.499999999,18.0416306 C0.499999999,18.0416306 6.41732146e-07,18.0416306 0,18.586185 C-2.85699201e-07,19.1307395 0.5,19.0416306 0.5,19.0416306 L7.62213976,19.0416306 L5.51871322,22.0350388 L6.52798966,22.0350388 L8.6314162,19.0416306 L9.03092146,19.0416306 Z M2,3.04163056 C2,3.04163056 0,3.04163056 0,5.04163055 L0,15.0416306 C0,17.0416306 2,17.0416306 2,17.0416306 L15,17.0416306 C15,17.0416306 17,17.0416306 17,15.0416306 L17,5.04163055 C17,3.04163056 15,3.04163056 15,3.04163056 L2,3.04163056 L2,3.04163056 Z M2,4.04163056 C2,4.04163056 1,4.04163056 1,5.04163056 L1,15.0416306 C1,16.0416306 2,16.0416306 2,16.0416306 L15,16.0416306 C15,16.0416306 16,16.0416306 16,15.0416306 L16,5.04163056 C16,4.04163056 15,4.04163056 15,4.04163056 L2,4.04163056 L2,4.04163056 Z M9,1.04163056 L9.05194805,0.0416305603 L8,0.0416305603 L8.00000002,1.04163056 L7,1.04163056 L6.99999999,2.04163056 L10,2.04163056 L10,1.04163056 L9,1.04163056 Z" id="path-1"></path>
    </defs>
    <g id="miu" stroke="none" stroke-width="1" fill="none" fill-rule="evenodd" sketch:type="MSPage">
        <g id="device_board_presentation_empty_outline_stroke">
            <use fill="#000000" fill-rule="evenodd" sketch:type="MSShapeGroup" xlink:href="#path-1"></use>
            <use fill="none" xlink:href="#path-1"></use>
        </g>
    </g>
</svg>