<?xml version="1.0" encoding="UTF-8" standalone="no"?>
<svg width="22px" height="11px" viewBox="0 0 22 11" version="1.1" xmlns="http://www.w3.org/2000/svg" xmlns:xlink="http://www.w3.org/1999/xlink" xmlns:sketch="http://www.bohemiancoding.com/sketch/ns">
    <!-- Generator: Sketch 3.0.1 (7597) - http://www.bohemiancoding.com/sketch -->
    <title>device_iPhone_smart-phone_horizontal_outline_stroke</title>
    <description>Created with Sketch.</description>
    <defs>
        <path d="M5.5,-3.5 L5.5,14.5 C5.5,16.5 7.50000001,16.5 7.50000001,16.5 L14.5,16.5 C14.5,16.5 16.5,16.5 16.5,14.5 L16.5,-3.5 C16.5,-5.5 14.5,-5.5 14.5,-5.5 L7.50000001,-5.5 C7.50000001,-5.5 5.5,-5.5 5.5,-3.5 Z M14.5,-4.5 C14.6086127,-4.5 14.8415917,-4.46117018 15.0527864,-4.35557281 C15.3502077,-4.20686214 15.5,-3.98217375 15.5,-3.5 L15.5,14.5 C15.5,14.9821737 15.3502077,15.2068621 15.0527864,15.3555728 C14.8415917,15.4611702 14.6086127,15.5 14.5,15.5 L7.50000001,15.5 C7.39138725,15.5 7.15840834,15.4611702 6.9472136,15.3555728 C6.64979226,15.2068621 6.5,14.9821737 6.5,14.5 L6.5,-3.5 C6.5,-3.98217375 6.64979226,-4.20686214 6.9472136,-4.35557281 C7.15840834,-4.46117018 7.39138725,-4.5 7.50000001,-4.5 L14.5,-4.5 Z M11,15 C11.5522848,15 12,14.5522848 12,14 C12,13.4477152 11.5522848,13 11,13 C10.4477152,13 10,13.4477152 10,14 C10,14.5522848 10.4477152,15 11,15 L11,15 Z M9.63277718,-4 C9.55944636,-4 9.50000001,-3.90344642 9.50000001,-3.7788971 L9.50000001,-3.72033245 C9.50000001,-3.5982207 9.55992614,-3.49922958 9.63277718,-3.49922958 L12.3672228,-3.49922958 C12.4405537,-3.49922958 12.5,-3.59578316 12.5,-3.72033245 L12.5,-3.7788971 C12.5,-3.90100886 12.4400739,-4 12.3672228,-4 L9.63277718,-4 L9.63277718,-4 Z M6.5,-3 L6.5,-2 L15.5,-2 L15.5,-3 L6.5,-3 L6.5,-3 Z M6.5,11.5 L6.5,12.5 L15.5,12.5 L15.5,11.5 L6.5,11.5 L6.5,11.5 Z" id="path-1"></path>
    </defs>
    <g id="miu" stroke="none" stroke-width="1" fill="none" fill-rule="evenodd" sketch:type="MSPage">
        <g id="device_iPhone_smart-phone_horizontal_outline_stroke">
            <use fill="#000000" fill-rule="evenodd" sketch:type="MSShapeGroup" transform="translate(11.000000, 5.500000) rotate(-90.000000) translate(-11.000000, -5.500000) " xlink:href="#path-1"></use>
            <use fill="none" xlink:href="#path-1"></use>
        </g>
    </g>
</svg>