<?xml version="1.0" encoding="UTF-8" standalone="no"?>
<svg width="12px" height="22px" viewBox="0 0 12 22" version="1.1" xmlns="http://www.w3.org/2000/svg" xmlns:xlink="http://www.w3.org/1999/xlink" xmlns:sketch="http://www.bohemiancoding.com/sketch/ns">
    <!-- Generator: Sketch 3.0.1 (7597) - http://www.bohemiancoding.com/sketch -->
    <title>device_smart-phone_vertical_outline_stroke</title>
    <description>Created with Sketch.</description>
    <defs>
        <path d="M0,2 L0,20 C0,22 1.84615385,22 1.84615385,22 L10.1538461,22 C10.1538461,22 12,22 12,20 L12,2 C12,0 10.1538461,0 10.1538461,0 L1.84615385,0 C1.84615385,0 0,0 0,2 Z M10.1538461,1 C10.2541041,1 10.4691615,1.03882982 10.6641105,1.14442719 C10.9386533,1.29313786 11.0769231,1.51782625 11.0769231,2 L11.0769231,20 C11.0769231,20.4821737 10.9386533,20.7068621 10.6641105,20.8555728 C10.4691615,20.9611702 10.2541041,21 10.1538461,21 L1.84615385,21 C1.74589593,21 1.53083847,20.9611702 1.33588947,20.8555728 C1.06134671,20.7068621 0.923076923,20.4821737 0.923076923,20 L0.923076923,2 C0.923076923,1.51782625 1.06134671,1.29313786 1.33588947,1.14442719 C1.53083847,1.03882982 1.74589593,1 1.84615385,1 L10.1538461,1 Z M6,20.5 C6.50980132,20.5 6.92307692,20.0522848 6.92307692,19.5 C6.92307692,18.9477152 6.50980132,18.5 6,18.5 C5.49019868,18.5 5.07692308,18.9477152 5.07692308,19.5 C5.07692308,20.0522848 5.49019868,20.5 6,20.5 L6,20.5 Z M3.89658026,1.5 C3.78376363,1.5 3.6923077,1.59655358 3.6923077,1.7211029 L3.6923077,1.77966755 C3.6923077,1.9017793 3.78450175,2.00077042 3.89658026,2.00077042 L8.10341974,2.00077042 C8.21623637,2.00077042 8.3076923,1.90421684 8.3076923,1.77966755 L8.3076923,1.7211029 C8.3076923,1.59899114 8.21549825,1.5 8.10341974,1.5 L3.89658026,1.5 L3.89658026,1.5 Z M0.923076923,2.5 L0.923076923,3.5 L11.0769231,3.5 L11.0769231,2.5 L0.923076923,2.5 L0.923076923,2.5 Z M0.923076923,17 L0.923076923,18 L11.0769231,18 L11.0769231,17 L0.923076923,17 L0.923076923,17 Z" id="path-1"></path>
    </defs>
    <g id="miu" stroke="none" stroke-width="1" fill="none" fill-rule="evenodd" sketch:type="MSPage">
        <g id="device_smart-phone_vertical_outline_stroke">
            <use fill="#000000" fill-rule="evenodd" sketch:type="MSShapeGroup" xlink:href="#path-1"></use>
            <use fill="none" xlink:href="#path-1"></use>
        </g>
    </g>
</svg>