<?xml version="1.0" encoding="UTF-8" standalone="no"?>
<svg width="24px" height="24px" viewBox="0 0 24 24" version="1.1" xmlns="http://www.w3.org/2000/svg" xmlns:xlink="http://www.w3.org/1999/xlink" xmlns:sketch="http://www.bohemiancoding.com/sketch/ns">
    <!-- Generator: Sketch 3.0.1 (7597) - http://www.bohemiancoding.com/sketch -->
    <title>device_tablets_ipads_horizontal_outline_stroke</title>
    <description>Created with Sketch.</description>
    <defs>
        <path d="M16,8 L22,8 C24,8 24,10.0606061 24,10.0606061 L24,21.9393939 C24,21.9393939 24,24 22,24 L4,24 C3.01961036,24 2.51980264,23.504855 2.26499808,23 L10.5172511,23 L21.9654979,23 C23,23 23,21.8888889 23,21.8888889 L23,10.1111111 C23,10.1111111 23,9 21.9654979,9 L17,9 L17,8 L16,8 L16,2 C16,0 13.9393939,0 13.9393939,0 L2.06060606,0 C2.06060606,0 0,0 0,2 L0,20 C0,22 2.06060606,22 2.06060606,22 L13.9393939,22 C13.9393939,22 16,22 16,20 L16,8 L16,8 Z M21.9500122,15.2506752 C21.5357986,15.2506752 21.2000122,15.597504 21.2000122,16.0253391 C21.2000122,16.4531742 21.5357986,16.8000031 21.9500122,16.8000031 C22.3642258,16.8000031 22.7000122,16.4531742 22.7000122,16.0253391 C22.7000122,15.597504 22.3642258,15.2506752 21.9500122,15.2506752 Z M20,23 L21,23 L21,9 L20,9 L20,23 Z M1,2.03450212 L1,19.9654979 C1,21 2.11111111,21 2.11111111,21 L13.8888889,21 C13.8888889,21 15,21 15,19.9654979 L15,2.03450212 C15,1 13.8888889,1 13.8888889,1 L2.11111111,1 C2.11111111,1 1,1 1,2.03450212 Z M8.74932481,19.9500122 C8.74932481,19.5357986 8.40249596,19.2000122 7.97466088,19.2000122 C7.54682578,19.2000122 7.19999695,19.5357986 7.19999695,19.9500122 C7.19999695,20.3642258 7.54682578,20.7000122 7.97466088,20.7000122 C8.40249596,20.7000122 8.74932481,20.3642258 8.74932481,19.9500122 Z M1,18 L1,19 L15,19 L15,18 L1,18 Z" id="path-1"></path>
    </defs>
    <g id="miu" stroke="none" stroke-width="1" fill="none" fill-rule="evenodd" sketch:type="MSPage">
        <g id="device_tablets_ipads_horizontal_outline_stroke">
            <use fill="#000000" fill-rule="evenodd" sketch:type="MSShapeGroup" xlink:href="#path-1"></use>
            <use fill="none" xlink:href="#path-1"></use>
        </g>
    </g>
</svg>