<?xml version="1.0" encoding="UTF-8" standalone="no"?>
<svg width="22px" height="17px" viewBox="0 0 22 17" version="1.1" xmlns="http://www.w3.org/2000/svg" xmlns:xlink="http://www.w3.org/1999/xlink" xmlns:sketch="http://www.bohemiancoding.com/sketch/ns">
    <!-- Generator: Sketch 3.0.1 (7597) - http://www.bohemiancoding.com/sketch -->
    <title>device_headphone_music_mp3_glyph</title>
    <description>Created with Sketch.</description>
    <defs>
        <path d="M4.00366206,7.30302956 C4.00366206,7.30302956 3.66666667,1.12020109 11,1.12019995 C18.3333333,1.12019995 18.0163574,7.30302956 18.0163574,7.30302956 L18.0163574,15.787878 C18.0163574,15.787878 18.1745866,17 20.00792,17 C21.8412533,17 22,15.7878788 22,15.7878788 L22,12.0191488 C22,12.0191488 22,10.9324918 20.0079193,10.9324918 C19.449585,10.9324918 19,11.1057096 19,11.1057096 L19,7.30465792 C19,7.30465792 19.0292969,9.36846902e-07 11,0 C2.97070312,-9.36846893e-07 2.99999999,7.30465794 2.99999999,7.30465794 L3,11.1378174 C3,11.1378174 2.50433351,10.9645996 2.02557374,10.9645996 C8.00002362e-09,10.9645999 8.00000016e-09,12.0191484 8.00000016e-09,12.0191484 L0,15.7878788 C0,15.7878788 0.27668593,17 2.02557373,17 C3.77446153,17 4.0036621,15.787878 4.0036621,15.787878 L4.00366206,7.30302956 Z M5.5,11 C5,11.0000005 5,11.5454545 5,11.5454545 L5,16.4545455 C5,16.4545455 5,17.0000005 5.5,17 C6,16.9999995 6,16.4545455 6,16.4545455 L6,11.5454545 C6,11.5454545 6,10.9999995 5.5,11 L5.5,11 Z M16.5,11 C16,11.0000005 16,11.5454545 16,11.5454545 L16,16.4545455 C16,16.4545455 16,17.0000005 16.5,17 C17,16.9999995 17,16.4545455 17,16.4545455 L17,11.5454545 C17,11.5454545 17,10.9999995 16.5,11 L16.5,11 Z" id="path-1"></path>
    </defs>
    <g id="miu" stroke="none" stroke-width="1" fill="none" fill-rule="evenodd" sketch:type="MSPage">
        <g id="device_headphone_music_mp3_glyph">
            <use fill="#000000" fill-rule="evenodd" sketch:type="MSShapeGroup" xlink:href="#path-1"></use>
            <use fill="none" xlink:href="#path-1"></use>
        </g>
    </g>
</svg>