<?xml version="1.0" encoding="UTF-8" standalone="no"?>
<svg width="22px" height="22px" viewBox="0 0 22 22" version="1.1" xmlns="http://www.w3.org/2000/svg" xmlns:xlink="http://www.w3.org/1999/xlink" xmlns:sketch="http://www.bohemiancoding.com/sketch/ns">
    <!-- Generator: Sketch 3.0.1 (7597) - http://www.bohemiancoding.com/sketch -->
    <title>device_projector_screen_empty_presentation_glyph</title>
    <description>Created with Sketch.</description>
    <defs>
        <path d="M3.35294117,4 C3.35294117,4 1,4 1,6.28571429 L1,17.7142857 C1,20 3.35294117,20 3.35294117,20 L18.6470588,20 C18.6470588,20 21,20 21,17.7142857 L21,6.28571429 C21,4 18.6470588,4 18.6470588,4 L3.35294117,4 L3.35294117,4 Z M0.578947369,21 C0.578947369,21 7.43058274e-07,21 0,21.5 C-3.30809602e-07,22 0.578947369,22 0.578947369,22 L21.4210526,22 C21.4210526,22 22,22 22,21.5 C21.9999996,21 21.4210526,21 21.4210526,21 L0.578947369,21 L0.578947369,21 Z M0.578947369,2 C0.578947369,2 7.43058274e-07,2 0,2.5 C-3.30809602e-07,3 0.578947369,3 0.578947369,3 L21.4210526,3 C21.4210526,3 22,3 22,2.5 C21.9999996,2 21.4210526,2 21.4210526,2 L0.578947369,2 L0.578947369,2 Z M10,0 L10,2 L12,2 L12,0 L10,0 Z" id="path-1"></path>
    </defs>
    <g id="miu" stroke="none" stroke-width="1" fill="none" fill-rule="evenodd" sketch:type="MSPage">
        <g id="device_projector_screen_empty_presentation_glyph">
            <use fill="#000000" fill-rule="evenodd" sketch:type="MSShapeGroup" xlink:href="#path-1"></use>
            <use fill="none" xlink:href="#path-1"></use>
        </g>
    </g>
</svg>