<?xml version="1.0" encoding="UTF-8" standalone="no"?>
<svg width="22px" height="21px" viewBox="0 0 22 21" version="1.1" xmlns="http://www.w3.org/2000/svg" xmlns:xlink="http://www.w3.org/1999/xlink" xmlns:sketch="http://www.bohemiancoding.com/sketch/ns">
    <!-- Generator: Sketch 3.0.1 (7597) - http://www.bohemiancoding.com/sketch -->
    <title>editor_folder_outline_stroke</title>
    <description>Created with Sketch.</description>
    <defs>
        <path d="M0.5,20.4975383 C0.5,21.0511826 0.948920205,21.5 1.50748397,21.5 L14.492516,21.5 C15.0489341,21.5 15.5,21.0605417 15.5,20.4975383 L15.5,0.502461672 C15.5,-0.0511826218 15.0510798,-0.5 14.492516,-0.5 L1.50748397,-0.5 C0.95106594,-0.5 0.5,-0.0605416596 0.5,0.502461672 L0.5,20.4975383 Z M1.5,0.5 L1.5,20.5 L14.5,20.5 L14.5,0.5 L1.5,0.5 Z M16.5,1.5 L20.5,1.5 L20.5,6.5 L18.5,6.5 L18.5,19.5 L16.5,19.5 L16.5,20.5 L18.5010434,20.5 C19.0527519,20.5 19.5,20.0525106 19.5,19.5014977 L19.5,7.5 L20.5,7.5 C21.0522847,7.5 21.5,7.06211865 21.5,6.49707067 L21.5,1.50292933 C21.5,0.949026756 21.0562834,0.5 20.5001925,0.5 L16.5,0.5 L16.5,1.5 Z" id="path-1"></path>
    </defs>
    <g id="miu" stroke="none" stroke-width="1" fill="none" fill-rule="evenodd" sketch:type="MSPage">
        <g id="editor_folder_outline_stroke">
            <use fill="#000000" fill-rule="evenodd" sketch:type="MSShapeGroup" transform="translate(11.000000, 10.500000) rotate(-90.000000) translate(-11.000000, -10.500000) " xlink:href="#path-1"></use>
            <use fill="none" xlink:href="#path-1"></use>
        </g>
    </g>
</svg>