<?xml version="1.0" encoding="UTF-8" standalone="no"?>
<svg width="20px" height="21px" viewBox="0 0 20 21" version="1.1" xmlns="http://www.w3.org/2000/svg" xmlns:xlink="http://www.w3.org/1999/xlink" xmlns:sketch="http://www.bohemiancoding.com/sketch/ns">
    <!-- Generator: Sketch 3.0.1 (7597) - http://www.bohemiancoding.com/sketch -->
    <title>editor_alarm_clock_outline_stroke</title>
    <description>Created with Sketch.</description>
    <defs>
        <path d="M14.2931225,18.912016 L16.3899943,21 L17.0900063,20.302955 L15.1562932,18.3774381 C17.4803385,16.7500801 19,14.0525082 19,11 C19,6.02943701 14.970563,2 10,2 C5.02943701,2 1,6.02943701 1,11 C1,14.0209238 2.48837628,16.6942184 4.77182503,18.3265802 L2.78703755,20.302955 L3.48704956,21 L5.6276856,18.8684372 C6.92221112,19.5893163 8.41314537,20 10,20 C11.5545955,20 13.0171308,19.6058441 14.2931225,18.912016 L14.2931225,18.912016 Z M10,19 C14.4182782,19 18,15.4182782 18,11 C18,6.58172178 14.4182782,3 10,3 C5.58172178,3 2,6.58172178 2,11 C2,15.4182782 5.58172178,19 10,19 Z M10,10.9917509 L10,5 L10.995279,5 L10.995279,10.9917509 L11,10.9917509 L11,11.9960933 L10.995279,11.9960933 L10.995279,12 L10,12 L10,11.9960933 L6,11.9960933 L6,10.9917509 L10,10.9917509 Z M6.28752447,1.8350317 L5.3475619,2.25620371 L4.88449465,1.66350467 C4.54488356,1.2288223 3.91413395,1.15129118 3.4818245,1.48904834 L1.90251403,2.72294091 C1.46988858,3.06094495 1.39335483,3.69212645 1.73245164,4.12615057 L2.19551888,4.71884962 L1.55945995,5.52900056 L0.944440882,4.74181204 C0.266631755,3.87425592 0.41734813,2.61426146 1.28685255,1.93493016 L2.86616302,0.701037584 C3.73270102,0.0240239041 4.99210973,0.176976437 5.6725054,1.04784319 L5.98001494,1.44143745 L6.28752447,1.8350317 Z M18.44054,5.52900056 L17.8044811,4.71884962 L18.2675484,4.12615057 C18.6071594,3.6914682 18.5297954,3.06069807 18.097486,2.72294091 L16.5181755,1.48904834 C16.0855501,1.15104429 15.4546022,1.22948055 15.1155053,1.66350467 L14.6524381,2.25620371 L13.7124755,1.8350317 L14.3274946,1.04784319 C15.0053037,0.180287072 16.2643326,0.0217062774 17.133837,0.701037584 L18.7131474,1.93493016 C19.5796854,2.61194384 19.7359548,3.87094529 19.0555591,4.74181204 L18.7480496,5.1354063 L18.44054,5.52900056 Z" id="path-1"></path>
    </defs>
    <g id="miu" stroke="none" stroke-width="1" fill="none" fill-rule="evenodd" sketch:type="MSPage">
        <g id="editor_alarm_clock_outline_stroke">
            <use fill="#000000" fill-rule="evenodd" sketch:type="MSShapeGroup" xlink:href="#path-1"></use>
            <use fill="none" xlink:href="#path-1"></use>
        </g>
    </g>
</svg>