<?xml version="1.0" encoding="UTF-8" standalone="no"?>
<svg width="22px" height="22px" viewBox="0 0 22 22" version="1.1" xmlns="http://www.w3.org/2000/svg" xmlns:xlink="http://www.w3.org/1999/xlink" xmlns:sketch="http://www.bohemiancoding.com/sketch/ns">
    <!-- Generator: Sketch 3.0.1 (7597) - http://www.bohemiancoding.com/sketch -->
    <title>editor_pencil_pen_edit_write_outline_stroke</title>
    <description>Created with Sketch.</description>
    <defs>
        <path d="M7.52322913,19.5208153 L7.52322913,3.52081528 L7.52322913,3.52081528 L12.5173028,3.52081528 L12.5173028,19.5208153 L7.52322913,19.5208153 Z M6.52081528,19.9988426 L6.52081528,-0.476770888 C6.52081528,-1.47918472 7.52322913,-1.47918472 7.52322913,-1.47918472 L12.5173028,-1.47918477 C12.5173028,-1.47918477 13.5197166,-1.47918477 13.5197166,-0.476770935 L13.5197166,2.52081528 L13.5208153,2.52081528 L13.5208153,3.52081528 L13.5197166,3.52081528 L13.5197166,19.5208153 L13.5208153,19.5208153 L13.5208153,20.5208153 L6.52081528,20.5208153 L6.52081528,19.9988426 Z M7.52322913,2.52081528 L7.52322913,-0.476770888 L12.5173028,-0.476770935 L12.5173028,2.52081528 L7.52322913,2.52081528 L7.52322913,2.52081528 Z M10.0208153,23.5726952 L8.0215477,20.5208153 L6.50416988,20.5208153 L10.0208153,25.5075707 L13.5192284,20.5208153 L12.2236648,20.5208153 L10.0208153,23.5726952 Z" id="path-1"></path>
    </defs>
    <g id="miu" stroke="none" stroke-width="1" fill="none" fill-rule="evenodd" sketch:type="MSPage">
        <g id="editor_pencil_pen_edit_write_outline_stroke">
            <use fill="#000000" fill-rule="evenodd" sketch:type="MSShapeGroup" transform="translate(10.020815, 12.020815) rotate(45.000000) translate(-10.020815, -12.020815) " xlink:href="#path-1"></use>
            <use fill="none" xlink:href="#path-1"></use>
        </g>
    </g>
</svg>