<?xml version="1.0" encoding="UTF-8" standalone="no"?>
<svg width="22px" height="23px" viewBox="0 0 22 23" version="1.1" xmlns="http://www.w3.org/2000/svg" xmlns:xlink="http://www.w3.org/1999/xlink" xmlns:sketch="http://www.bohemiancoding.com/sketch/ns">
    <!-- Generator: Sketch 3.0.1 (7597) - http://www.bohemiancoding.com/sketch -->
    <title>editor_crop_outline_stroke</title>
    <description>Created with Sketch.</description>
    <defs></defs>
    <g id="miu" stroke="none" stroke-width="1" fill="none" fill-rule="evenodd" sketch:type="MSPage">
        <path d="M0,0.0416305603 L0,3.04163056 L3,3.04163056 L3,0.0416305603 L0,0.0416305603 Z M4,3.04163056 L18,3.04163056 L18,2.04163056 L4,2.04163056 L4,3.04163056 Z M4,19.0416306 L4,20.0416306 L18,20.0416306 L18,19.0416306 L4,19.0416306 Z M19,0.0416305515 L19,3.04163055 L22,3.04163055 L22,0.0416305515 L19,0.0416305515 Z M0,19.0416306 L0,22.0416306 L3,22.0416306 L3,19.0416306 L0,19.0416306 Z M19,19.0416306 L19,22.0416306 L22,22.0416306 L22,19.0416306 L19,19.0416306 Z M2,4.04163056 L2,18.0416306 L3,18.0416306 L3,4.04163056 L2,4.04163056 Z M19,4.04163056 L19,18.0416306 L20,18.0416306 L20,4.04163056 L19,4.04163056 Z" id="editor_crop_outline_stroke" fill="#000000" sketch:type="MSShapeGroup"></path>
    </g>
</svg>