<?xml version="1.0" encoding="UTF-8" standalone="no"?>
<svg width="22px" height="16px" viewBox="0 0 22 16" version="1.1" xmlns="http://www.w3.org/2000/svg" xmlns:xlink="http://www.w3.org/1999/xlink" xmlns:sketch="http://www.bohemiancoding.com/sketch/ns">
    <!-- Generator: Sketch 3.0.1 (7597) - http://www.bohemiancoding.com/sketch -->
    <title>editor_drawer_collection_archive_outline_stroke</title>
    <description>Created with Sketch.</description>
    <defs>
        <path d="M0.995239258,0 C0.995239258,0 -4.8082529e-07,-6.66133815e-16 0,1 C6.84494648e-07,2 0.995239258,2 0.995239258,2 L21,2 C21,2 22,2 22,1 C21.9999995,9.99200722e-16 21,0 21,0 L0.995239258,0 Z M20,15 L2,15 L2,3 L1,3 L1,14.8596491 C1.00000034,16 2.11111104,16 2.11111104,16 L19.8888889,16 C19.8888889,16 21,16 21,14.8596491 L21,3 L20,3 L20,15 Z M7,5.00104344 C7,5.55275191 7.45303631,6 7.99703014,6 L14.0029699,6 C14.5536144,6 15,5.55733967 15,5.00104344 L15,3.99895656 C15,3.44724809 14.5469637,3 14.0029699,3 L7.99703014,3 C7.4463856,3 7,3.44266033 7,3.99895656 L7,5.00104344 Z M8,4 L8,5 L14,5 L14,4 L8,4 Z" id="path-1"></path>
    </defs>
    <g id="miu" stroke="none" stroke-width="1" fill="none" fill-rule="evenodd" sketch:type="MSPage">
        <g id="editor_drawer_collection_archive_outline_stroke">
            <use fill="#000000" fill-rule="evenodd" sketch:type="MSShapeGroup" xlink:href="#path-1"></use>
            <use fill="none" xlink:href="#path-1"></use>
        </g>
    </g>
</svg>