<?xml version="1.0" encoding="UTF-8" standalone="no"?>
<svg width="16px" height="22px" viewBox="0 0 16 22" version="1.1" xmlns="http://www.w3.org/2000/svg" xmlns:xlink="http://www.w3.org/1999/xlink" xmlns:sketch="http://www.bohemiancoding.com/sketch/ns">
    <!-- Generator: Sketch 3.0.1 (7597) - http://www.bohemiancoding.com/sketch -->
    <title>editor_document_file_add_2_outline_stroke</title>
    <description>Created with Sketch.</description>
    <defs>
        <path d="M16,16.3541756 L16,4.4 L11.6363636,0 L0.484848484,0 C0.484848484,0 0,0 0,0.488888888 L0,21.5105143 C0,22 0.484848484,22 0.484848484,22 L10.3541756,22 C10.0301807,21.7140362 9.75286743,21.3764052 9.53512878,21 L1,21 L1,1 L11,1 L11,4 C11,5 12,5 12,5 L15,5 L15,15.5351288 C15.3764052,15.7528674 15.7140362,16.0301807 16,16.3541756 L16,16.3541756 Z M10.3541756,16 L3,16 L3,15 L13,15 C11.9855535,15 11.0593088,15.3776366 10.3541756,16 L10.3541756,16 Z M9,19 L3,19 L3,18 L9.12601749,18 C9.043753,18.3196199 9,18.6547004 9,19 L9,19 Z M3,3 L3,4 L9,4 L9,3 L3,3 Z M3,6 L3,7 L13,7 L13,6 L3,6 Z M3,9 L3,10 L13,10 L13,9 L3,9 Z M3,12 L3,13 L13,13 L13,12 L3,12 Z M12,18 L12,16 L14,16 L14,18 L16,18 L16,20.0000001 L14,20.0000001 L14,22 L12,22 L12,20.0000001 L10,20.0000001 L10,18 L12,18 Z" id="path-1"></path>
    </defs>
    <g id="miu" stroke="none" stroke-width="1" fill="none" fill-rule="evenodd" sketch:type="MSPage">
        <g id="editor_document_file_add_2_outline_stroke">
            <use fill="#000000" fill-rule="evenodd" sketch:type="MSShapeGroup" xlink:href="#path-1"></use>
            <use fill="none" xlink:href="#path-1"></use>
        </g>
    </g>
</svg>