<?xml version="1.0" encoding="UTF-8" standalone="no"?>
<svg width="19px" height="19px" viewBox="0 0 19 19" version="1.1" xmlns="http://www.w3.org/2000/svg" xmlns:xlink="http://www.w3.org/1999/xlink" xmlns:sketch="http://www.bohemiancoding.com/sketch/ns">
    <!-- Generator: Sketch 3.0.1 (7597) - http://www.bohemiancoding.com/sketch -->
    <title>editor_copy_2_duplicate_outline_stroke</title>
    <description>Created with Sketch.</description>
    <defs>
        <path d="M0.206336333,4 C0.0923799227,4 0,4.07363267 0,4.1658915 L0,18.8341085 C0,18.9257278 0.0918992144,19 0.206336333,19 L14.7936637,19 C14.9076201,19 15,18.9263673 15,18.8341085 L15,4.1658915 C15,4.07427215 14.9081008,4 14.7936637,4 L0.206336333,4 Z M1,5 L1,18 L14,18 L14,5 L1,5 Z M4,3 L5,3 L5,1 L18,1 L18,14 L16,14 L16,15 L19,15 L19,0 L4,0 L4,3 Z" id="path-1"></path>
    </defs>
    <g id="miu" stroke="none" stroke-width="1" fill="none" fill-rule="evenodd" sketch:type="MSPage">
        <g id="editor_copy_2_duplicate_outline_stroke">
            <use fill="#000000" fill-rule="evenodd" sketch:type="MSShapeGroup" xlink:href="#path-1"></use>
            <use fill="none" xlink:href="#path-1"></use>
        </g>
    </g>
</svg>