<?xml version="1.0" encoding="UTF-8" standalone="no"?>
<svg width="22px" height="22px" viewBox="0 0 22 22" version="1.1" xmlns="http://www.w3.org/2000/svg" xmlns:xlink="http://www.w3.org/1999/xlink" xmlns:sketch="http://www.bohemiancoding.com/sketch/ns">
    <!-- Generator: Sketch 3.0.1 (7597) - http://www.bohemiancoding.com/sketch -->
    <title>editor_grid_view_block_glyph</title>
    <description>Created with Sketch.</description>
    <defs></defs>
    <g id="miu" stroke="none" stroke-width="1" fill="none" fill-rule="evenodd" sketch:type="MSPage">
        <path d="M0,0 L0,6 L6,6 L6,0 L0,0 Z M8,0 L8,6 L14,6 L14,0 L8,0 Z M16,0 L16,6 L22,6 L22,0 L16,0 Z M0,8 L0,14 L6,14 L6,8 L0,8 Z M8,8 L8,14 L14,14 L14,8 L8,8 Z M16,8 L16,14 L22,14 L22,8 L16,8 Z M0,16 L0,22 L6,22 L6,16 L0,16 Z M8,16 L8,22 L14,22 L14,16 L8,16 Z M16,16 L16,22 L22,22 L22,16 L16,16 Z" id="editor_grid_view_block_glyph" fill="#000000" sketch:type="MSShapeGroup"></path>
    </g>
</svg>