<?xml version="1.0" encoding="UTF-8" standalone="no"?>
<svg width="22px" height="22px" viewBox="0 0 22 22" version="1.1" xmlns="http://www.w3.org/2000/svg" xmlns:xlink="http://www.w3.org/1999/xlink" xmlns:sketch="http://www.bohemiancoding.com/sketch/ns">
    <!-- Generator: Sketch 3.0.1 (7597) - http://www.bohemiancoding.com/sketch -->
    <title>editor_keypad_glyph</title>
    <description>Created with Sketch.</description>
    <defs></defs>
    <g id="miu" stroke="none" stroke-width="1" fill="none" fill-rule="evenodd" sketch:type="MSPage">
        <path d="M2.5,5.1629509 C3.88071194,5.1629509 5,4.04366285 5,2.6629509 C5,1.28223896 3.88071194,0.162950904 2.5,0.162950904 C1.11928805,0.162950904 0,1.28223896 0,2.6629509 C0,4.04366285 1.11928805,5.1629509 2.5,5.1629509 Z M11,5.1629509 C12.380712,5.1629509 13.5,4.04366285 13.5,2.6629509 C13.5,1.28223896 12.380712,0.162950904 11,0.162950904 C9.61928805,0.162950904 8.5,1.28223896 8.5,2.6629509 C8.5,4.04366285 9.61928805,5.1629509 11,5.1629509 Z M19.5,5.1629509 C20.8807119,5.1629509 22,4.04366285 22,2.6629509 C22,1.28223896 20.8807119,0.162950904 19.5,0.162950904 C18.1192881,0.162950904 17,1.28223896 17,2.6629509 C17,4.04366285 18.1192881,5.1629509 19.5,5.1629509 Z M2.5,13.1629509 C3.88071194,13.1629509 5,12.0436628 5,10.6629509 C5,9.28223896 3.88071194,8.1629509 2.5,8.1629509 C1.11928805,8.1629509 0,9.28223896 0,10.6629509 C0,12.0436628 1.11928805,13.1629509 2.5,13.1629509 Z M11,13.1629509 C12.380712,13.1629509 13.5,12.0436628 13.5,10.6629509 C13.5,9.28223896 12.380712,8.1629509 11,8.1629509 C9.61928805,8.1629509 8.5,9.28223896 8.5,10.6629509 C8.5,12.0436628 9.61928805,13.1629509 11,13.1629509 Z M19.5,13.1629509 C20.8807119,13.1629509 22,12.0436628 22,10.6629509 C22,9.28223896 20.8807119,8.1629509 19.5,8.1629509 C18.1192881,8.1629509 17,9.28223896 17,10.6629509 C17,12.0436628 18.1192881,13.1629509 19.5,13.1629509 Z M2.5,21.1629509 C3.88071194,21.1629509 5,20.0436628 5,18.6629509 C5,17.282239 3.88071194,16.1629509 2.5,16.1629509 C1.11928805,16.1629509 0,17.282239 0,18.6629509 C0,20.0436628 1.11928805,21.1629509 2.5,21.1629509 Z M11,21.1629509 C12.380712,21.1629509 13.5,20.0436628 13.5,18.6629509 C13.5,17.282239 12.380712,16.1629509 11,16.1629509 C9.61928805,16.1629509 8.5,17.282239 8.5,18.6629509 C8.5,20.0436628 9.61928805,21.1629509 11,21.1629509 Z M19.5,21.1629509 C20.8807119,21.1629509 22,20.0436628 22,18.6629509 C22,17.282239 20.8807119,16.1629509 19.5,16.1629509 C18.1192881,16.1629509 17,17.282239 17,18.6629509 C17,20.0436628 18.1192881,21.1629509 19.5,21.1629509 Z" id="editor_keypad_glyph" fill="#000000" sketch:type="MSShapeGroup"></path>
    </g>
</svg>