<?xml version="1.0" encoding="UTF-8" standalone="no"?>
<svg width="9px" height="22px" viewBox="0 0 9 22" version="1.1" xmlns="http://www.w3.org/2000/svg" xmlns:xlink="http://www.w3.org/1999/xlink" xmlns:sketch="http://www.bohemiancoding.com/sketch/ns">
    <!-- Generator: Sketch 3.0.1 (7597) - http://www.bohemiancoding.com/sketch -->
    <title>editor_attachment_paper_clip</title>
    <description>Created with Sketch.</description>
    <defs>
        <path id="path-1" d="M0,3.52 L0,16.94 C0,16.94 1.0348078e-10,22.0000019 4.5,22 C9,21.9999981 9,16.94 9,16.94 L9,3.52 C9,2.97 8,2.97 8,3.52 L8,16.9400005 C8,16.9400005 8.36363636,21 4.5,21 C1,21 1,16.9400005 1,16.9400005 L1,3.52 C1,3.52 1,1.00000091 3.5,1 C6,0.999999106 6,3.52 6,3.52 L6,16.9400005 C6,16.9400005 6,18.5175552 4.54081631,18.5175537 C3.08163261,18.5175523 3,16.9400005 3,16.9400005 L3,4.18 C3,3.63 2,3.63 2,4.18 L2,16.94 C2,16.94 1.81354358,19.6175563 4.54081631,19.6175537 C7,19.6175518 7,16.94 7,16.94 L7,3.51999998 C7,3.51999998 7,-1.28024078e-06 3.5,0 C-3.02535774e-15,1.28024079e-06 0,3.52 0,3.52 Z"></path>
    </defs>
    <g id="miu" stroke="none" stroke-width="1" fill="none" fill-rule="evenodd" sketch:type="MSPage">
        <g id="editor_attachment_paper_clip">
            <use fill="#000000" fill-rule="evenodd" sketch:type="MSShapeGroup" xlink:href="#path-1"></use>
            <use fill="none" xlink:href="#path-1"></use>
        </g>
    </g>
</svg>