<?xml version="1.0" encoding="UTF-8" standalone="no"?>
<svg width="22px" height="5px" viewBox="0 0 22 5" version="1.1" xmlns="http://www.w3.org/2000/svg" xmlns:xlink="http://www.w3.org/1999/xlink" xmlns:sketch="http://www.bohemiancoding.com/sketch/ns">
    <!-- Generator: Sketch 3.0.1 (7597) - http://www.bohemiancoding.com/sketch -->
    <title>editor_more_detail_glyph</title>
    <description>Created with Sketch.</description>
    <defs>
        <path d="M2.5,5 C3.88071194,5 5,3.88071194 5,2.5 C5,1.11928805 3.88071194,0 2.5,0 C1.11928805,0 0,1.11928805 0,2.5 C0,3.88071194 1.11928805,5 2.5,5 L2.5,5 Z M11,5 C12.380712,5 13.5,3.88071194 13.5,2.5 C13.5,1.11928805 12.380712,0 11,0 C9.61928805,0 8.5,1.11928805 8.5,2.5 C8.5,3.88071194 9.61928805,5 11,5 L11,5 Z M19.5,5 C20.8807119,5 22,3.88071194 22,2.5 C22,1.11928805 20.8807119,0 19.5,0 C18.1192881,0 17,1.11928805 17,2.5 C17,3.88071194 18.1192881,5 19.5,5 L19.5,5 Z" id="path-1"></path>
    </defs>
    <g id="miu" stroke="none" stroke-width="1" fill="none" fill-rule="evenodd" sketch:type="MSPage">
        <g id="editor_more_detail_glyph">
            <use fill="#000000" fill-rule="evenodd" sketch:type="MSShapeGroup" xlink:href="#path-1"></use>
            <use fill="none" xlink:href="#path-1"></use>
        </g>
    </g>
</svg>