<?xml version="1.0" encoding="UTF-8" standalone="no"?>
<svg width="16px" height="22px" viewBox="0 0 16 22" version="1.1" xmlns="http://www.w3.org/2000/svg" xmlns:xlink="http://www.w3.org/1999/xlink" xmlns:sketch="http://www.bohemiancoding.com/sketch/ns">
    <!-- Generator: Sketch 3.0.1 (7597) - http://www.bohemiancoding.com/sketch -->
    <title>editor_document_file_2_outline_stroke</title>
    <description>Created with Sketch.</description>
    <defs>
        <path d="M0,0.488888888 C0,0 0.484848484,0 0.484848484,0 L11.6363636,0 L16,4.4 L16,21.5111111 C16,22 15.5151515,22 15.5151515,22 L0.484848484,22 C0.484848484,22 0,22 0,21.5105143 L0,0.488888888 Z M1,21 L1,1 L11,1 L11,4 C11,5 12,5 12,5 L15,5 L15,21 L1,21 Z M3,3 L3,4 L9,4 L9,3 L3,3 Z M3,6 L3,7 L13,7 L13,6 L3,6 Z M3,9 L3,10 L13,10 L13,9 L3,9 Z M3,12 L3,13 L13,13 L13,12 L3,12 Z M3,16 L13,16 L13,15 L3,15 L3,16 Z M3,19 L13,19 L13,18 L3,18 L3,19 Z" id="path-1"></path>
    </defs>
    <g id="miu" stroke="none" stroke-width="1" fill="none" fill-rule="evenodd" sketch:type="MSPage">
        <g id="editor_document_file_2_outline_stroke">
            <use fill="#000000" fill-rule="evenodd" sketch:type="MSShapeGroup" xlink:href="#path-1"></use>
            <use fill="none" xlink:href="#path-1"></use>
        </g>
    </g>
</svg>