<?xml version="1.0" encoding="UTF-8" standalone="no"?>
<svg width="15px" height="19px" viewBox="0 0 15 19" version="1.1" xmlns="http://www.w3.org/2000/svg" xmlns:xlink="http://www.w3.org/1999/xlink" xmlns:sketch="http://www.bohemiancoding.com/sketch/ns">
    <!-- Generator: Sketch 3.0.1 (7597) - http://www.bohemiancoding.com/sketch -->
    <title>editor_document_file_add_outline_stroke</title>
    <description>Created with Sketch.</description>
    <defs>
        <path d="M9.3541756,19 L0.206336333,19 C0.0918992144,19 0,18.9059219 0,18.7898708 L0,0.210129233 C0,0.0932680444 0.0923799227,0 0.206336333,0 L14.7936637,0 C14.9081008,0 15,0.0940780567 15,0.210129233 L15,13.3541756 C14.7140362,13.0301807 14.3764052,12.7528674 14,12.5351288 L14,1 L1,1 L1,18 L8.53512878,18 C8.75286743,18.3764052 9.03018074,18.7140362 9.3541756,19 L9.3541756,19 Z M9.3541756,13 L2,13 L2,12 L13,12 L13,12.1260175 C12.6803801,12.043753 12.3452996,12 12,12 C10.9855535,12 10.0593088,12.3776366 9.3541756,13 L9.3541756,13 Z M8,16 L2,16 L2,15 L8.12601749,15 C8.043753,15.3196199 8,15.6547004 8,16 L8,16 Z M2,3 L2,4 L13,4 L13,3 L2,3 Z M2,6 L2,7 L13,7 L13,6 L2,6 Z M2,9 L2,10 L13,10 L13,9 L2,9 Z M11,15 L11,13 L13,13 L13,15 L15,15 L15,17.0000001 L13,17.0000001 L13,19 L11,19 L11,17.0000001 L9,17.0000001 L9,15 L11,15 Z" id="path-1"></path>
    </defs>
    <g id="miu" stroke="none" stroke-width="1" fill="none" fill-rule="evenodd" sketch:type="MSPage">
        <g id="editor_document_file_add_outline_stroke">
            <use fill="#000000" fill-rule="evenodd" sketch:type="MSShapeGroup" xlink:href="#path-1"></use>
            <use fill="none" xlink:href="#path-1"></use>
        </g>
    </g>
</svg>