<?xml version="1.0" encoding="UTF-8" standalone="no"?>
<svg width="17px" height="22px" viewBox="0 0 17 22" version="1.1" xmlns="http://www.w3.org/2000/svg" xmlns:xlink="http://www.w3.org/1999/xlink" xmlns:sketch="http://www.bohemiancoding.com/sketch/ns">
    <!-- Generator: Sketch 3.0.1 (7597) - http://www.bohemiancoding.com/sketch -->
    <title>editor_document_file_2_glyph</title>
    <description>Created with Sketch.</description>
    <defs></defs>
    <g id="miu" stroke="none" stroke-width="1" fill="none" fill-rule="evenodd" sketch:type="MSPage">
        <path d="M11.9839572,0 L0.513368983,0 C0.513368983,0 0,0 0,0.488888888 L0,21.5105143 C0,22 0.513368983,22 0.513368983,22 L16.4278075,22 C16.4278075,22 16.9411765,22 16.9411765,21.5111111 L16.9411765,4.4 L16.9411763,5 L12.7058824,5 C12.7058824,5 11.6470588,5 11.6470588,4 L11.6470588,2.22044605e-16 L11.9839572,1.51394049e-16 L11.9839572,0 Z M12.7058824,0.366666665 L16.5211473,4 L12.7058824,4 L12.7058824,0.366666665 L12.7058824,0.366666665 Z M3.17647059,3 L3.17647059,4 L9.52941176,4 L9.52941176,3 L3.17647059,3 Z M3.17647059,6 L3.17647059,7 L9.52941176,7 L9.52941176,6 L3.17647059,6 Z M3.17647059,9 L3.17647059,10 L13.7647059,10 L13.7647059,9 L3.17647059,9 Z M3.17647059,12 L3.17647059,13 L13.7647059,13 L13.7647059,12 L3.17647059,12 Z M3.17647059,16 L13.7647059,16 L13.7647059,15 L3.17647059,15 L3.17647059,16 Z M3.17647059,19 L13.7647059,19 L13.7647059,18 L3.17647059,18 L3.17647059,19 Z" id="editor_document_file_2_glyph" fill="#000000" sketch:type="MSShapeGroup"></path>
    </g>
</svg>