<?xml version="1.0" encoding="UTF-8" standalone="no"?>
<svg width="24px" height="21px" viewBox="0 0 24 21" version="1.1" xmlns="http://www.w3.org/2000/svg" xmlns:xlink="http://www.w3.org/1999/xlink" xmlns:sketch="http://www.bohemiancoding.com/sketch/ns">
    <!-- Generator: Sketch 3.0.1 (7597) - http://www.bohemiancoding.com/sketch -->
    <title>editor_shape_design_triangle_circle_outline_stroke</title>
    <description>Created with Sketch.</description>
    <defs>
        <path d="M16.5866055,5.92628597 C20.6505879,5.92628597 23.9450961,9.28415012 23.9450961,13.426286 C23.9450961,17.5684218 20.6505879,20.926286 16.5866055,20.926286 C13.7710826,20.926286 11.3248845,19.3146103 10.0876433,16.9470379 L11.224875,16.9470379 C12.3602963,18.7396066 14.3374837,19.926286 16.5866055,19.926286 C20.1087236,19.926286 22.963964,17.016137 22.963964,13.426286 C22.963964,9.83643492 20.1087236,6.92628597 16.5866055,6.92628597 C15.6717074,6.92628597 14.8018062,7.12264592 14.0152574,7.47627287 L13.4295772,6.64967577 C14.3862597,6.18585327 15.456692,5.92628597 16.5866055,5.92628597 Z M9.0678956,0.705149613 L17.9834923,16.1531355 C18.0208539,16.2178717 17.9925979,16.2703507 17.9209092,16.2703507 L0.0795836567,16.2703507 C0.00765838569,16.2703507 -0.0213767672,16.2196317 0.0170005675,16.1531355 L8.9325973,0.705149613 C8.9699589,0.640413482 9.02951827,0.6386535 9.0678956,0.705149613 Z M16.1379105,15.1260171 L1.79998779,15.1260171 L8.96894917,2.7265548 L16.1379105,15.1260171 Z" id="path-1"></path>
    </defs>
    <g id="miu" stroke="none" stroke-width="1" fill="none" fill-rule="evenodd" sketch:type="MSPage">
        <g id="editor_shape_design_triangle_circle_outline_stroke">
            <use fill="#000000" fill-rule="evenodd" sketch:type="MSShapeGroup" xlink:href="#path-1"></use>
            <use fill="none" xlink:href="#path-1"></use>
        </g>
    </g>
</svg>