<?xml version="1.0" encoding="UTF-8" standalone="no"?>
<svg width="22px" height="22px" viewBox="0 0 22 22" version="1.1" xmlns="http://www.w3.org/2000/svg" xmlns:xlink="http://www.w3.org/1999/xlink" xmlns:sketch="http://www.bohemiancoding.com/sketch/ns">
    <!-- Generator: Sketch 3.0.1 (7597) - http://www.bohemiancoding.com/sketch -->
    <title>editor_keypad_outline_stroke</title>
    <description>Created with Sketch.</description>
    <defs>
        <path d="M2.5,5.08147545 C3.88071194,5.08147545 5,3.9621874 5,2.58147545 C5,1.20076351 3.88071194,0.081475452 2.5,0.081475452 C1.11928805,0.081475452 0,1.20076351 0,2.58147545 C0,3.9621874 1.11928805,5.08147545 2.5,5.08147545 Z M2.5,4.08147545 C3.32842716,4.08147545 4,3.40990262 4,2.58147545 C4,1.75304829 3.32842716,1.08147545 2.5,1.08147545 C1.67157284,1.08147545 1,1.75304829 1,2.58147545 C1,3.40990262 1.67157284,4.08147545 2.5,4.08147545 Z M11,5.08147545 C12.380712,5.08147545 13.5,3.9621874 13.5,2.58147545 C13.5,1.20076351 12.380712,0.081475452 11,0.081475452 C9.61928805,0.081475452 8.5,1.20076351 8.5,2.58147545 C8.5,3.9621874 9.61928805,5.08147545 11,5.08147545 Z M11,4.08147545 C11.8284271,4.08147545 12.5,3.40990262 12.5,2.58147545 C12.5,1.75304829 11.8284271,1.08147545 11,1.08147545 C10.1715729,1.08147545 9.5,1.75304829 9.5,2.58147545 C9.5,3.40990262 10.1715729,4.08147545 11,4.08147545 Z M19.5,5.08147545 C20.8807119,5.08147545 22,3.9621874 22,2.58147545 C22,1.20076351 20.8807119,0.081475452 19.5,0.081475452 C18.1192881,0.081475452 17,1.20076351 17,2.58147545 C17,3.9621874 18.1192881,5.08147545 19.5,5.08147545 Z M19.5,4.08147545 C20.3284271,4.08147545 21,3.40990262 21,2.58147545 C21,1.75304829 20.3284271,1.08147545 19.5,1.08147545 C18.6715729,1.08147545 18,1.75304829 18,2.58147545 C18,3.40990262 18.6715729,4.08147545 19.5,4.08147545 Z M2.5,13.0814755 C3.88071194,13.0814755 5,11.9621874 5,10.5814755 C5,9.20076351 3.88071194,8.08147545 2.5,8.08147545 C1.11928805,8.08147545 0,9.20076351 0,10.5814755 C0,11.9621874 1.11928805,13.0814755 2.5,13.0814755 Z M2.5,12.0814755 C3.32842716,12.0814755 4,11.4099026 4,10.5814755 C4,9.75304829 3.32842716,9.08147545 2.5,9.08147545 C1.67157284,9.08147545 1,9.75304829 1,10.5814755 C1,11.4099026 1.67157284,12.0814755 2.5,12.0814755 Z M11,13.0814755 C12.380712,13.0814755 13.5,11.9621874 13.5,10.5814755 C13.5,9.20076351 12.380712,8.08147545 11,8.08147545 C9.61928805,8.08147545 8.5,9.20076351 8.5,10.5814755 C8.5,11.9621874 9.61928805,13.0814755 11,13.0814755 Z M11,12.0814755 C11.8284271,12.0814755 12.5,11.4099026 12.5,10.5814755 C12.5,9.75304829 11.8284271,9.08147545 11,9.08147545 C10.1715729,9.08147545 9.5,9.75304829 9.5,10.5814755 C9.5,11.4099026 10.1715729,12.0814755 11,12.0814755 Z M19.5,13.0814755 C20.8807119,13.0814755 22,11.9621874 22,10.5814755 C22,9.20076351 20.8807119,8.08147545 19.5,8.08147545 C18.1192881,8.08147545 17,9.20076351 17,10.5814755 C17,11.9621874 18.1192881,13.0814755 19.5,13.0814755 Z M19.5,12.0814755 C20.3284271,12.0814755 21,11.4099026 21,10.5814755 C21,9.75304829 20.3284271,9.08147545 19.5,9.08147545 C18.6715729,9.08147545 18,9.75304829 18,10.5814755 C18,11.4099026 18.6715729,12.0814755 19.5,12.0814755 Z M2.5,21.0814755 C3.88071194,21.0814755 5,19.9621874 5,18.5814755 C5,17.2007635 3.88071194,16.0814755 2.5,16.0814755 C1.11928805,16.0814755 0,17.2007635 0,18.5814755 C0,19.9621874 1.11928805,21.0814755 2.5,21.0814755 Z M2.5,20.0814755 C3.32842716,20.0814755 4,19.4099026 4,18.5814755 C4,17.7530483 3.32842716,17.0814755 2.5,17.0814755 C1.67157284,17.0814755 1,17.7530483 1,18.5814755 C1,19.4099026 1.67157284,20.0814755 2.5,20.0814755 Z M11,21.0814755 C12.380712,21.0814755 13.5,19.9621874 13.5,18.5814755 C13.5,17.2007635 12.380712,16.0814755 11,16.0814755 C9.61928805,16.0814755 8.5,17.2007635 8.5,18.5814755 C8.5,19.9621874 9.61928805,21.0814755 11,21.0814755 Z M11,20.0814755 C11.8284271,20.0814755 12.5,19.4099026 12.5,18.5814755 C12.5,17.7530483 11.8284271,17.0814755 11,17.0814755 C10.1715729,17.0814755 9.5,17.7530483 9.5,18.5814755 C9.5,19.4099026 10.1715729,20.0814755 11,20.0814755 Z M19.5,21.0814755 C20.8807119,21.0814755 22,19.9621874 22,18.5814755 C22,17.2007635 20.8807119,16.0814755 19.5,16.0814755 C18.1192881,16.0814755 17,17.2007635 17,18.5814755 C17,19.9621874 18.1192881,21.0814755 19.5,21.0814755 Z M19.5,20.0814755 C20.3284271,20.0814755 21,19.4099026 21,18.5814755 C21,17.7530483 20.3284271,17.0814755 19.5,17.0814755 C18.6715729,17.0814755 18,17.7530483 18,18.5814755 C18,19.4099026 18.6715729,20.0814755 19.5,20.0814755 Z" id="path-1"></path>
    </defs>
    <g id="miu" stroke="none" stroke-width="1" fill="none" fill-rule="evenodd" sketch:type="MSPage">
        <g id="editor_keypad_outline_stroke">
            <use fill="#000000" fill-rule="evenodd" sketch:type="MSShapeGroup" xlink:href="#path-1"></use>
            <use fill="none" xlink:href="#path-1"></use>
        </g>
    </g>
</svg>