<?xml version="1.0" encoding="UTF-8" standalone="no"?>
<svg width="14px" height="23px" viewBox="0 0 14 23" version="1.1" xmlns="http://www.w3.org/2000/svg" xmlns:xlink="http://www.w3.org/1999/xlink" xmlns:sketch="http://www.bohemiancoding.com/sketch/ns">
    <!-- Generator: Sketch 3.0.1 (7597) - http://www.bohemiancoding.com/sketch -->
    <title>editor_flag_notification_glyph</title>
    <description>Created with Sketch.</description>
    <defs></defs>
    <g id="miu" stroke="none" stroke-width="1" fill="none" fill-rule="evenodd" sketch:type="MSPage">
        <path d="M0,22.1886181 L0,1.56970333 L0.977777778,1.5680103 C1.04323462,1.64009453 0.977777778,22.1886181 0.977777778,22.1886181 L0,22.1886181 Z M2.01805191,2.33306422 C3.08959364,2.81574228 4.49664184,2.66456153 6.33961778,1.56970333 C9.21684671,-0.139575436 11.3596387,-0.199610719 13.0795279,0.539905597 C13.438277,0.694159819 13.6870359,0.854576486 13.8266459,0.97459773 L13.9968262,1.12090017 L13.9968262,10.2887201 L13.1892287,9.5944368 C13.1216202,9.53631475 12.9560071,9.429516 12.6932949,9.31655529 C11.2665856,8.70309995 9.45229071,8.73624586 6.83901044,10.2887203 C5.03069649,11.3629872 3.32692376,11.4182657 2.06787109,11.0943089 L2.01805191,2.33306422 Z" id="editor_flag_notification_glyph" fill="#000000" sketch:type="MSShapeGroup"></path>
    </g>
</svg>