<?xml version="1.0" encoding="UTF-8" standalone="no"?>
<svg width="20px" height="22px" viewBox="0 0 20 22" version="1.1" xmlns="http://www.w3.org/2000/svg" xmlns:xlink="http://www.w3.org/1999/xlink" xmlns:sketch="http://www.bohemiancoding.com/sketch/ns">
    <!-- Generator: Sketch 3.0.1 (7597) - http://www.bohemiancoding.com/sketch -->
    <title>editor_notebook_glyph</title>
    <description>Created with Sketch.</description>
    <defs>
        <path d="M4.00748397,2 C3.45106594,2 3,2.45530558 3,2.99180311 L3,21.0081969 C3,21.5559546 3.44892021,22 4.00748397,22 L16.992516,22 C17.5489341,22 18,21.5446944 18,21.0081969 L18,2.99180311 C18,2.44404538 17.5510798,2 16.992516,2 L4.00748397,2 Z M1.2,17 C1.2,17 6.03963516e-08,17 0,18.5 C-3.49679738e-08,20 1.2,20 1.2,20 L2,20 L2,17 L1.2,17 Z M1.2,13 C1.2,13 6.03963516e-08,13 0,14.5 C-3.49679738e-08,16 1.2,16 1.2,16 L2,16 L2,13 L1.2,13 Z M1.2,8 C1.2,8 6.03963516e-08,8 0,9.5 C-3.49679738e-08,11 1.2,11 1.2,11 L2,11 L2,8 L1.2,8 Z M1.2,4 C1.2,4 6.03963516e-08,4 0,5.5 C-3.49679738e-08,7 1.2,7 1.2,7 L2,7 L2,4 L1.2,4 Z M5,0.9375 L19.0857143,0.9375 L19.0857143,20 L20,20 L20,0 L5,0 L5,0.9375 Z" id="path-1"></path>
    </defs>
    <g id="miu" stroke="none" stroke-width="1" fill="none" fill-rule="evenodd" sketch:type="MSPage">
        <g id="editor_notebook_glyph">
            <use fill="#000000" fill-rule="evenodd" sketch:type="MSShapeGroup" xlink:href="#path-1"></use>
            <use fill="none" xlink:href="#path-1"></use>
        </g>
    </g>
</svg>