<?xml version="1.0" encoding="UTF-8" standalone="no"?>
<svg width="21px" height="22px" viewBox="0 0 21 22" version="1.1" xmlns="http://www.w3.org/2000/svg" xmlns:xlink="http://www.w3.org/1999/xlink" xmlns:sketch="http://www.bohemiancoding.com/sketch/ns">
    <!-- Generator: Sketch 3.0.1 (7597) - http://www.bohemiancoding.com/sketch -->
    <title>editor_folder_add_2_glyph</title>
    <description>Created with Sketch.</description>
    <defs></defs>
    <g id="miu" stroke="none" stroke-width="1" fill="none" fill-rule="evenodd" sketch:type="MSPage">
        <path d="M14.3016204,21.9527865 C14.2042196,21.9834958 14.1003461,22 13.992516,22 L1.00748397,22 C0.448920205,22 0,21.5511826 0,20.9975383 L0,1.00246167 C0,0.43945834 0.45106594,0 1.00748397,0 L13.992516,0 C14.5510798,0 15,0.448817378 15,1.00246167 L15,15.5351288 C13.8043973,16.2267476 13,17.5194353 13,19 C13,20.169289 13.5017179,21.2213956 14.3016204,21.9527865 L14.3016204,21.9527865 Z M19,15.5351288 L19,8 L20,8 C20.5522847,8 21,7.56211865 21,6.99707067 L21,2.00292933 C21,1.44902676 20.5562834,1 20.0001925,1 L16,1 L16,15.1260175 C16.3196199,15.043753 16.6547004,15 17,15 C17.7285743,15 18.4116533,15.1947886 19,15.5351288 L19,15.5351288 Z M16,18 L16,16 L18,16 L18,18 L20,18 L20,20.0000001 L18,20.0000001 L18,22 L16,22 L16,20.0000001 L14,20.0000001 L14,18 L16,18 Z" id="editor_folder_add_2_glyph" fill="#000000" sketch:type="MSShapeGroup"></path>
    </g>
</svg>