<?xml version="1.0" encoding="UTF-8" standalone="no"?>
<svg width="19px" height="23px" viewBox="0 0 19 23" version="1.1" xmlns="http://www.w3.org/2000/svg" xmlns:xlink="http://www.w3.org/1999/xlink" xmlns:sketch="http://www.bohemiancoding.com/sketch/ns">
    <!-- Generator: Sketch 3.0.1 (7597) - http://www.bohemiancoding.com/sketch -->
    <title>editor_trash_delete_recycle_bin_outline_stroke</title>
    <description>Created with Sketch.</description>
    <defs>
        <path d="M0.501203573,1.96015511 C0.501203573,1.96015511 7.17230047e-07,1.96015511 0,2.96015511 C-4.1525821e-07,3.96015511 0.501203573,3.96015511 0.501203573,3.96015511 L18.4987964,3.96015511 C18.4987964,3.96015511 19,3.96015511 19,2.96015511 C18.9999995,1.96015511 18.4987964,1.96015511 18.4987964,1.96015511 L0.501203573,1.96015511 L0.501203573,1.96015511 Z M0.973754885,4.96015511 L1.97273588,4.96015511 L3.97375489,21.9601551 L14.9737549,21.9601551 L16.9737549,4.96015511 L17.9737549,4.96015511 L15.9737549,22.9601551 L2.97375489,22.9601551 L0.973754885,4.96015511 Z M7.9737549,0.960155108 C6.9737549,0.960155108 6.9737549,1.96015511 6.9737549,1.96015511 L11.9737549,1.96015511 C11.9737549,1.96015511 11.9737549,0.960155108 10.9737549,0.960155108 L7.9737549,0.960155108 L7.9737549,0.960155108 Z M5.9737549,20.9601551 L6.9737549,20.9601551 L5.9737549,4.92304573 L4.97375489,4.92304573 L5.9737549,20.9601551 Z M12.9737549,4.92304573 L11.9737549,20.9601551 L12.9737549,20.9601551 L13.9737549,4.92304573 L12.9737549,4.92304573 L12.9737549,4.92304573 Z M8.9737549,4.92304573 L8.9737549,20.9601551 L9.9737549,20.9601551 L9.9737549,4.92304573 L8.9737549,4.92304573 L8.9737549,4.92304573 Z" id="path-1"></path>
    </defs>
    <g id="miu" stroke="none" stroke-width="1" fill="none" fill-rule="evenodd" sketch:type="MSPage">
        <g id="editor_trash_delete_recycle_bin_outline_stroke">
            <use fill="#000000" fill-rule="evenodd" sketch:type="MSShapeGroup" xlink:href="#path-1"></use>
            <use fill="none" xlink:href="#path-1"></use>
        </g>
    </g>
</svg>