<?xml version="1.0" encoding="UTF-8" standalone="no"?>
<svg width="22px" height="22px" viewBox="0 0 22 22" version="1.1" xmlns="http://www.w3.org/2000/svg" xmlns:xlink="http://www.w3.org/1999/xlink" xmlns:sketch="http://www.bohemiancoding.com/sketch/ns">
    <!-- Generator: Sketch 3.0.1 (7597) - http://www.bohemiancoding.com/sketch -->
    <title>editor_crop_glyph</title>
    <description>Created with Sketch.</description>
    <defs></defs>
    <g id="miu" stroke="none" stroke-width="1" fill="none" fill-rule="evenodd" sketch:type="MSPage">
        <path d="M0,4 L4,4 L4,0 L0,0 L0,4 Z M5,4 L17,4 L17,2 L5,2 L5,4 Z M5,20 L17,20 L17,18 L5,18 L5,20 Z M18,-8.79998652e-09 L18,4 L22,4 L22,-8.79998652e-09 L18,-8.79998652e-09 Z M0,18 L0,22 L4,22 L4,18 L0,18 Z M18,18 L18,22 L22,22 L22,18 L18,18 Z M2,17 L4,17 L4,5 L2,5 L2,17 Z M18,17 L20,17 L20,5 L18,5 L18,17 Z" id="editor_crop_glyph" fill="#000000" sketch:type="MSShapeGroup"></path>
    </g>
</svg>