<?xml version="1.0" encoding="UTF-8" standalone="no"?>
<svg width="22px" height="22px" viewBox="0 0 22 22" version="1.1" xmlns="http://www.w3.org/2000/svg" xmlns:xlink="http://www.w3.org/1999/xlink" xmlns:sketch="http://www.bohemiancoding.com/sketch/ns">
    <!-- Generator: Sketch 3.0.1 (7597) - http://www.bohemiancoding.com/sketch -->
    <title>editor_setting_gear_outline_stroke</title>
    <description>Created with Sketch.</description>
    <defs>
        <path d="M17.0056451,6.93733975 C15.7019788,5.01394872 13.498595,3.75 11,3.75 C8.50140497,3.75 6.29802115,5.01394872 4.99435495,6.93733975 L4.99435495,6.93733975 L10.5155222,10.1249872 C10.6590481,10.0453498 10.824228,10 11,10 C11.175772,10 11.3409519,10.0453498 11.4844778,10.1249872 L17.0056451,6.93733975 Z M17.5082887,7.80183887 C17.9832237,8.76650524 18.25,9.85209813 18.25,11 C18.25,14.836001 15.270831,17.9761794 11.5,18.2330283 L11.5,18.2330283 L11.5,11.8662178 C11.7989007,11.6933131 12,11.3701412 12,11 C12,10.9940347 11.9999478,10.9880815 11.9998437,10.982141 L17.5082887,7.80183887 Z M4.49171135,7.80183887 C4.01677629,8.76650524 3.75,9.85209813 3.75,11 C3.75,14.836001 6.72916897,17.9761794 10.5,18.2330283 L10.5,11.8662178 C10.2010993,11.6933131 10,11.3701412 10,11 C10,10.9940347 10.0000522,10.9880815 10.0001563,10.982141 L4.49171135,7.80183887 L4.49171135,7.80183887 Z M10.1754891,19.209314 L8.85400641,21.7886381 L8.62031539,18.9016133 C8.08747122,18.7413622 7.57732626,18.5286863 7.09587391,18.269579 L4.88872811,20.1461662 L5.77827647,17.3875046 C5.35203769,17.0386444 4.96135556,16.6479622 4.61249532,16.2217235 L1.85383374,17.1112718 L3.73042117,14.9041264 C3.47131385,14.4226741 3.25863792,13.9125291 3.09838683,13.379685 L0.2113619,13.1459935 L2.79068597,11.8245104 C2.76377695,11.5533213 2.75,11.2782695 2.75,11 C2.75,10.72173 2.763777,10.4466777 2.79068611,10.1754882 L0.211362275,8.85400465 L3.09838698,8.62031454 C3.25863811,8.0874704 3.47131406,7.57732546 3.73042142,7.09587314 L1.85383481,4.88872662 L4.61249565,5.77827615 C4.96135547,5.35203792 5.35203708,4.96135625 5.77827526,4.61249638 L4.88872535,1.85383566 L7.09587376,3.73042108 C7.577327,3.47131328 8.08747297,3.25863706 8.62031821,3.09838588 L8.85401087,0.211361038 L10.1754911,2.79068583 C10.4466797,2.7637769 10.721731,2.75 11,2.75 C11.2782698,2.75 11.5533218,2.76377698 11.8245112,2.79068605 L13.1459945,0.211362113 L13.3796857,3.09838707 C13.9125302,3.25863831 14.4226755,3.47131446 14.904128,3.73042205 L17.1112749,1.8538358 L16.2217256,4.61249709 C16.6479643,4.96135746 17.0386463,5.35203972 17.3875064,5.77827863 L20.1461683,4.8887312 L18.2695805,7.09587677 C18.5286878,7.57732952 18.7413636,8.0874749 18.9016145,8.6203195 L21.7886393,8.85401263 L19.2093143,10.1754924 C19.2362231,10.4466806 19.25,10.7217314 19.25,11 C19.25,11.2782703 19.236223,11.5533227 19.2093138,11.8245125 L21.7886375,13.1459963 L18.9016125,13.379687 C18.7413612,13.9125315 18.528685,14.4226767 18.2695773,14.9041292 L20.1461632,17.1112764 L17.3875021,16.2217266 C17.0386416,16.6479653 16.6479593,17.0386472 16.2217203,17.3875072 L17.1112673,20.1461692 L14.9041237,18.2695803 C14.4226715,18.5286873 13.9125268,18.7413629 13.379683,18.9016138 L13.1459908,21.7886386 L11.8245095,19.2093141 C11.5533207,19.2362231 11.2782692,19.25 11,19.25 C10.7217303,19.25 10.4466783,19.236223 10.1754891,19.209314 L10.1754891,19.209314 Z" id="path-1"></path>
    </defs>
    <g id="miu" stroke="none" stroke-width="1" fill="none" fill-rule="evenodd" sketch:type="MSPage">
        <g id="editor_setting_gear_outline_stroke">
            <use fill="#000000" fill-rule="evenodd" sketch:type="MSShapeGroup" xlink:href="#path-1"></use>
            <use fill="none" xlink:href="#path-1"></use>
        </g>
    </g>
</svg>