<?xml version="1.0" encoding="UTF-8" standalone="no"?>
<svg width="16px" height="22px" viewBox="0 0 16 22" version="1.1" xmlns="http://www.w3.org/2000/svg" xmlns:xlink="http://www.w3.org/1999/xlink" xmlns:sketch="http://www.bohemiancoding.com/sketch/ns">
    <!-- Generator: Sketch 3.0.1 (7597) - http://www.bohemiancoding.com/sketch -->
    <title>editor_lock_outline_stroke</title>
    <description>Created with Sketch.</description>
    <defs>
        <path d="M9,15.9577897 C9.5978014,15.5955132 10,14.9183911 10,14.1428571 C10,12.985689 9.10456955,12.047619 8,12.047619 C6.89543045,12.047619 6,12.985689 6,14.1428571 C6,14.9183911 6.4021986,15.5955132 7,15.9577897 L7,17.8095238 C7,17.8095238 7.0030692,18.8571431 8.0015346,18.8571429 C9,18.8571429 9,17.8095238 9,17.8095238 L9,15.9577897 L9,15.9577897 Z M1.00087166,8 C0.448105505,8 0,8.46580504 0,9.04083773 L0,20.9591623 C0,21.5340011 0.444630861,22 1.00087166,22 L14.9991283,22 C15.5518945,22 16,21.534195 16,20.9591623 L16,9.04083773 C16,8.46599892 15.5553692,8 14.9991283,8 L1.00087166,8 L1.00087166,8 Z M1,9 L1,21.047619 L15,21.047619 L15,9 L1,9 L1,9 Z M2.97851562,5.21646473 L2.97851562,7.99804688 L3.97851562,7.99804688 L3.97851562,5.21646473 C3.97851562,5.21646473 3.97851557,1 8,1 C12.0214844,1 12.0367436,5.23809524 12.0367436,5.23809524 L12.0367432,7.99804688 L13.0367436,7.99804688 L13.0367436,5.23809524 C13.0367436,5.23809524 13.0367432,-2.22044605e-16 8,-2.22044605e-16 C2.97851562,-2.22044605e-16 2.97851562,5.21646473 2.97851562,5.21646473 Z" id="path-1"></path>
    </defs>
    <g id="miu" stroke="none" stroke-width="1" fill="none" fill-rule="evenodd" sketch:type="MSPage">
        <g id="editor_lock_outline_stroke">
            <use fill="#000000" fill-rule="evenodd" sketch:type="MSShapeGroup" xlink:href="#path-1"></use>
            <use fill="none" xlink:href="#path-1"></use>
        </g>
    </g>
</svg>