<?xml version="1.0" encoding="UTF-8" standalone="no"?>
<svg width="21px" height="22px" viewBox="0 0 21 22" version="1.1" xmlns="http://www.w3.org/2000/svg" xmlns:xlink="http://www.w3.org/1999/xlink" xmlns:sketch="http://www.bohemiancoding.com/sketch/ns">
    <!-- Generator: Sketch 3.0.1 (7597) - http://www.bohemiancoding.com/sketch -->
    <title>editor_folder_add_2_outline_stroke</title>
    <description>Created with Sketch.</description>
    <defs>
        <path d="M14.3016204,21.9527865 C14.2042196,21.9834958 14.1003461,22 13.992516,22 L1.00748397,22 C0.448920205,22 0,21.5511826 0,20.9975383 L0,1.00246167 C0,0.43945834 0.45106594,0 1.00748397,0 L13.992516,0 C14.5510798,0 15,0.448817378 15,1.00246167 L15,15.5351288 C14.6235948,15.7528674 14.2859638,16.0301807 14,16.3541756 L14,1 L1,1 L1,21 L13.5351288,21 C13.7410007,21.3558911 14.0001305,21.6771192 14.3016204,21.9527865 L14.3016204,21.9527865 Z M18,15.1260175 L18,7 L20,7 L20,2 L16,2 L16,1 L20.0001925,1 C20.5562834,1 21,1.44902676 21,2.00292933 L21,6.99707067 C21,7.56211865 20.5522847,8 20,8 L19,8 L19,15.5351288 C18.6904936,15.356089 18.3547709,15.2173292 18,15.1260175 L18,15.1260175 Z M16,18 L16,16 L18,16 L18,18 L20,18 L20,20.0000001 L18,20.0000001 L18,22 L16,22 L16,20.0000001 L14,20.0000001 L14,18 L16,18 Z" id="path-1"></path>
    </defs>
    <g id="miu" stroke="none" stroke-width="1" fill="none" fill-rule="evenodd" sketch:type="MSPage">
        <g id="editor_folder_add_2_outline_stroke">
            <use fill="#000000" fill-rule="evenodd" sketch:type="MSShapeGroup" xlink:href="#path-1"></use>
            <use fill="none" xlink:href="#path-1"></use>
        </g>
    </g>
</svg>