<?xml version="1.0" encoding="UTF-8" standalone="no"?>
<svg width="22px" height="16px" viewBox="0 0 22 16" version="1.1" xmlns="http://www.w3.org/2000/svg" xmlns:xlink="http://www.w3.org/1999/xlink" xmlns:sketch="http://www.bohemiancoding.com/sketch/ns">
    <!-- Generator: Sketch 3.0.1 (7597) - http://www.bohemiancoding.com/sketch -->
    <title>editor_drawer_collection_archive_glyph</title>
    <description>Created with Sketch.</description>
    <defs></defs>
    <g id="miu" stroke="none" stroke-width="1" fill="none" fill-rule="evenodd" sketch:type="MSPage">
        <path d="M0.995239258,0 C0.995239258,0 -4.8082529e-07,-6.66133815e-16 0,1 C6.84494648e-07,2 0.995239258,2 0.995239258,2 L21,2 C21,2 22,2 22,1 C21.9999995,9.99200722e-16 21,0 21,0 L0.995239258,0 Z M2,3 L1,3 L1,14.8596491 C1.00000034,16 2.11111104,16 2.11111104,16 L19.8888889,16 C19.8888889,16 21,16 21,14.8596491 L21,3 L2,3 Z M7,6 L15,6 L15,3 L7,3 L7,6 Z M8,5 L14,5 L14,4 L8,4 L8,5 Z" id="editor_drawer_collection_archive_glyph" fill="#000000" sketch:type="MSShapeGroup"></path>
    </g>
</svg>