<?xml version="1.0" encoding="UTF-8" standalone="no"?>
<svg width="15px" height="19px" viewBox="0 0 15 19" version="1.1" xmlns="http://www.w3.org/2000/svg" xmlns:xlink="http://www.w3.org/1999/xlink" xmlns:sketch="http://www.bohemiancoding.com/sketch/ns">
    <!-- Generator: Sketch 3.0.1 (7597) - http://www.bohemiancoding.com/sketch -->
    <title>editor_document_file_add_glyph</title>
    <description>Created with Sketch.</description>
    <defs></defs>
    <g id="miu" stroke="none" stroke-width="1" fill="none" fill-rule="evenodd" sketch:type="MSPage">
        <path d="M9.3541756,19 L0.206336333,19 C0.0918992144,19 0,18.9059219 0,18.7898708 L0,0.210129233 C0,0.0932680444 0.0923799227,0 0.206336333,0 L14.7936637,0 C14.9081008,0 15,0.0940780567 15,0.210129233 L15,13.3541756 C14.478897,12.7637697 13.7862243,12.3283776 13,12.1260175 L13,12 L2,12 L2,13 L9.3541756,13 C8.76376971,13.521103 8.32837763,14.2137757 8.12601749,15 L2,15 L2,16 L8,16 C8,17.1946925 8.52375489,18.2670555 9.3541756,19 L9.3541756,19 Z M2,3 L2,4 L13,4 L13,3 L2,3 Z M2,6 L2,7 L13,7 L13,6 L2,6 Z M2,9 L2,10 L13,10 L13,9 L2,9 Z M11,15 L11,13 L13,13 L13,15 L15,15 L15,17.0000001 L13,17.0000001 L13,19 L11,19 L11,17.0000001 L9,17.0000001 L9,15 L11,15 Z" id="editor_document_file_add_glyph" fill="#000000" sketch:type="MSShapeGroup"></path>
    </g>
</svg>