<?xml version="1.0" encoding="UTF-8" standalone="no"?>
<svg width="21px" height="22px" viewBox="0 0 21 22" version="1.1" xmlns="http://www.w3.org/2000/svg" xmlns:xlink="http://www.w3.org/1999/xlink" xmlns:sketch="http://www.bohemiancoding.com/sketch/ns">
    <!-- Generator: Sketch 3.0.1 (7597) - http://www.bohemiancoding.com/sketch -->
    <title>editor_folder_2_outline_stroke</title>
    <description>Created with Sketch.</description>
    <defs>
        <path d="M0,20.9975383 C0,21.5511826 0.448920205,22 1.00748397,22 L13.992516,22 C14.5489341,22 15,21.5605417 15,20.9975383 L15,1.00246167 C15,0.448817378 14.5510798,0 13.992516,0 L1.00748397,0 C0.45106594,0 0,0.43945834 0,1.00246167 L0,20.9975383 Z M1,1 L1,21 L14,21 L14,1 L1,1 Z M16,2 L20,2 L20,7 L18,7 L18,20 L16,20 L16,21 L18.0010434,21 C18.5527519,21 19,20.5525106 19,20.0014977 L19,8 L20,8 C20.5522847,8 21,7.56211865 21,6.99707067 L21,2.00292933 C21,1.44902676 20.5562834,1 20.0001925,1 L16,1 L16,2 Z" id="path-1"></path>
    </defs>
    <g id="miu" stroke="none" stroke-width="1" fill="none" fill-rule="evenodd" sketch:type="MSPage">
        <g id="editor_folder_2_outline_stroke">
            <use fill="#000000" fill-rule="evenodd" sketch:type="MSShapeGroup" xlink:href="#path-1"></use>
            <use fill="none" xlink:href="#path-1"></use>
        </g>
    </g>
</svg>