<?xml version="1.0" encoding="UTF-8" standalone="no"?>
<svg width="22px" height="21px" viewBox="0 0 22 21" version="1.1" xmlns="http://www.w3.org/2000/svg" xmlns:xlink="http://www.w3.org/1999/xlink" xmlns:sketch="http://www.bohemiancoding.com/sketch/ns">
    <!-- Generator: Sketch 3.0.1 (7597) - http://www.bohemiancoding.com/sketch -->
    <title>editor_memo_note_pad_outline_stroke</title>
    <description>Created with Sketch.</description>
    <defs>
        <path d="M20.9906311,2.04163056 C21.5480902,2.04163056 22,2.48657685 22,3.03502824 L22,19.0482329 C22,19.5968713 21.5605417,20.0416306 20.9975383,20.0416306 L1.00246167,20.0416306 C0.44881738,20.0416306 1.38143719e-09,19.5966843 1.38143719e-09,19.0482329 L1.38143719e-09,3.03502825 C1.38143719e-09,2.48638986 0.443353177,2.04163057 1.0093689,2.04163057 L4,2.04163056 L4,3.04163056 L1,3.08850355 L1,19.0416306 L21,19.0416306 L21,3.04163056 L18,3.04163056 L18,2.04163056 L20.9906311,2.04163056 Z M14,2.04163056 L13,2.04163056 L13,3.04163056 L14,3.04163056 L14,2.04163056 Z M9,2.04163056 L8,2.04163056 L8,3.04163056 L9,3.04163056 L9,2.04163056 Z M5.21852617,7.04163056 C5.09783751,7.04163056 5,7.13037388 5,7.24159206 L5,7.84166906 C5,7.95210474 5.09659332,8.04163056 5.21852617,8.04163056 L16.7814738,8.04163056 C16.9021625,8.04163056 17,7.95288724 17,7.84166906 L17,7.24159206 C17,7.13115638 16.9034067,7.04163056 16.7814738,7.04163056 L5.21852617,7.04163056 Z M5.21852617,11.0416306 C5.09783751,11.0416306 5,11.1303739 5,11.2415921 L5,11.8416691 C5,11.9521047 5.09659332,12.0416306 5.21852617,12.0416306 L16.7814738,12.0416306 C16.9021625,12.0416306 17,11.9528872 17,11.8416691 L17,11.2415921 C17,11.1311564 16.9034067,11.0416306 16.7814738,11.0416306 L5.21852617,11.0416306 Z M5.21852617,15.0416306 C5.09783751,15.0416306 5,15.1303739 5,15.2415921 L5,15.8416691 C5,15.9521047 5.09659332,16.0416306 5.21852617,16.0416306 L16.7814738,16.0416306 C16.9021625,16.0416306 17,15.9528872 17,15.8416691 L17,15.2415921 C17,15.1311564 16.9034067,15.0416306 16.7814738,15.0416306 L5.21852617,15.0416306 Z M6,4.04163056 C6.55228477,4.04163056 7,3.14620012 7,2.04163056 C7,0.937061007 6.55228477,0.0416305603 6,0.0416305603 C5.44771523,0.0416305603 5,0.937061007 5,2.04163056 C5,3.14620012 5.44771523,4.04163056 6,4.04163056 Z M11,4.04163056 C11.5522848,4.04163056 12,3.14620012 12,2.04163056 C12,0.937061007 11.5522848,0.0416305603 11,0.0416305603 C10.4477152,0.0416305603 10,0.937061007 10,2.04163056 C10,3.14620012 10.4477152,4.04163056 11,4.04163056 Z M16,4.04163056 C16.5522848,4.04163056 17,3.14620012 17,2.04163056 C17,0.937061007 16.5522848,0.0416305603 16,0.0416305603 C15.4477152,0.0416305603 15,0.937061007 15,2.04163056 C15,3.14620012 15.4477152,4.04163056 16,4.04163056 Z" id="path-1"></path>
    </defs>
    <g id="miu" stroke="none" stroke-width="1" fill="none" fill-rule="evenodd" sketch:type="MSPage">
        <g id="editor_memo_note_pad_outline_stroke">
            <use fill="#000000" fill-rule="evenodd" sketch:type="MSShapeGroup" xlink:href="#path-1"></use>
            <use fill="none" xlink:href="#path-1"></use>
        </g>
    </g>
</svg>