<?xml version="1.0" encoding="UTF-8" standalone="no"?>
<svg width="16px" height="22px" viewBox="0 0 16 22" version="1.1" xmlns="http://www.w3.org/2000/svg" xmlns:xlink="http://www.w3.org/1999/xlink" xmlns:sketch="http://www.bohemiancoding.com/sketch/ns">
    <!-- Generator: Sketch 3.0.1 (7597) - http://www.bohemiancoding.com/sketch -->
    <title>editor_document_file_add_2_glyph</title>
    <description>Created with Sketch.</description>
    <defs></defs>
    <g id="miu" stroke="none" stroke-width="1" fill="none" fill-rule="evenodd" sketch:type="MSPage">
        <path d="M10.3541756,22 L0.484848484,22 C0.484848484,22 0,22 0,21.5105143 L0,0.488888888 C0,0 0.484848484,0 0.484848484,0 L11,0 L11,2.22044605e-16 L11,4 C11,5 12,5 12,5 L16,5 L16,16.3541756 C15.2670555,15.5237549 14.1946925,15 13,15 L3,15 L3,16 L10.3541756,16 C9.76376971,16.521103 9.32837763,17.2137757 9.12601749,18 L3,18 L3,19 L9,19 C9,20.1946925 9.52375489,21.2670555 10.3541756,22 L10.3541756,22 Z M12,0.366666665 L15.6033058,4 L12,4 L12,0.366666665 L12,0.366666665 Z M3,3 L3,4 L9,4 L9,3 L3,3 Z M3,7 L9,7 L9,6 L3,6 L3,7 Z M3,9 L3,10 L13,10 L13,9 L3,9 Z M3,12 L3,13 L13,13 L13,12 L3,12 Z M12,18 L12,16 L14,16 L14,18 L16,18 L16,20.0000001 L14,20.0000001 L14,22 L12,22 L12,20.0000001 L10,20.0000001 L10,18 L12,18 Z" id="editor_document_file_add_2_glyph" fill="#000000" sketch:type="MSShapeGroup"></path>
    </g>
</svg>