<?xml version="1.0" encoding="UTF-8" standalone="no"?>
<svg width="20px" height="22px" viewBox="0 0 20 22" version="1.1" xmlns="http://www.w3.org/2000/svg" xmlns:xlink="http://www.w3.org/1999/xlink" xmlns:sketch="http://www.bohemiancoding.com/sketch/ns">
    <!-- Generator: Sketch 3.0.1 (7597) - http://www.bohemiancoding.com/sketch -->
    <title>editor_notebook_add_new_outline_stroke</title>
    <description>Created with Sketch.</description>
    <defs>
        <path d="M18,15.1260175 L18,2.45530558 C18,2.20384725 17.7977009,2 17.5384064,2 L3.46159363,2 C3.20666251,2 3,2.20446163 3,2.45530558 L3,21.5446944 C3,21.7961527 3.20229912,22 3.46159363,22 L14.3541756,22 C14.0564864,21.7372541 13.7982062,21.4308902 13.5893357,21.0909091 L3.91428572,21.0909091 L3.91428572,2.90909091 L17.0857143,2.90909091 L17.0857143,15.0009002 C17.4007833,15.0075236 17.7068927,15.0505769 18,15.1260175 Z M19.0857143,15.5861496 L19.0857143,0.9375 L4,0.9375 L4,0 L20,0 L20,16.3541756 C19.7359165,16.054971 19.4277699,15.7955776 19.0857143,15.5861496 L19.0857143,15.5861496 Z M1.2,17 C1.2,17 6.03963516e-08,17 0,18.5 C-3.49679738e-08,20 1.2,20 1.2,20 L2,20 L2,17 L1.2,17 Z M1.2,13 C1.2,13 6.03963516e-08,13 0,14.5 C-3.49679738e-08,16 1.2,16 1.2,16 L2,16 L2,13 L1.2,13 Z M1.2,8 C1.2,8 6.03963516e-08,8 0,9.5 C-3.49679738e-08,11 1.2,11 1.2,11 L2,11 L2,8 L1.2,8 Z M1.2,4 C1.2,4 6.03963516e-08,4 0,5.5 C-3.49679738e-08,7 1.2,7 1.2,7 L2,7 L2,4 L1.2,4 Z M16,16 L18,16 L18,18 L20,18 L20,20.0000001 L18,20.0000001 L18,22 L16,22 L16,20.0000001 L14,20.0000001 L14,18 L16,18 L16,16 Z" id="path-1"></path>
    </defs>
    <g id="miu" stroke="none" stroke-width="1" fill="none" fill-rule="evenodd" sketch:type="MSPage">
        <g id="editor_notebook_add_new_outline_stroke">
            <use fill="#000000" fill-rule="evenodd" sketch:type="MSShapeGroup" xlink:href="#path-1"></use>
            <use fill="none" xlink:href="#path-1"></use>
        </g>
    </g>
</svg>