<?xml version="1.0" encoding="UTF-8" standalone="no"?>
<svg width="22px" height="20px" viewBox="0 0 22 20" version="1.1" xmlns="http://www.w3.org/2000/svg" xmlns:xlink="http://www.w3.org/1999/xlink" xmlns:sketch="http://www.bohemiancoding.com/sketch/ns">
    <!-- Generator: Sketch 3.0.1 (7597) - http://www.bohemiancoding.com/sketch -->
    <title>editor_memo_note_pad_glyph</title>
    <description>Created with Sketch.</description>
    <defs></defs>
    <g id="miu" stroke="none" stroke-width="1" fill="none" fill-rule="evenodd" sketch:type="MSPage">
        <path d="M4,2.00000001 L1.00246167,2.00000001 C0.439458342,2.00000001 1.38140877e-09,2.4447593 1.38140877e-09,2.99339769 L1.38140877e-09,19.0066023 C1.38140877e-09,19.5550537 0.44881738,20 1.00246167,20 L20.9975383,20 C21.5605417,20 22,19.5552407 22,19.0066023 L22,2.99339768 C22,2.44494629 21.5511826,2 20.9975383,2 L18,2 C18,3.65685433 17.1045695,5 16,5 C14.8954305,5 14,3.65685434 14,2 L14,2 L13,2 L13,2 C13,3.65685434 12.1045695,5 11,5 C9.89543046,5 9,3.65685434 9,2.00000001 L8,2.00000001 C8,3.65685434 7.10456954,5 6,5 C4.89543046,5 4,3.65685434 4,2.00000001 Z M5.21852617,7 C5.09783751,7 5,7.08874332 5,7.1999615 L5,7.8000385 C5,7.91047418 5.09659332,8 5.21852617,8 L16.7814738,8 C16.9021625,8 17,7.91125668 17,7.8000385 L17,7.1999615 C17,7.08952582 16.9034067,7 16.7814738,7 L5.21852617,7 Z M5.21852617,11 C5.09783751,11 5,11.0887433 5,11.1999615 L5,11.8000385 C5,11.9104742 5.09659332,12 5.21852617,12 L16.7814738,12 C16.9021625,12 17,11.9112567 17,11.8000385 L17,11.1999615 C17,11.0895258 16.9034067,11 16.7814738,11 L5.21852617,11 Z M5.21852617,15 C5.09783751,15 5,15.0887433 5,15.1999615 L5,15.8000385 C5,15.9104742 5.09659332,16 5.21852617,16 L16.7814738,16 C16.9021625,16 17,15.9112567 17,15.8000385 L17,15.1999615 C17,15.0895258 16.9034067,15 16.7814738,15 L5.21852617,15 Z M6,4 C6.55228477,4 7,3.10456956 7,2 C7,0.895430447 6.55228477,0 6,0 C5.44771523,0 5,0.895430447 5,2 C5,3.10456956 5.44771523,4 6,4 L6,4 Z M11,4 C11.5522848,4 12,3.10456956 12,2 C12,0.895430447 11.5522848,0 11,0 C10.4477152,0 10,0.895430447 10,2 C10,3.10456956 10.4477152,4 11,4 L11,4 Z M16,4 C16.5522848,4 17,3.10456956 17,2 C17,0.895430447 16.5522848,0 16,0 C15.4477152,0 15,0.895430447 15,2 C15,3.10456956 15.4477152,4 16,4 L16,4 Z" id="editor_memo_note_pad_glyph" fill="#000000" sketch:type="MSShapeGroup"></path>
    </g>
</svg>