<?xml version="1.0" encoding="UTF-8" standalone="no"?>
<svg width="13px" height="22px" viewBox="0 0 13 22" version="1.1" xmlns="http://www.w3.org/2000/svg" xmlns:xlink="http://www.w3.org/1999/xlink" xmlns:sketch="http://www.bohemiancoding.com/sketch/ns">
    <!-- Generator: Sketch 3.0.1 (7597) - http://www.bohemiancoding.com/sketch -->
    <title>food_fork_knife_restaurant_eating_outline_stroke</title>
    <description>Created with Sketch.</description>
    <defs>
        <path d="M6,1.49999999 L5.0000001,0 L4.99999999,7.0120139 L3,8.9178371 L1.00236738,7.0120139 L1.00236738,0 L0,1.49999999 L0,7.49999998 L2.50000001,9.99999996 C2.50000001,9.99999996 2.24999997,12.8513278 2.24999999,15.5 C2.24999999,18.148672 2.50000001,22 2.50000001,22 L3.49999999,22 C3.49999999,22 3.74999999,18.1288966 3.74999999,15.5 C3.74999997,12.8711033 3.49999999,9.99999996 3.49999999,9.99999996 L6,7.49999998 L6,1.49999999 Z M10.1764706,0.988816865 C10.1764706,0.988816865 12.0588235,0.988816865 12.0588235,4.97840701 C12.0588235,9.13925045 11.1308594,9.71104426 11.1308594,9.71104426 L12.0588235,9.71104426 C12.0588235,9.71104426 13,9.22121682 13,4.97840701 C13,3.45830883 12.5515855,0 9.23529414,0 L9.23529414,10.2026028 C9.23529414,10.2026028 8.99999998,13.1519521 9,15.6097432 C9,18.0675342 9.23529414,22 9.23529414,22 L10.1764706,22 C10.1764706,22 10.4117647,18.176973 10.4117647,15.6097432 C10.4117647,13.0425134 10.1764706,10.2026028 10.1764706,10.2026028 L10.1764706,0.988816865 L10.1764706,0.988816865 Z M2.5,0 L2.5,7 L3.5,7 L3.5,0 L2.5,0 L2.5,0 Z" id="path-1"></path>
    </defs>
    <g id="miu" stroke="none" stroke-width="1" fill="none" fill-rule="evenodd" sketch:type="MSPage">
        <g id="food_fork_knife_restaurant_eating_outline_stroke">
            <use fill="#000000" fill-rule="evenodd" sketch:type="MSShapeGroup" xlink:href="#path-1"></use>
            <use fill="none" xlink:href="#path-1"></use>
        </g>
    </g>
</svg>