<?xml version="1.0" encoding="UTF-8" standalone="no"?>
<svg width="16px" height="23px" viewBox="0 0 16 23" version="1.1" xmlns="http://www.w3.org/2000/svg" xmlns:xlink="http://www.w3.org/1999/xlink" xmlns:sketch="http://www.bohemiancoding.com/sketch/ns">
    <!-- Generator: Sketch 3.0.1 (7597) - http://www.bohemiancoding.com/sketch -->
    <title>food-drink_glass_cocktail_drink_outing_outline_stroke</title>
    <description>Created with Sketch.</description>
    <defs>
        <path d="M7.04919423,13.9694605 L7.04919434,21.0611618 L4.49646007,21.0611618 L4.49645996,22.0565231 L11.5640869,22.0565231 L11.564087,21.0611618 L8.99975586,21.0611618 L8.99975575,13.966227 C14.1308665,13.6084081 16.1483565,10.4395386 15,6 C14.4433039,3.84781661 13.5351671,1.612573 12.1724226,0.0537321291 L3.84919051,0.0291089852 C2.47442782,1.58897824 1.559634,3.83645873 1,6 C-0.149600153,10.4443464 1.88223412,13.6274639 7.04919423,13.9694605 L7.04919423,13.9694605 Z M1.96813634,6.2504237 C2.51403735,4.13997409 3.30951107,2.32310778 4.30805742,1.04214122 L11.7023999,1.05558899 C12.6961644,2.33598315 13.487981,4.14777715 14.0318637,6.2504237 C15.1277415,10.4870799 13.0443335,13 8,13 C2.95971177,13 0.873787362,10.4811695 1.96813634,6.2504237 Z" id="path-1"></path>
    </defs>
    <g id="miu" stroke="none" stroke-width="1" fill="none" fill-rule="evenodd" sketch:type="MSPage">
        <g id="food-drink_glass_cocktail_drink_outing_outline_stroke">
            <use fill="#000000" fill-rule="evenodd" sketch:type="MSShapeGroup" xlink:href="#path-1"></use>
            <use fill="none" xlink:href="#path-1"></use>
        </g>
    </g>
</svg>