<?xml version="1.0" encoding="UTF-8" standalone="no"?>
<svg width="16px" height="24px" viewBox="0 0 16 24" version="1.1" xmlns="http://www.w3.org/2000/svg" xmlns:xlink="http://www.w3.org/1999/xlink" xmlns:sketch="http://www.bohemiancoding.com/sketch/ns">
    <!-- Generator: Sketch 3.0.1 (7597) - http://www.bohemiancoding.com/sketch -->
    <title>food-drink_wine-glasses_outline_stroke</title>
    <description>Created with Sketch.</description>
    <defs></defs>
    <g id="miu" stroke="none" stroke-width="1" fill="none" fill-rule="evenodd" sketch:type="MSPage">
        <path d="M9.32510239,12.1942852 C9.61025895,12.6786623 9.81081013,13.2183446 9.86096758,13.8851914 L9.86096758,20 C9.86096758,20 9.8609676,20.475708 9.4502376,20.6538696 C9.03950759,20.8320312 6.62638507,21.0250244 6.62638506,21.5151978 C6.62638506,22.0053711 8.66746172,22 10.5765193,22 C12.485577,22 14.5266536,22.0053711 14.5266536,21.5151978 C14.5266536,21.0250244 12.1135311,20.8320312 11.7028011,20.6538696 C11.2920711,20.475708 11.2920711,20 11.2920711,20 L11.3194411,14 C11.4641351,11 14.5954013,10.5431318 15.1016676,6.5 C15.6079339,2.45686809 14.5954013,0 14.5954013,0 L10.5920832,0 L6.5920833,0 C6.5920833,0 6.37407272,0.528993619 6.19095333,1.5 L7.25809318,1.5 C7.26921163,1.44627894 7.28063833,1.39297698 7.29236614,1.34009647 C7.31193232,1.25187286 7.41801628,1 7.41801628,1 L10.6664078,1 L10.5647081,1 L13.8130996,1 C13.8130996,1 13.9191835,1.25187286 13.9387497,1.34009647 C14.2488901,2.7385151 14.3484634,4.43167323 14.1050327,6.37575387 C13.9312956,7.76324845 13.4696825,8.63680092 12.4778032,9.79739921 C12.3858162,9.90503316 11.9821143,10.3678302 11.8755582,10.4928981 C11.2549714,11.2212977 10.8352583,11.848989 10.6434869,12.532509 C10.4850966,12.0953115 10.256303,11.6809547 9.94957232,11.2484753 C9.75854039,11.5917447 9.54709611,11.9036362 9.32510239,12.1942852 L9.32510239,12.1942852 Z M6.29207109,22 C6.29207109,22 6.29207107,22.475708 6.70280107,22.6538696 C7.11353108,22.8320312 9.5266536,23.0250244 9.52665361,23.5151978 C9.52665361,24.0053711 7.48557695,24 5.57651934,24 C3.66746172,24 1.62638506,24.0053711 1.62638506,23.5151978 C1.62638507,23.0250244 4.03950759,22.8320312 4.4502376,22.6538696 C4.8609676,22.475708 4.86096758,22 4.86096758,22 L4.86096758,15.8851914 C4.64302427,12.98762 1.5855545,12.4909915 1.08581702,8.5 C0.57955078,4.45686809 1.5920833,2 1.5920833,2 L5.59208322,2 L9.59540134,2 C9.59540134,2 10.6079339,4.45686809 10.1016676,8.5 C9.59540132,12.5431318 6.46413508,13 6.31944109,16 L6.29207109,22 Z M5.66640776,3 L2.41801628,3 C2.41801628,3 2.31193232,3.25187286 2.29236614,3.34009647 C1.98222572,4.7385151 1.88265248,6.43167323 2.12608317,8.37575387 C2.29982021,9.76324845 2.76143336,10.6368009 3.75331268,11.7973992 C3.84529961,11.9050332 4.2490015,12.3678302 4.35555769,12.4928981 C4.9761444,13.2212977 5.39585754,13.848989 5.64348691,14.532509 C5.8352583,13.848989 6.25497143,13.2212977 6.87555815,12.4928981 C6.98211434,12.3678302 7.38581623,11.9050332 7.47780316,11.7973992 C8.46968248,10.6368009 8.93129563,9.76324845 9.10503267,8.37575387 C9.34846336,6.43167323 9.24889012,4.7385151 8.9387497,3.34009647 C8.91918352,3.25187286 8.81309956,3 8.81309956,3 L5.56470807,3 L5.66640776,3 Z" id="food-drink_wine-glasses_outline_stroke" fill="#000000" sketch:type="MSShapeGroup"></path>
    </g>
</svg>