<?xml version="1.0" encoding="UTF-8" standalone="no"?>
<svg width="22px" height="22px" viewBox="0 0 22 22" version="1.1" xmlns="http://www.w3.org/2000/svg" xmlns:xlink="http://www.w3.org/1999/xlink" xmlns:sketch="http://www.bohemiancoding.com/sketch/ns">
    <!-- Generator: Sketch 3.0.1 (7597) - http://www.bohemiancoding.com/sketch -->
    <title>food_cupcake_muffin_dessert_birthday_outline_stroke</title>
    <description>Created with Sketch.</description>
    <defs>
        <path d="M17.9230769,15.5 C16.6788635,15.5 15.60459,14 14.3333333,14 C13.0620767,14.0000001 12.0574693,15.5 10.7435898,15.5 C9.4297102,15.5000001 8.52626418,14 7.15384616,14 C5.78142811,14.0000001 5.06550481,15.5000001 3.82051283,15.5 C2.57552083,15.4999999 1,14 1,14 L3.56410256,22 L18.4358974,22 L21,14 C21,14 19.1672903,15.5 17.9230769,15.5 L17.9230769,15.5 Z M14.3484849,15 C13.0714498,15.0000001 12.062276,16.5 10.7424243,16.5 C9.42257252,16.5000001 8.51501995,15 7.13636365,15 C5.75770733,15.0000001 5.03852983,16.5000001 3.78787879,16.5 C2.53722776,16.4999999 2.5,16 2.5,16 L4.04545454,21 L17.9545455,21 L19.5,16 C19.5,16 19.2044144,16.5 17.9545455,16.5 C16.7046765,16.5 15.62552,15 14.3484849,15 Z M11,2 C2.18017578,2 -1.24839888e-07,8.95211784 0,10.3771713 C2.25814943e-07,11.8022248 1,12.977289 1,12.977289 L2,12.977289 C2,12.977289 1.00000012,11.5681169 1,10.3771713 C0.999999895,9.18622577 2.47818947,3.03325058 11,3.03325106 C19.5218105,3.03325156 20.9999999,9.12969485 21,10.3771713 C21,11.6246478 20.5,13 20.5,13 L21.5,13 C21.5,13 22,11.6860323 22,10.3771713 C21.9999999,9.06831036 19.8198242,2 11,2 L11,2 Z M12,1 C12,1 12,7.4138019e-08 10.5270183,0 C9.05403662,-7.41380158e-08 9,1 9,1 L12,1 L12,1 Z" id="path-1"></path>
    </defs>
    <g id="miu" stroke="none" stroke-width="1" fill="none" fill-rule="evenodd" sketch:type="MSPage">
        <g id="food_cupcake_muffin_dessert_birthday_outline_stroke">
            <use fill="#000000" fill-rule="evenodd" sketch:type="MSShapeGroup" xlink:href="#path-1"></use>
            <use fill="none" xlink:href="#path-1"></use>
        </g>
    </g>
</svg>