<?xml version="1.0" encoding="UTF-8" standalone="no"?>
<svg width="22px" height="19px" viewBox="0 0 22 19" version="1.1" xmlns="http://www.w3.org/2000/svg" xmlns:xlink="http://www.w3.org/1999/xlink" xmlns:sketch="http://www.bohemiancoding.com/sketch/ns">
    <!-- Generator: Sketch 3.0.1 (7597) - http://www.bohemiancoding.com/sketch -->
    <title>food_birthday-cake_party_candle_outline_stroke</title>
    <description>Created with Sketch.</description>
    <defs></defs>
    <g id="miu" stroke="none" stroke-width="1" fill="none" fill-rule="evenodd" sketch:type="MSPage">
        <path d="M5,2.5 L5,6.5 L6,6.5 L6,2.5 L5,2.5 M10.5,2.5 L10.5,6.5 L11.5,6.5 L11.5,2.5 L10.5,2.5 M16,2.5 L16,6.5 L17,6.5 L17,2.5 L16,2.5 M5.49468664,1.99995897 C6.0031648,2.00549095 6.3158106,1.45134422 5.49468664,0.5 C4.6885596,1.45134422 4.99975731,1.99457441 5.49468664,1.99995897 L5.49468664,1.99995897 M10.9946866,1.99995897 C11.5031648,2.00549095 11.8158106,1.45134422 10.9946866,0.5 C10.1885596,1.45134422 10.4997573,1.99457441 10.9946866,1.99995897 L10.9946866,1.99995897 M21,11.2505485 L21,9.0085302 C21,8.44883437 20.5553257,8 20.008845,8 L1.991155,8 C1.4468432,8 1,8.45116109 1,9.0085302 L1,11.2892926 C1.12155486,11.3992832 1.24719803,11.5072767 1.37573893,11.6112419 C1.80898421,11.9616549 2.22814385,12.227616 2.60428476,12.3748164 C2.8173304,12.4581905 3.0085886,12.5 3.17307698,12.5 C3.54695452,12.5 3.88231597,12.3064517 4.48275354,11.7835439 C4.57254364,11.7050431 4.57254364,11.7050431 4.66441278,11.624285 C5.58836379,10.8129857 6.11336663,10.5000001 6.92307693,10.5 C7.72188934,10.5 8.25057202,10.795462 9.27727174,11.6079112 C9.34034079,11.6578333 9.34034079,11.6578333 9.402697,11.707074 C10.1414221,12.2895576 10.5285678,12.5 10.9615385,12.5 C11.4248189,12.5 11.8218978,12.2785218 12.6927375,11.6045814 C12.7645088,11.5490249 12.7645088,11.5490249 12.8370374,11.4930617 C13.7519461,10.7884107 14.2893508,10.5000001 15,10.5 C15.7194731,10.5 16.2024236,10.7885049 17.2115597,11.6127574 C17.2791221,11.6679494 17.2791221,11.6679494 17.3459203,11.7223352 C18.0408586,12.2871119 18.4130563,12.5 18.7692307,12.5 C18.9771618,12.5 19.250797,12.4176549 19.5693845,12.2566949 C19.8798561,12.0998354 20.2177036,11.8767824 20.5680095,11.6049701 C20.7152141,11.4907498 20.8598053,11.3717328 21,11.2505485 Z M21,12.5323232 L21,16.9914698 C21,17.5488389 20.5531568,18 20.008845,18 L1.991155,18 C1.44467434,18 1,17.5511656 1,16.9914698 L1,12.586054 C1.41986695,12.9007109 1.83477257,13.1475208 2.23985352,13.3060467 C2.56158426,13.4319541 2.87286155,13.5 3.17307688,13.5 C3.86565437,13.5000001 4.36615516,13.2111443 5.13949578,12.537659 C5.23269317,12.4561792 5.23269317,12.4561792 5.32422555,12.375715 C6.07066119,11.7202877 6.44017229,11.5 6.92307696,11.5 C7.41365038,11.5 7.80766187,11.7201991 8.6567354,12.3920888 C8.71981003,12.4420157 8.71981003,12.4420157 8.78352455,12.4923291 C9.69424762,13.2104329 10.2269573,13.5000001 10.9615385,13.5 C11.732018,13.5 12.2528304,13.2095072 13.3047641,12.3954186 C13.3764056,12.3399629 13.3764056,12.3399629 13.4472241,12.2853193 C14.1900009,11.7132422 14.5873417,11.5 15,11.5 C15.3940596,11.5 15.7613109,11.7193885 16.5789677,12.3872426 C16.6467379,12.4426048 16.6467379,12.4426048 16.7152339,12.4983729 C17.5893224,13.2087452 18.0985307,13.5 18.7692307,13.5 C19.1577861,13.5 19.5739857,13.3747529 20.0203286,13.1492471 C20.3377588,12.9888719 20.6656643,12.779884 21,12.5323232 Z M16.4946866,1.99995897 C17.0031648,2.00549095 17.3158106,1.45134422 16.4946866,0.5 C15.6885596,1.45134422 15.9997573,1.99457441 16.4946866,1.99995897 Z M0,9.0085302 L0,16.9914698 C0,18.1007504 0.889673948,19 1.991155,19 L20.008845,19 C21.1085295,19 22,18.0980496 22,16.9914698 L22,9.0085302 C22,7.8992496 21.1103261,7 20.008845,7 L1.991155,7 C0.891470458,7 0,7.90195036 0,9.0085302 Z" id="food_birthday-cake_party_candle_outline_stroke" fill="#000000" sketch:type="MSShapeGroup"></path>
    </g>
</svg>