<?xml version="1.0" encoding="UTF-8" standalone="no"?>
<svg width="10px" height="22px" viewBox="0 0 10 22" version="1.1" xmlns="http://www.w3.org/2000/svg" xmlns:xlink="http://www.w3.org/1999/xlink" xmlns:sketch="http://www.bohemiancoding.com/sketch/ns">
    <!-- Generator: Sketch 3.0.1 (7597) - http://www.bohemiancoding.com/sketch -->
    <title>food-drink_wine-glass_glyph</title>
    <description>Created with Sketch.</description>
    <defs></defs>
    <g id="miu" stroke="none" stroke-width="1" fill="none" fill-rule="evenodd" sketch:type="MSPage">
        <path d="M0.141754542,6.5 C-0.364511696,2.45686809 0.648020825,0 0.648020825,0 L8.64802083,0 C8.64802083,0 9.66055333,2.45686809 9.15428711,6.5 C8.64802081,10.5431318 5.51675457,11 5.37206058,14 L5.34800862,20 C5.34800862,20 5.3480086,20.475708 5.7587386,20.6538696 C6.16946861,20.8320312 8.58259113,21.0250244 8.58259114,21.5151978 C8.58259114,22.0053711 6.54151448,22 4.63245687,22 C2.72339925,22 0.682322585,22.0053711 0.682322585,21.5151978 C0.682322595,21.0250244 3.09544512,20.8320312 3.50617513,20.6538696 C3.91690513,20.475708 3.91690511,20 3.91690511,20 L3.91690511,13.8851914 C3.6989618,10.98762 0.641492019,10.4909915 0.141754542,6.5 Z" id="food-drink_wine-glass_glyph" fill="#000000" sketch:type="MSShapeGroup"></path>
    </g>
</svg>