<?xml version="1.0" encoding="UTF-8" standalone="no"?>
<svg width="22px" height="14px" viewBox="0 0 22 14" version="1.1" xmlns="http://www.w3.org/2000/svg" xmlns:xlink="http://www.w3.org/1999/xlink" xmlns:sketch="http://www.bohemiancoding.com/sketch/ns">
    <!-- Generator: Sketch 3.0.1 (7597) - http://www.bohemiancoding.com/sketch -->
    <title>food-drink_cup_coffee_tea_drink_outline_stroke</title>
    <description>Created with Sketch.</description>
    <defs></defs>
    <g id="miu" stroke="none" stroke-width="1" fill="none" fill-rule="evenodd" sketch:type="MSPage">
        <path d="M15.4453566,10.0030822 C14.149379,11.7401413 12.3146109,12.520182 10.5926785,12.5201823 C7.18747422,12.5201827 3.34100373,9.46967989 4.09267821,2 L4.09300295,2 C4.12819409,0.904726002 7.02471735,0.0201822519 10.5926789,0.0201822519 C14.1606404,0.0201822519 17.0571636,0.904726002 17.0926789,2 C17.1500899,2.57051614 17.1806776,3.11525285 17.1866871,3.63481994 C17.5100451,3.54395944 18.0200976,3.47736373 18.7685822,3.57297766 C20.2702912,3.76481116 20.599698,5.21953133 20.6756867,5.77048736 C20.7516755,6.32144338 20.5683474,6.89845762 20.3558014,7.32712798 C20.0730255,7.89744048 19.3738068,8.50766997 18.9636505,8.78440337 C18.3180731,9.2199759 16.7281769,9.84647613 15.9521149,9.95499663 C15.7096771,9.98889788 15.5501353,10.001618 15.4453566,10.0030822 Z M16.3367598,8.44806665 C16.7340513,7.52860589 17.0127691,6.44126482 17.1282987,5.17392637 C17.6085911,4.78546412 18.4550137,4.30066216 19.3195466,4.7621867 C19.6551091,4.94132424 20.0309113,5.49656169 19.8863801,6.20731609 C19.7418488,6.91807048 18.8970002,7.69584124 18.235135,8.00986712 C17.5821786,8.31966607 16.8628237,8.42081002 16.3367598,8.44806665 Z M16.1896353,3.037772 C16.4043921,9.02922087 13.2398295,11.5 10.6,11.5 C7.96126252,11.5 4.79822612,9.0312647 5.01009994,3.04520594 C6.14509562,3.62918048 8.22048669,4.02018225 10.5926789,4.02018225 C12.9749229,4.02018225 15.0578452,3.62585981 16.1896353,3.037772 L16.1896353,3.037772 Z M16.0926789,2.02018225 C16.0926789,1.46789747 13.6302451,1.02018225 10.5926789,1.02018225 C7.55511258,1.02018225 5.09267885,1.46789747 5.09267885,2.02018225 C5.09267885,2.57246703 7.55511258,3.02018225 10.5926789,3.02018225 C13.6302451,3.02018225 16.0926789,2.57246703 16.0926789,2.02018225 Z M0.5,13 C0.5,13 6.7355574e-16,13 0,13.5 C6.73555729e-16,14 0.5,14 0.5,14 L21.5,14 C21.5,14 22,14 22,13.5 C22,13 21.5,13 21.5,13 L0.5,13 Z" id="food-drink_cup_coffee_tea_drink_outline_stroke" fill="#000000" sketch:type="MSShapeGroup"></path>
    </g>
</svg>