<?xml version="1.0" encoding="UTF-8" standalone="no"?>
<svg width="19px" height="22px" viewBox="0 0 19 22" version="1.1" xmlns="http://www.w3.org/2000/svg" xmlns:xlink="http://www.w3.org/1999/xlink" xmlns:sketch="http://www.bohemiancoding.com/sketch/ns">
    <!-- Generator: Sketch 3.0.1 (7597) - http://www.bohemiancoding.com/sketch -->
    <title>food-drink_cocktail_wine_glass_outing_drink_outline_stroke</title>
    <description>Created with Sketch.</description>
    <defs></defs>
    <g id="miu" stroke="none" stroke-width="1" fill="none" fill-rule="evenodd" sketch:type="MSPage">
        <path d="M5,4.0111084 L2.99330406,4.0111084 C2.4476136,4.0111084 2.2679105,4.37453168 2.59839486,4.82283702 L10.1378407,15.0501709 L10.0389975,21.0302734 L7.85796456,21.0302734 L7.85796456,21.9102734 L13.3105469,21.9102734 L13.3105469,21.0302734 L10.9114107,21.0302734 L11.0102539,15.0501709 L18.8704055,4.80501055 C19.2072977,4.365895 19.0295624,4.0111084 18.4745458,4.0111084 L10,4.0111084 L10,4 L7.31986421,4 L5.4745434,0.205342815 C5.4338994,0.0919351099 5.30493793,0 5.18270706,0 L0.218243841,0 C0.0977110952,0 0,0.0965785328 0,0.218459271 L0,0.683996097 C0,0.804647822 0.0981841613,0.902455369 0.216144054,0.902455369 L4.60066357,0.902455369 C4.72003663,0.902455369 4.84915814,0.9936192 4.8909087,1.11127237 L6.29222569,4 L5,4 L5,4.0111084 L5,4.0111084 Z M9.47167881,5 L17.3999939,5 L17.3881836,5.01574707 L17.5168457,5.01574707 L16.0058587,6.8588469 L10.6499939,14 L3.8999939,5 L5.23381579,5 L9.47167881,5 L9.47167881,5 Z" id="food-drink_cocktail_wine_glass_outing_drink_outline_stroke" fill="#000000" sketch:type="MSShapeGroup"></path>
    </g>
</svg>