<?xml version="1.0" encoding="UTF-8" standalone="no"?>
<svg width="13px" height="22px" viewBox="0 0 13 22" version="1.1" xmlns="http://www.w3.org/2000/svg" xmlns:xlink="http://www.w3.org/1999/xlink" xmlns:sketch="http://www.bohemiancoding.com/sketch/ns">
    <!-- Generator: Sketch 3.0.1 (7597) - http://www.bohemiancoding.com/sketch -->
    <title>food_fork_spoon_restaurant_eating_glyph</title>
    <description>Created with Sketch.</description>
    <defs></defs>
    <g id="miu" stroke="none" stroke-width="1" fill="none" fill-rule="evenodd" sketch:type="MSPage">
        <path d="M3.5,8.44138133 L5,7.01201391 L5.00000011,0 L6,1.5 L6,7.5 L3.5,9.99999999 C3.5,9.99999999 3.74999998,12.8711033 3.75,15.5 C3.75,18.1288967 3.5,22 3.5,22 L2.5,22 C2.5,22 2.25,18.1486721 2.25,15.5 C2.24999998,12.8513279 2.5,9.99999999 2.5,9.99999999 L0,7.5 L0,1.5 L1.00236738,0 L1.00236738,7.01201391 L2.5,8.44081669 L2.5,0 L3.5,0 L3.5,8.44138133 Z M13,7.41379478 C13,6.41644186 12.5,-1.69085771e-06 10.0000022,0 C7.50000429,1.69085775e-06 7,6.41644186 7,7.41379478 C7,9.40850064 9.5,10.0317648 9.5,10.0317648 C9.5,10.0317648 9.24999998,13.0238236 9.25,15.5172059 C9.25,18.0105883 9.5,22 9.5,22 L10.5,22 C10.5,22 10.75,18.1216118 10.75,15.5172059 C10.75,12.9128001 10.5,10.0317648 10.5,10.0317648 C10.5,10.0317648 13,9.40850064 13,7.41379478 L13,7.41379478 Z" id="food_fork_spoon_restaurant_eating_glyph" fill="#000000" sketch:type="MSShapeGroup"></path>
    </g>
</svg>