<?xml version="1.0" encoding="UTF-8" standalone="no"?>
<svg width="20px" height="24px" viewBox="0 0 20 24" version="1.1" xmlns="http://www.w3.org/2000/svg" xmlns:xlink="http://www.w3.org/1999/xlink" xmlns:sketch="http://www.bohemiancoding.com/sketch/ns">
    <!-- Generator: Sketch 3.0.1 (7597) - http://www.bohemiancoding.com/sketch -->
    <title>food_pizza_fastfood_outline_stroke</title>
    <description>Created with Sketch.</description>
    <defs>
        <path d="M5.07120515,7.13969257 C4.72811689,7.24414962 4.4192815,7.34290113 4.15056762,7.43166291 L2.96580739,5.37044278 C2.96580739,5.37044278 8.97636008,3.26359193 14.4038427,3.26359273 C19.8313253,3.26359349 25.841878,5.37044278 25.841878,5.37044278 L24.6571178,7.43166291 C24.4336252,7.35783868 24.1823789,7.27710416 23.9067555,7.19192412 L24.6980744,5.92016048 C24.6980744,5.92016048 20.0422482,4.18053006 14.4869268,4.18053006 C8.93160545,4.18053015 4.33837163,5.92016048 4.33837163,5.92016048 L5.07120515,7.13969257 L5.07120515,7.13969257 Z M24.2159544,8.19918944 L14.4038427,25.2700884 L4.59173104,8.19918944 C6.71146594,7.52037861 10.5989473,6.47287345 14.4038427,6.47287336 C18.208738,6.47287336 22.0962194,7.52037857 24.2159544,8.19918942 L24.2159544,8.19918944 L24.2159544,8.19918944 Z M14.4038427,23.4362138 L22.6392281,9.09309697 C22.6392281,9.09309697 18.8031161,7.48540518 14.4038427,7.48540456 C10.0045692,7.48540392 6.16845727,9.09309697 6.16845727,9.09309697 L14.4038427,23.4362138 L14.4038427,23.4362138 Z M12.1162356,15.1837779 C12.874282,15.1837779 13.4887999,14.5679877 13.4887999,13.8083719 C13.4887999,13.0487561 12.874282,12.4329659 12.1162356,12.4329659 C11.3581893,12.4329659 10.7436714,13.0487561 10.7436714,13.8083719 C10.7436714,14.5679877 11.3581893,15.1837779 12.1162356,15.1837779 L12.1162356,15.1837779 Z M13.4887999,11.5160286 C14.2468462,11.5160286 14.8613641,10.9002384 14.8613641,10.1406226 C14.8613641,9.38100685 14.2468462,8.76521666 13.4887999,8.76521666 C12.7307535,8.76521666 12.1162356,9.38100685 12.1162356,10.1406226 C12.1162356,10.9002384 12.7307535,11.5160286 13.4887999,11.5160286 L13.4887999,11.5160286 Z M15.3188855,19.3099959 C16.0769318,19.3099959 16.6914497,18.6942057 16.6914497,17.9345899 C16.6914497,17.1749741 16.0769318,16.5591839 15.3188855,16.5591839 C14.5608392,16.5591839 13.9463213,17.1749741 13.9463213,17.9345899 C13.9463213,18.6942057 14.5608392,19.3099959 15.3188855,19.3099959 L15.3188855,19.3099959 Z M18.5215354,12.4329659 C19.2795817,12.4329659 19.8940996,11.8171758 19.8940996,11.05756 C19.8940996,10.2979442 19.2795817,9.68215398 18.5215354,9.68215398 C17.763489,9.68215398 17.1489711,10.2979442 17.1489711,11.05756 C17.1489711,11.8171758 17.763489,12.4329659 18.5215354,12.4329659 L18.5215354,12.4329659 Z" id="path-1"></path>
    </defs>
    <g id="miu" stroke="none" stroke-width="1" fill="none" fill-rule="evenodd" sketch:type="MSPage">
        <g id="food_pizza_fastfood_outline_stroke">
            <use fill="#000000" fill-rule="evenodd" sketch:type="MSShapeGroup" transform="translate(14.465855, 14.264677) rotate(-30.000000) translate(-14.465855, -14.264677) " xlink:href="#path-1"></use>
            <use fill="none" xlink:href="#path-1"></use>
        </g>
    </g>
</svg>