<?xml version="1.0" encoding="UTF-8" standalone="no"?>
<svg width="13px" height="22px" viewBox="0 0 13 22" version="1.1" xmlns="http://www.w3.org/2000/svg" xmlns:xlink="http://www.w3.org/1999/xlink" xmlns:sketch="http://www.bohemiancoding.com/sketch/ns">
    <!-- Generator: Sketch 3.0.1 (7597) - http://www.bohemiancoding.com/sketch -->
    <title>food_fork_spoon_restaurant_eating_outline_stroke</title>
    <description>Created with Sketch.</description>
    <defs></defs>
    <g id="miu" stroke="none" stroke-width="1" fill="none" fill-rule="evenodd" sketch:type="MSPage">
        <path d="M6,7.5 L6,1.5 L5.00000011,0 L5,7.01201391 L3,8.91783714 L1.00236738,7.01201391 L1.00236738,0 L0,1.5 L0,7.5 L2.5,9.99999999 C2.5,9.99999999 2.24999998,12.8513279 2.25,15.5 C2.25,18.1486721 2.5,22 2.5,22 L3.5,22 C3.5,22 3.75,18.1288967 3.75,15.5 C3.74999998,12.8711033 3.5,9.99999999 3.5,9.99999999 L6,7.5 L6,7.5 Z M2.5,0 L2.5,7 L3.5,7 L3.5,0 L2.5,0 L2.5,0 Z M13,7.41379478 C13,6.41644186 12.5,-1.69085771e-06 10.0000022,0 C7.50000429,1.69085775e-06 7,6.41644186 7,7.41379478 C7,9.40850064 9.5,10.0317648 9.5,10.0317648 C9.5,10.0317648 9.24999998,13.0238236 9.25,15.5172059 C9.25,18.0105883 9.5,22 9.5,22 L10.5,22 C10.5,22 10.75,18.1216118 10.75,15.5172059 C10.75,12.9128001 10.5,10.0317648 10.5,10.0317648 C10.5,10.0317648 13,9.40850064 13,7.41379478 Z M10,9 C12.3358152,9 12.2999878,7.36621094 12,5 C11.7000122,2.63378906 10.705078,1 10,1 C9.29492198,1 8.3092041,2.56262207 8,5 C7.6907959,7.43737793 7.66418475,9 10,9 Z" id="food_fork_spoon_restaurant_eating_outline_stroke" fill="#000000" sketch:type="MSShapeGroup"></path>
    </g>
</svg>