<?xml version="1.0" encoding="UTF-8" standalone="no"?>
<svg width="22px" height="14px" viewBox="0 0 22 14" version="1.1" xmlns="http://www.w3.org/2000/svg" xmlns:xlink="http://www.w3.org/1999/xlink" xmlns:sketch="http://www.bohemiancoding.com/sketch/ns">
    <!-- Generator: Sketch 3.0.1 (7597) - http://www.bohemiancoding.com/sketch -->
    <title>food-drink_cup_coffee_tea_drink_glyph</title>
    <description>Created with Sketch.</description>
    <defs></defs>
    <g id="miu" stroke="none" stroke-width="1" fill="none" fill-rule="evenodd" sketch:type="MSPage">
        <path d="M17.1866871,3.63481994 C17.1837932,3.38461846 17.1751996,3.1285802 17.1606557,2.86663707 L17.1606557,2.86663707 C16.1738712,3.82019476 13.605563,4.5 10.5926789,4.5 C7.5797941,4.5 5.01148545,3.82019448 4.02470136,2.86663648 C3.64493195,9.70648052 7.3223113,12.5201826 10.5926785,12.5201823 C12.3146109,12.520182 14.149379,11.7401413 15.4453566,10.0030822 C15.5501353,10.001618 15.7096771,9.98889788 15.9521149,9.95499663 C16.7281769,9.84647613 18.3180731,9.2199759 18.9636505,8.78440337 C19.3738068,8.50766997 20.0730255,7.89744048 20.3558014,7.32712798 C20.5683474,6.89845762 20.7516755,6.32144338 20.6756867,5.77048736 C20.599698,5.21953133 20.2702912,3.76481116 18.7685822,3.57297766 C18.0200976,3.47736373 17.5100451,3.54395944 17.1866871,3.63481994 Z M17.1282987,5.17392637 C17.0127691,6.44126482 16.7340513,7.52860589 16.3367598,8.44806665 C16.8628237,8.42081002 17.5821786,8.31966607 18.235135,8.00986712 C18.8970002,7.69584124 19.7418488,6.91807048 19.8863801,6.20731609 C20.0309113,5.49656169 19.6551091,4.94132424 19.3195466,4.7621867 C18.4550137,4.30066216 17.6085911,4.78546412 17.1282987,5.17392637 Z M17.0926789,2.02018225 C17.0926789,0.915612698 14.1825299,0.0201822519 10.5926789,0.0201822519 C7.0028278,0.0201822519 4.09267885,0.915612698 4.09267885,2.02018225 C4.09267885,3.12475181 7.0028278,4.02018225 10.5926789,4.02018225 C14.1825299,4.02018225 17.0926789,3.12475181 17.0926789,2.02018225 Z M0.5,13 C0.5,13 6.7355574e-16,13 0,13.5 C6.73555729e-16,14 0.5,14 0.5,14 L21.5,14 C21.5,14 22,14 22,13.5 C22,13 21.5,13 21.5,13 L0.5,13 Z" id="food-drink_cup_coffee_tea_drink_glyph" fill="#000000" sketch:type="MSShapeGroup"></path>
    </g>
</svg>