<?xml version="1.0" encoding="UTF-8" standalone="no"?>
<svg width="16px" height="24px" viewBox="0 0 16 24" version="1.1" xmlns="http://www.w3.org/2000/svg" xmlns:xlink="http://www.w3.org/1999/xlink" xmlns:sketch="http://www.bohemiancoding.com/sketch/ns">
    <!-- Generator: Sketch 3.0.1 (7597) - http://www.bohemiancoding.com/sketch -->
    <title>food-drink_wine-glasses_glyph</title>
    <description>Created with Sketch.</description>
    <defs></defs>
    <g id="miu" stroke="none" stroke-width="1" fill="none" fill-rule="evenodd" sketch:type="MSPage">
        <path d="M6.24689085,1.5 C6.43001024,0.528993619 6.64802083,0 6.64802083,0 L14.6480208,0 C14.6480208,0 15.6605533,2.45686809 15.1542871,6.5 C14.6480208,10.5431318 11.5167546,11 11.3720606,14 L11.3480086,20 C11.3480086,20 11.3480086,20.475708 11.7587386,20.6538696 C12.1694686,20.8320312 14.5825911,21.0250244 14.5825911,21.5151978 C14.5825911,22.0053711 12.5415145,22 10.6324569,22 C8.72339925,22 6.68232259,22.0053711 6.68232259,21.5151978 C6.6823226,21.0250244 9.09544512,20.8320312 9.50617513,20.6538696 C9.91690513,20.475708 9.91690511,20 9.91690511,20 L9.91690511,13.8851914 C9.85040001,13.0010015 9.5194905,12.3403771 9.07753492,11.7358081 C9.57201231,10.9436198 9.97387969,9.98437323 10.1351522,8.69642857 C10.695664,4.22010396 9.57464044,1.5 9.57464044,1.5 L6.24689085,1.5 Z M0.641754542,8.5 C0.135488304,4.45686809 1.14802083,2 1.14802083,2 L9.14802083,2 C9.14802083,2 10.1605533,4.45686809 9.65428711,8.5 C9.14802081,12.5431318 6.01675457,13 5.87206058,16 L5.84800862,22 C5.84800862,22 5.8480086,22.475708 6.2587386,22.6538696 C6.66946861,22.8320312 9.08259113,23.0250244 9.08259114,23.5151978 C9.08259114,24.0053711 7.04151448,24 5.13245687,24 C3.22339925,24 1.18232259,24.0053711 1.18232259,23.5151978 C1.1823226,23.0250244 3.59544512,22.8320312 4.00617513,22.6538696 C4.41690513,22.475708 4.41690511,22 4.41690511,22 L4.41690511,15.8851914 C4.1989618,12.98762 1.14149202,12.4909915 0.641754542,8.5 Z" id="food-drink_wine-glasses_glyph" fill="#000000" sketch:type="MSShapeGroup"></path>
    </g>
</svg>