<?xml version="1.0" encoding="UTF-8" standalone="no"?>
<svg width="22px" height="19px" viewBox="0 0 22 19" version="1.1" xmlns="http://www.w3.org/2000/svg" xmlns:xlink="http://www.w3.org/1999/xlink" xmlns:sketch="http://www.bohemiancoding.com/sketch/ns">
    <!-- Generator: Sketch 3.0.1 (7597) - http://www.bohemiancoding.com/sketch -->
    <title>food_birthday-cake_party_candle_glyph</title>
    <description>Created with Sketch.</description>
    <defs></defs>
    <g id="miu" stroke="none" stroke-width="1" fill="none" fill-rule="evenodd" sketch:type="MSPage">
        <path d="M1.12820513,11.9203853 C1.7183243,12.3268714 2.45152742,12.7142857 3.1025641,12.7142857 C4.47205527,12.7142858 5.25957092,11.0000001 6.76923076,11 C8.2788906,11 9.2726812,12.7142858 10.7179487,12.7142857 C12.1632162,12.7142857 13.2682843,11.0000001 14.6666666,11 C16.065049,11 17.2467498,12.7142857 18.6153846,12.7142857 C19.3170016,12.7142857 20.188741,12.2637717 20.8717949,11.8246467 L20.8717949,9.00866367 C20.8717949,8.00433184 20.3076923,8.00433184 20.3076923,8.00433184 L1.6923077,8.00433184 C1.6923077,8.00433184 1.12820513,8.00433184 1.12820513,9.00866367 L1.12820513,11.9203853 Z M0,11.5 L0,16.7142857 C-2.74779999e-07,19 2.25641026,19 2.25641026,19 L19.7435897,19 C19.7435897,19 22,19 22,16.7142857 L22,11.5 L22,9.00866367 C22,7 20.3076923,7 20.3076923,7 L1.6923077,7 C1.6923077,7 0,7 0,9.00866367 L0,11.5 Z M5,2.5 L5,6.5 L6,6.5 L6,2.5 L5,2.5 L5,2.5 Z M10.5,2.5 L10.5,6.5 L11.5,6.5 L11.5,2.5 L10.5,2.5 L10.5,2.5 Z M16,2.5 L16,6.5 L17,6.5 L17,2.5 L16,2.5 L16,2.5 Z M5.49468664,1.99995897 C6.0031648,2.00549095 6.3158106,1.45134422 5.49468664,0.5 C4.6885596,1.45134422 4.99975731,1.99457441 5.49468664,1.99995897 L5.49468664,1.99995897 Z M10.9946866,1.99995897 C11.5031648,2.00549095 11.8158106,1.45134422 10.9946866,0.5 C10.1885596,1.45134422 10.4997573,1.99457441 10.9946866,1.99995897 L10.9946866,1.99995897 Z M16.4946866,1.99995897 C17.0031648,2.00549095 17.3158106,1.45134422 16.4946866,0.5 C15.6885596,1.45134422 15.9997573,1.99457441 16.4946866,1.99995897 L16.4946866,1.99995897 Z" id="food_birthday-cake_party_candle_glyph" fill="#000000" sketch:type="MSShapeGroup"></path>
    </g>
</svg>