<?xml version="1.0" encoding="UTF-8" standalone="no"?>
<svg width="10px" height="23px" viewBox="0 0 10 23" version="1.1" xmlns="http://www.w3.org/2000/svg" xmlns:xlink="http://www.w3.org/1999/xlink" xmlns:sketch="http://www.bohemiancoding.com/sketch/ns">
    <!-- Generator: Sketch 3.0.1 (7597) - http://www.bohemiancoding.com/sketch -->
    <title>food-drink_wine-glass_outline_stroke</title>
    <description>Created with Sketch.</description>
    <defs></defs>
    <g id="miu" stroke="none" stroke-width="1" fill="none" fill-rule="evenodd" sketch:type="MSPage">
        <path d="M5.34800862,20.0814755 C5.34800862,20.0814755 5.3480086,20.5571835 5.7587386,20.7353451 C6.16946861,20.9135067 8.58259113,21.1064999 8.58259114,21.5966733 C8.58259114,22.0868466 6.54151448,22.0814755 4.63245687,22.0814755 C2.72339925,22.0814755 0.682322585,22.0868466 0.682322585,21.5966733 C0.682322595,21.1064999 3.09544512,20.9135067 3.50617513,20.7353451 C3.91690513,20.5571835 3.91690511,20.0814755 3.91690511,20.0814755 L3.91690511,13.9666669 C3.6989618,11.0690955 0.641492019,10.572467 0.141754542,6.58147545 C-0.364511696,2.53834354 0.648020825,0.081475452 0.648020825,0.081475452 L4.64802075,0.081475452 L8.65133887,0.081475452 C8.65133887,0.081475452 9.66387143,2.53834354 9.15760515,6.58147545 C8.65133885,10.6246073 5.52007261,11.0814755 5.37537862,14.0814755 L5.34800862,20.0814755 Z M4.72234529,1.08147545 L1.47395381,1.08147545 C1.47395381,1.08147545 1.36786985,1.33334831 1.34830367,1.42157192 C1.03816325,2.81999055 0.938590005,4.51314868 1.1820207,6.45722932 C1.35575774,7.8447239 1.81737089,8.71827637 2.80925021,9.87887466 C2.90123714,9.98650861 3.30493903,10.4493057 3.41149522,10.5743736 C4.03208193,11.3027732 4.45179507,11.9304645 4.69942444,12.6139845 C4.89119583,11.9304645 5.31090896,11.3027732 5.93149568,10.5743736 C6.03805187,10.4493057 6.44175376,9.98650861 6.53374069,9.87887466 C7.52562001,8.71827637 7.98723316,7.8447239 8.1609702,6.45722932 C8.40440089,4.51314868 8.30482765,2.81999055 7.99468723,1.42157192 C7.97512105,1.33334831 7.86903709,1.08147545 7.86903709,1.08147545 L4.6206456,1.08147545 L4.72234529,1.08147545 L4.72234529,1.08147545 Z" id="food-drink_wine-glass_outline_stroke" fill="#000000" sketch:type="MSShapeGroup"></path>
    </g>
</svg>