<?xml version="1.0" encoding="UTF-8" standalone="no"?>
<svg width="22px" height="22px" viewBox="0 0 22 22" version="1.1" xmlns="http://www.w3.org/2000/svg" xmlns:xlink="http://www.w3.org/1999/xlink" xmlns:sketch="http://www.bohemiancoding.com/sketch/ns">
    <!-- Generator: Sketch 3.0.1 (7597) - http://www.bohemiancoding.com/sketch -->
    <title>food_cupcake_muffin_dessert_birthday_glyph</title>
    <description>Created with Sketch.</description>
    <defs></defs>
    <g id="miu" stroke="none" stroke-width="1" fill="none" fill-rule="evenodd" sketch:type="MSPage">
        <path d="M17.9230769,15.5 C16.6788635,15.5 15.60459,14 14.3333333,14 C13.0620767,14.0000001 12.0574693,15.5 10.7435898,15.5 C9.4297102,15.5000001 8.52626418,14 7.15384616,14 C5.78142811,14.0000001 5.06550481,15.5000001 3.82051283,15.5 C2.57552083,15.4999999 1,14 1,14 L3.56410256,22 L18.4358974,22 L21,14 C21,14 19.1672903,15.5 17.9230769,15.5 L17.9230769,15.5 Z M0,10.3771713 C2.25814943e-07,11.8022248 1,12.977289 1,12.977289 C1,12.977289 2.39892578,14.8509521 3.78967285,14.8509521 C5.18041992,14.8509521 5.40161133,13.3297119 7.08435059,13.3297119 C8.76708984,13.3297119 9.67822266,14.846262 10.7064209,14.8509521 C11.7307144,14.8556245 13.233243,13.3380499 14.3074951,13.3297119 C15.8292236,13.3179007 16.7811279,14.8343945 17.9630127,14.8509521 C19.1448975,14.8675098 21.5,13 21.5,13 C21.5,13 22,11.6860323 22,10.3771713 C21.9999999,9.06831036 19.8198242,2 11,2 C2.18017578,2 -1.24839888e-07,8.95211784 0,10.3771713 Z M12,1 C12,1 12,7.4138019e-08 10.5270183,0 C9.05403662,-7.41380158e-08 9,1 9,1 L12,1 L12,1 Z" id="food_cupcake_muffin_dessert_birthday_glyph" fill="#000000" sketch:type="MSShapeGroup"></path>
    </g>
</svg>