<?xml version="1.0" encoding="UTF-8" standalone="no"?>
<svg width="29px" height="22px" viewBox="0 0 29 22" version="1.1" xmlns="http://www.w3.org/2000/svg" xmlns:xlink="http://www.w3.org/1999/xlink" xmlns:sketch="http://www.bohemiancoding.com/sketch/ns">
    <!-- Generator: Sketch 3.0.3 (7891) - http://www.bohemiancoding.com/sketch -->
    <title>house_home_export_glyph</title>
    <desc>Created with Sketch.</desc>
    <defs></defs>
    <g id="miu" stroke="none" stroke-width="1" fill="none" fill-rule="evenodd" sketch:type="MSPage">
        <path d="M24.0834266,4.78442511 C22.2665206,4.88992663 15.1212787,5.69807927 12.265625,11.8886127 C16.7538193,6.23617826 22.4137252,6.9866884 23.7360372,7.25622899 L23.431389,9.42391369 L28.8698352,6.65384096 L24.4056007,2.49203721 L24.0834266,4.78442511 Z M17.8289224,5.28254038 L11,0 L0,8.50909424 L2,8.50909424 L2,8.50909424 L2,22 L20,22 L20,9.90546609 L19.9897465,9.91018832 L19.9897465,8.12066639 C19.1472782,8.23150623 17.2518816,8.91700096 15.7998054,9.91018842 C14.9792263,10.4714461 14.2015417,11.1643172 13.4732624,12 L14,12 L14,22 L8,22 L8,12 L11.1129745,12 L11.357581,11.4697378 C12.6113971,8.75169458 14.6959242,6.79727989 17.3554935,5.50323092 C17.5123205,5.42692463 17.6701647,5.35338076 17.8289224,5.28254038 L17.8289224,5.28254038 Z M2,5.86584474 L2,0.509094238 L5,0.509094238 L5,3.50909424 L2,5.86584474 Z" id="house_home_export_glyph" fill="#000000" sketch:type="MSShapeGroup"></path>
    </g>
</svg>