<?xml version="1.0" encoding="UTF-8" standalone="no"?>
<svg width="29px" height="23px" viewBox="0 0 29 23" version="1.1" xmlns="http://www.w3.org/2000/svg" xmlns:xlink="http://www.w3.org/1999/xlink" xmlns:sketch="http://www.bohemiancoding.com/sketch/ns">
    <!-- Generator: Sketch 3.0.3 (7891) - http://www.bohemiancoding.com/sketch -->
    <title>house_home_export_outline_stroke</title>
    <desc>Created with Sketch.</desc>
    <defs>
        <path d="M24.0834266,4.78442511 C22.2665206,4.88992663 15.1212787,5.69807927 12.265625,11.8886127 C16.7538193,6.23617826 22.4137252,6.9866884 23.7360372,7.25622899 L23.431389,9.42391369 L28.8698352,6.65384096 L24.4056007,2.49203721 L24.0834266,4.78442511 Z M16.649273,5.87001788 L11,1.5 L0,10.0090942 L0,8.50909424 L11,0 L17.8289224,5.28254038 C17.6701647,5.35338076 17.5123205,5.42692463 17.3554935,5.50323092 C17.115335,5.62008324 16.8798654,5.74232022 16.649273,5.87001788 L16.649273,5.87001788 Z M19.7162844,8.24251683 L22,10.0090942 L22,8.50909424 L21.416803,8.05795982 C20.8594564,8.07039951 20.29074,8.1296056 19.7162844,8.24251683 L19.7162844,8.24251683 Z M13.4732624,12 L14,12 L14,22 L8,22 L8,12 L11.1129745,12 L10.6516808,13 L9,13 L9,21 L13,21 L13,13 L12.6600548,13 L13.0487698,12.510452 C13.1883179,12.3347051 13.329832,12.1645829 13.4732624,12 L13.4732624,12 Z M2,22.0090942 L6.98022461,22.0090942 L6.98022461,21.0090942 L3,21.0090942 L3,9.10784913 L2,9.91845703 L2,22.0090942 Z M19.0074464,21.0090942 L15.0289307,21.0090942 L15.0289307,22.0090942 L20.0074464,22.0090942 L20.0074463,9.88024901 L19.0074463,9.08068846 L19.0074464,21.0090942 Z M3,5.00909424 L2,5.86584474 L2,0.509094238 L5,0.509094238 L5,3.50909424 L4,4.38079834 L4,1.50909424 L3,1.50909424 L3,5.00909424 Z" id="path-1"></path>
    </defs>
    <g id="miu" stroke="none" stroke-width="1" fill="none" fill-rule="evenodd" sketch:type="MSPage">
        <g id="house_home_export_outline_stroke">
            <use fill="#000000" fill-rule="evenodd" sketch:type="MSShapeGroup" xlink:href="#path-1"></use>
            <use fill="none" xlink:href="#path-1"></use>
        </g>
    </g>
</svg>