<?xml version="1.0" encoding="UTF-8" standalone="no"?>
<svg width="22px" height="23px" viewBox="0 0 22 23" version="1.1" xmlns="http://www.w3.org/2000/svg" xmlns:xlink="http://www.w3.org/1999/xlink" xmlns:sketch="http://www.bohemiancoding.com/sketch/ns">
    <!-- Generator: Sketch 3.0.1 (7597) - http://www.bohemiancoding.com/sketch -->
    <title>house_home_outline_stroke</title>
    <description>Created with Sketch.</description>
    <defs>
        <path d="M11,0 L0,8.50909424 L0,10.0090942 L11,1.5 L22,10.0090942 L22,8.50909424 L11,0 L11,0 Z M2,22.0090942 L6.98022461,22.0090942 L6.98022461,21.0090942 L3,21.0090942 L3,9.10784913 L2,9.91845703 L2,22.0090942 Z M19.0074464,21.0090942 L15.0289307,21.0090942 L15.0289307,22.0090942 L20.0074464,22.0090942 L20.0074463,9.88024901 L19.0074463,9.08068846 L19.0074464,21.0090942 Z M8,12 L8,22 L14,22 L14,12 L8,12 Z M9,13 L9,21 L13,21 L13,13 L9,13 Z M19,5.00909424 L20,5.86584474 L20,0.509094238 L17,0.509094238 L17,3.50909424 L18,4.38079834 L18,1.50909424 L19,1.50909424 L19,5.00909424 Z" id="path-1"></path>
    </defs>
    <g id="miu" stroke="none" stroke-width="1" fill="none" fill-rule="evenodd" sketch:type="MSPage">
        <g id="house_home_outline_stroke">
            <use fill="#000000" fill-rule="evenodd" sketch:type="MSShapeGroup" xlink:href="#path-1"></use>
            <use fill="none" xlink:href="#path-1"></use>
        </g>
    </g>
</svg>