<?xml version="1.0" encoding="UTF-8" standalone="no"?>
<svg width="15px" height="22px" viewBox="0 0 15 22" version="1.1" xmlns="http://www.w3.org/2000/svg" xmlns:xlink="http://www.w3.org/1999/xlink" xmlns:sketch="http://www.bohemiancoding.com/sketch/ns">
    <!-- Generator: Sketch 3.0.1 (7597) - http://www.bohemiancoding.com/sketch -->
    <title>map_location_pin_map-marker_glyph</title>
    <description>Created with Sketch.</description>
    <defs></defs>
    <g id="miu" stroke="none" stroke-width="1" fill="none" fill-rule="evenodd" sketch:type="MSPage">
        <path d="M7.5,22 C7.5,22 15,12.1277183 15,7.8128179 C15,3.49791751 12.5187988,-1.09762448e-06 7.5,0 C2.48120117,1.11146572e-06 0,3.49791751 0,7.8128179 C0,12.1277183 7.5,22 7.5,22 L7.5,22 Z M7.5,10.5 C9.7091391,10.5 11.5,8.7091391 11.5,6.5 C11.5,4.29086089 9.7091391,2.5 7.5,2.5 C5.2908609,2.5 3.5,4.29086089 3.5,6.5 C3.5,8.7091391 5.2908609,10.5 7.5,10.5 L7.5,10.5 Z" id="map_location_pin_map-marker_glyph" fill="#000000" sketch:type="MSShapeGroup"></path>
    </g>
</svg>