<?xml version="1.0" encoding="UTF-8" standalone="no"?>
<svg width="22px" height="19px" viewBox="0 0 22 19" version="1.1" xmlns="http://www.w3.org/2000/svg" xmlns:xlink="http://www.w3.org/1999/xlink" xmlns:sketch="http://www.bohemiancoding.com/sketch/ns">
    <!-- Generator: Sketch 3.0.1 (7597) - http://www.bohemiancoding.com/sketch -->
    <title>other_review_comment_outline_stroke</title>
    <description>Created with Sketch.</description>
    <defs>
        <path d="M1.00246167,0 C0.448817378,0 0,0.448920205 0,1.00748397 L0,13.992516 C0,14.5489341 0.442660332,15 0.998956561,15 L3,15 L5.81709754,18.2753813 C6.17753459,18.6944541 6.77071569,18.6902278 7.13374399,18.2753813 L10,15 L20.9975267,15 C21.5511774,15 22,14.5510798 22,13.992516 L22,1.00748397 C22,0.45106594 21.5605417,0 20.9975383,0 L1.00246167,0 Z M1,1 L1,14 L3.51623535,14 L6.47192383,17.5617676 L9.71069336,14 L21,14 L21,1 L1,1 Z M4.22018472,4 C4.09858005,4 4,4.09953976 4,4.2219324 L4,4.77806757 C4,4.90063746 4.09716593,5 4.22018472,5 L16.7798153,5 C16.9014199,5 17,4.90046024 17,4.77806757 L17,4.2219324 C17,4.09936252 16.902834,4 16.7798153,4 L4.22018472,4 Z M4.22018472,7 C4.09858005,7 4,7.09953974 4,7.22193241 L4,7.77806759 C4,7.90063748 4.09716593,8 4.22018472,8 L16.7798153,8 C16.9014199,8 17,7.90046023 17,7.77806759 L17,7.22193241 C17,7.09936252 16.902834,7 16.7798153,7 L4.22018472,7 Z M4.20922079,10 C4.09367133,10 4,10.0995398 4,10.2219324 L4,10.7780676 C4,10.9006375 4.09498466,11 4.20922079,11 L12.7907792,11 C12.9063286,11 13,10.9004602 13,10.7780676 L13,10.2219324 C13,10.0993625 12.9050153,10 12.7907792,10 L4.20922079,10 Z" id="path-1"></path>
    </defs>
    <g id="miu" stroke="none" stroke-width="1" fill="none" fill-rule="evenodd" sketch:type="MSPage">
        <g id="other_review_comment_outline_stroke">
            <use fill="#000000" fill-rule="evenodd" sketch:type="MSShapeGroup" xlink:href="#path-1"></use>
            <use fill="none" xlink:href="#path-1"></use>
        </g>
    </g>
</svg>