<?xml version="1.0" encoding="UTF-8" standalone="no"?>
<svg width="22px" height="19px" viewBox="0 0 22 19" version="1.1" xmlns="http://www.w3.org/2000/svg" xmlns:xlink="http://www.w3.org/1999/xlink" xmlns:sketch="http://www.bohemiancoding.com/sketch/ns">
    <!-- Generator: Sketch 3.0.1 (7597) - http://www.bohemiancoding.com/sketch -->
    <title>other_review_new_comment_outline_stroke</title>
    <description>Created with Sketch.</description>
    <defs>
        <path d="M1.00246167,0 C0.448817378,0 0,0.448920205 0,1.00748397 L0,13.992516 C0,14.5489341 0.442660332,15 0.998956561,15 L3,15 L5.81709754,18.2753813 C6.17753459,18.6944541 6.77071569,18.6902278 7.13374399,18.2753813 L10,15 L20.9975267,15 C21.5511774,15 22,14.5510798 22,13.992516 L22,1.00748397 C22,0.45106594 21.5605417,0 20.9975383,0 L1.00246167,0 Z M1,1 L1,14 L3.51623535,14 L6.47192383,17.5617676 L9.71069336,14 L21,14 L21,1 L1,1 Z" id="path-1"></path>
    </defs>
    <g id="miu" stroke="none" stroke-width="1" fill="none" fill-rule="evenodd" sketch:type="MSPage">
        <g id="other_review_new_comment_outline_stroke">
            <use fill="#000000" fill-rule="evenodd" sketch:type="MSShapeGroup" xlink:href="#path-1"></use>
            <use fill="none" xlink:href="#path-1"></use>
        </g>
    </g>
</svg>