<?xml version="1.0" encoding="UTF-8" standalone="no"?>
<!-- Created with Inkscape (http://www.inkscape.org/) -->

<svg
   xmlns:dc="http://purl.org/dc/elements/1.1/"
   xmlns:cc="http://creativecommons.org/ns#"
   xmlns:rdf="http://www.w3.org/1999/02/22-rdf-syntax-ns#"
   xmlns:svg="http://www.w3.org/2000/svg"
   xmlns="http://www.w3.org/2000/svg"
   xmlns:xlink="http://www.w3.org/1999/xlink"
   xmlns:sodipodi="http://sodipodi.sourceforge.net/DTD/sodipodi-0.dtd"
   xmlns:inkscape="http://www.inkscape.org/namespaces/inkscape"
   width="96"
   height="96"
   viewBox="0 0 96.000001 96.000002"
   id="svg2"
   version="1.1"
   inkscape:version="0.91 r13725"
   sodipodi:docname="application-community.svg">
  <defs
     id="defs4">
    <linearGradient
       inkscape:collect="always"
       id="linearGradient4167">
      <stop
         style="stop-color:#ff2c2c;stop-opacity:1;"
         offset="0"
         id="stop4169" />
      <stop
         style="stop-color:#ff2c2c;stop-opacity:0;"
         offset="1"
         id="stop4171" />
    </linearGradient>
    <linearGradient
       inkscape:collect="always"
       id="linearGradient4157">
      <stop
         style="stop-color:#ffffff;stop-opacity:1;"
         offset="0"
         id="stop4159" />
      <stop
         style="stop-color:#ffffff;stop-opacity:0;"
         offset="1"
         id="stop4161" />
    </linearGradient>
    <radialGradient
       inkscape:collect="always"
       xlink:href="#linearGradient1123"
       id="radialGradient1125"
       cx="7165.9678"
       cy="7158.0005"
       fx="7165.9678"
       fy="7158.0005"
       r="116.43"
       gradientTransform="matrix(1,0,0,0.90624709,0,673.80456)"
       gradientUnits="userSpaceOnUse" />
    <linearGradient
       inkscape:collect="always"
       id="linearGradient1123">
      <stop
         style="stop-color:#ffffff;stop-opacity:1;"
         offset="0"
         id="stop1119" />
      <stop
         style="stop-color:#ffffff;stop-opacity:0;"
         offset="1"
         id="stop1121" />
    </linearGradient>
    <filter
       inkscape:collect="always"
       style="color-interpolation-filters:sRGB"
       id="filter1112"
       x="-0.0078569353"
       width="1.0157139"
       y="-0.027757723"
       height="1.0555154">
      <feGaussianBlur
         inkscape:collect="always"
         stdDeviation="0.76231913"
         id="feGaussianBlur1114" />
    </filter>
    <radialGradient
       inkscape:collect="always"
       xlink:href="#linearGradient4157"
       id="radialGradient4163"
       cx="6807.7661"
       cy="7035.9023"
       fx="6807.7661"
       fy="7035.9023"
       r="41.395348"
       gradientTransform="matrix(2.1310627,0.10607987,-0.09830741,2.2782717,-7056.2582,-9700.8466)"
       gradientUnits="userSpaceOnUse" />
    <radialGradient
       inkscape:collect="always"
       xlink:href="#linearGradient4167"
       id="radialGradient4173"
       cx="6831.0556"
       cy="7108.372"
       fx="6831.0556"
       fy="7108.372"
       r="102.07305"
       gradientTransform="matrix(1,0,0,0.90620745,0,666.71233)"
       gradientUnits="userSpaceOnUse" />
  </defs>
  <sodipodi:namedview
     id="base"
     pagecolor="#ffffff"
     bordercolor="#666666"
     borderopacity="1.0"
     inkscape:pageopacity="0.0"
     inkscape:pageshadow="2"
     inkscape:zoom="3.8412981"
     inkscape:cx="30.16643"
     inkscape:cy="43.772031"
     inkscape:document-units="px"
     inkscape:current-layer="g1126"
     showgrid="false"
     units="px"
     inkscape:showpageshadow="false"
     inkscape:window-width="1280"
     inkscape:window-height="947"
     inkscape:window-x="0"
     inkscape:window-y="17"
     inkscape:window-maximized="1" />
  <metadata
     id="metadata7">
    <rdf:RDF>
      <cc:Work
         rdf:about="">
        <dc:format>image/svg+xml</dc:format>
        <dc:type
           rdf:resource="http://purl.org/dc/dcmitype/StillImage" />
        <dc:title />
        <cc:license
           rdf:resource="http://creativecommons.org/licenses/by-sa/3.0/" />
        <dc:date>2017</dc:date>
        <dc:creator>
          <cc:Agent>
            <dc:title>Cristian Pozzessere  &lt; ilnanny &gt;</dc:title>
          </cc:Agent>
        </dc:creator>
        <dc:subject>
          <rdf:Bag>
            <rdf:li>ilnanny</rdf:li>
          </rdf:Bag>
        </dc:subject>
      </cc:Work>
      <cc:License
         rdf:about="http://creativecommons.org/licenses/by-sa/3.0/">
        <cc:permits
           rdf:resource="http://creativecommons.org/ns#Reproduction" />
        <cc:permits
           rdf:resource="http://creativecommons.org/ns#Distribution" />
        <cc:requires
           rdf:resource="http://creativecommons.org/ns#Notice" />
        <cc:requires
           rdf:resource="http://creativecommons.org/ns#Attribution" />
        <cc:permits
           rdf:resource="http://creativecommons.org/ns#DerivativeWorks" />
        <cc:requires
           rdf:resource="http://creativecommons.org/ns#ShareAlike" />
      </cc:License>
    </rdf:RDF>
  </metadata>
  <g
     inkscape:label="Livello 1"
     inkscape:groupmode="layer"
     id="layer1"
     transform="translate(0,-956.36218)">
    <g
       transform="matrix(0.33110816,0,0,0.30827753,-2334.9755,-1216.0682)"
       id="g1126">
      <g
         id="g4217">
        <path
           inkscape:connector-curvature="0"
           id="path4150"
           d="m 7091.6295,7084.2871 c -21.2982,11.8244 -35.9883,35.0289 -35.9883,67.4109 0,106.041 115.924,179.8108 141.34,179.8108 25.41,0 141.3164,-73.7708 141.3164,-179.8108 0,-22.7211 -7.2642,-40.8908 -18.9409,-53.8147 10.4443,12.5213 16.841,29.6719 16.841,50.8179 0,103.92 -113.585,176.2186 -138.485,176.2186 -24.907,0 -138.5145,-72.2916 -138.5145,-176.2186 0,-30.2773 13.1022,-52.382 32.4313,-64.4141 z"
           style="fill:#b50000;stroke:none;stroke-opacity:0.61124998" />
        <path
           id="path21"
           style="fill:#ff4141;stroke:none;stroke-opacity:0.61124998"
           inkscape:connector-curvature="0"
           d="m 7336.2,7148.7 c 0,103.92 -113.59,176.22 -138.49,176.22 -24.907,0 -138.51,-72.293 -138.51,-176.22 0,-75.714 81.822,-100.48 138.51,-43.791 56.556,-56.556 138.49,-31.923 138.49,43.791 z" />
        <path
           id="path38"
           style="fill:#ffffff;fill-opacity:0.81781377;stroke:none"
           inkscape:connector-curvature="0"
           d="m 7335.2,7149.5 c 0,99.368 -108.61,168.49 -132.42,168.49 -23.817,0 -132.44,-69.125 -132.44,-168.49 0,-72.395 78.237,-96.073 132.44,-41.871 54.079,-54.078 132.42,-30.524 132.42,41.871 z" />
        <path
           id="path53"
           style="fill:#dc0000;stroke:none"
           inkscape:connector-curvature="0"
           d="m 7333.2,7149.5 c 0,99.368 -108.61,168.49 -132.42,168.49 -23.817,0 -132.44,-69.125 -132.44,-168.49 0,-72.395 78.237,-96.073 132.44,-41.871 54.079,-54.078 132.42,-30.524 132.42,41.871 z" />
        <path
           id="path64"
           style="fill:url(#radialGradient1125);fill-opacity:1;stroke:none"
           inkscape:connector-curvature="0"
           d="m 7317.2,7144.4 c 0,87.362 -95.486,148.14 -116.42,148.14 -20.939,0 -116.44,-60.773 -116.44,-148.14 0,-63.648 68.784,-84.466 116.44,-36.813 47.545,-47.543 116.42,-26.835 116.42,36.813 z" />
        <path
           id="path66"
           style="fill:#000000;fill-opacity:0.34008101;stroke:none"
           inkscape:connector-curvature="0"
           d="m 7289.2,7231.7 c 18.111,-28.677 30.896,-55.073 27.777,-80.34 -4.875,83.6 -95.832,141.16 -116.21,141.16 -17.718,0 -88.815,-43.518 -110.27,-109.84 0.012,0.041 0.02,0.082 0.032,0.123 0,0 14.894,53.438 47.332,81.568 32.669,28.329 53.446,41.071 56.298,47.034 0.757,1.584 -0.02,3.408 -1.079,5.16 3.081,0.951 5.689,1.449 7.688,1.449 4.703,0 12.721,-2.706 22.548,-7.798 6.448,-3.718 13.43,-7.967 20.417,-12.44 16.096,-11.169 33.892,-26.637 49.351,-45.595 -5.668,-0.637 -21.526,7.453 -3.885,-20.481 z" />
        <path
           id="path68"
           style="fill:#ffb7b7;fill-opacity:1;stroke:none"
           inkscape:connector-curvature="0"
           d="m 7201.7,7106.7 c 0.333,0.325 0.669,0.64 1,0.971 19.939,-19.939 43.176,-29.313 64.569,-29.587 -21.585,-0.298 -45.229,8.74 -65.569,28.616 z m -131.44,42.842 c 0,-44.871 30.06,-71.017 65.819,-71.513 -36.633,-0.469 -67.819,25.808 -67.819,71.513 0,99.368 108.62,168.49 132.44,168.49 0.316,0 0.654,-0.019 1,-0.043 -25.687,-1.803 -131.44,-70.401 -131.44,-168.45 z" />
        <path
           id="path83"
           style="fill:#b50000;stroke:none"
           inkscape:connector-curvature="0"
           d="m 7200.7,7120.6 c 43.046,-43.046 105.1,-25.271 107.05,31.125 0.023,-0.925 0.048,-1.85 0.048,-2.782 0,-58.548 -63.362,-77.597 -107.1,-33.861 -43.834,-43.836 -107.11,-24.687 -107.11,33.861 0,0.933 0.024,1.857 0.048,2.781 1.942,-56.398 63.914,-74.268 107.06,-31.124 z" />
        <path
           id="path104"
           style="fill:#000000;fill-opacity:0.29554659;stroke:none;filter:url(#filter1112)"
           inkscape:connector-curvature="0"
           d="m 7200.7,7113.6 c 46.795,-46.795 114.26,-27.472 116.37,33.836 0.025,-1.006 0.052,-2.011 0.052,-3.023 0,-63.648 -68.881,-84.356 -116.42,-36.813 -47.653,-47.653 -116.44,-26.836 -116.44,36.813 0,1.013 0.026,2.018 0.052,3.022 2.112,-61.31 69.483,-80.738 116.39,-33.835 z" />
        <path
           id="path119"
           style="fill:#ffffff;fill-opacity:0.67206481;stroke:none"
           inkscape:connector-curvature="0"
           d="m 7200.7,7287.5 c -20.738,0 -114.6,-59.62 -116.4,-145.64 -0.023,0.828 -0.042,1.659 -0.042,2.503 0,87.362 95.499,148.14 116.44,148.14 20.939,0 116.42,-60.773 116.42,-148.14 0,-0.843 -0.019,-1.674 -0.043,-2.502 -1.796,86.019 -95.644,145.64 -116.38,145.64 z" />
      </g>
      <g
         id="g4210">
        <path
           sodipodi:nodetypes="scscs"
           id="path10"
           style="fill:#b50000;stroke:none;stroke-opacity:0.61124998"
           inkscape:connector-curvature="0"
           d="m 6972.3855,7056.6364 c 0,106.04 -118.9763,169.9298 -141.32,179.81 -26.4381,-8.7824 -141.34,-73.769 -141.34,-179.81 0,-77.261 83.4931,-102.53 141.34,-44.687 57.71,-57.711 141.32,-32.574 141.32,44.687 z" />
        <path
           transform="matrix(3.0201611,0,0,3.2438303,7052.0023,7046.9955)"
           id="path4175"
           d="M -112.44141 -14.814453 C -117.03058 -10.788879 -119.95312 -4.7580509 -119.95312 2.9726562 C -119.95312 35.662714 -81.908168 55.69688 -73.154297 58.404297 C -68.845833 56.630495 -53.692329 49.198958 -41.78125 36.853516 C -53.332748 48.000685 -67.083872 54.728496 -71.154297 56.404297 C -79.908168 53.69688 -117.95312 33.662714 -117.95312 0.97265625 C -117.95312 -5.5667346 -115.86142 -10.890074 -112.44141 -14.814453 z "
           style="fill:#460000;stroke:none;stroke-opacity:0.61124998;fill-opacity:1;opacity:0.188" />
        <path
           d="m 6933.1286,7071.0069 c 0,76.5855 -85.9285,122.7287 -102.0658,129.8645 -19.0945,-6.343 -102.0803,-53.2783 -102.0803,-129.8645 0,-55.8003 60.3013,-74.0504 102.0803,-32.2743 41.6799,-41.6807 102.0658,-23.526 102.0658,32.2743 z"
           inkscape:connector-curvature="0"
           style="fill:url(#radialGradient4173);fill-opacity:1;stroke:none;stroke-opacity:0.61124998"
           id="path4165"
           sodipodi:nodetypes="scscs" />
        <ellipse
           ry="94.411079"
           rx="91.282043"
           cy="7072.9746"
           cx="6760.8589"
           id="path4155"
           style="opacity:0.62699998;fill:url(#radialGradient4163);fill-opacity:1;stroke:none;stroke-width:6.25999689;stroke-linecap:round;stroke-miterlimit:4;stroke-dasharray:none;stroke-opacity:1;paint-order:markers fill stroke" />
        <path
           inkscape:connector-curvature="0"
           style="opacity:0.291;fill:#ffffff;fill-opacity:1;stroke:none;stroke-opacity:0.61124998"
           d="m 6951.452,6998.9399 c 13.8601,13.0583 22.6866,32.6213 22.6866,57.6984 0,106.041 -114.9019,171.0284 -141.34,179.8108 -13.0122,-5.7539 -58.7783,-29.8605 -94.7516,-69.907 34.8873,36.1595 76.4179,57.9834 88.7113,63.4194 26.4381,-8.7824 141.34,-73.7699 141.34,-179.8109 0,-21.2126 -6.3173,-38.4807 -16.6463,-51.2107 z"
           id="path4180" />
      </g>
    </g>
  </g>
</svg>
