<?xml version="1.0" encoding="UTF-8" standalone="no"?>
<!-- Created with Inkscape (http://www.inkscape.org/) -->

<svg
   xmlns:dc="http://purl.org/dc/elements/1.1/"
   xmlns:cc="http://creativecommons.org/ns#"
   xmlns:rdf="http://www.w3.org/1999/02/22-rdf-syntax-ns#"
   xmlns:svg="http://www.w3.org/2000/svg"
   xmlns="http://www.w3.org/2000/svg"
   xmlns:xlink="http://www.w3.org/1999/xlink"
   xmlns:sodipodi="http://sodipodi.sourceforge.net/DTD/sodipodi-0.dtd"
   xmlns:inkscape="http://www.inkscape.org/namespaces/inkscape"
   width="96"
   height="96"
   viewBox="0 0 96.000001 96.000002"
   id="svg2"
   version="1.1"
   inkscape:version="0.92.2 5c3e80d, 2017-08-06"
   sodipodi:docname="button-lens.svg"
   inkscape:export-filename="/home/ilnanny/button-len.png"
   inkscape:export-xdpi="512"
   inkscape:export-ydpi="512">
  <defs
     id="defs4">
    <linearGradient
       inkscape:collect="always"
       xlink:href="#linearGradient6139-0"
       id="linearGradient3750"
       gradientUnits="userSpaceOnUse"
       gradientTransform="matrix(1.1025297,0,0,1.1175028,-4.9214311,951.85445)"
       x1="6"
       y1="47.000011"
       x2="90"
       y2="47.000011" />
    <linearGradient
       id="linearGradient6139-0">
      <stop
         style="stop-color:#b2babc;stop-opacity:1"
         offset="0"
         id="stop6141-2" />
      <stop
         id="stop6151-0"
         offset="0.25"
         style="stop-color:#ffffff;stop-opacity:1;" />
      <stop
         id="stop6147-1"
         offset="0.5"
         style="stop-color:#96a1a4;stop-opacity:1" />
      <stop
         style="stop-color:#fbf9f9;stop-opacity:1;"
         offset="0.75"
         id="stop6149-4" />
      <stop
         style="stop-color:#b2b9bc;stop-opacity:1"
         offset="1"
         id="stop6143-4" />
    </linearGradient>
    <linearGradient
       id="q"
       x1="47.724998"
       x2="45.546001"
       y1="59.312"
       y2="59.328999"
       gradientUnits="userSpaceOnUse"
       gradientTransform="matrix(-1.1582722,0.42829016,0.46302388,1.3638565,57.868474,929.13783)">
      <stop
         stop-color="#ba9c6c"
         offset="0"
         id="stop81" />
      <stop
         id="stop4391"
         offset="0.58157498"
         stop-color="#ba9c6c"
         style="stop-color:#d7b97d;stop-opacity:1" />
      <stop
         stop-color="#f9e5b4"
         offset="1"
         id="stop83" />
    </linearGradient>
    <linearGradient
       inkscape:collect="always"
       xlink:href="#linearGradient4379"
       id="linearGradient4381"
       x1="21.562288"
       y1="18.464876"
       x2="23.682226"
       y2="19.058023"
       gradientUnits="userSpaceOnUse"
       gradientTransform="matrix(-0.92280353,0,0.07028442,1.0606052,39.756167,985.26711)" />
    <linearGradient
       inkscape:collect="always"
       id="linearGradient4379">
      <stop
         style="stop-color:#e3cf3c;stop-opacity:1"
         offset="0"
         id="stop4375" />
      <stop
         style="stop-color:#8e6b14;stop-opacity:1"
         offset="1"
         id="stop4377" />
    </linearGradient>
    <linearGradient
       inkscape:collect="always"
       xlink:href="#linearGradient4379"
       id="linearGradient4389"
       x1="17.068848"
       y1="13.862506"
       x2="15.79542"
       y2="13.506618"
       gradientUnits="userSpaceOnUse"
       gradientTransform="matrix(-0.92280353,0,0.07028442,1.0606052,39.756167,985.26711)" />
    <linearGradient
       id="n"
       x1="45.908001"
       x2="43.032001"
       y1="35.125999"
       y2="34.374001"
       gradientUnits="userSpaceOnUse"
       gradientTransform="matrix(-1.2332401,0.11292471,0.18710781,1.5118445,71.005316,944.46537)">
      <stop
         stop-color="#f29b21"
         offset="0"
         id="stop91"
         style="stop-color:#131313;stop-opacity:1" />
      <stop
         stop-color="#f9c352"
         offset="1"
         id="stop93"
         style="stop-color:#a6a6a5;stop-opacity:1" />
    </linearGradient>
    <linearGradient
       id="l"
       x1="46.807999"
       x2="46.046001"
       y1="63.668999"
       y2="63.667999"
       gradientUnits="userSpaceOnUse"
       gradientTransform="matrix(-1.1582722,0.42829016,0.46302388,1.3638565,57.868474,929.13783)">
      <stop
         stop-color="#2c2c2c"
         offset="0"
         id="stop96" />
      <stop
         stop-color="#535353"
         stop-opacity=".99854"
         offset="1"
         id="stop98" />
    </linearGradient>
    <linearGradient
       inkscape:collect="always"
       xlink:href="#linearGradient2949"
       id="linearGradient4117"
       gradientUnits="userSpaceOnUse"
       gradientTransform="matrix(1.440027,0,0,1.6795315,268.76218,914.66041)"
       x1="18.948538"
       y1="1.2052886"
       x2="24.951508"
       y2="1.2052886" />
    <linearGradient
       inkscape:collect="always"
       id="linearGradient2949">
      <stop
         style="stop-color:#a29c9c;stop-opacity:1"
         offset="0"
         id="stop2945" />
      <stop
         style="stop-color:#080808;stop-opacity:0.97735852"
         offset="1"
         id="stop2947" />
    </linearGradient>
    <linearGradient
       id="m"
       x1="48.067001"
       x2="44.841999"
       y1="22.181"
       y2="22.177999"
       gradientUnits="userSpaceOnUse"
       gradientTransform="matrix(1.2349199,0,0,1.440311,242.94703,890.03898)"
       xlink:href="#p">
      <stop
         stop-color="#474747"
         offset="0"
         id="stop106"
         style="stop-color:#672727;stop-opacity:1" />
      <stop
         stop-color="#7a7a7a"
         offset="1"
         id="stop108"
         style="stop-color:#cf2525;stop-opacity:1" />
    </linearGradient>
    <linearGradient
       id="p"
       x1="50"
       x2="43"
       y1="20"
       y2="20"
       gradientUnits="userSpaceOnUse"
       gradientTransform="matrix(0.85756711,0,0,0.85756711,-17.926848,-14.659703)"
       xlink:href="#linearGradient2941">
      <stop
         stop-color="#822c34"
         offset="0"
         id="stop101" />
      <stop
         stop-color="#f0697a"
         offset="1"
         id="stop103" />
    </linearGradient>
    <linearGradient
       gradientTransform="matrix(0.85756711,0,0,0.85756711,-17.926848,-14.659703)"
       gradientUnits="userSpaceOnUse"
       y2="20"
       y1="20"
       x2="43"
       x1="50"
       id="linearGradient2941"
       spreadMethod="pad">
      <stop
         id="stop2937"
         offset="0"
         stop-color="#822c34"
         style="stop-color:#5c5253;stop-opacity:1" />
      <stop
         id="stop2939"
         offset="1"
         stop-color="#f0697a" />
    </linearGradient>
    <linearGradient
       inkscape:collect="always"
       xlink:href="#linearGradient3637"
       id="linearGradient3728"
       gradientUnits="userSpaceOnUse"
       gradientTransform="matrix(0.99272543,0,0,1.0093576,0.349124,955.9279)"
       x1="-6.2712941"
       y1="56.576061"
       x2="103.52561"
       y2="55.58923" />
    <linearGradient
       id="linearGradient3637">
      <stop
         style="stop-color:#000000;stop-opacity:1;"
         offset="0"
         id="stop3629" />
      <stop
         id="stop3631"
         offset="0.1"
         style="stop-color:#000000;stop-opacity:0.58823532;" />
      <stop
         style="stop-color:#000000;stop-opacity:0.72619045"
         offset="0.49279109"
         id="stop3639" />
      <stop
         style="stop-color:#000000;stop-opacity:0.58823532;"
         offset="0.87640905"
         id="stop3633" />
      <stop
         style="stop-color:#282828;stop-opacity:1"
         offset="1"
         id="stop3635" />
    </linearGradient>
    <linearGradient
       id="d"
       x1="32.039001"
       x2="32.039001"
       y1="61.569"
       y2="0.78430998"
       gradientTransform="matrix(-1.9614016,-0.7098434,-0.7098434,1.9614016,154.17255,971.55296)"
       gradientUnits="userSpaceOnUse">
      <stop
         stop-color="#ebebeb"
         offset="0"
         id="stop7" />
      <stop
         stop-color="#ebebeb"
         offset=".5"
         id="stop9" />
      <stop
         stop-color="#d6d6d6"
         offset=".50287"
         id="stop11" />
      <stop
         stop-color="#d6d6d6"
         offset="1"
         id="stop13" />
    </linearGradient>
    <linearGradient
       inkscape:collect="always"
       xlink:href="#j"
       id="linearGradient3884"
       gradientUnits="userSpaceOnUse"
       gradientTransform="matrix(-0.0629517,0.05301927,0.05301927,0.0629517,-432.75668,1507.2328)"
       x1="-8518.9004"
       y1="-121.91"
       x2="-8575.7998"
       y2="-121.91" />
    <linearGradient
       id="j"
       x1="-8503.2002"
       x2="-8591"
       y1="-597.78998"
       y2="-597.78998"
       gradientUnits="userSpaceOnUse"
       gradientTransform="matrix(0.08230407,0,0,0.08230407,665.18455,117.81244)"
       spreadMethod="pad">
      <stop
         stop-color="#3f4052"
         offset="0"
         id="stop47"
         style="stop-color:#46464b;stop-opacity:1" />
      <stop
         stop-color="#1d314b"
         offset=".50293"
         id="stop49"
         style="stop-color:#333435;stop-opacity:1" />
      <stop
         stop-color="#5381bb"
         offset="1"
         id="stop51"
         style="stop-color:#878787;stop-opacity:1" />
    </linearGradient>
    <linearGradient
       id="i"
       x1="31.750999"
       x2="47.939999"
       y1="25.356001"
       y2="25.356001"
       gradientTransform="matrix(-1.6433354,-0.14074487,-0.13701798,1.5998203,125.74606,959.78431)"
       gradientUnits="userSpaceOnUse">
      <stop
         stop-color="#e6f1ff"
         offset="0"
         id="stop54"
         style="stop-color:#f2f2f3;stop-opacity:1" />
      <stop
         stop-color="#9bcfef"
         stop-opacity=".99608"
         offset=".50496"
         id="stop56"
         style="stop-color:#c5c5c5;stop-opacity:0.99607843" />
      <stop
         stop-color="#dae4f1"
         stop-opacity=".99708"
         offset="1"
         id="stop58"
         style="stop-color:#e5e5e5;stop-opacity:0.99607843" />
    </linearGradient>
    <linearGradient
       inkscape:collect="always"
       xlink:href="#linearGradient4415"
       id="linearGradient4419"
       gradientUnits="userSpaceOnUse"
       x1="31.804291"
       y1="7.724772"
       x2="80.747269"
       y2="7.724772"
       gradientTransform="translate(0,988.36218)" />
    <linearGradient
       id="linearGradient4415">
      <stop
         id="stop4405"
         offset="0"
         style="stop-color:#3a4143;stop-opacity:1" />
      <stop
         style="stop-color:#f2f2f2;stop-opacity:1"
         offset="0.25"
         id="stop4407" />
      <stop
         style="stop-color:#1c1f20;stop-opacity:1"
         offset="0.5"
         id="stop4409" />
      <stop
         id="stop4411"
         offset="0.75"
         style="stop-color:#f0f2f5;stop-opacity:1" />
      <stop
         id="stop4413"
         offset="1"
         style="stop-color:#3d4346;stop-opacity:1" />
    </linearGradient>
    <linearGradient
       id="e"
       x1="-6731.1001"
       x2="-6690"
       y1="2715.3"
       y2="2341.1001"
       gradientUnits="userSpaceOnUse"
       gradientTransform="matrix(0.10324057,0,0,0.10324057,-104.96378,337.00233)">
      <stop
         stop-color="#000000"
         stop-opacity="0"
         offset="0"
         id="stop16" />
      <stop
         stop-color="#000000"
         stop-opacity=".15573"
         offset="1"
         id="stop18" />
    </linearGradient>
    <radialGradient
       id="c-3"
       cx="10.119"
       cy="48.813"
       r="12.522"
       fx="10.654"
       fy="37.445999"
       gradientTransform="matrix(1.3774622,-2.6753791e-8,2.6753791e-8,1.3774622,-812.27869,534.29743)"
       gradientUnits="userSpaceOnUse">
      <stop
         stop-color="#f4fdff"
         offset="0"
         id="stop61-6" />
      <stop
         stop-color="#f4fdff"
         stop-opacity=".8"
         offset=".23382"
         id="stop63-7" />
      <stop
         stop-color="#f4fdff"
         stop-opacity=".1098"
         offset=".32518"
         id="stop65-5" />
      <stop
         stop-color="#dbe3e5"
         stop-opacity=".1098"
         offset=".88555"
         id="stop67-3" />
      <stop
         stop-color="#000000"
         stop-opacity=".12549"
         offset=".93825"
         id="stop69-5" />
      <stop
         stop-color="#001014"
         stop-opacity=".32383"
         offset="1"
         id="stop71-6" />
    </radialGradient>
    <linearGradient
       inkscape:collect="always"
       xlink:href="#linearGradient4415"
       id="linearGradient4421"
       gradientUnits="userSpaceOnUse"
       gradientTransform="matrix(-0.0629517,0.05301927,0.05301927,0.0629517,-432.88469,1506.9768)"
       x1="-8388.9004"
       y1="-361.98679"
       x2="-8621"
       y2="-360.75" />
    <linearGradient
       y2="14.514202"
       x2="50.527882"
       y1="-28.64156"
       x1="2.7713892"
       gradientUnits="userSpaceOnUse"
       id="linearGradient4767"
       xlink:href="#linearGradient3737"
       inkscape:collect="always" />
    <linearGradient
       id="linearGradient3737">
      <stop
         id="stop3739"
         style="stop-color:#ffffff;stop-opacity:1"
         offset="0" />
      <stop
         id="stop3741"
         style="stop-color:#ffffff;stop-opacity:0"
         offset="1" />
    </linearGradient>
    <clipPath
       clipPathUnits="userSpaceOnUse"
       id="clipPath4156-4-1-3">
      <path
         style="opacity:0.6;fill:#ffffff;fill-opacity:1;stroke:none"
         d="m 27.046336,-55.695463 -14.21366,13.321486 h 0.06127 l 15.653407,21.770763 10.231384,-10.546177 C 38.561832,-32.30156 27.468089,-54.819245 27.046336,-55.695463 Z M 9.6468554,-39.382809 -5.2407289,-25.32124 15.987863,-7.8059573 26.372412,-18.382966 Z m 31.4906096,12.951445 -9.741259,9.713584 8.944804,12.4580526 7.780753,-7.5550056 z m -49.8397109,4.378822 -13.7541661,12.9822847 26.2830181,13.84571 0.06127,-0.0617 -0.122531,-0.0617 L 13.598503,-5.4007374 -8.7022409,-22.052595 Z m 38.0154159,7.400825 -9.802525,9.7752596 11.579232,9.5594001 7.62759,-7.40083 -8.669108,-11.0087257 z m 20.187073,5.6739697 -7.382526,7.2158 6.187844,8.54179 5.820249,-6.13651996 z m -32.195166,6.32154 -9.5574606,9.49772 13.6622686,7.1849703 7.933918,-7.6783603 z m 23.311629,2.37443004 -7.10683,6.93826996 8.362778,6.9074403 5.360756,-5.6739699 -0.06127,-0.0925 -0.0919,0.12335 -6.463539,-8.20258036 z m -8.730374,8.54178036 -7.505057,7.3391599 10.353916,5.45811 c 1.397496,-1.32103 5.67514,-6.12292 5.850882,-6.32154 z"
         id="path4158-0-8-7"
         inkscape:connector-curvature="0" />
    </clipPath>
    <radialGradient
       inkscape:collect="always"
       xlink:href="#linearGradient3737"
       id="radialGradient3724"
       gradientUnits="userSpaceOnUse"
       gradientTransform="matrix(0.97107073,0,0,0.04965103,33.957447,1036.8448)"
       cx="13.948145"
       cy="44.892841"
       fx="13.948145"
       fy="44.892841"
       r="43.199203" />
    <radialGradient
       inkscape:collect="always"
       xlink:href="#linearGradient3737"
       id="radialGradient3726"
       gradientUnits="userSpaceOnUse"
       gradientTransform="matrix(0.50489902,0,0,6.7057862,43.549546,-250.68683)"
       cx="87.960938"
       cy="43.935547"
       fx="87.960938"
       fy="43.935547"
       r="6.3532" />
    <filter
       inkscape:collect="always"
       style="color-interpolation-filters:sRGB"
       id="filter3690"
       x="-0.12578824"
       width="1.2515765"
       y="-0.0069654724"
       height="1.0139309">
      <feGaussianBlur
         inkscape:collect="always"
         stdDeviation="0.22275"
         id="feGaussianBlur3692" />
    </filter>
  </defs>
  <sodipodi:namedview
     id="base"
     pagecolor="#ffffff"
     bordercolor="#666666"
     borderopacity="1.0"
     inkscape:pageopacity="0.0"
     inkscape:pageshadow="2"
     inkscape:zoom="8.0315792"
     inkscape:cx="48"
     inkscape:cy="48"
     inkscape:document-units="px"
     inkscape:current-layer="layer1"
     showgrid="false"
     units="px"
     inkscape:showpageshadow="false"
     inkscape:window-width="1920"
     inkscape:window-height="1001"
     inkscape:window-x="0"
     inkscape:window-y="21"
     inkscape:window-maximized="1" />
  <metadata
     id="metadata7">
    <rdf:RDF>
      <cc:Work
         rdf:about="">
        <dc:format>image/svg+xml</dc:format>
        <dc:type
           rdf:resource="http://purl.org/dc/dcmitype/StillImage" />
        <dc:title />
        <cc:license
           rdf:resource="http://creativecommons.org/licenses/by-sa/4.0/" />
        <dc:date>2017</dc:date>
        <dc:creator>
          <cc:Agent>
            <dc:title>Cristian Pozzessere  &lt; ilnanny &gt;</dc:title>
          </cc:Agent>
        </dc:creator>
        <dc:subject>
          <rdf:Bag>
            <rdf:li>ilnanny</rdf:li>
          </rdf:Bag>
        </dc:subject>
      </cc:Work>
      <cc:License
         rdf:about="http://creativecommons.org/licenses/by-sa/4.0/">
        <cc:permits
           rdf:resource="http://creativecommons.org/ns#Reproduction" />
        <cc:permits
           rdf:resource="http://creativecommons.org/ns#Distribution" />
        <cc:requires
           rdf:resource="http://creativecommons.org/ns#Notice" />
        <cc:requires
           rdf:resource="http://creativecommons.org/ns#Attribution" />
        <cc:permits
           rdf:resource="http://creativecommons.org/ns#DerivativeWorks" />
        <cc:requires
           rdf:resource="http://creativecommons.org/ns#ShareAlike" />
      </cc:License>
    </rdf:RDF>
  </metadata>
  <g
     inkscape:label="Livello 1"
     inkscape:groupmode="layer"
     id="layer1"
     transform="translate(0,-956.36218)">
    <path
       style="display:inline;fill:#2d2d2d;fill-opacity:0.23773588;fill-rule:nonzero;stroke:none;stroke-width:1.01599419"
       d="M 88.276157,956.8622 H 7.7238468 c -3.7188329,0 -6.712693,3.02643 -6.712693,6.78571 v 81.42859 c 0,3.7593 2.9938601,6.7857 6.712693,6.7857 H 88.276157 c 3.71883,0 6.712688,-3.0264 6.712688,-6.7857 v -81.42859 c 0,-3.75928 -2.993858,-6.78571 -6.712688,-6.78571 z"
       id="path3647"
       inkscape:connector-curvature="0" />
    <path
       style="display:inline;opacity:1;fill:#000000;fill-opacity:0.06349206;fill-rule:nonzero;stroke:none;stroke-width:1.01861107"
       d="m 1.5687998,973.26078 -1.36855182,71.33292 c -0.0321419,3.7144 3.06080432,6.7185 6.84380432,6.7185 H 88.957746 c 3.782999,0 6.880603,-3.0042 6.841895,-6.7185 l -1.363558,-70.57062 c 0,3.71458 -1.695338,71.23302 -5.478337,71.23302 H 7.0440523 c -3.783,0 -5.4752525,-68.28074 -5.4752525,-71.99532 z"
       id="path3608"
       clip-path="none"
       mask="none"
       inkscape:connector-curvature="0"
       sodipodi:nodetypes="ccssccssc" />
    <path
       inkscape:connector-curvature="0"
       id="rect4251-1"
       d="M 87.691065,957.44196 H 8.3089256 c -3.6648091,0 -6.6151781,2.99044 -6.6151781,6.70502 v 80.46022 c 0,3.7146 2.950369,6.705 6.6151781,6.705 H 87.691065 c 3.664809,0 6.615175,-2.9904 6.615175,-6.705 v -80.46022 c 0,-3.71458 -2.950366,-6.70502 -6.615175,-6.70502 z"
       style="display:inline;fill:url(#linearGradient3750);fill-opacity:1;fill-rule:nonzero;stroke:none;stroke-width:1.00257266" />
    <path
       inkscape:connector-curvature="0"
       id="path347"
       d="m 67.187491,997.40703 c -0.100025,-0.12156 -0.23817,-0.18268 -0.414391,-0.18339 -0.176236,-6.9e-4 -0.32036,0.0614 -0.432379,0.18623 -0.112016,0.12347 -0.17809,0.29326 -0.198216,0.50934 l 1.195772,0.005 c 8.87e-4,-0.22442 -0.04937,-0.39673 -0.150784,-0.51691 m -0.354461,1.89251 c -0.329065,-0.001 -0.58818,-0.10698 -0.77736,-0.31701 -0.187799,-0.21003 -0.28097,-0.49678 -0.279529,-0.86027 0.0014,-0.35109 0.09407,-0.63504 0.278049,-0.85186 0.183986,-0.21819 0.425373,-0.32875 0.724169,-0.3317 0.280877,0.001 0.502846,0.0984 0.665925,0.29177 0.164465,0.19204 0.246056,0.44845 0.244784,0.76925 -1.11e-4,0.0165 -9.04e-4,0.0468 -0.0025,0.0909 -1.6e-4,0.0441 -3.01e-4,0.0757 -3.74e-4,0.095 l -1.555093,-0.006 c 0.0031,0.25748 0.0684,0.45876 0.195868,0.60383 0.128859,0.1437 0.302048,0.21597 0.519591,0.21684 0.239566,9.5e-4 0.480073,-0.0614 0.721523,-0.18715 l 0.05259,0.27901 c -0.230493,0.13953 -0.493051,0.2087 -0.787701,0.20753"
       style="display:inline;fill:#000000;fill-opacity:0.49731008;stroke-width:1.40988719" />
    <path
       style="display:inline;opacity:0.89600004;fill:#f3f5f5;fill-opacity:1;fill-rule:nonzero;stroke:none;stroke-width:1.0321511"
       d="m 11.394451,962.37484 c -2.844594,0 -5.1027775,2.30979 -5.1027775,5.21939 v 21.62785 7.30714 41.04918 c 1.092668,1.7002 2.9564783,2.838 5.1027775,2.838 h 4.082223 65.315562 4.082222 c 2.1463,0 4.01011,-1.1378 5.102778,-2.838 v -41.04918 -7.30714 -21.62785 c 0,-2.9096 -2.258183,-5.21939 -5.102778,-5.21939 z"
       id="path4453"
       inkscape:connector-curvature="0"
       sodipodi:nodetypes="sscccsccscccsss" />
    <path
       sodipodi:nodetypes="sscccsccscccsss"
       inkscape:connector-curvature="0"
       id="path4487"
       d="m 15.247217,967.84562 c -2.251526,0 -4.038904,2.08994 -4.038904,4.72259 v 19.5692 6.61161 37.14188 c 0.864859,1.5384 2.340084,2.5679 4.038904,2.5679 h 3.231121 51.697955 3.23112 c 1.698821,0 3.174044,-1.0295 4.038904,-2.5679 v -37.14188 -6.61161 -19.5692 c 0,-2.63265 -1.787377,-4.72259 -4.038904,-4.72259 z"
       style="display:inline;opacity:0.77864583;fill:#fcf4f2;fill-opacity:1;fill-rule:nonzero;stroke:#7c7c7c;stroke-width:0.24361476;stroke-miterlimit:4;stroke-dasharray:none;stroke-opacity:0.61111109" />
    <path
       style="display:inline;opacity:0.77864583;fill:#f2fafc;fill-opacity:1;fill-rule:nonzero;stroke:#7c7c7c;stroke-width:0.24249388;stroke-miterlimit:4;stroke-dasharray:none;stroke-opacity:0.61111109"
       d="m 11.246725,968.49566 c -2.2515638,0 -4.0389721,2.07071 -4.0389721,4.67914 v 19.38921 6.55081 36.80028 c 0.8648735,1.5242 2.3401235,2.5443 4.0389721,2.5443 h 3.231176 51.698829 3.231175 c 1.69885,0 3.174098,-1.0201 4.038972,-2.5443 v -36.80028 -6.55081 -19.38921 c 0,-2.60843 -1.787407,-4.67914 -4.038972,-4.67914 z"
       id="path4485"
       inkscape:connector-curvature="0"
       sodipodi:nodetypes="sscccsccscccsss" />
    <path
       sodipodi:nodetypes="sscccsccscccsss"
       inkscape:connector-curvature="0"
       id="path3400-6"
       d="m 11.859497,969.27125 c -2.0882633,0 -3.7460354,2.04791 -3.7460354,4.62762 v 19.17568 6.47867 36.39498 c 0.8021464,1.5075 2.1704004,2.5163 3.7460354,2.5163 h 2.996827 47.949246 2.996826 c 1.575636,0 2.943889,-1.0088 3.746035,-2.5163 v -36.39498 -6.47867 -19.17568 c 0,-2.57971 -1.65777,-4.62762 -3.746035,-4.62762 z"
       style="display:inline;opacity:0.77864583;fill:#fcf3f2;fill-opacity:1;fill-rule:nonzero;stroke:#7c7c7c;stroke-width:0.23224519;stroke-miterlimit:4;stroke-dasharray:none;stroke-opacity:0.61111109" />
    <circle
       r="1.8086958"
       cy="986.82703"
       cx="11.867488"
       id="circle4477"
       style="opacity:0.99599998;fill:#f3f5f5;fill-opacity:1;stroke:#8d8d8d;stroke-width:1.23558414;stroke-linecap:round;stroke-linejoin:bevel;stroke-miterlimit:4;stroke-dasharray:none;stroke-dashoffset:0;stroke-opacity:1;paint-order:markers stroke fill" />
    <circle
       style="opacity:0.89600004;fill:#f3f5f5;fill-opacity:1;stroke:#000000;stroke-width:0.52055985;stroke-linecap:round;stroke-linejoin:bevel;stroke-miterlimit:4;stroke-dasharray:none;stroke-dashoffset:0;stroke-opacity:0.48301888;paint-order:markers stroke fill"
       id="circle4479"
       cx="11.867488"
       cy="986.82703"
       r="1.2062197" />
    <path
       style="display:inline;fill:#000000;fill-opacity:0.49731008;stroke-width:1.40988719"
       d="m 33.602258,1030.8676 c -0.992968,-0.6625 0.958526,-0.5984 0,0 z m -1.219179,-1.8758 c -2.5827,-0.4882 0.327243,1.5913 2e-6,0 z m -0.354459,1.8926 c -3.290056,-1.1166 1.739918,-3.514 0.526703,-1.1153 -1.865781,-0.4587 -0.928316,1.2393 0.238611,0.7891 0.181274,0.369 -0.676116,0.2379 -0.765333,0.3261 m -1.681814,-0.013 c -0.941307,-0.1929 -0.592605,-2.2196 -0.774219,-2.2957 0.08774,-1.1173 1.39443,0.3775 0.804888,0.245 -1.304208,0.2941 0.903792,2.3644 -0.03068,2.0507 m -3.167823,-0.053 c 0.06195,-0.5414 -0.198319,-2.8802 0.340191,-1.94 1.965861,-2.1709 1.669527,3.4616 1.188265,1.3437 -0.319399,-3.2458 -1.014283,-0.5206 -1.528526,0.5964 m -1.616141,-0.2377 c 2.250008,-0.938 -1.402651,-1.1205 -4e-5,0 m 0.748769,0.2343 c -0.301446,0.3031 -2.565775,-0.4142 -0.916144,-1.2506 2.57042,-0.2895 -1.881254,-0.8876 0.396608,-1.0645 0.963225,-0.338 1.065205,2.2986 0.519539,2.3152 m -3.574486,0.5594 c -0.190613,-1.7863 1.29831,-1.08 -1.5e-5,0 m -0.9693,-0.5311 c -2.317273,-0.013 -0.195497,-3.6549 0.519768,-1.9331 -2.57085,-0.36 -0.08875,2.1755 -0.187722,1.8936 l -0.332151,0.039 m -2.573284,-0.2879 c 2.250008,-0.938 -1.402649,-1.1204 -3.9e-5,0 m 0.74877,0.2343 c -0.301441,0.3031 -2.565776,-0.4141 -0.916144,-1.2505 2.570429,-0.2896 -1.881251,-0.8877 0.396612,-1.0646 0.963225,-0.338 1.065205,2.2986 0.519539,2.3152 m 44.526753,-5.07 c -0.941306,-0.1929 -0.592608,-2.2196 -0.774218,-2.2958 0.08774,-1.1173 1.394431,0.3776 0.804889,0.245 -1.304224,0.2941 0.903813,2.3645 -0.03066,2.0507 m -2.339325,-0.2813 c 2.250001,-0.938 -1.402633,-1.1204 -2.5e-5,10e-5 m 0.748773,0.2342 c -0.301444,0.3031 -2.565774,-0.4141 -0.916144,-1.2505 2.57042,-0.2896 -1.881261,-0.8876 0.396594,-1.0646 0.963224,-0.338 1.065208,2.2986 0.519539,2.3152 m -1.882546,-2.2945 c -0.09898,0.1592 -0.87803,1.562 -0.831124,2.283 -0.399537,-0.8492 -0.304466,-2.6493 0.444384,-2.1667 l 0.386674,-0.1162 m -2.000886,0.4319 c -2.5827,-0.4883 0.327241,1.5912 10e-7,0 z m -0.35446,1.8925 c -3.290055,-1.1166 1.73992,-3.5139 0.5267,-1.1153 -1.865781,-0.4586 -0.928317,1.2393 0.238611,0.7891 0.181276,0.3691 -0.676134,0.2379 -0.765346,0.3261 m -1.999042,-0.01 c -2.317273,-0.012 -0.195497,-3.6548 0.519768,-1.9331 -2.570848,-0.3599 -0.08875,2.1756 -0.187722,1.8936 l -0.332151,0.04 m -2.574694,-0.2879 c 2.250001,-0.938 -1.402632,-1.1205 -2.5e-5,0 m 0.748769,0.2343 c -0.301443,0.3031 -2.565773,-0.4142 -0.916142,-1.2506 2.57042,-0.2895 -1.881257,-0.8876 0.396608,-1.0645 0.963225,-0.338 1.065205,2.2986 0.519539,2.3152 m -1.967956,0.033 c -1.126437,-0.4548 -0.384895,-2.1716 -0.592491,-3.1892 0.803976,0.1636 0.08798,1.8845 0.35097,2.6492 0.08815,0.4069 1.172118,0.3051 0.241555,0.5399 m -3.091394,0.9296 c 0.0043,-1.0829 0.0086,-2.1657 0.01287,-3.2486 0.892581,-0.3601 3.170195,0.8288 1.312755,2.2806 -1.733678,-0.872 -0.360971,0.6998 -1.325575,0.9679 m 1.008566,-1.2228 c 2.588857,-2.1891 -2.580373,-2.2833 10e-7,0 z m -3.175387,0.8055 c -0.190588,-1.7863 1.298319,-1.08 -2e-6,0 z m -1.546185,-0.831 c 2.118974,-0.7663 -1.145956,-3.0455 -0.566275,-0.4276 l 0.209422,0.3106 0.356831,0.1171 m 0.679771,-0.076 c -2.335511,1.6212 -1.768604,-3.2687 0.006,-1.7865 -0.188157,-1.5627 0.629731,-0.9579 0.338713,0.2561 -0.05178,0.37 0.181674,2.6974 -0.344779,1.5304 m -2.205687,-1.945 c -0.0093,0.5465 0.125337,2.9583 -0.354638,1.9376 0.178913,-0.5225 -0.378811,-2.0123 0.354638,-1.9376 z m 0.0033,-0.8241 c 0.151411,1.1418 -0.974346,-0.1445 0,0 z m -1.996683,0.795 c -0.09898,0.1592 -0.878031,1.562 -0.831123,2.283 -0.399537,-0.8492 -0.304469,-2.6493 0.444384,-2.1667 l 0.386674,-0.1162 m -2.000889,0.4319 c -2.582696,-0.4883 0.327243,1.5912 2e-6,0 z m -0.354459,1.8925 c -3.290055,-1.1165 1.739918,-3.5139 0.526704,-1.1153 -1.865781,-0.4586 -0.928318,1.2394 0.23861,0.7891 0.181274,0.369 -0.676113,0.2379 -0.765332,0.3261 m -3.304239,-0.8171 c -0.280493,-1.0832 0.475658,-2.2829 0.349056,-0.5288 -0.131124,1.9275 1.772455,0.5732 1.145154,-0.7671 0.515318,-0.7599 0.657327,2.1237 -0.29532,2.0814 -0.529594,0.1281 -1.251642,-0.1312 -1.19888,-0.7855 z m -0.672853,0.7954 c -0.941308,-0.193 -0.592606,-2.2196 -0.774219,-2.2958 0.08774,-1.1173 1.394432,0.3775 0.804889,0.245 -1.304208,0.2941 0.903792,2.3644 -0.03068,2.0507 m -1.698463,-1.8945 c -2.5827,-0.4883 0.327241,1.5912 1e-6,0 z m -0.354459,1.8925 c -3.290056,-1.1165 1.739917,-3.5139 0.526698,-1.1152 -1.86578,-0.4587 -0.928318,1.2393 0.23861,0.789 0.181275,0.3691 -0.676114,0.238 -0.765331,0.3262 m -1.680401,-0.013 c -0.941306,-0.1929 -0.592606,-2.2196 -0.774219,-2.2958 0.08774,-1.1173 1.39443,0.3775 0.804889,0.245 -1.304211,0.2941 0.903794,2.3644 -0.03068,2.0507 m -1.76377,-0 c -2.317276,-0.012 -0.195493,-3.6548 0.519768,-1.9331 -2.570855,-0.3599 -0.08874,2.1756 -0.187713,1.8936 l -0.332147,0.04 m -1.933861,-1.9011 c -2.582697,-0.4883 0.327242,1.5912 2e-6,0 z m -0.354457,1.8925 c -3.290056,-1.1166 1.739917,-3.5139 0.526702,-1.1153 -1.86578,-0.4586 -0.928319,1.2393 0.23861,0.7891 0.181274,0.369 -0.676115,0.2379 -0.765332,0.3261 m -2.250017,-0.01 c -2.318551,-0.4559 2.049152,-0.2294 -0.199952,-1.1326 -2.171567,-1.5413 2.864602,-1.0664 -0.09158,-0.8616 -0.43095,0.7349 2.748268,1.3357 0.291548,1.9942 m -3.119885,-0.059 c 0.06196,-0.5414 -0.19832,-2.8802 0.340191,-1.9399 1.96586,-2.171 1.669525,3.4616 1.188263,1.3436 -0.319397,-3.2457 -1.014281,-0.5206 -1.528525,0.5965 m -2.221593,-1.1369 c 1.748854,3.5 1.709705,-3.4279 -2.3e-5,0 m 1.741081,7e-4 c -0.697978,3.3718 -3.841837,-1.6073 -0.60129,-1.0996 0.420278,0.1827 0.617763,0.6672 0.60129,1.0996 z m -3.038568,1.1686 c -2.317277,-0.012 -0.19549,-3.6548 0.519765,-1.9331 -2.570857,-0.3599 -0.08873,2.1756 -0.187713,1.8936 l -0.332148,0.039 m 35.76772,-4.6181 c -0.190617,-1.7863 1.298326,-1.08 -4e-6,0 z m -0.674629,-0.5356 c -0.941304,-0.1929 -0.59261,-2.2196 -0.774219,-2.2958 0.08774,-1.1173 1.394428,0.3775 0.804887,0.245 -1.30421,0.2941 0.903791,2.3644 -0.03068,2.0507 m -1.698462,-1.8945 c -2.5827,-0.4883 0.327249,1.5913 3e-6,0 z m -0.354454,1.8925 c -3.290056,-1.1165 1.739917,-3.5139 0.526703,-1.1152 -1.86578,-0.4587 -0.928318,1.2393 0.23861,0.7891 0.181274,0.369 -0.676114,0.2379 -0.765332,0.3261 m -4.410655,-2.3301 c 0.85951,-0.2989 0.787315,2.6456 1.231044,1.4264 0.08907,-1.0606 1.315765,-2.3435 0.443226,-0.3107 0.08132,1.6977 -2.781076,3.04 -0.786844,1.137 -0.295806,-0.7509 -0.591612,-1.5019 -0.887417,-2.2528 m -0.50245,2.2638 c 0.545582,-1.4301 -1.0159,-3.0205 -1.07102,-0.7495 -0.206007,1.8244 -0.401027,-0.4346 -0.468432,-1.1298 -1.45025,-0.9841 -0.866096,3.7829 -1.331436,0.9294 -0.528664,-2.1625 1.777223,-0.8958 3.046516,-1.1456 0.107468,0.3803 0.512654,2.2368 -0.175586,2.0956 m -3.66008,-0.015 c 0.545581,-1.4301 -1.015901,-3.0205 -1.07102,-0.7495 -0.206007,1.8245 -0.401033,-0.4346 -0.468435,-1.1298 -1.45025,-0.9841 -0.866097,3.7829 -1.331434,0.9294 -0.528668,-2.1625 1.77722,-0.8958 3.046513,-1.1455 0.107472,0.3802 0.512651,2.2367 -0.175585,2.0955 m -5.22345,-0.7779 c -0.280493,-1.0832 0.475658,-2.2829 0.349056,-0.5289 -0.131124,1.9276 1.772455,0.5733 1.145154,-0.767 0.515316,-0.7599 0.657327,2.1237 -0.29532,2.0813 -0.529596,0.1282 -1.251641,-0.1311 -1.19888,-0.7854 z m -2.370183,0.7477 c 0.06196,-0.5414 -0.198331,-2.8802 0.340205,-1.9399 1.965859,-2.171 1.669528,3.4616 1.188262,1.3437 -0.319396,-3.2458 -1.014279,-0.5207 -1.528523,0.5964 m -2.221606,-1.1369 c 1.748879,3.5 1.709718,-3.4279 -9e-6,0 z m 1.741072,7e-4 c -0.697977,3.3718 -3.84184,-1.6072 -0.601291,-1.0995 0.420292,0.1826 0.617761,0.6671 0.601293,1.0995 z m -4.442634,1.1165 c 0.06196,-0.5414 -0.198318,-2.8802 0.34019,-1.9399 1.965861,-2.171 1.669528,3.4616 1.188264,1.3436 -0.319397,-3.2457 -1.01428,-0.5206 -1.528524,0.5965 m -2.170594,0.5651 c -0.190627,-1.7863 1.298318,-1.08 -1.5e-5,0 m -1.218849,-0.5322 c -2.318549,-0.4559 2.049157,-0.2294 -0.199954,-1.1325 -2.17157,-1.5413 2.864587,-1.0665 -0.09158,-0.8616 -0.430932,0.7348 2.748234,1.3357 0.29153,1.9942 m -1.316114,-2.3175 c -0.0093,0.5465 0.125337,2.9583 -0.354638,1.9377 0.178913,-0.5226 -0.378812,-2.0123 0.354638,-1.9377 z m 0.0033,-0.824 c 0.15141,1.1417 -0.974346,-0.1445 0,0 z m -2.902152,4.0609 c 0.0043,-1.0829 0.0086,-2.1657 0.01287,-3.2486 0.892583,-0.3601 3.170194,0.8288 1.312753,2.2806 -1.733678,-0.872 -0.360971,0.6998 -1.325575,0.9679 m 1.008566,-1.2228 c 2.588856,-2.1891 -2.580372,-2.2833 10e-7,0 z m -1.524365,-2.0487 c -0.09897,0.1592 -0.878031,1.562 -0.83112,2.283 -0.399533,-0.8492 -0.304468,-2.6493 0.444383,-2.1667 l 0.386674,-0.1162 m -3.371377,1.5163 c -0.280491,-1.0832 0.475658,-2.2829 0.349056,-0.5289 -0.131126,1.9276 1.772454,0.5733 1.145154,-0.767 0.515317,-0.7599 0.657328,2.1237 -0.295322,2.0813 -0.529596,0.1281 -1.251641,-0.1311 -1.19888,-0.7854 z m -0.672853,0.7953 c -0.941307,-0.1929 -0.592607,-2.2196 -0.774219,-2.2957 0.08774,-1.1173 1.394431,0.3775 0.804889,0.245 -1.304208,0.2941 0.903793,2.3644 -0.03068,2.0507 m 39.491521,-5.4027 c 2.25,-0.938 -1.402633,-1.1205 -2.5e-5,0 m 0.748769,0.2343 c -0.301441,0.3031 -2.565774,-0.4142 -0.916142,-1.2506 2.570421,-0.2895 -1.881257,-0.8876 0.396608,-1.0645 0.963225,-0.338 1.065205,2.2986 0.519539,2.3152 m -2.695474,0.036 c -2.31855,-0.4559 2.049151,-0.2294 -0.199954,-1.1326 -2.17157,-1.5413 2.864586,-1.0664 -0.09158,-0.8616 -0.430942,0.7349 2.748263,1.3357 0.29152,1.9942 m -1.966763,-0.01 c -2.318549,-0.4559 2.049156,-0.2294 -0.199954,-1.1325 -2.171565,-1.5413 2.864582,-1.0665 -0.0916,-0.8616 -0.430884,0.7348 2.748243,1.3357 0.29156,1.9942 m -2.291369,-0.2869 c 2.250001,-0.938 -1.402631,-1.1204 -2.6e-5,0 m 0.748769,0.2343 c -0.301441,0.3031 -2.565775,-0.4141 -0.916143,-1.2505 2.570421,-0.2896 -1.881257,-0.8876 0.396608,-1.0646 0.963225,-0.338 1.065205,2.2986 0.519539,2.3152 m -2.186322,-0.01 c 0.54558,-1.4301 -1.015917,-3.0205 -1.07102,-0.7496 -0.206006,1.8245 -0.401027,-0.4346 -0.468431,-1.1297 -1.450249,-0.9841 -0.866097,3.7829 -1.33143,0.9294 -0.528667,-2.1625 1.77722,-0.8959 3.046514,-1.1456 0.107468,0.3802 0.512653,2.2367 -0.175586,2.0956 m -4.717493,-0.019 c 0.545581,-1.4301 -1.015901,-3.0205 -1.071021,-0.7495 -0.206005,1.8244 -0.401025,-0.4347 -0.46843,-1.1298 -1.450247,-0.9841 -0.866105,3.7829 -1.331426,0.9294 -0.528673,-2.1626 1.777198,-0.8959 3.046506,-1.1456 0.10747,0.3802 0.512652,2.2367 -0.175585,2.0956 m -4.493814,-0.2491 c 2.25001,-0.938 -1.40265,-1.1205 -3.8e-5,0 m 0.748769,0.2343 c -0.301441,0.3031 -2.565775,-0.4142 -0.916144,-1.2506 2.570427,-0.2896 -1.881257,-0.8876 0.396612,-1.0646 0.963223,-0.3379 1.065203,2.2987 0.519538,2.3152 m -2.05801,-0.01 c -0.953186,-0.1003 -1.180105,-1.5372 -1.834556,-2.1874 -0.757933,-0.9234 0.322772,2.2889 -0.569557,2.1779 -0.01478,-1.0022 0.0053,-2.039 0.004,-3.0546 0.947788,0.1067 1.177224,1.5372 1.830952,2.1857 0.76173,0.9097 -0.315177,-2.2776 0.575211,-2.1761 0.0099,1.0057 -0.006,2.0391 -0.0061,3.0545 m -4.314297,0.01 c -0.99293,-0.6624 0.958515,-0.5984 0,0 z m -1.026295,-0.028 c 0.545581,-1.4301 -1.0159,-3.0205 -1.071021,-0.7495 -0.206007,1.8244 -0.401033,-0.4346 -0.468435,-1.1298 -1.450249,-0.9841 -0.866109,3.7829 -1.331424,0.9294 -0.528666,-2.1626 1.777214,-0.8959 3.046521,-1.1456 0.107469,0.3802 0.512655,2.2367 -0.17559,2.0956 m -3.852974,-1.8623 c -2.582699,-0.4883 0.327241,1.5912 1e-6,0 z m -0.354459,1.8925 c -3.290059,-1.1165 1.739917,-3.5139 0.526701,-1.1153 -1.865782,-0.4586 -0.928317,1.2393 0.238611,0.7891 0.181276,0.369 -0.676133,0.2379 -0.765345,0.3261 m -2.248593,-0.01 c -2.31855,-0.4559 2.049156,-0.2294 -0.199955,-1.1325 -2.171565,-1.5413 2.864585,-1.0665 -0.0916,-0.8616 -0.430932,0.7348 2.748244,1.3357 0.291518,1.9942 m -2.481325,-0.015 c -0.941308,-0.193 -0.592607,-2.2197 -0.774219,-2.2958 0.08774,-1.1173 1.394432,0.3775 0.804889,0.245 -1.304208,0.2941 0.903792,2.3644 -0.03068,2.0507 m -1.698464,-1.8945 c -2.582694,-0.4883 0.327236,1.5912 2e-6,0 z m -0.354442,1.8925 c -3.290057,-1.1165 1.739916,-3.5139 0.526702,-1.1153 -1.86578,-0.4586 -0.928318,1.2393 0.238611,0.7891 0.181275,0.369 -0.676136,0.2379 -0.765347,0.3261 m -2.53062,-0.353 c 2.33731,-1.4044 -2.002849,-2.3716 -0.251719,-0.053 l 0.251755,0.053 m -0.53604,1.33 c 0.292125,-0.067 2.290273,-1.762 0.483233,-1.0369 -2.20031,-0.5293 -0.06578,-2.9735 0.72151,-2.2607 0.745301,0.2569 0.206217,2.038 0.207721,2.8241 -0.26261,0.5278 -0.915814,0.4758 -1.412468,0.4735 z m -1.320298,-2.8882 c -2.582702,-0.4883 0.327251,1.5912 3e-6,0 z m -0.354457,1.8925 c -3.290057,-1.1165 1.739918,-3.5139 0.526703,-1.1153 -1.865782,-0.4586 -0.928317,1.2394 0.238611,0.7891 0.181275,0.3691 -0.676136,0.2379 -0.765346,0.3261 m 47.29705,-5.1001 c -2.318551,-0.4559 2.049154,-0.2294 -0.199957,-1.1325 -2.171563,-1.5413 2.864602,-1.0665 -0.09158,-0.8616 -0.430943,0.7348 2.748263,1.3357 0.291521,1.9942 m -3.022387,-0.8157 c -0.28049,-1.0832 0.475659,-2.2829 0.349057,-0.5289 -0.131116,1.9276 1.772435,0.5733 1.14514,-0.767 0.515319,-0.7599 0.65733,2.1237 -0.295336,2.0813 -0.529596,0.1281 -1.251642,-0.1311 -1.198879,-0.7854 m -0.672834,0.7953 c -0.941307,-0.1929 -0.592607,-2.2196 -0.774219,-2.2957 0.08774,-1.1173 1.394431,0.3775 0.804889,0.245 -1.304208,0.2941 0.903793,2.3644 -0.03068,2.0507 m -1.698465,-1.8945 c -2.582698,-0.4883 0.327242,1.5912 2e-6,0 z m -0.354458,1.8925 c -3.290058,-1.1166 1.739915,-3.5139 0.526701,-1.1153 -1.865782,-0.4586 -0.928317,1.2393 0.238611,0.7891 0.181276,0.369 -0.676133,0.2379 -0.765345,0.3261 m -1.740853,-0.054 c 0.54558,-1.4301 -1.0159,-3.0205 -1.07102,-0.7495 -0.206008,1.8244 -0.401027,-0.4346 -0.468432,-1.1298 -1.450249,-0.9841 -0.866105,3.7829 -1.331426,0.9294 -0.528667,-2.1625 1.777218,-0.8959 3.04652,-1.1456 0.10747,0.3802 0.51265,2.2367 -0.175587,2.0956 m -4.910386,-1.8665 c -2.582665,-0.4883 0.3272,1.5912 -7e-6,0 m -0.35446,1.8925 c -3.290055,-1.1165 1.739918,-3.5139 0.526704,-1.1152 -1.86578,-0.4587 -0.928317,1.2393 0.23861,0.7891 0.181276,0.369 -0.676135,0.2379 -0.765346,0.3261 m -3.304226,-0.8171 c -0.280492,-1.0832 0.475659,-2.2829 0.349057,-0.5289 -0.131139,1.9276 1.772438,0.5733 1.14514,-0.7671 0.515317,-0.7598 0.657329,2.1238 -0.29532,2.0814 -0.529596,0.1281 -1.251642,-0.1311 -1.198879,-0.7854 z m -1.583655,0.7973 c -2.220368,-0.7987 0.04445,-2.9537 0.926226,-2.3094 0.328461,0.697 0.04035,2.0058 0.130774,2.9389 -0.737865,1.3424 0.14345,-2.1477 -1.057032,-0.6294 m 0.04662,-0.2972 c 2.782073,-1.6539 -2.413628,-2.7281 -5e-6,0 z m -2.182554,0.2887 c -2.318548,-0.456 2.049155,-0.2295 -0.19995,-1.1326 -2.171565,-1.5413 2.864583,-1.0665 -0.0916,-0.8616 -0.430885,0.7348 2.748255,1.3357 0.291536,1.9942 m -1.316111,-2.3175 c -0.0093,0.5465 0.125336,2.9584 -0.35464,1.9377 0.178913,-0.5225 -0.37881,-2.0123 0.35464,-1.9377 z m 0.0033,-0.824 c 0.15141,1.1417 -0.974346,-0.1445 0,0 z m -0.939363,0.7992 c -0.09898,0.1591 -0.87803,1.5619 -0.831122,2.283 -0.399535,-0.8493 -0.304468,-2.6493 0.444384,-2.1668 l 0.386674,-0.1162 m -2.00089,0.4319 c -2.5827,-0.4882 0.327249,1.5913 3e-6,0 z m -0.354457,1.8926 c -3.290057,-1.1166 1.739919,-3.514 0.526703,-1.1153 -1.865781,-0.4587 -0.928317,1.2393 0.23861,0.7891 0.181276,0.369 -0.676134,0.2379 -0.765346,0.3261 m -1.521076,-0.012 c -1.126436,-0.4548 -0.384895,-2.1716 -0.59249,-3.1891 0.803974,0.1635 0.08798,1.8844 0.350969,2.6491 0.08815,0.407 1.172119,0.3052 0.241556,0.5399 m -1.585715,-1.8941 c -2.582699,-0.4883 0.327247,1.5913 10e-7,0 z m -0.354459,1.8925 c -3.290062,-1.1165 1.739939,-3.5139 0.5267,-1.1152 -1.865781,-0.4587 -0.928318,1.2393 0.23861,0.7891 0.181276,0.369 -0.676135,0.2379 -0.765346,0.3261 m -1.99904,-0.01 c -2.317276,-0.012 -0.195493,-3.6549 0.519768,-1.9331 -2.570851,-0.3599 -0.08875,2.1755 -0.187723,1.8936 l -0.332151,0.039 m -2.248703,-0.01 c -2.318549,-0.456 2.049157,-0.2295 -0.199954,-1.1326 -2.171566,-1.5413 2.864583,-1.0665 -0.0916,-0.8616 -0.430934,0.7348 2.748247,1.3357 0.291519,1.9942 m -4.177248,-0.063 c 0.06196,-0.5414 -0.19832,-2.8802 0.340191,-1.94 1.965859,-2.1709 1.669523,3.4616 1.188267,1.3437 -0.319396,-3.2458 -1.014282,-0.5206 -1.528525,0.5964 m -1.616145,-0.2377 c 2.250008,-0.938 -1.402652,-1.1205 -3.8e-5,0 m 0.748772,0.2343 c -0.301444,0.3031 -2.565773,-0.4142 -0.916144,-1.2506 2.570429,-0.2896 -1.881242,-0.8876 0.396622,-1.0646 0.963224,-0.3379 1.065207,2.2987 0.519538,2.3152 m -2.355185,-1.8564 c -2.582698,-0.4883 0.327241,1.5912 2e-6,0 z m -0.354459,1.8925 c -3.290057,-1.1166 1.739915,-3.5139 0.526701,-1.1153 -1.865781,-0.4586 -0.928317,1.2393 0.238611,0.7891 0.181276,0.369 -0.676133,0.2379 -0.765344,0.3261 m -3.404508,-0.06 c 0.06196,-0.5414 -0.198319,-2.8802 0.340191,-1.9399 1.965861,-2.171 1.669524,3.4616 1.188267,1.3436 -0.319393,-3.2457 -1.014282,-0.5206 -1.528525,0.5965 m -0.975299,-1.851 c -2.582694,-0.4883 0.327238,1.5913 2e-6,0 z m -0.354454,1.8925 c -3.290056,-1.1165 1.739918,-3.5139 0.526703,-1.1152 -1.865782,-0.4587 -0.928317,1.2393 0.238611,0.789 0.181275,0.3691 -0.676136,0.238 -0.765347,0.3262 m -2.099572,-1.3242 c -0.01114,-2.2153 -1.342694,-0.5721 -0.656587,-0 0.218861,9e-4 0.437718,0 0.65658,0 z m 0.467911,1.27 c 0.127163,-1.1297 -1.666325,-1.4658 -1.8072,-0.3657 -0.896581,1.1216 0.05018,-1.1241 0.265576,-1.622 0.1888,-1.4759 1.098822,-1.1307 1.233669,0.1498 -0.04837,0.3948 1.185396,2.0935 0.307962,1.8379 z m 37.716081,-5.1129 c -0.992969,-0.6625 0.958526,-0.5985 0,0 z m -0.99121,0.013 c -0.941303,-0.1929 -0.59261,-2.2196 -0.774218,-2.2958 0.08774,-1.1173 1.394429,0.3775 0.804886,0.245 -1.304208,0.2941 0.903792,2.3644 -0.03068,2.0507 m -1.698462,-1.8945 c -2.582698,-0.4883 0.327248,1.5913 2e-6,0 z m -0.354456,1.8925 c -3.290055,-1.1165 1.739918,-3.5139 0.526704,-1.1152 -1.86578,-0.4587 -0.928317,1.2393 0.238611,0.789 0.181275,0.3691 -0.676136,0.238 -0.765347,0.3262 m -3.305636,-0.8171 c -0.280493,-1.0832 0.475658,-2.283 0.349056,-0.5289 -0.131127,1.9276 1.772453,0.5733 1.145154,-0.7671 0.515315,-0.7598 0.657328,2.1237 -0.29532,2.0814 -0.529596,0.1281 -1.251643,-0.1311 -1.19888,-0.7854 z m -1.582245,0.7973 c -2.220369,-0.7987 0.04445,-2.9537 0.926225,-2.3094 0.328461,0.697 0.04035,2.0057 0.130775,2.9389 -0.737865,1.3424 0.143449,-2.1477 -1.057033,-0.6294 m 0.04662,-0.2972 c 2.782082,-1.6539 -2.413638,-2.7281 -9e-6,0 m -1.5333,-2.021 c -0.0093,0.5465 0.125339,2.9583 -0.354638,1.9377 0.178927,-0.5226 -0.378809,-2.0123 0.354638,-1.9377 z m 0.0033,-0.824 c 0.151411,1.1417 -0.974345,-0.1445 0,0 z m -0.982434,3.1267 c -1.126445,-0.4547 -0.384896,-2.1715 -0.592494,-3.1891 0.803974,0.1635 0.08798,1.8845 0.350969,2.6492 0.08815,0.4069 1.172138,0.3051 0.24157,0.5399 m -2.225162,-0.2809 c 2.250001,-0.938 -1.40263,-1.1204 -2.5e-5,0 m 0.748769,0.2343 c -0.301441,0.3031 -2.565776,-0.4141 -0.916144,-1.2505 2.570421,-0.2896 -1.881257,-0.8877 0.396608,-1.0646 0.963225,-0.338 1.065205,2.2986 0.519539,2.3152 m -4.080201,-0.2673 c 2.118972,-0.7664 -1.145958,-3.0456 -0.566276,-0.4277 l 0.209423,0.3106 0.35683,0.1171 z m 0.679755,-0.076 c -2.335499,1.6212 -1.76862,-3.2687 0.006,-1.7865 -0.18816,-1.5627 0.629731,-0.9579 0.338714,0.2561 -0.05178,0.37 0.181674,2.6974 -0.344779,1.5304 m -3.78643,-0.8135 c 1.748855,3.5 1.709707,-3.42794 -2.2e-5,0 m 1.74108,7e-4 c -0.697976,3.3718 -3.841838,-1.6073 -0.601288,-1.0996 0.420288,0.1827 0.617761,0.6671 0.601292,1.0996 z m -2.780376,1.1231 c 0.545577,-1.4301 -1.015893,-3.0205 -1.071006,-0.7495 -0.206008,1.8244 -0.401034,-0.4346 -0.468435,-1.1298 -1.450251,-0.9841 -0.866096,3.7829 -1.331436,0.9294 -0.528667,-2.1625 1.777205,-0.8958 3.046502,-1.1456 0.107468,0.3803 0.512655,2.2367 -0.17559,2.0956 m -4.167814,0.03 c -2.318556,-0.4559 2.049136,-0.2294 -0.199964,-1.1326 -2.17157,-1.5413 2.864587,-1.0664 -0.09158,-0.8616 -0.430934,0.7349 2.748245,1.3358 0.291517,1.9942 m -1.317502,-2.3174 c -0.0093,0.5465 0.125337,2.9583 -0.35464,1.9376 0.178914,-0.5225 -0.37881,-2.0123 0.35464,-1.9376 z m 0.0033,-0.8241 c 0.151411,1.1418 -0.974346,-0.1445 0,0 z m -2.76555,2.3217 c -0.280491,-1.0832 0.475658,-2.2829 0.349056,-0.5289 -0.131115,1.9276 1.772434,0.5733 1.145139,-0.767 0.515318,-0.7599 0.657328,2.1237 -0.295322,2.0813 -0.529594,0.1281 -1.251642,-0.1311 -1.198879,-0.7854 z m -0.900822,-1.0934 c -2.582695,-0.4883 0.327238,1.5912 2e-6,0 z m -0.354459,1.8925 c -3.290057,-1.1165 1.739916,-3.5139 0.526702,-1.1153 -1.865782,-0.4586 -0.928317,1.2393 0.238611,0.7891 0.181272,0.369 -0.676105,0.2379 -0.765329,0.3261 m -2.763192,-0.017 c -0.941306,-0.1929 -0.592608,-2.2196 -0.774219,-2.2958 0.08774,-1.1173 1.39443,0.3775 0.804888,0.245 -1.30421,0.2941 0.903792,2.3644 -0.03068,2.0507 m -1.364074,-2.3119 c -0.0093,0.5465 0.125338,2.9583 -0.354638,1.9377 0.178914,-0.5226 -0.378808,-2.0124 0.354639,-1.9377 z m 0.0033,-0.824 c 0.151411,1.1417 -0.974345,-0.1446 -2e-6,0 z m -0.98245,3.1267 c -1.126445,-0.4547 -0.384896,-2.1716 -0.592494,-3.1891 0.803975,0.1635 0.08798,1.8844 0.350969,2.6491 0.08815,0.407 1.172138,0.3052 0.24157,0.54 m -1.585725,-1.8941 c -2.582698,-0.4883 0.327245,1.5912 1e-6,0 z m -0.354459,1.8925 c -3.290056,-1.1166 1.739917,-3.5139 0.526704,-1.1153 -1.86578,-0.4586 -0.928318,1.2393 0.238609,0.7891 0.181275,0.369 -0.676114,0.2379 -0.765331,0.3261 m -2.483872,-0.057 c -0.108379,-0.5886 -1.293768,-2.5716 -0.442877,-2.1143 0.406368,1.2578 0.776509,2.3527 1.175584,0.2776 1.013949,-1.2652 -0.162542,1.2737 -0.356821,1.8382 -0.125293,-5e-4 -0.250581,-0 -0.375873,-0 z m 45.036402,-5.33993 c 2.250002,-0.93799 -1.402622,-1.12042 -2.1e-5,4e-5 m 0.748773,0.23426 c -0.301444,0.30311 -2.565775,-0.41415 -0.916144,-1.25054 2.570421,-0.28958 -1.881257,-0.88762 0.396608,-1.06459 0.963216,-0.33794 1.065205,2.29865 0.519536,2.31522 m -2.144193,0.0322 c -0.941305,-0.19292 -0.592608,-2.21961 -0.774219,-2.29575 0.08774,-1.1173 1.394431,0.37752 0.804888,0.245 -1.304208,0.29408 0.903792,2.36442 -0.03068,2.0507 M 61.5003,996.96576 c -0.0093,0.5465 0.125337,2.95832 -0.354638,1.93766 0.178927,-0.52254 -0.37881,-2.0123 0.354638,-1.93766 z m 0.0033,-0.82404 c 0.151411,1.14175 -0.974346,-0.14451 0,0 z m -1.97056,3.08195 c -0.108379,-0.58855 -1.293771,-2.57157 -0.442873,-2.11429 0.406367,1.25778 0.776509,2.3527 1.175583,0.27758 1.013947,-1.26521 -0.162547,1.27369 -0.356824,1.83819 -0.125293,-5e-4 -0.250582,-9.9e-4 -0.375873,-0.001 z m -2.928497,0.0349 c -2.318549,-0.45595 2.049157,-0.22945 -0.199955,-1.13258 -2.171566,-1.54128 2.864585,-1.06644 -0.0916,-0.86161 -0.430975,0.73484 2.748377,1.33546 0.291554,1.99408 m -1.317535,-2.31735 c -0.0093,0.5465 0.125337,2.95833 -0.354638,1.93767 0.178913,-0.52255 -0.378811,-2.0123 0.354638,-1.93767 z m 0.0033,-0.82403 c 0.15141,1.14175 -0.974346,-0.14451 0,0 z m -2.900742,4.061 c 0.0043,-1.08292 0.0086,-2.1658 0.01287,-3.24868 0.89258,-0.36003 3.170194,0.82878 1.312754,2.28059 -1.733679,-0.87198 -0.360972,0.69983 -1.325576,0.96799 m 1.008567,-1.22283 c 2.58885,-2.18908 -2.580377,-2.2833 -2e-6,2e-5 m -1.524364,-2.04873 c -0.09898,0.15916 -0.878029,1.56197 -0.83112,2.28299 -0.399533,-0.84925 -0.304469,-2.64928 0.444383,-2.16673 l 0.386674,-0.11619 m -3.372789,1.5163 c -0.28049,-1.08319 0.475659,-2.28292 0.349057,-0.52886 -0.131128,1.92757 1.772453,0.57328 1.145153,-0.76707 0.515319,-0.75986 0.65733,2.12373 -0.295336,2.08136 -0.529596,0.12812 -1.251641,-0.13111 -1.198879,-0.78542 z m -0.671442,0.79535 c -0.941307,-0.19293 -0.592607,-2.21962 -0.774219,-2.29576 0.08774,-1.1173 1.394431,0.37752 0.804888,0.245 -1.304208,0.29408 0.903792,2.36442 -0.03068,2.0507 m -2.527901,-0.01 c -0.941307,-0.19293 -0.592609,-2.21962 -0.774219,-2.29576 0.08774,-1.1173 1.394431,0.37752 0.804888,0.245 -1.304207,0.29408 0.90379,2.36441 -0.03068,2.0507 m -2.33931,-0.28132 c 2.250008,-0.938 -1.402652,-1.12043 -3.9e-5,3e-5 m 0.748773,0.23427 c -0.301445,0.3031 -2.565772,-0.41416 -0.916143,-1.25055 2.570421,-0.28958 -1.881257,-0.88762 0.396608,-1.06458 0.963223,-0.33797 1.065206,2.29863 0.519539,2.3152 m -4.080193,-0.26731 c 2.118975,-0.76638 -1.145956,-3.04551 -0.566277,-0.42768 l 0.209423,0.31063 0.356835,0.11706 m 0.679772,-0.0758 c -2.33551,1.62127 -1.768606,-3.26867 0.006,-1.78645 -0.18816,-1.56273 0.629731,-0.95793 0.338714,0.25607 -0.05178,0.37001 0.181673,2.69739 -0.344779,1.53037 m -2.540072,-1.52759 c -2.582698,-0.48828 0.327241,1.59125 10e-7,0 z m -0.354481,1.89256 c -3.290058,-1.11653 1.739916,-3.51392 0.526701,-1.11526 -1.865781,-0.45865 -0.928316,1.23932 0.238611,0.78907 0.181275,0.36904 -0.676113,0.23793 -0.765332,0.32613 m -3.485703,-0.56545 c 1.9043,1.06508 2.050472,-1.18553 0.292814,-1.15405 -1.980943,-1.99527 3.545368,-1.13252 0.732525,-1.17147 -2.422557,0.72835 2.995034,1.46503 0.412202,2.82384 -0.275283,0.0528 -1.930178,0.16873 -1.437527,-0.49827 m -1.84622,0.52135 c -0.99293,-0.66249 0.958515,-0.59843 0,0 z m -0.99121,0.013 c -0.941306,-0.19293 -0.592607,-2.21962 -0.774219,-2.29576 0.08774,-1.11729 1.394429,0.37752 0.804888,0.245 -1.304208,0.29408 0.903793,2.36442 -0.03068,2.0507 m -2.339308,-0.28132 c 2.250008,-0.93799 -1.402649,-1.12043 -4e-5,3e-5 m 0.74877,0.23428 c -0.301445,0.30311 -2.565774,-0.41415 -0.916144,-1.25054 2.570427,-0.28958 -1.881242,-0.88762 0.396608,-1.06459 0.963224,-0.33796 1.065207,2.29864 0.51954,2.31521 m -2.046225,-2.27401 c -0.0093,0.54649 0.125337,2.95832 -0.354638,1.93766 0.178913,-0.52255 -0.378811,-2.0123 0.354638,-1.93766 z m 0.0033,-0.82403 c 0.151411,1.14174 -0.974346,-0.14451 0,0 z m -1.991944,2.78577 c 2.337315,-1.40441 -2.002863,-2.37164 -0.251707,-0.0526 l 0.251754,0.0526 m -0.536041,1.32998 c 0.292125,-0.068 2.290275,-1.76199 0.483232,-1.03692 -2.200307,-0.52933 -0.06578,-2.97351 0.72151,-2.26067 0.745304,0.25685 0.206215,2.038 0.207721,2.82405 -0.262607,0.52784 -0.915817,0.47584 -1.412469,0.47354 m -2.692197,-1.80381 c -0.280493,-1.0832 0.475658,-2.28292 0.349056,-0.52886 -0.131129,1.92756 1.772419,0.57326 1.145126,-0.76708 0.515316,-0.75986 0.657329,2.12372 -0.295321,2.08136 -0.529595,0.12812 -1.251641,-0.13111 -1.198878,-0.78542 m -0.899399,-1.09342 c -2.5827,-0.48828 0.327248,1.59125 3e-6,0 z m -0.354457,1.89251 c -3.290055,-1.11654 1.739919,-3.5139 0.526699,-1.11524 -1.86578,-0.45865 -0.928317,1.23931 0.238611,0.78907 0.181275,0.36905 -0.676134,0.23792 -0.765346,0.32613 m -1.448694,-2.97819 c -0.759113,0.8359 0.637823,0.58494 -0.37871,1.23991 0.244367,0.84743 -0.346078,2.64814 -0.348333,0.86544 0.09737,-1.40686 -0.550097,-1.04346 0.171831,-2.18396 0.256237,-0.49543 1.480946,0.0334 0.555269,0.0786 m 42.177102,-2.14794 c -2.318556,-0.45595 2.049135,-0.22944 -0.199964,-1.13259 -2.171569,-1.54128 2.864587,-1.06644 -0.09158,-0.8616 -0.430965,0.73482 2.748358,1.33548 0.291551,1.99409 m -3.022405,-0.81554 c -0.280493,-1.0832 0.475658,-2.28292 0.349056,-0.52887 -0.131135,1.92757 1.772405,0.57325 1.145113,-0.76708 0.515318,-0.75986 0.657329,2.12373 -0.295336,2.08137 -0.529593,0.12811 -1.251649,-0.13112 -1.198893,-0.78543 m -0.706469,0.75432 c 0.545584,-1.43007 -1.015923,-3.02052 -1.071034,-0.74954 -0.206009,1.82446 -0.401027,-0.43462 -0.468432,-1.12976 -1.450248,-0.9841 -0.86609,3.78285 -1.331433,0.9294 -0.528666,-2.16249 1.777226,-0.89583 3.046512,-1.14557 0.107472,0.38024 0.512651,2.2367 -0.175585,2.09559 m -4.493803,-0.24912 c 2.249999,-0.93799 -1.402631,-1.12043 -2.7e-5,3e-5 m 0.748734,0.23429 c -0.301446,0.30311 -2.565773,-0.41415 -0.916144,-1.25054 2.570418,-0.28958 -1.881256,-0.88763 0.396594,-1.06459 0.963222,-0.33797 1.065208,2.29863 0.51954,2.3152 m -2.930735,-0.0118 c -0.108379,-0.58854 -1.293771,-2.57156 -0.442875,-2.11428 0.406366,1.25778 0.776512,2.35269 1.175585,0.27758 1.013951,-1.26524 -0.16254,1.27367 -0.356834,1.83817 -0.125293,-4.9e-4 -0.250582,-9.9e-4 -0.375872,-0.002 m -1.221855,-2.27053 c -0.0093,0.5465 0.125337,2.95832 -0.354639,1.93767 0.178927,-0.52255 -0.378811,-2.01231 0.354639,-1.93767 z m 0.0033,-0.82402 c 0.15141,1.14175 -0.974345,-0.14451 -1e-6,0 z m -1.077282,0.0302 c 0.804369,0.1385 -0.479632,1.72824 -0.519041,2.45304 -0.512576,1.57807 -1.013104,-0.61259 -1.250806,-1.24763 -0.771985,-1.453 0.147398,-1.42942 0.375675,0.0214 0.416515,2.00492 0.761206,0.80751 1.214859,-0.72892 l 0.179323,-0.49791 z m -3.748371,3.06437 c -0.992964,-0.66246 0.95849,-0.59849 0,0 z m -0.991211,0.013 c -0.941308,-0.19293 -0.592606,-2.21962 -0.774217,-2.29576 0.08774,-1.1173 1.394431,0.37752 0.804888,0.245 -1.30421,0.29408 0.903793,2.36442 -0.03068,2.05069 m -1.364073,-2.31193 c -0.0093,0.5465 0.125336,2.95833 -0.35464,1.93767 0.178913,-0.52255 -0.37881,-2.01231 0.35464,-1.93767 z m 0.0033,-0.82403 c 0.151411,1.14175 -0.974346,-0.14451 0,0 z m -0.983804,3.12674 c -1.126448,-0.45469 -0.384896,-2.17156 -0.592494,-3.18909 0.803973,0.1635 0.08798,1.88444 0.350969,2.64912 0.08815,0.40698 1.172139,0.30518 0.241568,0.53996 m -1.584318,-1.89412 c -2.582698,-0.48828 0.327242,1.59125 2e-6,0 z m -0.354458,1.89251 c -3.290058,-1.11653 1.739916,-3.51391 0.5267,-1.11526 -1.865781,-0.45865 -0.928316,1.23932 0.238611,0.78908 0.181275,0.36904 -0.676114,0.23792 -0.765332,0.32613 m -3.58804,-0.3572 c 2.337309,-1.40439 -2.00284,-2.37167 -0.251723,-0.0526 l 0.251754,0.0526 m -0.536039,1.32998 c 0.292124,-0.0676 2.290276,-1.76199 0.483234,-1.03692 -2.200303,-0.52933 -0.0658,-2.97352 0.721496,-2.26067 0.745306,0.25685 0.206207,2.038 0.207735,2.82406 -0.26261,0.52786 -0.915814,0.47579 -1.412468,0.47353 z m -2.791064,-1.04708 c 0.06196,-0.54141 -0.19832,-2.88023 0.34019,-1.93998 1.96586,-2.17094 1.669524,3.46162 1.188268,1.34367 -0.319396,-3.24577 -1.014282,-0.52062 -1.528526,0.59644 m -0.640908,-2.26838 c -0.0093,0.5465 0.125337,2.95832 -0.354639,1.93767 0.178914,-0.52255 -0.378809,-2.01231 0.354639,-1.93767 z m 0.0033,-0.82403 c 0.151411,1.14175 -0.974346,-0.14451 0,0 z m -1.46037,3.13049 c -2.317275,-0.0124 -0.19549,-3.65485 0.519768,-1.93312 -2.570848,-0.35992 -0.08875,2.17556 -0.187724,1.89362 l -0.332151,0.0395 m -2.248703,-0.009 c -2.318549,-0.45596 2.049151,-0.22945 -0.199953,-1.13259 -2.17157,-1.54128 2.864586,-1.06645 -0.09158,-0.86161 -0.430983,0.73484 2.748391,1.33546 0.291569,1.99408 m -1.317568,-2.31734 c -0.0093,0.5465 0.125337,2.95833 -0.354638,1.93767 0.178913,-0.52255 -0.378811,-2.0123 0.354638,-1.93767 z m 0.0033,-0.82403 c 0.151411,1.14175 -0.974344,-0.14451 -1e-6,0 z m -2.900682,4.06097 c 0.0043,-1.08289 0.0086,-2.16576 0.01287,-3.24864 0.89258,-0.36004 3.170196,0.82878 1.312754,2.28058 -1.733679,-0.87197 -0.360972,0.69983 -1.325576,0.96795 m 1.008566,-1.22278 c 2.588851,-2.18909 -2.580361,-2.28334 -3e-6,10e-6 m -1.645695,-2.02806 c -0.0093,0.5465 0.125337,2.95833 -0.354639,1.93767 0.178914,-0.52255 -0.378811,-2.0123 0.354639,-1.93767 z m 0.0033,-0.82403 c 0.151411,1.14175 -0.974346,-0.1445 0,0 z m -2.037239,2.83072 c 2.118973,-0.76637 -1.145951,-3.04552 -0.56627,-0.42769 l 0.209422,0.31063 0.356831,0.11707 z m 0.679755,-0.0758 c -2.335499,1.62125 -1.768621,-3.26868 0.006,-1.78644 -0.18816,-1.56274 0.629731,-0.95794 0.338713,0.25607 -0.05178,0.37 0.181675,2.69738 -0.344779,1.53037 m -3.180915,0.0856 c 2.250008,-0.938 -1.402649,-1.12044 -4e-5,2e-5 m 0.74877,0.23429 c -0.301438,0.3031 -2.565775,-0.41416 -0.916144,-1.25055 2.570419,-0.28958 -1.881257,-0.88762 0.396595,-1.06459 0.963224,-0.33797 1.065206,2.29864 0.51954,2.31521 m 34.370785,-7.43798 c -0.09898,0.15916 -0.878032,1.56196 -0.831121,2.28299 -0.39953,-0.84926 -0.304468,-2.64929 0.444385,-2.16674 l 0.386674,-0.1162 m -2.000891,0.4319 c -2.5827,-0.48827 0.327248,1.59126 3e-6,10e-6 z m -0.354457,1.89252 c -3.290056,-1.11653 1.739918,-3.51391 0.526703,-1.11526 -1.86578,-0.45865 -0.928319,1.23931 0.238609,0.78907 0.181275,0.36904 -0.676114,0.23792 -0.765331,0.32613 m -3.30565,-0.81711 c -0.280493,-1.08319 0.475658,-2.28291 0.349056,-0.52886 -0.13113,1.92757 1.772436,0.57327 1.145141,-0.76708 0.515318,-0.75986 0.657331,2.12373 -0.295336,2.08137 -0.529593,0.12811 -1.251647,-0.13112 -1.198893,-0.78543 m -0.672822,0.79534 c -0.941306,-0.19293 -0.592603,-2.21962 -0.774219,-2.29576 0.08774,-1.1173 1.394431,0.37752 0.804888,0.245 -1.304209,0.29408 0.903794,2.36442 -0.03068,2.0507 m -1.698456,-1.89452 c -2.582698,-0.48828 0.327242,1.59125 2e-6,0 z m -0.35446,1.89251 c -3.290054,-1.11654 1.739921,-3.5139 0.526701,-1.11524 -1.86578,-0.45865 -0.92832,1.23931 0.238609,0.78907 0.181274,0.36904 -0.676114,0.23792 -0.765332,0.32613 m -1.6804,-0.0127 c -0.941307,-0.19292 -0.592607,-2.21961 -0.774219,-2.29575 0.08774,-1.1173 1.394431,0.37752 0.80489,0.24499 -1.304212,0.29408 0.90379,2.36443 -0.03068,2.0507 m -1.763771,-0.001 c -2.317276,-0.0124 -0.195493,-3.65485 0.519768,-1.93312 -2.570847,-0.35991 -0.08875,2.17556 -0.187723,1.89362 l -0.332151,0.0395 m -1.933848,-1.90114 c -2.582697,-0.48827 0.327247,1.59126 3e-6,10e-6 z m -0.354457,1.89252 c -3.290055,-1.11653 1.739918,-3.51391 0.526702,-1.11526 -1.865779,-0.45865 -0.928318,1.23932 0.23861,0.78908 0.181275,0.36903 -0.676114,0.23792 -0.765331,0.32612 m -2.248607,-0.009 c -2.318549,-0.45595 2.049151,-0.22943 -0.199954,-1.13258 -2.171563,-1.54128 2.864603,-1.06644 -0.09158,-0.86161 -0.430974,0.73484 2.748376,1.33546 0.291554,1.99408 m -3.121301,-0.0588 c 0.06195,-0.5414 -0.198319,-2.88022 0.340191,-1.93997 1.965858,-2.17094 1.669526,3.46162 1.188266,1.34367 -0.319394,-3.24578 -1.01428,-0.52063 -1.528524,0.59643 m -2.221658,-1.13685 c 1.748852,3.49997 1.709708,-3.42793 -2.3e-5,0 m 1.741081,7e-4 c -0.697972,3.37181 -3.84184,-1.60727 -0.601291,-1.09958 0.420293,0.18268 0.617762,0.66714 0.601293,1.09956 z m -3.038568,1.1686 c -2.317278,-0.0124 -0.19549,-3.65486 0.519764,-1.93311 -2.570848,-0.35991 -0.08874,2.17556 -0.187721,1.89362 l -0.332153,0.0395 m -3.12914,0.51491 c -0.190626,-1.78627 1.298318,-1.07999 -1.5e-5,-10e-6 m -0.674614,-0.5356 c -0.941307,-0.19293 -0.592607,-2.21962 -0.774219,-2.29576 0.08774,-1.1173 1.394431,0.37752 0.804889,0.245 -1.304207,0.29408 0.903791,2.36442 -0.03068,2.0507 m -1.698465,-1.89452 c -2.582695,-0.48829 0.327238,1.59125 2e-6,0 z m -0.354591,1.89257 c -3.290058,-1.11653 1.739915,-3.51392 0.526701,-1.11526 -1.865781,-0.45865 -0.928316,1.23931 0.238611,0.78907 0.181276,0.36905 -0.676132,0.23792 -0.765345,0.32613 m -1.740853,-0.0538 c 0.545581,-1.43007 -1.015901,-3.02052 -1.07102,-0.74954 -0.206007,1.82447 -0.401027,-0.43462 -0.468432,-1.12976 -1.450249,-0.98409 -0.866105,3.78289 -1.331426,0.92937 -0.528665,-2.16252 1.777219,-0.89587 3.04652,-1.1456 0.107473,0.38024 0.512648,2.23671 -0.175587,2.09559 m -4.492414,-0.24908 c 2.250008,-0.938 -1.402653,-1.12044 -3.9e-5,3e-5 m 0.748769,0.23428 c -0.301442,0.3031 -2.565772,-0.41415 -0.916143,-1.25054 2.570422,-0.28958 -1.881257,-0.88763 0.396609,-1.06459 0.963215,-0.33795 1.065204,2.29864 0.519535,2.31522 m 39.182025,-5.09118 c -0.941306,-0.19293 -0.592608,-2.21962 -0.774219,-2.29576 0.08774,-1.1173 1.394431,0.37752 0.804888,0.245 -1.304206,0.29408 0.90379,2.36442 -0.03068,2.0507 m -1.364074,-2.31194 c -0.0093,0.5465 0.125337,2.95833 -0.354638,1.93767 0.178927,-0.52255 -0.37881,-2.01231 0.354638,-1.93767 z m 0.0033,-0.82403 c 0.151411,1.14175 -0.974342,-0.14452 0,0 z m -1.711326,3.1295 c -2.31855,-0.45595 2.049151,-0.22944 -0.199954,-1.13259 -2.171571,-1.54128 2.864587,-1.06645 -0.09158,-0.86161 -0.430976,0.73484 2.748374,1.33546 0.291554,1.99408 m -2.252216,-2.34219 c -0.09901,0.15916 -0.878064,1.56196 -0.831154,2.28299 -0.399531,-0.84925 -0.304467,-2.64929 0.444399,-2.16674 l 0.386673,-0.11619 m -3.24584,1.14601 c 1.748851,3.49998 1.709711,-3.42792 -2.2e-5,10e-6 m 1.74108,6.9e-4 c -0.697977,3.37182 -3.841837,-1.60727 -0.601291,-1.09957 0.420295,0.18269 0.617763,0.66714 0.601295,1.09956 z m -2.562007,1.16486 c -1.126447,-0.45469 -0.384897,-2.17156 -0.592495,-3.18909 0.803974,0.1635 0.08798,1.88444 0.35097,2.64912 0.08815,0.40698 1.172117,0.30518 0.241555,0.53996 m -2.83066,-1.18001 c 1.748876,3.49999 1.70972,-3.42793 -9e-6,0 z m 1.741071,7e-4 c -0.697976,3.37181 -3.84184,-1.60727 -0.601291,-1.09958 0.420293,0.18269 0.617763,0.66714 0.601294,1.09956 z m -3.615452,0.86883 c 2.118978,-0.76637 -1.145952,-3.04553 -0.56627,-0.4277 l 0.209421,0.31063 0.356831,0.11708 m 0.679773,-0.0758 c -2.335502,1.62125 -1.768603,-3.2687 0.006,-1.78647 -0.18816,-1.56273 0.629731,-0.95793 0.338713,0.25607 -0.05178,0.37001 0.181676,2.69738 -0.344779,1.53037 m -3.404603,0.31596 c 0.545582,-1.43007 -1.015901,-3.02052 -1.07102,-0.74954 -0.206007,1.82447 -0.401026,-0.43462 -0.468431,-1.12976 -1.45025,-0.9841 -0.866098,3.78287 -1.331432,0.92939 -0.528665,-2.1625 1.777223,-0.89585 3.046516,-1.14559 0.107469,0.38025 0.512652,2.23671 -0.175586,2.09559 m -5.224868,-0.7779 c -0.28049,-1.0832 0.475658,-2.28293 0.349056,-0.52887 -0.131116,1.92757 1.772434,0.57327 1.145139,-0.76708 0.515316,-0.75986 0.65733,2.12372 -0.295321,2.08137 -0.529596,0.12811 -1.251641,-0.13112 -1.19888,-0.78543 z m -1.215642,0.79882 c -2.31855,-0.45595 2.049153,-0.22944 -0.199954,-1.13259 -2.171562,-1.54128 2.864603,-1.06644 -0.09158,-0.8616 -0.430975,0.73483 2.748374,1.33545 0.291556,1.99407 m -3.157623,0.92378 c 0.0043,-1.08288 0.0086,-2.16576 0.01287,-3.24864 0.892581,-0.36003 3.170195,0.82878 1.312754,2.28059 -1.733679,-0.87198 -0.360972,0.69983 -1.325577,0.96795 m 1.008565,-1.22279 c 2.588855,-2.18908 -2.580359,-2.28334 0,2e-5 m -1.645696,-2.02806 c -0.0093,0.5465 0.125337,2.95833 -0.354639,1.93767 0.178913,-0.52255 -0.37881,-2.01231 0.354639,-1.93767 z m 0.0033,-0.82403 c 0.151411,1.14175 -0.974346,-0.14451 0,0 z m -2.25962,3.0808 c 0.545582,-1.43008 -1.015901,-3.02052 -1.07102,-0.74955 -0.206006,1.82447 -0.401025,-0.43461 -0.46843,-1.12976 -1.45025,-0.98409 -0.866098,3.78287 -1.331432,0.9294 -0.528665,-2.16251 1.777223,-0.89585 3.046516,-1.14559 0.107468,0.38025 0.512653,2.23671 -0.175586,2.09559 m -3.852974,-1.86233 c -2.58271,-0.48827 0.327262,1.59126 0,0 z m -0.35446,1.89252 c -3.290054,-1.11655 1.739919,-3.51391 0.526699,-1.11525 -1.865781,-0.45865 -0.928319,1.23931 0.238609,0.78908 0.181275,0.36903 -0.676113,0.23791 -0.765331,0.32612 M 24.336858,980.936 c -0.09897,0.15917 -0.878031,1.56197 -0.831122,2.283 -0.399529,-0.84926 -0.304466,-2.6493 0.444399,-2.16674 l 0.386673,-0.1162 m -3.247251,1.14601 c 1.748854,3.49998 1.709707,-3.42793 -2.3e-5,10e-6 m 1.741081,6.9e-4 c -0.697978,3.37182 -3.841838,-1.60727 -0.60129,-1.09957 0.420292,0.18268 0.617762,0.66714 0.601293,1.09956 z m -4.039396,1.11812 c 0.004,-1.01817 0.0081,-2.03634 0.0121,-3.0545 0.81689,0.17607 0.128802,1.84524 0.349001,2.61329 1.020386,0.037 1.974878,0.51055 0.187621,0.44336 -0.182911,-7.2e-4 -0.365825,-0.001 -0.548734,-0.002 z"
       id="path559"
       inkscape:connector-curvature="0" />
    <path
       d="m 12.977493,969.18148 c 1.333467,-0.16034 2.689436,0.77906 3.212894,2.32095 l 1.082364,3.18278 c 0.0526,0.15501 0.08142,0.31277 0.113926,0.4684 l 0.04096,-0.0151 c 0,0 0.462859,1.3697 0.462859,1.3697 l 0.01908,-0.007 -0.0026,0.003 c 0,0 16.208328,47.74679 16.208328,47.74679 -0.0159,-0.047 -0.04129,-0.082 -0.05866,-0.1278 0,0 0.03744,0.1158 0.03744,0.1158 l 0.463878,9.0403 0.229111,4.5202 c 0,0 0.05468,0.7453 -0.34655,0.8936 -0.401225,0.1484 -0.811208,-0.4662 -0.811208,-0.4662 l -2.547164,-3.6621 -5.094547,-7.3274 -1.242156,-3.6554 c 0,0 0.01381,0 0.01381,0 l -14.9985093,-44.07986 0.019076,-0.007 c 0,0 -0.461155,-1.35345 -0.461155,-1.35345 l 0.038166,-0.0149 c -0.068466,-0.14209 -0.1404866,-0.28353 -0.1930079,-0.43828 l -1.079584,-3.18287 c -0.5981913,-1.76206 0.1242984,-3.62783 1.6208321,-4.18121 l 2.7056911,-1.00183 c 0.187057,-0.0692 0.376588,-0.11337 0.567091,-0.13625"
       id="path619"
       inkscape:connector-curvature="0"
       style="display:inline;fill:#550000;fill-opacity:0.03561701;stroke-width:1.5548811" />
    <path
       d="m 13.113064,968.99587 c 1.333467,-0.16034 2.689436,0.77906 3.212893,2.32096 l 1.082364,3.18278 c 0.0526,0.15501 0.08142,0.31277 0.113926,0.46839 l 0.04096,-0.0151 c 0,0 0.462859,1.3697 0.462859,1.3697 l 0.01908,-0.007 -0.0025,0.003 16.208359,47.7468 c -0.0159,-0.047 -0.04129,-0.082 -0.05866,-0.1278 0,0 0.03744,0.1159 0.03744,0.1159 l 0.463876,9.0402 0.229111,4.5203 c 0,0 0.05469,0.7452 -0.34655,0.8935 -0.40122,0.1484 -0.811206,-0.4662 -0.811206,-0.4662 l -2.547165,-3.6621 -5.094547,-7.3274 -1.242155,-3.6554 c 0,0 0.01382,0 0.01382,0 L 9.89646,979.31656 l 0.019067,-0.007 -0.4611559,-1.35345 0.038166,-0.0149 c -0.068475,-0.14209 -0.1404992,-0.28353 -0.1930216,-0.43828 l -1.0795831,-3.18288 c -0.5981911,-1.76205 0.1242968,-3.62781 1.6208323,-4.1812 l 2.7056953,-1.00181 c 0.187055,-0.0692 0.376587,-0.11338 0.567092,-0.13626"
       id="path621"
       inkscape:connector-curvature="0"
       style="display:inline;fill:#550000;fill-opacity:0.03624399;stroke-width:1.5548811" />
    <path
       sodipodi:nodetypes="ccccccccccccc"
       d="m 32.570286,1032.8161 2.796501,3.9373 c 0,0 -2.125842,2.5211 -2.527077,2.6694 -0.401221,0.1484 -1.198072,-1.659 -1.198072,-1.659 l -2.547164,-3.6622 C 18.645533,1017.3563 14.185568,998.71829 7.8984906,980.24088 l 0.019077,-0.007 -0.461156,-1.35345 0.038166,-0.0149 c -0.068475,-0.14208 -0.1930217,-0.43828 -0.1930217,-0.43828 L 6.221973,975.24438 c -0.5981898,-1.76207 1.0656131,-5.94777 2.5621496,-6.50116 l 1.1107778,1.35085"
       id="path623"
       inkscape:connector-curvature="0"
       style="display:inline;fill:#2d2828;fill-opacity:0.24603176;stroke-width:1.5548811" />
    <path
       d="m 33.99211,1023.9303 -0.879748,-2.5913 -8.469064,1.9342 1.240908,3.6551 5.094688,7.3266 3.474819,-1.2849 z"
       id="path637"
       style="display:inline;fill:url(#q);stroke-width:1.55490839"
       inkscape:connector-curvature="0" />
    <path
       sodipodi:nodetypes="ccccccc"
       d="m 12.384821,976.2997 16.206196,50.6389 c -0.383537,-1.1983 -1.212851,-1.9928 -1.851896,-1.7417 -0.639043,0.2512 -1.23897,0.6075 -0.855404,1.8061 l -15.838159,-49.77201 2.340531,-0.93111 z"
       id="path639"
       inkscape:connector-curvature="0"
       style="color:#000000;display:inline;fill:url(#linearGradient4381);fill-opacity:1;stroke-width:1.60125375" />
    <path
       sodipodi:nodetypes="ccccccc"
       d="m 18.606151,975.4669 15.402545,48.5051 c -0.370527,-1.169 -0.91779,-1.0469 -1.535159,-0.8019 -0.617366,0.245 -0.537632,1.8842 -0.43416,2.319 L 16.34582,976.374 l 2.261139,-0.90836 z"
       id="path641"
       style="color:#000000;display:inline;fill:url(#linearGradient4389);fill-opacity:1;stroke-width:1.55452633"
       inkscape:connector-curvature="0" />
    <path
       sodipodi:nodetypes="ccccccc"
       d="m 15.851929,974.98839 16.176288,50.51461 c -0.243837,-0.7732 -1.423479,-1.7976 -2.3826,-1.4208 -0.959126,0.3768 -1.432247,1.6693 -1.048355,2.8665 l -16.206197,-50.63887 3.461014,-1.32024 z"
       id="path643"
       style="color:#000000;display:inline;fill:url(#n);stroke-width:1.60125375"
       inkscape:connector-curvature="0" />
    <path
       d="m 34.45371,1032.97 0.230797,4.5199 c 0,0 0.05359,0.7477 -0.347625,0.896 -0.401223,0.1484 -0.810647,-0.4678 -0.810647,-0.4678 l -2.547343,-3.6632 c -0.02188,-0.329 0.158915,-0.3069 0.41547,-0.1537 l 0.23048,-0.5092 0.818916,0.1212 0.698828,-1.1234 0.734416,0.5934 c 0.154063,-0.2447 0.22698,-0.859 0.576705,-0.2132 z"
       id="path645"
       style="display:inline;fill:url(#l);stroke-width:1.55490839"
       inkscape:connector-curvature="0" />
    <rect
       transform="matrix(-0.93793312,0.34681618,0.32147495,0.94691808,0,0)"
       x="296.04858"
       y="911.64362"
       width="8.6444387"
       height="10.082177"
       rx="2.8799565"
       ry="3.3589492"
       id="rect647"
       style="color:#000000;display:inline;fill:url(#linearGradient4117);fill-opacity:1;stroke-width:1.55518949" />
    <rect
       transform="matrix(-0.93793312,0.34681618,0.32147495,0.94691808,0,0)"
       x="296.04858"
       y="918.84521"
       width="8.6444387"
       height="4.3209329"
       id="rect649"
       style="color:#000000;display:inline;fill:url(#m);fill-opacity:1;stroke-width:1.55518949" />
    <path
       inkscape:connector-curvature="0"
       id="path4500"
       d="m 27.225911,1022.6369 1.304687,4.0801 c 0.0023,0 0.0056,0.01 0.0078,0.014 l -1.310547,-4.0938 z m 5.722656,0.166 c -0.133695,0.013 -0.276222,0.054 -0.425781,0.1133 -0.576351,0.2288 -0.852521,1.2737 -0.585938,2.3633 -0.459708,-1.0005 -1.422143,-1.5718 -2.291015,-1.2305 -0.864639,0.3397 -1.327883,1.4226 -1.13086,2.5098 l 0.201172,0.6269 c -0.383892,-1.1972 0.0897,-2.4884 1.048828,-2.8652 0.868872,-0.3413 1.831307,0.23 2.291016,1.2305 -0.266583,-1.0896 0.0096,-2.1346 0.585937,-2.3633 0.549593,-0.2181 0.984612,-0.1605 1.335938,0.6699 l -0.02344,-0.07 c -0.274214,-0.7989 -0.604775,-1.0224 -1.00586,-0.9844 z m -5.962891,2.3125 c -0.08462,0 -0.168166,0.016 -0.248046,0.047 -0.60428,0.2375 -1.162604,0.5342 -0.898438,1.5781 l 0.04492,0.1543 0.07227,0.1035 c -0.255141,-1.0318 0.298985,-1.328 0.900391,-1.5644 0.536411,-0.2108 1.204087,0.3199 1.632813,1.2031 -0.358187,-0.902 -0.964247,-1.5212 -1.503907,-1.5215 z m 1.53711,1.4727 c 0.01532,0.08 0.03208,0.159 0.05469,0.2383 0.04755,0.1127 0.09383,0.2278 0.132813,0.3496 z"
       style="display:inline;opacity:1;fill:#835d1f;fill-opacity:0.82539685;stroke-width:1.55490839" />
    <path
       style="display:inline;opacity:0.87999998;fill:url(#linearGradient3728);fill-opacity:1;fill-rule:nonzero;stroke:none;stroke-width:1.01702034"
       mask="none"
       clip-path="none"
       d="M 1.9639292,973.26046 0.349124,1044.5937 c -0.0320416,3.7144 3.0518548,6.7185 6.8230485,6.7185 H 88.829655 c 3.771193,0 6.859697,-3.0042 6.82111,-6.7185 l -1.484086,-70.5703 c 0,0.56011 0.07318,2.8832 -0.005,5.89449 v 58.83451 c 0,3.7146 -2.940885,6.7047 -6.594256,6.7047 H 8.4324684 c -3.6533716,0 -6.5942562,-2.9901 -6.5942562,-6.7047 v -59.73939 c -0.075192,-2.94766 0.125717,-5.20278 0.125717,-5.75255 z"
       id="path3613"
       inkscape:connector-curvature="0"
       sodipodi:nodetypes="ccsscccsssscc" />
    <path
       d="m 57.998719,976.18727 c 5.092671,0.43617 10.01188,2.81 13.565379,7.02844 7.105617,8.43676 6.027751,21.02189 -2.408958,28.12699 -8.436757,7.1056 -21.064694,6.0241 -28.169759,-2.4126 -7.105617,-8.4368 -6.027751,-21.02195 2.408958,-28.12701 4.218379,-3.55281 9.512663,-5.05177 14.60576,-4.6157 z"
       id="path657"
       style="color:#000000;fill:url(#d);stroke-width:1.38551819"
       inkscape:connector-curvature="0" />
    <path
       inkscape:connector-curvature="0"
       id="path659"
       d="m 70.261537,981.2003 c 0.300684,1.30848 0.01622,4.55754 -1.88001,2.75421 -0.643351,-0.67626 0.477873,-3.72303 -0.793775,-2.77052 -0.246319,1.7074 0.112226,4.76796 2.539946,3.63552 1.033636,-0.62539 1.190616,-3.04319 0.133839,-3.61921 z m -4.026024,-0.3718 c -1.135932,-0.22999 -2.18423,0.8438 -3.169266,-0.0786 -0.676591,0.48988 -1.599279,0.16984 -1.77883,0.40225 -0.198294,1.05457 -0.577026,3.44021 0.449217,3.62857 -0.119192,-1.21699 -0.182979,-4.12744 1.783353,-3.21758 0.816168,0.78363 -0.4689,3.70036 0.864243,3.19037 -0.241816,-1.1554 -0.02575,-4.24742 1.733732,-3.10563 0.703823,0.77581 -0.46009,3.57852 0.798066,3.09609 -0.152546,-1.25808 0.603897,-3.10645 -0.680515,-3.91551 z m 7.134904,3.63525 c -0.747255,-0.32407 -2.458474,0.0134 -0.919803,0.47168 0.370762,0.0414 1.764383,0.33493 0.919803,-0.47168 z M 59.293639,980.789 c -0.840395,-0.77359 -2.956183,1.07078 -0.999447,0.4257 1.55117,-0.29939 1.367885,2.21441 -0.202302,1.36539 -2.486473,0.37069 -0.200924,3.77161 1.296072,2.00776 1.328292,0.92412 0.456715,-2.06809 0.642611,-2.75472 -0.06921,-0.47686 -0.235646,-0.927 -0.73693,-1.04413 z m -7.176251,-1.49342 c -1.700393,-0.17633 0.29796,1.99016 0,0 z m 4.476331,1.52533 c -1.738517,-0.2306 -1.179237,3.8188 -2.057182,2.99363 -0.459174,-0.7872 -0.819871,-3.62127 -1.694858,-2.72443 0.504166,1.25677 0.993818,2.52179 1.489089,3.78332 1.553264,-0.10801 1.420189,-2.95696 2.262951,-4.05252 z m -5.70663,-1.45456 c -1.671049,0.36668 -1.358622,2.93238 -2.176427,4.25408 -0.642388,0.69379 -0.741939,-2.01621 -1.231009,-2.59184 0.02441,-0.84567 -1.269195,-2.58141 -0.996774,-0.88033 0.598336,1.56159 1.132215,3.14943 1.703772,4.72206 1.576485,-0.26473 1.37088,-2.9326 2.206023,-4.16158 0.164793,-0.44747 0.329585,-0.89494 0.494378,-1.34241 z m 1.233153,1.41021 c -1.197731,-0.0396 -0.440117,1.75141 -0.646896,2.58396 -0.07036,0.60067 -0.100581,2.31156 0.638819,1.12302 -0.02491,-1.23425 0.0077,-2.47111 0.0081,-3.70698 z m 7.321848,2.11593 c 0.80525,1.60495 -2.872774,2.0807 -1.601961,0.28417 0.501261,-0.24077 1.067833,-0.19454 1.601961,-0.28417 z m 13.223475,6.00057 c -1.669557,-0.19865 0.300108,1.7521 0,0 z m 1.964394,0.53158 c -0.632021,0.0547 -0.681161,1.26736 -1.160495,1.17001 1.486945,0.8177 -0.612175,4.42019 2.102194,3.83534 0.483718,-0.75586 -1.552023,-0.38285 -0.979736,-1.67638 0.06126,-0.9914 -0.375927,-2.27472 1.091746,-2.00113 0.187564,-0.82513 -1.760844,0.0707 -1.053709,-1.32784 z M 72.66857,990.374 c -1.184772,-0.10245 -0.427512,1.72817 -0.635585,2.54216 -0.06521,0.58541 -0.107989,2.30525 0.628982,1.16218 -0.02859,-1.2332 0.0073,-2.46934 0.0066,-3.70434 z m -1.291201,-0.0354 c -1.767785,-0.21795 -1.164569,3.84431 -2.046514,3.04911 -0.502001,-0.77976 -0.761066,-3.67199 -1.667554,-2.7671 0.487888,1.26653 0.961049,2.5412 1.439933,3.8124 1.612605,-0.0417 1.429457,-2.99426 2.274135,-4.09441 z m 5.400222,2.08932 c -1.577813,0.43211 0.812579,3.0819 0.108155,0.92636 0.130211,-0.31859 -0.129669,-0.60866 -0.108155,-0.92636 z m -33.308328,-8.52017 c -2.026021,1.23948 1.951498,1.18387 0,0 z m 18.043781,4.92769 c -1.686707,-0.18095 0.183359,1.9698 0,0 z m 3.101607,1.46729 c -2.048528,-1.05515 -2.889627,2.60525 -0.45195,2.36826 1.685636,1.16649 -1.554451,1.49507 -1.555574,1.27932 1.297963,2.02751 4.459608,-1.31844 1.46229,-1.87037 -1.647346,-0.53709 -0.4549,-1.75216 0.741621,-1.18715 0.706192,-0.0427 0.19479,-0.57312 -0.196387,-0.59006 z M 42.316062,984.3582 c -2.843725,-0.62203 -0.06237,1.69286 0,0 z m 19.158776,5.94708 c -1.198447,-0.0386 -0.42215,1.75196 -0.620509,2.58399 -0.06291,0.60155 -0.07814,2.32122 0.650463,1.13429 -0.03759,-1.23772 -0.0177,-2.47867 -0.02996,-3.71828 z m -2.783509,0.009 c -0.816179,0.0344 -1.932156,0.16749 -2.376838,0.28004 0.0029,1.8524 -0.01232,3.7172 -0.01535,5.57663 1.440878,0.0788 -0.381115,-3.10721 1.63127,-1.83181 1.836182,0.69211 2.453239,-2.26668 1.574681,-3.41955 -0.195623,-0.28343 -0.48478,-0.50139 -0.813763,-0.60531 z m -0.355999,0.48677 c 2.511686,0.72828 -0.459634,5.09257 -1.380634,2.10504 -0.256251,-0.91787 0.131176,-2.44034 1.380634,-2.10504 z m -2.689651,-0.50357 c -0.78909,-0.15586 -1.613789,0.94974 -1.840897,0.1273 -0.533611,0.99861 -0.615599,3.66735 0.258481,3.89141 0.204198,-1.29417 -0.315111,-3.38539 1.568822,-3.65623 l 0.01359,-0.36248 z m -3.056893,0.025 c -1.623213,0.11359 0.562517,4.54684 -2.244856,3.52291 -1.170268,-0.81866 0.398613,-3.26486 -0.980303,-3.56143 -0.09001,1.45035 -0.620233,4.1752 1.57338,4.2003 2.338223,0.0684 1.489427,-2.72135 1.651779,-4.16178 z m -4.980333,-0.98889 c -0.643381,0.0281 -0.70816,1.23631 -1.172062,1.20531 1.437336,0.8543 -0.602586,4.40272 2.064886,3.82912 0.533589,-0.72764 -1.523801,-0.38597 -0.942171,-1.66366 0.07787,-0.97174 -0.396927,-2.25724 1.05541,-2.01139 0.168958,-1.04519 -1.690928,0.41589 -1.006063,-1.35938 z m -4.579685,0.0166 c -0.632254,0.0114 -0.682048,1.25175 -1.160496,1.17001 1.487042,0.80854 -0.610339,4.42253 2.090884,3.82034 0.519267,-0.73533 -1.508281,-0.37162 -0.925521,-1.66137 0.07118,-0.97056 -0.391329,-2.24479 1.0543,-2.00008 0.170442,-0.82869 -1.76043,0.071 -1.059167,-1.3289 z m -2.633475,0.94691 c -0.827129,-0.80044 -3.005143,0.99282 -1.025427,0.37129 1.560952,-0.31051 1.360598,2.21015 -0.20809,1.37557 -2.448465,0.37997 -0.222193,3.7398 1.334485,2.03904 1.323131,0.72497 0.390941,-2.11248 0.60396,-2.82167 -0.0752,-0.4418 -0.213656,-0.89419 -0.704928,-0.96423 z m 0.159779,2.06163 c 0.85039,1.82444 -3.229431,1.86194 -1.451424,0.18924 0.471431,-0.14179 0.967466,-0.12913 1.451424,-0.18924 z m 24.199171,6.54854 c -0.647105,0.0844 -0.660273,1.2438 -1.207937,1.201 1.594527,0.6505 -0.613031,4.4203 2.149619,3.8044 0.48371,-0.7558 -1.552022,-0.3828 -0.979738,-1.6764 0.06126,-0.9914 -0.375925,-2.27468 1.091747,-2.0011 0.187546,-0.82511 -1.760896,0.071 -1.053691,-1.3279 z m -2.926101,0.86772 c -2.661981,-0.49533 -2.979754,4.24348 -0.323199,4.32678 1.011173,0.2253 2.046287,-1.4283 0.487082,-0.5906 -2.353474,0.081 -1.619157,-2.5022 0.53141,-1.4886 1.3028,-0.014 0.146036,-2.3035 -0.695297,-2.24758 z m 0.03146,0.54678 c 2.231684,1.3711 -2.917646,1.9623 -1.100179,0.2133 0.275774,-0.2639 0.752758,-0.4607 1.100179,-0.2133 z m -2.962901,-0.48781 c -1.475402,0.19041 0.369875,5.04311 -2.468907,3.31551 -0.742281,-0.7774 0.615913,-3.45381 -0.808681,-3.19772 -0.555847,1.92892 0.363392,5.37952 2.869814,3.62272 0.890099,-0.981 0.228405,-2.539 0.407774,-3.74051 z m -8.835805,-1.49397 c -1.643603,-0.11907 0.408537,1.74038 0,0 z m 16.9578,4.63378 c -1.965578,1.2948 1.967968,1.1566 0,0 z m -12.332731,-3.15791 c -0.748464,0.16157 -0.748149,0.87751 -1.548605,-0.0572 -2.226831,-0.47022 -2.893299,3.47094 -0.945932,4.13574 0.970351,0.1572 2.331945,-0.8828 1.838783,0.7851 -0.266021,1.5213 1.165821,0.8684 0.625289,-0.3099 0.05929,-1.515 0.01223,-3.0364 0.03046,-4.55371 z m -6.827209,-1.62324 c -1.285861,0.45593 -0.291316,2.95525 -0.623992,4.21985 -0.404116,1.0536 1.253381,2.3062 1.604504,1.0595 -1.741951,-0.163 -0.667015,-2.7035 -0.975551,-3.98741 -0.0017,-0.43065 -0.0033,-0.86129 -0.005,-1.29194 z m 5.556088,2.17635 c 2.201681,1.1534 -0.942396,4.8116 -1.679584,1.952 -0.242876,-0.9843 0.455743,-2.55156 1.679584,-1.952 z m -3.350425,-0.54782 c -1.185342,-0.10143 -0.409488,1.72872 -0.6092,2.54222 -0.0579,0.5864 -0.08552,2.3147 0.640587,1.1734 -0.04122,-1.2366 -0.01802,-2.4769 -0.03139,-3.71562 z m -9.872793,-1.64001 c -1.499695,-0.25711 0.370605,2.96843 -1.613869,1.74295 -1.054291,-0.78904 -1.250215,0.81758 -0.05866,0.32428 1.745289,0.3552 0.73409,3.0097 0.338988,3.4067 0.753351,-0.4058 1.576547,0.7335 1.32661,-0.73 -0.02461,-1.5748 0.01717,-3.16322 0.0069,-4.74393 z m 5.209518,1.63402 c -0.819054,-0.80827 -3.007303,1.01021 -1.025432,0.37131 1.560954,-0.31054 1.36061,2.2101 -0.208085,1.3755 -2.456832,0.342 -0.202842,3.7957 1.297355,1.9989 1.321287,0.9258 0.462523,-2.0449 0.641534,-2.7271 -0.07773,-0.4409 -0.2314,-0.90254 -0.705372,-1.01861 z m 0.117984,2.05031 c 0.885315,1.6379 -2.900576,2.1127 -1.601961,0.2842 0.499065,-0.2525 1.070395,-0.1754 1.601961,-0.2842 z m 26.733193,7.4586 c -1.590561,-1.1166 -3.034497,3.5337 -1.296713,1.1513 0.384708,-0.4341 0.839228,-0.7979 1.296713,-1.1513 z m -3.466904,0.049 c -1.132765,-0.2408 -2.18848,0.86 -3.166888,-0.095 -0.691221,0.4289 -1.573595,0.2399 -1.798429,0.3885 -0.221668,1.043 -0.54576,3.498 0.473476,3.6237 -0.221631,-1.25 -0.0301,-4.3481 1.883515,-3.0332 0.24858,1.0155 0.07101,2.1038 0.125148,3.1541 1.530153,-0.1325 -0.410067,-3.4334 1.823585,-3.5654 1.230184,-0 0.355881,3.7088 1.344877,1.8127 -0.03223,-0.7785 0.188749,-1.8706 -0.685284,-2.2851 z m -9.125423,-0.092 c -2.661067,-0.479 -2.978229,4.2371 -0.323199,4.3268 1.006906,0.2263 2.048242,-1.4263 0.490796,-0.5921 -2.321664,0.067 -1.640024,-2.4801 0.50711,-1.4853 1.397767,0.089 0.189002,-2.2957 -0.674709,-2.2494 z m 0.03146,0.5468 c 2.231805,1.3709 -2.917339,1.9624 -1.100313,0.2133 0.27582,-0.2639 0.752785,-0.4606 1.100313,-0.2133 z m -2.921174,-0.4766 c -1.477519,0.1242 0.310386,5.0495 -2.510683,3.3042 -0.74228,-0.7774 0.615914,-3.4538 -0.808681,-3.1977 -0.555567,1.9312 0.361417,5.3725 2.869153,3.6151 0.777467,-0.8167 0.319367,-2.0464 0.44781,-3.0686 7.95e-4,-0.2177 0.0016,-0.4353 0.0024,-0.653 z m -4.253263,-0.03 c -0.731108,0.1523 -0.740853,0.8163 -1.52625,-0.066 -2.237916,-0.4623 -2.925663,3.4662 -0.968351,4.144 0.970346,0.1572 2.331942,-0.8828 1.83878,0.7851 -0.266015,1.5213 1.165813,0.8684 0.625285,-0.3099 0.05935,-1.515 0.01215,-3.0364 0.03054,-4.5537 z m -8.121855,-1.4802 c -1.669556,-0.1986 0.300108,1.7522 0,0 z m 6.850735,2.0333 c 2.201683,1.1534 -0.942398,4.8117 -1.679585,1.952 -0.242876,-0.9843 0.455748,-2.5515 1.679585,-1.952 z m -3.749261,-0.566 c -2.167644,-1.1112 -2.77183,2.6971 -0.314288,2.3669 1.016877,0.51 -0.143269,1.8009 -0.93175,1.2431 1.988804,1.8145 2.741498,-2.4818 0.245338,-2.0911 -2.063461,-1.3875 3.313349,-0.8439 1.0007,-1.5189 z m -3.098621,0.014 c -1.61458,-0.3424 0.100062,3.6917 0.03392,1.0385 -0.06952,-0.3432 -0.02293,-0.6923 -0.03392,-1.0385 z m -1.386099,-0.016 c -1.715249,-0.4428 0.220785,1.3523 0,0 z"
       style="fill:#000000;fill-opacity:0.49731008;stroke-width:1.38551819" />
    <path
       d="m 58.027342,975.84273 c 5.181018,0.44374 10.185628,2.85876 13.800067,7.15032 7.228876,8.5831 6.132294,21.38675 -2.450704,28.61435 -8.583107,7.2289 -21.429984,6.1286 -28.659181,-2.4545 -7.228876,-8.5831 -6.132294,-21.3868 2.450704,-28.61439 4.291553,-3.61444 9.677776,-5.13954 14.858954,-4.69579 z m -0.270638,3.15997 c -4.372309,-0.37447 -8.919881,0.91545 -12.54171,3.96583 -7.243484,6.10062 -8.171712,16.9386 -2.071163,24.18287 6.100617,7.2435 16.938599,8.1717 24.182883,2.0712 7.243484,-6.1006 8.171713,-16.93862 2.071164,-24.1829 -3.050235,-3.62166 -7.268385,-5.66249 -11.640694,-6.03696 z"
       id="path731"
       style="fill:#4d4e50;fill-opacity:1;stroke-width:1.60567713"
       inkscape:connector-curvature="0" />
    <path
       id="rect733"
       d="m 75.169922,1010.5106 c -0.07541,-0.01 -0.154065,0.016 -0.216797,0.068 l -7.490234,6.3105 c -0.125464,0.1057 -0.140825,0.2906 -0.03516,0.416 l 1.839844,2.1856 c 0.105668,0.1255 0.292505,0.1428 0.417969,0.037 l 0.699219,-0.5898 3.208984,3.8085 c 0.05152,-0.121 0.122594,-0.2353 0.230469,-0.3261 l 5.609375,-4.7227 c 0.02843,-0.024 0.06338,-0.031 0.09375,-0.051 l -3.158203,-3.75 0.80664,-0.6796 c 0.125464,-0.1057 0.140825,-0.2906 0.03516,-0.4161 l -1.839844,-2.1855 c -0.05283,-0.063 -0.125762,-0.099 -0.201172,-0.1055 z"
       style="fill:url(#linearGradient3884);fill-opacity:1;stroke-width:0.08230407"
       inkscape:connector-curvature="0" />
    <path
       d="m 57.963119,972.45297 a 22.917829,22.310883 4.8952003 0 1 15.922524,7.91757 22.917829,22.310883 4.8952003 0 1 5.257553,16.85753 22.917829,22.310883 4.8952003 0 0 -5.375745,-15.47753 22.917829,22.310883 4.8952003 0 0 -32.290772,-2.76557 22.917829,22.310883 4.8952003 0 0 -7.950107,14.5807 22.917829,22.310883 4.8952003 0 1 8.068339,-15.96118 22.917829,22.310883 4.8952003 0 1 16.368889,-5.15195 z"
       id="path743"
       inkscape:connector-curvature="0"
       style="fill:none;stroke:url(#i);stroke-width:2.77107763;stroke-linecap:round;stroke-linejoin:round" />
    <path
       style="color:#000000;font-style:normal;font-variant:normal;font-weight:normal;font-stretch:normal;font-size:medium;line-height:normal;font-family:sans-serif;font-variant-ligatures:normal;font-variant-position:normal;font-variant-caps:normal;font-variant-numeric:normal;font-variant-alternates:normal;font-feature-settings:normal;text-indent:0;text-align:start;text-decoration:none;text-decoration-line:none;text-decoration-style:solid;text-decoration-color:#000000;letter-spacing:normal;word-spacing:normal;text-transform:none;writing-mode:lr-tb;direction:ltr;text-orientation:mixed;dominant-baseline:auto;baseline-shift:baseline;text-anchor:start;white-space:normal;shape-padding:0;clip-rule:nonzero;display:inline;overflow:visible;visibility:visible;opacity:1;isolation:auto;mix-blend-mode:normal;color-interpolation:sRGB;color-interpolation-filters:linearRGB;solid-color:#000000;solid-opacity:1;vector-effect:none;fill:url(#linearGradient4419);fill-opacity:1;fill-rule:nonzero;stroke:#000000;stroke-width:0.60000002;stroke-linecap:round;stroke-linejoin:round;stroke-miterlimit:4;stroke-dasharray:none;stroke-dashoffset:0;stroke-opacity:0.48301888;color-rendering:auto;image-rendering:auto;shape-rendering:auto;text-rendering:auto;enable-background:accumulate"
       d="m 58.363281,971.70593 c -6.247756,-0.53509 -12.697753,1.30729 -17.859375,5.6543 -10.322804,8.69453 -11.649088,24.17677 -2.955078,34.49997 8.694533,10.3228 24.176756,11.6491 34.5,2.9551 a 2.1743846,2.1743846 0 0 0 0,-0 c 10.322804,-8.6945 11.649088,-24.17475 2.955078,-34.498 a 2.1743846,2.1743846 0 0 0 0,-0.002 c -4.347266,-5.1614 -10.392869,-8.07233 -16.640625,-8.60742 z m -0.367187,4.30469 c 5.129943,0.43936 10.091297,2.84274 13.68164,7.10547 7.180256,8.52581 6.095765,21.19231 -2.429687,28.37301 -8.525816,7.1803 -21.19236,6.0938 -28.373047,-2.4316 -7.180255,-8.5258 -6.095765,-21.19041 2.429688,-28.3711 4.262907,-3.59013 9.561462,-5.11514 14.691406,-4.67578 z"
       id="path745"
       inkscape:connector-curvature="0" />
    <circle
       transform="matrix(-0.64418769,-0.76486745,-0.76486745,0.64418769,0,0)"
       cx="-798.1377"
       cy="598.62506"
       r="22.310953"
       id="circle749"
       style="fill:none;stroke-width:0.11742608" />
    <circle
       transform="matrix(-0.64418773,-0.76486742,-0.76486742,0.64418773,0,0)"
       cx="-798.12097"
       cy="598.61395"
       r="19.615709"
       id="circle751"
       style="fill:none;stroke:url(#e);stroke-width:0.90480036;stroke-linecap:round;stroke-linejoin:round" />
    <circle
       style="fill:url(#c-3);fill-opacity:0.99634998;stroke-width:1.60567701"
       transform="matrix(-0.6441877,-0.76486745,-0.76486745,0.6441877,0,0)"
       cx="-798.34015"
       cy="598.59613"
       r="20.106289"
       id="circle747" />
    <ellipse
       transform="matrix(-0.6441877,-0.76486744,-0.76486744,0.6441877,0,0)"
       cx="-797.39191"
       cy="588.06549"
       rx="4.5964975"
       ry="2.8408089"
       id="ellipse753"
       style="fill:#ffffff;fill-opacity:0.58730164;stroke-width:0.06928802" />
    <path
       sodipodi:nodetypes="sccccssccsccc"
       inkscape:connector-curvature="0"
       id="rect735"
       d="m 80.130859,1015.4598 c -0.292731,-0.025 -0.594374,0.062 -0.83789,0.2676 l -7.5,6.3164 c -0.487033,0.4102 -0.548862,1.1341 -0.138672,1.6211 l 13.490234,16.0176 h 1.291016 c 1.88023,0 3.337891,-1.4937 3.337891,-3.3574 v -9.9375 l -8.861329,-10.5215 c -0.205094,-0.2435 -0.488519,-0.3812 -0.78125,-0.4063 z m 11.949219,13.6661 c 0.260588,4.7967 0.04086,11.5751 -4.998047,12.8574 6.725968,-1.2928 4.998047,-12.8574 4.998047,-12.8574 z"
       style="fill:url(#linearGradient4421);fill-opacity:1;stroke-width:0.08230407" />
    <path
       style="color:#000000;font-style:normal;font-variant:normal;font-weight:normal;font-stretch:normal;font-size:medium;line-height:normal;font-family:Sans;-inkscape-font-specification:Sans;text-indent:0;text-align:start;text-decoration:none;text-decoration-line:none;letter-spacing:normal;word-spacing:normal;text-transform:none;writing-mode:lr-tb;direction:ltr;baseline-shift:baseline;text-anchor:start;display:inline;overflow:visible;visibility:visible;fill:#1c1c1c;fill-opacity:0.75;stroke:none;stroke-width:2.38161159;marker:none;enable-background:accumulate"
       d="m 9.9841394,960.70165 c -3.1036352,0 -5.6443486,2.56327 -5.6443486,5.69883 v 69.92632 c 0,3.1355 2.5407134,5.6988 5.6443486,5.6988 H 86.455959 c 3.103635,0 5.644351,-2.5633 5.644351,-5.6988 v -69.92632 c 0,-3.13556 -2.540716,-5.69883 -5.644351,-5.69883 z m 0,2.34114 H 86.455959 c 1.880232,0 3.338055,1.49394 3.338055,3.35769 v 69.92632 c 0,1.8637 -1.457823,3.3576 -3.338055,3.3576 H 9.9841394 c -1.880232,0 -3.3380553,-1.4939 -3.3380553,-3.3576 v -69.92632 c 0,-1.86375 1.4578233,-3.35769 3.3380553,-3.35769 z"
       id="path4989"
       inkscape:connector-curvature="0" />
    <rect
       transform="matrix(1.0647899,0,0,1.0574867,4.0646007,994.33451)"
       style="display:inline;opacity:0.71300001;fill:url(#linearGradient4767);fill-opacity:1;stroke:none"
       id="rect4146"
       width="75.730431"
       height="68.664162"
       x="2.235342"
       y="-29.639721"
       rx="3.9569874"
       ry="3.9569881"
       clip-path="url(#clipPath4156-4-1-3)" />
    <rect
       ry="4.2897696"
       rx="0"
       y="1036.9288"
       x="5.5526009"
       height="4.2897696"
       width="83.898964"
       id="rect4131"
       style="display:inline;opacity:0.55;fill:url(#radialGradient3724);fill-opacity:1;stroke:none;stroke-width:1.00257266" />
    <path
       inkscape:connector-curvature="0"
       style="display:inline;opacity:0.60900005;fill:url(#radialGradient3726);fill-opacity:1;stroke:none;filter:url(#filter3690)"
       d="m 87.960938,5.5605469 c -1.177251,0 -2.125,1.8955 -2.125,4.25 V 78.060547 c -10e-7,2.3545 0.947749,4.25 2.125,4.25 1.17725,0 2.125,-1.8955 2.125,-4.25 V 9.8105469 c 0,-2.3545 -0.94775,-4.25 -2.125,-4.25 z"
       transform="matrix(1.2149644,0,0,1.0079085,-18.554495,955.99155)"
       id="rect4141" />
    <circle
       r="1.8086958"
       cy="1023.0067"
       cx="11.867488"
       id="circle4457"
       style="opacity:0.99599998;fill:#f3f5f5;fill-opacity:1;stroke:#8d8d8d;stroke-width:1.23558414;stroke-linecap:round;stroke-linejoin:bevel;stroke-miterlimit:4;stroke-dasharray:none;stroke-dashoffset:0;stroke-opacity:1;paint-order:markers stroke fill" />
    <circle
       style="opacity:0.89600004;fill:#f3f5f5;fill-opacity:1;stroke:#000000;stroke-width:0.52055985;stroke-linecap:round;stroke-linejoin:bevel;stroke-miterlimit:4;stroke-dasharray:none;stroke-dashoffset:0;stroke-opacity:0.48301888;paint-order:markers stroke fill"
       id="path4455"
       cx="11.867488"
       cy="1023.0067"
       r="1.2062197" />
    <circle
       style="opacity:0.99599998;fill:#f3f5f5;fill-opacity:1;stroke:#8d8d8d;stroke-width:1.23558414;stroke-linecap:round;stroke-linejoin:bevel;stroke-miterlimit:4;stroke-dasharray:none;stroke-dashoffset:0;stroke-opacity:1;paint-order:markers stroke fill"
       id="circle4471"
       cx="11.867488"
       cy="1005.7783"
       r="1.8086958" />
    <circle
       r="1.2062197"
       cy="1005.7783"
       cx="11.867488"
       id="circle4473"
       style="opacity:0.89600004;fill:#f3f5f5;fill-opacity:1;stroke:#000000;stroke-width:0.52055985;stroke-linecap:round;stroke-linejoin:bevel;stroke-miterlimit:4;stroke-dasharray:none;stroke-dashoffset:0;stroke-opacity:0.48301888;paint-order:markers stroke fill" />
  </g>
</svg>
