<?xml version="1.0" encoding="UTF-8" standalone="no"?>
<!-- Generator: Adobe Illustrator 19.0.0, SVG Export Plug-In . SVG Version: 6.00 Build 0)  -->

<svg
   xmlns:dc="http://purl.org/dc/elements/1.1/"
   xmlns:cc="http://creativecommons.org/ns#"
   xmlns:rdf="http://www.w3.org/1999/02/22-rdf-syntax-ns#"
   xmlns:svg="http://www.w3.org/2000/svg"
   xmlns="http://www.w3.org/2000/svg"
   xmlns:sodipodi="http://sodipodi.sourceforge.net/DTD/sodipodi-0.dtd"
   xmlns:inkscape="http://www.inkscape.org/namespaces/inkscape"
   version="1.1"
   id="Layer_1"
   x="0px"
   y="0px"
   viewBox="0 0 128 128"
   xml:space="preserve"
   sodipodi:docname="camera-roid.svg"
   width="128"
   height="128"
   inkscape:version="0.92.2 5c3e80d, 2017-08-06"><title
     id="title964">Camera Roid</title><metadata
     id="metadata111"><rdf:RDF><cc:Work
         rdf:about=""><dc:format>image/svg+xml</dc:format><dc:type
           rdf:resource="http://purl.org/dc/dcmitype/StillImage" /><dc:title>Camera Roid</dc:title><cc:license
           rdf:resource="http://artlibre.org/licence/lal" /><dc:date>2018</dc:date><dc:creator><cc:Agent><dc:title>Cristian Pozzessere  == ilnanny ==</dc:title></cc:Agent></dc:creator><dc:subject><rdf:Bag><rdf:li>Global Language</rdf:li></rdf:Bag></dc:subject><dc:description>Playing with Inkscape on Gnu/Linux O. S.
In the night, alone like a wolf.</dc:description><dc:contributor><cc:Agent><dc:title></dc:title></cc:Agent></dc:contributor></cc:Work><cc:License
         rdf:about="http://artlibre.org/licence/lal"><cc:permits
           rdf:resource="http://creativecommons.org/ns#Reproduction" /><cc:permits
           rdf:resource="http://creativecommons.org/ns#Distribution" /><cc:permits
           rdf:resource="http://creativecommons.org/ns#DerivativeWorks" /><cc:requires
           rdf:resource="http://creativecommons.org/ns#ShareAlike" /><cc:requires
           rdf:resource="http://creativecommons.org/ns#Notice" /><cc:requires
           rdf:resource="http://creativecommons.org/ns#Attribution" /></cc:License></rdf:RDF></metadata><defs
     id="defs109" /><sodipodi:namedview
     pagecolor="#ffffff"
     bordercolor="#666666"
     borderopacity="1"
     objecttolerance="10"
     gridtolerance="10"
     guidetolerance="10"
     inkscape:pageopacity="0"
     inkscape:pageshadow="2"
     inkscape:window-width="1280"
     inkscape:window-height="942"
     id="namedview107"
     showgrid="false"
     inkscape:snap-global="false"
     inkscape:zoom="5.546875"
     inkscape:cx="64"
     inkscape:cy="64"
     inkscape:window-x="0"
     inkscape:window-y="21"
     inkscape:window-maximized="1"
     inkscape:current-layer="Layer_1" /><rect
     ry="10.529484"
     rx="10.297917"
     y="7.4040122"
     x="1.3543286"
     height="113.19198"
     width="125.29134"
     id="rect920"
     style="opacity:0.08;fill:#090107;fill-opacity:1;stroke:none;stroke-width:0.41271687;stroke-linecap:round;stroke-miterlimit:4;stroke-dasharray:none;stroke-opacity:0.36190479;paint-order:fill markers stroke" /><rect
     style="opacity:0.15;fill:#040003;fill-opacity:1;stroke:none;stroke-width:0.40620393;stroke-linecap:round;stroke-miterlimit:4;stroke-dasharray:none;stroke-opacity:0.36190479;paint-order:fill markers stroke"
     id="rect918"
     width="123.32855"
     height="111.39275"
     x="2.3357234"
     y="8.3854122"
     rx="10.136593"
     ry="10.362114" /><path
     inkscape:connector-curvature="0"
     style="fill:#383836;fill-opacity:1;stroke-width:0.38730758"
     d="m 124.14886,109.00514 c 0,5.26738 -4.29911,9.5665 -9.56649,9.5665 H 13.378897 c -5.2673832,0 -9.5664973,-4.29912 -9.5664973,-9.5665 V 83.907607 H 124.14886 Z"
     id="path4" /><path
     inkscape:connector-curvature="0"
     style="fill:#eae4da;stroke-width:0.38730758"
     d="M 114.6211,9.4283596 H 13.378897 c -5.2673832,0 -9.5664973,4.2991144 -9.5664973,9.5664974 V 61.637421 H 124.14886 V 18.994857 c 0,-5.306114 -4.26038,-9.5664974 -9.52776,-9.5664974 z"
     id="path6" /><rect
     x="3.8511317"
     y="61.59869"
     style="fill:#f4efea;stroke-width:0.38730758"
     width="120.33647"
     height="17.545033"
     id="rect8" /><rect
     x="3.8511317"
     y="79.14373"
     style="fill:#d8cebc;stroke-width:0.38730758"
     width="120.33647"
     height="4.7638831"
     id="rect10" /><rect
     x="91.111534"
     y="14.579551"
     style="fill:#61586b;stroke-width:0.38730758"
     width="26.685493"
     height="24.710224"
     id="rect12" /><circle
     style="fill:#444049;stroke-width:0.38730758"
     cx="104.43491"
     cy="26.93466"
     r="10.767151"
     id="circle14" /><circle
     style="fill:#2f2e30;stroke-width:0.38730758"
     cx="104.43491"
     cy="26.93466"
     r="6.235652"
     id="circle16" /><path
     inkscape:connector-curvature="0"
     style="fill:#6c6b6d;stroke-width:0.38730758"
     d="m 101.25899,23.75874 c 1.5105,-1.5105 3.98926,-1.5105 5.49976,0 1.5105,1.5105 -3.98926,7.048998 -5.49976,5.499768 -1.510503,-1.5105 -1.510503,-3.989268 0,-5.499768 z"
     id="path18" /><path
     inkscape:connector-curvature="0"
     style="fill:#372f47;stroke-width:0.38730758"
     d="m 37.430698,36.772275 c 0,1.161922 -0.929539,2.091461 -2.091461,2.091461 H 11.945859 c -1.161923,0 -2.0914611,-0.929539 -2.0914611,-2.091461 v -7.746152 c 0,-1.161923 0.9295381,-2.091461 2.0914611,-2.091461 h 23.393378 c 1.161922,0 2.091461,0.929538 2.091461,2.091461 z"
     id="path20" /><rect
     x="56.641155"
     y="79.14373"
     style="fill:#f490f4;stroke-width:0.38730758"
     width="2.9435375"
     height="4.7638831"
     id="rect22" /><rect
     x="59.58469"
     y="79.14373"
     style="fill:#e23030;stroke-width:0.38730758"
     width="2.9048069"
     height="4.7638831"
     id="rect24" /><rect
     x="62.489498"
     y="79.14373"
     style="fill:#f46311;stroke-width:0.38730758"
     width="2.9048069"
     height="4.7638831"
     id="rect26" /><rect
     x="65.394302"
     y="79.14373"
     style="fill:#f7d116;stroke-width:0.38730758"
     width="2.9048069"
     height="4.7638831"
     id="rect28" /><rect
     x="56.641155"
     y="61.637421"
     style="fill:#f9b2f6;stroke-width:0.38730758"
     width="2.9435375"
     height="17.506304"
     id="rect30" /><rect
     x="56.641155"
     y="52.032192"
     style="fill:#f490f4;stroke-width:0.38730758"
     width="2.9435375"
     height="9.5664978"
     id="rect32" /><rect
     x="59.58469"
     y="61.637421"
     style="fill:#ea4949;stroke-width:0.38730758"
     width="2.9048069"
     height="17.506304"
     id="rect34" /><rect
     x="59.58469"
     y="52.032192"
     style="fill:#e23030;stroke-width:0.38730758"
     width="2.9048069"
     height="9.5664978"
     id="rect36" /><rect
     x="62.489498"
     y="61.637421"
     style="fill:#f27a2a;stroke-width:0.38730758"
     width="2.9048069"
     height="17.506304"
     id="rect38" /><rect
     x="62.489498"
     y="52.032192"
     style="fill:#f46311;stroke-width:0.38730758"
     width="2.9048069"
     height="9.5664978"
     id="rect40" /><rect
     x="65.394302"
     y="61.637421"
     style="fill:#f9de3a;stroke-width:0.38730758"
     width="2.9048069"
     height="17.506304"
     id="rect42" /><rect
     x="65.394302"
     y="52.032192"
     style="fill:#f7d116;stroke-width:0.38730758"
     width="2.9048069"
     height="9.5664978"
     id="rect44" /><rect
     x="68.337837"
     y="61.637421"
     style="fill:#4abc96;stroke-width:0.38730758"
     width="2.9048069"
     height="17.506304"
     id="rect46" /><g
     id="g52"
     transform="matrix(0.38730758,0,0,0.38730758,-32.091013,-32.091013)"><rect
       x="259.29999"
       y="217.2"
       style="fill:#44ad87"
       width="7.5"
       height="24.700001"
       id="rect48" /><rect
       x="259.29999"
       y="287.20001"
       style="fill:#44ad87"
       width="7.5"
       height="12.3"
       id="rect50" /></g><circle
     style="fill:#d8cebc;stroke-width:0.38730758"
     cx="64"
     cy="33.983662"
     r="22.037802"
     id="circle54" /><circle
     style="fill:#e8e8e8;stroke-width:0.38730758"
     cx="64"
     cy="36.113853"
     r="21.263187"
     id="circle56" /><circle
     style="fill:#1f1c37;stroke-width:0.38730758"
     cx="64"
     cy="36.113853"
     r="19.90761"
     id="circle58" /><circle
     style="fill:#403c55;stroke-width:0.38730758"
     cx="64"
     cy="34.09985"
     r="9.5664978"
     id="circle60" /><path
     inkscape:connector-curvature="0"
     style="fill:#666477;stroke-width:0.38730758"
     d="m 58.693884,28.832469 c 3.175922,-3.175922 8.288382,-3.175922 11.464304,0 3.175922,3.175922 -8.288382,14.640227 -11.464304,11.464305 -3.137192,-3.175922 -3.137192,-8.288383 0,-11.464305 z"
     id="path62" /><circle
     style="fill:#fafafa;fill-opacity:0.76666667;stroke-width:0.38730758"
     cx="23.642546"
     cy="51.257576"
     r="9.0242662"
     id="circle64" /><circle
     style="fill:#ea4949;stroke-width:0.38730758"
     cx="23.642546"
     cy="51.257576"
     r="7.1651902"
     id="circle66" /><circle
     style="fill:#3e3d3f;stroke-width:0.38730758"
     cx="98.780212"
     cy="51.257576"
     r="7.1651902"
     id="circle68" /><path
     inkscape:connector-curvature="0"
     style="fill:#515151;stroke-width:0.38730758"
     d="m 91.576297,51.257578 c 0,-3.950537 3.214653,-7.16519 7.165191,-7.16519 3.950532,0 7.165192,3.214653 7.165192,7.16519 z"
     id="path70" /><circle
     style="fill:#2f2e30;stroke-width:0.38730758"
     cx="98.780212"
     cy="51.257576"
     r="4.8413448"
     id="circle72" /><rect
     x="11.51982"
     y="103.0406"
     style="fill:#000000;fill-opacity:1;stroke-width:0.38730758"
     width="104.92162"
     height="5.577229"
     id="rect74" /><g
     id="g76"
     transform="translate(0,-368.20001)" /><g
     id="g78"
     transform="translate(0,-368.20001)" /><g
     id="g80"
     transform="translate(0,-368.20001)" /><g
     id="g82"
     transform="translate(0,-368.20001)" /><g
     id="g84"
     transform="translate(0,-368.20001)" /><g
     id="g86"
     transform="translate(0,-368.20001)" /><g
     id="g88"
     transform="translate(0,-368.20001)" /><g
     id="g90"
     transform="translate(0,-368.20001)" /><g
     id="g92"
     transform="translate(0,-368.20001)" /><g
     id="g94"
     transform="translate(0,-368.20001)" /><g
     id="g96"
     transform="translate(0,-368.20001)" /><g
     id="g98"
     transform="translate(0,-368.20001)" /><g
     id="g100"
     transform="translate(0,-368.20001)" /><g
     id="g102"
     transform="translate(0,-368.20001)" /><g
     id="g104"
     transform="translate(0,-368.20001)" /></svg>