<?xml version="1.0" encoding="UTF-8" standalone="no"?>
<svg
   xmlns:dc="http://purl.org/dc/elements/1.1/"
   xmlns:cc="http://creativecommons.org/ns#"
   xmlns:rdf="http://www.w3.org/1999/02/22-rdf-syntax-ns#"
   xmlns:svg="http://www.w3.org/2000/svg"
   xmlns="http://www.w3.org/2000/svg"
   xmlns:xlink="http://www.w3.org/1999/xlink"
   xmlns:sodipodi="http://sodipodi.sourceforge.net/DTD/sodipodi-0.dtd"
   xmlns:inkscape="http://www.inkscape.org/namespaces/inkscape"
   width="384pt"
   height="384pt"
   version="1.1"
   viewBox="0 0 384 384"
   id="svg14"
   sodipodi:docname="gnome-stock-trash-full.svg"
   inkscape:version="0.92.2 2405546, 2018-03-11"
   inkscape:export-filename="/media/Dati/gnome-stock-trash-full.svg.png"
   inkscape:export-xdpi="24"
   inkscape:export-ydpi="24">
  <metadata
     id="metadata20">
    <rdf:RDF>
      <cc:Work
         rdf:about="">
        <dc:format>image/svg+xml</dc:format>
        <dc:type
           rdf:resource="http://purl.org/dc/dcmitype/StillImage" />
        <dc:title />
      </cc:Work>
    </rdf:RDF>
  </metadata>
  <defs
     id="defs18">
    <pattern
       inkscape:collect="always"
       xlink:href="#pattern2263"
       id="pattern828"
       patternTransform="matrix(8.9483837,3.118104,-7.0085898,20.113361,-12.644241,-8.7756171)" />
    <pattern
       inkscape:collect="always"
       xlink:href="#pattern2263"
       id="pattern2267"
       patternTransform="matrix(-8.9483837,3.118104,7.0085898,20.113361,396.64022,-8.7756171)" />
    <pattern
       inkscape:collect="always"
       xlink:href="#Strips1_1"
       id="pattern2263"
       patternTransform="matrix(8.395599,2.9254837,-6.5756355,18.870862,0,0)" />
    <pattern
       inkscape:stockid="Stripes 1:1"
       id="Strips1_1"
       patternTransform="translate(0,0) scale(10,10)"
       height="1"
       width="2"
       patternUnits="userSpaceOnUse"
       inkscape:collect="always">
      <rect
         id="rect1545"
         height="2"
         width="1"
         y="-0.5"
         x="0"
         style="fill:black;stroke:none" />
    </pattern>
  </defs>
  <sodipodi:namedview
     pagecolor="#ffffff"
     bordercolor="#666666"
     borderopacity="1"
     objecttolerance="10"
     gridtolerance="10"
     guidetolerance="10"
     inkscape:pageopacity="0"
     inkscape:pageshadow="2"
     inkscape:window-width="1920"
     inkscape:window-height="994"
     id="namedview16"
     showgrid="false"
     inkscape:zoom="0.75661619"
     inkscape:cx="179.2393"
     inkscape:cy="254.13087"
     inkscape:window-x="0"
     inkscape:window-y="21"
     inkscape:window-maximized="1"
     inkscape:current-layer="g12" />
  <g
     id="g12">
    <path
       style="opacity:1;fill:#e9e9e9;fill-opacity:1;stroke:#263635;stroke-width:2.50446272;stroke-miterlimit:4;stroke-dasharray:none;stroke-opacity:1"
       d="m 176.67598,375.33558 c -39.3529,-2.69791 -71.39061,-13.44376 -85.234071,-28.59038 -4.92952,-5.39583 -6.261822,-8.28109 -7.723192,-16.72456 C 79.688501,306.72616 40.077476,93.62017 39.044942,89.656573 31.95043,62.490088 60.886379,37.888286 115.78142,24.407047 c 12.56944,-3.085113 31.67133,-6.141082 46.83044,-7.494203 13.60614,-1.211562 45.1942,-1.211562 58.80451,0 66.40696,5.920421 116.11434,28.811047 123.60438,56.918471 1.44888,5.429133 1.32398,9.575926 -0.50794,17.082619 -1.97764,8.118716 -44.68626,239.614646 -44.68626,242.229286 0,1.06168 -1.0825,4.09267 -2.40648,6.74062 -6.70731,13.42711 -29.20657,25.32624 -59.5914,31.51729 -16.91192,3.44733 -43.40392,5.15018 -61.15269,3.93445 z m 0,0"
       id="path2"
       inkscape:connector-curvature="0" />
    <path
       inkscape:connector-curvature="0"
       style="opacity:0.378;fill:url(#pattern2267);fill-opacity:1;stroke-width:1.06584215"
       d="m 207.31999,375.33558 c 39.3529,-2.69791 71.39061,-13.44376 85.23407,-28.59038 4.92952,-5.39583 6.26182,-8.2811 7.72319,-16.72456 4.03021,-23.29448 43.64124,-236.40047 44.67377,-240.364067 7.09451,-27.166485 -21.84143,-51.768287 -76.73647,-65.249526 -12.56944,-3.085113 -31.67133,-6.141082 -46.83044,-7.494203 -13.60613,-1.211562 -45.1942,-1.211562 -58.8045,0 -66.406971,5.920421 -116.114356,28.811047 -123.604391,56.918471 -1.448885,5.429133 -1.323979,9.575926 0.507937,17.082619 1.977639,8.118726 44.686265,239.614646 44.686265,242.229286 0,1.06168 1.082501,4.09267 2.406469,6.74062 6.707313,13.42711 29.20658,25.32624 59.59141,31.51729 16.91192,3.44733 43.40393,5.15018 61.15269,3.93445 z m 0,0"
       id="path2265" />
    <path
       id="path827"
       d="m 176.67598,375.33558 c -39.3529,-2.69791 -71.39061,-13.44376 -85.234071,-28.59038 -4.92952,-5.39583 -6.261822,-8.2811 -7.723192,-16.72456 C 79.688501,306.72616 40.077476,93.62017 39.044942,89.656573 31.95043,62.490088 60.886379,37.888286 115.78142,24.407047 c 12.56944,-3.085113 31.67133,-6.141082 46.83044,-7.494203 13.60613,-1.211562 45.1942,-1.211562 58.8045,0 66.40697,5.920421 116.11435,28.811047 123.60439,56.918471 1.44888,5.429133 1.32398,9.575926 -0.50794,17.082619 -1.97764,8.118726 -44.68626,239.614646 -44.68626,242.229286 0,1.06168 -1.0825,4.09267 -2.40647,6.74062 -6.70732,13.42711 -29.20658,25.32624 -59.59141,31.51729 -16.91192,3.44733 -43.40393,5.15018 -61.15269,3.93445 z m 0,0"
       style="opacity:0.49000005;fill:url(#pattern828);fill-opacity:1;stroke-width:1.06584215"
       inkscape:connector-curvature="0" />
    <path
       style="fill:#040404;fill-opacity:0.33716479;stroke:#4e4e4e;stroke-width:1.25353217;stroke-opacity:1"
       d="M 171.98041,140.60657 C 118.68437,137.64132 69.437771,121.15389 48.171248,99.16547 42.773537,93.58169 38.4739,85.622596 38.487798,81.244577 38.510965,73.83403 46.670082,62.764783 58.109525,54.609042 107.07812,19.698742 208.41612,10.404508 282.70068,34.007515 c 25.65884,8.150565 45.0489,19.261211 55.76092,31.945046 7.23711,8.574914 8.60391,14.018975 5.45795,21.760719 -7.39464,18.19 -40.31837,36.71119 -81.74871,45.98472 -16.67498,3.73116 -32.54844,5.84771 -52.2165,6.96549 -17.21707,0.98325 -19.39933,0.97808 -37.97393,-0.057 z m 0,0"
       id="path4"
       inkscape:connector-curvature="0" />
    <path
       inkscape:connector-curvature="0"
       id="path2274"
       d="M 343.84055,83.755929 C 335.14307,65.335383 302.83842,46.876969 262.50336,37.491717 245.75934,33.597023 229.82136,31.387564 210.07186,30.220776 192.78351,29.194434 190.59152,29.199699 171.94,30.280143 118.42327,33.37537 68.972933,50.585055 47.618346,73.537305 44.837669,76.527536 42.352541,80.168954 40.588284,83.624819 38.877333,80.374917 37.902389,77.293141 37.894464,74.658316 37.880512,70.0884 42.198283,61.779435 47.618346,55.950909 68.972933,32.998659 118.42327,15.788978 171.94,12.693751 c 18.65152,-1.080413 20.84351,-1.085678 38.13186,-0.05937 19.7495,1.166788 35.68748,3.376247 52.4315,7.270941 41.60191,9.680018 74.66316,29.013042 82.08842,48.00037 2.27516,5.820095 2.18386,10.401404 -0.75123,15.850235 z"
       style="fill:#c2c9c8;fill-opacity:1;stroke:#4e4e4e;stroke-width:1.28335941;stroke-opacity:1" />
    <path
       style="fill:#f88166;fill-opacity:1;stroke-width:1.44262028"
       d="M 78.506438,119.69975 C 54.325671,110.76507 53.896951,109.47134 53.604168,97.20821 53.478689,91.753863 53.300928,86.372408 53.217277,85.260888 53.018602,82.667344 102.08073,42.227496 105.58367,42.099945 c 1.443,-0.05467 4.50678,0.73494 6.80198,1.749276 l 4.17739,1.840382 -4.05714,5.855214 C 95.958416,75.409065 86.584124,90.80026 86.584124,94.09231 c 0,2.12584 2.462515,10.14336 5.474002,17.8268 3.016717,7.67738 5.291011,14.18249 5.055737,14.45583 -0.230041,0.26725 -8.908975,-3.09768 -18.607425,-6.67519 z m 0,0"
       id="path6"
       inkscape:connector-curvature="0" />
    <path
       style="fill:#199968;fill-opacity:0.99607801;stroke-width:1.78508699"
       d="m 309.06448,107.43187 c 0,-4.39675 -4.00737,-11.21318 -14.5464,-24.750175 -16.35234,-20.987865 -16.5962,-19.800151 4.7719,-23.09034 9.34607,-1.438535 10.55222,-1.084433 16.01619,4.728725 10.62472,11.294348 26.85841,33.72076 24.32086,35.38796 -2.30025,2.06561 -31.74235,16.05998 -34.49741,16.05998 -1.11387,0 3.93486,-4.99431 3.93486,-8.33615 z m 0,0"
       id="path8"
       inkscape:connector-curvature="0" />
    <path
       style="fill:#ecf2f3;fill-opacity:1;stroke-width:1.44262028"
       d="m 150.92849,136.79164 c -17.61405,-2.35667 -49.14577,-9.15335 -53.720513,-10.3256 -4.24536,-1.08721 -5.306699,-5.07167 -9.515461,-17.21335 -2.78667,-8.04789 -5.071425,-15.39727 -5.071425,-16.32051 0,-1.658155 21.033349,-33.04186 38.124569,-56.881812 4.80479,-6.699483 9.87099,-12.202412 11.25126,-12.220633 3.57613,-0.06074 66.63435,8.801042 71.07316,9.979373 2.47296,0.655978 4.74203,3.692915 6.86995,9.17155 1.74624,4.506813 -3.21827,28.176629 -2.00008,28.71113 1.22342,0.534502 18.46914,-20.693618 29.28643,-23.275015 10.81731,-2.587469 21.10132,-4.701178 22.84757,-4.701178 3.9578,0 54.47861,60.435035 54.47861,65.166585 0,3.84476 -0.24573,7.34939 -4.51723,8.99542 -4.0519,1.55489 -10.82252,4.64043 -20.10271,7.25219 -32.92767,9.26265 -49.14578,12.74299 -93.20968,13.31394 -22.27767,0.29154 -42.73591,-1.24515 -45.79445,-1.65209 z"
       id="path10"
       inkscape:connector-curvature="0"
       sodipodi:nodetypes="cccsccccccsscccc" />
    <path
       style="fill:#c2c9c8;fill-opacity:1;stroke:#4e4e4e;stroke-width:1.28335941;stroke-opacity:1"
       d="m 343.84055,83.755929 c -8.69748,18.420551 -41.00213,36.878961 -81.33719,46.264211 -16.74402,3.8947 -32.682,6.10415 -52.4315,7.27094 -17.28835,1.02634 -19.48034,1.02108 -38.13186,-0.0594 C 118.42327,134.13649 68.972933,116.9268 47.618346,93.97456 44.837669,90.984325 42.352541,87.34291 40.588284,83.887046 c -1.710951,3.249895 -2.685895,6.33168 -2.69382,8.966504 -0.01395,4.56991 4.303819,12.87887 9.723882,18.7074 21.354587,22.95225 70.804924,40.16193 124.321654,43.25716 18.65152,1.08041 20.84351,1.08568 38.13186,0.0594 19.7495,-1.16679 35.68748,-3.37625 52.4315,-7.27094 41.60191,-9.68002 74.66316,-29.01305 82.08842,-48.00038 2.27516,-5.82008 2.18386,-10.401395 -0.75123,-15.850231 z"
       id="path2269"
       inkscape:connector-curvature="0" />
  </g>
</svg>
