<?xml version="1.0" encoding="UTF-8" standalone="no"?>
<svg
   xmlns:osb="http://www.openswatchbook.org/uri/2009/osb"
   xmlns:dc="http://purl.org/dc/elements/1.1/"
   xmlns:cc="http://creativecommons.org/ns#"
   xmlns:rdf="http://www.w3.org/1999/02/22-rdf-syntax-ns#"
   xmlns:svg="http://www.w3.org/2000/svg"
   xmlns="http://www.w3.org/2000/svg"
   xmlns:xlink="http://www.w3.org/1999/xlink"
   xmlns:sodipodi="http://sodipodi.sourceforge.net/DTD/sodipodi-0.dtd"
   xmlns:inkscape="http://www.inkscape.org/namespaces/inkscape"
   enable-background="new 0 0 512 512"
   height="512px"
   id="Apple_tv_3rd_gen"
   version="1.1"
   viewBox="0 0 512 512"
   width="512px"
   xml:space="preserve"
   sodipodi:docname="mp3-player.svg"
   inkscape:version="0.91 r13725"><metadata
     id="metadata121"><rdf:RDF><cc:Work
         rdf:about=""><dc:format>image/svg+xml</dc:format><dc:type
           rdf:resource="http://purl.org/dc/dcmitype/StillImage" /><dc:title></dc:title><dc:date>2010</dc:date><dc:creator><cc:Agent><dc:title>Cristian Pozzessere &quot;ilnanny&quot;</dc:title></cc:Agent></dc:creator><cc:license
           rdf:resource="http://creativecommons.org/licenses/by-sa/3.0/" /></cc:Work><cc:License
         rdf:about="http://creativecommons.org/licenses/by-sa/3.0/"><cc:permits
           rdf:resource="http://creativecommons.org/ns#Reproduction" /><cc:permits
           rdf:resource="http://creativecommons.org/ns#Distribution" /><cc:requires
           rdf:resource="http://creativecommons.org/ns#Notice" /><cc:requires
           rdf:resource="http://creativecommons.org/ns#Attribution" /><cc:permits
           rdf:resource="http://creativecommons.org/ns#DerivativeWorks" /><cc:requires
           rdf:resource="http://creativecommons.org/ns#ShareAlike" /></cc:License></rdf:RDF></metadata><defs
     id="defs119"><pattern
       inkscape:collect="always"
       xlink:href="#Strips1_1"
       id="pattern5722"
       patternTransform="matrix(9.9999997,0,0,10,0.74491649,4.5324809)" /><pattern
       inkscape:stockid="Stripes 1:1"
       id="Strips1_1"
       patternTransform="translate(0,0) scale(10,10)"
       height="1"
       width="2"
       patternUnits="userSpaceOnUse"
       inkscape:collect="always"><rect
         id="rect4984"
         height="2"
         width="1"
         y="-0.5"
         x="0"
         style="fill:black;stroke:none" /></pattern><inkscape:path-effect
       only_selected="false"
       apply_with_weight="true"
       apply_no_weight="true"
       helper_size="0"
       steps="2"
       weight="33.333333"
       is_visible="true"
       id="path-effect5016"
       effect="bspline" /><inkscape:path-effect
       simplifyJustCoalesce="false"
       simplifyindividualpaths="false"
       simplify_just_coalesce="false"
       simplify_individual_paths="false"
       helper_size="0"
       smooth_angles="360"
       threshold="0.000408163"
       steps="1"
       is_visible="true"
       id="path-effect5014"
       effect="simplify" /><inkscape:path-effect
       effect="bspline"
       id="path-effect5010"
       is_visible="true"
       weight="33.333333"
       steps="2"
       helper_size="0"
       apply_no_weight="true"
       apply_with_weight="true"
       only_selected="false" /><inkscape:path-effect
       effect="simplify"
       id="path-effect5008"
       is_visible="true"
       steps="1"
       threshold="0.000408163"
       smooth_angles="360"
       helper_size="0"
       simplify_individual_paths="false"
       simplify_just_coalesce="false"
       simplifyindividualpaths="false"
       simplifyJustCoalesce="false" /><inkscape:path-effect
       only_selected="false"
       apply_with_weight="true"
       apply_no_weight="true"
       helper_size="0"
       steps="2"
       weight="33.333333"
       is_visible="true"
       id="path-effect5004"
       effect="bspline" /><inkscape:path-effect
       simplifyJustCoalesce="false"
       simplifyindividualpaths="false"
       simplify_just_coalesce="false"
       simplify_individual_paths="false"
       helper_size="0"
       smooth_angles="360"
       threshold="0.000408163"
       steps="1"
       is_visible="true"
       id="path-effect5002"
       effect="simplify" /><inkscape:path-effect
       effect="bspline"
       id="path-effect4998"
       is_visible="true"
       weight="33.333333"
       steps="2"
       helper_size="0"
       apply_no_weight="true"
       apply_with_weight="true"
       only_selected="false" /><inkscape:path-effect
       effect="simplify"
       id="path-effect4996"
       is_visible="true"
       steps="1"
       threshold="0.000408163"
       smooth_angles="360"
       helper_size="0"
       simplify_individual_paths="false"
       simplify_just_coalesce="false"
       simplifyindividualpaths="false"
       simplifyJustCoalesce="false" /><inkscape:path-effect
       only_selected="false"
       apply_with_weight="true"
       apply_no_weight="true"
       helper_size="0"
       steps="2"
       weight="33.333333"
       is_visible="true"
       id="path-effect4992"
       effect="bspline" /><inkscape:path-effect
       simplifyJustCoalesce="false"
       simplifyindividualpaths="false"
       simplify_just_coalesce="false"
       simplify_individual_paths="false"
       helper_size="0"
       smooth_angles="360"
       threshold="0.000408163"
       steps="1"
       is_visible="true"
       id="path-effect4990"
       effect="simplify" /><inkscape:path-effect
       effect="bspline"
       id="path-effect4986"
       is_visible="true"
       weight="33.333333"
       steps="2"
       helper_size="0"
       apply_no_weight="true"
       apply_with_weight="true"
       only_selected="false" /><inkscape:path-effect
       effect="simplify"
       id="path-effect4984"
       is_visible="true"
       steps="1"
       threshold="0.000408163"
       smooth_angles="360"
       helper_size="0"
       simplify_individual_paths="false"
       simplify_just_coalesce="false"
       simplifyindividualpaths="false"
       simplifyJustCoalesce="false" /><inkscape:path-effect
       only_selected="false"
       apply_with_weight="true"
       apply_no_weight="true"
       helper_size="0"
       steps="2"
       weight="33.333333"
       is_visible="true"
       id="path-effect4980"
       effect="bspline" /><inkscape:path-effect
       simplifyJustCoalesce="false"
       simplifyindividualpaths="false"
       simplify_just_coalesce="false"
       simplify_individual_paths="false"
       helper_size="0"
       smooth_angles="360"
       threshold="0.000408163"
       steps="1"
       is_visible="true"
       id="path-effect4978"
       effect="simplify" /><inkscape:path-effect
       effect="bspline"
       id="path-effect4974"
       is_visible="true"
       weight="33.333333"
       steps="2"
       helper_size="0"
       apply_no_weight="true"
       apply_with_weight="true"
       only_selected="false" /><inkscape:path-effect
       effect="simplify"
       id="path-effect4972"
       is_visible="true"
       steps="1"
       threshold="0.000408163"
       smooth_angles="360"
       helper_size="0"
       simplify_individual_paths="false"
       simplify_just_coalesce="false"
       simplifyindividualpaths="false"
       simplifyJustCoalesce="false" /><inkscape:path-effect
       only_selected="false"
       apply_with_weight="true"
       apply_no_weight="true"
       helper_size="0"
       steps="2"
       weight="33.333333"
       is_visible="true"
       id="path-effect4968"
       effect="bspline" /><inkscape:path-effect
       simplifyJustCoalesce="false"
       simplifyindividualpaths="false"
       simplify_just_coalesce="false"
       simplify_individual_paths="false"
       helper_size="0"
       smooth_angles="360"
       threshold="0.000408163"
       steps="1"
       is_visible="true"
       id="path-effect4966"
       effect="simplify" /><inkscape:path-effect
       effect="bspline"
       id="path-effect4962"
       is_visible="true"
       weight="33.333333"
       steps="2"
       helper_size="0"
       apply_no_weight="true"
       apply_with_weight="true"
       only_selected="false" /><inkscape:path-effect
       effect="simplify"
       id="path-effect4960"
       is_visible="true"
       steps="1"
       threshold="0.000408163"
       smooth_angles="360"
       helper_size="0"
       simplify_individual_paths="false"
       simplify_just_coalesce="false"
       simplifyindividualpaths="false"
       simplifyJustCoalesce="false" /><linearGradient
       gradientTransform="matrix(7.0022493,0,0,1.7594991,-2499.5522,786.60733)"
       y2="222"
       y1="222"
       x2="497"
       x1="388"
       id="linearGradient4630"
       gradientUnits="userSpaceOnUse"><stop
         id="stop4626"
         style="stop-color:#E4E5E9"
         offset="0" /><stop
         id="stop4628"
         style="stop-color:#808080"
         offset="1" /></linearGradient><linearGradient
       y2="353.9824"
       y1="353.9824"
       x2="372.8281"
       x1="15.6777"
       id="linearGradient4624"
       gradientUnits="userSpaceOnUse"><stop
         id="stop4602"
         style="stop-color:#020202;stop-opacity:0"
         offset="0" /><stop
         id="stop4604"
         style="stop-color:#fcfcfc;stop-opacity:0.72687227"
         offset="0.0508" /><stop
         id="stop4606"
         style="stop-color:#ffffff;stop-opacity:0.00881057"
         offset="0.1085" /><stop
         id="stop4618"
         style="stop-color:#ffffff;stop-opacity:0.01321586"
         offset="0.79948694" /><stop
         id="stop4620"
         style="stop-color:#f6f6f6;stop-opacity:0.8017621"
         offset="0.92428148" /><stop
         id="stop4622"
         style="stop-color:#030303;stop-opacity:0"
         offset="0.99630672" /></linearGradient><linearGradient
       inkscape:collect="always"
       xlink:href="#SVGID_2_"
       id="linearGradient4880"
       gradientUnits="userSpaceOnUse"
       gradientTransform="matrix(7.0022493,0,0,1.7594991,-2499.5522,786.60733)"
       x1="388.5"
       y1="222"
       x2="496.5"
       y2="222" /><linearGradient
       inkscape:collect="always"
       xlink:href="#SVGID_3_"
       id="linearGradient4882"
       gradientUnits="userSpaceOnUse"
       gradientTransform="matrix(7.0022493,0,0,1.7594991,-2499.5522,786.60733)"
       x1="388"
       y1="222"
       x2="497"
       y2="222" /><radialGradient
       inkscape:collect="always"
       xlink:href="#SVGID_4_"
       id="radialGradient4884"
       gradientUnits="userSpaceOnUse"
       gradientTransform="matrix(3.5302766,0,0,3.5302766,-960.221,760.18236)"
       cx="442.0117"
       cy="91.5156"
       r="48.4638" /><linearGradient
       inkscape:collect="always"
       xlink:href="#SVGID_5_"
       id="linearGradient4886"
       gradientUnits="userSpaceOnUse"
       gradientTransform="matrix(3.5302766,0,0,3.5302766,-960.221,760.18236)"
       x1="413.2842"
       y1="153.439"
       x2="413.2842"
       y2="193.6362" /><linearGradient
       inkscape:collect="always"
       xlink:href="#SVGID_6_"
       id="linearGradient4888"
       gradientUnits="userSpaceOnUse"
       gradientTransform="matrix(3.5302766,0,0,3.5302766,-960.221,760.18236)"
       x1="470.5098"
       y1="153.439"
       x2="470.5098"
       y2="193.6362" /><linearGradient
       inkscape:collect="always"
       xlink:href="#linearGradient4624"
       id="linearGradient4890"
       gradientUnits="userSpaceOnUse"
       gradientTransform="matrix(7.0022493,0,0,1.7594991,-2499.5522,786.60733)"
       x1="388.5"
       y1="222"
       x2="496.5"
       y2="222" /><linearGradient
       inkscape:collect="always"
       xlink:href="#SVGID_2_"
       id="linearGradient4892"
       gradientUnits="userSpaceOnUse"
       gradientTransform="matrix(7.0022493,0,0,1.7594991,-2499.5522,786.60733)"
       x1="388.5"
       y1="222"
       x2="496.5"
       y2="222" /><linearGradient
       inkscape:collect="always"
       xlink:href="#SVGID_3_"
       id="linearGradient4894"
       gradientUnits="userSpaceOnUse"
       gradientTransform="matrix(7.0022493,0,0,1.7594991,-2499.5522,786.60733)"
       x1="388"
       y1="222"
       x2="497"
       y2="222" /><radialGradient
       inkscape:collect="always"
       xlink:href="#SVGID_4_"
       id="radialGradient4896"
       gradientUnits="userSpaceOnUse"
       gradientTransform="matrix(3.5302766,0,0,3.5302766,-960.221,784.52548)"
       cx="442.0117"
       cy="91.5156"
       r="48.4638" /><linearGradient
       inkscape:collect="always"
       xlink:href="#SVGID_5_"
       id="linearGradient4898"
       gradientUnits="userSpaceOnUse"
       gradientTransform="matrix(3.5302766,0,0,3.5302766,-960.221,784.52548)"
       x1="413.2842"
       y1="153.439"
       x2="413.2842"
       y2="193.6362" /><linearGradient
       inkscape:collect="always"
       xlink:href="#SVGID_6_"
       id="linearGradient4900"
       gradientUnits="userSpaceOnUse"
       gradientTransform="matrix(3.5302766,0,0,3.5302766,-960.221,784.52548)"
       x1="470.5098"
       y1="153.439"
       x2="470.5098"
       y2="193.6362" /><linearGradient
       inkscape:collect="always"
       xlink:href="#linearGradient4624"
       id="linearGradient4600"
       gradientUnits="userSpaceOnUse"
       gradientTransform="matrix(7.0022492,0,0,1.7594991,-2498.8074,786.60729)"
       x1="388.5"
       y1="222"
       x2="496.5"
       y2="222" /><filter
       inkscape:collect="always"
       style="color-interpolation-filters:sRGB"
       id="filter5128"
       x="-0.01347525"
       width="1.0269505"
       y="-0.2265003"
       height="1.4530006"><feGaussianBlur
         inkscape:collect="always"
         stdDeviation="4.3075967"
         id="feGaussianBlur5130" /></filter><linearGradient
       inkscape:collect="always"
       xlink:href="#SVGID_3_"
       id="linearGradient5720"
       gradientUnits="userSpaceOnUse"
       gradientTransform="matrix(7.0022491,0,0,1.7594991,-2498.8073,791.13981)"
       x1="388"
       y1="222"
       x2="497"
       y2="222" /></defs><sodipodi:namedview
     pagecolor="#ffffff"
     bordercolor="#666666"
     borderopacity="1"
     objecttolerance="10"
     gridtolerance="10"
     guidetolerance="10"
     inkscape:pageopacity="0"
     inkscape:pageshadow="2"
     inkscape:window-width="1280"
     inkscape:window-height="973"
     id="namedview117"
     showgrid="false"
     inkscape:zoom="1"
     inkscape:cx="211.39035"
     inkscape:cy="139.71968"
     inkscape:window-x="0"
     inkscape:window-y="23"
     inkscape:window-maximized="1"
     inkscape:current-layer="g5092" /><g
     id="g114"><g
       id="Apple_tv_third_generation"><g
         id="g4700"><linearGradient
           y2="510"
           y1="441"
           x2="442.8662"
           x1="442.8662"
           id="linearGradient4638"
           gradientUnits="userSpaceOnUse"><stop
             id="stop4634"
             style="stop-color:#E3E4E8"
             offset="0" /><stop
             id="stop4636"
             style="stop-color:#FFFFFF;stop-opacity:0"
             offset="1" /></linearGradient><linearGradient
           gradientTransform="matrix(7.0022493,0,0,1.7594991,-2499.5522,786.60733)"
           y2="222"
           y1="222"
           x2="496.5"
           x1="388.5"
           id="linearGradient4644"
           gradientUnits="userSpaceOnUse"><stop
             id="stop4640"
             style="stop-color:#E6E7EB"
             offset="0" /><stop
             id="stop4642"
             style="stop-color:#9B9DA4"
             offset="1" /></linearGradient><linearGradient
           xlink:href="#linearGradient4630"
           gradientTransform="matrix(7.0022493,0,0,1.7594991,-2499.5522,786.60733)"
           y2="222"
           y1="222"
           x2="497"
           x1="388"
           id="linearGradient4650"
           gradientUnits="userSpaceOnUse"><stop
             id="stop4646"
             style="stop-color:#E4E5E9"
             offset="0" /><stop
             id="stop4648"
             style="stop-color:#808080"
             offset="1" /></linearGradient><radialGradient
           gradientTransform="matrix(3.5302766,0,0,3.5302766,-960.221,760.18236)"
           r="48.4638"
           id="radialGradient4664"
           gradientUnits="userSpaceOnUse"
           cy="91.5156"
           cx="442.0117"><stop
             id="stop4654"
             style="stop-color:#58585F"
             offset="0" /><stop
             id="stop4656"
             style="stop-color:#525259"
             offset="0.1926" /><stop
             id="stop4658"
             style="stop-color:#424148"
             offset="0.4503" /><stop
             id="stop4660"
             style="stop-color:#27252D"
             offset="0.7435" /><stop
             id="stop4662"
             style="stop-color:#09070F"
             offset="1" /></radialGradient><linearGradient
           gradientTransform="matrix(3.5302766,0,0,3.5302766,-960.221,760.18236)"
           y2="193.6362"
           y1="153.439"
           x2="413.2842"
           x1="413.2842"
           id="linearGradient4672"
           gradientUnits="userSpaceOnUse"><stop
             id="stop4668"
             style="stop-color:#090000"
             offset="0" /><stop
             id="stop4670"
             style="stop-color:#535459"
             offset="0.9987" /></linearGradient><linearGradient
           gradientTransform="matrix(3.5302766,0,0,3.5302766,-960.221,760.18236)"
           y2="193.6362"
           y1="153.439"
           x2="470.5098"
           x1="470.5098"
           id="linearGradient4680"
           gradientUnits="userSpaceOnUse"><stop
             id="stop4676"
             style="stop-color:#090000"
             offset="0" /><stop
             id="stop4678"
             style="stop-color:#535459"
             offset="0.9987" /></linearGradient><g
           id="g4878"
           transform="matrix(0.67127082,0,0,0.65726995,-146.053,-517.74873)"><ellipse
             style="opacity:1;fill:#080808;fill-opacity:0.45188284;stroke:none;stroke-width:5.06448412;stroke-miterlimit:4;stroke-dasharray:none;stroke-opacity:1;filter:url(#filter5128)"
             id="path5094"
             cx="599.68793"
             cy="1586.4841"
             rx="383.60077"
             ry="22.821674"
             transform="matrix(0.95248959,0,0,0.71316568,26.256839,463.42602)" /><g
             id="g5092"
             transform="matrix(0.98823519,0,0,0.98823519,6.3103584,13.849724)"><g
               id="remote"><linearGradient
                 gradientUnits="userSpaceOnUse"
                 id="SVGID_1_"
                 x1="442.86621"
                 x2="442.86621"
                 y1="441"
                 y2="510"><stop
                   offset="0"
                   style="stop-color:#E3E4E8"
                   id="stop2" /><stop
                   offset="1"
                   style="stop-color:#FFFFFF;stop-opacity:0"
                   id="stop4" /></linearGradient><linearGradient
                 gradientUnits="userSpaceOnUse"
                 id="SVGID_2_"
                 x1="388.5"
                 x2="496.5"
                 y1="222"
                 y2="222"
                 gradientTransform="matrix(7.0022493,0,0,1.7594991,-2499.5522,786.60733)"
                 osb:paint="gradient"><stop
                   offset="0"
                   style="stop-color:#E6E7EB"
                   id="stop9" /><stop
                   offset="1"
                   style="stop-color:#9B9DA4"
                   id="stop11" /></linearGradient><linearGradient
                 gradientUnits="userSpaceOnUse"
                 id="SVGID_3_"
                 x1="388"
                 x2="497"
                 y1="222"
                 y2="222"
                 gradientTransform="matrix(7.0022493,0,0,1.7594991,-2499.5522,786.60733)"
                 xlink:href="#linearGradient4630"><stop
                   offset="0"
                   style="stop-color:#E4E5E9"
                   id="stop14" /><stop
                   offset="1"
                   style="stop-color:#808080"
                   id="stop16" /></linearGradient><path
                 d="m 977.06453,1536.0148 c 0,15.1389 -48.8407,27.4112 -109.08103,27.4112 H 329.90266 c -60.24734,0 -109.08106,-12.2723 -109.08106,-27.4112 V 818.41731 c 0,-15.13871 48.84071,-27.41122 109.08106,-27.41122 H 867.9835 c 60.24732,0 109.08103,12.27251 109.08103,27.41122 z"
                 stroke-miterlimit="10"
                 id="path19"
                 style="fill:url(#linearGradient4880);stroke:url(#linearGradient4882);stroke-width:3.51005006;stroke-miterlimit:10"
                 inkscape:connector-curvature="0" /><radialGradient
                 cx="442.01169"
                 cy="91.515602"
                 gradientUnits="userSpaceOnUse"
                 id="SVGID_4_"
                 r="48.463799"
                 gradientTransform="matrix(3.5302766,0,0,3.5302766,-960.221,760.18236)"><stop
                   offset="0"
                   style="stop-color:#58585F"
                   id="stop21" /><stop
                   offset="0.1926"
                   style="stop-color:#525259"
                   id="stop23" /><stop
                   offset="0.4503"
                   style="stop-color:#424148"
                   id="stop25" /><stop
                   offset="0.7435"
                   style="stop-color:#27252D"
                   id="stop27" /><stop
                   offset="1"
                   style="stop-color:#09070F"
                   id="stop29" /></radialGradient><path
                 d="m 774.59223,1083.2592 c 0,92.6344 -78.08266,167.7269 -174.39214,167.7269 -96.313,0 -174.3886,-75.0925 -174.3886,-167.7269 0,-92.63097 78.0756,-167.72349 174.3886,-167.72349 96.30948,-0.004 174.39214,75.09252 174.39214,167.72349 z m -176.28437,85.2985 c 48.16004,0 87.19431,-38.8895 87.19431,-86.866 0,-47.9729 -39.0378,-86.86244 -87.19431,-86.86244 -48.16356,0 -87.19783,38.88954 -87.19783,86.86244 -0.004,47.9765 39.03427,86.866 87.19783,86.866 z"
                 id="path32"
                 style="fill:url(#radialGradient4884);stroke-width:3.53027654"
                 inkscape:connector-curvature="0" /><linearGradient
                 gradientUnits="userSpaceOnUse"
                 id="SVGID_5_"
                 x1="413.28421"
                 x2="413.28421"
                 y1="153.439"
                 y2="193.6362"
                 gradientTransform="matrix(3.5302766,0,0,3.5302766,-960.221,760.18236)"><stop
                   offset="0"
                   style="stop-color:#090000"
                   id="stop34" /><stop
                   offset="0.9987"
                   style="stop-color:#535459"
                   id="stop36" /></linearGradient><ellipse
                 cx="498.78577"
                 cy="1372.8195"
                 rx="73.807495"
                 ry="70.955032"
                 id="ellipse39"
                 style="fill:url(#linearGradient4886);stroke-width:3.53027654" /><linearGradient
                 gradientUnits="userSpaceOnUse"
                 id="SVGID_6_"
                 x1="470.5098"
                 x2="470.5098"
                 y1="153.439"
                 y2="193.6362"
                 gradientTransform="matrix(3.5302766,0,0,3.5302766,-960.221,760.18236)"><stop
                   offset="0"
                   style="stop-color:#090000"
                   id="stop41" /><stop
                   offset="0.9987"
                   style="stop-color:#535459"
                   id="stop43" /></linearGradient><ellipse
                 cx="700.80945"
                 cy="1372.8195"
                 rx="73.807495"
                 ry="70.955032"
                 id="ellipse46"
                 style="fill:url(#linearGradient4888);stroke-width:3.53027654" /><ellipse
                 cx="598.43488"
                 cy="928.31183"
                 rx="8.4726639"
                 ry="8.1549387"
                 id="ellipse48"
                 style="fill:#ffffff;stroke-width:3.53027654" /><ellipse
                 cx="755.56396"
                 cy="1085.4408"
                 rx="8.4726639"
                 ry="8.1549387"
                 id="ellipse50"
                 style="fill:#ffffff;stroke-width:3.53027654" /><ellipse
                 cx="445.79285"
                 cy="1076.4598"
                 rx="8.4726639"
                 ry="8.1549387"
                 id="ellipse52"
                 style="fill:#ffffff;stroke-width:3.53027654" /><path
                 d="m 681.35762,1385.0413 v -28.5882 l 20.76509,13.4857 m 11.0074,-9.6094 h -3.53028 v 21.1816 h 3.53028 z m 7.06055,21.1816 h -3.53027 v -21.1816 h 3.53027 z"
                 id="path54"
                 inkscape:connector-curvature="0"
                 style="fill:#f1f2f2;stroke-width:3.53027654" /><path
                 d="m 477.10994,1372.9713 c -0.1624,-2.7395 -0.36009,-6.0297 -0.32832,-8.4832 h -0.0918 c -0.74841,2.3052 -1.65923,4.7552 -2.7642,7.463 l -3.86212,9.5317 h -2.13935 l -3.53381,-9.3588 c -1.03437,-2.7642 -1.91694,-5.3024 -2.53474,-7.6359 h -0.0706 c -0.0636,2.4535 -0.22241,5.7437 -0.41658,8.688 l -0.58249,8.4197 h -2.69713 l 1.52155,-19.639 h 3.60794 l 3.7315,9.4965 c 0.90375,2.4182 1.6557,4.5752 2.20642,6.6157 h 0.0988 c 0.5472,-1.9805 1.32739,-4.1375 2.3088,-6.6157 l 3.88684,-9.4965 h 3.60441 l 1.35916,19.639 h -2.75362 z m 19.00348,-0.5825 h -8.50444 v 7.0782 h 9.47879 v 2.1288 h -12.30301 v -19.639 h 11.81937 v 2.1217 h -8.99162 v 6.2098 h 8.50444 v 2.1005 z m 4.65643,9.2034 v -19.6389 h 3.0784 l 7.0076,9.9377 c 1.6204,2.3018 2.8913,4.367 3.9292,6.3793 l 0.0635,-0.028 c -0.25771,-2.623 -0.32125,-5.013 -0.32125,-8.0737 v -8.215 h 2.66183 v 19.6389 h -2.85953 l -6.94758,-9.9659 c -1.52861,-2.1853 -2.98308,-4.427 -4.08453,-6.5558 l -0.10238,0.028 c 0.16592,2.4782 0.233,4.8365 0.233,8.0984 v 8.3915 h -2.6583 z m 24.18593,-19.6389 v 11.6287 c 0,4.3988 2.17818,6.2628 5.10125,6.2628 3.24079,0 5.32012,-1.924 5.32012,-6.2628 v -11.6287 h 2.856 v 11.4487 c 0,6.0368 -3.53381,8.515 -8.27497,8.515 -4.47992,0 -7.85134,-2.3052 -7.85134,-8.3914 v -11.5688 h 2.84894 z"
                 id="menu"
                 inkscape:connector-curvature="0"
                 style="fill:#ffffff;stroke-width:3.53027654" /><ellipse
                 cx="598.43488"
                 cy="1233.5924"
                 rx="8.4726639"
                 ry="8.1549387"
                 id="ellipse57"
                 style="fill:#ffffff;stroke-width:3.53027654" /><path
                 inkscape:connector-curvature="0"
                 style="fill:url(#linearGradient4890);fill-opacity:1;stroke:#808080;stroke-width:3.51005006;stroke-miterlimit:10;stroke-opacity:1"
                 id="path4598"
                 stroke-miterlimit="10"
                 d="m 977.06453,1536.0148 c 0,15.1389 -48.8407,27.4112 -109.08103,27.4112 H 329.90266 c -60.24734,0 -109.08106,-12.2723 -109.08106,-27.4112 V 818.41731 c 0,-15.13871 48.84071,-27.41122 109.08106,-27.41122 H 867.9835 c 60.24732,0 109.08103,12.27251 109.08103,27.41122 z" /><rect
                 style="opacity:0.98999999;fill:#fcfcfc;fill-opacity:0.72687228;stroke:#092f58;stroke-width:0.30000001;stroke-miterlimit:4;stroke-dasharray:none;stroke-opacity:1"
                 id="rect4632"
                 width="568.4068"
                 height="91.118645"
                 x="325.42374"
                 y="811.38983"
                 ry="3.66102" /></g><path
               inkscape:connector-curvature="0"
               style="fill:url(#linearGradient4892);stroke:url(#linearGradient4894);stroke-width:3.51005006;stroke-miterlimit:10"
               id="path4652"
               stroke-miterlimit="10"
               d="m 977.06453,1536.0148 c 0,15.1389 -48.8407,27.4112 -109.08103,27.4112 H 329.90266 c -60.24734,0 -109.08106,-12.2723 -109.08106,-27.4112 V 818.41731 c 0,-15.13871 48.84071,-27.41122 109.08106,-27.41122 H 867.9835 c 60.24732,0 109.08103,12.27251 109.08103,27.41122 z" /><path
               style="opacity:0.06600001;fill:url(#pattern5722);fill-opacity:1;stroke:url(#linearGradient5720);stroke-width:3.51005006;stroke-miterlimit:10"
               d="m 233.20765,810.63401 c -7.43018,3.7042 -11.64149,7.8852 -11.64149,12.3164 l 0,693.25499 c 0,15.1389 48.83349,27.4083 109.08083,27.4083 l 538.08185,0 c 60.24029,0 109.08084,-12.2694 109.08084,-27.4083 l 0,-677.31509 c -11.82275,-11.9266 -54.7176,-20.763 -105.8363,-20.763 l -538.08185,0 c -60.24733,0 -109.08082,12.2694 -109.08082,27.4083 l 0,-24.3412 c 0,-3.7426 2.99335,-7.3105 8.39694,-10.5604 z"
               id="path4261"
               inkscape:connector-curvature="0" /><path
               id="path4956"
               d="m 328.3562,843.32005 h 535.20867 c 1.93465,0 3.49217,1.33364 3.49217,2.99022 v 68.44257 c 0,1.65657 -1.55752,2.99021 -3.49217,2.99021 H 328.3562 c -1.93468,0 -3.49218,-1.33364 -3.49218,-2.99021 v -68.44257 c 0,-1.65658 1.5575,-2.99022 3.49218,-2.99022 z"
               style="opacity:1;fill:#d2f7ff;fill-opacity:1;stroke:none;stroke-width:0.26480037;stroke-miterlimit:4;stroke-dasharray:none;stroke-opacity:1"
               inkscape:connector-curvature="0" /><g
               transform="translate(-29.794232,-3.0428898)"
               style="fill:none;stroke:#171d25;stroke-width:5.06448412;stroke-miterlimit:4;stroke-dasharray:none;stroke-opacity:1"
               id="g5025"><path
                 inkscape:connector-curvature="0"
                 id="path4970"
                 d="m 385.91425,860.75551 c 0,19.27163 0,38.54327 0,57.8149"
                 style="fill:none;stroke:#171d25;stroke-width:5.06448412;stroke-linecap:butt;stroke-linejoin:miter;stroke-miterlimit:4;stroke-dasharray:none;stroke-opacity:1" /><path
                 inkscape:connector-curvature="0"
                 id="path4976"
                 d="m 460.24177,882.51216 c 0,12.01942 0,24.03883 0,36.05825"
                 style="fill:none;stroke:#171d25;stroke-width:5.06448412;stroke-linecap:butt;stroke-linejoin:miter;stroke-miterlimit:4;stroke-dasharray:none;stroke-opacity:1" /><path
                 inkscape:connector-curvature="0"
                 id="path4982"
                 d="m 552.76177,860.75551 c 0,19.27163 0,38.54327 0,57.8149"
                 style="fill:none;stroke:#171d25;stroke-width:5.06448412;stroke-linecap:butt;stroke-linejoin:miter;stroke-miterlimit:4;stroke-dasharray:none;stroke-opacity:1" /><path
                 inkscape:connector-curvature="0"
                 id="path4988"
                 d="m 636.19258,882.51216 c 0,12.01942 0,24.03883 0,36.05825"
                 style="fill:none;stroke:#171d25;stroke-width:5.06448412;stroke-linecap:butt;stroke-linejoin:miter;stroke-miterlimit:4;stroke-dasharray:none;stroke-opacity:1" /><path
                 inkscape:connector-curvature="0"
                 id="path4994"
                 d="m 713.65045,860.75551 c 0,19.27163 0,38.54327 0,57.8149"
                 style="fill:none;stroke:#171d25;stroke-width:5.06448412;stroke-linecap:butt;stroke-linejoin:miter;stroke-miterlimit:4;stroke-dasharray:none;stroke-opacity:1" /><path
                 inkscape:connector-curvature="0"
                 id="path5000"
                 d="m 797.23219,882.51216 c 0,12.01942 0,24.03883 0,36.05825"
                 style="fill:none;stroke:#171d25;stroke-width:5.06448412;stroke-linecap:butt;stroke-linejoin:miter;stroke-miterlimit:4;stroke-dasharray:none;stroke-opacity:1" /><path
                 inkscape:connector-curvature="0"
                 id="path5006"
                 d="m 856.66261,860.75551 c 0,19.27163 0,38.54327 0,57.8149"
                 style="fill:none;stroke:#171d25;stroke-width:5.06448412;stroke-linecap:butt;stroke-linejoin:miter;stroke-miterlimit:4;stroke-dasharray:none;stroke-opacity:1" /></g><g
               transform="translate(-0.85454354,9.7324575)"
               id="g4954"><path
                 d="m 774.59223,1107.6024 c 0,92.6344 -78.08266,167.7269 -174.39214,167.7269 -96.313,0 -174.3886,-75.0925 -174.3886,-167.7269 0,-92.631 78.0756,-167.72357 174.3886,-167.72357 96.30948,-0.004 174.39214,75.09257 174.39214,167.72357 z m -176.28437,85.2985 c 48.16004,0 87.19431,-38.8895 87.19431,-86.866 0,-47.9729 -39.0378,-86.8625 -87.19431,-86.8625 -48.16356,0 -87.19783,38.8896 -87.19783,86.8625 -0.004,47.9765 39.03427,86.866 87.19783,86.866 z"
                 id="path4666"
                 style="fill:url(#radialGradient4896);stroke-width:3.53027654"
                 inkscape:connector-curvature="0" /><path
                 id="ellipse4674"
                 d="m 572.59326,1397.1627 a 73.807495,70.955032 0 0 1 -73.80749,70.955 73.807495,70.955032 0 0 1 -73.8075,-70.955 73.807495,70.955032 0 0 1 73.8075,-70.9551 73.807495,70.955032 0 0 1 73.80749,70.9551 z"
                 style="fill:url(#linearGradient4898);stroke-width:3.53027654"
                 inkscape:connector-curvature="0" /><path
                 id="ellipse4682"
                 d="m 774.61694,1397.1627 a 73.807495,70.955032 0 0 1 -73.80749,70.955 73.807495,70.955032 0 0 1 -73.8075,-70.955 73.807495,70.955032 0 0 1 73.8075,-70.9551 73.807495,70.955032 0 0 1 73.80749,70.9551 z"
                 style="fill:url(#linearGradient4900);stroke-width:3.53027654"
                 inkscape:connector-curvature="0" /><path
                 id="ellipse4684"
                 d="m 606.90754,952.65495 a 8.4726639,8.1549387 0 0 1 -8.47266,8.15494 8.4726639,8.1549387 0 0 1 -8.47267,-8.15494 8.4726639,8.1549387 0 0 1 8.47267,-8.15494 8.4726639,8.1549387 0 0 1 8.47266,8.15494 z"
                 style="fill:#ffffff;stroke-width:3.53027654"
                 inkscape:connector-curvature="0" /><path
                 id="ellipse4686"
                 d="m 764.03663,1109.784 a 8.4726639,8.1549387 0 0 1 -8.47267,8.1549 8.4726639,8.1549387 0 0 1 -8.47266,-8.1549 8.4726639,8.1549387 0 0 1 8.47266,-8.1549 8.4726639,8.1549387 0 0 1 8.47267,8.1549 z"
                 style="fill:#ffffff;stroke-width:3.53027654"
                 inkscape:connector-curvature="0" /><path
                 id="ellipse4688"
                 d="m 454.26551,1100.803 a 8.4726639,8.1549387 0 0 1 -8.47266,8.155 8.4726639,8.1549387 0 0 1 -8.47267,-8.155 8.4726639,8.1549387 0 0 1 8.47267,-8.1549 8.4726639,8.1549387 0 0 1 8.47266,8.1549 z"
                 style="fill:#ffffff;stroke-width:3.53027654"
                 inkscape:connector-curvature="0" /><path
                 d="m 681.35762,1409.3845 v -28.5882 l 20.76509,13.4857 m 11.0074,-9.6094 h -3.53028 v 21.1816 h 3.53028 z m 7.06055,21.1816 h -3.53027 v -21.1816 h 3.53027 z"
                 id="path4690"
                 inkscape:connector-curvature="0"
                 style="fill:#f1f2f2;stroke-width:3.53027654" /><path
                 d="m 477.10994,1397.3145 c -0.1624,-2.7395 -0.36009,-6.0297 -0.32832,-8.4832 h -0.0918 c -0.74841,2.3052 -1.65923,4.7552 -2.7642,7.463 l -3.86212,9.5317 h -2.13935 l -3.53381,-9.3588 c -1.03437,-2.7642 -1.91694,-5.3024 -2.53474,-7.6359 h -0.0706 c -0.0636,2.4535 -0.22241,5.7437 -0.41658,8.688 l -0.58249,8.4197 h -2.69713 l 1.52155,-19.639 h 3.60794 l 3.7315,9.4965 c 0.90375,2.4182 1.6557,4.5752 2.20642,6.6157 h 0.0988 c 0.5472,-1.9805 1.32739,-4.1375 2.3088,-6.6157 l 3.88684,-9.4965 h 3.60441 l 1.35916,19.639 h -2.75362 z m 19.00348,-0.5825 h -8.50444 v 7.0782 h 9.47879 v 2.1288 H 484.78476 V 1386.3 h 11.81937 v 2.1217 h -8.99162 v 6.2098 h 8.50444 v 2.1005 z m 4.65643,9.2034 v -19.6389 h 3.0784 l 7.0076,9.9377 c 1.6204,2.3018 2.8913,4.367 3.9292,6.3793 l 0.0635,-0.028 c -0.25771,-2.623 -0.32125,-5.013 -0.32125,-8.0737 v -8.215 h 2.66183 v 19.6389 h -2.85953 l -6.94758,-9.9659 c -1.52861,-2.1853 -2.98308,-4.427 -4.08453,-6.5558 l -0.10238,0.028 c 0.16592,2.4782 0.233,4.8365 0.233,8.0984 v 8.3915 h -2.6583 z m 24.18593,-19.6389 v 11.6287 c 0,4.3988 2.17818,6.2628 5.10125,6.2628 3.24079,0 5.32012,-1.924 5.32012,-6.2628 v -11.6287 h 2.856 v 11.4487 c 0,6.0368 -3.53381,8.515 -8.27497,8.515 -4.47992,0 -7.85134,-2.3052 -7.85134,-8.3914 V 1386.3 h 2.84894 z"
                 id="path4692"
                 inkscape:connector-curvature="0"
                 style="fill:#ffffff;stroke-width:3.53027654" /><path
                 id="ellipse4694"
                 d="m 606.90754,1257.9356 a 8.4726639,8.1549387 0 0 1 -8.47266,8.1549 8.4726639,8.1549387 0 0 1 -8.47267,-8.1549 8.4726639,8.1549387 0 0 1 8.47267,-8.1549 8.4726639,8.1549387 0 0 1 8.47266,8.1549 z"
                 style="fill:#ffffff;stroke-width:3.53027654"
                 inkscape:connector-curvature="0" /></g><path
               inkscape:connector-curvature="0"
               style="opacity:0.422;fill:#364e59;fill-opacity:0.72687228;stroke:#092f58;stroke-width:0.30000001;stroke-miterlimit:4;stroke-dasharray:none;stroke-opacity:1"
               d="m 318.40068,835.73295 h 561.08476 c 2.0282,0 3.66102,1.63282 3.66102,3.66102 v 83.79661 c 0,2.0282 -1.63282,3.66102 -3.66102,3.66102 H 318.40068 c -2.02821,0 -3.66102,-1.63282 -3.66102,-3.66102 v -83.79661 c 0,-2.0282 1.63281,-3.66102 3.66102,-3.66102 z"
               id="rect4698" /><path
               d="m 977.80937,1536.0148 c 0,15.1389 -48.8407,27.4112 -109.081,27.4112 l -538.08084,0 c -60.24734,0 -109.08106,-12.2723 -109.08106,-27.4112 l 0,-717.59751 c 0,-15.1387 48.84071,-27.4112 109.08106,-27.4112 l 538.08084,0 c 60.2473,0 109.081,12.2725 109.081,27.4112 z"
               stroke-miterlimit="10"
               id="path4696"
               style="fill:url(#linearGradient4600);fill-opacity:1;stroke:#808080;stroke-width:3.51005006;stroke-miterlimit:10;stroke-opacity:1"
               inkscape:connector-curvature="0" /><path
               id="path4934"
               transform="matrix(1.4897117,0,0,1.5214449,217.57686,787.72615)"
               d="m 2.1777344,475.82812 v 16 c 0,9.95035 32.7803746,18.01563 73.2226566,18.01563 H 436.59961 c 40.43755,0 73.22266,-8.06528 73.22266,-18.01563 v -16 c 0,9.95035 -32.78511,18.01563 -73.22266,18.01563 H 75.400391 c -40.442282,0 -73.2226566,-8.06528 -73.2226566,-18.01563 z"
               style="fill:#a6b3b9;fill-opacity:0.79352224;stroke:none;stroke-width:2.3314929;stroke-miterlimit:10;stroke-opacity:1"
               inkscape:connector-curvature="0" /><path
               inkscape:connector-curvature="0"
               style="fill:#a6b3b9;fill-opacity:0.79352224;stroke:none;stroke-width:3.5100503;stroke-miterlimit:10;stroke-opacity:1"
               d="m 224.06526,841.00396 v -24.3431 c 0,-15.1389 48.8333,-27.4098 109.08064,-27.4098 h 538.08271 c 60.24029,0 109.08065,12.2709 109.08065,27.4098 v 24.3431 c 0,-15.1389 -48.84036,-27.4098 -109.08065,-27.4098 H 333.1459 c -60.24734,0 -109.08064,12.2709 -109.08064,27.4098 z"
               id="path4943" /></g></g></g></g></g></svg>