<?xml version="1.0" encoding="UTF-8" standalone="no"?>
<svg
   xmlns:dc="http://purl.org/dc/elements/1.1/"
   xmlns:cc="http://creativecommons.org/ns#"
   xmlns:rdf="http://www.w3.org/1999/02/22-rdf-syntax-ns#"
   xmlns:svg="http://www.w3.org/2000/svg"
   xmlns="http://www.w3.org/2000/svg"
   xmlns:xlink="http://www.w3.org/1999/xlink"
   xmlns:sodipodi="http://sodipodi.sourceforge.net/DTD/sodipodi-0.dtd"
   xmlns:inkscape="http://www.inkscape.org/namespaces/inkscape"
   width="64"
   height="64"
   version="1.1"
   viewBox="0 0 47.999999 47.999999"
   id="svg14"
   sodipodi:docname="stock-trash-full.svg"
   inkscape:version="0.92.2 2405546, 2018-03-11"
   inkscape:export-filename="/home/ilnanny/ces.png"
   inkscape:export-xdpi="96"
   inkscape:export-ydpi="96">
  <metadata
     id="metadata20">
    <rdf:RDF>
      <cc:Work
         rdf:about="">
        <dc:format>image/svg+xml</dc:format>
        <dc:type
           rdf:resource="http://purl.org/dc/dcmitype/StillImage" />
        <dc:title />
      </cc:Work>
    </rdf:RDF>
  </metadata>
  <defs
     id="defs18">
    <pattern
       inkscape:collect="always"
       xlink:href="#pattern2316"
       id="pattern2320"
       patternTransform="matrix(-2.5019203,1.8971587,-1.8333492,-2.4177702,-47.208983,343.21135)" />
    <pattern
       inkscape:collect="always"
       xlink:href="#Strips1_1"
       id="pattern2316"
       patternTransform="matrix(-2.5019203,1.8971587,-1.8333492,-2.4177702,0.7910156,343.21135)" />
    <pattern
       inkscape:stockid="Stripes 1:1"
       id="Strips1_1"
       patternTransform="translate(0,0) scale(10,10)"
       height="1"
       width="2"
       patternUnits="userSpaceOnUse"
       inkscape:collect="always">
      <rect
         id="rect1545"
         height="2"
         width="1"
         y="-0.5"
         x="0"
         style="fill:black;stroke:none" />
    </pattern>
  </defs>
  <sodipodi:namedview
     pagecolor="#ffffff"
     bordercolor="#666666"
     borderopacity="1"
     objecttolerance="10"
     gridtolerance="10"
     guidetolerance="10"
     inkscape:pageopacity="0"
     inkscape:pageshadow="2"
     inkscape:window-width="1920"
     inkscape:window-height="994"
     id="namedview16"
     showgrid="false"
     inkscape:zoom="105.34913"
     inkscape:cx="5.9305676"
     inkscape:cy="31.697731"
     inkscape:window-x="0"
     inkscape:window-y="21"
     inkscape:window-maximized="1"
     inkscape:current-layer="g12"
     units="px" />
  <g
     id="g12"
     transform="translate(0,-336)">
    <rect
       y="336.79086"
       x="0.79086447"
       height="46.41827"
       width="46.41827"
       id="rect2324"
       style="opacity:1;fill:#b9b9b9;fill-opacity:1;stroke:#7b7b7b;stroke-width:1.58172941;stroke-linecap:butt;stroke-linejoin:miter;stroke-miterlimit:4;stroke-dasharray:none;stroke-dashoffset:0;stroke-opacity:0.19607843;paint-order:stroke markers fill" />
    <rect
       y="336.79086"
       x="-47.209133"
       height="46.41827"
       width="46.41827"
       id="rect2318"
       style="opacity:0.31;fill:url(#pattern2320);fill-opacity:1;stroke:none;stroke-width:1.58172941;stroke-linecap:butt;stroke-linejoin:miter;stroke-miterlimit:4;stroke-dasharray:none;stroke-dashoffset:0;stroke-opacity:0.19607843;paint-order:stroke markers fill"
       transform="scale(-1,1)" />
    <rect
       style="opacity:0.479;fill:url(#pattern2316);fill-opacity:1;stroke:none;stroke-width:1.58172941;stroke-linecap:butt;stroke-linejoin:miter;stroke-miterlimit:4;stroke-dasharray:none;stroke-dashoffset:0;stroke-opacity:0.19607843;paint-order:stroke markers fill"
       id="rect826"
       width="46.41827"
       height="46.41827"
       x="0.79086447"
       y="336.79086" />
    <ellipse
       style="opacity:1;fill:#797979;fill-opacity:1;stroke:none;stroke-width:1.5;stroke-linecap:butt;stroke-linejoin:miter;stroke-miterlimit:4;stroke-dasharray:none;stroke-dashoffset:0;stroke-opacity:0.19607843;paint-order:stroke markers fill"
       id="path2322"
       cx="24.094862"
       cy="344.15808"
       rx="23.203857"
       ry="5.7412953" />
    <path
       id="path1548"
       d="m 47.198729,344.94751 c -1.330852,-2.0456 -6.26661,-4.0953 -12.429199,-5.13754 -2.558955,-0.43263 -4.995896,-0.67895 -8.01416,-0.80856 -2.642139,-0.11401 -2.97669,-0.11201 -5.827148,0.007 -8.178831,0.34381 -15.7354546,2.25485 -18.9990229,4.80442 -0.4249649,0.33216 -0.8055655,0.7359 -1.0751952,1.11979 -0.0270503,-0.0374 -0.0383845,-0.071 -0.0629883,-0.10791 v -1.73129 c 0.2713456,-0.41776 0.6692718,-0.86744 1.1381835,-1.23395 3.2635683,-2.54957 10.8201919,-4.46217 18.9990229,-4.80598 2.850458,-0.12002 3.185009,-0.12046 5.827148,-0.006 3.018264,0.1296 5.455205,0.37593 8.01416,0.80855 6.194831,1.0477 11.139616,3.11259 12.439453,5.16883 v 1.90488 c -0.0043,0.006 -0.0058,0.0112 -0.01025,0.0172 z"
       style="opacity:1;fill:#bfbfbf;fill-opacity:1;stroke:none;stroke-width:1.63435602;stroke-linecap:butt;stroke-linejoin:miter;stroke-miterlimit:4;stroke-dasharray:none;stroke-dashoffset:0;stroke-opacity:0.19607843;paint-order:stroke markers fill"
       inkscape:connector-curvature="0" />
    <g
       id="g1558"
       transform="matrix(1,0,0,1.0318099,0,-10.73136)">
      <path
         inkscape:connector-curvature="0"
         id="path8"
         d="m 39.832941,346.17767 c 0,-0.5943 -0.753759,-1.51568 -2.736067,-3.34547 -3.075739,-2.83691 -3.121622,-2.67637 0.897554,-3.1211 1.757919,-0.19445 1.984785,-0.14659 3.01252,0.63918 1.998415,1.52666 5.051846,4.55801 4.57456,4.78337 -0.432669,0.2792 -5.970479,2.17082 -6.488694,2.17082 -0.209511,0 0.740127,-0.67509 0.740127,-1.1268 z m 0,0"
         style="fill:#199968;fill-opacity:0.99607801;stroke-width:0.28463194" />
      <path
         sodipodi:nodetypes="cccsccccccsscccc"
         inkscape:connector-curvature="0"
         id="path10"
         d="m 18.013069,349.11238 c -2.389739,-0.24519 -6.667735,-0.95234 -7.288404,-1.0743 -0.575981,-0.11312 -0.71997,-0.52767 -1.2909819,-1.79093 -0.3780843,-0.83732 -0.6880605,-1.60197 -0.6880605,-1.69803 0,-0.17252 2.8536534,-3.43776 5.1724674,-5.91814 0.651874,-0.69703 1.339217,-1.26957 1.526486,-1.27147 0.485182,-0.006 9.040457,0.91569 9.642687,1.03828 0.335508,0.0683 0.643359,0.38423 0.932054,0.95424 0.236925,0.4689 -0.436622,2.93157 -0.271352,2.98718 0.165988,0.0556 2.505757,-2.15302 3.973367,-2.42159 1.467609,-0.26921 2.862872,-0.48913 3.099797,-0.48913 0.536965,0 7.391252,6.28783 7.391252,6.78011 0,0.40002 -0.03339,0.76465 -0.612858,0.93591 -0.549744,0.16178 -1.468327,0.4828 -2.727399,0.75454 -4.467378,0.96371 -6.667735,1.32582 -12.646002,1.38522 -3.02247,0.0303 -5.798092,-0.12955 -6.213053,-0.17189 z"
         style="fill:#ecf2f3;fill-opacity:1;stroke-width:0.17139734" />
      <path
         inkscape:connector-curvature="0"
         id="path6"
         d="m 7.4542574,347.43346 c -4.1091058,-1.05025 -4.1819674,-1.20232 -4.2317177,-2.64382 -0.021397,-0.64113 -0.051612,-1.27371 -0.065821,-1.40437 -0.03381,-0.30486 8.3035183,-5.05846 8.8987753,-5.07345 0.245224,-0.007 0.765855,0.0864 1.155887,0.20562 l 0.70988,0.21633 -0.689448,0.68827 c -2.811972,2.80518 -4.4049617,4.61437 -4.4049617,5.00133 0,0.24989 0.4184516,1.19234 0.9302136,2.0955 0.5126271,0.90246 0.8991151,1.66712 0.8591321,1.69925 -0.03904,0.0314 -1.5139386,-0.36412 -3.1620202,-0.78466 z m 0,0"
         style="fill:#f88166;fill-opacity:1;stroke-width:0.20389067" />
    </g>
    <path
       style="opacity:1;fill:#9a9a9a;fill-opacity:1;stroke:none;stroke-width:1.6472528;stroke-linecap:butt;stroke-linejoin:miter;stroke-miterlimit:4;stroke-dasharray:none;stroke-dashoffset:0;stroke-opacity:0.19607843;paint-order:stroke markers fill"
       d="m 47.198729,343.46924 c -1.330852,2.07801 -6.26661,4.16019 -12.429199,5.21894 -2.558955,0.43948 -4.995896,0.68972 -8.01416,0.82137 -2.642139,0.11582 -2.97669,0.11379 -5.827148,-0.008 -8.178831,-0.34926 -15.7354546,-2.29058 -18.9990229,-4.88055 -0.4249649,-0.33742 -0.8055655,-0.74756 -1.0751952,-1.13752 -0.0270503,0.0379 -0.0383845,0.0721 -0.0629883,0.10962 v 1.75871 c 0.2713456,0.42439 0.6692718,0.88118 1.1381835,1.2535 3.2635683,2.58997 10.8201919,4.53288 18.9990229,4.88214 2.850458,0.12192 3.185009,0.12236 5.827148,0.006 3.018264,-0.13165 5.455205,-0.38189 8.01416,-0.82136 6.194831,-1.06429 11.139616,-3.1619 12.439453,-5.25072 v -1.93507 c -0.0043,-0.006 -0.0058,-0.0114 -0.01025,-0.0175 z"
       id="rect1544"
       inkscape:connector-curvature="0" />
    <path
       style="opacity:0.49;fill:#ffffff;fill-opacity:1;stroke:none;stroke-width:1.36671841;stroke-linecap:butt;stroke-linejoin:miter;stroke-miterlimit:4;stroke-dasharray:none;stroke-dashoffset:0;stroke-opacity:0.19607843;paint-order:stroke markers fill"
       d="m 2.8999489,348.47314 v 33.01613 H 45.10005 v -33.01613 l -2.411777,1.43098 0,28.81968 H 5.3117266 v -28.37249 z"
       id="rect2345"
       inkscape:connector-curvature="0"
       sodipodi:nodetypes="ccccccccc" />
  </g>
</svg>
