<?xml version="1.0" encoding="UTF-8" standalone="no"?>
<!-- Created with Inkscape (http://www.inkscape.org/) -->

<svg
   xmlns:dc="http://purl.org/dc/elements/1.1/"
   xmlns:cc="http://creativecommons.org/ns#"
   xmlns:rdf="http://www.w3.org/1999/02/22-rdf-syntax-ns#"
   xmlns:svg="http://www.w3.org/2000/svg"
   xmlns="http://www.w3.org/2000/svg"
   xmlns:xlink="http://www.w3.org/1999/xlink"
   xmlns:sodipodi="http://sodipodi.sourceforge.net/DTD/sodipodi-0.dtd"
   xmlns:inkscape="http://www.inkscape.org/namespaces/inkscape"
   id="svg3108"
   sodipodi:docname="window.svg"
   viewBox="0 0 256 256"
   version="1.1"
   inkscape:version="0.91 r13725">
  <defs
     id="defs3110">
    <linearGradient
       id="linearGradient4135"
       y2="1041.5"
       xlink:href="#linearGradient5896"
       gradientUnits="userSpaceOnUse"
       x2="445.61"
       gradientTransform="matrix(1.7541 0 0 1.9199 -536.77 -1057.6)"
       y1="1041.5"
       x1="312.83"
       inkscape:collect="always" />
    <linearGradient
       id="linearGradient5896"
       y2="174.63"
       gradientUnits="userSpaceOnUse"
       y1="158.73"
       x2="119.44"
       x1="119.44">
      <stop
         id="stop5898"
         style="stop-color:#000000"
         offset="0" />
      <stop
         id="stop5900"
         style="stop-color:#0F0A07"
         offset=".0486" />
      <stop
         id="stop5902"
         style="stop-color:#36241B"
         offset=".142" />
      <stop
         id="stop5904"
         style="stop-color:#754D3A"
         offset=".2706" />
      <stop
         id="stop5906"
         style="stop-color:#CB8664"
         offset=".4279" />
      <stop
         id="stop5908"
         style="stop-color:#F5A279"
         offset=".5" />
      <stop
         id="stop5910"
         style="stop-color:#E69872"
         offset=".5173" />
      <stop
         id="stop5912"
         style="stop-color:#AA7054"
         offset=".5937" />
      <stop
         id="stop5914"
         style="stop-color:#764E3A"
         offset=".6698" />
      <stop
         id="stop5916"
         style="stop-color:#4C3225"
         offset=".7436" />
      <stop
         id="stop5918"
         style="stop-color:#2B1C15"
         offset=".8149" />
      <stop
         id="stop5920"
         style="stop-color:#130D09"
         offset=".8828" />
      <stop
         id="stop5922"
         style="stop-color:#050302"
         offset=".9461" />
      <stop
         id="stop5924"
         style="stop-color:#000000"
         offset="1" />
    </linearGradient>
    <linearGradient
       id="linearGradient3183-0">
      <stop
         id="stop3185-9"
         style="stop-color:#c80000"
         offset="0" />
      <stop
         id="stop4078"
         style="stop-color:#ffffff"
         offset=".5" />
      <stop
         id="stop3187-6"
         style="stop-color:#ac1e0c"
         offset="1" />
    </linearGradient>
    <linearGradient
       id="linearGradient4046"
       y2="993"
       xlink:href="#linearGradient5896"
       gradientUnits="userSpaceOnUse"
       x2="450.27"
       y1="993"
       x1="310.22"
       inkscape:collect="always" />
    <filter
       id="filter10284"
       color-interpolation-filters="sRGB"
       inkscape:collect="always">
      <feGaussianBlur
         id="feGaussianBlur10286"
         stdDeviation="0.3451458"
         inkscape:collect="always" />
    </filter>
    <filter
       id="filter4100"
       width="1.0864"
       y="-.51526"
       x="-.043188"
       height="2.0305"
       color-interpolation-filters="sRGB"
       inkscape:collect="always">
      <feGaussianBlur
         id="feGaussianBlur4102"
         stdDeviation="2.524776"
         inkscape:collect="always" />
    </filter>
    <linearGradient
       id="linearGradient4056"
       y2="986.58"
       xlink:href="#linearGradient5896"
       gradientUnits="userSpaceOnUse"
       x2="449.2"
       gradientTransform="matrix(1.7789 0 0 1.6856 -546.52 -826.17)"
       y1="986.58"
       x1="308.9"
       inkscape:collect="always" />
    <radialGradient
       id="radialGradient4125"
       gradientUnits="userSpaceOnUse"
       cy="1041"
       cx="379.22"
       gradientTransform="matrix(1 0 0 .68251 0 330.51)"
       r="70.264"
       inkscape:collect="always">
      <stop
         id="stop4024"
         style="stop-color:#636363"
         offset="0" />
      <stop
         id="stop4026"
         style="stop-color:#636363;stop-opacity:0"
         offset="1" />
    </radialGradient>
    <filter
       id="filter4121"
       color-interpolation-filters="sRGB"
       inkscape:collect="always">
      <feGaussianBlur
         id="feGaussianBlur4123"
         stdDeviation="1.1510402"
         inkscape:collect="always" />
    </filter>
    <linearGradient
       id="linearGradient3253"
       y2="1115.8"
       xlink:href="#linearGradient5896"
       gradientUnits="userSpaceOnUse"
       y1="978.53"
       gradientTransform="matrix(1.7789 0 0 1.9302 -546.52 -1065.6)"
       x2="348.57"
       x1="339.79"
       inkscape:collect="always" />
    <radialGradient
       id="radialGradient5339"
       xlink:href="#linearGradient5896"
       gradientUnits="userSpaceOnUse"
       cy="118.54"
       cx="-93.709"
       r="6.4166"
       inkscape:collect="always" />
  </defs>
  <sodipodi:namedview
     id="base"
     bordercolor="#666666"
     inkscape:pageshadow="2"
     inkscape:window-y="23"
     pagecolor="#ffffff"
     inkscape:window-height="973"
     inkscape:window-maximized="1"
     inkscape:zoom="2.8"
     inkscape:window-x="0"
     showgrid="false"
     borderopacity="1.0"
     inkscape:current-layer="layer1"
     inkscape:cx="134.91444"
     inkscape:cy="20.657518"
     inkscape:window-width="1280"
     inkscape:pageopacity="0.0"
     inkscape:document-units="px" />
  <g
     id="layer1"
     inkscape:label="Livello 1"
     inkscape:groupmode="layer"
     transform="translate(0 -796.36)">
    <rect
       id="rect4020"
       style="stroke-linejoin:round;fill-rule:evenodd;stroke:url(#linearGradient3253);stroke-width:2.5123;fill:#a0a0a0"
       rx="3.7674"
       ry="5.4222"
       height="212.77"
       width="249.99"
       y="823.55"
       x="3.0775" />
    <rect
       id="rect3248"
       style="opacity:0.92;fill-rule:evenodd;fill:#acacac"
       rx="6.6899"
       ry="7.3488"
       height="26.429"
       width="249.59"
       y="823.55"
       x="2.9783" />
    <rect
       id="rect4018"
       style="opacity:.86471;fill-rule:evenodd;filter:url(#filter4121);stroke:url(#radialGradient4125);fill:#f3f0e9"
       transform="matrix(1.7166 0 0 1.7415 -522.88 -874.34)"
       rx="2.1178"
       ry="2.4442"
       height="95.912"
       width="140.53"
       y="993.06"
       x="308.95" />
    <rect
       id="rect4048"
       style="opacity:.93333;fill-rule:evenodd;stroke:url(#linearGradient4056);stroke-width:1.7316;fill:#acacac"
       rx="6.6899"
       ry="7.3488"
       height="26.429"
       width="249.59"
       y="823.55"
       x="2.9783" />
    <rect
       id="rect4098"
       style="opacity:.66667;filter:url(#filter4100);fill-rule:evenodd;fill:#ffffff"
       transform="matrix(1.7789 0 0 1.6856 -546.52 -826.17)"
       rx="3.7607"
       ry="3.27"
       height="11.76"
       width="140.3"
       y="978.74"
       x="308.9" />
    <path
       id="path10264"
       style="filter:url(#filter10284);stroke:url(#linearGradient4046);stroke-width:3.3763;fill:none"
       inkscape:connector-curvature="0"
       d="m313.46 993h133.57"
       transform="matrix(1.871 0 0 1.6801 -583.32 -820.67)" />
    <ellipse
       id="path4082"
       style="stroke-linejoin:round;fill-rule:evenodd;stroke:url(#radialGradient5339);stroke-width:1.6;fill:#ffc022;fill-opacity:1"
       transform="matrix(1.0532 0 0 1.012 304.35 714.59)"
       d="m -88.092379,118.54041 a 5.6166282,5.6166282 0 0 1 -5.616628,5.61663 5.6166282,5.6166282 0 0 1 -5.616628,-5.61663 5.6166282,5.6166282 0 0 1 5.616628,-5.61663 5.6166282,5.6166282 0 0 1 5.616628,5.61663 z"
       sodipodi:type="arc"
       sodipodi:ry="5.6166282"
       sodipodi:rx="5.6166282"
       sodipodi:cy="118.54041"
       sodipodi:cx="-93.709007" />
    <ellipse
       id="path4084"
       style="stroke-linejoin:round;fill-rule:evenodd;stroke:url(#radialGradient5339);stroke-width:1.6;fill:#00be00;fill-opacity:1"
       transform="matrix(1.0532 0 0 1.012 321.2 714.59)"
       d="m -88.092379,118.54041 a 5.6166282,5.6166282 0 0 1 -5.616628,5.61663 5.6166282,5.6166282 0 0 1 -5.616628,-5.61663 5.6166282,5.6166282 0 0 1 5.616628,-5.61663 5.6166282,5.6166282 0 0 1 5.616628,5.61663 z"
       sodipodi:type="arc"
       sodipodi:ry="5.6166282"
       sodipodi:rx="5.6166282"
       sodipodi:cy="118.54041"
       sodipodi:cx="-93.709007" />
    <path
       id="path4090"
       sodipodi:rx="5.6166282"
       sodipodi:ry="5.6166282"
       style="stroke-linejoin:round;fill-rule:evenodd;stroke:url(#radialGradient5339);stroke-width:1.6;fill:#f40000;fill-opacity:1"
       sodipodi:type="arc"
       d="m -88.092379,118.54041 a 5.6166282,5.6166282 0 0 1 -5.616628,5.61663 5.6166282,5.6166282 0 0 1 -5.616628,-5.61663 5.6166282,5.6166282 0 0 1 5.616628,-5.61663 5.6166282,5.6166282 0 0 1 5.616628,5.61663 z"
       transform="matrix(1.0532 0 0 1.012 338.05 714.59)"
       sodipodi:cy="118.54041"
       sodipodi:cx="-93.709007" />
    <rect
       id="rect4127"
       style="opacity:.86471;stroke:url(#linearGradient4135);stroke-width:2.146;fill:none"
       rx="0"
       ry="0"
       height="163.31"
       width="231.15"
       y="860.2"
       x="12.852" />
    <rect
       id="rect3792"
       style="fill:#f7fcff;stroke:#090909;stroke-width:0.65912706;stroke-linecap:round;stroke-linejoin:round;stroke-miterlimit:3.79999995;stroke-dashoffset:8.58279991;fill-opacity:0.60728747"
       rx="4.8817253"
       ry="3.4354382"
       height="9.8153696"
       width="84.31987"
       y="873.0976"
       x="151.78757" />
    <rect
       id="rect3794"
       style="fill:none;stroke:#0f0f0f;stroke-width:0.95859718;stroke-linecap:round;stroke-linejoin:round;stroke-miterlimit:3.5999999;stroke-dashoffset:8.58279991"
       rx="0.31157899"
       ry="1.5002788"
       height="129.45709"
       width="40.816902"
       y="887.84863"
       x="198.2663" />
    <rect
       id="rect3796"
       style="fill:#f7fcff;stroke:#0f0f0f;stroke-width:0.7687065;stroke-linecap:round;stroke-linejoin:round;stroke-miterlimit:3.5999999;stroke-dashoffset:8.58279991;fill-opacity:0.60728747"
       rx="0.29083201"
       ry="1.7745022"
       height="21.800972"
       width="32.863869"
       y="894.73212"
       x="202.62915" />
    <rect
       id="rect3798"
       style="fill:#f7fcff;stroke:#0f0f0f;stroke-width:0.7687065;stroke-linecap:round;stroke-linejoin:round;stroke-miterlimit:3.5999999;stroke-dashoffset:8.58279991;fill-opacity:0.60728747"
       rx="0.29083201"
       ry="1.7745022"
       height="21.800972"
       width="32.863869"
       y="925.23267"
       x="202.62915" />
    <rect
       id="rect3800"
       style="fill:#f7fcff;stroke:#0f0f0f;stroke-width:0.7687065;stroke-linecap:round;stroke-linejoin:round;stroke-miterlimit:3.5999999;stroke-dashoffset:8.58279991;fill-opacity:0.60728747"
       rx="0.29083201"
       ry="1.7745022"
       height="21.800972"
       width="32.863869"
       y="955.73334"
       x="202.62915" />
    <rect
       id="rect3802"
       style="fill:#f7fcff;stroke:#0f0f0f;stroke-width:0.7687065;stroke-linecap:round;stroke-linejoin:round;stroke-miterlimit:3.5999999;stroke-dashoffset:8.58279991;fill-opacity:0.60728747"
       rx="0.29083201"
       ry="1.7745022"
       height="21.800972"
       width="32.863869"
       y="987.85327"
       x="202.62915" />
    <path
       id="path3912"
       d="m14.183 872.12-0.0051-10.519 228.5 0.0509 0.2397 10.565s-0.59116-2.011-1.6738-2.7744c-1.0118-0.71342-2.7163-1.4331-4.1461-1.4334-68.839-0.0132-146.39 0.49462-216.76 0.24749-1.3049-0.004-3.1333 0.42358-4.1904 1.0441-1.2417 0.72891-1.2945 1.6551-1.9695 2.8192z"
       sodipodi:nodetypes="ccccassac"
       style="fill-opacity:.76080;stroke:#ffffff;stroke-width:.36954;fill:#323232"
       inkscape:connector-curvature="0" />
    <path
       id="path6472"
       d="m 232.20368,881.97746 c 0.12057,-0.12738 0.21901,-0.31642 0.21901,-0.42082 0,-0.10449 -0.47316,-0.69811 -1.05148,-1.31956 l -1.05145,-1.13005 0.23044,-0.65 c 0.45243,-1.27683 0.21698,-2.4045 -0.70523,-3.37829 -0.44087,-0.46549 -0.71105,-0.64402 -1.20334,-0.79515 -1.43438,-0.44029 -2.85622,0.21834 -3.55196,1.6456 -1.03231,2.11744 0.62935,4.70426 2.89898,4.51319 0.36129,-0.0302 0.84173,-0.14914 1.06759,-0.26436 l 0.41075,-0.20893 1.07936,1.11977 c 0.59367,0.61584 1.16017,1.11973 1.25892,1.11973 0.0987,0 0.27813,-0.1041 0.39855,-0.2311 z m -5.60389,-2.76585 c -1.38796,-1.00425 -1.22534,-3.22684 0.28922,-3.95332 0.90253,-0.43288 1.96077,-0.13537 2.61676,0.73529 0.37537,0.49834 0.50711,1.4136 0.29929,2.07874 -0.14746,0.47144 -0.69915,1.10079 -1.15968,1.32257 -0.50687,0.2442 -1.58883,0.14713 -2.04564,-0.18341 z"
       style="fill:none;stroke:#090909;stroke-width:0.65912706;stroke-miterlimit:3.79999995;enable-background:new"
       inkscape:connector-curvature="0" />
    <g
       id="g5289"
       style="stroke:#191919;stroke-width:.5"
       transform="matrix(1.0661 0 0 .98133 -1.121 16.225)">
      <rect
         id="rect3790"
         style="fill:none;stroke:#191919;stroke-width:0.52529454;stroke-linecap:round;stroke-dashoffset:8.58279991"
         rx="3.8621159"
         ry="2.2853959"
         height="143.98195"
         width="24.644945"
         y="873.83905"
         x="16.224024" />
      <rect
         id="rect3969"
         style="fill:#f7fcff;stroke:#191919;stroke-width:0.5;stroke-linecap:round;stroke-dashoffset:8.58279991;fill-opacity:0.69230771"
         rx="3.7818"
         ry="2.5648"
         height="21.657"
         width="19.422001"
         y="879.27002"
         x="18.821428" />
      <rect
         id="rect3971"
         style="fill:#f7fcff;stroke:#191919;stroke-width:0.5;stroke-linecap:round;stroke-dashoffset:8.58279991;fill-opacity:0.69230771"
         rx="3.7818"
         ry="2.5648"
         height="21.657"
         width="19.422001"
         y="907.96002"
         x="18.821428" />
      <rect
         id="rect3973"
         style="fill:#f7fcff;stroke:#191919;stroke-width:0.5;stroke-linecap:round;stroke-dashoffset:8.58279991;fill-opacity:0.69230771"
         rx="3.7818"
         ry="2.5648"
         height="21.657"
         width="19.422001"
         y="937.23999"
         x="18.821428" />
      <rect
         id="rect3975"
         style="fill:#f7fcff;stroke:#191919;stroke-width:0.5;stroke-linecap:round;stroke-dashoffset:8.58279991;fill-opacity:0.69230771"
         rx="3.7818"
         ry="2.5648"
         height="21.657"
         width="19.422001"
         y="964.77002"
         x="18.821428" />
      <rect
         id="rect3977"
         style="fill:#f7fcff;stroke:#191919;stroke-width:0.5;stroke-linecap:round;stroke-dashoffset:8.58279991;fill-opacity:0.69230771"
         rx="3.7818"
         ry="2.5648"
         height="21.657"
         width="19.422001"
         y="990.84998"
         x="18.821428" />
      <path
         id="path6459"
         style="fill:none;stroke:#191919;stroke-width:0.5;enable-background:new"
         inkscape:connector-curvature="0"
         d="m 27.504427,928.03 c -0.17944,-0.18125 -0.32624,-0.64798 -0.32624,-1.0374 0,-0.82253 -0.29004,-1.104 -1.6315,-1.5836 -0.90682,-0.32413 -1.0224,-0.30591 -1.6135,0.25487 -0.77243,0.73266 -1.3758,0.65244 -2.0601,-0.27385 -0.51539,-0.69761 -0.51536,-0.69787 0.07131,-1.4991 0.4397,-0.60046 0.54114,-0.9891 0.40451,-1.5498 -0.31404,-1.2888 -0.88113,-1.9383 -1.6923,-1.9383 -0.92775,0 -1.3994,-0.54065 -1.289,-1.4777 0.08779,-0.74444 0.3359,-0.94518 1.6558,-1.3392 0.60542,-0.18073 0.8734,-0.48938 1.1679,-1.3454 0.36378,-1.0574 0.35289,-1.1509 -0.22578,-1.9412 l -0.608,-0.83027 0.51547,-0.69772 c 0.67838,-0.9183 1.2868,-1.0074 2.0348,-0.2979 0.55766,0.52899 0.69949,0.55128 1.6135,0.25385 1.3602,-0.44256 1.6568,-0.72529 1.6568,-1.5792 0,-0.95048 0.54389,-1.3783 1.6198,-1.274 0.74782,0.0724 0.8804,0.19412 0.95566,0.8774 0.11173,1.0144 0.65809,1.6207 1.8046,2.0027 0.79869,0.26612 1.005,0.23453 1.6601,-0.25437 0.93954,-0.70132 1.0725,-0.69725 1.7712,0.0536 0.69988,0.75215 0.71201,1.1048 0.0664,1.9333 -0.90837,1.1659 0.0829,3.1702 1.6435,3.3233 0.78942,0.0775 0.82374,0.13027 0.82374,1.267 0,0.98331 -0.0896,1.1999 -0.52381,1.2663 -1.7025,0.26007 -1.7321,0.28613 -2.2326,1.9675 -0.16116,0.54178 -0.0901,0.87682 0.2892,1.3638 0.65686,0.8431 0.63448,1.2707 -0.10324,1.9704 -0.74766,0.70913 -0.80639,0.70933 -1.7494,0.005 -0.74751,-0.55792 -0.78698,-0.56019 -1.9541,-0.11019 -1.1688,0.45065 -1.2863,0.61673 -1.5096,2.1339 -0.0579,0.39418 -0.311,0.54873 -0.99345,0.60702 -0.50357,0.043 -1.0624,-0.07 -1.2418,-0.25127 z m 2.7424,-5.6891 c 1.2119,-0.58063 1.9055,-1.7673 1.9055,-3.2603 0,-3.8347 -4.8099,-5.0972 -6.8088,-1.7872 -0.64221,1.0635 -0.66301,2.1641 -0.06359,3.3685 0.94142,1.8918 3.0413,2.6016 4.967,1.679 z" />
      <path
         id="path4574"
         sodipodi:nodetypes="sssssss"
         style="fill:none;stroke:#191919;stroke-width:0.5;enable-background:new"
         inkscape:connector-curvature="0"
         d="m 28.698427,939.78 c -4.6498,0 -8.3748,3.7657 -8.3748,8.4602 l 0,6.3439 c 0,1.1736 0.92886,2.1114 2.0913,2.1114 l 6.2835,0 c 4.6498,0 8.3796,-3.7608 8.3796,-8.4553 0,-4.6945 -3.7298,-8.4602 -8.3796,-8.4602 z" />
      <path
         id="path6496"
         style="fill:none;stroke:#191919;stroke-width:0.5;enable-background:new"
         inkscape:connector-curvature="0"
         d="m 26.326427,984.22 c -4.4752,-1.2682 -7.3488,-5.8088 -6.4607,-10.209 0.7463,-3.697 3.4333,-6.4098 7.095,-7.1632 4.4563,-0.91693 8.951,2.0776 10.138,6.7542 0.71541,2.8194 -0.22269,6.1212 -2.3505,8.2725 -2.1106,2.134 -5.6695,3.125 -8.4215,2.3452 z m -0.76659,-3.097 c 0.38368,-0.64131 0.69762,-1.2266 0.69762,-1.3006 0,-0.0739 -0.33077,-0.4155 -0.73505,-0.75894 -0.40428,-0.34344 -0.92255,-1.0975 -1.1517,-1.6757 l -0.41663,-1.0512 -1.3282,0.17764 c -0.73054,0.0978 -1.4147,0.25897 -1.5204,0.35837 -0.43437,0.40845 0.68539,2.719 1.9631,4.0509 0.7205,0.75101 1.4188,1.3655 1.5518,1.3655 0.1331,0 0.55573,-0.52471 0.93941,-1.166 z m 4.757,-2.5923 c 0.97584,-0.582 1.5362,-1.6466 1.5362,-2.9183 0,-2.0194 -1.4332,-3.4327 -3.4497,-3.402 -1.9542,0.0299 -3.222,1.3684 -3.222,3.402 0,2.084 1.2237,3.3085 3.326,3.328 0.60792,0.005 1.4222,-0.17867 1.8095,-0.4097 z m 4.6722,-3.9292 c 0.53568,-0.12538 1.0233,-0.27807 1.0837,-0.33899 0.23119,-0.23351 -0.70416,-2.3835 -1.4898,-3.4243 -0.90481,-1.1987 -2.1574,-2.083 -2.462,-1.7381 -0.10735,0.12151 -0.45741,0.70482 -0.77817,1.2964 l -0.58318,1.0756 0.77313,0.65678 c 0.42521,0.36123 0.95646,1.1194 1.1806,1.6849 0.4372,1.1032 0.63582,1.1719 2.2758,0.78765 z" />
      <g
         id="g3808"
         style="fill:none;stroke:#191919;stroke-width:1.33510005"
         transform="matrix(0.37273,0,0,0.37631,19.503427,881.34)">
        <path
           id="path2589"
           d="m 38,44.834 c 0,1.6204 -6.268,2.934 -14,2.934 -7.732,0 -14,-1.314 -14,-2.934 0,-1.62 6.268,-2.934 14,-2.934 7.732,0 14,1.314 14,2.934 z"
           style="opacity:0.77272997;fill:none;stroke:#191919;stroke-width:1.33510005"
           inkscape:connector-curvature="0" />
        <path
           id="rect1789"
           d="m 17.859,36.589 c 0,0 0.14177,4.0828 -0.56534,5.0344 -0.70712,0.95163 -2.1141,0.96273 -2.1141,0.96273 -0.90289,0.09998 -0.91036,1.914 0,1.914 l 17.64,0 c 0.91036,0 0.90308,-1.8153 0,-1.914 0,0 -1.407,-0.0111 -2.1141,-0.96273 -0.70711,-0.95163 -0.56542,-5.0344 -0.56542,-5.0344 l -12.281,0 z"
           style="opacity:0.69251003;fill:none;stroke:#191919;stroke-width:1.33510005;stroke-linecap:round;stroke-dashoffset:0.5;enable-background:new"
           inkscape:connector-curvature="0" />
        <path
           id="path3804"
           style="opacity:0.99465003;fill:none;stroke:#191919;stroke-width:1.33510005"
           inkscape:connector-curvature="0"
           d="m 37.335,44.17 c 0,1.1474 -5.8674,2.0776 -13.105,2.0776 -7.2378,0 -13.105,-0.93016 -13.105,-2.0776 0,-1.14744 5.8674,-2.0776 13.105,-2.0776 7.2378,0 13.105,0.93016 13.105,2.0776 z" />
        <rect
           id="rect2722"
           style="fill:none;stroke:#191919;stroke-width:1.33510005;stroke-linecap:round;stroke-dashoffset:0.5"
           rx="1.0444"
           ry="1"
           height="33"
           width="47"
           y="3.5000999"
           x="0.50011998" />
        <rect
           id="rect2716"
           style="fill:none;stroke:#191919;stroke-width:1.33510005;enable-background:new"
           height="28"
           width="42"
           y="6"
           x="3" />
        <path
           id="path6270"
           d="m 30.058,20.53 c -0.64332,0.03859 -1.26,0.15946 -1.875,0.375 l 4.4688,4.4688 -1.4375,2.8438 -2.8438,1.4062 -4.4688,-4.4375 c -0.87553,2.466 -0.31626,5.3087 1.6562,7.2812 1.97246,1.9725 4.8152,2.5005 7.2812,1.625 l 1.6562,1.6562 8.1562,0 c 0.10346,0 0.2118,-0.02152 0.3125,-0.03125 l -5.875,-5.875 c 0.86217,-2.46 0.30916,-5.3158 -1.6562,-7.2812 -1.4741,-1.4741 -3.445,-2.147 -5.375,-2.0312 z"
           style="color:#000000;opacity:0.2;fill:none;stroke:#191919;stroke-width:1.33510005;stroke-linecap:round;stroke-dashoffset:1.39999998"
           inkscape:connector-curvature="0" />
        <g
           id="g3199"
           style="fill:none;stroke:#191919;stroke-width:1.51830006"
           transform="matrix(0.87569,0,0,0.88296,-49.815,-2.7609)">
          <path
             id="path3193"
             d="m 32.5,24.188 c -2.3628,1.1247 -4,3.5229 -4,6.3125 0,2.7896 1.6371,5.1878 4,6.3125 l 0,18.538 6.0312,0 0,-18.538 c 2.349,-1.13 3.969,-3.533 3.969,-6.313 0,-2.7795 -1.6196,-5.1827 -3.9688,-6.3125 l 0,6.3125 -3.0156,1 -3.0156,-1 0,-6.3125 z"
             style="color:#000000;fill:none;stroke:#191919;stroke-width:1.51830006;stroke-linecap:round;stroke-dashoffset:1.39999998"
             transform="matrix(0.70711,-0.70711,0.70711,0.70711,44.02,36.468)"
             inkscape:connector-curvature="0" />
          <path
             id="path3195"
             d="m 31.5,26.344 c -1.1409,1.0883 -2,2.4483 -2,4.1562 0,2.4005 1.409,4.4407 3.4375,5.4062 0.34734,0.16748 0.56656,0.52066 0.5625,0.90625 l 0,18.93 4.0312,0 0,-18.93 c -0.0041,-0.38559 0.21516,-0.73877 0.5625,-0.90625 2.013,-0.969 3.406,-3.014 3.406,-5.407 0,-1.6978 -0.84276,-3.0662 -1.9688,-4.1562 l 0,4.1562 c -0.0036,0.42786 -0.28051,0.80544 -0.6875,0.9375 l -3.0312,1 c -0.20292,0.06717 -0.42208,0.06717 -0.625,0 l -3,-1 c -0.407,-0.133 -0.684,-0.51 -0.688,-0.938 l 0,-4.1562 z"
             style="color:#000000;opacity:0.4;fill:none;stroke:#191919;stroke-width:1.51830006;stroke-linecap:round;stroke-dashoffset:1.39999998"
             transform="matrix(0.70711,-0.70711,0.70711,0.70711,44.02,36.468)"
             inkscape:connector-curvature="0" />
          <rect
             id="rect3197"
             style="color:#000000;opacity:0.4;fill:none;stroke:#191919;stroke-width:1.51830006;stroke-linecap:round;stroke-dashoffset:1.39999998"
             rx="1"
             ry="1"
             transform="matrix(0.70711,-0.70711,0.70711,0.70711,44.02,36.468)"
             width="2"
             y="37.5"
             x="34.5"
             height="15" />
        </g>
      </g>
      <g
         id="layer1-6"
         style="fill:none;stroke:#191919;stroke-width:1.20070004"
         transform="matrix(0.39177,0,0,0.44264,19.179427,990.62)">
        <path
           id="path2538"
           style="opacity:0.98000004;fill:none;stroke:#191919;stroke-width:1.20070004"
           inkscape:connector-curvature="0"
           d="m 28.575,35.052 c -0.20083,0.17322 -4.6335,4.8816 -4.6335,4.8816 0,0 -4.3905,-4.7482 -4.5552,-4.8816 0.29438,-0.22117 1.4959,-1.0909 4.5648,-1.0785 3.0197,0.01221 4.394,0.86413 4.624,1.0785 z" />
        <path
           id="path3366"
           style="opacity:0.4;fill:none;stroke:#191919;stroke-width:1.20070004"
           inkscape:connector-curvature="0"
           d="m 19.772,35.411 c 0,0 0.88257,-0.90592 4.1516,-0.90592 3.2892,0 4.3173,0.94856 4.3173,0.94856 m -14.383,-6.117 c 0,0 2.4552,-3.354 10.043,-3.354 7.6343,0 10.021,3.3007 10.021,3.3007 m -25.779,-6.473 c 0,0 4.961,-5.3448 15.736,-5.3448 10.83,0 15.885,5.3962 15.885,5.3962 m -37.714,-6.535 c 0,0 6.9352,-7.8576 21.788,-7.8576 14.928,0 22.083,7.8576 22.083,7.8576" />
        <path
           id="path2853"
           style="color:#000000;fill:none;stroke:#191919;stroke-width:1.20070004;stroke-dashoffset:0.06"
           inkscape:connector-curvature="0"
           d="m 24,33.562 c -1.825,0 -3.5332,0.51183 -5,1.375 l 5,5 5,-5 c -1.4668,-0.86317 -3.175,-1.375 -5,-1.375 z" />
        <path
           id="path2851"
           style="color:#000000;fill:none;stroke:#191919;stroke-width:1.20070004;stroke-dashoffset:0.06"
           inkscape:connector-curvature="0"
           d="m 24,24.562 c -4.3194,0 -8.2879,1.4652 -11.469,3.9062 l 3.969,3.97 c 2.1186,-1.409 4.6399,-2.25 7.375,-2.25 2.8013,0 5.3825,0.87167 7.5312,2.3438 l 4.0625,-4.0625 c -3.18,-2.442 -7.149,-3.908 -11.468,-3.908 z" />
        <path
           id="path2849"
           style="color:#000000;fill:none;stroke:#191919;stroke-width:1.20070004;stroke-dashoffset:0.06"
           inkscape:connector-curvature="0"
           d="m 24,16.062 c -6.6699,0 -12.782,2.3796 -17.531,6.3438 l 3.5625,3.5625 c 3.831,-3.072 8.675,-4.906 13.968,-4.906 5.2935,0 10.137,1.8334 13.969,4.9062 L 41.531,22.406 C 36.781,18.442 30.669,16.062 23.999,16.062 Z" />
        <path
           id="path4112-19-69-3"
           style="color:#000000;fill:none;stroke:#191919;stroke-width:1.20070004;stroke-dashoffset:0.06"
           inkscape:connector-curvature="0"
           d="m 24,7.5625 c -9.0179,0 -17.26,3.3185 -23.562,8.8125 L 4,19.938 c 5.3895,-4.592 12.365,-7.375 20,-7.375 7.6353,0 14.611,2.783 20,7.375 l 3.562,-3.563 C 41.26,10.881 33.018,7.5625 24,7.5625 Z" />
        <path
           id="path4112-19-69-3-3"
           style="color:#000000;opacity:0.1;fill:none;stroke:#191919;stroke-width:1.20070004;stroke-dashoffset:0.06"
           inkscape:connector-curvature="0"
           d="m 20.337,35.584 c 0.38471,-0.46644 2.4331,-0.92244 3.6381,-0.88918 1.205,0.03326 3.4278,0.4072 3.7114,0.81356" />
        <path
           id="path4112-19-69-3-3-8"
           style="color:#000000;opacity:0.1;fill:none;stroke:#191919;stroke-width:1.20070004;stroke-dashoffset:0.06"
           inkscape:connector-curvature="0"
           d="m 13.811,28.98 c 2.8185,-2.1707 6.6014,-3.2981 10.189,-3.2471 3.5501,-0.05043 7.3718,1.0146 10.172,3.2589" />
        <path
           id="path4112-19-69-3-3-9"
           style="color:#000000;opacity:0.1;fill:none;stroke:#191919;stroke-width:1.20070004;stroke-dashoffset:0.06"
           inkscape:connector-curvature="0"
           d="m 7.6628,22.853 c 4.3772,-3.411 10.071,-5.579 15.663,-5.645 6.014,-0.238 12.359,1.946 17.006,5.701" />
        <path
           id="path4112-19-69-3-3-9-7"
           style="color:#000000;opacity:0.1;fill:none;stroke:#191919;stroke-width:1.20070004;stroke-dashoffset:0.06"
           inkscape:connector-curvature="0"
           d="m 1.6103,16.854 c 5.9322,-4.922 13.73,-8.0109 21.497,-8.1015 8.209,-0.3231 16.95,2.7255 23.26,8.1055" />
      </g>
    </g>
    <path
       id="rect5322"
       sodipodi:nodetypes="ccccc"
       style="opacity:.26380;fill-opacity:.76080;fill:#fcfcfc"
       inkscape:connector-curvature="0"
       d="m12.852 860.2 66.506-1.07 107.14 165.47-173.65-1.1z" />
  </g>
  <metadata
     id="metadata106">
    <rdf:RDF>
      <cc:Work>
        <dc:format>image/svg+xml</dc:format>
        <dc:type
           rdf:resource="http://purl.org/dc/dcmitype/StillImage" />
        <cc:license
           rdf:resource="http://creativecommons.org/licenses/publicdomain/" />
        <dc:publisher>
          <cc:Agent
             rdf:about="http://openclipart.org/">
            <dc:title>Openclipart</dc:title>
          </cc:Agent>
        </dc:publisher>
        <dc:title>windows</dc:title>
        <dc:date>2012-02-11T22:05:57</dc:date>
        <dc:description>Part  the my Icontheme for Gnome.\nGhnomix :http://ilnanny.deviantart.com/art/Ghnomix-283689300</dc:description>
        <dc:source>https://openclipart.org/detail/168115/windows-by-ilnanny</dc:source>
        <dc:creator>
          <cc:Agent>
            <dc:title>ilnanny</dc:title>
          </cc:Agent>
        </dc:creator>
        <dc:subject>
          <rdf:Bag>
            <rdf:li>Part  the my Icontheme for Gnome.\nGhnomix :http://ilnanny.deviantart.com/art/Ghnomix-283689300</rdf:li>
          </rdf:Bag>
        </dc:subject>
      </cc:Work>
      <cc:License
         rdf:about="http://creativecommons.org/licenses/publicdomain/">
        <cc:permits
           rdf:resource="http://creativecommons.org/ns#Reproduction" />
        <cc:permits
           rdf:resource="http://creativecommons.org/ns#Distribution" />
        <cc:permits
           rdf:resource="http://creativecommons.org/ns#DerivativeWorks" />
      </cc:License>
    </rdf:RDF>
  </metadata>
</svg>
