<?xml version="1.0" encoding="UTF-8" standalone="no"?>
<!-- Created with Inkscape (http://www.inkscape.org/) -->

<svg
   xmlns:dc="http://purl.org/dc/elements/1.1/"
   xmlns:cc="http://creativecommons.org/ns#"
   xmlns:rdf="http://www.w3.org/1999/02/22-rdf-syntax-ns#"
   xmlns:svg="http://www.w3.org/2000/svg"
   xmlns="http://www.w3.org/2000/svg"
   xmlns:sodipodi="http://sodipodi.sourceforge.net/DTD/sodipodi-0.dtd"
   xmlns:inkscape="http://www.inkscape.org/namespaces/inkscape"
   width="512"
   height="512"
   viewBox="0 0 512.00002 512.00002"
   id="svg2"
   version="1.1"
   inkscape:version="0.92.2 2405546, 2018-03-11"
   sodipodi:docname="aquila.svg">
  <defs
     id="defs4" />
  <sodipodi:namedview
     id="base"
     pagecolor="#ffffff"
     bordercolor="#666666"
     borderopacity="1.0"
     inkscape:pageopacity="0.0"
     inkscape:pageshadow="2"
     inkscape:zoom="1.4628906"
     inkscape:cx="108.34713"
     inkscape:cy="250.53138"
     inkscape:document-units="px"
     inkscape:current-layer="layer1"
     showgrid="false"
     units="px"
     inkscape:showpageshadow="false"
     inkscape:window-width="1920"
     inkscape:window-height="994"
     inkscape:window-x="0"
     inkscape:window-y="21"
     inkscape:window-maximized="1" />
  <metadata
     id="metadata7">
    <rdf:RDF>
      <cc:Work
         rdf:about="">
        <dc:format>image/svg+xml</dc:format>
        <dc:type
           rdf:resource="http://purl.org/dc/dcmitype/StillImage" />
        <dc:title></dc:title>
        <cc:license
           rdf:resource="http://creativecommons.org/licenses/by-sa/4.0/" />
        <dc:date>2019</dc:date>
        <dc:creator>
          <cc:Agent>
            <dc:title>Cristian Pozzessere  &lt; ilnanny &gt;</dc:title>
          </cc:Agent>
        </dc:creator>
        <dc:subject>
          <rdf:Bag>
            <rdf:li>ilnanny</rdf:li>
          </rdf:Bag>
        </dc:subject>
      </cc:Work>
      <cc:License
         rdf:about="http://creativecommons.org/licenses/by-sa/4.0/">
        <cc:permits
           rdf:resource="http://creativecommons.org/ns#Reproduction" />
        <cc:permits
           rdf:resource="http://creativecommons.org/ns#Distribution" />
        <cc:requires
           rdf:resource="http://creativecommons.org/ns#Notice" />
        <cc:requires
           rdf:resource="http://creativecommons.org/ns#Attribution" />
        <cc:permits
           rdf:resource="http://creativecommons.org/ns#DerivativeWorks" />
        <cc:requires
           rdf:resource="http://creativecommons.org/ns#ShareAlike" />
      </cc:License>
    </rdf:RDF>
  </metadata>
  <g
     inkscape:label="Livello 1"
     inkscape:groupmode="layer"
     id="layer1"
     transform="translate(0,-540.3622)">
    <path
       style="opacity:1;fill:#8f9baa;fill-opacity:0.98867923;stroke:none;stroke-width:4.75087738;stroke-linecap:round;stroke-linejoin:bevel;stroke-miterlimit:4;stroke-dasharray:none;stroke-opacity:0.98113248;paint-order:stroke markers fill"
       d="m 1,541.3622 h 510 v 510 H 1 Z"
       id="rect1404"
       inkscape:connector-curvature="0" />
    <path
       style="color:#000000;font-style:normal;font-variant:normal;font-weight:normal;font-stretch:normal;font-size:medium;line-height:normal;font-family:sans-serif;font-variant-ligatures:normal;font-variant-position:normal;font-variant-caps:normal;font-variant-numeric:normal;font-variant-alternates:normal;font-feature-settings:normal;text-indent:0;text-align:start;text-decoration:none;text-decoration-line:none;text-decoration-style:solid;text-decoration-color:#000000;letter-spacing:normal;word-spacing:normal;text-transform:none;writing-mode:lr-tb;direction:ltr;text-orientation:mixed;dominant-baseline:auto;baseline-shift:baseline;text-anchor:start;white-space:normal;shape-padding:0;clip-rule:nonzero;display:inline;overflow:visible;visibility:visible;opacity:1;isolation:auto;mix-blend-mode:normal;color-interpolation:sRGB;color-interpolation-filters:linearRGB;solid-color:#000000;solid-opacity:1;vector-effect:none;fill:#ffffff;fill-opacity:0.29433963;fill-rule:nonzero;stroke:none;stroke-width:1.20000005;stroke-linecap:butt;stroke-linejoin:miter;stroke-miterlimit:4;stroke-dasharray:none;stroke-dashoffset:0;stroke-opacity:1;paint-order:stroke fill markers;color-rendering:auto;image-rendering:auto;shape-rendering:auto;text-rendering:auto;enable-background:accumulate"
       d="m 362.97574,618.72716 c 9.49156,15.90171 -17.66653,31.05052 -14.8161,50.21307 -2.99941,7.65427 -1.02473,18.10383 1.6712,3.64702 1.89324,-19.76079 22.20836,-37.73351 32.41913,-45.82703 -17.36165,6.98843 -5.52343,-8.19506 -19.27423,-8.03306 z m 3.15693,1.58222 c 4.46435,6.84646 3.98781,12.71755 15.89297,7.7937 -19.42774,5.2594 -29.65168,31.55345 -33.48714,44.33237 -1.28397,-20.17279 20.26035,-34.93997 17.59417,-52.12607 z m -20.38073,0.84606 c 10.13742,0.0815 7.25447,29.89505 13.17868,10.94008 3.89896,-8.95827 -7.37262,-9.96087 -13.17868,-10.94008 z m 3.08917,1.77342 c 14.24766,-3.27917 7.66246,21.93661 5.47682,4.3688 l -2.15376,-2.22621 z m -11.93668,5.22239 c -9.57065,-2.63306 -41.82681,15.44905 -17.30209,7.50013 8.20385,-8.3719 36.06716,9.02609 20.854,-6.92732 l -3.55198,-0.57281 z m -0.0196,1.19984 c 22.09458,6.87716 -25.2735,2.26068 -19.97976,5.19617 6.2301,-2.98661 12.97932,-5.3542 19.97976,-5.19617 z m -7.62659,12.66682 c -10.44196,1.12429 16.53161,7.54955 8.25366,17.52263 -7.01139,28.76416 3.0166,59.80396 23.13045,80.59505 3.76309,-1.42575 -11.26053,-16.16055 -12.47216,-23.1769 -10.73058,-21.32331 -10.40296,-46.52825 -2.7525,-68.76541 -7.08353,9.31579 -4.69894,-8.32816 -16.15945,-6.17537 z m 0.0256,1.38501 c 8.58066,-0.0455 13.21663,10.40639 12.96303,11.80676 -7.94397,25.77859 -2.41672,54.54159 13.06011,76.43947 -17.79981,-20.5127 -21.68612,-49.23708 -16.49518,-75.14132 0.34161,-5.95926 -3.64469,-11.70059 -9.52796,-13.10491 z m -11.44892,4.15805 c -12.11629,-0.0279 -43.15667,11.8696 -40.45157,14.32492 18.5286,-4.37206 40.05703,-14.78232 57.78227,-2.53879 -0.20782,-8.85374 -9.55306,-12.84422 -17.3307,-11.78613 z m 0.0422,1.19984 c 11.25059,-2.83041 22.59786,13.65322 5.82739,4.39488 -11.13936,-3.60321 -35.45415,5.15811 -37.69166,4.50788 10.19347,-4.1799 20.71003,-8.46137 31.86427,-8.90276 z m -2.90251,9.50538 c -17.31456,2.31699 -32.91096,14.74696 -44.72679,25.53989 15.79481,-3.15596 35.6724,-25.92748 55.06295,-15.25182 10.50017,12.24567 1.23335,-10.95633 -5.8839,-9.77027 z m 0.0376,1.19683 c 11.97208,0.99855 18.01858,14.80986 2.72635,5.08559 -12.65041,-3.78853 -50.03257,22.33004 -43.18906,16.68759 12.06008,-9.39582 24.76474,-19.79404 40.46271,-21.77318 z M 144.4527,664.434 c 18.39014,10.41463 39.52306,44.2664 49.8261,51.49943 -8.03549,-22.36182 -25.41151,-46.44346 -49.8261,-51.49943 z m 2.41926,1.53405 c 22.4158,6.87395 37.93603,28.12511 45.90255,49.30938 -13.28101,-18.11542 -26.6794,-36.98664 -45.90255,-49.30938 z m 36.30383,6.20545 c 4.29986,17.50932 17.12434,36.85944 30.09633,51.44304 10.64358,10.86611 25.39648,23.14997 39.21892,25.53041 C 223.82083,729.1824 202.21813,701.0586 183.17579,672.1735 Z m 20.90011,0.54798 c -0.95129,20.64251 17.50538,44.50762 34.43406,54.4565 -11.47802,-18.15216 -22.956,-36.30439 -34.43406,-54.4565 z m 109.51517,1.67406 c -12.65082,-2.50443 -37.92856,18.27559 -35.22169,21.58484 13.96265,-10.16644 32.6194,-20.1677 48.93178,-12.94659 -3.20662,-4.46894 -7.90237,-8.51979 -13.71009,-8.63825 z m -0.0632,1.19833 c 12.43764,3.22425 12.21161,7.4462 -0.95541,3.77809 -12.1811,-2.11973 -45.15964,23.97244 -22.12423,5.17175 6.75404,-4.80132 14.45322,-9.48024 23.07964,-8.94984 z m -108.81063,0.38841 c 7.76584,13.55267 28.02512,41.74997 27.80867,45.94524 -13.60037,-12.02185 -25.02487,-27.61027 -27.80867,-45.94524 z m -18.78195,2.27623 c 17.23009,25.59554 36.76284,50.24797 61.72479,68.74318 -29.33375,-12.94296 -49.21677,-40.10478 -61.72479,-68.74318 z m -43.02263,4.17159 c -28.06017,2.33676 13.28972,5.68988 21.64706,11.55194 18.5936,9.69055 -9.78448,-16.40163 -21.64706,-11.55194 z m -0.006,1.19984 c 11.63576,-3.23839 36.3802,16.75496 12.53339,5.86588 -5.67374,-3.07583 -31.18012,-5.20762 -12.53339,-5.86588 z m 162.86667,1.2992 c -23.04679,5.58124 17.77848,2.98383 18.65717,16.66247 8.55764,6.35175 18.73186,30.81593 23.90329,29.61495 -11.4223,-16.7348 -18.38411,-44.85433 -42.56046,-46.27742 z m -74.15074,1.00113 c -2.62817,15.85176 6.25424,37.08203 19.05415,49.12143 7.95122,10.4349 39.44807,23.30134 40.67435,18.47467 -28.43434,-12.80792 -54.90004,-35.03928 -59.7285,-67.5961 z m 74.24257,0.17613 c 19.31292,-2.94193 36.59098,38.63972 35.27997,35.20636 -10.83754,-13.38632 -20.31831,-33.00525 -39.87776,-33.93425 z m -173.27517,8.31307 c -36.752566,0.46055 -71.356826,15.08266 -105.588346,26.83255 -10.9737,7.57646 23.49864,-4.82881 20.13541,-4.24283 44.54607,-13.52463 95.225206,-23.26556 139.141496,-2.18038 -11.71327,-16.68494 -34.71723,-20.50779 -53.68872,-20.40934 z m 99.83364,0.0873 c 7.31995,28.10825 31.62613,47.50126 56.89683,59.27694 -29.2094,-5.75199 -54.18238,-28.72123 -56.89683,-59.27694 z m 67.13386,0.0964 c -14.2731,-1.88307 -36.36962,18.81934 -34.97,25.87562 11.576,-10.99852 30.60941,-21.41437 43.01189,-23.4672 -2.30991,-1.64186 -5.22081,-2.4534 -8.04189,-2.40842 z m -166.966,1.01618 c 17.7608,-0.15776 37.22518,3.16782 50.16296,16.39431 -49.75233,-21.4413 -105.536066,-6.58637 -154.377616,9.94348 33.79712,-11.37645 67.99697,-25.97596 104.214496,-26.33779 z m 166.90879,0.21829 c 11.42075,1.70034 -19.04278,5.82161 -23.05574,14.04968 -9.42961,8.55068 -13.17039,8.3728 -2.89305,-1.87373 7.07126,-6.51287 16.10785,-11.89337 25.94879,-12.17595 z m 9.28409,6.76698 c -13.29069,0.38905 -27.63404,11.30089 -32.71334,21.57907 12.74616,-10.78223 33.44461,-22.24964 47.96501,-7.81177 -11.24726,-6.80229 -36.82485,19.65373 -27.00317,15.84303 10.8241,-17.77078 33.93804,-9.87029 41.22663,-2.22174 -7.01922,-11.33767 -13.88659,-27.0881 -29.47529,-27.38859 z m -2.79863,1.3263 c 13.16227,-4.15664 26.86628,17.4457 28.06065,22.25235 -8.77882,-16.00979 -33.41685,0.86934 -34.75128,1.87965 1.90097,-13.90072 39.88438,-5.68727 18.94255,-17.19043 -11.45204,-9.11446 -35.31488,6.57296 -36.1198,6.84731 6.50932,-6.54664 14.49945,-12.45546 23.86788,-13.78888 z m -182.92539,8.86407 c -37.151596,-0.9517 -72.977936,14.2802 -103.449886,34.43804 -11.0486201,11.80732 17.71275,-6.8451 24.47716,-8.05233 40.56304,-17.48878 86.558526,-24.7646 129.927556,-14.18558 -12.74988,-8.57241 -34.28962,-11.3558 -50.95483,-12.20013 z m 181.32796,0.75272 c -13.98936,-4.38619 -33.20371,32.78264 -14.15135,11.11651 -0.15066,-4.36473 28.20165,-11.3019 14.15135,-11.11651 z m -181.35656,0.44411 c 12.61032,-0.49803 37.71475,5.35627 41.29735,7.85384 -50.07279,-9.4138 -101.389206,4.78874 -145.743686,28.03599 23.62477,-17.53508 51.98744,-29.29329 80.93469,-34.48121 7.781026,-1.11067 15.653116,-1.59941 23.511646,-1.40862 z m 181.38215,0.76928 c -6.51638,-0.0127 -30.35204,24.52611 -14.49286,6.42062 3.96973,-3.58241 9.06426,-6.23707 14.49286,-6.42062 z m -115.30512,8.38233 c -4.73178,6.47739 22.11485,16.14922 1.14831,10.86377 -10.51652,-2.50528 -36.18101,-4.9513 -38.83712,0.20274 24.81531,-0.67139 49.3714,5.49316 70.62237,18.41753 33.97475,17.67982 75.5367,17.97446 111.58626,9.96916 -11.56719,-3.72352 -33.7286,2.22667 -48.6275,-1.26041 -34.89486,-2.62733 -69.07,-15.52664 -95.89232,-38.19279 z m 131.6362,0.87465 c -9.50315,-3.61912 -34.23446,25.24063 -13.33387,10.38153 7.04878,-11.3185 36.23424,7.33295 18.71647,-8.49948 l -2.62011,-1.26932 z m -131.40737,0.84607 c 39.17634,33.32177 93.3267,42.53366 143.11959,37.18602 -40.54474,8.05288 -84.9266,6.06555 -120.89572,-16.19645 -17.50846,-9.38129 -37.36938,-12.73801 -57.054,-12.70811 14.45922,-4.47659 35.14148,5.28363 46.32256,2.0519 -3.60127,-3.37902 -8.93296,-6.86239 -11.49243,-10.33336 z m 131.28392,0.34174 c 12.88151,5.46326 9.40484,6.88303 -2.30668,3.91404 -6.76871,-1.27654 -27.41794,16.45418 -12.26396,3.13141 4.13287,-3.38703 8.76742,-7.61201 14.57064,-7.04545 z m -189.69221,0.53293 c -39.402506,-1.14785 -83.746496,12.45923 -103.770396,49.1242 17.92951,-12.82268 38.56358,-29.37681 61.55037,-36.29691 15.206136,-7.51739 43.782986,-8.09127 52.845466,-12.2206 -3.53267,-0.33407 -7.07786,-0.53335 -10.62544,-0.60669 z m -0.0241,1.19833 c 12.65645,0.55257 -19.77396,2.45637 -26.03006,5.53119 -27.778956,6.63282 -53.419876,20.81118 -74.672236,39.77972 20.70674,-34.33022 62.8827,-46.12048 100.702296,-45.31091 z m 192.77988,9.23591 c -11.63752,-1.88849 -28.52971,13.92974 -6.28319,6.65177 9.73666,-1.2184 28.43575,13.17628 14.27948,-2.86411 l -3.79599,-2.5318 z m -0.1656,1.1893 c 10.65978,3.09864 15.76181,13.51903 1.6552,5.11408 -7.87833,-2.27547 -25.78759,3.32379 -9.32439,-4.1327 l 3.94716,-0.98372 z m -163.61789,1.59578 c -32.97267,0.34697 -72.342846,1.53116 -95.045496,29.16472 -5.5648,5.03699 -12.68017,29.03433 -1.06309,11.89791 24.10826,-27.17765 61.458656,-36.13027 96.180846,-39.86731 l -0.0721,-1.19328 z m -9.64539,1.33834 c -33.94698,4.10489 -69.841236,15.70515 -91.455836,43.82052 10.21377,-38.18505 58.677286,-43.05695 91.455836,-43.82052 z m 18.76388,3.29843 c -25.45526,6.2964 -55.08983,12.43779 -71.057046,35.23948 -4.96989,6.75094 -3.6164,20.14696 2.245426,5.50705 17.74913,-20.7662 44.71008,-29.79002 69.53725,-38.98215 -0.24491,-0.58689 -0.48044,-1.17762 -0.72563,-1.76438 z m -3.05154,1.87729 c -25.4549,9.56976 -53.98627,19.25678 -69.860216,42.88413 5.114426,-23.39885 31.710526,-31.35311 51.722886,-38.18997 5.9901,-1.76817 12.04357,-3.32704 18.13733,-4.69416 z m 18.59376,0.85961 c -25.27706,7.4304 -53.74903,22.73786 -57.67363,51.69099 1.74258,8.06633 12.70543,-22.7233 22.5379,-26.66173 9.89046,-10.36833 25.46148,-16.93901 35.13573,-25.02926 z m -5.86823,3.19455 c -20.38139,5.02871 -47.63113,42.95688 -49.9585,45.42451 4.88094,-24.68299 28.12091,-37.82774 49.9585,-45.42451 z m 204.36429,1.64395 c -2.03966,7.6091 -25.5984,1.45204 -31.0406,12.85069 -13.85157,20.80672 14.57423,-10.80504 24.61782,-5.51492 34.89304,-2.37567 62.53765,29.50026 67.91878,61.80485 3.09035,-16.25159 -5.41357,-37.53429 -18.44519,-49.79102 -11.6217,-11.15468 -27.31626,-17.06906 -43.05081,-19.3496 z m -181.16386,0.66842 c 8.40665,15.02218 29.73481,24.93473 47.89493,27.08124 10.86883,2.48661 41.9395,-1.60382 39.57694,-5.90364 -30.50643,2.97069 -62.6145,-2.15008 -87.47187,-21.1776 z m 183.14202,0.89423 c 29.36627,3.28829 56.24871,26.39386 58.75,56.70731 1.53955,12.24931 -5.40698,-17.82665 -11.23398,-21.92677 -15.71698,-25.23381 -52.70449,-41.1364 -78.70216,-21.54409 -8.50132,4.20797 10.87128,-11.8792 18.65087,-9.54603 3.29648,-1.71446 12.15719,0.59901 12.53527,-3.69042 z m -201.80046,1.86069 c -10.67558,15.19075 32.8988,29.31322 9.32326,13.29636 -4.04794,-3.7141 -6.31755,-8.80141 -9.32326,-13.29636 z m 9.77787,0.48476 c -5.34884,13.07824 39.54509,28.36739 11.83808,23.92679 -9.7634,1.232 -29.18396,-16.82773 -30.1699,-11.11545 15.85363,19.08131 43.6184,18.22176 65.80308,15.55576 -13.11689,-7.32816 -37.64672,-11.18433 -47.47126,-28.3671 z m 12.24228,0.417 c 23.60566,16.57553 53.37452,21.36108 81.64335,18.83012 -28.07511,8.53976 -61.14019,3.40535 -81.64335,-18.83012 z m -21.29904,2.52615 c 4.79896,8.90367 19.81084,21.74422 2.83023,9.78539 -2.32266,-2.6564 -3.19904,-6.32707 -2.83023,-9.78539 z m 10.31983,0.49529 c 7.04239,14.5199 38.42299,20.18129 40.34753,24.49928 -20.54619,1.50649 -45.29041,1.45921 -59.29357,-16.29614 11.15829,8.77189 33.77167,18.04539 43.68202,12.92877 -8.84463,-6.09618 -20.37994,-10.46777 -24.73598,-21.13191 z m 195.4385,5.29766 c -12.03498,-4.23882 -47.27194,18.95003 -18.8135,7.78427 22.40216,-8.12215 46.0456,8.05657 50.67325,30.61364 -19.56909,-11.7749 -46.93041,-4.97256 -54.37143,17.82096 -5.19999,8.95553 -6.16288,22.98987 1.36023,6.94299 8.20115,-20.86679 34.46839,-29.29566 52.65508,-15.77713 8.42428,5.39219 24.50194,20.68913 14.12287,0.64175 -8.14836,-20.43 -20.74402,-46.07195 -45.6265,-48.02648 z m -0.0572,1.18027 c 27.5938,3.14488 39.58802,32.95206 47.57661,55.8927 -15.97811,-14.6894 -44.35374,-27.1481 -61.26188,-6.68453 -6.92125,8.66831 -16.0589,25.97504 -7.6263,6.22762 6.80595,-25.63238 38.52829,-25.3113 54.80322,-17.42328 -4.60441,-20.80707 -24.31842,-39.17525 -46.67841,-33.75156 -7.18513,1.08106 -20.51942,6.5123 -6.10894,-0.43904 6.03951,-2.65869 12.67832,-4.16736 19.2957,-3.82191 z m -50.43093,1.04478 c -27.64695,11.57017 -52.20037,35.7221 -54.75006,66.896 11.19871,-16.3999 22.18308,-38.02632 39.09891,-51.87196 4.37763,-5.13745 13.81984,-9.66774 15.65115,-15.02404 z m -3.98642,3.36316 c -20.61632,16.12755 -37.66062,36.68262 -49.04291,60.29613 3.60943,-27.74071 24.58791,-48.8429 49.04291,-60.29613 z m -26.55155,4.20321 c -43.69409,12.25604 -93.87257,25.06246 -136.67228,2.79449 -14.60993,-0.41182 36.304,17.93252 13.39562,16.59622 -10.16394,0.79535 -31.13176,18.98452 -26.3451,23.19683 16.53756,-21.02115 45.09432,-21.63406 69.35249,-19.22051 28.69768,-0.5964 56.61712,-9.97137 82.26699,-22.29366 l -0.80993,-0.54799 -1.18779,-0.5254 z m -0.70004,1.19081 c -31.43868,14.70471 -66.28865,24.37718 -101.24505,20.08099 -16.85491,-3.10519 -42.11138,12.0331 -46.86752,18.25919 5.19394,-14.30044 30.29396,-19.62686 36.03513,-21.88265 -10.13569,-3.25695 -34.09933,-19.04303 -11.43894,-8.01098 40.16555,13.7617 84.22949,3.13011 123.51638,-8.44655 z m 76.81238,0.54045 c -9.99331,-4.22398 -35.74368,19.4027 -14.45676,8.11222 13.12875,-5.75904 27.98596,2.08739 38.66131,6.19103 -5.84986,-7.54588 -14.36522,-13.82783 -24.20455,-14.30325 z m -37.70691,0.16711 c -20.46963,12.32282 -36.8019,38.59323 -24.6939,62.21048 8.7597,22.47715 3.06369,-19.86765 11.68719,-25.40315 1.59824,-9.38352 31.04313,-36.56055 9.66531,-20.58941 -10.33638,4.08704 -23.10102,39.70118 -16.07069,14.39546 2.9165,-12.06767 13.96331,-21.95421 19.41209,-30.61338 z m 37.64518,1.03123 c 9.94655,-0.89403 29.74357,16.87777 10.66553,6.37763 -9.20329,-8.18003 -43.44955,7.30519 -21.05283,-4.56021 3.2786,-1.33743 6.8444,-2.00878 10.3873,-1.81742 z m -49.79714,1.22543 c -16.78298,10.08682 -35.48955,27.81503 -36.07048,47.04669 4.32847,-9.80099 13.74082,-23.81062 11.01836,-4.37934 -0.31534,8.7332 8.36303,21.77091 4.47841,4.44811 -2.42814,-18.75887 10.69948,-34.86594 20.57371,-47.11546 z m 6.49901,3.51974 c -10.3514,7.69531 -21.29751,37.25493 -15.74147,39.03618 1.59328,-9.47466 16.77176,-28.61678 20.39893,-28.09579 -12.30196,13.57159 -19.65748,31.49096 -20.1756,49.82241 -13.68668,-21.1561 -3.64226,-47.04688 15.51814,-60.7628 z m -10.66307,0.67293 c -15.06494,9.68739 -19.3848,42.59451 -17.4534,47.52899 -5.77028,-6.0558 3.03037,-35.5043 -8.78491,-16.91495 -9.54737,15.12556 6.14882,-17.59114 14.00261,-20.97306 3.80918,-3.53838 7.9393,-6.7187 12.2357,-9.64098 z m -27.24105,0.008 c -15.2359,9.14938 -30.17681,31.07974 -23.18537,47.51188 -0.19765,-18.90458 16.32553,-33.15081 23.18537,-47.51188 z m -2.45387,3.25327 c -9.24841,9.28295 -20.84836,32.77435 -21.3865,36.95497 0.35346,-14.88998 9.73209,-28.34296 21.3865,-36.95497 z m -134.43934,1.13059 c -16.59795,-5.55126 -32.98612,37.07465 -14.62521,12.55754 4.83669,-9.58045 45.74569,-8.13022 14.62521,-12.55754 z m 0.0106,1.19382 c 19.97988,1.84551 -15.96817,3.257 -18.66581,13.67657 -8.87781,7.65083 10.52729,-18.91029 18.66581,-13.67657 z m 119.30358,1.31877 c -21.88575,5.89134 -40.42133,29.51089 -30.6569,52.34586 2.75271,-19.89148 15.361,-39.91941 30.6569,-52.34586 z m 97.93227,2.17988 c -19.86024,1.83939 -43.23993,11.45743 -46.14463,33.92373 -4.04648,10.64764 5.29818,43.01956 3.80934,14.90809 -1.17027,-23.16836 17.08802,-41.54414 38.50996,-46.93495 1.74003,-0.60879 5.04715,1.23119 3.82533,-1.89687 z m -101.19607,0.36884 c -16.37494,7.37105 -25.67613,39.64537 -27.91217,43.48574 -4.7158,-19.55635 10.30861,-37.22632 27.91217,-43.48574 z m 91.48444,2.68722 c -22.62679,5.98489 -36.31406,29.2112 -33.90385,51.92657 -2.09245,1.95192 -4.54008,-27.47135 4.55994,-35.53121 6.70106,-9.59094 18.14912,-14.46991 29.34391,-16.39536 z m -118.74506,4.23482 c -20.06033,2.46556 -37.92147,29.31281 -28.77764,44.22146 3.29312,-18.10497 17.9347,-32.34763 28.77764,-44.22146 z m -47.30713,1.66954 c -15.51752,-3.39268 -36.74306,25.79791 -30.09787,28.1715 5.35456,-12.89804 28.35287,-24.05099 32.87241,-27.90353 z m 44.74637,0.59314 c -12.61915,7.04467 -23.63566,32.53507 -26.98758,35.54916 -2.67585,-17.11044 11.98771,-30.70832 26.98758,-35.54916 z m -44.77498,0.60821 c -10.26428,1.50674 -32.71004,27.08697 -29.94806,23.40615 4.75023,-12.18562 16.37313,-23.01539 29.94806,-23.40615 z m 25.67237,0.61573 c -15.79018,1.3514 -35.48899,15.59177 -34.40846,31.25607 5.16694,-8.11352 14.55006,-22.91093 12.23023,-5.74629 4.32738,-11.23985 12.3565,-18.95701 22.17823,-25.50978 z m -4.71054,2.13321 c -11.76541,3.933 -16.36122,27.09897 -18.01865,12.04658 -6.71058,7.0924 -15.63821,20.21265 -5.90054,3.42258 5.80229,-7.75574 14.51419,-13.26001 23.91919,-15.46916 z m 140.34671,0.0271 c -20.62317,-1.22541 -25.89547,39.00115 -20.03047,39.43381 1.42321,-15.34864 10.10232,-29.73923 20.03047,-39.43381 z m -2.47202,1.9945 c -11.12447,5.62866 -18.5519,34.53284 -18.39413,32.61051 -0.63197,-13.05082 4.0949,-29.06767 18.39413,-32.61051 z m -117.04843,4.69398 c -11.12808,4.4457 -11.86661,29.18095 -6.07146,31.4021 2.02376,-10.46738 4.04756,-20.93475 6.07146,-31.4021 z m -1.80803,3.03498 c -1.53218,11.2634 -7.30141,38.49636 -6.24911,12.40789 0.86184,-4.59164 2.79902,-9.15505 6.24911,-12.40789 z m 57.44781,9.10493 c -9.65947,3.84155 13.21029,28.8999 -5.85052,18.73826 -8.61101,-2.96559 -26.18857,0.52344 -7.16702,2.75716 33.71139,5.5406 55.36282,34.0165 80.99075,53.51976 10.25456,6.06234 30.36709,16.75232 39.08805,12.77338 -18.63584,-5.48918 -40.93639,-17.50029 -53.80613,-34.77595 -5.05103,-8.22839 -17.59618,-27.69725 -9.45873,-5.91475 -15.97573,-13.58605 -43.46896,-22.39094 -43.7964,-47.09786 z m -0.51636,6.49901 c 6.17246,21.43752 29.57428,30.66555 46.19461,42.59811 -8.82323,-24.09213 8.87538,13.22615 18.13453,16.826 6.88706,8.13329 32.93268,19.71479 33.89739,20.31232 -29.23017,-4.64652 -47.14008,-29.73577 -69.22535,-46.48057 -9.77294,-10.78853 -39.30413,-19.16386 -43.58169,-20.73209 8.4271,-1.79818 28.72215,11.59156 16.3352,-5.13584 -1.01837,-2.3384 -1.48279,-4.86807 -1.75469,-7.38793 z m 63.40938,3.08015 c -12.21642,20.5645 6.43209,41.82621 23.31792,52.28444 7.20434,6.35811 24.93386,14.30806 7.96881,1.66848 -17.35148,-12.00579 -31.56646,-31.84664 -29.94384,-53.38988 l -0.828,-0.34626 z m 0.51336,1.65148 c -2.11367,24.47523 16.19434,44.3079 35.12807,57.0022 -17.36836,-10.51473 -39.97884,-24.81098 -38.14729,-48.02748 0.51386,-3.12025 1.37459,-6.24448 3.01922,-8.97472 z m -12.29197,1.17123 c -12.95795,18.89004 4.60414,40.10011 20.54183,50.13859 16.74212,12.17968 35.91734,20.30589 54.72595,28.67452 -10.01117,1.38506 -24.69638,14.76402 -5.59317,6.19465 17.40236,-7.53284 39.34154,-2.52362 49.97974,11.54857 -9.4606,-25.2452 -42.70682,-16.03989 -61.49284,-30.32857 -22.58136,-10.21449 -48.82511,-22.84631 -57.29438,-47.97687 -1.68936,-5.96966 -0.72039,-12.16144 -0.86713,-18.25089 z m -1.26759,5.31874 c -2.26769,29.66703 27.25454,46.78272 50.27365,58.15974 19.46911,11.94215 43.04906,12.88659 62.75929,22.61607 14.37993,15.50092 -16.17196,-14.32577 -27.36551,-5.47148 -9.01475,0.46725 -32.64306,9.67189 -11.32043,0.27685 13.57954,-4.20165 -18.98632,-9.63172 -22.52566,-14.64365 -20.90592,-11.22193 -46.95055,-23.19877 -53.64039,-48.06549 -0.71018,-4.3511 0.0526,-8.8618 1.81905,-12.87204 z m -59.60964,8.78428 c -13.95275,1.93388 21.09084,6.04682 20.72702,17.17714 9.75252,10.94152 -4.33279,32.37397 3.53606,34.97017 -1.54265,18.93832 19.22186,47.07884 33.00714,44.24637 -24.70527,-13.0845 -32.4587,-43.4183 -28.99994,-69.3962 1.49926,-15.42915 -14.44715,-26.25565 -28.27028,-26.99748 z m -0.0542,1.20285 c 29.20046,0.27506 28.12338,31.28491 27.56805,52.26769 -0.41266,16.72054 18.58555,37.6441 24.64366,41.84695 -21.6209,-6.84615 -27.0461,-39.36791 -28.35245,-51.88554 8.1771,-20.25346 -9.03296,-40.09987 -23.85926,-42.2291 z m -6.47493,7.87348 c -37.77234,1.2387 -70.34185,23.98874 -100.83636,44.05348 -5.59767,5.26501 -29.8996,18.6329 -23.97715,20.47595 38.89326,-25.81395 79.66622,-53.01732 126.70834,-60.24669 16.76809,-0.31117 11.84996,-3.23343 -1.89483,-4.28274 z m -0.0452,1.19834 c 19.90792,1.7703 -15.37672,2.62694 -21.92467,6.97686 -36.58236,11.98924 -69.65832,32.3977 -101.32921,53.89886 33.75442,-24.85596 69.05331,-51.36689 110.94083,-59.96493 4.06652,-0.65724 8.19018,-1.04759 12.31305,-0.91079 z m 5.77037,8.19715 c -39.67135,1.81837 -74.26338,24.24153 -105.34657,46.93845 11.5206,-1.74348 26.27602,-16.16237 39.81916,-20.93954 20.70148,-10.8072 44.25482,-17.77457 65.81497,-24.07782 l -0.20173,-1.34586 z m -1.01467,1.32178 c -33.7875,8.39446 -67.21566,22.2195 -96.60595,41.65569 28.52359,-20.46899 60.59139,-39.87433 96.60595,-41.65569 z m 19.34046,1.80654 c 0.90577,14.03033 -5.7924,32.0973 -13.28405,43.47426 12.86253,-9.56406 21.352,-28.26337 13.28405,-43.47426 z m -7.44593,1.91643 c -1.17429,17.48008 -14.71361,31.58355 -23.5783,43.71213 14.23754,-8.16798 31.60552,-25.7969 23.5783,-43.71213 z m 7.81928,2.20548 c 8.72781,9.12744 -10.14102,37.9157 -7.65827,30.70902 5.50187,-9.18872 8.40339,-19.98295 7.65827,-30.70902 z m -15.48351,0.0677 c -29.43932,1.72369 -58.42849,15.13826 -80.58652,33.14237 12.34983,-1.615 27.2099,-14.93863 41.32592,-19.03614 14.35526,-6.75163 45.27105,-14.51229 24.27567,8.57854 -3.74145,7.42143 -33.24797,29.20075 -11.69353,17.23584 13.18321,-8.72877 30.30364,-21.91918 26.67846,-39.92061 z m -0.98757,1.29468 c 4.94263,18.03484 -23.96797,37.00047 -28.77417,38.37778 8.38809,-6.77329 30.79172,-29.99907 20.83339,-34.58922 -25.49493,2.32304 -47.94725,15.77903 -69.9525,27.71741 22.79663,-16.73518 49.27596,-29.68996 77.89328,-31.50597 z m 8.7918,0.74068 c 6.65115,13.46769 -18.45568,36.88062 -19.12168,34.60032 9.24151,-9.66226 17.21424,-21.05772 19.12168,-34.60032 z m 21.71606,2.13472 c -5.35327,17.10815 3.16644,41.23763 18.03269,53.44393 5.3486,6.11775 26.36406,16.07221 10.11261,3.52351 -15.87253,-14.90022 -24.38115,-35.88005 -28.1453,-56.96744 z m 8.6503,2.7339 c 1.46238,17.27213 12.20417,37.44031 23.53445,52.38636 6.38898,10.74714 31.20645,13.66517 7.62772,16.8449 -21.63865,10.91824 15.60892,-1.97771 22.27206,-0.71556 12.91196,-5.1224 29.78764,12.55025 36.6923,10.14686 -12.95463,-20.97286 -41.86829,-6.14711 -55.85168,-25.93642 -15.60635,-14.44437 -25.67259,-33.56839 -34.27485,-52.72614 z m -8.82644,2.13322 c -0.87123,18.12696 30.11212,58.9448 26.77349,53.30226 -18.26048,-10.96698 -28.39927,-32.22572 -26.77349,-53.30226 z m -46.50774,1.89385 c -15.74368,0.2497 -39.21837,13.76872 -40.25723,26.89038 11.5031,-11.5596 28.11296,-18.96962 40.25723,-26.89038 z m -3.7049,1.74631 c -11.16159,2.12014 -33.26726,22.77647 -33.0766,18.73344 7.67016,-10.59567 20.44996,-16.57889 33.0766,-18.73344 z m 61.2024,1.55663 c 11.06325,23.42084 25.79954,48.42341 50.80751,58.68725 12.94231,-0.73171 28.75893,1.46202 35.6638,13.34533 -14.57104,-18.16639 -51.85154,-10.66243 -61.48674,-7.05213 7.61622,-4.50902 29.34878,-5.09008 9.06673,-10.77374 -18.58513,-11.71785 -27.22211,-34.32241 -34.0513,-54.20671 z m -60.10493,4.7813 c -12.83523,-1.3363 -33.26918,20.00806 -27.77806,23.92791 7.26762,-9.85013 20.11963,-16.69143 27.77806,-23.92791 z m -3.30596,2.00675 c -9.57035,3.54182 -34.15546,31.65842 -17.98253,9.87881 4.79013,-5.06964 11.28268,-8.21506 17.98253,-9.87881 z m 193.66509,8.41997 c -8.76759,-1.45942 -24.91709,4.01622 -7.14002,2.89985 14.15748,-3.79109 27.53353,13.9389 33.26552,16.53696 -1.57892,-13.21685 -12.94345,-21.51464 -26.1255,-19.43681 z m 0.015,1.20285 c 12.05894,-6.77363 28.03416,15.66834 23.02563,15.19192 -6.16134,-11.47779 -23.33336,-15.13017 -32.4136,-14.89836 l 4.69979,-0.16519 z m -58.84939,5.50391 c 0.46486,0.26643 0.21661,2.11296 0,0 z m 37.45399,11.30741 c -17.9895,1.65792 -13.15715,27.58879 -0.71208,23.37806 -10.23907,-6.98548 -3.45696,-15.30105 0.71208,-23.37806 z m -2.94766,3.10121 c -12.36672,7.57824 9.02686,29.15252 -7.01987,15.02889 -5.91896,-5.54012 2.31183,-12.37734 7.01987,-15.02889 z m -20.83237,17.32618 c -6.65882,-1.42288 -35.45182,2.41322 -13.87467,3.16597 10.97439,-4.87334 29.9443,13.15499 28.2309,10.83767 2.54011,-9.27798 -6.68682,-13.9134 -14.35623,-14.00364 z m -0.018,1.19984 c 12.63717,-1.18076 18.04969,16.59116 5.47079,3.31499 -10.04973,-4.5457 -39.86671,-1.55674 -13.33638,-3.21981 2.6207,-0.0882 5.24343,-0.13484 7.86559,-0.0952 z m -29.9388,10.13015 c -23.3201,3.0518 13.81357,32.50179 -1.17032,13.13755 -4.82743,-4.22443 2.67919,-9.96298 1.17032,-13.13755 z m -1.20286,2.06396 c -6.16313,7.98661 5.79979,22.40732 -5.22088,7.96231 -1.20527,-3.91584 2.04117,-6.61693 5.22088,-7.96231 z"
       id="path2111"
       inkscape:connector-curvature="0" />
    <g
       id="g1908"
       transform="matrix(0.77078833,0,0,0.77078833,13.397765,617.04319)">
	<path
   id="path1778"
   d="m 448.6068,205.5093 c 8.0196,-6.1543 16.8525,-10.874 26.8449,-13.1423 19.9749,-4.5344 35.8535,2.455 48.752,17.5853 13.4274,15.7508 21.2343,34.4289 27.864,53.7097 0.1927,0.5606 0.1255,1.2107 0.2221,2.2993 -6.353,-4.5364 -12.1227,-8.9827 -18.2169,-12.9278 -8.1508,-5.2765 -16.8785,-9.3462 -26.6976,-10.4677 -16.6162,-1.8977 -29.1708,5.2317 -38.5892,18.224 -5.1339,7.082 -9.302,14.8641 -14.1052,22.6542 0.3309,-1.5735 0.5531,-3.0186 0.942,-4.4174 2.9652,-10.6624 7.2994,-20.6812 13.973,-29.5986 10.1633,-13.5804 26.0656,-19.3009 42.4727,-14.9237 5.5878,1.4908 10.9795,3.7155 16.4625,5.6 1.1826,0.4064 2.3723,0.7919 3.8188,1.2736 -10.8486,-36.5455 -37.2074,-56.4024 -83.7431,-35.8686 z"
   inkscape:connector-curvature="0" />

	<path
   id="path1780"
   d="m 237.9856,226.6275 c -13.716,-5.6612 -25.764,-11.8358 -35.4772,-21.7941 11.6509,6.8911 24.0813,11.7355 37.2407,14.6295 19.715,4.3356 39.654,4.4151 59.6132,2.4236 28.7054,-2.8642 56.6494,-9.4067 84.1222,-18.0809 0.5916,-0.1868 1.2656,-0.1122 2.2182,0.5329 -1.1705,0.6486 -2.2982,1.3941 -3.5178,1.9314 -23.3259,10.2762 -47.252,18.8343 -72.3633,23.4751 -15.5688,2.8772 -31.2693,3.4771 -47.2022,2.1226 -27.9301,-2.3745 -53.3513,3.589 -72.724,25.8865 -0.3162,0.3639 -0.767,0.6108 -2.0363,0.3028 2.9346,-3.8936 5.5739,-8.0632 8.8845,-11.6053 3.5025,-3.7474 7.3505,-7.334 11.5902,-10.1836 4.0774,-2.7406 8.6855,-4.9516 13.3608,-6.4705 4.7943,-1.5577 9.9526,-1.9944 16.291,-3.17 z"
   inkscape:connector-curvature="0" />

	<path
   id="path1782"
   d="m 244.1604,153.7768 c -5.2747,-4.462 -10.5494,-8.924 -15.8241,-13.3861 0.4206,-0.5742 0.8411,-1.1483 1.2617,-1.7225 54.6783,45.1152 118.527,55.0126 186.6721,48.4106 -0.0315,0.5346 -0.063,1.0692 -0.0944,1.6039 -10.9349,1.6603 -21.8215,4.1128 -32.8167,4.7825 -14.0717,0.8572 -28.2618,0.8927 -42.3457,0.1842 -25.7687,-1.2965 -50.0551,-8.5612 -72.7516,-20.7818 -17.6863,-9.523 -35.94,-17.432 -56.0298,-19.815 -10.9878,-1.3033 -22.1205,-1.3854 -31.6273,-1.929 3.8497,-2.1525 12.3045,-3.2556 30.2313,-1.6578 10.8147,0.9639 21.502,3.3572 32.2465,5.1083 0.3594,-0.2658 0.7187,-0.5316 1.078,-0.7973 z"
   inkscape:connector-curvature="0" />

	<path
   id="path1784"
   d="M 210.0506,139.1867 C 136.5683,122.0964 69.3258,140.8623 4.0675,175.145 c 10.4607,-13.8389 67.5327,-40.5204 98.7245,-46.6639 36.8113,-7.2504 72.5287,-3.6632 107.2586,10.7056 z"
   inkscape:connector-curvature="0" />

	<path
   id="path1786"
   d="m 223.764,125 c -12.5366,-5.5991 -25.2525,-9.6211 -38.539,-12.087 -18.5094,-3.4353 -37.1508,-3.4332 -55.731,-1.7868 -30.7566,2.7253 -60.6045,10.0818 -89.9683,19.4475 -7.8635,2.5081 -15.6512,5.254 -23.4737,7.8908 -0.1463,-0.3439 -0.2926,-0.6879 -0.4389,-1.0318 5.1394,-2.1094 10.1686,-4.5581 15.4373,-6.2696 23.2018,-7.5368 46.2743,-15.58 69.7736,-22.0624 24.1531,-6.6628 48.938,-9.8194 74.1102,-7.0302 17.2426,1.9106 33.0629,7.3273 45.9308,19.5799 0.722,0.6874 1.4397,1.3828 2.1095,2.1199 0.3231,0.3555 0.53,0.8165 0.7895,1.2297 z"
   inkscape:connector-curvature="0" />

	<path
   id="path1788"
   d="m 20.0299,205.0169 c 7.4402,-13.5691 17.5337,-24.6564 29.6305,-33.944 18.7669,-14.4088 40.2578,-22.3474 63.3699,-26.2166 18.1052,-3.0309 36.3286,-4.1169 54.6573,-2.3839 0.6345,0.06 1.2591,0.225 1.8855,0.5061 -27.7717,1.427 -54.5572,7.0972 -80.3507,17.531 -25.8901,10.4728 -48.5648,25.8277 -69.1925,44.5074 z"
   inkscape:connector-curvature="0" />

	<path
   id="path1790"
   d="m 516.2744,381.9732 c -7.3294,-2.0236 -14.739,-3.7973 -21.9724,-6.1198 -18.3166,-5.8813 -33.2437,-16.9138 -46.8499,-30.3213 -19.2772,-18.9957 -40.1534,-36.0934 -65.4159,-46.6355 -7.6948,-3.2111 -16.2764,-4.3062 -24.4651,-6.3165 -1.5061,-0.3698 -3.0758,-0.4807 -4.5475,-1.1963 11.296,-2.4975 21.9502,0.8372 33.2725,4.2733 -2.3393,-5.1819 -4.7976,-9.343 -6.084,-13.8394 -1.2774,-4.4648 -1.3757,-9.267 -1.9911,-13.9212 0.5171,-0.062 1.0342,-0.124 1.5513,-0.1861 0.132,1.9883 0.0339,4.024 0.4333,5.9571 2.6736,12.9394 10.2921,22.3454 20.9916,29.7245 10.9354,7.5417 21.6413,15.4164 32.4347,23.1634 1.4519,1.0421 2.8279,2.1899 4.9445,2.8188 -1.5347,-4.9124 -3.0694,-9.8248 -4.604,-14.7372 0.3192,-0.1378 0.6385,-0.2756 0.9577,-0.4134 2.5136,4.2704 4.8758,8.6389 7.5658,12.7951 16.4101,25.3545 39.853,41.4115 67.9569,51.3365 2.0906,0.7383 3.8504,2.413 5.764,3.6524 10e-5,-1e-4 0.0576,-0.0344 0.0576,-0.0344 z"
   inkscape:connector-curvature="0" />

	<path
   id="path1792"
   d="m 436.2839,199.7706 c 3.3536,-8.9332 10.0659,-14.633 18.6549,-17.1852 8.0291,-2.3858 16.5488,-3.1304 24.8618,-4.5433 1.8258,-0.3103 4.7785,0.7086 2.7126,-3.1233 52.3936,8.2619 78.9539,42.7678 79.0942,88.4515 -0.3457,-1.0861 -0.7908,-2.1515 -1.0226,-3.2614 -5.7753,-27.6606 -19.9082,-50.2007 -43.4656,-65.6562 -22.4489,-14.7283 -55.6626,-18.7289 -79.2568,4.1439 -0.4667,0.4525 -1.0497,0.7853 -1.5785,1.174 z"
   inkscape:connector-curvature="0" />

	<path
   id="path1794"
   d="m 191.5615,158.8397 c -28.2256,3.5522 -56.0346,7.9718 -81.9483,20.3605 -18.8965,9.034 -35.4656,20.9315 -48.3086,37.6729 -0.5872,0.7654 -1.2943,1.4389 -2.2685,1.9457 1.934,-11.2728 7.4263,-20.7091 15.2561,-28.7605 10.069,-10.3541 22.5297,-16.8566 36.1301,-21.3234 26.4404,-8.6841 53.777,-9.9677 81.1392,-9.8952 z"
   inkscape:connector-curvature="0" />

	<path
   id="path1796"
   d="m 375.5126,316.6619 c -3.0871,0.2284 -6.1756,0.4406 -9.2612,0.6879 -24.2347,1.9416 -46.6842,10.0804 -68.5956,19.9573 -35.6129,16.053 -68.5447,36.7263 -100.6677,58.7723 -0.6222,0.427 -1.2849,0.7949 -2.4118,0.6268 0.5968,-0.6351 1.1187,-1.3678 1.801,-1.8913 31.1996,-23.9344 63.3215,-46.4562 98.8702,-63.6114 15.2939,-7.3806 31.0747,-13.5078 47.9526,-16.2337 10.7426,-1.7352 21.495,-2.0025 32.3125,1.6921 z"
   inkscape:connector-curvature="0" />

	<path
   id="path1798"
   d="m 546.5104,385.2467 c -8.463,-3.7826 -16.0121,-7.0988 -23.5131,-10.5207 -19.567,-8.9265 -38.6215,-18.7773 -55.5124,-32.2741 -10.2275,-8.1724 -19.5254,-17.2052 -23.9915,-30.026 -3.1204,-8.9576 -2.4093,-17.5565 2.536,-26.4843 0,5.5659 -0.4963,10.4362 0.0909,15.1721 1.9422,15.6648 11.1349,27.1007 22.6117,37.0055 14.5011,12.5149 31.0364,21.7837 48.4835,29.3951 12.6284,5.5092 25.4042,10.7556 38.3916,15.3321 5.6767,2.0003 12.0694,1.906 18.0967,2.9874 13.2874,2.3839 23.3897,8.8847 27.5972,22.5929 -1.9198,-2.3461 -3.7341,-4.7887 -5.7775,-7.0219 -9.4537,-10.3321 -21.4696,-13.9603 -35.1266,-13.3838 -10.7758,0.4549 -20.9676,3.3275 -30.9764,7.0759 -1.3456,0.5039 -2.7234,0.9216 -4.2594,0.9898 5.5023,-5.9628 13.2373,-7.7234 21.3493,-10.84 z"
   inkscape:connector-curvature="0" />

	<path
   id="path1800"
   d="m 535.5512,447.6608 c -25.903,-22.3054 -54.3772,-17.5841 -83.3271,-7.8629 -0.1621,-0.4677 -0.3243,-0.9355 -0.4864,-1.4032 4.2193,-1.8291 8.3356,-3.9722 12.6868,-5.399 4.3616,-1.4302 8.9576,-2.1456 14.2319,-3.3531 -0.9402,-0.8122 -1.2949,-1.3592 -1.7657,-1.4904 -14.1592,-3.9478 -23.68,-13.7068 -31.5479,-25.3956 -10.7039,-15.9022 -20.5385,-38.0788 -25.5661,-58.7774 0.9825,2.0538 2.0137,4.0858 2.9399,6.1647 8.1591,18.3122 17.8748,35.6825 30.8371,51.0944 9.092,10.8101 19.5989,19.9192 32.3135,26.2181 2.0957,1.0382 4.758,1.36 7.1443,1.3118 11.4278,-0.231 22.8247,0.0787 32.649,6.7413 4.2214,2.8629 7.4969,7.1205 11.2021,10.7444 -0.437,0.4689 -0.8742,0.9379 -1.3114,1.4069 z"
   inkscape:connector-curvature="0" />

	<path
   id="path1802"
   d="m 267.1085,377.3461 c 30.7974,-22.5063 63.9352,-39.2322 103.2423,-41.8397 1.8937,8.0334 -0.3737,14.6611 -3.7971,21.0212 -6.2727,11.6536 -16.433,19.4875 -26.9656,26.8582 -4.799,3.3583 -9.9217,6.2542 -15.3449,8.7957 16.2628,-13.9599 32.7654,-27.5209 39.6268,-50.6725 -6.0819,0.8091 -11.2674,1.1951 -16.321,2.2266 -17.049,3.4799 -32.9793,10.1266 -48.4038,17.9754 -10.0652,5.1217 -19.8881,10.7192 -29.8273,16.0895 -0.5235,0.2829 -1.1186,0.4334 -1.6804,0.6456 -0.1763,-0.3667 -0.3527,-0.7334 -0.529,-1.1 z"
   inkscape:connector-curvature="0" />

	<path
   id="path1804"
   d="m 434.8653,206.1156 c -17.4685,16.5681 -29.8346,35.583 -29.973,60.7094 5.8644,-21.1804 18.8301,-36.7507 37.4305,-48.0843 -22.0576,20.4572 -34.2811,45.3728 -34.7667,75.8186 -8.9176,-15.3477 -12.8635,-31.1279 -6.8028,-48.2244 6.2588,-17.6553 19.0374,-29.8587 34.112,-40.2193 z"
   inkscape:connector-curvature="0" />

	<path
   id="path1806"
   d="m 221.1109,71.8463 c 25.023,37.8291 52.3639,73.6344 90.1302,100.0707 -46.2268,-18.6847 -71.6309,-56.2216 -90.1302,-100.0707 z"
   inkscape:connector-curvature="0" />

	<path
   id="path1808"
   d="m 361.1223,302.3739 c 17.4218,-2.848 38.691,9.7935 41.989,25.2862 1.1783,5.5352 0.4094,11.547 0.1231,17.3211 -1.3926,28.0887 4.3132,53.6482 26.1655,73.3569 3.6468,3.2891 8.0916,5.6933 12.286,8.5881 -9.411,0.2824 -24.0093,-11.1 -31.7779,-24.5066 -7.0816,-12.2212 -9.043,-25.8416 -10.6051,-40.1054 -1.1626,0.8615 -1.7719,1.313 -3.0634,2.2701 3.7507,-14.397 6.5862,-28.2589 -0.8424,-41.4536 -7.3922,-13.1301 -20.6833,-17.3345 -34.2748,-20.7568 z"
   inkscape:connector-curvature="0" />

	<path
   id="path1810"
   d="m 353.9579,280.0786 c 5.2767,-43.6181 33.0622,-68.8699 70.585,-86.1756 -9.3291,8.165 -19.2075,15.7947 -27.8333,24.6451 -8.6776,8.9035 -16.8303,18.5238 -23.8854,28.7463 -7.129,10.3294 -12.6295,21.7828 -18.8663,32.7842 z"
   inkscape:connector-curvature="0" />

	<path
   id="path1812"
   d="m 363.5402,202.715 c -40.954,14.2832 -87.7994,8.6236 -117.9585,-27.3174 16.8181,12.4651 35.498,20.7079 55.8819,25.035 20.3766,4.3256 40.95,4.0175 62.0766,2.2824 z"
   inkscape:connector-curvature="0" />

	<path
   id="path1814"
   d="m 283.8482,89.4026 c 8.4908,46.9706 41.7071,71.4552 81.643,90.0184 -22.5326,-4.33 -42.7697,-13.1085 -58.6422,-30.072 -15.7357,-16.8172 -21.9745,-37.4329 -23.0008,-59.9464 z"
   inkscape:connector-curvature="0" />

	<path
   id="path1816"
   d="m 421.1487,147.626 c -2.5981,-3.1791 -4.7661,-6.8826 -7.8784,-9.4347 -7.9483,-6.5178 -19.0399,-6.4292 -29.4402,-0.2273 -3.5638,2.1252 -7.0228,4.4712 -10.3109,7.0008 -3.1145,2.3961 -5.9423,5.165 -9.1961,7.3018 10.3665,-13.1286 21.0277,-25.7996 40.7985,-22.6926 0.1105,-0.3365 0.221,-0.6729 0.3315,-1.0094 -1.2162,-1.1146 -2.3117,-2.4097 -3.6672,-3.3159 -13.6774,-9.1438 -27.5262,-7.3772 -40.9903,0.1629 -6.6184,3.7065 -12.5641,8.6142 -18.9453,12.8306 8.8891,-10.2282 18.4449,-19.7562 31.5726,-24.544 10.2326,-3.732 20.0226,-2.4473 28.5631,4.6916 2.7873,2.3299 5.5673,4.9 7.5769,7.8817 4.5028,6.6812 8.5199,13.6898 12.7347,20.565 -0.3829,0.2632 -0.7659,0.5264 -1.1489,0.7895 z"
   inkscape:connector-curvature="0" />

	<path
   id="path1818"
   d="m 234.4789,384.1736 c 17.7207,-13.8537 36.704,-25.7386 56.6566,-36.0728 16.7292,-8.6647 34.0394,-15.9023 52.6724,-19.3182 7.3591,-1.3491 14.8746,-1.845 22.3189,-2.7293 0.0871,0.582 0.1743,1.164 0.2614,1.746 -6.2882,1.6343 -12.6071,3.1599 -18.8596,4.9207 -38.68,10.8928 -74.6505,27.7018 -108.246,49.6856 -1.3642,0.8926 -2.9018,1.5201 -4.3586,2.2712 -0.1488,-0.1674 -0.2972,-0.3351 -0.4451,-0.5032 z"
   inkscape:connector-curvature="0" />

	<path
   id="path1820"
   d="m 295.6525,215.1478 c -0.066,0.0482 -0.3177,0.3903 -0.5933,0.4108 -23.2876,1.7281 -46.69,3.2142 -68.44,-7.4755 -5.8528,-2.8766 -10.3288,-8.5785 -15.3618,-13.0676 -0.6169,-0.5502 -0.7665,-1.6243 -1.4301,-3.1308 18.6711,14.4528 43.3801,22.7792 58.0086,19.6239 -6.9608,-4.4292 -13.8967,-8.4216 -20.3588,-13.0723 -6.5336,-4.7022 -11.5124,-10.8347 -13.5828,-19.0042 7.3633,10.1142 16.5409,18.17 27.9455,23.0606 11.0264,4.7284 22.4799,8.4606 33.8127,12.6551 z"
   inkscape:connector-curvature="0" />

	<path
   id="path1822"
   d="m 203.3082,165.9125 c -7.128,2.6203 -14.2981,5.1322 -21.3755,7.8828 -16.4498,6.3932 -32.4394,13.6991 -47.1522,23.6074 -10.7325,7.2277 -20.2024,15.6106 -26.6518,27.1615 -0.9271,-5.444 1.2084,-10.0419 3.7506,-14.3756 6.5634,-11.1888 16.8286,-18.2506 27.981,-24.1294 18.3668,-9.6816 38.1394,-15.369 58.2404,-20.06 1.5998,-0.3734 3.2137,-0.6865 4.821,-1.0276 0.1289,0.3136 0.2577,0.6273 0.3865,0.9409 z"
   inkscape:connector-curvature="0" />

	<path
   id="path1824"
   d="m 223.6927,168.3945 c -31.7383,16.7988 -60.3786,36.5095 -74.5652,71.8615 -0.0365,-0.8276 -0.1517,-1.6612 -0.0893,-2.4813 0.0753,-0.9899 0.2927,-1.9698 0.4632,-2.9515 4.0533,-23.3354 17.7452,-39.875 37.7595,-51.1048 10.6235,-5.9607 22.3478,-9.9627 33.5958,-14.8008 0.8611,-0.3704 1.8868,-0.3578 2.836,-0.5231 z"
   inkscape:connector-curvature="0" />

	<path
   id="path1826"
   d="m 371.1674,269.0859 c 6.0912,-27.7116 24.7296,-45.5527 47.9038,-60.0227 -20.7083,19.3429 -32.5008,41.954 -26.4175,71.1715 -0.4742,0.0692 -0.9484,0.1384 -1.4225,0.2076 -1.4888,-5.5884 -3.5505,-11.101 -4.3042,-16.7869 -0.7432,-5.6066 -0.1622,-11.3887 -0.1622,-17.5034 -7.2479,6.3318 -11.3899,14.6661 -15.5974,22.9339 z"
   inkscape:connector-curvature="0" />

	<path
   id="path1828"
   d="m 236.2513,131.4132 c -18.8891,-25.4156 -36.4679,-52.0594 -64.7621,-69.26 22.5616,0.9373 56.6846,37.386 64.7621,69.26 z"
   inkscape:connector-curvature="0" />

	<path
   id="path1830"
   d="m 454.8213,422.746 c -32.8228,-15.2645 -50.4574,-43.7914 -46.331,-82.508 6.0753,32.7915 19.0085,61.6849 46.331,82.508 z"
   inkscape:connector-curvature="0" />

	<path
   id="path1832"
   d="m 248.2164,72.5424 c 14.8914,23.5503 29.7829,47.1006 44.6743,70.6509 C 270.2711,124.5202 251.85,103.1976 248.2164,72.5424 Z"
   inkscape:connector-curvature="0" />

	<path
   id="path1834"
   d="m 355.3626,223.5343 c -10.8681,8.015 -20.3593,17.2244 -27.3696,28.8081 -6.9128,11.4225 -10.3454,23.9898 -11.9284,38.0983 -9.7416,-26.3448 2.6399,-54.2321 39.298,-66.9064 z"
   inkscape:connector-curvature="0" />

	<path
   id="path1836"
   d="m 434.1214,81.9788 c 0.4532,-3.4755 0.5778,-7.033 1.42,-10.4116 2.7627,-11.0828 5.138,-22.3323 8.971,-33.0497 2.0469,-5.7233 6.7762,-10.4893 10.3079,-15.6785 1.3018,-1.9128 2.8607,-3.6859 3.9196,-5.7218 2.5193,-4.844 3.511,-9.7059 -1.4816,-14.1107 6.6965,0.4488 7.8855,2.5348 7.4532,12.4611 5.1427,-0.733 10.2872,-1.4662 15.4316,-2.1994 0.2187,0.4597 0.4374,0.9193 0.656,1.379 -14.2701,5.0208 -24.063,14.8996 -31.4068,27.5508 -7.2206,12.4388 -11.1525,26.0505 -15.2709,39.7808 z"
   inkscape:connector-curvature="0" />

	<path
   id="path1838"
   d="m 463.5302,280.7159 c -1.9252,27.5443 12.2646,47.0585 31.8304,63.8019 4.4085,3.7726 9.2483,7.0406 13.8814,10.5517 1.0007,0.7584 1.9662,1.5632 2.4126,3.1904 -3.6113,-2.1522 -7.2921,-4.1967 -10.8217,-6.4753 -14.4397,-9.3217 -28.4707,-19.1258 -37.4458,-34.3871 -6.1732,-10.4969 -7.5262,-21.4942 -3.0082,-32.9813 0.564,-1.434 1.3796,-2.769 2.0786,-4.1498 0.3576,0.1498 0.7152,0.2996 1.0727,0.4495 z"
   inkscape:connector-curvature="0" />

	<path
   id="path1840"
   d="m 451.7402,157.4086 c -3.8315,-4.4892 -8.0807,-8.689 -11.4245,-13.516 -17.8203,-25.7246 -24.0062,-54.0113 -18.0688,-84.8569 0.4994,-2.5943 0.6718,-5.2914 0.6528,-7.9383 -0.0575,-8.0207 -3.6458,-13.6297 -11.509,-16.1495 -1.1064,-0.3546 -2.1837,-0.8017 -3.2644,-1.2313 -0.1164,-0.0463 -0.1651,-0.2627 -0.2452,-0.4001 9.5043,-1.3209 15.3549,2.5788 19.3098,13.2653 1.3402,-2.1885 2.5042,-4.0894 3.6682,-5.9902 0.1519,0.0602 0.3038,0.1203 0.4558,0.1805 -1.275,4.7094 -2.6628,9.3916 -3.8069,14.1326 -8.6637,35.9001 -0.1345,68.1021 21.0608,97.5722 1.1425,1.5886 2.0604,3.3389 3.0828,5.0139 -3e-4,0 0.0886,-0.0822 0.0886,-0.0822 z"
   inkscape:connector-curvature="0" />

	<path
   id="path1842"
   d="m 477.3186,227.1939 c -3.4516,1.4517 -6.8489,3.0529 -10.3636,4.3309 -24.3244,8.845 -37.7505,26.2296 -40.1785,51.8725 -0.6996,7.3885 -0.1073,14.8993 -0.4892,22.395 -3.1928,-7.0086 -3.731,-14.5065 -4.064,-22.0017 -1.1749,-26.4452 11.8608,-44.9594 37.2709,-52.6274 5.8356,-1.761 11.9401,-2.6313 17.9208,-3.9116 z"
   inkscape:connector-curvature="0" />

	<path
   id="path1844"
   d="m 315.7325,235.8313 c -17.7678,14.606 -31.9272,31.7535 -38.024,55.3029 -7.2214,-22.9531 7.3684,-45.9963 38.024,-55.3029 z"
   inkscape:connector-curvature="0" />

	<path
   id="path1846"
   d="m 335.3518,86.0478 c 16.4838,-12.6803 32.1879,-26.6811 53.4406,-31.3855 10.8746,-2.4071 19.9428,3.614 22.5999,15.3169 -12.7012,-12.4852 -26.422,-7.7401 -39.4465,-2.2914 -10.6652,4.4618 -20.5612,10.7674 -30.7738,16.3006 -1.7328,0.9388 -3.3428,2.1044 -5.0096,3.1652 -0.2701,-0.3685 -0.5404,-0.7371 -0.8106,-1.1058 z"
   inkscape:connector-curvature="0" />

	<path
   id="path1848"
   d="m 371.8696,91.795 c 5.9346,-3.8188 12.0113,-3.8322 18.1919,-1.5783 9.6413,3.516 16.89,10.4153 22.2347,18.6092 8.3296,12.7697 15.4545,26.3255 23.0597,39.5656 0.2089,0.3636 0.0724,0.9256 -0.5082,1.7199 -2.8972,-4.8453 -5.4203,-9.9682 -8.7673,-14.4798 -7.6077,-10.2546 -15.0757,-20.7023 -23.628,-30.1404 -7.8854,-8.7019 -18.137,-13.8634 -30.5828,-13.6962 z"
   inkscape:connector-curvature="0" />

	<path
   id="path1850"
   d="m 417.8603,53.1573 c -17.1447,-10.9531 -34.4072,-6.1769 -51.4926,-2.0768 -8.6261,2.07 -17.0067,5.1631 -25.869,6.9604 6.3851,-2.7302 12.7082,-5.618 19.1682,-8.1578 13.6306,-5.3589 27.3681,-10.422 42.4019,-9.5656 6.7806,0.3862 12.1378,3.2095 15.1639,9.5751 0.3856,0.8111 0.3635,1.816 0.6276,3.2647 z"
   inkscape:connector-curvature="0" />

	<path
   id="path1852"
   d="m 408.1217,85.9749 c -15.171,-8.335 -29.3004,-4.0607 -42.9038,3.0963 -8.0396,4.2298 -15.4651,9.6268 -23.291,14.3824 8.1306,-8.8186 17.2184,-16.5602 27.7098,-22.5404 6.5433,-3.7297 13.451,-6.2466 21.2788,-5.8368 7.9313,0.4151 12.8524,5.1151 17.2062,10.8985 z"
   inkscape:connector-curvature="0" />

	<path
   id="path1854"
   d="m 514.1332,224.2948 c -19.9303,-12.7278 -40.31,-16.7801 -61.7483,-3.5753 18.3837,-20.6445 43.4821,-19.7073 61.7483,3.5753 z"
   inkscape:connector-curvature="0" />

	<path
   id="path1856"
   d="m 382.3598,104.0192 c -11.0782,1.5075 -21.378,4.7913 -30.418,10.7971 -8.8726,5.8945 -17.1325,12.7113 -25.0284,18.6474 8.4549,-21.0867 41.294,-39.1761 55.4464,-29.4445 z"
   inkscape:connector-curvature="0" />

	<path
   id="path1858"
   d="m 257.9496,272.3221 c 0.4267,-4.0984 0.8899,-8.5466 1.3531,-12.9948 -0.2707,-0.2665 -0.5414,-0.533 -0.8121,-0.7994 -2.8616,3.1732 -5.9207,6.1936 -8.5303,9.5621 -2.6897,3.4718 -4.9416,7.2827 -7.8481,11.6391 1.6511,-17.9444 22.0243,-35.9828 42.5886,-38.9451 -5.2401,4.2217 -11.5756,8.0348 -16.1352,13.3666 -4.4608,5.2163 -7.1112,11.9808 -10.616,18.1715 z"
   inkscape:connector-curvature="0" />

	<path
   id="path1860"
   d="m 436.008,297.3847 c -1.0276,-12.4548 -1.1698,-24.6753 4.2469,-36.3008 4.6263,-9.9291 12.3155,-15.7591 23.2662,-17.9082 -18.3337,13.5434 -24.4781,33.0873 -27.5131,54.209 z"
   inkscape:connector-curvature="0" />

	<path
   id="path1862"
   d="m 347.0582,275.4304 c -5.1973,-21.699 9.6537,-47.3804 31.2689,-60.9198 -6.3937,8.8104 -13.5576,18.0068 -19.9672,27.7018 -6.6041,9.9891 -10.3478,21.1713 -11.3017,33.218 z"
   inkscape:connector-curvature="0" />

	<path
   id="path1864"
   d="m 257.5964,238.3666 c -19.3577,7.3743 -33.8157,20.4578 -45.3514,38.2762 3.2325,-21.5435 27.0861,-41.4837 45.3514,-38.2762 z"
   inkscape:connector-curvature="0" />

	<path
   id="path1866"
   d="m 624.4953,399.3206 c -11.8028,-22.0625 -31.6941,-24.2756 -53.4532,-23.3966 3.0159,-0.6571 6.0185,-1.7948 9.0501,-1.8783 8.092,-0.2227 16.3296,-0.8917 24.2628,0.2823 10.2388,1.5152 16.6826,8.3293 19.3995,18.4387 0.502,1.8675 1.1101,3.7064 1.6692,5.5586 -0.3094,0.3317 -0.619,0.6635 -0.9284,0.9953 z"
   inkscape:connector-curvature="0" />

	<path
   id="path1868"
   d="M 153.9735,87.6146 C 175.2977,82.1475 194.999,87.4548 203.937,101.3987 187.8485,94.8069 171.4652,89.3214 153.9735,87.6146 Z"
   inkscape:connector-curvature="0" />

	<path
   id="path1870"
   d="m 296.5144,382.7225 c 3.5244,-14.8039 28.5075,-31.4235 52.2298,-33.0779 -9.576,4.8418 -19.3654,8.892 -28.1669,14.4944 -8.8277,5.6191 -16.6701,12.7862 -24.0629,18.5835 z"
   inkscape:connector-curvature="0" />

	<path
   id="path1872"
   d="m 169.8883,248.498 c 6.0484,-24.681 24.4645,-33.6693 45.6521,-24.913 -20.1412,0.6157 -35.6793,7.7821 -45.6521,24.913 z"
   inkscape:connector-curvature="0" />

	<path
   id="path1874"
   d="m 379.8423,165.0342 c 16.9959,-15.1194 33.3539,-13.0751 41.7769,6.0591 -13.3204,-10.8314 -27.325,-10.1126 -41.7769,-6.0591 z"
   inkscape:connector-curvature="0" />

	<path
   id="path1876"
   d="m 381.0281,334.239 c 2.7614,7.1867 2.2793,14.0731 -0.4102,20.9316 -4.6105,11.7574 -13.6226,19.9326 -22.8711,27.8824 -2.2321,1.9187 -4.7149,3.5457 -7.7095,4.6661 4.5639,-5.0231 9.475,-9.7795 13.5965,-15.1427 4.3378,-5.6447 8.6894,-11.5195 11.613,-17.9412 2.825,-6.2048 3.8382,-13.2345 5.7813,-20.3962 z"
   inkscape:connector-curvature="0" />

	<path
   id="path1878"
   d="m 371.8076,156.5141 c 5.8206,-4.8197 11.1816,-10.3943 17.5688,-14.2834 9.7451,-5.9337 19.4871,-2.4642 25.8099,8.9988 -16.9109,-11.3165 -29.5701,-2.3943 -42.1871,6.7525 -0.3972,-0.4893 -0.7944,-0.9786 -1.1916,-1.4679 z"
   inkscape:connector-curvature="0" />

	<path
   id="path1880"
   d="m 306.6149,392.3526 c 6.0224,-19.0829 19.9157,-28.7141 38.8334,-32.2321 -14.8567,8.4188 -27.9645,18.9281 -38.8334,32.2321 z"
   inkscape:connector-curvature="0" />

	<path
   id="path1882"
   d="m 372.8544,385.0328 c 12.9266,-16.2704 19.8427,-34.3038 17.0226,-55.412 9.338,17.2222 1.6606,41.2224 -17.0226,55.412 z"
   inkscape:connector-curvature="0" />

	<path
   id="path1884"
   d="m 431.1724,24.9231 c -10.5662,-7.7201 -21.6368,-4.276 -32.5978,-1.6476 -4.6316,1.1106 -9.1312,2.7712 -13.834,3.7389 11.5,-5.9439 22.9356,-12.1657 36.4496,-11.9342 6.6391,0.1137 9.9648,3.5157 9.9822,9.8429 z"
   inkscape:connector-curvature="0" />

	<path
   id="path1886"
   d="m 551.5361,440.8232 c -5.5461,-11.9394 -15.4624,-13.8894 -25.8179,-14.5412 -6.6774,-0.4203 -13.4028,-0.079 -20.1066,-0.079 -0.006,-0.5812 -0.0114,-1.1624 -0.017,-1.7436 9.3599,-0.3618 18.7251,-1.0663 28.0774,-0.9248 4.0034,0.0605 8.1954,1.392 11.9163,3.0245 4.9861,2.1874 6.8977,6.947 5.9478,14.2641 z"
   inkscape:connector-curvature="0" />

	<path
   id="path1888"
   d="m 299.668,291.6826 c -6.3559,-10.8284 -3.0219,-31.4181 7.5094,-38.8424 -2.5152,13.0099 -5.119,26.4781 -7.5094,38.8424 z"
   inkscape:connector-curvature="0" />

	<path
   id="path1890"
   d="m 561.9015,428.0091 c -3.6265,-2.5228 -7.5059,-4.7563 -10.8102,-7.6472 -3.5162,-3.0762 -3.8271,-7.3061 -1.3088,-11.2756 3.3581,-5.2931 8.3547,-8.6333 13.003,-11.0473 -2.2811,4.6193 -5.4526,9.438 -7.0688,14.7315 -1.9017,6.229 3.8481,9.9514 7.2845,14.2955 -0.3666,0.3144 -0.7331,0.6287 -1.0997,0.9431 z"
   inkscape:connector-curvature="0" />

	<path
   id="path1892"
   d="m 349.2321,150.2903 c 5.4544,-16.5979 22.1625,-26.7818 34.6541,-23.9418 -15.301,3.7933 -25.5685,13.0427 -34.6541,23.9418 z"
   inkscape:connector-curvature="0" />

	<path
   id="path1894"
   d="m 242.7496,204.3107 c -15.3207,-2.5268 -22.9017,-11.6841 -20.519,-23.9105 2.7339,4.2639 5.1208,9.0009 8.466,12.9199 3.3751,3.9541 7.701,7.0965 12.053,10.9906 z"
   inkscape:connector-curvature="0" />

	<path
   id="path1896"
   d="m 445.3899,26.5946 c -0.7704,-13.7354 -0.9532,-14.0272 -12.8665,-20.6059 4.0989,0.8529 8.3831,1.2164 12.2505,2.6806 5.0059,1.8953 6.2129,5.4 4.2788,10.4731 -0.9817,2.5753 -2.427,4.9738 -3.6628,7.4522 z"
   inkscape:connector-curvature="0" />

	<path
   id="path1898"
   d="m 495.2314,438.1155 c -6.4459,10.8351 -6.3619,11.94 2.282,24.1653 -4.6778,-1.9647 -10.6156,-7.2208 -11.782,-11.6192 -0.5769,-2.1757 -0.1616,-5.5307 1.2239,-7.0971 2.1122,-2.3881 5.4555,-3.6874 8.2761,-5.449 z"
   inkscape:connector-curvature="0" />

	<path
   id="path1900"
   d="m 477.4149,227.2516 c 1.3579,-0.2388 2.7159,-0.4777 4.0739,-0.7165 0.0269,0.2196 0.0539,0.4392 0.0808,0.6588 -1.4171,0 -2.834,0 -4.2511,0 1e-4,0 0.0964,0.0577 0.0964,0.0577 z"
   inkscape:connector-curvature="0" />

	<path
   id="path1902"
   d="m 234.9241,384.6767 c -1.0669,0.8176 -2.1338,1.6352 -3.2007,2.4529 -0.1777,-0.2718 -0.3555,-0.5435 -0.5332,-0.8153 1.0962,-0.7136 2.1924,-1.4271 3.2887,-2.1407 0.1479,0.1681 0.2963,0.3358 0.4452,0.5031 z"
   inkscape:connector-curvature="0" />

	<path
   id="path1904"
   d="m 451.6513,157.4908 c 0.6111,0.5741 1.2222,1.1483 1.8333,1.7225 -0.1918,0.1458 -0.3835,0.2915 -0.5753,0.4372 -0.3897,-0.7473 -0.7794,-1.4946 -1.1691,-2.2419 z"
   inkscape:connector-curvature="0" />

	<path
   id="path1906"
   d="m 516.2169,382.0075 c 0.811,-0.3465 1.6218,-0.6929 2.4327,-1.0393 0.0836,0.265 0.1672,0.5299 0.2509,0.7949 -0.8754,0.07 -1.7508,0.1401 -2.6262,0.2101 10e-5,0 -0.0574,0.0343 -0.0574,0.0343 z"
   inkscape:connector-curvature="0" />

</g>
    <g
       transform="matrix(0.77078833,0,0,0.77078833,13.397765,617.04319)"
       id="g2113"
       style="stroke:#ffffff;stroke-opacity:0.98113227;stroke-width:1.55684765;stroke-miterlimit:4;stroke-dasharray:none;paint-order:stroke fill markers;fill:none">
	
	
	
	
	
	
	
	
	
	
	
	
	
	
	
	
	
	
	
	
	
	
	
	
	
	
	
	
	
	
	
	
	
	
	
	
	
	
	
	
	
	
	
	
	
	
	
	
	
	
	
	
	
	
	
	
	
	
	
	
	
	
	
	
	
</g>
  </g>
</svg>
