<?xml version="1.0" encoding="UTF-8" standalone="no"?>
<!-- Created with Inkscape (http://www.inkscape.org/) -->

<svg
   xmlns:dc="http://purl.org/dc/elements/1.1/"
   xmlns:cc="http://creativecommons.org/ns#"
   xmlns:rdf="http://www.w3.org/1999/02/22-rdf-syntax-ns#"
   xmlns:svg="http://www.w3.org/2000/svg"
   xmlns="http://www.w3.org/2000/svg"
   xmlns:sodipodi="http://sodipodi.sourceforge.net/DTD/sodipodi-0.dtd"
   xmlns:inkscape="http://www.inkscape.org/namespaces/inkscape"
   width="512"
   height="512"
   viewBox="0 0 135.46666 135.46667"
   version="1.1"
   id="svg1751"
   inkscape:version="0.92.2 2405546, 2018-03-11"
   sodipodi:docname="cavallo-1.svg">
  <defs
     id="defs1745" />
  <sodipodi:namedview
     id="base"
     pagecolor="#ffffff"
     bordercolor="#666666"
     borderopacity="1.0"
     inkscape:pageopacity="0.0"
     inkscape:pageshadow="2"
     inkscape:zoom="0.35"
     inkscape:cx="-748.57143"
     inkscape:cy="537.14286"
     inkscape:document-units="px"
     inkscape:current-layer="layer1"
     showgrid="false"
     units="px"
     inkscape:window-width="1920"
     inkscape:window-height="994"
     inkscape:window-x="0"
     inkscape:window-y="21"
     inkscape:window-maximized="1" />
  <metadata
     id="metadata1748">
    <rdf:RDF>
      <cc:Work
         rdf:about="">
        <dc:format>image/svg+xml</dc:format>
        <dc:type
           rdf:resource="http://purl.org/dc/dcmitype/StillImage" />
        <dc:title />
        <cc:license
           rdf:resource="http://creativecommons.org/licenses/by-sa/4.0/" />
        <dc:date>2018</dc:date>
        <dc:creator>
          <cc:Agent>
            <dc:title>Cristian Pozzessere  == ilnanny ==</dc:title>
          </cc:Agent>
        </dc:creator>
        <dc:subject>
          <rdf:Bag>
            <rdf:li>Global language</rdf:li>
          </rdf:Bag>
        </dc:subject>
        <dc:description>Playing with Inkscape on Gnu/Linux O. S.</dc:description>
        <dc:contributor>
          <cc:Agent>
            <dc:title>In the night, alone like a dog.</dc:title>
          </cc:Agent>
        </dc:contributor>
      </cc:Work>
      <cc:License
         rdf:about="http://creativecommons.org/licenses/by-sa/4.0/">
        <cc:permits
           rdf:resource="http://creativecommons.org/ns#Reproduction" />
        <cc:permits
           rdf:resource="http://creativecommons.org/ns#Distribution" />
        <cc:requires
           rdf:resource="http://creativecommons.org/ns#Notice" />
        <cc:requires
           rdf:resource="http://creativecommons.org/ns#Attribution" />
        <cc:permits
           rdf:resource="http://creativecommons.org/ns#DerivativeWorks" />
        <cc:requires
           rdf:resource="http://creativecommons.org/ns#ShareAlike" />
      </cc:License>
    </rdf:RDF>
  </metadata>
  <g
     inkscape:label="Livello 1"
     inkscape:groupmode="layer"
     id="layer1"
     transform="translate(0,-161.53332)">
    <rect
       style="opacity:1;fill:#b92828;fill-opacity:1;stroke:#232323;stroke-width:0.33554754;stroke-linecap:round;stroke-linejoin:bevel;stroke-miterlimit:4;stroke-dasharray:none;stroke-opacity:0.21132076;paint-order:stroke markers fill"
       id="rect819"
       width="134.60196"
       height="134.60194"
       x="0.4323529"
       y="161.96568" />
    <g
       id="g1731"
       transform="matrix(0.04733057,0,0,-0.04733057,-38.760798,333.86721)"
       style="fill:#000000">
      <path
         d="m 3549.21,2397.09 -47.31,-4.31 c -5.65,-0.5 -6.84,2.17 -2.67,6 l 33.75,30.8 c 4.2,3.82 5.54,11.04 2.98,16.11 -59.35,117.93 -144.85,268.73 -255.22,415.63 -3.41,4.54 -9.26,4.77 -13.24,0.73 -50.19,-51.06 -146.52,-107.7 -196.74,-129.23 -5.2,-2.23 -6.4,-0.46 -2.44,3.6 28.87,29.64 113.2,110.46 155.27,182.66 2.85,4.89 2.12,12.52 -1.49,16.9 -8.46,10.28 -17.06,20.52 -25.78,30.69 -3.68,4.31 -10.15,4.76 -14.69,1.35 -12.52,-9.43 -26.75,-17.23 -40.88,-19.1 -5.63,-0.74 -7.6,3.53 -4.83,8.47 5.57,9.89 13.11,25.28 20,41.13 2.27,5.21 0.92,12.86 -2.92,17.04 -13.81,15.04 -27.88,29.89 -42.25,44.49 -3.99,4.04 -9.35,3.2 -12.39,-1.58 -21.63,-34 -62.93,-64.78 -99.89,-81.67 -5.16,-2.36 -6.57,-0.45 -3.4,4.25 17.58,25.99 44.75,80.37 51.06,129.91 0.71,5.63 -2.4,13.32 -6.61,17.1 -40.5,36.3 -82.97,70.33 -127.38,101.29 -4.64,3.24 -12.09,3.02 -16.86,-0.03 -16.62,-10.62 -37.13,-18.66 -53.28,-20.86 -5.62,-0.76 -8.88,3.85 -7.92,9.44 3.49,20.2 0.53,41.61 -1.86,53.77 -1.11,5.57 -6.29,12.31 -11.24,15.09 -30.26,17.04 -61.32,32.53 -93.18,46.28 -5.21,2.25 -10.28,-0.5 -11.4,-6.06 -17.75,-87.62 -52.8,-152.57 -79.66,-191.93 -3.2,-4.68 -4.84,-3.94 -3.58,1.59 10.73,46.63 29.12,130.18 28.89,211.65 -0.01,5.67 -4.48,11.77 -9.86,13.54 -74.87,24.67 -153.74,39.4 -236.56,41.59 -5.67,0.15 -7.92,-3.74 -5.05,-8.62 75.88,-128.71 141.92,-276.4 122.47,-419.42 -0.76,-5.62 3.04,-10.7 8.66,-11.48 366.85,-51.66 675.77,-497.56 839.26,-830.19 2.51,-5.09 8.46,-6.84 13.35,-3.96 72.91,42.98 148.99,77.77 226.66,103.89 5.38,1.81 8.07,7.51 5.95,12.76 -10.82,26.82 -31.96,77.15 -63.05,142.35 -2.44,5.13 -9.01,8.85 -14.67,8.34"
         style="fill:#000000;fill-opacity:1;fill-rule:nonzero;stroke:none"
         id="path860"
         inkscape:connector-curvature="0" />
      <path
         d="m 1691.92,2956.33 c 66.93,32.25 258.08,95.96 334.18,139.09 4.93,2.8 10.32,9.6 12.46,14.84 42.81,104.7 161.44,130.86 144.59,256.2 -0.76,5.62 -6.08,9.01 -11.57,7.56 -24.01,-6.33 -48.3,-13.75 -72.84,-22.28 -5.36,-1.86 -8.66,-7.9 -7.91,-13.53 2.39,-18.09 0.18,-33.88 -5.77,-46.85 -2.36,-5.16 -6.67,-4.65 -9.39,0.32 -5.71,10.37 -14.05,21.08 -23.39,32.16 -3.66,4.33 -10.94,6.07 -16.18,3.87 -32.99,-13.78 -66.45,-29.61 -100.37,-47.58 -5.02,-2.66 -7.35,-9.11 -5.27,-14.39 19.44,-49.49 34.01,-96.39 36.41,-145.77 0.27,-5.67 -0.6,-5.75 -2.12,-0.29 -12.86,46.27 -45.47,83.77 -77.17,121.97 -3.62,4.37 -10.5,5.58 -15.36,2.67 -46.36,-27.76 -93.55,-59.53 -141.59,-95.57 -4.54,-3.4 -6.01,-10.22 -3.66,-15.39 5.61,-12.33 10.06,-26.14 12.9,-41.73 1.02,-5.58 -1.31,-6.55 -5.33,-2.55 -8.66,8.61 -20.19,17.55 -32.17,25.69 -4.69,3.17 -12.19,2.78 -16.62,-0.75 -18.41,-14.65 -36.91,-29.88 -55.56,-45.82 -4.31,-3.68 -4.76,-10.15 -1.02,-14.42 l 16.73,-19.12 c 3.73,-4.26 2.18,-8.08 -3.47,-8.54 l -26.06,-2.09 c -5.65,-0.45 -6.75,-3.81 -2.35,-7.39 23.07,-18.77 46.97,-34.79 63.02,-56.42 3.38,-4.55 9.77,-6.35 14.88,-3.89"
         style="fill:#000000;fill-opacity:1;fill-rule:nonzero;stroke:none"
         id="path862"
         inkscape:connector-curvature="0" />
      <path
         d="m 2172.54,2798.69 c -49.56,140.37 211.44,242.35 162.7,465.06 -1.19,5.54 -0.54,5.78 1.64,0.54 142.47,-343.67 -138.69,-363.78 -159.35,-464.93 -1.14,-5.56 -3.09,-6.02 -4.99,-0.67 z m -502.97,-136.83 c 49.76,21.96 135.04,7.54 182.3,7.68 5.67,0.03 9.85,-3.68 8.41,-9.17 -16.27,-61.77 -129.69,-163.18 -192.54,-16.55 -2.23,5.21 -3.36,15.76 1.83,18.04 z m -602.38,-408.98 c 26.34,59.45 6.97,114.03 -55.04,93.69 -5.39,-1.77 -6.39,-2.9 -11.68,-2.13 -1.818,0.27 -4.38,3.87 -4.786,8.35 -0.512,5.65 3.304,12.97 7.896,16.3 l 16.5,11.99 c 4.58,3.33 12.93,5.97 18.46,4.75 46.66,-10.33 155.95,-21.02 31.84,-135.36 -4.17,-3.84 -5.49,-2.78 -3.19,2.41 z m 1442.88,630 c -31.41,-78.99 -95.67,-149.85 -207.02,-203.7 -5.12,-2.46 -6.03,-1.14 -2.05,2.89 144.48,145.99 274.58,327.11 13.42,717.85 -9.41,14.08 -19.28,28.42 -29.71,43.06 -3.29,4.61 -5.7,3.75 -5.51,-1.92 0.53,-15.75 0.11,-30.89 -1.17,-45.5 -21.63,-250.4 -291.63,-340.16 -201.66,-564 2.11,-5.26 1.34,-5.7 -1.84,-1 -49.55,73.18 -67.33,130.69 -66.2,178.66 0.13,5.67 -3.58,8.2 -8.71,5.76 -137.15,-65.28 -440.49,-154.54 -435.75,-256.32 0.28,-5.66 -3.07,-9.6 -8.74,-9.35 -160.1,7.05 -322.37,-225.48 -465.31,-270.78 -14.13,-4.48 -25.35,-25.77 -29.48,-29.67 -13.78,-12.99 -24.21,-18 -33.46,-18.84 -27.286,-2.49 -74.181,-38.37 -92.564,-58.7 -5.921,-6.55 -14.156,-22.93 -15.781,-31.59 -5.484,-28.85 -0.801,-45.1 0.676,-73.06 0.293,-5.66 -2.918,-13.25 -7.082,-17.09 -13.285,-12.22 -39.258,-37.84 -39.75,-51.85 -1.438,-40.01 76.66,-123.36 101.129,-148.46 3.949,-4.06 11.769,-7.95 17.387,-8.75 l 27.065,-3.87 c 5.61,-0.8 7.09,-4.87 3.3,-9.08 l -6.58,-7.32 c -3.8,-4.21 -3.48,-10.75 0.77,-14.5 16.34,-14.38 54.68,-46.62 73.62,-49.56 10.74,-1.67 35.65,8.06 49.32,13.9 5.22,2.21 12.85,1.13 17.17,-2.54 32.65,-27.61 79.77,-59.21 141.31,10.16 3.76,4.26 10.9,9.58 16.23,11.52 79.41,29.03 214.21,43.59 264.62,42.1 5.67,-0.17 13.53,-3.88 17.94,-7.43 21.78,-17.52 71.27,-47.48 135.15,-68 108.63,-34.86 258.87,-42.36 385.4,84.97 36.3,36.55 70.67,84.13 101.51,145.4 2.55,5.07 1.97,13.01 -1.04,17.81 -55.71,88.75 -76.24,221.54 15.99,373.19 2.95,4.85 4.21,4.29 2.96,-1.24 -19.87,-88.05 -23.32,-297.47 55.6,-371.65 4.14,-3.86 5.98,-10.87 3.66,-16.06 -12.96,-28.95 -54.6,-118.13 -98.97,-172.95 -3.58,-4.4 -2.65,-10.19 2.16,-13.21 108.07,-67.88 179.96,-188.08 179.96,-325.12 0,-140.15 -75.15,-262.7 -187.3,-329.68 -4.86,-2.91 -4.47,-6.45 0.94,-8.14 94.05,-29.28 196.21,-76.83 296.89,-141.43 105.35,-67.58 194.55,-144.44 261.45,-221.13 3.74,-4.281 6.51,-3.172 6.26,2.488 -10.08,256.302 64.41,527.932 229.31,767.162 46.9,68.03 98.88,130.09 154.8,186.04 3.99,4.02 6.26,11.72 4.95,17.24 -49.46,206.17 -206.35,522.74 -389.87,710.37 -3.95,4.06 -3.34,4.85 1.42,1.75 226.56,-148.07 367.96,-410.02 466.76,-640.1 2.24,-5.2 7.57,-6.48 11.95,-2.89 27.1,22.23 54.88,43.15 83.3,62.75 4.68,3.23 6.52,9.95 4.06,15.06 -252.97,529 -579.49,764.9 -799.04,794.71 -5.63,0.76 -11.76,-3.09 -13.85,-8.36"
         style="fill:#000000;fill-opacity:1;fill-rule:nonzero;stroke:none"
         id="path864"
         inkscape:connector-curvature="0" />
    </g>
  </g>
</svg>
