<?xml version="1.0" encoding="UTF-8" standalone="no"?>
<!-- Created with Inkscape (http://www.inkscape.org/) -->

<svg
   xmlns:dc="http://purl.org/dc/elements/1.1/"
   xmlns:cc="http://creativecommons.org/ns#"
   xmlns:rdf="http://www.w3.org/1999/02/22-rdf-syntax-ns#"
   xmlns:svg="http://www.w3.org/2000/svg"
   xmlns="http://www.w3.org/2000/svg"
   xmlns:sodipodi="http://sodipodi.sourceforge.net/DTD/sodipodi-0.dtd"
   xmlns:inkscape="http://www.inkscape.org/namespaces/inkscape"
   width="512"
   height="512"
   viewBox="0 0 135.46666 135.46667"
   version="1.1"
   id="svg1751"
   inkscape:version="0.92.2 2405546, 2018-03-11"
   sodipodi:docname="cavallo-2.svg">
  <defs
     id="defs1745" />
  <sodipodi:namedview
     id="base"
     pagecolor="#ffffff"
     bordercolor="#666666"
     borderopacity="1.0"
     inkscape:pageopacity="0.0"
     inkscape:pageshadow="2"
     inkscape:zoom="0.35"
     inkscape:cx="-748.57143"
     inkscape:cy="537.14286"
     inkscape:document-units="px"
     inkscape:current-layer="layer1"
     showgrid="false"
     units="px"
     inkscape:window-width="1920"
     inkscape:window-height="994"
     inkscape:window-x="0"
     inkscape:window-y="21"
     inkscape:window-maximized="1" />
  <metadata
     id="metadata1748">
    <rdf:RDF>
      <cc:Work
         rdf:about="">
        <dc:format>image/svg+xml</dc:format>
        <dc:type
           rdf:resource="http://purl.org/dc/dcmitype/StillImage" />
        <dc:title />
        <cc:license
           rdf:resource="http://creativecommons.org/licenses/by-sa/4.0/" />
        <dc:date>2018</dc:date>
        <dc:creator>
          <cc:Agent>
            <dc:title>Cristian Pozzessere  == ilnanny ==</dc:title>
          </cc:Agent>
        </dc:creator>
        <dc:subject>
          <rdf:Bag>
            <rdf:li>Global language</rdf:li>
          </rdf:Bag>
        </dc:subject>
        <dc:description>Playing with Inkscape on Gnu/Linux O. S.</dc:description>
        <dc:contributor>
          <cc:Agent>
            <dc:title>In the night, alone like a dog.</dc:title>
          </cc:Agent>
        </dc:contributor>
      </cc:Work>
      <cc:License
         rdf:about="http://creativecommons.org/licenses/by-sa/4.0/">
        <cc:permits
           rdf:resource="http://creativecommons.org/ns#Reproduction" />
        <cc:permits
           rdf:resource="http://creativecommons.org/ns#Distribution" />
        <cc:requires
           rdf:resource="http://creativecommons.org/ns#Notice" />
        <cc:requires
           rdf:resource="http://creativecommons.org/ns#Attribution" />
        <cc:permits
           rdf:resource="http://creativecommons.org/ns#DerivativeWorks" />
        <cc:requires
           rdf:resource="http://creativecommons.org/ns#ShareAlike" />
      </cc:License>
    </rdf:RDF>
  </metadata>
  <g
     inkscape:label="Livello 1"
     inkscape:groupmode="layer"
     id="layer1"
     transform="translate(0,-161.53332)">
    <rect
       style="opacity:1;fill:#567da9;fill-opacity:1;stroke:#232323;stroke-width:0.48332378;stroke-linecap:round;stroke-linejoin:bevel;stroke-miterlimit:4;stroke-dasharray:none;stroke-opacity:0.21132076;paint-order:stroke markers fill"
       id="rect825"
       width="134.45418"
       height="134.45418"
       x="0.50624359"
       y="162.03957" />
    <g
       transform="matrix(0.43775331,0,0,-0.43775331,158.71529,214.24208)"
       id="g1988"
       style="fill:#d3a15f;fill-opacity:1">
      <path
         d="m -284.59399,7.9269632 c 2.318,-5.085 9.036,-7.54599993 15.892,-2.732 7.285,5.1149998 25.729,8.8339998 44.484,4.339 18.753,-4.496 31.616,1.8249998 38.127,7.9049998 6.87,6.413 17.051,32.983 -0.73,47.997 -0.447,0.378 -0.535,0.29 -0.234,-0.212 5.681,-9.479 9.588,-43.784 -16.938,-49.181 -24.246,-4.931 -22.816,15.328 -34.045,16.388 -0.584,0.055 -0.698,-0.267 -0.291,-0.688 0.69,-0.712 1.672,-1.882 2.193,-3.212 0.213,-0.546 -0.165,-0.886 -0.741,-0.779 -5.455,1.007 -21.441,0.854 -33.5,-9.159 -0.45,-0.374 -0.365,-0.512 0.184,-0.307 6.771,2.543 23.052,7.195 34.572,3.348 0.555,-0.185 1.233,-0.771 1.532,-1.275 0.693,-1.168 1.938,-3.201 2.996,-4.585 0.355,-0.465 0.21,-0.724 -0.37,-0.637 -5.977,0.903 -23.384,1.843 -33.985,-2.659 -10.876,-4.6169998 -11.153,-7.3749998 -16.53,-0.971 -0.376,0.448 -1.146,0.759 -1.732,0.739 -5.388,-0.188 -16.999,2.279 -12.209,14.749 0.21,0.547 0.505,0.513 0.754,-0.017 0.389,-0.828 1.146,-1.84 2.477,-1.635 1.864,0.287 2.522,1.99 1.921,3.448 -0.223,0.541 -0.092,0.981 0.493,0.947 3.564,-0.213 0.89,-5.208 3.366,-7.713 0.412,-0.416 0.666,-0.187 0.602,0.395 -0.444,4.07 4.011,9.907 -4.605,11.861 -0.572,0.129 -0.751,0.586 -0.314,0.977 2.182,1.952 5.09,1.625 7.986,1.231 0.58,-0.079 0.981,0.334 0.754,0.874 -0.193,0.461 -0.507,1.008 -1.007,1.477 -0.428,0.4 -0.514,0.938 0.014,1.194 1.662,0.806 3.94,0.577 5.358,0.359 0.579,-0.089 0.661,0.112 0.26,0.539 -0.917,0.979 -2.028,2.803 0.32,4.405 3.277,2.233 25.411,13.61 34.442,14.924 0.579,0.085 1.248,0.544 1.525,1.061 1.637,3.057 4.398,5.904 8.21,7.73 7.067,3.386 20.853,-3.741 29.734,3.485 0.456,0.37 0.389,0.945 -0.069,1.311 -0.886,0.706 -2.236,2.026 -2.995,3.96 -0.214,0.545 0.077,0.749 0.608,0.503 0.729,-0.337 1.783,-0.698 2.775,-0.576 0.582,0.071 0.685,0.681 0.323,1.14 -1.409,1.786 -2.904,4.503 0.33,7.091 3.473,2.778 2.624,7.370998 -0.017,10.397998 -0.385,0.442 -0.274,0.656 0.277,0.456 5.841,-2.126 13.021,-10.863998 12.696,-22.175998 -0.016,-0.586 0.224,-0.671 0.505,-0.157 4.335,7.907 4.284,30.568997 -31.194,37.946997 -0.573,0.119 -0.705,-0.127 -0.302,-0.553 13.275,-14.031999 3.432,-19.595997 9.135,-30.585997 0.27,-0.52 0.037,-0.943 -0.546,-0.997 -7.491,-0.701 -16.436,-5.933 -23.612,-6.139 -0.585,-0.017 -1.41,-0.313 -1.852,-0.698 -2.393,-2.078 -6.994,-5.784 -8.796,-8.735 -0.305,-0.501 -0.932,-1.103 -1.48,-1.311 -8.046,-3.061 -24.957,-11.204 -36.135,-19.604 -0.468,-0.352 -1.305,-0.501 -1.891,-0.503 -3.924,-0.008 -12.002,-4.657 -12.833,-12.104 -0.066,-0.582 -0.4,-1.402 -0.716,-1.896 -3.062,-4.791 -3.981,-18.954 13.382,-20.3259998 0.584,-0.046 1.199,-0.521 1.442,-1.055"
         style="fill:#d3a15f;fill-opacity:1;fill-rule:nonzero;stroke:none;stroke-width:0.1"
         id="path860"
         inkscape:connector-curvature="0" />
      <path
         d="m -216.84699,-43.377037 c -9.661,-3.38 -28.634,-5.16 -40.199,-12.530003 -0.494,-0.315 -0.556,-0.242 -0.142,0.171 17.488,17.466003 60.813,36.896003 76.73,57.2200033 0.361,0.461 0.488,0.393 0.283,-0.156 -3.4,-9.083 -10.001,-18.5360003 -13.596,-22.8380003 -0.376,-0.45 -0.293,-0.544 0.174,-0.192 10.977,8.27 51.449,54.564 14.767,91.632 -0.412,0.417 -0.491,0.352 -0.175,-0.141 8.179,-12.776 18.398,-36.289 -4.995,-64.9049998 -23.84,-29.1650002 -125.801,-53.7190002 -120.966,-133.0880032 0.035,-0.585 0.168,-0.594 0.292,-0.021 14.8,67.939 71.693,65.632 88.144,84.400003 0.386,0.44 0.236,0.643 -0.317,0.448"
         style="fill:#d3a15f;fill-opacity:1;fill-rule:nonzero;stroke:none;stroke-width:0.1"
         id="path862"
         inkscape:connector-curvature="0" />
      <path
         d="m -145.68399,52.837963 c -1.884,2.106 -3.743,5.491 -4.593,7.129 -0.27,0.52 -0.097,0.663 0.389,0.335 11.666,-7.878 25.441,-2.824 29.505,2.962 0.337,0.479 0.744,0.467 0.907,-0.095 1.678,-5.802 -2.854,-11.974 -4.654,-14.128 -0.376,-0.45 -0.275,-0.585 0.242,-0.308 20.951,11.185 14.01,30.5 1.13,34.238 -0.563,0.163 -0.692,-0.079 -0.377,-0.573 2.623,-4.117 4.901,-16.849 -8.09,-21.252 -16.916,-5.732 -28.978,17.303 -44.282,15.942 -0.584,-0.052 -0.576,-0.125 0.003,-0.213 9.06,-1.387 18.567,-19.968 29.566,-24.431 0.544,-0.22 0.644,-0.042 0.254,0.394"
         style="fill:#d3a15f;fill-opacity:1;fill-rule:nonzero;stroke:none;stroke-width:0.1"
         id="path864"
         inkscape:connector-curvature="0" />
      <path
         d="m -232.42499,-132.48004 c 0.416,-0.413 0.593,-0.293 0.407,0.262 -4.31,12.793 -0.053,31.552 19.654,31.552 18.134,0 25.575,-15.112 25.575,-27.433 0,-10.463 -10.344,-31.3878 -35.687,-31.3878 -18.018,0 -34.293,12.7878 -34.293,31.3878 0,17.358 6.284,38.289999 56.727,72.537 49.884,33.864003 52.923,88.450003 41.036,107.453003 -0.31,0.497 -0.483,0.422 -0.367,-0.152 4.467,-22.066 5.073,-61.3429997 -42.527,-95.213 -48.358,-34.409003 -73.469,-46.496004 -73.469,-84.625003 0,-39.6781 33.634,-53.0089 52.893,-53.0089 20.111,0 50.333,14.88 50.333,53.0089 0,32.314999 -25.34,39.522999 -40.221,39.522999 -17.212,0 -39.184,-24.925999 -20.061,-43.903999"
         style="fill:#d3a15f;fill-opacity:1;fill-rule:nonzero;stroke:none;stroke-width:0.1"
         id="path866"
         inkscape:connector-curvature="0" />
      <path
         d="m -146.36699,41.986963 c -0.487,0.324 -0.605,0.189 -0.29,-0.305 6.991,-10.936 1.402,-39.2139998 -9.91,-59.349 -13.757,-24.492 4.419,-38.130003 11.858,-38.130003 9.283,0 14.376,3.087 15.283,15.915003 0.042,0.584 -0.263,0.713 -0.696,0.32 -5.849,-5.318 -12.248,-2.733 -15.751,1.669 -8.783,11.038 4.259,29.0620003 4.866,40.3220002 0.031,0.585 0.137,0.599 0.346,0.052 2.91,-7.5899999 15.239,-13.8350002 24.217,-6.4339999 0.451,0.372 0.323,0.65 -0.262,0.624 -10.132,-0.451 -18.822,7.1299999 -18.238,19.8379997 0.556,12.105 -5.044,21.238 -11.423,25.478"
         style="fill:#d3a15f;fill-opacity:1;fill-rule:nonzero;stroke:none;stroke-width:0.1"
         id="path868"
         inkscape:connector-curvature="0" />
      <path
         d="m -170.32799,-37.894037 c -5.691,-9.782 -25.144,-26.254003 -33.436,-31.101003 -0.506,-0.296 -0.453,-0.468 0.125,-0.379 8.384,1.282 23.598,7.532 28.569,11.066 0.478,0.339 1.099,0.254 1.493,-0.179 3.403,-3.728 12.656,-7.172 21.071,-6.482 0.584,0.047 0.643,0.344 0.144,0.652 -7.408,4.57 -17.52,14.470003 -17.486,26.293003 0.002,0.586 -0.185,0.637 -0.48,0.13"
         style="fill:#d3a15f;fill-opacity:1;fill-rule:nonzero;stroke:none;stroke-width:0.1"
         id="path870"
         inkscape:connector-curvature="0" />
      <path
         d="m -188.63099,8.0639632 c -5.922,-3.379 -15.61,-6.5619999 -23.609,-5.8559999 -0.583,0.053 -1.047,-0.357 -1.065,-0.943 -0.077,-2.472 -0.567,-8.699 -3.488,-12.5440003 -0.354,-0.467 -0.247,-0.626 0.287,-0.386 8.281,3.7240003 24.53,14.0560002 28.25,19.3570002 0.336,0.479 0.134,0.662 -0.375,0.372"
         style="fill:#d3a15f;fill-opacity:1;fill-rule:nonzero;stroke:none;stroke-width:0.1"
         id="path872"
         inkscape:connector-curvature="0" />
      <path
         d="m -237.13899,61.302963 c 0.308,-0.79 0.792,-1.629 1.674,-2.071 0.523,-0.263 1.161,-0.745 1.38,-1.288 3.45,-8.531 9.885,-1.722 14.392,-0.745 0.573,0.125 0.756,0.483 0.358,0.912 -5.168,5.569 -12.43,5.378 -17.102,4.43 -0.574,-0.117 -0.915,-0.692 -0.702,-1.238"
         style="fill:#d3a15f;fill-opacity:1;fill-rule:nonzero;stroke:none;stroke-width:0.1"
         id="path874"
         inkscape:connector-curvature="0" />
      <path
         d="m -265.13999,44.359963 c 8.041,-3.986 14.659,4.583 20.47,6.226 0.564,0.159 0.644,0.492 0.094,0.695 -0.957,0.354 -2.201,0.509 -3.473,0.384 -0.583,-0.057 -0.727,0.187 -0.274,0.558 1.199,0.983 2.58,1.529 3.999,1.859 0.57,0.133 0.608,0.408 0.042,0.56 -7.367,1.975 -14.509,-9.833 -20.734,-9.88 -0.586,-0.004 -0.65,-0.142 -0.124,-0.402"
         style="fill:#d3a15f;fill-opacity:1;fill-rule:nonzero;stroke:none;stroke-width:0.1"
         id="path876"
         inkscape:connector-curvature="0" />
    </g>
  </g>
</svg>
