<?xml version="1.0" encoding="UTF-8" standalone="no"?>
<!-- Created with Inkscape (http://www.inkscape.org/) -->

<svg
   xmlns:dc="http://purl.org/dc/elements/1.1/"
   xmlns:cc="http://creativecommons.org/ns#"
   xmlns:rdf="http://www.w3.org/1999/02/22-rdf-syntax-ns#"
   xmlns:svg="http://www.w3.org/2000/svg"
   xmlns="http://www.w3.org/2000/svg"
   xmlns:sodipodi="http://sodipodi.sourceforge.net/DTD/sodipodi-0.dtd"
   xmlns:inkscape="http://www.inkscape.org/namespaces/inkscape"
   width="512"
   height="512"
   viewBox="0 0 512.00002 512.00002"
   id="svg2"
   version="1.1"
   inkscape:version="0.92.2 2405546, 2018-03-11"
   sodipodi:docname="dragone-3.svg">
  <defs
     id="defs4" />
  <sodipodi:namedview
     id="base"
     pagecolor="#ffffff"
     bordercolor="#666666"
     borderopacity="1.0"
     inkscape:pageopacity="0.0"
     inkscape:pageshadow="2"
     inkscape:zoom="1.4628906"
     inkscape:cx="108.34713"
     inkscape:cy="256"
     inkscape:document-units="px"
     inkscape:current-layer="layer1"
     showgrid="false"
     units="px"
     inkscape:showpageshadow="false"
     inkscape:window-width="1920"
     inkscape:window-height="994"
     inkscape:window-x="0"
     inkscape:window-y="21"
     inkscape:window-maximized="1" />
  <metadata
     id="metadata7">
    <rdf:RDF>
      <cc:Work
         rdf:about="">
        <dc:format>image/svg+xml</dc:format>
        <dc:type
           rdf:resource="http://purl.org/dc/dcmitype/StillImage" />
        <dc:title></dc:title>
        <cc:license
           rdf:resource="http://creativecommons.org/licenses/by-sa/4.0/" />
        <dc:date>2019</dc:date>
        <dc:creator>
          <cc:Agent>
            <dc:title>Cristian Pozzessere  &lt; ilnanny &gt;</dc:title>
          </cc:Agent>
        </dc:creator>
        <dc:subject>
          <rdf:Bag>
            <rdf:li>ilnanny</rdf:li>
          </rdf:Bag>
        </dc:subject>
      </cc:Work>
      <cc:License
         rdf:about="http://creativecommons.org/licenses/by-sa/4.0/">
        <cc:permits
           rdf:resource="http://creativecommons.org/ns#Reproduction" />
        <cc:permits
           rdf:resource="http://creativecommons.org/ns#Distribution" />
        <cc:requires
           rdf:resource="http://creativecommons.org/ns#Notice" />
        <cc:requires
           rdf:resource="http://creativecommons.org/ns#Attribution" />
        <cc:permits
           rdf:resource="http://creativecommons.org/ns#DerivativeWorks" />
        <cc:requires
           rdf:resource="http://creativecommons.org/ns#ShareAlike" />
      </cc:License>
    </rdf:RDF>
  </metadata>
  <g
     inkscape:label="Livello 1"
     inkscape:groupmode="layer"
     id="layer1"
     transform="translate(0,-540.3622)">
    <rect
       style="opacity:0.97000002;fill:#33343e;fill-opacity:1;stroke:none;stroke-width:3.94735026;stroke-linecap:round;stroke-linejoin:bevel;stroke-miterlimit:4;stroke-dasharray:none;stroke-opacity:0.21132076;paint-order:stroke markers fill"
       id="rect1443"
       width="508.05264"
       height="508.05264"
       x="1.9736786"
       y="542.33588" />
    <path
       class="fil20"
       d="m 207.92972,631.85695 c 9.45193,-7.92919 10.9821,-18.3249 23.10796,-28.23961 15.28144,-12.50011 34.67444,-10.55987 48.29463,-35.92288 -6.57533,36.56671 -24.50503,35.10814 -36.56669,47.37721 24.35977,-15.13889 45.21807,-7.8265 57.04601,-49.9079 1.93753,9.93091 2.69823,19.66186 -0.69585,28.36796 -5.34783,13.72763 -15.60774,16.60421 -26.29193,24.52868 17.74054,-9.73365 29.73601,2.83604 45.75112,-16.79067 -8.12443,20.84681 -27.66739,30.85204 -46.62327,35.30608 -25.95618,6.09365 -34.13127,-14.66669 -64.02198,-4.71887 z m -42.07193,226.91664 c -0.61477,-6.69696 -1.95917,-10.85645 -4.45878,-14.641 -2.78606,-4.20815 -9.13779,-7.24958 -14.0546,-12.70549 -2.89552,-1.98485 -5.87005,-1.77541 -8.9108,0.62151 -2.11658,4.87223 -5.10057,4.92291 -8.20821,4.27975 -2.14967,3.69403 -1.63219,8.3136 1.56124,13.85262 -6.99285,-3.42921 -12.63591,-7.80354 -8.79662,-18.8147 -3.07724,-9.0324 1.61125,-14.97675 9.19455,-15.63746 4.97354,-0.43304 9.02564,2.32937 13.93029,3.44946 0.33847,-3.63389 0.68368,-7.26646 1.02215,-10.89225 -3.31976,-3.2941 -4.63307,-7.0523 -2.34762,-11.65295 -3.02657,-5.10732 -7.39751,-4.56417 -11.96101,-3.21639 4.20612,-6.23013 8.93444,-10.95374 17.2879,-5.158 5.49577,-0.4452 7.64545,2.80699 9.32559,6.58414 1.8423,7.89136 1.28967,14.43495 0.40061,20.78398 0.55061,2.4638 1.35589,4.45268 2.90767,5.2269 2.59286,-2.13009 4.23247,-5.13435 4.47093,-7.7684 0.90797,-3.78456 2.15914,-7.36578 5.80789,-9.60597 1.0985,-5.43904 -2.67863,-9.42154 -8.67771,-12.74941 6.22067,-1.69163 11.72861,0.44318 16.5184,6.41052 1.63017,3.9352 2.30237,7.98932 0.84651,12.30283 3.36976,5.28299 2.29289,10.17075 -3.2387,14.66939 -2.81713,1.20252 -5.64169,2.40436 -8.46086,3.60688 1.05592,5.56739 2.11387,11.13479 3.16505,16.70015 l 0.36953,2.52934 c -3.44136,3.32516 -6.18688,7.51237 -7.6934,11.82455 z m 64.23881,-35.69928 c -8.31561,8.36494 -17.49596,14.07758 -27.13165,18.50934 -21.23189,9.75932 -31.01552,22.4344 -31.79244,38.12862 7.16647,-8.06971 15.02405,-14.21675 24.39289,-16.1347 -24.0855,31.33171 -14.01407,49.29111 -3.01508,67.49981 -12.03531,-7.14418 -22.71476,-30.28591 -33.40637,-33.0929 -4.37569,-1.1451 -10.89361,1.31735 -17.57637,0.82218 -3.28667,0.66272 -5.4816,3.07586 -6.57804,7.24618 0.92756,5.387 -1.36331,7.6853 -4.11087,9.54989 0.27632,4.49458 3.10764,7.68329 8.49601,9.54989 -7.2212,2.65297 -13.88977,3.54675 -16.71839,-7.9069 -7.12391,-4.66213 -6.62533,-12.82574 -1.09376,-19.0937 3.62445,-4.10883 8.2224,-5.05261 12.60484,-7.90554 -1.64435,-3.07386 -3.2887,-6.14771 -4.93101,-9.21956 -4.30677,-0.025 -7.29754,-1.94902 -7.94812,-7.24483 -5.03368,-1.65988 -8.13389,2.07605 -10.96318,6.58684 -0.0161,-8.02378 1.16537,-15.27267 10.69161,-17.12035 4.02304,-4.51824 7.40021,-3.63391 10.68621,-1.97673 5.57955,4.7155 8.58719,10.20317 11.23746,15.805 1.72813,1.48763 3.39814,2.42059 5.00735,1.83959 0.89108,-3.61769 0.58167,-7.1901 -0.62221,-9.41815 -1.28426,-3.61837 -2.19966,-7.34955 -0.55059,-11.84819 -2.00915,-5.04719 -7.03541,-5.27216 -13.427,-3.29543 3.92981,-6.03759 9.31615,-8.55816 16.1705,-7.57047 3.33124,1.80986 5.98421,4.44526 7.12797,8.88783 5.38836,1.53894 7.1212,6.14703 5.20529,13.82626 -1.55179,3.0752 -3.10561,6.15041 -4.66214,9.22899 3.74674,3.50825 7.49346,7.0192 11.23949,10.5288 -1.63217,-11.76713 -3.66295,-24.33479 5.75588,-36.21405 17.25008,-21.75681 37.11257,-22.50872 55.91172,-29.96772 z m 92.44668,183.80699 c -9.21615,16.6481 -21.44942,19.6294 -49.1837,20.6793 10.16938,-1.9315 20.203,-6.1633 29.95556,-15.1355 7.22862,-1.4964 13.65128,-3.4421 19.22814,-5.5438 z m -43.86155,8.4136 c -15.61518,10.0451 -37.42197,10.7929 -63.60241,4.9621 10.97736,-0.091 24.52393,-1.441 34.62915,-6.7091 10.39571,1.5396 20.0672,2.0247 28.97326,1.747 z m -53.19455,-7.357 c -23.3059,6.4376 -38.12525,-2.4226 -51.08272,-14.63422 10.00724,4.173 20.34552,6.74222 31.52354,5.28703 6.04841,3.87579 12.63321,6.96849 19.55918,9.34719 z M 199.1689,993.74144 c -26.7074,-1.7808 -43.53996,-19.39499 -50.97125,-42.50093 7.6191,9.29318 14.89772,16.28196 26.20681,22.66883 -4.22098,-8.69392 -4.38785,-21.44334 -3.02251,-31.17359 3.30083,23.01537 13.5871,39.625 27.78695,51.00569 z m 40.85593,-57.86412 c 12.51024,7.84677 30.15822,8.29063 53.88094,8.81352 27.83898,0.61883 30.69193,14.38564 28.726,25.68999 -2.92454,16.76636 -15.34629,21.01165 -26.42094,23.68084 15.84892,1.56192 30.15754,-4.95464 35.2223,-23.92742 4.8594,-18.19587 -10.58216,-35.82831 -36.47616,-38.03742 -21.96423,-1.87338 -25.75824,6.41995 -54.93214,3.78049 z m 0.74177,-116.11061 c -6.13015,10.54365 -13.04869,19.75577 -22.04055,30.54127 -10.30518,12.35083 -17.96549,21.30417 -19.56458,32.6815 -1.1032,7.86838 0.9296,14.31808 4.9837,20.51711 11.28206,17.26561 35.63913,25.1421 53.87148,19.53013 15.23147,-4.68779 31.80934,-19.58754 54.77474,-17.94929 -11.7759,2.66243 -18.19181,7.77179 -20.19826,14.61806 3.27652,0.019 6.68277,0.19185 10.13359,0.58435 10.6531,-7.54006 22.64586,-10.49637 36.60656,-0.15336 -7.9454,-1.92066 -15.13822,-0.48845 -19.04709,4.3527 8.52775,3.36031 16.49951,8.88109 21.83788,17.32236 10.40111,2.33207 18.86604,9.22561 25.05765,18.60323 -7.60492,-6.24026 -14.33969,-9.17022 -20.20502,-7.50155 0.33104,1.26129 0.59586,2.54149 0.80055,3.8332 11.39488,7.08336 15.87259,19.85303 16.65894,33.38745 -3.64606,-8.61895 -8.98713,-16.42992 -16.9116,-18.81469 -1.17684,6.32743 -3.71766,12.42377 -7.47588,17.54799 0.17641,13.62703 -2.50029,22.28313 -14.04718,34.39873 4.59728,-8.2946 7.63869,-19.2213 6.11057,-26.41751 -1.20118,0.86743 -2.54287,1.70513 -3.8082,2.42936 -27.2195,15.49625 -85.61664,14.81665 -109.35897,0.5864 -10.50784,-5.62753 -19.92667,-14.0357 -27.91736,-26.23924 11.18952,8.41899 13.54862,19.28085 40.40599,23.07148 8.84866,1.25317 11.48474,-3.17181 4.38717,-9.20468 -4.48986,-3.82172 -9.34452,-5.08571 -14.01814,-6.60506 4.86886,-0.23444 10.85375,-1.59909 23.53965,6.74017 6.22,4.096 8.07174,8.57167 18.23641,11.74888 9.63366,3.009 11.9502,-2.19561 2.74553,-5.94167 -3.53866,-1.4457 -7.14487,-2.64687 -10.71728,-3.96694 3.99465,-1.09984 9.14251,-1.13564 18.41811,2.64554 19.01806,8.50137 40.24589,14.10527 56.30425,-7.92244 11.76171,-16.13672 8.35817,-39.5926 -14.62076,-50.88344 -21.8284,-10.7247 -40.60188,-4.95598 -59.82732,-2.27803 -8.1535,1.34508 -16.30157,1.73015 -24.45707,-1.31871 4.21556,8.12443 11.0652,12.63455 18.1391,16.84067 -17.77024,-5.57753 -35.54185,-11.93467 -53.31413,-42.58943 -2.14225,13.95664 -0.0972,23.90917 3.8467,32.02347 -9.63298,-13.97489 -14.74976,-29.17053 -11.81844,-46.54964 1.34167,-8.3217 5.65046,-17.63852 14.28968,-28.39633 -9.38301,-1.8031 -17.0994,1.22482 -24.45705,5.28028 4.73846,-6.52603 10.78955,-13.11893 26.11154,-20.13814 13.48915,-6.29092 25.10021,-16.2036 36.54509,-26.4142 z m 6.97798,-3.64675 c -1.09374,8.63788 -1.31332,16.64274 -8.00553,29.32052 11.51581,-2.12737 22.06893,-0.26077 32.60583,2.05914 11.16316,2.46112 22.631,2.13955 33.94481,3.21032 -21.60482,5.91464 -53.00137,-0.22832 -73.76237,10.10589 -21.52306,10.71526 -22.96069,27.80521 -12.09951,42.31381 6.85842,8.25617 21.43457,12.96221 41.04439,14.25119 -15.76042,4.25205 -31.75932,4.24531 -47.28667,-9.39586 -11.12263,-9.76541 -16.82108,-30.54667 7.81231,-54.07079 11.73065,-11.19355 19.46189,-23.47614 25.74674,-37.79422 z m 54.15726,29.55157 c 14.85044,-2.83267 28.82126,-8.84863 40.61812,-22.68572 -1.33696,5.50457 -2.6692,11.00102 -4.00142,16.4995 15.30508,-10.93076 19.28758,-28.6598 22.30943,-46.96848 5.21001,6.56655 11.1895,10.38624 17.92022,11.45433 -9.14926,21.23322 -22.62694,34.51971 -40.42286,39.86551 -13.25069,3.28464 -25.2056,3.43529 -36.42349,1.83486 z m -43.84262,-8.37371 c 16.35426,3.86359 34.65551,7.70828 55.49421,0 12.43121,-4.60201 23.39914,-8.92906 37.10041,-40.96265 0.15534,13.63371 -2.35909,20.84139 -4.51348,28.91787 4.61144,-13.39255 12.97165,-22.89719 6.68478,-47.59003 -4.44731,12.32447 -16.34684,43.48389 -52.14608,46.78745 -24.46181,2.24964 -34.43056,5.61804 -42.61984,12.84736 z m -10.0309,0.39993 c 2.54962,-6.24027 5.00464,-12.65009 4.85466,-24.29155 2.72392,3.74538 3.894,7.76435 3.50555,12.0468 9.27831,-9.57084 22.07365,-15.09837 40.11549,-21.08663 10.62946,-3.52378 17.77431,-11.28341 22.75259,-19.12006 0.5533,0.64585 1.1039,1.26806 1.65652,1.85918 4.48512,4.81414 9.01618,7.41575 14.21875,8.31157 -10.98209,20.03545 -27.94369,23.38426 -44.64788,23.83284 -16.97377,0.45466 -29.62927,7.92513 -42.45568,18.44785 z m 53.66411,-78.47178 c -12.25962,-2.52123 -33.82592,-2.03754 -24.97187,20.20771 1.05321,2.64555 2.45907,5.07154 3.68659,7.60289 -7.72652,0 -14.03028,-2.2429 -21.26364,-8.66083 -4.14193,-3.67308 -6.45104,-4.92897 -9.32086,-6.33281 4.30204,-8.94187 8.84661,-19.95506 -1.57746,-24.28749 -2.19968,-5.28637 -6.00585,-8.44872 -13.36081,-6.96853 -4.98368,1.68216 -8.32508,4.2203 -10.02143,7.60017 3.30286,-1.21332 6.51319,-2.65499 11.25098,-0.42695 1.40383,1.41126 2.81038,2.81713 4.21624,4.23043 -4.40676,4.50674 -2.64553,8.51762 0,12.45958 0.2405,2.81715 0.46683,4.3642 0.70799,7.17594 -3.8136,-2.24696 -7.03067,-3.93724 -8.96617,-8.44398 -2.75027,-8.67705 -10.03563,-12.25895 -13.53917,-5.70049 -8.67973,-0.39319 -15.36047,5.74371 -14.58559,16.6826 1.50383,-3.09819 3.52987,-5.7032 7.38063,-6.54631 1.6403,0.20943 2.4003,0.41953 4.03991,0.63098 0.26686,4.86007 3.01981,6.61858 5.62957,6.96921 3.84128,0.51478 3.744,8.08119 8.96347,9.50395 -14.41873,5.58698 -18.31815,18.39517 -10.89901,25.76363 -0.62894,13.24189 8.42237,11.69212 14.76464,9.08104 -4.08722,-0.81204 -6.67128,-3.76766 -7.03068,-10.76863 3.2245,-1.41059 4.86412,-5.13637 5.27623,-9.92684 0.8154,-6.18623 4.17098,-7.48873 7.38332,-9.077 2.86713,0.84108 5.74168,0.84108 8.61556,0 10.5626,-1.36601 15.25578,6.54764 22.00475,11.55633 8.78716,6.524 15.44358,-0.41479 24.57665,-2.68877 8.11024,-2.02198 15.2193,-8.72232 21.49469,-17.49733 -4.85737,-6.43483 -9.65257,-14.37617 -14.45453,-22.1385 z m -79.39192,-79.77292 c 20.16987,-11.23005 45.86596,-13.93503 80.72887,-0.19053 30.09336,11.86373 42.734,30.75611 50.56118,49.62214 -9.59988,-8.23657 -19.824,-11.23274 -31.42358,-2.69553 -4.54052,-19.03019 -16.70689,-30.96823 -31.41883,-39.99387 -11.30165,-6.93274 -23.74705,-10.76728 -35.21759,-10.78416 4.95735,2.55974 9.73094,6.4132 11.88061,10.59364 -11.15843,-7.24011 -27.95789,-7.71436 -45.11066,-6.55169 z m 13.47023,-11.68269 c 17.33383,-9.20871 44.45536,-15.65571 79.39868,0.26955 28.46861,12.97438 46.64083,28.88006 53.7546,66.23785 5.27893,27.739 -2.24491,42.91573 10.09576,64.7124 -7.6387,-2.09293 -13.14124,-7.00095 -17.38856,-13.7006 -4.25137,-6.70439 -6.48955,-17.72702 -9.89984,-24.50031 0.2405,26.07101 -15.62464,36.19311 -28.44429,20.67251 -5.60794,-7.93866 -11.59012,-17.22372 -17.20007,-25.16236 -4.18518,-5.82479 -7.13066,-9.76677 -13.30134,-10.31735 -4.58986,-0.4148 -8.17917,-2.49285 -11.65363,-3.31503 -2.04293,0.41479 -2.64352,0.79379 -4.56216,1.46126 -2.62864,4.37298 -5.55725,10.89361 -9.80659,11.85157 0,5.24312 1.18427,9.4999 5.65994,13.34864 -8.49396,1.70647 -13.46551,-4.48986 -13.46551,-13.93031 -7.95081,-14.18228 7.94136,-24.24967 17.95805,-20.66982 -1.26533,-2.35706 -2.76915,-4.75468 -3.31772,-7.64545 -0.91473,-4.85736 -0.6526,-6.25377 -4.24936,-7.97919 -2.3091,-1.11333 -3.85142,-3.46566 -4.03451,-7.2928 -3.64876,-1.71121 -9.46883,1.31062 -12.66021,5.97477 2.10236,-9.60462 5.7822,-18.13912 17.89861,-14.51197 4.73778,-1.94902 9.23034,0.59586 11.96843,5.84168 2.50502,5.80315 3.3988,11.57796 7.10703,15.27941 1.95916,-0.12636 2.3949,-3.42988 2.61716,-7.19552 -1.43018,-3.53932 -0.73704,-7.9981 1.12212,-12.58117 -2.11656,-4.64052 -6.22944,-6.89017 -12.33797,-6.73749 5.73899,-9.90255 20.8583,-5.49849 22.43846,6.2916 7.88394,8.71083 0.92689,19.28083 -5.70792,24.72662 5.4289,4.54458 8.96081,10.41462 13.87762,16.93053 3.73929,4.96207 7.40697,6.76653 11.38001,7.90554 -3.71091,-22.75531 5.36945,-28.73276 18.6019,-24.33817 9.05603,3.00562 16.39883,11.26584 21.31834,17.01429 -9.43301,-34.09277 -22.81542,-57.7155 -49.36001,-70.41625 -29.70561,-14.20189 -55.20642,-12.9291 -77.80702,-8.22443 z m 25.82307,-18.78497 c 5.66738,-1.84903 9.87146,-5.05935 14.55453,-8.68447 6.33484,0.38373 28.44904,-6.67532 42.99682,-4.46417 10.13561,1.53961 18.12695,7.13066 24.8766,13.36822 -31.37157,-16.02795 -50.51594,3.7197 -18.37759,6.57737 26.07979,2.32396 35.46078,1.40182 57.73913,32.94158 -27.82953,-27.28367 -42.5266,-14.21809 -23.47006,-6.65845 22.39995,7.45225 35.41283,25.83456 41.76186,51.95489 -16.24415,-37.55776 -36.34241,-33.63944 -27.16476,-21.53725 25.42717,33.52528 32.21737,58.57348 21.99056,78.37316 2.32125,-31.96606 -11.94751,-43.00085 -15.8942,-29.3043 -2.57596,8.93511 -0.39791,19.21395 2.03548,29.52657 -11.58268,-17.21427 -4.19664,-52.23931 -11.81373,-74.1434 -16.81364,-48.35679 -66.75059,-69.24886 -109.23464,-67.94975 z m 7.28335,-7.78595 c -9.39519,3.82981 -21.44267,-0.17903 -29.06177,-3.94467 -11.80698,-5.83626 -24.78608,-3.29814 -36.62346,-0.73164 -11.58066,4.57632 -13.11555,-4.58038 -11.43068,-12.67376 -4.32568,5.27895 -5.41945,11.6158 -3.29611,19.00859 -4.82562,-1.42748 -8.73178,-5.07151 -10.98886,-12.6744 0.6222,8.51085 2.46922,15.19361 7.02797,18.14384 -4.91141,0.77014 -9.80929,0.28846 -15.40979,-3.05765 4.10409,4.95264 7.95755,7.82652 16.57042,8.82095 0.77962,-0.0744 1.59706,1.12686 1.69975,1.4464 -2.88874,2.82187 -26.61687,11.06047 -31.22562,9.45938 -4.86954,-1.69705 -8.73245,-1.34914 -12.12654,-0.22902 0.58168,2.17804 0.90325,2.65972 0.90325,4.68307 -3.62243,0.3148 -6.90434,-1.09647 -9.20129,-4.14669 3.32178,9.71407 7.73328,16.8069 15.17133,16.6353 1.08226,6.599 4.37568,11.16993 7.51505,14.2681 -1.17076,-6.23418 -1.46328,-12.63795 0.83163,-17.96482 0.79583,5.75791 3.12655,9.5357 6.15312,12.40958 -0.79582,-4.18245 -0.64788,-8.05283 0.43913,-11.62052 1.25588,4.12776 3.04343,8.1008 6.01259,10.5842 -0.42898,-3.22924 -0.78165,-5.92005 -0.28104,-8.93242 10.8605,0.77218 18.90656,-1.2086 23.93958,-2.70498 -3.44137,8.44599 -8.02175,14.8261 -13.81344,19.0491 -3.6339,-1.31533 -6.07,-5.81533 -7.4306,-8.32238 -0.24321,2.76716 0.36953,7.20498 1.46327,8.81081 -2.75294,-0.33845 -5.95381,-3.47716 -8.22982,-9.25871 -0.30265,3.60552 0.69855,9.95725 2.21926,12.05423 -3.2745,-1.82066 -6.85705,-6.1173 -10.03156,-10.71525 0.54585,5.46539 1.46125,10.11467 3.73456,11.87858 -2.6523,-0.51478 -5.57887,-1.99225 -6.15312,4.22773 -7.34078,4.39732 -9.01823,10.03158 -9.88632,15.84151 2.59824,-5.76466 6.47805,-9.98833 13.18244,-10.8247 -1.83755,5.46269 -0.59112,9.06821 1.09848,12.4096 0.44319,-6.07272 2.34491,-10.0336 5.71534,-11.88266 0.95323,6.69223 3.07858,11.61851 6.37739,14.78559 -1.91117,-5.28365 -1.47071,-10.20992 1.31331,-14.78559 1.32007,6.69223 4.83577,11.18005 7.91233,12.93858 -2.27129,-5.63428 -2.34289,-10.65108 -0.21686,-15.31727 2.49285,7.62181 7.39547,10.86996 13.40605,12.15221 -3.1583,-4.31151 -5.7275,-8.8892 -4.17573,-15.31727 8.13661,2.81243 14.21135,7.4786 19.99561,12.40757 -4.38784,-6.1396 -6.00584,-14.36873 -5.70792,-24.02807 2.70973,6.51588 6.0011,10.91251 9.88565,13.20069 -5.66736,-16.30158 -2.65027,-42.45094 51.09286,-53.86205 -10.99426,0.35264 -22.30064,0.70327 -33.28951,1.0539 14.00125,-3.16032 27.3884,-6.58277 34.91967,-13.27499 z m -77.20846,11.97113 c 3.10763,-2.10914 6.31524,-3.61093 9.83093,-5.24312 4.3946,-2.04764 6.51117,-2.89077 10.27411,-3.24409 -5.26676,2.81241 -8.6703,6.26593 -13.42498,10.72471 -1.0485,-0.9485 -2.09494,-1.90376 -3.14816,-2.85024 -0.89852,0.20267 -2.46179,0.61274 -3.5319,0.61274 z"
       id="path104"
       inkscape:connector-curvature="0"
       style="clip-rule:evenodd;fill:#d40000;fill-rule:evenodd;stroke-width:0.06755723;image-rendering:optimizeQuality;shape-rendering:geometricPrecision;text-rendering:geometricPrecision" />
  </g>
</svg>
