<?xml version="1.0" encoding="UTF-8" standalone="no"?>
<!-- Created with Inkscape (http://www.inkscape.org/) -->

<svg
   xmlns:dc="http://purl.org/dc/elements/1.1/"
   xmlns:cc="http://creativecommons.org/ns#"
   xmlns:rdf="http://www.w3.org/1999/02/22-rdf-syntax-ns#"
   xmlns:svg="http://www.w3.org/2000/svg"
   xmlns="http://www.w3.org/2000/svg"
   xmlns:sodipodi="http://sodipodi.sourceforge.net/DTD/sodipodi-0.dtd"
   xmlns:inkscape="http://www.inkscape.org/namespaces/inkscape"
   width="512"
   height="512"
   viewBox="0 0 512.00002 512.00002"
   id="svg2"
   version="1.1"
   inkscape:version="0.92.2 2405546, 2018-03-11"
   sodipodi:docname="dragone-2.svg">
  <defs
     id="defs4" />
  <sodipodi:namedview
     id="base"
     pagecolor="#ffffff"
     bordercolor="#666666"
     borderopacity="1.0"
     inkscape:pageopacity="0.0"
     inkscape:pageshadow="2"
     inkscape:zoom="1.4628906"
     inkscape:cx="108.34713"
     inkscape:cy="256"
     inkscape:document-units="px"
     inkscape:current-layer="layer1"
     showgrid="false"
     units="px"
     inkscape:showpageshadow="false"
     inkscape:window-width="1920"
     inkscape:window-height="994"
     inkscape:window-x="0"
     inkscape:window-y="21"
     inkscape:window-maximized="1" />
  <metadata
     id="metadata7">
    <rdf:RDF>
      <cc:Work
         rdf:about="">
        <dc:format>image/svg+xml</dc:format>
        <dc:type
           rdf:resource="http://purl.org/dc/dcmitype/StillImage" />
        <dc:title></dc:title>
        <cc:license
           rdf:resource="http://creativecommons.org/licenses/by-sa/4.0/" />
        <dc:date>2019</dc:date>
        <dc:creator>
          <cc:Agent>
            <dc:title>Cristian Pozzessere  &lt; ilnanny &gt;</dc:title>
          </cc:Agent>
        </dc:creator>
        <dc:subject>
          <rdf:Bag>
            <rdf:li>ilnanny</rdf:li>
          </rdf:Bag>
        </dc:subject>
      </cc:Work>
      <cc:License
         rdf:about="http://creativecommons.org/licenses/by-sa/4.0/">
        <cc:permits
           rdf:resource="http://creativecommons.org/ns#Reproduction" />
        <cc:permits
           rdf:resource="http://creativecommons.org/ns#Distribution" />
        <cc:requires
           rdf:resource="http://creativecommons.org/ns#Notice" />
        <cc:requires
           rdf:resource="http://creativecommons.org/ns#Attribution" />
        <cc:permits
           rdf:resource="http://creativecommons.org/ns#DerivativeWorks" />
        <cc:requires
           rdf:resource="http://creativecommons.org/ns#ShareAlike" />
      </cc:License>
    </rdf:RDF>
  </metadata>
  <g
     inkscape:label="Livello 1"
     inkscape:groupmode="layer"
     id="layer1"
     transform="translate(0,-540.3622)">
    <rect
       style="opacity:0.97000002;fill:#33343e;fill-opacity:1;stroke:none;stroke-width:3.94735026;stroke-linecap:round;stroke-linejoin:bevel;stroke-miterlimit:4;stroke-dasharray:none;stroke-opacity:0.21132076;paint-order:stroke markers fill"
       id="rect1443"
       width="508.05264"
       height="508.05264"
       x="1.9736786"
       y="542.33588" />
    <path
       class="fil13"
       d="m 266.78618,921.23291 c -1.70191,0 -4.25952,0 -5.95987,-0.84991 -0.85149,-2.55393 -1.7035,-5.96302 -1.7035,-9.36687 3.40385,0 5.96146,0 10.21887,0 0,3.40385 0.85202,6.81294 0.85202,10.21678 -0.85202,0 -1.70402,0 -3.40752,0 z m -21.29028,0.85411 c -1.70507,-0.85411 -2.5555,-0.85411 -4.259,-0.85411 0.85201,-0.84991 1.7035,-1.70349 2.55393,-1.70349 0,-5.10944 0,-5.10944 -1.70192,-6.81346 11.92237,-3.40752 11.92237,-1.69983 13.62639,7.66704 -3.40595,0.84991 -6.81346,0.84991 -10.2194,1.70402 z m -13.6269,0.84991 c -2.55446,-0.84991 -5.11102,-1.70402 -7.66547,-1.70402 1.70244,-3.40384 5.11101,-9.36686 6.81187,-12.77071 1.70456,0 3.40804,0.84624 5.9625,0.84624 -0.85149,4.26162 -0.85149,8.52063 -0.85149,11.92447 -1.70297,0.85411 -2.55497,0.85411 -4.25741,1.70402 z m -17.03286,-1.70402 c -4.26005,-3.40384 -9.37054,-6.81293 -13.62848,-10.21678 2.55393,-0.8541 5.11048,-1.70769 7.66651,-3.40751 0.85096,-1.70402 0.85096,-4.26163 1.70192,-5.96145 1.70506,0 2.55498,0 4.26005,0.84992 0,-1.70403 -0.85411,-3.40753 -0.85411,-5.10786 5.11154,3.40383 9.36896,5.10786 11.07402,11.07297 -1.70506,0.84624 -2.55497,0.84624 -4.26004,1.69983 0,2.55393 0,5.96354 0,8.51747 -1.70244,0.84992 -4.25848,1.7035 -5.95987,2.55341 z m -17.88538,-14.4784 c -4.25953,-7.66495 -6.81452,-11.06878 -6.81452,-18.73215 3.40699,1.69983 3.40699,1.69983 8.51643,0.84623 0,-1.70401 0,-2.55393 0.85411,-4.25741 0.84939,0.85725 1.70088,0.85725 2.55393,1.70348 0.8499,-1.70348 1.70088,-2.55393 2.55497,-3.40751 5.10945,6.81504 5.10945,6.81504 6.81242,12.77858 -2.55393,0.8499 -5.10996,0.8499 -7.66651,1.7035 -0.85098,2.55393 -1.70088,5.10786 -2.55393,6.81135 -1.70088,0.85044 -3.40753,1.70402 -4.2569,2.55393 z m -0.85307,-5.96145 c 0,-1.7035 0,-2.5534 0.85307,-3.40383 0.84937,0.85043 0.84937,1.70033 1.70191,2.55393 -0.85254,0.8499 -1.70191,0.8499 -2.55498,0.8499 z m -6.81188,-16.18188 c -1.70403,-8.51539 -3.40804,-12.7728 2.55393,-20.43984 0.85149,0.85358 0.85149,2.55706 1.70349,3.40751 2.55446,-0.85045 4.2569,-2.55393 6.81294,-3.40751 5.10943,5.10943 4.25951,5.10943 3.40542,13.62795 -6.81083,0.85043 -8.51539,4.25796 -14.47578,6.81189 z m 2.55393,-3.40751 c -0.85148,-1.70403 -1.7035,-2.55395 -2.55393,-4.25796 1.70245,0 2.55393,0 4.25742,-0.84992 -0.852,1.7035 -0.852,3.40385 -1.70349,5.10788 z m 63.87556,-28.10165 c 0,-0.85358 0,-0.85358 0,-0.85358 0.84991,0 1.70193,0 3.40751,0 0,1.7035 0,2.55393 0,3.40751 -0.8499,-0.85358 -2.5576,-0.85358 -3.40751,-0.85358 0,-0.85043 0,-1.70035 0,-1.70035 z m 0,-0.85358 c 0,0 0,0 0,0.85358 -14.4784,1.70035 -37.47533,-5.96511 -47.69577,5.95778 -5.95882,1.70349 -5.95882,1.70349 -11.92184,0.85358 17.03338,-13.62639 39.17882,-17.03233 59.61761,-7.66494 z m 28.10688,69.83858 c -2.55603,-0.85411 -5.96354,-1.70402 -8.51905,-2.5576 -0.84991,-2.55394 -0.84991,-4.25743 -1.70192,-6.81346 6.81346,-0.84991 6.81346,-0.84991 12.77648,0 -0.85569,5.96354 -0.85569,5.96354 0,8.51695 -0.85569,0 -1.70559,0.85411 -2.55551,0.85411 z m 13.62482,1.69982 c -9.36739,-2.55393 -9.36739,-2.55393 -9.36739,-4.25742 0.85201,0 1.70401,0 2.55393,0 0,-2.55394 0,-2.55394 1.7056,-3.40385 -0.85359,-0.85358 -0.85359,-1.70559 -1.7056,-2.55551 3.40961,0.84992 5.96303,1.70193 9.37054,1.70193 0,2.55708 0,5.11101 0,8.51485 -0.85358,0 -1.7056,0 -2.55708,0 z m 22.14334,53.65664 c -0.84992,0 -0.84992,-0.85039 -1.70193,-1.70029 6.81345,-15.33199 6.81345,-15.33199 8.51538,-16.18032 1.70559,8.51537 -1.70193,12.7728 -6.81345,17.88061 z m 5.11152,-20.43612 c -0.852,-5.11153 -1.70401,-8.51906 1.70193,-12.777 0.852,2.55393 0.852,5.96144 1.70559,9.36529 -1.70559,0.85411 -2.5555,2.5576 -3.40752,3.41171 z m -4.25952,-13.63058 c -1.70192,-2.55393 -3.40752,-5.10786 -5.10943,-7.66704 0.84991,-0.84992 1.70191,-0.84992 2.5555,-1.69982 -0.85359,-1.70403 -1.70559,-3.40804 -2.5555,-5.11154 0.84991,-0.84992 1.70191,-0.84992 2.5555,-0.84992 2.55393,3.40385 4.25796,7.66128 5.96145,11.07089 -0.85201,1.7035 -2.55761,3.40384 -3.40752,4.25743 z m -8.51694,-11.92447 c -3.40595,-3.40385 -3.40595,-3.40385 -6.81136,-4.25796 0,-1.70349 0,-2.5534 -0.85202,-4.25742 4.25743,-2.55393 5.96146,-1.70402 8.51696,0.84991 -0.85358,2.55761 -0.85358,5.11154 -0.85358,7.66547 z M 167.99239,641.03446 c 0.85043,0.84991 1.70295,0.84991 1.70295,1.7035 3.40805,0 5.96198,0 9.37107,0.8499 -9.37107,5.96354 -12.77805,6.81346 -23.84841,6.81346 1.70244,-5.10943 6.81242,-10.21888 12.77439,-9.36686 z m -12.77439,54.5045 c -4.25847,-7.66338 -5.96354,-11.92132 -6.81293,-21.29029 0.84939,-0.85148 1.7035,-0.85148 3.40595,-1.70348 0.85201,2.55393 1.70349,4.25741 3.40698,6.81345 0.85096,0 1.70244,0 3.40542,0 0,-3.40804 0.85148,-6.81345 0.85148,-10.22098 3.40857,0 4.259,5.11101 8.51749,5.96146 0,-2.55393 0.85043,-5.11155 1.70295,-6.81189 7.666,12.7749 8.51749,15.33041 -4.25741,19.58835 -2.55446,5.96145 -5.10892,6.81293 -10.21993,7.66338 z m 40.0282,40.88125 c -9.36843,-4.25532 -16.17979,-5.96091 -18.7374,-16.18031 3.40753,0.84991 6.81504,3.40751 13.62744,3.40751 -0.85043,-4.2611 -1.70401,-8.51853 -2.55446,-12.77647 2.55446,-0.85201 5.10945,-1.7056 8.51591,-1.7056 -0.85149,-5.96144 -0.85149,-5.96144 -3.40646,-7.66494 0.852,-0.85044 0.852,-0.85044 1.70401,-1.70192 9.36635,5.10943 14.47893,5.10943 14.47893,15.3304 -2.55603,1.7035 -4.25849,3.40752 -6.81346,5.11102 0,7.66547 0.8499,11.92499 -6.81451,16.18031 z m -24.69726,-22.99534 c 0,-0.84992 0,-2.55393 -0.8536,-3.40594 0.8536,0 2.55552,0 3.40805,0.85201 0,1.70401 0,1.70401 -2.55445,2.55393 z m 23.8463,18.74002 c -0.85201,-0.85411 -0.85201,-1.70559 -1.70401,-2.55604 0.852,0 1.70401,-0.8499 2.55497,-0.8499 0.85149,0.8499 0.85149,1.70035 1.70456,2.55183 -0.85307,0 -1.70456,0.85411 -2.55552,0.85411 z m -24.6999,-89.42693 c 0,-0.85359 -0.85252,-0.85359 -1.70295,-1.7035 0,-0.85202 0.85043,-0.85202 0.85043,-1.70403 10.22359,-4.25742 19.58941,-1.70192 29.80985,0.85201 -1.70191,0.85202 -1.70191,0.85202 -28.95733,2.55552 z m -20.44088,27.24961 c -1.7014,-6.81345 -0.84939,-10.21887 0.85411,-17.03232 0.85096,0 2.55446,-0.84991 4.2569,-0.84991 0.85253,0.84991 2.55497,2.55393 3.40804,4.25585 0.84991,-0.85045 1.70139,-2.55393 2.5555,-3.40594 0.85096,0.85201 1.70141,1.70402 2.55446,2.55549 1.70297,-0.85147 3.40489,-0.85147 5.10892,-1.70348 0,4.25743 0,7.66336 0,11.92657 -8.51749,0 -11.07195,0.8478 -18.73793,4.25374 z m 68.98551,74.95011 c -5.1089,-1.70401 -9.3658,-4.25951 -14.47838,-5.96144 0,-0.85411 0,-2.55603 -0.85098,-3.40751 3.40753,0 5.96356,-0.85043 9.37054,-0.85043 -0.85305,-6.81293 -2.55602,-9.36686 -2.55602,-13.62849 1.70297,0 4.2569,0 5.96144,0 0,-3.40752 -0.85043,-6.81136 -1.70454,-9.37054 6.81398,0 6.81398,0 16.18347,4.25953 0,3.40751 0.8499,6.81871 0.8499,10.22464 -0.8499,0.85148 -1.70086,0.85148 -3.40436,1.70193 0,4.25952 -0.85306,9.36686 -1.70507,13.6248 -2.55498,0.85149 -5.10996,2.55551 -7.666,3.40751 z M 168.84282,718.5364 c -5.10892,-5.96145 -7.66285,-10.22307 -10.2194,-17.036 4.26005,0.85358 4.26005,0.85358 10.2194,0 0.85252,-3.40594 0.85252,-6.81189 1.70612,-10.2194 3.40593,2.55603 3.40593,3.40751 7.66389,2.55603 0.85358,-2.55603 0.85358,-5.10943 0.85358,-7.66336 7.66285,5.95934 8.51537,9.36529 9.36582,17.88381 -5.96146,4.25585 -6.81242,5.10786 -9.36582,11.92132 -3.40909,0.85358 -6.81555,1.70349 -10.22359,2.5576 z m 181.40833,67.28098 c -3.40751,-6.81504 -7.66337,-12.77491 -7.66337,-21.29185 2.55393,0.85201 5.10786,1.70191 7.66337,2.55549 0.85201,-0.85358 2.55393,-2.55549 3.40751,-3.40751 0,-2.55393 0,-5.10733 0,-7.66494 2.55393,0.85358 5.10943,0.85358 7.66547,0.85358 0,-4.26319 0,-7.66704 0,-11.92447 8.51328,11.07089 12.77438,15.32832 10.22097,29.80882 -11.92499,5.10942 -17.88644,10.22097 -21.29395,11.07088 z m -12.77648,-21.29185 c -5.10943,-4.25953 -11.07088,-7.66338 -12.77281,-14.4784 7.66338,-5.10945 7.66338,-6.81346 6.81136,-15.32883 2.55552,-0.85359 4.26163,-0.85359 5.96145,-1.7035 0.85569,-2.5555 0.85569,-5.10943 1.70559,-7.66336 11.07089,5.95934 23.84736,18.73424 5.10786,23.84367 -0.85043,6.81346 -1.70034,10.22097 -6.81345,15.33042 z m -1.69982,-5.95935 c 0,-0.85411 0,-2.55761 0,-3.40804 0.84991,0 1.69982,0.85043 2.55551,0.85043 -0.85569,0.85358 -1.7056,1.7035 -2.55551,2.55761 z m -20.44194,-6.81714 c -3.40751,-1.70191 -7.66547,-2.55393 -11.07089,-4.25794 0,-1.7035 -0.85358,-4.25743 -0.85358,-6.81293 1.7056,-0.85201 2.55551,-1.70193 4.259,-3.40594 -0.8499,-3.40752 -0.8499,-6.81293 -0.8499,-10.21731 1.70191,-0.85148 2.55393,-1.70348 4.25584,-1.70348 -1.70191,-3.40963 -2.55393,-7.66915 -4.25584,-11.07299 9.36528,-3.40751 17.03232,0.85043 24.69568,5.96145 0,1.70191 0.85202,4.25794 0.85202,5.96354 -7.66338,8.51486 -8.51538,11.91869 -11.07299,23.84369 -1.70191,0 -4.25743,0.85201 -5.95934,1.70191 z m 0.84991,-5.10786 c -0.84991,-0.85358 -0.84991,-1.7035 -0.84991,-2.5555 0.84991,-0.85201 1.70191,-0.85201 3.40751,-0.85201 -0.85201,3.40751 -0.85201,3.40751 -2.5576,3.40751 z m -26.3992,0 c 1.70193,-5.11101 1.70193,-5.96301 6.81295,-8.51905 -0.85359,-1.70192 -0.85359,-3.40383 -1.7035,-4.25742 1.7035,0 2.55393,0 3.40541,0 1.7056,5.96145 1.7056,6.81346 -0.85148,11.92289 -2.55393,0 -5.10786,0.85358 -7.66338,0.85358 z m 8.51486,-12.77647 c -0.85148,0 -1.70191,0 -3.40541,0 0.84991,0.85359 0.84991,2.5555 1.7035,4.25742 -5.11102,2.55604 -5.11102,3.40804 -6.81295,8.51905 -4.26162,0 -7.66704,0 -11.92498,0 3.40751,-7.66494 4.25794,-9.36895 1.70192,-17.88223 0.85411,-1.70403 2.55602,-2.55551 4.26162,-4.26111 -0.85411,-5.96144 -0.85411,-5.96144 -3.40751,-10.21939 18.73583,-1.7035 27.25277,0 17.88381,19.58626 z m -38.32366,0.85359 c 3.40542,4.25794 3.40542,4.25794 5.10945,11.92288 -3.40753,0 -6.81136,0.84992 -10.22099,0.84992 0.85202,-5.10944 1.70193,-5.10944 5.11154,-7.66494 0,-1.70403 0,-3.40595 0,-5.10786 z m 5.10945,11.92288 c -1.70403,-7.66494 -1.70403,-7.66494 -5.10945,-11.92288 -2.55759,-2.55341 -2.55759,-2.55341 -3.40961,-6.81293 0.85202,-0.85045 2.5576,-1.70193 4.2611,-2.55393 -0.85149,-1.70403 -0.85149,-3.40963 -0.85149,-5.96513 -1.70191,0 -2.55759,-0.84991 -3.40961,-1.70402 21.29343,-14.47839 27.25697,19.58994 14.4805,28.10531 -2.55603,0 -4.25953,0.85358 -5.96144,0.85358 z m -21.29344,1.70403 c -4.25742,-0.85411 -8.51432,-1.70403 -12.77543,-2.55761 -0.8499,-1.70192 -0.8499,-2.55393 -0.8499,-3.40594 1.7035,-0.85149 3.40594,-1.70349 5.96091,-2.5555 0,-5.96145 -2.55497,-6.81136 -3.40645,-11.06721 1.70348,-1.70403 3.40645,-2.55551 5.11101,-3.40751 -0.85307,-3.40963 -1.70456,-5.96513 -2.55446,-8.51906 22.14072,-5.96144 16.17926,11.92657 16.17926,27.2533 -2.55393,1.70192 -5.10786,2.5555 -7.66494,4.25953 z m 22.99535,-6.81504 c 0.85202,-2.55393 0.85202,-2.55393 4.25953,-4.25794 0,0.8499 0.8499,1.70401 0.8499,3.40594 -1.70191,0 -3.40593,0 -5.10943,0.852 z m -22.99535,1.7035 c 0.85307,-2.5555 0.85307,-2.5555 4.26111,-3.40751 0,0.85201 0,1.70401 0,2.5555 -0.85411,0 -2.55604,0.85201 -4.26111,0.85201 z m 80.91103,-17.03023 c 0,-1.7056 0,-3.40593 0.85202,-4.26163 0,3.40963 0,3.40963 -0.85202,4.26163 z m -29.80879,-1.7056 c 0,-1.70033 0.84991,-3.40803 0.84991,-5.11153 2.5555,1.7035 2.5555,1.7035 2.5555,3.4112 -1.70191,0.8499 -2.5555,1.70033 -3.40541,1.70033 z m 76.65203,78.35554 c 1.70192,0 1.70192,0 0.84781,-5.96354 -1.70192,0.85411 -1.70192,0.85411 -1.70192,3.40593 -0.85358,-1.70192 -2.55393,-3.40593 -3.40751,-5.10943 2.55393,-3.40752 2.55393,-3.40752 3.40751,-6.81136 -2.55393,0 -4.25743,0 -5.96302,0 -0.84991,1.69982 -0.84991,2.55761 -0.84991,4.25375 -0.85044,0 -1.70402,-0.84991 -1.70402,-0.84991 0,-3.40384 0,-5.96144 0,-9.36528 1.70402,0.84991 2.55393,0.84991 3.40751,0.84991 0.85201,1.70402 1.70193,3.40383 1.70193,4.25742 1.7056,0 3.40751,-0.85359 5.96354,-0.85359 0,-3.40383 0.85149,-6.81136 0.85149,-10.21729 1.70191,6.81346 5.10995,31.51072 -1.7056,32.36483 0,-1.70401 -0.84781,-3.40751 -0.84781,-5.96144 z m 0,0 c 0,-0.85359 0,-1.70403 -0.85411,-2.55761 0,-2.55182 0,-2.55182 1.70192,-3.40593 0.85411,5.96354 0.85411,5.96354 -0.84781,5.96354 z m -7.66704,-10.22465 c 0,-1.69614 0,-2.55393 0.84991,-4.25375 1.70559,0 3.40909,0 5.96302,0 -0.85358,3.40384 -0.85358,3.40384 -3.40751,6.81136 -0.84992,-0.85359 -2.55551,-1.70035 -3.40542,-2.55761 z m -11.07298,3.41119 c 0,-2.55393 -0.85201,-5.10733 -0.85201,-7.66494 0.85201,0 1.70559,0 2.55602,0 0,1.69982 0.85359,4.25375 1.7035,5.95777 -1.7035,0 -2.55393,0.85359 -3.40751,1.70717 z m -0.85201,-17.03758 c 0,-1.70035 0,-2.55235 0.85201,-4.25584 0,1.70349 0.85358,2.55549 1.70401,3.40541 -0.85043,0 -1.70401,0 -2.55602,0.85043 z M 324.70186,671.69317 c 8.51696,-0.85201 8.51696,-0.85201 8.51696,0.85202 -2.5555,0 -5.10944,0.852 -8.51696,0.852 0,-0.852 0,-1.70402 0,-1.70402 z m -72.39251,355.99893 c 2.55393,0 4.25586,8.517 1.70193,4.2595 -3.40541,-3.4058 -9.36738,-1.7056 -14.47787,-1.7056 -16.18242,0.8552 -22.14281,-6.8119 -23.84684,-22.9958 5.10944,-1.6983 5.10944,-3.4017 5.96303,-8.51315 -0.85359,0 -1.70403,-0.8537 -2.55603,-0.8537 7.66441,-9.36531 7.66441,-9.36531 13.62639,-12.77283 0.85148,0 2.55655,-0.85407 3.40645,-0.85407 0,0.85407 0,1.70397 0,2.55762 5.11049,0.8499 5.9625,-0.85365 9.36949,-4.2559 0,-1.70342 -0.852,-2.55387 -0.852,-4.26104 9.36738,-11.073 46.84165,-13.62693 37.47268,-7.66549 -1.70191,1.70403 -4.25794,2.55393 -5.95986,3.40385 -9.37054,21.29396 18.73635,11.92493 27.25172,7.66542 0.85358,-2.55388 0.85358,-2.55388 3.4091,-3.40378 -1.7035,1.70717 -2.55552,3.40378 -3.4091,4.26104 2.55551,0.84837 4.259,0.84837 6.81504,1.69828 -4.25953,2.55762 -32.36484,10.2194 -36.62227,12.7765 -0.85358,2.554 -0.85358,4.26145 -0.85358,5.96505 0.85358,0.8505 1.70559,1.7004 2.5555,1.7004 2.55551,0.8535 5.96302,0.8535 8.51905,0.8535 -5.96354,1.6983 -5.96354,1.6983 -8.51905,1.6983 -15.32831,-6.8134 -15.32831,-6.8134 -24.69726,-8.51315 0,-3.4076 -0.85202,-5.96158 -0.85202,-9.3691 -7.66494,0.85365 -7.66494,0.85365 -10.22044,3.40752 -0.85254,6.81148 -3.407,7.66133 -8.51801,11.92293 -0.8499,-0.8499 -0.8499,-0.8499 -1.70086,-1.7004 -9.36897,5.1058 -3.40857,11.0672 -0.85517,20.4361 3.40963,5.1117 17.88854,3.4081 23.84998,4.258 z M 151.81102,766.22744 c -0.85149,-3.40384 -1.70245,-6.81136 -1.70245,-10.21887 0,0 0.85096,0 1.70245,0 0,3.40751 0.85201,6.81503 0.85201,10.21887 z M 266.78618,664.02613 c 7.66704,8.51906 11.07246,11.07299 22.99744,6.81503 -0.852,0 -2.55759,0 -3.40593,0 0.84834,-3.40908 1.70192,-6.81503 2.55393,-10.22097 0.852,3.40594 2.55393,5.11364 0.852,8.51747 13.62482,-11.07297 22.99536,-9.36896 33.21423,2.55551 -3.40751,-0.85201 -6.81503,-0.85201 -10.21887,-1.7056 0,0.85359 0.8499,1.7056 1.70191,2.55762 -1.70191,0.852 -3.40751,2.55393 -5.10942,3.40541 0.85201,2.5576 2.55393,4.25794 3.40751,6.81346 1.70191,0.85358 4.25584,0.85358 5.96144,0.85358 -8.51694,1.70401 -12.77647,-2.55551 -21.29342,-2.55551 -3.40385,1.70193 -6.81346,2.55551 -10.22097,4.25952 0.85358,2.55393 0.85358,2.55393 -0.84834,2.55393 0,-0.8499 0,-1.70191 -0.85569,-3.40594 -0.8499,0 -1.69982,0.85201 -2.55393,0.85201 0,0.85202 0,1.70403 0,1.70403 -7.66494,-3.40804 -8.51485,1.70192 -14.47839,0.8499 0,-1.70191 -0.85148,-2.55393 -0.85148,-3.40594 -9.36529,3.40594 -9.36529,3.40594 -20.44037,5.10944 5.11152,-3.40541 11.07508,-5.96144 16.18241,-9.37054 0,-0.8499 0,-1.70034 -0.85358,-2.55393 -3.40385,-1.70401 -6.81136,-2.55549 -11.07089,-4.25742 0.85358,-0.852 0.85358,-1.70402 0.85358,-3.40962 -6.81345,-1.70034 -7.66545,-3.40594 -15.33145,-3.40594 2.55551,-0.8478 5.11101,-1.70348 7.666,-3.40751 -11.07246,-5.10943 -16.18453,1.70403 -27.2533,3.40751 -6.81451,-2.5555 -6.81451,-2.5555 -17.03443,-3.40751 0,-0.84992 -0.84939,-1.7035 -0.84939,-1.7035 17.03075,0.85358 17.03075,0.85358 19.58679,-0.85043 -0.8536,-2.5555 -3.407,-3.40542 -5.11154,-5.96092 -2.55393,0 -5.10786,0 -7.66389,0 2.55603,-1.70402 2.55603,-1.70402 9.36843,-2.55393 0,-0.85411 0,-1.70402 0.85096,-2.55394 -5.96144,0 -11.07193,0.84992 -16.18136,0.84992 5.96197,-4.25743 11.07193,-0.84992 16.18136,-4.25743 -4.25638,-1.70402 -5.10943,-3.40593 -5.10943,-7.66336 0.85305,0 1.70297,0.8499 3.40804,0.8499 0,-2.55393 -1.70507,-5.11311 -2.55499,-9.36896 5.10945,4.25585 7.66442,6.81503 14.47683,5.11154 0,-2.55604 0,-5.11154 0.85306,-7.66704 4.25796,4.25742 10.21993,3.40542 16.17979,3.40542 0.85307,0.852 0.85307,1.70558 1.70507,2.55969 1.70193,-0.85411 2.55604,-1.70769 4.25795,-1.70769 0,-1.70192 -0.85201,-3.40542 -0.85201,-5.10943 0.85201,-0.84992 2.55393,-0.84992 4.25743,-1.70192 0.85201,0.852 0.85201,1.70192 1.70401,3.40593 1.70193,-0.852 3.40963,-0.852 5.11154,-0.852 0,-2.55393 0.85149,-4.25795 1.70192,-6.81345 2.55551,-0.84992 5.10944,-1.7056 8.51696,-2.55761 0,0.85201 0,1.70769 0,3.40751 -1.70402,0.85411 -2.5555,2.55761 -4.25795,4.26162 0,1.70193 0,3.40542 0.85043,5.10735 0.85202,0.852 2.5555,1.70558 3.40752,2.55969 3.40751,-0.85411 3.40751,-0.85411 5.10943,-3.40961 0.85359,1.70192 1.70193,4.25585 2.55551,5.96354 3.40751,-0.852 5.96354,-0.852 9.36739,-1.70769 0.85358,-2.55393 0.85358,-5.10786 0.85358,-7.66336 -0.85358,0 -1.70192,0 -2.55761,0 -0.8499,0 -0.8499,-0.84992 -1.69982,-0.84992 -0.85411,0.84992 -0.85411,2.55393 -1.7056,3.40542 -0.85043,-5.96144 -0.85043,-5.96144 0.85149,-9.36686 -1.70192,0 -2.5534,0 -4.25742,0 -1.70559,1.69982 -3.40752,3.40542 -5.10944,5.96144 -0.85358,0 -1.7056,-0.852 -2.5555,-0.852 2.5555,-4.25952 2.5555,-4.25952 4.25742,-13.62849 5.11154,-0.852 26.40339,3.40594 29.81091,-1.70402 -5.10996,0 -5.10996,0 -5.96354,-1.70191 3.40751,-3.40753 3.40751,-3.40753 5.96354,-4.25902 0,-0.85043 0,-0.85043 5.95934,-2.55393 0,0.85202 0,0.85202 0,1.7035 7.66704,0.85043 17.88591,8.51538 25.55138,8.51538 7.66336,-0.852 14.4784,-9.36686 10.21888,-16.18032 -11.06879,-19.59202 8.51904,-22.99744 24.70146,-9.36896 2.55341,1.7035 3.40384,7.66704 2.55341,11.92447 -0.85149,0.852 -0.85149,0.852 -1.7056,0.852 -2.5555,-12.77647 -3.40383,-15.33249 -15.3304,-16.18398 -5.10944,0 -6.81136,2.5555 -5.95935,5.11101 3.40593,19.58625 -0.85201,32.36483 -20.43984,28.95522 -9.37107,-2.55551 -12.77491,-11.9229 -22.99588,-10.21887 1.70403,3.40541 4.25796,5.96144 5.96144,10.21887 -2.5555,1.70192 -2.5555,1.70192 -2.5555,4.25953 0.85202,-0.84992 2.5555,-0.84992 4.25953,-1.7056 3.40751,4.2611 2.5555,11.92447 2.5555,17.03809 -0.85359,0 -1.70559,0 -2.5555,0 -0.85202,-0.852 -1.70403,-2.55393 -2.55393,-3.40804 -0.85358,0 -2.5555,0 -3.40751,0.85411 -1.70403,5.10945 -1.70403,6.81136 -6.81346,8.51329 -0.85149,1.70349 -0.85149,2.5555 -0.85149,4.25952 -0.85201,-0.852 -2.55602,-0.852 -3.40804,-1.70402 -1.70191,2.55603 -3.40541,4.25795 -5.10944,5.96145 0,-2.5555 -0.8499,-3.40542 -1.70349,-5.10943 -3.40594,0 -7.66337,0.852 -11.07088,1.70401 -1.70402,-3.40804 -1.70402,-3.40804 -5.11154,-3.40804 6.81345,23.84422 34.06834,-2.5534 49.39873,-3.40542 15.32832,0 33.21475,10.21888 28.10322,32.36275 -3.40594,5.96301 -3.40594,5.96301 -11.92079,13.62848 -0.85411,2.55393 -0.85411,7.66336 1.70349,5.95934 11.92131,-7.66337 20.43984,-12.77437 26.4013,-8.51537 1.70191,4.25794 1.70191,4.25794 1.70191,5.10996 -1.70191,-0.85202 -2.55393,-2.55393 -3.40751,-3.40595 -11.9208,0.85202 -13.62482,4.25743 -22.99536,12.77281 -2.55393,2.5555 -7.66336,1.70402 -7.66336,-1.70192 -1.70402,-17.0339 6.81293,-12.7749 14.4784,-26.40497 -5.10944,-33.21107 -34.92034,-22.99167 -57.91412,-11.92288 -24.69936,3.40593 -17.03232,-11.06879 -28.95679,-22.13968 -2.55551,0 -4.25743,0 -6.81502,0 0,2.55552 -0.85202,5.10945 -1.70193,7.66285 -6.81346,-1.70349 -9.36739,-2.5534 -17.03443,0 4.25953,6.81346 6.81503,7.66337 9.37107,12.77333 9.36529,0.85358 11.92288,1.7035 18.73424,7.66494 z M 150.10857,583.11825 c -5.96355,-0.85149 -11.07245,-0.85149 -17.0339,-1.70193 11.92446,-4.259 34.91772,2.55761 48.54514,3.40594 2.55499,5.96303 5.10945,6.81346 11.07142,9.36896 10.21938,11.9229 11.92445,12.7728 28.10478,8.51695 0,3.40595 0.85359,5.95988 0.85359,9.36739 -13.63007,9.36686 -34.92034,-5.11154 -44.28826,-16.18032 -4.25795,-1.70402 -8.51852,-2.55393 -12.7749,-3.40594 -2.55602,-6.81503 -6.81293,-7.66704 -14.47787,-9.37105 z m 129.45199,319.37884 c -6.81293,-4.25743 -9.36686,-3.40753 -17.0339,-1.70403 0.85358,-2.5534 1.70559,-5.10733 3.40909,-7.66494 -0.85148,-0.8499 -1.7035,-0.8499 -2.55551,-1.7056 1.70403,-0.84623 2.55551,-2.55393 4.25796,-3.40016 -8.51539,-4.26163 -16.18243,-1.7077 -23.84737,3.40016 -0.85043,-8.51537 7.66494,-11.0693 13.6264,-14.47681 -5.10788,-0.84992 -10.2194,-2.55393 -15.32832,-3.40385 -11.92341,2.55393 -14.47787,4.25743 -17.03286,3.40385 18.73478,-14.47472 36.62069,-6.81136 57.91202,-15.3283 13.6285,-10.2194 13.6285,-10.2194 17.03601,-11.07299 -4.2611,7.66546 -8.51853,11.07299 -14.48208,16.18398 0.85569,0.85045 2.55761,1.70035 3.40962,1.70035 -2.55393,2.55183 -5.96355,5.11311 -9.37106,7.66704 0,0.84992 0,1.7035 0,2.55393 2.55602,0 5.11154,0 6.81713,0 -3.40962,3.40753 -7.66704,6.81871 -11.07456,10.21887 0.85359,5.10945 0.85359,5.10945 4.25743,7.66704 2.55602,-0.8499 5.11154,-0.8499 7.66547,-1.70401 0.85358,-1.7035 1.70559,-4.25533 2.55759,-5.96303 0.84992,8.52064 -3.40593,11.07457 -10.22306,13.6285 z M 189.28581,782.41354 c -6.81504,-11.07456 -6.81504,-11.07456 -14.47892,-18.74003 -9.36896,-5.96144 -22.99587,-11.92447 -22.99587,-24.69727 11.92288,8.51486 39.17724,25.54929 37.47479,43.4373 z m 26.40076,-161.82102 c -5.11048,0.8499 -5.11048,0.8499 -5.11048,-0.84992 1.70506,0 3.40594,0 5.11048,-0.85568 2.5534,-0.85201 5.10944,-1.70193 7.66442,-2.55393 0,-0.85201 0,-2.55551 0,-3.40751 0,-1.70193 0,-2.55393 0,-4.25743 3.40699,-0.85043 8.51801,-4.25796 10.22045,-4.25796 0,0 0.852,0.85411 0.852,1.70403 2.55446,0 5.10997,-0.84992 8.51696,-1.70403 0,-0.85149 0,-1.70192 0,-2.5534 6.81345,0.85148 7.66547,5.96093 15.33251,6.81136 0,3.40751 0.8499,7.66494 1.70191,11.07455 -1.70191,0.84992 -3.40961,0.84992 -5.11154,1.69982 -7.66545,-11.92289 -11.92288,-11.07087 -23.84788,-6.81293 0.8536,5.11311 3.40804,4.25743 5.9625,7.66704 -14.47682,-2.55393 -14.47682,-2.55393 -21.29133,-1.70401 z m 173.74235,289.56951 c -5.10944,-1.69983 -10.22046,-3.40752 -15.33041,-4.25743 -1.7056,-4.25743 -2.55341,-5.11154 -0.85149,-9.36897 -3.40961,2.55393 -4.25794,2.55393 -5.10996,6.81136 -1.7035,0.85359 -2.55551,0.85359 -4.259,1.70403 0,-2.55393 0,-5.10786 0,-6.81136 -0.85044,0 -1.70402,-0.85043 -2.55393,-0.85043 0,2.55393 0,4.25794 0,6.81135 -19.58994,-6.81135 2.55393,-22.99691 4.25742,-34.91981 -4.25742,0.85358 -8.51904,1.69981 -12.77647,2.55761 0,-0.8578 0,-0.8578 0,-1.70403 3.40751,-2.5555 7.66704,-4.25953 11.07298,-6.81346 0,-0.8499 0,-1.70348 -0.85044,-2.5576 -5.96511,0.85412 -5.96511,0.85412 -15.33198,5.11153 -7.66546,1.70403 -15.3304,2.55393 -22.14176,3.40595 20.43984,-7.66336 44.28353,-13.62482 53.65458,-34.91877 5.11102,-2.55341 5.11102,-2.55341 3.40752,-2.55341 0,-4.25794 -0.85411,-7.66545 -0.85411,-11.0672 2.55761,-1.7077 2.55761,-1.7077 3.40752,-5.11521 -0.84991,0 -1.70193,0 -2.55341,0.85358 -1.70402,-16.18399 -1.70402,-16.18399 -0.85411,-22.14701 0.85411,0 1.70559,0 3.40752,0 -0.84991,-2.55393 -0.84991,-5.10786 -0.84991,-6.81188 0.84991,0 1.70191,0 3.40594,0.85411 -1.70403,-6.81556 -1.70403,-6.81556 0,-10.22307 2.55393,-0.84992 5.10733,-0.84992 7.66494,-1.70192 5.10786,7.66336 10.21939,7.66336 11.92499,17.88276 -3.40805,-4.25795 -5.96354,-6.81188 -11.07509,-8.51537 0,7.66861 -1.70191,12.77647 -5.10942,19.58993 0.85201,9.36529 0.85201,19.58573 0.85201,29.80513 0.8499,0.85358 1.70401,0.85358 2.5555,0.85358 0,-2.55393 0.85201,-4.25743 1.70191,-5.96144 1.70403,-0.84992 3.40805,-1.7035 4.25796,-2.55393 -0.84991,-0.85358 -0.84991,-0.85358 -1.70191,-5.11311 0.852,0 2.5555,0 3.40751,0 0,-0.84624 0.8499,-2.55393 0.8499,-3.40385 -0.8499,0 -1.70191,0 -2.5555,0 0,-14.48049 0,-14.48049 0.85359,-17.88434 0.85201,-0.85358 2.55549,-0.85358 3.40751,-1.70558 0.85043,1.70558 1.70191,3.40961 2.55603,5.10943 1.69981,-6.80925 1.69981,-6.80925 2.55341,-6.80925 0.85043,2.55182 1.70192,4.25584 3.40593,5.95934 0,-2.55394 -0.8499,-5.10944 -0.8499,-6.81345 1.70192,0 3.40383,0 5.10943,0 11.9229,22.99377 6.81346,34.91875 2.55551,60.46961 -1.7056,-13.62429 2.55393,-29.8088 -5.11101,-41.73327 -0.85201,4.25743 -1.70403,5.96512 -5.10996,8.51696 -5.96146,18.73791 -7.66494,35.77024 -26.4013,44.28561 -1.70559,7.66704 -3.40751,10.22097 -10.22044,15.33198 0.85149,1.7077 0.85149,2.55393 0.85149,3.40385 2.55393,0.85778 5.10995,1.70401 8.51747,2.55761 4.25952,11.92498 5.96145,17.03232 17.88224,8.51747 0,-1.70403 0.85359,-4.26162 0.85359,-5.96144 0.85201,0 1.70191,0.8499 2.55549,0.8499 -2.55549,10.21887 -5.11099,13.62639 -14.47838,17.03391 z M 235.27651,797.74395 c -18.73898,-11.92657 -33.2158,-10.22308 -43.43677,-31.51651 11.07087,3.40751 16.17979,8.51906 23.84683,17.03601 5.96303,2.55393 18.73687,7.66914 19.58994,14.4805 z m 65.578,-19.59204 c 0,0.85043 0.85201,1.70401 1.7035,3.40751 8.51537,11.06931 9.36739,17.88435 -5.96144,16.18453 -0.85359,-3.4112 -0.85359,-3.4112 0.85043,-4.25796 0,0.84676 0,1.70035 0,2.55393 2.55708,-0.85358 5.11101,-0.85358 7.66704,-1.70717 0,-1.70402 0.84991,-3.40016 0.84991,-5.10786 -11.9208,-10.22255 -27.2533,-0.84991 -41.7317,-6.81135 6.81346,-6.81714 26.40129,-5.11155 36.62226,-4.26163 z M 237.83097,622.29653 c 5.95986,-0.85411 5.95986,-0.85411 11.92288,-3.40961 0,0.85568 0,1.7056 0,2.5555 -4.25795,0.85411 -6.81345,2.55761 -11.92288,0.85411 z m 9.36686,334.71083 c -2.55393,0 -4.25743,-0.85411 -5.96093,-0.85411 -5.96039,0 -11.92236,-0.85359 -15.33093,-6.81503 14.47997,1.70401 23.84788,2.55761 37.47427,8.51905 3.40594,0 6.81346,0 11.07298,0 -10.22097,0.84991 -17.03599,2.55393 -27.25539,-0.84991 z m -66.42845,-5.96513 c 0.85043,1.7035 0.85043,3.40753 1.70139,5.11102 0,0 0,0 0.85307,0.85411 -1.70403,-1.7077 -3.40751,-3.41171 -4.25743,-5.11153 -6.81555,-9.37264 -14.47997,-19.58994 -21.2929,-28.10899 -0.85307,-5.95777 -0.85307,-11.92079 -1.70455,-17.88224 11.07245,15.32831 17.88591,28.10532 24.70042,45.13763 z M 150.95953,816.47976 c -3.40647,-5.11101 -5.9604,-9.36895 -7.66547,-14.47997 -1.70349,0 -3.40646,0 -5.10943,0 0,-1.70402 -0.85201,-2.55602 -0.85201,-4.25584 -5.11049,3.4054 -7.66495,5.95934 -11.92185,11.92079 0,-0.84992 0,-1.70403 0,-2.55393 4.2569,-7.66704 7.6639,-17.03601 14.47683,-21.29343 0,-1.70403 0,-2.55393 0.852,-3.40384 1.70403,-0.85412 3.40542,-0.85412 5.10892,-0.85412 1.70454,2.55393 1.70454,2.55393 4.26005,10.2194 0,0 0,-0.84623 0.85096,-1.70402 0.85149,0.85779 1.7035,0.85779 2.55498,1.70402 0,1.70717 0,4.2611 0,5.96513 1.70349,-0.85411 2.55445,-1.70403 4.259,-2.55761 0.84991,9.36686 -2.55551,12.77437 -6.81398,21.29342 z M 251.45577,652.95525 c 3.40751,-5.10943 6.81714,-9.36739 7.66704,-16.17875 5.10944,0.85201 5.96146,3.40594 5.96146,7.66337 -9.36897,6.81136 -9.36897,6.81136 -13.6285,8.51538 z m 57.06368,322.78794 c 0.85202,-3.40752 2.55393,-7.66495 4.25953,-11.07299 0,0.85043 0,0.85043 0,1.70035 -0.85358,4.26109 -0.85358,6.81502 -4.25953,9.37264 z M 297.447,960.4112 c -0.85043,-0.84833 -1.70402,-0.84833 -1.70402,-1.70402 0.85359,0 2.5555,0 4.2611,-0.84991 0,0.84991 0.85043,1.7056 1.70244,1.7056 -1.70244,0.84833 -3.40804,0.84833 -4.25952,0.84833 z M 147.55306,842.88105 c 1.7014,-7.66861 4.25796,-14.47997 5.96145,-21.28975 0,9.36686 0,13.62114 -5.96145,21.28975 z m 177.1488,-38.32785 c -4.25952,-0.84991 -4.25952,-0.84991 -21.29342,0.85411 6.81504,-3.40752 12.77438,-6.81346 18.73793,-10.22097 0.85148,-2.55761 0.85148,-5.11154 0.85148,-6.81136 -4.25743,-5.11153 -6.81503,-6.81556 -13.62638,-9.37264 0,0 0.85201,-0.85043 0.85201,-1.70035 12.77437,4.25743 20.43984,6.81136 21.28974,20.44196 -2.55393,2.55182 -5.10943,4.25584 -6.81136,6.80925 z M 104.11735,690.4311 c 5.11048,-15.33198 0,-33.21633 16.18241,-41.73328 2.55446,8.51695 -9.37001,36.62383 -16.18241,41.73328 z m 167.77826,172.03989 c 7.66495,-8.51905 16.184,-17.03601 24.70096,-25.55505 0,-10.21887 12.7749,-14.4784 21.29184,-17.88225 8.51538,-10.21887 15.33041,-22.99377 29.80723,-22.14385 -0.852,8.51747 -0.852,12.7749 1.7035,21.29027 -5.96145,0.85358 -8.51485,0.85358 -13.62429,-1.70035 1.69982,0 2.55551,-0.85358 4.25533,-0.85358 -0.84992,-3.40751 -1.69982,-5.96144 -2.55551,-9.36896 -9.36529,11.92289 -11.07088,23.84736 -24.69569,31.51282 -0.85358,-2.5576 0.8499,-4.25795 0,-8.51538 -1.7056,0 -3.40751,0.84992 -5.96144,1.7035 -4.25953,16.17875 -21.29554,24.69779 -34.92193,31.51283 z m -144.78344,-5.96512 c -2.55393,-15.32831 -3.40751,-24.69728 0,-40.02611 4.25795,-2.55393 4.25795,-2.55393 7.66652,-2.55393 0.85148,2.55393 1.7014,5.10786 2.55393,7.66547 0.85201,-1.70769 0.85201,-2.55761 1.7035,-4.26162 2.55445,2.55393 2.55445,3.41171 3.40751,7.66336 1.70139,-4.25165 1.70139,-4.25165 3.40489,-3.40174 1.70454,5.95935 -0.84939,9.36686 -3.40489,15.32464 -2.55603,-0.84992 -4.259,-2.55394 -6.81346,-3.40385 -0.85148,0.84991 -2.5555,1.70035 -3.40804,2.55393 -0.85201,-2.55393 -0.85201,-2.55393 -2.55446,-2.55393 -2.5555,14.47472 -2.5555,14.47472 -2.5555,22.99378 z M 121.1502,721.94181 c -4.25795,-14.47629 -8.51537,-26.40285 -1.7035,-40.0261 8.51853,13.62325 5.96407,30.65924 5.96407,45.98966 -0.85253,5.10943 -0.85253,5.10943 -2.55655,5.10943 -0.85096,-4.25585 -0.85096,-7.66336 -1.70402,-11.07299 z m 27.25487,192.47817 c -11.07245,-24.69779 -12.7749,-40.87812 -1.70454,-65.57906 0.85253,22.13966 -0.85201,43.4373 3.40804,64.72914 0.85096,4.25901 0.85096,8.51696 1.70245,12.77439 -0.85149,0 -0.85149,0.8499 -1.70245,0.8499 0,-4.25742 -0.85411,-8.51485 -1.7035,-12.77437 z m 169.48334,-44.28563 c 6.81345,-11.92447 20.44195,-15.33198 30.66082,-22.99744 0,-1.70193 0,-3.40175 0,-5.10576 -1.70559,0 -3.40752,-0.85359 -5.96145,-0.85359 5.96145,-3.40752 31.51073,-25.55138 16.18031,-34.06675 -6.81502,3.40383 -5.10943,5.10786 -5.96301,11.92288 -1.70192,-11.92288 -2.55393,-28.1011 12.77647,-18.73792 11.9229,38.32418 -16.18241,56.2101 -47.69314,69.83858 z M 148.40507,609.51953 c -27.25487,-15.32831 12.7749,-7.66284 29.80776,-6.81136 -10.22044,1.70192 -19.58941,4.25585 -29.80776,6.81136 z m 30.66134,-46.84271 c -4.25952,-1.70035 -17.03599,0.85358 -25.5519,1.7035 9.36896,-3.40385 18.73635,-5.96091 28.1053,-4.25743 6.81242,2.55393 11.07142,4.25743 16.18032,9.36739 0.85254,-1.70192 1.70665,-2.55393 2.55604,-3.40595 4.25951,3.40595 4.25951,3.40595 9.36896,11.92447 2.55602,3.40752 14.4784,-3.40541 16.18084,1.70403 1.70507,2.55393 -0.84992,4.2611 -0.84992,9.36896 -7.66545,5.10943 -16.18188,-4.25953 -26.40338,-3.40752 -0.85254,-8.51695 -1.70191,-8.51695 -9.36686,-11.07088 -2.55655,-5.96513 -4.26005,-8.51906 -10.2194,-11.92657 z m -13.62848,232.50952 c -3.40751,-3.40752 -3.40751,-3.40752 -11.92342,-19.58994 -4.26005,-0.8499 -8.51538,-0.8499 -11.92394,-1.70402 5.96249,-2.5534 5.96249,-2.5534 20.43985,-6.81136 3.40751,3.40752 2.55602,7.66548 3.40751,12.7749 0.85043,-0.85358 2.55446,-0.85358 4.25741,-0.85358 0,0.85358 0,1.7035 0,3.4112 -0.85252,0 -1.70295,0 -2.55393,0 0.85098,1.69981 0.85098,2.55393 1.70141,4.25374 1.70612,0 3.40804,-0.8499 5.11205,-0.8499 0,1.70349 0.85202,3.40751 1.70245,4.25742 -3.40646,1.70402 -6.8145,3.41119 -10.21939,5.11154 z m -18.7374,-42.58738 c -10.22044,-13.62272 -12.77543,-17.88066 -14.4784,-34.06256 0.85254,0 1.70297,-0.85411 2.55656,-0.85411 6.81188,11.07666 11.92184,21.29395 11.92184,34.91667 z M 266.78618,610.37155 c -6.81136,-2.55393 -6.81136,-5.96146 -14.47683,-5.10735 -4.25741,-6.81346 -9.36895,-8.51747 -16.18294,-1.7056 -1.70297,-1.70191 -1.70297,-1.70191 -5.96091,-1.70191 0.8499,0.85148 0.8499,0.85148 0.8499,1.70191 -1.70086,0 -2.55603,0.85149 -4.25742,0.85149 -3.40699,-6.81135 -15.32988,-3.40542 -21.29238,-3.40542 15.33041,-6.81345 15.33041,-6.81345 24.6999,-8.51537 -0.85096,-6.81503 1.7035,-5.96144 5.96091,-1.70401 5.9625,0 11.92553,-0.85149 17.88487,-0.85149 1.70402,0 1.70402,2.5555 2.55393,4.25742 9.37054,0.85201 14.4805,5.10944 15.3304,15.32831 -1.70191,0 -3.40593,0 -5.10943,0.85202 z M 162.03042,813.92583 c -0.85045,-1.70716 -0.85045,-2.55708 -1.70141,-3.41119 1.70141,-5.96144 8.51381,-9.36529 13.62586,-12.77069 -1.70401,5.10943 -4.25953,7.66336 -8.51694,11.07087 0,0 0,0 0,0.84992 4.25741,-1.70403 4.25741,-1.70403 15.33145,-11.92079 15.32831,-5.11522 22.99221,0 35.76815,7.66336 -1.70139,1.7035 -16.18136,-0.85411 -32.36273,0.84991 -11.92394,5.96145 -17.88644,11.07246 -26.40129,19.58993 -0.85307,-1.70401 -0.85307,-1.70401 4.25691,-11.92132 z m 103.90533,-22.14701 c -17.88381,-7.66547 -32.36431,0 -47.69578,-15.32883 19.591,2.55235 34.06938,3.40593 50.24971,14.4826 -0.85148,0 -1.7035,0.84623 -2.55393,0.84623 z M 372.39291,603.5586 c 0.85411,4.25902 0.85411,4.25902 0.85411,5.96093 -1.70192,-0.85148 -2.55603,-1.70191 -3.40961,-2.55551 0,-2.55393 0,-5.10733 0,-6.81135 0.85358,0 1.70769,0 2.5555,-0.85201 0,1.70401 0,2.55603 0,4.25794 z M 231.0154,966.37055 c 1.70456,0.85358 2.55604,0.85358 4.26111,1.70769 -1.70507,0 -2.55655,-0.85411 -4.26111,-0.85411 -11.06983,-5.96144 -45.13763,-12.77437 -45.13763,-28.10478 18.73791,7.66494 31.51283,12.77648 45.13763,27.2512 z m 31.51126,-20.43618 c 2.55761,0 4.25952,0 5.96302,0 13.6269,-0.85358 20.44194,-2.55759 32.36483,4.25743 0,0.85043 0,1.70403 0,3.40385 -11.07089,-10.21887 -26.40129,-0.84992 -40.87969,-4.25743 -0.85201,-0.84992 -0.85201,-1.70403 -0.85201,-2.55393 0.85201,-0.84992 2.55393,-0.84992 3.40385,-0.84992 z M 87.083449,667.43208 c 20.439841,-31.50707 20.439841,-31.50707 25.551381,-36.62069 8.51537,-5.10735 17.03284,-6.81136 24.69779,-12.77648 0,0.85201 0,1.70769 0,2.55761 -4.25795,5.11152 -8.51696,11.07087 -13.62796,16.18398 -20.43827,4.25796 -20.43827,22.14019 -36.621211,30.65558 z M 297.447,820.74139 c -3.40385,-0.85778 -7.66338,-1.7077 -11.06931,-2.56128 -5.11154,-12.7728 -8.51905,-13.62691 -21.29342,-17.88434 4.25741,0 8.51694,0 12.77437,0 19.58836,8.51905 22.14544,9.36897 42.5837,6.81504 0,0.8499 0,1.70401 0,2.55393 -7.66336,5.96144 -13.6248,7.66494 -22.99534,11.07665 z m -23.84579,-1.7077 c -22.14544,-3.40751 -22.14544,-3.40751 -33.21527,-7.66494 -9.37054,-6.81555 -15.32989,-11.07298 -26.40391,-14.47891 6.81398,-2.55709 17.88697,4.25951 24.69884,8.51747 11.07298,0.84991 32.36484,-0.85411 36.62226,11.92237 -0.84991,0.85043 -0.84991,1.70401 -1.70192,1.70401 z m 13.62482,85.16689 c 3.40751,-5.11102 7.66704,-16.17822 8.51695,-16.17822 0.85359,1.69983 0.85359,2.55393 0.85359,4.25586 8.51747,-5.11364 14.47681,-5.96356 24.69568,-7.66704 0,1.70348 0,2.5534 0,3.41118 8.51906,0 13.62849,-4.26163 21.29553,-7.66914 5.96145,-1.7035 11.92131,-2.55393 17.88434,-4.25743 -5.10944,3.40385 -17.03443,8.51539 -28.9589,15.32673 -15.3304,3.4091 -29.8067,6.81714 -44.28719,12.77806 z M 122.00326,753.45254 c -0.85306,-3.40541 -1.7035,-7.66494 -1.7035,-11.07088 0,0 0.85044,0 0.85044,-0.85149 0.85306,4.25743 1.70402,7.66494 1.70402,11.92237 z M 265.93575,615.48098 c -0.85148,-0.85149 -1.7035,-2.5555 -1.7035,-3.40542 5.10943,0.84992 5.10943,0.84992 5.96145,2.55393 -1.70402,0.85149 -3.40752,0.85149 -4.25795,0.85149 z m 0.85043,48.54515 c -3.40594,-5.10944 -7.66337,-8.51539 -8.51327,-11.07088 5.10733,-2.55393 5.10733,-2.55393 6.81136,-5.95935 5.10943,7.66337 9.36895,16.17822 18.73791,17.03023 -0.85411,8.51906 -13.62848,1.7077 -17.036,0 z"
       id="path72"
       inkscape:connector-curvature="0"
       style="clip-rule:evenodd;fill:#ffff00;fill-rule:evenodd;stroke-width:0.052496;image-rendering:optimizeQuality;shape-rendering:geometricPrecision;text-rendering:geometricPrecision" />
  </g>
</svg>
