<?xml version="1.0" encoding="UTF-8" standalone="no"?>
<!-- Created with Inkscape (http://www.inkscape.org/) -->

<svg
   xmlns:sketch="http://www.bohemiancoding.com/sketch/ns"
   xmlns:dc="http://purl.org/dc/elements/1.1/"
   xmlns:cc="http://creativecommons.org/ns#"
   xmlns:rdf="http://www.w3.org/1999/02/22-rdf-syntax-ns#"
   xmlns:svg="http://www.w3.org/2000/svg"
   xmlns="http://www.w3.org/2000/svg"
   xmlns:xlink="http://www.w3.org/1999/xlink"
   xmlns:sodipodi="http://sodipodi.sourceforge.net/DTD/sodipodi-0.dtd"
   xmlns:inkscape="http://www.inkscape.org/namespaces/inkscape"
   width="512"
   height="512"
   viewBox="0 0 512.00002 512.00002"
   id="svg2"
   version="1.1"
   inkscape:version="0.92.2 2405546, 2018-03-11"
   sodipodi:docname="lucentis.svg.2019_03_09_19_41_15.0.svg">
  <title
     id="title6810">lucentis icon</title>
  <defs
     id="defs4">
    <linearGradient
       inkscape:collect="always"
       id="linearGradient957">
      <stop
         style="stop-color:#ffffff;stop-opacity:1;"
         offset="0"
         id="stop953" />
      <stop
         style="stop-color:#f0fbff;stop-opacity:0.72075474"
         offset="1"
         id="stop955" />
    </linearGradient>
    <linearGradient
       id="linearGradient6724"
       inkscape:collect="always">
      <stop
         id="stop6702"
         offset="0"
         style="stop-color:#e1e1e1;stop-opacity:1" />
      <stop
         style="stop-color:#060606;stop-opacity:0.99607843"
         offset="0.12065922"
         id="stop6704" />
      <stop
         id="stop6706"
         offset="0.1961367"
         style="stop-color:#ffffff;stop-opacity:0.88095236" />
      <stop
         style="stop-color:#b3b3b3;stop-opacity:0.99607843"
         offset="0.25634706"
         id="stop6708" />
      <stop
         id="stop6710"
         offset="0.32487023"
         style="stop-color:#fefefe;stop-opacity:0.99215686" />
      <stop
         id="stop6712"
         offset="0.50166756"
         style="stop-color:#040404;stop-opacity:0.99215686" />
      <stop
         style="stop-color:#ffffff;stop-opacity:0.99215686"
         offset="0.65177846"
         id="stop6714" />
      <stop
         id="stop6716"
         offset="0.65177846"
         style="stop-color:#fefefe;stop-opacity:0.99215686;" />
      <stop
         style="stop-color:#dedede;stop-opacity:0.98809522"
         offset="0.80294323"
         id="stop6718" />
      <stop
         style="stop-color:#101010;stop-opacity:0.99215686"
         offset="0.89797378"
         id="stop6720" />
      <stop
         id="stop6722"
         offset="1"
         style="stop-color:#e9e9e9;stop-opacity:0.99215686" />
    </linearGradient>
    <linearGradient
       inkscape:collect="always"
       id="linearGradient6602">
      <stop
         style="stop-color:#ffffff;stop-opacity:1"
         offset="0"
         id="stop6598" />
      <stop
         id="stop6606"
         offset="0.44514003"
         style="stop-color:#f5faff;stop-opacity:0.99206346" />
      <stop
         style="stop-color:#f5faff;stop-opacity:0;"
         offset="1"
         id="stop6600" />
    </linearGradient>
    <linearGradient
       inkscape:collect="always"
       id="linearGradient6588">
      <stop
         style="stop-color:#ffffff;stop-opacity:1;"
         offset="0"
         id="stop6584" />
      <stop
         style="stop-color:#ffffff;stop-opacity:0;"
         offset="1"
         id="stop6586" />
    </linearGradient>
    <linearGradient
       inkscape:collect="always"
       id="linearGradient6558">
      <stop
         style="stop-color:#fefefe;stop-opacity:1"
         offset="0"
         id="stop6554" />
      <stop
         id="stop6570"
         offset="0.12065922"
         style="stop-color:#060606;stop-opacity:0.99607843" />
      <stop
         style="stop-color:#ffffff;stop-opacity:0.88095236"
         offset="0.1961367"
         id="stop6578" />
      <stop
         id="stop6562"
         offset="0.25634706"
         style="stop-color:#b3b3b3;stop-opacity:0.99607843" />
      <stop
         style="stop-color:#fefefe;stop-opacity:0.99215686"
         offset="0.32487023"
         id="stop6572" />
      <stop
         style="stop-color:#040404;stop-opacity:0.99215686"
         offset="0.50166756"
         id="stop6566" />
      <stop
         id="stop6574"
         offset="0.65177846"
         style="stop-color:#ffffff;stop-opacity:0.99215686" />
      <stop
         style="stop-color:#fefefe;stop-opacity:0.99215686;"
         offset="0.65177846"
         id="stop6564" />
      <stop
         id="stop6576"
         offset="0.80294323"
         style="stop-color:#dedede;stop-opacity:0.98809522" />
      <stop
         id="stop6568"
         offset="0.89797378"
         style="stop-color:#101010;stop-opacity:0.99215686" />
      <stop
         style="stop-color:#ffffff;stop-opacity:0.99206346"
         offset="1"
         id="stop6556" />
    </linearGradient>
    <linearGradient
       inkscape:collect="always"
       xlink:href="#linearGradient6558"
       id="linearGradient6560"
       x1="195.23741"
       y1="724.58649"
       x2="251.82281"
       y2="916.672"
       gradientUnits="userSpaceOnUse"
       gradientTransform="translate(-39.926271,-163.59236)" />
    <radialGradient
       inkscape:collect="always"
       xlink:href="#linearGradient6602"
       id="radialGradient6604"
       cx="256"
       cy="796.36218"
       fx="256"
       fy="796.36218"
       r="78"
       gradientUnits="userSpaceOnUse"
       gradientTransform="translate(-121.33037,-123.9448)" />
    <radialGradient
       inkscape:collect="always"
       xlink:href="#linearGradient6588"
       id="radialGradient6610"
       gradientUnits="userSpaceOnUse"
       gradientTransform="translate(-121.33037,-123.9448)"
       cx="255.7916"
       cy="796.57056"
       fx="255.7916"
       fy="796.57056"
       r="78" />
    <linearGradient
       inkscape:collect="always"
       xlink:href="#linearGradient6558"
       id="linearGradient6636"
       gradientUnits="userSpaceOnUse"
       gradientTransform="rotate(30,582.22527,1138.5665)"
       x1="195.23741"
       y1="724.58649"
       x2="251.82281"
       y2="916.672" />
    <radialGradient
       inkscape:collect="always"
       xlink:href="#linearGradient6602"
       id="radialGradient6638"
       gradientUnits="userSpaceOnUse"
       gradientTransform="translate(124.57002,-123.9448)"
       cx="256"
       cy="796.36218"
       fx="256"
       fy="796.36218"
       r="78" />
    <radialGradient
       inkscape:collect="always"
       xlink:href="#linearGradient6588"
       id="radialGradient6640"
       gradientUnits="userSpaceOnUse"
       gradientTransform="translate(124.57002,-123.9448)"
       cx="255.7916"
       cy="796.57056"
       fx="255.7916"
       fy="796.57056"
       r="78" />
    <radialGradient
       inkscape:collect="always"
       xlink:href="#linearGradient6588"
       id="radialGradient6642"
       gradientUnits="userSpaceOnUse"
       gradientTransform="matrix(0.99992009,0.0126417,-0.01187809,0.939521,134.12607,-121.20159)"
       cx="253.68126"
       cy="855.43927"
       fx="253.68126"
       fy="855.43927"
       r="99.25" />
    <linearGradient
       inkscape:collect="always"
       xlink:href="#linearGradient6724"
       id="linearGradient6692"
       gradientUnits="userSpaceOnUse"
       gradientTransform="rotate(-45,376.31227,628.53103)"
       x1="173.97072"
       y1="733.54883"
       x2="224.31374"
       y2="930.84332" />
    <radialGradient
       inkscape:collect="always"
       xlink:href="#linearGradient6602"
       id="radialGradient6694"
       gradientUnits="userSpaceOnUse"
       gradientTransform="translate(124.57002,121.95554)"
       cx="256"
       cy="796.36218"
       fx="256"
       fy="796.36218"
       r="78" />
    <radialGradient
       inkscape:collect="always"
       xlink:href="#linearGradient6588"
       id="radialGradient6696"
       gradientUnits="userSpaceOnUse"
       gradientTransform="translate(124.57002,121.95554)"
       cx="255.7916"
       cy="796.57056"
       fx="255.7916"
       fy="796.57056"
       r="78" />
    <path
       id="path-1"
       d="M15.4062368,3.11547206 C18.1697908,4.94024826 20,8.1231911 20,11.7445233 C20,17.408467 15.5228478,22 10,22 C4.47715224,22 0,17.408467 0,11.7445233 C0,8.04556036 1.90951894,4.80398379 4.77276858,3 L6.17063617,7.47772476 C5.02106512,8.56573823 4.30107527,10.1240383 4.30107527,11.8547972 C4.30107527,15.1435387 6.90071204,17.8095902 10.1075269,17.8095902 C13.3143417,17.8095902 15.9139785,15.1435387 15.9139785,11.8547972 C15.9139785,10.1240383 15.1939886,8.56573823 14.0444178,7.47772524 L15.4062368,3.11547206 Z M10,0 C8,-8.30476896e-07 8,2.09523809 8,2.09523809 L8,8.90476191 C8,8.90476191 8,10.9999992 10,11 C12,11.000001 12,8.90476191 12,8.90476191 L12,2.09523809 C12,2.09523809 12,8.30476865e-07 10,0 L10,0 Z" />
    <path
       id="path-1-7"
       d="M0.140487671,4 C0.0628984728,4 0,4.05793571 0,4.12879109 L0,19.8712089 C0,19.9423383 0.0631103513,20 0.140487671,20 L21.8595124,20 C21.9371015,20 22,19.9420643 22,19.8712089 L22,4.12879109 C22,4.05766174 21.9368896,4 21.8595124,4 L0.140487671,4 Z M8.31146755,7.96557279 L11.5680228,13.5896033 C11.6080958,13.658809 11.694647,13.6768875 11.7588871,13.6317082 L14.5213939,11.6888683 C14.6506985,11.5979298 14.8228868,11.6296547 14.9092326,11.7648075 L19.9298551,17.6233415 C20.0147479,17.75622 19.9533678,17.8639394 19.8034742,17.8639394 L2.14722686,17.8639394 C1.99212294,17.8639394 1.92473319,17.7514312 1.99797568,17.6102003 L8.03502924,7.96915944 C8.107704,7.82902321 8.23291348,7.82991093 8.31146755,7.96557279 Z M17.5,9 C18.3284271,9 19,8.32842715 19,7.5 C19,6.67157284 18.3284271,6 17.5,6 C16.6715729,6 16,6.67157284 16,7.5 C16,8.32842715 16.6715729,9 17.5,9 Z M2,0 L2,1 L20,1 L20,0 L2,0 Z M1,2 L1,3 L21,3 L21,2 L1,2 Z" />
    <radialGradient
       inkscape:collect="always"
       xlink:href="#linearGradient957"
       id="radialGradient985"
       cx="-490.90292"
       cy="861.29602"
       fx="-490.90292"
       fy="861.29602"
       r="98.996712"
       gradientTransform="matrix(0.99999992,0,0,0.5767977,-3.783249e-5,375.07601)"
       gradientUnits="userSpaceOnUse" />
    <linearGradient
       inkscape:collect="always"
       xlink:href="#linearGradient6558"
       id="linearGradient928"
       gradientUnits="userSpaceOnUse"
       gradientTransform="rotate(30,0.41877529,802.66031)"
       x1="312.88486"
       y1="907.1377"
       x2="233.33522"
       y2="705.45764" />
    <radialGradient
       inkscape:collect="always"
       xlink:href="#linearGradient977"
       id="radialGradient979"
       cx="-489.06497"
       cy="927.22015"
       fx="-489.06497"
       fy="927.22015"
       r="105.45019"
       gradientTransform="matrix(0.88526207,0.51644965,-0.51814679,0.88817121,1047.4312,347.36504)"
       gradientUnits="userSpaceOnUse" />
    <linearGradient
       inkscape:collect="always"
       id="linearGradient977">
      <stop
         style="stop-color:#000000;stop-opacity:0.04150943"
         offset="0"
         id="stop973" />
      <stop
         id="stop981"
         offset="0.85196686"
         style="stop-color:#fafafa;stop-opacity:0" />
      <stop
         style="stop-color:#000000;stop-opacity:1"
         offset="1"
         id="stop975" />
    </linearGradient>
    <radialGradient
       inkscape:collect="always"
       xlink:href="#linearGradient957"
       id="radialGradient985-7"
       cx="-490.90292"
       cy="861.29602"
       fx="-490.90292"
       fy="861.29602"
       r="98.996712"
       gradientTransform="matrix(0.99999992,0,0,0.5767977,626.33301,366.17363)"
       gradientUnits="userSpaceOnUse" />
    <radialGradient
       inkscape:collect="always"
       xlink:href="#linearGradient965"
       id="radialGradient967"
       cx="-492.31952"
       cy="973.06268"
       fx="-492.31952"
       fy="973.06268"
       r="98.859123"
       gradientTransform="matrix(1,0,0,0.54734778,626.36396,431.5566)"
       gradientUnits="userSpaceOnUse" />
    <linearGradient
       inkscape:collect="always"
       id="linearGradient965">
      <stop
         style="stop-color:#000000;stop-opacity:0.53207546"
         offset="0"
         id="stop961" />
      <stop
         style="stop-color:#000000;stop-opacity:0.98113209"
         offset="1"
         id="stop963" />
    </linearGradient>
  </defs>
  <sodipodi:namedview
     id="base"
     pagecolor="#ffffff"
     bordercolor="#666666"
     borderopacity="1.0"
     inkscape:pageopacity="0"
     inkscape:pageshadow="2"
     inkscape:zoom="1.4863281"
     inkscape:cx="255.3272"
     inkscape:cy="248.44837"
     inkscape:document-units="px"
     inkscape:current-layer="layer1"
     showgrid="false"
     units="px"
     inkscape:showpageshadow="false"
     inkscape:window-width="1920"
     inkscape:window-height="991"
     inkscape:window-x="0"
     inkscape:window-y="25"
     inkscape:window-maximized="1"
     showguides="true"
     inkscape:guide-bbox="true"
     inkscape:snap-global="true" />
  <metadata
     id="metadata7">
    <rdf:RDF>
      <cc:Work
         rdf:about="">
        <dc:format>image/svg+xml</dc:format>
        <dc:type
           rdf:resource="http://purl.org/dc/dcmitype/StillImage" />
        <dc:title>lucentis icon</dc:title>
        <cc:license
           rdf:resource="http://creativecommons.org/publicdomain/zero/1.0/" />
        <dc:date>2019</dc:date>
        <dc:creator>
          <cc:Agent>
            <dc:title>Cristian Pozzessere  &lt; ilnanny &gt;</dc:title>
          </cc:Agent>
        </dc:creator>
        <dc:subject>
          <rdf:Bag>
            <rdf:li>ilnanny</rdf:li>
          </rdf:Bag>
        </dc:subject>
      </cc:Work>
      <cc:License
         rdf:about="http://creativecommons.org/publicdomain/zero/1.0/">
        <cc:permits
           rdf:resource="http://creativecommons.org/ns#Reproduction" />
        <cc:permits
           rdf:resource="http://creativecommons.org/ns#Distribution" />
        <cc:permits
           rdf:resource="http://creativecommons.org/ns#DerivativeWorks" />
      </cc:License>
    </rdf:RDF>
  </metadata>
  <g
     inkscape:label="Livello 1"
     inkscape:groupmode="layer"
     id="layer1"
     transform="translate(0,-540.3622)">
    <rect
       style="opacity:1;fill:#8facdd;fill-opacity:1;stroke:none;stroke-width:4.72279596;stroke-linecap:round;stroke-linejoin:bevel;stroke-miterlimit:4;stroke-dasharray:none;stroke-opacity:0.2142857;paint-order:stroke fill markers"
       id="rect6700"
       width="510"
       height="510"
       x="1"
       y="541.36218" />
    <path
       style="color:#000000;font-style:normal;font-variant:normal;font-weight:normal;font-stretch:normal;font-size:medium;line-height:normal;font-family:sans-serif;font-variant-ligatures:normal;font-variant-position:normal;font-variant-caps:normal;font-variant-numeric:normal;font-variant-alternates:normal;font-feature-settings:normal;text-indent:0;text-align:start;text-decoration:none;text-decoration-line:none;text-decoration-style:solid;text-decoration-color:#000000;letter-spacing:normal;word-spacing:normal;text-transform:none;writing-mode:lr-tb;direction:ltr;text-orientation:mixed;dominant-baseline:auto;baseline-shift:baseline;text-anchor:start;white-space:normal;shape-padding:0;clip-rule:nonzero;display:inline;overflow:visible;visibility:visible;opacity:1;isolation:auto;mix-blend-mode:normal;color-interpolation:sRGB;color-interpolation-filters:linearRGB;solid-color:#000000;solid-opacity:1;vector-effect:none;fill:none;fill-opacity:1;fill-rule:nonzero;stroke:#050505;stroke-width:2;stroke-linecap:round;stroke-linejoin:bevel;stroke-miterlimit:4;stroke-dasharray:none;stroke-dashoffset:0;stroke-opacity:0.2142857;paint-order:stroke fill markers;color-rendering:auto;image-rendering:auto;shape-rendering:auto;text-rendering:auto;enable-background:accumulate"
       d="m 379.94482,569.95647 c -56.55191,0 -102.46094,45.90903 -102.46095,102.46094 0,56.5519 45.90904,102.46093 102.46095,102.46093 56.5519,0 102.46094,-45.90903 102.46094,-102.46093 0,-56.5519 -45.90904,-102.46094 -102.46094,-102.46094 z m 0,6 c 53.30926,0 96.46094,43.15168 96.46094,96.46094 0,53.30926 -43.15168,96.46093 -96.46094,96.46093 -53.30927,0 -96.46095,-43.15167 -96.46095,-96.46093 10e-6,-53.30926 43.15168,-96.46094 96.46095,-96.46094 z"
       id="path6616"
       inkscape:connector-curvature="0" />
    <circle
       style="opacity:1;fill:#000000;fill-opacity:0.2745098;stroke:none;stroke-width:7.4429369;stroke-linecap:round;stroke-linejoin:bevel;stroke-miterlimit:4;stroke-dasharray:none;stroke-opacity:1;paint-order:stroke fill markers"
       id="circle6618"
       cx="379.94482"
       cy="672.41736"
       r="98.925476" />
    <circle
       r="99.460617"
       cy="672.41736"
       cx="379.94482"
       id="circle6620"
       style="opacity:1;fill:#ffffff;fill-opacity:0.24603176;stroke:none;stroke-width:4;stroke-linecap:round;stroke-linejoin:bevel;stroke-miterlimit:4;stroke-dasharray:none;stroke-opacity:1;paint-order:stroke fill markers" />
    <path
       inkscape:connector-curvature="0"
       id="path6622"
       d="m 431.17529,583.68363 c -48.97539,-28.27595 -111.6883,-11.47208 -139.96426,37.50331 -28.27595,48.97538 -11.47207,111.68829 37.50332,139.96424 48.97538,28.27595 111.68829,11.47208 139.96424,-37.5033 28.27595,-48.97538 11.47208,-111.6883 -37.5033,-139.96425 z m -3,5.19616 c 46.16717,26.65463 61.96178,85.60092 35.30715,131.76809 -26.65463,46.16718 -85.60091,61.96178 -131.76809,35.30715 -46.16718,-26.65464 -61.9618,-85.60092 -35.30717,-131.76809 26.65464,-46.16717 85.60092,-61.96179 131.76811,-35.30715 z"
       style="color:#000000;font-style:normal;font-variant:normal;font-weight:normal;font-stretch:normal;font-size:medium;line-height:normal;font-family:sans-serif;font-variant-ligatures:normal;font-variant-position:normal;font-variant-caps:normal;font-variant-numeric:normal;font-variant-alternates:normal;font-feature-settings:normal;text-indent:0;text-align:start;text-decoration:none;text-decoration-line:none;text-decoration-style:solid;text-decoration-color:#000000;letter-spacing:normal;word-spacing:normal;text-transform:none;writing-mode:lr-tb;direction:ltr;text-orientation:mixed;dominant-baseline:auto;baseline-shift:baseline;text-anchor:start;white-space:normal;shape-padding:0;clip-rule:nonzero;display:inline;overflow:visible;visibility:visible;opacity:1;isolation:auto;mix-blend-mode:normal;color-interpolation:sRGB;color-interpolation-filters:linearRGB;solid-color:#000000;solid-opacity:1;vector-effect:none;fill:url(#linearGradient6636);fill-opacity:1;fill-rule:nonzero;stroke:none;stroke-width:6;stroke-linecap:round;stroke-linejoin:bevel;stroke-miterlimit:4;stroke-dasharray:none;stroke-dashoffset:0;stroke-opacity:1;paint-order:stroke fill markers;color-rendering:auto;image-rendering:auto;shape-rendering:auto;text-rendering:auto;enable-background:accumulate" />
    <circle
       r="78"
       cy="672.41736"
       cx="379.94482"
       id="circle6624"
       style="opacity:1;fill:#c0c6cc;fill-opacity:0.99206346;stroke:none;stroke-width:5.86854982;stroke-linecap:round;stroke-linejoin:bevel;stroke-miterlimit:4;stroke-dasharray:none;stroke-opacity:1;paint-order:stroke fill markers" />
    <path
       style="color:#000000;font-style:normal;font-variant:normal;font-weight:normal;font-stretch:normal;font-size:medium;line-height:normal;font-family:sans-serif;font-variant-ligatures:normal;font-variant-position:normal;font-variant-caps:normal;font-variant-numeric:normal;font-variant-alternates:normal;font-feature-settings:normal;text-indent:0;text-align:start;text-decoration:none;text-decoration-line:none;text-decoration-style:solid;text-decoration-color:#000000;letter-spacing:normal;word-spacing:normal;text-transform:none;writing-mode:lr-tb;direction:ltr;text-orientation:mixed;dominant-baseline:auto;baseline-shift:baseline;text-anchor:start;white-space:normal;shape-padding:0;clip-rule:nonzero;display:inline;overflow:visible;visibility:visible;opacity:1;isolation:auto;mix-blend-mode:normal;color-interpolation:sRGB;color-interpolation-filters:linearRGB;solid-color:#000000;solid-opacity:1;vector-effect:none;fill:#e7e7e7;fill-opacity:0.94444442;fill-rule:nonzero;stroke:none;stroke-width:4.59896421;stroke-linecap:round;stroke-linejoin:bevel;stroke-miterlimit:4;stroke-dasharray:none;stroke-dashoffset:0;stroke-opacity:1;paint-order:stroke fill markers;color-rendering:auto;image-rendering:auto;shape-rendering:auto;text-rendering:auto;enable-background:accumulate"
       d="m 379.94481,593.8817 c -43.3467,0 -78.5357,35.18901 -78.5357,78.53571 0,43.3467 35.189,78.53569 78.5357,78.53569 43.34671,0 78.53571,-35.18899 78.53571,-78.53569 0,-43.3467 -35.189,-78.53571 -78.53571,-78.53571 z m 0,4.59897 c 40.86123,0 73.93674,33.07551 73.93674,73.93674 0,40.86123 -33.07551,73.93673 -73.93674,73.93673 -40.86124,0 -73.93674,-33.0755 -73.93673,-73.93673 0,-40.86123 33.07549,-73.93674 73.93673,-73.93674 z"
       id="path6626"
       inkscape:connector-curvature="0" />
    <circle
       style="opacity:1;fill:url(#radialGradient6638);fill-opacity:1;stroke:none;stroke-width:5.86854982;stroke-linecap:round;stroke-linejoin:bevel;stroke-miterlimit:4;stroke-dasharray:none;stroke-opacity:1;paint-order:stroke fill markers"
       id="circle6628"
       cx="380.57004"
       cy="672.41736"
       r="78" />
    <circle
       r="78"
       cy="672.41736"
       cx="380.57004"
       id="circle6630"
       style="opacity:1;fill:url(#radialGradient6640);fill-opacity:1;stroke:none;stroke-width:5.86854982;stroke-linecap:round;stroke-linejoin:bevel;stroke-miterlimit:4;stroke-dasharray:none;stroke-opacity:1;paint-order:stroke fill markers" />
    <g
       sketch:type="MSPage"
       id="miu"
       transform="matrix(3.7175564,0,0,3.7175564,339.67691,632.44965)"
       style="fill:#dc0000;fill-rule:evenodd;stroke:none;stroke-width:1">
      <path
         sketch:type="MSShapeGroup"
         id="common_heart_like_favourite_favorite_glyph"
         d="m 11.75544,22.523598 c 0.363698,-0.278911 0.76847,-0.600772 1.204102,-0.961549 1.244283,-1.030478 2.488551,-2.167719 3.651324,-3.380149 2.596283,-2.707158 4.411474,-5.389019 5.095674,-7.935694 C 21.900149,9.5255667 22,8.8221043 22,8.1379533 22,1.3468251 15.799988,-1.5570893 10.995215,3.5595589 6.2079569,-1.5570894 0,1.5263346 0,8.1379533 c 0,0.684151 0.09985071,1.3876134 0.29346042,2.1082527 0.6842,2.546675 2.49939078,5.228536 5.09567358,7.935694 1.1627733,1.21243 2.4070415,2.349671 3.6513236,3.380149 0.435632,0.360777 0.840404,0.682638 1.2041024,0.961549 0.219362,0.168223 0.377119,0.285335 0.463047,0.347281 L 11,23.081666 11.292393,22.870879 c 0.08593,-0.06195 0.243686,-0.179058 0.463047,-0.347281 z"
         inkscape:connector-curvature="0"
         style="fill:#dc0000" />
    </g>
    <path
       inkscape:connector-curvature="0"
       id="path6634"
       d="m 379.94482,575.95647 a 99.460617,99.460617 0 0 0 -99.21094,94.46094 360.58746,360.58746 0 0 0 99.21094,14.22656 360.58746,360.58746 0 0 0 99.28907,-14.08203 99.460617,99.460617 0 0 0 -99.28907,-94.60547 z"
       style="opacity:0.69899998;fill:url(#radialGradient6642);fill-opacity:1;stroke:none;stroke-width:14.50171852;stroke-linecap:round;stroke-linejoin:bevel;stroke-miterlimit:4;stroke-dasharray:none;stroke-opacity:1;paint-order:stroke fill markers" />
    <path
       inkscape:connector-curvature="0"
       id="path6614"
       d="m 134.04443,569.95647 c -56.551898,0 -102.460928,45.90903 -102.460938,102.46094 0,56.5519 45.90904,102.46093 102.460938,102.46093 56.5519,0 102.46094,-45.90903 102.46094,-102.46093 0,-56.5519 -45.90904,-102.46094 -102.46094,-102.46094 z m 0,6 c 53.30926,0 96.46094,43.15168 96.46094,96.46094 0,53.30926 -43.15168,96.46093 -96.46094,96.46093 -53.309258,0 -96.460938,-43.15167 -96.460938,-96.46093 1e-5,-53.30926 43.15168,-96.46094 96.460938,-96.46094 z"
       style="color:#000000;font-style:normal;font-variant:normal;font-weight:normal;font-stretch:normal;font-size:medium;line-height:normal;font-family:sans-serif;font-variant-ligatures:normal;font-variant-position:normal;font-variant-caps:normal;font-variant-numeric:normal;font-variant-alternates:normal;font-feature-settings:normal;text-indent:0;text-align:start;text-decoration:none;text-decoration-line:none;text-decoration-style:solid;text-decoration-color:#000000;letter-spacing:normal;word-spacing:normal;text-transform:none;writing-mode:lr-tb;direction:ltr;text-orientation:mixed;dominant-baseline:auto;baseline-shift:baseline;text-anchor:start;white-space:normal;shape-padding:0;clip-rule:nonzero;display:inline;overflow:visible;visibility:visible;opacity:1;isolation:auto;mix-blend-mode:normal;color-interpolation:sRGB;color-interpolation-filters:linearRGB;solid-color:#000000;solid-opacity:1;vector-effect:none;fill:none;fill-opacity:1;fill-rule:nonzero;stroke:#050505;stroke-width:2;stroke-linecap:round;stroke-linejoin:bevel;stroke-miterlimit:4;stroke-dasharray:none;stroke-dashoffset:0;stroke-opacity:0.2142857;paint-order:stroke fill markers;color-rendering:auto;image-rendering:auto;shape-rendering:auto;text-rendering:auto;enable-background:accumulate" />
    <circle
       r="98.925476"
       cy="672.41736"
       cx="134.04443"
       id="circle6612"
       style="opacity:1;fill:#000000;fill-opacity:0.2745098;stroke:none;stroke-width:7.4429369;stroke-linecap:round;stroke-linejoin:bevel;stroke-miterlimit:4;stroke-dasharray:none;stroke-opacity:1;paint-order:stroke fill markers" />
    <circle
       style="opacity:1;fill:#ffffff;fill-opacity:0.24603176;stroke:none;stroke-width:4;stroke-linecap:round;stroke-linejoin:bevel;stroke-miterlimit:4;stroke-dasharray:none;stroke-opacity:1;paint-order:stroke fill markers"
       id="path6538"
       cx="134.04443"
       cy="672.41736"
       r="99.460617" />
    <path
       style="color:#000000;font-style:normal;font-variant:normal;font-weight:normal;font-stretch:normal;font-size:medium;line-height:normal;font-family:sans-serif;font-variant-ligatures:normal;font-variant-position:normal;font-variant-caps:normal;font-variant-numeric:normal;font-variant-alternates:normal;font-feature-settings:normal;text-indent:0;text-align:start;text-decoration:none;text-decoration-line:none;text-decoration-style:solid;text-decoration-color:#000000;letter-spacing:normal;word-spacing:normal;text-transform:none;writing-mode:lr-tb;direction:ltr;text-orientation:mixed;dominant-baseline:auto;baseline-shift:baseline;text-anchor:start;white-space:normal;shape-padding:0;clip-rule:nonzero;display:inline;overflow:visible;visibility:visible;opacity:1;isolation:auto;mix-blend-mode:normal;color-interpolation:sRGB;color-interpolation-filters:linearRGB;solid-color:#000000;solid-opacity:1;vector-effect:none;fill:url(#linearGradient6560);fill-opacity:1;fill-rule:nonzero;stroke:none;stroke-width:6;stroke-linecap:round;stroke-linejoin:bevel;stroke-miterlimit:4;stroke-dasharray:none;stroke-dashoffset:0;stroke-opacity:1;paint-order:stroke fill markers;color-rendering:auto;image-rendering:auto;shape-rendering:auto;text-rendering:auto;enable-background:accumulate"
       d="m 134.04443,569.95647 c -56.551898,0 -102.460928,45.90903 -102.460938,102.46094 0,56.5519 45.90904,102.46093 102.460938,102.46093 56.5519,0 102.46094,-45.90903 102.46094,-102.46093 0,-56.5519 -45.90904,-102.46094 -102.46094,-102.46094 z m 0,6 c 53.30926,0 96.46094,43.15168 96.46094,96.46094 0,53.30926 -43.15168,96.46093 -96.46094,96.46093 -53.309258,0 -96.460938,-43.15167 -96.460938,-96.46093 1e-5,-53.30926 43.15168,-96.46094 96.460938,-96.46094 z"
       id="circle6549"
       inkscape:connector-curvature="0" />
    <circle
       style="opacity:1;fill:#c0c6cc;fill-opacity:0.99206346;stroke:none;stroke-width:5.86854982;stroke-linecap:round;stroke-linejoin:bevel;stroke-miterlimit:4;stroke-dasharray:none;stroke-opacity:1;paint-order:stroke fill markers"
       id="path6594"
       cx="134.04443"
       cy="672.41736"
       r="78" />
    <path
       inkscape:connector-curvature="0"
       id="path6580"
       d="m 134.04442,593.8817 c -43.346688,0 -78.535688,35.18901 -78.535688,78.53571 0,43.3467 35.189,78.53569 78.535688,78.53569 43.34671,0 78.53571,-35.18899 78.53571,-78.53569 0,-43.3467 -35.189,-78.53571 -78.53571,-78.53571 z m 0,4.59897 c 40.86123,0 73.93674,33.07551 73.93674,73.93674 0,40.86123 -33.07551,73.93673 -73.93674,73.93673 -40.861228,0 -73.936728,-33.0755 -73.936718,-73.93673 0,-40.86123 33.07549,-73.93674 73.936718,-73.93674 z"
       style="color:#000000;font-style:normal;font-variant:normal;font-weight:normal;font-stretch:normal;font-size:medium;line-height:normal;font-family:sans-serif;font-variant-ligatures:normal;font-variant-position:normal;font-variant-caps:normal;font-variant-numeric:normal;font-variant-alternates:normal;font-feature-settings:normal;text-indent:0;text-align:start;text-decoration:none;text-decoration-line:none;text-decoration-style:solid;text-decoration-color:#000000;letter-spacing:normal;word-spacing:normal;text-transform:none;writing-mode:lr-tb;direction:ltr;text-orientation:mixed;dominant-baseline:auto;baseline-shift:baseline;text-anchor:start;white-space:normal;shape-padding:0;clip-rule:nonzero;display:inline;overflow:visible;visibility:visible;opacity:1;isolation:auto;mix-blend-mode:normal;color-interpolation:sRGB;color-interpolation-filters:linearRGB;solid-color:#000000;solid-opacity:1;vector-effect:none;fill:#e7e7e7;fill-opacity:0.94444442;fill-rule:nonzero;stroke:none;stroke-width:4.59896421;stroke-linecap:round;stroke-linejoin:bevel;stroke-miterlimit:4;stroke-dasharray:none;stroke-dashoffset:0;stroke-opacity:1;paint-order:stroke fill markers;color-rendering:auto;image-rendering:auto;shape-rendering:auto;text-rendering:auto;enable-background:accumulate" />
    <circle
       r="78"
       cy="672.41736"
       cx="134.66965"
       id="circle6596"
       style="opacity:1;fill:url(#radialGradient6604);fill-opacity:1;stroke:none;stroke-width:5.86854982;stroke-linecap:round;stroke-linejoin:bevel;stroke-miterlimit:4;stroke-dasharray:none;stroke-opacity:1;paint-order:stroke fill markers" />
    <circle
       style="opacity:1;fill:url(#radialGradient6610);fill-opacity:1;stroke:none;stroke-width:5.86854982;stroke-linecap:round;stroke-linejoin:bevel;stroke-miterlimit:4;stroke-dasharray:none;stroke-opacity:1;paint-order:stroke fill markers"
       id="circle6608"
       cx="134.66965"
       cy="672.41736"
       r="78" />
    <g
       sketch:type="MSPage"
       id="miu-6"
       transform="matrix(4.2998379,0,0,4.2998379,91.670865,626.66941)"
       style="fill:#545454;fill-opacity:1;fill-rule:evenodd;stroke:none;stroke-width:1">
      <path
         sketch:type="MSShapeGroup"
         id="editor_alarm_clock_glyph"
         d="M 14.293123,18.912016 16.389994,21 17.090006,20.302955 15.156293,18.377438 C 17.480338,16.75008 19,14.052508 19,11 19,6.029437 14.970563,2 10,2 5.029437,2 1,6.029437 1,11 c 0,3.020924 1.4883763,5.694218 3.771825,7.32658 L 2.7870376,20.302955 3.4870496,21 5.6276856,18.868437 C 6.9222111,19.589316 8.4131454,20 10,20 c 1.554596,0 3.017131,-0.394156 4.293123,-1.087984 z M 10,10.991751 V 5 h 0.995279 v 5.991751 H 11 v 1.004342 H 10.9953 V 12 H 10 V 11.9961 H 6 V 10.991751 Z M 6.2875245,1.8350317 1.5594599,5.5290006 0.94444088,4.741812 C 0.26663176,3.8742559 0.41734813,2.6142615 1.2868526,1.9349302 L 2.866163,0.70103758 C 3.732701,0.0240239 4.9921097,0.17697644 5.6725054,1.0478432 L 5.9800149,1.4414374 Z M 18.44054,5.5290006 13.712476,1.8350317 14.327495,1.0478432 c 0.677809,-0.86755613 1.936838,-1.02613692 2.806342,-0.34680562 l 1.57931,1.23389262 c 0.866538,0.6770136 1.022808,1.9360151 0.342412,2.8068818 L 18.74805,5.1354063 Z"
         inkscape:connector-curvature="0"
         style="fill:#545454;fill-opacity:1" />
    </g>
    <path
       style="opacity:1;fill:#ffffff;fill-opacity:0.31698118;stroke:none;stroke-width:1.99316084"
       d="m 111.12035,578.6996 c -10.15288,2.4713 -19.674157,6.54573 -28.281245,11.94336 l 9.36914,12.76758 20.601565,-20.8086 c -0.0666,-0.34682 -0.75727,-1.89434 -1.68946,-3.90234 z m 6.43946,13.21094 -19.615237,19.16406 18.011717,24.58008 15.66797,-14.90625 z m -40.48633,2.64648 c -8.936676,6.54744 -16.705681,14.59207 -22.929688,23.77344 l 12.775391,10.32812 20.910156,-20.86914 z m 16.677734,20.59375 -19.738281,19.28711 23.316406,18.85937 15.357421,-14.60156 -17.455077,-21.71875 z m -43.560547,9.5332 c -4.800372,8.42098 -8.365114,17.63799 -10.457031,27.4043 l 2.699219,1.39258 0.123047,-0.1211 -0.248047,-0.12304 19.800781,-19.83399 z m 84.208983,1.66211 -14.86523,14.23633 12.45898,16.85352 11.71875,-12.10742 z m -64.828123,12.47266 -19.244141,18.73828 27.509766,14.17578 15.976562,-15.14844 z m 46.939453,4.68359 -14.30859,13.68946 16.83789,13.6289 10.79492,-11.19531 -0.12305,-0.18164 -0.18555,0.24219 z m -17.578125,16.85352 -15.113282,14.48047 20.849607,10.76758 c 2.81395,-2.60635 11.42738,-12.08079 11.78125,-12.47266 z"
       id="path4158-0-8"
       inkscape:connector-curvature="0"
       sodipodi:nodetypes="cccccccccccccccccccccccccccccccccccccccccccccccccc" />
    <path
       inkscape:connector-curvature="0"
       id="path6664"
       d="m 379.94482,815.85681 c -56.55191,0 -102.46094,45.90903 -102.46095,102.46094 0,56.5519 45.90904,102.46095 102.46095,102.46095 56.5519,0 102.46094,-45.90905 102.46094,-102.46095 0,-56.5519 -45.90904,-102.46094 -102.46094,-102.46094 z m 0,6 c 53.30926,0 96.46094,43.15168 96.46094,96.46094 0,53.30926 -43.15168,96.46095 -96.46094,96.46095 -53.30927,0 -96.46095,-43.15169 -96.46095,-96.46095 10e-6,-53.30926 43.15168,-96.46094 96.46095,-96.46094 z"
       style="color:#000000;font-style:normal;font-variant:normal;font-weight:normal;font-stretch:normal;font-size:medium;line-height:normal;font-family:sans-serif;font-variant-ligatures:normal;font-variant-position:normal;font-variant-caps:normal;font-variant-numeric:normal;font-variant-alternates:normal;font-feature-settings:normal;text-indent:0;text-align:start;text-decoration:none;text-decoration-line:none;text-decoration-style:solid;text-decoration-color:#000000;letter-spacing:normal;word-spacing:normal;text-transform:none;writing-mode:lr-tb;direction:ltr;text-orientation:mixed;dominant-baseline:auto;baseline-shift:baseline;text-anchor:start;white-space:normal;shape-padding:0;clip-rule:nonzero;display:inline;overflow:visible;visibility:visible;opacity:1;isolation:auto;mix-blend-mode:normal;color-interpolation:sRGB;color-interpolation-filters:linearRGB;solid-color:#000000;solid-opacity:1;vector-effect:none;fill:none;fill-opacity:1;fill-rule:nonzero;stroke:#050505;stroke-width:2;stroke-linecap:round;stroke-linejoin:bevel;stroke-miterlimit:4;stroke-dasharray:none;stroke-dashoffset:0;stroke-opacity:0.2142857;paint-order:stroke fill markers;color-rendering:auto;image-rendering:auto;shape-rendering:auto;text-rendering:auto;enable-background:accumulate" />
    <circle
       r="98.925476"
       cy="918.31769"
       cx="379.94482"
       id="circle6666"
       style="opacity:1;fill:#000000;fill-opacity:0.2745098;stroke:none;stroke-width:7.4429369;stroke-linecap:round;stroke-linejoin:bevel;stroke-miterlimit:4;stroke-dasharray:none;stroke-opacity:1;paint-order:stroke fill markers" />
    <circle
       style="opacity:1;fill:#ffffff;fill-opacity:0.24603176;stroke:none;stroke-width:4;stroke-linecap:round;stroke-linejoin:bevel;stroke-miterlimit:4;stroke-dasharray:none;stroke-opacity:1;paint-order:stroke fill markers"
       id="circle6668"
       cx="379.94482"
       cy="918.31769"
       r="99.460617" />
    <path
       style="color:#000000;font-style:normal;font-variant:normal;font-weight:normal;font-stretch:normal;font-size:medium;line-height:normal;font-family:sans-serif;font-variant-ligatures:normal;font-variant-position:normal;font-variant-caps:normal;font-variant-numeric:normal;font-variant-alternates:normal;font-feature-settings:normal;text-indent:0;text-align:start;text-decoration:none;text-decoration-line:none;text-decoration-style:solid;text-decoration-color:#000000;letter-spacing:normal;word-spacing:normal;text-transform:none;writing-mode:lr-tb;direction:ltr;text-orientation:mixed;dominant-baseline:auto;baseline-shift:baseline;text-anchor:start;white-space:normal;shape-padding:0;clip-rule:nonzero;display:inline;overflow:visible;visibility:visible;opacity:1;isolation:auto;mix-blend-mode:normal;color-interpolation:sRGB;color-interpolation-filters:linearRGB;solid-color:#000000;solid-opacity:1;vector-effect:none;fill:url(#linearGradient6692);fill-opacity:1;fill-rule:nonzero;stroke:none;stroke-width:6;stroke-linecap:round;stroke-linejoin:bevel;stroke-miterlimit:4;stroke-dasharray:none;stroke-dashoffset:0;stroke-opacity:1;paint-order:stroke fill markers;color-rendering:auto;image-rendering:auto;shape-rendering:auto;text-rendering:auto;enable-background:accumulate"
       d="m 307.49399,845.86692 c -39.98824,39.98824 -39.98824,104.91342 -10e-6,144.90166 39.98823,39.98822 104.91343,39.98822 144.90167,10e-6 39.98823,-39.98823 39.98822,-104.91343 -10e-6,-144.90167 -39.98824,-39.98823 -104.91342,-39.98823 -144.90165,0 z m 4.24264,4.24264 c 37.69534,-37.69533 98.72103,-37.69533 136.41637,0 37.69534,37.69534 37.69535,98.72105 10e-6,136.41639 -37.69535,37.69535 -98.72105,37.69535 -136.41639,-10e-6 -37.69533,-37.69535 -37.69534,-98.72103 10e-6,-136.41638 z"
       id="path6670"
       inkscape:connector-curvature="0" />
    <circle
       style="opacity:1;fill:#c0c6cc;fill-opacity:0.99206346;stroke:none;stroke-width:5.86854982;stroke-linecap:round;stroke-linejoin:bevel;stroke-miterlimit:4;stroke-dasharray:none;stroke-opacity:1;paint-order:stroke fill markers"
       id="circle6672"
       cx="379.94482"
       cy="918.31769"
       r="78" />
    <path
       inkscape:connector-curvature="0"
       id="path6674"
       d="m 379.94481,839.78204 c -43.3467,0 -78.5357,35.18901 -78.5357,78.53571 0,43.3467 35.189,78.53566 78.5357,78.53566 43.34671,0 78.53571,-35.18896 78.53571,-78.53566 0,-43.3467 -35.189,-78.53571 -78.53571,-78.53571 z m 0,4.59897 c 40.86123,0 73.93674,33.07551 73.93674,73.93674 0,40.86123 -33.07551,73.93673 -73.93674,73.93673 -40.86124,0 -73.93674,-33.0755 -73.93673,-73.93673 0,-40.86123 33.07549,-73.93674 73.93673,-73.93674 z"
       style="color:#000000;font-style:normal;font-variant:normal;font-weight:normal;font-stretch:normal;font-size:medium;line-height:normal;font-family:sans-serif;font-variant-ligatures:normal;font-variant-position:normal;font-variant-caps:normal;font-variant-numeric:normal;font-variant-alternates:normal;font-feature-settings:normal;text-indent:0;text-align:start;text-decoration:none;text-decoration-line:none;text-decoration-style:solid;text-decoration-color:#000000;letter-spacing:normal;word-spacing:normal;text-transform:none;writing-mode:lr-tb;direction:ltr;text-orientation:mixed;dominant-baseline:auto;baseline-shift:baseline;text-anchor:start;white-space:normal;shape-padding:0;clip-rule:nonzero;display:inline;overflow:visible;visibility:visible;opacity:1;isolation:auto;mix-blend-mode:normal;color-interpolation:sRGB;color-interpolation-filters:linearRGB;solid-color:#000000;solid-opacity:1;vector-effect:none;fill:#e7e7e7;fill-opacity:0.94444442;fill-rule:nonzero;stroke:none;stroke-width:4.59896421;stroke-linecap:round;stroke-linejoin:bevel;stroke-miterlimit:4;stroke-dasharray:none;stroke-dashoffset:0;stroke-opacity:1;paint-order:stroke fill markers;color-rendering:auto;image-rendering:auto;shape-rendering:auto;text-rendering:auto;enable-background:accumulate" />
    <circle
       r="78"
       cy="918.31769"
       cx="380.57004"
       id="circle6676"
       style="opacity:1;fill:url(#radialGradient6694);fill-opacity:1;stroke:none;stroke-width:5.86854982;stroke-linecap:round;stroke-linejoin:bevel;stroke-miterlimit:4;stroke-dasharray:none;stroke-opacity:1;paint-order:stroke fill markers" />
    <circle
       style="opacity:1;fill:url(#radialGradient6696);fill-opacity:1;stroke:none;stroke-width:5.86854982;stroke-linecap:round;stroke-linejoin:bevel;stroke-miterlimit:4;stroke-dasharray:none;stroke-opacity:1;paint-order:stroke fill markers"
       id="circle6678"
       cx="380.57004"
       cy="918.31769"
       r="78" />
    <g
       sketch:type="MSPage"
       id="miu-5"
       transform="matrix(3.7704156,0,0,3.7704156,339.09545,880.61356)"
       style="fill:#0077c8;fill-opacity:1;fill-rule:evenodd;stroke:none;stroke-width:1">
      <g
         id="editor_images_pictures_photos_collection_glyph"
         style="fill:#0077c8;fill-opacity:1">
        <use
           id="use6781"
           xlink:href="#path-1-7"
           sketch:type="MSShapeGroup"
           style="fill:#0077c8;fill-opacity:1;fill-rule:evenodd"
           x="0"
           y="0"
           width="100%"
           height="100%" />
        <use
           id="use6783"
           xlink:href="#path-1-7"
           style="fill:#0077c8;fill-opacity:1"
           x="0"
           y="0"
           width="100%"
           height="100%" />
      </g>
    </g>
    <path
       sodipodi:nodetypes="cccccccccccccccccccccccccccccccccccccccccccccccccc"
       inkscape:connector-curvature="0"
       id="path7003"
       d="m 402.74671,824.78051 c 10.15288,2.4713 19.67416,6.54573 28.28125,11.94336 l -9.36914,12.76758 -20.60157,-20.8086 c 0.0666,-0.34682 0.75727,-1.89434 1.68946,-3.90234 z m -6.43946,13.21094 19.61524,19.16406 -18.01172,24.58008 -15.66797,-14.90625 z m 40.48633,2.64648 c 8.93668,6.54744 16.70568,14.59207 22.92969,23.77344 l -12.77539,10.32812 -20.91016,-20.86914 z m -16.67773,20.59375 19.73828,19.28711 -23.31641,18.85937 -15.35742,-14.60156 17.45508,-21.71875 z m 43.56054,9.5332 c 4.80038,8.42098 8.36512,17.63799 10.45704,27.4043 l -2.69922,1.39258 -0.12305,-0.1211 0.24805,-0.12304 -19.80078,-19.83399 z m -84.20898,1.66211 14.86523,14.23633 -12.45898,16.85352 -11.71875,-12.10742 z m 64.82812,12.47266 19.24415,18.73828 -27.50977,14.17578 -15.97656,-15.14844 z m -46.93945,4.68359 14.3086,13.68946 -16.8379,13.6289 -10.79492,-11.19531 0.12305,-0.18164 0.18555,0.24219 z m 17.57813,16.85352 15.11328,14.48047 -20.84961,10.76758 c -2.81395,-2.60635 -11.42738,-12.08079 -11.78125,-12.47266 z"
       style="opacity:1;fill:#ffffff;fill-opacity:0.31698118;stroke:none;stroke-width:1.99316084" />
    <circle
       style="opacity:1;fill:#19aeff;fill-opacity:1;stroke:none;stroke-width:7.44829559;stroke-linecap:round;stroke-linejoin:bevel;stroke-miterlimit:4;stroke-dasharray:none;stroke-opacity:1;paint-order:stroke fill markers"
       id="circle930"
       cx="137.03174"
       cy="917.3623"
       r="98.996696" />
    <path
       style="opacity:0.75499998;fill:url(#radialGradient967);fill-opacity:1;stroke:none;stroke-width:31.20147896;stroke-linecap:round;stroke-linejoin:bevel;stroke-miterlimit:4;stroke-dasharray:none;stroke-opacity:1;paint-order:stroke fill markers"
       d="m 134.07047,910.04998 a 414.70473,414.70473 0 0 0 -98.885164,12.40929 98.996693,98.996693 0 0 0 98.885164,95.81133 98.996693,98.996693 0 0 0 98.83309,-95.75432 414.70473,414.70473 0 0 0 -98.83309,-12.4663 z"
       id="circle919"
       inkscape:connector-curvature="0" />
    <path
       style="opacity:1;fill:url(#radialGradient985-7);fill-opacity:1;stroke:none;stroke-width:31.20147896;stroke-linecap:round;stroke-linejoin:bevel;stroke-miterlimit:4;stroke-dasharray:none;stroke-opacity:1;paint-order:stroke fill markers"
       d="m 134.04442,820.27721 a 98.996693,98.996693 0 0 0 -98.996704,98.99669 98.996693,98.996693 0 0 0 0.0967,2.72182 414.70473,414.70473 0 0 0 98.900034,12.48364 414.70473,414.70473 0 0 0 98.8554,-12.40184 98.996693,98.996693 0 0 0 0.1413,-2.80362 98.996693,98.996693 0 0 0 -98.9967,-98.99669 z"
       id="circle915"
       inkscape:connector-curvature="0" />
    <path
       style="opacity:1;fill:#010101;fill-opacity:0.39682539;stroke:none;stroke-width:31.20147896;stroke-linecap:round;stroke-linejoin:bevel;stroke-miterlimit:4;stroke-dasharray:none;stroke-opacity:1;paint-order:stroke fill markers"
       d="m 134.03956,910.04998 a 414.70473,414.70473 0 0 0 -97.810564,12.16211 414.70473,414.70473 0 0 0 97.810564,12.26562 414.70473,414.70473 0 0 0 97.82031,-12.16406 414.70473,414.70473 0 0 0 -97.82031,-12.26367 z"
       id="path940"
       inkscape:connector-curvature="0" />
    <path
       style="color:#000000;font-style:normal;font-variant:normal;font-weight:normal;font-stretch:normal;font-size:medium;line-height:normal;font-family:sans-serif;font-variant-ligatures:normal;font-variant-position:normal;font-variant-caps:normal;font-variant-numeric:normal;font-variant-alternates:normal;font-feature-settings:normal;text-indent:0;text-align:start;text-decoration:none;text-decoration-line:none;text-decoration-style:solid;text-decoration-color:#000000;letter-spacing:normal;word-spacing:normal;text-transform:none;writing-mode:lr-tb;direction:ltr;text-orientation:mixed;dominant-baseline:auto;baseline-shift:baseline;text-anchor:start;white-space:normal;shape-padding:0;clip-rule:nonzero;display:inline;overflow:visible;visibility:visible;opacity:0.75800003;isolation:auto;mix-blend-mode:normal;color-interpolation:sRGB;color-interpolation-filters:linearRGB;solid-color:#000000;solid-opacity:1;vector-effect:none;fill:none;fill-opacity:1;fill-rule:nonzero;stroke:url(#radialGradient979);stroke-width:6;stroke-linecap:round;stroke-linejoin:bevel;stroke-miterlimit:4;stroke-dasharray:none;stroke-dashoffset:0;stroke-opacity:1;paint-order:stroke fill markers;color-rendering:auto;image-rendering:auto;shape-rendering:auto;text-rendering:auto;enable-background:accumulate"
       d="M 185.27492,829.58398 C 136.29953,801.30803 73.586616,818.11191 45.310646,867.08729 c -28.275949,48.97538 -11.47208,111.68832 37.5033,139.96421 48.975404,28.276 111.688324,11.4721 139.964274,-37.50327 28.27595,-48.97538 11.47208,-111.6883 -37.5033,-139.96425 z m -3,5.19616 c 0.25848,0.14923 0.51601,0.29948 0.77258,0.45073 45.57012,26.86356 61.03997,85.40867 34.53457,131.31736 -26.65464,46.16717 -85.60093,61.96177 -131.768124,35.30717 -46.16717,-26.65463 -61.96177,-85.60093 -35.30714,-131.76811 26.65464,-46.16717 85.600934,-61.96178 131.768114,-35.30715 z"
       id="path926"
       inkscape:connector-curvature="0"
       sodipodi:nodetypes="sscssssssss" />
    <path
       inkscape:connector-curvature="0"
       id="path969"
       d="M 185.27492,829.58398 C 136.29953,801.30803 73.586616,818.11191 45.310646,867.08729 c -28.275949,48.97538 -11.47208,111.68832 37.5033,139.96421 48.975404,28.276 111.688324,11.4721 139.964274,-37.50327 28.27595,-48.97538 11.47208,-111.6883 -37.5033,-139.96425 z m -3,5.19616 c 46.16717,26.65463 61.96178,85.60092 35.30715,131.76809 -26.65463,46.16717 -85.60093,61.96177 -131.768124,35.30717 -46.16717,-26.65463 -61.96177,-85.60093 -35.30714,-131.76811 26.65464,-46.16717 85.600934,-61.96178 131.768114,-35.30715 z"
       style="color:#000000;font-style:normal;font-variant:normal;font-weight:normal;font-stretch:normal;font-size:medium;line-height:normal;font-family:sans-serif;font-variant-ligatures:normal;font-variant-position:normal;font-variant-caps:normal;font-variant-numeric:normal;font-variant-alternates:normal;font-feature-settings:normal;text-indent:0;text-align:start;text-decoration:none;text-decoration-line:none;text-decoration-style:solid;text-decoration-color:#000000;letter-spacing:normal;word-spacing:normal;text-transform:none;writing-mode:lr-tb;direction:ltr;text-orientation:mixed;dominant-baseline:auto;baseline-shift:baseline;text-anchor:start;white-space:normal;shape-padding:0;clip-rule:nonzero;display:inline;overflow:visible;visibility:visible;opacity:1;isolation:auto;mix-blend-mode:normal;color-interpolation:sRGB;color-interpolation-filters:linearRGB;solid-color:#000000;solid-opacity:1;vector-effect:none;fill:url(#linearGradient928);fill-opacity:1;fill-rule:nonzero;stroke:none;stroke-width:6;stroke-linecap:round;stroke-linejoin:bevel;stroke-miterlimit:4;stroke-dasharray:none;stroke-dashoffset:0;stroke-opacity:0.30566035;paint-order:stroke fill markers;color-rendering:auto;image-rendering:auto;shape-rendering:auto;text-rendering:auto;enable-background:accumulate" />
  </g>
</svg>
