<?xml version="1.0" encoding="UTF-8" standalone="no"?>
<!-- Created with Inkscape (http://www.inkscape.org/) -->

<svg
   xmlns:dc="http://purl.org/dc/elements/1.1/"
   xmlns:cc="http://creativecommons.org/ns#"
   xmlns:rdf="http://www.w3.org/1999/02/22-rdf-syntax-ns#"
   xmlns:svg="http://www.w3.org/2000/svg"
   xmlns="http://www.w3.org/2000/svg"
   xmlns:sodipodi="http://sodipodi.sourceforge.net/DTD/sodipodi-0.dtd"
   xmlns:inkscape="http://www.inkscape.org/namespaces/inkscape"
   width="512"
   height="512"
   viewBox="0 0 512.00002 512.00002"
   id="svg2"
   version="1.1"
   inkscape:version="0.92.2 2405546, 2018-03-11"
   sodipodi:docname="pantera.svg">
  <defs
     id="defs4" />
  <sodipodi:namedview
     id="base"
     pagecolor="#ffffff"
     bordercolor="#666666"
     borderopacity="1.0"
     inkscape:pageopacity="0.0"
     inkscape:pageshadow="2"
     inkscape:zoom="1.4628906"
     inkscape:cx="108.34713"
     inkscape:cy="250.53138"
     inkscape:document-units="px"
     inkscape:current-layer="layer1"
     showgrid="false"
     units="px"
     inkscape:showpageshadow="false"
     inkscape:window-width="1920"
     inkscape:window-height="994"
     inkscape:window-x="0"
     inkscape:window-y="21"
     inkscape:window-maximized="1" />
  <metadata
     id="metadata7">
    <rdf:RDF>
      <cc:Work
         rdf:about="">
        <dc:format>image/svg+xml</dc:format>
        <dc:type
           rdf:resource="http://purl.org/dc/dcmitype/StillImage" />
        <dc:title></dc:title>
        <cc:license
           rdf:resource="http://creativecommons.org/licenses/by-sa/4.0/" />
        <dc:date>2019</dc:date>
        <dc:creator>
          <cc:Agent>
            <dc:title>Cristian Pozzessere  &lt; ilnanny &gt;</dc:title>
          </cc:Agent>
        </dc:creator>
        <dc:subject>
          <rdf:Bag>
            <rdf:li>ilnanny</rdf:li>
          </rdf:Bag>
        </dc:subject>
      </cc:Work>
      <cc:License
         rdf:about="http://creativecommons.org/licenses/by-sa/4.0/">
        <cc:permits
           rdf:resource="http://creativecommons.org/ns#Reproduction" />
        <cc:permits
           rdf:resource="http://creativecommons.org/ns#Distribution" />
        <cc:requires
           rdf:resource="http://creativecommons.org/ns#Notice" />
        <cc:requires
           rdf:resource="http://creativecommons.org/ns#Attribution" />
        <cc:permits
           rdf:resource="http://creativecommons.org/ns#DerivativeWorks" />
        <cc:requires
           rdf:resource="http://creativecommons.org/ns#ShareAlike" />
      </cc:License>
    </rdf:RDF>
  </metadata>
  <g
     inkscape:label="Livello 1"
     inkscape:groupmode="layer"
     id="layer1"
     transform="translate(0,-540.3622)">
    <path
       style="opacity:1;fill:#515c6b;fill-opacity:0.98867924;stroke:none;stroke-width:4.75087738;stroke-linecap:round;stroke-linejoin:bevel;stroke-miterlimit:4;stroke-dasharray:none;stroke-opacity:0.98113248;paint-order:stroke markers fill"
       d="m 1,541.3622 h 510 v 510 H 1 Z"
       id="rect1404"
       inkscape:connector-curvature="0" />
    <g
       transform="matrix(0.93727569,0,0,0.93727569,31.265234,550.06473)"
       id="g1526">
      <path
         inkscape:connector-curvature="0"
         id="path2"
         d="m 228.7984,370.7235 c -20.6301,-4.3747 -35.4619,-15.899 -43.3972,-35.5991 -8.5038,-21.1112 -4.4153,-41.3579 5.4803,-60.5949 4.4303,-8.6125 10.8413,-16.2996 16.9361,-23.942 10.5213,-13.1929 20.2549,-26.8489 27.3552,-42.2108 7.5788,-16.397 2.5102,-38.4373 -16.91,-44.3962 -0.4405,-0.1351 -0.8001,-0.5338 -1.231,-0.8329 7.0859,-4.3818 18.7279,-2.2556 26.8551,4.7384 4.035,3.4724 8.0653,6.972 12.3192,10.1641 13.4818,10.1168 30.2063,11.2112 43.5126,3.0276 13.5303,-8.3213 20.1923,-23.4944 17.5797,-40.0388 -2.404,-15.2233 -10.1329,-23.9799 -23.6813,-26.6336 -6.4583,-1.265 -12.5271,0.1605 -18.3903,2.9742 -8.7362,4.1923 -17.5006,8.1087 -27.6709,6.9414 -19.5638,-2.2456 -32.469,-23.9948 -23.8019,-40.6951 5.6981,-10.9793 16.1347,-14.4795 27.4049,-15.5769 6.0731,-0.5914 12.2913,0.4938 18.4441,0.495 11.3079,0.0022 22.6158,-0.242 33.9239,-0.3728 2.2435,-0.0259 4.4876,-0.0037 6.8603,1.0087 -5.1403,0.8484 -10.252,2.0569 -15.427,2.4687 -10.1172,0.8052 -20.2647,1.4378 -30.4093,1.626 -8.5036,0.1578 -16.5125,1.4873 -23.8498,6.0547 -8.6279,5.3708 -10.1955,16.2048 -3.2773,23.5301 9.2349,9.7784 23.9486,10.7135 34.7827,1.8719 13.4175,-10.9499 28.6689,-16.6831 45.9575,-16.6843 16.7186,-0.0012 28.0231,9.3324 31.3362,25.7919 4.5883,22.7946 -0.8305,42.6942 -16.7476,59.9805 -12.8147,13.917 -28.3798,23.9756 -43.9873,34.2301 -9.8423,6.4666 -19.0843,13.9352 -28.103,21.5385 -6.9059,5.8221 -6.5237,16.5557 10e-4,22.6127 5.9979,5.5677 12.9626,4.9299 20.7931,-1.904 -1.5325,9.8608 -17.0473,15.4469 -26.0389,9.1334 -3.356,-2.3564 -6.3135,-5.3896 -9.0603,-8.4646 -1.7012,-1.9044 -2.8206,-2.242 -4.9308,-0.724 -18.8243,13.5412 -34.5382,30.0614 -44.988,50.7554 -11.2086,22.1965 0.7328,54.0985 23.5165,65.628 2.8972,1.4661 5.8931,2.7373 8.8432,4.0987 z" />
      <path
         inkscape:connector-curvature="0"
         id="path4"
         d="m 473.4592,158.2491 c -12.733,8.7538 -33.2572,8.1736 -47.2488,-2.8229 -20.7393,-16.2999 -36.7199,-36.4527 -45.777,-61.2531 -10.9007,-29.8487 -39.1932,-46.2834 -69.5058,-40.3804 -5.3675,1.0453 -10.9279,1.6884 -16.3804,1.5791 -9.6301,-0.1929 -19.2701,-0.8577 -28.8604,-1.7924 -8.9946,-0.8766 -14.3933,-6.0468 -16.3714,-14.9963 -0.255,-1.1534 -2.7696,-2.7843 -3.9775,-2.5886 -6.8684,1.1123 -13.9932,1.8361 -20.417,4.2954 -30.7601,11.7762 -62.5661,15.2628 -95.1867,13.261 -0.4632,-0.0284 -0.9099,-0.3267 -2.519,-0.9371 1.9435,-0.6694 2.9693,-1.2257 4.0489,-1.365 26.8165,-3.4584 52.0055,-11.9102 76.3751,-23.5476 26.382,-12.5984 54.3338,-19.7493 83.6638,-21.0005 1.3069,-0.0557 2.6182,-0.0071 3.8978,-0.0071 0.0754,0.6433 0.2485,1.1436 0.1278,1.229 -7.9346,5.6196 -4.849,14.8427 4.8206,16.8781 9.8372,2.0707 19.4177,1.5112 29.2286,-0.0114 17.8362,-2.768 34.6724,-1.0036 47.7706,13.3896 6.8692,7.5484 11.0493,16.4354 13.2722,26.4369 6.6005,29.6986 18.9227,56.9041 37.8253,80.7319 10.3252,13.0155 24.7563,16.6815 40.9436,13.3615 1.1308,-0.2319 2.2409,-0.5636 3.3667,-0.8224 0.1295,-0.0297 0.2983,0.1121 0.903,0.3623 z" />
      <path
         inkscape:connector-curvature="0"
         id="path6"
         d="M 56.4365,188.6073 C 39.9667,180.3927 26.2024,169.1454 15.4393,154.3644 12.6991,150.6013 10.3169,146.5773 7.5724,142.8176 5.3462,139.768 5.5194,137.3355 8.826,135.3893 17.6742,130.1815 26.1285,124.0168 35.5148,120.0822 47.8685,114.9037 58.3135,107.9964 66.178,97.0929 74.7448,85.2157 85.7922,75.9793 97.514,67.27 c 9.0338,-6.7121 17.9947,-8.1861 28.3678,-4.3395 6.2265,2.309 12.6339,4.2247 19.0909,5.7696 2.4635,0.5894 5.4384,0.1108 7.9293,-0.6756 8.9937,-2.8397 17.8419,-6.1386 26.8264,-9.01 3.7783,-1.2075 7.2059,-0.5527 10.6662,2.1428 8.3113,6.4743 18.179,9.2192 28.792,10.4468 -15.068,4.977 -27.7897,13.244 -38.4088,25.6298 -7.3969,-8.0249 -17.1523,-5.9853 -26.724,-5.7009 7.1404,-3.1525 13.1838,-5.9485 19.3568,-8.4212 1.0362,-0.4151 2.8293,0.2613 3.934,0.965 3.332,2.1227 6.0079,1.8015 8.9209,-0.9722 3.4488,-3.2838 7.318,-6.126 11.2678,-9.3758 -7.2613,-5.3084 -14.5612,-9.2085 -23.0391,-4.8048 -6.5477,3.4011 -12.7255,7.6055 -18.7161,11.9389 -2.1263,1.5381 -3.1691,2.4909 -5.8441,0.9282 -31.0094,-18.1162 -67.1933,-3.5828 -77.124,30.9568 -0.8239,2.8657 -2.1041,4.005 -4.9992,4.429 -13.4726,1.9733 -24.3721,8.5574 -32.8322,19.1542 -6.5269,8.1753 -7.232,16.0497 -1.5265,24.8556 2.7794,4.2897 6.7632,7.7991 10.2018,11.6617 0.5134,-0.3097 1.0267,-0.6194 1.5401,-0.9292 0.162,-1.0346 0.4759,-2.0711 0.4626,-3.1034 -0.1345,-10.4683 4.3959,-18.4476 13.4944,-23.3201 9.337,-5.0002 18.6724,-4.0284 27.3395,2.067 10.0169,7.0447 16.2284,16.5633 18.0749,28.7528 1.8354,12.116 -5.6263,23.5058 -17.446,26.7233 -1.8972,0.5164 -3.8372,0.8759 -6.0743,1.3793 0.7745,4.6413 4.0001,6.973 7.5069,8.787 0.7779,0.4025 2.7903,-0.6391 3.6883,-1.5526 12.9596,-13.1828 26.0039,-26.2897 38.6693,-39.7523 15.7349,-16.7254 19.6641,-42.5723 10.1019,-63.3893 -0.5258,-1.1447 -0.9728,-2.3255 -1.4969,-3.5867 7.2894,0.3945 14.1779,0.7672 20.5431,1.1117 -1.0149,4.2361 -2.91,8.7728 -3.0446,13.3612 -0.3569,12.1693 9.9786,21.3298 22.1202,20.3148 16.9066,-1.4135 29.9872,-13.4134 33.0691,-30.3236 0.1464,-0.8034 0.3927,-1.5886 0.5924,-2.3823 0.5341,0.0666 1.0682,0.1331 1.6023,0.1997 -0.6064,5.4554 -0.6322,11.0593 -1.9785,16.3255 -1.4133,5.5284 -4.0921,10.7334 -6.5075,16.8082 26.5891,5.8681 52.5861,8.8592 76.9553,-7.6249 -4.8976,6.3074 -11.1259,11.2804 -18.5552,13.7955 -7.9435,2.6892 -16.3218,4.5171 -24.6554,5.5463 -19.6299,2.4242 -39.6005,1.6503 -58.9723,6.7006 -31.7308,8.2723 -58.1661,25.0228 -79.9542,49.3182 -4.4024,4.909 -8.4799,10.1093 -12.4516,14.8688 -6.4114,-7.4464 -12.7165,-14.7694 -19.0824,-22.163 6.6898,1.4943 13.3299,1.3032 19.6629,-2.091 9.1089,-4.8819 13.2039,-14.395 9.6274,-24.1012 -4.518,-12.2614 -12.9481,-20.8006 -25.6256,-24.7024 -8.5369,-2.6274 -16.6502,1.3629 -19.6847,9.7831 -3.6287,10.0683 -2.2153,19.6467 3.2612,28.9379 z" />
      <path
         inkscape:connector-curvature="0"
         id="path8"
         d="m 148.967,453.901 c 10.544,-27.0048 7.7139,-52.2214 -10.1003,-74.9269 -5.9615,-7.5984 -13.8728,-13.8959 -21.6391,-19.8078 -26.3001,-20.02 -35.01,-46.6315 -30.6721,-78.483 0.1944,-1.4275 0.3211,-2.8642 0.4937,-4.4268 -10.4627,13.1368 -20.7346,26.0342 -31.0066,38.9316 -0.5857,-0.4402 -1.1715,-0.8806 -1.7572,-1.3208 1.735,-2.3708 3.4518,-4.7551 5.2079,-7.1101 11.6589,-15.6346 17.1321,-33.9734 23.4383,-52.0685 5.9195,-16.9853 13.3294,-33.4257 26.5973,-46.3362 0.8332,-0.8107 1.7278,-1.5612 2.6259,-2.3008 0.3573,-0.2942 0.802,-0.4823 1.7113,-0.3377 -1.6688,2.1236 -3.6843,4.0634 -4.9297,6.4116 -2.1639,4.0801 -4.4323,8.2575 -5.6131,12.6732 -2.1414,8.008 4.6197,14.3277 12.553,11.7544 3.5013,-1.1357 6.7572,-3.4122 9.7447,-5.6727 7.7449,-5.86 15.279,-11.9986 22.8973,-18.026 0.2548,0.3303 0.5097,0.6606 0.7645,0.991 -2.9319,3.137 -5.8545,6.2828 -8.7974,9.4095 -16.2761,17.2923 -27.0268,37.5357 -31.1349,60.9151 -3.4627,19.7066 2.7395,37.0955 14.6952,52.7498 7.4632,9.772 15.6675,19.1523 21.8293,29.7066 11.6309,19.9224 16.7403,41.6061 12.5696,64.7846 -1.4728,8.1852 -4.5441,15.8151 -9.4776,22.4899 z" />
      <path
         inkscape:connector-curvature="0"
         id="path10"
         d="m 365.0551,100.2444 c 12.4542,11.6656 19.8356,25.9888 22.6573,42.7585 3.2959,19.5875 -1.8723,37.2199 -11.9931,53.8077 -2.8558,4.6805 -5.6791,9.4108 -8.0888,14.3282 -8.0989,16.5274 -3.0294,34.0891 12.496,43.9803 1.1959,0.7619 2.3864,1.5322 4.7958,3.0801 -10.1866,0.7968 -17.9682,-1.4843 -24.7757,-7.0659 -6.7529,-5.5368 -10.0424,-13.0484 -11.4977,-22.2586 -18.2146,7.1044 -30.5459,19.0142 -36.9752,36.6866 -6.4,17.592 -4.229,34.6203 4.9865,51.3715 -10.8816,-8.0192 -18.1743,-27.1438 -17.0258,-42.6486 1.0186,-13.7514 7.1274,-25.4976 15.6074,-35.5498 10.5839,-12.5463 22.1949,-24.323 34.1577,-35.5875 19.2241,-18.102 29.2813,-39.696 27.5872,-66.239 -0.8396,-13.1537 -5.2324,-25.2813 -11.9316,-36.6635 z" />
      <path
         inkscape:connector-curvature="0"
         id="path12"
         d="m 148.6647,285.2076 c 8.5316,4.8154 15.1948,10.7714 17.6042,19.4094 2.6509,9.5035 3.8502,19.4868 4.8798,29.3448 0.8788,8.4138 0.51,16.9514 0.9053,25.4243 0.2654,5.6889 2.1688,10.5332 8.4119,12.1277 5.6954,1.4547 9.3702,-0.4966 13.8831,-7.1173 8.6318,4.0044 14.7489,17.4434 11.5217,28.7581 -3.9999,14.0241 -9.4146,27.6428 -14.1595,41.4568 -3.2288,9.4003 -7.3033,18.6373 -9.3232,28.2979 -3.6303,17.3617 -1.3094,34.4263 5.8672,50.7359 0.6701,1.5229 1.3656,3.0345 2.0494,4.5514 -0.3909,0.2299 -0.7818,0.4598 -1.1727,0.6898 -3.2136,-5.8938 -6.9403,-11.5698 -9.5502,-17.7197 -10.2617,-24.181 -10.3197,-48.5491 -0.3428,-72.8893 5.0496,-12.3195 5.9165,-24.7939 1.6365,-37.5291 -1.1827,-3.519 -2.65,-5.6548 -7.1163,-6.0731 -12.1563,-1.1387 -20.9058,-15.008 -18.122,-28.6043 1.6658,-8.1357 4.4514,-16.0356 6.4871,-24.1036 4.3971,-17.4269 0.7467,-32.6148 -12.9168,-44.8901 -0.1963,-0.1766 -0.1828,-0.5864 -0.5427,-1.8696 z" />
      <path
         inkscape:connector-curvature="0"
         id="path14"
         d="m 171.3212,173.0889 c 14.7803,-2.3182 28.5064,6.6701 33.4853,17.9732 6.5618,14.8963 0.188,35.4051 -14.4223,45.5875 1.3792,-4.9642 2.8155,-10.1342 4.2519,-15.3041 -0.4747,-0.2305 -0.9494,-0.4611 -1.4241,-0.6916 -0.9144,0.5378 -1.8285,1.0761 -2.7433,1.6132 -6.1417,3.6059 -12.0116,7.8189 -18.4726,10.712 -27.8009,12.4491 -44.4488,39.331 -41.8874,69.5928 0.5578,6.5897 3.3421,12.991 5.0991,19.472 -4.244,-4.0808 -7.2227,-9.154 -8.2665,-15.1206 -6.3649,-36.3858 4.9986,-66.2012 33.7193,-89.3138 2.2407,-1.8032 5.5638,-2.8697 8.4814,-3.1142 10.5141,-0.8813 18.8783,-8.194 20.1127,-18.2025 1.2502,-10.1364 -4.8183,-18.9713 -15.2514,-22.2188 -0.7073,-0.2201 -1.3933,-0.5092 -2.6821,-0.9851 z" />
      <path
         inkscape:connector-curvature="0"
         id="path16"
         d="m 295.123,229.8739 c 3.6652,12.1559 1.4397,23.5978 -4.2407,34.256 -8.1412,15.2754 -21.0418,26.4068 -33.7821,37.7129 -8.5668,7.6025 -16.8338,15.6544 -24.3586,24.2705 -3.5425,4.0563 -6.2477,9.6953 -7.1929,14.9985 -2.2546,12.6496 2.4317,19.1633 15.3958,24.0275 -6.184,2.8554 -19.1478,-5.5461 -21.3764,-14.8721 -3.0583,-12.7977 0.004,-24.5779 6.3463,-35.4523 8.1964,-14.0536 20.4212,-24.3258 33.3259,-34.0151 9.1426,-6.8646 17.8098,-14.4939 25.9324,-22.5453 6.9801,-6.919 10.0193,-15.971 9.7231,-25.9561 -0.024,-0.8053 0.1468,-1.6163 0.2272,-2.4245 z" />
      <path
         inkscape:connector-curvature="0"
         id="path18"
         d="m 122.8508,90.7269 c -3.5936,4.606 -7.999,10.2974 -12.4676,15.9389 -0.8029,1.0137 -1.7114,2.1794 -2.8347,2.6648 -6.5459,2.8289 -13.251,5.0747 -20.9776,4.3805 4.7661,-6.7232 9.268,-13.1715 13.9179,-19.5112 0.5924,-0.8078 1.9199,-1.3792 2.9708,-1.499 6.9845,-0.7959 13.9864,-1.4389 19.3912,-1.974 z" />
    </g>
  </g>
</svg>
