<?xml version="1.0" encoding="UTF-8" standalone="no"?>
<!-- Created with Inkscape (http://www.inkscape.org/) -->

<svg
   xmlns:dc="http://purl.org/dc/elements/1.1/"
   xmlns:cc="http://creativecommons.org/ns#"
   xmlns:rdf="http://www.w3.org/1999/02/22-rdf-syntax-ns#"
   xmlns:svg="http://www.w3.org/2000/svg"
   xmlns="http://www.w3.org/2000/svg"
   xmlns:xlink="http://www.w3.org/1999/xlink"
   xmlns:sodipodi="http://sodipodi.sourceforge.net/DTD/sodipodi-0.dtd"
   xmlns:inkscape="http://www.inkscape.org/namespaces/inkscape"
   id="svg2"
   version="1.1"
   inkscape:version="0.48.5 r10040"
   width="96"
   height="96"
   sodipodi:docname="Favorite_icon.svg"
   inkscape:export-filename="/home/ilnanny/Scrivania/Favorite_icon_16.png"
   inkscape:export-xdpi="15"
   inkscape:export-ydpi="15">
  <metadata
     id="metadata8">
    <rdf:RDF>
      <cc:Work
         rdf:about="">
        <dc:format>image/svg+xml</dc:format>
        <dc:type
           rdf:resource="http://purl.org/dc/dcmitype/StillImage" />
        <dc:title></dc:title>
      </cc:Work>
    </rdf:RDF>
  </metadata>
  <defs
     id="defs6">
    <linearGradient
       inkscape:collect="always"
       id="linearGradient4077">
      <stop
         style="stop-color:#ffffff;stop-opacity:1;"
         offset="0"
         id="stop4079" />
      <stop
         style="stop-color:#ffffff;stop-opacity:0;"
         offset="1"
         id="stop4081" />
    </linearGradient>
    <linearGradient
       id="linearGradient4064">
      <stop
         style="stop-color:#fffd2d;stop-opacity:1;"
         offset="0"
         id="stop4066" />
      <stop
         style="stop-color:#f0a400;stop-opacity:1;"
         offset="1"
         id="stop4068" />
    </linearGradient>
    <linearGradient
       id="linearGradient4028">
      <stop
         style="stop-color:#000000;stop-opacity:0.11764706;"
         offset="0"
         id="stop4030" />
      <stop
         id="stop4044"
         offset="0.04923049"
         style="stop-color:#000000;stop-opacity:0.96862745;" />
      <stop
         id="stop4042"
         offset="0.10445448"
         style="stop-color:#000000;stop-opacity:0;" />
      <stop
         id="stop4040"
         offset="0.49959356"
         style="stop-color:#000000;stop-opacity:0;" />
      <stop
         id="stop4038"
         offset="0.89729768"
         style="stop-color:#000000;stop-opacity:0;" />
      <stop
         id="stop4036"
         offset="0.95850253"
         style="stop-color:#000000;stop-opacity:1;" />
      <stop
         style="stop-color:#000000;stop-opacity:0.11764706;"
         offset="1"
         id="stop4032" />
    </linearGradient>
    <linearGradient
       inkscape:collect="always"
       xlink:href="#linearGradient4028"
       id="linearGradient4034"
       x1="1.5"
       y1="86.5625"
       x2="94.5"
       y2="86.5625"
       gradientUnits="userSpaceOnUse" />
    <radialGradient
       inkscape:collect="always"
       xlink:href="#linearGradient4064"
       id="radialGradient4070"
       cx="23.410599"
       cy="64.478289"
       fx="23.410599"
       fy="64.478289"
       r="59.827635"
       gradientTransform="matrix(1,0,0,0.95207912,0,3.0898565)"
       gradientUnits="userSpaceOnUse" />
    <radialGradient
       inkscape:collect="always"
       xlink:href="#linearGradient4077"
       id="radialGradient4083"
       cx="48.005662"
       cy="80.626234"
       fx="48.005662"
       fy="80.626234"
       r="43.267803"
       gradientTransform="matrix(1,0,0,0.02093398,0,78.938406)"
       gradientUnits="userSpaceOnUse" />
    <radialGradient
       inkscape:collect="always"
       xlink:href="#linearGradient4077"
       id="radialGradient4087"
       gradientUnits="userSpaceOnUse"
       gradientTransform="matrix(1,0,0,0.02093398,0,0.938406)"
       cx="48.005662"
       cy="80.626234"
       fx="48.005662"
       fy="80.626234"
       r="43.267803" />
    <radialGradient
       inkscape:collect="always"
       xlink:href="#linearGradient4077"
       id="radialGradient4091"
       gradientUnits="userSpaceOnUse"
       gradientTransform="matrix(0.88405797,0,0,0.02093398,0.28356959,-5.6955948)"
       cx="48.005662"
       cy="80.626234"
       fx="48.005662"
       fy="80.626234"
       r="43.267803" />
    <filter
       inkscape:collect="always"
       id="filter4109"
       x="-0.77815375"
       width="2.5563075"
       y="-0.01842623"
       height="1.0368525">
      <feGaussianBlur
         inkscape:collect="always"
         stdDeviation="0.58735516"
         id="feGaussianBlur4111" />
    </filter>
    <radialGradient
       inkscape:collect="always"
       xlink:href="#linearGradient4077"
       id="radialGradient4115"
       gradientUnits="userSpaceOnUse"
       gradientTransform="matrix(0.88405797,0,0,0.02093398,0.28356959,-5.6955948)"
       cx="48.005662"
       cy="80.626234"
       fx="48.005662"
       fy="80.626234"
       r="43.267803" />
  </defs>
  <sodipodi:namedview
     pagecolor="#ffffff"
     bordercolor="#666666"
     borderopacity="1"
     objecttolerance="1"
     gridtolerance="1"
     guidetolerance="1"
     inkscape:pageopacity="0"
     inkscape:pageshadow="2"
     inkscape:window-width="1280"
     inkscape:window-height="966"
     id="namedview4"
     showgrid="false"
     inkscape:showpageshadow="false"
     showguides="true"
     inkscape:guide-bbox="true"
     inkscape:zoom="1.7940591"
     inkscape:cx="49.988168"
     inkscape:cy="47.805689"
     inkscape:window-x="0"
     inkscape:window-y="0"
     inkscape:window-maximized="1"
     inkscape:current-layer="svg2">
    <inkscape:grid
       type="xygrid"
       id="grid3241"
       empspacing="8"
       visible="true"
       enabled="true"
       snapvisiblegridlinesonly="true"
       empcolor="#000000"
       empopacity="1" />
  </sodipodi:namedview>
  <rect
     style="opacity:0.15;fill:#000000;fill-opacity:1;stroke:none"
     id="rect4011"
     width="96"
     height="96"
     x="0"
     y="0"
     rx="3.9821889"
     ry="4.0053415" />
  <rect
     ry="3.9427581"
     rx="3.9199672"
     y="0.75"
     x="0.75"
     height="94.5"
     width="94.5"
     id="rect4013"
     style="opacity:0.15;fill:#000000;fill-opacity:1;stroke:none" />
  <rect
     style="opacity:0.15;fill:#000000;fill-opacity:1;stroke:none"
     id="rect4015"
     width="93"
     height="93"
     x="1.5"
     y="1.5"
     rx="3.8577454"
     ry="3.8801746" />
  <rect
     ry="3.8801746"
     rx="3.8577454"
     y="1.5"
     x="1.5"
     height="93"
     width="93"
     id="rect4017"
     style="opacity:1;fill:#ff6600;fill-opacity:1;stroke:none" />
  <path
     style="opacity:0.6;fill:#000000;fill-opacity:1;stroke:none"
     d="M 1.5 78.625 L 1.5 90.625 C 1.5 92.774617 3.206559 94.5 5.34375 94.5 L 90.65625 94.5 C 92.793441 94.5 94.5 92.774617 94.5 90.625 L 94.5 78.625 C 94.5 80.774617 92.793441 82.5 90.65625 82.5 L 5.34375 82.5 C 3.206559 82.5 1.5 80.774617 1.5 78.625 z "
     id="rect4019" />
  <path
     id="path4026"
     d="M 1.5 78.625 L 1.5 90.625 C 1.5 92.774617 3.206559 94.5 5.34375 94.5 L 90.65625 94.5 C 92.793441 94.5 94.5 92.774617 94.5 90.625 L 94.5 78.625 C 94.5 80.774617 92.793441 82.5 90.65625 82.5 L 5.34375 82.5 C 3.206559 82.5 1.5 80.774617 1.5 78.625 z "
     style="opacity:0.90000000000000002;fill:url(#linearGradient4034);fill-opacity:1;stroke:none" />
  <rect
     style="opacity:0.8;fill:none;stroke:#000000;stroke-width:2.50000000000000000;stroke-linecap:round;stroke-miterlimit:4;stroke-opacity:1;stroke-dasharray:none;stroke-linejoin:round"
     id="rect4046"
     width="79.838768"
     height="70.786331"
     x="8.080616"
     y="6.8425541"
     rx="4.7227855"
     ry="4.2116437" />
  <rect
     ry="4.2116437"
     rx="4.7227855"
     y="6.8425541"
     x="8.080616"
     height="70.786331"
     width="79.838768"
     id="rect4048"
     style="opacity:0.5;fill:#000000;stroke:#000000;stroke-width:2.50000000000000000;stroke-linecap:round;stroke-miterlimit:4;stroke-opacity:1;stroke-dasharray:none;stroke-linejoin:round;fill-opacity:1" />
  <path
     sodipodi:type="star"
     style="opacity:0.2;fill:#000000;fill-opacity:1;stroke:#000000;stroke-width:2.50000000000000000;stroke-linecap:round;stroke-linejoin:round;stroke-miterlimit:4;stroke-opacity:1;stroke-dasharray:none;stroke-dashoffset:0"
     id="path4050"
     sodipodi:sides="5"
     sodipodi:cx="23.410599"
     sodipodi:cy="70.359818"
     sodipodi:r1="61.592171"
     sodipodi:r2="29.739878"
     sodipodi:arg1="-1.5707963"
     sodipodi:arg2="-0.91521832"
     inkscape:flatsided="false"
     inkscape:rounded="0"
     inkscape:randomized="0"
     d="M 23.4106,8.7676468 41.54055,46.785144 81.988235,51.326792 51.433908,80.317451 59.613567,120.18893 22.600006,100.08865 -12.792372,120.18893 -5.1136847,78.775611 -35.167036,51.326788 6.5922152,45.832235 z"
     inkscape:transform-center-y="-2.8464809"
     transform="matrix(0.51904776,0,0,0.48396958,35.848781,11.728589)" />
  <path
     style="opacity:0.4;fill:#ffffff;fill-opacity:1;stroke:none"
     d="m 45.70025,12.4685 1.03125,2.28125 -6.4375,13.65625 -2.21875,0.25 7.625,-16.1875 z M 22.6065,33.9685 35.169,45.99975 30.919,66.906 50.1065,56.3435 63.20025,63.87475 64.4815,70.906 46.1065,60.3435 26.919,70.906 31.169,49.99975 15.294,34.781 22.6065,33.9685 z m 53.21875,0.78125 0.28125,0.03125 -11.53125,10.65625 -0.0625,-0.25 11.3125,-10.4375 z"
     id="path4052"
     inkscape:connector-curvature="0" />
  <path
     sodipodi:type="star"
     style="opacity:1;fill:url(#radialGradient4070);fill-opacity:1;stroke:#f0e200;stroke-width:2.50000000000000000;stroke-linecap:round;stroke-linejoin:round;stroke-miterlimit:4;stroke-opacity:1;stroke-dasharray:none;stroke-dashoffset:0"
     id="path4054"
     sodipodi:sides="5"
     sodipodi:cx="23.410599"
     sodipodi:cy="70.359818"
     sodipodi:r1="61.592171"
     sodipodi:r2="29.739878"
     sodipodi:arg1="-1.5707963"
     sodipodi:arg2="-0.91521832"
     inkscape:flatsided="false"
     inkscape:rounded="0"
     inkscape:randomized="0"
     d="M 23.4106,8.7676468 41.54055,46.785144 81.988235,51.326792 51.433908,80.317451 59.613567,120.18893 22.600006,100.08865 -12.792372,120.18893 -5.1136847,78.775611 -35.167036,51.326788 6.5922152,45.832235 z"
     inkscape:transform-center-y="-3.0835132"
     transform="matrix(0.51904776,0,0,0.52427074,35.848781,6.8848358)" />
  <path
     style="fill:#000000;fill-opacity:1;stroke:none;stroke-width:1.30413175000000003;stroke-linecap:round;stroke-linejoin:round;stroke-miterlimit:4;stroke-opacity:1;stroke-dasharray:none;stroke-dashoffset:0;opacity:0.4"
     d="M 48 11.46875 L 47.03125 13.65625 L 55.40625 31.40625 L 76.40625 33.78125 L 60.53125 49 L 64.53125 68.65625 L 66.78125 69.90625 L 62.53125 49 L 78.40625 33.78125 L 57.40625 31.40625 L 48 11.46875 z M 45.59375 59.34375 L 29.46875 68.625 L 29.21875 69.90625 L 46.625 59.90625 L 45.59375 59.34375 z "
     id="path4059" />
  <path
     style="opacity:0.3;fill:#ffffff;fill-opacity:1;stroke:none"
     d="m 17.139903,5.7277636 67.097102,0 c 2.657632,0 4.797169,1.9298229 4.797169,4.3269574 l 0,64.070524 c 0,2.397134 -2.836281,4.466305 -4.797169,4.326956 -11.509269,0.217741 -21.285045,0.05909 -29.587996,0.06136 C 17.15533,5.3498449 54.607665,78.74147 17.139903,5.7277636 z"
     id="rect4072"
     inkscape:connector-curvature="0"
     sodipodi:nodetypes="csssccc" />
  <rect
     style="opacity:0.9;fill:url(#radialGradient4083);fill-opacity:1;stroke:none"
     id="rect4075"
     width="86.535606"
     height="1.8115345"
     x="4.7378592"
     y="79.720467" />
  <rect
     y="1.7204666"
     x="4.7378592"
     height="1.8115345"
     width="86.535606"
     id="rect4085"
     style="fill:url(#radialGradient4087);fill-opacity:1;stroke:none;opacity:0.8" />
  <rect
     y="-4.9135346"
     x="4.4721107"
     height="1.8115345"
     width="76.502487"
     id="rect4089"
     style="opacity:0.90000000000000002;fill:url(#radialGradient4091);fill-opacity:1;stroke:none;filter:url(#filter4109)"
     transform="matrix(0,1,-1,0,0,0)" />
  <rect
     transform="matrix(0,1,-1,0,88,0)"
     style="opacity:0.9;fill:url(#radialGradient4115);fill-opacity:1;stroke:none;filter:url(#filter4109)"
     id="rect4113"
     width="76.502487"
     height="1.8115345"
     x="4.4721107"
     y="-4.9135346" />
</svg>
