<?xml version="1.0" encoding="UTF-8" standalone="no"?>
<!-- Created with Inkscape (http://www.inkscape.org/) -->

<svg
   xmlns:dc="http://purl.org/dc/elements/1.1/"
   xmlns:cc="http://creativecommons.org/ns#"
   xmlns:rdf="http://www.w3.org/1999/02/22-rdf-syntax-ns#"
   xmlns:svg="http://www.w3.org/2000/svg"
   xmlns="http://www.w3.org/2000/svg"
   xmlns:xlink="http://www.w3.org/1999/xlink"
   xmlns:sodipodi="http://sodipodi.sourceforge.net/DTD/sodipodi-0.dtd"
   xmlns:inkscape="http://www.inkscape.org/namespaces/inkscape"
   width="256"
   height="256"
   viewBox="0 0 256 256.00001"
   id="svg2"
   version="1.1"
   inkscape:version="0.92.1 r"
   sodipodi:docname="lupo-1.svg">
  <defs
     id="defs4">
    <pattern
       inkscape:collect="always"
       xlink:href="#pattern6493"
       id="pattern6497"
       patternTransform="matrix(0.08740985,-0.12551733,0.68838741,0.47939068,-276.31188,1087.0325)" />
    <pattern
       inkscape:collect="always"
       xlink:href="#pattern6486"
       id="pattern6493"
       patternTransform="matrix(0.08740985,-0.12551733,0.68838741,0.47939068,-20.311876,1087.0325)" />
    <pattern
       inkscape:collect="always"
       xlink:href="#Wavy"
       id="pattern6489"
       patternTransform="translate(0,-796.36218)" />
    <pattern
       inkscape:stockid="Wavy"
       id="Wavy"
       height="5.1805778"
       width="30.066020"
       patternUnits="userSpaceOnUse"
       inkscape:collect="always">
      <path
         id="path6391"
         d="M 7.597,0.061 C 5.079,-0.187 2.656,0.302 -0.01,1.788 L -0.01,3.061 C 2.773,1.431 5.173,1.052 7.472,1.280 C 9.770,1.508 11.969,2.361 14.253,3.218 C 18.820,4.931 23.804,6.676 30.066,3.061 L 30.062,1.788 C 23.622,5.497 19.246,3.770 14.691,2.061 C 12.413,1.207 10.115,0.311 7.597,0.061 z "
         style="fill:black;stroke:none;" />
    </pattern>
    <pattern
       patternUnits="userSpaceOnUse"
       width="256"
       height="256"
       patternTransform="translate(0,796.36218)"
       id="pattern6486">
      <rect
         style="opacity:0.24899998;fill:url(#pattern6489);fill-opacity:1;stroke:none;stroke-width:0.45087391;stroke-linecap:round;stroke-linejoin:bevel;stroke-miterlimit:4;stroke-dasharray:none;stroke-opacity:1"
         id="rect5045"
         width="256"
         height="256"
         x="0"
         y="0" />
    </pattern>
  </defs>
  <sodipodi:namedview
     id="base"
     pagecolor="#ffffff"
     bordercolor="#666666"
     borderopacity="1.0"
     inkscape:pageopacity="0.0"
     inkscape:pageshadow="2"
     inkscape:zoom="1.4492717"
     inkscape:cx="103.49905"
     inkscape:cy="98.031964"
     inkscape:document-units="px"
     inkscape:current-layer="layer1"
     showgrid="false"
     units="px"
     inkscape:showpageshadow="false"
     inkscape:window-width="1280"
     inkscape:window-height="975"
     inkscape:window-x="0"
     inkscape:window-y="23"
     inkscape:window-maximized="1" />
  <metadata
     id="metadata7">
    <rdf:RDF>
      <cc:Work
         rdf:about="">
        <dc:format>image/svg+xml</dc:format>
        <dc:type
           rdf:resource="http://purl.org/dc/dcmitype/StillImage" />
        <dc:title></dc:title>
        <cc:license
           rdf:resource="http://creativecommons.org/licenses/by-sa/4.0/" />
        <dc:date>2017</dc:date>
        <dc:creator>
          <cc:Agent>
            <dc:title>Cristian Pozzessere  &lt; ilnanny &gt;</dc:title>
          </cc:Agent>
        </dc:creator>
        <dc:subject>
          <rdf:Bag>
            <rdf:li>ilnanny</rdf:li>
          </rdf:Bag>
        </dc:subject>
      </cc:Work>
      <cc:License
         rdf:about="http://creativecommons.org/licenses/by-sa/4.0/">
        <cc:permits
           rdf:resource="http://creativecommons.org/ns#Reproduction" />
        <cc:permits
           rdf:resource="http://creativecommons.org/ns#Distribution" />
        <cc:requires
           rdf:resource="http://creativecommons.org/ns#Notice" />
        <cc:requires
           rdf:resource="http://creativecommons.org/ns#Attribution" />
        <cc:permits
           rdf:resource="http://creativecommons.org/ns#DerivativeWorks" />
        <cc:requires
           rdf:resource="http://creativecommons.org/ns#ShareAlike" />
      </cc:License>
    </rdf:RDF>
  </metadata>
  <g
     inkscape:label="Livello 1"
     inkscape:groupmode="layer"
     id="layer1"
     transform="translate(0,-796.36218)">
    <rect
       style="opacity:1;fill:#a2992f;fill-opacity:1;stroke:none;stroke-width:0.45087391;stroke-linecap:round;stroke-linejoin:bevel;stroke-miterlimit:4;stroke-dasharray:none;stroke-opacity:1"
       id="rect4819"
       width="256"
       height="256"
       x="0"
       y="796.36218" />
    <rect
       style="fill:url(#pattern6493);stroke:none"
       width="256"
       height="256"
       x="0"
       y="796.36218"
       id="rect6491" />
    <rect
       id="rect6495"
       y="796.36218"
       x="-256"
       height="256"
       width="256"
       style="fill:url(#pattern6497);stroke:none"
       transform="scale(-1,1)" />
    <g
       aria-label="@ilnanny"
       style="font-style:normal;font-variant:normal;font-weight:normal;font-stretch:normal;font-size:14.18806267px;line-height:125%;font-family:Satellite;-inkscape-font-specification:Satellite;letter-spacing:0px;word-spacing:0px;fill:#0e232e;fill-opacity:1;stroke:none;stroke-width:0.35470158px;stroke-linecap:butt;stroke-linejoin:miter;stroke-opacity:1"
       id="text6888">
      <path
         d="m 211.57814,1042.4169 c 0.25539,0.5959 0.68103,0.9364 1.22018,1.0783 0.31213,-0.4541 0.48239,-1.1635 0.48239,-1.6742 0,-1.7594 -1.43299,-3.1782 -3.19231,-3.1782 -1.75932,0 -3.17813,1.4188 -3.17813,3.1782 0,1.7735 1.41881,3.1781 3.17813,3.1781 0.96479,0 1.71675,-0.3122 2.38359,-1.1351 -0.17026,-0.071 -0.26957,-0.099 -0.42564,-0.1844 -0.53915,0.6668 -1.16342,0.8938 -1.95795,0.8938 -1.51813,0 -2.75249,-1.2343 -2.75249,-2.7524 0,-1.504 1.24855,-2.7525 2.75249,-2.7525 1.51812,0 2.76667,1.2485 2.76667,2.7525 0,0.4398 -0.12769,0.8938 -0.36889,1.3194 -0.52496,-0.2695 -0.80872,-0.7803 -0.80872,-1.3194 v -1.5891 h -0.21282 v 0.7945 c -0.41145,-0.5391 -0.87966,-0.7945 -1.37624,-0.7945 -0.89385,0 -1.58907,0.7236 -1.58907,1.5891 0,0.8796 0.70941,1.589 1.58907,1.589 0.75196,0 1.20598,-0.4114 1.48974,-0.9931 z m -0.19863,-0.5959 c 0,0.7094 -0.58171,1.2911 -1.29111,1.2911 -0.70941,0 -1.29112,-0.5817 -1.29112,-1.2911 0,-0.6953 0.58171,-1.277 1.29112,-1.277 0.7094,0 1.29111,0.5817 1.29111,1.277 z"
         style="fill:#0e232e;stroke-width:0.35470158px"
         id="path6894" />
      <path
         d="m 215.47122,1038.8131 c 0.18444,0 0.3547,-0.1561 0.3547,-0.3689 0,-0.1986 -0.15607,-0.3547 -0.3547,-0.3547 -0.21283,0 -0.36889,0.1419 -0.36889,0.3547 0,0.2128 0.15606,0.3689 0.36889,0.3689 z m 0.19863,8.5128 v -6.342 h -0.42564 v 6.342 z"
         style="fill:#0e232e;stroke-width:0.35470158px"
         id="path6896" />
      <path
         d="m 218.3525,1047.3259 v -11.2085 h -0.42564 v 11.2085 z"
         style="fill:#0e232e;stroke-width:0.35470158px"
         id="path6898" />
      <path
         d="m 225.38069,1047.3259 v -4.1145 c 0,-1.3195 -0.96479,-2.0998 -2.08565,-2.0998 -0.59589,0 -1.63162,0.2128 -2.09983,0.8229 v -0.7946 h -0.41145 v 6.186 h 0.41145 v -4.3273 c 0,-0.9223 1.17761,-1.4756 2.09983,-1.4756 0.89385,0 1.6742,0.752 1.6742,1.6884 v 4.1145 z"
         style="fill:#0e232e;stroke-width:0.35470158px"
         id="path6900" />
      <path
         d="m 230.11463,1041.4237 c 1.48974,0 2.65316,1.2627 2.65316,2.7667 0,1.5181 -1.16342,2.7666 -2.65316,2.7666 -1.53231,0 -2.65317,-1.2769 -2.65317,-2.7666 0,-1.4898 1.12086,-2.7667 2.65317,-2.7667 z m 3.10718,5.9022 v -6.2711 h -0.42564 v 1.5607 c -0.68103,-1.0357 -1.61744,-1.6174 -2.68154,-1.6174 -1.77351,0 -3.07881,1.4471 -3.07881,3.1923 0,1.7451 1.3053,3.1923 3.07881,3.1923 1.0641,0 2.00051,-0.5817 2.68154,-1.6175 v 1.5607 z"
         style="fill:#0e232e;stroke-width:0.35470158px"
         id="path6902" />
      <path
         d="m 240.26153,1047.3259 v -4.1145 c 0,-1.3195 -0.96479,-2.0998 -2.08565,-2.0998 -0.59589,0 -1.63162,0.2128 -2.09983,0.8229 v -0.7946 h -0.41145 v 6.186 h 0.41145 v -4.3273 c 0,-0.9223 1.17761,-1.4756 2.09983,-1.4756 0.89385,0 1.6742,0.752 1.6742,1.6884 v 4.1145 z"
         style="fill:#0e232e;stroke-width:0.35470158px"
         id="path6904" />
      <path
         d="m 246.96761,1047.3259 v -4.1145 c 0,-1.3195 -0.96479,-2.0998 -2.08565,-2.0998 -0.5959,0 -1.63163,0.2128 -2.09983,0.8229 v -0.7946 h -0.41146 v 6.186 h 0.41146 v -4.3273 c 0,-0.9223 1.17761,-1.4756 2.09983,-1.4756 0.89385,0 1.67419,0.752 1.67419,1.6884 v 4.1145 z"
         style="fill:#0e232e;stroke-width:0.35470158px"
         id="path6906" />
      <path
         d="m 249.27538,1040.9697 h -0.51077 l 2.48291,6.4272 -1.03573,2.9653 h 0.51077 l 3.27745,-9.3925 h -0.52496 l -2.00052,5.7745 z"
         style="fill:#0e232e;stroke-width:0.35470158px"
         id="path6908" />
    </g>
    <g
       style="fill:none;fill-opacity:1;stroke:#111006;stroke-width:3.43510224;stroke-miterlimit:4;stroke-dasharray:none;stroke-opacity:1;opacity:0.231"
       id="g1913"
       transform="matrix(1.1644486,0,0,-1.1644486,-293.19178,1327.5333)">
      <path
         inkscape:connector-curvature="0"
         id="path1807"
         style="fill:none;fill-opacity:1;fill-rule:nonzero;stroke:#111006;stroke-width:3.43510224;stroke-miterlimit:4;stroke-dasharray:none;stroke-opacity:1"
         d="m 348.6683,310.5054 13.03,-4.623 12.92,4.623 17.092,14.358 11.559,7.456 7.176,17.045 c 0.106,0.249 0.336,0.422 0.604,0.454 l 5.784,0.68 -3.442,14.754 c -0.057,0.242 0.01,0.496 0.179,0.679 0.168,0.182 0.415,0.268 0.662,0.233 l 6.465,-0.97 -8.046,19.142 c -0.035,0.083 -0.054,0.173 -0.058,0.264 l -1.42,40.005 -9.978,14.481 -21.942,-24.211 c -0.186,-0.207 -0.469,-0.294 -0.74,-0.224 l -6.949,1.761 -21.037,0.033 -5.598,-1.782 c -0.28,-0.088 -0.586,-0.007 -0.784,0.212 l -21.941,24.211 -9.978,-14.481 -1.419,-40.005 c -0.004,-0.091 -0.024,-0.181 -0.059,-0.264 l -8.047,-19.142 6.466,0.97 c 0.244,0.034 0.494,-0.051 0.662,-0.233 0.169,-0.183 0.236,-0.437 0.18,-0.679 l -3.444,-14.754 5.786,-0.68 c 0.267,-0.032 0.499,-0.205 0.603,-0.454 l 7.176,-17.044 11.483,-7.4 z m 13.031,-6.169 c -0.085,0 -0.17,0.014 -0.251,0.043 l -13.411,4.758 c -0.085,0.03 -0.164,0.075 -0.233,0.134 l -17.081,14.445 -11.601,7.469 c -0.127,0.082 -0.227,0.2 -0.285,0.339 l -7.096,16.855 -6.184,0.728 c -0.212,0.024 -0.404,0.138 -0.527,0.313 -0.122,0.175 -0.165,0.394 -0.116,0.602 l 3.383,14.494 -6.694,-1.004 c -0.265,-0.037 -0.537,0.068 -0.703,0.282 -0.167,0.214 -0.205,0.501 -0.099,0.751 l 8.51,20.245 1.422,40.087 c 0.006,0.143 0.052,0.281 0.133,0.399 l 10.641,15.441 c 0.13,0.189 0.339,0.308 0.567,0.323 0.23,0.015 0.452,-0.075 0.606,-0.245 l 22.254,-24.556 5.25,1.671 c 0.073,0.023 0.15,0.035 0.227,0.035 h 0.001 l 21.247,-0.033 c 0.062,0 0.123,-0.008 0.184,-0.023 l 6.601,-1.673 22.276,24.579 c 0.154,0.17 0.38,0.259 0.605,0.245 0.229,-0.015 0.438,-0.134 0.568,-0.323 l 10.639,-15.441 c 0.081,-0.118 0.127,-0.256 0.133,-0.399 l 1.423,-40.087 8.448,-20.1 c 0.088,-0.123 0.14,-0.273 0.14,-0.436 0,-0.414 -0.335,-0.75 -0.75,-0.75 -0.007,0.001 -0.014,0 -0.02,0 -0.037,0 -0.074,0.003 -0.111,0.008 l -6.692,1.004 3.381,-14.494 c 0.049,-0.208 0.006,-0.427 -0.117,-0.602 -0.122,-0.175 -0.313,-0.289 -0.525,-0.313 l -6.184,-0.728 -7.097,-16.855 c -0.058,-0.139 -0.158,-0.257 -0.285,-0.339 l -11.677,-7.526 -17.12,-14.389 c -0.068,-0.058 -0.145,-0.102 -0.229,-0.132 l -13.298,-4.758 c -0.082,-0.03 -0.167,-0.044 -0.253,-0.044" />
      <path
         inkscape:connector-curvature="0"
         id="path1809"
         style="fill:none;fill-opacity:1;fill-rule:nonzero;stroke:#111006;stroke-width:3.43510224;stroke-miterlimit:4;stroke-dasharray:none;stroke-opacity:1"
         d="m 372.7298,391.9214 c -0.043,0 -0.086,0.003 -0.13,0.011 l -10.892,1.894 -9.726,-1.891 c -0.377,-0.071 -0.745,0.147 -0.859,0.511 l -7.137,22.707 c -0.124,0.396 0.096,0.816 0.491,0.94 0.394,0.125 0.817,-0.094 0.941,-0.49 l 6.935,-22.068 9.203,1.79 c 0.092,0.017 0.183,0.018 0.273,0.003 l 10.35,-1.8 5.793,22.041 c 0.107,0.4 0.524,0.637 0.916,0.535 0.401,-0.106 0.641,-0.516 0.535,-0.916 l -5.968,-22.707 c -0.088,-0.335 -0.39,-0.56 -0.725,-0.56" />
      <path
         inkscape:connector-curvature="0"
         id="path1811"
         style="fill:none;fill-opacity:1;fill-rule:nonzero;stroke:#111006;stroke-width:3.43510224;stroke-miterlimit:4;stroke-dasharray:none;stroke-opacity:1"
         d="m 371.8206,356.3682 h -19.982 c -0.299,0 -0.57,0.178 -0.689,0.452 l -11.678,26.989 c -0.138,0.322 -0.037,0.696 0.246,0.903 l 11.677,8.564 c 0.335,0.246 0.804,0.173 1.048,-0.161 0.245,-0.334 0.173,-0.804 -0.161,-1.049 l -11.195,-8.21 11.245,-25.988 h 18.997 l 11.255,26.01 -10.322,8.206 c -0.324,0.258 -0.377,0.73 -0.12,1.054 0.258,0.324 0.732,0.377 1.054,0.12 l 10.771,-8.564 c 0.265,-0.211 0.356,-0.574 0.221,-0.885 l -11.678,-26.989 c -0.12,-0.274 -0.39,-0.452 -0.689,-0.452" />
      <path
         inkscape:connector-curvature="0"
         id="path1813"
         style="fill:none;fill-opacity:1;fill-rule:nonzero;stroke:#111006;stroke-width:3.43510224;stroke-miterlimit:4;stroke-dasharray:none;stroke-opacity:1"
         d="m 343.2083,313.3892 c -0.334,0 -0.64,0.226 -0.726,0.565 l -3.048,11.967 c -0.051,0.2 -0.018,0.412 0.092,0.586 l 8.614,13.628 2.959,17.111 c 0.071,0.408 0.467,0.681 0.867,0.611 0.408,-0.07 0.682,-0.459 0.611,-0.867 l -2.984,-17.258 c -0.017,-0.096 -0.053,-0.189 -0.106,-0.273 l -8.52,-13.481 2.969,-11.654 c 0.102,-0.401 -0.14,-0.809 -0.541,-0.912 -0.063,-0.016 -0.125,-0.023 -0.187,-0.023" />
      <path
         inkscape:connector-curvature="0"
         id="path1815"
         style="fill:none;fill-opacity:1;fill-rule:nonzero;stroke:#111006;stroke-width:3.43510224;stroke-miterlimit:4;stroke-dasharray:none;stroke-opacity:1"
         d="m 380.0833,313.2994 c -0.067,0 -0.136,0.009 -0.204,0.028 -0.398,0.113 -0.631,0.528 -0.518,0.927 l 3.326,11.734 -8.516,13.471 c -0.053,0.084 -0.089,0.176 -0.105,0.273 l -2.985,17.258 c -0.07,0.408 0.203,0.796 0.611,0.867 0.403,0.068 0.796,-0.203 0.868,-0.611 l 2.959,-17.111 8.614,-13.628 c 0.114,-0.18 0.145,-0.4 0.088,-0.606 l -3.416,-12.057 c -0.094,-0.33 -0.395,-0.545 -0.722,-0.545" />
      <path
         inkscape:connector-curvature="0"
         id="path1817"
         style="fill:none;fill-opacity:1;fill-rule:nonzero;stroke:#111006;stroke-width:3.43510224;stroke-miterlimit:4;stroke-dasharray:none;stroke-opacity:1"
         d="m 372.2103,325.7456 c -0.196,0 -0.391,0.077 -0.535,0.224 l -5.614,5.709 -4.431,0.416 -3.689,-0.325 -6.666,-5.465 c -0.247,-0.202 -0.594,-0.226 -0.866,-0.06 -0.272,0.167 -0.41,0.487 -0.343,0.799 l 3.742,17.286 -0.773,12.743 c -0.024,0.414 0.29,0.769 0.704,0.794 0.379,0.029 0.769,-0.289 0.794,-0.703 l 0.779,-12.846 c 0.003,-0.068 -0.002,-0.137 -0.016,-0.204 l -3.308,-15.285 5.181,4.248 c 0.117,0.096 0.26,0.154 0.41,0.167 l 3.795,0.334 c 0.063,0.017 0.128,0.026 0.195,0.026 h 0.13 c 0.071,0 0.139,-0.01 0.204,-0.028 l 4.571,-0.43 c 0.175,-0.016 0.34,-0.094 0.464,-0.22 l 4.096,-4.165 -2.806,15.377 c -0.011,0.059 -0.014,0.12 -0.011,0.18 l 0.778,12.846 c 0.025,0.413 0.412,0.722 0.794,0.703 0.414,-0.025 0.729,-0.38 0.704,-0.794 l -0.773,-12.755 3.228,-17.687 c 0.059,-0.324 -0.1,-0.649 -0.392,-0.8 -0.11,-0.058 -0.228,-0.085 -0.346,-0.085" />
      <path
         inkscape:connector-curvature="0"
         id="path1819"
         style="fill:none;fill-opacity:1;fill-rule:nonzero;stroke:#111006;stroke-width:3.43510224;stroke-miterlimit:4;stroke-dasharray:none;stroke-opacity:1"
         d="m 340.1595,325.3565 c -0.389,0 -0.718,0.301 -0.747,0.695 -0.03,0.413 0.28,0.773 0.693,0.803 l 10.64,0.778 c 0.413,0.027 0.772,-0.28 0.803,-0.693 0.03,-0.413 -0.281,-0.773 -0.694,-0.803 l -10.639,-0.778 c -0.019,-0.002 -0.037,-0.002 -0.056,-0.002" />
      <path
         inkscape:connector-curvature="0"
         id="path1821"
         style="fill:none;fill-opacity:1;fill-rule:nonzero;stroke:#111006;stroke-width:3.43510224;stroke-miterlimit:4;stroke-dasharray:none;stroke-opacity:1"
         d="m 383.4993,325.3565 c -0.008,0 -0.017,0 -0.025,0 l -11.289,0.39 c -0.415,0.014 -0.739,0.361 -0.725,0.775 0.015,0.413 0.318,0.76 0.775,0.724 l 11.289,-0.39 c 0.414,-0.014 0.739,-0.361 0.725,-0.775 -0.015,-0.405 -0.348,-0.724 -0.75,-0.724" />
      <path
         inkscape:connector-curvature="0"
         id="path1823"
         style="fill:none;fill-opacity:1;fill-rule:nonzero;stroke:#111006;stroke-width:3.43510224;stroke-miterlimit:4;stroke-dasharray:none;stroke-opacity:1"
         d="m 361.5052,311.732 c -0.099,0 -0.197,0.02 -0.29,0.059 l -7.267,3.049 c -0.137,0.057 -0.254,0.155 -0.336,0.28 l -3.958,6.034 c -0.093,0.143 -0.135,0.313 -0.119,0.484 l 0.519,5.32 c 0.04,0.412 0.405,0.71 0.819,0.673 0.412,-0.04 0.714,-0.407 0.673,-0.819 l -0.492,-5.057 3.686,-5.621 6.765,-2.838 6.765,2.838 3.685,5.619 -0.491,4.664 c -0.043,0.412 0.256,0.781 0.668,0.825 0.406,0.033 0.78,-0.256 0.824,-0.668 l 0.519,-4.93 c 0.017,-0.173 -0.025,-0.346 -0.119,-0.49 l -3.957,-6.034 c -0.083,-0.125 -0.2,-0.223 -0.337,-0.28 l -7.267,-3.049 c -0.093,-0.039 -0.191,-0.059 -0.29,-0.059" />
      <path
         inkscape:connector-curvature="0"
         id="path1825"
         style="fill:none;fill-opacity:1;fill-rule:nonzero;stroke:#111006;stroke-width:3.43510224;stroke-miterlimit:4;stroke-dasharray:none;stroke-opacity:1"
         d="m 374.9974,309.0943 h -26.709 c -0.414,0 -0.75,0.336 -0.75,0.75 0,0.414 0.336,0.75 0.75,0.75 h 26.709 c 0.414,0 0.75,-0.336 0.75,-0.75 0,-0.414 -0.336,-0.75 -0.75,-0.75" />
      <path
         inkscape:connector-curvature="0"
         id="path1827"
         style="fill:none;fill-opacity:1;fill-rule:nonzero;stroke:#111006;stroke-width:3.43510224;stroke-miterlimit:4;stroke-dasharray:none;stroke-opacity:1"
         d="m 340.1605,325.3565 c -0.184,0 -0.368,0.067 -0.513,0.203 l -8.175,7.655 c -0.09,0.085 -0.159,0.191 -0.198,0.309 l -8.888,26.568 c -0.078,0.228 -0.04,0.48 0.101,0.676 l 17.064,23.778 c 0.241,0.336 0.709,0.414 1.046,0.171 0.336,-0.241 0.414,-0.71 0.172,-1.046 l -16.839,-23.466 8.707,-26.025 8.036,-7.526 c 0.302,-0.283 0.318,-0.758 0.035,-1.06 -0.149,-0.157 -0.348,-0.237 -0.548,-0.237" />
      <path
         inkscape:connector-curvature="0"
         id="path1829"
         style="fill:none;fill-opacity:1;fill-rule:nonzero;stroke:#111006;stroke-width:3.43510224;stroke-miterlimit:4;stroke-dasharray:none;stroke-opacity:1"
         d="m 345.529,361.8379 -4.623,7.591 -6.714,0.292 3.746,-6.715 z" />
      <path
         inkscape:connector-curvature="0"
         id="path1831"
         style="fill:none;fill-opacity:1;fill-rule:nonzero;stroke:#111006;stroke-width:3.43510224;stroke-miterlimit:4;stroke-dasharray:none;stroke-opacity:1"
         d="m 351.8372,356.3682 c -0.153,0 -0.309,0.047 -0.442,0.145 l -7.396,5.417 c -0.334,0.245 -0.406,0.714 -0.162,1.048 0.244,0.334 0.713,0.409 1.049,0.162 l 7.395,-5.417 c 0.334,-0.245 0.407,-0.714 0.163,-1.048 -0.148,-0.2 -0.375,-0.307 -0.607,-0.307" />
      <path
         inkscape:connector-curvature="0"
         id="path1833"
         style="fill:none;fill-opacity:1;fill-rule:nonzero;stroke:#111006;stroke-width:3.43510224;stroke-miterlimit:4;stroke-dasharray:none;stroke-opacity:1"
         d="m 340.9056,368.0948 c -0.397,0 -0.728,0.312 -0.748,0.713 l -0.746,15.263 c -0.021,0.414 0.299,0.766 0.712,0.786 0.419,0.019 0.766,-0.299 0.786,-0.713 l 0.746,-15.262 c 0.021,-0.414 -0.299,-0.766 -0.712,-0.786 -0.013,0 -0.025,-10e-4 -0.038,-10e-4" />
      <path
         inkscape:connector-curvature="0"
         id="path1835"
         style="fill:none;fill-opacity:1;fill-rule:nonzero;stroke:#111006;stroke-width:3.43510224;stroke-miterlimit:4;stroke-dasharray:none;stroke-opacity:1"
         d="m 334.679,368.6788 c -0.042,0 -0.084,0.003 -0.127,0.011 l -4.663,0.795 c -0.408,0.07 -0.683,0.457 -0.613,0.865 0.07,0.408 0.459,0.681 0.865,0.614 l 4.663,-0.796 c 0.408,-0.07 0.683,-0.457 0.613,-0.865 -0.062,-0.366 -0.38,-0.624 -0.738,-0.624" />
      <path
         inkscape:connector-curvature="0"
         id="path1837"
         style="fill:none;fill-opacity:1;fill-rule:nonzero;stroke:#111006;stroke-width:3.43510224;stroke-miterlimit:4;stroke-dasharray:none;stroke-opacity:1"
         d="m 334.1917,349.6206 c -0.182,0 -0.361,0.066 -0.501,0.192 l -11.095,9.959 c -0.308,0.277 -0.334,0.751 -0.057,1.059 0.278,0.309 0.752,0.333 1.059,0.057 l 10.754,-9.653 17.219,6.584 c 0.388,0.148 0.82,-0.046 0.968,-0.432 0.148,-0.387 -0.046,-0.821 -0.433,-0.969 l -17.646,-6.748 c -0.087,-0.033 -0.178,-0.049 -0.268,-0.049" />
      <path
         inkscape:connector-curvature="0"
         id="path1839"
         style="fill:none;fill-opacity:1;fill-rule:nonzero;stroke:#111006;stroke-width:3.43510224;stroke-miterlimit:4;stroke-dasharray:none;stroke-opacity:1"
         d="m 319.5277,331.0655 c -0.11,0 -0.223,0.024 -0.329,0.076 -0.372,0.182 -0.525,0.632 -0.344,1.004 l 7.307,14.927 -13.966,1.254 c -0.412,0.037 -0.717,0.401 -0.68,0.814 0.037,0.413 0.384,0.723 0.815,0.68 l 15.052,-1.352 c 0.246,-0.022 0.464,-0.164 0.585,-0.379 0.122,-0.215 0.129,-0.476 0.021,-0.697 l -7.786,-15.907 c -0.13,-0.266 -0.398,-0.42 -0.675,-0.42" />
      <path
         inkscape:connector-curvature="0"
         id="path1841"
         style="fill:none;fill-opacity:1;fill-rule:nonzero;stroke:#111006;stroke-width:3.43510224;stroke-miterlimit:4;stroke-dasharray:none;stroke-opacity:1"
         d="m 331.6292,323.1831 c -0.009,0 -0.017,0 -0.027,0 -0.414,0.016 -0.738,0.363 -0.722,0.777 l 0.357,9.829 c 0.014,0.413 0.326,0.745 0.776,0.722 0.414,-0.015 0.737,-0.363 0.721,-0.777 l -0.356,-9.828 c -0.015,-0.405 -0.347,-0.723 -0.749,-0.723" />
      <path
         inkscape:connector-curvature="0"
         id="path1843"
         style="fill:none;fill-opacity:1;fill-rule:nonzero;stroke:#111006;stroke-width:3.43510224;stroke-miterlimit:4;stroke-dasharray:none;stroke-opacity:1"
         d="m 310.0579,383.8765 c -0.23,0 -0.457,0.105 -0.603,0.304 -0.247,0.333 -0.177,0.803 0.156,1.049 l 23.062,17.074 -11.267,37.774 c -0.119,0.397 0.107,0.815 0.504,0.933 0.403,0.121 0.815,-0.107 0.933,-0.504 l 11.418,-38.278 c 0.09,-0.303 -0.018,-0.63 -0.272,-0.817 l -23.486,-17.388 c -0.133,-0.099 -0.291,-0.147 -0.445,-0.147" />
      <path
         inkscape:connector-curvature="0"
         id="path1845"
         style="fill:none;fill-opacity:1;fill-rule:nonzero;stroke:#111006;stroke-width:3.43510224;stroke-miterlimit:4;stroke-dasharray:none;stroke-opacity:1"
         d="m 344.7025,386.6875 c -0.226,0 -0.449,0.101 -0.597,0.294 l -11.159,14.576 c -0.252,0.329 -0.189,0.8 0.14,1.052 0.329,0.252 0.801,0.188 1.052,-0.14 l 11.159,-14.576 c 0.252,-0.329 0.189,-0.8 -0.14,-1.052 -0.136,-0.104 -0.297,-0.154 -0.455,-0.154" />
      <path
         inkscape:connector-curvature="0"
         id="path1847"
         style="fill:none;fill-opacity:1;fill-rule:nonzero;stroke:#111006;stroke-width:3.43510224;stroke-miterlimit:4;stroke-dasharray:none;stroke-opacity:1"
         d="m 305.6449,349.1016 c -0.187,0 -0.373,0.07 -0.517,0.206 -0.244,0.232 -0.303,0.598 -0.145,0.896 l 23.92,45.009 -26.84,-31.445 c -0.27,-0.316 -0.742,-0.352 -1.058,-0.083 -0.314,0.268 -0.352,0.742 -0.083,1.057 l 31.288,36.656 c 0.249,0.292 0.676,0.348 0.993,0.133 0.316,-0.215 0.42,-0.634 0.24,-0.972 l -25.868,-48.673 15.136,9.087 c 0.354,0.214 0.816,0.097 1.029,-0.257 0.214,-0.355 0.098,-0.816 -0.257,-1.029 l -17.452,-10.478 c -0.119,-0.072 -0.253,-0.107 -0.386,-0.107" />
      <path
         inkscape:connector-curvature="0"
         id="path1849"
         style="fill:none;fill-opacity:1;fill-rule:nonzero;stroke:#111006;stroke-width:3.43510224;stroke-miterlimit:4;stroke-dasharray:none;stroke-opacity:1"
         d="m 309.2786,364.6724 c -0.168,0 -0.337,0.056 -0.477,0.171 -0.32,0.264 -0.365,0.736 -0.102,1.056 l 13.368,16.218 c 0.264,0.319 0.736,0.365 1.056,0.101 0.32,-0.263 0.365,-0.735 0.102,-1.055 l -13.368,-16.218 c -0.148,-0.18 -0.363,-0.273 -0.579,-0.273" />
      <path
         inkscape:connector-curvature="0"
         id="path1851"
         style="fill:none;fill-opacity:1;fill-rule:nonzero;stroke:#111006;stroke-width:3.43510224;stroke-miterlimit:4;stroke-dasharray:none;stroke-opacity:1"
         d="m 383.4993,325.3565 c -0.2,0 -0.399,0.08 -0.548,0.237 -0.282,0.302 -0.267,0.777 0.035,1.06 l 8.035,7.526 8.707,26.025 -16.838,23.466 c -0.241,0.336 -0.164,0.805 0.172,1.046 0.337,0.242 0.805,0.164 1.046,-0.171 l 17.063,-23.779 c 0.14,-0.195 0.179,-0.447 0.101,-0.675 l -8.888,-26.568 c -0.039,-0.118 -0.108,-0.224 -0.198,-0.309 l -8.174,-7.655 c -0.145,-0.136 -0.329,-0.203 -0.513,-0.203" />
      <path
         inkscape:connector-curvature="0"
         id="path1853"
         style="fill:none;fill-opacity:1;fill-rule:nonzero;stroke:#111006;stroke-width:3.43510224;stroke-miterlimit:4;stroke-dasharray:none;stroke-opacity:1"
         d="m 378.1302,361.8379 4.623,7.591 6.714,0.292 -3.746,-6.715 z" />
      <path
         inkscape:connector-curvature="0"
         id="path1855"
         style="fill:none;fill-opacity:1;fill-rule:nonzero;stroke:#111006;stroke-width:3.43510224;stroke-miterlimit:4;stroke-dasharray:none;stroke-opacity:1"
         d="m 382.7542,368.4839 c -0.013,0 -0.025,10e-4 -0.038,10e-4 -0.414,0.021 -0.732,0.373 -0.712,0.787 l 0.746,14.873 c 0.022,0.414 0.374,0.723 0.786,0.712 0.414,-0.021 0.733,-0.373 0.712,-0.787 l -0.746,-14.874 c -0.02,-0.4 -0.351,-0.712 -0.748,-0.712" />
      <path
         inkscape:connector-curvature="0"
         id="path1857"
         style="fill:none;fill-opacity:1;fill-rule:nonzero;stroke:#111006;stroke-width:3.43510224;stroke-miterlimit:4;stroke-dasharray:none;stroke-opacity:1"
         d="m 388.9798,368.6788 c -0.358,0 -0.676,0.258 -0.738,0.624 -0.07,0.408 0.205,0.796 0.613,0.865 l 4.664,0.796 c 0.409,0.067 0.796,-0.206 0.865,-0.614 0.07,-0.408 -0.205,-0.796 -0.613,-0.865 l -4.664,-0.795 c -0.043,-0.008 -0.085,-0.011 -0.127,-0.011" />
      <path
         inkscape:connector-curvature="0"
         id="path1859"
         style="fill:none;fill-opacity:1;fill-rule:nonzero;stroke:#111006;stroke-width:3.43510224;stroke-miterlimit:4;stroke-dasharray:none;stroke-opacity:1"
         d="m 389.4681,349.6206 c -0.09,0 -0.181,0.016 -0.268,0.049 l -17.647,6.748 c -0.387,0.148 -0.581,0.582 -0.433,0.969 0.148,0.386 0.58,0.581 0.968,0.432 l 17.22,-6.584 10.753,9.653 c 0.307,0.277 0.782,0.253 1.058,-0.057 0.278,-0.308 0.252,-0.782 -0.056,-1.059 l -11.094,-9.959 c -0.14,-0.126 -0.319,-0.192 -0.501,-0.192" />
      <path
         inkscape:connector-curvature="0"
         id="path1861"
         style="fill:none;fill-opacity:1;fill-rule:nonzero;stroke:#111006;stroke-width:3.43510224;stroke-miterlimit:4;stroke-dasharray:none;stroke-opacity:1"
         d="m 404.1312,331.0655 c -0.277,0 -0.544,0.154 -0.675,0.42 l -7.658,15.644 c -0.107,0.22 -0.101,0.478 0.017,0.692 0.118,0.214 0.334,0.357 0.576,0.384 l 14.925,1.613 c 0.405,0.045 0.782,-0.252 0.827,-0.665 0.044,-0.411 -0.254,-0.781 -0.665,-0.826 l -13.863,-1.499 7.189,-14.683 c 0.181,-0.372 0.028,-0.822 -0.344,-1.004 -0.106,-0.052 -0.219,-0.076 -0.329,-0.076" />
      <path
         inkscape:connector-curvature="0"
         id="path1863"
         style="fill:none;fill-opacity:1;fill-rule:nonzero;stroke:#111006;stroke-width:3.43510224;stroke-miterlimit:4;stroke-dasharray:none;stroke-opacity:1"
         d="m 392.0306,323.1831 c -0.402,0 -0.734,0.318 -0.749,0.723 l -0.357,9.828 c -0.016,0.414 0.307,0.762 0.721,0.777 0.463,0.027 0.762,-0.308 0.777,-0.722 l 0.357,-9.829 c 0.016,-0.414 -0.308,-0.761 -0.722,-0.777 -0.009,0 -0.018,0 -0.027,0" />
      <path
         inkscape:connector-curvature="0"
         id="path1865"
         style="fill:none;fill-opacity:1;fill-rule:nonzero;stroke:#111006;stroke-width:3.43510224;stroke-miterlimit:4;stroke-dasharray:none;stroke-opacity:1"
         d="m 413.3421,383.8765 c -0.156,0 -0.314,0.049 -0.448,0.149 l -23.227,17.388 c -0.25,0.187 -0.358,0.51 -0.27,0.81 l 11.159,38.279 c 0.115,0.397 0.53,0.625 0.93,0.51 0.397,-0.116 0.626,-0.532 0.509,-0.93 l -11.013,-37.78 22.81,-17.075 c 0.332,-0.249 0.4,-0.719 0.152,-1.05 -0.148,-0.197 -0.374,-0.301 -0.602,-0.301" />
      <path
         inkscape:connector-curvature="0"
         id="path1867"
         style="fill:none;fill-opacity:1;fill-rule:nonzero;stroke:#111006;stroke-width:3.43510224;stroke-miterlimit:4;stroke-dasharray:none;stroke-opacity:1"
         d="m 378.9564,386.6875 c -0.158,0 -0.319,0.05 -0.455,0.154 -0.329,0.252 -0.392,0.723 -0.14,1.052 l 11.159,14.576 c 0.251,0.328 0.723,0.392 1.052,0.14 0.329,-0.252 0.392,-0.723 0.14,-1.052 l -11.159,-14.576 c -0.148,-0.193 -0.371,-0.294 -0.597,-0.294" />
      <path
         inkscape:connector-curvature="0"
         id="path1869"
         style="fill:none;fill-opacity:1;fill-rule:nonzero;stroke:#111006;stroke-width:3.43510224;stroke-miterlimit:4;stroke-dasharray:none;stroke-opacity:1"
         d="m 417.349,349.4097 c -0.134,0 -0.269,0.036 -0.389,0.108 l -16.787,10.17 c -0.354,0.215 -0.468,0.676 -0.253,1.031 0.215,0.354 0.677,0.466 1.031,0.252 l 14.493,-8.78 -25.23,48.373 c -0.177,0.339 -0.07,0.757 0.247,0.97 0.318,0.212 0.743,0.153 0.99,-0.139 l 31.028,-36.656 c 0.267,-0.316 0.228,-0.789 -0.088,-1.057 -0.315,-0.268 -0.788,-0.228 -1.057,0.088 l -26.674,31.513 23.354,-44.776 c 0.155,-0.299 0.094,-0.664 -0.152,-0.894 -0.143,-0.134 -0.328,-0.203 -0.513,-0.203" />
      <path
         inkscape:connector-curvature="0"
         id="path1871"
         style="fill:none;fill-opacity:1;fill-rule:nonzero;stroke:#111006;stroke-width:3.43510224;stroke-miterlimit:4;stroke-dasharray:none;stroke-opacity:1"
         d="m 414.3812,364.6724 c -0.216,0 -0.431,0.093 -0.579,0.273 l -13.368,16.218 c -0.263,0.32 -0.218,0.792 0.102,1.055 0.32,0.264 0.792,0.218 1.056,-0.101 l 13.368,-16.218 c 0.263,-0.32 0.218,-0.792 -0.102,-1.056 -0.14,-0.115 -0.309,-0.171 -0.477,-0.171" />
      <path
         inkscape:connector-curvature="0"
         id="path1873"
         style="fill:none;fill-opacity:1;fill-rule:nonzero;stroke:#111006;stroke-width:3.43510224;stroke-miterlimit:4;stroke-dasharray:none;stroke-opacity:1"
         d="m 351.8392,356.3682 c -0.057,0 -0.114,0.006 -0.171,0.02 -0.403,0.094 -0.654,0.497 -0.561,0.9 l 3.341,14.335 -3.35,20.93 c -0.066,0.409 0.213,0.794 0.622,0.859 0.413,0.065 0.793,-0.214 0.858,-0.622 l 3.374,-21.075 c 0.016,-0.096 0.013,-0.194 -0.01,-0.289 l -3.374,-14.478 c -0.081,-0.346 -0.388,-0.58 -0.729,-0.58" />
      <path
         inkscape:connector-curvature="0"
         id="path1875"
         style="fill:none;fill-opacity:1;fill-rule:nonzero;stroke:#111006;stroke-width:3.43510224;stroke-miterlimit:4;stroke-dasharray:none;stroke-opacity:1"
         d="m 371.9544,355.5904 c -0.358,0 -0.676,0.258 -0.738,0.624 l -2.6,15.256 c -0.013,0.081 -0.014,0.164 -10e-4,0.245 l 3.373,21.075 c 0.066,0.408 0.449,0.686 0.859,0.622 0.409,-0.066 0.687,-0.45 0.622,-0.86 l -3.354,-20.952 2.579,-15.134 c 0.07,-0.408 -0.205,-0.796 -0.613,-0.865 -0.043,-0.008 -0.085,-0.011 -0.127,-0.011" />
      <path
         inkscape:connector-curvature="0"
         id="path1877"
         style="fill:none;fill-opacity:1;fill-rule:nonzero;stroke:#111006;stroke-width:3.43510224;stroke-miterlimit:4;stroke-dasharray:none;stroke-opacity:1"
         d="m 369.3558,370.8467 h -14.144 c -0.414,0 -0.75,0.336 -0.75,0.75 0,0.414 0.336,0.75 0.75,0.75 h 14.144 c 0.414,0 0.75,-0.336 0.75,-0.75 0,-0.414 -0.336,-0.75 -0.75,-0.75" />
      <path
         inkscape:connector-curvature="0"
         id="path1879"
         style="fill:none;fill-opacity:1;fill-rule:nonzero;stroke:#111006;stroke-width:3.43510224;stroke-miterlimit:4;stroke-dasharray:none;stroke-opacity:1"
         d="m 359.4935,312.5757 c -0.371,0 -0.693,0.275 -0.742,0.652 l -0.754,5.739 -1.652,2.178 -4.509,-2.139 c -0.375,-0.178 -0.821,-0.018 -0.999,0.356 -0.178,0.374 -0.018,0.821 0.356,0.999 l 5.06,2.401 c 0.318,0.152 0.704,0.059 0.919,-0.225 l 2.14,-2.822 c 0.079,-0.103 0.129,-0.226 0.146,-0.355 l 0.779,-5.936 c 0.055,-0.411 -0.234,-0.788 -0.645,-0.842 -0.034,-0.004 -0.067,-0.006 -0.099,-0.006" />
      <path
         inkscape:connector-curvature="0"
         id="path1881"
         style="fill:none;fill-opacity:1;fill-rule:nonzero;stroke:#111006;stroke-width:3.43510224;stroke-miterlimit:4;stroke-dasharray:none;stroke-opacity:1"
         d="m 363.8431,312.5757 c -0.032,0 -0.065,0.002 -0.099,0.006 -0.41,0.054 -0.7,0.431 -0.645,0.842 l 0.778,5.936 c 0.017,0.129 0.067,0.252 0.146,0.356 l 2.141,2.821 c 0.215,0.284 0.6,0.377 0.919,0.225 l 5.059,-2.401 c 0.374,-0.178 0.534,-0.625 0.356,-0.999 -0.177,-0.374 -0.623,-0.535 -0.999,-0.356 l -4.508,2.139 -1.653,-2.178 -0.753,-5.739 c -0.049,-0.377 -0.371,-0.652 -0.742,-0.652" />
      <path
         inkscape:connector-curvature="0"
         id="path1883"
         style="fill:none;fill-opacity:1;fill-rule:nonzero;stroke:#111006;stroke-width:3.43510224;stroke-miterlimit:4;stroke-dasharray:none;stroke-opacity:1"
         d="m 356.5755,321.334 c -0.268,0 -0.526,0.143 -0.662,0.395 -0.195,0.365 -0.059,0.82 0.307,1.016 l 5.254,2.821 c 0.227,0.122 0.502,0.119 0.727,-0.009 l 4.933,-2.822 c 0.36,-0.206 0.484,-0.664 0.279,-1.024 -0.206,-0.357 -0.664,-0.484 -1.023,-0.278 l -4.573,2.615 -4.889,-2.625 c -0.112,-0.06 -0.234,-0.089 -0.353,-0.089" />
      <path
         inkscape:connector-curvature="0"
         id="path1885"
         style="fill:none;fill-opacity:1;fill-rule:nonzero;stroke:#111006;stroke-width:3.43510224;stroke-miterlimit:4;stroke-dasharray:none;stroke-opacity:1"
         d="m 361.6995,323.896 c -0.414,0 -0.75,0.336 -0.75,0.75 v 8.208 c 0,0.414 0.336,0.75 0.75,0.75 0.414,0 0.75,-0.336 0.75,-0.75 v -8.208 c 0,-0.414 -0.336,-0.75 -0.75,-0.75" />
      <path
         inkscape:connector-curvature="0"
         id="path1887"
         style="fill:none;fill-opacity:1;fill-rule:nonzero;stroke:#111006;stroke-width:3.43510224;stroke-miterlimit:4;stroke-dasharray:none;stroke-opacity:1"
         d="m 371.4652,356.3682 c -0.232,0 -0.462,0.108 -0.608,0.311 -0.244,0.336 -0.168,0.804 0.168,1.047 l 7.493,5.417 c 0.335,0.242 0.804,0.167 1.047,-0.168 0.243,-0.336 0.168,-0.805 -0.168,-1.048 l -7.494,-5.417 c -0.132,-0.096 -0.286,-0.142 -0.438,-0.142" />
      <path
         inkscape:connector-curvature="0"
         id="path1889"
         style="fill:none;fill-opacity:1;fill-rule:nonzero;stroke:#111006;stroke-width:3.43510224;stroke-miterlimit:4;stroke-dasharray:none;stroke-opacity:1"
         d="m 361.6683,251.4244 c -0.16,0 -0.32,0.051 -0.455,0.153 l -38.571,29.433 c -0.083,0.063 -0.152,0.143 -0.203,0.234 l -9.478,17.208 c -0.042,0.077 -0.071,0.161 -0.084,0.248 l -3.529,23.061 -3.919,4.64 c -0.144,0.17 -0.204,0.396 -0.165,0.616 l 4.054,22.548 c 0.074,0.407 0.463,0.675 0.871,0.605 0.408,-0.073 0.679,-0.463 0.606,-0.871 l -3.992,-22.2 3.827,-4.531 c 0.089,-0.106 0.147,-0.234 0.168,-0.371 l 3.542,-23.138 9.338,-16.952 37.986,-28.987 37.392,28.984 9.328,16.936 2.266,23.117 c 0.018,0.186 0.106,0.359 0.245,0.484 l 5.051,4.545 -2.311,21.808 c -0.043,0.412 0.255,0.781 0.667,0.825 0.423,0.046 0.781,-0.255 0.825,-0.667 l 2.351,-22.188 c 0.026,-0.24 -0.065,-0.477 -0.244,-0.637 l -5.12,-4.606 -2.253,-22.981 c -0.009,-0.101 -0.04,-0.199 -0.089,-0.288 l -9.477,-17.208 c -0.05,-0.09 -0.117,-0.168 -0.197,-0.231 l -37.97,-29.432 c -0.136,-0.104 -0.298,-0.157 -0.46,-0.157" />
      <path
         inkscape:connector-curvature="0"
         id="path1891"
         style="fill:none;fill-opacity:1;fill-rule:nonzero;stroke:#111006;stroke-width:3.43510224;stroke-miterlimit:4;stroke-dasharray:none;stroke-opacity:1"
         d="m 361.6995,252.647 c -0.414,0 -0.75,0.336 -0.75,0.75 v 51.689 c 0,0.414 0.336,0.75 0.75,0.75 0.414,0 0.75,-0.336 0.75,-0.75 v -51.689 c 0,-0.414 -0.336,-0.75 -0.75,-0.75" />
      <path
         inkscape:connector-curvature="0"
         id="path1893"
         style="fill:none;fill-opacity:1;fill-rule:nonzero;stroke:#111006;stroke-width:3.43510224;stroke-miterlimit:4;stroke-dasharray:none;stroke-opacity:1"
         d="m 323.097,280.8565 c -0.178,0 -0.356,0.063 -0.499,0.19 -0.31,0.276 -0.336,0.75 -0.061,1.059 l 25.192,28.238 c 0.276,0.31 0.751,0.335 1.058,0.06 0.31,-0.276 0.336,-0.75 0.061,-1.059 l -25.191,-28.238 c -0.149,-0.165 -0.354,-0.25 -0.56,-0.25" />
      <path
         inkscape:connector-curvature="0"
         id="path1895"
         style="fill:none;fill-opacity:1;fill-rule:nonzero;stroke:#111006;stroke-width:3.43510224;stroke-miterlimit:4;stroke-dasharray:none;stroke-opacity:1"
         d="m 310.056,321.334 c -0.385,0 -0.713,0.295 -0.746,0.686 -0.035,0.413 0.27,0.776 0.682,0.811 l 21.573,1.849 c 0.432,0.038 0.776,-0.27 0.811,-0.683 0.035,-0.413 -0.27,-0.776 -0.682,-0.811 l -21.573,-1.849 c -0.022,-0.002 -0.044,-0.003 -0.065,-0.003" />
      <path
         inkscape:connector-curvature="0"
         id="path1897"
         style="fill:none;fill-opacity:1;fill-rule:nonzero;stroke:#111006;stroke-width:3.43510224;stroke-miterlimit:4;stroke-dasharray:none;stroke-opacity:1"
         d="m 313.6195,298.064 c -0.272,0 -0.533,0.147 -0.667,0.405 -0.191,0.368 -0.047,0.821 0.321,1.011 l 29.591,15.325 c 0.368,0.191 0.819,0.047 1.011,-0.321 0.19,-0.368 0.047,-0.82 -0.322,-1.011 l -29.59,-15.325 c -0.111,-0.057 -0.228,-0.084 -0.344,-0.084" />
      <path
         inkscape:connector-curvature="0"
         id="path1899"
         style="fill:none;fill-opacity:1;fill-rule:nonzero;stroke:#111006;stroke-width:3.43510224;stroke-miterlimit:4;stroke-dasharray:none;stroke-opacity:1"
         d="m 306.0023,326.1348 c -0.307,0 -0.594,0.189 -0.705,0.493 -0.142,0.389 0.059,0.82 0.448,0.962 l 13.527,4.93 c 0.391,0.142 0.82,-0.059 0.961,-0.448 0.142,-0.389 -0.058,-0.819 -0.448,-0.961 l -13.526,-4.931 c -0.085,-0.03 -0.172,-0.045 -0.257,-0.045" />
      <path
         inkscape:connector-curvature="0"
         id="path1901"
         style="fill:none;fill-opacity:1;fill-rule:nonzero;stroke:#111006;stroke-width:3.43510224;stroke-miterlimit:4;stroke-dasharray:none;stroke-opacity:1"
         d="m 361.5052,252.647 c -0.283,0 -0.555,0.162 -0.682,0.436 l -21.644,47 c -0.173,0.376 -0.009,0.821 0.368,0.995 0.373,0.172 0.82,0.009 0.995,-0.367 l 21.645,-47.001 c 0.172,-0.376 0.008,-0.821 -0.368,-0.995 -0.102,-0.046 -0.209,-0.068 -0.314,-0.068" />
      <path
         inkscape:connector-curvature="0"
         id="path1903"
         style="fill:none;fill-opacity:1;fill-rule:nonzero;stroke:#111006;stroke-width:3.43510224;stroke-miterlimit:4;stroke-dasharray:none;stroke-opacity:1"
         d="m 399.8236,281.1939 c -0.206,0 -0.411,0.085 -0.56,0.25 l -24.89,27.901 c -0.276,0.309 -0.249,0.783 0.06,1.059 0.308,0.275 0.782,0.25 1.059,-0.06 l 24.891,-27.901 c 0.275,-0.309 0.249,-0.783 -0.061,-1.059 -0.143,-0.127 -0.321,-0.19 -0.499,-0.19" />
      <path
         inkscape:connector-curvature="0"
         id="path1905"
         style="fill:none;fill-opacity:1;fill-rule:nonzero;stroke:#111006;stroke-width:3.43510224;stroke-miterlimit:4;stroke-dasharray:none;stroke-opacity:1"
         d="m 411.3978,321.334 c -0.023,0 -0.047,10e-4 -0.07,0.003 l -19.804,1.85 c -0.413,0.038 -0.716,0.403 -0.678,0.816 0.038,0.413 0.411,0.718 0.817,0.677 l 19.803,-1.849 c 0.413,-0.039 0.716,-0.404 0.678,-0.817 -0.036,-0.389 -0.363,-0.68 -0.746,-0.68" />
      <path
         inkscape:connector-curvature="0"
         id="path1907"
         style="fill:none;fill-opacity:1;fill-rule:nonzero;stroke:#111006;stroke-width:3.43510224;stroke-miterlimit:4;stroke-dasharray:none;stroke-opacity:1"
         d="m 409.1146,298.064 c -0.117,0 -0.237,0.028 -0.349,0.086 l -29.103,15.326 c -0.366,0.192 -0.507,0.646 -0.315,1.013 0.195,0.365 0.648,0.506 1.014,0.314 l 29.104,-15.325 c 0.366,-0.193 0.506,-0.647 0.314,-1.014 -0.135,-0.254 -0.395,-0.4 -0.665,-0.4" />
      <path
         inkscape:connector-curvature="0"
         id="path1909"
         style="fill:none;fill-opacity:1;fill-rule:nonzero;stroke:#111006;stroke-width:3.43510224;stroke-miterlimit:4;stroke-dasharray:none;stroke-opacity:1"
         d="m 416.7327,326.1348 c -0.088,0 -0.178,0.016 -0.266,0.048 l -13.04,4.931 c -0.386,0.147 -0.582,0.58 -0.435,0.967 0.146,0.387 0.577,0.582 0.967,0.436 l 13.04,-4.93 c 0.386,-0.147 0.582,-0.58 0.435,-0.967 -0.113,-0.3 -0.398,-0.485 -0.701,-0.485" />
      <path
         inkscape:connector-curvature="0"
         id="path1911"
         style="fill:none;fill-opacity:1;fill-rule:nonzero;stroke:#111006;stroke-width:3.43510224;stroke-miterlimit:4;stroke-dasharray:none;stroke-opacity:1"
         d="m 361.7161,252.647 c -0.105,0 -0.212,0.021 -0.313,0.068 -0.377,0.174 -0.541,0.619 -0.369,0.995 l 21.646,47.001 c 0.174,0.375 0.622,0.538 0.995,0.367 0.377,-0.174 0.541,-0.619 0.368,-0.995 l -21.645,-47 c -0.127,-0.274 -0.399,-0.436 -0.682,-0.436" />
    </g>
    <g
       transform="matrix(1.1644486,0,0,-1.1644486,-293.19178,1327.5333)"
       id="g7002"
       style="fill:#f9f9e6;fill-opacity:1;stroke:#c3b84b;stroke-width:0.24249601;stroke-miterlimit:4;stroke-dasharray:none;stroke-opacity:1">
      <path
         d="m 348.6683,310.5054 13.03,-4.623 12.92,4.623 17.092,14.358 11.559,7.456 7.176,17.045 c 0.106,0.249 0.336,0.422 0.604,0.454 l 5.784,0.68 -3.442,14.754 c -0.057,0.242 0.01,0.496 0.179,0.679 0.168,0.182 0.415,0.268 0.662,0.233 l 6.465,-0.97 -8.046,19.142 c -0.035,0.083 -0.054,0.173 -0.058,0.264 l -1.42,40.005 -9.978,14.481 -21.942,-24.211 c -0.186,-0.207 -0.469,-0.294 -0.74,-0.224 l -6.949,1.761 -21.037,0.033 -5.598,-1.782 c -0.28,-0.088 -0.586,-0.007 -0.784,0.212 l -21.941,24.211 -9.978,-14.481 -1.419,-40.005 c -0.004,-0.091 -0.024,-0.181 -0.059,-0.264 l -8.047,-19.142 6.466,0.97 c 0.244,0.034 0.494,-0.051 0.662,-0.233 0.169,-0.183 0.236,-0.437 0.18,-0.679 l -3.444,-14.754 5.786,-0.68 c 0.267,-0.032 0.499,-0.205 0.603,-0.454 l 7.176,-17.044 11.483,-7.4 z m 13.031,-6.169 c -0.085,0 -0.17,0.014 -0.251,0.043 l -13.411,4.758 c -0.085,0.03 -0.164,0.075 -0.233,0.134 l -17.081,14.445 -11.601,7.469 c -0.127,0.082 -0.227,0.2 -0.285,0.339 l -7.096,16.855 -6.184,0.728 c -0.212,0.024 -0.404,0.138 -0.527,0.313 -0.122,0.175 -0.165,0.394 -0.116,0.602 l 3.383,14.494 -6.694,-1.004 c -0.265,-0.037 -0.537,0.068 -0.703,0.282 -0.167,0.214 -0.205,0.501 -0.099,0.751 l 8.51,20.245 1.422,40.087 c 0.006,0.143 0.052,0.281 0.133,0.399 l 10.641,15.441 c 0.13,0.189 0.339,0.308 0.567,0.323 0.23,0.015 0.452,-0.075 0.606,-0.245 l 22.254,-24.556 5.25,1.671 c 0.073,0.023 0.15,0.035 0.227,0.035 h 0.001 l 21.247,-0.033 c 0.062,0 0.123,-0.008 0.184,-0.023 l 6.601,-1.673 22.276,24.579 c 0.154,0.17 0.38,0.259 0.605,0.245 0.229,-0.015 0.438,-0.134 0.568,-0.323 l 10.639,-15.441 c 0.081,-0.118 0.127,-0.256 0.133,-0.399 l 1.423,-40.087 8.448,-20.1 c 0.088,-0.123 0.14,-0.273 0.14,-0.436 0,-0.414 -0.335,-0.75 -0.75,-0.75 -0.007,0.001 -0.014,0 -0.02,0 -0.037,0 -0.074,0.003 -0.111,0.008 l -6.692,1.004 3.381,-14.494 c 0.049,-0.208 0.006,-0.427 -0.117,-0.602 -0.122,-0.175 -0.313,-0.289 -0.525,-0.313 l -6.184,-0.728 -7.097,-16.855 c -0.058,-0.139 -0.158,-0.257 -0.285,-0.339 l -11.677,-7.526 -17.12,-14.389 c -0.068,-0.058 -0.145,-0.102 -0.229,-0.132 l -13.298,-4.758 c -0.082,-0.03 -0.167,-0.044 -0.253,-0.044"
         style="fill:#f9f9e6;fill-opacity:1;fill-rule:nonzero;stroke:#c3b84b;stroke-width:0.24249601;stroke-miterlimit:4;stroke-dasharray:none;stroke-opacity:1"
         id="path312"
         inkscape:connector-curvature="0" />
      <path
         d="m 372.7298,391.9214 c -0.043,0 -0.086,0.003 -0.13,0.011 l -10.892,1.894 -9.726,-1.891 c -0.377,-0.071 -0.745,0.147 -0.859,0.511 l -7.137,22.707 c -0.124,0.396 0.096,0.816 0.491,0.94 0.394,0.125 0.817,-0.094 0.941,-0.49 l 6.935,-22.068 9.203,1.79 c 0.092,0.017 0.183,0.018 0.273,0.003 l 10.35,-1.8 5.793,22.041 c 0.107,0.4 0.524,0.637 0.916,0.535 0.401,-0.106 0.641,-0.516 0.535,-0.916 l -5.968,-22.707 c -0.088,-0.335 -0.39,-0.56 -0.725,-0.56"
         style="fill:#f9f9e6;fill-opacity:1;fill-rule:nonzero;stroke:#c3b84b;stroke-width:0.24249601;stroke-miterlimit:4;stroke-dasharray:none;stroke-opacity:1"
         id="path316"
         inkscape:connector-curvature="0" />
      <path
         d="m 371.8206,356.3682 h -19.982 c -0.299,0 -0.57,0.178 -0.689,0.452 l -11.678,26.989 c -0.138,0.322 -0.037,0.696 0.246,0.903 l 11.677,8.564 c 0.335,0.246 0.804,0.173 1.048,-0.161 0.245,-0.334 0.173,-0.804 -0.161,-1.049 l -11.195,-8.21 11.245,-25.988 h 18.997 l 11.255,26.01 -10.322,8.206 c -0.324,0.258 -0.377,0.73 -0.12,1.054 0.258,0.324 0.732,0.377 1.054,0.12 l 10.771,-8.564 c 0.265,-0.211 0.356,-0.574 0.221,-0.885 l -11.678,-26.989 c -0.12,-0.274 -0.39,-0.452 -0.689,-0.452"
         style="fill:#f9f9e6;fill-opacity:1;fill-rule:nonzero;stroke:#c3b84b;stroke-width:0.24249601;stroke-miterlimit:4;stroke-dasharray:none;stroke-opacity:1"
         id="path320"
         inkscape:connector-curvature="0" />
      <path
         d="m 343.2083,313.3892 c -0.334,0 -0.64,0.226 -0.726,0.565 l -3.048,11.967 c -0.051,0.2 -0.018,0.412 0.092,0.586 l 8.614,13.628 2.959,17.111 c 0.071,0.408 0.467,0.681 0.867,0.611 0.408,-0.07 0.682,-0.459 0.611,-0.867 l -2.984,-17.258 c -0.017,-0.096 -0.053,-0.189 -0.106,-0.273 l -8.52,-13.481 2.969,-11.654 c 0.102,-0.401 -0.14,-0.809 -0.541,-0.912 -0.063,-0.016 -0.125,-0.023 -0.187,-0.023"
         style="fill:#f9f9e6;fill-opacity:1;fill-rule:nonzero;stroke:#c3b84b;stroke-width:0.24249601;stroke-miterlimit:4;stroke-dasharray:none;stroke-opacity:1"
         id="path324"
         inkscape:connector-curvature="0" />
      <path
         d="m 380.0833,313.2994 c -0.067,0 -0.136,0.009 -0.204,0.028 -0.398,0.113 -0.631,0.528 -0.518,0.927 l 3.326,11.734 -8.516,13.471 c -0.053,0.084 -0.089,0.176 -0.105,0.273 l -2.985,17.258 c -0.07,0.408 0.203,0.796 0.611,0.867 0.403,0.068 0.796,-0.203 0.868,-0.611 l 2.959,-17.111 8.614,-13.628 c 0.114,-0.18 0.145,-0.4 0.088,-0.606 l -3.416,-12.057 c -0.094,-0.33 -0.395,-0.545 -0.722,-0.545"
         style="fill:#f9f9e6;fill-opacity:1;fill-rule:nonzero;stroke:#c3b84b;stroke-width:0.24249601;stroke-miterlimit:4;stroke-dasharray:none;stroke-opacity:1"
         id="path328"
         inkscape:connector-curvature="0" />
      <path
         d="m 372.2103,325.7456 c -0.196,0 -0.391,0.077 -0.535,0.224 l -5.614,5.709 -4.431,0.416 -3.689,-0.325 -6.666,-5.465 c -0.247,-0.202 -0.594,-0.226 -0.866,-0.06 -0.272,0.167 -0.41,0.487 -0.343,0.799 l 3.742,17.286 -0.773,12.743 c -0.024,0.414 0.29,0.769 0.704,0.794 0.379,0.029 0.769,-0.289 0.794,-0.703 l 0.779,-12.846 c 0.003,-0.068 -0.002,-0.137 -0.016,-0.204 l -3.308,-15.285 5.181,4.248 c 0.117,0.096 0.26,0.154 0.41,0.167 l 3.795,0.334 c 0.063,0.017 0.128,0.026 0.195,0.026 h 0.13 c 0.071,0 0.139,-0.01 0.204,-0.028 l 4.571,-0.43 c 0.175,-0.016 0.34,-0.094 0.464,-0.22 l 4.096,-4.165 -2.806,15.377 c -0.011,0.059 -0.014,0.12 -0.011,0.18 l 0.778,12.846 c 0.025,0.413 0.412,0.722 0.794,0.703 0.414,-0.025 0.729,-0.38 0.704,-0.794 l -0.773,-12.755 3.228,-17.687 c 0.059,-0.324 -0.1,-0.649 -0.392,-0.8 -0.11,-0.058 -0.228,-0.085 -0.346,-0.085"
         style="fill:#f9f9e6;fill-opacity:1;fill-rule:nonzero;stroke:#c3b84b;stroke-width:0.24249601;stroke-miterlimit:4;stroke-dasharray:none;stroke-opacity:1"
         id="path332"
         inkscape:connector-curvature="0" />
      <path
         d="m 340.1595,325.3565 c -0.389,0 -0.718,0.301 -0.747,0.695 -0.03,0.413 0.28,0.773 0.693,0.803 l 10.64,0.778 c 0.413,0.027 0.772,-0.28 0.803,-0.693 0.03,-0.413 -0.281,-0.773 -0.694,-0.803 l -10.639,-0.778 c -0.019,-0.002 -0.037,-0.002 -0.056,-0.002"
         style="fill:#f9f9e6;fill-opacity:1;fill-rule:nonzero;stroke:#c3b84b;stroke-width:0.24249601;stroke-miterlimit:4;stroke-dasharray:none;stroke-opacity:1"
         id="path336"
         inkscape:connector-curvature="0" />
      <path
         d="m 383.4993,325.3565 c -0.008,0 -0.017,0 -0.025,0 l -11.289,0.39 c -0.415,0.014 -0.739,0.361 -0.725,0.775 0.015,0.413 0.318,0.76 0.775,0.724 l 11.289,-0.39 c 0.414,-0.014 0.739,-0.361 0.725,-0.775 -0.015,-0.405 -0.348,-0.724 -0.75,-0.724"
         style="fill:#f9f9e6;fill-opacity:1;fill-rule:nonzero;stroke:#c3b84b;stroke-width:0.24249601;stroke-miterlimit:4;stroke-dasharray:none;stroke-opacity:1"
         id="path340"
         inkscape:connector-curvature="0" />
      <path
         d="m 361.5052,311.732 c -0.099,0 -0.197,0.02 -0.29,0.059 l -7.267,3.049 c -0.137,0.057 -0.254,0.155 -0.336,0.28 l -3.958,6.034 c -0.093,0.143 -0.135,0.313 -0.119,0.484 l 0.519,5.32 c 0.04,0.412 0.405,0.71 0.819,0.673 0.412,-0.04 0.714,-0.407 0.673,-0.819 l -0.492,-5.057 3.686,-5.621 6.765,-2.838 6.765,2.838 3.685,5.619 -0.491,4.664 c -0.043,0.412 0.256,0.781 0.668,0.825 0.406,0.033 0.78,-0.256 0.824,-0.668 l 0.519,-4.93 c 0.017,-0.173 -0.025,-0.346 -0.119,-0.49 l -3.957,-6.034 c -0.083,-0.125 -0.2,-0.223 -0.337,-0.28 l -7.267,-3.049 c -0.093,-0.039 -0.191,-0.059 -0.29,-0.059"
         style="fill:#f9f9e6;fill-opacity:1;fill-rule:nonzero;stroke:#c3b84b;stroke-width:0.24249601;stroke-miterlimit:4;stroke-dasharray:none;stroke-opacity:1"
         id="path344"
         inkscape:connector-curvature="0" />
      <path
         d="m 374.9974,309.0943 h -26.709 c -0.414,0 -0.75,0.336 -0.75,0.75 0,0.414 0.336,0.75 0.75,0.75 h 26.709 c 0.414,0 0.75,-0.336 0.75,-0.75 0,-0.414 -0.336,-0.75 -0.75,-0.75"
         style="fill:#f9f9e6;fill-opacity:1;fill-rule:nonzero;stroke:#c3b84b;stroke-width:0.24249601;stroke-miterlimit:4;stroke-dasharray:none;stroke-opacity:1"
         id="path348"
         inkscape:connector-curvature="0" />
      <path
         d="m 340.1605,325.3565 c -0.184,0 -0.368,0.067 -0.513,0.203 l -8.175,7.655 c -0.09,0.085 -0.159,0.191 -0.198,0.309 l -8.888,26.568 c -0.078,0.228 -0.04,0.48 0.101,0.676 l 17.064,23.778 c 0.241,0.336 0.709,0.414 1.046,0.171 0.336,-0.241 0.414,-0.71 0.172,-1.046 l -16.839,-23.466 8.707,-26.025 8.036,-7.526 c 0.302,-0.283 0.318,-0.758 0.035,-1.06 -0.149,-0.157 -0.348,-0.237 -0.548,-0.237"
         style="fill:#f9f9e6;fill-opacity:1;fill-rule:nonzero;stroke:#c3b84b;stroke-width:0.24249601;stroke-miterlimit:4;stroke-dasharray:none;stroke-opacity:1"
         id="path352"
         inkscape:connector-curvature="0" />
      <path
         d="m 345.529,361.8379 -4.623,7.591 -6.714,0.292 3.746,-6.715 z"
         style="fill:#f9f9e6;fill-opacity:1;fill-rule:nonzero;stroke:#c3b84b;stroke-width:0.24249601;stroke-miterlimit:4;stroke-dasharray:none;stroke-opacity:1"
         id="path356"
         inkscape:connector-curvature="0" />
      <path
         d="m 351.8372,356.3682 c -0.153,0 -0.309,0.047 -0.442,0.145 l -7.396,5.417 c -0.334,0.245 -0.406,0.714 -0.162,1.048 0.244,0.334 0.713,0.409 1.049,0.162 l 7.395,-5.417 c 0.334,-0.245 0.407,-0.714 0.163,-1.048 -0.148,-0.2 -0.375,-0.307 -0.607,-0.307"
         style="fill:#f9f9e6;fill-opacity:1;fill-rule:nonzero;stroke:#c3b84b;stroke-width:0.24249601;stroke-miterlimit:4;stroke-dasharray:none;stroke-opacity:1"
         id="path360"
         inkscape:connector-curvature="0" />
      <path
         d="m 340.9056,368.0948 c -0.397,0 -0.728,0.312 -0.748,0.713 l -0.746,15.263 c -0.021,0.414 0.299,0.766 0.712,0.786 0.419,0.019 0.766,-0.299 0.786,-0.713 l 0.746,-15.262 c 0.021,-0.414 -0.299,-0.766 -0.712,-0.786 -0.013,0 -0.025,-10e-4 -0.038,-10e-4"
         style="fill:#f9f9e6;fill-opacity:1;fill-rule:nonzero;stroke:#c3b84b;stroke-width:0.24249601;stroke-miterlimit:4;stroke-dasharray:none;stroke-opacity:1"
         id="path364"
         inkscape:connector-curvature="0" />
      <path
         d="m 334.679,368.6788 c -0.042,0 -0.084,0.003 -0.127,0.011 l -4.663,0.795 c -0.408,0.07 -0.683,0.457 -0.613,0.865 0.07,0.408 0.459,0.681 0.865,0.614 l 4.663,-0.796 c 0.408,-0.07 0.683,-0.457 0.613,-0.865 -0.062,-0.366 -0.38,-0.624 -0.738,-0.624"
         style="fill:#f9f9e6;fill-opacity:1;fill-rule:nonzero;stroke:#c3b84b;stroke-width:0.24249601;stroke-miterlimit:4;stroke-dasharray:none;stroke-opacity:1"
         id="path368"
         inkscape:connector-curvature="0" />
      <path
         d="m 334.1917,349.6206 c -0.182,0 -0.361,0.066 -0.501,0.192 l -11.095,9.959 c -0.308,0.277 -0.334,0.751 -0.057,1.059 0.278,0.309 0.752,0.333 1.059,0.057 l 10.754,-9.653 17.219,6.584 c 0.388,0.148 0.82,-0.046 0.968,-0.432 0.148,-0.387 -0.046,-0.821 -0.433,-0.969 l -17.646,-6.748 c -0.087,-0.033 -0.178,-0.049 -0.268,-0.049"
         style="fill:#f9f9e6;fill-opacity:1;fill-rule:nonzero;stroke:#c3b84b;stroke-width:0.24249601;stroke-miterlimit:4;stroke-dasharray:none;stroke-opacity:1"
         id="path372"
         inkscape:connector-curvature="0" />
      <path
         d="m 319.5277,331.0655 c -0.11,0 -0.223,0.024 -0.329,0.076 -0.372,0.182 -0.525,0.632 -0.344,1.004 l 7.307,14.927 -13.966,1.254 c -0.412,0.037 -0.717,0.401 -0.68,0.814 0.037,0.413 0.384,0.723 0.815,0.68 l 15.052,-1.352 c 0.246,-0.022 0.464,-0.164 0.585,-0.379 0.122,-0.215 0.129,-0.476 0.021,-0.697 l -7.786,-15.907 c -0.13,-0.266 -0.398,-0.42 -0.675,-0.42"
         style="fill:#f9f9e6;fill-opacity:1;fill-rule:nonzero;stroke:#c3b84b;stroke-width:0.24249601;stroke-miterlimit:4;stroke-dasharray:none;stroke-opacity:1"
         id="path376"
         inkscape:connector-curvature="0" />
      <path
         d="m 331.6292,323.1831 c -0.009,0 -0.017,0 -0.027,0 -0.414,0.016 -0.738,0.363 -0.722,0.777 l 0.357,9.829 c 0.014,0.413 0.326,0.745 0.776,0.722 0.414,-0.015 0.737,-0.363 0.721,-0.777 l -0.356,-9.828 c -0.015,-0.405 -0.347,-0.723 -0.749,-0.723"
         style="fill:#f9f9e6;fill-opacity:1;fill-rule:nonzero;stroke:#c3b84b;stroke-width:0.24249601;stroke-miterlimit:4;stroke-dasharray:none;stroke-opacity:1"
         id="path380"
         inkscape:connector-curvature="0" />
      <path
         d="m 310.0579,383.8765 c -0.23,0 -0.457,0.105 -0.603,0.304 -0.247,0.333 -0.177,0.803 0.156,1.049 l 23.062,17.074 -11.267,37.774 c -0.119,0.397 0.107,0.815 0.504,0.933 0.403,0.121 0.815,-0.107 0.933,-0.504 l 11.418,-38.278 c 0.09,-0.303 -0.018,-0.63 -0.272,-0.817 l -23.486,-17.388 c -0.133,-0.099 -0.291,-0.147 -0.445,-0.147"
         style="fill:#f9f9e6;fill-opacity:1;fill-rule:nonzero;stroke:#c3b84b;stroke-width:0.24249601;stroke-miterlimit:4;stroke-dasharray:none;stroke-opacity:1"
         id="path384"
         inkscape:connector-curvature="0" />
      <path
         d="m 344.7025,386.6875 c -0.226,0 -0.449,0.101 -0.597,0.294 l -11.159,14.576 c -0.252,0.329 -0.189,0.8 0.14,1.052 0.329,0.252 0.801,0.188 1.052,-0.14 l 11.159,-14.576 c 0.252,-0.329 0.189,-0.8 -0.14,-1.052 -0.136,-0.104 -0.297,-0.154 -0.455,-0.154"
         style="fill:#f9f9e6;fill-opacity:1;fill-rule:nonzero;stroke:#c3b84b;stroke-width:0.24249601;stroke-miterlimit:4;stroke-dasharray:none;stroke-opacity:1"
         id="path388"
         inkscape:connector-curvature="0" />
      <path
         d="m 305.6449,349.1016 c -0.187,0 -0.373,0.07 -0.517,0.206 -0.244,0.232 -0.303,0.598 -0.145,0.896 l 23.92,45.009 -26.84,-31.445 c -0.27,-0.316 -0.742,-0.352 -1.058,-0.083 -0.314,0.268 -0.352,0.742 -0.083,1.057 l 31.288,36.656 c 0.249,0.292 0.676,0.348 0.993,0.133 0.316,-0.215 0.42,-0.634 0.24,-0.972 l -25.868,-48.673 15.136,9.087 c 0.354,0.214 0.816,0.097 1.029,-0.257 0.214,-0.355 0.098,-0.816 -0.257,-1.029 l -17.452,-10.478 c -0.119,-0.072 -0.253,-0.107 -0.386,-0.107"
         style="fill:#f9f9e6;fill-opacity:1;fill-rule:nonzero;stroke:#c3b84b;stroke-width:0.24249601;stroke-miterlimit:4;stroke-dasharray:none;stroke-opacity:1"
         id="path392"
         inkscape:connector-curvature="0" />
      <path
         d="m 309.2786,364.6724 c -0.168,0 -0.337,0.056 -0.477,0.171 -0.32,0.264 -0.365,0.736 -0.102,1.056 l 13.368,16.218 c 0.264,0.319 0.736,0.365 1.056,0.101 0.32,-0.263 0.365,-0.735 0.102,-1.055 l -13.368,-16.218 c -0.148,-0.18 -0.363,-0.273 -0.579,-0.273"
         style="fill:#f9f9e6;fill-opacity:1;fill-rule:nonzero;stroke:#c3b84b;stroke-width:0.24249601;stroke-miterlimit:4;stroke-dasharray:none;stroke-opacity:1"
         id="path396"
         inkscape:connector-curvature="0" />
      <path
         d="m 383.4993,325.3565 c -0.2,0 -0.399,0.08 -0.548,0.237 -0.282,0.302 -0.267,0.777 0.035,1.06 l 8.035,7.526 8.707,26.025 -16.838,23.466 c -0.241,0.336 -0.164,0.805 0.172,1.046 0.337,0.242 0.805,0.164 1.046,-0.171 l 17.063,-23.779 c 0.14,-0.195 0.179,-0.447 0.101,-0.675 l -8.888,-26.568 c -0.039,-0.118 -0.108,-0.224 -0.198,-0.309 l -8.174,-7.655 c -0.145,-0.136 -0.329,-0.203 -0.513,-0.203"
         style="fill:#f9f9e6;fill-opacity:1;fill-rule:nonzero;stroke:#c3b84b;stroke-width:0.24249601;stroke-miterlimit:4;stroke-dasharray:none;stroke-opacity:1"
         id="path400"
         inkscape:connector-curvature="0" />
      <path
         d="m 378.1302,361.8379 4.623,7.591 6.714,0.292 -3.746,-6.715 z"
         style="fill:#f9f9e6;fill-opacity:1;fill-rule:nonzero;stroke:#c3b84b;stroke-width:0.24249601;stroke-miterlimit:4;stroke-dasharray:none;stroke-opacity:1"
         id="path404"
         inkscape:connector-curvature="0" />
      <path
         d="m 382.7542,368.4839 c -0.013,0 -0.025,10e-4 -0.038,10e-4 -0.414,0.021 -0.732,0.373 -0.712,0.787 l 0.746,14.873 c 0.022,0.414 0.374,0.723 0.786,0.712 0.414,-0.021 0.733,-0.373 0.712,-0.787 l -0.746,-14.874 c -0.02,-0.4 -0.351,-0.712 -0.748,-0.712"
         style="fill:#f9f9e6;fill-opacity:1;fill-rule:nonzero;stroke:#c3b84b;stroke-width:0.24249601;stroke-miterlimit:4;stroke-dasharray:none;stroke-opacity:1"
         id="path408"
         inkscape:connector-curvature="0" />
      <path
         d="m 388.9798,368.6788 c -0.358,0 -0.676,0.258 -0.738,0.624 -0.07,0.408 0.205,0.796 0.613,0.865 l 4.664,0.796 c 0.409,0.067 0.796,-0.206 0.865,-0.614 0.07,-0.408 -0.205,-0.796 -0.613,-0.865 l -4.664,-0.795 c -0.043,-0.008 -0.085,-0.011 -0.127,-0.011"
         style="fill:#f9f9e6;fill-opacity:1;fill-rule:nonzero;stroke:#c3b84b;stroke-width:0.24249601;stroke-miterlimit:4;stroke-dasharray:none;stroke-opacity:1"
         id="path412"
         inkscape:connector-curvature="0" />
      <path
         d="m 389.4681,349.6206 c -0.09,0 -0.181,0.016 -0.268,0.049 l -17.647,6.748 c -0.387,0.148 -0.581,0.582 -0.433,0.969 0.148,0.386 0.58,0.581 0.968,0.432 l 17.22,-6.584 10.753,9.653 c 0.307,0.277 0.782,0.253 1.058,-0.057 0.278,-0.308 0.252,-0.782 -0.056,-1.059 l -11.094,-9.959 c -0.14,-0.126 -0.319,-0.192 -0.501,-0.192"
         style="fill:#f9f9e6;fill-opacity:1;fill-rule:nonzero;stroke:#c3b84b;stroke-width:0.24249601;stroke-miterlimit:4;stroke-dasharray:none;stroke-opacity:1"
         id="path416"
         inkscape:connector-curvature="0" />
      <path
         d="m 404.1312,331.0655 c -0.277,0 -0.544,0.154 -0.675,0.42 l -7.658,15.644 c -0.107,0.22 -0.101,0.478 0.017,0.692 0.118,0.214 0.334,0.357 0.576,0.384 l 14.925,1.613 c 0.405,0.045 0.782,-0.252 0.827,-0.665 0.044,-0.411 -0.254,-0.781 -0.665,-0.826 l -13.863,-1.499 7.189,-14.683 c 0.181,-0.372 0.028,-0.822 -0.344,-1.004 -0.106,-0.052 -0.219,-0.076 -0.329,-0.076"
         style="fill:#f9f9e6;fill-opacity:1;fill-rule:nonzero;stroke:#c3b84b;stroke-width:0.24249601;stroke-miterlimit:4;stroke-dasharray:none;stroke-opacity:1"
         id="path420"
         inkscape:connector-curvature="0" />
      <path
         d="m 392.0306,323.1831 c -0.402,0 -0.734,0.318 -0.749,0.723 l -0.357,9.828 c -0.016,0.414 0.307,0.762 0.721,0.777 0.463,0.027 0.762,-0.308 0.777,-0.722 l 0.357,-9.829 c 0.016,-0.414 -0.308,-0.761 -0.722,-0.777 -0.009,0 -0.018,0 -0.027,0"
         style="fill:#f9f9e6;fill-opacity:1;fill-rule:nonzero;stroke:#c3b84b;stroke-width:0.24249601;stroke-miterlimit:4;stroke-dasharray:none;stroke-opacity:1"
         id="path424"
         inkscape:connector-curvature="0" />
      <path
         d="m 413.3421,383.8765 c -0.156,0 -0.314,0.049 -0.448,0.149 l -23.227,17.388 c -0.25,0.187 -0.358,0.51 -0.27,0.81 l 11.159,38.279 c 0.115,0.397 0.53,0.625 0.93,0.51 0.397,-0.116 0.626,-0.532 0.509,-0.93 l -11.013,-37.78 22.81,-17.075 c 0.332,-0.249 0.4,-0.719 0.152,-1.05 -0.148,-0.197 -0.374,-0.301 -0.602,-0.301"
         style="fill:#f9f9e6;fill-opacity:1;fill-rule:nonzero;stroke:#c3b84b;stroke-width:0.24249601;stroke-miterlimit:4;stroke-dasharray:none;stroke-opacity:1"
         id="path428"
         inkscape:connector-curvature="0" />
      <path
         d="m 378.9564,386.6875 c -0.158,0 -0.319,0.05 -0.455,0.154 -0.329,0.252 -0.392,0.723 -0.14,1.052 l 11.159,14.576 c 0.251,0.328 0.723,0.392 1.052,0.14 0.329,-0.252 0.392,-0.723 0.14,-1.052 l -11.159,-14.576 c -0.148,-0.193 -0.371,-0.294 -0.597,-0.294"
         style="fill:#f9f9e6;fill-opacity:1;fill-rule:nonzero;stroke:#c3b84b;stroke-width:0.24249601;stroke-miterlimit:4;stroke-dasharray:none;stroke-opacity:1"
         id="path432"
         inkscape:connector-curvature="0" />
      <path
         d="m 417.349,349.4097 c -0.134,0 -0.269,0.036 -0.389,0.108 l -16.787,10.17 c -0.354,0.215 -0.468,0.676 -0.253,1.031 0.215,0.354 0.677,0.466 1.031,0.252 l 14.493,-8.78 -25.23,48.373 c -0.177,0.339 -0.07,0.757 0.247,0.97 0.318,0.212 0.743,0.153 0.99,-0.139 l 31.028,-36.656 c 0.267,-0.316 0.228,-0.789 -0.088,-1.057 -0.315,-0.268 -0.788,-0.228 -1.057,0.088 l -26.674,31.513 23.354,-44.776 c 0.155,-0.299 0.094,-0.664 -0.152,-0.894 -0.143,-0.134 -0.328,-0.203 -0.513,-0.203"
         style="fill:#f9f9e6;fill-opacity:1;fill-rule:nonzero;stroke:#c3b84b;stroke-width:0.24249601;stroke-miterlimit:4;stroke-dasharray:none;stroke-opacity:1"
         id="path436"
         inkscape:connector-curvature="0" />
      <path
         d="m 414.3812,364.6724 c -0.216,0 -0.431,0.093 -0.579,0.273 l -13.368,16.218 c -0.263,0.32 -0.218,0.792 0.102,1.055 0.32,0.264 0.792,0.218 1.056,-0.101 l 13.368,-16.218 c 0.263,-0.32 0.218,-0.792 -0.102,-1.056 -0.14,-0.115 -0.309,-0.171 -0.477,-0.171"
         style="fill:#f9f9e6;fill-opacity:1;fill-rule:nonzero;stroke:#c3b84b;stroke-width:0.24249601;stroke-miterlimit:4;stroke-dasharray:none;stroke-opacity:1"
         id="path440"
         inkscape:connector-curvature="0" />
      <path
         d="m 351.8392,356.3682 c -0.057,0 -0.114,0.006 -0.171,0.02 -0.403,0.094 -0.654,0.497 -0.561,0.9 l 3.341,14.335 -3.35,20.93 c -0.066,0.409 0.213,0.794 0.622,0.859 0.413,0.065 0.793,-0.214 0.858,-0.622 l 3.374,-21.075 c 0.016,-0.096 0.013,-0.194 -0.01,-0.289 l -3.374,-14.478 c -0.081,-0.346 -0.388,-0.58 -0.729,-0.58"
         style="fill:#f9f9e6;fill-opacity:1;fill-rule:nonzero;stroke:#c3b84b;stroke-width:0.24249601;stroke-miterlimit:4;stroke-dasharray:none;stroke-opacity:1"
         id="path444"
         inkscape:connector-curvature="0" />
      <path
         d="m 371.9544,355.5904 c -0.358,0 -0.676,0.258 -0.738,0.624 l -2.6,15.256 c -0.013,0.081 -0.014,0.164 -10e-4,0.245 l 3.373,21.075 c 0.066,0.408 0.449,0.686 0.859,0.622 0.409,-0.066 0.687,-0.45 0.622,-0.86 l -3.354,-20.952 2.579,-15.134 c 0.07,-0.408 -0.205,-0.796 -0.613,-0.865 -0.043,-0.008 -0.085,-0.011 -0.127,-0.011"
         style="fill:#f9f9e6;fill-opacity:1;fill-rule:nonzero;stroke:#c3b84b;stroke-width:0.24249601;stroke-miterlimit:4;stroke-dasharray:none;stroke-opacity:1"
         id="path448"
         inkscape:connector-curvature="0" />
      <path
         d="m 369.3558,370.8467 h -14.144 c -0.414,0 -0.75,0.336 -0.75,0.75 0,0.414 0.336,0.75 0.75,0.75 h 14.144 c 0.414,0 0.75,-0.336 0.75,-0.75 0,-0.414 -0.336,-0.75 -0.75,-0.75"
         style="fill:#f9f9e6;fill-opacity:1;fill-rule:nonzero;stroke:#c3b84b;stroke-width:0.24249601;stroke-miterlimit:4;stroke-dasharray:none;stroke-opacity:1"
         id="path452"
         inkscape:connector-curvature="0" />
      <path
         d="m 359.4935,312.5757 c -0.371,0 -0.693,0.275 -0.742,0.652 l -0.754,5.739 -1.652,2.178 -4.509,-2.139 c -0.375,-0.178 -0.821,-0.018 -0.999,0.356 -0.178,0.374 -0.018,0.821 0.356,0.999 l 5.06,2.401 c 0.318,0.152 0.704,0.059 0.919,-0.225 l 2.14,-2.822 c 0.079,-0.103 0.129,-0.226 0.146,-0.355 l 0.779,-5.936 c 0.055,-0.411 -0.234,-0.788 -0.645,-0.842 -0.034,-0.004 -0.067,-0.006 -0.099,-0.006"
         style="fill:#f9f9e6;fill-opacity:1;fill-rule:nonzero;stroke:#c3b84b;stroke-width:0.24249601;stroke-miterlimit:4;stroke-dasharray:none;stroke-opacity:1"
         id="path456"
         inkscape:connector-curvature="0" />
      <path
         d="m 363.8431,312.5757 c -0.032,0 -0.065,0.002 -0.099,0.006 -0.41,0.054 -0.7,0.431 -0.645,0.842 l 0.778,5.936 c 0.017,0.129 0.067,0.252 0.146,0.356 l 2.141,2.821 c 0.215,0.284 0.6,0.377 0.919,0.225 l 5.059,-2.401 c 0.374,-0.178 0.534,-0.625 0.356,-0.999 -0.177,-0.374 -0.623,-0.535 -0.999,-0.356 l -4.508,2.139 -1.653,-2.178 -0.753,-5.739 c -0.049,-0.377 -0.371,-0.652 -0.742,-0.652"
         style="fill:#f9f9e6;fill-opacity:1;fill-rule:nonzero;stroke:#c3b84b;stroke-width:0.24249601;stroke-miterlimit:4;stroke-dasharray:none;stroke-opacity:1"
         id="path460"
         inkscape:connector-curvature="0" />
      <path
         d="m 356.5755,321.334 c -0.268,0 -0.526,0.143 -0.662,0.395 -0.195,0.365 -0.059,0.82 0.307,1.016 l 5.254,2.821 c 0.227,0.122 0.502,0.119 0.727,-0.009 l 4.933,-2.822 c 0.36,-0.206 0.484,-0.664 0.279,-1.024 -0.206,-0.357 -0.664,-0.484 -1.023,-0.278 l -4.573,2.615 -4.889,-2.625 c -0.112,-0.06 -0.234,-0.089 -0.353,-0.089"
         style="fill:#f9f9e6;fill-opacity:1;fill-rule:nonzero;stroke:#c3b84b;stroke-width:0.24249601;stroke-miterlimit:4;stroke-dasharray:none;stroke-opacity:1"
         id="path464"
         inkscape:connector-curvature="0" />
      <path
         d="m 361.6995,323.896 c -0.414,0 -0.75,0.336 -0.75,0.75 v 8.208 c 0,0.414 0.336,0.75 0.75,0.75 0.414,0 0.75,-0.336 0.75,-0.75 v -8.208 c 0,-0.414 -0.336,-0.75 -0.75,-0.75"
         style="fill:#f9f9e6;fill-opacity:1;fill-rule:nonzero;stroke:#c3b84b;stroke-width:0.24249601;stroke-miterlimit:4;stroke-dasharray:none;stroke-opacity:1"
         id="path468"
         inkscape:connector-curvature="0" />
      <path
         d="m 371.4652,356.3682 c -0.232,0 -0.462,0.108 -0.608,0.311 -0.244,0.336 -0.168,0.804 0.168,1.047 l 7.493,5.417 c 0.335,0.242 0.804,0.167 1.047,-0.168 0.243,-0.336 0.168,-0.805 -0.168,-1.048 l -7.494,-5.417 c -0.132,-0.096 -0.286,-0.142 -0.438,-0.142"
         style="fill:#f9f9e6;fill-opacity:1;fill-rule:nonzero;stroke:#c3b84b;stroke-width:0.24249601;stroke-miterlimit:4;stroke-dasharray:none;stroke-opacity:1"
         id="path472"
         inkscape:connector-curvature="0" />
      <path
         d="m 361.6683,251.4244 c -0.16,0 -0.32,0.051 -0.455,0.153 l -38.571,29.433 c -0.083,0.063 -0.152,0.143 -0.203,0.234 l -9.478,17.208 c -0.042,0.077 -0.071,0.161 -0.084,0.248 l -3.529,23.061 -3.919,4.64 c -0.144,0.17 -0.204,0.396 -0.165,0.616 l 4.054,22.548 c 0.074,0.407 0.463,0.675 0.871,0.605 0.408,-0.073 0.679,-0.463 0.606,-0.871 l -3.992,-22.2 3.827,-4.531 c 0.089,-0.106 0.147,-0.234 0.168,-0.371 l 3.542,-23.138 9.338,-16.952 37.986,-28.987 37.392,28.984 9.328,16.936 2.266,23.117 c 0.018,0.186 0.106,0.359 0.245,0.484 l 5.051,4.545 -2.311,21.808 c -0.043,0.412 0.255,0.781 0.667,0.825 0.423,0.046 0.781,-0.255 0.825,-0.667 l 2.351,-22.188 c 0.026,-0.24 -0.065,-0.477 -0.244,-0.637 l -5.12,-4.606 -2.253,-22.981 c -0.009,-0.101 -0.04,-0.199 -0.089,-0.288 l -9.477,-17.208 c -0.05,-0.09 -0.117,-0.168 -0.197,-0.231 l -37.97,-29.432 c -0.136,-0.104 -0.298,-0.157 -0.46,-0.157"
         style="fill:#f9f9e6;fill-opacity:1;fill-rule:nonzero;stroke:#c3b84b;stroke-width:0.24249601;stroke-miterlimit:4;stroke-dasharray:none;stroke-opacity:1"
         id="path476"
         inkscape:connector-curvature="0" />
      <path
         d="m 361.6995,252.647 c -0.414,0 -0.75,0.336 -0.75,0.75 v 51.689 c 0,0.414 0.336,0.75 0.75,0.75 0.414,0 0.75,-0.336 0.75,-0.75 v -51.689 c 0,-0.414 -0.336,-0.75 -0.75,-0.75"
         style="fill:#f9f9e6;fill-opacity:1;fill-rule:nonzero;stroke:#c3b84b;stroke-width:0.24249601;stroke-miterlimit:4;stroke-dasharray:none;stroke-opacity:1"
         id="path480"
         inkscape:connector-curvature="0" />
      <path
         d="m 323.097,280.8565 c -0.178,0 -0.356,0.063 -0.499,0.19 -0.31,0.276 -0.336,0.75 -0.061,1.059 l 25.192,28.238 c 0.276,0.31 0.751,0.335 1.058,0.06 0.31,-0.276 0.336,-0.75 0.061,-1.059 l -25.191,-28.238 c -0.149,-0.165 -0.354,-0.25 -0.56,-0.25"
         style="fill:#f9f9e6;fill-opacity:1;fill-rule:nonzero;stroke:#c3b84b;stroke-width:0.24249601;stroke-miterlimit:4;stroke-dasharray:none;stroke-opacity:1"
         id="path484"
         inkscape:connector-curvature="0" />
      <path
         d="m 310.056,321.334 c -0.385,0 -0.713,0.295 -0.746,0.686 -0.035,0.413 0.27,0.776 0.682,0.811 l 21.573,1.849 c 0.432,0.038 0.776,-0.27 0.811,-0.683 0.035,-0.413 -0.27,-0.776 -0.682,-0.811 l -21.573,-1.849 c -0.022,-0.002 -0.044,-0.003 -0.065,-0.003"
         style="fill:#f9f9e6;fill-opacity:1;fill-rule:nonzero;stroke:#c3b84b;stroke-width:0.24249601;stroke-miterlimit:4;stroke-dasharray:none;stroke-opacity:1"
         id="path488"
         inkscape:connector-curvature="0" />
      <path
         d="m 313.6195,298.064 c -0.272,0 -0.533,0.147 -0.667,0.405 -0.191,0.368 -0.047,0.821 0.321,1.011 l 29.591,15.325 c 0.368,0.191 0.819,0.047 1.011,-0.321 0.19,-0.368 0.047,-0.82 -0.322,-1.011 l -29.59,-15.325 c -0.111,-0.057 -0.228,-0.084 -0.344,-0.084"
         style="fill:#f9f9e6;fill-opacity:1;fill-rule:nonzero;stroke:#c3b84b;stroke-width:0.24249601;stroke-miterlimit:4;stroke-dasharray:none;stroke-opacity:1"
         id="path492"
         inkscape:connector-curvature="0" />
      <path
         d="m 306.0023,326.1348 c -0.307,0 -0.594,0.189 -0.705,0.493 -0.142,0.389 0.059,0.82 0.448,0.962 l 13.527,4.93 c 0.391,0.142 0.82,-0.059 0.961,-0.448 0.142,-0.389 -0.058,-0.819 -0.448,-0.961 l -13.526,-4.931 c -0.085,-0.03 -0.172,-0.045 -0.257,-0.045"
         style="fill:#f9f9e6;fill-opacity:1;fill-rule:nonzero;stroke:#c3b84b;stroke-width:0.24249601;stroke-miterlimit:4;stroke-dasharray:none;stroke-opacity:1"
         id="path496"
         inkscape:connector-curvature="0" />
      <path
         d="m 361.5052,252.647 c -0.283,0 -0.555,0.162 -0.682,0.436 l -21.644,47 c -0.173,0.376 -0.009,0.821 0.368,0.995 0.373,0.172 0.82,0.009 0.995,-0.367 l 21.645,-47.001 c 0.172,-0.376 0.008,-0.821 -0.368,-0.995 -0.102,-0.046 -0.209,-0.068 -0.314,-0.068"
         style="fill:#f9f9e6;fill-opacity:1;fill-rule:nonzero;stroke:#c3b84b;stroke-width:0.24249601;stroke-miterlimit:4;stroke-dasharray:none;stroke-opacity:1"
         id="path500"
         inkscape:connector-curvature="0" />
      <path
         d="m 399.8236,281.1939 c -0.206,0 -0.411,0.085 -0.56,0.25 l -24.89,27.901 c -0.276,0.309 -0.249,0.783 0.06,1.059 0.308,0.275 0.782,0.25 1.059,-0.06 l 24.891,-27.901 c 0.275,-0.309 0.249,-0.783 -0.061,-1.059 -0.143,-0.127 -0.321,-0.19 -0.499,-0.19"
         style="fill:#f9f9e6;fill-opacity:1;fill-rule:nonzero;stroke:#c3b84b;stroke-width:0.24249601;stroke-miterlimit:4;stroke-dasharray:none;stroke-opacity:1"
         id="path504"
         inkscape:connector-curvature="0" />
      <path
         d="m 411.3978,321.334 c -0.023,0 -0.047,10e-4 -0.07,0.003 l -19.804,1.85 c -0.413,0.038 -0.716,0.403 -0.678,0.816 0.038,0.413 0.411,0.718 0.817,0.677 l 19.803,-1.849 c 0.413,-0.039 0.716,-0.404 0.678,-0.817 -0.036,-0.389 -0.363,-0.68 -0.746,-0.68"
         style="fill:#f9f9e6;fill-opacity:1;fill-rule:nonzero;stroke:#c3b84b;stroke-width:0.24249601;stroke-miterlimit:4;stroke-dasharray:none;stroke-opacity:1"
         id="path508"
         inkscape:connector-curvature="0" />
      <path
         d="m 409.1146,298.064 c -0.117,0 -0.237,0.028 -0.349,0.086 l -29.103,15.326 c -0.366,0.192 -0.507,0.646 -0.315,1.013 0.195,0.365 0.648,0.506 1.014,0.314 l 29.104,-15.325 c 0.366,-0.193 0.506,-0.647 0.314,-1.014 -0.135,-0.254 -0.395,-0.4 -0.665,-0.4"
         style="fill:#f9f9e6;fill-opacity:1;fill-rule:nonzero;stroke:#c3b84b;stroke-width:0.24249601;stroke-miterlimit:4;stroke-dasharray:none;stroke-opacity:1"
         id="path512"
         inkscape:connector-curvature="0" />
      <path
         d="m 416.7327,326.1348 c -0.088,0 -0.178,0.016 -0.266,0.048 l -13.04,4.931 c -0.386,0.147 -0.582,0.58 -0.435,0.967 0.146,0.387 0.577,0.582 0.967,0.436 l 13.04,-4.93 c 0.386,-0.147 0.582,-0.58 0.435,-0.967 -0.113,-0.3 -0.398,-0.485 -0.701,-0.485"
         style="fill:#f9f9e6;fill-opacity:1;fill-rule:nonzero;stroke:#c3b84b;stroke-width:0.24249601;stroke-miterlimit:4;stroke-dasharray:none;stroke-opacity:1"
         id="path516"
         inkscape:connector-curvature="0" />
      <path
         d="m 361.7161,252.647 c -0.105,0 -0.212,0.021 -0.313,0.068 -0.377,0.174 -0.541,0.619 -0.369,0.995 l 21.646,47.001 c 0.174,0.375 0.622,0.538 0.995,0.367 0.377,-0.174 0.541,-0.619 0.368,-0.995 l -21.645,-47 c -0.127,-0.274 -0.399,-0.436 -0.682,-0.436"
         style="fill:#f9f9e6;fill-opacity:1;fill-rule:nonzero;stroke:#c3b84b;stroke-width:0.24249601;stroke-miterlimit:4;stroke-dasharray:none;stroke-opacity:1"
         id="path520"
         inkscape:connector-curvature="0" />
    </g>
  </g>
</svg>
