<?xml version="1.0" encoding="UTF-8" standalone="no"?>
<!-- Created with Inkscape (http://www.inkscape.org/) -->

<svg
   xmlns:dc="http://purl.org/dc/elements/1.1/"
   xmlns:cc="http://creativecommons.org/ns#"
   xmlns:rdf="http://www.w3.org/1999/02/22-rdf-syntax-ns#"
   xmlns:svg="http://www.w3.org/2000/svg"
   xmlns="http://www.w3.org/2000/svg"
   xmlns:xlink="http://www.w3.org/1999/xlink"
   xmlns:sodipodi="http://sodipodi.sourceforge.net/DTD/sodipodi-0.dtd"
   xmlns:inkscape="http://www.inkscape.org/namespaces/inkscape"
   width="512"
   height="512"
   viewBox="0 0 512.00001 512.00002"
   version="1.1"
   id="svg1072"
   inkscape:version="0.92.1 r15371"
   sodipodi:docname="mUCCA.svg">
  <defs
     id="defs1066">
    <filter
       inkscape:collect="always"
       id="filter3778"
       x="-0.065235272"
       width="1.1304705"
       y="-0.19836393"
       height="1.3967279">
      <feGaussianBlur
         inkscape:collect="always"
         stdDeviation="2.3919598"
         id="feGaussianBlur3780" />
    </filter>
    <filter
       inkscape:collect="always"
       id="filter3461">
      <feGaussianBlur
         inkscape:collect="always"
         stdDeviation="1.4235838"
         id="feGaussianBlur3463" />
    </filter>
    <radialGradient
       inkscape:collect="always"
       xlink:href="#linearGradient3711"
       id="radialGradient4049"
       gradientUnits="userSpaceOnUse"
       gradientTransform="matrix(0.9586148,-0.02083333,0.0087263,0.4015275,4.1482118,93.7929)"
       cx="128"
       cy="131.68156"
       fx="128"
       fy="131.68156"
       r="48" />
    <linearGradient
       id="linearGradient3711"
       inkscape:collect="always">
      <stop
         id="stop3713"
         offset="0"
         style="stop-color:#ff0000;stop-opacity:1" />
      <stop
         id="stop3715"
         offset="1"
         style="stop-color:#730400;stop-opacity:1" />
    </linearGradient>
    <radialGradient
       inkscape:collect="always"
       xlink:href="#linearGradient3711"
       id="radialGradient4047"
       gradientUnits="userSpaceOnUse"
       gradientTransform="matrix(1.0019126,6.8133867e-7,-1.8373834e-7,0.2701883,-0.2448002,90.8611)"
       cx="128"
       cy="111.65797"
       fx="128"
       fy="111.65797"
       r="48" />
    <filter
       inkscape:collect="always"
       id="filter3681"
       x="-0.028262123"
       width="1.0565242"
       y="-0.18664739"
       height="1.3732948">
      <feGaussianBlur
         inkscape:collect="always"
         stdDeviation="1.130485"
         id="feGaussianBlur3683" />
    </filter>
    <radialGradient
       inkscape:collect="always"
       xlink:href="#linearGradient3191"
       id="radialGradient3901"
       gradientUnits="userSpaceOnUse"
       gradientTransform="matrix(0.7722397,0,0,0.323462,29.153318,106.40602)"
       cx="128"
       cy="131.68156"
       fx="128"
       fy="131.68156"
       r="48" />
    <linearGradient
       id="linearGradient3191">
      <stop
         id="stop3193"
         offset="0"
         style="stop-color:#fffeee;stop-opacity:1;" />
      <stop
         style="stop-color:#fffeee;stop-opacity:0.79069769;"
         offset="0.31999999"
         id="stop6709" />
      <stop
         id="stop3195"
         offset="1"
         style="stop-color:#fffeee;stop-opacity:0;" />
    </linearGradient>
    <filter
       inkscape:collect="always"
       id="filter3963"
       x="-0.077373259"
       width="1.1547465"
       y="-0.22046068"
       height="1.4409214">
      <feGaussianBlur
         inkscape:collect="always"
         stdDeviation="1.8779135"
         id="feGaussianBlur3965" />
    </filter>
    <linearGradient
       inkscape:collect="always"
       xlink:href="#linearGradient3480"
       id="linearGradient3486"
       x1="128"
       y1="123.34793"
       x2="128"
       y2="144.02988"
       gradientUnits="userSpaceOnUse"
       spreadMethod="reflect" />
    <linearGradient
       inkscape:collect="always"
       id="linearGradient3480">
      <stop
         style="stop-color:#ff0000;stop-opacity:1"
         offset="0"
         id="stop3482" />
      <stop
         style="stop-color:#4b0000;stop-opacity:1"
         offset="1"
         id="stop3484" />
    </linearGradient>
    <clipPath
       clipPathUnits="userSpaceOnUse"
       id="clipPath3474">
      <path
         inkscape:connector-curvature="0"
         style="opacity:1;fill:url(#radialGradient3478);fill-opacity:1;stroke:none;stroke-width:3.95852041;stroke-linecap:square;stroke-linejoin:round;stroke-miterlimit:4;stroke-dasharray:none;stroke-opacity:1"
         d="M 125.03125,118.0625 C 103.73131,118.83314 109.77274,128.14416 85.375,138 H 80 c 0.793091,0.39655 1.539156,0.7912 2.28125,1.1875 C 81.54464,139.45778 80.786783,139.72954 80,140 h 3.75 c 27.41478,15.30832 18.85555,30.00001 44.25,30 25.49628,0 17.70621,-13.07484 44.6875,-30 H 176 c -0.69175,-0.27457 -1.34771,-0.54061 -2,-0.8125 0.65579,-0.39775 1.30427,-0.78582 2,-1.1875 h -4.71875 C 147.025,127.14173 152.48217,118.75051 130.96875,118.0625 129,118 129,119 128,121 c -1,-2 -1,-3 -2.96875,-2.9375 z"
         id="path3476" />
    </clipPath>
    <filter
       inkscape:collect="always"
       id="filter3504">
      <feGaussianBlur
         inkscape:collect="always"
         stdDeviation="1.8492532"
         id="feGaussianBlur3506" />
    </filter>
    <radialGradient
       inkscape:collect="always"
       xlink:href="#linearGradient4039"
       id="radialGradient4045"
       cx="128.5"
       cy="116.71515"
       fx="128.5"
       fy="116.71515"
       r="34.5625"
       gradientTransform="matrix(1,1.5311935e-7,-7.1091125e-8,0.4642857,9.5295431e-6,71.810805)"
       gradientUnits="userSpaceOnUse" />
    <linearGradient
       inkscape:collect="always"
       id="linearGradient4039">
      <stop
         style="stop-color:#f08682;stop-opacity:1;"
         offset="0"
         id="stop4041" />
      <stop
         style="stop-color:#f08682;stop-opacity:0;"
         offset="1"
         id="stop4043" />
    </linearGradient>
    <filter
       inkscape:collect="always"
       id="filter4035"
       x="-0.057158064"
       width="1.1143161"
       y="-0.2455022"
       height="1.4910043">
      <feGaussianBlur
         inkscape:collect="always"
         stdDeviation="1.6462713"
         id="feGaussianBlur4037" />
    </filter>
    <radialGradient
       inkscape:collect="always"
       xlink:href="#linearGradient3711"
       id="radialGradient1962"
       cx="-2318.4272"
       cy="-2889.2231"
       fx="-2318.4272"
       fy="-2889.2231"
       r="103.78379"
       gradientTransform="matrix(1,0,0,1.7857142,0,2270.1036)"
       gradientUnits="userSpaceOnUse" />
    <filter
       inkscape:collect="always"
       style="color-interpolation-filters:sRGB"
       id="filter1992"
       x="-0.066857137"
       width="1.1337143"
       y="-0.037440002"
       height="1.07488">
      <feGaussianBlur
         inkscape:collect="always"
         stdDeviation="5.7822395"
         id="feGaussianBlur1994" />
    </filter>
    <radialGradient
       inkscape:collect="always"
       xlink:href="#linearGradient3711"
       id="radialGradient1954"
       cx="-4016.0334"
       cy="-3026.366"
       fx="-4016.0334"
       fy="-3026.366"
       r="66.891891"
       gradientTransform="matrix(1,0,0,2.4961038,0,4527.7577)"
       gradientUnits="userSpaceOnUse" />
    <filter
       inkscape:collect="always"
       style="color-interpolation-filters:sRGB"
       id="filter2012"
       x="-0.070714287"
       width="1.1414286"
       y="-0.024146343"
       height="1.0482928">
      <feGaussianBlur
         inkscape:collect="always"
         stdDeviation="3.0579152"
         id="feGaussianBlur2014" />
    </filter>
  </defs>
  <sodipodi:namedview
     id="base"
     pagecolor="#ffffff"
     bordercolor="#666666"
     borderopacity="1.0"
     inkscape:pageopacity="0.0"
     inkscape:pageshadow="2"
     inkscape:zoom="0.703125"
     inkscape:cx="239.22245"
     inkscape:cy="256"
     inkscape:document-units="px"
     inkscape:current-layer="g2044"
     showgrid="false"
     inkscape:showpageshadow="false"
     units="px"
     inkscape:lockguides="true"
     inkscape:window-width="1280"
     inkscape:window-height="998"
     inkscape:window-x="0"
     inkscape:window-y="0"
     inkscape:window-maximized="1"
     inkscape:snap-global="false" />
  <metadata
     id="metadata1069">
    <rdf:RDF>
      <cc:Work
         rdf:about="">
        <dc:format>image/svg+xml</dc:format>
        <dc:type
           rdf:resource="http://purl.org/dc/dcmitype/StillImage" />
        <dc:title></dc:title>
        <dc:date>2017</dc:date>
        <dc:creator>
          <cc:Agent>
            <dc:title>Cristian Pozzessere &quot;ilnanny&quot;</dc:title>
          </cc:Agent>
        </dc:creator>
        <dc:subject>
          <rdf:Bag>
            <rdf:li>Global language</rdf:li>
          </rdf:Bag>
        </dc:subject>
        <dc:description>Playing with Inkscape on Gnu/Linux O. S.</dc:description>
        <dc:contributor>
          <cc:Agent>
            <dc:title>In the night, alone like a dog.</dc:title>
          </cc:Agent>
        </dc:contributor>
        <cc:license
           rdf:resource="http://creativecommons.org/licenses/by-sa/4.0/" />
      </cc:Work>
      <cc:License
         rdf:about="http://creativecommons.org/licenses/by-sa/4.0/">
        <cc:permits
           rdf:resource="http://creativecommons.org/ns#Reproduction" />
        <cc:permits
           rdf:resource="http://creativecommons.org/ns#Distribution" />
        <cc:requires
           rdf:resource="http://creativecommons.org/ns#Notice" />
        <cc:requires
           rdf:resource="http://creativecommons.org/ns#Attribution" />
        <cc:permits
           rdf:resource="http://creativecommons.org/ns#DerivativeWorks" />
        <cc:requires
           rdf:resource="http://creativecommons.org/ns#ShareAlike" />
      </cc:License>
    </rdf:RDF>
  </metadata>
  <g
     inkscape:label="Livello 1"
     inkscape:groupmode="layer"
     id="layer1"
     transform="translate(0,-610.5197)">
    <g
       transform="matrix(0.16407513,0,0,-0.16407513,697.00768,1458.3123)"
       id="g2044">
      <rect
         style="opacity:1;fill:#f0e7fc;fill-opacity:1;fill-rule:evenodd;stroke:none;stroke-width:18.28430557;stroke-linecap:round;stroke-linejoin:miter;stroke-miterlimit:4;stroke-dasharray:none;stroke-dashoffset:0;stroke-opacity:1;paint-order:markers stroke fill"
         id="rect2307"
         width="3120.5217"
         height="3120.5217"
         x="-4248.1006"
         y="-5167.1001"
         transform="scale(1,-1)"
         inkscape:export-xdpi="96"
         inkscape:export-ydpi="96" />
      <g
         id="g3756"
         transform="translate(74.994258,-82.346215)">
        <path
           style="opacity:0.96799999;fill:#414141;fill-opacity:1;fill-rule:evenodd;stroke:none;stroke-width:36.3875885;stroke-linecap:round;stroke-linejoin:miter;stroke-miterlimit:4;stroke-dasharray:none;stroke-dashoffset:0;stroke-opacity:0.98237885;paint-order:markers stroke fill"
           d="m -1452.8168,4105.3856 c -132.4446,-311.6276 -436.622,-368.4638 -572.538,-239.855 -98.3218,93.0356 -95.2212,349.9525 60.6817,357.9256 162.6439,0 511.8563,-40.6354 511.8563,-118.0706 z"
           id="path1708"
           inkscape:connector-curvature="0"
           sodipodi:nodetypes="cscc" />
        <path
           style="color:#000000;font-style:normal;font-variant:normal;font-weight:normal;font-stretch:normal;font-size:medium;line-height:normal;font-family:sans-serif;font-variant-ligatures:normal;font-variant-position:normal;font-variant-caps:normal;font-variant-numeric:normal;font-variant-alternates:normal;font-feature-settings:normal;text-indent:0;text-align:start;text-decoration:none;text-decoration-line:none;text-decoration-style:solid;text-decoration-color:#000000;letter-spacing:normal;word-spacing:normal;text-transform:none;writing-mode:lr-tb;direction:ltr;text-orientation:mixed;dominant-baseline:auto;baseline-shift:baseline;text-anchor:start;white-space:normal;shape-padding:0;clip-rule:nonzero;display:inline;overflow:visible;visibility:visible;opacity:1;isolation:auto;mix-blend-mode:normal;color-interpolation:sRGB;color-interpolation-filters:linearRGB;solid-color:#000000;solid-opacity:1;vector-effect:none;fill:#414141;fill-opacity:0.96862745;fill-rule:nonzero;stroke:#414141;stroke-width:28.37559319;stroke-linecap:round;stroke-linejoin:miter;stroke-miterlimit:4;stroke-dasharray:none;stroke-dashoffset:0;stroke-opacity:0.96862745;color-rendering:auto;image-rendering:auto;shape-rendering:auto;text-rendering:auto;enable-background:accumulate"
           d="m -3259.259,2250.7235 c -322.1654,0 -511.2086,154.7339 -648.5855,343.1581 -5e-4,7e-4 0,0 0,0 a 17.73652,17.73652 0 0 0 -0.01,0.013 c -66.0705,90.6059 -131.3322,189.0199 -153.254,328.7356 -43.5983,277.0676 39.7977,530.5143 157.8373,693.2771 l 0.02,0.029 0.023,0.029 c 22.3588,30.5678 47.3013,58.723 72.8307,85.6865 l 1.4779,1.5611 1.8103,1.1637 c 16.7685,10.7794 34.6818,19.9608 53.062,28.3461 -2.6693,3.5316 -4.4431,7.5353 -4.6276,10.2289 -0.3337,4.8734 0.6756,7.2075 1.3966,9.1445 0.3604,0.9684 0.7193,1.7764 1.1509,2.6158 0.4316,0.8396 0.088,0.9854 2.5974,3.8832 l 0.6983,0.8055 0.7906,0.7168 c 72.056,65.3949 141.7214,125.3418 181.1032,212.6008 0.01,0.011 0.01,0.022 0.015,0.033 33.4394,74.535 54.3546,162.7753 71.5708,256.6126 24.703,134.5889 64.423,256.1814 134.7102,350.8579 l 0.027,0.037 0.027,0.037 c 2.5101,3.3443 5.0292,5.8014 7.2288,7.698 -2.0039,2.1338 -4.3698,3.8421 -7.3563,5.6252 l 0.1312,-0.078 c -35.7565,20.9362 -70.2853,45.332 -99.3146,77.0981 l -0.031,0.033 -0.029,0.033 c -44.3381,49.0179 -87.3564,102.798 -115.4681,169.3963 -10.2988,24.0531 -22.7973,53.9132 -19.9441,90.6061 1.3574,18.7456 6.9545,37.0977 18.409,51.9481 11.46,14.8573 29.521,25.54 51.0502,27.0233 17.8409,1.2824 33.6218,-4.2719 45.1885,-8.4 l 0.1422,-0.052 0.1405,-0.052 c 28.6243,-10.7664 49.4107,-30.0319 67.8021,-46.1085 l 0.026,-0.022 c 63.3307,-54.9582 110.4311,-125.5767 154.4049,-194.9289 v 0 c 12.0508,-18.8194 23.5421,-38.858 33.4596,-52.5909 1.1205,0.5999 2.5627,1.459 3.9662,2.5863 37.5464,30.2119 81.3668,53.2849 131.8542,69.4075 l 0.087,-0.5616 c 2.8457,0.9305 5.297,1.4022 5.3093,1.4022 l 5.3038,-34.0471 c 2.5871,0.8519 5.488,2.0741 7.1567,3.7429 3.5063,3.5063 3.7526,5.4947 4.1085,6.523 l -2.9188,-8.4333 -8.5108,-2.6805 c -25.7421,-8.1095 -49.2231,-18.4196 -71.0074,-30.548 -2.5111,-54.1517 15.0175,-115.1798 46.2028,-162.5667 32.9668,-50.0942 79.6665,-84.0534 132.3806,-84.87 60.1733,-0.8249 127.958,38.0279 167.1481,90.5174 l 7.4652,9.9961 11.9304,-3.6467 c 9.983,-3.0513 16.1902,-8.5186 20.6535,-11.7955 4.4634,-3.2769 6.6547,-4.1772 7.3119,-4.2544 h 0.026 0.025 c 38.0891,-4.5857 61.5929,-16.9446 93.028,-12.7764 l 0.052,0.01 0.054,0.01 c 37.5058,4.7455 59.6438,21.7157 79.6327,44.2204 19.989,22.5047 36.126,50.8242 59.2674,74.0814 l 0.011,0.01 0.01,0.011 c 18.0603,18.0905 38.0683,34.4648 48.0278,48.3992 4.9798,6.9672 7.2315,12.7081 7.5059,17.4041 0.2745,4.696 -0.7321,9.4887 -6.7614,17.1917 l -37.5828,48.0149 57.4734,-20.3673 c 55.3141,-19.6036 104.9123,-42.8559 150.7436,-70.6526 14.4624,-8.6343 29.0688,-18.3353 43.1619,-30.9564 l 1.1048,-0.9901 c 21.8266,84.6805 58.7294,154.9443 102.928,216.168 l 0.01,0.01 0.01,0.01 c 61.8271,85.42 134.0504,162.3579 236.661,210.4652 l 2.2223,1.0419 12.2407,2.0156 -1.4779,-0.3086 c 53.5872,13.5936 100.2484,-14.9696 116.0259,-54.937 7.6685,-19.1867 12.4392,-43.091 7.6056,-67.7136 -23.1045,-118.5982 -91.3636,-196.4128 -152.4652,-271.0164 l -0.046,-0.058 c -45.0635,-55.4879 -93.6882,-107.4316 -145.061,-155.5004 0.35,-2.7969 1.4438,-4.7512 3.39,-7.5299 2.9043,-4.1467 8.4251,-8.9674 14.0677,-16.994 0.1061,-0.1457 0.2176,-0.2611 0.3232,-0.4082 l 0.1497,-0.2107 0.07,-0.1034 0.01,-0.01 0.035,-0.052 0.033,-0.05 c 3.6659,-5.4301 7.2227,-10.9531 10.6723,-16.5689 17.2481,-28.0792 31.802,-58.4791 43.7475,-91.2103 2.3891,-6.5462 4.6745,-13.1855 6.8556,-19.9183 4.3623,-13.4656 8.3104,-27.3051 11.849,-41.5178 5.308,-21.319 9.6949,-43.4794 13.181,-66.4831 3.4861,-23.0037 6.0704,-46.8505 7.7719,-71.543 0.5672,-8.2309 1.0361,-16.5559 1.4076,-24.9746 l -35.4343,-1.563 c -1.4362,32.5392 -4.3647,63.4226 -8.7954,92.6973 -4.4305,29.2749 -10.3625,56.9403 -17.8049,83.0411 -5.5817,19.5757 -12.0131,38.2717 -19.2976,56.1065 -2.4282,5.945 -4.9526,11.7939 -7.5705,17.5481 -5.2358,11.5088 -10.8499,22.6383 -16.8462,33.3931 -2.9982,5.3775 -6.0924,10.6613 -9.2812,15.8523 -2.5042,4.0767 -5.1149,8.049 -7.7368,12.0116 -11.067,-7.2622 -21.0098,-14.1229 -27.7474,-19.4658 l -0.041,-0.031 -0.043,-0.033 c -44.7594,-35.0623 -83.9165,-92.3419 -103.1552,-153.7788 -19.2372,-61.4317 -18.7569,-126.0822 11.5571,-178.7236 v -0.01 c 0,0 0,-0.01 0,-0.01 51.9014,-89.9274 132.9083,-127.9355 220.2471,-131.4477 l 16.3363,-0.6577 0.6706,-16.3363 c 4.1135,-100.181 18.0554,-196.1688 36.5982,-284.2048 l 0.2458,-1.1694 0.087,-1.1916 c 0.1761,-2.407 0.3447,-4.9177 0.5338,-7.358 v -0.01 -0.01 c 11.4662,-149.6286 22.1373,-293.2032 2.0081,-445.9624 l -0.1423,-1.0825 -0.2734,-1.0549 c -43.8157,-168.8579 -122.9732,-304.4867 -214.8214,-428.1149 l -13.2881,6.645 c -22.62,-66.6234 -65.8065,-113.9133 -105.8487,-157.3294 l 0.019,0.022 c -125.267,-136.2644 -280.2531,-246.9852 -463.7469,-324.1394 l -0.5044,-0.2125 -0.5153,-0.1792 c -146.2527,-51.1475 -306.027,-89.6437 -495.0877,-97.0146 l -0.3454,-0.013 z m 0,35.4695 h 6.1463 c 184.7069,7.2308 340.2934,44.6548 483.9793,94.8642 178.6793,75.2129 329.1157,182.7692 450.8856,315.2296 l 0.01,0.01 0.01,0.011 c 51.9545,56.3322 101.3904,110.0203 110.8274,202.0819 l 0.1347,1.332 0.3363,1.2968 c 55.0926,213.196 6.0605,477.854 -92.5698,607.9582 l -0.01,0.01 -0.01,0.01 c -60.4206,79.8976 -144.1674,139.3465 -236.1012,189.7359 v 0 0 c -172.2472,94.4481 -399.6139,149.3013 -670.3439,132.8553 l -49.3875,-5.4921 -0.064,-0.01 -0.096,-0.011 c -133.0228,-16.0327 -267.455,-29.156 -368.6942,-72.0012 -63.0473,-26.7856 -131.0366,-46.2583 -182.0564,-78.5483 -24.3804,-25.8284 -47.7261,-52.3192 -68.3231,-80.4751 -112.3866,-154.9875 -193.4819,-400.0413 -151.4861,-666.9115 v 0 -0.01 c 20.6543,-131.6371 81.448,-223.6164 146.8751,-313.3397 0,0 0.01,-0.01 0.01,-0.01 133.8162,-183.5411 308.955,-328.5861 619.9255,-328.5861 z m 1110.1618,632.3139 c 66.8885,100.6815 122.3796,210.3259 156.2838,340.4369 19.3416,147.8769 9.09,288.3171 -2.3424,437.5051 -0.1769,2.2828 -0.3197,4.396 -0.4618,6.3845 -17.7662,84.6118 -31.2878,176.6338 -36.2307,272.899 -91.3079,8.0454 -178.7527,53.4104 -233.3911,148.0906 v 0.01 0.01 c -36.4747,63.3272 -36.0938,138.6474 -14.6774,207.0384 21.4103,68.3714 63.6453,130.7543 115.0875,171.0682 7.6048,6.0283 17.6853,12.9962 28.7192,20.273 -3.8609,8.2247 -6.3478,18.6048 -4.8475,30.0346 l 0.8332,6.3476 4.6959,4.3505 c 52.2,48.3759 101.5244,100.8788 147.1283,157.0375 l 0.022,0.029 0.024,0.027 c 61.6166,75.2354 123.9824,146.7568 145.1423,255.4044 v 0.013 0.013 c 3.0873,15.7237 -0.057,33.5278 -5.7508,47.7582 l -0.017,0.043 -0.017,0.041 c -9.2811,23.5392 -36.497,43.1951 -74.3215,33.5999 l -0.7315,-0.1865 -7.9696,-1.3135 c -94.1598,-44.7209 -161.289,-115.7289 -220.9213,-198.1137 l -0.013,-0.017 c -51.1671,-70.8808 -91.2809,-152.645 -108.544,-257.3459 l -2.4497,-14.8491 h -27.6939 l -3.2125,1.3079 c -6.5712,2.6731 -6.7157,3.8222 -9.5767,6.331 -2.8611,2.5087 -6.0892,4.7591 -9.054,11.7529 l -0.035,0.083 -0.035,0.081 c -5.7277,13.8999 -4.6192,27.1147 -3.0408,37.86 -9.6574,7.797 -19.7895,14.5012 -30.5573,20.927 l -0.056,0.033 -0.054,0.033 c -34.0812,20.6721 -70.436,38.7112 -110.0921,54.6323 -0.01,-0.1821 0.01,-0.3668 0,-0.5487 -0.8059,-13.7866 -6.7292,-25.7027 -14.0585,-35.9572 -14.6527,-20.5005 -35.7923,-36.8226 -51.7615,-52.8144 l -0.01,-0.01 c 0,0 -0.01,-0.01 -0.013,-0.011 -18.3925,-18.493 -34.711,-46.5216 -57.8707,-72.5961 -23.16,-26.0749 -54.8625,-49.914 -101.6533,-55.8479 -41.9827,-5.5488 -70.6521,8.9585 -101.8214,12.7229 -11.2605,1.3227 -18.9149,7.0354 -24.1655,10.8903 -0.2275,0.167 -0.3392,0.2308 -0.5597,0.3916 -46.1784,-54.6557 -116.2355,-93.3049 -186.1539,-92.3371 h -0.015 -0.015 c -67.519,1.041 -124.0413,43.9599 -161.473,100.8387 -30.983,47.0797 -49.8585,104.3202 -52.0756,160.0173 -4.6483,-3.3637 -9.207,-6.8226 -13.6557,-10.4026 l -0.01,-0.01 -0.01,-0.01 c -5.498,-4.4157 -12.2334,-9.077 -21.9099,-10.8126 -9.6763,-1.7357 -23.1902,2.4034 -30.6238,11.7363 l -0.1608,0.2032 -0.1551,0.2069 c -12.6884,16.9213 -24.7344,38.5794 -36.6592,57.2019 l -0.02,0.035 -0.022,0.033 c -43.6622,68.8631 -89.2317,136.4334 -147.7636,187.2198 l -0.024,0.021 -0.024,0.022 c -18.7047,16.3486 -36.2958,31.8366 -56.8898,39.6132 -10.489,3.7316 -22.579,6.9475 -30.5646,6.3696 h -0.035 -0.033 c -12.066,-0.825 -19.3551,-5.4396 -25.4217,-13.3047 -6.0666,-7.8651 -10.1706,-19.6492 -11.123,-32.8905 v -0.054 l -0.01,-0.056 c -2.1313,-27.2786 7.0526,-50.2608 17.2063,-73.9742 l 0.018,-0.043 0.019,-0.042 c 25.7156,-60.941 65.7592,-111.5043 109.0742,-159.3947 25.6633,-28.0753 57.0754,-50.5097 91.0292,-70.3903 l 0.066,-0.039 0.064,-0.039 c 10.2708,-6.132 20.4869,-15.8277 26.6354,-29.6114 3.2718,-7.1168 1.1979,-16.4019 -1.4723,-20.7238 -2.6839,-4.3441 -5.2275,-6.3753 -7.3526,-8.2079 -4.2455,-3.6613 -7.4313,-6.4409 -7.491,-6.5175 -65.3751,-88.0918 -104.0961,-204.4331 -128.2536,-336.0494 v 0 c -17.4222,-94.9595 -38.6612,-185.7557 -74.1128,-264.7631 l -0.01,-0.017 -0.01,-0.016 c -31.5962,-70.0276 -80.0014,-122.6751 -131.6398,-171.2826 55.9492,21.6423 112.5581,43.8733 179.3056,57.7045 h 0.01 0.01 c 108.2272,22.327 229.2956,34.1669 347.3091,42.9938 h 0.01 0.01 c 49.1819,3.6227 92.8453,-0.6895 138.6599,-2.9909 h 0.043 c 221.1144,-10.5615 400.2423,-67.7866 548.6336,-156.4943 88.8764,-53.0002 172.5841,-114.5969 230.7493,-203.0887 l 0.013,-0.023 0.015,-0.022 c 77.8067,-119.1447 121.3342,-275.934 115.6046,-473.8189 l -0.022,-0.7777 -0.091,-0.7704 c -5.1178,-43.7416 -11.0805,-88.1031 -19.1167,-131.0948 z m -450.431,1158.0512 a 17.73652,17.73652 0 0 0 -2.9429,0.1256 h -529.0423 l 39.3268,31.566 c 27.1406,21.7836 56.1597,39.1617 86.2962,52.2824 -2.4602,13.3624 -0.723,26.5339 2.1263,38.187 7.3911,32.4332 22.5884,56.764 42.5376,77.1757 l 0.301,0.3085 0.3179,0.2937 c 1.9479,1.8083 3.9693,3.4384 6.2329,4.9916 2.2637,1.5533 3.7813,3.1501 9.527,4.5649 l 0.3158,0.078 0.3178,0.066 c 23.7265,4.9288 46.4886,-9.0402 51.5397,-30.1601 l 0.017,-0.072 0.017,-0.072 c 5.2098,-22.616 4.3619,-45.159 0.5966,-65.7036 42.6364,4.466 85.6523,1.9301 127.5405,-6.5673 -8.0338,30.5469 -6.6082,65.1323 9.4937,94.2546 4.5963,8.6653 11.6891,13.5102 18.6418,16.5525 13.8167,6.5823 28.5868,3.9183 39.6797,-3.8518 22.7388,-15.709 33.0656,-43.8765 36.9603,-72.8123 3.0159,-22.4065 1.9057,-45.9056 -6.0945,-66.254 25.5951,-11.5447 50.2,-25.2632 73.3461,-41.2056 a 17.73652,17.73652 0 0 0 9.4068,-19.9515 17.73652,17.73652 0 0 0 0,-0.011 17.73652,17.73652 0 0 0 -0.031,-0.1107 17.73652,17.73652 0 0 0 -0.4009,-1.4281 17.73652,17.73652 0 0 0 -16.0241,-12.2462 z m -423.9565,35.5951 h 357.8594 c -10.3047,5.1155 -20.7403,9.9768 -31.4219,14.2802 l -22.4456,9.0447 -20.7349,5.9097 c -56.1706,16.0099 -115.211,20.1784 -172.2616,10.2437 l -28.8855,-5.0304 8.9542,27.9193 c 7.099,22.1306 10.7771,49.1065 5.2355,73.2962 -0.3515,1.4324 -2.127,4.3095 -7.9271,3.7779 -0.4144,-0.3227 -0.8076,-0.6159 -1.1453,-0.9163 -16.4918,-16.9734 -27.0351,-33.8269 -32.9663,-59.9878 l -0.033,-0.1515 -0.037,-0.1515 c -2.875,-11.7186 -3.1014,-22.0561 0.1293,-29.63 l 0.1072,-0.2549 0.1,-0.2568 c 0.454,-1.1634 0.903,-2.311 1.3449,-3.4342 l 6.5562,-16.6615 -16.7242,-6.3955 c -15.5481,-5.9464 -30.8128,-13.1569 -45.7039,-21.6013 z m 314.4093,36.0939 4.611,5.4885 0.521,0.7667 c 8.0642,11.8423 12.1008,35.9503 9.0614,58.5321 -3.0395,22.5816 -13.4684,42.5099 -21.993,48.3844 l -0.072,0.05 -0.072,0.052 c -1.3247,0.9325 -3.8856,1.0175 -4.1381,0.8941 l -0.4101,-0.1995 -0.4212,-0.1792 c -1.6114,-0.6871 -2.2297,-1.7899 -1.6941,-0.7722 l -0.098,-0.1829 -0.1,-0.1829 c -14.4769,-26.0068 -10.4809,-68.5621 3.8979,-93.6321 z"
           id="path1703"
           inkscape:connector-curvature="0" />
        <path
           mask="none"
           clip-path="none"
           inkscape:connector-curvature="0"
           id="path26"
           style="fill:#faf6f8;fill-opacity:1;fill-rule:nonzero;stroke:none;stroke-width:0.94585311"
           d="m -2148.1361,3057.4221 c 5.6468,195.0255 -37.1531,347.8848 -112.7268,463.6099 -55.9472,85.1174 -137.1392,145.198 -225.0279,197.6077 -145.8978,87.2171 -321.8738,143.571 -540.4226,154.0038 -46.3468,2.3268 -89.1278,6.5075 -136.5103,3.0173 -117.7331,-8.8059 -238.1743,-20.6291 -345.0481,-42.6769 -92.8894,-19.2482 -166.7956,-55.654 -249.657,-83.9634 -6.0639,-2.0809 -3.547,3.2537 -3.1374,3.7266 71.8073,65.1693 144.0288,126.8579 185.3654,218.4732 34.4499,76.7749 55.5282,166.2999 72.8487,260.7055 24.4333,133.1194 63.6607,252.0982 131.5067,343.4866 5.2249,6.9614 16.9071,12.069 14.4101,17.3942 -4.5931,10.4328 -11.4874,16.9402 -19.6303,21.8019 -34.8603,20.4115 -67.8356,43.8308 -95.184,73.7576 -43.8384,48.4655 -85.3812,100.6483 -112.2983,164.4366 -10.2304,23.8922 -21.085,50.3288 -18.5841,82.3365 2.3022,32.0077 19.4117,60.3171 53.0235,62.6155 12.9422,0.9364 26.9304,-3.4713 37.9817,-7.4155 24.6442,-9.2694 43.8526,-26.6731 62.4225,-42.9039 60.948,-52.8826 107.292,-121.9961 151.119,-191.1191 12.3254,-19.2481 24.4295,-40.8135 35.9122,-56.1269 7.9404,-9.9693 19.1942,-4.8617 27.5555,1.8539 35.7428,28.7634 77.4805,50.8017 126.1446,66.3421 -0.047,0 -0.104,0 -0.1891,-0.2459 -30.1444,-9.4964 -57.5987,-21.7925 -82.7414,-36.6329 -11.0731,-122.2421 75.1462,-274.1461 195.383,-275.9999 67.6474,-0.9364 139.2012,40.823 181.6227,97.6404 11.3881,-3.4808 19.163,-15.3039 31.0808,-16.7038 34.6466,-4.1712 60.7427,-17.6212 97.4796,-12.7501 84.3228,10.6692 107.7043,81.6366 149.2462,123.3865 34.0318,34.0886 82.3176,65.4058 50.1869,106.4558 54.3109,-19.2481 102.7575,-41.9769 147.4964,-69.1135 13.9797,-8.3424 27.5527,-17.3942 40.5014,-28.9904 -1.6742,-12.2866 -4.1807,-27.1365 0.4067,-38.2692 1.4755,-3.4807 7.3115,-7.8979 8.9856,-8.5789 h 9.1748 c 17.7442,107.6192 59.2766,192.273 111.6769,264.8578 60.9507,84.2093 130.8871,158.421 229.8234,204.8056 l 9.8179,1.6174 c 45.7131,11.5962 82.6581,-12.5231 95.1812,-44.2848 6.6872,-16.7133 10.6503,-37.5788 6.6872,-57.7633 -22.133,-113.6442 -87.463,-188.3194 -148.83,-263.2498 -46.1387,-56.8174 -96.0325,-109.9271 -148.8394,-158.8655 -2.9227,-22.2654 12.9298,-31.5537 20.8749,-43.1498 56.3634,-83.4905 86.6213,-190.6462 92.4666,-323.0751 -5.8453,132.4289 -36.1032,239.5846 -92.4666,323.0751 -2.5065,3.4902 -5.6278,6.9709 -8.768,10.4422 -17.5456,-10.8963 -32.3482,-21.102 -42.5823,-29.2174 -96.2217,-75.3751 -162.8192,-239.3576 -96.023,-355.3287 54.8784,-95.096 142.7008,-136.6095 234.9026,-140.3173 4.1617,-101.3576 18.2549,-198.3075 36.9639,-287.1326 0.1703,-2.3268 0.3405,-4.8712 0.5392,-7.4344 11.4637,-149.5962 21.9438,-291.7673 2.1092,-442.2904 -43.0931,-166.0729 -120.8327,-299.4287 -211.89,-421.9924 19.8156,66.8151 30.8916,143.2022 39.6596,218.1421 z"
           sodipodi:nodetypes="ccccccccccccccccccccccccccccccccccccccccccccccccccccccc" />
        <path
           mask="none"
           clip-path="none"
           inkscape:connector-curvature="0"
           id="path22"
           style="fill:#e2c7c0;fill-opacity:1;fill-rule:nonzero;stroke:none;stroke-width:0.94585311"
           d="m -3894.057,2610.0904 c -65.752,90.1681 -128.7841,185.3683 -150.0732,321.0509 -42.7998,271.98 39.4528,521.2407 154.6728,680.1157 21.7102,29.6808 46.1397,57.2903 71.394,83.9634 54.4707,35.0154 124.1867,54.5095 186.4068,80.9461 105.1997,44.5213 240.8823,57.2903 373.6451,73.2941 l 50.0933,5.5711 c 273.8633,16.6943 504.7366,-38.7327 680.2869,-134.9922 93.1004,-51.0287 179.1068,-111.7903 241.7223,-194.5903 103.7411,-136.8461 152.1877,-404.1536 95.6068,-623.1091 -10.0166,-97.7161 -63.4573,-155.9428 -115.4319,-212.2968 -123.5757,-134.4246 -276.3689,-243.6045 -457.5659,-319.7929 -145.075,-50.7356 -302.8717,-88.74 -489.9236,-96.0325 -2.1906,0 -4.367,0 -6.5765,0 -316.5685,0 -498.6604,149.8894 -634.2569,335.8725" />
        <path
           mask="none"
           clip-path="none"
           inkscape:connector-curvature="0"
           id="path32"
           style="fill:#ec1535;fill-opacity:1;fill-rule:nonzero;stroke:none;stroke-width:0.94585311"
           d="m -2895.8519,4607.8835 c -20.4493,0.9364 -30.0592,17.8577 -31.5158,36.8788 -1.4566,22.0384 6.8858,39.1962 11.4826,53.1191 2.0809,6.4886 -6.4696,7.4155 -9.8179,4.6347 -12.8636,-10.9057 -30.6362,-20.1751 -49.4398,-23.6652 -23.022,2.3173 -42.1472,12.7595 -51.6814,28.9903 -0.047,2.3174 -0.047,4.6442 -0.1135,6.7251 -0.8323,32.9535 13.573,58.6902 35.0723,70.2863 -5.4387,4.1618 -5.6373,13.9135 -12.9393,10.8868 -6.6872,-2.7714 -15.4458,-3.2348 -22.3505,-1.381 -3.9631,1.1634 -14.1878,13.2231 -16.4862,16.9403 -5.6279,8.8059 -10.849,17.6212 -13.3555,27.6 -9.6004,37.7962 10.8489,68.1865 37.7774,79.7827 17.7536,8.1154 42.7998,7.1885 58.2551,-2.3268 11.8799,-1.8539 21.6978,-11.3692 35.2614,-16.4673 -1.4472,11.8231 -6.6777,26.446 -8.3519,37.1152 -6.2615,43.3674 7.9452,74.6751 35.2803,87.6617 48.8533,4.4077 83.0838,-22.7288 98.5295,-58.9077 1.6742,-4.1712 4.1807,-10.2058 10.6409,-11.1327 3.3483,-0.4635 5.8454,3.4807 6.0534,5.1076 0.8324,16.6943 7.3115,31.3077 10.8584,44.0673 16.9024,20.1845 35.2804,38.9691 61.1684,48.2385 25.869,9.2788 48.6263,-4.6347 59.6928,-19.7116 17.9522,-24.3557 14.4053,-71.1943 6.4601,-98.5768 -1.6647,-5.5711 10.2436,-6.0251 13.9987,-2.7808 11.057,8.3519 18.5765,23.6558 33.1899,28.9904 33.4076,11.3692 69.927,-7.4155 79.5274,-32.9346 3.5469,-44.0673 -20.8655,-67.0232 -44.2376,-85.5808 -5.24,-3.9442 -8.5694,-13.6865 -3.7645,-18.0847 l 30.2579,-29.2363 c 13.7716,-15.5309 19.6264,-49.3925 2.0808,-65.6328 -5.2021,-4.8711 -9.8085,-15.5403 -17.7347,-16.4767 -13.7811,-1.608 -29.8511,4.1901 -45.2969,-0.9175 -1.2391,4.1712 -6.044,2.7808 -6.4791,-1.3904 -0.4918,-4.8712 -1.2012,-9.7518 -2.0998,-14.377 -0.6243,0.4635 -1.2296,1.154 -1.8633,1.6174 -11.4638,-31.3077 -29.3498,-56.3634 -50.3478,-73.0577 -15.2661,-6.725 -33.6818,-9.7423 -55.2662,-8.3424 -43.216,10.4233 -70.3525,44.5308 -95.6068,82.1001 -3.32,-8.1155 -6.6399,-15.7769 -9.9693,-22.9654 -0.454,0.927 -0.8797,1.8634 -1.3053,2.7903 -10.5273,-31.0902 -32.5846,-54.2825 -55.0297,-66.1057 -6.4886,-2.0998 -12.6272,-3.4807 -19.04,-3.4807 -0.5013,0 -1.0027,0 -1.4945,0 z m 216.468,28.9998 c -40.9082,-4.1806 -51.1423,33.6157 -58.2362,67.0137 l -36.737,4.4172 c -1.6741,-53.5731 42.781,-94.6326 94.9732,-71.4309 z m 121.6934,251.8713 c 1.2485,20.1845 -5.0035,48.4749 -28.8107,51.5017 -14.812,1.6174 -46.5454,-13.2325 -49.26,-28.5459 l 15.0391,-4.1712 c 6.025,1.3999 13.0433,2.3268 20.2034,2.3268 17.3658,0 35.5924,-5.3346 42.8282,-21.1114 z m -339.8261,109.7095 c -16.9118,-15.7768 -21.9154,-59.8441 -11.0665,-80.0192 l 4.3888,27.8365 c 23.7882,30.3808 43.1971,33.6345 77.2383,22.2653 0,22.256 -23.1544,39.4232 -45.3914,39.4232 -9.0992,0 -18.028,-2.7808 -25.1692,-9.5058 z m 125.2404,-23.9017 4.3888,-8.5695 c 1.7687,4.4077 3.6321,9.2789 5.6846,13.923 28.0161,13.904 67.392,24.3463 87.4157,-6.7345 -3.7645,28.754 -6.0629,63.079 -45.505,51.7287 -21.5749,-6.271 -33.3602,-25.5191 -41.9107,-44.9942 -3.5659,-1.8633 -6.9426,-3.7172 -10.0734,-5.3535" />
        <path
           mask="none"
           clip-path="none"
           inkscape:connector-curvature="0"
           id="path60"
           style="fill:#000000;fill-opacity:1;fill-rule:nonzero;stroke:none;stroke-width:0.94585311"
           d="m -2842.7328,3664.3761 c 111.1567,11.1327 180.6958,-43.1404 204.5029,-128.4942 10.622,-38.0422 7.7844,-91.3788 -14.4715,-117.8249 -10.9814,-13.223 -26.9568,-26.446 -47.8129,-26.2096 -0.7851,2.3174 -9.4396,1.8634 -7.1601,7.652 2.8754,7.1979 10.9151,13.223 16.5051,18.3306 13.5541,12.9866 24.8381,28.9904 26.5596,53.1097 6.0061,84.4268 -31.6104,130.8209 -89.0237,153.7673 -35.6208,14.3864 -96.3162,17.8672 -125.004,-5.1076 -53.6677,-23.8828 -77.7869,-122.4501 -39.8204,-181.3579 4.3793,-6.9615 14.9067,-12.2961 10.5557,-22.7383 -2.0241,-4.8617 -9.3261,-7.1885 -17.1199,-1.8539 -34.5899,23.8923 -54.5095,99.2768 -32.509,157.0211 18.5198,48.702 54.5852,80.9556 109.8987,92.5423 l 4.8995,1.1634" />
        <path
           mask="none"
           clip-path="none"
           inkscape:connector-curvature="0"
           id="path62"
           style="fill:#000000;fill-opacity:1;fill-rule:nonzero;stroke:none;stroke-width:0.94585311"
           d="m -3581.0799,3618.2185 c 91.848,12.7595 150.8049,-43.8309 166.6215,-120.1423 7.8411,-38.0422 -8.4125,-66.3232 -25.8521,-86.5077 -4.0416,-4.6442 -9.5323,-4.8712 -14.5387,-4.8712 -11.1431,0.227 -9.4916,12.0596 -6.9019,16.9308 6.1301,11.1327 11.5092,24.3462 13.7414,37.3328 11.8893,69.5864 -26.9086,108.5556 -74.4718,124.5499 -75.7893,25.2827 -135.1974,-27.127 -155.607,-82.7999 -20.5279,-55.8905 -0.9052,-126.8673 30.5993,-157.7116 2.9558,-2.7902 0.6318,-11.3691 -4.7397,-10.6692 -27.3749,3.9442 -41.9211,27.1365 -51.6606,52.6462 -34.1831,89.298 4.8513,186.2385 71.5784,216.8652 14.8234,6.952 34.4243,12.0596 51.2312,14.377" />
        <path
           mask="none"
           clip-path="none"
           inkscape:connector-curvature="0"
           id="path64"
           style="fill:#000000;fill-opacity:1;fill-rule:nonzero;stroke:none;stroke-width:0.94585311"
           d="m -2804.0096,3573.9241 c 17.2429,-5.3346 39.6218,-9.9787 52.0503,-19.2575 7.0656,-5.3346 10.9436,1.6268 8.9005,-11.8232 17.9239,-13.9229 17.8483,-51.4922 3.7172,-71.6767 -14.6039,-20.875 -39.4137,-40.5866 -74.59,-33.3981 -23.3436,4.6441 -39.4231,20.875 -42.4215,43.8403 -5.5237,41.7499 13.7527,69.1229 37.8058,85.3538 2.3457,1.3809 11.1327,8.1154 14.5377,6.9614" />
        <path
           mask="none"
           clip-path="none"
           inkscape:connector-curvature="0"
           id="path66"
           style="fill:#000000;fill-opacity:1;fill-rule:nonzero;stroke:none;stroke-width:0.94585311"
           d="m -3559.994,3523.1318 c 3.6141,0.454 7.1383,-0.7094 9.0159,-1.3998 30.4403,-10.6692 57.7377,-44.7673 45.4151,-83.7364 -8.7898,-27.5811 -32.1183,-53.8001 -71.6191,-47.5386 -27.3588,4.4077 -43.4865,24.8192 -50.5322,48.9479 -9.8614,33.3792 10.5775,62.3696 33.2269,78.8558 9.1474,2.5443 21.2439,3.9442 34.4934,4.8711" />
        <path
           id="path68"
           style="fill:#ffcad0;fill-opacity:1;fill-rule:nonzero;stroke:none;stroke-width:0.94585311"
           d="m -3528.1452,4902.6775 c 8.2544,3.9442 18.6881,3.2349 26.5207,-3.2537 71.9851,-59.5982 116.6029,-147.2788 158.054,-237.4943 -23.635,8.5695 -43.7722,21.802 -58.868,39.4232 1.1303,2.3268 -1.7224,5.1076 -4.9847,3.4807 -54.9257,50.3194 -101.6205,110.1635 -125.0701,189.4828 -0.6952,2.5538 1.03,6.9615 4.3481,8.3613 m -2.5822,18.7847 c 27.5177,6.7155 41.2704,-12.5231 54.5265,-25.5097 64.1856,-63.0978 106.5825,-147.7517 148.5765,-232.3961 2.3533,-4.6536 -0.1806,-13.923 -4.9837,-13.4595 -13.3904,0.927 -25.852,4.8712 -36.264,10.4422 -19.0239,10.1963 -35.1299,22.4924 -50.3411,36.6329 -57.8777,53.3556 -107.7753,114.5807 -130.3358,200.3979 -2.0723,7.8884 6.0667,12.9866 9.7177,18.3212 l 9.1039,5.5711 m 1549.9979,34.552 c 2.5159,0.7094 10.376,0.7094 12.088,-0.227 17.8766,-10.4422 17.9523,-35.4884 11.6907,-56.8269 -15.8714,-53.5825 -48.2196,-90.4519 -76.6614,-130.8209 -39.3569,-56.1269 -86.3469,-107.3827 -144.3088,-142.8522 -9.7328,-6.044 -9.9693,9.9598 -10.0922,16.2308 -1.4567,63.7789 29.8795,114.3442 57.5929,159.102 36.2073,58.2172 79.3855,111.7998 136.4772,150.0596 3.6794,2.5443 8.8816,4.1807 13.2136,5.3346 m -6.4413,16.2403 c 18.3685,4.1712 36.0938,-2.7808 42.5161,-15.3134 4.6441,-9.2693 7.2358,-20.8655 6.3467,-29.6714 -7.1885,-73.5401 -48.2669,-115.063 -80.6151,-163.992 -42.0526,-64.0059 -97.2053,-115.7346 -155.2523,-155.1672 -12.2583,-8.1154 -19.0779,3.9442 -21.0925,10.2058 -13.4974,42.6863 1.9484,86.5171 16.0605,118.9883 37.2099,85.5902 89.0805,157.2481 156.8887,212.6845 10.4706,8.5884 23.0599,15.0769 35.1479,22.2654"
           inkscape:connector-curvature="0" />
        <path
           mask="none"
           clip-path="none"
           inkscape:connector-curvature="0"
           id="path70"
           style="fill:#000000;fill-opacity:1;fill-rule:nonzero;stroke:none;stroke-width:3.27820587"
           d="m -3287.2272,4033.1234 c -18.8496,44.1902 -15.2436,94.019 -3.606,141.4547 23.1442,102.0832 67.99,173.6465 131.62,238.7516 8.6872,8.0645 20.9805,16.8828 27.5041,18.4891 54.2871,11.2771 96.9365,-19.3086 106.345,-58.6471 22.7836,-98.9035 7.6383,-202.5931 -19.4397,-287.0069 -80.5455,-13.7029 -160.042,-35.4047 -237.7027,-65.1051 -1.5736,3.9993 -3.1472,8.0316 -4.7207,12.0637 z m 157.7145,327.1322 c -69.4652,-32.9132 -93.3305,-195.3482 -121.5558,-255.6345 l 172.1713,232.3265 c 6.8515,24.9471 -0.6884,33.7982 -14.8831,33.7982 -9.6707,0 -22.4885,-4.0322 -35.7324,-10.4902" />
        <path
           mask="none"
           clip-path="none"
           inkscape:connector-curvature="0"
           id="path72"
           style="fill:#000000;fill-opacity:1;fill-rule:nonzero;stroke:none;stroke-width:3.2096045"
           d="m -2795.9172,4024.1163 c -59.5704,103.8628 -76.6775,263.6369 -13.6088,376.936 7.0611,13.4161 20.5736,23.6227 35.4019,29.9455 24.1041,11.7793 53.8572,7.0612 75.1048,-7.8956 106.2379,-73.2111 140.9337,-326.6094 59.474,-446.2313 -1.1555,-2.3751 -2.5036,-3.9478 -3.8516,-5.5526 -49.8772,20.5093 -100.8136,37.809 -152.5203,52.798 z m 31.0048,319.484 c -33.2838,-38.5474 -44.6136,-172.3557 -29.047,-214.0485 l 72.9543,213.2782 c 0.3209,14.9568 -4.6218,21.2476 -12.6779,21.2476 -8.1525,0 -19.386,-7.0933 -31.2294,-20.4773" />
        <path
           mask="none"
           clip-path="none"
           inkscape:connector-curvature="0"
           id="path74"
           style="fill:#363636;fill-opacity:1;fill-rule:nonzero;stroke:none;stroke-width:0.94585311"
           d="m -2800.7369,3548.8685 c 18.5387,-6.498 41.2865,-12.7501 45.1361,-28.7634 -1.7971,-32.0077 -17.6685,-53.3367 -43.8308,-57.9902 -8.6262,-1.381 -17.12,2.3267 -24.3274,6.2804 -3.2253,1.6174 -5.2022,6.952 -6.1764,11.5962 -6.4885,31.9982 7.406,57.5078 28.0162,67.9501 l 1.1823,0.9269" />
        <path
           mask="none"
           clip-path="none"
           inkscape:connector-curvature="0"
           id="path76"
           style="fill:#363636;fill-opacity:1;fill-rule:nonzero;stroke:none;stroke-width:0.94585311"
           d="m -3579.8787,3495.7588 c 7.1119,1.154 14.0696,3.2443 20.8863,1.6269 14.4281,-3.2537 25.6487,-17.1672 25.889,-34.5615 0.2658,-22.7288 -12.0303,-40.1325 -30.0933,-45.4577 -9.3223,-3.0172 -18.0866,-0.4634 -26.691,5.7981 -22.1055,16.2403 -11.0655,59.1348 8.7198,71.4403 l 1.2892,1.1539" />
        <path
           id="path178"
           style="fill:#444444;fill-opacity:1;fill-rule:nonzero;stroke:none;stroke-width:0.94585311"
           d="m -3070.2294,4804.7912 c 0.038,-0.4635 0.066,-0.6905 0.085,-1.1539 -0.2554,0 -0.5203,0 -0.7662,-0.2365 l 0.681,1.3904 m 249.9417,-127.3213 c 0.4256,-0.9269 0.8513,-1.8633 1.3053,-2.7903 -11.3881,-24.8191 -23.268,-44.3037 -37.6166,-56.8268 -6.8953,-2.3079 -12.9582,-4.6347 -18.7184,-6.4886 22.4451,11.8232 44.5024,35.0155 55.0297,66.1057 z m 212.4954,19.4751 c 0.6337,-0.4634 1.239,-1.1539 1.8633,-1.6174 -6.5926,-33.6345 -23.9868,-58.9077 -52.2111,-71.4403 20.998,16.6943 38.884,41.75 50.3478,73.0577 z m -408.9207,-13.677 c -9.2694,4.1617 -9.9598,14.831 -10.1112,24.5732 9.5342,-16.2308 28.6594,-26.673 51.6814,-28.9903 -4.7198,-0.6905 -9.468,-1.154 -14.2161,-1.154 -9.2789,0 -18.5388,1.6269 -27.3541,5.5711 m 233.796,-146.8248 c -11.9178,1.3999 -19.6927,13.223 -31.0808,16.7038 13.8473,18.3211 24.5828,38.4962 31.0808,59.1442 l 0.1986,1.3904 c -10.6408,7.6614 -19.2008,16.6943 -24.6206,27.1365 28.5837,-54.2636 142.1523,-76.302 191.6204,-25.2732 15.8714,16.4673 29.435,33.8615 34.4385,60.9981 1.0499,6.4885 8.1438,5.5616 12.7407,6.4885 3.7645,0.7 15.8619,-0.4729 19.2103,0.7 29.0093,10.6692 47.5858,35.9424 53.6298,73.2847 3.2538,-1.154 6.4791,-2.3079 9.695,-3.4808 32.1307,-41.05 -16.1551,-72.3672 -50.1869,-106.4558 -41.5419,-41.7499 -64.9234,-112.7173 -149.2462,-123.3865 -5.4765,-0.6999 -10.7071,-1.1634 -15.7768,-1.1634 -28.9431,0 -52.2017,10.2058 -81.7028,13.9135 z m -107.0706,48.475 c 16.3538,0 32.1779,4.1806 45.3064,11.3691 -13.1285,-7.1885 -28.9526,-11.3691 -45.3064,-11.3691 z m 74.4954,40.5865 c 1.7025,3.7172 8.3802,6.9615 8.3802,13.2325 0,-6.271 -6.6777,-9.5153 -8.3802,-13.2325 -2.7903,-6.025 -6.8102,-11.3597 -11.7759,-16.4578 4.9657,5.0981 8.9856,10.4328 11.7759,16.4578 z m -170.4427,26.9096 c 7.983,0 15.8808,0.6904 23.0882,2.0808 1.6174,0.246 4.3415,2.3268 7.5006,2.3268 -3.1591,0 -5.8832,-2.0808 -7.5006,-2.3268 -7.2074,-1.3904 -15.1052,-2.0808 -23.0882,-2.0808 z m -38.2976,6.7344 c -5.8454,2.3079 -16.893,9.9693 -19.1914,19.2481 -2.5538,10.2058 -3.7834,21.0926 -3.7834,32.0077 0,-10.9151 1.2296,-21.8019 3.7834,-32.0077 2.2984,-9.2788 13.346,-16.9402 19.1914,-19.2481 3.2253,-1.3998 6.7061,-2.5632 10.376,-3.4902 -3.6699,0.927 -7.1507,2.0904 -10.376,3.4902 z m -83.8405,109.2366 c 12.9677,4.1618 26.4272,7.879 40.3501,10.8962 -14.0175,-3.2442 -27.5148,-6.952 -40.3501,-10.8962 z m 77.5222,3.2348 c 0.1608,0 0.3216,0 0.4729,0 z m -26.8623,9.9788 c 0.7662,0.2459 1.5323,0.2459 2.2701,0.2459 -0.7378,0 -1.5039,0 -2.2701,-0.2459 -2.9227,-0.6905 -5.817,-1.154 -8.7018,-1.8539 2.8848,0.6999 5.7791,1.1634 8.7018,1.8539 m 548.0841,-8.3424 c 0.085,0.4634 0.1797,1.1539 0.2837,1.6174 1.0121,-0.6905 2.0147,-1.3904 2.9889,-2.0809 -1.1255,0 -2.2133,0.2364 -3.2726,0.4635 m -383.184,-188.3383 c -1.6837,0 -3.3862,0 -5.0793,0.2364 -11.0097,0.9175 -22.1235,3.7078 -32.6981,9.0424 -11.0665,13.9135 -22.5491,34.098 -23.5896,62.3885 -0.2459,0 -0.5107,0 -0.7472,0.2364 -0.227,0 -0.4729,0 -0.7189,0 -3.1591,0 -5.8832,-2.0808 -7.5006,-2.3268 -7.2074,-1.3904 -15.1052,-2.0808 -23.0882,-2.0808 -9.5721,0 -19.2198,0.9269 -27.9216,3.2442 -3.6699,0.927 -7.1507,2.0904 -10.376,3.4902 -5.8454,2.3079 -16.893,9.9693 -19.1914,19.2481 -2.5538,10.2058 -3.7834,21.0926 -3.7834,32.0077 -0.028,23.8828 5.9399,47.7751 17.1294,61.2156 -0.1513,0 -0.3121,0 -0.4729,0 -1.6269,0 -3.1781,0.2365 -4.7104,0.927 -5.3913,2.0998 -10.3949,6.9709 -15.8714,8.5883 -1.3242,0.4635 -2.6295,0.7094 -4.0104,0.7094 -0.7378,0 -1.5039,0 -2.2701,-0.2459 -2.9227,-0.6905 -5.817,-1.154 -8.7018,-1.8539 -0.5297,-0.227 -1.0594,-0.227 -1.608,-0.4635 -13.9229,-3.0172 -27.3824,-6.7344 -40.3501,-10.8962 7.3115,5.3346 16.0985,9.9693 26.4461,13.4595 l 10.7165,21.556 c 0.2459,0.2365 0.5108,0.2365 0.7662,0.2365 -0.019,0.4634 -0.047,0.6904 -0.085,1.1539 l 1.5323,3.0267 c 18.8036,-5.344 40.3028,-18.3212 55.7486,-27.373 -23.0788,-28.5269 -24.7814,-54.0366 -13.8757,-72.6037 0.1514,-9.7422 0.8418,-20.4115 10.1112,-24.5732 13.3649,-6.0346 27.7513,-6.725 41.5702,-4.4171 12.6272,-1.154 26.4556,0.2364 40.4731,4.6441 -24.4787,-77.4654 18.1604,-93.9327 59.3523,-72.1308 5.7602,1.8539 11.8231,4.1807 18.7184,6.4886 14.3486,12.5231 26.2285,32.0077 37.6166,56.8268 38.5908,-84.6538 109.0947,-92.3058 160.8423,-50.7923 28.2243,12.5326 45.6185,37.8058 52.2111,71.4403 50.3667,-38.2692 89.6007,34.7885 96.6,77.9289 1.0593,-0.2271 2.1471,-0.4635 3.2726,-0.4635 8.6924,-6.725 15.2566,-12.996 20.0521,-19.2576 -3.2159,1.1729 -6.4412,2.3268 -9.695,3.4808 -6.044,-37.3423 -24.6205,-62.6155 -53.6298,-73.2847 -3.3484,-1.1729 -15.4458,0 -19.2103,-0.7 -4.5969,-0.9269 -11.6908,0 -12.7407,-6.4885 -5.0035,-27.1366 -18.5671,-44.5308 -34.4385,-60.9981 -49.4681,-51.0288 -163.0367,-28.9904 -191.6204,25.2732 0.1608,-0.6999 0.227,-1.3904 0.227,-2.0809 0,-6.271 -6.6777,-9.5153 -8.3802,-13.2325 -2.7903,-6.025 -6.8102,-11.3597 -11.7759,-16.4578 -4.9657,-4.8712 -10.8489,-9.0518 -17.4131,-12.7596 -13.1285,-7.1885 -28.9526,-11.3691 -45.3064,-11.3691 -0.8607,0 -1.6836,0 -2.5254,0 m -105.2531,-38.2591 c -85.18,1.3133 -146.2608,108.9275 -138.4163,195.5283 17.812,10.5134 37.2616,19.2244 58.617,25.952 -48.4667,-35.8089 -6.1647,-122.7312 59.5295,-119.7694 1.1861,-57.0235 67.5907,-67.5371 111.0652,-54.5577 10.6476,3.2901 24.2501,21.8579 32.3848,22.5145 1.9767,0.1609 3.7725,0 5.4879,-0.4958 -29.6576,-39.7623 -79.4443,-69.1719 -126.8321,-69.1719 -0.6029,0 -1.2262,0 -1.836,0"
           inkscape:connector-curvature="0" />
        <path
           id="path180"
           style="fill:#3a3a3a;fill-opacity:1;fill-rule:nonzero;stroke:none;stroke-width:0.94585311"
           d="m -3024.2325,4599.0776 c -92.7315,-4.1807 -152.4432,118.5154 -84.0296,169.0618 16.1741,5.3441 33.0765,9.7517 50.849,13.4595 10.0072,2.0998 17.7348,-10.4328 27.3352,-9.9788 -16.2687,-19.4751 -21.4898,-61.2156 -13.346,-93.2233 2.2984,-9.2788 13.346,-16.9402 19.1914,-19.2481 17.328,-7.4344 41.9769,-8.3613 61.3858,-4.6536 1.8823,0.246 5.2117,3.0173 8.9667,2.0904 1.0405,-28.2905 12.5231,-48.475 23.5896,-62.3885 44.6726,-22.2654 98.9457,-2.0809 114.7982,31.3077 1.8822,4.1902 9.8274,7.4344 8.1532,15.3134 5.4198,-10.4422 13.9798,-19.4751 24.6206,-27.1365 l -0.1986,-1.3904 c -6.498,-20.648 -17.2335,-40.8231 -31.0808,-59.1442 -2.4213,0.6999 -4.9562,0.9269 -7.7465,0.6999 -11.4827,-0.9269 -30.6835,-27.1365 -45.7131,-31.7807 -15.1431,-4.4076 -32.2914,-6.952 -49.5059,-6.952 -52.5233,0 -106.0113,23.4193 -107.2692,83.9634 m -355.5207,-531.3708 c 32.0001,51.2558 33.3262,111.0999 12.4474,166.7633 -18.0449,48.0115 -58.7015,92.5328 -107.3212,117.3615 -10.918,-38.5057 -20.2431,-78.3923 -27.8468,-119.9058 -14.4915,-79.1017 -31.6492,-154.2497 -57.0511,-221.7364 69.0218,-13.9135 135.8416,-12.7595 179.7717,57.5174 m 1129.3326,70.7403 c -66.7962,115.9711 -0.1987,279.9536 96.023,355.3287 10.2341,8.1154 25.0367,18.3211 42.5823,29.2174 3.1402,-3.4713 6.2615,-6.952 8.768,-10.4422 56.3634,-83.4905 86.6213,-190.6462 92.4666,-323.0751 -6.0534,-64.9517 -7.3019,-128.9576 -4.8049,-191.3461 -92.2491,3.7078 -180.1283,45.2213 -235.035,140.3173 m -239.2158,639.444 c 12.7312,30.8443 32.1496,56.8269 44.039,88.6076 l 29.8606,73.5211 c 6.2615,27.5906 15.0201,52.8732 24.63,78.6193 8.1343,-3.2442 12.5231,-19.4751 15.6444,-29.2268 24.8381,-77.2195 34.2399,-182.7578 19.4278,-273.4462 -41.7594,21.3385 -86.224,43.6039 -133.6018,61.925 m -709.3037,-7.8884 c -4.3859,115.7441 18.3703,208.9768 63.2482,277.6268 17.7348,27.373 37.1626,52.4192 60.3265,77.0019 -0.4161,-0.4634 2.2985,0.927 6.2616,3.0173 l -1.4661,-119.4423 c 7.1128,-18.7941 5.6373,-42.2135 13.7811,-59.3807 2.2984,-4.4077 11.2651,-10.2057 7.9357,-12.5231 -29.643,-19.948 -50.1018,-66.1057 -32.9724,-108.7731 3.3672,-8.1154 10.7543,-15.3228 11.5961,-22.7383 l -0.681,-1.3904 c -40.6622,-15.7579 -81.9298,-32.0077 -118.4274,-50.0924 -6.0554,5.3346 -9.3876,11.8232 -9.6023,16.6943"
           inkscape:connector-curvature="0" />
        <path
           mask="none"
           clip-path="none"
           inkscape:connector-curvature="0"
           id="path182"
           style="fill:#444444;fill-opacity:1;fill-rule:nonzero;stroke:none;stroke-width:1.88439429"
           d="m -3463.295,3909.6987 c 64.9296,42.2953 133.372,72.6718 203.2474,91.7331 4.154,-14.8043 7.99,-30.5239 14.258,-43.6823 11.9198,-27.1837 52.7614,-23.7971 86.938,0.1915 12.6303,16.3947 26.5904,40.0806 38.4705,67.2302 120.8274,8.8889 242.3145,-11.9992 355.0844,-56.6013 8.4376,-18.9603 19.2118,-35.3687 31.937,-47.767 13.0323,-11.9744 39.2717,-6.7023 54.108,8.0721 60.2332,-31.5077 116.9685,-69.6368 168.5816,-113.7713 l -480.092,89.9502 -472.5329,4.6448"
           sodipodi:nodetypes="ccccccccccc" />
        <g
           style="display:inline;opacity:0.78699999"
           id="g3697"
           transform="matrix(13.498993,0,0,-13.498993,-4962.7986,4719.4738)">
          <path
             style="opacity:1;fill:#ffffff;fill-opacity:1;stroke:none;stroke-width:3.95852041;stroke-linecap:square;stroke-linejoin:round;stroke-miterlimit:4;stroke-dasharray:none;stroke-opacity:1;filter:url(#filter3778)"
             d="M 125.27865,113.56338 C 104.43302,114.64866 112.16775,128.56701 84,142.5 h 88 c -27.27331,-15.57755 -20.36617,-27.97425 -41.27865,-28.93662 -1.80468,-0.0824 -1.80468,1.23661 -2.72135,3.87471 -0.91667,-2.6381 -0.91667,-3.95715 -2.72135,-3.87471 z"
             id="path3693"
             sodipodi:nodetypes="cccccc"
             inkscape:connector-curvature="0" />
          <path
             style="opacity:1;fill:#590000;fill-opacity:1;stroke:#590000;stroke-width:6.37541008;stroke-linecap:square;stroke-linejoin:round;stroke-miterlimit:4;stroke-dasharray:none;stroke-opacity:1;filter:url(#filter3461)"
             d="m 84,144.5 c 29.33333,17.5 19.71201,35.00001 44,35 24.28799,0 15.59812,-15.43441 44,-35 z"
             id="path3782"
             sodipodi:nodetypes="cscc"
             transform="matrix(0.999983,0,0,0.8857143,0.00217612,12.771242)"
             inkscape:connector-curvature="0" />
          <path
             sodipodi:nodetypes="cscc"
             id="path2603"
             d="m 80,138 c 32,16 21.50401,32.00001 48,32 26.49599,0 17.01613,-14.11146 48,-32 z"
             style="opacity:1;fill:url(#radialGradient4049);fill-opacity:1;stroke:none;stroke-width:3.95852041;stroke-linecap:square;stroke-linejoin:round;stroke-miterlimit:4;stroke-dasharray:none;stroke-opacity:1"
             inkscape:connector-curvature="0" />
          <path
             sodipodi:nodetypes="cccccc"
             id="path3378"
             d="M 125.03125,118.0625 C 102.29057,118.88527 110.72846,129.43709 80,140 h 96 C 146.2473,128.19031 153.78236,118.79209 130.96875,118.0625 129,118 129,119 128,121 c -1,-2 -1,-3 -2.96875,-2.9375 z"
             style="opacity:1;fill:url(#radialGradient4047);fill-opacity:1;stroke:none;stroke-width:3.95852041;stroke-linecap:square;stroke-linejoin:round;stroke-miterlimit:4;stroke-dasharray:none;stroke-opacity:1"
             inkscape:connector-curvature="0" />
          <path
             id="path3508"
             d="m 120.0625,133.84375 c -10.04135,0.2774 -17.50152,1.1539 -23.53125,2.53125 -2.641891,1.67133 -5.923684,3.42592 -10.125,5.1875 1.781764,1.08436 3.376655,2.15051 4.84375,3.21875 7.122115,-0.94926 15.67437,-1.55825 26.4375,-1.78125 6.29412,-0.11443 6.30301,1.71346 9.5,5.375 3.19701,-3.66154 3.23713,-5.48943 9.53125,-5.375 11.93168,0.21851 21.23092,0.87854 28.90625,1.90625 1.42017,-1.09982 2.9518,-2.2335 4.65625,-3.375 -3.44308,-1.59134 -6.24738,-3.12972 -8.625,-4.59375 -6.75506,-1.73279 -15.28719,-2.79935 -27.34375,-3.09375 -4.72061,-0.11443 -4.72723,1.71347 -7.125,5.375 -2.39774,-3.66153 -2.4044,-5.48942 -7.125,-5.375 z"
             style="opacity:1;fill:#590000;fill-opacity:1;stroke:none;stroke-width:3.95852041;stroke-linecap:square;stroke-linejoin:round;stroke-miterlimit:4;stroke-dasharray:none;stroke-opacity:1;filter:url(#filter3681)"
             inkscape:connector-curvature="0" />
          <path
             sodipodi:type="inkscape:offset"
             inkscape:radius="-3.2807257"
             inkscape:original="M 117.6875 148 C 106.93912 148.22269 98.397521 148.83422 91.28125 149.78125 C 109.7348 163.22655 105.27441 175.00001 128 175 C 150.97178 175 146.9222 164.3858 165.625 149.90625 C 157.94967 148.87854 148.65043 148.21851 136.71875 148 C 130.42463 147.88557 130.38451 149.71346 127.1875 153.375 C 123.99051 149.71346 123.98162 147.88557 117.6875 148 z "
             style="opacity:1;fill:url(#radialGradient3901);fill-opacity:1;stroke:none;stroke-width:3.95852041;stroke-linecap:square;stroke-linejoin:round;stroke-miterlimit:4;stroke-dasharray:none;stroke-opacity:1;filter:url(#filter3963)"
             id="path3899"
             d="m 117.74805,151.2793 c -7.13311,0.14794 -12.98267,0.52649 -18.343753,1 5.413773,5.13604 8.335383,9.81921 11.107423,12.99804 3.67919,4.21911 6.69203,6.44141 17.48828,6.44141 10.9806,0 14.22477,-2.04405 18.02344,-6.08398 2.912,-3.09696 6.02527,-7.79034 11.68554,-13.20704 -6.04499,-0.55674 -12.7122,-0.99573 -21.05078,-1.14843 -2.8295,-0.0514 -3.40996,0.24862 -3.89453,0.61328 -0.48457,0.36466 -1.33354,1.61124 -3.10547,3.64062 a 3.2810538,3.2810538 0 0 1 -4.9414,0 c -1.7754,-2.03337 -2.62422,-3.28638 -3.09961,-3.64648 -0.47474,-0.35961 -1.04189,-0.65783 -3.86133,-0.60742 z"
             transform="translate(0,-5)" />
          <path
             id="path3472"
             d="M 125.03125,118.0625 C 103.73131,118.83314 109.77274,128.14416 85.375,138 H 80 c 0.793091,0.39655 1.539156,0.7912 2.28125,1.1875 C 81.54464,139.45778 80.786783,139.72954 80,140 h 3.75 c 27.41478,15.30832 18.85555,30.00001 44.25,30 25.49628,0 17.70621,-13.07484 44.6875,-30 H 176 c -0.69175,-0.27457 -1.34771,-0.54061 -2,-0.8125 0.65579,-0.39775 1.30427,-0.78582 2,-1.1875 h -4.71875 C 147.025,127.14173 152.48217,118.75051 130.96875,118.0625 129,118 129,119 128,121 c -1,-2 -1,-3 -2.96875,-2.9375 z"
             style="opacity:1;fill:none;fill-opacity:1;stroke:url(#linearGradient3486);stroke-width:7;stroke-linecap:square;stroke-linejoin:round;stroke-miterlimit:4;stroke-dasharray:none;stroke-opacity:1;filter:url(#filter3504)"
             clip-path="url(#clipPath3474)"
             inkscape:connector-curvature="0" />
          <path
             sodipodi:type="inkscape:offset"
             inkscape:radius="-2.9216661"
             inkscape:original="M 125.03125 123.0625 C 102.29057 123.88527 110.72846 134.43709 80 145 L 176 145 C 146.2473 133.19031 153.78236 123.79209 130.96875 123.0625 C 129 123 129 124 128 126 C 127 124 127 123 125.03125 123.0625 z "
             style="opacity:1;fill:url(#radialGradient4045);fill-opacity:1;stroke:none;stroke-width:3.95852041;stroke-linecap:square;stroke-linejoin:round;stroke-miterlimit:4;stroke-dasharray:none;stroke-opacity:1;filter:url(#filter4035)"
             id="path3975"
             d="m 131.2207,126.01172 c -0.0962,0.23021 -0.18253,0.44514 -0.60742,1.29492 a 2.9219583,2.9219583 0 0 1 -5.22656,0 c -0.42359,-0.84719 -0.50832,-1.05906 -0.60547,-1.29102 -10.53887,0.43588 -12.87449,2.59295 -17.33008,6.54883 -2.94033,2.61057 -6.91836,5.99193 -13.470701,9.51367 h 69.093751 c -6.89531,-3.85672 -10.96872,-7.37218 -14.06641,-9.96093 -4.50533,-3.76513 -7.13912,-5.71778 -17.78711,-6.10547 z"
             transform="translate(0,-5)" />
        </g>
        <ellipse
           style="opacity:0.368;fill:url(#radialGradient1962);fill-opacity:1;fill-rule:evenodd;stroke:none;stroke-width:30;stroke-linecap:round;stroke-linejoin:miter;stroke-miterlimit:4;stroke-dasharray:none;stroke-dashoffset:0;stroke-opacity:0.96862745;paint-order:markers stroke fill;filter:url(#filter1992)"
           id="path1944"
           cx="-2318.4272"
           cy="-2889.2231"
           transform="matrix(0.94585312,0,0,-0.94585312,-220.53215,277.64616)"
           rx="103.78379"
           ry="185.32819" />
        <ellipse
           style="opacity:0.368;fill:url(#radialGradient1954);fill-opacity:1;fill-rule:evenodd;stroke:none;stroke-width:30;stroke-linecap:round;stroke-linejoin:miter;stroke-miterlimit:4;stroke-dasharray:none;stroke-dashoffset:0;stroke-opacity:0.96862745;paint-order:markers stroke fill;filter:url(#filter2012)"
           id="path1946"
           cx="-4016.0334"
           cy="-3026.366"
           transform="matrix(0.94585312,0,0,-0.94585312,-220.53215,277.64616)"
           rx="51.891895"
           ry="151.96912" />
      </g>
      <text
         xml:space="preserve"
         style="font-style:normal;font-variant:normal;font-weight:normal;font-stretch:normal;font-size:278.82104492px;font-family:'Waltograph UI';-inkscape-font-specification:'Waltograph UI';font-variant-ligatures:normal;font-variant-caps:normal;font-variant-numeric:normal;font-feature-settings:normal;text-align:center;writing-mode:lr-tb;text-anchor:middle;opacity:1;fill:#cbaced;fill-opacity:1;fill-rule:evenodd;stroke:#f6f1fd;stroke-width:8.34138775;stroke-linecap:round;stroke-linejoin:miter;stroke-miterlimit:4;stroke-dasharray:none;stroke-dashoffset:0;stroke-opacity:1;paint-order:markers stroke fill;"
         x="-1735.5449"
         y="-2163.2258"
         id="text3760"
         transform="scale(1,-1)"><tspan
           sodipodi:role="line"
           id="tspan3758"
           x="-1735.5449"
           y="-2163.2258"
           style="font-style:normal;font-variant:normal;font-weight:normal;font-stretch:normal;font-family:'Waltograph UI';-inkscape-font-specification:'Waltograph UI';fill:#cbaced;fill-opacity:1;stroke:#f6f1fd;stroke-width:8.34138775;stroke-miterlimit:4;stroke-dasharray:none;stroke-opacity:1;">MUCCA!</tspan></text>
    </g>
  </g>
</svg>
