<?xml version="1.0" encoding="UTF-8" standalone="no"?>
<!-- Created with Inkscape (http://www.inkscape.org/) -->

<svg
   xmlns:dc="http://purl.org/dc/elements/1.1/"
   xmlns:cc="http://creativecommons.org/ns#"
   xmlns:rdf="http://www.w3.org/1999/02/22-rdf-syntax-ns#"
   xmlns:svg="http://www.w3.org/2000/svg"
   xmlns="http://www.w3.org/2000/svg"
   xmlns:sodipodi="http://sodipodi.sourceforge.net/DTD/sodipodi-0.dtd"
   xmlns:inkscape="http://www.inkscape.org/namespaces/inkscape"
   width="512"
   height="512"
   viewBox="0 0 512 512"
   id="svg4726"
   version="1.1"
   inkscape:version="0.91 r13725"
   sodipodi:docname="Tux-di-Natale.svg">
  <title
     id="title4908">Tux di Natale</title>
  <defs
     id="defs4728" />
  <sodipodi:namedview
     id="base"
     pagecolor="#ffffff"
     bordercolor="#666666"
     borderopacity="1.0"
     inkscape:pageopacity="0.0"
     inkscape:pageshadow="2"
     inkscape:zoom="0.98994949"
     inkscape:cx="247.97648"
     inkscape:cy="216.95424"
     inkscape:document-units="px"
     inkscape:current-layer="g5790"
     showgrid="false"
     units="px"
     inkscape:showpageshadow="false"
     inkscape:window-width="1280"
     inkscape:window-height="971"
     inkscape:window-x="0"
     inkscape:window-y="25"
     inkscape:window-maximized="1"
     inkscape:snap-page="true" />
  <metadata
     id="metadata4731">
    <rdf:RDF>
      <cc:Work
         rdf:about="">
        <dc:format>image/svg+xml</dc:format>
        <dc:type
           rdf:resource="http://purl.org/dc/dcmitype/StillImage" />
        <dc:title>Tux di Natale</dc:title>
        <dc:date>Dicembre-2016</dc:date>
        <dc:creator>
          <cc:Agent>
            <dc:title>Cristian Pozzessere</dc:title>
          </cc:Agent>
        </dc:creator>
        <dc:subject>
          <rdf:Bag>
            <rdf:li>ilnanny</rdf:li>
            <rdf:li>tux</rdf:li>
            <rdf:li>natale</rdf:li>
          </rdf:Bag>
        </dc:subject>
        <dc:rights>
          <cc:Agent>
            <dc:title>ilnanny</dc:title>
          </cc:Agent>
        </dc:rights>
        <cc:license
           rdf:resource="http://creativecommons.org/licenses/by-sa/3.0/" />
      </cc:Work>
      <cc:License
         rdf:about="http://creativecommons.org/licenses/by-sa/3.0/">
        <cc:permits
           rdf:resource="http://creativecommons.org/ns#Reproduction" />
        <cc:permits
           rdf:resource="http://creativecommons.org/ns#Distribution" />
        <cc:requires
           rdf:resource="http://creativecommons.org/ns#Notice" />
        <cc:requires
           rdf:resource="http://creativecommons.org/ns#Attribution" />
        <cc:permits
           rdf:resource="http://creativecommons.org/ns#DerivativeWorks" />
        <cc:requires
           rdf:resource="http://creativecommons.org/ns#ShareAlike" />
      </cc:License>
    </rdf:RDF>
  </metadata>
  <g
     inkscape:label="Livello 1"
     inkscape:groupmode="layer"
     id="layer1"
     transform="translate(0,-540.36216)">
    <g
       id="g4525"
       transform="matrix(1.703247,0,0,-1.703247,-433.57322,1210.7906)">
      <rect
         style="opacity:1;fill:#c6eff2;fill-opacity:1;stroke:none;stroke-width:2.90717912;stroke-linejoin:bevel;stroke-miterlimit:4;stroke-dasharray:none;stroke-opacity:0.3125"
         id="rect5871"
         width="300.60233"
         height="300.60233"
         x="254.55687"
         y="-393.61786"
         transform="scale(1,-1)" />
      <g
         id="g5790"
         transform="matrix(1.1233564,0,0,1.0851383,-49.94183,-27.222497)">
        <path
           inkscape:connector-curvature="0"
           id="path5787"
           style="fill:#ac6a30;fill-opacity:1;fill-rule:nonzero;stroke:none"
           d="m 389.69881,118.29677 c 0,0 0,11.804 -18.688,11.804 -10.318,0 -18.684,-5.285 -18.684,-11.804 0,0 6.251,-3.815 12.336,1.004 0,0 4.12,-4.428 7.045,-5.825 0,0 5.127,2.795 7.156,5.125 0,0 5.177,-4.347 10.835,-0.304"
           clip-path="none"
           mask="none" />
        <path
           inkscape:connector-curvature="0"
           id="path76"
           style="fill:#242526;fill-opacity:1;fill-rule:nonzero;stroke:none"
           d="m 442.107,279.479 c 0,0 12.093,-38.045 38.745,-56.073 26.65,-18.023 -1.628,-21.906 -11.93,-18.847 -12.215,3.621 -24.018,14.978 -27.453,49.687"
           clip-path="none"
           mask="none" />
        <path
           inkscape:connector-curvature="0"
           id="path78"
           style="fill:#121213;fill-opacity:1;fill-rule:nonzero;stroke:none"
           d="m 443.244,264.641 c 0,0 0.284,-23.809 11.355,-42.784 4.861,-8.328 8.603,-11.535 22.218,-18.109 0,0 -13.317,-1.881 -23.675,12.344 0,0 -13.188,13.541 -9.898,48.549"
           clip-path="none"
           mask="none" />
        <path
           inkscape:connector-curvature="0"
           id="path80"
           style="fill:#28292a;fill-opacity:1;fill-rule:nonzero;stroke:none"
           d="m 361.335,278.342 c 0,0 -8.674,-38.965 -33.623,-59.28 -24.947,-20.316 3.562,-21.677 13.555,-17.718 11.845,4.689 22.595,17.047 22.941,51.926"
           clip-path="none"
           mask="none" />
        <path
           inkscape:connector-curvature="0"
           id="path82"
           style="fill:#101011;fill-opacity:1;fill-rule:nonzero;stroke:none"
           d="m 361.55,263.338 c 0,0 1.827,-23.742 -7.519,-43.621 -4.102,-8.727 -7.547,-12.254 -20.526,-20.006 0,0 13.433,-0.695 22.49,14.393 0,0 11.936,14.652 5.555,49.234"
           clip-path="none"
           mask="none" />
        <path
           id="path84"
           transform="matrix(0.58711391,0,0,-0.58711391,254.55687,393.61786)"
           d="m 314.23438,132.81055 -125.4961,9.58789 c 0,0 -2.19479,59.14889 -7.47656,79.36133 -13.87339,53.07774 -36.7779,107.33244 -29.29492,147.99414 l -0.21485,-0.17579 c 0,0 11.45778,116.55036 68.42969,81.05469 3.17289,-1.9766 8.45806,-8.37038 11.27148,-14.02734 10.57413,0.74046 22.77813,0.8275 36.98829,0.29101 2.84702,5.58364 8.00437,11.7935 11.12304,13.73633 56.97191,35.49567 72.3711,-81.05469 72.3711,-81.05469 l -0.18946,0.14844 c 6.82567,-40.65854 -16.29463,-94.90099 -29.49804,-147.96679 -5.02969,-20.21244 -8.01368,-88.94922 -8.01367,-88.94922 z"
           clip-path="none"
           mask="none"
           style="fill:#28292a;fill-opacity:1;fill-rule:nonzero;stroke:none"
           inkscape:connector-curvature="0" />
        <path
           inkscape:connector-curvature="0"
           id="path94"
           style="fill:#f89e4e;fill-opacity:1;fill-rule:nonzero;stroke:none"
           d="m 389.345,119.471 c 0,0 0,11.804 -18.688,11.804 -10.319,0 -18.685,-5.285 -18.685,-11.804 0,0 6.252,-3.815 12.338,1.004 0,0 4.118,-4.428 7.044,-5.825 0,0 5.127,2.795 7.156,5.125 0,0 5.178,-4.347 10.835,-0.304"
           clip-path="none"
           mask="none" />
        <path
           mask="none"
           clip-path="none"
           d="m 451.933,118.29677 c 0,0 0,11.804 -18.688,11.804 -10.318,0 -18.684,-5.285 -18.684,-11.804 0,0 6.251,-3.815 12.336,1.004 0,0 4.12,-4.428 7.045,-5.825 0,0 5.127,2.795 7.156,5.125 0,0 5.177,-4.347 10.835,-0.304"
           style="fill:#ac6a30;fill-opacity:1;fill-rule:nonzero;stroke:none"
           id="path5785"
           inkscape:connector-curvature="0" />
        <path
           inkscape:connector-curvature="0"
           id="path102"
           style="fill:#f89e4e;fill-opacity:1;fill-rule:nonzero;stroke:none"
           d="m 451.933,119.471 c 0,0 0,11.804 -18.688,11.804 -10.318,0 -18.684,-5.285 -18.684,-11.804 0,0 6.251,-3.815 12.336,1.004 0,0 4.12,-4.428 7.045,-5.825 0,0 5.127,2.795 7.156,5.125 0,0 5.177,-4.347 10.835,-0.304"
           clip-path="none"
           mask="none" />
        <path
           inkscape:connector-curvature="0"
           id="path104"
           style="fill:#28292a;fill-opacity:1;fill-rule:nonzero;stroke:none"
           d="m 439.438,309.023 c 0,-19.421 -16.625,-35.164 -37.136,-35.164 -20.512,0 -37.932,3.557 -37.139,35.164 0.485,19.413 5.496,35.165 37.139,35.165 28.048,0 37.136,-15.747 37.136,-35.165"
           clip-path="none"
           mask="none" />
        <path
           inkscape:connector-curvature="0"
           id="path108"
           style="fill:#fcfefd;fill-opacity:1;fill-rule:nonzero;stroke:none"
           d="m 402.357,136.567 c 9.086,0 23.508,1.183 31.642,7.703 8.134,6.519 12.263,11.853 14.515,30.818 2.251,18.963 -1.314,27.852 -3.685,38.976 -2.37,11.126 -11.058,51.415 -12.901,57.741 -1.578,5.412 -9.035,6.332 -9.035,6.332 2.37,1.779 5.261,5.603 5.261,5.603 6.601,6.317 7.194,15.799 5.845,28.491 -1.349,12.695 -7.206,19.478 -18.046,19.361 -11.996,-0.131 -13.308,-19.361 -13.308,-19.361 l -0.344,0 c 0,0 -1.014,19.23 -13.011,19.361 -10.841,0.117 -17.283,-6.666 -18.631,-19.361 -1.349,-12.692 -0.756,-22.174 5.844,-28.491 0,0 3.299,-3.824 5.669,-5.603 0,0 -7.726,-0.92 -9.485,-6.473 -1.991,-6.283 -10.489,-46.474 -12.86,-57.6 -2.369,-11.124 -5.934,-20.013 -3.684,-38.976 2.253,-18.965 6.381,-24.299 14.516,-30.818 8.133,-6.52 20.80696,-7.703 31.642,-7.703 13.78267,0 13.78267,0 13.78267,0"
           clip-path="none"
           mask="none"
           sodipodi:nodetypes="cccccccccccccccccccsc" />
        <path
           inkscape:connector-curvature="0"
           id="path110"
           style="fill:#141414;fill-opacity:1;fill-rule:nonzero;stroke:none"
           d="m 433.246,331.592 0.927,-1.362 c 0.302,-0.459 0.557,-0.945 0.839,-1.418 0.526,-0.962 1.016,-1.949 1.43,-2.966 0.226,-0.502 0.42,-1.016 0.604,-1.535 0.195,-0.514 0.376,-1.034 0.534,-1.561 0.34,-1.045 0.629,-2.107 0.877,-3.178 0.263,-1.07 0.463,-2.152 0.646,-3.236 0.172,-1.088 0.321,-2.178 0.415,-3.277 0.108,-1.1 0.07,-2.209 0.094,-3.301 -0.004,-1.1 0.052,-2.194 0.104,-3.287 0.18,-4.379 0.513,-8.76 0.829,-13.137 0.343,-4.377 0.7,-8.752 1.097,-13.123 l -0.002,0.018 c 0.655,-3.77 1.337,-7.538 2.067,-11.295 0.375,-1.875 0.741,-3.754 1.161,-5.618 0.386,-1.875 0.912,-3.697 1.37,-5.57 0.902,-3.734 1.638,-7.49 2.494,-11.221 0.422,-1.865 0.86,-3.726 1.355,-5.57 0.502,-1.838 1.018,-3.689 1.796,-5.398 l 0.01,-0.024 0.003,-0.012 c 1.38,-4.552 2.675,-9.125 3.917,-13.714 0.602,-2.301 1.219,-4.596 1.777,-6.907 0.59,-2.304 1.098,-4.627 1.629,-6.945 0.252,-1.168 0.459,-2.332 0.691,-3.5 0.243,-1.162 0.435,-2.336 0.604,-3.516 0.17,-1.177 0.385,-2.349 0.491,-3.535 0.123,-1.183 0.27,-2.363 0.373,-3.547 l 0.252,-3.558 0.119,-3.565 c -0.016,-1.189 0.032,-2.377 -0.035,-3.564 -0.026,-1.19 -0.115,-2.375 -0.227,-3.557 0.094,1.184 0.165,2.369 0.174,3.557 0.05,1.187 -0.016,2.375 -0.018,3.562 l -0.171,3.557 -0.305,3.549 c -0.12,1.18 -0.285,2.355 -0.425,3.533 -0.125,1.182 -0.357,2.346 -0.528,3.518 -0.174,1.173 -0.37,2.341 -0.62,3.506 -0.238,1.162 -0.452,2.335 -0.708,3.488 -0.542,2.31 -1.061,4.627 -1.662,6.926 -0.569,2.304 -1.197,4.595 -1.811,6.888 -1.263,4.578 -2.581,9.143 -3.981,13.68 l 0.013,-0.035 c -0.819,1.777 -1.34,3.629 -1.857,5.478 -0.507,1.852 -0.955,3.717 -1.388,5.584 l -2.525,11.203 c -0.442,1.846 -0.968,3.711 -1.345,5.59 -0.413,1.875 -0.769,3.758 -1.135,5.639 -0.713,3.766 -1.376,7.537 -2.012,11.316 l -10e-4,0.01 -0.001,0.008 c -0.375,4.377 -0.71,8.754 -1.031,13.135 -0.294,4.382 -0.604,8.759 -0.762,13.158 -0.047,1.098 -0.097,2.197 -0.087,3.293 -0.019,1.103 0.021,2.193 -0.074,3.281 -0.078,1.09 -0.209,2.178 -0.366,3.262 -0.166,1.08 -0.348,2.162 -0.594,3.228 -0.232,1.071 -0.503,2.133 -0.827,3.18 -0.149,0.527 -0.322,1.047 -0.509,1.563 -0.175,0.519 -0.362,1.035 -0.578,1.539 -0.399,1.019 -0.874,2.011 -1.384,2.98 -0.274,0.475 -0.522,0.965 -0.817,1.428 l -0.906,1.375"
           clip-path="none"
           mask="none" />
        <path
           inkscape:connector-curvature="0"
           id="path112"
           style="fill:#141414;fill-opacity:1;fill-rule:nonzero;stroke:none"
           d="m 371.392,333.061 c 0,0 -0.336,-0.508 -0.963,-1.461 -0.575,-0.983 -1.414,-2.436 -2.184,-4.422 -0.785,-1.973 -1.564,-4.448 -2.119,-7.354 -0.283,-1.453 -0.514,-3.012 -0.661,-4.664 -0.181,-1.648 -0.101,-3.389 -0.128,-5.219 -0.211,-7.312 -0.783,-15.806 -1.443,-24.912 -0.086,-1.136 -0.174,-2.285 -0.262,-3.439 -0.128,-1.174 -0.291,-2.317 -0.445,-3.485 -0.312,-2.328 -0.647,-4.681 -1.01,-7.052 -0.36,-2.369 -0.754,-4.754 -1.21,-7.143 -0.234,-1.191 -0.502,-2.389 -0.796,-3.57 l -0.926,-3.529 c -1.267,-4.702 -2.568,-9.395 -3.904,-13.997 -1.295,-4.619 -2.828,-9.089 -4.173,-13.439 -1.351,-4.355 -2.561,-8.594 -3.61,-12.639 -0.262,-1.011 -0.52,-2.009 -0.774,-2.994 -0.231,-0.986 -0.461,-1.961 -0.685,-2.918 -0.478,-1.906 -0.809,-3.773 -1.176,-5.564 -0.367,-1.789 -0.574,-3.52 -0.86,-5.156 -0.223,-1.647 -0.414,-3.211 -0.584,-4.684 -0.281,-2.949 -0.445,-5.529 -0.491,-7.656 -0.054,-2.127 -0.005,-3.801 0.042,-4.94 0.078,-1.138 0.121,-1.744 0.121,-1.744 0,0 -0.05,0.606 -0.147,1.742 -0.064,1.139 -0.138,2.813 -0.115,4.944 0.014,2.13 0.139,4.714 0.378,7.675 0.148,1.477 0.316,3.047 0.515,4.702 0.262,1.644 0.473,3.388 0.828,5.179 0.356,1.787 0.681,3.666 1.149,5.58 0.22,0.961 0.443,1.936 0.671,2.928 0.249,0.986 0.501,1.986 0.758,3 1.028,4.059 2.217,8.311 3.545,12.678 1.326,4.375 2.832,8.838 4.103,13.451 1.313,4.605 2.585,9.301 3.839,14.002 l 0.943,3.525 c 0.297,1.174 0.567,2.348 0.805,3.532 0.466,2.373 0.871,4.75 1.242,7.115 0.375,2.363 0.722,4.713 1.045,7.037 0.16,1.158 0.331,2.326 0.46,3.457 0.094,1.154 0.186,2.301 0.279,3.437 0.706,9.092 1.322,17.596 1.569,24.877 0.041,1.819 -0.042,3.584 0.165,5.246 0.172,1.661 0.427,3.225 0.735,4.678 0.601,2.912 1.418,5.383 2.235,7.352 0.801,1.978 1.664,3.424 2.254,4.398 0.642,0.942 0.985,1.446 0.985,1.446"
           clip-path="none"
           mask="none" />
        <path
           inkscape:connector-curvature="0"
           id="path114"
           style="fill:#f1caff;fill-opacity:0.8417266;fill-rule:nonzero;stroke:none"
           d="m 382.96254,294.285 c -2.81,0 -5.087,1.133 -5.087,2.527 0,1.399 2.277,2.53 5.087,2.53 2.81,0 5.088,-1.131 5.088,-2.53 0,-1.394 -2.278,-2.527 -5.088,-2.527"
           clip-path="none"
           mask="none" />
        <path
           inkscape:connector-curvature="0"
           id="path126"
           style="fill:#f8f8f7;fill-opacity:1;fill-rule:nonzero;stroke:none"
           d="m 391.349,315.643 c 0,0 -5.121,3.966 -9.177,-1.334"
           clip-path="none"
           mask="none" />
        <path
           inkscape:connector-curvature="0"
           id="path130"
           style="fill:#f8f8f7;fill-opacity:1;fill-rule:nonzero;stroke:none"
           d="m 424.1222,315.643 c 0,0 -5.12,3.966 -9.177,-1.334"
           clip-path="none"
           mask="none" />
        <path
           inkscape:connector-curvature="0"
           id="path138"
           style="fill:#364e59;fill-opacity:1;fill-rule:nonzero;stroke:none"
           d="m 363.834,287.17 c 0,0 9.403,-2.373 12.669,-3.43 6.619,-2.142 20.166,-4.564 27.277,-3.972 7.113,0.591 24.991,2.664 32.646,7.406 6.262,3.881 7.058,-1.397 7.266,-3.434 0.209,-2.037 5.739,-11.881 2.767,-12.785 -32.496,-9.855 -68.958,-8.4 -87.929,1.789 -1.545,0.83 0.828,14.418 5.304,14.426"
           clip-path="none"
           mask="none" />
        <g
           id="g6065"
           transform="matrix(-1,0,0,1,805.03784,-5.4654287)">
          <path
             mask="none"
             clip-path="none"
             d="m 416.595,284.002 c -4.935,-1.143 -6.749,-4.084 -13.411,-3.49 -11.007,0.98 -6.513,-14.797 -6.448,-24.907 0.082,-12.988 0.487,-43.478 6.175,-53.121 4.22,-7.148 36.855,-1.716 37.562,0.815 0.708,2.529 -9.72,14.65 -12.906,58.269 -0.253,3.483 1.403,18.463 -2.075,20.944 -2.916,2.08 -5.545,2.265 -8.897,1.49"
             style="fill:#364e59;fill-opacity:1;fill-rule:nonzero;stroke:none"
             id="path140"
             inkscape:connector-curvature="0" />
          <g
             id="g5742"
             style="fill:#364e59;fill-opacity:1">
            <path
               inkscape:connector-curvature="0"
               id="path142"
               style="fill:#364e59;fill-opacity:1;fill-rule:nonzero;stroke:none"
               d="m 406.058,201.291 c 0,0 0.035,-0.119 0.095,-0.326 0.063,-0.203 0.147,-0.496 0.27,-0.846 0.113,-0.353 0.26,-0.76 0.428,-1.191 0.154,-0.44 0.365,-0.885 0.558,-1.342 0.196,-0.455 0.445,-0.881 0.653,-1.301 0.233,-0.398 0.481,-0.754 0.681,-1.07 0.102,-0.158 0.23,-0.27 0.325,-0.387 0.102,-0.115 0.19,-0.213 0.263,-0.295 0.147,-0.164 0.231,-0.258 0.231,-0.258 0,0 -0.096,0.08 -0.265,0.219 -0.084,0.072 -0.188,0.158 -0.306,0.256 -0.113,0.104 -0.264,0.201 -0.389,0.344 -0.247,0.287 -0.553,0.611 -0.853,0.984 -0.27,0.389 -0.591,0.791 -0.858,1.223 -0.266,0.431 -0.55,0.859 -0.773,1.281 -0.236,0.414 -0.449,0.807 -0.618,1.15 -0.177,0.338 -0.312,0.633 -0.41,0.838 -0.093,0.201 -0.146,0.317 -0.146,0.317 l 1.114,0.404"
               clip-path="none"
               mask="none" />
            <path
               inkscape:connector-curvature="0"
               id="path144"
               style="fill:#364e59;fill-opacity:1;fill-rule:nonzero;stroke:none"
               d="m 437.965,203.781 c 0,0 0.035,-0.119 0.096,-0.326 0.062,-0.203 0.146,-0.494 0.269,-0.846 0.113,-0.353 0.26,-0.757 0.428,-1.191 0.154,-0.439 0.365,-0.883 0.559,-1.34 0.197,-0.457 0.444,-0.881 0.652,-1.301 0.233,-0.398 0.481,-0.754 0.681,-1.07 0.102,-0.158 0.23,-0.27 0.326,-0.389 0.101,-0.113 0.189,-0.211 0.262,-0.293 0.147,-0.164 0.231,-0.257 0.231,-0.257 0,0 -0.096,0.08 -0.265,0.218 -0.084,0.073 -0.187,0.157 -0.306,0.256 -0.113,0.104 -0.264,0.201 -0.388,0.344 -0.247,0.285 -0.554,0.611 -0.854,0.984 -0.27,0.387 -0.591,0.789 -0.858,1.221 -0.266,0.434 -0.55,0.859 -0.773,1.281 -0.236,0.414 -0.449,0.809 -0.618,1.151 -0.177,0.338 -0.312,0.632 -0.41,0.838 -0.093,0.201 -0.145,0.316 -0.145,0.316 l 1.113,0.404"
               clip-path="none"
               mask="none" />
            <path
               inkscape:connector-curvature="0"
               id="path146"
               style="fill:#364e59;fill-opacity:1;fill-rule:nonzero;stroke:none"
               d="m 410.614,200.754 c 0,0 0.035,-0.119 0.096,-0.326 0.062,-0.203 0.146,-0.494 0.269,-0.846 0.114,-0.353 0.261,-0.76 0.428,-1.191 0.156,-0.44 0.365,-0.885 0.56,-1.342 0.196,-0.455 0.444,-0.881 0.651,-1.299 0.234,-0.4 0.482,-0.756 0.682,-1.072 0.101,-0.158 0.229,-0.27 0.325,-0.387 0.102,-0.115 0.189,-0.213 0.263,-0.295 0.146,-0.164 0.23,-0.258 0.23,-0.258 0,0 -0.096,0.08 -0.264,0.219 -0.084,0.072 -0.188,0.158 -0.306,0.256 -0.113,0.103 -0.265,0.203 -0.389,0.344 -0.247,0.287 -0.554,0.611 -0.852,0.984 -0.272,0.389 -0.592,0.791 -0.86,1.223 -0.265,0.431 -0.55,0.859 -0.772,1.281 -0.237,0.414 -0.448,0.807 -0.618,1.15 -0.177,0.338 -0.313,0.633 -0.411,0.838 -0.092,0.201 -0.145,0.317 -0.145,0.317 l 1.113,0.404"
               clip-path="none"
               mask="none" />
            <path
               inkscape:connector-curvature="0"
               id="path148"
               style="fill:#364e59;fill-opacity:1;fill-rule:nonzero;stroke:none"
               d="m 415.058,200.754 c 0,0 0.035,-0.119 0.095,-0.326 0.063,-0.203 0.147,-0.494 0.27,-0.846 0.113,-0.353 0.261,-0.76 0.428,-1.191 0.155,-0.44 0.365,-0.885 0.559,-1.342 0.196,-0.455 0.444,-0.881 0.652,-1.299 0.233,-0.4 0.481,-0.756 0.681,-1.072 0.102,-0.158 0.23,-0.27 0.325,-0.387 0.102,-0.115 0.19,-0.213 0.263,-0.295 0.147,-0.164 0.231,-0.258 0.231,-0.258 0,0 -0.096,0.08 -0.265,0.219 -0.084,0.072 -0.188,0.158 -0.306,0.256 -0.113,0.103 -0.264,0.203 -0.388,0.344 -0.248,0.287 -0.554,0.611 -0.853,0.984 -0.271,0.389 -0.592,0.791 -0.859,1.223 -0.266,0.431 -0.55,0.859 -0.773,1.281 -0.236,0.414 -0.448,0.807 -0.618,1.15 -0.177,0.338 -0.312,0.633 -0.41,0.838 -0.093,0.201 -0.146,0.317 -0.146,0.317 l 1.114,0.404"
               clip-path="none"
               mask="none" />
            <path
               inkscape:connector-curvature="0"
               id="path150"
               style="fill:#364e59;fill-opacity:1;fill-rule:nonzero;stroke:none"
               d="m 419.501,200.754 c 0,0 0.035,-0.119 0.096,-0.326 0.062,-0.203 0.146,-0.494 0.269,-0.846 0.113,-0.353 0.261,-0.76 0.428,-1.191 0.155,-0.44 0.365,-0.885 0.56,-1.342 0.196,-0.455 0.444,-0.881 0.651,-1.299 0.233,-0.4 0.481,-0.756 0.682,-1.072 0.101,-0.158 0.229,-0.27 0.325,-0.387 0.101,-0.115 0.189,-0.213 0.262,-0.295 0.147,-0.164 0.231,-0.258 0.231,-0.258 0,0 -0.096,0.08 -0.265,0.219 -0.084,0.072 -0.187,0.158 -0.305,0.256 -0.114,0.103 -0.265,0.203 -0.389,0.344 -0.247,0.287 -0.554,0.611 -0.853,0.984 -0.271,0.389 -0.591,0.791 -0.859,1.223 -0.266,0.431 -0.55,0.859 -0.772,1.281 -0.237,0.414 -0.449,0.807 -0.619,1.15 -0.176,0.338 -0.312,0.633 -0.41,0.838 -0.093,0.201 -0.145,0.317 -0.145,0.317 l 1.113,0.404"
               clip-path="none"
               mask="none" />
            <path
               inkscape:connector-curvature="0"
               id="path152"
               style="fill:#364e59;fill-opacity:1;fill-rule:nonzero;stroke:none"
               d="m 423.944,200.754 c 0,0 0.035,-0.119 0.096,-0.326 0.063,-0.203 0.147,-0.496 0.27,-0.846 0.113,-0.353 0.26,-0.76 0.428,-1.191 0.155,-0.44 0.365,-0.885 0.559,-1.342 0.196,-0.455 0.444,-0.881 0.652,-1.301 0.234,-0.398 0.482,-0.754 0.682,-1.07 0.101,-0.158 0.229,-0.27 0.325,-0.387 0.102,-0.115 0.19,-0.213 0.263,-0.295 0.146,-0.164 0.23,-0.258 0.23,-0.258 0,0 -0.095,0.08 -0.264,0.219 -0.084,0.072 -0.188,0.158 -0.306,0.256 -0.113,0.103 -0.265,0.203 -0.39,0.344 -0.246,0.287 -0.552,0.611 -0.852,0.984 -0.271,0.389 -0.592,0.791 -0.86,1.223 -0.264,0.431 -0.549,0.859 -0.772,1.281 -0.236,0.414 -0.448,0.807 -0.618,1.15 -0.177,0.338 -0.313,0.633 -0.41,0.838 -0.093,0.201 -0.146,0.317 -0.146,0.317 l 1.113,0.404"
               clip-path="none"
               mask="none" />
            <path
               inkscape:connector-curvature="0"
               id="path154"
               style="fill:#364e59;fill-opacity:1;fill-rule:nonzero;stroke:none"
               d="m 428.197,201.807 c 0,0 0.035,-0.12 0.096,-0.327 0.062,-0.203 0.146,-0.494 0.27,-0.845 0.113,-0.354 0.26,-0.758 0.427,-1.192 0.156,-0.439 0.365,-0.882 0.56,-1.339 0.196,-0.458 0.444,-0.881 0.651,-1.301 0.234,-0.399 0.482,-0.754 0.682,-1.071 0.101,-0.158 0.229,-0.269 0.325,-0.386 0.102,-0.116 0.189,-0.213 0.263,-0.295 0.146,-0.164 0.23,-0.258 0.23,-0.258 0,0 -0.096,0.08 -0.264,0.219 -0.084,0.072 -0.188,0.158 -0.306,0.256 -0.113,0.103 -0.264,0.201 -0.389,0.343 -0.247,0.287 -0.554,0.612 -0.853,0.985 -0.271,0.386 -0.591,0.791 -0.859,1.22 -0.265,0.434 -0.55,0.86 -0.772,1.282 -0.237,0.414 -0.448,0.808 -0.618,1.15 -0.177,0.338 -0.313,0.633 -0.411,0.838 -0.092,0.201 -0.145,0.316 -0.145,0.316 l 1.113,0.405"
               clip-path="none"
               mask="none" />
            <path
               inkscape:connector-curvature="0"
               id="path156"
               style="fill:#364e59;fill-opacity:1;fill-rule:nonzero;stroke:none"
               d="m 432.641,201.807 c 0,0 0.035,-0.12 0.095,-0.327 0.063,-0.203 0.147,-0.494 0.27,-0.845 0.113,-0.354 0.261,-0.758 0.428,-1.192 0.155,-0.439 0.365,-0.882 0.559,-1.339 0.196,-0.458 0.445,-0.881 0.652,-1.301 0.233,-0.399 0.481,-0.754 0.681,-1.071 0.102,-0.158 0.23,-0.269 0.325,-0.386 0.102,-0.116 0.19,-0.213 0.263,-0.295 0.147,-0.164 0.231,-0.258 0.231,-0.258 0,0 -0.096,0.08 -0.265,0.219 -0.084,0.072 -0.188,0.158 -0.306,0.256 -0.113,0.103 -0.263,0.201 -0.388,0.343 -0.248,0.287 -0.554,0.612 -0.854,0.985 -0.27,0.386 -0.591,0.791 -0.858,1.22 -0.266,0.434 -0.55,0.86 -0.773,1.282 -0.236,0.414 -0.448,0.808 -0.618,1.15 -0.177,0.338 -0.312,0.633 -0.41,0.838 -0.093,0.201 -0.146,0.316 -0.146,0.316 l 1.114,0.405"
               clip-path="none"
               mask="none" />
            <path
               inkscape:connector-curvature="0"
               id="path158"
               style="fill:#364e59;fill-opacity:1;fill-rule:nonzero;stroke:none"
               d="m 436.452,202.805 c 0,0 0.035,-0.119 0.096,-0.326 0.062,-0.204 0.146,-0.497 0.269,-0.846 0.114,-0.354 0.26,-0.76 0.428,-1.192 0.154,-0.439 0.365,-0.884 0.559,-1.341 0.196,-0.455 0.444,-0.881 0.652,-1.301 0.233,-0.399 0.482,-0.754 0.682,-1.07 0.101,-0.159 0.229,-0.27 0.325,-0.387 0.101,-0.115 0.189,-0.213 0.263,-0.295 0.146,-0.164 0.23,-0.258 0.23,-0.258 0,0 -0.096,0.08 -0.265,0.219 -0.084,0.072 -0.187,0.158 -0.305,0.256 -0.114,0.103 -0.265,0.201 -0.39,0.343 -0.246,0.288 -0.553,0.612 -0.852,0.985 -0.271,0.388 -0.591,0.791 -0.859,1.222 -0.265,0.432 -0.55,0.86 -0.772,1.282 -0.237,0.414 -0.45,0.806 -0.618,1.15 -0.177,0.338 -0.313,0.633 -0.411,0.838 -0.092,0.201 -0.145,0.316 -0.145,0.316 l 1.113,0.405"
               clip-path="none"
               mask="none" />
            <path
               inkscape:connector-curvature="0"
               id="path160"
               style="fill:#364e59;fill-opacity:1;fill-rule:nonzero;stroke:none"
               d="m 434.671,202.344 c 0,0 0.035,-0.119 0.096,-0.328 0.062,-0.204 0.146,-0.495 0.269,-0.846 0.113,-0.352 0.26,-0.758 0.428,-1.191 0.154,-0.44 0.365,-0.883 0.558,-1.34 0.197,-0.457 0.445,-0.883 0.653,-1.301 0.233,-0.399 0.481,-0.754 0.681,-1.072 0.102,-0.157 0.23,-0.27 0.326,-0.387 0.101,-0.113 0.189,-0.213 0.262,-0.293 0.147,-0.166 0.231,-0.26 0.231,-0.26 0,0 -0.096,0.08 -0.265,0.221 -0.084,0.07 -0.187,0.156 -0.306,0.254 -0.113,0.103 -0.264,0.203 -0.389,0.345 -0.246,0.286 -0.553,0.612 -0.853,0.983 -0.27,0.389 -0.591,0.791 -0.858,1.223 -0.266,0.433 -0.55,0.861 -0.773,1.281 -0.236,0.416 -0.449,0.808 -0.618,1.15 -0.176,0.34 -0.312,0.635 -0.41,0.838 -0.093,0.203 -0.145,0.318 -0.145,0.318 l 1.113,0.405"
               clip-path="none"
               mask="none" />
            <path
               inkscape:connector-curvature="0"
               id="path162"
               style="fill:#364e59;fill-opacity:1;fill-rule:nonzero;stroke:none"
               d="m 430.61,201.291 c 0,0 0.036,-0.119 0.096,-0.326 0.063,-0.203 0.147,-0.496 0.27,-0.846 0.113,-0.353 0.259,-0.76 0.427,-1.191 0.155,-0.44 0.366,-0.885 0.559,-1.342 0.196,-0.455 0.444,-0.881 0.652,-1.301 0.234,-0.398 0.482,-0.754 0.682,-1.07 0.101,-0.158 0.229,-0.27 0.325,-0.387 0.102,-0.115 0.19,-0.213 0.263,-0.295 0.146,-0.164 0.23,-0.258 0.23,-0.258 0,0 -0.095,0.08 -0.264,0.219 -0.084,0.072 -0.188,0.158 -0.306,0.256 -0.113,0.104 -0.265,0.201 -0.39,0.344 -0.246,0.287 -0.552,0.611 -0.852,0.984 -0.271,0.389 -0.591,0.791 -0.859,1.223 -0.265,0.431 -0.549,0.859 -0.772,1.281 -0.236,0.414 -0.449,0.807 -0.618,1.15 -0.177,0.338 -0.313,0.633 -0.41,0.838 -0.093,0.201 -0.146,0.317 -0.146,0.317 l 1.113,0.404"
               clip-path="none"
               mask="none" />
            <path
               inkscape:connector-curvature="0"
               id="path164"
               style="fill:#364e59;fill-opacity:1;fill-rule:nonzero;stroke:none"
               d="m 426.167,200.375 c 0,0 0.035,-0.119 0.096,-0.328 0.062,-0.203 0.146,-0.494 0.269,-0.844 0.114,-0.353 0.26,-0.76 0.428,-1.191 0.154,-0.44 0.365,-0.885 0.56,-1.342 0.196,-0.455 0.443,-0.881 0.651,-1.299 0.233,-0.4 0.481,-0.754 0.682,-1.072 0.101,-0.156 0.229,-0.27 0.325,-0.387 0.101,-0.113 0.189,-0.213 0.262,-0.295 0.147,-0.164 0.231,-0.258 0.231,-0.258 0,0 -0.096,0.08 -0.265,0.221 -0.084,0.07 -0.187,0.156 -0.305,0.254 -0.114,0.103 -0.265,0.203 -0.39,0.346 -0.246,0.285 -0.553,0.611 -0.853,0.982 -0.27,0.389 -0.59,0.791 -0.858,1.223 -0.266,0.431 -0.55,0.859 -0.772,1.279 -0.237,0.416 -0.449,0.809 -0.619,1.152 -0.176,0.338 -0.312,0.633 -0.41,0.836 -0.093,0.203 -0.145,0.319 -0.145,0.319 l 1.113,0.404"
               clip-path="none"
               mask="none" />
            <path
               inkscape:connector-curvature="0"
               id="path166"
               style="fill:#364e59;fill-opacity:1;fill-rule:nonzero;stroke:none"
               d="m 422.107,200.375 c 0,0 0.036,-0.119 0.096,-0.328 0.063,-0.203 0.147,-0.494 0.269,-0.846 0.113,-0.351 0.26,-0.758 0.428,-1.189 0.155,-0.44 0.365,-0.885 0.559,-1.342 0.196,-0.455 0.444,-0.881 0.651,-1.299 0.234,-0.4 0.482,-0.754 0.682,-1.072 0.102,-0.158 0.229,-0.27 0.325,-0.387 0.102,-0.113 0.19,-0.213 0.263,-0.295 0.146,-0.164 0.23,-0.258 0.23,-0.258 0,0 -0.095,0.08 -0.264,0.221 -0.084,0.07 -0.188,0.156 -0.306,0.254 -0.113,0.103 -0.265,0.203 -0.389,0.346 -0.247,0.285 -0.553,0.611 -0.852,0.982 -0.272,0.389 -0.592,0.791 -0.86,1.223 -0.264,0.431 -0.548,0.859 -0.771,1.279 -0.236,0.416 -0.449,0.809 -0.618,1.152 -0.178,0.338 -0.313,0.633 -0.41,0.836 -0.093,0.203 -0.146,0.319 -0.146,0.319 l 1.113,0.404"
               clip-path="none"
               mask="none" />
            <path
               inkscape:connector-curvature="0"
               id="path168"
               style="fill:#364e59;fill-opacity:1;fill-rule:nonzero;stroke:none"
               d="m 417.088,200.754 c 0,0 0.035,-0.119 0.096,-0.326 0.062,-0.203 0.146,-0.494 0.269,-0.846 0.113,-0.353 0.261,-0.76 0.428,-1.191 0.155,-0.44 0.365,-0.885 0.559,-1.342 0.197,-0.455 0.445,-0.881 0.652,-1.299 0.233,-0.4 0.481,-0.756 0.681,-1.072 0.102,-0.158 0.23,-0.27 0.326,-0.387 0.101,-0.115 0.189,-0.213 0.262,-0.295 0.147,-0.164 0.231,-0.258 0.231,-0.258 0,0 -0.096,0.08 -0.265,0.219 -0.084,0.072 -0.187,0.158 -0.306,0.256 -0.113,0.103 -0.263,0.203 -0.388,0.344 -0.247,0.287 -0.554,0.611 -0.854,0.984 -0.27,0.389 -0.591,0.791 -0.858,1.223 -0.266,0.431 -0.55,0.859 -0.773,1.281 -0.236,0.414 -0.448,0.807 -0.618,1.15 -0.176,0.338 -0.312,0.633 -0.41,0.838 -0.093,0.201 -0.145,0.317 -0.145,0.317 l 1.113,0.404"
               clip-path="none"
               mask="none" />
            <path
               inkscape:connector-curvature="0"
               id="path170"
               style="fill:#364e59;fill-opacity:1;fill-rule:nonzero;stroke:none"
               d="m 413.027,200.754 c 0,0 0.036,-0.119 0.096,-0.326 0.063,-0.203 0.147,-0.494 0.27,-0.846 0.113,-0.353 0.26,-0.76 0.427,-1.191 0.156,-0.44 0.366,-0.885 0.56,-1.342 0.196,-0.455 0.444,-0.881 0.651,-1.299 0.234,-0.4 0.482,-0.756 0.682,-1.072 0.101,-0.158 0.229,-0.27 0.325,-0.387 0.102,-0.115 0.19,-0.213 0.263,-0.295 0.146,-0.164 0.23,-0.258 0.23,-0.258 0,0 -0.095,0.08 -0.264,0.219 -0.084,0.072 -0.188,0.158 -0.306,0.256 -0.113,0.103 -0.264,0.203 -0.389,0.344 -0.247,0.287 -0.553,0.611 -0.853,0.984 -0.271,0.389 -0.591,0.791 -0.859,1.223 -0.265,0.431 -0.549,0.859 -0.772,1.281 -0.236,0.414 -0.448,0.807 -0.618,1.15 -0.177,0.338 -0.313,0.633 -0.41,0.838 -0.093,0.201 -0.146,0.317 -0.146,0.317 l 1.113,0.404"
               clip-path="none"
               mask="none" />
            <path
               inkscape:connector-curvature="0"
               id="path172"
               style="fill:#364e59;fill-opacity:1;fill-rule:nonzero;stroke:none"
               d="m 408.584,200.375 c 0,0 0.035,-0.119 0.096,-0.328 0.062,-0.203 0.146,-0.494 0.269,-0.844 0.114,-0.353 0.26,-0.76 0.428,-1.191 0.154,-0.44 0.365,-0.885 0.56,-1.342 0.196,-0.455 0.443,-0.881 0.651,-1.299 0.233,-0.4 0.481,-0.754 0.682,-1.072 0.101,-0.156 0.229,-0.27 0.325,-0.387 0.101,-0.113 0.189,-0.213 0.262,-0.295 0.147,-0.164 0.231,-0.258 0.231,-0.258 0,0 -0.096,0.08 -0.265,0.221 -0.084,0.07 -0.187,0.156 -0.305,0.254 -0.114,0.103 -0.265,0.203 -0.389,0.346 -0.247,0.285 -0.554,0.611 -0.854,0.982 -0.27,0.389 -0.59,0.791 -0.858,1.223 -0.266,0.431 -0.55,0.859 -0.772,1.279 -0.237,0.416 -0.45,0.809 -0.619,1.152 -0.176,0.338 -0.312,0.633 -0.41,0.836 -0.093,0.203 -0.145,0.319 -0.145,0.319 l 1.113,0.404"
               clip-path="none"
               mask="none" />
          </g>
        </g>
        <g
           style="opacity:0.56199999;fill:#f5f8a8;fill-opacity:1"
           id="g5760"
           transform="matrix(-1,0,0,1,804.715,0)">
          <path
             mask="none"
             clip-path="none"
             d="m 402.328,275.002 0.915,-1.676 1.674,-0.914 -1.674,-0.918 -0.915,-1.672 -0.915,1.672 -1.675,0.918 1.675,0.914 0.915,1.676"
             style="fill:#f5f8a8;fill-opacity:1;fill-rule:nonzero;stroke:none"
             id="path174"
             inkscape:connector-curvature="0" />
          <path
             mask="none"
             clip-path="none"
             d="m 420.627,280.135 0.915,-1.674 1.674,-0.916 -1.674,-0.914 -0.915,-1.676 -0.916,1.676 -1.674,0.914 1.674,0.916 0.916,1.674"
             style="fill:#f5f8a8;fill-opacity:1;fill-rule:nonzero;stroke:none"
             id="path176"
             inkscape:connector-curvature="0" />
          <path
             mask="none"
             clip-path="none"
             d="m 414.118,266.873 0.915,-1.676 1.675,-0.912 -1.675,-0.918 -0.915,-1.674 -0.915,1.674 -1.674,0.918 1.674,0.912 0.915,1.676"
             style="fill:#f5f8a8;fill-opacity:1;fill-rule:nonzero;stroke:none"
             id="path178"
             inkscape:connector-curvature="0" />
          <path
             mask="none"
             clip-path="none"
             d="m 364.208,282.727 0.915,-1.676 1.675,-0.916 -1.675,-0.916 -0.915,-1.674 -0.916,1.674 -1.674,0.916 1.674,0.916 0.916,1.676"
             style="fill:#f5f8a8;fill-opacity:1;fill-rule:nonzero;stroke:none"
             id="path180"
             inkscape:connector-curvature="0" />
          <path
             mask="none"
             clip-path="none"
             d="m 371.392,276.449 0.915,-1.676 1.672,-0.914 -1.672,-0.918 -0.915,-1.673 -0.916,1.673 -1.674,0.918 1.674,0.914 0.916,1.676"
             style="fill:#f5f8a8;fill-opacity:1;fill-rule:nonzero;stroke:none"
             id="path182"
             inkscape:connector-curvature="0" />
          <path
             mask="none"
             clip-path="none"
             d="m 380.224,280.135 0.916,-1.674 1.673,-0.916 -1.673,-0.914 -0.916,-1.676 -0.915,1.676 -1.675,0.914 1.675,0.916 0.915,1.674"
             style="fill:#f5f8a8;fill-opacity:1;fill-rule:nonzero;stroke:none"
             id="path184"
             inkscape:connector-curvature="0" />
          <path
             mask="none"
             clip-path="none"
             d="m 389.345,273.859 0.916,-1.675 1.673,-0.916 -1.673,-0.914 -0.916,-1.676 -0.916,1.676 -1.674,0.914 1.674,0.916 0.916,1.675"
             style="fill:#f5f8a8;fill-opacity:1;fill-rule:nonzero;stroke:none"
             id="path186"
             inkscape:connector-curvature="0" />
          <path
             mask="none"
             clip-path="none"
             d="m 431.701,282.209 0.915,-1.674 1.675,-0.916 -1.675,-0.914 -0.915,-1.676 -0.915,1.676 -1.674,0.914 1.674,0.916 0.915,1.674"
             style="fill:#f5f8a8;fill-opacity:1;fill-rule:nonzero;stroke:none"
             id="path188"
             inkscape:connector-curvature="0" />
          <path
             mask="none"
             clip-path="none"
             d="m 440.508,277.59 0.915,-1.672 1.674,-0.916 -1.674,-0.918 -0.915,-1.672 -0.916,1.672 -1.674,0.918 1.674,0.916 0.916,1.672"
             style="fill:#f5f8a8;fill-opacity:1;fill-rule:nonzero;stroke:none"
             id="path190"
             inkscape:connector-curvature="0" />
          <path
             mask="none"
             clip-path="none"
             d="m 402.696,257.07 0.915,-1.674 1.674,-0.916 -1.674,-0.916 -0.915,-1.673 -0.915,1.673 -1.675,0.916 1.675,0.916 0.915,1.674"
             style="fill:#f5f8a8;fill-opacity:1;fill-rule:nonzero;stroke:none"
             id="path192"
             inkscape:connector-curvature="0" />
          <path
             mask="none"
             clip-path="none"
             d="m 421.551,254.48 0.915,-1.673 1.673,-0.916 -1.673,-0.916 -0.915,-1.674 -0.916,1.674 -1.674,0.916 1.674,0.916 0.916,1.673"
             style="fill:#f5f8a8;fill-opacity:1;fill-rule:nonzero;stroke:none"
             id="path194"
             inkscape:connector-curvature="0" />
          <path
             mask="none"
             clip-path="none"
             d="m 408.09,244.135 0.916,-1.674 1.674,-0.916 -1.674,-0.916 -0.916,-1.672 -0.916,1.672 -1.673,0.916 1.673,0.916 0.916,1.674"
             style="fill:#f5f8a8;fill-opacity:1;fill-rule:nonzero;stroke:none"
             id="path196"
             inkscape:connector-curvature="0" />
          <path
             mask="none"
             clip-path="none"
             d="m 422.829,236.67 0.915,-1.674 1.674,-0.916 -1.674,-0.914 -0.915,-1.676 -0.915,1.676 -1.675,0.914 1.675,0.916 0.915,1.674"
             style="fill:#f5f8a8;fill-opacity:1;fill-rule:nonzero;stroke:none"
             id="path198"
             inkscape:connector-curvature="0" />
          <path
             mask="none"
             clip-path="none"
             d="m 405.501,228.709 0.915,-1.676 1.674,-0.914 -1.674,-0.916 -0.915,-1.674 -0.916,1.674 -1.674,0.916 1.674,0.914 0.916,1.676"
             style="fill:#f5f8a8;fill-opacity:1;fill-rule:nonzero;stroke:none"
             id="path200"
             inkscape:connector-curvature="0" />
          <path
             mask="none"
             clip-path="none"
             d="m 418.562,220.939 0.915,-1.673 1.674,-0.916 -1.674,-0.918 -0.915,-1.674 -0.916,1.674 -1.673,0.918 1.673,0.916 0.916,1.673"
             style="fill:#f5f8a8;fill-opacity:1;fill-rule:nonzero;stroke:none"
             id="path202"
             inkscape:connector-curvature="0" />
          <path
             mask="none"
             clip-path="none"
             d="m 427.641,211.344 0.915,-1.674 1.674,-0.916 -1.674,-0.914 -0.915,-1.676 -0.915,1.676 -1.674,0.914 1.674,0.916 0.915,1.674"
             style="fill:#f5f8a8;fill-opacity:1;fill-rule:nonzero;stroke:none"
             id="path204"
             inkscape:connector-curvature="0" />
          <path
             mask="none"
             clip-path="none"
             d="m 410.141,211.344 0.915,-1.674 1.673,-0.916 -1.673,-0.914 -0.915,-1.676 -0.917,1.676 -1.673,0.914 1.673,0.916 0.917,1.674"
             style="fill:#f5f8a8;fill-opacity:1;fill-rule:nonzero;stroke:none"
             id="path206"
             inkscape:connector-curvature="0" />
        </g>
        <path
           inkscape:connector-curvature="0"
           id="path748"
           style="fill:#dc0000;fill-opacity:1;fill-rule:nonzero;stroke:none"
           d="m 437.29497,338.49836 c -0.319,3.652 -2.163,10.828 -3.51,13.988 -3.58,8.41 -12.283,37.593 -28.492,31.944 -12.238,-4.265 -11.993,2.374 -28.305,-8.597 -4.321,-2.906 -7.052,-6.803 -9.032,-15.696 -1.978,-8.892 -6.223,-13.657 -8.865,-17.785 -2.64,-4.129 -8.83,-17.786 -9.783,-22.549 l 9.999,0 c 0,0 5.231,16.197 8.649,17.785"
           clip-path="none"
           mask="none" />
        <path
           inkscape:connector-curvature="0"
           id="path754"
           style="fill:#ffffff;fill-opacity:1;fill-rule:nonzero;stroke:none"
           d="m 387.00397,345.41436 c 0.327,-0.49 -1.419,1.266 -2.287,0 -0.654,1.469 -2.123,1.633 -3.102,0.653 -1.47,1.306 -4.736,0.98 -6.368,1.144 -1.797,0.162 -4.409,-0.164 -6.205,-0.981 -2.614,-1.142 -8.327,-7.068 -5.225,-10.66 0,0 -2.541,-0.933 -0.49,-2.565 -0.491,-1.47 0.164,-3.593 2.123,-2.939 -0.489,-1.47 0.164,-4.083 2.287,-3.103 0.161,-2.123 2.773,-1.959 4.245,-0.98 0.489,-2.286 2.284,-0.979 3.592,-0.979 1.469,0.162 2.612,-0.49 3.918,0.979 0.164,-2.122 2.94,-2.122 4.082,-0.817 1.143,-0.489 2.939,-0.979 3.919,-0.162 0.49,-1.797 2.449,-1.143 3.429,0 1.305,-0.981 2.938,-0.653 3.756,0.488 1.143,-0.814 3.591,-0.812 5.062,-0.652 2.041,0.223 3.591,-0.163 4.896,0 1.634,0 3.267,-0.163 4.901,0 0.816,0 1.631,0.326 2.285,0.49 1.142,0.326 1.795,-0.326 2.774,0.816 1.798,-1.306 3.105,0 4.901,0.328 1.795,0.163 2.775,-0.982 4.409,0.815 0.815,-0.978 2.285,-0.652 3.264,0.164 0.817,-1.47 2.613,-1.307 3.429,0 0.98,-1.633 2.94,-0.816 4.082,0.326 1.471,-1.468 4.246,-0.653 4.899,1.143 1.468,-0.489 3.592,0 3.265,1.959 1.307,0.817 1.797,2.613 0.163,3.103 0.492,1.307 0.164,2.613 -1.142,2.94 1.634,2.122 -2.286,9.955 -7.674,7.02 -0.981,1.796 -5.715,2.613 -7.185,1.144 -0.98,0.979 -2.449,1.142 -3.101,0 -1.143,0.816 -5.39,1.795 -6.532,0.489 -1.143,0.653 -2.614,0.817 -3.43,-0.327 -1.143,0.654 -2.612,0.817 -3.591,-0.326 -0.816,0.653 -1.959,0.816 -3.103,0.816 0,-0.163 0,-0.326 0,-0.49 -0.98,0.98 -2.94,1.144 -3.592,-0.162 -0.49,1.142 -1.796,1.142 -2.449,0 -0.654,0.979 -2.29,1.69 -3.756,0.489 -1.306,0.49 -3.593,1.143 -4.245,-0.327 -0.49,1.47 -2.45,1.307 -2.776,-0.162 -0.303,1.196 -2.939,1.306 -3.428,0.326"
           clip-path="none"
           mask="none" />
        <path
           inkscape:connector-curvature="0"
           id="path756"
           style="fill:#dce0dd;fill-opacity:1;fill-rule:nonzero;stroke:none"
           d="m 387.01197,345.41936 0.04,-0.079 -0.082,0 -0.147,0.084 -0.295,0.164 c -0.199,0.104 -0.408,0.192 -0.626,0.243 -0.217,0.049 -0.45,0.06 -0.661,-0.015 -0.214,-0.068 -0.386,-0.228 -0.513,-0.409 l -0.018,-0.003 -0.004,0.005 c -0.255,0.572 -0.73,1.087 -1.359,1.219 -0.624,0.146 -1.281,-0.125 -1.719,-0.573 l -0.025,-0.001 c -0.848,0.707 -1.991,0.882 -3.061,0.985 -1.088,0.099 -2.183,0.058 -3.276,0.142 -1.089,0.088 -2.183,0.017 -3.261,-0.151 -1.075,-0.173 -2.14,-0.453 -3.126,-0.919 -0.966,-0.496 -1.814,-1.207 -2.595,-1.962 -0.779,-0.763 -1.481,-1.606 -2.065,-2.525 -0.578,-0.917 -1.053,-1.925 -1.203,-3.001 -0.169,-1.07 0.118,-2.206 0.844,-3.015 l -0.004,-0.08 -0.02,-0.011 c -0.505,-0.214 -1.059,-0.544 -1.221,-1.077 -0.072,-0.263 0.011,-0.546 0.165,-0.776 0.152,-0.235 0.364,-0.432 0.585,-0.61 l 0.021,-0.069 c -0.228,-0.714 -0.209,-1.534 0.135,-2.2 0.091,-0.162 0.202,-0.312 0.339,-0.436 0.14,-0.118 0.298,-0.219 0.475,-0.268 0.172,-0.057 0.361,-0.074 0.544,-0.058 0.187,0.006 0.367,0.062 0.549,0.109 l 0.088,-0.046 0,-0.042 c -0.239,-0.777 -0.197,-1.667 0.156,-2.4 0.178,-0.362 0.479,-0.672 0.864,-0.775 0.384,-0.108 0.8,-0.003 1.169,0.164 l 0.102,-0.038 0.007,-0.026 c 0.031,-0.426 0.186,-0.847 0.498,-1.132 0.311,-0.286 0.737,-0.422 1.163,-0.456 0.859,-0.058 1.739,0.204 2.46,0.673 l 0.118,-0.025 0.012,-0.028 c 0.078,-0.346 0.195,-0.693 0.425,-0.946 0.226,-0.26 0.577,-0.353 0.927,-0.332 0.708,0.032 1.393,0.355 2.157,0.372 l -0.01,-0.001 c 0.717,0.087 1.428,-0.048 2.109,0.012 0.69,0.042 1.294,0.424 1.746,0.942 l 0.137,0.009 0.033,-0.066 c 0.033,-0.419 0.19,-0.828 0.49,-1.114 0.296,-0.29 0.707,-0.446 1.124,-0.489 0.835,-0.083 1.734,0.22 2.292,0.847 l 0.12,0.028 c 0.622,-0.262 1.273,-0.469 1.937,-0.553 0.654,-0.08 1.369,-0.033 1.869,0.379 l 0.158,-0.015 0.021,-0.041 c 0.096,-0.329 0.261,-0.64 0.529,-0.829 0.265,-0.196 0.62,-0.23 0.953,-0.175 0.674,0.12 1.296,0.532 1.751,1.052 l 0.16,0.017 c 0.543,-0.407 1.232,-0.62 1.902,-0.533 0.668,0.079 1.294,0.45 1.683,0.999 l 0.173,0.029 c 0.667,-0.445 1.52,-0.585 2.337,-0.664 0.829,-0.068 1.667,-0.052 2.497,0.027 0.835,0.09 1.696,0.106 2.538,0.06 0.842,-0.037 1.682,-0.128 2.496,-0.039 l 0.017,0.002 2.454,-0.058 1.22,-0.006 1.212,0.07 0.011,10e-4 0.004,0 c 0.426,0.003 0.854,0.095 1.279,0.212 l 0.642,0.186 c 0.221,0.061 0.426,0.127 0.666,0.163 0.472,0.081 0.935,-0.003 1.337,0.058 0.406,0.053 0.74,0.318 1.018,0.642 l 0.208,0.024 c 0.337,-0.238 0.708,-0.423 1.105,-0.496 0.395,-0.075 0.806,-0.033 1.208,0.074 0.803,0.217 1.588,0.625 2.468,0.78 l 0.014,0.002 c 0.411,0.036 0.823,0.006 1.221,-0.054 0.397,-0.059 0.782,-0.145 1.157,-0.156 0.375,-0.013 0.738,0.064 1.061,0.248 0.326,0.181 0.608,0.444 0.872,0.722 l 0.214,0.011 0.015,-0.016 c 0.177,-0.214 0.407,-0.377 0.67,-0.463 0.262,-0.088 0.548,-0.105 0.83,-0.068 0.565,0.075 1.108,0.343 1.555,0.71 l 0.207,-0.02 0.014,-0.021 c 0.162,-0.287 0.382,-0.539 0.655,-0.712 0.271,-0.173 0.592,-0.264 0.916,-0.257 0.652,0.012 1.264,0.413 1.612,0.972 l 0.191,0.045 0.047,-0.047 c 0.196,-0.321 0.466,-0.592 0.804,-0.733 0.336,-0.146 0.725,-0.146 1.092,-0.068 0.742,0.167 1.423,0.609 1.972,1.149 l 0.188,0 c 0.17,-0.159 0.352,-0.299 0.557,-0.413 0.206,-0.106 0.424,-0.187 0.651,-0.241 0.456,-0.102 0.938,-0.086 1.394,0.026 0.458,0.112 0.893,0.32 1.261,0.612 0.183,0.147 0.346,0.315 0.49,0.499 0.139,0.188 0.248,0.392 0.335,0.608 l 0.156,0.076 c 0.708,-0.23 1.514,-0.243 2.196,0.045 0.338,0.143 0.629,0.389 0.786,0.711 0.162,0.321 0.184,0.699 0.129,1.065 l 0.053,0.119 c 0.541,0.345 0.99,0.886 1.116,1.508 0.059,0.306 0.026,0.635 -0.157,0.882 -0.175,0.25 -0.461,0.411 -0.766,0.508 l -0.074,0.139 0.002,0.006 c 0.202,0.545 0.287,1.151 0.123,1.7 -0.082,0.272 -0.23,0.522 -0.439,0.711 -0.208,0.189 -0.47,0.316 -0.748,0.387 l -0.077,0.13 0.019,0.037 c 0.304,0.415 0.377,0.972 0.345,1.503 -0.028,0.535 -0.154,1.068 -0.334,1.577 -0.364,1.021 -0.941,1.97 -1.687,2.755 -0.744,0.781 -1.691,1.397 -2.753,1.601 -0.265,0.053 -0.532,0.073 -0.802,0.078 -0.268,-0.004 -0.536,-0.029 -0.801,-0.08 -0.53,-0.105 -1.037,-0.303 -1.517,-0.553 l -0.117,0.034 c -0.316,0.55 -0.888,0.923 -1.471,1.196 -0.592,0.272 -1.227,0.451 -1.87,0.561 -0.645,0.105 -1.304,0.141 -1.951,0.07 -0.64,-0.073 -1.302,-0.254 -1.764,-0.695 l -0.105,0 c -0.416,0.412 -0.959,0.718 -1.541,0.769 -0.288,0.025 -0.583,-0.022 -0.839,-0.153 -0.258,-0.129 -0.463,-0.347 -0.609,-0.597 l -0.095,-0.026 -0.005,0.003 c -0.463,0.311 -1.012,0.502 -1.553,0.669 -0.546,0.162 -1.105,0.283 -1.669,0.362 -0.564,0.077 -1.136,0.115 -1.701,0.068 -0.554,-0.051 -1.147,-0.185 -1.525,-0.592 l -0.074,-0.012 c -0.541,0.307 -1.154,0.514 -1.775,0.505 -0.309,-0.006 -0.618,-0.07 -0.892,-0.211 -0.274,-0.139 -0.509,-0.351 -0.689,-0.601 l -0.07,-0.015 c -0.561,0.319 -1.201,0.528 -1.846,0.505 -0.647,-0.015 -1.267,-0.322 -1.683,-0.816 l -0.066,-0.006 c -0.214,0.161 -0.444,0.301 -0.69,0.41 -0.248,0.104 -0.506,0.185 -0.769,0.245 -0.528,0.117 -1.071,0.153 -1.614,0.155 l 0.043,0.043 -0.001,-0.49 -0.042,-0.043 -0.031,0.013 c -0.482,0.479 -1.163,0.747 -1.841,0.764 -0.338,0.007 -0.682,-0.054 -0.985,-0.207 -0.304,-0.15 -0.552,-0.402 -0.703,-0.705 l -0.048,-0.017 -0.017,0.019 c -0.192,0.47 -0.645,0.869 -1.172,0.834 -0.521,-0.019 -0.963,-0.392 -1.217,-0.836 l -0.043,-0.011 -0.011,0.009 c -0.398,0.581 -1.048,0.986 -1.745,1.085 -0.705,0.109 -1.422,-0.152 -1.968,-0.597 l -0.025,-0.004 c -0.727,0.27 -1.477,0.501 -2.251,0.564 -0.385,0.027 -0.78,0.011 -1.143,-0.12 -0.182,-0.062 -0.347,-0.166 -0.493,-0.29 -0.141,-0.131 -0.247,-0.292 -0.333,-0.465 l -0.024,-0.01 -0.01,0.011 c -0.102,0.298 -0.283,0.572 -0.539,0.756 -0.254,0.186 -0.574,0.275 -0.889,0.255 -0.315,-0.021 -0.62,-0.15 -0.854,-0.361 -0.236,-0.211 -0.392,-0.501 -0.463,-0.809 l -0.016,-0.009 -0.009,0.009 c -0.083,0.327 -0.353,0.571 -0.649,0.717 -0.299,0.149 -0.632,0.226 -0.965,0.252 -0.334,0.025 -0.673,0.003 -0.996,-0.087 -0.317,-0.09 -0.64,-0.257 -0.798,-0.557 l -0.011,-0.004 -0.004,0.012 c 0.161,0.308 0.489,0.476 0.808,0.567 0.325,0.091 0.667,0.114 1.002,0.089 0.336,-0.027 0.671,-0.104 0.973,-0.254 0.299,-0.147 0.576,-0.394 0.661,-0.73 l -0.018,0 c 0.072,0.311 0.23,0.606 0.47,0.821 0.236,0.215 0.547,0.347 0.867,0.369 0.321,0.021 0.647,-0.07 0.907,-0.259 0.261,-0.187 0.445,-0.466 0.549,-0.768 l -0.017,0.001 c 0.087,0.177 0.194,0.341 0.339,0.475 0.149,0.128 0.317,0.233 0.502,0.297 0.369,0.133 0.768,0.15 1.155,0.123 0.779,-0.062 1.533,-0.293 2.261,-0.563 l -0.01,-0.001 c 0.552,0.451 1.28,0.718 1.996,0.608 0.709,-0.1 1.369,-0.509 1.775,-1.099 l -0.017,-10e-4 c 0.257,0.452 0.71,0.839 1.252,0.859 0.547,0.037 1.019,-0.378 1.216,-0.86 l -0.02,0.001 c 0.154,0.312 0.411,0.572 0.724,0.727 0.31,0.157 0.662,0.221 1.007,0.215 0.692,-0.017 1.382,-0.288 1.878,-0.777 l -0.018,-0.008 0,0.49 0.011,0.011 c 0.544,-10e-4 1.092,-0.037 1.626,-0.154 0.267,-0.059 0.528,-0.142 0.78,-0.247 0.251,-0.111 0.485,-0.252 0.704,-0.417 l -0.016,-0.002 c 0.424,0.506 1.064,0.824 1.725,0.84 0.662,0.025 1.311,-0.187 1.881,-0.511 l -0.016,-0.003 c 0.186,0.258 0.429,0.478 0.713,0.622 0.283,0.147 0.604,0.213 0.921,0.22 0.638,0.009 1.262,-0.201 1.811,-0.512 l -0.014,-0.002 c 0.402,0.433 1.011,0.564 1.572,0.618 0.573,0.049 1.149,0.011 1.717,-0.065 0.568,-0.079 1.131,-0.2 1.681,-0.362 0.546,-0.169 1.097,-0.356 1.578,-0.678 l -0.018,-0.004 c 0.151,0.262 0.368,0.494 0.641,0.631 0.271,0.14 0.583,0.189 0.884,0.163 0.609,-0.052 1.167,-0.369 1.596,-0.791 l -0.017,0 c 0.487,0.465 1.166,0.646 1.814,0.723 0.658,0.073 1.325,0.037 1.977,-0.068 0.652,-0.11 1.294,-0.29 1.895,-0.566 0.593,-0.277 1.182,-0.652 1.519,-1.235 l -0.018,0.005 c 0.487,0.255 1.003,0.459 1.544,0.567 0.271,0.052 0.545,0.079 0.821,0.083 0.276,-0.005 0.551,-0.025 0.822,-0.079 1.088,-0.207 2.055,-0.836 2.812,-1.628 0.76,-0.796 1.345,-1.756 1.716,-2.792 0.184,-0.518 0.313,-1.059 0.345,-1.61 0.031,-0.544 -0.036,-1.126 -0.369,-1.582 l -0.007,0.023 c 0.293,-0.075 0.575,-0.21 0.8,-0.414 0.227,-0.204 0.386,-0.475 0.474,-0.765 0.176,-0.586 0.086,-1.217 -0.122,-1.78 l -0.01,0.019 c 0.323,-0.101 0.636,-0.273 0.835,-0.556 0.206,-0.278 0.242,-0.648 0.179,-0.978 -0.137,-0.671 -0.607,-1.233 -1.173,-1.596 l 0.007,0.015 c 0.059,-0.385 0.039,-0.794 -0.139,-1.147 -0.173,-0.355 -0.493,-0.623 -0.851,-0.776 -0.725,-0.305 -1.555,-0.291 -2.295,-0.053 l 0.019,0.009 c -0.091,-0.229 -0.207,-0.446 -0.353,-0.645 -0.152,-0.194 -0.323,-0.37 -0.514,-0.525 -0.385,-0.306 -0.838,-0.523 -1.314,-0.641 -0.477,-0.117 -0.981,-0.136 -1.461,-0.029 -0.241,0.057 -0.471,0.142 -0.691,0.254 -0.216,0.12 -0.411,0.269 -0.592,0.438 l 0.024,0 c -0.567,-0.557 -1.262,-1.015 -2.046,-1.193 -0.389,-0.083 -0.811,-0.086 -1.184,0.074 -0.374,0.155 -0.67,0.454 -0.878,0.795 l 0.028,0 c -0.369,-0.596 -1.027,-1.034 -1.74,-1.049 -0.354,-0.008 -0.708,0.091 -1.006,0.281 -0.3,0.189 -0.537,0.463 -0.711,0.769 l 0.025,-0.005 c -0.468,-0.385 -1.033,-0.667 -1.638,-0.75 -0.301,-0.039 -0.614,-0.023 -0.905,0.075 -0.291,0.094 -0.551,0.277 -0.745,0.513 l 0.025,-0.001 c -0.272,-0.287 -0.565,-0.562 -0.914,-0.757 -0.346,-0.199 -0.752,-0.286 -1.149,-0.271 -0.398,0.011 -0.787,0.099 -1.178,0.155 -0.39,0.059 -0.786,0.087 -1.178,0.052 l 0.001,0 c -0.848,-0.15 -1.624,-0.552 -2.457,-0.777 -0.416,-0.11 -0.857,-0.156 -1.284,-0.074 -0.426,0.078 -0.821,0.278 -1.173,0.527 l 0.023,0.003 c -0.288,-0.337 -0.665,-0.638 -1.121,-0.698 -0.448,-0.063 -0.898,0.021 -1.336,-0.055 -0.87,-0.168 -1.707,-0.559 -2.615,-0.559 l 0.002,0 -1.226,-0.069 -1.227,0.008 -2.45,0.061 0.002,0 c -0.842,-0.091 -1.684,0.004 -2.522,0.041 -0.84,0.048 -1.68,0.033 -2.517,-0.054 -0.838,-0.08 -1.683,-0.094 -2.523,-0.024 -0.83,0.083 -1.695,0.22 -2.407,0.693 l 0.022,0.004 c -0.412,-0.58 -1.074,-0.972 -1.78,-1.053 -0.707,-0.091 -1.432,0.136 -1.998,0.562 l 0.021,0.002 c -0.477,-0.54 -1.114,-0.965 -1.832,-1.093 -0.353,-0.058 -0.747,-0.023 -1.046,0.198 -0.301,0.213 -0.478,0.555 -0.577,0.901 l 0.023,-0.008 c -0.547,-0.447 -1.297,-0.486 -1.965,-0.404 -0.681,0.087 -1.339,0.298 -1.969,0.565 l 0.017,0.003 c -0.593,-0.661 -1.521,-0.969 -2.394,-0.883 -0.437,0.046 -0.873,0.211 -1.191,0.523 -0.323,0.308 -0.489,0.748 -0.522,1.186 l 0.024,-0.008 c -0.238,-0.26 -0.503,-0.499 -0.812,-0.673 -0.307,-0.175 -0.656,-0.272 -1.007,-0.303 -0.705,-0.059 -1.409,0.077 -2.108,-0.008 l -0.001,0 c -0.731,-0.013 -1.418,-0.334 -2.154,-0.369 -0.363,-0.023 -0.757,0.081 -1.003,0.367 -0.25,0.276 -0.368,0.638 -0.448,0.992 l 0.02,-0.008 c -0.742,-0.479 -1.635,-0.745 -2.522,-0.684 -0.439,0.035 -0.886,0.177 -1.217,0.481 -0.332,0.305 -0.494,0.753 -0.526,1.193 l 0.018,-0.011 c -0.379,-0.17 -0.815,-0.283 -1.23,-0.166 -0.414,0.111 -0.734,0.445 -0.917,0.821 -0.363,0.762 -0.403,1.662 -0.157,2.464 l 0.016,-0.015 c -0.188,-0.049 -0.374,-0.106 -0.569,-0.113 -0.192,-0.016 -0.391,0.002 -0.575,0.063 -0.187,0.053 -0.355,0.16 -0.503,0.285 -0.144,0.131 -0.26,0.289 -0.355,0.458 -0.355,0.693 -0.371,1.527 -0.137,2.261 l 0.004,-0.013 c -0.225,0.182 -0.442,0.382 -0.6,0.628 -0.161,0.24 -0.253,0.547 -0.173,0.834 0.077,0.288 0.284,0.516 0.51,0.695 0.229,0.179 0.486,0.321 0.757,0.428 l -0.005,-0.019 c -0.738,0.825 -1.029,1.987 -0.855,3.069 0.153,1.09 0.634,2.103 1.216,3.024 0.588,0.924 1.295,1.768 2.078,2.532 0.786,0.757 1.634,1.468 2.611,1.968 0.992,0.467 2.061,0.746 3.141,0.917 1.079,0.167 2.18,0.237 3.271,0.147 1.088,-0.086 2.185,-0.046 3.275,-0.147 1.072,-0.106 2.22,-0.281 3.076,-0.997 l -0.013,-10e-4 c 0.444,0.453 1.11,0.728 1.744,0.578 0.639,-0.135 1.118,-0.657 1.374,-1.234 l -0.016,10e-4 c 0.129,0.184 0.306,0.347 0.524,0.417 0.217,0.076 0.453,0.064 0.672,0.015 0.221,-0.053 0.431,-0.142 0.631,-0.246 l 0.295,-0.166 0.147,-0.083 0.055,-0.017 -0.037,0.07 0.003,0.013 0.012,-0.003 0,0"
           clip-path="none"
           mask="none" />
        <path
           inkscape:connector-curvature="0"
           id="path758"
           style="fill:#ffffff;fill-opacity:1;fill-rule:nonzero;stroke:none"
           d="m 352.66497,320.46339 c -0.854,0.458 -2.37,0.503 -2.629,-1.007 -1.91,1.356 -3.875,0.765 -3.947,-1.615 -2.387,-0.146 -3.354,-3.584 -0.77,-4.094 -0.707,-1.927 -1.23,-4.945 1.821,-4.384 -0.726,-2.578 1.623,-3.731 3.609,-2.489 1.037,-1.546 3.384,-2.699 4.531,-0.567 2.572,-0.942 5.887,1.344 5.104,4.183 2.202,1.234 2.068,4.053 -0.286,4.99 1.139,1.916 -0.508,4.288 -1.535,5.221 -1.327,1.209 -4.739,2.328 -5.898,-0.238"
           clip-path="none"
           mask="none" />
        <path
           inkscape:connector-curvature="0"
           id="path782"
           style="fill:#f8f8f7;fill-opacity:1;fill-rule:nonzero;stroke:none"
           d="m 420.37697,309.86536 c 0,-0.58 -0.471,-1.052 -1.051,-1.052 -0.582,0 -1.052,0.472 -1.052,1.052 0,0.58 0.47,1.052 1.052,1.052 0.58,0 1.051,-0.472 1.051,-1.052"
           clip-path="none"
           mask="none" />
        <g
           transform="matrix(1.4428133,0,0,1.4428133,160.66091,-135.85463)"
           id="g4608">
          <path
             inkscape:connector-curvature="0"
             id="path390"
             style="fill:#28292a;fill-opacity:1;fill-rule:nonzero;stroke:none"
             d="m 158.208,305.656 c 0,-1.664 -1.349,-3.013 -3.012,-3.013 -1.665,0 -3.014,1.349 -3.014,3.013 0,1.666 1.349,3.014 3.014,3.014 1.663,0 3.012,-1.348 3.012,-3.014"
             clip-path="none"
             mask="none" />
          <path
             inkscape:connector-curvature="0"
             id="path392"
             style="fill:#f8f8f7;fill-opacity:1;fill-rule:nonzero;stroke:none"
             d="m 157.213,307.062 c 0,-0.58 -0.471,-1.05 -1.051,-1.05 -0.582,0 -1.051,0.47 -1.051,1.05 0,0.581 0.469,1.051 1.051,1.051 0.58,0 1.051,-0.47 1.051,-1.051"
             clip-path="none"
             mask="none" />
        </g>
        <g
           id="g5732"
           transform="matrix(0,1.4428133,-1.4428133,0,859.37837,81.233216)">
          <path
             mask="none"
             clip-path="none"
             d="m 158.208,305.656 c 0,-1.664 -1.349,-3.013 -3.012,-3.013 -1.665,0 -3.014,1.349 -3.014,3.013 0,1.666 1.349,3.014 3.014,3.014 1.663,0 3.012,-1.348 3.012,-3.014"
             style="fill:#28292a;fill-opacity:1;fill-rule:nonzero;stroke:none"
             id="path5734"
             inkscape:connector-curvature="0" />
          <path
             mask="none"
             clip-path="none"
             d="m 157.213,307.062 c 0,-0.58 -0.471,-1.05 -1.051,-1.05 -0.582,0 -1.051,0.47 -1.051,1.05 0,0.581 0.469,1.051 1.051,1.051 0.58,0 1.051,-0.47 1.051,-1.051"
             style="fill:#f8f8f7;fill-opacity:1;fill-rule:nonzero;stroke:none"
             id="path5736"
             inkscape:connector-curvature="0" />
        </g>
        <path
           mask="none"
           clip-path="none"
           d="m 419.36367,294.285 c -2.81,0 -5.087,1.133 -5.087,2.527 0,1.399 2.277,2.53 5.087,2.53 2.81,0 5.088,-1.131 5.088,-2.53 0,-1.394 -2.278,-2.527 -5.088,-2.527"
           style="fill:#f1caff;fill-opacity:0.85251796;fill-rule:nonzero;stroke:none"
           id="path5740"
           inkscape:connector-curvature="0" />
        <path
           mask="none"
           clip-path="none"
           d="m 414.99415,314.28562 c 0,0 0.59233,0.62324 1.73193,1.22587 0.56915,0.2923 1.26707,0.59362 2.06157,0.78291 0.40047,0.0708 0.81768,0.16997 1.24905,0.1777 0.43266,0.0154 0.87305,0.0258 1.31086,-0.0464 0.44167,-0.0322 0.86274,-0.17255 1.27995,-0.29101 0.42365,-0.10302 0.78549,-0.34896 1.1602,-0.50992 0.3657,-0.18414 0.66702,-0.45198 0.97091,-0.66316 0.31033,-0.20603 0.52666,-0.49318 0.76617,-0.70693 0.48546,-0.42751 0.73784,-0.91426 0.96447,-1.20398 0.20345,-0.30647 0.32063,-0.48288 0.32063,-0.48288 0,0 -0.15838,0.14164 -0.43394,0.38759 -0.27042,0.24594 -0.62968,0.62323 -1.13702,0.97863 -0.25239,0.17384 -0.48675,0.41979 -0.80223,0.57302 -0.31033,0.15967 -0.61551,0.3657 -0.95417,0.52022 -0.35411,0.12748 -0.69535,0.31677 -1.0765,0.40433 -0.37858,0.0979 -0.75715,0.21762 -1.15633,0.23694 -0.39017,0.0747 -0.78806,0.0734 -1.18081,0.0682 -0.39145,-0.004 -0.77904,-0.0554 -1.15247,-0.0992 -0.74299,-0.13134 -1.44091,-0.29616 -2.01779,-0.51764 -1.16664,-0.41077 -1.90448,-0.83442 -1.90448,-0.83442"
           style="fill:#090a0a;fill-opacity:1;fill-rule:nonzero;stroke:none"
           id="path5781"
           inkscape:connector-curvature="0" />
        <path
           inkscape:connector-curvature="0"
           id="path5783"
           style="fill:#090a0a;fill-opacity:1;fill-rule:nonzero;stroke:none"
           d="m 389.70787,314.70155 c 0,0 -0.64527,0.67893 -1.8867,1.33541 -0.62002,0.31843 -1.38031,0.64667 -2.2458,0.85288 -0.43626,0.0772 -0.89075,0.18516 -1.36067,0.19358 -0.47133,0.0168 -0.95107,0.0281 -1.428,-0.0505 -0.48115,-0.0351 -0.93985,-0.18797 -1.39434,-0.31702 -0.4615,-0.11222 -0.85567,-0.38015 -1.26388,-0.55549 -0.39838,-0.2006 -0.72662,-0.49237 -1.05767,-0.72242 -0.33806,-0.22444 -0.57372,-0.53725 -0.83464,-0.77011 -0.52883,-0.46571 -0.80377,-0.99595 -1.05066,-1.31157 -0.22163,-0.33386 -0.34928,-0.52603 -0.34928,-0.52603 0,0 0.17254,0.1543 0.47273,0.42222 0.29457,0.26793 0.68594,0.67894 1.23862,1.0661 0.27494,0.18937 0.53024,0.45729 0.87392,0.62422 0.33806,0.17394 0.67051,0.39838 1.03944,0.56671 0.38575,0.13887 0.75748,0.34508 1.1727,0.44046 0.41241,0.10661 0.82481,0.23707 1.25967,0.25811 0.42503,0.0814 0.85848,0.08 1.28632,0.0743 0.42644,-0.004 0.84866,-0.0603 1.25546,-0.10802 0.80939,-0.14308 1.56968,-0.32263 2.19811,-0.5639 1.27089,-0.44748 2.07467,-0.90898 2.07467,-0.90898"
           clip-path="none"
           mask="none" />
        <g
           id="g5873"
           transform="matrix(1.1085773,0,0,1.0452051,-44.140533,-13.745308)">
          <path
             mask="none"
             clip-path="none"
             d="m 402.23771,303.4025 -8.23479,-3.65023 c 0,0 -6.55648,-1.87861 8.23479,-19.86726"
             style="fill:#d77e3c;fill-opacity:1;fill-rule:nonzero;stroke:none"
             id="path118"
             inkscape:connector-curvature="0" />
          <path
             mask="none"
             clip-path="none"
             d="m 402.23647,303.4025 8.23354,-3.65023 c 0,0 6.55773,-1.87861 -8.23354,-19.86726"
             style="fill:#d77e3c;fill-opacity:1;fill-rule:nonzero;stroke:none"
             id="path120"
             inkscape:connector-curvature="0" />
          <path
             mask="none"
             clip-path="none"
             d="m 402.15187,304.06561 -8.23479,-3.32676 c 0,0 -6.55773,-1.71066 8.23479,-18.10061"
             style="fill:#f89e4e;fill-opacity:1;fill-rule:nonzero;stroke:none"
             id="path122"
             inkscape:connector-curvature="0" />
          <path
             mask="none"
             clip-path="none"
             d="m 402.14938,304.06561 8.23479,-3.32676 c 0,0 6.55897,-1.71066 -8.23479,-18.10061"
             style="fill:#f89e4e;fill-opacity:1;fill-rule:nonzero;stroke:none"
             id="path124"
             inkscape:connector-curvature="0" />
        </g>
        <g
           id="g6017"
           style="opacity:0.67">
          <path
             mask="none"
             clip-path="none"
             d="m 372.69497,346.87936 c 0,0 0.258,0.457 0.585,1.301 0.157,0.424 0.33,0.944 0.487,1.552 0.168,0.603 0.342,1.288 0.464,2.049 0.151,0.746 0.226,1.601 0.366,2.477 0.123,0.887 0.272,1.826 0.482,2.796 0.2,0.97 0.483,1.967 0.879,2.95 0.402,0.978 0.94,1.944 1.668,2.761 0.729,0.836 1.673,1.398 2.482,1.993 0.838,0.59 1.65,1.187 2.459,1.736 1.636,1.072 3.162,2.073 4.47,2.931 2.625,1.695 4.402,2.782 4.402,2.782 0,0 -1.701,-1.2 -4.253,-3.002 -1.267,-0.909 -2.744,-1.969 -4.328,-3.105 -0.791,-0.568 -1.588,-1.188 -2.41,-1.8 -0.406,-0.307 -0.816,-0.616 -1.227,-0.927 l -0.532,-0.52 -0.474,-0.574 c -1.205,-1.589 -1.792,-3.566 -2.222,-5.428 -0.423,-1.872 -0.684,-3.687 -1.117,-5.213 -0.194,-0.768 -0.433,-1.457 -0.659,-2.058 -0.248,-0.596 -0.499,-1.098 -0.718,-1.502 -0.44,-0.812 -0.804,-1.199 -0.804,-1.199"
             style="fill:#5d1018;fill-opacity:1;fill-rule:nonzero;stroke:none"
             id="path750"
             inkscape:connector-curvature="0" />
          <path
             mask="none"
             clip-path="none"
             d="m 377.00597,361.16036 c 0,0 0.128,0.821 0.508,2.01 0.201,0.59 0.46,1.272 0.785,1.984 0.348,0.702 0.769,1.428 1.255,2.115 0.261,0.331 0.506,0.676 0.81,0.965 0.277,0.312 0.607,0.563 0.905,0.824 0.657,0.477 1.281,0.812 1.797,1.138 0.511,0.335 0.924,0.637 1.162,0.897 0.253,0.257 0.251,0.484 0.224,0.479 0.02,0.02 0.095,-0.233 -0.132,-0.548 -0.199,-0.318 -0.573,-0.699 -1.068,-1.085 -0.244,-0.194 -0.52,-0.409 -0.815,-0.599 -0.306,-0.191 -0.591,-0.41 -0.897,-0.625 -0.276,-0.256 -0.581,-0.497 -0.838,-0.802 -0.276,-0.284 -0.522,-0.605 -0.78,-0.916 -0.483,-0.65 -0.907,-1.347 -1.266,-2.023 -0.366,-0.672 -0.668,-1.324 -0.907,-1.892 -0.487,-1.133 -0.743,-1.922 -0.743,-1.922"
             style="fill:#5d1018;fill-opacity:1;fill-rule:nonzero;stroke:none;opacity:0.88"
             id="path752"
             inkscape:connector-curvature="0" />
          <path
             inkscape:connector-curvature="0"
             id="path5903"
             style="fill:#fefffa;fill-opacity:1;fill-rule:nonzero;stroke:none;opacity:0.88"
             d="m 401.29719,349.45353 -0.915,1.676 -1.675,0.912 1.675,0.918 0.915,1.674 0.915,-1.674 1.674,-0.918 -1.674,-0.912 -0.915,-1.676"
             clip-path="none"
             mask="none" />
          <path
             mask="none"
             clip-path="none"
             d="m 422.58659,347.9329 -0.915,1.676 -1.675,0.912 1.675,0.918 0.915,1.674 0.915,-1.674 1.674,-0.918 -1.674,-0.912 -0.915,-1.676"
             style="fill:#fefffa;fill-opacity:1;fill-rule:nonzero;stroke:none;opacity:0.88"
             id="path5907"
             inkscape:connector-curvature="0" />
          <path
             inkscape:connector-curvature="0"
             id="path5941"
             style="fill:#fefffa;fill-opacity:1;fill-rule:nonzero;stroke:none;opacity:0.88"
             d="m 413.03259,353.04326 -0.915,1.676 -1.675,0.912 1.675,0.918 0.915,1.674 0.915,-1.674 1.674,-0.918 -1.674,-0.912 -0.915,-1.676"
             clip-path="none"
             mask="none" />
          <path
             inkscape:connector-curvature="0"
             id="path5951"
             style="fill:#fefffa;fill-opacity:1;fill-rule:nonzero;stroke:none;opacity:0.88"
             d="m 388.84223,353.93586 -0.915,1.676 -1.675,0.912 1.675,0.918 0.915,1.674 0.915,-1.674 1.674,-0.918 -1.674,-0.912 -0.915,-1.676"
             clip-path="none"
             mask="none" />
          <path
             mask="none"
             clip-path="none"
             d="m 357.16531,328.24834 -0.915,1.676 -1.675,0.912 1.675,0.918 0.915,1.674 0.915,-1.674 1.674,-0.918 -1.674,-0.912 -0.915,-1.676"
             style="fill:#fefffa;fill-opacity:1;fill-rule:nonzero;stroke:none;opacity:0.88"
             id="path5977"
             inkscape:connector-curvature="0" />
          <path
             inkscape:connector-curvature="0"
             id="path5979"
             style="fill:#fefffa;fill-opacity:1;fill-rule:nonzero;stroke:none;opacity:0.88"
             d="m 361.91685,340.27228 -0.915,1.49916 -1.675,0.81578 1.675,0.82114 0.915,1.49738 0.915,-1.49738 1.674,-0.82114 -1.674,-0.81578 -0.915,-1.49916"
             clip-path="none"
             mask="none" />
          <path
             mask="none"
             clip-path="none"
             d="m 369.83608,351.74968 -0.915,1.49916 -1.675,0.81578 1.675,0.82114 0.915,1.49738 0.915,-1.49738 1.674,-0.82114 -1.674,-0.81578 -0.915,-1.49916"
             style="fill:#fefffa;fill-opacity:1;fill-rule:nonzero;stroke:none;opacity:0.88"
             id="path5981"
             inkscape:connector-curvature="0" />
          <path
             inkscape:connector-curvature="0"
             id="path5983"
             style="fill:#fefffa;fill-opacity:1;fill-rule:nonzero;stroke:none;opacity:0.88"
             d="m 376.69941,365.95979 -0.915,1.49916 -1.675,0.81578 1.675,0.82114 0.915,1.49738 0.915,-1.49738 1.674,-0.82114 -1.674,-0.81578 -0.915,-1.49916"
             clip-path="none"
             mask="none" />
          <path
             mask="none"
             clip-path="none"
             d="m 387.78633,374.15793 -0.915,1.49916 -1.675,0.81578 1.675,0.82114 0.915,1.49738 0.915,-1.49738 1.674,-0.82114 -1.674,-0.81578 -0.915,-1.49916"
             style="fill:#fefffa;fill-opacity:1;fill-rule:nonzero;stroke:none;opacity:0.88"
             id="path5985"
             inkscape:connector-curvature="0" />
          <path
             inkscape:connector-curvature="0"
             id="path5987"
             style="fill:#fefffa;fill-opacity:1;fill-rule:nonzero;stroke:none;opacity:0.88"
             d="m 399.4012,375.79756 -0.915,1.49916 -1.675,0.81578 1.675,0.82114 0.915,1.49738 0.915,-1.49738 1.674,-0.82114 -1.674,-0.81578 -0.915,-1.49916"
             clip-path="none"
             mask="none" />
          <path
             mask="none"
             clip-path="none"
             d="m 411.01607,377.98373 -0.915,1.49916 -1.675,0.81578 1.675,0.82114 0.915,1.49738 0.915,-1.49738 1.674,-0.82114 -1.674,-0.81578 -0.915,-1.49916"
             style="fill:#fefffa;fill-opacity:1;fill-rule:nonzero;stroke:none;opacity:0.88"
             id="path5989"
             inkscape:connector-curvature="0" />
          <path
             inkscape:connector-curvature="0"
             id="path5991"
             style="fill:#fefffa;fill-opacity:1;fill-rule:nonzero;stroke:none;opacity:0.88"
             d="m 417.35145,372.5183 -0.915,1.49916 -1.675,0.81578 1.675,0.82114 0.915,1.49738 0.915,-1.49738 1.674,-0.82114 -1.674,-0.81578 -0.915,-1.49916"
             clip-path="none"
             mask="none" />
          <path
             mask="none"
             clip-path="none"
             d="m 421.04709,364.8667 -0.915,1.49916 -1.675,0.81578 1.675,0.82114 0.915,1.49738 0.915,-1.49738 1.674,-0.82114 -1.674,-0.81578 -0.915,-1.49916"
             style="fill:#fefffa;fill-opacity:1;fill-rule:nonzero;stroke:none;opacity:0.88"
             id="path5993"
             inkscape:connector-curvature="0" />
          <path
             inkscape:connector-curvature="0"
             id="path5995"
             style="fill:#fefffa;fill-opacity:1;fill-rule:nonzero;stroke:none;opacity:0.88"
             d="m 380.39504,349.01696 -0.915,1.49916 -1.675,0.81578 1.675,0.82114 0.915,1.49738 0.915,-1.49738 1.674,-0.82114 -1.674,-0.81578 -0.915,-1.49916"
             clip-path="none"
             mask="none" />
          <path
             mask="none"
             clip-path="none"
             d="m 390.42607,362.13399 -0.915,1.49916 -1.675,0.81578 1.675,0.82114 0.915,1.49738 0.915,-1.49738 1.674,-0.82114 -1.674,-0.81578 -0.915,-1.49916"
             style="fill:#fefffa;fill-opacity:1;fill-rule:nonzero;stroke:none;opacity:0.88"
             id="path5997"
             inkscape:connector-curvature="0" />
          <path
             inkscape:connector-curvature="0"
             id="path5999"
             style="fill:#fefffa;fill-opacity:1;fill-rule:nonzero;stroke:none;opacity:0.88"
             d="m 380.39504,357.76165 -0.915,1.49916 -1.675,0.81578 1.675,0.82114 0.915,1.49738 0.915,-1.49738 1.674,-0.82114 -1.674,-0.81578 -0.915,-1.49916"
             clip-path="none"
             mask="none" />
          <path
             mask="none"
             clip-path="none"
             d="m 380.39504,357.76165 -0.915,1.49916 -1.675,0.81578 1.675,0.82114 0.915,1.49738 0.915,-1.49738 1.674,-0.82114 -1.674,-0.81578 -0.915,-1.49916"
             style="fill:#fefffa;fill-opacity:1;fill-rule:nonzero;stroke:none;opacity:0.88"
             id="path6001"
             inkscape:connector-curvature="0" />
          <path
             inkscape:connector-curvature="0"
             id="path6003"
             style="fill:#fefffa;fill-opacity:1;fill-rule:nonzero;stroke:none;opacity:0.88"
             d="m 397.2894,366.50633 -0.915,1.49916 -1.675,0.81578 1.675,0.82114 0.915,1.49738 0.915,-1.49738 1.674,-0.82114 -1.674,-0.81578 -0.915,-1.49916"
             clip-path="none"
             mask="none" />
          <path
             mask="none"
             clip-path="none"
             d="m 407.32043,367.59942 -0.915,1.49916 -1.675,0.81578 1.675,0.82114 0.915,1.49738 0.915,-1.49738 1.674,-0.82114 -1.674,-0.81578 -0.915,-1.49916"
             style="fill:#fefffa;fill-opacity:1;fill-rule:nonzero;stroke:none;opacity:0.88"
             id="path6005"
             inkscape:connector-curvature="0" />
          <path
             inkscape:connector-curvature="0"
             id="path6007"
             style="fill:#fefffa;fill-opacity:1;fill-rule:nonzero;stroke:none;opacity:0.88"
             d="m 400.98505,358.85473 -0.915,1.49916 -1.675,0.81578 1.675,0.82114 0.915,1.49738 0.915,-1.49738 1.674,-0.82114 -1.674,-0.81578 -0.915,-1.49916"
             clip-path="none"
             mask="none" />
          <path
             mask="none"
             clip-path="none"
             d="m 411.01608,361.0409 -0.915,1.49916 -1.675,0.81578 1.675,0.82114 0.915,1.49738 0.915,-1.49738 1.674,-0.82114 -1.674,-0.81578 -0.915,-1.49916"
             style="fill:#fefffa;fill-opacity:1;fill-rule:nonzero;stroke:none;opacity:0.88"
             id="path6009"
             inkscape:connector-curvature="0" />
          <path
             inkscape:connector-curvature="0"
             id="path6011"
             style="fill:#fefffa;fill-opacity:1;fill-rule:nonzero;stroke:none;opacity:0.88"
             d="m 393.59377,350.65659 -0.915,1.49916 -1.675,0.81578 1.675,0.82114 0.915,1.49738 0.915,-1.49738 1.674,-0.82114 -1.674,-0.81578 -0.915,-1.49916"
             clip-path="none"
             mask="none" />
          <path
             mask="none"
             clip-path="none"
             d="m 423.1589,356.12202 -0.915,1.49916 -1.675,0.81578 1.675,0.82114 0.915,1.49738 0.915,-1.49738 1.674,-0.82114 -1.674,-0.81578 -0.915,-1.49916"
             style="fill:#fefffa;fill-opacity:1;fill-rule:nonzero;stroke:none;opacity:0.88"
             id="path6013"
             inkscape:connector-curvature="0" />
          <path
             inkscape:connector-curvature="0"
             id="path6015"
             style="fill:#fefffa;fill-opacity:1;fill-rule:nonzero;stroke:none;opacity:0.88"
             d="m 430.02223,347.92388 -0.915,1.49916 -1.675,0.81578 1.675,0.82114 0.915,1.49738 0.915,-1.49738 1.674,-0.82114 -1.674,-0.81578 -0.915,-1.49916"
             clip-path="none"
             mask="none" />
        </g>
      </g>
    </g>
  </g>
</svg>
