<?xml version="1.0" encoding="UTF-8" standalone="no"?>
<!-- Created with Inkscape (http://www.inkscape.org/) -->

<svg
   xmlns:dc="http://purl.org/dc/elements/1.1/"
   xmlns:cc="http://creativecommons.org/ns#"
   xmlns:rdf="http://www.w3.org/1999/02/22-rdf-syntax-ns#"
   xmlns:svg="http://www.w3.org/2000/svg"
   xmlns="http://www.w3.org/2000/svg"
   xmlns:xlink="http://www.w3.org/1999/xlink"
   xmlns:sodipodi="http://sodipodi.sourceforge.net/DTD/sodipodi-0.dtd"
   xmlns:inkscape="http://www.inkscape.org/namespaces/inkscape"
   viewBox="0 0 96 96"
   version="1.1"
   id="svg6"
   sodipodi:docname="amule.svg"
   inkscape:version="0.92.1 r15371">
  <metadata
     id="metadata10">
    <rdf:RDF>
      <cc:Work
         rdf:about="">
        <dc:format>image/svg+xml</dc:format>
        <dc:type
           rdf:resource="http://purl.org/dc/dcmitype/StillImage" />
        <dc:title></dc:title>
        <cc:license
           rdf:resource="http://creativecommons.org/licenses/by-sa/4.0/" />
      </cc:Work>
      <cc:License
         rdf:about="http://creativecommons.org/licenses/by-sa/4.0/">
        <cc:permits
           rdf:resource="http://creativecommons.org/ns#Reproduction" />
        <cc:permits
           rdf:resource="http://creativecommons.org/ns#Distribution" />
        <cc:requires
           rdf:resource="http://creativecommons.org/ns#Notice" />
        <cc:requires
           rdf:resource="http://creativecommons.org/ns#Attribution" />
        <cc:permits
           rdf:resource="http://creativecommons.org/ns#DerivativeWorks" />
        <cc:requires
           rdf:resource="http://creativecommons.org/ns#ShareAlike" />
      </cc:License>
    </rdf:RDF>
  </metadata>
  <sodipodi:namedview
     pagecolor="#ffffff"
     bordercolor="#666666"
     borderopacity="1"
     objecttolerance="10"
     gridtolerance="10"
     guidetolerance="10"
     inkscape:pageopacity="0"
     inkscape:pageshadow="2"
     inkscape:window-width="1280"
     inkscape:window-height="973"
     id="namedview8"
     showgrid="false"
     inkscape:zoom="7.2604167"
     inkscape:cx="52.417093"
     inkscape:cy="48"
     inkscape:window-x="0"
     inkscape:window-y="25"
     inkscape:window-maximized="1"
     inkscape:current-layer="g50"
     inkscape:showpageshadow="false" />
  <defs
     id="defs3051">
    <style
       type="text/css"
       id="current-color-scheme">
      .ColorScheme-Text {
        color:#4d4d4d;
      }
      </style>
    <linearGradient
       id="linearGradient6139-0">
      <stop
         id="stop6141-2"
         offset="0"
         style="stop-color:#b2b9bc;stop-opacity:1" />
      <stop
         style="stop-color:#ffffff;stop-opacity:1;"
         offset="0.25"
         id="stop6151-0" />
      <stop
         style="stop-color:#969fa4;stop-opacity:1"
         offset="0.5"
         id="stop6147-1" />
      <stop
         id="stop6149-4"
         offset="0.75"
         style="stop-color:#fbf9f9;stop-opacity:1;" />
      <stop
         id="stop6143-4"
         offset="1"
         style="stop-color:#b2b7bc;stop-opacity:1" />
    </linearGradient>
    <linearGradient
       gradientTransform="translate(0.1489535,0.415026)"
       inkscape:collect="always"
       xlink:href="#linearGradient3832-0-6-1-1"
       id="linearGradient4129"
       x1="1.5"
       y1="88.171875"
       x2="94.5"
       y2="88.171875"
       gradientUnits="userSpaceOnUse" />
    <linearGradient
       id="linearGradient3832-0-6-1-1">
      <stop
         style="stop-color:#000000;stop-opacity:1;"
         offset="0"
         id="stop3834-6-3-7-1" />
      <stop
         id="stop3872-2-4"
         offset="0.1"
         style="stop-color:#000000;stop-opacity:0.58823532;" />
      <stop
         style="stop-color:#000000;stop-opacity:0.58823532;"
         offset="0.89999998"
         id="stop3844-6-2-7-6" />
      <stop
         style="stop-color:#000000;stop-opacity:1;"
         offset="1"
         id="stop3836-5-0-2-9" />
    </linearGradient>
    <radialGradient
       inkscape:collect="always"
       xlink:href="#linearGradient3737"
       id="radialGradient7462"
       gradientUnits="userSpaceOnUse"
       gradientTransform="matrix(0.97513378,0,0,0.04919072,34.047649,80.581722)"
       cx="13.948145"
       cy="44.892841"
       fx="13.948145"
       fy="44.892841"
       r="43.199203" />
    <linearGradient
       id="linearGradient3737">
      <stop
         offset="0"
         style="stop-color:#ffffff;stop-opacity:1"
         id="stop3739" />
      <stop
         offset="1"
         style="stop-color:#ffffff;stop-opacity:0"
         id="stop3741" />
    </linearGradient>
    <radialGradient
       inkscape:collect="always"
       xlink:href="#linearGradient3737"
       id="radialGradient7464"
       gradientUnits="userSpaceOnUse"
       gradientTransform="matrix(0.88832663,0,0,0.04919072,31.959518,-90.31726)"
       cx="13.948145"
       cy="44.892841"
       fx="13.948145"
       fy="44.892841"
       r="43.199203" />
    <linearGradient
       inkscape:collect="always"
       xlink:href="#linearGradient3737"
       id="linearGradient4767"
       gradientUnits="userSpaceOnUse"
       x1="2.7713892"
       y1="-28.64156"
       x2="50.527882"
       y2="14.514202" />
    <clipPath
       id="clipPath4156-4-1"
       clipPathUnits="userSpaceOnUse">
      <path
         inkscape:connector-curvature="0"
         id="path4158-0-8"
         d="m 27.046336,-55.695463 -14.21366,13.321486 h 0.06127 l 15.653407,21.770763 10.231384,-10.546177 C 38.561832,-32.30156 27.468089,-54.819245 27.046336,-55.695463 Z M 9.6468554,-39.382809 -5.2407289,-25.32124 15.987863,-7.8059573 26.372412,-18.382966 Z m 31.4906096,12.951445 -9.741259,9.713584 8.944804,12.4580526 7.780753,-7.5550056 z m -49.8397109,4.378822 -13.7541661,12.9822847 26.2830181,13.84571 0.06127,-0.0617 -0.122531,-0.0617 L 13.598503,-5.4007374 -8.7022409,-22.052595 Z m 38.0154159,7.400825 -9.802525,9.7752596 11.579232,9.5594001 7.62759,-7.40083 -8.669108,-11.0087257 z m 20.187073,5.6739697 -7.382526,7.2158 6.187844,8.54179 5.820249,-6.13651996 z m -32.195166,6.32154 -9.5574606,9.49772 13.6622686,7.1849703 7.933918,-7.6783603 z m 23.311629,2.37443004 -7.10683,6.93826996 8.362778,6.9074403 5.360756,-5.6739699 -0.06127,-0.0925 -0.0919,0.12335 -6.463539,-8.20258036 z m -8.730374,8.54178036 -7.505057,7.3391599 10.353916,5.45811 c 1.397496,-1.32103 5.67514,-6.12292 5.850882,-6.32154 z"
         style="opacity:0.6;fill:#ffffff;fill-opacity:1;stroke:none" />
    </clipPath>
    <linearGradient
       inkscape:collect="always"
       xlink:href="#linearGradient6139-0"
       id="linearGradient4524"
       x1="1.6489545"
       y1="48.415028"
       x2="94.648949"
       y2="48.415028"
       gradientUnits="userSpaceOnUse" />
    <linearGradient
       id="linearGradient10104">
      <stop
         id="stop10106"
         offset="0"
         style="stop-color:#b0b2af;stop-opacity:1" />
      <stop
         id="stop10108"
         offset="1"
         style="stop-color:#d4d6d3;stop-opacity:1" />
    </linearGradient>
    <linearGradient
       id="linearGradient8154">
      <stop
         id="stop8156"
         offset="0"
         style="stop-color:#625e5c;stop-opacity:1" />
      <stop
         id="stop8158"
         offset="1"
         style="stop-color:#a6a8a5;stop-opacity:1" />
    </linearGradient>
    <linearGradient
       id="linearGradient4241">
      <stop
         id="stop4243"
         offset="0"
         style="stop-color:#e1a56e;stop-opacity:1" />
      <stop
         id="stop4245"
         offset="1"
         style="stop-color:#a66a33;stop-opacity:1" />
    </linearGradient>
    <linearGradient
       id="linearGradient3264">
      <stop
         id="stop3266"
         offset="0"
         style="stop-color:#ec7b74;stop-opacity:1" />
      <stop
         id="stop3268"
         offset="1"
         style="stop-color:#d63a45;stop-opacity:1" />
    </linearGradient>
    <linearGradient
       gradientTransform="matrix(116.25157,0,0,116.25157,-0.4348338,-0.4283132)"
       gradientUnits="userSpaceOnUse"
       xlink:href="#linearGradient8154"
       id="linearGradient15108"
       y2="5.0079598"
       x2="4.7428908"
       y1="6.0564399"
       x1="4.7428908" />
    <linearGradient
       gradientTransform="matrix(116.25157,0,0,116.25157,-0.4348338,-0.4283132)"
       gradientUnits="userSpaceOnUse"
       xlink:href="#linearGradient8154"
       id="linearGradient15111"
       y2="6.3150902"
       x2="5.3147106"
       y1="7.4951501"
       x1="5.3147106" />
    <linearGradient
       gradientTransform="matrix(116.25157,0,0,116.25157,-0.4348338,-0.4283132)"
       gradientUnits="userSpaceOnUse"
       xlink:href="#linearGradient8154"
       id="linearGradient15114"
       y2="5.0079598"
       x2="0.91182125"
       y1="6.1099501"
       x1="0.91182125" />
    <linearGradient
       gradientTransform="matrix(116.25157,0,0,116.25157,-0.4348338,-0.4283132)"
       gradientUnits="userSpaceOnUse"
       xlink:href="#linearGradient8154"
       id="linearGradient15117"
       y2="6.24089"
       x2="0.56385255"
       y1="7.43191"
       x1="0.56385255" />
    <radialGradient
       gradientTransform="matrix(116.25156,128.93341,-23.78506,21.445567,44.308907,-10.684272)"
       gradientUnits="userSpaceOnUse"
       xlink:href="#linearGradient4241"
       id="radialGradient15120"
       fy="1.5863022"
       fx="1.5118316"
       r="0.77457374"
       cy="1.5863022"
       cx="1.5118316" />
    <radialGradient
       gradientTransform="matrix(56.431186,16.902757,-89.184694,297.75011,296.00926,-276.05045)"
       gradientUnits="userSpaceOnUse"
       xlink:href="#linearGradient4241"
       id="radialGradient15123"
       fy="1.2456843"
       fx="3.3883746"
       r="0.46976188"
       cy="1.2456843"
       cx="3.3883746" />
    <linearGradient
       gradientTransform="matrix(116.25157,0,0,116.25157,-0.4348338,-0.4283132)"
       gradientUnits="userSpaceOnUse"
       xlink:href="#linearGradient4241"
       id="linearGradient15126"
       y2="5.5388651"
       x2="2.0256701"
       y1="5.5388651"
       x1="0.86579001" />
    <linearGradient
       gradientTransform="matrix(116.25157,0,0,116.25157,-0.4348338,-0.4283132)"
       gradientUnits="userSpaceOnUse"
       xlink:href="#linearGradient4241"
       id="linearGradient15129"
       y2="6.77776"
       x2="2.1632199"
       y1="6.77776"
       x1="0.45398" />
    <linearGradient
       gradientTransform="matrix(116.25157,0,0,116.25157,-0.4348338,-0.4283132)"
       gradientUnits="userSpaceOnUse"
       xlink:href="#linearGradient4241"
       id="linearGradient15132"
       y2="6.85675"
       x2="3.4426501"
       y1="6.85675"
       x1="5.3441901" />
    <linearGradient
       gradientTransform="matrix(116.25157,0,0,116.25157,-0.4348338,-0.4283132)"
       gradientUnits="userSpaceOnUse"
       xlink:href="#linearGradient4241"
       id="linearGradient15135"
       y2="5.4751501"
       x2="3.6824317"
       y1="5.4751501"
       x1="4.8165002" />
    <radialGradient
       gradientTransform="matrix(79.193871,-30.312074,49.803498,130.11752,-153.79953,27.547534)"
       gradientUnits="userSpaceOnUse"
       xlink:href="#linearGradient3264"
       id="radialGradient15138"
       fy="5.7653866"
       fx="3.7747288"
       r="0.34648392"
       cy="5.7653866"
       cx="3.7747288" />
    <radialGradient
       gradientTransform="matrix(116.25157,0,0,82.513993,-0.4348338,214.29596)"
       gradientUnits="userSpaceOnUse"
       xlink:href="#linearGradient4241"
       id="radialGradient15141"
       fy="6.1444077"
       fx="3.1514964"
       r="1.1824991"
       cy="6.1444077"
       cx="3.1514964" />
    <linearGradient
       gradientTransform="matrix(116.25157,0,0,116.25157,-0.4348338,-0.4283132)"
       gradientUnits="userSpaceOnUse"
       xlink:href="#linearGradient8154"
       id="linearGradient15147"
       y2="4.6131067"
       x2="2.7751212"
       y1="5.5686064"
       x1="2.7751212" />
    <linearGradient
       gradientTransform="matrix(116.25157,0,0,116.25157,-0.4348338,-0.4283132)"
       gradientUnits="userSpaceOnUse"
       xlink:href="#linearGradient10104"
       id="linearGradient15154"
       y2="2.9390848"
       x2="2.7847881"
       y1="5.56534"
       x1="2.7847881" />
    <radialGradient
       gradientTransform="matrix(65.029071,-16.25233,40.210302,160.8901,-14.376943,-128.99928)"
       gradientUnits="userSpaceOnUse"
       xlink:href="#linearGradient4241"
       id="radialGradient15157"
       fy="3.8941741"
       fx="2.7847881"
       r="1.2807455"
       cy="3.8941741"
       cx="2.7847881" />
    <radialGradient
       gradientTransform="matrix(65.029071,-16.25233,40.210302,160.8901,-14.376943,-128.99928)"
       gradientUnits="userSpaceOnUse"
       xlink:href="#linearGradient4241"
       id="radialGradient2314"
       fy="3.8941741"
       fx="2.7847881"
       r="1.2807455"
       cy="3.8941741"
       cx="2.7847881" />
    <radialGradient
       gradientTransform="matrix(116.25157,0,0,82.513993,-0.4348338,214.29596)"
       gradientUnits="userSpaceOnUse"
       xlink:href="#linearGradient4241"
       id="radialGradient2320"
       fy="6.1444077"
       fx="3.1514964"
       r="1.1824991"
       cy="6.1444077"
       cx="3.1514964" />
    <radialGradient
       gradientTransform="matrix(79.193871,-30.312074,49.803498,130.11752,-153.79953,27.547534)"
       gradientUnits="userSpaceOnUse"
       xlink:href="#linearGradient3264"
       id="radialGradient2322"
       fy="5.7653866"
       fx="3.7747288"
       r="0.34648392"
       cy="5.7653866"
       cx="3.7747288" />
    <radialGradient
       gradientTransform="matrix(56.431186,16.902757,-89.184694,297.75011,296.00926,-276.05045)"
       gradientUnits="userSpaceOnUse"
       xlink:href="#linearGradient4241"
       id="radialGradient2332"
       fy="1.2456843"
       fx="3.3883746"
       r="0.46976188"
       cy="1.2456843"
       cx="3.3883746" />
    <radialGradient
       gradientTransform="matrix(116.25156,128.93341,-23.78506,21.445567,44.308907,-10.684272)"
       gradientUnits="userSpaceOnUse"
       xlink:href="#linearGradient4241"
       id="radialGradient2334"
       fy="1.5863022"
       fx="1.5118316"
       r="0.77457374"
       cy="1.5863022"
       cx="1.5118316" />
  </defs>
  <g
     transform="translate(0,-1026.5197)"
     id="layer1"
     inkscape:label="Livello 1">
    <g
       id="g2574"
       style="display:inline"
       transform="translate(-0.14895645,1026.1047)">
      <g
         id="g50">
        <path
           inkscape:connector-curvature="0"
           id="path3288"
           d="M 89.29181,0.415026 H 7.0060911 c -3.798848,0 -6.8571352,3.058285 -6.8571352,6.8571399 V 89.557884 c 0,3.798857 3.0582872,6.857142 6.8571352,6.857142 H 89.29181 c 3.798857,0 6.857147,-3.058285 6.857147,-6.857142 V 7.2721659 c 0,-3.7988549 -3.05829,-6.8571399 -6.857147,-6.8571399 z"
           style="display:inline;opacity:0.15;fill:#000000;fill-opacity:1;fill-rule:nonzero;stroke:none" />
        <path
           style="display:inline;opacity:0.15;fill:#000000;fill-opacity:1;fill-rule:nonzero;stroke:none"
           d="M 88.648954,1.165026 H 7.6489471 c -3.739492,0 -6.749993,3.010499 -6.749993,6.7499969 V 88.915026 c 0,3.739501 3.010501,6.75 6.749993,6.75 H 88.648954 c 3.739503,0 6.750003,-3.010499 6.750003,-6.75 V 7.9150229 c 0,-3.7394979 -3.0105,-6.7499969 -6.750003,-6.7499969 z"
           id="path4085"
           inkscape:connector-curvature="0" />
        <path
           inkscape:connector-curvature="0"
           id="rect4251-1"
           d="M 88.006093,1.915026 H 8.2918111 c -3.680143,0 -6.6428566,2.962713 -6.6428566,6.6428549 V 88.272171 c 0,3.680142 2.9627136,6.642856 6.6428566,6.642856 H 88.006093 c 3.680143,0 6.642854,-2.962714 6.642854,-6.642856 V 8.5578809 c 0,-3.6801419 -2.962711,-6.6428549 -6.642854,-6.6428549 z"
           style="display:inline;fill:url(#linearGradient4524);fill-opacity:1.0;fill-rule:nonzero;stroke:none" />
        <path
           sodipodi:nodetypes="sscccsccscccsss"
           inkscape:connector-curvature="0"
           id="path3400-6"
           d="m 11.390247,6.8021682 c -2.8564964,0 -5.1241284,2.2883782 -5.1241284,5.1710028 v 21.42734 7.239403 39.913674 c 1.0972399,1.684484 2.9688485,2.811732 5.1241284,2.811732 h 4.099303 65.588849 4.099302 c 2.155281,0 4.026889,-1.127248 5.124129,-2.811732 V 40.639914 33.400511 11.973171 c 0,-2.8826246 -2.267632,-5.1710028 -5.124129,-5.1710028 z"
           style="display:inline;opacity:0.77864583;fill:#f3f4f5;fill-opacity:1;fill-rule:nonzero;stroke:none;stroke-width:1.02950251" />
        <path
           style="color:#000000;font-style:normal;font-variant:normal;font-weight:normal;font-stretch:normal;font-size:medium;line-height:normal;font-family:Sans;-inkscape-font-specification:Sans;text-indent:0;text-align:start;text-decoration:none;text-decoration-line:none;letter-spacing:normal;word-spacing:normal;text-transform:none;writing-mode:lr-tb;direction:ltr;baseline-shift:baseline;text-anchor:start;display:inline;overflow:visible;visibility:visible;fill:#241f1f;fill-opacity:0.63265303;stroke:none;stroke-width:2.3755002;marker:none;enable-background:accumulate"
           d="m 9.9740341,5.1444869 c -3.116621,0 -5.667965,2.53951 -5.667965,5.6460041 v 69.277996 c 0,3.106495 2.551344,5.646004 5.667965,5.646004 H 86.765819 c 3.116621,0 5.667968,-2.539509 5.667968,-5.646004 V 10.790491 c 0,-3.1064931 -2.551347,-5.6460041 -5.667968,-5.6460041 z m 0,2.319439 H 86.765819 c 1.888099,0 3.352022,1.480095 3.352022,3.3265651 v 69.277996 c 0,1.846474 -1.463923,3.326564 -3.352022,3.326564 H 9.9740341 c -1.888099,0 -3.352022,-1.48009 -3.352022,-3.326564 V 10.790491 c 0,-1.8464701 1.463923,-3.3265651 3.352022,-3.3265651 z"
           id="path4989"
           inkscape:connector-curvature="0" />
        <path
           id="path4118"
           d="m 1.6489535,82.258776 v 6 c 0,3.680142 2.9761066,6.65625 6.6562496,6.65625 H 87.992703 c 3.680143,0 6.656254,-2.976108 6.656254,-6.65625 v -6 c 0,3.680142 -2.976111,6.65625 -6.656254,6.65625 H 8.3052031 c -3.680143,0 -6.6562496,-2.976108 -6.6562496,-6.65625 z"
           style="display:inline;opacity:0.65818182;fill:url(#linearGradient4129);fill-opacity:1;fill-rule:nonzero;stroke:none"
           inkscape:connector-curvature="0" />
        <rect
           ry="4.25"
           rx="0"
           y="80.665031"
           x="5.5239539"
           height="4.25"
           width="84.250008"
           id="rect4131"
           style="opacity:0.55;fill:url(#radialGradient7462);fill-opacity:1;stroke:none" />
        <rect
           transform="rotate(90)"
           style="opacity:0.669;fill:url(#radialGradient7464);fill-opacity:1;stroke:none"
           id="rect4141"
           width="76.75"
           height="4.25"
           x="5.9750223"
           y="-90.233963"
           rx="0"
           ry="4.25" />
        <g
           id="g2265"
           transform="matrix(0.08281221,0,0,0.08281221,20.430364,9.5797336)">
          <path
             id="_42184048"
             style="fill:#858683;fill-opacity:1;stroke:none;stroke-width:0.00762"
             d="m 104.13113,717.02521 92.55949,-23.91295 -6.17296,24.01757 z M 54.898587,679.30157 c 1.534521,10.19527 13.985063,37.30513 23.285189,37.68876 l -60.427565,-0.0814 C 7.5376987,725.65107 1.4228663,741.71704 0.70210656,749.6919 -0.84403928,766.653 -0.65803677,775.04636 10.176609,782.59109 -2.5064367,794.64638 -1.1579185,844.29742 26.95171,872.40705 l 221.64524,-41.73431 c 47.00051,21.91342 118.26272,25.80785 161.6478,8.67236 l 231.515,39.88592 c 10.97414,-10.66027 40.15329,-45.52412 20.5649,-88.32794 10.11388,-14.47332 11.14852,-48.38391 -8.32361,-68.98368 l -165.29811,-0.94164 -8.26548,-29.88828 86.32841,20.98341 c 11.02065,-8.68399 49.59292,-51.73195 18.7165,-86.35166 19.50702,-19.69302 22.21568,-24.74996 2.52266,-55.41713 l -107.27694,-1.9879 c 6.95184,-22.56443 4.55706,-48.00027 -11.95066,-74.15687 -35.35211,-55.33575 -70.51821,-112.7524 -72.50611,-186.73489 l 18.90251,0.0349 -16.94948,-19.92552 34.48021,0.0581 -29.6674,-15.18246 27.48187,-19.69301 -41.4553,-0.22088 C 415.87133,181.02411 419.603,110.49428 428.10099,33.931 434.86683,-27.042947 390.29598,4.4612277 364.68576,48.009065 339.06392,91.556902 293.1678,145.021 289.18037,225.79259 l -42.33882,-39.94404 7.2076,49.19766 C 216.93002,187.8597 171.77791,153.08886 99.60894,112.56356 c -59.113922,-33.189823 -14.054815,70.86695 4.45243,99.08121 13.14806,20.0534 42.78058,57.60265 69.53007,87.07242 l -12.62492,23.38982 9.3815,-1.13927 -4.11531,12.36917 19.61164,3.58055 c 0,40.72292 12.54355,74.029 8.95137,115.40293 -4.37106,50.31368 -35.80548,85.56115 -29.44652,128.30685 l -98.418576,-0.558 c -19.634889,21.12291 -19.495388,56.21925 -1.790274,60.12531 -12.136664,8.77699 -12.996925,20.77415 -10.241763,39.10702 z"
             inkscape:connector-curvature="0" />
          <path
             id="path13"
             style="fill:none;stroke:#1f1a17;stroke-width:4.10019302"
             d="m 387.61987,314.84129 c -8.27595,-83.29425 -191.26638,-78.83484 -191.26638,38.62109 0,37.58878 11.59145,66.63889 8.27595,104.82869 -5.5173,63.55473 -62.1632,96.14004 -4.59775,164.59943 29.07219,34.57438 118.72657,22.32728 156.32348,20.2301 72.09574,-4.02231 148.58229,-71.96786 101.15049,-146.20844 -32.6353,-51.07861 -68.04669,-113.79052 -69.88579,-182.07087 z"
             inkscape:connector-curvature="0" />
          <path
             id="path15"
             style="fill:none;stroke:#1f1a17;stroke-width:4.10019302"
             d="m 337.96418,428.86547 c 9.67096,7.73189 56.21228,17.19245 56.32504,-0.92303 0.11044,-17.83881 -0.50453,-32.98871 -2.75865,-43.01773 -2.25411,-10.02903 -6.84373,-29.03267 -16.09386,-37.21562 -5.81258,-5.14181 -21.0427,-8.0946 -29.65113,-5.51381 -8.60843,2.58078 -22.51909,42.38648 -22.5342,55.4055 -0.0209,17.00993 5.04183,23.5328 14.7128,31.26469 z"
             inkscape:connector-curvature="0" />
          <path
             id="path17"
             style="fill:none;stroke:#1f1a17;stroke-width:4.10019302"
             d="m 248.41676,462.85627 c 23.43631,-11.42753 42.61782,-24.09663 38.11307,-58.77679 -1.75423,-13.51309 -18.96644,-36.37279 -29.84759,-43.6234 -27.48187,-18.31311 -45.91936,13.49564 -43.6234,39.94985 1.70541,19.66046 11.9216,73.87787 35.35792,62.45034 z"
             inkscape:connector-curvature="0" />
          <path
             id="path23"
             style="fill:none;stroke:#1f1a17;stroke-width:4.10019302"
             d="m 260.71734,645.92691 c 8.50729,2.5122 13.3573,9.22572 25.75204,12.82604 31.47744,9.14086 61.11694,5.45568 85.12986,-2.72029"
             inkscape:connector-curvature="0" />
          <path
             id="path25"
             style="fill:none;stroke:#1f1a17;stroke-width:4.10019302"
             d="m 370.19841,641.58143 c -0.15694,17.74812 6.48103,32.07148 14.66281,47.51666 13.86416,26.17521 61.40175,27.29471 65.28804,-6.43685 2.7075,-23.49909 -3.47708,-44.81498 -22.47607,-64.4394 m 21.37401,38.00612 c 11.44845,19.88367 62.75376,101.81894 -15.44983,159.76802 -51.0263,37.81198 -205.78388,24.2989 -224.37018,-37.70155 -20.67534,-68.96973 2.55172,-85.76227 25.82529,-136.40726"
             inkscape:connector-curvature="0" />
          <path
             id="path27"
             style="fill:none;stroke:#1f1a17;stroke-width:4.10019302"
             d="M 259.66177,265.72151 C 225.34896,212.52247 168.24968,163.82353 98.420849,123.11106 c -47.567817,-27.732969 8.102731,74.82184 22.993401,98.38952 14.89066,23.56768 57.64334,71.58771 81.35633,96.6283"
             inkscape:connector-curvature="0" />
          <path
             id="path29"
             style="fill:none;stroke:#1f1a17;stroke-width:4.10019302"
             d="m 309.76503,258.1268 c -2.42384,-84.42073 -1.62403,-79.03828 18.38984,-118.83701 20.01387,-39.798719 38.25607,-71.415658 57.82702,-100.301847 15.26266,-22.527229 37.5353,-49.720795 30.80085,6.687953 -8.94556,74.931114 -20.65558,170.703804 -54.7324,228.156484"
             inkscape:connector-curvature="0" />
          <polyline
             style="fill:none;stroke:#1f1a17;stroke-width:0.03527"
             id="polyline31"
             points="3.17115,2.26223 3.38424,2.25963 3.28167,2.36483 3.45525,2.38061 3.26063,2.43058 3.34742,2.48318 3.25348,2.48791 "
             class="fil1 str1"
             transform="matrix(116.25157,0,0,116.25157,-0.4348338,-0.4283132)" />
          <polyline
             style="fill:none;stroke:#1f1a17;stroke-width:0.03527"
             id="polyline33"
             points="2.55778,2.22466 2.55254,2.01962 2.48403,2.11975 2.3375,1.9677 2.34802,2.13602 2.21915,2.1255 2.33474,2.25913 "
             class="fil1 str1"
             transform="matrix(116.25157,0,0,116.25157,-0.4348338,-0.4283132)" />
          <polyline
             style="fill:none;stroke:#1f1a17;stroke-width:0.03527"
             id="polyline35"
             points="1.60432,2.58522 1.51694,2.69884 1.64055,2.6778 1.55376,2.78826 1.73077,2.78852 "
             class="fil1 str1"
             transform="matrix(116.25157,0,0,116.25157,-0.4348338,-0.4283132)" />
          <path
             id="path37"
             style="fill:none;stroke:#1f1a17;stroke-width:4.10019302"
             d="m 269.96399,646.55118 c -0.0442,-30.81829 4.46289,-61.39943 -7.97021,-86.26796 -12.46449,-24.93131 -26.25542,-46.50528 -43.80708,-69.92183"
             inkscape:connector-curvature="0" />
          <path
             id="path39"
             style="fill:none;stroke:#1f1a17;stroke-width:4.10019302"
             d="m 411.57234,627.8556 c -13.15851,-23.50839 -21.5356,-56.29714 -21.5356,-86.5644 0,-23.46887 8.49799,-64.69516 19.18965,-88.65809"
             inkscape:connector-curvature="0" />
          <path
             id="path41"
             style="fill:none;stroke:#1f1a17;stroke-width:4.10019302"
             d="m 270.66731,602.80107 c 1.09392,-35.67412 -60.74842,-40.6369 -60.74842,-87.85364 0,-56.38433 107.57222,-66.16574 154.99938,-66.16574 35.2312,0 64.94045,-1.60195 64.94045,39.82198 0,19.66511 -29.54767,48.50712 -38.33396,75.46935"
             inkscape:connector-curvature="0" />
          <path
             id="path43"
             style="fill:none;stroke:#1f1a17;stroke-width:4.10019302"
             d="m 462.21501,581.0504 120.1925,1.28807 c 17.09828,26.37515 4.38617,30.53347 -12.55285,47.47249 35.23469,23.61185 14.8244,53.05837 -7.66446,73.83137 L 461.10481,678.52385"
             inkscape:connector-curvature="0" />
          <path
             id="path45"
             style="fill:none;stroke:#1f1a17;stroke-width:4.10019302"
             d="m 476.09196,734.29089 172.80215,-0.5801 c 19.47097,17.84811 1.97743,45.82056 -15.89857,51.67034 4.66053,2.35758 23.69323,8.59796 26.91805,22.01107 3.22482,13.41311 6.96579,39.15353 -18.07944,63.50242 L 399.77862,830.83898"
             inkscape:connector-curvature="0" />
          <path
             id="path47"
             style="fill:none;stroke:#1f1a17;stroke-width:4.10019302"
             d="m 179.73417,590.68533 -105.940053,-0.6731 c -17.956217,17.95622 -4.987193,42.11329 11.196188,45.43576 -11.086912,7.46219 -17.99923,23.35611 -15.476571,38.94893 1.412457,8.72584 14.095502,35.46603 22.62488,35.46603 L 215.98955,679.30157"
             inkscape:connector-curvature="0" />
          <path
             id="path49"
             style="fill:none;stroke:#1f1a17;stroke-width:4.10019302"
             d="m 201.44182,725.0919 -177.154596,-0.007 c -5.889304,6.69144 -10.939272,14.93135 -11.640269,22.66789 -1.491508,16.43448 13.344517,25.45328 23.846684,32.75737 -24.551168,8.29222 -29.6371745,55.79959 -2.404082,83.03268 L 251.04288,818.65233"
             inkscape:connector-curvature="0" />
          <path
             id="path51"
             style="fill:none;stroke:#1f1a17;stroke-width:0.8858369"
             d="m 131.79202,590.37959 c -3.10159,17.32381 -18.37937,20.05455 -31.57741,22.61209 21.84948,8.20038 5.71609,16.7658 0.32318,20.86134 18.10967,0 26.57511,5.84048 9.92905,17.56213 13.16084,0.2697 32.62135,2.79817 35.55089,45.15211"
             inkscape:connector-curvature="0" />
          <path
             id="path53"
             style="fill:none;stroke:#1f1a17;stroke-width:0.8858369"
             d="m 87.239773,725.08725 c 0,19.15594 -21.597216,21.96806 -34.89872,26.14265 12.594694,5.55915 22.078497,13.11551 3.673549,22.0413 -1.815849,0.88003 33.847806,3.64681 9.695381,21.73672 17.886466,0.97651 42.782897,26.97618 34.282587,54.89864"
             inkscape:connector-curvature="0" />
          <path
             id="path55"
             style="fill:none;stroke:#1f1a17;stroke-width:0.8858369"
             d="m 585.00573,733.9247 c 0,16.87507 20.60792,19.53956 33.18982,24.4663 -24.37097,9.88255 -0.54057,21.84135 2.64008,24.58488 -14.40008,0 -34.47906,1.26714 -12.41102,15.55097 -30.20099,11.94253 -34.57554,27.95967 -35.84036,60.90769"
             inkscape:connector-curvature="0" />
          <path
             id="path57"
             style="fill:none;stroke:#1f1a17;stroke-width:0.8858369"
             d="m 511.64751,691.08251 c -2.40176,-26.91805 9.85697,-47.9189 33.56182,-48.74312 -17.86321,-20.73463 1.75773,-16.02761 11.86464,-16.02761 -3.65146,-3.69796 -25.60441,-18.45493 2.41687,-20.72649 -13.21316,-3.30271 -31.11241,-10.73932 -31.48209,-23.83041"
             inkscape:connector-curvature="0" />
          <path
             id="path59"
             style="fill:url(#radialGradient2314);fill-opacity:1;stroke:#1f1a17;stroke-width:0.8858369"
             d="m 323.25138,397.60078 c 0.0151,-13.01902 13.92577,-52.82472 22.5342,-55.4055 8.60843,-2.58079 23.83855,0.372 29.65113,5.51381 9.25013,8.18295 13.83975,27.18659 16.09386,37.21562 2.25412,10.02902 2.86909,25.17892 2.75865,43.01773 -0.11276,18.11548 -46.65408,8.65492 -56.32504,0.92303 -9.67097,-7.73189 -14.73373,-14.25476 -14.7128,-31.26469 z m 41.66689,51.18091 c 16.94366,0 32.60856,-0.37084 44.30812,3.85258 12.62724,4.55706 20.63233,14.46634 20.63233,35.9694 0,19.66511 -29.54767,48.50712 -38.33396,75.46935 2.95628,23.16312 10.14876,46.0984 20.04758,63.78258 5.60682,-2.86676 11.00089,-6.08925 16.10085,-9.63376 14.49773,-10.07436 26.62509,-22.73997 34.54182,-37.17144 13.35498,-24.34424 14.72908,-53.71288 -4.70935,-84.13824 -32.6353,-51.07861 -68.04669,-113.79052 -69.88579,-182.07087 -0.98814,-9.94765 -4.46871,-18.64443 -9.83256,-26.04617 -4.19203,-5.78584 -9.53495,-10.78001 -15.73697,-14.96274 -14.11992,-9.52216 -32.69227,-14.83835 -52.28531,-15.70558 -4.24783,-0.18833 -8.54449,-0.16741 -12.85393,0.0651 -8.68632,0.46965 -17.42379,1.79841 -25.92875,4.00719 -3.82933,0.99511 -7.61215,2.16809 -11.32058,3.52242 -24.9627,9.11064 -46.58781,26.39259 -56.89119,52.40737 -0.72308,1.82747 -1.39153,3.69913 -2.00069,5.61263 -2.84933,8.95253 -4.4164,18.85367 -4.4164,29.72087 0,37.58878 11.59145,66.63889 8.27595,104.82869 -4.57682,52.72357 -44.34183,84.13475 -24.89527,132.39426 3.9944,9.91393 10.48705,20.53816 20.29752,32.20517 7.92952,9.42916 20.36379,15.37659 35.02079,18.99667 8.01554,1.97976 16.69489,3.26318 25.66486,4.03974 3.05392,0.26389 6.1404,0.46966 9.24665,0.62427 -0.0209,-14.84184 1.01255,-29.62904 0.70332,-43.75011 -0.0279,-1.22762 -0.0651,-2.45059 -0.11393,-3.66774 -3.08299,-32.40977 -60.63449,-38.63621 -60.63449,-84.1859 0,-9.44544 3.01905,-17.58305 8.26781,-24.58604 26.08569,-34.80107 107.24905,-41.5797 146.73157,-41.5797 z M 256.68224,360.45608 c 10.88115,7.25061 28.09336,30.11031 29.84759,43.6234 4.50475,34.68016 -14.67676,47.34926 -38.11307,58.77679 -23.43632,11.42753 -33.65251,-42.78988 -35.35792,-62.45034 -2.29596,-26.45421 16.14153,-58.26296 43.6234,-39.94985 z"
             inkscape:connector-curvature="0" />
          <path
             id="path8164"
             style="fill:url(#linearGradient15154);fill-opacity:1;stroke:#1f1a17;stroke-width:0.8858369"
             d="m 323.25138,397.60078 c 0.0151,-13.01902 13.92577,-52.82472 22.5342,-55.4055 8.60843,-2.58079 23.83855,0.372 29.65113,5.51381 9.25013,8.18295 13.83975,27.18659 16.09386,37.21562 2.25412,10.02902 2.86909,25.17892 2.75865,43.01773 -0.11276,18.11548 -46.65408,8.65492 -56.32504,0.92303 -9.67097,-7.73189 -14.73373,-14.25476 -14.7128,-31.26469 z m 41.66689,51.18091 c 16.94366,0 32.60856,-0.37084 44.30812,3.85258 12.62724,4.55706 20.63233,14.46634 20.63233,35.9694 0,19.66511 -29.54767,48.50712 -38.33396,75.46935 2.95628,23.16312 10.14876,46.0984 20.04758,63.78258 5.60682,-2.86676 11.00089,-6.08925 16.10085,-9.63376 14.49773,-10.07436 26.62509,-22.73997 34.54182,-37.17144 13.35498,-24.34424 14.72908,-53.71288 -4.70935,-84.13824 -47.11244,-95.037 -232.98589,-27.03796 -268.31588,13.14719 -1.82354,12.77028 -23.40365,40.4896 -9.45561,80.62598 3.50855,10.09611 10.48705,20.53816 20.29752,32.20517 7.92952,9.42916 20.36379,15.37659 35.02079,18.99667 8.01554,1.97976 16.69489,3.26318 25.66486,4.03974 3.05392,0.26389 6.1404,0.46966 9.24665,0.62427 -0.0209,-14.84184 1.01255,-29.62904 0.70332,-43.75011 -0.0279,-1.22762 -0.0651,-2.45059 -0.11393,-3.66774 -3.08299,-32.40977 -60.63449,-38.63621 -60.63449,-84.1859 0,-9.44544 3.01905,-17.58305 8.26781,-24.58604 26.08569,-34.80107 107.24905,-41.5797 146.73157,-41.5797 z M 256.68224,360.45608 c 10.88115,7.25061 28.09336,30.11031 29.84759,43.6234 4.50475,34.68016 -14.67676,47.34926 -38.11307,58.77679 -23.43632,11.42753 -33.65251,-42.78988 -35.35792,-62.45034 -2.29596,-26.45421 16.14153,-58.26296 43.6234,-39.94985 z"
             inkscape:connector-curvature="0" />
          <circle
             id="circle19"
             style="fill:#000000;stroke:#1f1a17;stroke-width:0.03527"
             transform="matrix(116.25157,0,0,116.25157,-0.4348338,-0.4283132)"
             r="0.12639999"
             cy="3.6178401"
             cx="2.25913" />
          <path
             id="path61"
             style="fill:#ffffff;fill-opacity:1;stroke:#1f1a17;stroke-width:0.8858369"
             d="m 286.52983,404.07948 c -1.75423,-13.51309 -18.96644,-36.37279 -29.84759,-43.6234 -27.48187,-18.31311 -45.91936,13.49564 -43.6234,39.94985 1.70541,19.66046 11.9216,73.87787 35.35792,62.45034 23.43631,-11.42753 42.61782,-24.09663 38.11307,-58.77679 z m -24.33726,1.37758 c 8.11436,0 14.6942,6.57984 14.6942,14.6942 0,8.11435 -6.57984,14.69419 -14.6942,14.69419 -8.11436,0 -14.6942,-6.57984 -14.6942,-14.69419 0,-8.11436 6.57984,-14.6942 14.6942,-14.6942 z"
             inkscape:connector-curvature="0" />
          <circle
             id="circle21"
             style="fill:#000000;stroke:#1f1a17;stroke-width:0.03527"
             transform="matrix(116.25157,0,0,116.25157,-0.4348338,-0.4283132)"
             r="0.12639999"
             cy="3.5032899"
             cx="2.96223" />
          <path
             id="path63"
             style="fill:#ffffff;fill-opacity:1;stroke:#1f1a17;stroke-width:0.8858369"
             d="m 345.78558,342.19528 c -8.60843,2.58078 -22.51909,42.38648 -22.5342,55.4055 -0.0209,17.00993 5.04183,23.5328 14.7128,31.26469 9.67096,7.73189 56.21228,17.19245 56.32504,-0.92303 0.11044,-17.83881 -0.50453,-32.98871 -2.75865,-43.01773 -2.25411,-10.02903 -6.84373,-29.03267 -16.09386,-37.21562 -5.81258,-5.14181 -21.0427,-8.0946 -29.65113,-5.51381 z m -1.85654,49.94516 c 8.11436,0 14.6942,6.57984 14.6942,14.6942 0,8.11436 -6.57984,14.6942 -14.6942,14.6942 -8.11435,0 -14.69419,-6.57984 -14.69419,-14.6942 0,-8.11436 6.57984,-14.6942 14.69419,-14.6942 z"
             inkscape:connector-curvature="0" />
          <path
             id="path65"
             style="fill:url(#linearGradient15147);fill-opacity:1;stroke:#1f1a17;stroke-width:0.8858369"
             d="m 364.91827,448.78169 c -39.48252,0 -120.64588,6.77863 -146.73157,41.5797 17.55166,23.41655 31.34259,44.99052 43.80708,69.92183 5.92418,11.85068 8.00276,24.99757 8.5596,38.85011 0.11277,1.18693 0.15229,2.40757 0.11393,3.66774 0.30923,14.12107 -0.72425,28.90827 -0.70332,43.75011 32.26097,1.60427 66.56448,-2.32503 86.39118,-3.43058 4.60705,-0.25692 9.2327,-0.7754 13.84324,-1.53917 14.27221,-2.36572 28.39445,-7.09019 41.37393,-13.72583 -9.89882,-17.68418 -17.0913,-40.61946 -20.04758,-63.78258 -0.97419,-7.62959 -1.48802,-15.28243 -1.48802,-22.78182 0,-23.46887 8.49799,-64.69516 19.18965,-88.65809 -11.69956,-4.22226 -27.36446,-3.85142 -44.30812,-3.85142 z"
             inkscape:connector-curvature="0" />
          <path
             id="path67"
             style="fill:#5b5857;fill-opacity:1;stroke:#1f1a17;stroke-width:0.8858369"
             d="m 261.99378,560.28322 c -12.46449,-24.93131 -26.25542,-46.50528 -43.80708,-69.92183 -5.24876,7.00299 -8.26781,15.1406 -8.26781,24.58604 0,45.54969 57.5515,51.77613 60.63449,84.1859 -0.55684,-13.85254 -2.63542,-26.99943 -8.5596,-38.85011 z"
             inkscape:connector-curvature="0" />
          <path
             id="path69"
             style="fill:#5b5857;fill-opacity:1;stroke:#1f1a17;stroke-width:0.8858369"
             d="m 409.22639,452.63311 c -10.69166,23.96293 -19.18965,65.18922 -19.18965,88.65809 0,7.49939 0.51383,15.15223 1.48802,22.78182 8.78629,-26.96223 38.33396,-55.80424 38.33396,-75.46935 0,-21.50306 -8.00509,-31.41234 -20.63233,-35.97056 z"
             inkscape:connector-curvature="0" />
          <path
             id="path71"
             style="fill:#a66a33;fill-opacity:1;stroke:#1f1a17;stroke-width:0.8858369"
             d="m 356.35517,643.1206 c -19.8267,1.10555 -54.13021,5.03485 -86.39118,3.43058 -3.10625,-0.15461 -6.19273,-0.36038 -9.24665,-0.62427 8.50729,2.5122 13.3573,9.22572 25.75204,12.82604 31.47744,9.14086 61.11694,5.45568 85.12986,-2.72029 -0.93815,-4.60938 -1.445,-9.3908 -1.40083,-14.45123 -4.61054,0.76377 -9.23619,1.28225 -13.84324,1.53917 z"
             inkscape:connector-curvature="0" />
          <path
             id="path73"
             style="fill:url(#radialGradient2320);fill-opacity:1;stroke:#1f1a17;stroke-width:0.8858369"
             d="m 371.59924,656.03266 c -24.01292,8.17597 -53.65242,11.86115 -85.12986,2.72029 -12.39474,-3.60032 -17.24475,-10.31384 -25.75204,-12.82604 -8.96997,-0.77656 -17.64932,-2.05998 -25.66486,-4.03974 -6.70772,14.59771 -13.41195,26.38213 -19.06293,37.4144 -7.65052,14.93833 -13.36777,28.49791 -14.54773,45.79033 -0.9707,14.24663 1.13811,31.02755 7.78537,53.20253 5.15808,17.20756 20.80671,30.68112 41.81569,40.3579 41.82383,19.26521 104.89146,23.48746 148.73574,12.18665 13.48286,-3.47476 25.1487,-8.41778 33.81875,-14.843 33.83036,-25.06849 43.42461,-54.62429 42.49459,-81.70509 -0.73006,-21.2287 -7.92719,-40.93683 -14.98715,-55.76704 -4.75352,-9.98368 -9.44428,-17.75626 -12.05761,-22.29589 1.86351,8.50032 2.15414,17.30172 1.10206,26.43328 -3.88629,33.73156 -51.42388,32.61206 -65.28804,6.43685 -5.84861,-11.04157 -10.90905,-21.51002 -13.26198,-33.06543 z"
             inkscape:connector-curvature="0" />
          <path
             id="path75"
             style="fill:url(#radialGradient2322);fill-opacity:1;stroke:#1f1a17;stroke-width:0.8858369"
             d="m 371.59924,656.03266 c 2.35293,11.55541 7.41337,22.02386 13.26198,33.06543 13.86416,26.17521 61.40175,27.29471 65.28804,-6.43685 1.05208,-9.13156 0.76145,-17.93296 -1.10206,-26.43328 -2.93187,-13.3759 -9.75699,-26.0078 -21.37401,-38.00612 -5.09996,3.54451 -10.49403,6.767 -16.10085,9.63376 -12.97948,6.63564 -27.10172,11.36011 -41.37393,13.72583 -0.0442,5.06043 0.46268,9.84185 1.40083,14.45123 z"
             inkscape:connector-curvature="0" />
          <path
             id="path77"
             style="fill:url(#linearGradient15135);fill-opacity:1;stroke:#1f1a17;stroke-width:0.8858369"
             d="m 427.67319,618.22184 c 11.61702,11.99832 18.44214,24.63022 21.37401,38.00612 2.61333,4.53963 7.30409,12.31221 12.05761,22.29589 l 50.5427,12.55866 c -2.40176,-26.91805 9.85697,-47.9189 33.56182,-48.74312 -17.86321,-20.73463 1.75773,-16.02761 11.86464,-16.02761 -3.65146,-3.69796 -25.60441,-18.45493 2.41687,-20.72649 -13.21316,-3.30271 -31.11241,-10.73932 -31.48209,-23.83041 l -65.79374,-0.70448 c -7.91673,14.43147 -20.04409,27.09708 -34.54182,37.17144 z"
             inkscape:connector-curvature="0" />
          <path
             id="path79"
             style="fill:url(#linearGradient15132);fill-opacity:1;stroke:#1f1a17;stroke-width:0.8858369"
             d="m 585.00573,733.9247 -108.91377,0.36619 c 0.93002,27.0808 -8.66423,56.6366 -42.49459,81.70509 -8.67005,6.42522 -20.33589,11.36824 -33.81875,14.843 l 172.80563,28.59556 c 1.26482,-32.94802 5.63937,-48.96516 35.84036,-60.90769 -22.06804,-14.28383 -1.98906,-15.55097 12.41102,-15.55097 -3.18065,-2.74353 -27.01105,-14.70233 -2.64008,-24.58488 -12.5819,-4.92674 -33.18982,-7.59123 -33.18982,-24.4663 z"
             inkscape:connector-curvature="0" />
          <path
             id="path81"
             style="fill:url(#linearGradient15129);fill-opacity:1;stroke:#1f1a17;stroke-width:0.8858369"
             d="m 251.04288,818.65233 c -21.00898,-9.67678 -36.65761,-23.15034 -41.81569,-40.3579 -6.64726,-22.17498 -8.75607,-38.9559 -7.78537,-53.20253 l -114.202047,-0.005 c 0,19.15594 -21.597216,21.96806 -34.89872,26.14265 12.594694,5.55915 22.078497,13.11551 3.673549,22.0413 -1.815849,0.88003 33.847806,3.64681 9.695381,21.73672 17.886466,0.97651 42.782897,26.97618 34.282587,54.89864 l 151.05031,-31.25423 z"
             inkscape:connector-curvature="0" />
          <path
             id="path83"
             style="fill:url(#linearGradient15126);fill-opacity:1;stroke:#1f1a17;stroke-width:0.8858369"
             d="m 146.01773,696.56726 69.97182,-17.26569 c 5.65098,-11.03227 12.35521,-22.81669 19.06293,-37.4144 -14.657,-3.62008 -27.09127,-9.56751 -35.02079,-18.99667 -9.81047,-11.66701 -16.30312,-22.29124 -20.29752,-32.20517 l -47.94215,-0.30574 c -3.10159,17.32381 -18.37937,20.05455 -31.57741,22.61209 21.84948,8.20038 5.71609,16.7658 0.32318,20.86134 18.10967,0 26.57511,5.84048 9.92905,17.56213 13.16084,0.2697 32.62135,2.79817 35.55089,45.15211 z"
             inkscape:connector-curvature="0" />
          <path
             id="path85"
             style="fill:url(#radialGradient2332);fill-opacity:1;stroke:#1f1a17;stroke-width:0.8858369"
             d="m 309.76503,258.1268 c 19.59304,0.86723 38.16539,6.18342 52.28531,15.70558 2.14135,-3.61077 4.19552,-7.37383 6.16598,-11.27291 29.37212,-58.13741 40.18352,-146.66182 48.56642,-216.883574 6.73445,-56.408748 -15.53819,-29.215182 -30.80085,-6.687953 -19.57095,28.886189 -37.81315,60.503128 -57.82702,100.301847 -20.01387,39.79873 -20.81368,34.41628 -18.38984,118.83701 z"
             inkscape:connector-curvature="0" />
          <path
             id="path87"
             style="fill:url(#radialGradient2334);fill-opacity:1;stroke:#1f1a17;stroke-width:0.8858369"
             d="M 259.66177,265.72151 C 225.34896,212.52247 168.24968,163.82353 98.420849,123.11106 c -47.567817,-27.732969 8.102731,74.82184 22.993401,98.38952 11.81813,18.70371 41.18444,52.8096 64.65563,78.60698 6.10321,6.70772 11.80767,12.85394 16.7007,18.02132 10.30338,-26.01478 31.92849,-43.29673 56.89119,-52.40737 z"
             inkscape:connector-curvature="0" />
          <path
             id="path89"
             style="fill:url(#linearGradient15117);fill-opacity:1;stroke:#1f1a17;stroke-width:0.8858369"
             d="m 65.709983,795.00792 c 24.152425,-18.08991 -11.51123,-20.85669 -9.695381,-21.73672 18.404948,-8.92579 8.921145,-16.48215 -3.673549,-22.0413 13.301504,-4.17459 34.89872,-6.98671 34.89872,-26.14265 l -62.952549,-0.002 c -5.889304,6.69144 -10.939272,14.93135 -11.640269,22.66789 -1.491508,16.43448 13.344517,25.45328 23.846684,32.75737 -24.551168,8.29222 -29.6371745,55.79959 -2.404082,83.03268 L 99.99257,849.90656 C 108.49288,821.9841 83.596449,795.98443 65.709983,795.00792 Z"
             inkscape:connector-curvature="0" />
          <path
             id="path91"
             style="fill:url(#linearGradient15114);fill-opacity:1;stroke:#1f1a17;stroke-width:0.8858369"
             d="m 92.138614,709.86295 53.879116,-13.29569 c -2.92954,-42.35394 -22.39005,-44.88241 -35.55089,-45.15211 16.64606,-11.72165 8.18062,-17.56213 -9.92905,-17.56213 5.39291,-4.09554 21.5263,-12.66096 -0.32318,-20.86134 13.19804,-2.55754 28.47582,-5.28828 31.57741,-22.61209 l -57.997903,-0.36736 c -17.956217,17.95622 -4.987193,42.11329 11.196188,45.43576 -11.086912,7.46219 -17.99923,23.35611 -15.476571,38.94893 1.412457,8.72584 14.095502,35.46603 22.62488,35.46603 z"
             inkscape:connector-curvature="0" />
          <path
             id="path93"
             style="fill:url(#linearGradient15111);fill-opacity:1;stroke:#1f1a17;stroke-width:0.8858369"
             d="m 608.42461,798.52685 c -30.20099,11.94253 -34.57554,27.95967 -35.84036,60.90769 l 69.2499,11.46008 c 25.04523,-24.34889 21.30426,-50.08931 18.07944,-63.50242 -3.22482,-13.41311 -22.25752,-19.65349 -26.91805,-22.01107 17.876,-5.84978 35.36954,-33.82223 15.89857,-51.67034 l -63.88838,0.21391 c 0,16.87507 20.60792,19.53956 33.18982,24.4663 -24.37097,9.88255 -0.54057,21.84135 2.64008,24.58488 -14.40008,0 -34.47906,1.26714 -12.41102,15.55097 z"
             inkscape:connector-curvature="0" />
          <path
             id="path95"
             style="fill:url(#linearGradient15108);fill-opacity:1;stroke:#1f1a17;stroke-width:0.8858369"
             d="m 511.64751,691.08251 50.54269,12.55982 c 22.48886,-20.773 42.89915,-50.21952 7.66446,-73.83137 16.93902,-16.93902 29.65113,-21.09734 12.55285,-47.47249 l -54.39876,-0.58359 c 0.36968,13.09109 18.26893,20.5277 31.48209,23.83041 -28.02128,2.27156 -6.06833,17.02853 -2.41687,20.72649 -10.10691,0 -29.72785,-4.70702 -11.86464,16.02761 -23.70485,0.82422 -35.96358,21.82507 -33.56182,48.74312 z"
             inkscape:connector-curvature="0" />
          <path
             id="path97"
             style="fill:#a66a33;fill-opacity:1;stroke:#1f1a17;stroke-width:0.8858369"
             d="m 270.98235,262.19909 c 8.50496,-2.20878 17.24243,-3.53754 25.92875,-4.00719 l -0.60916,-23.83622 -7.96439,11.64027 -17.03435,-17.67606 1.22297,19.56747 -14.98134,-1.22297 z"
             inkscape:connector-curvature="0" />
          <path
             id="path99"
             style="fill:#a66a33;fill-opacity:1;stroke:#1f1a17;stroke-width:0.8858369"
             d="m 202.77058,318.12888 c -4.89303,-5.16738 -10.59749,-11.3136 -16.7007,-18.02132 l -10.15806,13.20851 14.36985,-2.44594 -10.08947,12.84115 20.57769,0.0302 c 0.60916,-1.9135 1.27761,-3.78516 2.00069,-5.61263 z"
             inkscape:connector-curvature="0" />
          <path
             id="path101"
             style="fill:#a66a33;fill-opacity:1;stroke:#1f1a17;stroke-width:0.8858369"
             d="m 368.21632,262.55947 c -1.97046,3.89908 -4.02463,7.66214 -6.16598,11.27291 6.20202,4.18273 11.54494,9.1769 15.73697,14.96274 l 10.92068,-0.54987 -10.08948,-6.11483 22.62488,-5.80909 -20.17894,-1.83445 11.92392,-12.22967 z"
             inkscape:connector-curvature="0" />
        </g>
        <rect
           clip-path="url(#clipPath4156-4-1)"
           ry="3.9569881"
           rx="3.9569874"
           y="-30"
           x="2"
           height="69.024437"
           width="75.965775"
           id="rect4146"
           style="opacity:0.5078125;fill:url(#linearGradient4767);fill-opacity:1;stroke:none"
           transform="matrix(1.0692451,0,0,1.0476829,4.4441802,38.894013)" />
      </g>
    </g>
  </g>
</svg>
