<?xml version="1.0" encoding="UTF-8" standalone="no"?>
<svg
   xmlns:dc="http://purl.org/dc/elements/1.1/"
   xmlns:cc="http://creativecommons.org/ns#"
   xmlns:rdf="http://www.w3.org/1999/02/22-rdf-syntax-ns#"
   xmlns:svg="http://www.w3.org/2000/svg"
   xmlns="http://www.w3.org/2000/svg"
   xmlns:sodipodi="http://sodipodi.sourceforge.net/DTD/sodipodi-0.dtd"
   xmlns:inkscape="http://www.inkscape.org/namespaces/inkscape"
   enable-background="new 0 0 512 512"
   height="512px"
   id="Apple_tv_3rd_gen"
   version="1.1"
   viewBox="0 0 512 512"
   width="512px"
   xml:space="preserve"
   inkscape:version="0.91 r13725"
   sodipodi:docname="apple_tv_vecchia.svg"><metadata
     id="metadata121"><rdf:RDF><cc:Work
         rdf:about=""><dc:format>image/svg+xml</dc:format><dc:type
           rdf:resource="http://purl.org/dc/dcmitype/StillImage" /><dc:title></dc:title><cc:license
           rdf:resource="http://creativecommons.org/licenses/by-sa/3.0/" /><dc:date>2017</dc:date><dc:creator><cc:Agent><dc:title>Cristian Pozzessere &quot;ilnanny&quot;</dc:title></cc:Agent></dc:creator></cc:Work><cc:License
         rdf:about="http://creativecommons.org/licenses/by-sa/3.0/"><cc:permits
           rdf:resource="http://creativecommons.org/ns#Reproduction" /><cc:permits
           rdf:resource="http://creativecommons.org/ns#Distribution" /><cc:requires
           rdf:resource="http://creativecommons.org/ns#Notice" /><cc:requires
           rdf:resource="http://creativecommons.org/ns#Attribution" /><cc:permits
           rdf:resource="http://creativecommons.org/ns#DerivativeWorks" /><cc:requires
           rdf:resource="http://creativecommons.org/ns#ShareAlike" /></cc:License></rdf:RDF></metadata><defs
     id="defs119" /><sodipodi:namedview
     pagecolor="#ffffff"
     bordercolor="#666666"
     borderopacity="1"
     objecttolerance="10"
     gridtolerance="10"
     guidetolerance="10"
     inkscape:pageopacity="0"
     inkscape:pageshadow="2"
     inkscape:window-width="1280"
     inkscape:window-height="973"
     id="namedview117"
     showgrid="false"
     inkscape:zoom="0.4609375"
     inkscape:cx="256"
     inkscape:cy="238.64407"
     inkscape:window-x="0"
     inkscape:window-y="23"
     inkscape:window-maximized="1"
     inkscape:current-layer="Apple_tv_3rd_gen" /><g
     id="g3"><g
       id="Apple_tv_third_generation"><g
         id="remote"><linearGradient
           gradientUnits="userSpaceOnUse"
           id="SVGID_1_"
           x1="442.8662"
           x2="442.8662"
           y1="441"
           y2="510"><stop
             offset="0"
             style="stop-color:#E3E4E8"
             id="stop8" /><stop
             offset="1"
             style="stop-color:#FFFFFF;stop-opacity:0"
             id="stop10" /></linearGradient><path
           d="M390,450.52c0-5.087,5.515-9.52,11.31-9.52h82.024c5.794,0,11.763,5.523,11.763,10.609      L495.732,510H390V450.52z"
           fill="url(#SVGID_1_)"
           id="path12" /><linearGradient
           gradientUnits="userSpaceOnUse"
           id="SVGID_2_"
           x1="388.5"
           x2="496.5"
           y1="222"
           y2="222"><stop
             offset="0"
             style="stop-color:#E6E7EB"
             id="stop15" /><stop
             offset="1"
             style="stop-color:#9B9DA4"
             id="stop17" /></linearGradient><linearGradient
           gradientUnits="userSpaceOnUse"
           id="SVGID_3_"
           x1="388"
           x2="497"
           y1="222"
           y2="222"><stop
             offset="0"
             style="stop-color:#E4E5E9"
             id="stop20" /><stop
             offset="1"
             style="stop-color:#808080"
             id="stop22" /></linearGradient><path
           d="M496.5,425.921      c0,8.604-6.975,15.579-15.578,15.579h-76.844c-8.604,0-15.578-6.975-15.578-15.579V18.079c0-8.604,6.975-15.579,15.578-15.579      h76.844c8.604,0,15.578,6.975,15.578,15.579V425.921z"
           fill="url(#SVGID_2_)"
           stroke="url(#SVGID_3_)"
           stroke-miterlimit="10"
           id="path24" /><radialGradient
           cx="442.0117"
           cy="91.5156"
           gradientUnits="userSpaceOnUse"
           id="SVGID_4_"
           r="48.4638"><stop
             offset="0"
             style="stop-color:#58585F"
             id="stop27" /><stop
             offset="0.1926"
             style="stop-color:#525259"
             id="stop29" /><stop
             offset="0.4503"
             style="stop-color:#424148"
             id="stop31" /><stop
             offset="0.7435"
             style="stop-color:#27252D"
             id="stop33" /><stop
             offset="1"
             style="stop-color:#09070F"
             id="stop35" /></radialGradient><path
           d="M491.41,91.516c0,26.24-22.118,47.511-49.399,47.511c-27.282,0-49.398-21.271-49.398-47.511      c0-26.239,22.116-47.51,49.398-47.51C469.292,44.005,491.41,65.277,491.41,91.516z M441.475,115.678      c13.642,0,24.699-11.016,24.699-24.606c0-13.589-11.058-24.605-24.699-24.605c-13.643,0-24.7,11.016-24.7,24.605      C416.774,104.662,427.832,115.678,441.475,115.678z"
           fill="url(#SVGID_4_)"
           id="path37" /><linearGradient
           gradientUnits="userSpaceOnUse"
           id="SVGID_5_"
           x1="413.2842"
           x2="413.2842"
           y1="153.439"
           y2="193.6362"><stop
             offset="0"
             style="stop-color:#090000"
             id="stop40" /><stop
             offset="0.9987"
             style="stop-color:#535459"
             id="stop42" /></linearGradient><ellipse
           cx="413.284"
           cy="173.538"
           fill="url(#SVGID_5_)"
           rx="20.907"
           ry="20.099"
           id="ellipse44" /><linearGradient
           gradientUnits="userSpaceOnUse"
           id="SVGID_6_"
           x1="470.5098"
           x2="470.5098"
           y1="153.439"
           y2="193.6362"><stop
             offset="0"
             style="stop-color:#090000"
             id="stop47" /><stop
             offset="0.9987"
             style="stop-color:#535459"
             id="stop49" /></linearGradient><ellipse
           cx="470.51"
           cy="173.538"
           fill="url(#SVGID_6_)"
           rx="20.907"
           ry="20.099"
           id="ellipse51" /><ellipse
           cx="441.511"
           cy="47.625"
           fill="#FFFFFF"
           rx="2.4"
           ry="2.31"
           id="ellipse53" /><ellipse
           cx="486.02"
           cy="92.134"
           fill="#FFFFFF"
           rx="2.4"
           ry="2.31"
           id="ellipse55" /><ellipse
           cx="398.273"
           cy="89.59"
           fill="#FFFFFF"
           rx="2.4"
           ry="2.31"
           id="ellipse57" /><path
           d="M465,177v-8.098l5.882,3.82 M474,170h-1v6h1V170z M476,176h-1v-6h1V176z"
           fill="#F1F2F2"
           id="path59" /><path
           d="M407.144,173.581c-0.046-0.776-0.102-1.708-0.093-2.403h-0.026      c-0.212,0.653-0.47,1.347-0.783,2.114l-1.094,2.7h-0.606l-1.001-2.651c-0.293-0.783-0.543-1.502-0.718-2.163h-0.02      c-0.018,0.695-0.063,1.627-0.118,2.461l-0.165,2.385h-0.764l0.431-5.563h1.022l1.057,2.69c0.256,0.685,0.469,1.296,0.625,1.874      h0.028c0.155-0.561,0.376-1.172,0.654-1.874l1.101-2.69h1.021l0.385,5.563H407.3L407.144,173.581z M412.527,173.416h-2.409      v2.005h2.685v0.603h-3.485v-5.563h3.348v0.601h-2.547v1.759h2.409V173.416z M413.846,176.023v-5.563h0.872l1.985,2.815      c0.459,0.652,0.819,1.237,1.113,1.807l0.018-0.008c-0.073-0.743-0.091-1.42-0.091-2.287v-2.327h0.754v5.563h-0.81l-1.968-2.823      c-0.433-0.619-0.845-1.254-1.157-1.857l-0.029,0.008c0.047,0.702,0.066,1.37,0.066,2.294v2.377H413.846z M420.697,170.46v3.294      c0,1.246,0.617,1.774,1.445,1.774c0.918,0,1.507-0.545,1.507-1.774v-3.294h0.809v3.243c0,1.71-1.001,2.412-2.344,2.412      c-1.269,0-2.224-0.653-2.224-2.377v-3.277H420.697z"
           fill="#FFFFFF"
           id="menu" /><ellipse
           cx="441.511"
           cy="134.1"
           fill="#FFFFFF"
           rx="2.4"
           ry="2.31"
           id="ellipse62" /></g><g
         id="apple_tv_third_gen"><linearGradient
           gradientUnits="userSpaceOnUse"
           id="SVGID_7_"
           x1="194.4995"
           x2="194.4995"
           y1="425"
           y2="510"><stop
             offset="0"
             style="stop-color:#7F7F7F"
             id="stop66" /><stop
             offset="1"
             style="stop-color:#FEFEFE;stop-opacity:0"
             id="stop68" /></linearGradient><rect
           fill="url(#SVGID_7_)"
           height="85"
           width="351"
           x="19"
           y="425"
           id="rect70" /><linearGradient
           gradientUnits="userSpaceOnUse"
           id="SVGID_8_"
           x1="15.6777"
           x2="372.8281"
           y1="353.9824"
           y2="353.9824"><stop
             offset="0"
             style="stop-color:#020202"
             id="stop73" /><stop
             offset="0.0508"
             style="stop-color:#FCFCFC"
             id="stop75" /><stop
             offset="0.1085"
             style="stop-color:#656565"
             id="stop77" /><stop
             offset="0.1466"
             style="stop-color:#545454"
             id="stop79" /><stop
             offset="0.2414"
             style="stop-color:#2F2F2F"
             id="stop81" /><stop
             offset="0.318"
             style="stop-color:#181818"
             id="stop83" /><stop
             offset="0.3664"
             style="stop-color:#101010"
             id="stop85" /><stop
             offset="0.5882"
             style="stop-color:#070707"
             id="stop87" /><stop
             offset="0.8626"
             style="stop-color:#030303"
             id="stop89" /><stop
             offset="0.9042"
             style="stop-color:#F6F6F6"
             id="stop91" /><stop
             offset="0.9418"
             style="stop-color:#030303"
             id="stop93" /></linearGradient><path
           d="M371.754,412.291c0,21.246-14.412,33.709-38.469,38.709H55.418      c-28.295-5-39.741-17.463-39.741-38.709l1.272-62.911c0-16.308,327.144-92.416,327.144-92.416s24.55,71.866,27.932,96.897      C373.979,368.318,371.754,412.291,371.754,412.291z"
           fill="url(#SVGID_8_)"
           id="path95" /><path
           d="M369.636,344.121c3.518,20.953-14.469,35.183-35.715,35.183c0,0-208.241,4.292-277.866,0      c-33.771-2.081-41.698-17.787-38.469-38.786c2.278-14.814,16.471-63.691,22.89-81.978C45.888,243.12,55.948,235,80.535,234      h208.134c32.217-1,55.955,11.822,61.043,32.223C354.578,285.741,366.311,324.322,369.636,344.121z"
           fill="#444242"
           id="path97" /><g
           id="g99"><g
             id="g101"><path
               d="M264.262,287.556h10.252l-20.606,20.186h-9.372l-21.104-20.186h10.481l10.926,11.346        c1.839,1.833,3.34,3.5,4.511,5.169h0.332c1.177-1.669,2.684-3.336,4.416-5.169L264.262,287.556z"
               id="path103" /></g><g
             id="g105"><path
               d="M203.854,281.759l0.168,5.797h14.053l0.081,2.795h-14.053l0.316,10.884c0.072,2.499,2.014,3.92,7.473,3.92        c2.563,0,4.459-0.125,5.68-0.253l0.526,2.751c-1.879,0.295-4.894,0.5-8.682,0.5c-4.578,0-8.266-0.541-10.641-1.536        c-2.824-1.084-3.872-2.883-3.94-5.258l-0.32-11.008h-8.377l-0.081-2.795h8.377l-0.142-4.837L203.854,281.759z"
               id="path107" /></g><g
             id="g109"><path
               d="M165.198,295.177c0.518,2.458,4.149,4.125,9.993,5.199c-0.233,0.251-0.466,0.511-0.722,0.771        c-1.256,1.272-2.96,2.452-5.034,3.554c-0.958,0.513-1.916,1.02-3.024,1.48c-1.108,0.458-2.321,0.871-3.823,1.148        c-1.216,0.229-2.514,0.338-3.875,0.338c-0.104,0-0.209-0.002-0.314-0.003c-1.614-0.024-3.119-0.193-4.59-0.43        c-1.082-0.177-2.162-0.36-3.298-0.477c-1.221-0.129-2.454-0.188-3.699-0.188c-0.594,0-1.189,0.015-1.787,0.039        c-1.588,0.065-3.071,0.254-4.517,0.483c-1.117,0.183-2.221,0.365-3.408,0.479c-0.838,0.078-1.684,0.127-2.544,0.127        c-0.229,0-0.459-0.004-0.69-0.011c-1.249-0.041-2.386-0.213-3.446-0.453c-1.452-0.337-2.666-0.767-3.767-1.243        c-4.845-2.104-8.301-4.479-10.21-7.161c-0.525-0.748-0.936-1.503-1.187-2.269c-0.276-0.872-0.348-1.75-0.156-2.621        c0.274-1.186,1.02-2.323,2.488-3.378c2.096-1.491,5.188-2.587,9.381-3.229c2.013-0.313,4.141-0.466,6.328-0.466        c1.646,0.007,3.114,0.124,4.539,0.312c1.413,0.184,2.804,0.396,4.205,0.584c0.701,0.094,1.413,0.177,2.135,0.247        c0.367,0.037,0.732,0.055,1.094,0.055c0.657,0,1.305-0.056,1.936-0.144c1.3-0.171,2.576-0.359,3.864-0.542        s2.587-0.348,3.935-0.459c1.099-0.095,2.201-0.136,3.315-0.136c0.424,0,0.851,0.007,1.281,0.018        c2.382,0.064,4.666,0.271,6.828,0.654c2.6,0.465,4.736,1.138,6.398,2.016C167.66,290.892,164.68,292.708,165.198,295.177z"
               id="path111" /></g><g
             id="g113"><path
               d="M144.839,286.496c-0.137-0.006-0.184-0.024-0.196-0.077c-0.291-0.93,0.21-1.809,1.227-2.652        c2.067-1.72,5.582-2.845,10.371-3.429c0.867-0.106,1.758-0.171,2.672-0.194c0.039-0.002,0.075-0.002,0.113-0.002        c0.075,0,0.154,0.002,0.253,0.002c0.029,0.206,0.081,0.406,0.064,0.613c-0.123,1.69-1.89,3.117-5.071,4.289        c-1.517,0.562-3.313,0.967-5.331,1.227c-1.177,0.151-2.373,0.229-3.605,0.229C145.171,286.501,145.006,286.5,144.839,286.496z        "
               id="path115" /></g></g></g></g></g></svg>