<?xml version="1.0" encoding="UTF-8" standalone="no"?>
<!-- Created with Inkscape (http://www.inkscape.org/) -->

<svg
   xmlns:dc="http://purl.org/dc/elements/1.1/"
   xmlns:cc="http://creativecommons.org/ns#"
   xmlns:rdf="http://www.w3.org/1999/02/22-rdf-syntax-ns#"
   xmlns:svg="http://www.w3.org/2000/svg"
   xmlns="http://www.w3.org/2000/svg"
   xmlns:xlink="http://www.w3.org/1999/xlink"
   xmlns:sodipodi="http://sodipodi.sourceforge.net/DTD/sodipodi-0.dtd"
   xmlns:inkscape="http://www.inkscape.org/namespaces/inkscape"
   width="96"
   height="96"
   viewBox="0 0 96.000001 96.000002"
   id="svg2"
   version="1.1"
   inkscape:version="0.92.2 5c3e80d, 2017-08-06"
   sodipodi:docname="application-community.svg">
  <defs
     id="defs4">
    <radialGradient
       inkscape:collect="always"
       xlink:href="#linearGradient1123"
       id="radialGradient1125"
       cx="7165.9678"
       cy="7158.0005"
       fx="7165.9678"
       fy="7158.0005"
       r="116.43"
       gradientTransform="matrix(1,0,0,0.90624709,0,673.80456)"
       gradientUnits="userSpaceOnUse" />
    <linearGradient
       inkscape:collect="always"
       id="linearGradient1123">
      <stop
         style="stop-color:#ffffff;stop-opacity:1;"
         offset="0"
         id="stop1119" />
      <stop
         style="stop-color:#ffffff;stop-opacity:0;"
         offset="1"
         id="stop1121" />
    </linearGradient>
    <filter
       inkscape:collect="always"
       style="color-interpolation-filters:sRGB"
       id="filter1112"
       x="-0.0078569353"
       width="1.0157139"
       y="-0.027757723"
       height="1.0555154">
      <feGaussianBlur
         inkscape:collect="always"
         stdDeviation="0.76231913"
         id="feGaussianBlur1114" />
    </filter>
  </defs>
  <sodipodi:namedview
     id="base"
     pagecolor="#ffffff"
     bordercolor="#666666"
     borderopacity="1.0"
     inkscape:pageopacity="0.0"
     inkscape:pageshadow="2"
     inkscape:zoom="2.9548375"
     inkscape:cx="48.413823"
     inkscape:cy="40.55177"
     inkscape:document-units="px"
     inkscape:current-layer="layer1"
     showgrid="false"
     units="px"
     inkscape:showpageshadow="false"
     inkscape:window-width="1280"
     inkscape:window-height="932"
     inkscape:window-x="0"
     inkscape:window-y="21"
     inkscape:window-maximized="1" />
  <metadata
     id="metadata7">
    <rdf:RDF>
      <cc:Work
         rdf:about="">
        <dc:format>image/svg+xml</dc:format>
        <dc:type
           rdf:resource="http://purl.org/dc/dcmitype/StillImage" />
        <dc:title></dc:title>
        <cc:license
           rdf:resource="http://creativecommons.org/licenses/by-sa/3.0/" />
        <dc:date>2017</dc:date>
        <dc:creator>
          <cc:Agent>
            <dc:title>Cristian Pozzessere  &lt; ilnanny &gt;</dc:title>
          </cc:Agent>
        </dc:creator>
        <dc:subject>
          <rdf:Bag>
            <rdf:li>ilnanny</rdf:li>
          </rdf:Bag>
        </dc:subject>
      </cc:Work>
      <cc:License
         rdf:about="http://creativecommons.org/licenses/by-sa/3.0/">
        <cc:permits
           rdf:resource="http://creativecommons.org/ns#Reproduction" />
        <cc:permits
           rdf:resource="http://creativecommons.org/ns#Distribution" />
        <cc:requires
           rdf:resource="http://creativecommons.org/ns#Notice" />
        <cc:requires
           rdf:resource="http://creativecommons.org/ns#Attribution" />
        <cc:permits
           rdf:resource="http://creativecommons.org/ns#DerivativeWorks" />
        <cc:requires
           rdf:resource="http://creativecommons.org/ns#ShareAlike" />
      </cc:License>
    </rdf:RDF>
  </metadata>
  <g
     inkscape:label="Livello 1"
     inkscape:groupmode="layer"
     id="layer1"
     transform="translate(0,-956.36218)">
    <g
       transform="matrix(0.33110816,0,0,0.30827753,-2334.9755,-1216.0682)"
       id="g1126">
      <path
         d="m 7338.3,7151.7 c 0,106.04 -115.91,179.81 -141.32,179.81 -25.416,0 -141.34,-73.769 -141.34,-179.81 0,-77.261 83.493,-102.53 141.34,-44.687 57.71,-57.711 141.32,-32.574 141.32,44.687 z"
         inkscape:connector-curvature="0"
         style="fill:#b50000;stroke:none;stroke-opacity:0.61124998"
         id="path10" />
      <path
         d="m 7336.2,7148.7 c 0,103.92 -113.59,176.22 -138.49,176.22 -24.907,0 -138.51,-72.293 -138.51,-176.22 0,-75.714 81.822,-100.48 138.51,-43.791 56.556,-56.556 138.49,-31.923 138.49,43.791 z"
         inkscape:connector-curvature="0"
         style="fill:#ff4141;stroke:none;stroke-opacity:0.61124998"
         id="path21" />
      <path
         d="m 7335.2,7149.5 c 0,99.368 -108.61,168.49 -132.42,168.49 -23.817,0 -132.44,-69.125 -132.44,-168.49 0,-72.395 78.237,-96.073 132.44,-41.871 54.079,-54.078 132.42,-30.524 132.42,41.871 z"
         inkscape:connector-curvature="0"
         style="fill:#ffffff;fill-opacity:0.81781377;stroke:none"
         id="path38" />
      <path
         d="m 7333.2,7149.5 c 0,99.368 -108.61,168.49 -132.42,168.49 -23.817,0 -132.44,-69.125 -132.44,-168.49 0,-72.395 78.237,-96.073 132.44,-41.871 54.079,-54.078 132.42,-30.524 132.42,41.871 z"
         inkscape:connector-curvature="0"
         style="fill:#dc0000;stroke:none"
         id="path53" />
      <path
         d="m 7317.2,7144.4 c 0,87.362 -95.486,148.14 -116.42,148.14 -20.939,0 -116.44,-60.773 -116.44,-148.14 0,-63.648 68.784,-84.466 116.44,-36.813 47.545,-47.543 116.42,-26.835 116.42,36.813 z"
         inkscape:connector-curvature="0"
         style="fill:url(#radialGradient1125);fill-opacity:1;stroke:none"
         id="path64" />
      <path
         d="m 7289.2,7231.7 c 18.111,-28.677 30.896,-55.073 27.777,-80.34 -4.875,83.6 -95.832,141.16 -116.21,141.16 -17.718,0 -88.815,-43.518 -110.27,-109.84 0.012,0.041 0.02,0.082 0.032,0.123 0,0 14.894,53.438 47.332,81.568 32.669,28.329 53.446,41.071 56.298,47.034 0.757,1.584 -0.02,3.408 -1.079,5.16 3.081,0.951 5.689,1.449 7.688,1.449 4.703,0 12.721,-2.706 22.548,-7.798 6.448,-3.718 13.43,-7.967 20.417,-12.44 16.096,-11.169 33.892,-26.637 49.351,-45.595 -5.668,-0.637 -21.526,7.453 -3.885,-20.481 z"
         inkscape:connector-curvature="0"
         style="fill:#000000;fill-opacity:0.34008101;stroke:none"
         id="path66" />
      <path
         d="m 7201.7,7106.7 c 0.333,0.325 0.669,0.64 1,0.971 19.939,-19.939 43.176,-29.313 64.569,-29.587 -21.585,-0.298 -45.229,8.74 -65.569,28.616 z m -131.44,42.842 c 0,-44.871 30.06,-71.017 65.819,-71.513 -36.633,-0.469 -67.819,25.808 -67.819,71.513 0,99.368 108.62,168.49 132.44,168.49 0.316,0 0.654,-0.019 1,-0.043 -25.687,-1.803 -131.44,-70.401 -131.44,-168.45 z"
         inkscape:connector-curvature="0"
         style="fill:#ffb7b7;fill-opacity:1;stroke:none"
         id="path68" />
      <path
         d="m 7200.7,7120.6 c 43.046,-43.046 105.1,-25.271 107.05,31.125 0.023,-0.925 0.048,-1.85 0.048,-2.782 0,-58.548 -63.362,-77.597 -107.1,-33.861 -43.834,-43.836 -107.11,-24.687 -107.11,33.861 0,0.933 0.024,1.857 0.048,2.781 1.942,-56.398 63.914,-74.268 107.06,-31.124 z"
         inkscape:connector-curvature="0"
         style="fill:#b50000;stroke:none"
         id="path83" />
      <path
         d="m 7200.7,7113.6 c 46.795,-46.795 114.26,-27.472 116.37,33.836 0.025,-1.006 0.052,-2.011 0.052,-3.023 0,-63.648 -68.881,-84.356 -116.42,-36.813 -47.653,-47.653 -116.44,-26.836 -116.44,36.813 0,1.013 0.026,2.018 0.052,3.022 2.112,-61.31 69.483,-80.738 116.39,-33.835 z"
         inkscape:connector-curvature="0"
         style="fill:#000000;fill-opacity:0.29554659;stroke:none;filter:url(#filter1112)"
         id="path104" />
      <path
         d="m 7200.7,7287.5 c -20.738,0 -114.6,-59.62 -116.4,-145.64 -0.023,0.828 -0.042,1.659 -0.042,2.503 0,87.362 95.499,148.14 116.44,148.14 20.939,0 116.42,-60.773 116.42,-148.14 0,-0.843 -0.019,-1.674 -0.043,-2.502 -1.796,86.019 -95.644,145.64 -116.38,145.64 z"
         inkscape:connector-curvature="0"
         style="fill:#ffffff;fill-opacity:0.67206481;stroke:none"
         id="path119" />
    </g>
  </g>
</svg>
