<?xml version="1.0" encoding="UTF-8" standalone="no"?>
<!-- Created with Inkscape (http://www.inkscape.org/) -->

<svg
   xmlns:dc="http://purl.org/dc/elements/1.1/"
   xmlns:cc="http://creativecommons.org/ns#"
   xmlns:rdf="http://www.w3.org/1999/02/22-rdf-syntax-ns#"
   xmlns:svg="http://www.w3.org/2000/svg"
   xmlns="http://www.w3.org/2000/svg"
   xmlns:xlink="http://www.w3.org/1999/xlink"
   xmlns:sodipodi="http://sodipodi.sourceforge.net/DTD/sodipodi-0.dtd"
   xmlns:inkscape="http://www.inkscape.org/namespaces/inkscape"
   width="96"
   height="96"
   viewBox="0 0 96.000001 96.000004"
   version="1.1"
   id="svg1072"
   inkscape:version="0.92.1 r15371"
   sodipodi:docname="aqemu.svg">
  <title
     id="title4179">Lila-HD-Icon-Theme</title>
  <defs
     id="defs1066">
    <linearGradient
       y2="47.000011"
       x2="90"
       y1="47.000011"
       x1="6"
       gradientTransform="matrix(1.1071428,0,0,1.1071426,-4.9939026,-3.620687)"
       gradientUnits="userSpaceOnUse"
       id="linearGradient4071"
       xlink:href="#linearGradient6139-0"
       inkscape:collect="always" />
    <linearGradient
       id="linearGradient6139-0">
      <stop
         style="stop-color:#b2babc;stop-opacity:1"
         offset="0"
         id="stop6141-2" />
      <stop
         id="stop6151-0"
         offset="0.25"
         style="stop-color:#ffffff;stop-opacity:1;" />
      <stop
         id="stop6147-1"
         offset="0.5"
         style="stop-color:#96a1a4;stop-opacity:1" />
      <stop
         style="stop-color:#fbf9f9;stop-opacity:1;"
         offset="0.75"
         id="stop6149-4" />
      <stop
         style="stop-color:#b2b9bc;stop-opacity:1"
         offset="1"
         id="stop6143-4" />
    </linearGradient>
    <linearGradient
       gradientUnits="userSpaceOnUse"
       y2="88.171875"
       x2="94.5"
       y1="88.171875"
       x1="1.5"
       id="linearGradient4129"
       xlink:href="#linearGradient3832-0-6-1-1"
       inkscape:collect="always"
       gradientTransform="translate(0.1489535,0.415026)" />
    <linearGradient
       id="linearGradient3832-0-6-1-1">
      <stop
         id="stop3834-6-3-7-1"
         offset="0"
         style="stop-color:#000000;stop-opacity:1;" />
      <stop
         style="stop-color:#000000;stop-opacity:0.58823532;"
         offset="0.1"
         id="stop3872-2-4" />
      <stop
         id="stop3844-6-2-7-6"
         offset="0.89999998"
         style="stop-color:#000000;stop-opacity:0.58823532;" />
      <stop
         id="stop3836-5-0-2-9"
         offset="1"
         style="stop-color:#000000;stop-opacity:1;" />
    </linearGradient>
    <radialGradient
       r="43.199203"
       fy="44.892841"
       fx="13.948145"
       cy="44.892841"
       cx="13.948145"
       gradientTransform="matrix(0.97513378,0,0,0.04919072,34.047649,80.581722)"
       gradientUnits="userSpaceOnUse"
       id="radialGradient7462"
       xlink:href="#linearGradient3737"
       inkscape:collect="always" />
    <linearGradient
       id="linearGradient3737">
      <stop
         id="stop3739"
         style="stop-color:#ffffff;stop-opacity:1"
         offset="0" />
      <stop
         id="stop3741"
         style="stop-color:#ffffff;stop-opacity:0"
         offset="1" />
    </linearGradient>
    <radialGradient
       r="43.199203"
       fy="44.892841"
       fx="13.948145"
       cy="44.892841"
       cx="13.948145"
       gradientTransform="matrix(0.88832663,0,0,0.04919072,31.959518,-90.31726)"
       gradientUnits="userSpaceOnUse"
       id="radialGradient7464"
       xlink:href="#linearGradient3737"
       inkscape:collect="always" />
    <linearGradient
       y2="14.514202"
       x2="50.527882"
       y1="-28.64156"
       x1="2.7713892"
       gradientUnits="userSpaceOnUse"
       id="linearGradient4767"
       xlink:href="#linearGradient3737"
       inkscape:collect="always" />
    <clipPath
       clipPathUnits="userSpaceOnUse"
       id="clipPath4156-4-1">
      <path
         style="opacity:0.6;fill:#ffffff;fill-opacity:1;stroke:none"
         d="m 27.046336,-55.695463 -14.21366,13.321486 h 0.06127 l 15.653407,21.770763 10.231384,-10.546177 C 38.561832,-32.30156 27.468089,-54.819245 27.046336,-55.695463 Z M 9.6468554,-39.382809 -5.2407289,-25.32124 15.987863,-7.8059573 26.372412,-18.382966 Z m 31.4906096,12.951445 -9.741259,9.713584 8.944804,12.4580526 7.780753,-7.5550056 z m -49.8397109,4.378822 -13.7541661,12.9822847 26.2830181,13.84571 0.06127,-0.0617 -0.122531,-0.0617 L 13.598503,-5.4007374 -8.7022409,-22.052595 Z m 38.0154159,7.400825 -9.802525,9.7752596 11.579232,9.5594001 7.62759,-7.40083 -8.669108,-11.0087257 z m 20.187073,5.6739697 -7.382526,7.2158 6.187844,8.54179 5.820249,-6.13651996 z m -32.195166,6.32154 -9.5574606,9.49772 13.6622686,7.1849703 7.933918,-7.6783603 z m 23.311629,2.37443004 -7.10683,6.93826996 8.362778,6.9074403 5.360756,-5.6739699 -0.06127,-0.0925 -0.0919,0.12335 -6.463539,-8.20258036 z m -8.730374,8.54178036 -7.505057,7.3391599 10.353916,5.45811 c 1.397496,-1.32103 5.67514,-6.12292 5.850882,-6.32154 z"
         id="path4158-0-8"
         inkscape:connector-curvature="0" />
    </clipPath>
    <linearGradient
       gradientUnits="userSpaceOnUse"
       y2="7.0165396"
       x2="45.447727"
       y1="92.539597"
       x1="45.447727"
       gradientTransform="scale(1.0058652,0.994169)"
       id="ButtonShadow-16">
      <stop
         id="stop3750-6"
         offset="0"
         style="stop-color:#000000;stop-opacity:1;" />
      <stop
         id="stop3752-4"
         offset="1"
         style="stop-color:#000000;stop-opacity:0.58823532;" />
    </linearGradient>
    <clipPath
       id="clipPath4355-7"
       clipPathUnits="userSpaceOnUse">
      <rect
         ry="6"
         rx="6"
         y="6"
         x="6"
         height="80"
         width="84"
         id="rect4357-5"
         style="fill:#ffffff;fill-opacity:1;fill-rule:nonzero;stroke:none" />
    </clipPath>
    <clipPath
       id="clipPath4355-9"
       clipPathUnits="userSpaceOnUse">
      <rect
         ry="6"
         rx="6"
         y="6"
         x="6"
         height="80"
         width="84"
         id="rect4357-1"
         style="fill:#ffffff;fill-opacity:1;fill-rule:nonzero;stroke:none" />
    </clipPath>
    <clipPath
       id="clipPath4355-1"
       clipPathUnits="userSpaceOnUse">
      <rect
         ry="6"
         rx="6"
         y="6"
         x="6"
         height="80"
         width="84"
         id="rect4357-9"
         style="fill:#ffffff;fill-opacity:1;fill-rule:nonzero;stroke:none" />
    </clipPath>
    <clipPath
       id="clipPath3943-52-0"
       clipPathUnits="userSpaceOnUse">
      <path
         inkscape:connector-curvature="0"
         style="color:#000000;display:inline;overflow:visible;visibility:visible;opacity:0.8;fill:#ff00ff;fill-opacity:1;fill-rule:nonzero;stroke:none;stroke-width:1;marker:none;enable-background:accumulate"
         d="m 69.78125,20.84375 -5,3.4375 c 5.586891,5.537137 9,13.327613 9,21.8125 0,8.434478 -3.37723,16.095981 -8.90625,21.625 l 5,3.4375 C 76.078226,64.5762 80,55.843726 80,46.09375 c 2e-6,-9.796556 -3.962955,-18.660417 -10.21875,-25.25 z M 40,24.0625 28.90625,36.21875 H 21.5 c -0.823281,0 -1.5,0.676717 -1.5,1.5 v 1 14.84375 1 c 0,0.823281 0.684121,1.610161 1.5,1.5 h 7.40625 L 40,68 V 66 26.0625 Z m 20.59375,3.28125 -5,3.4375 L 55.5,30.875 c 3.93815,3.890071 6.40625,9.25018 6.40625,15.21875 0,5.920869 -2.42961,11.148358 -6.3125,15.03125 l 0.09375,0.09375 5.09375,3.4375 c 4.475428,-4.908367 7.25,-11.402005 7.25,-18.5625 0,-7.230696 -2.87904,-13.83107 -7.4375,-18.75 z m -9.25,6.5 -5.21875,3.625 c 2.222384,2.217802 3.71875,5.239596 3.71875,8.625 0,3.336509 -1.458847,6.227712 -3.625,8.4375 l 5.21875,3.625 c 2.822412,-3.236947 4.53125,-7.43414 4.53125,-12.0625 0,-4.672601 -1.754155,-9.001351 -4.625,-12.25 z"
         id="path3945-4-1" />
    </clipPath>
  </defs>
  <sodipodi:namedview
     id="base"
     pagecolor="#ffffff"
     bordercolor="#666666"
     borderopacity="1.0"
     inkscape:pageopacity="0.0"
     inkscape:pageshadow="2"
     inkscape:zoom="5.02"
     inkscape:cx="26.734471"
     inkscape:cy="34.490742"
     inkscape:document-units="px"
     inkscape:current-layer="g2574"
     showgrid="false"
     inkscape:showpageshadow="false"
     units="px"
     inkscape:lockguides="false"
     inkscape:window-width="1280"
     inkscape:window-height="975"
     inkscape:window-x="0"
     inkscape:window-y="21"
     inkscape:window-maximized="1"
     showguides="true"
     inkscape:guide-bbox="true"
     inkscape:snap-global="false" />
  <metadata
     id="metadata1069">
    <rdf:RDF>
      <cc:Work
         rdf:about="">
        <dc:format>image/svg+xml</dc:format>
        <dc:type
           rdf:resource="http://purl.org/dc/dcmitype/StillImage" />
        <dc:title>Lila-HD-Icon-Theme</dc:title>
        <dc:date>2015-2017</dc:date>
        <dc:creator>
          <cc:Agent>
            <dc:title>Cristian Pozzessere  &lt; ilnanny &gt;</dc:title>
          </cc:Agent>
        </dc:creator>
        <dc:subject>
          <rdf:Bag>
            <rdf:li>ilnanny</rdf:li>
            <rdf:li>lila_hd</rdf:li>
            <rdf:li>lila-hd</rdf:li>
            <rdf:li>lila hd icon theme</rdf:li>
            <rdf:li>Lila-HD-Icon-Theme lila hd icon lila icon</rdf:li>
          </rdf:Bag>
        </dc:subject>
        <dc:description>Playing with Inkscape on Gnu/Linux O. S.</dc:description>
        <dc:contributor>
          <cc:Agent>
            <dc:title>In the night, alone like a dog.</dc:title>
          </cc:Agent>
        </dc:contributor>
        <cc:license
           rdf:resource="http://creativecommons.org/licenses/by-sa/3.0/" />
      </cc:Work>
      <cc:License
         rdf:about="http://creativecommons.org/licenses/by-sa/3.0/">
        <cc:permits
           rdf:resource="http://creativecommons.org/ns#Reproduction" />
        <cc:permits
           rdf:resource="http://creativecommons.org/ns#Distribution" />
        <cc:requires
           rdf:resource="http://creativecommons.org/ns#Notice" />
        <cc:requires
           rdf:resource="http://creativecommons.org/ns#Attribution" />
        <cc:permits
           rdf:resource="http://creativecommons.org/ns#DerivativeWorks" />
        <cc:requires
           rdf:resource="http://creativecommons.org/ns#ShareAlike" />
      </cc:License>
    </rdf:RDF>
  </metadata>
  <g
     inkscape:label="Livello 1"
     inkscape:groupmode="layer"
     id="layer1"
     transform="translate(0,-1026.5197)">
    <g
       transform="translate(-0.14895645,1026.1047)"
       style="display:inline"
       id="g2574">
      <g
         aria-label="Q"
         transform="matrix(1.0191518,-1.0191518,1.0191518,1.0191518,12.630744,4.5875057)"
         style="font-style:normal;font-variant:normal;font-weight:normal;font-stretch:normal;font-size:64px;font-family:'Waltograph UI';-inkscape-font-specification:'Waltograph UI';font-variant-ligatures:normal;font-variant-caps:normal;font-variant-numeric:normal;font-feature-settings:normal;text-align:center;writing-mode:lr-tb;text-anchor:middle;opacity:1;fill:#0084c8;fill-opacity:1;fill-rule:evenodd;stroke:#223751;stroke-width:0.89999998;stroke-linecap:round;stroke-linejoin:miter;stroke-miterlimit:4;stroke-dasharray:none;stroke-dashoffset:0;stroke-opacity:1;paint-order:markers stroke fill"
         id="text4531">
        <path
           style="color:#000000;font-style:normal;font-variant:normal;font-weight:normal;font-stretch:normal;font-size:medium;line-height:normal;font-family:'Waltograph UI';-inkscape-font-specification:'Waltograph UI';font-variant-ligatures:normal;font-variant-position:normal;font-variant-caps:normal;font-variant-numeric:normal;font-variant-alternates:normal;font-feature-settings:normal;text-indent:0;text-align:start;text-decoration:none;text-decoration-line:none;text-decoration-style:solid;text-decoration-color:#000000;letter-spacing:normal;word-spacing:normal;text-transform:none;writing-mode:lr-tb;direction:ltr;text-orientation:mixed;dominant-baseline:auto;baseline-shift:baseline;text-anchor:start;white-space:normal;shape-padding:0;clip-rule:nonzero;display:inline;overflow:visible;visibility:visible;opacity:1;isolation:auto;mix-blend-mode:normal;color-interpolation:sRGB;color-interpolation-filters:linearRGB;solid-color:#000000;solid-opacity:1;vector-effect:none;fill:#005c94;fill-opacity:1;fill-rule:evenodd;stroke:none;stroke-width:5.34240532;stroke-linecap:round;stroke-linejoin:miter;stroke-miterlimit:4;stroke-dasharray:none;stroke-dashoffset:0;stroke-opacity:1;paint-order:markers stroke fill;color-rendering:auto;image-rendering:auto;shape-rendering:auto;text-rendering:auto;enable-background:accumulate"
           d="m -25.148377,64.258669 c -10.176665,-10.176311 -26.756617,-10.176309 -36.933284,-2e-6 -10.176315,10.176669 -10.176309,26.756619 -2e-6,36.933293 l 9.58e-4,9.5e-4 0.0019,0.002 c 2.539499,2.53206 5.584965,4.46844 8.909445,5.77418 l -0.140855,11.17561 19.033907,0.24147 0.14469,-11.3845 c 3.353104,-1.30703 6.424936,-3.25433 8.982267,-5.80676 l 9.57e-4,-9.6e-4 9.62e-4,-9.6e-4 c 10.176719,-10.177078 10.176352,-26.757752 -9.61e-4,-36.934241 z m -1.888634,1.888635 a 23.445256,23.445256 0 0 1 9.61e-4,33.156973 23.445256,23.445256 0 0 1 -9.743092,5.837423 l -0.134151,10.54032 -13.692834,-0.17439 0.131274,-10.3803 a 23.445256,23.445256 0 0 1 -9.718176,-5.824009 23.445256,23.445256 0 0 1 2e-6,-33.15602 23.445256,23.445256 0 0 1 33.156016,3e-6 z m -2.515303,2.668616 c -6.549452,-6.534803 -16.718205,-7.744145 -24.6174,-2.927334 l 29.618305,11.308805 c -0.951422,-3.16285 -2.669734,-6.041715 -5.000905,-8.381471 z m -1.892467,1.884801 0.0019,0.0019 c 0.428824,0.430542 0.730902,0.958218 1.110565,1.428693 l -16.294376,-6.221667 c 5.418679,-0.920848 11.097982,0.720068 15.181894,4.791057 z m 6.908704,18.091022 -29.656636,11.303067 c 1.809394,1.11192 3.7841,1.92862 5.849882,2.42139 l -0.21943,11.07021 9.229486,0.11882 0.221349,-11.20628 c 3.61657,-0.85053 6.925635,-2.687828 9.559112,-5.308484 2.339455,-2.342615 4.062544,-5.228339 5.016237,-8.398723 z m -10.184825,-5.800051 -0.09199,-0.03449 0.0086,-0.0029 -1.293583,-0.469525 -7.345646,-2.70982 -4e-6,0.03833 -0.103484,-0.03833 0.09774,6.458341 1.348202,-0.510725 z m 4.407766,10.860368 c -0.384678,0.477205 -0.690663,1.011831 -1.125894,1.447853 -2.282439,2.270268 -5.149518,3.861358 -8.283736,4.598457 l -2.01799,0.47527 -0.21081,10.62656 -3.886501,-0.0498 0.208887,-10.53265 -1.174767,-0.2798 z m -24.643269,-23.23087 -0.01054,-0.0048 -9.57e-4,9.57e-4 z m -0.02875,-0.0115 -1.700821,-0.648711 -3e-6,0.046 1.700826,0.60463 z m 2.803726,5.986902 -9.132709,-3.24546 c -3.306786,6.022551 -3.301342,13.318528 0.01341,19.336699 l 9.119295,-3.237795 z m -2.671492,1.885759 v 9.081925 l -4.93287,1.75161 c -1.596599,-4.070136 -1.600258,-8.517471 -0.01054,-12.589934 z"
           id="path4611"
           inkscape:connector-curvature="0" />
        <g
           aria-label="A"
           transform="matrix(0,0.74128217,-0.74128217,0,2.8013626,98.836575)"
           style="font-style:normal;font-variant:normal;font-weight:normal;font-stretch:normal;font-size:69.57523346px;font-family:OpenSymbol;-inkscape-font-specification:OpenSymbol;font-variant-ligatures:normal;font-variant-caps:normal;font-variant-numeric:normal;font-feature-settings:normal;text-align:center;writing-mode:lr-tb;text-anchor:middle;opacity:1;fill:#ffffff;fill-opacity:0.97356825;fill-rule:evenodd;stroke:#ff9900;stroke-width:2.80791416;stroke-linecap:round;stroke-linejoin:miter;stroke-miterlimit:4;stroke-dasharray:none;stroke-dashoffset:0;stroke-opacity:1;paint-order:markers stroke fill"
           id="text4568" />
        <path
           d="m -34.159781,-28.037519 a 23.445256,23.445256 0 0 0 -33.156016,-3e-6 23.445256,23.445256 0 0 0 -2e-6,33.1560196 23.445256,23.445256 0 0 0 9.718176,5.8240074 l -0.131274,10.3803 13.692834,0.174396 0.134151,-10.540323 a 23.445256,23.445256 0 0 0 9.743092,-5.8374244 23.445256,23.445256 0 0 0 -9.61e-4,-33.1569726 z"
           style="opacity:1;fill:#005c94;fill-opacity:0.97356825;fill-rule:evenodd;stroke:none;stroke-width:0.71034944;stroke-linecap:round;stroke-linejoin:miter;stroke-miterlimit:4;stroke-dasharray:none;stroke-dashoffset:0;stroke-opacity:1;paint-order:markers stroke fill"
           id="path4597"
           inkscape:connector-curvature="0" />
        <path
           d="m -35.871146,-26.326155 a 21.024655,21.024655 0 0 0 -29.733286,-2e-6 21.024655,21.024655 0 0 0 -3e-6,29.7332906 21.024655,21.024655 0 0 0 10.043012,5.581577 l -0.127442,10.0640914 9.671224,0.123608 0.129357,-10.2059044 a 21.024655,21.024655 0 0 0 10.017141,-5.563374 21.024655,21.024655 0 0 0 -3e-6,-29.7332866 z"
           style="opacity:1;fill:#364e59;fill-opacity:0.97356825;fill-rule:evenodd;stroke:none;stroke-width:0.6370095;stroke-linecap:round;stroke-linejoin:miter;stroke-miterlimit:4;stroke-dasharray:none;stroke-dashoffset:0;stroke-opacity:1;paint-order:markers stroke fill"
           id="path4599"
           inkscape:connector-curvature="0" />
        <g
           id="g4603"
           style="font-style:normal;font-variant:normal;font-weight:normal;font-stretch:normal;font-size:69.57523346px;font-family:OpenSymbol;-inkscape-font-specification:OpenSymbol;font-variant-ligatures:normal;font-variant-caps:normal;font-variant-numeric:normal;font-feature-settings:normal;text-align:center;writing-mode:lr-tb;text-anchor:middle;opacity:1;fill:#9eabb0;fill-opacity:0.97356825;fill-rule:evenodd;stroke:#ff9900;stroke-width:2.80791426;stroke-linecap:round;stroke-linejoin:miter;stroke-miterlimit:4;stroke-dasharray:none;stroke-dashoffset:0;stroke-opacity:1;paint-order:markers stroke fill"
           transform="matrix(0,0.74128217,-0.74128217,0,17.374619,8.1694216)"
           aria-label="A">
          <path
             inkscape:connector-curvature="0"
             id="path4601"
             d="m -32.666016,59.464844 -0.470703,1.234375 -0.34375,0.902343 -21.085937,55.226558 h 14.408203 l 4.621094,-13.00976 h 18.169921 l 4.619141,13.00976 H 1.5566406 L -20.306641,59.464844 Z m 6.169922,19.671875 4.5625,12.330078 h -9.109375 z m -17.486328,28.603511 -0.86914,2.44532 h -0.06445 z"
             style="color:#000000;font-style:normal;font-variant:normal;font-weight:normal;font-stretch:normal;font-size:medium;line-height:normal;font-family:OpenSymbol;-inkscape-font-specification:OpenSymbol;font-variant-ligatures:normal;font-variant-position:normal;font-variant-caps:normal;font-variant-numeric:normal;font-variant-alternates:normal;font-feature-settings:normal;text-indent:0;text-align:start;text-decoration:none;text-decoration-line:none;text-decoration-style:solid;text-decoration-color:#000000;letter-spacing:normal;word-spacing:normal;text-transform:none;writing-mode:lr-tb;direction:ltr;text-orientation:mixed;dominant-baseline:auto;baseline-shift:baseline;text-anchor:start;white-space:normal;shape-padding:0;clip-rule:nonzero;display:inline;overflow:visible;visibility:visible;opacity:1;isolation:auto;mix-blend-mode:normal;color-interpolation:sRGB;color-interpolation-filters:linearRGB;solid-color:#000000;solid-opacity:1;vector-effect:none;fill:#9eabb0;fill-opacity:1;fill-rule:nonzero;stroke:none;stroke-width:3.83748269;stroke-linecap:butt;stroke-linejoin:miter;stroke-miterlimit:4;stroke-dasharray:none;stroke-dashoffset:0;stroke-opacity:1;paint-order:markers stroke fill;color-rendering:auto;image-rendering:auto;shape-rendering:auto;text-rendering:auto;enable-background:accumulate" />
        </g>
        <path
           id="path4615"
           d="m -64.467559,25.5894 a 23.445256,23.445256 0 0 0 -33.156016,-3e-6 23.445256,23.445256 0 0 0 0,33.15602 23.445256,23.445256 0 0 0 9.71818,5.824007 l -0.13128,10.380299 13.692836,0.1744 0.13415,-10.540326 a 23.445256,23.445256 0 0 0 9.743091,-5.837424 23.445256,23.445256 0 0 0 -9.61e-4,-33.156973 z m -2.5153,2.668616 c 2.331168,2.339756 4.04948,5.218621 5.000902,8.381471 L -91.600255,25.330682 c 7.89919,-4.816811 18.067946,-3.607469 24.617396,2.927334 z m 5.016234,19.975823 c -0.953693,3.170384 -2.676782,6.056108 -5.016234,8.398723 -2.63348,2.620656 -5.94254,4.45795 -9.55911,5.308487 l -0.22135,11.206284 -9.229486,-0.11883 0.21943,-11.070207 c -2.06578,-0.492768 -4.04049,-1.309468 -5.84988,-2.421395 z m -10.184824,-5.800051 -7.380136,2.730903 -1.34821,0.510725 -0.0977,-6.458341 0.10348,0.03833 v -0.03833 l 7.345646,2.70982 1.29358,0.469525 -0.009,0.0029 z m -20.235496,-12.370502 -1.72958,-0.614213 10e-6,-0.046 z m 2.77497,5.975404 v 12.853444 l -9.11929,3.237795 c -3.314765,-6.018171 -3.320205,-13.314148 -0.0134,-19.336699 z"
           style="opacity:1;fill:#364e59;fill-opacity:0.97356825;fill-rule:evenodd;stroke:none;stroke-width:5.34240532;stroke-linecap:round;stroke-linejoin:miter;stroke-miterlimit:4;stroke-dasharray:none;stroke-dashoffset:0;stroke-opacity:1;paint-order:markers stroke fill"
           inkscape:connector-curvature="0" />
      </g>
      <g
         id="g4644">
        <path
           style="display:inline;opacity:0.15;fill:#000000;fill-opacity:1;fill-rule:nonzero;stroke:none"
           d="M 89.29181,0.415026 H 7.0060911 c -3.798848,0 -6.8571352,3.058285 -6.8571352,6.8571399 V 89.557884 c 0,3.798857 3.0582872,6.857142 6.8571352,6.857142 H 89.29181 c 3.798857,0 6.857147,-3.058285 6.857147,-6.857142 V 7.2721659 c 0,-3.7988549 -3.05829,-6.8571399 -6.857147,-6.8571399 z"
           id="path3288"
           inkscape:connector-curvature="0" />
        <path
           inkscape:connector-curvature="0"
           id="path4085"
           d="M 88.648954,1.165026 H 7.6489471 c -3.739492,0 -6.749993,3.010499 -6.749993,6.7499969 V 88.915026 c 0,3.739501 3.010501,6.75 6.749993,6.75 H 88.648954 c 3.739503,0 6.750003,-3.010499 6.750003,-6.75 V 7.9150229 c 0,-3.7394979 -3.0105,-6.7499969 -6.750003,-6.7499969 z"
           style="display:inline;opacity:0.15;fill:#000000;fill-opacity:1;fill-rule:nonzero;stroke:none" />
        <path
           style="display:inline;fill:url(#linearGradient4071);fill-opacity:1;fill-rule:nonzero;stroke:none"
           d="M 88.006093,1.915026 H 8.2918111 c -3.680143,0 -6.6428566,2.962713 -6.6428566,6.6428549 V 88.272171 c 0,3.680142 2.9627136,6.642856 6.6428566,6.642856 H 88.006093 c 3.680143,0 6.642854,-2.962714 6.642854,-6.642856 V 8.5578809 c 0,-3.6801419 -2.962711,-6.6428549 -6.642854,-6.6428549 z"
           id="rect4251-1"
           inkscape:connector-curvature="0" />
        <path
           style="display:inline;opacity:0.77864583;fill:#f5f3f3;fill-opacity:1;fill-rule:nonzero;stroke:none;stroke-width:1.02950251"
           d="m 11.390247,6.8021682 c -2.8564964,0 -5.1241284,2.2883782 -5.1241284,5.1710028 v 21.42734 7.239403 39.913674 c 1.0972399,1.684484 2.9688485,2.811732 5.1241284,2.811732 h 4.099303 65.588849 4.099302 c 2.155281,0 4.026889,-1.127248 5.124129,-2.811732 V 40.639914 33.400511 11.973171 c 0,-2.8826246 -2.267632,-5.1710028 -5.124129,-5.1710028 z"
           id="path3400-6"
           inkscape:connector-curvature="0"
           sodipodi:nodetypes="sscccsccscccsss" />
        <path
           inkscape:connector-curvature="0"
           id="path4989"
           d="m 9.9740341,5.1444869 c -3.116621,0 -5.667965,2.53951 -5.667965,5.6460041 v 69.277996 c 0,3.106495 2.551344,5.646004 5.667965,5.646004 H 86.765819 c 3.116621,0 5.667968,-2.539509 5.667968,-5.646004 V 10.790491 c 0,-3.1064931 -2.551347,-5.6460041 -5.667968,-5.6460041 z m 0,2.319439 H 86.765819 c 1.888099,0 3.352022,1.480095 3.352022,3.3265651 v 69.277996 c 0,1.846474 -1.463923,3.326564 -3.352022,3.326564 H 9.9740341 c -1.888099,0 -3.352022,-1.48009 -3.352022,-3.326564 V 10.790491 c 0,-1.8464701 1.463923,-3.3265651 3.352022,-3.3265651 z"
           style="color:#000000;font-style:normal;font-variant:normal;font-weight:normal;font-stretch:normal;font-size:medium;line-height:normal;font-family:Sans;-inkscape-font-specification:Sans;text-indent:0;text-align:start;text-decoration:none;text-decoration-line:none;letter-spacing:normal;word-spacing:normal;text-transform:none;writing-mode:lr-tb;direction:ltr;baseline-shift:baseline;text-anchor:start;display:inline;overflow:visible;visibility:visible;fill:#241f1f;fill-opacity:0.63265303;stroke:none;stroke-width:2.3755002;marker:none;enable-background:accumulate" />
        <path
           inkscape:connector-curvature="0"
           style="display:inline;opacity:0.65818182;fill:url(#linearGradient4129);fill-opacity:1;fill-rule:nonzero;stroke:none"
           d="m 1.6489535,82.258776 v 6 c 0,3.680142 2.9761066,6.65625 6.6562496,6.65625 H 87.992703 c 3.680143,0 6.656254,-2.976108 6.656254,-6.65625 v -6 c 0,3.680142 -2.976111,6.65625 -6.656254,6.65625 H 8.3052031 c -3.680143,0 -6.6562496,-2.976108 -6.6562496,-6.65625 z"
           id="path4118" />
        <rect
           style="opacity:0.55;fill:url(#radialGradient7462);fill-opacity:1;stroke:none"
           id="rect4131"
           width="84.250008"
           height="4.25"
           x="5.5239539"
           y="80.665031"
           rx="0"
           ry="4.25" />
        <rect
           ry="4.25"
           rx="0"
           y="-90.233963"
           x="5.9750223"
           height="4.25"
           width="76.75"
           id="rect4141"
           style="opacity:0.669;fill:url(#radialGradient7464);fill-opacity:1;stroke:none"
           transform="rotate(90)" />
        <path
           inkscape:connector-curvature="0"
           id="path4611-3"
           d="M 41.701937,8.4635839 C 22.709124,10.09406 8.565118,26.893968 10.194927,45.886835 c 1.630476,18.99282 18.430387,33.13682 37.423261,31.507017 l 0.0017,-1.52e-4 0.0037,-2.24e-4 c 4.732042,-0.413174 9.292136,-1.847124 13.451243,-4.101809 l 11.203748,9.676398 16.4821,-19.080425 -11.4121,-9.858486 c 1.536093,-4.512588 2.183474,-9.286372 1.778789,-14.055055 l -1.57e-4,-0.0018 -1.52e-4,-0.0018 C 77.496502,20.97694 60.695549,6.8326881 41.702003,8.4636685 Z m 0.302536,3.5248431 A 31.054589,31.054589 0 0 1 75.602137,40.272969 31.054589,31.054589 0 0 1 73.205374,55.1251 L 83.771085,64.252755 71.913313,77.978475 61.507291,68.990244 A 31.054589,31.054589 0 0 1 47.315648,73.869004 31.054589,31.054589 0 0 1 13.71977,45.5843 31.054589,31.054589 0 0 1 42.004473,11.988427 Z m 0.558266,4.825213 C 30.354043,17.875276 20.453909,27.147267 18.595985,39.260375 L 55.321569,18.896447 C 51.305121,17.16233 46.922208,16.447539 42.562739,16.81364 Z m 0.295362,3.525458 0.0036,-3.08e-4 c 0.802083,-0.06714 1.594447,0.07684 2.395046,0.09349 L 25.052119,31.635252 C 28.741615,25.35913 35.249194,21.004315 42.858089,20.339099 Z m 24.224714,8.432711 -13.846435,39.69248 c 2.670228,-0.884843 5.182342,-2.189036 7.443925,-3.861852 l 11.02988,9.666105 7.993877,-9.250566 -11.166118,-9.784126 c 2.223405,-4.390118 3.184627,-9.310442 2.775769,-14.214483 -0.377935,-4.368929 -1.83203,-8.576625 -4.230898,-12.247558 z m -14.565456,5.372038 -0.113423,0.06378 0.0044,-0.01118 -1.579282,0.910202 -9.012185,5.131406 0.03884,0.03271 -0.127118,0.07216 6.6274,5.410438 0.632622,-1.801777 z m 14.764617,4.798511 c 0.155374,0.796875 0.436064,1.562997 0.506585,2.375964 0.353285,4.249437 -0.480361,8.511877 -2.407219,12.316478 l -1.23993,2.450204 10.587698,9.278901 -3.365952,3.895577 -10.494184,-9.19684 -1.28568,0.95166 z m -44.561713,5.152429 -0.01385,0.0065 1.54e-4,0.0018 z m -0.03618,0.01933 -2.108251,1.169984 0.04661,0.03924 2.06359,-1.207592 z m 8.458126,2.26638 -11.079437,6.485233 c 3.281499,8.488366 10.678911,14.706894 19.604666,16.482143 l 4.49873,-12.002369 z m -0.368217,4.315635 9.202409,7.747599 -2.433281,6.492572 C 32.056965,63.081927 27.547509,59.291706 24.777174,54.206766 Z"
           style="color:#000000;font-style:normal;font-variant:normal;font-weight:normal;font-stretch:normal;font-size:medium;line-height:normal;font-family:'Waltograph UI';-inkscape-font-specification:'Waltograph UI';font-variant-ligatures:normal;font-variant-position:normal;font-variant-caps:normal;font-variant-numeric:normal;font-variant-alternates:normal;font-feature-settings:normal;text-indent:0;text-align:start;text-decoration:none;text-decoration-line:none;text-decoration-style:solid;text-decoration-color:#000000;letter-spacing:normal;word-spacing:normal;text-transform:none;writing-mode:lr-tb;direction:ltr;text-orientation:mixed;dominant-baseline:auto;baseline-shift:baseline;text-anchor:start;white-space:normal;shape-padding:0;clip-rule:nonzero;display:inline;overflow:visible;visibility:visible;opacity:1;isolation:auto;mix-blend-mode:normal;color-interpolation:sRGB;color-interpolation-filters:linearRGB;solid-color:#000000;solid-opacity:1;vector-effect:none;fill:#005c94;fill-opacity:1;fill-rule:evenodd;stroke:none;stroke-width:7.07632303;stroke-linecap:round;stroke-linejoin:miter;stroke-miterlimit:4;stroke-dasharray:none;stroke-dashoffset:0;stroke-opacity:1;paint-order:markers stroke fill;color-rendering:auto;image-rendering:auto;shape-rendering:auto;text-rendering:auto;enable-background:accumulate" />
        <rect
           transform="matrix(1.0692451,0,0,1.0476829,4.4441802,38.894013)"
           style="opacity:0.672;fill:url(#linearGradient4767);fill-opacity:1;stroke:none"
           id="rect4146"
           width="75.965775"
           height="69.024437"
           x="2"
           y="-30"
           rx="3.9569874"
           ry="3.9569881"
           clip-path="url(#clipPath4156-4-1)" />
        <g
           id="text4544"
           style="font-style:normal;font-variant:normal;font-weight:normal;font-stretch:normal;font-size:79.20530701px;font-family:'Trebuchet MS';-inkscape-font-specification:'Trebuchet MS';font-variant-ligatures:normal;font-variant-caps:normal;font-variant-numeric:normal;font-feature-settings:normal;text-align:center;writing-mode:lr-tb;text-anchor:middle;opacity:1;fill:#0084c8;fill-opacity:1;fill-rule:evenodd;stroke:#223751;stroke-width:0.71086687;stroke-linecap:round;stroke-linejoin:miter;stroke-miterlimit:4;stroke-dasharray:none;stroke-dashoffset:0;stroke-opacity:1;paint-order:markers stroke fill"
           transform="matrix(0.67761153,0.73564022,-0.73266711,0.68036123,0,0)"
           aria-label="A" />
      </g>
    </g>
  </g>
</svg>
