<?xml version="1.0" encoding="UTF-8" standalone="no"?>
<!-- Created with Inkscape (http://www.inkscape.org/) -->

<svg
   xmlns:osb="http://www.openswatchbook.org/uri/2009/osb"
   xmlns:dc="http://purl.org/dc/elements/1.1/"
   xmlns:cc="http://creativecommons.org/ns#"
   xmlns:rdf="http://www.w3.org/1999/02/22-rdf-syntax-ns#"
   xmlns:svg="http://www.w3.org/2000/svg"
   xmlns="http://www.w3.org/2000/svg"
   xmlns:xlink="http://www.w3.org/1999/xlink"
   xmlns:sodipodi="http://sodipodi.sourceforge.net/DTD/sodipodi-0.dtd"
   xmlns:inkscape="http://www.inkscape.org/namespaces/inkscape"
   width="512"
   height="512"
   viewBox="0 0 512.00004 512.00001"
   id="svg4279"
   version="1.1"
   inkscape:version="0.91 r13725"
   sodipodi:docname="archlabs-3.svg">
  <defs
     id="defs4281">
    <linearGradient
       id="linearGradient5090"
       inkscape:collect="always">
      <stop
         id="stop5092"
         offset="0"
         style="stop-color:#333333;stop-opacity:1;" />
      <stop
         style="stop-color:#ab380b;stop-opacity:1"
         offset="0.5266456"
         id="stop5096" />
      <stop
         id="stop5094"
         offset="1"
         style="stop-color:#343434;stop-opacity:1" />
    </linearGradient>
    <linearGradient
       inkscape:collect="always"
       id="linearGradient5052">
      <stop
         style="stop-color:#060606;stop-opacity:1;"
         offset="0"
         id="stop5054" />
      <stop
         id="stop5072"
         offset="0.07373714"
         style="stop-color:#cfcfcf;stop-opacity:1" />
      <stop
         id="stop5068"
         offset="0.18961443"
         style="stop-color:#000000;stop-opacity:1" />
      <stop
         id="stop5066"
         offset="0.31790715"
         style="stop-color:#c2c2c2;stop-opacity:1" />
      <stop
         id="stop5064"
         offset="0.50000006"
         style="stop-color:#353535;stop-opacity:1" />
      <stop
         id="stop5062"
         offset="0.69450837"
         style="stop-color:#cbcbcb;stop-opacity:1" />
      <stop
         id="stop5060"
         offset="0.82487029"
         style="stop-color:#0f0f0f;stop-opacity:1" />
      <stop
         style="stop-color:#d1d1d1;stop-opacity:1"
         offset="0.92833221"
         id="stop5070" />
      <stop
         style="stop-color:#121212;stop-opacity:1"
         offset="1"
         id="stop5056" />
    </linearGradient>
    <linearGradient
       inkscape:collect="always"
       id="linearGradient5001">
      <stop
         style="stop-color:#000000;stop-opacity:1;"
         offset="0"
         id="stop5003" />
      <stop
         style="stop-color:#000000;stop-opacity:0;"
         offset="1"
         id="stop5005" />
    </linearGradient>
    <linearGradient
       inkscape:collect="always"
       xlink:href="#linearGradient4230"
       id="linearGradient4303"
       gradientUnits="userSpaceOnUse"
       x1="-687.05048"
       y1="1626.8505"
       x2="-611.31024"
       y2="1749.832"
       gradientTransform="matrix(0.94968062,0,0,0.94968062,1151.2089,-1085.8798)" />
    <linearGradient
       id="linearGradient4230"
       osb:paint="gradient">
      <stop
         style="stop-color:#fbe30f;stop-opacity:1;"
         offset="0"
         id="stop4232" />
      <stop
         style="stop-color:#fbe30f;stop-opacity:0;"
         offset="1"
         id="stop4234" />
    </linearGradient>
    <radialGradient
       inkscape:collect="always"
       xlink:href="#linearGradient4262"
       id="radialGradient4305"
       gradientUnits="userSpaceOnUse"
       gradientTransform="matrix(0.38704343,1.3398138,-0.70640878,0.20830443,1965.3807,1049.3224)"
       cx="-664.20258"
       cy="1682.3625"
       fx="-664.20258"
       fy="1682.3625"
       r="21.048254" />
    <linearGradient
       inkscape:collect="always"
       id="linearGradient4262">
      <stop
         style="stop-color:#ab380b;stop-opacity:1"
         offset="0"
         id="stop4264" />
      <stop
         style="stop-color:#ab380b;stop-opacity:0.00137255"
         offset="1"
         id="stop4266" />
    </linearGradient>
    <linearGradient
       inkscape:collect="always"
       xlink:href="#linearGradient4224"
       id="linearGradient4307"
       gradientUnits="userSpaceOnUse"
       x1="-607.1236"
       y1="1643.5056"
       x2="-606.86841"
       y2="1651.946"
       gradientTransform="matrix(0.94968062,0,0,0.94968062,1151.2089,-1085.8798)" />
    <linearGradient
       id="linearGradient4224"
       inkscape:collect="always">
      <stop
         id="stop4226"
         offset="0"
         style="stop-color:#f3ab08;stop-opacity:1;" />
      <stop
         id="stop4228"
         offset="1"
         style="stop-color:#ab380b;stop-opacity:1" />
    </linearGradient>
    <linearGradient
       inkscape:collect="always"
       xlink:href="#linearGradient4185"
       id="linearGradient4309"
       gradientUnits="userSpaceOnUse"
       x1="-607.1236"
       y1="1643.5056"
       x2="-606.86841"
       y2="1651.946"
       gradientTransform="matrix(0.94968062,0,0,0.94968062,1151.2089,-1085.8798)" />
    <linearGradient
       inkscape:collect="always"
       id="linearGradient4185">
      <stop
         style="stop-color:#333333;stop-opacity:1;"
         offset="0"
         id="stop4187" />
      <stop
         style="stop-color:#ab380b;stop-opacity:1"
         offset="1"
         id="stop4189" />
    </linearGradient>
    <pattern
       inkscape:collect="always"
       patternUnits="userSpaceOnUse"
       width="30.066020"
       height="5.1805778"
       id="Wavy"
       inkscape:stockid="Wavy">
      <path
         style="fill:black;stroke:none;"
         d="M 7.597,0.061 C 5.079,-0.187 2.656,0.302 -0.01,1.788 L -0.01,3.061 C 2.773,1.431 5.173,1.052 7.472,1.280 C 9.770,1.508 11.969,2.361 14.253,3.218 C 18.820,4.931 23.804,6.676 30.066,3.061 L 30.062,1.788 C 23.622,5.497 19.246,3.770 14.691,2.061 C 12.413,1.207 10.115,0.311 7.597,0.061 z "
         id="path2196" />
    </pattern>
    <pattern
       id="pattern2288"
       patternTransform="translate(2.681211,2.6812109)"
       height="250.63758"
       width="250.63758"
       patternUnits="userSpaceOnUse">
      <g
         id="g850"
         transform="matrix(2.8086959,0,0,2.808696,-9.4986149,-9.4986183)"
         style="opacity:0.21884496;fill:url(#Wavy);fill-opacity:1">
        <path
           sodipodi:nodetypes="ccccccscccccccccccccccsccsccccccccccccccccccccccccccccccccccccccccccccccccccccccccccccccccccccccccccc"
           inkscape:connector-curvature="0"
           id="path840"
           d="m 48.101561,13.689137 c -0.03714,7.51e-4 -0.06966,0.01705 -0.101562,0.0332 -5.172827,15.491957 -14.565268,34.859493 -26.53125,53.203124 -0.125056,0.225322 -0.270554,0.483202 -0.394532,0.707032 -0.02116,0.03814 -0.02693,0.07819 -0.02735,0.117188 9.651608,-1.855388 13.090065,0.398811 23.208587,5.951344 -2.145677,-4.772818 -3.338239,-12.128587 -2.581634,-19.863454 0.78208,-7.995325 3.178329,-15.032705 8.801776,-18.550091 0.05047,-0.03107 0.167969,-0.04687 0.167969,-0.04687 l 0.298828,0.416015 c -0.38936,1.139228 0.04876,2.509757 0.631817,4.007123 1.647612,3.79502 3.288023,7.620728 4.52696,13.959444 l -0.257807,0.01179 c 1.667045,8.623941 -3.445597,11.782302 -4.343371,20.735807 4.905094,-0.05209 9.421703,-3.98797 14.453125,-6.058593 0.904639,-0.44111 1.81936,-0.798824 2.765625,-1.017578 0.821307,-0.18987 1.66886,-0.268577 2.554687,-0.218749 1.248081,-0.03205 2.538634,0.126607 3.882813,0.558593 C 65.578026,51.258066 57.113575,34.345371 48.166012,13.70672 c -0.02192,-0.0057 -0.04107,-0.01824 -0.06445,-0.01758 z m -0.130859,36.412109 c -2.109127,2.11433 -3.138671,7.58621 -3.333986,12.22461 -0.197675,4.694501 0.192445,9.462137 0.281251,12.132812 0.07613,-0.05496 0.135541,-0.134166 0.132812,-0.246095 -0.07628,-2.573343 -0.47908,-7.362023 -0.283203,-12.027343 0.189974,-4.524745 1.190726,-9.863257 3.242188,-11.925781 3.10619,2.641265 4.276332,7.021271 4.53711,10.902344 0.09448,1.406172 0.03861,2.875702 -0.128907,4.384766 -0.303957,1.720289 -0.598818,3.36022 -0.855468,4.78125 -0.298132,1.254191 -0.644631,2.522956 -1.035156,3.796875 -0.03477,0.115835 0.0093,0.21178 0.07617,0.285156 0.382204,-1.253873 0.72513,-2.503372 1.019531,-3.738281 0.263866,-1.456725 0.566407,-3.136897 0.878907,-4.900391 0.172214,-1.546977 0.229947,-3.052648 0.132811,-4.494141 -0.268108,-3.978559 -1.47056,-8.468173 -4.664062,-11.175781 z m 15.511719,8.59961 c 0.0053,-2.6e-4 0.01028,-2.6e-4 0.01563,0 h 0.806639 c 0.105786,4.27e-4 0.183614,0.09849 0.158204,0.201171 l -0.466796,1.865234 h 1.11914 l 0.492188,-1.94336 c 0.01847,-0.07212 0.08375,-0.122894 0.158202,-0.123045 H 66.5625 c 0.105787,4.27e-4 0.183613,0.09849 0.158203,0.201171 l -0.46289,1.865234 h 1.345703 c 0.08966,3.58e-4 0.161751,0.0744 0.16211,0.164063 v 0.765625 c -3.59e-4,0.08967 -0.07244,0.163705 -0.16211,0.164063 h -1.621094 l -0.328125,1.33789 h 1.375001 c 0.08966,3.6e-4 0.16175,0.07244 0.162109,0.16211 v 0.761717 c -3.59e-4,0.08967 -0.07244,0.161751 -0.162109,0.16211 h -1.650392 l -0.48828,1.941407 c -0.01847,0.07212 -0.0818,0.122895 -0.15625,0.123047 h -0.798829 c -0.105784,-4.3e-4 -0.18166,-0.100443 -0.156249,-0.203125 l 0.460937,-1.861329 h -1.123048 l -0.482422,1.941407 c -0.01847,0.07212 -0.08375,0.122895 -0.158202,0.123047 h -0.800781 c -0.105786,-4.3e-4 -0.183613,-0.100443 -0.158203,-0.203125 l 0.466797,-1.861329 h -1.361328 c -0.08966,-3.58e-4 -0.161753,-0.07244 -0.16211,-0.16211 v -0.761717 c 3.57e-4,-0.08967 0.07244,-0.161751 0.16211,-0.16211 h 1.626953 l 0.33789,-1.33789 h -1.396485 c -0.08966,-3.58e-4 -0.16175,-0.0744 -0.162109,-0.164063 v -0.765625 c 3.59e-4,-0.08967 0.07244,-0.163705 0.162109,-0.164063 h 1.669922 l 0.478517,-1.94336 c 0.01614,-0.06736 0.07368,-0.115897 0.142578,-0.123045 z m -31.279297,0.06836 h 1.458984 0.205078 l -0.167969,5.5625 h -1.318359 z m 31.527343,3.091799 -0.33789,1.337891 h 1.125 l 0.328125,-1.337891 z m -31.466796,3.089844 h 1.541015 v 1.19336 0.171875 h -1.541015 z"
           style="color:#000000;font-style:normal;font-variant:normal;font-weight:normal;font-stretch:normal;font-size:medium;line-height:normal;font-family:sans-serif;font-variant-ligatures:normal;font-variant-position:normal;font-variant-caps:normal;font-variant-numeric:normal;font-variant-alternates:normal;font-feature-settings:normal;text-indent:0;text-align:start;text-decoration:none;text-decoration-line:none;text-decoration-style:solid;text-decoration-color:#000000;letter-spacing:normal;word-spacing:normal;text-transform:none;writing-mode:lr-tb;direction:ltr;text-orientation:mixed;dominant-baseline:auto;baseline-shift:baseline;text-anchor:start;white-space:normal;shape-padding:0;clip-rule:nonzero;display:inline;overflow:visible;visibility:visible;opacity:1;isolation:auto;mix-blend-mode:normal;color-interpolation:sRGB;color-interpolation-filters:linearRGB;solid-color:#000000;solid-opacity:1;vector-effect:none;fill:url(#Wavy);fill-opacity:1;fill-rule:evenodd;stroke:#535337;stroke-width:0.19999999;stroke-linecap:round;stroke-linejoin:round;stroke-miterlimit:7;stroke-dasharray:none;stroke-dashoffset:0;stroke-opacity:0.82352941;color-rendering:auto;image-rendering:auto;shape-rendering:auto;text-rendering:auto;enable-background:accumulate" />
        <path
           sodipodi:nodetypes="ccccsccscccccccsscczcccccccccccsccccc"
           inkscape:connector-curvature="0"
           d="m 48.087985,13.786233 c -0.09689,0.0025 -0.183367,0.0616 -0.220649,0.151093 -6.874645,18.90927 -18.150777,38.045208 -26.767654,53.556901 -0.09453,0.169809 0.03632,0.3769 0.230239,0.364543 8.541813,-0.596291 11.677449,0.632608 14.039762,2.187268 2.331392,1.534306 3.988695,3.460035 9.140004,4.216249 0.192113,0.207935 0.539352,0.06716 0.532432,-0.215848 -0.07617,-2.562097 -0.47859,-7.329883 -0.283002,-11.974815 0.189698,-4.504982 1.189127,-9.81984 3.237587,-11.873353 3.101642,2.629725 4.270175,6.989947 4.53057,10.854065 0.09433,1.40003 0.03779,2.862466 -0.129506,4.364944 -0.303517,1.712769 -0.597523,3.345843 -0.853805,4.760666 -0.297687,1.248717 -0.643719,2.511404 -1.033678,3.779754 -0.08844,0.293827 0.261308,0.521338 0.494061,0.321375 0.02091,0.007 0.0427,0.01093 0.06479,0.01205 5.047384,0.1851 8.724257,-2.507212 12.257812,-4.671931 1.766783,-1.082358 3.497894,-2.034157 5.348252,-2.460676 1.850368,-0.426521 3.819846,-0.337073 6.110923,0.681124 0.21577,0.09852 0.432022,-0.135749 0.316583,-0.342961 C 72.637565,61.858709 73.467359,64.353635 68.985625,55.435679 64.503891,46.517722 53.231303,25.458816 48.320659,13.934932 48.280903,13.842345 48.188729,13.7834 48.088024,13.786236 Z m 0.01198,0.865793 c 8.722774,20.137341 16.96583,36.616901 26.299979,52.575989 -8.986281,-2.887965 -15.515346,6.463392 -22.975912,6.542618 5.298965,-6.254948 7.773183,-12.232889 6.154095,-20.60877 v -0.0025 c -1.203302,-6.156387 -4.481921,-9.411369 -6.082142,-13.097229 -0.566288,-1.454295 -0.685143,-3.474335 -0.306983,-4.580793 0.06714,-0.198771 -0.08039,-0.404867 -0.290197,-0.405316 -0.05752,-3.98e-4 0,0 -0.163086,0.04557 -5.954626,1.66374 -8.095018,10.941554 -8.854597,18.706901 -0.734843,7.512382 0.290374,15.236954 2.374338,19.872486 C 34.383997,68.284094 31.19716,65.508665 21.725613,67.359864 33.658038,49.219438 43.014529,29.963575 48.099951,14.652026 Z"
           style="color:#000000;font-style:normal;font-variant:normal;font-weight:normal;font-stretch:normal;font-size:medium;line-height:normal;font-family:sans-serif;font-variant-ligatures:normal;font-variant-position:normal;font-variant-caps:normal;font-variant-numeric:normal;font-variant-alternates:normal;font-feature-settings:normal;text-indent:0;text-align:start;text-decoration:none;text-decoration-line:none;text-decoration-style:solid;text-decoration-color:#000000;letter-spacing:normal;word-spacing:normal;text-transform:none;writing-mode:lr-tb;direction:ltr;text-orientation:mixed;dominant-baseline:auto;baseline-shift:baseline;text-anchor:start;white-space:normal;shape-padding:0;clip-rule:nonzero;display:inline;overflow:visible;visibility:visible;opacity:1;isolation:auto;mix-blend-mode:normal;color-interpolation:sRGB;color-interpolation-filters:linearRGB;solid-color:#000000;solid-opacity:1;vector-effect:none;fill:url(#Wavy);fill-opacity:1;fill-rule:evenodd;stroke:#535337;stroke-width:0.19999999;stroke-linecap:round;stroke-linejoin:round;stroke-miterlimit:7;stroke-dasharray:none;stroke-dashoffset:0;stroke-opacity:0.82352941;color-rendering:auto;image-rendering:auto;shape-rendering:auto;text-rendering:auto;enable-background:accumulate"
           id="path842" />
        <path
           style="color:#000000;font-style:normal;font-variant:normal;font-weight:normal;font-stretch:normal;font-size:medium;line-height:normal;font-family:sans-serif;font-variant-ligatures:normal;font-variant-position:normal;font-variant-caps:normal;font-variant-numeric:normal;font-variant-alternates:normal;font-feature-settings:normal;text-indent:0;text-align:start;text-decoration:none;text-decoration-line:none;text-decoration-style:solid;text-decoration-color:#000000;letter-spacing:normal;word-spacing:normal;text-transform:none;writing-mode:lr-tb;direction:ltr;text-orientation:mixed;dominant-baseline:auto;baseline-shift:baseline;text-anchor:start;white-space:normal;shape-padding:0;clip-rule:nonzero;display:inline;overflow:visible;visibility:visible;opacity:1;isolation:auto;mix-blend-mode:normal;color-interpolation:sRGB;color-interpolation-filters:linearRGB;solid-color:#000000;solid-opacity:1;vector-effect:none;fill:url(#Wavy);fill-opacity:1;fill-rule:nonzero;stroke:#535337;stroke-width:0.227;stroke-linecap:butt;stroke-linejoin:bevel;stroke-miterlimit:4;stroke-dasharray:none;stroke-dashoffset:0;stroke-opacity:0.82352941;paint-order:markers fill stroke;color-rendering:auto;image-rendering:auto;shape-rendering:auto;text-rendering:auto;enable-background:accumulate"
           d="m 47.999995,3.4953606 c -24.57345,0 -44.5046355,19.9311834 -44.5046355,44.5046384 0,24.573453 19.9311855,44.50464 44.5046355,44.50464 24.573455,0 44.504646,-19.931187 44.504646,-44.50464 0,-24.573455 -19.931191,-44.5046384 -44.504646,-44.5046384 z m 0,0.9679642 c 24.050332,0 43.53668,19.4863462 43.53668,43.5366742 0,24.050325 -19.486348,43.536674 -43.53668,43.536674 -24.050327,0 -43.5366755,-19.486349 -43.5366755,-43.536674 0,-24.050328 19.4863485,-43.5366741 43.5366755,-43.5366742 z"
           id="path844"
           inkscape:connector-curvature="0" />
        <path
           style="color:#000000;font-style:normal;font-variant:normal;font-weight:normal;font-stretch:normal;font-size:medium;line-height:normal;font-family:sans-serif;font-variant-ligatures:normal;font-variant-position:normal;font-variant-caps:normal;font-variant-numeric:normal;font-variant-alternates:normal;font-feature-settings:normal;text-indent:0;text-align:start;text-decoration:none;text-decoration-line:none;text-decoration-style:solid;text-decoration-color:#000000;letter-spacing:normal;word-spacing:normal;text-transform:none;writing-mode:lr-tb;direction:ltr;text-orientation:mixed;dominant-baseline:auto;baseline-shift:baseline;text-anchor:start;white-space:normal;shape-padding:0;clip-rule:nonzero;display:inline;overflow:visible;visibility:visible;opacity:1;isolation:auto;mix-blend-mode:normal;color-interpolation:sRGB;color-interpolation-filters:linearRGB;solid-color:#000000;solid-opacity:1;vector-effect:none;fill:url(#Wavy);fill-opacity:1;fill-rule:nonzero;stroke:#535337;stroke-width:0.227;stroke-linecap:butt;stroke-linejoin:bevel;stroke-miterlimit:4;stroke-dasharray:none;stroke-dashoffset:0;stroke-opacity:0.82534246;paint-order:markers fill stroke;color-rendering:auto;image-rendering:auto;shape-rendering:auto;text-rendering:auto;enable-background:accumulate"
           d="m 47.999999,10.756645 c -20.563165,0 -37.243354,16.68019 -37.243354,37.243355 0,20.563186 16.680194,37.243356 37.243354,37.243356 20.56318,0 37.243355,-16.680173 37.243355,-37.243356 0,-20.563165 -16.680171,-37.243355 -37.243355,-37.243355 z m 0,0.965691 c 20.041289,0 36.277646,16.236397 36.277646,36.277664 0,20.041282 -16.236361,36.277647 -36.277646,36.277647 C 27.95873,84.277647 11.722337,68.041285 11.722337,48 c 0,-20.041268 16.236393,-36.277664 36.277662,-36.277664 z"
           id="path846"
           inkscape:connector-curvature="0" />
        <path
           inkscape:connector-curvature="0"
           d="m 49.038846,88.251387 c 10e-7,0.646548 -0.52413,1.17068 -1.170678,1.17068 -0.646548,0 -1.170679,-0.524132 -1.170678,-1.17068 0,-0.646547 0.524131,-1.170678 1.170678,-1.170678 0.646547,0 1.170678,0.524131 1.170678,1.170678 z m 0,-80.7768133 c -3e-6,0.6465453 -0.524133,1.1706721 -1.170678,1.1706724 -0.646548,-3e-7 -1.170678,-0.5241306 -1.170678,-1.1706781 3e-6,-0.6465453 0.524133,-1.1706721 1.170678,-1.1706724 0.646548,3e-7 1.170678,0.5241306 1.170678,1.1706781 z m 40.3884,40.6392603 c 0,0.646548 -0.524131,1.170679 -1.170679,1.170679 -0.646546,-2e-6 -1.170674,-0.524133 -1.170674,-1.170679 0,-0.646547 0.524131,-1.170678 1.170678,-1.170678 0.646546,2e-6 1.170675,0.524132 1.170675,1.170678 z m -80.442333,0 c -2.5e-6,0.646546 -0.5241319,1.170674 -1.1706778,1.170674 -0.6465476,0 -1.1706779,-0.52413 -1.1706782,-1.170678 2.5e-6,-0.646546 0.5241322,-1.170674 1.1706782,-1.170674 0.6465474,0 1.1706775,0.524131 1.1706778,1.170678 z M 77.385981,19.432221 c 0,0.646547 -0.524131,1.170678 -1.170678,1.170678 -0.646547,0 -1.170678,-0.524131 -1.170678,-1.170678 0,-0.646547 0.524131,-1.170678 1.170678,-1.170678 0.646547,0 1.170678,0.524131 1.170678,1.170678 z M 20.440839,76.377359 c -1e-6,0.646547 -0.524132,1.170677 -1.170679,1.170677 -0.646547,0 -1.170677,-0.52413 -1.170678,-1.170677 0,-0.646548 0.52413,-1.170679 1.170678,-1.170679 0.646548,0 1.170679,0.524131 1.170679,1.170679 z m 57.252988,0.05695 c 2e-6,0.646551 -0.52413,1.170684 -1.170681,1.170683 -0.646549,-10e-7 -1.170679,-0.524134 -1.170677,-1.170683 0,-0.646548 0.524131,-1.170678 1.170679,-1.170678 0.646548,0 1.170679,0.52413 1.170679,1.170678 z M 20.58144,19.321951 c -2e-6,0.646548 -0.524135,1.170676 -1.170683,1.170674 -0.646547,-1e-6 -1.170676,-0.52413 -1.170677,-1.170677 0,-0.646547 0.52413,-1.170678 1.170677,-1.170679 0.646551,-2e-6 1.170685,0.524131 1.170683,1.170682 z M 47.999999,5.8377102 c -23.26295,-3.4e-6 -42.16229,18.8993358 -42.16229,42.1622858 0,23.262941 18.89934,42.16229 42.162286,42.162294 23.262966,0 42.162293,-18.899353 42.162296,-42.162294 0,-23.26295 -18.89933,-42.1622938 -42.162292,-42.1622858 z m 0,3.8089185 c 21.204477,0 38.353357,17.1489123 38.353356,38.3533723 -4e-6,21.204452 -17.148879,38.353372 -38.353356,38.353376 -21.204451,0 -38.353363,-17.148924 -38.353363,-38.353376 0,-21.20446 17.148912,-38.3533678 38.353363,-38.3533723 z"
           style="opacity:1;fill:url(#Wavy);fill-opacity:1;stroke:#535337;stroke-width:0.25416982;stroke-linecap:round;stroke-linejoin:bevel;stroke-miterlimit:4;stroke-dasharray:none;stroke-dashoffset:0;stroke-opacity:0.82352941;paint-order:markers fill stroke"
           id="path848"
           sodipodi:nodetypes="ssssscscscscscscscscsssssssssscscscscscsssssssssss" />
      </g>
    </pattern>
    <linearGradient
       inkscape:collect="always"
       xlink:href="#linearGradient5001"
       id="linearGradient5007"
       x1="570.65942"
       y1="575.90179"
       x2="545.83826"
       y2="590.77472"
       gradientUnits="userSpaceOnUse" />
    <linearGradient
       inkscape:collect="always"
       xlink:href="#linearGradient5052"
       id="linearGradient5058"
       x1="154.76199"
       y1="-0.5522368"
       x2="267.70627"
       y2="71.104607"
       gradientUnits="userSpaceOnUse" />
    <linearGradient
       inkscape:collect="always"
       xlink:href="#linearGradient5052"
       id="linearGradient5080"
       x1="167.03038"
       y1="74.289375"
       x2="239.72221"
       y2="36.890781"
       gradientUnits="userSpaceOnUse" />
    <linearGradient
       inkscape:collect="always"
       xlink:href="#linearGradient5090"
       id="linearGradient5088"
       x1="223.35777"
       y1="51.164421"
       x2="198.53903"
       y2="53.733791"
       gradientUnits="userSpaceOnUse" />
  </defs>
  <sodipodi:namedview
     id="base"
     pagecolor="#ffffff"
     bordercolor="#666666"
     borderopacity="1.0"
     inkscape:pageopacity="0"
     inkscape:pageshadow="2"
     inkscape:zoom="1"
     inkscape:cx="256"
     inkscape:cy="256"
     inkscape:document-units="px"
     inkscape:current-layer="g984"
     showgrid="false"
     inkscape:window-width="1280"
     inkscape:window-height="1024"
     inkscape:window-x="0"
     inkscape:window-y="25"
     inkscape:window-maximized="0"
     fit-margin-top="1"
     fit-margin-left="1"
     fit-margin-right="1"
     fit-margin-bottom="1"
     units="px"
     inkscape:snap-global="false" />
  <metadata
     id="metadata4284">
    <rdf:RDF>
      <cc:Work
         rdf:about="">
        <dc:format>image/svg+xml</dc:format>
        <dc:type
           rdf:resource="http://purl.org/dc/dcmitype/StillImage" />
        <dc:title></dc:title>
      </cc:Work>
    </rdf:RDF>
  </metadata>
  <g
     inkscape:label="Capa 1"
     inkscape:groupmode="layer"
     id="layer1"
     transform="translate(-108.46052,-400.55015)">
    <g
       id="g4275"
       transform="matrix(0.62356976,0,0,0.62356976,-167.3672,465.36231)">
      <g
         id="g4266"
         transform="translate(453.60951,-192.4404)">
        <g
           inkscape:label="Livello 1"
           id="layer1-6"
           transform="matrix(1.60367,0,0,1.60367,186.66577,-246.43486)">
          <g
             id="g5013"
             transform="matrix(1.2460193,0,0,1.2471288,-115.92043,-263.10979)">
            <g
               transform="matrix(2.8086959,0,0,2.808696,-388.24597,474.61116)"
               id="g984">
              <g
                 id="g5030">
                <g
                   id="g5038"
                   transform="matrix(1.0435261,0,0,1.0435261,-2.3998702,1.1801651)">
                  <path
                     style="fill:url(#linearGradient4303);fill-opacity:1;fill-rule:evenodd;stroke:url(#linearGradient5007);stroke-width:1px;stroke-linecap:butt;stroke-linejoin:miter;stroke-opacity:1"
                     d="m 507.98403,454.5705 c -9.27792,2.23394 -18.96817,4.6939 -26.84753,9.72502 -1.35566,18.98193 15.79816,31.48177 18.79101,45.02811 0.75668,3.42493 3.89988,6.03475 4.63998,9.48038 l 2.1967,7.47294 15.10696,27.62613 c 9.97325,7.79733 21.58756,58.50053 30.27382,60.75313 13.24438,3.43467 14.32617,-38.19471 11.20636,-45.99658 -8.12497,-22.94961 -21.44354,-38.97442 -33.63691,-56.49954 -11.03507,2.14922 -18.36719,-6.06998 -26.01605,-13.40218 -5.82992,-8.14646 -6.34281,-16.29282 -0.26278,-24.43927 l 8.40923,-14.71616 c 2.50431,-7.68861 -1.94661,-4.28676 -3.86079,-5.03198 z"
                     id="path4272"
                     inkscape:connector-curvature="0"
                     sodipodi:nodetypes="ccscccscccccc"
                     transform="matrix(0.22201396,0,0,0.22201395,96.787569,-114.26721)" />
                  <path
                     style="fill:url(#radialGradient4305);fill-opacity:1;fill-rule:evenodd;stroke:none;stroke-width:1px;stroke-linecap:butt;stroke-linejoin:miter;stroke-opacity:1"
                     d="m 511.07983,507.13143 c 6.30373,3.01248 12.60747,8.4098 18.9112,5.44025 l 10.50622,14.50732 c 0.42863,2.98826 0.39236,5.7091 -1.95116,7.10247 -7.15423,6.11025 -14.30846,3.42132 -21.4627,2.41789 -8.63799,-1.80421 -13.21403,-5.90892 -15.45916,-11.33378 -1.11213,-2.89215 -1.13837,-6.02724 -0.34891,-9.34485 0.54431,-2.22843 2.24405,-4.97832 3.75233,-6.41272 2.41763,-2.26689 3.63455,-3.10498 6.05218,-2.37658 z"
                     id="path4276"
                     inkscape:connector-curvature="0"
                     sodipodi:nodetypes="ccccccccc"
                     transform="matrix(0.22201396,0,0,0.22201395,96.787569,-114.26721)" />
                  <path
                     style="fill:#333333;fill-opacity:1;fill-rule:evenodd;stroke:#333333;stroke-width:0.35454464px;stroke-linecap:butt;stroke-linejoin:miter;stroke-opacity:1"
                     d="m 507.7486,454.67573 1.80656,-0.64009 2.37343,-0.74711 4.48146,-1.22822 3.43723,-0.21672 4.37659,-0.0228 2.62257,0.10313 2.19759,0.31606 2.41022,0.38718 2.09141,0.45822 2.51707,0.77646 2.19799,0.67067 2.46387,0.75898 2.14525,1.00723 2.30479,1.06042 2.55305,1.20172 2.55303,1.20173 2.00336,0.90124 2.5356,1.43212 2.19862,1.2022 2.44645,0.98929 2.42925,1.39688 2.51771,1.30809 2.58814,0.91815 2.65892,0.88273 3.17289,0.93525 3.40325,0.95262 4.4132,0.93373 5.77778,1.09146 6.64579,0.96678 8.22337,1.372 6.9828,1.19641 3.91608,0.11909 3.40283,0.59811 3.4745,1.27143 3.03143,1.18349 2.67748,1.5383 2.18145,1.60971 3.15779,3.11476 1.15446,2.21342 -0.37093,0.93952 -0.7809,-1.0267 -2.05612,-0.56449 -5.77751,-0.91445 -7.77964,-0.75243 -5.98985,-0.63049 -8.36411,-0.59223 -5.13813,0.36069 -4.78394,0.1831 -5.61628,0.55623 -5.49204,0.71539 -7.59979,1.37381 -6.55393,1.77989 c -10.41365,3.62721 -20.02327,9.329 -29.23542,15.32747 -1.70882,1.43392 -3.14609,4.5219 -4.31622,6.43351 -1.0507,1.84675 -2.55382,2.29006 -4.47637,2.55569 -1.5561,0.32365 -3.6272,-0.0161 -5.79282,-0.79574 -2.4075,-1.08064 -4.71211,-2.03089 -6.80828,-3.27459 -2.49926,-1.49176 -4.90344,-3.54981 -6.5992,-5.24461 -3.9694,-3.96767 -5.81036,-7.33913 -8.18716,-12.15724 -3.01825,-9.0365 0.0718,-13.35603 4.61791,-19.95745 l 2.81237,-4.0256 1.41493,-2.12804 1.34321,-2.80128 0.52962,-1.59536 1.00734,-2.14524 0.19267,-1.82538 -0.76367,-1.4343 -0.86919,-0.76079 -0.74473,-0.42432 -1.54218,-0.51207"
                     id="path4278"
                     inkscape:connector-curvature="0"
                     sodipodi:nodetypes="ccccccccccccccccccccccccccccccccccccccccccccccccccccccccccccccccccccccc"
                     transform="matrix(0.22201396,0,0,0.22201395,96.787569,-114.26721)" />
                  <path
                     style="fill:url(#linearGradient4307);fill-opacity:1;fill-rule:evenodd;stroke:url(#linearGradient4309);stroke-width:0.35454464px;stroke-linecap:butt;stroke-linejoin:miter;stroke-opacity:1"
                     d="m 548.72736,479.02459 c -2.58081,4.28705 3.81534,5.15192 9.69971,5.99495 3.34905,-0.0456 6.33381,-0.49981 9.76254,-0.59668 9.53821,-0.90277 16.31576,-1.58606 24.16904,-2.19737 1.67218,-0.13011 3.62175,0.14074 5.4022,-0.0304 l 3.96839,0.0779 -1.17295,-1.3777 -2.03717,-1.04579 -2.74743,-0.79412 -1.8255,-0.37 -7.85065,-0.89412 -7.12425,-0.94807 -6.45059,-0.66544 -5.56419,-0.31216 -5.20979,-0.31244 -4.44723,0.2358 -3.8263,0.85519 -2.33789,0.81796 -1.43433,0.76364 z"
                     id="path4298"
                     inkscape:connector-curvature="0"
                     sodipodi:nodetypes="cccscccccccccccccccc"
                     transform="matrix(0.22201396,0,0,0.22201395,96.787569,-114.26721)" />
                </g>
                <path
                   sodipodi:nodetypes="ccccccscccccccccccccccsccsccccccccccccccccccccccccccccccccccccccccccccccccccccccccccccccccccccccccccc"
                   inkscape:connector-curvature="0"
                   id="path1218"
                   d="m 209.23406,-11.109349 c -0.06,0.0012 -0.11273,0.02757 -0.16426,0.05369 -8.36616,25.055572 -23.55681,56.379225 -42.90972,86.046888 -0.20227,0.36442 -0.43759,0.781496 -0.63811,1.143503 -0.0343,0.06168 -0.0435,0.126459 -0.0443,0.189532 15.60981,-3.000771 21.17093,0.645007 37.53589,9.625273 -3.47027,-7.719211 -5.39903,-19.6159 -4.17534,-32.125715 1.26488,-12.931061 5.1404,-24.312811 14.23535,-30.001576 0.0817,-0.05025 0.27166,-0.07581 0.27166,-0.07581 l 0.48331,0.672833 c -0.62973,1.842505 0.0789,4.059099 1.02185,6.480831 2.66473,6.137791 5.31781,12.325214 7.32159,22.576996 l -0.41697,0.01907 c 2.69615,13.947739 -5.57267,19.055844 -7.02466,33.536596 7.93315,-0.08425 15.23798,-6.449855 23.37544,-9.798731 1.4631,-0.71342 2.9425,-1.29196 4.47293,-1.645757 1.32832,-0.307082 2.69909,-0.434377 4.13177,-0.353789 2.01855,-0.05184 4.10579,0.204765 6.27977,0.903428 -15.49112,-26.486 -29.18091,-53.83937 -43.65204,-87.218834 -0.0354,-0.0092 -0.0665,-0.0295 -0.10432,-0.02843 z m -0.21165,58.890313 c -3.41115,3.419565 -5.07626,12.269388 -5.39215,19.771201 -0.3197,7.592547 0.31126,15.303377 0.45487,19.622734 0.12309,-0.08889 0.21922,-0.21699 0.21482,-0.398016 -0.12341,-4.16194 -0.77484,-11.906805 -0.45804,-19.452156 0.30725,-7.317996 1.92579,-15.952119 5.24367,-19.287897 5.02373,4.271792 6.91624,11.355697 7.338,17.632664 0.15284,2.274241 0.0624,4.650953 -0.20849,7.091603 -0.49159,2.782272 -0.96847,5.434578 -1.38356,7.732849 -0.48219,2.028438 -1.04259,4.080447 -1.67419,6.140791 -0.0563,0.187343 0.0145,0.342518 0.12324,0.461191 0.61814,-2.027924 1.17278,-4.048773 1.64891,-6.046025 0.42677,-2.356002 0.91608,-5.073391 1.42149,-7.925539 0.27852,-2.501969 0.37188,-4.937132 0.21479,-7.268499 -0.43361,-6.434633 -2.37837,-13.695811 -7.54331,-18.074901 z m 25.08754,13.908388 c 0.009,-4.2e-4 0.0167,-4.2e-4 0.0253,0 l 1.30461,0 c 0.17107,6.91e-4 0.29695,0.159291 0.25586,0.32536 l -0.75497,3.016694 1.81001,0 0.79604,-3.14305 c 0.0299,-0.116641 0.13553,-0.198759 0.25585,-0.199004 l 1.28882,0 c 0.17109,6.91e-4 0.29696,0.159291 0.25587,0.32536 l -0.74865,3.016694 2.17644,0 c 0.14507,5.8e-4 0.2616,0.12033 0.26218,0.265344 l 0,1.238266 c -5.8e-4,0.145027 -0.11709,0.264766 -0.26218,0.265344 l -2.62184,0 -0.53069,2.163807 2.22382,0 c 0.14508,5.82e-4 0.26161,0.117159 0.26219,0.262185 l 0,1.231946 c -5.8e-4,0.145026 -0.11709,0.261605 -0.26219,0.262185 l -2.66922,0 -0.7897,3.139891 c -0.03,0.116642 -0.1323,0.198762 -0.25272,0.199007 l -1.29197,0 c -0.17107,-6.95e-4 -0.29379,-0.162448 -0.2527,-0.328519 l 0.74549,-3.010379 -1.81634,0 -0.78023,3.139891 c -0.03,0.116642 -0.13553,0.198762 -0.25586,0.199007 l -1.29513,0 c -0.17109,-6.95e-4 -0.29696,-0.162448 -0.25586,-0.328519 l 0.75496,-3.010379 -2.20172,0 c -0.14508,-5.79e-4 -0.2616,-0.117159 -0.26219,-0.262185 l 0,-1.231946 c 5.9e-4,-0.145026 0.1171,-0.261605 0.26219,-0.262185 l 2.63132,0 0.54649,-2.163807 -2.25859,0 c -0.14508,-5.78e-4 -0.2616,-0.120329 -0.26218,-0.265344 l 0,-1.238266 c 5.8e-4,-0.145025 0.1171,-0.264764 0.26218,-0.265344 l 2.70081,0 0.77392,-3.14305 c 0.026,-0.108943 0.1192,-0.187443 0.2306,-0.199004 z m -50.58888,0.110561 2.35965,0 0.33168,0 -0.27166,8.996386 -2.13222,0 z m 50.99004,5.000452 -0.54647,2.163809 1.81949,0 0.53069,-2.163809 z m -50.89211,4.997291 2.49232,0 0,1.930054 0,0.277978 -2.49232,0 z"
                   style="color:#000000;font-style:normal;font-variant:normal;font-weight:normal;font-stretch:normal;font-size:medium;line-height:normal;font-family:sans-serif;text-indent:0;text-align:start;text-decoration:none;text-decoration-line:none;text-decoration-style:solid;text-decoration-color:#000000;letter-spacing:normal;word-spacing:normal;text-transform:none;direction:ltr;writing-mode:lr-tb;baseline-shift:baseline;text-anchor:start;white-space:normal;clip-rule:nonzero;display:inline;overflow:visible;visibility:visible;opacity:1;isolation:auto;mix-blend-mode:normal;color-interpolation:sRGB;color-interpolation-filters:linearRGB;solid-color:#000000;solid-opacity:1;fill:url(#linearGradient5080);fill-opacity:1;fill-rule:evenodd;stroke:#767676;stroke-width:0.32346553;stroke-linecap:round;stroke-linejoin:round;stroke-miterlimit:7;stroke-dasharray:none;stroke-dashoffset:0;stroke-opacity:1;color-rendering:auto;image-rendering:auto;shape-rendering:auto;text-rendering:auto;enable-background:accumulate" />
                <path
                   sodipodi:nodetypes="ccccsccscccccccsscczcccccccccccsccccc"
                   inkscape:connector-curvature="0"
                   d="m 209.21163,-10.952314 c -0.15673,0.0041 -0.29657,0.09963 -0.35687,0.244367 -11.11855,30.582487 -29.35574,61.531571 -43.29206,86.619063 -0.15284,0.274636 0.0587,0.60957 0.37237,0.589585 13.81491,-0.964398 18.88627,1.023135 22.7069,3.537529 3.77062,2.481476 6.45102,5.59601 14.78237,6.819056 0.31072,0.336299 0.87232,0.10862 0.86113,-0.349096 -0.12324,-4.143751 -0.77404,-11.854824 -0.45772,-19.367201 0.30681,-7.286032 1.92322,-15.8819 5.23625,-19.203103 5.01637,4.253127 6.90628,11.305035 7.32741,17.554581 0.15251,2.264306 0.0612,4.629545 -0.20946,7.059544 -0.49087,2.770109 -0.96639,5.411325 -1.38088,7.699558 -0.48145,2.019584 -1.0411,4.061763 -1.67179,6.1131 -0.14297,0.475215 0.42262,0.843175 0.79906,0.519769 0.0338,0.01132 0.0691,0.01768 0.1048,0.01949 8.16328,0.299368 14.10999,-4.054983 19.82489,-7.556043 2.85748,-1.750528 5.65726,-3.289899 8.64989,-3.979719 2.99264,-0.689825 6.17794,-0.545158 9.88336,1.1016 0.34897,0.159339 0.69872,-0.219551 0.51202,-0.55468 -6.84435,-8.547478 -1.78766,-3.370422 -11.32202,-18.935623 -9.53436,-15.565201 -24.0512,-49.0533835 -31.99332,-67.691281 -0.0643,-0.149743 -0.21337,-0.245076 -0.37626,-0.24049 z m 0.0194,1.4002709 c 14.1076,32.5686811 27.43932,59.2215311 42.53569,85.0326061 -14.53376,-4.670786 -25.09341,10.453424 -37.15958,10.581557 8.57016,-10.1163 12.57178,-19.78459 9.95319,-33.331135 l 0,-0.0041 c -1.94613,-9.956895 -7.24874,-15.221268 -9.83682,-21.182511 -0.91587,-2.352072 -1.10809,-5.619139 -0.49648,-7.408645 0.10852,-0.321477 -0.13004,-0.654802 -0.46935,-0.655528 -0.093,-6.44e-4 0,0 -0.26376,0.0737 -9.63059,2.690813 -13.0923,17.696079 -14.32079,30.25519 -1.18847,12.149984 0.46963,24.643148 3.84009,32.140323 -15.9654,-8.760845 -21.11955,-13.249623 -36.43814,-10.255628 19.29863,-29.339014 31.57376,-60.482055 42.65595,-85.2458491 z"
                   style="color:#000000;font-style:normal;font-variant:normal;font-weight:normal;font-stretch:normal;font-size:medium;line-height:normal;font-family:sans-serif;text-indent:0;text-align:start;text-decoration:none;text-decoration-line:none;text-decoration-style:solid;text-decoration-color:#000000;letter-spacing:normal;word-spacing:normal;text-transform:none;direction:ltr;writing-mode:lr-tb;baseline-shift:baseline;text-anchor:start;white-space:normal;clip-rule:nonzero;display:inline;overflow:visible;visibility:visible;opacity:1;isolation:auto;mix-blend-mode:normal;color-interpolation:sRGB;color-interpolation-filters:linearRGB;solid-color:#000000;solid-opacity:1;fill:url(#linearGradient5088);fill-opacity:1;fill-rule:evenodd;stroke:#000000;stroke-width:0.32346553;stroke-linecap:round;stroke-linejoin:round;stroke-miterlimit:7;stroke-dasharray:none;stroke-dashoffset:0;stroke-opacity:1;color-rendering:auto;image-rendering:auto;shape-rendering:auto;text-rendering:auto;enable-background:accumulate"
                   id="path1220" />
              </g>
              <g
                 id="g4976">
                <path
                   style="color:#000000;font-style:normal;font-variant:normal;font-weight:normal;font-stretch:normal;font-size:medium;line-height:normal;font-family:sans-serif;text-indent:0;text-align:start;text-decoration:none;text-decoration-line:none;text-decoration-style:solid;text-decoration-color:#000000;letter-spacing:normal;word-spacing:normal;text-transform:none;direction:ltr;writing-mode:lr-tb;baseline-shift:baseline;text-anchor:start;white-space:normal;clip-rule:nonzero;display:inline;overflow:visible;visibility:visible;opacity:1;isolation:auto;mix-blend-mode:normal;color-interpolation:sRGB;color-interpolation-filters:linearRGB;solid-color:#000000;solid-opacity:1;fill:#2f2f2f;fill-opacity:0.59471364;fill-rule:nonzero;stroke:#000000;stroke-width:0.37061656;stroke-linecap:butt;stroke-linejoin:bevel;stroke-miterlimit:4;stroke-dasharray:none;stroke-dashoffset:0;stroke-opacity:1;paint-order:markers fill stroke;color-rendering:auto;image-rendering:auto;shape-rendering:auto;text-rendering:auto;enable-background:accumulate"
                   d="m 209.23394,-33.816728 c -40.1204,0 -72.66148,32.5410906 -72.66148,72.661486 0,40.120394 32.54108,72.661502 72.66148,72.661502 40.12041,0 72.66151,-32.541108 72.66151,-72.661502 0,-40.1203954 -32.5411,-72.661486 -72.66151,-72.661486 z m 0,1.580369 c 39.26631,0 71.08114,31.81481645 71.08114,71.081117 0,39.266297 -31.81483,71.081132 -71.08114,71.081132 -39.26631,0 -71.08111,-31.814835 -71.08111,-71.081132 0,-39.26630055 31.8148,-71.081116 71.08111,-71.081117 z"
                   id="path1238"
                   inkscape:connector-curvature="0" />
                <path
                   style="color:#000000;font-style:normal;font-variant:normal;font-weight:normal;font-stretch:normal;font-size:medium;line-height:normal;font-family:sans-serif;text-indent:0;text-align:start;text-decoration:none;text-decoration-line:none;text-decoration-style:solid;text-decoration-color:#000000;letter-spacing:normal;word-spacing:normal;text-transform:none;direction:ltr;writing-mode:lr-tb;baseline-shift:baseline;text-anchor:start;white-space:normal;clip-rule:nonzero;display:inline;overflow:visible;visibility:visible;opacity:1;isolation:auto;mix-blend-mode:normal;color-interpolation:sRGB;color-interpolation-filters:linearRGB;solid-color:#000000;solid-opacity:1;fill:#2f2f2f;fill-opacity:0.59471364;fill-rule:nonzero;stroke:#000000;stroke-width:0.37061656;stroke-linecap:butt;stroke-linejoin:bevel;stroke-miterlimit:4;stroke-dasharray:none;stroke-dashoffset:0;stroke-opacity:1;paint-order:markers fill stroke;color-rendering:auto;image-rendering:auto;shape-rendering:auto;text-rendering:auto;enable-background:accumulate"
                   d="m 209.23395,-21.96143 c -33.57291,0 -60.80619,27.2332834 -60.80619,60.806189 0,33.572943 27.23329,60.806194 60.80619,60.806194 33.57294,0 60.80619,-27.233256 60.80619,-60.806194 0,-33.5729056 -27.23325,-60.806189 -60.80619,-60.806189 z m 0,1.576656 c 32.72084,0 59.22949,26.5087157 59.22949,59.229533 0,32.720845 -26.50865,59.229506 -59.22949,59.229506 -32.72081,0 -59.22954,-26.508656 -59.22954,-59.229506 0,-32.7208194 26.50873,-59.229533 59.22954,-59.229533 z"
                   id="path1240"
                   inkscape:connector-curvature="0" />
                <path
                   inkscape:connector-curvature="0"
                   d="m 210.93004,104.56208 c 0,1.05561 -0.85573,1.91134 -1.91134,1.91134 -1.05559,0 -1.91132,-0.85573 -1.91132,-1.91134 0,-1.0556 0.85573,-1.91133 1.91132,-1.91133 1.05561,0 1.91134,0.85573 1.91134,1.91133 z m 0,-131.882057 c 0,1.055597 -0.85573,1.911324 -1.91134,1.911324 -1.05559,0 -1.91132,-0.855733 -1.91132,-1.911332 0,-1.055598 0.85573,-1.911324 1.91132,-1.911325 1.05561,1e-6 1.91134,0.855733 1.91134,1.911333 z m 65.94102,66.350591 c 0,1.0556 -0.85573,1.911335 -1.91134,1.911335 -1.05559,-4e-6 -1.91131,-0.855738 -1.91131,-1.911335 0,-1.0556 0.85572,-1.911334 1.91133,-1.911334 1.05559,4e-6 1.91132,0.855736 1.91132,1.911334 z m -131.33595,0 c 0,1.055597 -0.85574,1.911326 -1.91134,1.911326 -1.05561,0 -1.91135,-0.855733 -1.91135,-1.911332 3e-5,-1.055599 0.85576,-1.911328 1.91135,-1.911328 1.0556,0 1.91134,0.855734 1.91134,1.911334 z M 257.21163,-7.7970576 c 0,1.0555992 -0.85573,1.9113328 -1.91135,1.9113328 -1.05559,0 -1.91132,-0.8557336 -1.91132,-1.9113328 0,-1.0555994 0.85573,-1.9113336 1.91132,-1.9113336 1.05562,0 1.91135,0.8557342 1.91135,1.9113336 z M 164.23888,85.175685 c -2e-5,1.055599 -0.85574,1.911331 -1.91133,1.911331 -1.05562,0 -1.91134,-0.855732 -1.91134,-1.911331 0,-1.055602 0.85572,-1.911335 1.91134,-1.911335 1.05559,0 1.91133,0.855733 1.91133,1.911335 z m 93.47535,0.09298 c 1e-5,1.055606 -0.85573,1.911344 -1.91134,1.911342 -1.0556,-10e-7 -1.91133,-0.85574 -1.91131,-1.911342 0,-1.055601 0.85572,-1.911333 1.91131,-1.911333 1.05561,0 1.91134,0.855732 1.91134,1.911333 z M 164.46844,-7.9770933 c -2e-5,1.0556013 -0.85576,1.9113304 -1.91136,1.9113271 -1.05559,-2.4e-6 -1.91132,-0.8557326 -1.91132,-1.9113314 0,-1.0555993 0.85573,-1.9113346 1.91132,-1.9113357 1.0556,-3.1e-6 1.91136,0.8557343 1.91136,1.91134 z M 209.23395,-29.99244 c -37.98076,-5e-6 -68.83719,30.85642117 -68.83719,68.837192 0,37.980757 30.85643,68.837198 68.83718,68.837198 37.9808,0 68.8372,-30.856441 68.83721,-68.837198 0,-37.98077083 -30.85641,-68.837204 -68.8372,-68.837192 z m 0,6.218716 c 34.61996,0 62.61845,27.9985532 62.61845,62.618485 0,34.619919 -27.99849,62.618489 -62.61845,62.618499 -34.61993,0 -62.61848,-27.99858 -62.61848,-62.618499 0,-34.6199318 27.99855,-62.618477 62.61848,-62.618485 z"
                   style="opacity:1;fill:url(#linearGradient5058);fill-opacity:1;stroke:#000000;stroke-width:0.414995;stroke-linecap:round;stroke-linejoin:bevel;stroke-miterlimit:4;stroke-dasharray:none;stroke-dashoffset:0;stroke-opacity:1;paint-order:markers fill stroke"
                   id="path1242"
                   sodipodi:nodetypes="ssssscscscscscscscscsssssssssscscscscscsssssssssss" />
              </g>
            </g>
          </g>
        </g>
      </g>
    </g>
  </g>
</svg>
