<?xml version="1.0" encoding="UTF-8" standalone="no"?>
<svg
   xmlns:dc="http://purl.org/dc/elements/1.1/"
   xmlns:cc="http://creativecommons.org/ns#"
   xmlns:rdf="http://www.w3.org/1999/02/22-rdf-syntax-ns#"
   xmlns:svg="http://www.w3.org/2000/svg"
   xmlns="http://www.w3.org/2000/svg"
   xmlns:sodipodi="http://sodipodi.sourceforge.net/DTD/sodipodi-0.dtd"
   xmlns:inkscape="http://www.inkscape.org/namespaces/inkscape"
   version="1"
   width="512"
   height="256"
   id="svg8"
   sodipodi:docname="archmerged-text-3.svg"
   inkscape:version="0.91 r13725"
   inkscape:export-filename="/home/erik/Desktop/archmerged-text-2-liner.png"
   inkscape:export-xdpi="96"
   inkscape:export-ydpi="96">
  <metadata
     id="metadata14">
    <rdf:RDF>
      <cc:Work
         rdf:about="">
        <dc:format>image/svg+xml</dc:format>
        <dc:type
           rdf:resource="http://purl.org/dc/dcmitype/StillImage" />
        <dc:title />
      </cc:Work>
    </rdf:RDF>
  </metadata>
  <defs
     id="defs12" />
  <sodipodi:namedview
     pagecolor="#ffffff"
     bordercolor="#666666"
     borderopacity="1"
     objecttolerance="10"
     gridtolerance="10"
     guidetolerance="10"
     inkscape:pageopacity="0"
     inkscape:pageshadow="2"
     inkscape:window-width="1280"
     inkscape:window-height="947"
     id="namedview10"
     showgrid="false"
     showguides="true"
     inkscape:guide-bbox="true"
     inkscape:zoom="0.95085265"
     inkscape:cx="279.26284"
     inkscape:cy="163.52065"
     inkscape:window-x="0"
     inkscape:window-y="17"
     inkscape:window-maximized="1"
     inkscape:current-layer="svg8"
     fit-margin-top="0"
     fit-margin-left="0"
     fit-margin-right="0"
     fit-margin-bottom="0"
     inkscape:showpageshadow="false">
    <sodipodi:guide
       position="316.79724,63.954373"
       orientation="0,1"
       id="guide831"
       inkscape:locked="false" />
    <sodipodi:guide
       position="46.274257,530.05058"
       orientation="-0.70710678,0.70710678"
       id="guide903"
       inkscape:locked="false" />
    <sodipodi:guide
       position="-76.773199,184.04534"
       orientation="1,0"
       id="guide4144" />
  </sodipodi:namedview>
  <g
     aria-label="D"
     style="font-style:normal;font-variant:normal;font-weight:normal;font-stretch:normal;font-size:179.87194824px;line-height:1.25;font-family:FontAwesome;-inkscape-font-specification:FontAwesome;letter-spacing:0px;word-spacing:0px;opacity:1;fill:#617886;fill-opacity:1;stroke:none;stroke-width:0.20873584;stroke-miterlimit:4;stroke-dasharray:none;stroke-opacity:0.79352226"
     id="text819"
     transform="matrix(0.96617294,0,0,0.95019137,-107.98034,194.14957)">
    <path
       style="opacity:1;fill:#617886;fill-opacity:1;stroke:none;stroke-width:10;stroke-linejoin:bevel;stroke-miterlimit:4;stroke-dasharray:none;stroke-opacity:1"
       d="m 10,65.701172 0,8.320312 0,3.142578 c 6.08959,0.882872 18.220164,3.038077 25.253906,7.869141 C 30.284747,82.493563 17.382177,83.134772 10,84.271484 l 0,6.09375 c 6.219251,1.024598 18.094576,4.001779 24.945312,8.707032 C 29.962695,96.525764 17.345944,97.514321 10,98.6875 l 0,6.55273 c 6.089574,0.89868 17.744838,3.05537 24.710938,7.83985 C 29.736463,110.53772 17.312073,111.84559 10,113.05078 l 0,77.24805 168.32812,0 c 24.43888,0 42.42625,-5.03347 53.9668,-15.10352 11.54058,-10.07006 17.3125,-25.84494 17.3125,-47.32031 0,-21.36409 -5.74257,-37.053941 -17.22656,-47.068359 -11.484,-10.070053 -29.50073,-15.105469 -54.05274,-15.105469 l -137.60937,0 z m 48.595703,4.314453 c 0.01797,-1.62e-4 0.03577,0.0086 0.05664,0.02539 0.130858,0.105005 0.76957,1.545292 2.208984,4.992187 2.396921,5.739802 3.836846,9.025296 8.72461,19.888672 1.560949,3.652023 3.768512,8.336086 5.021484,10.722656 0.502072,0.95594 2.041471,4.01491 2.613281,5.19336 0.216541,0.44626 0.704768,1.39289 0.986328,1.96094 l -7.21875,1.2207 -0.05078,32.93164 8.666016,-1.64258 0.01563,-18.66992 c 9.66e-4,-1.57279 1.296307,-3.29221 3.335937,-4.48242 -1.123648,-2.17752 -1.929981,-3.76617 -2.953125,-5.78906 -0.368291,0.42755 -0.708011,0.83427 -1.117187,1.16406 -0.01584,-2.11883 -0.0088,-2.66669 -0.0059,-3.39063 0.360005,0.71978 0.7113,1.41053 1.123047,2.22461 1.40325,-1.62881 3.352654,-3.63819 12.314453,-3.61718 -0.492989,1.11204 -2.514763,6.00264 -3.589844,7.91601 -2.2007,-0.0226 -4.205453,0.57833 -5.771484,1.49219 1.240296,2.40359 2.538107,4.92594 3.5,6.73437 0.949497,1.78519 1.624128,3.03153 2.205078,4.07813 -0.13025,-0.92974 -0.20661,-1.90739 -0.21289,-2.94336 0.150037,-13.77574 9.519392,-16.96083 17.873039,-16.82422 8.91879,0.0396 13.35765,5.10584 13.44142,5.14453 l -5.32618,6.06446 c 0,0 -2.81556,-3.10261 -7.69531,-3.10157 -5.63627,0.24295 -9.835811,3.25226 -9.769532,8.80469 0.06357,5.5519 4.559172,9.53106 9.730462,9.48242 5.16979,-0.0474 7.83594,-3.77734 7.83594,-3.77734 0,0 4.2651,4.15567 5.40431,5.12695 -0.22798,0.14754 -4.02638,6.11701 -13.57227,6.01953 -4.1874,-0.0433 -8.364664,-1.12978 -11.638676,-3.50195 2.313404,4.02641 4.611926,7.94285 6.957036,11.85938 l -5.789067,0 c -1.997323,-1.09618 -4.383186,-2.25789 -6.632813,-3.2168 -5.679029,-2.42076 -12.256904,-4.28005 -18.15625,-5.12891 -0.05623,-0.008 -0.114668,-0.0149 -0.171875,-0.0234 l 0,-0.002 c -2.165668,-9.95662 -6.948827,-16.36401 -12.224609,-16.3789 -5.343652,0.006 -10.176974,6.56959 -12.306641,16.71289 -3.727717,0.62945 -7.418687,1.53924 -11.195312,2.75586 -4.133299,1.33153 -8.449992,3.13131 -12.701172,5.28125 l -6.753907,0 c 0.35303,-0.57716 0.773663,-1.27349 1.023438,-1.67188 1.387927,-2.21382 3.021783,-5.07049 5.976562,-10.45898 2.582629,-4.70979 5.254256,-9.69685 7.939453,-14.81836 4.186699,1.19953 11.376889,3.60152 13.533204,6.46875 -2.676048,-4.72397 -8.342371,-8.92903 -11.238282,-10.875 0.539106,-1.04068 1.077434,-2.08583 1.615235,-3.13282 4.19577,1.20569 11.327472,3.59877 13.472656,6.45118 -2.663536,-4.70184 -8.291135,-8.89169 -11.199219,-10.84961 0.500468,-0.95998 0.931827,-1.77843 1.259766,-2.39063 0.122356,-0.22839 0.254195,-0.48537 0.394531,-0.75781 4.200022,1.2087 11.299844,3.59835 13.439453,6.44336 -2.681671,-4.73386 -8.3636,-8.94813 -11.253906,-10.88867 0.404981,-0.84378 0.864282,-1.80561 1.402344,-2.93555 6.282269,-13.192946 10.540943,-22.523562 14.552734,-31.882813 0.974067,-2.272413 1.726412,-3.883455 1.861328,-3.980469 0.02367,-0.01701 0.04258,-0.02539 0.06055,-0.02539 l 0,-0.002 z m 36.134766,73.447265 c -0.411764,-0.71665 -0.815218,-1.4011 -1.230469,-2.12891 -1.482631,-2.59854 -2.454883,-4.27173 -3.205078,-5.52734 -0.573086,-0.95918 -1.058511,-1.79981 -1.634766,-2.83789 0.677761,4.83732 2.966646,8.24541 6.070313,10.49414 z m 68.361951,-63.908202 17.86656,0 c 17.48057,0 30.26382,3.894599 38.35352,11.683593 8.1463,7.733361 12.21875,19.946029 12.21875,36.636719 0,16.80197 -4.07244,29.09968 -12.21875,36.88867 -8.08969,7.78899 -20.87295,11.68164 -38.35352,11.68164 l -17.86656,0 z m -32.41273,22.941402 0.0234,11.94922 c -1.68207,1.33155 -3.40599,3.12176 -5.45703,5.71289 2.21856,-1.83517 4.47594,-3.27051 6.45118,-4.77148 1.15461,-0.67254 3.42415,-1.58572 7.52148,-1.5918 8.62085,0.0359 13.98227,5.07041 13.93164,7.45508 l -0.0273,24.77734 -7.94727,1.38672 -0.14453,-23.36914 c 0.0138,-0.40301 -1.09174,-3.59368 -6.03516,-3.64453 -5.16977,-0.10322 -8.2663,3.14697 -8.2832,5.26367 l -0.0898,20.18555 -8.06055,1.43359 -0.0606,-42.89648 z m 9.57031,0.6875 5.76172,0 0,0.84571 -2.4043,0 0,6.30078 -0.96289,0 0,-6.30078 -2.39453,0 z m 6.76172,0 1.44531,0 1.72266,5.0625 c 0.15891,0.47142 0.27281,0.82267 0.3457,1.05664 0.0825,-0.25984 0.21354,-0.6432 0.38867,-1.14648 l 1.73828,-4.97266 1.29297,0 0,7.14649 -0.92578,0 0,-5.97852 -2.11133,5.98047 -0.86914,0 -2.09961,-6.08398 0,6.08398 -0.92773,0 z m -68.134767,9.50586 c 0,0 0.0029,1.13746 0.002,1.44922 -0.216112,-0.43204 -0.480165,-0.95111 -0.671875,-1.33789 L 78.877,112.68945 Z m -46.632812,45.99219 c 1.619305,0 2.994845,0.36025 4.123047,1.08203 1.141475,0.72179 1.983146,1.77082 2.527343,3.14453 0.915826,-1.44356 2.009005,-2.50845 3.283203,-3.19531 1.274209,-0.68686 2.774512,-1.03125 4.5,-1.03125 2.322767,0 4.11602,0.71847 5.376954,2.15039 1.260932,1.42027 1.890625,3.44517 1.890624,6.07617 l 0,11.80469 -3.68164,0 0,-11.70117 c 0,-1.87431 -0.378204,-3.26384 -1.134766,-4.17188 -0.756552,-0.90804 -1.911903,-1.36328 -3.464844,-1.36328 -1.898027,0 -3.398339,0.55421 -4.5,1.66016 -1.101649,1.10595 -1.65039,2.61225 -1.65039,4.52148 l 0,11.05469 -3.685547,0 0,-11.70117 c 0,-1.88595 -0.378214,-3.27547 -1.134766,-4.17188 -0.756561,-0.90804 -1.924426,-1.36328 -3.503906,-1.36328 -1.871496,0 -3.357335,0.55624 -4.458984,1.67383 -1.10166,1.10596 -1.652344,2.61022 -1.652344,4.50781 l 0,11.05469 -3.683594,0 0,-19.56055 3.683594,0 0,3.04102 c 0.836203,-1.19908 1.837843,-2.08582 3.005859,-2.65625 1.168026,-0.57044 2.554136,-0.85547 4.160157,-0.85547 z m 38.285156,0 c 2.999687,0 5.370621,0.8511 7.109375,2.55078 1.752039,1.68803 4.909267,5.04344 2.628906,6.89844 l 0,1.57031 -16.84375,0 c 0.159283,2.21191 0.915691,3.89833 2.269531,5.0625 1.367116,1.15252 3.264411,1.73048 5.69336,1.73047 1.406931,0 2.768007,-0.1524 4.082031,-0.45508 1.327299,-0.30269 2.640667,-0.75791 3.941406,-1.36328 l 0,3.04297 c -1.314024,0.48895 -2.662588,0.85717 -4.042968,1.11328 -1.380402,0.25612 -2.779022,0.38671 -4.199219,0.38672 -3.557159,0 -6.377086,-0.90852 -8.460938,-2.72461 -2.070586,-1.81609 -3.105468,-4.27247 -3.105469,-7.36914 0,-3.20145 0.980919,-5.73704 2.945313,-7.61133 1.977669,-1.88595 4.637637,-2.83203 7.982422,-2.83203 z m 26.71875,0 c 0.25219,0 0.530675,0.0198 0.835937,0.0547 0.305282,0.0233 0.643977,0.0629 1.015625,0.12109 l 0.02148,3.30078 c -0.411455,-0.20954 -0.862429,-0.36192 -1.353516,-0.45508 -0.47783,-0.10475 -1.009747,-0.15624 -1.59375,-0.15624 -2.070586,0 -3.664381,0.59184 -4.779297,1.77929 -1.101659,1.17581 -1.65039,2.87012 -1.65039,5.08203 l 0,10.30469 -3.683594,0 0,-19.55859 3.683594,0 0,3.03906 c 0.769846,-1.18745 1.771486,-2.06629 3.005859,-2.63672 1.234383,-0.58208 2.732733,-0.875 4.498047,-0.875 z m 12.564453,0 c 1.64585,0 3.05894,0.28503 4.24023,0.85547 1.18129,0.57043 2.14971,1.43146 2.90625,2.58398 l 0,-2.96875 3.66407,0 0,17.13086 c 0,3.32951 -0.84364,5.80564 -2.5293,7.42383 -1.68566,1.62982 -4.26662,2.44336 -7.74414,2.44336 -1.28748,0 -2.50307,-0.087 -3.64453,-0.26172 -1.14148,-0.16299 -2.2491,-0.42028 -3.32422,-0.76953 l 0,-3.12305 c 1.07512,0.51223 2.13698,0.89224 3.18555,1.13672 1.04855,0.24448 2.11668,0.36328 3.20507,0.36328 2.40239,0 4.20192,-0.55225 5.39649,-1.6582 1.19456,-1.09432 1.79101,-2.75106 1.79101,-4.97461 l 0,-1.59375 c -0.75654,1.15252 -1.72496,2.01745 -2.90625,2.58789 -1.18129,0.57044 -2.59438,0.85547 -4.24023,0.85547 -2.73423,0 -4.93893,-0.91444 -6.61133,-2.74219 -1.6724,-1.82773 -2.50781,-4.25239 -2.50781,-7.26758 0,-3.02682 0.83541,-5.44961 2.50781,-7.27734 1.6724,-1.82773 3.8771,-2.74414 6.61133,-2.74414 z m 27.69141,0 c 2.99967,0 5.37257,0.8511 7.11132,2.55078 1.75204,1.68803 4.90732,5.04344 2.62696,6.89844 l 0,1.57031 -16.84375,0 c 0.15927,2.21191 0.9157,3.89833 2.26953,5.0625 1.3671,1.15252 3.26441,1.73048 5.69336,1.73047 1.40693,0 2.76801,-0.1524 4.08203,-0.45508 1.3273,-0.30269 2.64067,-0.75791 3.94141,-1.36328 l 0,3.04297 c -1.31401,0.48895 -2.66064,0.85717 -4.04102,1.11328 -1.38039,0.25612 -2.78097,0.38671 -4.20117,0.38672 -3.55715,0 -6.37708,-0.90852 -8.46094,-2.72461 -2.07058,-1.81609 -3.10742,-4.27247 -3.10742,-7.36914 0,-3.20145 0.98482,-5.73704 2.94922,-7.61133 1.97767,-1.88595 4.63568,-2.83203 7.98047,-2.83203 z m -26.79688,2.68945 c -1.96439,0 -3.49599,0.6374 -4.59765,1.91797 -1.08838,1.28059 -1.63282,3.08576 -1.63282,5.41406 0,2.31671 0.54444,4.11786 1.63282,5.39844 1.10166,1.28058 2.63326,1.91797 4.59765,1.91797 1.97768,0 3.51124,-0.63739 4.59961,-1.91797 1.10166,-1.28058 1.65234,-3.08173 1.65234,-5.39844 0,-2.3283 -0.55068,-4.13347 -1.65234,-5.41406 -1.08837,-1.28057 -2.62193,-1.91797 -4.59961,-1.91797 z m -40.134764,0.0352 c -2.044026,0 -3.683587,0.50475 -4.917969,1.51758 -1.221117,1.01282 -1.927457,2.43796 -2.113281,4.27734 l 13.060546,-0.0156 c -0.02657,-1.7579 -0.587784,-3.16124 -1.689453,-4.20899 -1.088384,-1.04774 -2.534713,-1.57031 -4.339843,-1.57031 z m 66.972654,0 c -2.04403,0 -3.68162,0.50475 -4.91601,1.51758 -1.22111,1.01282 -1.92551,2.43796 -2.11133,4.27734 l 13.06054,-0.0156 c -0.0266,-1.7579 -0.5917,-3.16124 -1.69335,-4.20899 -1.0884,-1.04774 -2.53473,-1.57031 -4.33985,-1.57031 z"
       transform="matrix(1.0350114,0,0,1.0524196,109.58386,-204.3268)"
       id="rect830"
       inkscape:connector-curvature="0"
       sodipodi:nodetypes="ccccccccccccssscsccccsccsccccccccccccccccccccccccccccscccccscccsccccccccccsscccccsscccscscscccccccccccccccccccccccccccccccccccccccccccccccsccsscsccsssssccscscscccccssscccccscccsscscscccccscsccccccccsscccscscccsscscssssssscccccscccsscscsscscscscscccccccccccccc" />
  </g>
  <g
     aria-label="merge"
     transform="matrix(1.0589004,0,0,0.94437588,-7.3618138,45.41472)"
     style="font-style:normal;font-variant:normal;font-weight:normal;font-stretch:normal;font-size:39.8546257px;line-height:1.25;font-family:'Final Frontier';-inkscape-font-specification:'Final Frontier';letter-spacing:0px;word-spacing:0px;fill:#ffffff;fill-opacity:1;stroke:none;stroke-width:0.20757616"
     id="text823" />
  <g
     id="g922"
     transform="translate(-94.288582,-158.2994)" />
  <g
     transform="matrix(0.9669504,0,0,0.95174754,239.08591,214.74974)"
     id="g958"
     style="font-style:normal;font-variant:normal;font-weight:normal;font-stretch:normal;font-size:179.87194824px;line-height:1.25;font-family:FontAwesome;-inkscape-font-specification:FontAwesome;letter-spacing:0px;word-spacing:0px;opacity:1;fill:#ffffff;fill-opacity:0.80971656;stroke:#4583a8;stroke-width:0.20873584;stroke-miterlimit:4;stroke-dasharray:none;stroke-opacity:0.79352226"
     aria-label="D" />
  <text
     xml:space="preserve"
     style="font-style:normal;font-weight:normal;font-size:40px;line-height:1.25;font-family:sans-serif;letter-spacing:0px;word-spacing:0px;fill:#000000;fill-opacity:1;stroke:none"
     x="56.517818"
     y="236.66496"
     id="text965"><tspan
       sodipodi:role="line"
       id="tspan963"
       x="56.517818"
       y="272.0556" /></text>
  <path
     style="opacity:1;fill:#617886;fill-opacity:1;stroke:none;stroke-width:0.22669119;stroke-linejoin:bevel;stroke-miterlimit:4;stroke-dasharray:none;stroke-opacity:0.79352226"
     d="m 264.03483,52.505251 0,137.576169 238.71289,0 0,-137.576169 -238.71289,0 z m 54.25391,10.625 c 0.0179,-2e-4 0.0357,0.0088 0.0566,0.02539 0.13096,0.10517 0.77036,1.54746 2.21094,5 2.39885,5.7492 3.84073,9.04078 8.73242,19.92187 1.5622,3.6581 3.77141,8.34974 5.02539,10.74024 0.50248,0.9575 2.04296,4.020869 2.61523,5.201169 0.21689,0.4474 0.70661,1.39799 0.98829,1.9668 l 0.66992,-0.11329 c 0,0 0.003,1.14263 0.002,1.45313 0.36056,0.7214 0.71059,1.41622 1.12305,2.23242 1.40444,-1.6317 3.35327,-3.64795 12.32422,-3.62695 -0.49338,1.1139 -2.51586,6.01319 -3.5918,7.92969 -2.20247,-0.0226 -4.21005,0.57874 -5.77734,1.49414 1.2413,2.4075 2.54124,4.93469 3.5039,6.74609 0.95028,1.7881 1.62561,3.03764 2.20703,4.08594 -0.13039,-0.9313 -0.20689,-1.91152 -0.21289,-2.94922 0.15016,-13.7983 9.52634,-16.98836 17.88672,-16.85156 8.92597,0.0397 13.36737,5.11334 13.45117,5.15234 l -5.33008,6.07422 c 0,0 -2.8175,-3.10647 -7.70117,-3.10547 -5.6408,0.2434 -9.84364,3.25686 -9.77734,8.81836 0.0636,5.561 4.5628,9.54705 9.73828,9.49805 5.17392,-0.0475 7.8418,-3.78321 7.8418,-3.78321 0,0 4.26809,4.16392 5.4082,5.13672 -0.22816,0.1478 -4.02845,6.12535 -13.58203,6.02734 -4.19077,-0.0434 -8.36984,-1.12975 -11.64649,-3.50585 2.31527,4.033 4.61396,7.95395 6.96094,11.87695 l -5.79492,0 c -1.99893,-1.098 -4.38528,-2.26216 -6.63672,-3.22266 -5.6836,-2.4247 -12.26778,-4.28456 -18.17187,-5.13476 -0.0563,-0.007 -0.11458,-0.0154 -0.17188,-0.0254 -2.16721,-9.974 -6.95206,-16.39321 -12.23242,-16.40821 -5.34795,0.006 -10.18698,6.58034 -12.31836,16.74024 -3.73072,0.6305 -7.42346,1.54312 -11.20313,2.76172 -4.13662,1.3337 -8.45633,3.13556 -12.71093,5.28906 l -6.75977,0 c 0.35332,-0.5781 0.77346,-1.27473 1.02344,-1.67383 1.38905,-2.2174 3.02331,-5.07721 5.98047,-10.47461 2.5847,-4.7175 5.25795,-9.7159 7.94531,-14.8457 4.19007,1.2014 11.38687,3.60857 13.54492,6.48047 -2.6782,-4.7316 -8.3498,-8.94338 -11.24804,-10.89258 0.53953,-1.0425 1.07895,-2.08997 1.61718,-3.13867 4.19915,1.2075 11.33552,3.60383 13.48242,6.46093 -2.66567,-4.7095 -8.29465,-8.90608 -11.20507,-10.86718 0.50087,-0.9615 0.93156,-1.78133 1.25976,-2.39453 0.12246,-0.2288 0.25408,-0.48492 0.39453,-0.75782 4.2034,1.2106 11.30984,3.60343 13.45118,6.45313 -2.68383,-4.7417 -8.37104,-8.9605 -11.26368,-10.9043 0.40531,-0.8452 0.86385,-1.80961 1.40235,-2.941409 6.28732,-13.21459 10.54943,-22.56095 14.56445,-31.93554 0.97485,-2.27613 1.73022,-3.88913 1.86524,-3.98633 0.0237,-0.017 0.0406,-0.02734 0.0586,-0.02734 z m 12.35156,77.062499 8.67383,-1.64453 0.0156,-18.70313 c 9.6e-4,-1.5754 1.29663,-3.29813 3.3379,-4.49023 -1.12486,-2.1817 -1.93072,-3.76988 -2.95508,-5.79688 -0.36897,0.4287 -0.70733,0.83542 -1.11719,1.16602 -0.016,-2.1235 -0.009,-2.67274 -0.006,-3.39844 -0.21653,-0.4333 -0.47996,-0.95224 -0.67187,-1.33984 l -7.22657,1.22265 -0.0508,32.98438 z m 23.81445,-3.49414 c -0.41209,-0.7178 -0.81878,-1.40382 -1.23437,-2.13282 -1.48382,-2.6028 -2.45623,-4.27941 -3.20703,-5.53711 -0.57355,-0.9607 -1.05806,-1.80199 -1.63477,-2.84179 0.6783,4.8453 2.97001,8.25932 6.07617,10.51172 z m 63.15235,-64.013679 23.14258,0 c 17.49463,0 30.28855,3.90332 38.38476,11.70508 8.15284,7.74607 12.23047,19.977309 12.23047,36.695309 0,16.8295 -4.07762,29.14742 -12.23047,36.94922 -8.0962,7.8017 -20.89013,11.70118 -38.38476,11.70118 l -23.14258,0 0,-97.050789 z m -27.17578,22.97852 0.0234,11.970699 c -1.68343,1.3337 -3.41019,3.12736 -5.46289,5.72266 2.22035,-1.8381 4.48215,-3.27785 6.45899,-4.78125 1.15553,-0.6737 3.42672,-1.58375 7.52734,-1.59375 8.62779,0.036 13.99211,5.0783 13.94141,7.4668 l -0.0274,24.82031 -7.95312,1.38476 -0.14453,-23.40625 c 0.0138,-0.4037 -1.09169,-3.59743 -6.03906,-3.64843 -5.17394,-0.1034 -8.27412,3.15128 -8.29102,5.27148 l -0.0898,20.21875 -8.06641,1.43555 -0.0625,-42.966799 8.18555,-1.89453 z m 17.79297,0.6875 1.72265,5.068359 c 0.15906,0.4722 0.27476,0.82625 0.34766,1.06055 0.0826,-0.2602 0.21145,-0.64239 0.38672,-1.14649 l 1.74023,-4.982419 1.29492,0 0,7.160159 -0.92773,0 0,-5.990239 -2.11328,5.992189 -0.86914,0 -2.10157,-6.095699 0,6.095699 -0.92773,0 0,-7.160159 1.44727,-0.002 z m -8.21485,0.002 5.76563,0 0,0.84571 -2.40625,0 0,6.314449 -0.96289,0 0,-6.314449 -2.39649,0 0,-0.84571 z M 291.91569,151.94275 c 1.62061,0 2.99786,0.36108 4.12696,1.08398 1.14239,0.723 1.98466,1.77058 2.52929,3.14649 0.91656,-1.4459 2.01189,-2.51122 3.28711,-3.19922 1.27524,-0.688 2.77703,-1.03125 4.50391,-1.03125 2.32463,0 4.11891,0.71804 5.38086,2.15234 1.26194,1.4226 1.89062,3.45064 1.89062,6.08594 l 0,11.82422 -3.68359,0 0,-11.71875 c 0,-1.8774 -0.37955,-3.27009 -1.13672,-4.17969 -0.75716,-0.9095 -1.91261,-1.36524 -3.4668,-1.36524 -1.89955,0 -3.40136,0.55246 -4.5039,1.66016 -1.10254,1.1078 -1.65235,2.61885 -1.65235,4.53125 l 0,11.07227 -3.6875,0 0,-11.71875 c 0,-1.889 -0.37955,-3.28179 -1.13672,-4.17969 -0.75717,-0.9095 -1.9251,-1.36524 -3.50586,-1.36524 -1.87299,0 -3.36035,0.55834 -4.46289,1.67774 -1.10254,1.1078 -1.65234,2.61297 -1.65234,4.51367 l 0,11.07227 -3.6875,0 0,-19.5918 3.6875,0 0,3.04492 c 0.83688,-1.2011 1.83886,-2.08876 3.00781,-2.66015 1.16897,-0.5713 2.5548,-0.85547 4.16211,-0.85547 z m 38.31641,0 c 3.0021,0 5.37508,0.85023 7.11523,2.55273 1.75345,1.6908 4.91306,5.05206 2.63086,6.91016 l 0,1.57422 -16.85742,0 c 0.15941,2.2155 0.91656,3.90421 2.27148,5.07031 1.36822,1.1544 3.26637,1.73242 5.69727,1.73242 1.40806,0 2.77086,-0.15188 4.08594,-0.45508 1.32837,-0.3032 2.64156,-0.75688 3.94336,-1.36328 l 0,3.04492 c -1.31508,0.4897 -2.66148,0.86059 -4.04297,1.11719 -1.3815,0.2565 -2.78373,0.38672 -4.20508,0.38672 -3.56001,0 -6.38127,-0.91137 -8.4668,-2.73047 -2.07225,-1.8191 -3.10937,-4.28111 -3.10937,-7.38281 0,-3.2067 0.98324,-5.74565 2.94922,-7.62305 1.97926,-1.889 4.6408,-2.83398 7.98828,-2.83398 z m 26.74219,0 c 0.25239,0 0.52846,0.0177 0.83398,0.0527 0.30553,0.0231 0.64563,0.0631 1.01758,0.12109 l 0.0215,3.30665 c -0.41179,-0.20991 -0.86398,-0.36208 -1.35547,-0.45508 -0.47821,-0.1052 -1.00926,-0.15821 -1.59375,-0.15821 -2.07224,0 -3.66738,0.59381 -4.7832,1.78321 -1.10255,1.1777 -1.65234,2.87619 -1.65234,5.09179 l 0,10.31836 -3.6875,0 0,-19.58984 3.6875,0 0,3.04492 c 0.77045,-1.1894 1.77439,-2.06932 3.00976,-2.64062 1.23538,-0.5831 2.73523,-0.875 4.50196,-0.875 z m 12.57421,0 c 1.64717,0 3.05995,0.28416 4.24219,0.85547 1.18223,0.5714 2.15103,1.43544 2.9082,2.58984 l 0,-2.97461 3.66797,0 0,17.1582 c 0,3.3349 -0.84423,5.81475 -2.53125,7.43555 -1.68703,1.6325 -4.27164,2.44922 -7.75195,2.44922 -1.28851,0 -2.50214,-0.0888 -3.64453,-0.26367 -1.1424,-0.1633 -2.25214,-0.41964 -3.32813,-0.76953 l 0,-3.13086 c 1.07599,0.513 2.14005,0.89387 3.18946,1.13867 1.04941,0.2449 2.11776,0.36523 3.20703,0.36523 2.40433,0 4.20486,-0.55235 5.40039,-1.66015 1.19553,-1.0961 1.79101,-2.75718 1.79101,-4.98438 l 0,-1.59375 c -0.75717,1.1544 -1.72597,2.01854 -2.9082,2.58984 -1.18224,0.5714 -2.59502,0.85743 -4.24219,0.85743 -2.73643,0 -4.94345,-0.9154 -6.61718,-2.7461 -1.67374,-1.8308 -2.50977,-4.25919 -2.50977,-7.27929 0,-3.0318 0.83603,-5.46032 2.50977,-7.29102 1.67373,-1.8308 3.88075,-2.74609 6.61718,-2.74609 z m 27.71289,0 c 3.0021,0 5.37509,0.85023 7.11524,2.55273 1.75345,1.6908 4.91305,5.05206 2.63086,6.91016 l 0,1.57422 -16.85742,0 c 0.1594,2.2155 0.91655,3.90421 2.27148,5.07031 1.36821,1.1544 3.26832,1.73242 5.69922,1.73242 1.40807,0 2.76891,-0.15188 4.08398,-0.45508 1.32837,-0.3032 2.64352,-0.75688 3.94532,-1.36328 l 0,3.04492 c -1.31508,0.4897 -2.66342,0.86059 -4.04492,1.11719 -1.38149,0.2565 -2.78373,0.38672 -4.20508,0.38672 -3.56002,0 -6.38127,-0.91137 -8.4668,-2.73047 -2.07225,-1.8191 -3.11133,-4.28111 -3.11133,-7.38281 0,-3.2067 0.9852,-5.74565 2.95117,-7.62305 1.97927,-1.889 4.6408,-2.83398 7.98828,-2.83398 z m -26.82031,2.6914 c -1.96598,0 -3.49706,0.64113 -4.59961,1.92383 -1.08925,1.2827 -1.63476,3.08968 -1.63476,5.42188 0,2.3205 0.54551,4.12365 1.63476,5.40625 1.10255,1.2827 2.63363,1.92382 4.59961,1.92382 1.97926,0 3.51622,-0.64112 4.60547,-1.92382 1.10254,-1.2826 1.65233,-3.08575 1.65234,-5.40625 10e-6,-2.3322 -0.5498,-4.13918 -1.65234,-5.42188 -1.08925,-1.2827 -2.62621,-1.92383 -4.60547,-1.92383 z m -40.16601,0.0352 c -2.04568,0 -3.6865,0.50894 -4.92188,1.52344 -1.2221,1.0144 -1.92926,2.4408 -2.11523,4.2832 l 13.07226,-0.0156 c -0.0266,-1.7607 -0.58886,-3.16534 -1.6914,-4.21484 -1.08926,-1.0495 -2.53718,-1.57617 -4.34375,-1.57617 z m 67.02539,0 c -2.04569,0 -3.68259,0.50894 -4.91797,1.52344 -1.22209,1.0144 -1.92731,2.4408 -2.11328,4.2832 l 13.07031,-0.0156 c -0.0266,-1.7607 -0.59081,-3.16534 -1.69336,-4.21484 -1.08927,-1.0495 -2.53913,-1.57617 -4.3457,-1.57617 z"
     id="rect967"
     inkscape:connector-curvature="0" />
</svg>
