<?xml version="1.0" encoding="UTF-8" standalone="no"?>
<!-- Created with Inkscape (http://www.inkscape.org/) -->

<svg
   xmlns:dc="http://purl.org/dc/elements/1.1/"
   xmlns:cc="http://creativecommons.org/ns#"
   xmlns:rdf="http://www.w3.org/1999/02/22-rdf-syntax-ns#"
   xmlns:svg="http://www.w3.org/2000/svg"
   xmlns="http://www.w3.org/2000/svg"
   xmlns:sodipodi="http://sodipodi.sourceforge.net/DTD/sodipodi-0.dtd"
   xmlns:inkscape="http://www.inkscape.org/namespaces/inkscape"
   width="220"
   height="96"
   viewBox="0 0 58.208332 25.400001"
   version="1.1"
   id="svg8"
   sodipodi:docname="inforge.svg"
   inkscape:version="0.92.1 r"
   inkscape:export-filename="/home/ilnanny/Sviluppo/INFORGE.PNG"
   inkscape:export-xdpi="262"
   inkscape:export-ydpi="262">
  <defs
     id="defs2">
    <filter
       inkscape:collect="always"
       style="color-interpolation-filters:sRGB"
       id="filter4596"
       x="-0.14086784"
       width="1.2817357"
       y="-0.12418253"
       height="1.2483651">
      <feGaussianBlur
         inkscape:collect="always"
         stdDeviation="2.5579296"
         id="feGaussianBlur4598" />
    </filter>
  </defs>
  <sodipodi:namedview
     id="base"
     pagecolor="#1f6aa1"
     bordercolor="#000000"
     borderopacity="1"
     inkscape:pageopacity="0"
     inkscape:pageshadow="2"
     inkscape:zoom="3.395984"
     inkscape:cx="78.571584"
     inkscape:cy="52.140866"
     inkscape:document-units="px"
     inkscape:current-layer="text4515"
     showgrid="false"
     units="px"
     inkscape:showpageshadow="false"
     inkscape:window-width="1280"
     inkscape:window-height="975"
     inkscape:window-x="0"
     inkscape:window-y="23"
     inkscape:window-maximized="1"
     borderlayer="true" />
  <metadata
     id="metadata5">
    <rdf:RDF>
      <cc:Work
         rdf:about="">
        <dc:format>image/svg+xml</dc:format>
        <dc:type
           rdf:resource="http://purl.org/dc/dcmitype/StillImage" />
        <dc:title></dc:title>
      </cc:Work>
    </rdf:RDF>
  </metadata>
  <g
     inkscape:label="Livello 1"
     inkscape:groupmode="layer"
     id="layer1"
     transform="translate(0,-271.59998)">
    <g
       aria-label="inforge"
       transform="scale(0.98872009,1.0114086)"
       style="font-style:normal;font-variant:normal;font-weight:bold;font-stretch:normal;font-size:17.62393951px;line-height:125%;font-family:'Liberation Sans';-inkscape-font-specification:'Liberation Sans Bold';letter-spacing:0px;word-spacing:0px;fill:#fbfbfb;fill-opacity:0.99559474;stroke:none;stroke-width:0.26458334;stroke-linecap:butt;stroke-linejoin:miter;stroke-opacity:1;stroke-miterlimit:4;stroke-dasharray:none"
       id="text4515">
      <path
         style="font-style:normal;font-variant:normal;font-weight:bold;font-stretch:normal;font-family:'Liberation Sans';-inkscape-font-specification:'Liberation Sans Bold';fill:#71848b;fill-opacity:0.99559476;stroke:none;stroke-width:0.26458335;stroke-miterlimit:4;stroke-dasharray:none;stroke-opacity:1"
         d="m 18.895561,337.60058 c -0.912176,0 -1.592459,0.20376 -2.039942,0.61108 -0.12801,0.11652 -0.235809,0.25301 -0.327185,0.40517 0.42087,-0.2236 0.968478,-0.3362 1.644288,-0.3362 v 5.1e-4 c 0.453221,0 0.963435,0.0456 1.531394,0.13745 v 0.80063 c 0.0061,-4e-5 0.01105,-0.001 0.01725,-0.001 0.235216,0 0.470375,0.0266 0.70559,0.0782 v -1.55784 c -0.567959,-0.0918 -1.078172,-0.13744 -1.531393,-0.13744 z m -16.1198761,0.38473 a 1.2670584,1.2678417 0 0 0 -1.1592596,0.75925 1.2670584,1.2678417 0 0 1 0.436421,-0.0792 1.2670584,1.2678417 0 0 1 1.2669275,1.26763 1.2670584,1.2678417 0 0 1 -0.1076679,0.50889 1.2670584,1.2678417 0 0 0 0.8305065,-1.18895 1.2670584,1.2678417 0 0 0 -1.2669275,-1.26763 z m 24.6355731,0.40568 c -0.551496,0 -1.021714,0.31929 -1.23609,0.77816 0.158448,-0.0628 0.331238,-0.0981 0.513252,-0.0981 0.754082,0 1.361006,0.59331 1.361006,1.33048 v 4.65717 c 0,0.19806 -0.04674,0.38421 -0.125438,0.55283 0.498084,-0.19745 0.848277,-0.67349 0.848277,-1.23289 v -4.65717 c 0,-0.73717 -0.606925,-1.33048 -1.361007,-1.33048 z m -8.77964,1.53843 c -0.222143,0.037 -0.395768,0.10764 -0.510639,0.21868 -0.166371,0.16064 -0.249831,0.44736 -0.249831,0.86042 v 0.73165 h 1.832968 v 0.95494 h 0.722838 v -1.63499 h -1.832968 v -0.73166 c 0,-0.15213 0.01502,-0.28117 0.03763,-0.39904 z m 6.393175,0.49765 c -0.78829,0.34561 -1.470445,0.84989 -2.015376,1.46332 0.389309,-0.30984 0.820614,-0.57636 1.292538,-0.78326 v 2.85255 c -0.638174,0.62026 -0.997398,1.46342 -0.998281,2.34315 -4.5e-5,1.82743 1.515384,3.30885 3.384746,3.30881 1.091723,3e-5 2.0597,-0.50728 2.678633,-1.29164 -0.55266,0.38369 -1.226327,0.61161 -1.955795,0.61159 -1.869361,4e-5 -3.384791,-1.48139 -3.384745,-3.30882 8.83e-4,-0.87973 0.360106,-1.72289 0.99828,-2.34315 z m 4.772408,0.003 v 1.06019 c 1.675389,1.03196 2.719199,2.84056 2.722012,4.81301 8.8e-5,1.44682 -0.555448,2.76396 -1.46397,3.76917 1.332706,-1.04473 2.186918,-2.64934 2.186808,-4.44923 -0.0032,-2.24281 -1.351456,-4.27534 -3.44485,-5.19314 z m -19.188413,0.44962 c -0.6826969,0 -1.2711207,0.16054 -1.7644993,0.48181 -0.2601543,0.1694 -0.4964598,0.39499 -0.7102948,0.6729 0.4908877,-0.31604 1.0748368,-0.47466 1.7519562,-0.47466 0.9867559,0 1.7436799,0.3039 2.2714799,0.91202 0.5278,0.60811 0.791829,1.49726 0.791829,2.6676 v 5.23197 h 0.722839 v -5.91203 c 0,-1.17034 -0.26403,-2.05948 -0.79183,-2.66759 -0.527799,-0.60812 -1.284723,-0.91202 -2.27148,-0.91202 z m 28.467195,0 c -0.378643,0 -0.694111,0.0658 -0.946537,0.19773 -0.252426,0.12621 -0.470265,0.32407 -0.653848,0.59371 -0.01499,0.0216 -0.03118,0.0525 -0.04652,0.0766 0.248797,-0.12465 0.556004,-0.18803 0.924061,-0.18803 0.309795,0 0.559652,0.0427 0.748972,0.12876 v 1.22931 c 0.220756,0.0189 0.460661,0.0551 0.722838,0.11292 v -2.02228 c -0.18932,-0.0861 -0.439177,-0.12876 -0.748969,-0.12876 z m 5.498902,0 c -1.1535,0 -2.035395,0.4033 -2.648316,1.20581 0.525318,-0.34813 1.1657,-0.52576 1.925478,-0.52576 1.198784,0 2.07084,0.43968 2.617481,1.31668 0.08741,0.0684 0.168589,0.14827 0.244604,0.23759 0.003,-0.18883 0.0098,-0.40169 0.02927,-0.69385 0.02869,-0.34421 0.05755,-0.57106 0.08624,-0.68006 h 0.01045 c -0.54283,-0.57221 -1.29686,-0.86041 -2.26521,-0.86041 z m 10.808086,0.009 c -1.399817,0 -2.481135,0.41289 -3.24415,1.23901 -0.05357,0.058 -0.100718,0.12192 -0.150527,0.18343 0.701331,-0.49299 1.590433,-0.74239 2.671836,-0.74239 1.336712,0 2.357666,0.44432 3.063311,1.33354 0.618963,0.77497 0.967111,1.86807 1.04323,3.27867 h 0.738517 v -0.069 c 0,-1.70961 -0.353261,-3.00625 -1.058909,-3.88975 -0.705644,-0.88922 -1.726599,-1.33354 -3.063308,-1.33354 z m -50.2218663,0.17116 c 0.013594,0.19939 0.024387,0.4376 0.034496,0.68005 H 6.744764 c 0.017211,0.109 0.040306,0.40163 0.068991,0.87779 0.028683,0.47044 0.042858,0.79498 0.042858,0.97282 h 0.034496 c 0.1942049,-0.42248 0.4188015,-0.77423 0.6716181,-1.05917 -0.00677,-0.17824 -0.00863,-0.3066 -0.026133,-0.5937 -0.028685,-0.47616 -0.05178,-0.76879 -0.068991,-0.87779 z m 9.6639813,0 v 0.68005 h 0.6366 v -0.68005 z m 19.569954,0 c 0.01283,0.19667 0.02229,0.43868 0.03188,0.68005 h 1.551254 c 0.01721,0.10326 0.04031,0.41897 0.06899,0.94677 0.02868,0.52207 0.04286,0.86917 0.04286,1.04128 h 0.0345 c 0.235216,-0.65402 0.444652,-1.11307 0.628235,-1.37697 0.0095,-0.0139 0.02015,-0.0253 0.02979,-0.0388 -0.0059,-0.12306 -0.0041,-0.15235 -0.01254,-0.30554 -0.02868,-0.5278 -0.05178,-0.8435 -0.06899,-0.94676 z m 13.157441,0 c -0.02869,0.109 -0.05755,0.33584 -0.08624,0.68005 h 1.652129 c -0.03442,0.61959 -0.05122,1.33689 -0.05122,2.15155 v 6.87566 c 0,1.08242 -0.254907,1.9451 -0.756288,2.59504 0.123715,-0.0841 0.242469,-0.17338 0.351749,-0.27182 0.751544,-0.67696 1.12738,-1.67804 1.12738,-3.00327 v -6.87566 c 0,-0.81466 0.0168,-1.53197 0.05122,-2.15155 z m -44.9210502,5.1e-4 a 1.2670584,1.2678417 0 0 1 -0.5785845,0.14102 1.2670584,1.2678417 0 0 1 -0.462554,-0.0874 v 0.6264 h 1.6955086 v 8.63124 h 0.7228387 v -9.31129 z m 51.2520282,2.17505 c -0.224893,0.0989 -0.416536,0.24842 -0.574402,0.45014 -0.30406,0.39585 -0.464683,0.94915 -0.481895,1.66054 h 3.614193 c -0.01515,-0.24804 -0.04644,-0.47328 -0.09094,-0.68006 h -2.800411 c 0.01412,-0.58382 0.126134,-1.05939 0.333455,-1.43062 z m -36.012311,0.14 v 6.99572 h 0.722838 v -6.99572 z m 26.078114,0.001 c -0.780686,0.35712 -1.172848,1.33623 -1.172848,2.94248 0,2.02515 0.639341,3.03751 1.918683,3.03751 0.642539,0 1.133329,-0.26659 1.471811,-0.80013 0.0092,-0.0144 0.01716,-0.0307 0.02613,-0.0455 -0.228053,0.10855 -0.485232,0.16554 -0.775106,0.16554 -1.279343,0 -1.918684,-1.01236 -1.918684,-3.03751 0,-0.99417 0.150983,-1.74673 0.45001,-2.26242 z M 8.1193595,343.5494 c -0.2502877,0.12592 -0.4709993,0.3188 -0.6601194,0.58298 -0.3556916,0.4991 -0.5336356,1.14128 -0.5336356,1.92724 v 4.31127 h 0.7228384 v -4.99132 c 0,-0.73684 0.1582862,-1.34549 0.4709166,-1.83017 z m 29.1952575,0.19364 c -0.255948,0.12127 -0.475721,0.30931 -0.65646,0.56969 -0.332741,0.48764 -0.499139,1.21084 -0.499139,2.16892 v 3.88924 h 0.722838 v -4.56929 c 0,-0.89005 0.145592,-1.57447 0.432761,-2.05856 z m 15.495298,3.11773 c 0,0.90644 0.166395,1.59182 0.499142,2.05651 0.338479,0.45896 0.817722,0.68823 1.437313,0.68823 0.733192,0 1.2322,-0.27412 1.501078,-0.81852 -0.221684,0.0904 -0.479392,0.13847 -0.778239,0.13847 -0.619592,0 -1.098832,-0.22927 -1.437314,-0.68823 -0.243574,-0.34016 -0.397274,-0.79965 -0.462555,-1.37646 z m 4.276925,0.95494 c -0.08925,0.29522 -0.231095,0.52872 -0.420739,0.70611 l 1.978268,0.17167 c -0.1667,0.42618 -0.376826,0.79789 -0.630328,1.1164 0.595727,-0.41932 1.048116,-1.01658 1.353166,-1.79645 z m -10.420791,1.50572 c -0.09144,0.19566 -0.197468,0.37336 -0.316209,0.53546 0.116182,-0.074 0.22557,-0.15612 0.32823,-0.24678 l 0.0052,-0.28868 z m -2.882992,1.99623 -2.417826,0.28408 c 0.04071,0.20354 0.09843,0.39521 0.173002,0.5748 l 1.521986,-0.17883 c 0.08606,0.3729 0.269769,0.66552 0.550882,0.87779 0.286845,0.21227 0.659537,0.31831 1.118493,0.31831 0.671226,0 1.162016,-0.2067 1.47181,-0.61976 0.05136,-0.0685 0.09723,-0.14428 0.140074,-0.22379 -0.24918,0.10858 -0.544963,0.1635 -0.889046,0.1635 -0.458956,0 -0.831648,-0.10604 -1.118493,-0.31832 -0.281113,-0.21227 -0.464827,-0.50488 -0.550882,-0.87778 z"
         id="path4517"
         inkscape:connector-curvature="0" />
      <g
         id="g4636"
         transform="translate(0,0.52319772)" />
      <path
         style="font-style:normal;font-variant:normal;font-weight:bold;font-stretch:normal;font-family:'Liberation Sans';-inkscape-font-specification:'Liberation Sans Bold';fill:#9eabb0;fill-opacity:0.99559476;stroke:none;stroke-width:0.26458335;stroke-miterlimit:4;stroke-dasharray:none;stroke-opacity:1"
         d="m 15.713545,319.34683 c -0.912176,0 -1.592459,0.20376 -2.039941,0.61108 -0.107015,0.0974 -0.198456,0.20958 -0.279101,0.33262 0.436648,-0.27855 1.029542,-0.4205 1.783838,-0.4205 v 5.1e-4 c 0.453221,0 0.963435,0.0456 1.531394,0.13744 v 0.0613 c 0.03144,0.005 0.06123,0.008 0.09303,0.0133 v 0.89669 c 0.147387,0.0122 0.294768,0.031 0.44217,0.0634 v -1.55784 c -0.567959,-0.0918 -1.078172,-0.13744 -1.531393,-0.13744 z m -16.1198762,0.38473 a 1.2670584,1.2678417 0 0 0 -1.1122202,0.66371 1.2670584,1.2678417 0 0 1 0.57701648,-0.14051 1.2670584,1.2678417 0 0 1 0.47457517,0.0935 1.2553657,1.2561418 0 0 1 1.03643456,1.23544 1.2553657,1.2561418 0 0 1 -0.0266557,0.25343 1.2670584,1.2678417 0 0 0 0.3177772,-0.83794 1.2670584,1.2678417 0 0 0 -1.26692751,-1.26763 z m 24.6355732,0.40568 c -0.517736,0 -0.963436,0.28143 -1.193755,0.69539 0.19582,-0.10626 0.417877,-0.17219 0.658552,-0.17219 0.665471,0 1.216168,0.46233 1.336441,1.07756 0.0245,0.0997 0.04077,0.20235 0.04077,0.30963 v 4.61426 c 0,0.22128 -0.06064,0.42624 -0.158365,0.60903 0.404006,-0.23037 0.677366,-0.65403 0.677367,-1.14603 v -4.65717 c 0,-0.73717 -0.606925,-1.33048 -1.361007,-1.33048 z m -8.776504,1.52412 c -0.08462,0.0369 -0.160969,0.0798 -0.218472,0.1354 -0.164835,0.15916 -0.247218,0.443 -0.247218,0.85224 v 0.68057 h 1.722687 v 0.0444 h 0.09303 v 1.06734 h 0.44217 v -1.63499 H 15.41197 v -0.73166 c 0,-0.15832 0.01628,-0.29213 0.04077,-0.41335 z m 6.390039,0.51196 c -0.765457,0.3356 -1.427086,0.82326 -1.96311,1.41325 0.422667,-0.35744 0.901434,-0.65923 1.427907,-0.89005 v 0.0741 c 0.0171,-0.008 0.03349,-0.0165 0.0507,-0.024 v 2.8265 c -0.632285,0.61454 -0.987998,1.45006 -0.988873,2.32169 -4.5e-5,1.81056 1.501275,3.2782 3.353386,3.27816 1.046505,2e-5 1.980536,-0.46899 2.595529,-1.20326 -0.575578,0.44248 -1.300032,0.70818 -2.089072,0.70816 -1.869362,4e-5 -3.384791,-1.48139 -3.384745,-3.30882 8.83e-4,-0.87973 0.360106,-1.72289 0.99828,-2.34315 z m 4.772409,0.003 v 0.79552 c 1.783802,1.00993 2.906729,2.87638 2.909646,4.92082 8.8e-5,1.45059 -0.558531,2.77066 -1.471286,3.77683 1.228402,-1.04506 2.006591,-2.58311 2.006489,-4.30003 -0.0032,-2.24281 -1.351456,-4.27534 -3.444849,-5.19314 z M 7.4267726,322.6255 c -0.6826976,0 -1.2711217,0.16054 -1.7644998,0.48181 -0.2418133,0.15746 -0.4627673,0.3639 -0.6643007,0.61568 0.042672,-0.0318 0.085098,-0.0638 0.129097,-0.0925 0.4933784,-0.32127 1.0818022,-0.48181 1.7644998,-0.48181 0.3910038,0 0.7447394,0.0496 1.0636127,0.1451 0.5593211,0.13232 1.0177111,0.39835 1.3704143,0.80473 0.5229288,0.6025 0.7845121,1.48352 0.7845121,2.64306 v 5.37555 h 0.379974 v -5.91203 c 0,-1.17034 -0.26403,-2.05948 -0.7918296,-2.66759 -0.5278,-0.60812 -1.2847239,-0.91202 -2.2714798,-0.91202 z m 28.4671924,0 c -0.378641,0 -0.694109,0.0658 -0.946538,0.19773 -0.252233,0.12611 -0.469825,0.32387 -0.653323,0.5932 0.03896,-0.0241 0.07736,-0.0496 0.11812,-0.07 0.252429,-0.13193 0.567896,-0.19773 0.946537,-0.19773 0.309795,0 0.559652,0.0426 0.748972,0.12875 v 1.40763 c 0.168364,0.021 0.344588,0.0494 0.535204,0.0915 v -2.02228 c -0.189321,-0.0861 -0.439178,-0.12876 -0.748972,-0.12876 z m 5.498905,0 c -1.075396,0 -1.913126,0.35299 -2.518698,1.05048 0.20544,-0.12923 0.429519,-0.23089 0.670051,-0.30809 0.390706,-0.14303 0.826421,-0.21919 1.313443,-0.21919 1.268593,0 2.172229,0.49141 2.710515,1.47353 0.0048,-0.17043 0.0084,-0.33273 0.02456,-0.5748 0.02201,-0.26413 0.0438,-0.43711 0.06586,-0.56152 -0.54283,-0.57221 -1.297382,-0.86041 -2.265731,-0.86041 z m 10.808083,0.009 c -1.331753,0 -2.371707,0.37838 -3.127072,1.1261 0.406765,-0.23185 0.868895,-0.39206 1.387138,-0.47926 0.372328,-0.0792 0.771354,-0.12364 1.20473,-0.12364 1.336712,0 2.357666,0.44432 3.063311,1.33353 0.641214,0.80283 0.98827,1.95056 1.046888,3.43553 h 0.547224 v -0.069 c 0,-1.70961 -0.353261,-3.00625 -1.058908,-3.88975 -0.705645,-0.88922 -1.7266,-1.33354 -3.063311,-1.33354 z m -50.2218644,0.17116 c 0.010458,0.1534 0.018453,0.34117 0.026656,0.5232 h 1.7446386 c 8.718e-4,0.006 0.00276,0.038 0.00366,0.0444 h 0.209064 c 0.017052,0.10799 0.040049,0.39784 0.068469,0.86961 0.018163,0.29789 0.02071,0.43651 0.027178,0.61619 0.1014711,-0.18668 0.2099085,-0.35695 0.3250945,-0.51145 -0.00616,-0.18491 -0.00969,-0.34301 -0.029269,-0.66421 -0.028685,-0.47616 -0.05178,-0.76879 -0.068991,-0.87779 z m 9.6639814,0 v 0.5232 h 0.824234 v -0.5232 z m 19.569955,0 c 0.0099,0.15131 0.0169,0.34162 0.02456,0.5232 h 1.746206 c 0.01721,0.10326 0.04031,0.41896 0.06899,0.94676 0.02781,0.50619 0.04098,0.83241 0.04181,1.00961 0.186227,-0.51062 0.355956,-0.89674 0.50907,-1.15727 -0.0066,-0.14277 -0.0053,-0.18725 -0.01568,-0.37554 -0.02868,-0.5278 -0.05178,-0.8435 -0.06899,-0.94676 z m 13.15744,0 c -0.02335,0.0887 -0.04668,0.27684 -0.07004,0.5232 h 1.82356 c -0.03442,0.61958 -0.05122,1.33688 -0.05122,2.15155 v 6.87565 c 0,1.11059 -0.26715,1.99083 -0.794965,2.64614 0.07014,-0.0528 0.138163,-0.10784 0.202792,-0.16606 0.751543,-0.67696 1.127377,-1.67804 1.127377,-3.00328 v -6.87565 c 0,-0.81466 0.0168,-1.53197 0.05122,-2.15155 z m -45.9621888,5.1e-4 v 0.5232 h 1.88314355 v 0.0444 h 0.24460482 v 8.74364 h 0.2905989 v -9.31129 h -1.22877339 a 1.2553657,1.2561418 0 0 1 -0.28328165,0.0337 1.2553657,1.2561418 0 0 1 -0.28171368,-0.0337 z m 52.3485688,2.08564 c -0.168348,0.0955 -0.316378,0.22195 -0.442169,0.38269 -0.30406,0.39585 -0.464683,0.94916 -0.481895,1.66054 h 3.367499 c -0.01177,-0.1862 -0.0321,-0.36058 -0.06063,-0.5232 h -2.771667 c 0.0153,-0.63249 0.146595,-1.13724 0.38886,-1.52003 z m -35.769797,0.10167 v 7.12346 h 0.424922 v -7.12346 z m 25.840826,0.0368 c -0.696164,0.40292 -1.045842,1.36076 -1.045842,2.87759 0,1.75436 0.480953,2.74728 1.440975,2.98182 0.108304,0.0179 0.220656,0.0296 0.34025,0.0296 0.557431,0 0.99948,-0.20275 1.325989,-0.60801 -0.196805,0.0736 -0.414598,0.11087 -0.653326,0.11087 -1.279343,0 -1.918684,-1.01236 -1.918684,-3.03751 0,-1.05708 0.172443,-1.83844 0.510638,-2.35439 z m -6.646141,0.37707 c -0.19703,0.11977 -0.370789,0.28257 -0.517957,0.49459 -0.332741,0.48764 -0.499139,1.21084 -0.499139,2.16892 v 4.04609 h 0.535204 v -4.56929 c 0,-0.94041 0.161308,-1.65314 0.481892,-2.14031 z M 4.7465725,325.6487 c -0.025343,0.0317 -0.051462,0.0616 -0.075786,0.0956 -0.3524092,0.4945 -0.528409,1.13065 -0.528409,1.90936 v 4.46353 H 4.466427 v -4.99132 c 0,-0.56784 0.094454,-1.05911 0.2801455,-1.47712 z m 45.0689615,2.80146 c 0,0.90644 0.166395,1.59183 0.499142,2.05652 0.263216,0.3569 0.612572,0.57316 1.045841,0.65246 0.05296,0.004 0.105759,0.008 0.160979,0.008 0.603075,0 1.044707,-0.18982 1.330693,-0.56151 -0.17001,0.0434 -0.357947,0.0664 -0.564996,0.0664 -0.619592,0 -1.098835,-0.22927 -1.437314,-0.68823 -0.265067,-0.37017 -0.422235,-0.88286 -0.476144,-1.53332 z m 4.089291,1.1118 c -0.06476,0.21421 -0.15936,0.39356 -0.277011,0.54568 l 2.022174,0.17525 c -0.172994,0.44226 -0.393645,0.82482 -0.660121,1.15113 0.517537,-0.41036 0.918191,-0.96583 1.195324,-1.67433 z m -10.377413,1.62068 c -0.06273,0.10746 -0.12922,0.21013 -0.201745,0.30554 0.06783,-0.0505 0.136517,-0.0999 0.199133,-0.15685 z m -2.926371,1.88127 -2.417825,0.28408 c 0.02672,0.13358 0.06323,0.26045 0.104533,0.38371 l 1.655786,-0.19467 c 0.0051,0.022 0.01359,0.041 0.01934,0.0623 l 0.102965,-0.0123 c 0.08606,0.37291 0.26977,0.66552 0.550883,0.87779 0.05699,0.0422 0.120212,0.0771 0.183976,0.11087 0.228241,0.0946 0.491419,0.14613 0.796533,0.14613 0.641763,0 1.115421,-0.19266 1.423728,-0.57378 -0.218719,0.0734 -0.467707,0.1119 -0.75054,0.1119 -0.458956,0 -0.831648,-0.10605 -1.118493,-0.31832 -0.281113,-0.21227 -0.464827,-0.50488 -0.550883,-0.87778 z"
         id="path4691"
         inkscape:connector-curvature="0" />
      <g
         id="g4728"
         transform="matrix(1.0111676,0,0,1.0111676,-1.8996759,-2.0638491)">
        <path
           inkscape:connector-curvature="0"
           id="path4550"
           transform="matrix(0.26046117,0,0,0.25461835,3.3631078,266.81142)"
           style="opacity:0.60199998;fill:none;fill-opacity:0.99559476;stroke:#95e5ff;stroke-width:2.20000005;stroke-linecap:round;stroke-linejoin:bevel;stroke-miterlimit:4;stroke-dasharray:none;stroke-opacity:0.99607843;filter:url(#filter4596)"
           d="m 94.5,24.947266 c -2.817925,0 -5.087891,2.267997 -5.087891,5.085937 v 17.802735 c 0,2.81794 2.269966,5.08789 5.087891,5.08789 2.817925,0 5.085938,-2.26995 5.085938,-5.08789 V 30.033203 c 0,-2.81794 -2.268013,-5.085937 -5.085938,-5.085937 z m -8.917969,7.783203 A 21.789749,21.789749 0 0 0 72.708984,52.591797 21.789749,21.789749 0 0 0 94.5,74.382812 21.789749,21.789749 0 0 0 116.28906,52.591797 21.789749,21.789749 0 0 0 103.41602,32.740234 v 10.894532 a 12.648129,12.648129 0 0 1 3.73242,8.957031 A 12.648129,12.648129 0 0 1 94.5,65.240234 12.648129,12.648129 0 0 1 81.851562,52.591797 12.648129,12.648129 0 0 1 85.582031,43.634766 Z" />
        <path
           inkscape:connector-curvature="0"
           d="m 19.688225,271.8849 c -0.887836,0 -1.549965,0.19831 -1.985507,0.59476 -0.435542,0.39646 -0.653188,1.00477 -0.653188,1.8256 v 0.94637 h -1.323164 v 1.59186 h 1.323164 v 7.47096 h 2.345168 v -7.47096 h 1.784057 v -1.59137 h -1.784057 v -0.71213 c 0,-0.40204 0.08123,-0.68111 0.243164,-0.83746 0.167517,-0.16193 0.452092,-0.24318 0.85413,-0.24318 0.228939,0 0.457824,0.0254 0.686763,0.0756 v -1.51627 c -0.552804,-0.0894 -1.049403,-0.13377 -1.49053,-0.13377 z m -15.6897324,0.37446 a 1.2332482,1.2340106 0 0 0 -1.2331209,1.23381 1.2332482,1.2340106 0 0 0 1.2331209,1.2343 1.2332482,1.2340106 0 0 0 1.2331208,-1.2343 1.2332482,1.2340106 0 0 0 -1.2331208,-1.23381 z m 23.9781974,0.39486 c -0.73396,0 -1.325198,0.57748 -1.325198,1.29497 v 4.5329 c 0,0.7175 0.591238,1.29548 1.325198,1.29548 0.73396,0 1.324689,-0.57798 1.324689,-1.29548 v -4.5329 c 0,-0.71749 -0.590729,-1.29497 -1.324689,-1.29497 z m -2.322785,1.98175 c -2.038372,0.89367 -3.350831,2.87319 -3.352928,5.05705 -1.82e-4,3.06437 2.541027,5.54858 5.675713,5.54839 3.134487,-9e-5 5.675388,-2.48421 5.675205,-5.54839 -0.0031,-2.18296 -1.315397,-4.16126 -3.35293,-5.05457 v 2.77395 c 0.621333,0.60362 0.971158,1.4243 0.972151,2.28062 4.4e-5,1.77867 -1.474947,3.22057 -3.294426,3.22053 -1.81948,4e-5 -3.294471,-1.44186 -3.294427,-3.22053 8.6e-4,-0.85625 0.350497,-1.67691 0.971642,-2.28062 z m -14.031327,0.44011 c -0.664481,0 -1.237203,0.15626 -1.7174163,0.46895 -0.4802128,0.3127 -0.8792299,0.81542 -1.1975108,1.50782 h -0.033575 c 0,-0.1731 -0.013797,-0.48898 -0.041714,-0.94686 -0.02792,-0.46346 -0.050398,-0.74827 -0.06715,-0.85436 h -2.244952 c 0.01675,0.24568 0.031056,0.52525 0.042223,0.83795 0.01675,0.30712 0.024926,0.70325 0.024926,1.18905 v 7.03582 h 2.353816 v -4.85815 c 0,-0.76498 0.173196,-1.39002 0.5193963,-1.87581 0.351784,-0.49139 0.8121098,-0.737 1.3816648,-0.737 1.077688,0 1.616691,0.79564 1.616691,2.38704 v 5.08392 h 2.345168 v -5.75428 c 0,-1.13911 -0.256985,-2.00452 -0.770701,-2.59641 -0.513716,-0.59189 -1.250441,-0.88768 -2.210866,-0.88768 z m 27.707574,0 c -0.368537,0 -0.675589,0.064 -0.92128,0.19245 -0.245691,0.12285 -0.457716,0.31543 -0.6364,0.57787 -0.178684,0.25686 -0.382535,0.70366 -0.611474,1.34023 h -0.03357 c 0,-0.16752 -0.0138,-0.50537 -0.04172,-1.01351 -0.02792,-0.51371 -0.0504,-0.82099 -0.06715,-0.92149 h -2.244444 c 0.01675,0.25686 0.03054,0.55314 0.04172,0.88818 0.01675,0.32945 0.02493,0.7423 0.02493,1.23927 v 6.93537 h 2.353816 v -4.44737 c 0,-0.93251 0.161958,-1.63641 0.48582,-2.11104 0.32945,-0.47463 0.787221,-0.71164 1.373526,-0.71164 0.290363,0 0.625513,0.0416 1.005219,0.12531 v -1.96831 c -0.184269,-0.0838 -0.427458,-0.12532 -0.728986,-0.12532 z m 5.352172,0 c -1.139111,0 -2.007648,0.40188 -2.605122,1.20596 -0.597475,0.80407 -0.895844,1.94617 -0.895844,3.42591 0,1.47413 0.290194,2.60763 0.870918,3.40054 0.580724,0.79291 1.398681,1.18905 2.454034,1.18905 1.423886,0 2.395625,-0.55527 2.914925,-1.66645 h 0.0168 l -0.0168,0.89613 v 0.47741 c 0,0.79291 -0.150716,1.39024 -0.452247,1.79227 -0.301528,0.40204 -0.779221,0.60323 -1.432536,0.60323 -0.446709,0 -0.809453,-0.10321 -1.088644,-0.30982 -0.273612,-0.20661 -0.452427,-0.49142 -0.536186,-0.85437 l -2.353305,0.2765 c 0.156346,0.78175 0.569159,1.38195 1.239224,1.80073 0.675649,0.42438 1.566664,0.63655 2.672269,0.63655 1.395971,0 2.459673,-0.32974 3.19116,-0.98863 0.731487,-0.6589 1.097295,-1.63327 1.097295,-2.92314 v -6.69218 c 0,-0.79293 0.01635,-1.49109 0.04985,-2.09414 H 47.58046 c -0.02792,0.10609 -0.05601,0.32688 -0.08394,0.6619 -0.02232,0.33504 -0.03357,0.60026 -0.03357,0.79569 h -0.04172 c -0.508131,-1.08886 -1.421117,-1.63314 -2.73891,-1.63314 z m 10.51968,0.009 c -1.362464,0 -2.414928,0.40188 -3.157584,1.20596 -0.742655,0.80407 -1.114081,1.95429 -1.114081,3.45077 0,1.54674 0.365808,2.72516 1.097295,3.53482 0.731486,0.80408 1.77833,1.20596 3.140794,1.20596 1.965526,0 3.269351,-0.82098 3.911497,-2.46264 l -2.219515,-0.19246 c -0.217771,0.72033 -0.74247,1.08014 -1.57447,1.08014 -0.603059,0 -1.069511,-0.22315 -1.398959,-0.66986 -0.323867,-0.45229 -0.48582,-1.11939 -0.48582,-2.00164 h 5.813065 v -0.0672 c 0,-1.66399 -0.343837,-2.92603 -1.030655,-3.78595 -0.686816,-0.8655 -1.680524,-1.29796 -2.981567,-1.29796 z m -52.3572731,0.1671 v 9.06282 h 2.3538162 v -9.06282 z m 52.3236971,1.31536 c 0.519303,0 0.932623,0.18396 1.239736,0.5525 0.307114,0.36295 0.482866,0.91011 0.527535,1.6416 h -3.517752 c 0.01675,-0.6924 0.173089,-1.23095 0.469034,-1.61623 0.30153,-0.38529 0.728644,-0.57787 1.281447,-0.57787 z m -9.648763,0.12532 c 0.614228,0 1.086301,0.26284 1.41575,0.78773 0.335031,0.5193 0.502609,1.24517 0.502609,2.17767 0,0.96043 -0.167578,1.70303 -0.502609,2.22791 -0.329449,0.51931 -0.807143,0.77878 -1.432537,0.77878 -1.245205,0 -1.867485,-0.98534 -1.867485,-2.95645 0,-2.0102 0.627901,-3.01564 1.884272,-3.01564 z"
           style="font-style:normal;font-variant:normal;font-weight:bold;font-stretch:normal;font-family:'Liberation Sans';-inkscape-font-specification:'Liberation Sans Bold';fill:#ffffff;fill-opacity:0.86784141;stroke:none;stroke-width:0.25752321;stroke-miterlimit:4;stroke-dasharray:none;stroke-opacity:1"
           id="path4693" />
        <path
           inkscape:connector-curvature="0"
           d="m 19.688235,271.91925 c -0.887836,0 -1.549965,0.19831 -1.985507,0.59476 -0.435541,0.39646 -0.653188,1.00477 -0.653188,1.8256 v 0.50924 c 0,-0.82083 0.217646,-1.42915 0.653188,-1.8256 0.435542,-0.39645 1.097671,-0.59477 1.985507,-0.59477 0.441127,0 0.937727,0.0444 1.490531,0.13377 v -0.50923 c -0.552804,-0.0894 -1.049404,-0.13377 -1.490531,-0.13377 z m -15.6897323,0.37446 a 1.2332482,1.2340106 0 0 0 -1.2331208,1.23381 1.2332482,1.2340106 0 0 0 0.027471,0.25263 1.2332482,1.2340106 0 0 1 1.2056503,-0.9772 1.2332482,1.2340106 0 0 1 1.2056503,0.98167 1.2332482,1.2340106 0 0 0 0.027471,-0.2571 1.2332482,1.2340106 0 0 0 -1.2331218,-1.23381 z M 27.9767,272.68857 c -0.73396,0 -1.325197,0.57747 -1.325197,1.29497 v 0.50924 c 0,-0.7175 0.591237,-1.29498 1.325197,-1.29498 0.733961,0 1.324688,0.57748 1.324688,1.29498 v -0.50924 c 0,-0.7175 -0.590727,-1.29497 -1.324688,-1.29497 z m -2.322784,1.98174 c -2.038372,0.89367 -3.350831,2.87319 -3.35293,5.05706 0.0023,0.068 0.0058,0.136 0.01069,0.20389 0.118403,-2.06994 1.407494,-3.90266 3.342247,-4.75171 z m 4.64506,0.003 v 0.50924 c 1.964741,0.86429 3.259447,2.74159 3.342245,4.84621 0.0063,-0.10018 0.0099,-0.2005 0.01068,-0.30087 -0.0031,-2.18297 -1.315397,-4.16127 -3.352931,-5.05458 z m -18.676388,0.43764 c -0.66448,0 -1.237203,0.15624 -1.7174161,0.46895 -0.4802125,0.31269 -0.8792299,0.81542 -1.1975109,1.50781 H 8.674086 c 0,-0.17309 -0.013797,-0.48897 -0.041714,-0.94686 -0.027919,-0.46345 -0.050398,-0.74826 -0.06715,-0.85436 H 6.320271 c 0.010179,0.1493 0.017216,0.33508 0.025437,0.50923 h 2.2195156 c 0.016753,0.10609 0.039231,0.39091 0.06715,0.85437 0.027918,0.45788 0.041714,0.77377 0.041714,0.94686 h 0.033576 c 0.3182809,-0.6924 0.7172983,-1.19511 1.1975108,-1.50781 0.4802126,-0.3127 1.0529356,-0.46896 1.7174156,-0.46896 0.960425,0 1.697151,0.29579 2.210868,0.88768 0.513716,0.59188 0.770699,1.45731 0.770699,2.59642 v -0.50924 c 0,-1.13911 -0.256983,-2.00453 -0.770699,-2.59641 -0.513717,-0.59189 -1.250442,-0.88768 -2.21087,-0.88768 z m 27.707574,0 c -0.368536,0 -0.675589,0.064 -0.92128,0.19245 -0.24569,0.12284 -0.457716,0.31542 -0.6364,0.57787 -0.178685,0.25685 -0.382534,0.70366 -0.611474,1.34023 h -0.03357 c 0,-0.16752 -0.0138,-0.50537 -0.04172,-1.01351 -0.02792,-0.51372 -0.0504,-0.82099 -0.06715,-0.9215 h -2.244443 c 0.0096,0.14727 0.01618,0.33618 0.02391,0.50923 h 2.220533 c 0.01675,0.10051 0.03923,0.40779 0.06715,0.92151 0.02792,0.50814 0.04172,0.84598 0.04172,1.01349 h 0.03357 c 0.228941,-0.63656 0.43279,-1.08336 0.611474,-1.34022 0.178685,-0.26245 0.390711,-0.45502 0.636401,-0.57786 0.24569,-0.12841 0.552743,-0.19246 0.92128,-0.19246 0.301528,0 0.544718,0.0416 0.728986,0.12532 v -0.50924 c -0.184268,-0.0838 -0.427458,-0.12531 -0.728986,-0.12531 z m 5.352172,0 c -1.139111,0 -2.007647,0.40187 -2.605122,1.20595 -0.597474,0.80408 -0.895843,1.94618 -0.895843,3.42591 0,0.0872 0.0046,0.16932 0.0066,0.25412 0.03322,-1.35461 0.327103,-2.41429 0.88923,-3.1708 0.597477,-0.80407 1.46601,-1.20595 2.605122,-1.20595 1.317793,0 2.23078,0.54428 2.738911,1.63314 h 0.04172 c 0,-0.19543 0.01125,-0.46065 0.03357,-0.79568 0.02793,-0.33503 0.05601,-0.55583 0.08394,-0.66192 h 2.207814 c 0.0064,-0.17032 0.0111,-0.35186 0.01985,-0.50923 h -2.227653 c -0.02793,0.1061 -0.05602,0.32688 -0.08394,0.66191 -0.02232,0.33503 -0.03357,0.60024 -0.03357,0.79568 h -0.04172 c -0.508131,-1.08885 -1.421118,-1.63313 -2.738911,-1.63313 z m 10.519681,0.009 c -1.362465,0 -2.414928,0.40188 -3.157584,1.20595 -0.742656,0.80408 -1.114081,1.9543 -1.114081,3.45078 0,0.089 0.0057,0.17254 0.0081,0.2591 0.04025,-1.37294 0.405976,-2.44229 1.105941,-3.20014 0.742655,-0.80408 1.795119,-1.20596 3.157584,-1.20596 1.301043,0 2.294752,0.43247 2.981566,1.29796 0.624037,0.78132 0.961845,1.89825 1.018953,3.34336 h 0.0117 v -0.0672 c 0,-1.66399 -0.343837,-2.92603 -1.030655,-3.78596 -0.686815,-0.86549 -1.680524,-1.29795 -2.981567,-1.29795 z m -52.3572737,0.16709 v 0.50973 h 2.353816 v -0.50973 z m 12.8816357,0 v 0.50923 h 1.323163 v -0.50923 z m 3.668331,5e-4 v 0.50924 h 1.784058 v -0.50924 z m 34.065472,3.50896 c -0.02334,0.15956 -0.03786,0.32929 -0.04222,0.50974 h 3.517752 c -0.01107,-0.18123 -0.03032,-0.35114 -0.05748,-0.50974 z m -6.027743,1.15523 c -0.02809,0.83524 -0.192916,1.49289 -0.497012,1.96932 -0.32945,0.5193 -0.807143,0.77877 -1.432536,0.77877 -1.190404,0 -1.810036,-0.90292 -1.862399,-2.70433 -0.0023,0.0847 -0.0051,0.16907 -0.0051,0.25761 0,1.97111 0.62228,2.95646 1.867485,2.95646 0.625391,0 1.103087,-0.25948 1.432537,-0.77878 0.335031,-0.52489 0.502606,-1.26749 0.502608,-2.22791 0,-0.0861 -0.0027,-0.1686 -0.0056,-0.25114 z m -16.173518,0.0174 c -0.12872,1.67945 -1.559407,2.97834 -3.282219,2.97983 -1.713759,-7.4e-4 -3.140698,-1.28583 -3.281709,-2.95546 -0.0074,0.0812 -0.01164,0.16266 -0.01272,0.24417 -4.5e-5,1.77867 1.474947,3.22057 3.294427,3.22053 1.819479,4e-5 3.29447,-1.44186 3.294426,-3.22053 -2.45e-4,-0.0896 -0.0043,-0.17924 -0.01221,-0.26854 z m 22.142251,0.81159 c 0,0.88226 0.161955,1.54935 0.48582,2.00165 0.32945,0.44671 0.795902,0.66986 1.398961,0.66986 0.832001,0 1.356698,-0.35982 1.574469,-1.08015 l 1.99263,0.17257 c 0.08239,-0.15481 0.159194,-0.31679 0.226885,-0.48984 l -2.219515,-0.19245 c -0.217771,0.72031 -0.74247,1.08014 -1.574469,1.08014 -0.603059,0 -1.069511,-0.22316 -1.398961,-0.66987 -0.257913,-0.36019 -0.411418,-0.85909 -0.463946,-1.49191 z m -5.972801,2.39501 -0.0071,0.3869 v 0.47741 c 0,0.79291 -0.150715,1.39023 -0.452247,1.79227 -0.301527,0.40204 -0.779221,0.60323 -1.432536,0.60323 -0.446709,0 -0.809453,-0.10322 -1.088644,-0.30982 -0.273612,-0.2066 -0.452427,-0.49141 -0.536185,-0.85436 l -2.353306,0.2765 c 0.0347,0.17348 0.084,0.33672 0.143964,0.49232 l 2.209342,-0.25958 c 0.08376,0.36295 0.262573,0.64776 0.536185,0.85436 0.279191,0.2066 0.641938,0.30981 1.088644,0.30981 0.653315,0 1.131009,-0.20118 1.432536,-0.60322 0.301532,-0.40204 0.452247,-0.99936 0.452247,-1.79227 v -0.47742 l 0.0168,-0.89613 z"
           style="font-style:normal;font-variant:normal;font-weight:bold;font-stretch:normal;font-family:'Liberation Sans';-inkscape-font-specification:'Liberation Sans Bold';fill:#89a8b8;fill-opacity:0.43612336;stroke:none;stroke-width:0.25752321;stroke-miterlimit:4;stroke-dasharray:none;stroke-opacity:1"
           id="path4649" />
        <path
           inkscape:connector-curvature="0"
           id="path4719"
           d="m 20.491991,273.45935 c -0.402038,0 -0.686613,0.0813 -0.85413,0.24319 -0.161931,0.15635 -0.243164,0.43542 -0.243164,0.83745 v 0.50924 c 0,-0.40204 0.08123,-0.6811 0.243164,-0.83745 0.167517,-0.16193 0.452092,-0.24319 0.85413,-0.24319 0.22894,0 0.457825,0.0259 0.686763,0.0761 v -0.50923 c -0.228938,-0.0502 -0.457823,-0.0761 -0.686763,-0.0761 z M 5.2041415,273.7458 a 1.2332482,1.2340106 0 0 1 -1.2056503,0.98168 1.2332482,1.2340106 0 0 1 -1.2056504,-0.9772 1.2332482,1.2340106 0 0 0 -0.027471,0.25213 1.2332482,1.2340106 0 0 0 1.2331209,1.23431 1.2332482,1.2340106 0 0 0 1.2331208,-1.23431 1.2332482,1.2340106 0 0 0 -0.02747,-0.25661 z m 1.1161168,2.01507 c 0.01675,0.24568 0.031056,0.52526 0.042223,0.83795 0.01675,0.30712 0.024927,0.70325 0.024927,1.18905 v -0.50923 c 0,-0.4858 -0.00818,-0.88193 -0.024927,-1.18906 -0.00438,-0.12266 -0.011482,-0.21629 -0.016788,-0.32871 z m 28.4538577,0 c 0.01675,0.25685 0.03054,0.55314 0.04172,0.88818 0.01675,0.32944 0.02493,0.7423 0.02493,1.23927 v -0.50924 c 0,-0.49697 -0.0082,-0.90982 -0.02493,-1.23927 -0.0048,-0.14294 -0.01206,-0.25016 -0.0178,-0.37894 z m 15.014669,0 c -0.01819,0.48241 -0.03052,0.99878 -0.03052,1.5849 v 0.50923 c 0,-0.79292 0.01635,-1.49109 0.04985,-2.09413 z m 5.379644,0.80662 c -0.552804,0 -0.979921,0.19258 -1.281448,0.57786 -0.295947,0.3853 -0.452284,0.92383 -0.469037,1.61623 h 0.04222 c 0.06618,-0.45271 0.207983,-0.8221 0.426813,-1.10699 0.301527,-0.38529 0.728644,-0.57786 1.281448,-0.57786 0.519302,0 0.93262,0.18397 1.239732,0.55249 0.231099,0.27313 0.387598,0.65059 0.470052,1.13236 h 0.05748 c -0.04467,-0.73148 -0.22042,-1.27863 -0.527535,-1.64158 -0.307112,-0.36854 -0.72043,-0.55251 -1.239732,-0.55251 z m -9.648764,0.12532 c -1.256371,0 -1.884274,1.00544 -1.884274,3.01564 0,0.0867 0.0032,0.16919 0.0055,0.25213 0.05285,-1.83713 0.677615,-2.75853 1.878678,-2.75853 0.614227,0 1.086297,0.26283 1.415747,0.78772 0.304112,0.47138 0.468937,1.11472 0.497014,1.92654 0.0028,-0.0848 0.0055,-0.16959 0.0055,-0.25809 0,-0.93251 -0.167578,-1.65839 -0.502609,-2.17768 -0.32945,-0.5249 -0.80152,-0.78773 -1.415747,-0.78773 z m -34.877379,0.15069 c -0.569555,0 -1.0298813,0.2456 -1.3816653,0.73699 -0.3462003,0.48579 -0.5193961,1.11084 -0.5193961,1.87582 v 0.50924 c 0,-0.76498 0.1731958,-1.39003 0.5193961,-1.87582 0.351784,-0.49139 0.8121103,-0.737 1.3816653,-0.737 1.077687,0 1.616691,0.79564 1.616691,2.38704 v -0.50924 c 0,-1.59139 -0.539004,-2.38703 -1.616691,-2.38703 z m 5.084079,0 v 0.50923 h 1.323164 v -0.50923 z m 3.668332,0 v 0.50923 h 1.784057 v -0.50923 z m 19.659223,0.20091 c -0.586306,0 -1.044077,0.237 -1.373527,0.71163 -0.323862,0.47463 -0.48582,1.17853 -0.48582,2.11104 v 0.50924 c 0,-0.93251 0.161958,-1.63642 0.48582,-2.11104 0.32945,-0.47463 0.787221,-0.71164 1.373527,-0.71164 0.290362,0 0.625511,0.0416 1.005216,0.12532 v -0.50924 c -0.379705,-0.0838 -0.714854,-0.12531 -1.005216,-0.12531 z m -13.400016,0.368 c -0.621145,0.60371 -0.970783,1.42436 -0.971643,2.28062 -2e-6,0.0861 0.0064,0.1708 0.01323,0.25511 0.06266,-0.76291 0.399164,-1.48294 0.958415,-2.0265 z m 4.645061,0 v 0.50923 c 0.559414,0.54347 0.896126,1.26354 0.958925,2.0265 0.0068,-0.0843 0.01323,-0.16909 0.01323,-0.25511 -9.73e-4,-0.85632 -0.350818,-1.677 -0.972151,-2.28062 z m -3.647474,1.06969 v 0.50924 c 0,0.7175 0.591238,1.29547 1.325198,1.29547 0.73396,0 1.324689,-0.57797 1.324689,-1.29547 v -0.50924 c 0,0.7175 -0.590729,1.29547 -1.324689,1.29547 -0.73396,0 -1.325198,-0.57797 -1.325198,-1.29547 z m 14.536481,1.48445 c -0.002,0.0837 -0.0066,0.16464 -0.0066,0.25063 0,1.47414 0.290193,2.60764 0.870917,3.40056 0.580724,0.79291 1.398679,1.18904 2.454031,1.18904 1.423886,0 2.395629,-0.55527 2.914928,-1.66646 h 0.0071 l 0.0096,-0.50923 h -0.01679 c -0.519299,1.11118 -1.491041,1.66646 -2.914928,1.66646 -1.055351,0 -1.873307,-0.39614 -2.454031,-1.18905 -0.545775,-0.74519 -0.831475,-1.79507 -0.864304,-3.14195 z m -18.878857,0.0214 c -0.0029,0.0714 -0.0081,0.14242 -0.0082,0.21433 -1.81e-4,3.06438 2.541028,5.54859 5.675714,5.5484 3.134486,-9e-5 5.675389,-2.48422 5.675204,-5.5484 -9.9e-5,-0.0705 -0.0054,-0.13983 -0.0082,-0.20985 -0.158748,2.92513 -2.635202,5.24892 -5.667064,5.24901 -3.033617,1.8e-4 -5.511114,-2.32605 -5.667574,-5.25349 z m 28.629361,0.0125 c -0.0024,0.0837 -0.0082,0.16461 -0.0082,0.25065 0,1.54673 0.365807,2.72514 1.097294,3.53481 0.731486,0.80407 1.778332,1.20595 3.140797,1.20595 1.965526,0 3.26935,-0.82097 3.911496,-2.46263 l -0.22638,-0.0194 c -0.699231,1.31396 -1.926696,1.97279 -3.685116,1.97279 -1.362465,0 -2.409311,-0.40188 -3.140797,-1.20594 -0.689483,-0.76318 -1.049557,-1.85818 -1.089156,-3.27623 z m 2.462682,0.23572 c 0,0.17937 0.0085,0.34765 0.02188,0.50923 h 5.79119 v -0.0672 c 0,-0.15194 -0.0059,-0.29686 -0.0117,-0.44209 z m -3.642896,3.80187 c 0,1.28988 -0.365805,2.26424 -1.097294,2.92313 -0.731487,0.6589 -1.795187,0.98865 -3.191158,0.98865 -1.105605,0 -1.99662,-0.21217 -2.672271,-0.63655 -0.521394,-0.32587 -0.885016,-0.76279 -1.095258,-1.3084 l -0.143967,0.0169 c 0.156347,0.78175 0.56916,1.38194 1.239225,1.80073 0.675651,0.42438 1.566666,0.63654 2.672271,0.63654 1.395971,0 2.459671,-0.32974 3.191158,-0.98864 0.731489,-0.65889 1.097294,-1.63325 1.097294,-2.92314 z m -43.3708536,0.2765 v 0.50923 h 2.3538162 v -0.50923 z m 5.8715686,0 v 0.50923 h 2.345167 v -0.50923 z m 4.790552,0 v 0.50923 h 2.345168 v -0.50923 z m 17.791228,0 v 0.50923 h 2.353816 v -0.50923 z m -31.9960274,5e-4 v 0.50924 h 2.3538161 v -0.50924 z"
           style="font-style:normal;font-variant:normal;font-weight:bold;font-stretch:normal;font-family:'Liberation Sans';-inkscape-font-specification:'Liberation Sans Bold';fill:#0e232e;fill-opacity:0.42290751;stroke:none;stroke-width:0.25752321;stroke-miterlimit:4;stroke-dasharray:none;stroke-opacity:1" />
      </g>
    </g>
  </g>
</svg>
