<?xml version="1.0" encoding="UTF-8" standalone="no"?>
<!-- Created with Inkscape (http://www.inkscape.org/) -->

<svg
   xmlns:dc="http://purl.org/dc/elements/1.1/"
   xmlns:cc="http://creativecommons.org/ns#"
   xmlns:rdf="http://www.w3.org/1999/02/22-rdf-syntax-ns#"
   xmlns:svg="http://www.w3.org/2000/svg"
   xmlns="http://www.w3.org/2000/svg"
   xmlns:xlink="http://www.w3.org/1999/xlink"
   xmlns:sodipodi="http://sodipodi.sourceforge.net/DTD/sodipodi-0.dtd"
   xmlns:inkscape="http://www.inkscape.org/namespaces/inkscape"
   width="512"
   height="512"
   viewBox="0 0 512.00001 512.00002"
   version="1.1"
   id="svg1072"
   inkscape:version="0.92.1 r15371"
   sodipodi:docname="old-style-headphone.svg">
  <title
     id="title3601">Old Style</title>
  <defs
     id="defs1066">
    <radialGradient
       inkscape:collect="always"
       xlink:href="#linearGradient2502"
       id="radialGradient2638"
       cx="318.44177"
       cy="1104.8688"
       fx="318.44177"
       fy="1104.8688"
       r="28.485859"
       gradientUnits="userSpaceOnUse"
       gradientTransform="matrix(0.92448502,0,0,0.94530632,17.986661,-2.6815246)" />
    <linearGradient
       inkscape:collect="always"
       id="linearGradient2502">
      <stop
         style="stop-color:#f9f9f9;stop-opacity:1;"
         offset="0"
         id="stop2498" />
      <stop
         style="stop-color:#f9f9f9;stop-opacity:0.59030837"
         offset="1"
         id="stop2500" />
    </linearGradient>
    <linearGradient
       inkscape:collect="always"
       xlink:href="#linearGradient2405"
       id="linearGradient2721"
       gradientUnits="userSpaceOnUse"
       gradientTransform="matrix(1.043563,0,0,0.96103055,-4.1838882,0.59055463)"
       x1="273.82324"
       y1="831.24384"
       x2="54.32243"
       y2="868.42822" />
    <linearGradient
       inkscape:collect="always"
       id="linearGradient2405">
      <stop
         style="stop-color:#e9e9e9;stop-opacity:1;"
         offset="0"
         id="stop2401" />
      <stop
         id="stop2411"
         offset="0.28639337"
         style="stop-color:#e6e6e6;stop-opacity:1" />
      <stop
         id="stop2409"
         offset="0.54774505"
         style="stop-color:#bfbfbf;stop-opacity:1" />
      <stop
         style="stop-color:#d0d0d0;stop-opacity:1"
         offset="1"
         id="stop2403" />
    </linearGradient>
    <pattern
       inkscape:collect="always"
       xlink:href="#Strips1_1white"
       id="pattern2427"
       patternTransform="matrix(9.241273,0,0,9.0106566,93.195045,70.117478)" />
    <pattern
       inkscape:stockid="Stripes 1:1 white"
       id="Strips1_1white"
       patternTransform="translate(0,0) scale(10,10)"
       height="1"
       width="2"
       patternUnits="userSpaceOnUse"
       inkscape:collect="always">
      <rect
         id="rect1563"
         height="2"
         width="1"
         y="-0.5"
         x="0"
         style="fill:white;stroke:none" />
    </pattern>
    <radialGradient
       inkscape:collect="always"
       xlink:href="#linearGradient2389"
       id="radialGradient2391"
       cx="1058.337"
       cy="788.12598"
       fx="1058.337"
       fy="788.12598"
       r="95.959496"
       gradientTransform="matrix(1.530588,-1.5815473e-8,0,0.98479974,-322.43234,-577.44422)"
       gradientUnits="userSpaceOnUse" />
    <linearGradient
       inkscape:collect="always"
       id="linearGradient2389">
      <stop
         style="stop-color:#929292;stop-opacity:1"
         offset="0"
         id="stop2385" />
      <stop
         style="stop-color:#2d2d2d;stop-opacity:0.96475768"
         offset="1"
         id="stop2387" />
    </linearGradient>
    <radialGradient
       inkscape:collect="always"
       xlink:href="#linearGradient2502"
       id="radialGradient2658"
       gradientUnits="userSpaceOnUse"
       gradientTransform="matrix(1.043563,0,0,0.96103055,82.289572,305.9918)"
       cx="318.44177"
       cy="1104.8688"
       fx="318.44177"
       fy="1104.8688"
       r="28.485859" />
    <radialGradient
       inkscape:collect="always"
       xlink:href="#linearGradient2453"
       id="radialGradient2723"
       gradientUnits="userSpaceOnUse"
       gradientTransform="matrix(1.1412344,0.06348181,-0.03988206,0.6080889,23.723646,538.86948)"
       cx="487.52911"
       cy="1893.7141"
       fx="487.52911"
       fy="1893.7141"
       r="562.92249" />
    <linearGradient
       id="linearGradient2453"
       inkscape:collect="always">
      <stop
         id="stop2445"
         offset="0"
         style="stop-color:#e9e9e9;stop-opacity:1;" />
      <stop
         style="stop-color:#e6e6e6;stop-opacity:1"
         offset="0.28639337"
         id="stop2447" />
      <stop
         style="stop-color:#bfbfbf;stop-opacity:1"
         offset="0.54774505"
         id="stop2449" />
      <stop
         id="stop2451"
         offset="1"
         style="stop-color:#eaeaea;stop-opacity:1" />
    </linearGradient>
    <inkscape:path-effect
       effect="spiro"
       id="path-effect2434"
       is_visible="true" />
    <radialGradient
       inkscape:collect="always"
       xlink:href="#linearGradient2502"
       id="radialGradient2504"
       cx="601.50262"
       cy="1051.5818"
       fx="601.50262"
       fy="1051.5818"
       r="19.996958"
       gradientTransform="matrix(1,0,0,1.4132251,0,-434.53999)"
       gradientUnits="userSpaceOnUse" />
    <filter
       inkscape:collect="always"
       style="color-interpolation-filters:sRGB"
       id="filter2570"
       x="-0.51023394"
       width="2.0204678"
       y="-0.45938566"
       height="1.9187713">
      <feGaussianBlur
         inkscape:collect="always"
         stdDeviation="9.2565752"
         id="feGaussianBlur2572" />
    </filter>
    <filter
       inkscape:collect="always"
       style="color-interpolation-filters:sRGB"
       id="filter2609"
       x="-0.18060154"
       width="1.3612031"
       y="-0.10252763"
       height="1.2050554">
      <feGaussianBlur
         inkscape:collect="always"
         stdDeviation="14.126762"
         id="feGaussianBlur2611" />
    </filter>
    <radialGradient
       inkscape:collect="always"
       xlink:href="#linearGradient2502"
       id="radialGradient2626"
       cx="-165.84099"
       cy="762.32477"
       fx="-165.84099"
       fy="762.32477"
       r="47.048168"
       gradientTransform="matrix(1,0,0,6.0908448,0,-3880.8771)"
       gradientUnits="userSpaceOnUse" />
    <filter
       inkscape:collect="always"
       style="color-interpolation-filters:sRGB"
       id="filter2616"
       x="-0.045313261"
       width="1.0906265"
       y="-0.0069157216"
       height="1.0138314">
      <feGaussianBlur
         inkscape:collect="always"
         stdDeviation="1.6289613"
         id="feGaussianBlur2618" />
    </filter>
    <radialGradient
       inkscape:collect="always"
       xlink:href="#linearGradient2389"
       id="radialGradient2662"
       gradientUnits="userSpaceOnUse"
       gradientTransform="matrix(0.86963583,0,0,1.174593,-38.322231,-19.624303)"
       cx="318.44177"
       cy="1104.8688"
       fx="318.44177"
       fy="1104.8688"
       r="28.485859" />
    <filter
       inkscape:collect="always"
       style="color-interpolation-filters:sRGB"
       id="filter2670"
       x="-0.022000022"
       width="1.044"
       y="-0.0082499972"
       height="1.0165">
      <feGaussianBlur
         inkscape:collect="always"
         stdDeviation="0.16068175"
         id="feGaussianBlur2672" />
    </filter>
  </defs>
  <sodipodi:namedview
     id="base"
     pagecolor="#ffffff"
     bordercolor="#666666"
     borderopacity="1.0"
     inkscape:pageopacity="0.0"
     inkscape:pageshadow="2"
     inkscape:zoom="1.40625"
     inkscape:cx="256"
     inkscape:cy="256"
     inkscape:document-units="px"
     inkscape:current-layer="layer1"
     showgrid="false"
     inkscape:showpageshadow="false"
     units="px"
     inkscape:lockguides="true"
     inkscape:window-width="1280"
     inkscape:window-height="998"
     inkscape:window-x="0"
     inkscape:window-y="0"
     inkscape:window-maximized="1" />
  <metadata
     id="metadata1069">
    <rdf:RDF>
      <cc:Work
         rdf:about="">
        <dc:format>image/svg+xml</dc:format>
        <dc:type
           rdf:resource="http://purl.org/dc/dcmitype/StillImage" />
        <dc:title>Old Style</dc:title>
        <dc:date>2017</dc:date>
        <dc:creator>
          <cc:Agent>
            <dc:title>Cristian Pozzessere &quot;ilnanny&quot;</dc:title>
          </cc:Agent>
        </dc:creator>
        <dc:subject>
          <rdf:Bag>
            <rdf:li>Global language</rdf:li>
          </rdf:Bag>
        </dc:subject>
        <dc:description>Playing with Inkscape on Gnu/Linux O. S.</dc:description>
        <dc:contributor>
          <cc:Agent>
            <dc:title>In the night, alone like a dog.</dc:title>
          </cc:Agent>
        </dc:contributor>
        <cc:license
           rdf:resource="http://artlibre.org/licence/lal" />
      </cc:Work>
      <cc:License
         rdf:about="http://artlibre.org/licence/lal">
        <cc:permits
           rdf:resource="http://creativecommons.org/ns#Reproduction" />
        <cc:permits
           rdf:resource="http://creativecommons.org/ns#Distribution" />
        <cc:permits
           rdf:resource="http://creativecommons.org/ns#DerivativeWorks" />
        <cc:requires
           rdf:resource="http://creativecommons.org/ns#ShareAlike" />
        <cc:requires
           rdf:resource="http://creativecommons.org/ns#Notice" />
        <cc:requires
           rdf:resource="http://creativecommons.org/ns#Attribution" />
      </cc:License>
    </rdf:RDF>
  </metadata>
  <g
     inkscape:label="Livello 1"
     inkscape:groupmode="layer"
     id="layer1"
     transform="translate(0,-610.5197)">
    <g
       transform="matrix(0.2500233,0,0,0.26074873,67.751105,618.3478)"
       id="g3343">
      <path
         style="opacity:1;fill:#c4c4c4;fill-opacity:1;fill-rule:evenodd;stroke:#000000;stroke-width:4.20607662;stroke-linecap:round;stroke-linejoin:round;stroke-miterlimit:4;stroke-dasharray:none;stroke-dashoffset:0;stroke-opacity:0.98237885;paint-order:markers stroke fill"
         d="m 1228.32,1757.067 c -7.0721,-0.3275 -14.7239,3.712 -19.2468,10.8322 -2.3798,3.7464 -3.5085,7.7647 -3.5118,11.5399 6.1834,-8.7936 17.2484,-12.3995 25.3247,-8.0487 l 100.0515,53.9003 c 5.0648,2.7285 7.7339,7.9394 7.729,13.7303 0.2221,-0.3158 0.4532,-0.6223 0.6624,-0.9516 6.0305,-9.4935 4.1495,-20.7649 -4.2171,-25.2721 l -100.0495,-53.9003 c -2.0917,-1.1268 -4.385,-1.7209 -6.7424,-1.83 z"
         id="rect2438"
         inkscape:connector-curvature="0" />
      <path
         style="opacity:1;fill:#2d2d2d;fill-opacity:1;fill-rule:evenodd;stroke:#000000;stroke-width:2.00289392;stroke-linecap:round;stroke-linejoin:round;stroke-miterlimit:4;stroke-dasharray:none;stroke-dashoffset:0;stroke-opacity:0.86797665;paint-order:markers stroke fill"
         d="m 618.7311,1112.2694 c 45.16819,145.1077 30.78041,236.7833 -95.95934,278.2327 -126.73974,41.4494 -352.33038,-6.8468 -397.49855,-151.9546 -45.168184,-145.1078 20.95864,-296.34228 147.69839,-337.79172 126.73975,-41.44944 300.59135,66.40579 345.7595,211.51362 z"
         id="path2360"
         inkscape:connector-curvature="0"
         sodipodi:nodetypes="sssss" />
      <path
         sodipodi:nodetypes="sssss"
         inkscape:connector-curvature="0"
         id="path2363"
         d="m 544.5369,1134.0232 c 38.56692,125.452 26.2819,204.7096 -81.935,240.5445 -108.21689,35.8349 -300.83772,-5.9194 -339.40462,-131.3715 -38.566911,-125.452 17.89555,-256.20101 126.11244,-292.03584 108.2169,-35.83487 256.6603,57.41074 295.22718,182.86284 z"
         style="opacity:1;fill:#dcdcdc;fill-opacity:1;fill-rule:evenodd;stroke:#000000;stroke-width:10.0144701;stroke-linecap:round;stroke-linejoin:round;stroke-miterlimit:4;stroke-dasharray:none;stroke-dashoffset:0;stroke-opacity:0.86797665;paint-order:markers stroke fill" />
      <path
         style="opacity:1;fill:#2d2d2d;fill-opacity:1;fill-rule:evenodd;stroke:#000000;stroke-width:10.0144701;stroke-linecap:round;stroke-linejoin:round;stroke-miterlimit:4;stroke-dasharray:none;stroke-dashoffset:0;stroke-opacity:0.86797665;paint-order:markers stroke fill"
         d="m 498.0835,1154.9406 c 32.51574,109.1659 22.15824,178.1343 -69.07937,209.317 -91.2376,31.183 -253.63611,-5.1509 -286.15185,-114.3168 -32.51575,-109.1659 15.08773,-222.941 106.32534,-254.12373 91.2376,-31.18285 216.39015,49.95763 248.90588,159.12353 z"
         id="path2365"
         inkscape:connector-curvature="0"
         sodipodi:nodetypes="sssss" />
      <path
         sodipodi:nodetypes="sssss"
         inkscape:connector-curvature="0"
         id="path2367"
         d="m 428.6751,1189.65 c 24.99763,78.1587 17.03493,127.5375 -53.1072,149.863 -70.14212,22.3259 -194.99171,-3.6877 -219.98931,-81.8463 -24.99763,-78.1588 11.59921,-159.6175 81.74135,-181.9432 70.14213,-22.3258 166.35755,35.7678 191.35516,113.9265 z"
         style="opacity:1;fill:#e2e2e2;fill-opacity:1;fill-rule:evenodd;stroke:#000000;stroke-width:8.91494465;stroke-linecap:round;stroke-linejoin:round;stroke-miterlimit:4;stroke-dasharray:none;stroke-dashoffset:0;stroke-opacity:0.86797665;paint-order:markers stroke fill" />
      <path
         inkscape:connector-curvature="0"
         id="path2630"
         d="m 312.37847,1016.9053 a 24.307816,24.855279 0 0 0 -24.3067,24.852 24.307816,24.855279 0 0 0 24.3067,24.8593 24.307816,24.855279 0 0 0 24.31334,-24.8593 24.307816,24.855279 0 0 0 -24.31334,-24.852 z m 73.03952,26.4656 a 24.307816,24.855279 0 0 0 -24.31332,24.8592 24.307816,24.855279 0 0 0 24.31332,24.8519 24.307816,24.855279 0 0 0 24.30671,-24.8519 24.307816,24.855279 0 0 0 -24.30671,-24.8592 z m 53.61674,60.4977 a 24.307816,24.855279 0 0 0 -24.30668,24.8593 24.307816,24.855279 0 0 0 24.30668,24.8519 24.307816,24.855279 0 0 0 24.30671,-24.8519 24.307816,24.855279 0 0 0 -24.30671,-24.8593 z m 27.73741,86.0275 a 24.307816,24.855279 0 0 0 -24.30671,24.8519 24.307816,24.855279 0 0 0 24.30671,24.8593 24.307816,24.855279 0 0 0 24.30666,-24.8593 24.307816,24.855279 0 0 0 -24.30666,-24.8519 z m -2.77376,91.6934 a 24.307816,24.855279 0 0 0 -24.30671,24.8519 24.307816,24.855279 0 0 0 24.30671,24.8593 24.307816,24.855279 0 0 0 24.30671,-24.8593 24.307816,24.855279 0 0 0 -24.30671,-24.8519 z"
         style="opacity:0.75400002;fill:url(#radialGradient2638);fill-opacity:1;fill-rule:evenodd;stroke:#111111;stroke-width:4.09926367;stroke-linecap:round;stroke-linejoin:round;stroke-miterlimit:4;stroke-dasharray:none;stroke-dashoffset:0;stroke-opacity:0.59215686;paint-order:markers stroke fill" />
      <path
         style="opacity:1;fill:url(#linearGradient2721);fill-opacity:1;fill-rule:evenodd;stroke:#000000;stroke-width:10.0144701;stroke-linecap:round;stroke-linejoin:round;stroke-miterlimit:4;stroke-dasharray:none;stroke-dashoffset:0;stroke-opacity:0.86797665;paint-order:markers stroke fill"
         d="m 160.73434,399.15665 43.11587,9.92649 c 19.11774,4.40145 52.80953,2.8077 54.97275,20.84564 0,0 -35.82406,363.90975 -5.81978,542.69391 7.26664,43.29911 102.60036,190.36831 119.44196,293.77601 8.29356,50.9226 27.19179,115.8631 -10.14408,154.1939 -28.61058,29.373 -113.87844,30.313 -126.7109,19.9089 -64.44882,-52.2527 -92.86232,-107.828 -113.57274,-199.801 -59.066366,-262.30768 0.73943,-679.3101 3.14632,-808.78642 0,-18.14761 16.45285,-37.15887 35.5706,-32.75743 z"
         id="rect2369"
         inkscape:connector-curvature="0"
         sodipodi:nodetypes="ssssaasscs" />
      <path
         style="opacity:1;fill:#990011;fill-opacity:0.4801762;fill-rule:evenodd;stroke:#000000;stroke-width:10.0144701;stroke-linecap:square;stroke-linejoin:round;stroke-miterlimit:4;stroke-dasharray:none;stroke-dashoffset:0;stroke-opacity:0.86797665;paint-order:markers stroke fill"
         d="m 837.04755,989.38047 41.63506,-33.19358 42.58323,-48.20366 c 25.85565,5.33048 52.96427,11.73631 84.13246,31.24333 -0.09,27.10907 -25.51876,38.72428 -43.85854,57.54385 12.72275,-2.44611 40.84384,-9.69843 70.67254,-7.13056 24.4676,2.10639 36.0677,26.26765 0.3012,68.43995 -35.76642,42.1724 -111.26881,82.5969 -180.23306,94.5084 -23.94117,-1.3258 -22.10448,-11.6438 -48.09344,-15.4602 -46.34386,-6.8055 -86.42882,8.4286 -124.09708,-0.7627 -59.30997,-14.4721 -70.63555,-58.1475 -75.01457,-100.1237 0.43864,-28.7024 8.20009,-41.7719 35.86298,-61.53933 36.64807,-26.18814 85.75436,-26.90989 121.26958,-12.78776 20.03431,7.96627 47.73669,34.95172 74.83964,27.46596 z"
         id="rect829"
         inkscape:connector-curvature="0"
         sodipodi:nodetypes="cccccszcsscssc" />
      <path
         sodipodi:nodetypes="cccccszcsscssc"
         inkscape:connector-curvature="0"
         id="path832"
         d="m 837.04755,989.38047 41.63506,-33.19358 42.58323,-48.20366 c 25.85565,5.33048 52.96427,11.73631 84.13246,31.24333 -0.09,27.10907 -25.51876,38.72428 -43.85854,57.54385 12.72275,-2.44611 40.84384,-9.69843 70.67254,-7.13056 24.4676,2.10639 36.0677,26.26765 0.3012,68.43995 -35.76642,42.1724 -111.26881,82.5969 -180.23306,94.5084 -23.94117,-1.3258 -22.10448,-11.6438 -48.09344,-15.4602 -46.34386,-6.8055 -86.42882,8.4286 -124.09708,-0.7627 -59.30997,-14.4721 -70.63555,-58.1475 -75.01457,-100.1237 0.43864,-28.7024 8.20009,-41.7719 35.86298,-61.53933 36.64807,-26.18814 85.75436,-26.90989 121.26958,-12.78776 20.03431,7.96627 47.73669,34.95172 74.83964,27.46596 z"
         style="opacity:1;fill:#2d2d2d;fill-opacity:1;fill-rule:evenodd;stroke:#000000;stroke-width:6.30911589;stroke-linecap:round;stroke-linejoin:round;stroke-miterlimit:4;stroke-dasharray:none;stroke-dashoffset:0;stroke-opacity:0.86797665;paint-order:markers stroke fill" />
      <path
         style="opacity:0.53500001;fill:url(#pattern2427);fill-opacity:1;fill-rule:evenodd;stroke:#f5f5f5;stroke-width:5.47514153;stroke-linecap:round;stroke-linejoin:round;stroke-miterlimit:4;stroke-dasharray:none;stroke-dashoffset:0;stroke-opacity:0.93392071;paint-order:markers stroke fill"
         d="m 921.57955,935.87438 c 0,0 46.3533,12.07792 42.08466,25.12228 -40.23915,43.92524 -39.25609,37.84545 -54.55713,65.33164 29.82799,0.9826 125.21842,-31.79872 100.22642,-1.9633 -31.673,36.5461 -93.76149,80.1801 -154.83279,90.5025 -21.2011,-1.1488 -24.34728,-18.6926 -47.36181,-22 -41.03981,-5.8975 -87.65028,21.1926 -124.21216,3.6403 -46.72843,-22.433 -40.86624,-61.4046 -24.42976,-87.627 16.07903,-25.65198 67.64539,-43.47439 93.80304,-25.80238 84.49365,57.08358 100.64325,39.10798 169.27953,-47.20404 z"
         id="path834"
         inkscape:connector-curvature="0"
         sodipodi:nodetypes="cccccssasc" />
      <path
         style="opacity:1;fill:#585858;fill-opacity:0.98678415;fill-rule:evenodd;stroke:#000000;stroke-width:10.0144701;stroke-linecap:square;stroke-linejoin:round;stroke-miterlimit:4;stroke-dasharray:none;stroke-dashoffset:0;stroke-opacity:0.86797665;paint-order:markers stroke fill"
         d="M 645.72171,15.154297 C 438.86476,15.413198 232.53788,166.29686 171.49863,396.12394 l 69.71119,18.34043 c 19.85303,-77.41719 54.46223,-148.61379 101.66515,-207.11898 77.5289,-96.09243 189.0206,-145.555391 304.35025,-158.498713 7.58428,-0.851177 15.20078,-1.21405 22.82787,-1.143101 53.38966,0.49664 107.2728,22.259074 153.88566,46.726356 44.91304,23.575048 85.95037,57.701728 112.60171,98.877278 72.12874,111.43684 112.06504,240.46087 112.06504,376.35609 0,132.15445 -41.1957,259.04019 -114.76451,354.29929 l 54.323,17.43745 c 83.11941,-101.87629 129.49771,-236.92293 129.59251,-377.35277 0,-145.57522 -49.7321,-285.1881 -138.25567,-388.12547 C 890.97716,72.984433 770.91325,15.154645 645.72171,15.154297 Z"
         id="path817"
         inkscape:connector-curvature="0"
         sodipodi:nodetypes="cccsssssscccsc" />
      <ellipse
         style="opacity:1;fill:url(#radialGradient2391);fill-opacity:1;fill-rule:evenodd;stroke:#000000;stroke-width:15.88590336;stroke-linecap:round;stroke-linejoin:round;stroke-miterlimit:4;stroke-dasharray:none;stroke-dashoffset:0;stroke-opacity:0.86797665;paint-order:markers stroke fill"
         id="path2372"
         cx="1297.4456"
         cy="198.70201"
         rx="142.009"
         ry="89.261986"
         transform="matrix(0.33881437,0.94085324,-0.96517435,0.2616075,0,0)" />
      <ellipse
         cy="1367.8044"
         cx="414.60364"
         id="circle2656"
         style="opacity:0.75400002;fill:url(#radialGradient2658);fill-opacity:1;fill-rule:evenodd;stroke:#111111;stroke-width:4.37818384;stroke-linecap:round;stroke-linejoin:round;stroke-miterlimit:4;stroke-dasharray:none;stroke-dashoffset:0;stroke-opacity:0.59215686;paint-order:markers stroke fill"
         rx="27.438776"
         ry="25.268721" />
      <path
         style="opacity:1;fill:url(#radialGradient2723);fill-opacity:1;fill-rule:evenodd;stroke:#000000;stroke-width:8.90694809;stroke-linecap:round;stroke-linejoin:round;stroke-miterlimit:4;stroke-dasharray:none;stroke-dashoffset:0;stroke-opacity:0.86797665;paint-order:markers stroke fill"
         d="m 264.68371,1223.9285 c 13.75537,78.899 208.53662,143.4876 208.53662,143.4876 l 726.42047,395.7777 129.4326,31.7942 c 14.3026,3.5133 13.288,27.218 17.0231,38.578 l 9.2302,28.0722 c 3.7353,11.3601 -17.0456,32.0846 -29.5838,25.4634 l -915.2469,-496.0113 -71.59142,-24.572 c 0,0 -101.1655,-16.185 -128.01287,-51.1682 -19.79163,-25.7892 -31.18729,-72.0255 -7.11107,-94.5129 14.27496,-13.333 52.01374,-13.7484 60.90329,3.091 5e-5,10e-5 -2.4e-4,2e-4 -2.2e-4,3e-4 z"
         id="rect2374"
         inkscape:connector-curvature="0"
         sodipodi:nodetypes="accssssccaaaa" />
      <path
         style="opacity:1;fill:#ccd1d4;fill-opacity:1;fill-rule:evenodd;stroke:#000000;stroke-width:10.0144701;stroke-linecap:square;stroke-linejoin:round;stroke-miterlimit:4;stroke-dasharray:none;stroke-dashoffset:0;stroke-opacity:0.86797665;paint-order:markers stroke fill"
         d="M 639.10343,15.154297 A 478.65419,548.8928 0 0 0 182.27759,402.07984 l 46.64238,12.38453 c 0.33521,-1.28905 0.6858,-2.57169 1.0293,-3.85726 l -9.21883,-2.60906 A 442.25356,540.65739 0 0 1 642.81705,26.878119 442.25356,540.65739 0 0 1 1085.0697,567.53476 442.25356,540.65739 0 0 1 966.52949,935.12707 l 19.81751,6.27297 A 478.65419,548.8928 0 0 0 1117.7565,564.04727 478.65419,548.8928 0 0 0 639.10343,15.154297 Z"
         id="path2357"
         inkscape:connector-curvature="0" />
      <path
         style="opacity:1;fill:#f0f0f0;fill-opacity:1;fill-rule:evenodd;stroke:#000000;stroke-width:3.02236676;stroke-linecap:round;stroke-linejoin:round;stroke-miterlimit:4;stroke-dasharray:none;stroke-dashoffset:0;stroke-opacity:0.98237885;paint-order:markers stroke fill"
         d="m 474.41739,1380.6083 668.94051,369.44 -8.2279,11.6355 1.2124,14.5959 -669.60561,-361.959 0.50079,-22.9431 z"
         id="rect2429"
         inkscape:connector-curvature="0"
         sodipodi:nodetypes="ccccccc" />
      <path
         style="fill:none;fill-rule:evenodd;stroke:#000000;stroke-width:2.49611402;stroke-linecap:butt;stroke-linejoin:miter;stroke-miterlimit:4;stroke-dasharray:none;stroke-opacity:1"
         d="m 383.85901,1336.2174 -12.93477,47.6471"
         id="path2432"
         inkscape:connector-curvature="0"
         inkscape:path-effect="#path-effect2434"
         inkscape:original-d="m 383.85901,1336.2174 -12.93477,47.6471" />
      <rect
         style="opacity:1;fill:#d3d3d3;fill-opacity:1;fill-rule:evenodd;stroke:#000000;stroke-width:4.95934868;stroke-linecap:round;stroke-linejoin:round;stroke-miterlimit:4;stroke-dasharray:none;stroke-dashoffset:0;stroke-opacity:0.98237885;paint-order:markers stroke fill"
         id="rect2436"
         width="137.88443"
         height="38.476677"
         x="1970.5094"
         y="955.33478"
         ry="19.238338"
         rx="15.986599"
         transform="matrix(0.87344951,0.48691474,-0.52315295,0.85223881,0,0)" />
      <path
         style="opacity:0.775;fill:url(#radialGradient2504);fill-opacity:1;fill-rule:evenodd;stroke:none;stroke-width:7.38500023;stroke-linecap:round;stroke-linejoin:round;stroke-miterlimit:4;stroke-dasharray:none;stroke-dashoffset:0;stroke-opacity:0.98237885;paint-order:markers stroke fill;filter:url(#filter2570)"
         d="m 618.02902,1051.5818 a 16.526411,24.789616 0 0 1 -16.52641,24.7897 16.526411,24.789616 0 0 1 -16.52641,-24.7897 16.526411,24.789616 0 0 1 16.52641,-24.7896 16.526411,24.789616 0 0 1 16.52641,24.7896 z"
         id="path2455"
         inkscape:connector-curvature="0"
         transform="matrix(0.90770365,0.90741943,-0.85779074,1.7802176,991.00589,-1416.4936)" />
      <path
         style="opacity:0.775;fill:#f9f9f9;fill-opacity:0.59030845;fill-rule:evenodd;stroke:none;stroke-width:7.38500023;stroke-linecap:round;stroke-linejoin:round;stroke-miterlimit:4;stroke-dasharray:none;stroke-dashoffset:0;stroke-opacity:0.98237885;paint-order:markers stroke fill;filter:url(#filter2609)"
         d="m 562.04664,1105.1796 c 39.10101,67.3193 51.24228,194.5063 39.7317,201.1919 -11.51051,6.6857 -32.08889,-116.9653 -71.18989,-184.2847 -39.10102,-67.3193 -122.81866,-138.99807 -111.30805,-145.68366 11.51052,-6.68572 103.66524,61.45716 142.76624,128.77646 z"
         id="path2574"
         inkscape:connector-curvature="0"
         sodipodi:nodetypes="scscs"
         transform="matrix(1.043563,0,0,0.96103055,-4.1838882,0.59055463)" />
      <path
         transform="matrix(-1.043563,0,0,1.1596932,-4.1838882,-94.70219)"
         style="opacity:0.47099998;fill:url(#radialGradient2626);fill-opacity:1;fill-rule:evenodd;stroke:#111111;stroke-width:9.31900978;stroke-linecap:round;stroke-linejoin:round;stroke-miterlimit:4;stroke-dasharray:none;stroke-dashoffset:0;stroke-opacity:0.97797361;paint-order:markers stroke fill;filter:url(#filter2616)"
         d="m -178.21053,479.67119 c 16.99427,0 29.43773,3.26464 30.67559,18.09095 l 24.83262,297.42934 -2.92148,222.93152 c -0.19496,14.8766 -13.68132,26.8554 -30.67559,26.8554 -16.99428,0 -31.19688,-11.9867 -30.67559,-26.8554 l 7.30371,-208.3241 -29.21485,-303.27231 c -1.42661,-14.80934 13.68131,-26.8554 30.67559,-26.8554 z"
         id="rect2613"
         inkscape:connector-curvature="0"
         sodipodi:nodetypes="sscssscss" />
      <ellipse
         style="opacity:0.79599998;fill:#040404;fill-opacity:0.88546256;fill-rule:evenodd;stroke:#111111;stroke-width:3.69033194;stroke-linecap:round;stroke-linejoin:round;stroke-miterlimit:4;stroke-dasharray:none;stroke-dashoffset:0;stroke-opacity:0.59215686;paint-order:markers stroke fill"
         id="path2628"
         cx="1222.2946"
         cy="1798.5874"
         rx="6.097506"
         ry="5.6152711" />
      <ellipse
         cy="1278.1466"
         cx="238.60616"
         id="circle2660"
         style="opacity:0.75400002;fill:url(#radialGradient2662);fill-opacity:1;fill-rule:evenodd;stroke:#111111;stroke-width:4.43181896;stroke-linecap:round;stroke-linejoin:round;stroke-miterlimit:4;stroke-dasharray:none;stroke-dashoffset:0;stroke-opacity:0.59215686;paint-order:markers stroke fill"
         rx="22.865646"
         ry="30.883991" />
      <path
         style="opacity:0.70499998;fill:none;fill-rule:evenodd;stroke:#000000;stroke-width:5.18767786;stroke-linecap:butt;stroke-linejoin:miter;stroke-miterlimit:4;stroke-dasharray:none;stroke-opacity:1;filter:url(#filter2670)"
         d="m 1139.3788,1826.4754 -14.6074,23.3718 v 23.372 0 l -2.9215,-2.3372"
         id="path2664"
         inkscape:connector-curvature="0"
         transform="matrix(1.043563,0,0,0.96103055,-4.1838882,0.59055463)" />
      <path
         inkscape:connector-curvature="0"
         id="path2674"
         d="m 449.90853,1408.7032 -14.6074,23.3718 v 23.372 0 l -2.9215,-2.3372"
         style="opacity:0.78399999;fill:none;fill-rule:evenodd;stroke:#000000;stroke-width:2.28755713;stroke-linecap:butt;stroke-linejoin:miter;stroke-miterlimit:4;stroke-dasharray:none;stroke-opacity:1;filter:url(#filter2670)"
         transform="matrix(1.043563,0,0,1.2613522,-4.1838882,-422.47359)" />
      <path
         style="opacity:0.656;fill:none;fill-rule:evenodd;stroke:#000000;stroke-width:2.00289392;stroke-linecap:butt;stroke-linejoin:miter;stroke-miterlimit:4;stroke-dasharray:none;stroke-opacity:1"
         d="m 464.70128,1393.7911 671.52982,369.2654"
         id="path2676"
         inkscape:connector-curvature="0" />
      <path
         inkscape:connector-curvature="0"
         id="path2686"
         d="m 1152.8065,1833.7057 -14.6074,23.3718 v 23.372 0 l -2.9215,-2.3372"
         style="opacity:0.63800001;fill:none;fill-rule:evenodd;stroke:#000000;stroke-width:5.18767786;stroke-linecap:butt;stroke-linejoin:miter;stroke-miterlimit:4;stroke-dasharray:none;stroke-opacity:1;filter:url(#filter2670)"
         transform="matrix(1.043563,0,0,1.0035024,-4.1838882,-77.290416)" />
    </g>
  </g>
</svg>
