<?xml version="1.0" encoding="UTF-8" standalone="no"?>
<!-- Created with Inkscape (http://www.inkscape.org/) -->

<svg
   xmlns:dc="http://purl.org/dc/elements/1.1/"
   xmlns:cc="http://creativecommons.org/ns#"
   xmlns:rdf="http://www.w3.org/1999/02/22-rdf-syntax-ns#"
   xmlns:svg="http://www.w3.org/2000/svg"
   xmlns="http://www.w3.org/2000/svg"
   xmlns:xlink="http://www.w3.org/1999/xlink"
   xmlns:sodipodi="http://sodipodi.sourceforge.net/DTD/sodipodi-0.dtd"
   xmlns:inkscape="http://www.inkscape.org/namespaces/inkscape"
   version="1.1"
   width="256"
   height="256"
   id="svg3892"
   inkscape:version="0.48.4 r9939"
   sodipodi:docname="empathy.svg">
  <sodipodi:namedview
     pagecolor="#ffffff"
     bordercolor="#666666"
     borderopacity="1"
     objecttolerance="10"
     gridtolerance="10"
     guidetolerance="10"
     inkscape:pageopacity="0"
     inkscape:pageshadow="2"
     inkscape:window-width="1278"
     inkscape:window-height="973"
     id="namedview34"
     showgrid="false"
     inkscape:zoom="1.6204531"
     inkscape:cx="125.89972"
     inkscape:cy="92.781818"
     inkscape:window-x="0"
     inkscape:window-y="28"
     inkscape:window-maximized="1"
     inkscape:current-layer="g3930" />
  <metadata
     id="metadata36">
    <rdf:RDF>
      <cc:Work
         rdf:about="">
        <dc:format>image/svg+xml</dc:format>
        <dc:type
           rdf:resource="http://purl.org/dc/dcmitype/StillImage" />
        <dc:title></dc:title>
      </cc:Work>
    </rdf:RDF>
  </metadata>
  <defs
     id="defs3894">
    <linearGradient
       id="linearGradient3946">
      <stop
         style="stop-color:#ff49de;stop-opacity:1;"
         offset="0"
         id="stop3948" />
      <stop
         id="stop3956"
         offset="0.25"
         style="stop-color:#e99ff2;stop-opacity:1;" />
      <stop
         id="stop3954"
         offset="0.5"
         style="stop-color:#49c7ee;stop-opacity:1;" />
      <stop
         style="stop-color:#ff49fa;stop-opacity:1;"
         offset="1"
         id="stop3950" />
    </linearGradient>
    <radialGradient
       cx="62.625"
       cy="4.625"
       r="10.625"
       fx="62.625"
       fy="4.625"
       id="radialGradient3890-540-810"
       xlink:href="#linearGradient8838-561-565"
       gradientUnits="userSpaceOnUse"
       gradientTransform="matrix(2.1647059,0,0,0.7529402,-111.56471,36.517647)" />
    <linearGradient
       id="linearGradient8838-561-565">
      <stop
         id="stop4621"
         style="stop-color:#0a0a0a;stop-opacity:1"
         offset="0" />
      <stop
         id="stop4623"
         style="stop-color:#0a0a0a;stop-opacity:0"
         offset="1" />
    </linearGradient>
    <radialGradient
       cx="20.248743"
       cy="4.9115634"
       r="23"
       fx="20.248743"
       fy="4.9115634"
       id="radialGradient2860-830-797-965-521-124-769-292-682-235"
       xlink:href="#linearGradient2867-449-88-871-390-598-476-591-434-148"
       gradientUnits="userSpaceOnUse"
       gradientTransform="matrix(0,1.7703635,-1.4881952,0,30.166509,-32.859046)" />
    <linearGradient
       id="linearGradient2867-449-88-871-390-598-476-591-434-148">
      <stop
         id="stop4627"
         style="stop-color:#51cfee;stop-opacity:1;"
         offset="0" />
      <stop
         id="stop4629"
         style="stop-color:#49a3d2;stop-opacity:1;"
         offset="0.26238" />
      <stop
         id="stop4631"
         style="stop-color:#3470b4;stop-opacity:1;"
         offset="0.704952" />
      <stop
         id="stop4633"
         style="stop-color:#1b5699;stop-opacity:1;"
         offset="1" />
    </linearGradient>
    <linearGradient
       x1="18.138792"
       y1="45.21809"
       x2="18.138792"
       y2="2.9999995"
       id="linearGradient2862-249-451-585-788-999-493-675-437-502"
       xlink:href="#linearGradient3707-319-631"
       gradientUnits="userSpaceOnUse" />
    <linearGradient
       id="linearGradient3707-319-631">
      <stop
         id="stop4637"
         style="stop-color:#254b6d;stop-opacity:1"
         offset="0" />
      <stop
         id="stop4639"
         style="stop-color:#415b73;stop-opacity:1"
         offset="0.5" />
      <stop
         id="stop4641"
         style="stop-color:#6195b5;stop-opacity:1"
         offset="1" />
    </linearGradient>
    <radialGradient
       cx="24.016491"
       cy="2.2461414"
       r="21.995602"
       fx="24.016491"
       fy="2.2461414"
       id="radialGradient2857-700-249"
       xlink:href="#linearGradient4593-546-445"
       gradientUnits="userSpaceOnUse"
       gradientTransform="matrix(-1.4868718e-8,1.4132436,-1.2268499,-1.2907672e-8,26.77217,-29.044021)" />
    <linearGradient
       id="linearGradient4593-546-445">
      <stop
         id="stop4645"
         style="stop-color:#ffffff;stop-opacity:0.70200002"
         offset="0" />
      <stop
         id="stop4647"
         style="stop-color:#ffffff;stop-opacity:0"
         offset="1" />
    </linearGradient>
    <radialGradient
       cx="90.746872"
       cy="32.164093"
       r="23"
       fx="90.746872"
       fy="32.164093"
       id="radialGradient3847-112-902"
       xlink:href="#linearGradient3725-941-985"
       gradientUnits="userSpaceOnUse"
       gradientTransform="matrix(0.32729625,-0.22730582,0.12062179,0.17368257,-25.123657,54.138634)" />
    <linearGradient
       id="linearGradient3725-941-985">
      <stop
         id="stop4651"
         style="stop-color:#54e1fa;stop-opacity:1"
         offset="0" />
      <stop
         id="stop4653"
         style="stop-color:#05a4dd;stop-opacity:0"
         offset="1" />
    </linearGradient>
    <radialGradient
       r="10.625"
       fy="4.625"
       fx="62.625"
       cy="4.625"
       cx="62.625"
       gradientTransform="matrix(2.1647059,0,0,0.7529402,-111.56471,36.517647)"
       gradientUnits="userSpaceOnUse"
       id="radialGradient3665"
       xlink:href="#linearGradient8838-545-634-701-934"
       inkscape:collect="always" />
    <radialGradient
       r="23"
       fy="4.9115634"
       fx="20.248743"
       cy="4.9115634"
       cx="20.248743"
       gradientTransform="matrix(0,1.8560646,-1.5602369,0,30.635076,-35.038403)"
       gradientUnits="userSpaceOnUse"
       id="radialGradient3660"
       xlink:href="#linearGradient3671-841-686-741-866-985-469-576-180-780-926-793-371-248-664-131-552-717-210"
       inkscape:collect="always" />
    <linearGradient
       y2="31.631201"
       x2="33.397804"
       y1="8.9829054"
       x1="27.892366"
       gradientTransform="matrix(1.015646,-0.03492084,0.03492084,1.0156461,-1.2558846,0.3012604)"
       gradientUnits="userSpaceOnUse"
       id="linearGradient3653"
       xlink:href="#linearGradient19229-104-621-395-322-303-6-479"
       inkscape:collect="always" />
    <linearGradient
       y2="31.631201"
       x2="33.397804"
       y1="8.9829054"
       x1="27.892366"
       gradientTransform="matrix(1.015646,-0.03492084,0.03492084,1.0156461,-1.1515525,1.2343302)"
       gradientUnits="userSpaceOnUse"
       id="linearGradient3650"
       xlink:href="#linearGradient4150-0"
       inkscape:collect="always" />
    <linearGradient
       y2="31.631201"
       x2="33.397804"
       y1="8.9829054"
       x1="27.892366"
       gradientTransform="matrix(1.015646,-0.03492084,0.03492084,1.0156461,-1.1515525,1.2343302)"
       gradientUnits="userSpaceOnUse"
       id="linearGradient3647"
       xlink:href="#linearGradient4150-0"
       inkscape:collect="always" />
    <linearGradient
       y2="31.631201"
       x2="33.397804"
       y1="8.9829054"
       x1="27.892366"
       gradientTransform="matrix(1.015646,-0.03492084,0.03492084,1.0156461,-1.2558846,0.3012604)"
       gradientUnits="userSpaceOnUse"
       id="linearGradient3645"
       xlink:href="#linearGradient19229-104-621-395-322-303-6-479"
       inkscape:collect="always" />
    <radialGradient
       r="21.995602"
       fy="2.2461414"
       fx="24.016491"
       cy="2.2461414"
       cx="24.016491"
       gradientTransform="matrix(-1.4868718e-8,1.4132436,-1.2268499,-1.2907672e-8,26.77217,-29.044021)"
       gradientUnits="userSpaceOnUse"
       id="radialGradient3643"
       xlink:href="#linearGradient4593-729-418-296-16"
       inkscape:collect="always" />
    <linearGradient
       y2="2.9999995"
       x2="18.138792"
       y1="45.21809"
       x1="18.138792"
       gradientUnits="userSpaceOnUse"
       id="linearGradient3641"
       xlink:href="#linearGradient3707-445-98-777-536-603-435-695-345-307-501-414-743-811-524-159-340-444-727"
       inkscape:collect="always" />
    <radialGradient
       r="23"
       fy="4.9115634"
       fx="20.248743"
       cy="4.9115634"
       cx="20.248743"
       gradientTransform="matrix(0,1.7703635,-1.4881952,0,30.166509,-32.859046)"
       gradientUnits="userSpaceOnUse"
       id="radialGradient3639"
       xlink:href="#linearGradient3671-841-686-741-866-985-469-576-180-780-926-793-371-248-664-131-552-717-210"
       inkscape:collect="always" />
    <radialGradient
       r="10.625"
       fy="4.625"
       fx="62.625"
       cy="4.625"
       cx="62.625"
       gradientTransform="matrix(2.1647059,0,0,0.7529402,-111.56471,36.517647)"
       gradientUnits="userSpaceOnUse"
       id="radialGradient3637"
       xlink:href="#linearGradient8838-545-634-701-934"
       inkscape:collect="always" />
    <radialGradient
       gradientTransform="matrix(2.1647059,0,0,0.7529402,-111.56471,36.517647)"
       gradientUnits="userSpaceOnUse"
       xlink:href="#linearGradient8838-545-634-701-934"
       id="radialGradient9336"
       fy="4.625"
       fx="62.625"
       r="10.625"
       cy="4.625"
       cx="62.625" />
    <linearGradient
       id="linearGradient8838-545-634-701-934">
      <stop
         offset="0"
         style="stop-color:#000000;stop-opacity:1"
         id="stop7285" />
      <stop
         offset="1"
         style="stop-color:#000000;stop-opacity:0"
         id="stop7287" />
    </linearGradient>
    <linearGradient
       id="linearGradient3707-445-98-777-536-603-435-695-345-307-501-414-743-811-524-159-340-444-727">
      <stop
         offset="0"
         style="stop-color:#878787;stop-opacity:1"
         id="stop7301" />
      <stop
         offset="1"
         style="stop-color:#c8c8c8;stop-opacity:1"
         id="stop7303" />
    </linearGradient>
    <linearGradient
       gradientUnits="userSpaceOnUse"
       xlink:href="#linearGradient3707-445-98-777-536-603-435-695-345-307-501-414-743-811-524-159-340-444-727"
       id="linearGradient2943-563-554-523-613-30-653-378-569-516-968-418-333-996-227-34-908-890-638"
       y2="2.9999995"
       x2="18.138792"
       y1="45.21809"
       x1="18.138792" />
    <linearGradient
       id="linearGradient3671-841-686-741-866-985-469-576-180-780-926-793-371-248-664-131-552-717-210">
      <stop
         offset="0"
         style="stop-color:#ffffff;stop-opacity:1"
         id="stop7291" />
      <stop
         offset="0.26238"
         style="stop-color:#f0f0f0;stop-opacity:1;"
         id="stop7293" />
      <stop
         offset="0.704952"
         style="stop-color:#cbcdcf;stop-opacity:1;"
         id="stop7295" />
      <stop
         offset="1"
         style="stop-color:#7e8c9a;stop-opacity:1;"
         id="stop7297" />
    </linearGradient>
    <radialGradient
       gradientTransform="matrix(0,1.7703635,-1.4881952,0,30.166509,-32.859046)"
       gradientUnits="userSpaceOnUse"
       xlink:href="#linearGradient3671-841-686-741-866-985-469-576-180-780-926-793-371-248-664-131-552-717-210"
       id="radialGradient2941-65-374-302-438-697-619-633-214-34-360-274-687-474-771-698-130-212-908"
       fy="4.9115634"
       fx="20.248743"
       r="23"
       cy="4.9115634"
       cx="20.248743" />
    <linearGradient
       id="linearGradient4593-729-418-296-16">
      <stop
         offset="0"
         style="stop-color:#ffffff;stop-opacity:0.70200002"
         id="stop7307" />
      <stop
         offset="1"
         style="stop-color:#ffffff;stop-opacity:0"
         id="stop7309" />
    </linearGradient>
    <radialGradient
       gradientTransform="matrix(-1.4868718e-8,1.4132436,-1.2268499,-1.2907672e-8,26.77217,-29.044021)"
       gradientUnits="userSpaceOnUse"
       xlink:href="#linearGradient4593-729-418-296-16"
       id="radialGradient2938-776-769-2-657"
       fy="2.2461414"
       fx="24.016491"
       r="21.995602"
       cy="2.2461414"
       cx="24.016491" />
    <linearGradient
       id="linearGradient19229-104-621-395-322-303-6-479">
      <stop
         offset="0"
         style="stop-color:#aa9c1e;stop-opacity:1;"
         id="stop8988" />
      <stop
         offset="1"
         style="stop-color:#d61a1a;stop-opacity:1;"
         id="stop8990" />
    </linearGradient>
    <linearGradient
       gradientTransform="matrix(1.015646,-0.03492084,0.03492084,1.0156461,-1.2558846,0.3012604)"
       gradientUnits="userSpaceOnUse"
       xlink:href="#linearGradient19229-104-621-395-322-303-6-479"
       id="linearGradient7888-457"
       y2="31.631201"
       x2="33.397804"
       y1="8.9829054"
       x1="27.892366" />
    <linearGradient
       id="linearGradient4150-0">
      <stop
         offset="0"
         style="stop-color:#fce94f;stop-opacity:1"
         id="stop4152-0" />
      <stop
         offset="1"
         style="stop-color:#ff8181;stop-opacity:1"
         id="stop4154-70" />
    </linearGradient>
    <linearGradient
       gradientTransform="matrix(1.015646,-0.03492084,0.03492084,1.0156461,-1.1515525,1.2343302)"
       gradientUnits="userSpaceOnUse"
       xlink:href="#linearGradient4150-0"
       id="linearGradient9222"
       y2="31.631201"
       x2="33.397804"
       y1="8.9829054"
       x1="27.892366" />
    <linearGradient
       inkscape:collect="always"
       xlink:href="#linearGradient2867-449-88-871-390-598-476-591-434-148"
       id="linearGradient3958"
       x1="-3.4091759"
       y1="39.325596"
       x2="32.856747"
       y2="39.325596"
       gradientUnits="userSpaceOnUse"
       gradientTransform="matrix(1.476934,0,0,1.4626834,10.538779,-15.604815)" />
    <linearGradient
       inkscape:collect="always"
       xlink:href="#linearGradient4593-729-418-296-16"
       id="linearGradient3835"
       x1="1.6614611"
       y1="23.674068"
       x2="46.532169"
       y2="23.674068"
       gradientUnits="userSpaceOnUse" />
    <linearGradient
       inkscape:collect="always"
       xlink:href="#linearGradient2867-449-88-871-390-598-476-591-434-148"
       id="linearGradient3982"
       gradientUnits="userSpaceOnUse"
       gradientTransform="matrix(1.3687144,0.55493697,-0.54958251,1.3555079,33.498153,-21.590675)"
       x1="-3.4091759"
       y1="39.325596"
       x2="32.856747"
       y2="39.325596" />
  </defs>
  <g
     id="g3101"
     transform="matrix(5.4171804,0,0,5.4171804,-2.2353454,1.0207932)">
    <g
       id="g3930"
       transform="matrix(0.92778328,0,0,0.92778328,-8.06308,-13.86581)">
      <path
         style="fill:#d0d0d0"
         d="m 35.364013,62.04413 c -1.836337,-1.151089 -2.937474,-2.837357 -3.121716,-4.780555 -0.133443,-1.407426 -0.0972,-2.397828 0.149836,-4.09474 0.150639,-1.034739 0.178498,-1.951807 0.101245,-3.332692 -0.171563,-3.066718 -0.03462,-5.934689 0.358675,-7.511685 0.344902,-1.382954 2.449079,-6.587884 3.134897,-7.754632 0.942136,-1.602722 2.369935,-3.030832 3.097304,-3.097982 0.938752,-0.08667 2.041898,0.832407 4.201349,3.499825 1.519096,1.876532 2.652449,3.141953 3.478483,3.883821 0.511007,0.45894 0.779464,0.604729 2.001999,1.087209 1.618305,0.638662 2.803487,0.90618 5.136195,1.159289 2.029472,0.220206 3.96578,0.580195 4.809584,0.894177 0.555781,0.206799 0.666829,0.292309 0.80468,0.61971 0.40249,0.955852 -0.227474,2.886403 -1.851632,5.674374 -1.316766,2.260315 -3.936082,5.491215 -5.45767,6.73198 -0.828342,0.675465 -2.495151,1.747169 -3.905362,2.511026 -1.446188,0.783341 -3.040094,1.827361 -4.087969,2.677651 -1.533093,1.244007 -3.656589,2.452492 -4.676056,2.661145 -1.196318,0.244846 -3.048612,-0.122574 -4.173874,-0.827934 z m 6.661428,-2.720496 c 0.560231,-0.850289 0.871741,-2.267513 0.703282,-3.199544 -0.137302,-0.759629 -0.667811,-1.793886 -1.229834,-2.39764 -0.425778,-0.457386 -0.63237,-0.586995 -1.42369,-0.893171 -1.864015,-0.721223 -3.43169,-0.466896 -4.862027,0.788769 -0.512413,0.449838 -0.631734,0.62366 -0.845648,1.231919 -0.241784,0.687471 -0.240451,0.712873 0.04497,0.868471 0.161717,0.08815 0.857213,0.236968 1.545559,0.330676 0.990398,0.134835 1.437251,0.254866 2.141639,0.575272 0.847699,0.385584 0.940549,0.462594 1.948634,1.615862 0.58219,0.666036 1.123481,1.260512 1.20287,1.321054 0.243638,0.185798 0.55705,0.08798 0.774244,-0.241668 z m 9.133354,-7.705415 c 0.445159,-0.418565 0.796098,-0.792422 0.779868,-0.830792 -0.0506,-0.119605 -4.362992,-4.085427 -4.417418,-4.062401 -0.07013,0.02965 2.635616,5.570946 2.742874,5.617331 0.04689,0.02031 0.449517,-0.305573 0.894676,-0.724138 z M 38.972508,44.089503 c 1.653911,-0.173869 2.994895,-0.344996 2.979968,-0.380287 -0.03874,-0.09158 -5.455602,-1.572942 -5.6382,-1.5419 -0.145249,0.02468 -0.211811,0.261142 -0.513713,1.82503 -0.03412,0.176715 -0.01098,0.342001 0.0514,0.367294 0.06238,0.02529 1.46663,-0.09627 3.120542,-0.270137 z M 18.011297,47.12667 C 17.196849,46.528703 16.571625,45.88583 16.166192,45.229484 15.509216,44.165915 14.696861,42.29482 14.452385,41.282077 14.218718,40.314105 13.779336,39.311943 12.983513,37.931817 12.113487,36.423002 10.532302,32.532474 10.287897,31.299213 9.8563377,29.12158 9.6288521,25.084236 9.7997202,22.635207 c 0.077558,-1.111623 0.5495038,-2.890722 0.9633108,-3.631399 0.396785,-0.71021 1.0023,-1.049369 1.847935,-1.035057 0.677298,0.01146 2.78132,0.828053 6.716637,2.606796 1.884206,0.851658 2.373832,1.034872 3.112906,1.164875 1.46118,0.257022 4.15731,-0.187311 6.59213,-1.086413 1.307409,-0.482784 3.762804,-1.119343 4.695388,-1.217273 1.322509,-0.138876 1.707235,0.197127 2.181086,1.904872 0.273365,0.985201 0.29624,2.036794 0.09604,4.414841 -0.176567,2.097258 -0.470714,3.545958 -1.271545,6.262424 -0.570103,1.933828 -0.641615,2.111915 -1.354049,3.372165 -0.413716,0.731773 -1.12673,1.836131 -1.584491,2.454126 -1.343737,1.814103 -2.077463,2.975663 -3.009628,4.76453 -0.964865,1.851624 -2.184213,3.613458 -2.981421,4.307859 -0.992098,0.864155 -2.665873,1.371501 -4.280504,1.297483 -0.730138,-0.03347 -1.153628,-0.132329 -2.11545,-0.493815 -0.661409,-0.248579 -1.289906,-0.516187 -1.396727,-0.594523 z m 3.266399,-0.08791 c 0.436988,0.05034 1.086412,0.04894 1.443162,-0.0031 0.812007,-0.118493 1.932541,-0.5886 2.374159,-0.996052 0.661944,-0.610736 1.785724,-2.259776 2.586677,-3.795703 0.912193,-1.749241 1.833465,-3.223579 3.046279,-4.875056 1.054374,-1.435729 1.901831,-2.840627 2.289861,-3.796102 0.331755,-0.817009 1.3335,-4.312547 1.536317,-5.361111 0.169467,-0.876152 0.427573,-3.63501 0.447887,-4.78738 0.01913,-1.085546 -0.298876,-2.551343 -0.603746,-2.782835 -0.328806,-0.249686 -2.847636,0.30596 -5.01856,1.107059 -2.147687,0.792526 -4.952589,1.312732 -6.531983,1.211445 -1.074866,-0.06893 -2.91261,-0.725572 -5.249197,-1.875574 -3.596744,-1.770217 -5.188998,-2.278131 -5.643137,-1.800116 -0.456192,0.480177 -0.911878,2.186096 -1.012272,3.78958 -0.167305,2.672149 0.05903,6.135307 0.543797,8.320619 0.257677,1.161603 1.776194,4.705664 2.859251,6.673189 0.429073,0.779477 0.887921,1.815082 1.019659,2.301351 0.317398,1.171552 1.140793,3.215725 1.638967,4.068927 0.802077,1.373677 2.478616,2.394177 4.272879,2.600877 z m -2.221514,-2.94124 c -1.573651,-1.059919 -2.516372,-3.440161 -1.932689,-4.879776 0.366791,-0.904664 0.453831,-0.905442 2.680272,-0.024 1.808431,0.715952 1.904853,0.741665 2.592403,0.691306 0.392761,-0.02877 1.265385,-0.2275 1.939166,-0.441625 1.238586,-0.393617 1.890196,-0.409783 2.156102,-0.05349 0.217606,0.291577 0.215626,1.115076 -0.0048,2.007766 -0.250183,1.01304 -0.696802,1.740705 -1.496318,2.438023 -0.727036,0.634076 -2.192207,1.18011 -3.100366,1.15543 -0.816034,-0.02217 -2.177193,-0.451424 -2.833743,-0.893635 z M 13.081125,30.130033 c -0.02359,-0.05576 0.201193,-0.703397 0.499519,-1.439198 0.455219,-1.122767 0.574357,-1.33722 0.74112,-1.334087 0.237525,0.0045 5.86795,4.566044 6.009317,4.868547 0.06209,0.132852 0.04531,0.231452 -0.04553,0.26766 -0.07911,0.03154 -1.597077,-0.413319 -3.373275,-0.988547 -3.56366,-1.154101 -3.769161,-1.227819 -3.831158,-1.374375 z m 11.264639,2.46065 c 0.03347,-0.08256 1.309585,-0.911613 2.835797,-1.842326 3.541421,-2.159626 3.714357,-2.256193 3.90334,-2.179571 0.181977,0.07378 0.876282,2.639709 0.779115,2.879364 -0.07152,0.1764 -7.132966,1.473545 -7.410088,1.361188 -0.09297,-0.03769 -0.141643,-0.136082 -0.108164,-0.218655 z"
         id="path3944"
         inkscape:connector-curvature="0" />
      <path
         style="fill:#afafaf"
         d="M 35.078596,61.739056 C 34.209223,61.14748 33.306453,60.104096 32.837928,59.149381 32.241608,57.934266 32.09116,55.560908 32.465694,53.277276 32.673055,52.012935 32.6988,51.11729 32.572633,49.557 c -0.12867,-1.591209 -0.03839,-5.064753 0.163247,-6.281052 0.26211,-1.581073 1.914112,-6.000216 3.00394,-8.035605 1.27855,-2.387853 2.787258,-3.865864 3.757871,-3.681413 0.74034,0.140686 1.952826,1.265915 3.715056,3.447693 2.325955,2.879707 3.499176,4.069426 4.639367,4.7046 1.144533,0.637594 3.987446,1.303398 6.605633,1.547025 1.239443,0.115332 2.999959,0.43779 4.020473,0.736393 0.72695,0.212718 0.76061,0.236358 0.940044,0.660513 0.213114,0.503774 0.05742,1.790497 -0.333236,2.754033 -0.353605,0.872142 -2.029813,3.819862 -2.698198,4.744956 -0.846052,1.170997 -3.265741,3.950556 -3.995558,4.589797 -0.769089,0.67364 -2.63636,1.900112 -4.127332,2.710942 -1.602127,0.871272 -3.069299,1.833503 -4.242069,2.78211 -1.031391,0.834254 -2.564151,1.776212 -3.707664,2.27855 -1.52619,0.670445 -3.550396,0.370238 -5.235611,-0.776486 z m 6.767409,-2.093874 c 0.593824,-0.494322 1.100082,-2.128464 1.006055,-3.247433 -0.06884,-0.819277 -0.559318,-1.919776 -1.15064,-2.581732 -0.437199,-0.489426 -0.59503,-0.585939 -1.672906,-1.022957 -1.112122,-0.450903 -1.246741,-0.479295 -2.052934,-0.433107 -1.532176,0.08779 -3.024583,1.004204 -3.626332,2.226742 -0.35442,0.720056 -0.342207,1.11925 0.03894,1.273782 0.150594,0.06106 0.817727,0.183491 1.482517,0.27208 0.992838,0.132299 1.38079,0.240086 2.172188,0.603499 0.939735,0.43152 0.988482,0.471819 1.978306,1.635023 1.071985,1.25975 1.49078,1.55216 1.82481,1.274103 z m 9.374136,-7.944932 c 0.471618,-0.445691 0.835474,-0.862072 0.808572,-0.92529 -0.07049,-0.165671 -4.68897,-4.421347 -4.763871,-4.389661 -0.09014,0.03813 2.846751,6.020849 2.98358,6.077774 0.06283,0.02611 0.500101,-0.317132 0.971719,-0.762823 z M 39.027577,44.184016 c 1.711777,-0.179998 3.176065,-0.351655 3.253974,-0.38146 0.08508,-0.03254 0.03569,-0.09708 -0.123491,-0.161504 -0.404857,-0.163896 -5.91269,-1.647635 -5.991815,-1.614162 -0.06956,0.02943 -0.511951,2.10651 -0.488484,2.293612 0.0069,0.05476 0.06311,0.120069 0.124994,0.145161 0.06188,0.02509 1.513049,-0.101656 3.224824,-0.281652 z M 17.635961,46.732028 C 17.357688,46.521261 16.982493,46.178524 16.802194,45.97039 16.025089,45.073316 15.007386,42.957743 14.536571,41.260671 14.206312,40.070248 13.842823,39.241988 13.027773,37.822654 12.23366,36.439786 10.640603,32.550868 10.415231,31.445011 9.7708964,28.283371 9.6269525,23.201596 10.121557,21.077186 c 0.226338,-0.97216 0.696103,-2.127403 0.997645,-2.453411 0.935148,-1.011012 2.338499,-0.745333 6.259524,1.185035 2.662796,1.310929 4.465297,1.995521 5.506269,2.091304 1.311331,0.120648 3.921423,-0.351728 5.914208,-1.07036 1.4321,-0.516438 2.948804,-0.937967 4.387228,-1.219312 1.236315,-0.241815 1.840503,-0.103472 2.185545,0.500431 0.298085,0.521717 0.657938,1.945111 0.680373,2.691207 0.02613,0.868841 -0.188258,3.932972 -0.342407,4.89394 -0.259008,1.614644 -1.164596,4.906994 -1.740227,6.326748 -0.393321,0.9701 -1.506144,2.810752 -2.47035,4.086061 -0.997273,1.319044 -1.984061,2.893931 -2.703116,4.314103 -0.782208,1.544885 -1.451735,2.58171 -2.416848,3.742661 -0.672696,0.809199 -0.813999,0.916267 -1.799067,1.363151 -1.177219,0.53406 -2.394863,0.711939 -3.668786,0.535957 -0.885306,-0.122299 -2.59701,-0.818701 -3.275577,-1.332703 z m 3.411096,0.376999 c 1.561862,0.210294 3.136538,-0.170829 4.035994,-0.97684 0.765295,-0.685789 1.863125,-2.245805 2.5678,-3.648841 0.739813,-1.472994 1.456859,-2.658191 2.509461,-4.147835 0.41864,-0.592461 1.009322,-1.430124 1.312627,-1.861473 1.398742,-1.989249 1.968739,-3.404198 2.916017,-7.238654 0.383502,-1.552371 0.684788,-4.112721 0.702645,-5.971142 0.0087,-0.909463 -0.338777,-2.491032 -0.593848,-2.702632 -0.09105,-0.07554 -0.403027,-0.116747 -0.693266,-0.09156 -0.653357,0.05669 -3.463846,0.822618 -5.038181,1.373025 -2.441582,0.853609 -5.288676,1.232109 -6.791154,0.902832 -0.590775,-0.129476 -1.429016,-0.458092 -3.098055,-1.214587 -1.258473,-0.570409 -3.139606,-1.383986 -4.18029,-1.807961 -2.288375,-0.93234 -2.569427,-0.953124 -3.001556,-0.222387 -0.307505,0.519997 -0.736317,2.085599 -0.829981,3.03028 -0.190182,1.918122 -0.05214,5.170633 0.331028,7.799743 0.168003,1.152737 0.363555,1.794927 1.088691,3.575222 0.486149,1.193547 1.287893,2.905357 1.781656,3.804018 0.657066,1.195879 1.017429,2.038604 1.344162,3.143368 0.432211,1.461423 1.146983,3.084709 1.79247,4.07081 0.665029,1.015953 2.37278,1.986553 3.843778,2.184613 z M 18.883242,43.86658 c -0.647984,-0.50439 -1.130557,-1.191132 -1.497848,-2.131565 -0.375165,-0.960597 -0.442432,-1.847495 -0.190372,-2.509999 0.30802,-0.809584 0.430231,-0.806488 2.580674,0.0654 1.807377,0.73279 1.883636,0.753566 2.576605,0.702832 0.392761,-0.02877 1.267551,-0.228799 1.943979,-0.44451 0.676428,-0.215714 1.345288,-0.376493 1.486359,-0.357291 0.556563,0.07575 0.734624,0.293856 0.787331,0.963931 0.04482,0.570094 -0.0059,0.791307 -0.409457,1.786714 -0.408593,1.007768 -0.522046,1.193003 -1.004652,1.64022 -0.749035,0.694121 -1.969234,1.226242 -2.979629,1.299397 -0.704594,0.05101 -0.97004,0.0067 -1.839363,-0.307406 -0.620163,-0.224033 -1.186445,-0.499758 -1.453626,-0.707722 z M 13.680158,28.756134 c 0.508022,-1.253002 0.56335,-1.346376 0.752373,-1.269738 0.29507,0.119635 5.628967,4.50946 5.708931,4.698477 0.03696,0.08739 0.0259,0.176356 -0.02459,0.197708 -0.0967,0.04091 -5.587479,-1.713704 -6.470316,-2.06763 l -0.514761,-0.206333 0.548346,-1.352459 z m 10.795461,3.824997 c 0.07516,-0.185386 6.344274,-3.931375 6.521548,-3.89683 0.188716,0.03676 0.86955,2.447501 0.764066,2.705414 -0.05824,0.142406 -6.978194,1.427076 -7.200818,1.336814 -0.0679,-0.02753 -0.10606,-0.09295 -0.0848,-0.145398 z"
         id="path3942"
         inkscape:connector-curvature="0" />
      <path
         style="fill:#8f8f8f"
         d="m 34.758338,61.441409 c -2.22245,-1.756815 -2.836582,-4.06133 -2.216813,-8.318545 0.150605,-1.034521 0.175362,-1.955015 0.0931,-3.461977 -0.124521,-2.28126 -0.02665,-5.521456 0.199029,-6.58897 0.396992,-1.877871 1.596582,-5.119458 2.723724,-7.360167 1.025885,-2.039414 2.522193,-3.834559 3.414168,-4.096034 0.795271,-0.233126 2.152995,0.863962 4.134374,3.340357 1.430345,1.78779 2.775028,3.309293 3.495681,3.955352 0.536881,0.481305 0.773359,0.606704 2.229326,1.182161 1.723313,0.681129 3.02718,0.96877 5.377223,1.186262 2.190434,0.20272 4.659432,0.786384 5.110733,1.208164 0.424906,0.397111 0.08135,2.23869 -0.697831,3.740576 -0.910731,1.755458 -1.834699,3.303964 -2.526623,4.234442 -0.857259,1.152816 -3.042083,3.635109 -3.734632,4.243105 -0.845891,0.742621 -2.322581,1.716488 -3.816687,2.517079 -1.484718,0.795562 -3.820695,2.329741 -4.633765,3.043276 -1.156276,1.014725 -3.578761,2.344007 -4.522768,2.481758 -1.469517,0.214436 -3.389621,-0.327726 -4.628243,-1.306839 z m 6.974776,-1.648157 c 0.240627,-0.0606 0.327828,-0.205406 0.74844,-1.242817 0.448227,-1.105521 0.472453,-1.224198 0.414091,-2.028482 -0.193091,-2.661021 -2.408006,-4.4351 -5.240059,-4.197122 -1.172379,0.09852 -2.68626,1.052606 -3.321977,2.093606 -0.300432,0.491938 -0.387616,1.203011 -0.17222,1.404319 0.07952,0.07431 0.715427,0.212039 1.413117,0.306019 0.91434,0.123174 1.546225,0.281968 2.263123,0.56874 l 0.994639,0.397767 1.137663,1.311642 c 0.625713,0.721402 1.21713,1.343859 1.314259,1.383239 0.09712,0.03938 0.299165,0.04072 0.448959,0.003 z m 9.446654,-7.990718 c 0.472333,-0.44943 0.88141,-0.873885 0.909057,-0.943231 0.02762,-0.06936 -0.228021,-0.383531 -0.568153,-0.698191 -0.340133,-0.314661 -1.439583,-1.332122 -2.443221,-2.261023 -1.003637,-0.928902 -1.863416,-1.672576 -1.910618,-1.652606 -0.0472,0.01997 0.115459,0.446528 0.361474,0.947913 0.246015,0.501386 0.924229,1.902612 1.507146,3.113839 0.582917,1.211227 1.110627,2.226578 1.172687,2.256338 0.06205,0.0298 0.499295,-0.313607 0.971628,-0.763039 z M 39.006199,44.234947 c 3.290935,-0.345053 3.629727,-0.393405 3.580007,-0.510938 -0.05472,-0.129347 -6.229323,-1.768359 -6.392139,-1.696751 -0.202352,0.089 -0.708177,2.435923 -0.539722,2.504222 0.05918,0.02399 1.567513,-0.109446 3.351854,-0.296533 z m -20.733414,2.868236 c -1.114347,-0.746952 -1.573092,-1.22247 -2.173229,-2.252696 -0.507281,-0.87082 -1.422464,-3.127459 -1.65593,-4.083154 -0.172839,-0.707523 -0.574836,-1.568257 -1.565595,-3.352171 -0.719383,-1.295287 -2.199783,-4.944583 -2.404709,-5.927781 -0.5827655,-2.796021 -0.7814693,-7.335443 -0.423406,-9.67278 0.21224,-1.385434 0.851683,-3.003633 1.33379,-3.375337 0.762899,-0.588193 1.933763,-0.411381 4.265478,0.64413 4.31713,1.954263 6.003688,2.660924 6.676684,2.797501 1.274323,0.258623 3.935651,-0.125179 6.133233,-0.884499 2.896164,-1.000695 5.356127,-1.586493 6.062079,-1.443575 0.587728,0.118981 0.904399,0.56379 1.213932,1.70513 0.309843,1.142472 0.335634,2.060648 0.126904,4.517649 -0.171285,2.016249 -0.492737,3.593275 -1.279822,6.278733 -0.677184,2.31049 -1.396685,3.689842 -3.175189,6.087277 -1.142122,1.53957 -2.080598,3.052315 -2.879235,4.641088 -0.734635,1.461455 -2.033473,3.336286 -2.776191,4.007359 -1.093732,0.988228 -3.294602,1.503819 -5.060921,1.185606 -0.769554,-0.138639 -1.968521,-0.571285 -2.417873,-0.87248 z m 3.225253,0.112383 c 1.398389,0.08847 2.799101,-0.305291 3.622102,-1.018231 0.701249,-0.607466 1.978616,-2.444787 2.708744,-3.896163 0.858993,-1.707528 1.606289,-2.916498 2.832015,-4.581589 1.279528,-1.73818 1.981494,-2.911569 2.486874,-4.156994 0.4367,-1.07616 1.119211,-3.405047 1.48077,-5.052688 0.240672,-1.096749 0.529419,-4.103219 0.516052,-5.373165 -0.01172,-1.113534 -0.415225,-2.539008 -0.758049,-2.678004 -0.447556,-0.181459 -3.008913,0.415183 -5.30834,1.236522 -2.191551,0.782806 -5.104551,1.275478 -6.47454,1.095029 -1.197929,-0.157784 -2.775028,-0.757412 -5.363004,-2.039073 -3.345217,-1.656664 -4.760054,-2.076987 -5.346887,-1.58849 -0.386205,0.32149 -0.983031,2.237175 -1.076781,3.456244 -0.18778,2.441737 0.01145,6.209504 0.449412,8.499106 0.209942,1.097549 1.746343,4.855455 2.565476,6.274938 0.795648,1.378788 1.308107,2.549918 1.542192,3.524389 0.360619,1.501221 1.58066,3.980159 2.285799,4.644393 0.990629,0.93316 2.460829,1.566632 3.838163,1.653783 z m -2.970353,-3.748424 c -1.183798,-1.178863 -1.754707,-3.049708 -1.287599,-4.219415 0.304302,-0.761985 0.404189,-0.758838 2.399264,0.07569 2.169937,0.90766 2.509023,0.930824 4.562605,0.311608 1.480841,-0.446522 1.915391,-0.482697 2.135127,-0.177745 0.386838,0.536859 0.105915,2.220489 -0.53753,3.221517 -0.762885,1.186853 -2.071246,1.986608 -3.528134,2.15663 -0.662629,0.07733 -0.819051,0.0466 -1.976839,-0.388409 -1.122254,-0.421644 -1.312045,-0.526779 -1.766894,-0.979876 z M 13.238363,30.078837 c -0.07112,-0.169447 0.919226,-2.550475 1.071597,-2.576379 0.145997,-0.02481 5.636594,4.434486 5.729364,4.653226 0.09735,0.229546 -0.168708,0.162309 -2.847386,-0.719573 -1.406002,-0.462892 -2.859927,-0.931876 -3.230942,-1.042191 -0.371019,-0.110308 -0.696198,-0.252109 -0.722636,-0.315077 z m 11.384429,2.452513 c 0.06143,-0.147001 6.280583,-3.847188 6.390989,-3.802425 0.157083,0.06369 0.738546,2.373245 0.651532,2.587859 -0.04845,0.119501 -1.229866,0.386479 -3.464803,0.782984 -3.210934,0.569663 -3.657957,0.623586 -3.577718,0.431582 z"
         id="path3940"
         inkscape:connector-curvature="0" />
      <path
         style="fill:#6f6f6f"
         d="m 35.261156,61.754879 c -1.09647,-0.723523 -2.226243,-2.116372 -2.583797,-3.185452 -0.33645,-1.005982 -0.417179,-4.483117 -0.121044,-5.213514 0.173813,-0.428697 0.219379,-1.964499 0.114551,-3.860923 -0.120776,-2.18495 0.01724,-5.505685 0.278072,-6.690312 0.326172,-1.481429 1.432702,-4.53511 2.265887,-6.253153 1.025244,-2.114076 1.405924,-2.736087 2.246879,-3.671309 0.792466,-0.881293 1.499032,-1.314455 2.003678,-1.228357 0.70355,0.120032 1.965677,1.296827 3.703304,3.452909 1.64948,2.046711 2.6514,3.164686 3.489755,3.893987 1.300703,1.13151 3.706741,1.907337 6.999431,2.256974 1.957983,0.207909 3.68684,0.511045 4.763009,0.83514 0.704042,0.21203 0.771833,0.256327 0.916973,0.599437 0.187169,0.442443 -0.0023,1.790208 -0.383986,2.73165 -0.354396,0.874094 -1.958005,3.699814 -2.659935,4.687071 -0.824317,1.159395 -3.134463,3.817846 -3.930368,4.522955 -0.835444,0.740137 -2.368356,1.759136 -3.778885,2.512002 -1.499332,0.800263 -3.181657,1.88988 -4.426198,2.866779 -2.035071,1.597422 -3.975223,2.636655 -5.098632,2.731054 -1.262678,0.106104 -2.713442,-0.270821 -3.798694,-0.986938 z m 6.599222,-2.01446 c 0.646334,-0.45625 1.197761,-2.133942 1.0967,-3.336649 -0.07246,-0.862297 -0.570476,-1.978155 -1.194724,-2.676903 -0.456975,-0.511512 -0.601825,-0.60078 -1.690139,-1.041593 -1.12189,-0.454359 -1.242232,-0.479214 -2.092775,-0.431404 -1.069417,0.06011 -2.054743,0.471876 -2.864762,1.197169 -1.062601,0.951459 -1.461692,2.237341 -0.780148,2.513669 0.146655,0.05946 0.793188,0.174492 1.436745,0.25561 0.767945,0.09681 1.479281,0.268224 2.069681,0.498756 l 0.89959,0.351223 1.137324,1.305437 c 1.228045,1.409562 1.577823,1.65033 1.982521,1.364653 z m 9.436979,-7.984695 c 0.688115,-0.654223 0.865278,-0.879167 0.804313,-1.021242 -0.08466,-0.197325 -4.903289,-4.679463 -4.990984,-4.642465 -0.116988,0.04936 0.05513,0.442254 1.481116,3.380862 0.815597,1.680752 1.559439,3.070752 1.652982,3.088892 0.09356,0.01814 0.567203,-0.344579 1.052573,-0.806047 z M 40.587706,44.111757 c 1.897061,-0.201876 2.424319,-0.356078 1.815772,-0.531037 -2.444843,-0.702898 -6.173954,-1.675815 -6.269301,-1.635651 -0.135014,0.05688 -0.593853,2.081373 -0.558078,2.462344 0.02371,0.252375 -0.339714,0.27381 5.011607,-0.295656 z M 18.454321,47.121528 C 17.142359,46.411173 16.357045,45.449111 15.397952,43.377277 15.151408,42.844696 14.826824,41.954206 14.676652,41.398412 14.360533,40.22845 13.870784,39.094173 13.04612,37.622037 12.22841,36.162316 10.733243,32.510244 10.515846,31.441631 9.867151,28.252967 9.7299054,23.288093 10.230144,21.106308 c 0.283216,-1.235246 0.854223,-2.426169 1.29371,-2.698228 0.938438,-0.580927 2.285537,-0.229277 5.914823,1.544014 3.871135,1.89146 5.110583,2.243948 7.041151,2.002441 1.723014,-0.215544 2.477472,-0.408487 5.575269,-1.425805 1.625453,-0.533799 3.624681,-0.97792 4.251366,-0.944425 0.659851,0.03527 1.020661,0.419971 1.304709,1.391011 0.418941,1.432252 0.443532,2.115246 0.178642,4.961966 -0.187122,2.010967 -0.397115,3.078383 -1.072777,5.453004 -0.808345,2.840926 -1.447505,4.125649 -3.327245,6.687814 -1.182477,1.611761 -2.383917,3.527224 -2.699474,4.303785 -0.521195,1.282828 -2.362411,3.926211 -3.163828,4.542455 -0.605866,0.465876 -2.017932,0.97937 -2.961334,1.076882 -1.339787,0.138483 -2.812364,-0.17664 -4.110835,-0.879694 z m 2.673808,0.08707 c 1.566043,0.212394 3.126847,-0.18789 4.06829,-1.043345 0.772148,-0.701626 1.865391,-2.265748 2.58149,-3.693385 0.765366,-1.525853 1.807312,-3.221808 2.81941,-4.589091 2.273715,-3.071656 2.675613,-3.939685 3.806097,-8.220485 0.511756,-1.937869 0.898219,-5.504686 0.76401,-7.051384 -0.06712,-0.773536 -0.41635,-1.983737 -0.621583,-2.153997 -0.355722,-0.295097 -2.716739,0.217571 -5.51399,1.197307 -1.761496,0.616961 -3.060048,0.907704 -4.752282,1.064022 -1.852414,0.171115 -2.425831,0.03147 -5.412305,-1.318031 -1.288356,-0.582158 -3.169616,-1.39542 -4.180598,-1.807202 -1.657507,-0.675047 -1.883788,-0.741995 -2.302533,-0.680444 -0.329719,0.04847 -0.532869,0.167051 -0.70051,0.408887 -0.314024,0.453004 -0.733118,1.819177 -0.875261,2.853091 -0.267133,1.943259 -0.06718,6.361106 0.400001,8.837905 0.215681,1.143445 1.622704,4.621116 2.602484,6.432436 1.038569,1.920001 1.152783,2.18631 1.618216,3.773146 0.414705,1.413881 1.402322,3.503232 1.968157,4.163733 0.752196,0.878042 2.291108,1.631574 3.730904,1.826844 z M 18.92711,43.75838 c -1.272736,-0.990694 -2.059619,-2.988997 -1.708603,-4.339025 0.08739,-0.336096 0.202648,-0.530928 0.375889,-0.635392 0.23304,-0.140525 0.376024,-0.09951 2.124889,0.609559 1.821155,0.738376 1.895556,0.758722 2.589174,0.70785 0.392776,-0.02881 1.234367,-0.216862 1.870203,-0.417907 1.350941,-0.427156 1.915811,-0.478898 2.150485,-0.196986 0.293624,0.352728 0.180954,1.282643 -0.298766,2.465839 -0.384139,0.947453 -0.50591,1.144264 -0.979486,1.583074 -0.746091,0.691317 -1.829952,1.165649 -2.828777,1.237968 -0.706805,0.05118 -0.971462,0.007 -1.841382,-0.307259 -0.620163,-0.224033 -1.186445,-0.499759 -1.453626,-0.707723 z M 13.342578,29.784601 c 0.0184,-0.148433 0.206141,-0.697717 0.417205,-1.220606 0.308907,-0.765359 0.422052,-0.949995 0.580223,-0.947025 0.195919,0.0037 5.47487,4.250669 5.586607,4.494502 0.08525,0.186036 -0.425227,0.04802 -3.22221,-0.871153 -3.36587,-1.10613 -3.403165,-1.122278 -3.361825,-1.455713 z m 11.662279,2.54914 c 0.907496,-0.639514 5.886482,-3.591467 5.988129,-3.550255 0.169074,0.06855 0.735841,2.441632 0.614218,2.571767 -0.10519,0.11256 -6.240657,1.232647 -6.688336,1.221021 -0.246617,-0.0064 -0.245794,-0.0087 0.08599,-0.242533 z"
         id="path3938"
         inkscape:connector-curvature="0" />
      <path
         style="fill:#4f4f4f"
         d="m 35.574058,61.884893 c -1.155004,-0.67795 -2.061914,-1.675026 -2.635525,-2.897559 -0.319031,-0.679944 -0.424043,-1.125714 -0.485026,-2.058878 -0.08476,-1.296988 -0.006,-2.747723 0.208947,-3.846376 0.153795,-0.78629 0.16923,-2.27564 0.04006,-3.86667 -0.09919,-1.221772 -0.0079,-4.384793 0.162854,-5.644627 0.33356,-2.460592 2.620234,-8.075148 4.066311,-9.984141 0.716221,-0.945505 1.661337,-1.800626 2.081851,-1.883616 0.810383,-0.159932 2.066849,0.888471 4.135358,3.45059 2.4516,3.036616 3.529293,4.114918 4.712823,4.715479 0.972908,0.493679 3.153841,1.100874 4.631838,1.289546 0.691747,0.0883 1.882983,0.240258 2.647196,0.337677 1.79138,0.228357 3.658237,0.675933 3.950113,0.947034 0.312338,0.290102 0.352114,0.697621 0.170342,1.745082 -0.116145,0.669318 -0.270587,1.136547 -0.569173,1.72196 -0.724393,1.42027 -1.996873,3.573955 -2.57363,4.355885 -0.823434,1.116356 -3.131641,3.76193 -3.788787,4.342556 -0.849154,0.750275 -2.355342,1.745391 -3.892203,2.571522 -1.587298,0.853245 -3.37425,2.023816 -4.518638,2.960009 -0.917758,0.750791 -1.947182,1.406939 -3.19655,2.037465 -1.029436,0.519529 -2.293916,0.661318 -3.459129,0.387877 -0.823857,-0.193332 -0.934516,-0.237931 -1.689028,-0.680814 z m 6.031057,-1.96185 c 0.785942,-0.08379 1.585638,-2.291904 1.364006,-3.766296 -0.185154,-1.23174 -0.961699,-2.46223 -2.01302,-3.189771 -0.693136,-0.479667 -1.968645,-0.798932 -3.035616,-0.759812 -1.45658,0.0534 -3.285326,1.237294 -3.794883,2.456742 -0.475604,1.138074 -0.267841,1.321614 1.855506,1.63933 1.905092,0.28506 2.614942,0.650664 3.680486,1.895606 0.815032,0.952259 1.457259,1.630792 1.616801,1.708205 0.04726,0.02283 0.194254,0.03012 0.326718,0.01599 z m 9.67615,-8.086884 c 0.500166,-0.476932 0.910718,-0.937678 0.912339,-1.023883 0.0028,-0.148587 -4.788085,-4.665916 -5.069445,-4.779992 -0.07327,-0.0297 -0.137268,0.0097 -0.142206,0.08744 -0.01642,0.258528 3.064914,6.50343 3.228842,6.543854 0.08862,0.02175 0.570301,-0.350498 1.070466,-0.82743 z m -12.103502,-7.52474 c 3.445704,-0.360373 4.083718,-0.475145 3.640411,-0.654881 -0.243833,-0.09886 -5.761327,-1.619257 -6.344836,-1.748377 -0.450052,-0.0996 -0.533322,0.05123 -0.801444,1.451624 -0.218488,1.141156 -0.223396,1.214217 -0.08533,1.270195 0.06151,0.02494 1.677536,-0.118419 3.591201,-0.318561 z m -21.334062,2.377254 c -0.701083,-0.503671 -1.177366,-1.048815 -1.700353,-1.946196 -0.512616,-0.879583 -1.378995,-3.018243 -1.555118,-3.838808 -0.157721,-0.734834 -0.541039,-1.579087 -1.484235,-3.269013 -1.014377,-1.817453 -2.318151,-5.070454 -2.583193,-6.445225 -0.506545,-2.627453 -0.7009613,-6.964762 -0.411494,-9.180159 0.08102,-0.620079 0.276998,-1.346884 0.564613,-2.093941 0.536541,-1.393617 0.79426,-1.652783 1.709539,-1.719137 0.582389,-0.04222 0.738395,0.0032 2.566505,0.747411 1.070508,0.435865 2.951658,1.2494 4.180279,1.807989 2.684341,1.220421 3.381225,1.403226 4.880668,1.280243 1.776777,-0.145738 3.152803,-0.45849 5.153798,-1.171391 2.499086,-0.890361 4.946068,-1.395402 5.558261,-1.147192 0.325071,0.131798 0.433199,0.287391 0.739038,1.063474 0.444609,1.128208 0.514467,2.155417 0.321039,4.720584 -0.169241,2.244383 -0.454199,3.670079 -1.307387,6.541066 -0.575733,1.937351 -0.641864,2.100702 -1.336203,3.300711 -0.4018,0.694359 -1.223722,1.941243 -1.826473,2.770861 -1.320882,1.818046 -2.050989,2.998007 -2.928967,4.733645 -1.020745,2.017859 -2.317967,3.693337 -3.353929,4.331887 -1.987996,1.225369 -5.096153,1.014832 -7.186317,-0.486781 z m 3.508335,0.587929 c 1.079302,0.111878 1.830593,-8.1e-5 2.825846,-0.421109 0.545886,-0.230931 0.947599,-0.503061 1.285715,-0.870976 0.849943,-0.92485 1.858021,-2.440456 2.56268,-3.852886 0.714585,-1.432329 1.930598,-3.360139 3.037556,-4.815602 0.84998,-1.117578 1.774664,-2.682432 2.192122,-3.709747 0.401412,-0.987874 1.339989,-4.325517 1.572268,-5.591198 0.215969,-1.176828 0.462001,-4.540024 0.394345,-5.390646 -0.0771,-0.969378 -0.500423,-2.155623 -0.814729,-2.283056 -0.457833,-0.185626 -2.846359,0.400774 -5.989577,1.470482 -1.840288,0.626291 -4.386451,1.021454 -5.732199,0.889632 -1.055993,-0.103441 -2.952132,-0.82455 -5.62133,-2.137822 -2.448779,-1.20482 -4.011264,-1.779867 -4.650896,-1.711675 -1.0199,0.108728 -1.66433,1.98122 -1.77077,5.145255 -0.05968,1.773974 0.207342,5.485371 0.506336,7.037756 0.25603,1.329303 1.444274,4.224707 2.707972,6.598529 0.569407,1.06962 1.138484,2.322747 1.264616,2.78473 0.346843,1.270395 1.163152,3.263902 1.710685,4.177665 0.942387,1.572732 2.448342,2.465991 4.51936,2.680668 z M 19.15494,43.839863 c -0.748742,-0.516624 -1.235413,-1.122266 -1.606291,-1.998971 -0.507417,-1.199461 -0.427493,-2.806695 0.151758,-3.05174 0.126352,-0.05345 0.702269,0.133542 1.872349,0.607944 2.39997,0.973053 2.409249,0.973362 5.408582,0.120606 0.997267,-0.28351 1.329163,-0.191132 1.424718,0.396545 0.09593,0.589968 -0.173569,1.813257 -0.553308,2.511528 -0.885317,1.627931 -2.984271,2.595509 -4.810518,2.217555 -0.843679,-0.174604 -1.188812,-0.321533 -1.887287,-0.803475 z M 13.385253,30.001376 c -0.06024,-0.142415 0.889179,-2.453096 0.990971,-2.411825 0.195554,0.07929 5.276899,4.288539 5.330762,4.415863 0.06808,0.16094 -0.381712,0.03437 -3.676993,-1.034684 -2.66415,-0.864297 -2.58858,-0.836599 -2.644742,-0.969351 z m 11.610569,2.387669 c 0.08419,-0.06425 1.466607,-0.914436 3.072038,-1.889298 l 2.918961,-1.772477 0.144996,0.453273 c 0.305966,0.956485 0.522547,2.101207 0.411823,2.176665 -0.13626,0.09287 -6.115604,1.159655 -6.463254,1.153127 -0.183831,-0.0035 -0.202981,-0.03091 -0.08457,-0.121283 z"
         id="path3936"
         inkscape:connector-curvature="0" />
      <path
         style="fill:#2e2e2e"
         d="m 35.02077,61.460632 c -0.807454,-0.579742 -1.684067,-1.662675 -2.092384,-2.584847 -0.538195,-1.215493 -0.606357,-3.546728 -0.179431,-6.13658 0.07495,-0.454644 0.0999,-1.521682 0.05544,-2.371189 -0.163118,-3.117294 -0.0631,-6.207724 0.243595,-7.526689 0.09611,-0.41335 0.465186,-1.619843 0.820157,-2.681097 0.661531,-1.977771 1.847567,-4.606508 2.663962,-5.9044 0.547344,-0.870169 1.664582,-2.067325 2.190984,-2.347711 0.425053,-0.226403 0.503385,-0.226013 1.03332,0.0051 0.766291,0.334244 1.721161,1.264063 3.283795,3.19766 2.956193,3.657993 3.730864,4.3789 5.437426,5.060072 1.751531,0.699141 3.086835,0.996206 5.547254,1.23417 1.444938,0.13975 4.074179,0.636015 4.687849,0.884824 0.601767,0.243983 0.707501,0.581619 0.524191,1.673884 -0.181924,1.083996 -0.767005,2.390279 -2.00095,4.467438 -0.908514,1.529342 -1.889281,2.823251 -3.552994,4.6874 -1.291669,1.447286 -2.263929,2.248565 -3.894064,3.209257 -0.581812,0.342882 -1.79638,1.057336 -2.699037,1.587676 -0.90266,0.530339 -2.041722,1.280093 -2.53125,1.666119 -2.335614,1.841779 -4.32619,2.957022 -5.445873,3.051109 -1.380724,0.116022 -2.90652,-0.321072 -4.091995,-1.172229 z m 6.644194,-1.486417 c 0.718088,-0.148213 1.455823,-1.984936 1.392579,-3.467198 -0.03751,-0.879671 -0.577382,-2.135944 -1.231401,-2.865434 -1.295079,-1.444533 -3.873309,-1.921318 -5.622269,-1.039709 -1.713919,0.863946 -2.903185,2.760757 -2.099285,3.348242 0.127525,0.09317 0.83465,0.25401 1.571405,0.357399 0.876118,0.122937 1.628305,0.303761 2.174158,0.522662 0.817907,0.327947 0.857467,0.361003 1.977859,1.646948 1.079713,1.239308 1.485093,1.569691 1.836916,1.497074 z m 9.708739,-8.144378 c 0.604268,-0.578562 0.952533,-0.987936 0.915315,-1.075919 -0.06695,-0.158266 -5.061682,-4.805783 -5.244458,-4.879889 -0.06368,-0.02582 -0.129823,0.03292 -0.147004,0.130522 -0.04675,0.26578 3.165336,6.752886 3.345365,6.756267 0.08546,0.0016 0.59431,-0.417336 1.130777,-0.930983 z M 40.116229,44.264764 c 1.609455,-0.167088 2.941842,-0.342173 2.96086,-0.38908 0.01902,-0.0469 0.0048,-0.125984 -0.03166,-0.175735 -0.06808,-0.09298 -6.462085,-1.864382 -6.844698,-1.896256 -0.1173,-0.0098 -0.23665,0.03991 -0.26523,0.110402 -0.171396,0.422736 -0.519902,2.583255 -0.435328,2.698757 0.06012,0.08212 0.426336,0.101476 0.895743,0.04731 0.436713,-0.05038 2.110851,-0.228312 3.720307,-0.395399 z M 18.381844,46.97421 C 17.080552,46.197693 16.259132,45.130211 15.383877,43.078178 15.126597,42.47499 14.791515,41.505769 14.639249,40.924355 14.466536,40.264873 14.093838,39.379896 13.648423,38.571628 13.255737,37.85904 12.422655,36.075624 11.797132,34.608479 10.794372,32.256533 10.635053,31.774402 10.450494,30.533258 10.036909,27.751929 9.9039945,24.111094 10.14128,22.06323 c 0.04036,-0.348336 0.274557,-1.203732 0.520436,-1.900883 0.383355,-1.086947 0.497036,-1.310101 0.797884,-1.566241 0.844831,-0.719278 2.120061,-0.403203 6.012733,1.490308 3.77581,1.836665 4.811451,2.149978 6.60162,1.997197 1.746848,-0.149082 2.994033,-0.440756 5.31744,-1.243569 1.690281,-0.584048 3.625813,-1.068709 4.552564,-1.13997 0.60575,-0.04658 0.711711,-0.02201 1.014792,0.235336 0.428591,0.363911 0.806141,1.576968 0.876524,2.816243 0.0692,1.21854 -0.228197,4.575476 -0.523814,5.912538 -0.378725,1.712975 -1.062997,4.043478 -1.515418,5.161236 -0.509707,1.259335 -1.230115,2.458177 -2.705936,4.503103 -1.056584,1.464026 -1.765205,2.634666 -3.033931,5.012057 -0.569238,1.066681 -1.7286,2.689936 -2.359417,3.303514 -0.530336,0.515844 -2.114031,1.157995 -3.095668,1.255214 -1.38032,0.136708 -3.055296,-0.230542 -4.219245,-0.925103 z m 2.499552,0.320885 c 0.412284,0.06386 1.067021,0.0981 1.454973,0.07608 0.86458,-0.04906 2.358178,-0.597371 2.895743,-1.063047 0.650285,-0.563318 1.992261,-2.490181 2.666998,-3.829379 0.928408,-1.842679 1.436927,-2.645795 3.660247,-5.780699 1.246895,-1.758137 1.751838,-2.803636 2.358723,-4.883798 0.776016,-2.659874 1.077951,-4.156618 1.250226,-6.197596 0.182773,-2.165362 0.140182,-3.357308 -0.155747,-4.358594 -0.259303,-0.877359 -0.447351,-1.063657 -1.024418,-1.014891 -0.783235,0.06619 -3.055642,0.656748 -4.618905,1.200369 -2.792907,0.971224 -5.387154,1.403433 -6.958487,1.1593 -0.849745,-0.132023 -2.266121,-0.710861 -7.027378,-2.871933 -2.422252,-1.099429 -3.253647,-1.1856 -3.807168,-0.394628 -0.324034,0.463035 -0.812466,2.107071 -0.910889,3.065985 -0.199904,1.947652 -0.03883,5.567033 0.366149,8.227325 0.231554,1.521089 1.56655,4.845579 2.947992,7.341288 0.551828,0.996931 0.984166,2.081563 1.516601,3.804785 0.346247,1.120632 1.339919,3.10099 1.824613,3.636395 0.882329,0.974646 2.202118,1.672594 3.560731,1.88303 z m -1.976009,-3.683027 c -1.236196,-1.041229 -1.916334,-2.831787 -1.579249,-4.157594 0.09656,-0.379807 0.186101,-0.519128 0.388675,-0.60483 0.234074,-0.09902 0.417174,-0.0395 1.654186,0.537759 2.107043,0.983273 2.982499,1.035753 5.120207,0.306944 0.882684,-0.300933 1.540769,-0.36216 1.753696,-0.16316 0.274917,0.25693 0.143243,1.23294 -0.320714,2.377258 -0.384464,0.948256 -0.505719,1.144085 -0.981142,1.584635 -0.695724,0.644686 -1.885165,1.146275 -2.822908,1.190428 -0.603149,0.0284 -0.925206,-0.03535 -1.776841,-0.351717 -0.664758,-0.246948 -1.182998,-0.506703 -1.435905,-0.719739 z M 13.429121,29.89318 c -0.02359,-0.05576 0.151222,-0.580148 0.388474,-1.165313 0.363096,-0.89555 0.458305,-1.053009 0.601565,-0.994925 0.292297,0.11851 5.172111,4.155273 5.134678,4.247598 -0.01951,0.04813 -0.194285,0.02475 -0.388374,-0.05196 -0.194116,-0.07665 -1.282112,-0.434427 -2.417829,-0.794907 -2.284563,-0.725131 -3.253769,-1.087429 -3.31852,-1.240491 z m 11.799,2.455754 c 0.245247,-0.262409 5.604505,-3.497173 5.717014,-3.450699 0.114427,0.04726 0.67674,2.214959 0.614439,2.368619 -0.02015,0.0497 -1.334233,0.319465 -2.920187,0.599487 -1.585954,0.280025 -3.033808,0.536888 -3.217452,0.57081 -0.306067,0.05653 -0.322222,0.04918 -0.193788,-0.08828 z"
         id="path3934"
         inkscape:connector-curvature="0" />
      <path
         style="fill:url(#linearGradient3982);fill-opacity:1;stroke:none"
         d="m 35.111681,61.375175 c -1.15711,-0.871418 -2.072954,-2.207107 -2.290681,-3.340792 -0.187923,-0.978498 -0.211201,-2.836639 -0.04904,-3.915164 0.245599,-1.633541 0.29223,-2.575202 0.18942,-3.825134 -0.209023,-2.541229 -0.04167,-6.140274 0.355088,-7.636237 0.724181,-2.730509 2.527301,-6.889031 3.634888,-8.383123 0.713952,-0.963091 1.649284,-1.819309 2.077596,-1.901865 0.744412,-0.143484 1.943552,0.863299 3.880377,3.257951 1.782153,2.203408 2.616481,3.123663 3.569794,3.937441 0.831465,0.709768 0.894166,0.743699 2.328,1.259764 1.594463,0.573887 3.139749,0.906627 4.972394,1.070702 1.567709,0.140356 3.921967,0.588691 4.657723,0.886998 0.549183,0.222664 0.605431,0.275661 0.634788,0.598018 0.08927,0.980312 -0.465189,2.574587 -1.577896,4.537005 -1.066206,1.880406 -1.532601,2.528655 -3.32498,4.621458 -1.818956,2.12383 -2.56884,2.77305 -4.512693,3.906905 -0.582653,0.339864 -1.793743,1.044833 -2.691304,1.566598 -0.897567,0.521764 -1.988791,1.237736 -2.424946,1.591046 -1.803591,1.461008 -3.946881,2.722229 -5.011049,2.948757 -1.219716,0.25964 -3.212404,-0.272798 -4.417474,-1.180328 z m 6.601868,-1.212544 c 0.347897,-0.03568 0.708008,-0.499602 1.054622,-1.358669 0.752328,-1.864615 0.435981,-3.614689 -0.914626,-5.059736 -0.991952,-1.061312 -2.654817,-1.638661 -4.224157,-1.466634 -1.766622,0.193651 -3.765748,1.920486 -3.747253,3.23686 0.009,0.640377 0.285805,0.79683 1.736018,0.981195 0.863622,0.109791 1.485173,0.263125 2.178547,0.537444 l 0.970155,0.383848 1.145356,1.300506 c 1.161355,1.318672 1.373722,1.489056 1.801329,1.44521 z m 9.5624,-7.939782 c 0.496063,-0.471652 0.928232,-0.964506 0.960378,-1.095234 0.04939,-0.200807 -0.344549,-0.607948 -2.538784,-2.623907 -1.428481,-1.312423 -2.68179,-2.420619 -2.78513,-2.462664 -0.103354,-0.04203 -0.214676,-0.01038 -0.247394,0.07032 -0.10008,0.24684 3.231204,6.854392 3.486627,6.915678 0.159763,0.03834 0.476316,-0.188087 1.124303,-0.804189 z M 39.418062,44.751095 c 3.260871,-0.332296 3.981386,-0.476371 3.764112,-0.752674 -0.114339,-0.145395 -6.981505,-1.985157 -7.14899,-1.91526 -0.111508,0.04654 -0.236003,0.455985 -0.417385,1.372722 -0.142167,0.718523 -0.251368,1.351095 -0.242676,1.405717 0.04011,0.252034 0.651108,0.235327 4.044942,-0.110504 z m -21.144615,2.128893 c -0.322994,-0.221392 -0.707202,-0.514716 -0.853793,-0.651833 -0.769007,-0.719292 -1.979203,-3.168346 -2.491285,-5.04157 -0.195795,-0.716233 -0.560891,-1.571269 -1.021685,-2.392738 -1.148575,-2.0476 -2.74262,-5.794458 -3.017234,-7.09211 -0.541886,-2.560611 -0.741219,-7.515604 -0.382945,-9.519173 0.188871,-1.056217 0.788031,-2.57125 1.145666,-2.896922 0.172049,-0.156675 0.515732,-0.268174 0.919642,-0.298359 0.609201,-0.04552 0.740032,-0.0093 2.3617,0.653435 0.94424,0.385858 2.884797,1.221937 4.312368,1.857907 2.276544,1.014149 2.690257,1.169143 3.365715,1.260879 1.461165,0.198482 3.979623,-0.213701 6.414254,-1.049793 2.437883,-0.837207 5.085889,-1.42144 5.564005,-1.227591 0.354651,0.143791 0.660279,0.629552 0.862306,1.370545 0.299539,1.098644 0.32916,1.7926 0.173548,4.066206 -0.153398,2.241293 -0.466101,3.853997 -1.289517,6.650499 -0.667789,2.267943 -1.292778,3.445324 -3.170217,5.972282 -1.021424,1.374785 -1.957809,2.862763 -2.485945,3.950337 -0.829839,1.70886 -2.239543,3.763481 -3.061353,4.461868 -0.563406,0.478795 -1.976539,0.990747 -2.93641,1.063808 -1.607313,0.122341 -3.152134,-0.276291 -4.408822,-1.137671 z m 2.600823,0.680648 c 1.946602,0.354597 3.980757,-0.216934 4.992854,-1.402826 0.89664,-1.050611 1.671478,-2.226682 2.317865,-3.518126 0.871012,-1.740216 1.419422,-2.593243 3.59067,-5.585038 0.726446,-1.000982 0.869016,-1.274087 1.574376,-3.015866 0.812766,-2.0071 1.390573,-4.013975 1.666788,-5.789556 0.177982,-1.144124 0.367956,-3.786354 0.337297,-4.691304 -0.02672,-0.788688 -0.354105,-2.091567 -0.621814,-2.474598 -0.185445,-0.26533 -0.232332,-0.277473 -0.874057,-0.226364 -0.872546,0.0695 -3.266246,0.690431 -4.856802,1.259873 -2.10127,0.752283 -4.933844,1.217491 -6.315904,1.037294 -1.12263,-0.146372 -2.527094,-0.68307 -5.129726,-1.960257 -3.42193,-1.679235 -4.792966,-2.103042 -5.509305,-1.70305 -0.32433,0.181105 -0.380239,0.282901 -0.790996,1.440189 -0.503474,1.418516 -0.594268,2.199727 -0.566565,4.874786 0.01766,1.705684 0.323754,4.741458 0.609866,6.048576 0.209959,0.959218 1.762753,4.644952 2.48378,5.895536 0.8109,1.406464 1.298616,2.514829 1.629888,3.704027 0.350625,1.258666 1.100477,2.892283 1.754364,3.822037 0.860714,1.223838 2.109938,1.99366 3.707424,2.284659 z M 18.990196,43.686547 C 17.800642,42.654103 17.164147,40.512526 17.735729,39.46572 l 0.161637,-0.296015 1.666092,0.672378 c 0.916391,0.36971 1.851743,0.700363 2.078635,0.734604 0.707437,1.07178 1.10548,0.35186 2.295197,-0.0056 1.341388,-0.403078 2.090292,-0.807383 2.334166,-0.606214 0.261856,0.216002 0.127328,1.322667 -0.282122,2.32082 -0.280467,0.684036 -0.432912,0.905428 -0.951178,1.382638 -0.718757,0.661831 -1.817803,1.148934 -2.725319,1.207878 -0.806086,0.05235 -2.65402,-0.609231 -3.322669,-1.189544 z m -5.268508,-13.28978 c -0.02396,-0.05588 0.137595,-0.548398 0.359009,-1.094501 0.334122,-0.824089 0.43076,-0.981478 0.568367,-0.925686 0.169887,0.06888 4.685849,3.727914 4.731031,3.833295 0.04059,0.09468 -0.836428,-0.161794 -2.772455,-0.810763 -0.999273,-0.334956 -2.047603,-0.674663 -2.329628,-0.754888 -0.282019,-0.08023 -0.532367,-0.191588 -0.556324,-0.247463 z m 11.848106,2.34347 c 0.0367,-0.09051 5.295588,-3.239166 5.363848,-3.21149 0.07755,0.03144 0.60328,2.068088 0.560582,2.171658 -0.01938,0.04686 -1.285802,0.30282 -2.814383,0.568741 -3.353006,0.583311 -3.142625,0.551442 -3.110047,0.471091 z"
         id="path3932"
         inkscape:connector-curvature="0"
         sodipodi:nodetypes="sssssssssssscssssssscsssssccsccssscscscsssccssssssssscsssssssssssccssscsssssssssssssscccscscsscsscccsscsccssscs" />
    </g>
  </g>
</svg>
