<?xml version="1.0" encoding="utf-8"?>
<!DOCTYPE svg PUBLIC "-//W3C//DTD SVG 1.1//EN" "http://www.w3.org/Graphics/SVG/1.1/DTD/svg11.dtd">
<svg version="1.1" xmlns="http://www.w3.org/2000/svg" width="255px" height="240px" viewBox="0 0 255 240">
<path fill="#E32219" d="M170.445,207.612c0,0-23.306,6.74-24.604,7.119c-1.308,0.38-2.313,0.579-3.094,0.656
	c-0.785,0.095-1.334,0.052-1.713-0.034c-0.397-0.078-0.617-0.216-0.742-0.328c-0.117-0.104-0.151-0.207-0.151-0.207l-2.128-4.264
	c-0.177-0.336-0.436-0.595-0.789-0.785c-0.354-0.198-0.785-0.311-1.299-0.362c-0.51-0.069-1.104-0.052-1.756,0.025
	c-0.656,0.087-1.373,0.225-2.149,0.432c-0.768,0.207-1.601,0.492-2.473,0.838c-0.867,0.327-1.777,0.725-2.714,1.182
	c-0.937,0.458-1.898,0.976-2.883,1.545c-0.971,0.561-1.959,1.183-2.96,1.855l-13.087,8.812c0,0-0.255,0.181-0.726,0.475
	c-0.475,0.302-1.174,0.708-2.066,1.174c-0.902,0.475-1.998,1.001-3.245,1.519c-1.265,0.526-2.692,1.044-4.268,1.511
	c-1.601,0.448-33.468,9.76-33.511,9.777c-0.043,0.009-0.069,0.009-0.069,0.009s14.801-22.896,15.28-23.638
	c0.811-1.277,1.756-2.425,2.701-3.426c0.958-1.01,1.92-1.882,2.766-2.59c0.858-0.698,1.618-1.242,2.157-1.604
	c0.54-0.363,0.859-0.562,0.859-0.562l15.922-9.786c1.195-0.742,2.326-1.502,3.379-2.27c1.049-0.76,2.016-1.554,2.904-2.33
	c0.885-0.777,1.683-1.563,2.395-2.33c0.708-0.777,1.338-1.536,1.852-2.287c0.509-0.751,0.936-1.484,1.242-2.184
	c0.311-0.708,0.505-1.381,0.583-2.02c0.082-0.63,0.047-1.226-0.112-1.761c-0.177-0.552-0.479-1.035-0.911-1.467l-6.122-5.895
	c0,0-0.16-0.104-0.312-0.362c-0.159-0.268-0.327-0.69-0.362-1.312c-0.043-0.63,0.052-1.468,0.414-2.555
	c0.371-1.088,1.019-2.46,2.089-4.108c0.626-0.983,23.595-36.833,23.629-36.85l0.043-0.009l0.009-0.018
	c0.009-0.009,38.521-4.091,39.211-4.168c1.795-0.19,3.128-0.121,4.121,0.095c0.996,0.216,1.648,0.569,2.084,0.94
	c0.432,0.38,0.634,0.777,0.742,1.079c0.116,0.311,0.116,0.509,0.116,0.509l0.928,9.364c0.061,0.682,0.246,1.242,0.557,1.708
	c0.298,0.458,0.703,0.82,1.217,1.079c0.496,0.259,1.104,0.423,1.778,0.492c0.682,0.061,1.433,0.034,2.261-0.087
	c0.833-0.12,1.734-0.336,2.688-0.646c0.945-0.294,1.959-0.683,3.012-1.165c1.053-0.467,2.157-1.036,3.297-1.692
	c1.147-0.646,2.317-1.38,3.517-2.209l16.03-10.917c0,0,0.328-0.241,0.885-0.587c0.574-0.354,1.397-0.828,2.395-1.329
	c0.988-0.5,2.175-1.01,3.448-1.449c1.281-0.423,2.649-0.76,4.047-0.915c0.389-0.043,25.744-2.813,25.744-2.813
	c0,0.009-25.791,28.583-26.512,29.394c-1.222,1.355-2.408,2.529-3.491,3.53c-1.087,0.983-2.088,1.813-2.926,2.459
	c-0.85,0.647-1.549,1.14-2.023,1.459c-0.487,0.319-0.751,0.492-0.751,0.492l-13.726,8.448c-1.045,0.63-2.033,1.304-2.986,1.985
	c-0.954,0.673-1.855,1.363-2.706,2.071c-0.846,0.682-1.635,1.389-2.36,2.079c-0.725,0.683-1.376,1.373-1.959,2.037
	c-0.573,0.664-1.078,1.312-1.484,1.925c-0.427,0.612-0.75,1.182-1.001,1.734c-0.229,0.544-0.379,1.044-0.423,1.502
	c-0.052,0.448-0.008,0.854,0.143,1.19l1.941,4.453c0,0,0.053,0.078,0.065,0.268c0.017,0.173-0.013,0.466-0.16,0.897
	c-0.15,0.423-0.418,1.001-0.901,1.734c-0.487,0.734-1.187,1.641-2.175,2.736L170.445,207.612z M57.469,124.462
	c0.647-1.398,1.415-2.442,2.253-3.15c0.85-0.733,1.769-1.088,2.714-1.113c0.953-0.018,1.925,0.328,2.853,1.019
	c0.94,0.707,1.838,1.777,2.645,3.228c0.794,1.458,1.424,3.142,1.873,4.937c0.439,1.804,0.699,3.728,0.759,5.635
	c0.061,1.907-0.06,3.814-0.388,5.584c-0.319,1.761-0.833,3.374-1.536,4.764l-9.989,19.573c-0.635,1.251-1.386,2.141-2.201,2.658
	c-0.811,0.535-1.67,0.707-2.532,0.552c-0.868-0.155-1.735-0.646-2.555-1.449c-0.833-0.803-1.61-1.916-2.3-3.34
	c-0.677-1.416-1.217-3.004-1.588-4.66c-0.379-1.657-0.604-3.392-0.665-5.109c-0.061-1.709,0.026-3.409,0.276-4.988
	c0.254-1.588,0.66-3.072,1.251-4.341L57.469,124.462 M34.185,80.905c0.518-1.406,1.147-2.52,1.838-3.322
	c0.695-0.803,1.454-1.303,2.235-1.476c0.785-0.173,1.588-0.018,2.365,0.483c0.781,0.509,1.532,1.354,2.209,2.563
	c0.673,1.217,1.195,2.676,1.575,4.281c0.371,1.604,0.608,3.34,0.673,5.1c0.069,1.761-0.025,3.556-0.276,5.247
	c-0.246,1.691-0.652,3.288-1.238,4.695l-8.104,19.979c-0.526,1.286-1.147,2.243-1.808,2.882c-0.673,0.631-1.39,0.95-2.115,0.958
	c-0.725,0.018-1.45-0.275-2.136-0.88c-0.699-0.612-1.355-1.519-1.946-2.71c-0.574-1.217-1.036-2.598-1.359-4.1
	c-0.319-1.484-0.522-3.063-0.596-4.66c-0.061-1.597,0-3.201,0.203-4.721c0.198-1.527,0.53-2.985,1.018-4.28L34.185,80.905
	 M2.508,118.464H2.5H2.508c0.013-0.009,49.446,114.606,49.437,114.633c0.018-0.026,43.771-73.571,43.771-73.571
	c2.943-4.971,5.17-10.908,6.637-17.39c1.502-6.567,2.201-13.609,2.11-20.669c-0.095-7.068-0.988-14.093-2.658-20.557
	c-1.679-6.403-4.1-12.203-7.236-16.933c-1.691-2.546-3.482-4.634-5.368-6.291c-1.847-1.631-3.763-2.848-5.708-3.642
	c-1.916-0.786-3.862-1.174-5.787-1.174c-1.898,0-3.802,0.388-5.64,1.104c-0.396-0.018-0.776-0.086-1.147-0.216
	c-0.371-0.138-0.733-0.319-1.079-0.561c-0.337-0.242-0.66-0.526-0.962-0.863c-0.311-0.337-0.6-0.725-0.867-1.147
	c-0.315-0.519-0.617-1.097-0.876-1.735c-0.255-0.639-0.483-1.329-0.678-2.071c-0.186-0.742-0.346-1.536-0.462-2.364
	c-0.104-0.854-0.186-1.726-0.22-2.649c-0.009-3.34-0.186-6.637-0.531-9.847c-0.345-3.202-0.854-6.283-1.536-9.2
	c-0.673-2.917-1.51-5.635-2.502-8.129c-0.988-2.478-2.119-4.721-3.409-6.654c-2.412-3.659-5.126-5.902-7.91-6.853
	c-2.74-0.923-5.541-0.63-8.254,0.786c-2.641,1.397-5.204,3.84-7.521,7.223c-2.252,3.323-4.293,7.534-5.963,12.583L2.508,118.464
	 M137.642,33.155c1.584,0.146,3.28,0.544,5.006,1.131c1.722,0.561,3.461,1.338,5.144,2.235c1.679,0.889,3.306,1.924,4.76,3.037
	c1.467,1.131,2.778,2.348,3.836,3.591l16.596,19.556c1.169,1.381,1.98,2.675,2.442,3.883c0.457,1.191,0.573,2.271,0.345,3.168
	c-0.232,0.914-0.815,1.656-1.743,2.157c-0.928,0.5-2.209,0.776-3.818,0.751c-1.614-0.035-3.409-0.362-5.273-0.924
	c-1.877-0.569-3.802-1.381-5.683-2.391c-1.873-0.975-3.686-2.157-5.32-3.443c-1.627-1.294-3.077-2.692-4.233-4.125L133.34,41.294
	c-1.053-1.313-1.695-2.512-1.989-3.591c-0.28-1.062-0.203-1.968,0.203-2.701c0.41-0.725,1.144-1.269,2.166-1.579
	C134.738,33.095,136.063,32.991,137.642,33.155 M161.741,108.962l68.277-4.255c4.155-0.268,7.21-0.803,9.182-1.752
	c1.938-0.932,2.857-2.261,2.758-4.107c-0.095-1.804-1.174-4.108-3.215-7.025c-2.007-2.856-4.94-6.291-8.794-10.399l-24.842-26.546
	c0,0-23.797-25.372-23.948-25.51c-3.076-3.038-5.761-5.472-8.28-7.491c-2.521-1.994-4.897-3.556-7.37-4.824
	c-2.469-1.26-5.058-2.235-7.983-3.029c-2.942-0.794-6.257-1.424-10.161-1.984L82.246,2.579C76.835,1.785,72.48,1.38,69.154,1.448
	c-3.384,0.052-5.696,0.596-6.991,1.709c-1.324,1.131-1.596,2.848-0.897,5.247c0.726,2.434,2.447,5.575,5.144,9.519l13.468,19.807
	l13.022,19.15l16.881,24.819c3.667,5.394,7.228,9.934,10.912,13.653c3.725,3.771,7.53,6.688,11.659,8.846
	c4.134,2.157,8.526,3.529,13.425,4.28C150.601,109.221,155.855,109.333,161.741,108.962"/>
</svg>
