<?xml version="1.0" encoding="UTF-8" standalone="no"?>
<svg
   xmlns:dc="http://purl.org/dc/elements/1.1/"
   xmlns:cc="http://creativecommons.org/ns#"
   xmlns:rdf="http://www.w3.org/1999/02/22-rdf-syntax-ns#"
   xmlns:svg="http://www.w3.org/2000/svg"
   xmlns="http://www.w3.org/2000/svg"
   xmlns:sodipodi="http://sodipodi.sourceforge.net/DTD/sodipodi-0.dtd"
   xmlns:inkscape="http://www.inkscape.org/namespaces/inkscape"
   height="1600px"
   style="shape-rendering:geometricPrecision; text-rendering:geometricPrecision; image-rendering:optimizeQuality; fill-rule:evenodd; clip-rule:evenodd"
   viewBox="0 0 1600 1600"
   width="1600px"
   xml:space="preserve"
   version="1.1"
   id="svg163"
   sodipodi:docname="Watch.svg"
   inkscape:version="0.91 r13725"><metadata
     id="metadata167"><rdf:RDF><cc:Work
         rdf:about=""><dc:format>image/svg+xml</dc:format><dc:type
           rdf:resource="http://purl.org/dc/dcmitype/StillImage" /><dc:title></dc:title><cc:license
           rdf:resource="http://creativecommons.org/licenses/by-sa/3.0/" /><dc:date>2017</dc:date><dc:creator><cc:Agent><dc:title>Cristian Pozzessere &quot;ilnanny&quot;</dc:title></cc:Agent></dc:creator></cc:Work><cc:License
         rdf:about="http://creativecommons.org/licenses/by-sa/3.0/"><cc:permits
           rdf:resource="http://creativecommons.org/ns#Reproduction" /><cc:permits
           rdf:resource="http://creativecommons.org/ns#Distribution" /><cc:requires
           rdf:resource="http://creativecommons.org/ns#Notice" /><cc:requires
           rdf:resource="http://creativecommons.org/ns#Attribution" /><cc:permits
           rdf:resource="http://creativecommons.org/ns#DerivativeWorks" /><cc:requires
           rdf:resource="http://creativecommons.org/ns#ShareAlike" /></cc:License></rdf:RDF></metadata><sodipodi:namedview
     pagecolor="#ffffff"
     bordercolor="#666666"
     borderopacity="1"
     objecttolerance="10"
     gridtolerance="10"
     guidetolerance="10"
     inkscape:pageopacity="0"
     inkscape:pageshadow="2"
     inkscape:window-width="1280"
     inkscape:window-height="973"
     id="namedview165"
     showgrid="false"
     inkscape:zoom="0.417193"
     inkscape:cx="302.62828"
     inkscape:cy="726.58693"
     inkscape:window-x="0"
     inkscape:window-y="23"
     inkscape:window-maximized="1"
     inkscape:current-layer="Layer_x0020_1" /><defs
     id="defs28"><style
       type="text/css"
       id="style2"><![CDATA[
    .fil0 {fill:none}
    .fil3 {fill:#212121}
    .fil5 {fill:#A7A8A9}
    .fil4 {fill:#C6C8C9}
    .fil9 {fill:#D13733}
    .fil6 {fill:#D8DADC}
    .fil2 {fill:#ECEFF1}
    .fil1 {fill:#EF5350}
    .fil7 {fill:#EF5350;fill-rule:nonzero}
    .fil8 {fill:#FAFAFA;fill-rule:nonzero}
    .fil10 {fill:black;fill-opacity:0.000000}
   ]]></style><clipPath
       id="id0"><path
         d="M681.891 664.452c0.395669,-0.566929 0.773622,-1.14331 1.13622,-1.73268 -0.179528,0.758268 -0.302362,1.5685 -1.13622,1.73268l0 0z"
         id="path4" /></clipPath><clipPath
       id="id1"><path
         d="M681.891 664.452c0.395669,-0.566929 0.773622,-1.14331 1.13622,-1.73268 -0.179528,0.758268 -0.302362,1.5685 -1.13622,1.73268l0 0z"
         id="path7" /></clipPath><clipPath
       id="id2"><path
         d="M681.891 664.452c0.395669,-0.566929 0.773622,-1.14331 1.13622,-1.73268 -0.179528,0.758268 -0.302362,1.5685 -1.13622,1.73268l0 0z"
         id="path10" /></clipPath><clipPath
       id="id3"><path
         d="M681.891 664.452c0.395669,-0.566929 0.773622,-1.14331 1.13622,-1.73268 -0.179528,0.758268 -0.302362,1.5685 -1.13622,1.73268l0 0z"
         id="path13" /></clipPath><clipPath
       id="id4"><path
         d="M626.279 669.454c-0.194882,-0.154724 -0.379134,-0.323622 -0.556299,-0.501969 -0.0236221,-0.022441 -0.0661418,-0.092126 -0.11811,-0.186614 0.222047,0.232677 0.446457,0.462992 0.67441,0.688583l0 0zm-2.42362 -2.66339c-0.0980315,-0.092126 -0.18189,-0.196063 -0.253937,-0.311811 0.0838583,0.103937 0.170079,0.209055 0.253937,0.311811z"
         id="path16" /></clipPath><clipPath
       id="id5"><path
         d="M626.279 669.454c-0.194882,-0.154724 -0.379134,-0.323622 -0.556299,-0.501969 -0.0236221,-0.022441 -0.0661418,-0.092126 -0.11811,-0.186614 0.222047,0.232677 0.446457,0.462992 0.67441,0.688583l0 0zm-2.42362 -2.66339c-0.0980315,-0.092126 -0.18189,-0.196063 -0.253937,-0.311811 0.0838583,0.103937 0.170079,0.209055 0.253937,0.311811z"
         id="path19" /></clipPath><clipPath
       id="id6"><path
         d="M626.279 669.454c-0.194882,-0.154724 -0.379134,-0.323622 -0.556299,-0.501969 -0.0236221,-0.022441 -0.0661418,-0.092126 -0.11811,-0.186614 0.222047,0.232677 0.446457,0.462992 0.67441,0.688583l0 0zm-2.42362 -2.66339c-0.0980315,-0.092126 -0.18189,-0.196063 -0.253937,-0.311811 0.0838583,0.103937 0.170079,0.209055 0.253937,0.311811z"
         id="path22" /></clipPath><clipPath
       id="id7"><path
         d="M626.279 669.454c-0.194882,-0.154724 -0.379134,-0.323622 -0.556299,-0.501969 -0.0236221,-0.022441 -0.0661418,-0.092126 -0.11811,-0.186614 0.222047,0.232677 0.446457,0.462992 0.67441,0.688583l0 0zm-2.42362 -2.66339c-0.0980315,-0.092126 -0.18189,-0.196063 -0.253937,-0.311811 0.0838583,0.103937 0.170079,0.209055 0.253937,0.311811z"
         id="path25" /></clipPath></defs><g
     id="Layer_x0020_1"><rect
       class="fil0"
       height="1600"
       width="1600"
       y="0.0011811"
       id="rect30" /><path
       class="fil1"
       d="M786.217 197.068c33.3898,1.78228 178.487,1.51654 180.241,43.3559 5.81221,125.346 22.7162,182.76 37.011,209.076 -5.36339,-0.80315 -10.8472,-1.22362 -16.4256,-1.22362l-390.339 0c-10.1197,0 -19.9311,1.37717 -29.2642,3.94252 14.5937,-24.9992 32.5158,-81.9615 38.5347,-211.794 1.75512,-41.8394 146.854,-41.5736 180.243,-43.3559l-0.0011811 0 0 -0.0011811z"
       id="_305298080"
       style="fill:#364e59" /><path
       class="fil1"
       d="M786.217 1402.93c33.3898,-1.78228 178.487,-1.51654 180.241,-43.3559 5.81221,-125.346 22.7162,-182.76 37.011,-209.076 -5.36339,0.80315 -10.8472,1.2248 -16.4256,1.2248l-390.339 0c-10.1197,0 -19.9311,-1.37835 -29.2642,-3.9437 14.5937,24.9992 32.5158,81.9615 38.5347,211.794 1.75512,41.8394 146.854,41.5736 180.243,43.3559l-0.0011811 0 0 0.0011811z"
       id="_305297288"
       style="fill:#364e59" /><path
       class="fil2"
       d="M1091.76 582.324l0 16.4032 0 6.29055c-13.4906,7.56969 -22.6595,22.0193 -22.6595,38.5099l0 46.1185c0,16.4906 9.1689,30.9402 22.6595,38.5099l0 6.81851 0 14.7366 0 52.9973 0 0.498425 0 1.71969c-2.7437,1.8874 -4.55315,5.04803 -4.55315,8.61142l0 185.704c0,3.56339 1.80945,6.72402 4.55315,8.61142l0 8.97284 0 20.7803 0 2.95394c0,61.1244 -50.0103,111.135 -111.135,111.135l-390.339 0c-61.1244,0 -111.135,-50.0103 -111.135,-111.135l0 -481.148c0,-61.1256 50.0103,-111.135 111.135,-111.135l390.339 0c61.1244,0 111.135,50.0091 111.135,111.135l0 22.9122 0 0.0011811 0 -0.0011811z"
       id="_305297600" /><path
       class="fil3"
       d="M579.828 488.099l411.245 0c36.4441,0 66,29.5559 66,66l0 491.77c0,36.4429 -29.5559,65.9989 -66,65.9989l-411.245 0.0011811c-36.4429,-0.0011811 -65.9989,-29.5571 -65.9989,-66.0012l-0.0011811 -491.769c0.0011811,-36.4441 29.5571,-66 66.0012,-66l-0.0011811 0z"
       id="_307664560" /><path
       class="fil4"
       d="M1102.79 727.48l0 -121.791c0.711024,-0.0838583 1.4315,-0.129921 2.15906,-0.135827l0.0448819 -0.0011811 0.0259843 0 0.0909449 0 0 0 0 0.00590551c8.69646,0.240945 15.7287,27.4689 15.7287,61.0276 0,33.5563 -7.03229,60.7855 -15.7287,61.0264l0 0.00590551 0 0 -0.0909449 -0.0011811 -0.0259843 0.0011811 -0.0448819 -0.00236221c-0.727559,-0.00590551 -1.44803,-0.0519685 -2.15906,-0.135827z"
       id="_305297024" /><path
       class="fil5"
       d="M1102.79 726.613l0 -0.81378 6.04725 0c-0.32126,0.308268 -0.647244,0.582284 -0.975591,0.81378l-5.07166 0zm0 -2.9811l0 -0.81378 8.36811 0c-0.173622,0.283465 -0.349606,0.555118 -0.526772,0.81378l-7.84134 0zm0 -2.9811l0 -0.814961 9.94725 0c-0.12874,0.27874 -0.258662,0.550394 -0.389764,0.814961l-9.55749 0zm0 -2.9811l0 -0.814961 11.1886 0 -0.315354 0.814961 -10.8732 0zm0 -2.9811l0 -0.814961 12.2185 0 -0.264567 0.814961 -11.9539 0zm0 -2.9811l0 -0.814961 13.0984 0 -0.226772 0.814961 -12.8717 0zm0 -2.9811l0 -0.814961 13.8614 0 -0.198425 0.814961 -13.663 0zm0 -2.9811l0 -0.814961 14.5299 0 -0.174803 0.814961 -14.3551 0zm0 -2.9811l0 -0.814961 15.1193 0 -0.154724 0.814961 -14.9646 0zm0 -2.9811l0 -0.814961 15.6354 0 -0.134646 0.814961 -15.5008 0zm0 -2.9811l0 -0.814961 16.0913 0 -0.11811 0.814961 -15.9732 0zm0 -2.9811l0 -0.814961 16.4906 0 -0.103937 0.814961 -16.3866 0zm0 -2.9811l0 -0.814961 16.8378 0 -0.0909449 0.814961 -16.7469 0zm0 -2.9811l0 -0.814961 17.1354 0 -0.0767717 0.814961 -17.0587 0zm0 -2.9811l0 -0.814961 17.3894 0 -0.0649607 0.814961 -17.3244 0zm0 -2.98228l0 -0.81378 17.5973 0 -0.0519685 0.81378 -17.5453 0zm0 -2.9811l0 -0.81378 17.7662 0 -0.0413386 0.81378 -17.7248 0zm0 -2.9811l0 -0.81378 17.8949 0 -0.0307087 0.81378 -17.8642 0zm0 -2.9811l0 -0.814961 17.9823 0 -0.0188976 0.814961 -17.9634 0zm0 -2.9811l0 -0.814961 18.0343 0 -0.0106299 0.814961 -18.0236 0zm0 -2.9811l0 -0.814961 18.0484 0 0.0011811 0.408662 -0.0011811 0.406299 -18.0484 0zm0 -2.9811l0 -0.814961 18.0236 0 0.0106299 0.814961 -18.0343 0zm0 -2.9811l0 -0.814961 17.9634 0 0.0188976 0.814961 -17.9823 0zm0 -2.9811l0 -0.814961 17.8642 0 0.0307087 0.814961 -17.8949 0zm0 -2.9811l0 -0.814961 17.7248 0 0.0413386 0.814961 -17.7662 0zm0 -2.9811l0 -0.814961 17.5453 0 0.0519685 0.814961 -17.5973 0zm0 -2.9811l0 -0.814961 17.3244 0 0.0637796 0.814961 -17.3882 0zm0 -2.9811l0 -0.814961 17.0587 0 0.0767717 0.814961 -17.1354 0zm0 -2.9811l0 -0.814961 16.7469 0 0.0909449 0.814961 -16.8378 0zm0 -2.9811l0 -0.814961 16.3866 0 0.103937 0.814961 -16.4906 0zm0 -2.98228l0 -0.81378 15.9732 0 0.116929 0.81378 -16.0902 0zm0 -2.9811l0 -0.81378 15.5008 0 0.134646 0.81378 -15.6354 0zm0 -2.9811l0 -0.81378 14.9646 0 0.154724 0.81378 -15.1193 0zm0 -2.9811l0 -0.81378 14.3551 0 0.174803 0.81378 -14.5299 0zm0 -2.9811l0 -0.814961 13.663 0 0.198425 0.814961 -13.8614 0zm0 -2.9811l0 -0.814961 12.8717 0 0.226772 0.814961 -13.0984 0zm0 -2.9811l0 -0.814961 11.9539 0 0.264567 0.814961 -12.2185 0zm0 -2.9811l0 -0.814961 10.8732 0c0.106299,0.266929 0.211417,0.538583 0.315354,0.814961l-11.1886 0zm0 -2.9811l0 -0.814961 9.55749 0c0.131102,0.264567 0.259843,0.536221 0.388583,0.814961l-9.94607 0zm0 -2.9811l0 -0.814961 7.84134 0c0.177165,0.261024 0.351969,0.531496 0.526772,0.814961l-8.36811 0zm0 -2.9811l0 -0.814961 5.07166 0c0.329528,0.231496 0.655512,0.505512 0.975591,0.814961l-6.04725 0z"
       id="_305297504" /><path
       class="fil4"
       d="M1091.76 605.018c-13.4906,7.56969 -22.6595,22.0193 -22.6595,38.5099l0 46.1185c0,16.4906 9.1689,30.9402 22.6595,38.5099l0 -123.138z"
       id="_305296880" /><path
       class="fil6"
       d="M1102.79 727.809c-16.748,-4.60394 -29.1449,-20.0055 -29.1449,-38.1638l0 -46.1185c0,-18.1595 12.3969,-33.5599 29.1449,-38.1638l0 122.446z"
       id="_305296424" /><path
       class="fil4"
       d="M1091.76 1007.85c-2.7437,-1.8874 -4.55315,-5.04803 -4.55315,-8.61142l0 -185.704c0,-3.56339 1.80945,-6.72402 4.55315,-8.61142l0 202.926z"
       id="_305296856" /><path
       class="fil6"
       d="M1094.91 807.648l0 0c3.25276,-0.0011811 5.89134,11.1945 5.89134,24.998l0 147.486c0,13.8036 -2.63858,24.9992 -5.89134,24.9992l0 0.0011811c-3.25276,-0.0011811 -5.89134,-11.1969 -5.89134,-25.0016l0.0011811 -147.483c-0.0011811,-13.8047 2.6374,-25.0004 5.89016,-25.0004l0 0.0011811z"
       id="_307667104" /><path
       class="fil1"
       d="M688.413 643.649c0,20.1165 -16.3075,36.4252 -36.4252,36.4252 -20.1165,0 -36.4252,-16.3087 -36.4252,-36.4252 0,-20.1177 16.3087,-36.4252 36.4252,-36.4252 20.1177,0 36.4252,16.3075 36.4252,36.4252z"
       id="_305296544"
       style="fill:#dff3f6;fill-opacity:1" /><path
       class="fil7"
       d="M765.855 679.898l-8.00079 0 0 -56.1083c-1.92874,2.01969 -4.44921,4.04055 -7.57678,6.06142 -3.14173,2.02087 -5.95158,3.53977 -8.44134,4.54252l0 -8.5004c4.47874,-2.32087 8.39646,-5.12599 11.752,-8.41654 3.33898,-3.30591 5.72362,-6.49607 7.11969,-9.60119l5.14725 0 0 72.0225z"
       id="_307668592"
       style="fill:#dff3f6;fill-opacity:1" /><path
       class="fil7"
       d="M812.97 679.898l-8.00079 0 0 -56.1083c-1.92874,2.01969 -4.44921,4.04055 -7.57678,6.06142 -3.14173,2.02087 -5.95158,3.53977 -8.44134,4.54252l0 -8.5004c4.47874,-2.32087 8.39646,-5.12599 11.752,-8.41654 3.33898,-3.30591 5.72362,-6.49607 7.11969,-9.60119l5.14725 0 0 72.0225z"
       id="_307669720"
       style="fill:#dff3f6;fill-opacity:1" /><path
       class="fil7"
       d="M841.138 637.967l0 -10.0193 9.1252 0 0 10.0193 -9.1252 0zm0 41.9315l0 -10.0358 9.1252 0 0 10.0358 -9.1252 0z"
       id="_307670392"
       style="fill:#dff3f6;fill-opacity:1" /><path
       class="fil7"
       d="M895.361 679.898l-8.00079 0 0 -56.1083c-1.92874,2.01969 -4.44921,4.04055 -7.57678,6.06142 -3.14173,2.02087 -5.95158,3.53977 -8.44134,4.54252l0 -8.5004c4.47874,-2.32087 8.39646,-5.12599 11.752,-8.41654 3.33898,-3.30591 5.72244,-6.49607 7.11969,-9.60119l5.14725 0 0 72.0225z"
       id="_307671208"
       style="fill:#dff3f6;fill-opacity:1" /><path
       class="fil7"
       d="M944.738 679.898l0 -17.1662 -28.2839 0 0 -8.08229 29.7567 -46.474 6.54331 0 0 46.474 8.80512 0 0 8.08229 -8.80512 0 0 17.1662 -8.01615 0zm0 -25.2484l0 -32.3303 -20.4059 32.3303 20.4059 0z"
       id="_307672624"
       style="fill:#dff3f6;fill-opacity:1" /><path
       class="fil7"
       d="M613.911 756.405l3.72992 -0.327166c0.174803,1.49646 0.584646,2.72126 1.23189,3.6815 0.648426,0.961418 1.65,1.73386 3.00709,2.32559 1.35709,0.590551 2.88898,0.883465 4.58622,0.883465 1.51063,0 2.84055,-0.223228 3.99567,-0.668504 1.15512,-0.452362 2.0185,-1.06417 2.58189,-1.8437 0.563386,-0.786615 0.849213,-1.63583 0.849213,-2.56181 0,-0.938977 -0.271654,-1.75394 -0.820867,-2.45669 -0.543307,-0.702756 -1.44095,-1.2874 -2.68701,-1.76102 -0.807874,-0.312992 -2.5748,-0.799607 -5.32441,-1.46102 -2.74252,-0.661418 -4.67008,-1.2815 -5.76969,-1.86496 -1.42677,-0.745276 -2.49213,-1.67835 -3.19488,-2.78504 -0.69567,-1.10669 -1.0441,-2.34449 -1.0441,-3.72284 0,-1.50354 0.425197,-2.91614 1.2815,-4.22481 0.855119,-1.31575 2.10827,-2.31024 3.75118,-2.99291 1.64882,-0.67441 3.47244,-1.01575 5.48386,-1.01575 2.22047,0 4.16929,0.354331 5.86772,1.07126 1.69134,0.709843 2.99291,1.76102 3.90473,3.14646 0.904725,1.38425 1.39843,2.95748 1.46811,4.71142l-3.7937 0.285827c-0.207874,-1.88622 -0.897638,-3.32008 -2.07402,-4.28032 -1.1752,-0.967323 -2.90906,-1.44803 -5.20512,-1.44803 -2.3941,0 -4.13504,0.438189 -5.23465,1.31575 -1.09252,0.876378 -1.64173,1.93465 -1.64173,3.16654 0,1.07835 0.389764,1.96299 1.16221,2.65158 0.765355,0.69567 2.74843,1.40551 5.96457,2.12953 3.21496,0.731103 5.42126,1.36417 6.6189,1.90748 1.73976,0.806693 3.02717,1.82362 3.85512,3.04843 0.827953,1.23189 1.23898,2.65158 1.23898,4.25197 0,1.59449 -0.452362,3.09095 -1.36417,4.49646 -0.911811,1.40551 -2.22047,2.49803 -3.92481,3.28465 -1.70551,0.779528 -3.62599,1.16929 -5.7567,1.16929 -2.70709,0 -4.97599,-0.389764 -6.79961,-1.18347 -1.82953,-0.785433 -3.26339,-1.9689 -4.30748,-3.5563 -1.03701,-1.57913 -1.5874,-3.37559 -1.63583,-5.37284zm42.9213 9.60473l0 -3.18071c-1.69134,2.44961 -3.9815,3.66732 -6.87638,3.66732 -1.27441,0 -2.47087,-0.243307 -3.57756,-0.729922 -1.10669,-0.487796 -1.92756,-1.10669 -2.46378,-1.84488 -0.543307,-0.744095 -0.918898,-1.64882 -1.13504,-2.72126 -0.145276,-0.724016 -0.222047,-1.86496 -0.222047,-3.4311l0 -13.4114 3.66732 0 0 12.0059c0,1.92047 0.0767717,3.20788 0.223228,3.87638 0.236221,0.967323 0.724016,1.7185 1.46811,2.27599 0.752363,0.549213 1.67717,0.820867 2.77677,0.820867 1.09961,0 2.12953,-0.277559 3.09803,-0.842126 0.967323,-0.563386 1.64882,-1.33583 2.04567,-2.30315 0.403937,-0.97441 0.605906,-2.38701 0.605906,-4.23189l0 -11.602 3.66732 0 0 21.652 -3.27756 0zm9.03308 0l0 -21.652 3.3 0 0 3.07559c1.59331,-2.37992 3.89055,-3.56929 6.88937,-3.56929 1.30866,0 2.5063,0.236221 3.59882,0.702756 1.09961,0.472441 1.91339,1.08543 2.45669,1.85079 0.550394,0.758268 0.925985,1.66299 1.14803,2.70709 0.132284,0.682678 0.201969,1.87323 0.201969,3.57047l0 13.3146 -3.67441 0 0 -13.1752c0,-1.48937 -0.13937,-2.61024 -0.425197,-3.35433 -0.284646,-0.738189 -0.79252,-1.32992 -1.51654,-1.76811 -0.731103,-0.445276 -1.58032,-0.668504 -2.56181,-0.668504 -1.56614,0 -2.90906,0.501969 -4.05,1.49055 -1.13504,0.994489 -1.69843,2.87362 -1.69843,5.6504l0 11.8252 -3.66851 0zm21.7571 -6.46536l3.62599 -0.570473c0.201969,1.45394 0.772441,2.56772 1.70551,3.34725 0.925985,0.772441 2.22756,1.16221 3.90473,1.16221 1.68425,0 2.93622,-0.348425 3.75118,-1.02992 0.81378,-0.689764 1.2248,-1.49646 1.2248,-2.41536 0,-0.83504 -0.361418,-1.48228 -1.08543,-1.96299 -0.501969,-0.327166 -1.75394,-0.737008 -3.75118,-1.23898 -2.68701,-0.681496 -4.55906,-1.26614 -5.59607,-1.76693 -1.03701,-0.494882 -1.83071,-1.18347 -2.36693,-2.06102 -0.53504,-0.876378 -0.806693,-1.8437 -0.806693,-2.90197 0,-0.967323 0.222047,-1.85787 0.668504,-2.67874 0.438189,-0.829134 1.04291,-1.51063 1.80236,-2.05394 0.570473,-0.416929 1.35,-0.779528 2.3315,-1.07126 0.988583,-0.292914 2.04567,-0.438189 3.17362,-0.438189 1.69843,0 3.1878,0.250394 4.4752,0.737008 1.2874,0.487796 2.23347,1.14803 2.84646,1.98425 0.611811,0.842126 1.02992,1.95473 1.25906,3.35433l-3.58347 0.493701c-0.167717,-1.11378 -0.640158,-1.98307 -1.41969,-2.61024 -0.779528,-0.625985 -1.88622,-0.938977 -3.31299,-0.938977 -1.68425,0 -2.88898,0.27874 -3.60591,0.83504 -0.724016,0.556299 -1.08543,1.21063 -1.08543,1.95591 0,0.480709 0.153543,0.904725 0.452362,1.2874 0.298819,0.396851 0.765355,0.716929 1.40551,0.981497 0.369685,0.132284 1.44803,0.445276 3.24331,0.933071 2.59606,0.69567 4.40551,1.25906 5.42953,1.70433 1.02992,0.438189 1.83662,1.08543 2.42126,1.92874 0.584646,0.842126 0.877559,1.88504 0.877559,3.13819 0,1.2248 -0.362599,2.37402 -1.07244,3.45945 -0.716929,1.07835 -1.74685,1.91339 -3.08977,2.50512 -1.34291,0.591733 -2.86772,0.883465 -4.56614,0.883465 -2.81811,0 -4.96181,-0.583465 -6.43701,-1.75276 -1.47638,-1.16929 -2.41536,-2.90315 -2.81929,-5.19922zm37.1658 -0.507874l3.79252 0.465355c-0.597638,2.22047 -1.70433,3.94016 -3.3189,5.16496 -1.62165,1.21772 -3.68858,1.82953 -6.20197,1.82953 -3.16654,0 -5.67874,-0.973229 -7.53071,-2.92205 -1.85787,-1.94882 -2.78386,-4.68425 -2.78386,-8.2063 0,-3.64725 0.940158,-6.47244 2.81221,-8.48386 1.87913,-2.01142 4.30866,-3.02008 7.3004,-3.02008 2.89606,0 5.26181,0.987402 7.09252,2.95748 1.8378,1.97008 2.75669,4.74685 2.75669,8.31733 0,0.222047 -0.00708662,0.549213 -0.0212599,0.981497l-16.1469 0c0.132284,2.37992 0.806693,4.20355 2.0185,5.4626 1.21063,1.26732 2.71417,1.90039 4.52362,1.90039 1.34291,0 2.49213,-0.355512 3.44528,-1.06535 0.95315,-0.702756 1.70551,-1.82953 2.26181,-3.3815zm-12.0473 -5.9374l12.0886 0c-0.159449,-1.81654 -0.625985,-3.1878 -1.38425,-4.09252 -1.16929,-1.4126 -2.68701,-2.12244 -4.54488,-2.12244 -1.68425,0 -3.10394,0.563386 -4.25315,1.69134 -1.14803,1.12677 -1.7811,2.6374 -1.9063,4.52362zm28.4658 9.62599l0.529134 3.24331c-1.02992,0.214961 -1.95591,0.327166 -2.76969,0.327166 -1.33701,0 -2.36693,-0.209055 -3.10512,-0.634252 -0.729922,-0.416929 -1.24488,-0.97441 -1.54488,-1.66299 -0.298819,-0.681496 -0.452362,-2.12953 -0.452362,-4.32874l0 -12.4583 -2.69291 0 0 -2.85354 2.69291 0 0 -5.36575 3.65433 -2.19921 0 7.56496 3.68858 0 0 2.85354 -3.68858 0 0 12.6602c0,1.05 0.0625985,1.7185 0.187795,2.0185 0.132284,0.298819 0.341339,0.53504 0.633071,0.715748 0.292914,0.174803 0.709843,0.264567 1.25315,0.264567 0.411024,0 0.946063,-0.0484252 1.61457,-0.145276zm14.4142 -22.689l0 -3.52914 19.3476 0 0 2.85354c-1.90039,2.02559 -3.78543,4.71851 -5.65866,8.07284 -1.86496,3.35551 -3.31299,6.81378 -4.32874,10.3571 -0.737008,2.50512 -1.20354,5.24055 -1.40551,8.2193l-3.77244 0c0.0413386,-2.35276 0.500788,-5.19213 1.38543,-8.52638 0.883465,-3.32599 2.14961,-6.54213 3.79961,-9.63189 1.65709,-3.08977 3.40984,-5.7 5.27599,-7.81536l-14.6433 0zm25.0205 8.49804l0 -4.17638 4.18229 0 0 4.17638 -4.18229 0zm0 17.4756l0 -4.18229 4.18229 0 0 4.18229 -4.18229 0zm23.3847 0l-3.66732 0 0 -23.3847c-0.884646,0.842126 -2.03976,1.68425 -3.47362,2.52638 -1.44095,0.842126 -2.72835,1.4752 -3.86929,1.89213l0 -3.54213c2.05276,-0.967323 3.84921,-2.13662 5.38701,-3.50788 1.53071,-1.37835 2.62323,-2.70709 3.26339,-4.00158l2.35984 0 0 30.0177zm9.40276 -14.7413c0,-3.53504 0.362599,-6.3815 1.09252,-8.53229 0.724016,-2.15788 1.81063,-3.82087 3.24331,-4.99016 1.43386,-1.16929 3.23622,-1.75394 5.40827,-1.75394 1.60748,0 3.01299,0.327166 4.22362,0.97441 1.21063,0.640158 2.2063,1.57323 3,2.79095 0.785433,1.21772 1.40551,2.7 1.85079,4.44685 0.452362,1.74685 0.675591,4.09961 0.675591,7.06418 0,3.50788 -0.362599,6.33426 -1.07953,8.49095 -0.724016,2.15788 -1.80236,3.82087 -3.23622,4.99725 -1.43386,1.17638 -3.24213,1.76102 -5.43425,1.76102 -2.88189,0 -5.1437,-1.02992 -6.78544,-3.09685 -1.97008,-2.48504 -2.95866,-6.54213 -2.95866,-12.1524zm3.77244 0c0,4.90748 0.577559,8.17087 1.72559,9.79961 1.14921,1.62165 2.56181,2.43662 4.24607,2.43662 1.69134,0 3.10276,-0.822048 4.25079,-2.45079 1.14921,-1.62756 1.72677,-4.89213 1.72677,-9.78544 0,-4.92047 -0.577559,-8.19095 -1.72677,-9.80552 -1.14803,-1.62165 -2.57362,-2.42953 -4.28504,-2.42953 -1.69134,0 -3.03543,0.716929 -4.0441,2.1437 -1.26024,1.81654 -1.89331,5.18504 -1.89331,10.0913z"
       id="_307673248"
       style="fill:#dff3f6;fill-opacity:1" /><path
       class="fil7"
       d="M621.203 992.299l-2.79567 0 0 -19.6075c-0.67441,0.7063 -1.55433,1.41142 -2.64803,2.11772 -1.09724,0.7063 -2.07874,1.2378 -2.94921,1.5874l0 -2.97047c1.56496,-0.810237 2.93386,-1.79055 4.10669,-2.94095 1.16693,-1.15512 1.99961,-2.27008 2.48858,-3.35551l1.79764 0 0 25.1693z"
       id="_307677304"
       style="fill:#dff3f6;fill-opacity:1" /><path
       class="fil7"
       d="M629.508 985.684l2.79567 -0.408662c0.323622,1.74567 0.869292,3 1.63937,3.77008 0.774804,0.770079 1.71378,1.15512 2.82284,1.15512 1.31457,0 2.42953,-0.501969 3.33662,-1.50473 0.902363,-1.00394 1.35827,-2.24764 1.35827,-3.72992 0,-1.41142 -0.419292,-2.57835 -1.25669,-3.49488 -0.844489,-0.916536 -1.91102,-1.37717 -3.20433,-1.37717 -0.531496,0 -1.18937,0.116929 -1.97362,0.343701l0.311811 -2.70118c0.186614,0.022441 0.334252,0.034252 0.451181,0.034252 1.18937,0 2.26063,-0.343701 3.21496,-1.02638 0.955512,-0.682678 1.43268,-1.73976 1.43268,-3.16299 0,-1.12677 -0.349606,-2.06575 -1.04528,-2.80158 -0.694489,-0.740552 -1.59095,-1.11378 -2.68937,-1.11378 -1.0878,0 -1.99488,0.379134 -2.71654,1.12559 -0.727559,0.752363 -1.1941,1.88504 -1.40079,3.39095l-2.79567 -0.549213c0.338977,-2.06575 1.1185,-3.66496 2.32914,-4.79646 1.21417,-1.13268 2.72126,-1.70433 4.52599,-1.70433 1.24134,0 2.38701,0.297638 3.4311,0.881103 1.04646,0.58937 1.84725,1.38898 2.40354,2.40473 0.551575,1.01575 0.833859,2.08937 0.833859,3.23268 0,1.07953 -0.265748,2.06575 -0.796063,2.95866 -0.530315,0.887008 -1.30984,1.59331 -2.34567,2.1189 1.34764,0.337795 2.39291,1.05 3.14173,2.12953 0.742914,1.07362 1.11378,2.42126 1.11378,4.03819 0,2.18858 -0.721654,4.0441 -2.17559,5.56772 -1.44803,1.52244 -3.28347,2.28189 -5.50158,2.28189 -1.99961,0 -3.66024,-0.654331 -4.98189,-1.96772 -1.32047,-1.3063 -2.07402,-3.00473 -2.25945,-5.0941z"
       id="_307678048"
       style="fill:#dff3f6;fill-opacity:1" /><path
       class="fil7"
       d="M649.874 977.645l0 -3.50197 3.18898 0 0 3.50197 -3.18898 0zm0 14.6528l0 -3.50669 3.18898 0 0 3.50669 -3.18898 0z"
       id="_307678768"
       style="fill:#dff3f6;fill-opacity:1" /><path
       class="fil7"
       d="M672.991 989.339l0 2.95866 -15.0626 0c-0.0212599,-0.740552 0.0850394,-1.45276 0.324803,-2.13543 0.380315,-1.13268 0.99567,-2.24173 1.84016,-3.33898 0.849213,-1.09016 2.06929,-2.35748 3.66024,-3.79252 2.47795,-2.23465 4.15512,-4.00276 5.02441,-5.31024 0.870473,-1.30158 1.3063,-2.53819 1.3063,-3.7004 0,-1.2189 -0.399213,-2.24646 -1.18937,-3.08622 -0.796063,-0.83504 -1.83071,-1.25551 -3.10276,-1.25551 -1.34764,0 -2.4248,0.444095 -3.2315,1.33701 -0.811418,0.887008 -1.22126,2.11772 -1.23189,3.6874l-2.8748 -0.320079c0.196063,-2.36339 0.938977,-4.16103 2.22284,-5.39882 1.28386,-1.23661 3.01299,-1.85551 5.17796,-1.85551 2.18504,0 3.91536,0.670866 5.18859,2.00197 1.27913,1.33583 1.91575,2.98819 1.91575,4.96063 0,1.00276 -0.185433,1.98898 -0.562205,2.95866 -0.372047,0.968504 -0.992126,1.98898 -1.85669,3.05788 -0.865748,1.07362 -2.30315,2.5441 -4.31339,4.41142 -1.67717,1.55197 -2.75433,2.60197 -3.2315,3.15709 -0.477166,0.548032 -0.870473,1.10315 -1.18347,1.66299l11.1791 0z"
       id="_307679392"
       style="fill:#dff3f6;fill-opacity:1" /><path
       class="fil7"
       d="M687.646 992.299l-2.79567 0 0 -19.6075c-0.67441,0.7063 -1.55433,1.41142 -2.64803,2.11772 -1.09724,0.7063 -2.07874,1.2378 -2.94921,1.5874l0 -2.97047c1.56496,-0.810237 2.93386,-1.79055 4.10669,-2.94095 1.16693,-1.15512 1.99961,-2.27008 2.48858,-3.35551l1.79764 0 0 25.1693z"
       id="_307680328"
       style="fill:#dff3f6;fill-opacity:1" /><path
       class="fil7"
       d="M772.028 973.373l-2.78032 0.238583c-0.249213,-1.20709 -0.598819,-2.08819 -1.05591,-2.6315 -0.758268,-0.881103 -1.69252,-1.31811 -2.80158,-1.31811 -0.890552,0 -1.67008,0.274016 -2.34331,0.822048 -0.882284,0.7063 -1.57677,1.73976 -2.08583,3.09331 -0.504331,1.35354 -0.770079,3.28465 -0.790158,5.79449 0.673229,-1.12677 1.49528,-1.96654 2.47205,-2.51457 0.970867,-0.543307 1.99488,-0.817323 3.06142,-0.817323 1.86732,0 3.45355,0.752363 4.76457,2.26417 1.30984,1.51181 1.96772,3.46063 1.96772,5.85355 0,1.57559 -0.312992,3.03425 -0.928347,4.3878 -0.615355,1.34764 -1.46339,2.38701 -2.54055,3.10512 -1.07717,0.716929 -2.29843,1.07362 -3.66732,1.07362 -2.33504,0 -4.23307,-0.940158 -5.70355,-2.8311 -1.4752,-1.88504 -2.2063,-4.99488 -2.2063,-9.32481 0,-4.8437 0.811418,-8.36221 2.44016,-10.5626 1.41732,-1.91457 3.32599,-2.87717 5.73544,-2.87717 1.78819,0 3.25748,0.555118 4.40315,1.66299 1.14685,1.10315 1.83071,2.63268 2.05866,4.5815zm-11.4224 10.8012c0,1.06299 0.206693,2.07756 0.615355,3.04606 0.408662,0.969686 0.981497,1.70433 1.71378,2.21221 0.738189,0.507874 1.51181,0.764174 2.31851,0.764174 1.18347,0 2.19567,-0.52441 3.04488,-1.57559 0.849213,-1.05 1.27441,-2.47441 1.27441,-4.27087 0,-1.73386 -0.420473,-3.09921 -1.25787,-4.09725 -0.838583,-0.998032 -1.89449,-1.4941 -3.16772,-1.4941 -1.2685,0 -2.33976,0.496063 -3.22087,1.4941 -0.879922,0.998032 -1.32047,2.30551 -1.32047,3.92126z"
       id="_307681864"
       style="fill:#dff3f6;fill-opacity:1" /><path
       class="fil7"
       d="M777.892 977.645l0 -3.50197 3.18898 0 0 3.50197 -3.18898 0zm0 14.6528l0 -3.50669 3.18898 0 0 3.50669 -3.18898 0z"
       id="_307682440"
       style="fill:#dff3f6;fill-opacity:1" /><path
       class="fil7"
       d="M786.32 985.684l2.79685 -0.408662c0.323622,1.74567 0.869292,3 1.63937,3.77008 0.774804,0.770079 1.71378,1.15512 2.82165,1.15512 1.31575,0 2.43071,-0.501969 3.3378,-1.50473 0.902363,-1.00394 1.35827,-2.24764 1.35827,-3.72992 0,-1.41142 -0.419292,-2.57835 -1.25669,-3.49488 -0.844489,-0.916536 -1.91102,-1.37717 -3.20433,-1.37717 -0.531496,0 -1.18937,0.116929 -1.97362,0.343701l0.311811 -2.70118c0.185433,0.022441 0.334252,0.034252 0.451181,0.034252 1.18819,0 2.26063,-0.343701 3.21496,-1.02638 0.955512,-0.682678 1.43268,-1.73976 1.43268,-3.16299 0,-1.12677 -0.350788,-2.06575 -1.04528,-2.80158 -0.694489,-0.740552 -1.59095,-1.11378 -2.68937,-1.11378 -1.0878,0 -1.99488,0.379134 -2.71654,1.12559 -0.727559,0.752363 -1.1941,1.88504 -1.40079,3.39095l-2.79567 -0.549213c0.338977,-2.06575 1.1185,-3.66496 2.32914,-4.79646 1.21417,-1.13268 2.72126,-1.70433 4.52599,-1.70433 1.24134,0 2.38701,0.297638 3.4311,0.881103 1.04646,0.58937 1.84725,1.38898 2.40354,2.40473 0.551575,1.01575 0.833859,2.08937 0.833859,3.23268 0,1.07953 -0.265748,2.06575 -0.796063,2.95866 -0.530315,0.887008 -1.30984,1.59331 -2.34567,2.1189 1.34764,0.337795 2.39291,1.05 3.14173,2.12953 0.742914,1.07362 1.11378,2.42126 1.11378,4.03819 0,2.18858 -0.721654,4.0441 -2.17559,5.56772 -1.44803,1.52244 -3.28347,2.28189 -5.50158,2.28189 -1.99961,0 -3.66142,-0.654331 -4.98189,-1.96772 -1.32047,-1.3063 -2.07402,-3.00473 -2.26063,-5.0941z"
       id="_307683184"
       style="fill:#dff3f6;fill-opacity:1" /><path
       class="fil7"
       d="M805.128 985.733l2.93858 -0.275197c0.218504,1.57559 0.721654,2.75433 1.51299,3.54803 0.796063,0.793701 1.75039,1.19055 2.87008,1.19055 1.34764,0 2.48858,-0.559843 3.41693,-1.6748 0.933071,-1.11969 1.40079,-2.60197 1.40079,-4.44685 0,-1.7563 -0.445276,-3.13937 -1.34291,-4.15512 -0.896457,-1.01457 -2.06929,-1.52244 -3.52323,-1.52244 -0.901182,0 -1.71378,0.227953 -2.44016,0.676772 -0.727559,0.45 -1.29449,1.03347 -1.70906,1.75039l-2.62441 -0.373229 2.2063 -12.8728 11.3327 0 0 2.94095 -9.09449 0 -1.22953 6.73465c1.3689,-1.05118 2.8063,-1.57559 4.30748,-1.57559 1.99016,0 3.66614,0.758268 5.03504,2.2748 1.36772,1.51772 2.05276,3.46654 2.05276,5.84764 0,2.27008 -0.603544,4.23071 -1.80354,5.88307 -1.46457,2.02441 -3.45945,3.04016 -5.98465,3.04016 -2.07402,0 -3.76654,-0.636614 -5.07756,-1.91457 -1.30984,-1.27795 -2.05866,-2.97047 -2.2441,-5.07638z"
       id="_307684264"
       style="fill:#dff3f6;fill-opacity:1" /><path
       class="fil7"
       d="M877.265 979.937c0,-2.96457 0.275197,-5.3504 0.832678,-7.15394 0.552756,-1.80945 1.38071,-3.20433 2.47205,-4.18465 1.0937,-0.980315 2.46732,-1.47047 4.12205,-1.47047 1.22717,0 2.29843,0.274016 3.22205,0.817323 0.922441,0.536221 1.68189,1.31929 2.28543,2.33976 0.6,1.02165 1.07244,2.26417 1.41142,3.72874 0.344882,1.46575 0.516142,3.43819 0.516142,5.92323 0,2.94095 -0.276378,5.31024 -0.823229,7.11969 -0.551575,1.80945 -1.3748,3.20433 -2.46732,4.19055 -1.0937,0.986221 -2.47205,1.47638 -4.14449,1.47638 -2.19567,0 -3.92008,-0.864567 -5.17205,-2.59725 -1.50118,-2.08347 -2.25473,-5.48504 -2.25473,-10.1894zm2.8748 0c0,4.11496 0.440551,6.85158 1.31693,8.21693 0.875197,1.35945 1.95236,2.04213 3.23504,2.04213 1.28976,0 2.36693,-0.688583 3.24213,-2.05394 0.876378,-1.36536 1.31693,-4.10197 1.31693,-8.20512 0,-4.12559 -0.440551,-6.86811 -1.31693,-8.22166 -0.875197,-1.36063 -1.96299,-2.0374 -3.26693,-2.0374 -1.28976,0 -2.31378,0.601181 -3.08386,1.79764 -0.959056,1.52362 -1.44331,4.34764 -1.44331,8.46142z"
       id="_307685824"
       style="fill:#dff3f6;fill-opacity:1" /><path
       class="fil7"
       d="M896.091 979.937c0,-2.96457 0.275197,-5.3504 0.832678,-7.15394 0.552756,-1.80945 1.38071,-3.20433 2.47205,-4.18465 1.0937,-0.980315 2.46732,-1.47047 4.12205,-1.47047 1.22717,0 2.29843,0.274016 3.22205,0.817323 0.922441,0.536221 1.68189,1.31929 2.28543,2.33976 0.6,1.02165 1.07244,2.26417 1.41142,3.72874 0.344882,1.46575 0.514961,3.43819 0.514961,5.92323 0,2.94095 -0.275197,5.31024 -0.822048,7.11969 -0.551575,1.80945 -1.3748,3.20433 -2.46732,4.19055 -1.0937,0.986221 -2.47205,1.47638 -4.14449,1.47638 -2.19567,0 -3.92008,-0.864567 -5.17205,-2.59725 -1.50118,-2.08347 -2.25473,-5.48504 -2.25473,-10.1894zm2.8748 0c0,4.11496 0.440551,6.85158 1.31693,8.21693 0.875197,1.35945 1.95236,2.04213 3.23504,2.04213 1.28976,0 2.36693,-0.688583 3.24213,-2.05394 0.876378,-1.36536 1.31693,-4.10197 1.31693,-8.20512 0,-4.12559 -0.440551,-6.86811 -1.31693,-8.22166 -0.875197,-1.36063 -1.96299,-2.0374 -3.26693,-2.0374 -1.28976,0 -2.31378,0.601181 -3.08386,1.79764 -0.959056,1.52362 -1.44331,4.34764 -1.44331,8.46142z"
       id="_307686952"
       style="fill:#dff3f6;fill-opacity:1" /><path
       class="fil7"
       d="M916.473 977.645l0 -3.50197 3.1878 0 0 3.50197 -3.1878 0zm0 14.6528l0 -3.50669 3.1878 0 0 3.50669 -3.1878 0z"
       id="_307687984"
       style="fill:#dff3f6;fill-opacity:1" /><path
       class="fil7"
       d="M924.898 985.684l2.79685 -0.408662c0.322441,1.74567 0.869292,3 1.63937,3.77008 0.774804,0.770079 1.71378,1.15512 2.82165,1.15512 1.31575,0 2.43071,-0.501969 3.3378,-1.50473 0.902363,-1.00394 1.35827,-2.24764 1.35827,-3.72992 0,-1.41142 -0.419292,-2.57835 -1.25787,-3.49488 -0.843308,-0.916536 -1.90984,-1.37717 -3.20315,-1.37717 -0.531496,0 -1.18937,0.116929 -1.97362,0.343701l0.311811 -2.70118c0.185433,0.022441 0.334252,0.034252 0.451181,0.034252 1.18819,0 2.26063,-0.343701 3.21496,-1.02638 0.955512,-0.682678 1.43268,-1.73976 1.43268,-3.16299 0,-1.12677 -0.350788,-2.06575 -1.04528,-2.80158 -0.694489,-0.740552 -1.59095,-1.11378 -2.68937,-1.11378 -1.0878,0 -1.99606,0.379134 -2.71654,1.12559 -0.727559,0.752363 -1.1941,1.88504 -1.40079,3.39095l-2.79567 -0.549213c0.338977,-2.06575 1.1185,-3.66496 2.32914,-4.79646 1.21417,-1.13268 2.72126,-1.70433 4.52599,-1.70433 1.24134,0 2.38701,0.297638 3.4311,0.881103 1.04646,0.58937 1.84725,1.38898 2.40354,2.40473 0.551575,1.01575 0.832678,2.08937 0.832678,3.23268 0,1.07953 -0.264567,2.06575 -0.794882,2.95866 -0.530315,0.887008 -1.30984,1.59331 -2.34567,2.1189 1.34764,0.337795 2.39291,1.05 3.14055,2.12953 0.744095,1.07362 1.11496,2.42126 1.11496,4.03819 0,2.18858 -0.721654,4.0441 -2.17559,5.56772 -1.44803,1.52244 -3.28347,2.28189 -5.50158,2.28189 -1.99961,0 -3.66142,-0.654331 -4.98189,-1.96772 -1.32047,-1.3063 -2.07402,-3.00473 -2.26063,-5.0941z"
       id="_307685704"
       style="fill:#dff3f6;fill-opacity:1" /><path
       class="fil7"
       d="M958.415 989.339l0 2.95866 -15.0626 0c-0.0212599,-0.740552 0.0850394,-1.45276 0.323622,-2.13543 0.381496,-1.13268 0.996851,-2.24173 1.84134,-3.33898 0.849213,-1.09016 2.06929,-2.35748 3.66024,-3.79252 2.47795,-2.23465 4.15394,-4.00276 5.02441,-5.31024 0.870473,-1.30158 1.30512,-2.53819 1.30512,-3.7004 0,-1.2189 -0.398032,-2.24646 -1.18819,-3.08622 -0.796063,-0.83504 -1.83071,-1.25551 -3.10276,-1.25551 -1.34764,0 -2.4248,0.444095 -3.2315,1.33701 -0.811418,0.887008 -1.22126,2.11772 -1.23189,3.6874l-2.87599 -0.320079c0.197244,-2.36339 0.940158,-4.16103 2.22402,-5.39882 1.28386,-1.23661 3.01299,-1.85551 5.17796,-1.85551 2.18504,0 3.91536,0.670866 5.18859,2.00197 1.27913,1.33583 1.91575,2.98819 1.91575,4.96063 0,1.00276 -0.185433,1.98898 -0.562205,2.95866 -0.372047,0.968504 -0.992126,1.98898 -1.85669,3.05788 -0.865748,1.07362 -2.30315,2.5441 -4.31339,4.41142 -1.67717,1.55197 -2.75433,2.60197 -3.2315,3.15709 -0.477166,0.548032 -0.870473,1.10315 -1.18347,1.66299l11.1791 0z"
       id="_308155008"
       style="fill:#dff3f6;fill-opacity:1" /><path
       class="fil1"
       d="M769.988 916.19c2.64567,-4.03229 6.77008,-7.00748 11.5866,-8.17796 0.375591,-0.0838583 0.680315,-0.348425 0.825591,-0.705118 0.145276,-0.354331 0.109843,-0.753544 -0.0956693,-1.07835 -1.54488,-2.45906 -4.27323,-4.09843 -7.39252,-4.09843 -4.82244,0 -8.73662,3.90827 -8.73662,8.73189 0,2.04921 0.709843,3.92835 1.88976,5.41772 0.233858,0.301181 0.598819,0.465355 0.983859,0.445276 0.380315,-0.0153543 0.729922,-0.214961 0.938977,-0.53504z"
       id="_305295632"
       style="fill:#dff3f6;fill-opacity:1" /><path
       class="fil1"
       d="M801.524 902.131c-3.10394,0 -5.82874,1.62402 -7.37244,4.06772 -0.210236,0.325984 -0.244488,0.726378 -0.100394,1.08543 0.145276,0.354331 0.455906,0.618898 0.830315,0.705118 4.83307,1.13858 8.97166,4.09252 11.635,8.11654 0.216142,0.320079 0.566929,0.514961 0.950788,0.530315 0.38504,0.0141732 0.748819,-0.159449 0.98504,-0.46063 1.12913,-1.46811 1.80945,-3.30827 1.80945,-5.30788 -0.00590551,-4.82835 -3.91299,-8.73662 -8.7378,-8.73662z"
       id="_305295416"
       style="fill:#dff3f6;fill-opacity:1" /><path
       class="fil1"
       d="M807.526 928.881c0,-3.37441 -0.874016,-6.54213 -2.40236,-9.30237 -2.83465,-5.10827 -7.92874,-8.77678 -13.9169,-9.69686 -0.954331,-0.144095 -1.92284,-0.244488 -2.92441,-0.244488 -1.03819,0 -2.04803,0.105118 -3.04725,0.265748 -5.96457,0.959056 -11.0327,4.64292 -13.8366,9.75591 -1.49882,2.73898 -2.35984,5.88307 -2.35984,9.22205 0,5.7189 2.5252,10.8461 6.4937,14.3705l-1.61929 2.28898c-0.699213,0.980315 -0.464173,2.34449 0.519685,3.0437 0.380315,0.270473 0.825591,0.400394 1.26024,0.400394 0.68504,0 1.35945,-0.320079 1.78347,-0.920079l1.62047 -2.28425c2.72835,1.49528 5.863,2.34449 9.18544,2.34449 3.32953,0 6.45827,-0.849213 9.19252,-2.34449l1.62047 2.28425c0.425197,0.6 1.09961,0.920079 1.78347,0.920079 0.434646,0 0.875197,-0.129921 1.25906,-0.400394 0.986221,-0.699213 1.21654,-2.06339 0.520866,-3.0437l-1.6252 -2.28898c3.97441,-3.52441 6.49252,-8.65158 6.49252,-14.3705zm-19.2437 13.8602c-7.64055,0 -13.8602,-6.21733 -13.8602,-13.8602 0,-2.38347 0.605906,-4.62756 1.67008,-6.58819 2.01969,-3.72874 5.70827,-6.41693 10.0559,-7.09252 0.700394,-0.108661 1.41024,-0.184252 2.13425,-0.184252 0.689764,0 1.36063,0.0696851 2.01969,0.165354 4.38425,0.644882 8.11182,3.32717 10.1575,7.07717 1.0748,1.9689 1.68898,4.22362 1.68898,6.62244 0,7.64292 -6.21733,13.8602 -13.8661,13.8602z"
       id="_305311520"
       style="fill:#dff3f6;fill-opacity:1" /><path
       class="fil1"
       d="M796.05 932.124l-5.28898 -3.26811c-0.109843,-0.614174 -0.445276,-1.14921 -0.915355,-1.52953l0.244488 -6.63307c0.0307087,-0.850394 -0.634252,-1.55906 -1.47874,-1.59449 -0.844489,-0.0354331 -1.56024,0.634252 -1.58976,1.47992l-0.244488 6.64252c-0.654331,0.464173 -1.08425,1.2248 -1.08425,2.08937 0,1.41378 1.14331,2.55945 2.55827,2.55945 0.400394,0 0.774804,-0.100394 1.11496,-0.264567l5.07402 3.12874c0.249213,0.154724 0.529134,0.230315 0.804331,0.230315 0.514961,0 1.01457,-0.255118 1.30394,-0.726378 0.45,-0.724016 0.225591,-1.66772 -0.498425,-2.11417z"
       id="_305311352"
       style="fill:#dff3f6;fill-opacity:1" /><circle
       class="fil1"
       cx="649.057"
       cy="928.524"
       id="_305311328"
       r="2.66221"
       style="fill:#dff3f6;fill-opacity:1" /><polygon
       class="fil1"
       id="_305311160"
       points="649.04,915.278 650.714,927.365 647.4,927.365 "
       style="fill:#dff3f6;fill-opacity:1" /><path
       class="fil1"
       d="M648.502 908.069c11.2996,0 20.4579,9.15827 20.4579,20.4579 0,11.3008 -9.15827,20.4591 -20.4579,20.4591 -11.3008,0 -20.4591,-9.15827 -20.4591,-20.4591 0,-11.2996 9.15827,-20.4579 20.4591,-20.4579zm0 5.67992c8.1626,0 14.778,6.61536 14.778,14.778 0,8.16378 -6.61536,14.7791 -14.778,14.7791 -8.16378,0 -14.7791,-6.61536 -14.7791,-14.7791 0,-8.1626 6.61536,-14.778 14.7791,-14.778z"
       id="_305310872"
       style="fill:#dff3f6;fill-opacity:1" /><path
       class="fil1"
       d="M649.056 902.131l0 0c3.19843,-0.00236221 5.79095,1.03347 5.79095,2.31142l-0.0011811 0.0011811c0.0011811,1.27677 -2.59134,2.3126 -5.78859,2.3126l-0.0011811 0.0011811c-3.19606,-0.0011811 -5.78859,-1.03701 -5.78859,-2.31496l-0.0011811 0.0011811c0.0011811,-1.27913 2.5937,-2.31496 5.79095,-2.31496l-0.0011811 0.00236221z"
       id="_308156952"
       style="fill:#dff3f6;fill-opacity:1" /><rect
       class="fil1"
       height="3.24567"
       id="_305310920"
       width="4.81772"
       x="646.648"
       y="905.637"
       style="fill:#dff3f6;fill-opacity:1" /><path
       class="fil1"
       d="M649.056 902.131l0 0c3.19843,-0.00236221 5.79095,1.03347 5.79095,2.31142l-0.0011811 0.0011811c0.0011811,1.27677 -2.59134,2.3126 -5.78859,2.3126l-0.0011811 0.0011811c-3.19606,-0.0011811 -5.78859,-1.03701 -5.78859,-2.31496l-0.0011811 0.0011811c0.0011811,-1.27913 2.5937,-2.31496 5.79095,-2.31496l-0.0011811 0.00236221z"
       id="_308158536"
       style="fill:#dff3f6;fill-opacity:1" /><rect
       class="fil1"
       height="3.24567"
       id="_305310056"
       width="4.81772"
       x="646.648"
       y="905.637"
       style="fill:#dff3f6;fill-opacity:1" /><path
       class="fil1"
       d="M665.461 907.908l4.72796 4.8815c0.661418,0.682678 0.644882,1.77284 -0.0389764,2.43425l-0.465355 0.45c-0.681496,0.661418 -1.77165,0.643701 -2.43307,-0.0389764l-4.72796 -4.88032c-0.661418,-0.683859 -0.643701,-1.77402 0.0389764,-2.43543l0.464173 -0.45c0.683859,-0.661418 1.77402,-0.643701 2.43543,0.0389764l-0.0011811 0z"
       id="_308159232"
       style="fill:#dff3f6;fill-opacity:1" /><rect
       class="fil1"
       height="10.0004"
       id="_305310080"
       transform="matrix(0.199622 0.206109 -0.20611 0.199621 664.116 910.975)"
       width="14.8441"
       style="fill:#dff3f6;fill-opacity:1" /><path
       class="fil1"
       d="M916.393 908.069c11.3008,0 20.4591,9.15827 20.4591,20.4579 0,11.3008 -9.15827,20.4591 -20.4591,20.4591 -11.2984,0 -20.4579,-9.15827 -20.4579,-20.4591 0,-4.92402 1.73976,-9.44292 4.63701,-12.9721l4.0441 4.0441c-1.88268,2.48032 -3.00118,5.57362 -3.00118,8.92796 0,8.16378 6.61654,14.7791 14.778,14.7791 8.16378,0 14.7791,-6.61536 14.7791,-14.7791 0,-8.1626 -6.61536,-14.778 -14.7791,-14.778 -0.627166,0 -1.2437,0.0377953 -1.84961,0.114567l0 -5.71181c0.609449,-0.0555118 1.22598,-0.0826772 1.84961,-0.0826772z"
       id="_305310224"
       style="fill:#dff3f6;fill-opacity:1" /><polygon
       class="fil1"
       id="_305310680"
       points="914.543,909.159 919.359,909.159 919.359,920.337 914.543,920.337 "
       style="fill:#dff3f6;fill-opacity:1" /><circle
       class="fil1"
       id="_305309432"
       r="8.20276"
       transform="matrix(0.182388 -0.26845 0.26845 0.182388 916.707 928.066)"
       style="fill:#dff3f6;fill-opacity:1" /><polygon
       class="fil1"
       id="_305309648"
       points="905.737,920.634 916.678,926.044 914.815,928.784 "
       style="fill:#dff3f6;fill-opacity:1" /><path
       class="fil9"
       d="M644.976 609.845c-0.282284,-0.0850394 -0.564567,-0.170079 -0.84567,-0.253937 0.298819,-0.0200788 0.601181,-0.0696851 0.896457,-0.0696851 0.337795,0 0.664961,0.0649607 0.969686,0.314173 -0.340158,0.00354331 -0.680315,0.00708662 -1.02047,0.00944882z"
       id="_305306024"
       style="fill:#dff3f6;fill-opacity:1" /><path
       class="fil9"
       d="M634.016 614.641c-0.32126,0 -0.647244,-0.121654 -0.980315,-0.474803 0.506693,-0.403937 1.01457,-0.806693 1.52126,-1.20945 0.742914,-0.200788 1.41142,-0.544488 1.99725,-1.04528 0.111024,0.00590551 0.222047,0.011811 0.333071,0.0177165 0.493701,0.207874 0.68504,0.564567 0.533859,1.08898 -0.334252,0.623622 -0.947245,0.836221 -1.55551,1.05591 -0.618898,0.111024 -1.22717,0.566929 -1.84961,0.566929z"
       id="_305305904"
       style="fill:#dff3f6;fill-opacity:1" /><g
       style="clip-path:url(#id0);fill:#dff3f6;fill-opacity:1"
       clip-path="url(#id0)"
       id="g86"><polygon
         class="fil10"
         points="681.891,662.719 683.027,662.719 683.027,664.452 681.891,664.452 "
         id="polygon84"
         style="fill:#dff3f6;fill-opacity:1" /></g><g
       style="clip-path:url(#id1);fill:#dff3f6;fill-opacity:1"
       clip-path="url(#id1)"
       id="g90"><g
         id="_309153656"
         style="fill:#dff3f6;fill-opacity:1"><polygon
           class="fil10"
           id="_3081588961"
           points="681.891,662.719 683.028,662.719 683.028,664.452 681.891,664.452 "
           style="fill:#dff3f6;fill-opacity:1" /></g></g><path
       class="fil0"
       d="M681.891 664.452c0.395669,-0.566929 0.773622,-1.14331 1.13622,-1.73268 -0.179528,0.758268 -0.302362,1.5685 -1.13622,1.73268l0 0z"
       id="path92"
       style="fill:#dff3f6;fill-opacity:1" /><g
       style="clip-path:url(#id2);fill:#dff3f6;fill-opacity:1"
       clip-path="url(#id2)"
       id="g96"><polygon
         class="fil10"
         points="681.891,662.719 683.027,662.719 683.027,664.452 681.891,664.452 "
         id="polygon94"
         style="fill:#dff3f6;fill-opacity:1" /></g><g
       style="clip-path:url(#id3)"
       clip-path="url(#id3)"
       id="g99"><g
         id="_309162296" /></g><path
       class="fil0"
       d="M681.891 664.452c0.395669,-0.566929 0.773622,-1.14331 1.13622,-1.73268 -0.179528,0.758268 -0.302362,1.5685 -1.13622,1.73268l0 0z"
       id="path101"
       style="fill:#dff3f6;fill-opacity:1" /><path
       class="fil0"
       d="M681.891 664.452c0.395669,-0.566929 0.773622,-1.14331 1.13622,-1.73268 -0.179528,0.758268 -0.302362,1.5685 -1.13622,1.73268l0 0z"
       id="path103"
       style="fill:#dff3f6;fill-opacity:1" /><path
       class="fil9"
       d="M679.804 666.596c-0.620079,-1.16457 -1.97362,-1.58032 -2.69291,-2.64331 0.686221,-0.725197 1.35236,-1.46929 2.01614,-2.22047 0.133465,-0.0212599 0.263386,-0.0318898 0.389764,-0.0318898 0.630709,0 1.18347,0.250394 1.71969,0.548032 0.0389764,-0.121654 0.0744095,-0.245669 0.106299,-0.369685 0.0566929,-0.304725 0.210236,-0.575197 0.32126,-0.861024 0.0791339,-0.216142 0.206693,-0.401575 0.370866,-0.559843 0.131102,-0.0897638 0.240945,-0.21378 0.355512,-0.330709 -0.068504,-0.415748 -0.138189,-0.831496 -0.206693,-1.24843 0.125197,-0.0614174 0.249213,-0.124016 0.373229,-0.185433 -0.0377953,-0.147638 -0.0507874,-0.296457 -0.0413386,-0.448819 0.394488,-1.10079 1.2,-1.73504 2.28898,-2.04449 -0.767717,-0.944882 0.414567,-1.73858 0.338977,-2.63032 0.666142,-0.662599 0.577559,-1.48937 0.499607,-2.31614 0.287008,-0.764174 0.283465,-1.57795 0.405118,-2.37165 -0.0106299,-0.741733 0.161811,-1.44685 0.416929,-2.13071 0.162992,-0.437008 0.38504,-0.79252 0.798426,-0.79252 0.12874,0 0.275197,0.034252 0.445276,0.111024 0.432284,0.798426 0.11811,1.57323 -0.0732284,2.35276l-0.00708662 -0.0165354c-0.0129921,0.673229 -0.0259843,1.34528 -0.0389764,2.0185 -0.0814961,0.0696851 -0.0956693,0.151181 -0.0413386,0.243307 -0.0448819,0.034252 -0.0909449,0.0673229 -0.137008,0.100394 -0.0318898,0.377953 -0.0980315,0.755906 -0.0106299,1.13622 -0.00826772,0.153543 -0.0354331,0.303543 -0.080315,0.452362 -0.167717,0.354331 -0.217323,0.777166 -0.457087,1.09252 -0.00590551,0.0744095 -0.00708662,0.148819 -0.0011811,0.222047 -0.0779528,0.0295276 -0.157087,0.0448819 -0.239764,0.0448819 -0.0177165,0 -0.0366142,-0.0011811 -0.0555118,-0.00236221 -0.405118,0.42874 -0.367323,0.976772 -0.400394,1.50473 -0.148819,0.380315 -0.122835,0.840945 -0.509055,1.1126 -0.0354331,0.0177165 -0.0696851,0.0307087 -0.105118,0.0437008 0.0236221,0.159449 0.0484252,0.320079 0.0720473,0.479528 -0.333071,0.692126 -0.42874,1.50591 -1.06063,2.04095l0 0.0011811 0 0c-0.0354331,0.256299 0.0484252,0.566929 -0.31063,0.67441 0.046063,0.422835 -0.239764,0.696851 -0.451181,1.00276 0.00354331,0.186614 0.00590551,0.37441 0.00944882,0.561024 -0.347244,0.294095 -0.546851,0.675591 -0.654331,1.11142 -0.0519685,0.151181 -0.092126,0.311811 -0.131102,0.474803 -0.362599,0.58937 -0.740552,1.16575 -1.13622,1.73268 -0.0992126,0.0188976 -0.207874,0.0295276 -0.329528,0.0295276 -0.0968504,0 -0.201969,-0.00708662 -0.314173,-0.0212599 0.0283465,0.0933071 0.0212599,0.188976 -0.0259843,0.288189 -0.0330709,0.0141732 -0.0625985,0.0295276 -0.092126,0.0437008 0.00826772,0.170079 0.0153543,0.338977 0.0236221,0.507874 -0.328347,0.347244 -0.657874,0.694489 -0.986221,1.04173 -0.120473,0.0838583 -0.240945,0.168898 -0.361418,0.252756zm3.41693 -7.00866c0.0129921,0.0755906 0.0129921,0.153543 -0.00590551,0.236221l0.00354331 0.00236221c0.00826772,-0.034252 0.0165354,-0.0673229 0.0236221,-0.101575 0.0259843,-0.0318898 0.0555118,-0.057874 0.0862205,-0.0814961 -0.0366142,-0.0165354 -0.0732284,-0.0354331 -0.10748,-0.0555118z"
       id="_305305784"
       style="fill:#dff3f6;fill-opacity:1" /><path
       class="fil9"
       d="M673.732 616.592c-0.454725,-0.568111 -0.909449,-1.13622 -1.36417,-1.70433 0.865748,0.190158 1.50827,0.733465 2.12008,1.32756 -0.251575,0.126378 -0.504331,0.251575 -0.755906,0.376772z"
       id="_305305616"
       style="fill:#dff3f6;fill-opacity:1" /><path
       class="fil9"
       d="M671.07 615.514c-0.34252,0 -0.609449,-0.264567 -0.836221,-0.675591 -0.0519685,-0.574016 0.499607,-0.61063 0.788977,-0.879922 0.341339,0.204331 0.682678,0.408662 1.0252,0.611811 0.046063,0.0956693 0.0874016,0.193701 0.121654,0.292914 -0.153543,0.129921 -0.307087,0.259843 -0.46063,0.388583 -0.239764,0.18189 -0.451181,0.262205 -0.638977,0.262205z"
       id="_305305520"
       style="fill:#dff3f6;fill-opacity:1" /><path
       class="fil9"
       d="M680.12 622.007c-0.77126,-0.119291 -0.979134,-0.65315 -0.980315,-1.33819 0.177165,0.131102 0.354331,0.261024 0.531496,0.392126 0.15,0.315354 0.3,0.630709 0.448819,0.946063z"
       id="_305305304"
       style="fill:#dff3f6;fill-opacity:1" /><path
       class="fil9"
       d="M663.325 611.366c-0.0909449,0 -0.18189,-0.011811 -0.275197,-0.0437008 -0.609449,-0.235039 -1.28622,-0.380315 -1.51772,-1.12441 -0.0956693,-0.146457 -0.191339,-0.291732 -0.285827,-0.438189 1.18819,0.337795 2.50512,0.355512 3.40866,1.39016 -0.134646,0.0307087 -0.270473,0.0625985 -0.406299,0.0933071 -0.0188976,-0.0011811 -0.0389764,-0.0011811 -0.057874,-0.0011811 -0.145276,0 -0.28937,0.0307087 -0.433465,0.0625985 -0.142913,0.0307087 -0.287008,0.0614174 -0.432284,0.0614174z"
       id="_305305280"
       style="fill:#dff3f6;fill-opacity:1" /><path
       class="fil9"
       d="M656.313 679.596c-0.187795,0 -0.219685,-0.168898 -0.174803,-0.419292 0.388583,-0.368504 0.879922,-0.337795 1.35945,-0.35315 0.842126,-0.858662 1.97362,-0.838583 3.0437,-1.00039 0.222047,0.216142 0.444095,0.432284 0.666142,0.648426 -1.33465,0.753544 -2.76614,1.08071 -4.27441,1.08071 -0.132284,0 -0.264567,-0.00236221 -0.398032,-0.00708662 -0.0909449,0.034252 -0.164173,0.0507874 -0.222047,0.0507874z"
       id="_305304608"
       style="fill:#dff3f6;fill-opacity:1" /><path
       class="fil9"
       d="M645.516 679.441c-0.108661,0 -0.173622,-0.0933071 -0.222047,-0.226772 0.230315,-0.133465 0.461811,-0.266929 0.692126,-0.399213 0.193701,-0.057874 0.38504,-0.10748 0.574016,-0.10748 0.225591,0 0.446457,0.0708662 0.656693,0.285827 -0.530315,0.135827 -1.03465,0.264567 -1.53898,0.393307 -0.0625985,0.0377953 -0.115748,0.0543307 -0.161811,0.0543307z"
       id="_305304824"
       style="fill:#dff3f6;fill-opacity:1" /><path
       class="fil9"
       d="M640.424 675.988c-0.284646,0 -0.570473,-0.0744095 -0.8563,-0.206693 -0.205512,-0.11811 -0.409843,-0.235039 -0.615355,-0.351969 0.237402,-0.470079 0.473622,-0.627166 0.711024,-0.627166 0.420473,0 0.842126,0.498425 1.2626,0.627166 0.108661,0.109843 0.216142,0.220866 0.324803,0.330709 -0.275197,0.157087 -0.550394,0.227953 -0.826772,0.227953z"
       id="_305305232"
       style="fill:#dff3f6;fill-opacity:1" /><path
       class="fil9"
       d="M685.568 632.496c-1.02756,-0.809056 -1.23071,-1.88032 -0.992126,-3.09449 0.689764,0.916536 1.0937,1.92402 0.992126,3.09449z"
       id="_305305088"
       style="fill:#dff3f6;fill-opacity:1" /><path
       class="fil9"
       d="M681.854 625.392c-0.0165354,-0.349606 -0.246851,-0.709843 0.0472441,-1.04646 0.223228,0.346063 0.446457,0.690945 0.669685,1.03583 -0.238583,0.00354331 -0.478347,0.00708662 -0.716929,0.0106299z"
       id="_305304944"
       style="fill:#dff3f6;fill-opacity:1" /><path
       class="fil9"
       d="M675.976 670.479c-0.379134,0 -0.387402,-0.376772 -0.304725,-0.848032 0.252756,-0.446457 0.477166,-0.927166 1.10079,-0.927166 0.00472441,0 0.00944882,0 0.0141732,0 0.0413386,0.00944882 0.0814961,0.0141732 0.119291,0.0141732 0.253937,0 0.429921,-0.198425 0.605906,-0.396851 0.177165,-0.198425 0.35315,-0.396851 0.607087,-0.396851 0.106299,0 0.225591,0.034252 0.364961,0.11811 -0.131102,0.32126 -0.263386,0.64252 -0.395669,0.964961 -0.330709,0.325984 -0.662599,0.65315 -0.993308,0.979134 -0.22441,0.12874 -0.447638,0.256299 -0.670866,0.383858 -0.187795,0.0755906 -0.334252,0.108661 -0.447638,0.108661z"
       id="_305305016"
       style="fill:#dff3f6;fill-opacity:1" /><path
       class="fil9"
       d="M672.435 673.245c-0.235039,-0.092126 -0.454725,-0.204331 -0.595276,-0.42874 -0.145276,-0.336614 -0.092126,-0.650788 0.0992126,-0.950788 0.100394,-0.12874 0.223228,-0.232677 0.36378,-0.316536 0.475984,-0.41811 0.943701,-0.846851 1.3878,-1.30276 0.237402,-0.258662 0.484252,-0.498425 0.846851,-0.570473 0.0590551,-0.00826772 0.116929,-0.0129921 0.172441,-0.0129921 0.220866,0 0.426378,0.0614174 0.618898,0.185433 0.381496,0.395669 0.357874,0.829134 0.121654,1.28386 -0.797244,0.672048 -1.59567,1.3441 -2.3941,2.01614 -0.206693,0.0318898 -0.414567,0.0649607 -0.62126,0.0968504z"
       id="_305305112"
       style="fill:#dff3f6;fill-opacity:1" /><path
       class="fil9"
       d="M621.083 627.976c-0.159449,0 -0.337795,-0.0767717 -0.536221,-0.253937 0.66378,-1.99725 2.16378,-3.49725 3.15591,-5.29843 0.531496,-0.243307 0.660237,-0.988583 1.32874,-1.06063 -0.00354331,0.217323 -0.00708662,0.433465 -0.0106299,0.650788 0.114567,0.111024 0.227953,0.22441 0.34252,0.335433 -0.00826772,0.111024 -0.0153543,0.222047 -0.0188976,0.333071 -0.0519685,0.263386 -0.198425,0.424016 -0.478347,0.43937 -0.0625985,-0.0295276 -0.115748,-0.0614174 -0.16063,-0.0944882 -0.538583,0.859843 -1.32047,1.56614 -1.62874,2.57126 -0.183071,0.271654 -0.258662,0.601181 -0.465355,0.861024 -0.322441,0.3 -0.661418,0.571654 -0.877559,0.981497 -0.167717,0.320079 -0.382677,0.53504 -0.650788,0.53504z"
       id="_305304776"
       style="fill:#dff3f6;fill-opacity:1" /><path
       class="fil9"
       d="M618.364 632.502c0.366142,-1.3937 0.870473,-2.71654 1.89803,-3.77717 0.0696851,1.05709 -0.744095,1.80591 -0.961418,2.7626 0.210236,0.467717 0.0649607,0.798426 -0.393307,1.0063 -0.180709,0.00236221 -0.362599,0.00472441 -0.543307,0.00826772z"
       id="_305303960"
       style="fill:#dff3f6;fill-opacity:1" /><path
       class="fil9"
       d="M687.591 645.014c-0.61063,-1.46929 -0.25748,-3 -0.295276,-4.50591 0.113386,0.111024 0.226772,0.222047 0.340158,0.334252 0.33189,0.796063 -0.0862205,1.6748 0.270473,2.46851 -0.00354331,0.565748 -0.00590551,1.13268 -0.00944882,1.69843 -0.101575,0 -0.204331,0.00236221 -0.305906,0.00472441z"
       id="_305303888"
       style="fill:#dff3f6;fill-opacity:1" /><path
       class="fil9"
       d="M687.344 639.972c-0.255118,-0.125197 -0.510236,-0.250394 -0.764174,-0.376772 -0.334252,-0.630709 -1.00039,-1.1811 -0.50315,-2.01969 0.0271654,-0.0248032 0.0543307,-0.0472441 0.0814961,-0.0661418 -0.922441,-0.647244 -0.565748,-1.3063 0.068504,-1.9689 0.0177165,-0.152362 0.0354331,-0.304725 0.0531496,-0.457087 0.649607,0.323622 0.0720473,1.1563 0.628347,1.51772 0.713386,0.891733 0.51378,1.97835 0.641339,2.99528 0.0850394,0.209055 -0.011811,0.318898 -0.205512,0.375591z"
       id="_305304056"
       style="fill:#dff3f6;fill-opacity:1" /><path
       class="fil9"
       d="M683.874 634.185c-1.50591,-0.0779528 -2.2937,-1.49646 -1.69134,-3.0437 -0.144095,-0.35315 -0.124016,-0.624803 0.338977,-0.673229l0.0011811 0c0.448819,0.226772 0.779528,0.572835 1.01693,1.01221 0.113386,0.337795 0.226772,0.67441 0.340158,1.01221 -0.0011811,0.564567 -0.00354331,1.12913 -0.00590551,1.69252z"
       id="_305304344"
       style="fill:#dff3f6;fill-opacity:1" /><path
       class="fil9"
       d="M660.932 616.93c-0.501969,0 -0.964961,-0.26811 -1.41024,-0.666142 -0.252756,-0.275197 -0.505512,-0.367323 -0.759449,-0.367323 -0.420473,0 -0.840945,0.252756 -1.26142,0.356693 -0.114567,-1.24016 -0.230315,-2.48032 -0.344882,-3.72047 0.252756,-0.080315 0.506693,-0.161811 0.759449,-0.243307 0.0165354,-0.0850394 0.0354331,-0.172441 0.0590551,-0.261024 0.375591,-0.347244 0.738189,-0.468898 1.0937,-0.468898 0.726378,0 1.42559,0.507874 2.14488,0.647244 0.102756,0.00826772 0.205512,0.0141732 0.308268,0.0153543 -0.0200788,0.420473 0.0590551,0.798426 0.250394,1.12795 0.159449,0.0496063 0.317717,0.0874016 0.473622,0.0874016 0.0177165,0 0.0366142,0 0.0555118,-0.0011811 0.252756,0.0933071 0.426378,0.282284 0.57874,0.494882 0.111024,0.105118 0.222047,0.211417 0.333071,0.317717 -0.101575,0.220866 -0.200788,0.442914 -0.301181,0.664961l0 0c0.0011811,0.105118 0.00472441,0.211417 0.011811,0.316536 -0.00472441,0.711024 -0.0696851,1.3748 -1.02047,1.3748 -0.00354331,0 -0.00826772,0 -0.011811,0 -0.336614,0.226772 -0.654331,0.324803 -0.959056,0.324803z"
       id="_305304200"
       style="fill:#dff3f6;fill-opacity:1" /><g
       style="clip-path:url(#id4);fill:#dff3f6;fill-opacity:1"
       clip-path="url(#id4)"
       id="g125"><polygon
         class="fil10"
         points="623.601,666.479 626.279,666.479 626.279,669.454 623.601,669.454 "
         id="polygon123"
         style="fill:#dff3f6;fill-opacity:1" /></g><g
       style="clip-path:url(#id5);fill:#dff3f6;fill-opacity:1"
       clip-path="url(#id5)"
       id="g129"><g
         id="_310058144"
         style="fill:#dff3f6;fill-opacity:1"><polygon
           class="fil10"
           id="_3086262401"
           points="623.601,666.48 626.279,666.48 626.279,669.454 623.601,669.454 "
           style="fill:#dff3f6;fill-opacity:1" /></g></g><path
       class="fil0"
       d="M626.279 669.454c-0.194882,-0.154724 -0.379134,-0.323622 -0.556299,-0.501969 -0.0236221,-0.022441 -0.0661418,-0.092126 -0.11811,-0.186614 0.222047,0.232677 0.446457,0.462992 0.67441,0.688583l0 0zm-2.42362 -2.66339c-0.0980315,-0.092126 -0.18189,-0.196063 -0.253937,-0.311811 0.0838583,0.103937 0.170079,0.209055 0.253937,0.311811z"
       id="path131"
       style="fill:#dff3f6;fill-opacity:1" /><g
       style="clip-path:url(#id6);fill:#dff3f6;fill-opacity:1"
       clip-path="url(#id6)"
       id="g135"><polygon
         class="fil10"
         points="623.601,666.479 626.279,666.479 626.279,669.454 623.601,669.454 "
         id="polygon133"
         style="fill:#dff3f6;fill-opacity:1" /></g><g
       style="clip-path:url(#id7)"
       clip-path="url(#id7)"
       id="g138"><g
         id="_310058888" /></g><path
       class="fil0"
       d="M626.279 669.454c-0.194882,-0.154724 -0.379134,-0.323622 -0.556299,-0.501969 -0.0236221,-0.022441 -0.0661418,-0.092126 -0.11811,-0.186614 0.222047,0.232677 0.446457,0.462992 0.67441,0.688583l0 0zm-2.42362 -2.66339c-0.0980315,-0.092126 -0.18189,-0.196063 -0.253937,-0.311811 0.0838583,0.103937 0.170079,0.209055 0.253937,0.311811z"
       id="path140"
       style="fill:#dff3f6;fill-opacity:1" /><path
       class="fil0"
       d="M626.279 669.454c-0.194882,-0.154724 -0.379134,-0.323622 -0.556299,-0.501969 -0.0236221,-0.022441 -0.0661418,-0.092126 -0.11811,-0.186614 0.222047,0.232677 0.446457,0.462992 0.67441,0.688583l0 0zm-2.42362 -2.66339c-0.0980315,-0.092126 -0.18189,-0.196063 -0.253937,-0.311811 0.0838583,0.103937 0.170079,0.209055 0.253937,0.311811z"
       id="path142"
       style="fill:#dff3f6;fill-opacity:1" /><path
       class="fil9"
       d="M645.845 674.149c-0.101575,0 -0.193701,-0.0129921 -0.259843,-0.0330709 -0.544488,-0.172441 -1.10669,-0.194882 -1.67008,-0.194882 -0.101575,0 -0.20315,0 -0.304725,0.0011811 -0.101575,0.0011811 -0.201969,0.0011811 -0.303543,0.0011811 -0.722835,0 -1.43858,-0.0377953 -2.11299,-0.381496 -0.133465,0.00590551 -0.265748,0.00944882 -0.396851,0.00944882 -0.829134,0 -1.62638,-0.133465 -2.32914,-0.661418 -0.451181,-0.0011811 -0.901182,-0.00236221 -1.35236,-0.00354331 -0.512599,-0.394488 -1.18583,-0.625985 -1.36181,-1.35827 -0.0177165,-0.00944882 -0.0354331,-0.0188976 -0.0531496,-0.0271654 -0.0153543,0.0566929 -0.0354331,0.119291 -0.0625985,0.185433 -0.237402,0.177165 -0.465355,0.255118 -0.683859,0.255118 -0.312992,0 -0.608268,-0.159449 -0.892914,-0.420473 -1.74449,-0.474803 -3.49488,-0.933071 -5.23229,-1.43622 -0.62126,-0.180709 -1.02165,-0.649607 -1.22126,-1.27323 -0.112205,-0.00236221 -0.22441,-0.00590551 -0.337795,-0.0106299 -0.124016,0.359055 -0.249213,0.719292 -0.373229,1.07953 -0.218504,-0.125197 -0.422835,-0.26811 -0.617717,-0.424016 -0.227953,-0.225591 -0.452362,-0.455906 -0.67441,-0.688583 -0.175984,-0.324803 -0.455906,-0.943701 -0.380315,-0.943701 0.0011811,0 0.00236221,0.0011811 0.00472441,0.0011811 -0.106299,-0.0259843 -0.214961,-0.0437008 -0.322441,-0.0649607 -0.133465,-0.210236 -0.26811,-0.419292 -0.401575,-0.629528 -0.271654,-0.0649607 -0.48189,-0.183071 -0.649607,-0.337795 -0.0838583,-0.102756 -0.170079,-0.207874 -0.253937,-0.311811 -0.13937,-0.22441 -0.233858,-0.487796 -0.309449,-0.767717 -0.888189,-0.372047 -0.898819,-1.39016 -1.46929,-1.99725 -0.333071,-0.677953 -0.666142,-1.35709 -0.999213,-2.0374 -0.0673229,-0.092126 -0.103937,-0.196063 -0.111024,-0.311811 -0.333071,-0.262205 -0.501969,-0.620079 -0.595276,-1.02165 -0.381496,-0.506693 -0.622441,-1.0748 -0.748819,-1.6937 0.0614174,0.0519685 0.121654,0.105118 0.18189,0.158268 -0.0437008,-0.068504 -0.0992126,-0.126378 -0.18189,-0.158268 -0.461811,-0.491339 -0.720473,-1.08425 -0.874016,-1.73032 -0.00944882,-0.112205 -0.0188976,-0.22441 -0.0283465,-0.335433 -0.679134,-0.68504 -0.349606,-1.65709 -0.694489,-2.4378 -0.0248032,0.0011811 -0.0496063,0.00236221 -0.0732284,0.00236221 -0.0779528,0 -0.154724,-0.00944882 -0.230315,-0.0283465 -0.0259843,-0.28937 -0.0507874,-0.57874 -0.0767717,-0.868111 -0.092126,-0.0271654 -0.184252,-0.0555118 -0.275197,-0.0862205 -0.10748,-0.672048 -0.21378,-1.34528 -0.320079,-2.0185 -0.0248032,-0.421654 -0.0507874,-0.843308 -0.0755906,-1.26496 -0.0992126,-0.141732 -0.199606,-0.284646 -0.298819,-0.426378 -0.0968504,-1.14449 -0.19252,-2.28898 -0.28937,-3.43229 -0.00590551,-1.22008 -0.011811,-2.43898 -0.0188976,-3.65906 0.0956693,-0.0708662 0.194882,-0.10748 0.297638,-0.10748 0.0720473,0 0.146457,0.0177165 0.222047,0.0531496 1.00158,0.86693 0.496063,1.62874 -0.167717,2.37874 0.00944882,0.0519685 0.0165354,0.105118 0.0248032,0.157087 0.124016,-0.0897638 0.219685,-0.13937 0.314173,-0.13937 0.219685,0 0.429921,0.270473 0.947245,0.94252 0.159449,0.219685 0.329528,0.431103 0.438189,0.682678 0.0649607,0.25748 0.0732284,0.523229 0.0744095,0.787796 -0.0011811,0.0212599 -0.0011811,0.0425197 -0.0011811,0.0625985 0.226772,0.122835 0.382677,0.341339 0.520866,0.581103 0.114567,-0.0011811 0.227953,-0.0011811 0.34252,-0.00236221 0.111024,-0.229134 0.223228,-0.457087 0.334252,-0.68504 -0.223228,-0.829134 0.823229,-1.23071 0.68504,-2.03268 0.0259843,-0.646063 0.272835,-0.929528 0.615355,-0.929528 0.207874,0 0.451181,0.105118 0.701575,0.297638 0.759449,0.583465 1.36063,1.35591 1.22362,2.43898 0.00236221,0.25748 0.00354331,0.516142 0.0129921,0.772441 -0.0555118,0.608268 0.222047,1.05 0.661418,1.45512 0.477166,0.43937 0.740552,0.937796 0.381496,1.48819 0.411024,0.0484252 0.686221,0.312992 0.928347,0.625985 0.341339,0.464173 0.719292,0.601181 1.1126,0.6 0.442914,0 0.903544,-0.17126 1.35354,-0.246851 -0.022441,-0.057874 -0.0413386,-0.119291 -0.0519685,-0.185433 -0.0295276,-0.147638 -0.0673229,-0.292914 -0.109843,-0.437008 -0.151181,-0.111024 -0.27874,-0.25748 -0.379134,-0.444095 -0.167717,-0.424016 -0.375591,-0.846851 -0.252756,-1.27087 -0.0413386,-0.112205 -0.0814961,-0.225591 -0.116929,-0.338977 -0.0177165,-0.744095 -0.142913,-1.46575 -0.347244,-2.16969 -0.199606,-0.173622 -0.504331,-0.287008 -0.968504,-0.31063 -0.0106299,-0.219685 -0.022441,-0.437008 -0.0330709,-0.655512 -0.285827,-0.28937 -0.582284,-0.576378 -0.346063,-1.04055 0.00944882,-0.220866 0.0188976,-0.441733 0.0271654,-0.662599 0.113386,-0.113386 0.226772,-0.227953 0.340158,-0.341339 0.442914,-0.377953 0.538583,-1.01221 1.00748,-1.37126 0.113386,-0.113386 0.226772,-0.226772 0.340158,-0.338977 0.00826772,-0.219685 0.0153543,-0.440551 0.022441,-0.660237 -0.00472441,-0.115748 -0.00944882,-0.231496 -0.0153543,-0.346063 0.114567,-0.905906 0.227953,-1.81181 0.34252,-2.71772 -0.00354331,-0.227953 -0.00708662,-0.454725 -0.011811,-0.682678 0.113386,-0.225591 0.226772,-0.452362 0.340158,-0.677953 0.0129921,-0.100394 0.0200788,-0.201969 0.0200788,-0.303543 0.141732,-0.0732284 0.269291,-0.105118 0.38504,-0.105118 0.316536,0 0.556299,0.231496 0.785433,0.491339 0.277559,0.343701 0.713386,0.401575 1.07835,0.590551 0.261024,-0.262205 0.636614,-0.425197 0.754725,-0.810237 0.0992126,-0.127559 0.219685,-0.226772 0.357874,-0.309449 0.752363,-0.246851 1.40315,-0.863386 2.2252,-0.863386 0.177165,0 0.362599,0.0283465 0.559843,0.0956693 0.15,0.108661 0.262205,0.246851 0.340158,0.413386 0.10748,0.441733 0.161811,0.869292 -0.0944882,1.21535 0.179528,0.011811 0.355512,0.0602363 0.529134,0.133465 0.292914,0.212599 0.592914,0.393307 0.91063,0.477166 0.243307,0 0.487796,0 0.731103,0.0011811 0.101575,-0.0271654 0.205512,-0.0649607 0.312992,-0.11811 0.452362,-0.233858 0.924804,-0.596457 1.3878,-0.596457 0.275197,0 0.546851,0.127559 0.810237,0.487796 0.487796,0.667323 0.226772,1.27087 -0.251575,1.78583 0.0779528,0.0153543 0.154724,0.0437008 0.227953,0.0862205 0.349606,0.421654 0.624803,0.896457 0.947245,1.33937 0.325984,0.637796 0.080315,1.40315 0.462992,2.03032 0.00236221,0.0248032 0.00354331,0.0484252 0.00472441,0.0720473 0.00354331,0 0.00708662,0 0.0106299,0 0.00826772,0 0.0165354,0 0.0248032,0 0.00826772,0 0.0153543,0 0.022441,0 0.00708662,0 0.0141732,0 0.0212599,0 0.0755906,-0.0826772 0.161811,-0.122835 0.25748,-0.122835 0.0141732,0 0.0295276,0.0011811 0.0437008,0.00354331 0.466536,-0.186614 0.933071,-0.372047 1.40079,-0.557481 0.0401575,-0.784252 0.490158,-1.23543 1.21772,-1.39134 0.100394,-0.0212599 0.193701,-0.0307087 0.279921,-0.0307087 0.647244,0 0.927166,0.561024 1.20827,1.0937 0.0011811,0.447638 0.00236221,0.894095 0.00354331,1.34055 0.438189,0.28937 0.598819,0.725197 0.63189,1.22835 -0.0177165,0.290551 -0.132284,0.537402 -0.340158,0.73937 -0.204331,0.162992 -0.453544,0.230315 -0.690945,0.320079 -1.05236,0.470079 -1.68662,1.31693 -2.10473,2.35748 -0.863386,0.734646 -1.39843,1.5685 -0.898819,2.75669 0.201969,0.479528 0.148819,0.948426 -0.161811,1.37244 0.0129921,0.0437008 0.0236221,0.0885827 0.0283465,0.135827 -0.13937,0.78189 -0.709843,1.37717 -1.11378,1.97244 -0.871654,1.28504 -0.523229,2.06457 0.605906,2.79685 0.151181,0.303543 0.237402,0.614174 0.068504,0.941339 0.220866,0.0614174 0.381496,0.18189 0.483071,0.362599 0.0673229,0.0318898 0.134646,0.0649607 0.201969,0.101575 0.121654,0.144095 0.196063,0.308268 0.227953,0.49252 -0.194882,0.741733 -0.472441,0.969686 -0.786615,0.969686 -0.494882,0 -1.07953,-0.562205 -1.57795,-0.587008 -0.0531496,-0.0011811 -0.105118,-0.0011811 -0.158268,-0.00236221 -0.0767717,0.102756 -0.173622,0.185433 -0.28937,0.248032 -0.0980315,0.034252 -0.190158,0.0507874 -0.27874,0.0507874 -0.237402,0 -0.442914,-0.115748 -0.63189,-0.296457 -0.112205,-0.114567 -0.225591,-0.229134 -0.338977,-0.343701 -0.185433,-0.0141732 -0.370866,-0.0188976 -0.557481,-0.0188976 -0.259843,0 -0.519685,0.0106299 -0.780709,0.0200788 -0.259843,0.00944882 -0.520866,0.0200788 -0.780709,0.0200788 -0.661418,0 -1.31693,-0.0649607 -1.95354,-0.359055 -1.25669,-0.25748 -1.65236,-1.26969 -2.1189,-2.21929 -0.0531496,0.00354331 -0.106299,0.00708662 -0.16063,0.00944882 -0.466536,0.0354331 -0.846851,0.0755906 -1.15276,0.134646 0.16063,0.106299 0.259843,0.262205 0.242126,0.486614 -0.0271654,0.347244 -0.231496,0.487796 -0.506693,0.487796 -0.0614174,0 -0.125197,-0.00590551 -0.19252,-0.0200788 -0.318898,-0.0614174 -0.438189,-0.31063 -0.377953,-0.597638 -0.354331,0.360236 -0.283465,1.00039 -0.00354331,2.22165l0.00826772 0.034252c0.0755906,-0.0401575 0.162992,-0.0744095 0.258662,-0.103937 0.0248032,-0.00236221 0.0496063,-0.00354331 0.0732284,-0.00354331 0.324803,0 0.565748,0.179528 0.787796,0.400394 0.126378,0.0850394 0.232677,0.193701 0.325984,0.314173 0.168898,0.22441 0.217323,0.517323 0.413386,0.726378 0.151181,0.134646 0.312992,0.250394 0.501969,0.329528 0.614174,-0.592914 1.28858,-0.941339 2.05039,-0.941339 0.479528,0 0.993308,0.137008 1.54843,0.43937 0.564567,0 1.13032,0.0011811 1.69606,0.0011811 0.288189,0.305906 0.263386,0.574016 0.0389764,0.817323 0.193701,-0.0814961 0.376772,-0.126378 0.546851,-0.126378 0.413386,0 0.754725,0.258662 1.00158,0.857481 0.0318898,0.155906 0.0354331,0.304725 0,0.442914l0.0153543 0.0129921c0.166536,0.162992 0.309449,0.341339 0.413386,0.550394 0.0507874,-0.0106299 0.103937,-0.0153543 0.157087,-0.0153543 0.16063,0 0.325984,0.0413386 0.491339,0.0826772 0.58937,0.317717 1.20945,0.604725 1.86142,0.604725 0.172441,0 0.347244,-0.0212599 0.52441,-0.0661418 0.246851,-0.0625985 0.48189,-0.0909449 0.705118,-0.0909449 0.751181,0 1.38543,0.327166 1.99016,0.820867 -0.0956693,-0.276378 -0.191339,-0.553937 -0.285827,-0.829134 -0.336614,-0.229134 -0.673229,-0.458268 -1.00984,-0.686221l0.00472441 -0.00472441c-0.12874,-0.694489 0.0354331,-0.908268 0.33189,-0.908268 0.170079,0 0.382677,0.0696851 0.607087,0.16063 -0.00590551,-0.650788 0.6,-0.934252 1.09252,-1.28386 0.0744095,-0.452362 0.0472441,-1.14449 0.540945,-1.14449 0.0850394,0 0.185433,0.0200788 0.304725,0.0661418 0.677953,0.261024 0.539764,0.822048 0.333071,1.35591 0.144095,-0.0401575 0.288189,-0.0602363 0.432284,-0.0602363 0.158268,0 0.317717,0.0236221 0.477166,0.0732284 0.0354331,0.0354331 0.0720473,0.068504 0.111024,0.101575 0.173622,-0.264567 0.346063,-0.396851 0.518504,-0.396851 0.227953,0 0.455906,0.229134 0.683859,0.683859 0.0472441,0.281103 0.183071,0.475984 0.400394,0.591733 0.115748,-0.0602363 0.237402,-0.103937 0.380315,-0.103937 0.00826772,0 0.0177165,0 0.0259843,0.0011811 0.101575,0.0307087 0.19252,0.0696851 0.277559,0.112205 -0.0708662,-0.164173 -0.122835,-0.338977 -0.175984,-0.512599 0.43937,-0.969686 -0.287008,-1.95354 0.0318898,-2.92795 0.0708662,-0.161811 0.174803,-0.295276 0.309449,-0.407481 0.243307,-0.134646 0.474803,-0.197244 0.698032,-0.197244 0.355512,0 0.688583,0.159449 1.00276,0.441733 0.427559,0.386221 1.0748,0.376772 1.48819,0.790158 0.387402,-0.483071 0.848032,-0.872835 1.5189,-1.00039 0.252756,-0.0188976 0.52441,-0.092126 0.770079,-0.092126 0.206693,0 0.395669,0.0507874 0.544488,0.22441 0.214961,-0.161811 0.455906,-0.270473 0.741733,-0.275197 0.168898,0.0236221 0.322441,0.0862205 0.461811,0.186614 0.106299,0.148819 0.102756,0.3 0.00354331,0.452362 -0.0519685,1.02402 0.178347,2.07992 -0.343701,3.05079 -0.336614,0.00236221 -0.67441,0.00354331 -1.01102,0.00590551 0.152362,0.680315 -0.431103,1.35354 -0.0200788,2.0374 -0.328347,0.296457 -0.707481,0.334252 -1.09606,0.334252 -0.0661418,0 -0.134646,-0.0011811 -0.201969,-0.00236221 -0.0673229,-0.0011811 -0.134646,-0.00236221 -0.201969,-0.00236221 -0.0590551,0 -0.11811,0.0011811 -0.177165,0.00354331 -0.514961,-0.454725 -0.679134,-1.35591 -1.55197,-1.35591 -0.0507874,0 -0.103937,0.00236221 -0.159449,0.00944882 -0.092126,0.0531496 -0.18189,0.0755906 -0.270473,0.0755906 -0.132284,0 -0.262205,-0.0507874 -0.388583,-0.121654 -0.180709,-0.27874 -0.386221,-0.360236 -0.601181,-0.360236 -0.256299,0 -0.527953,0.116929 -0.788977,0.155906 0.288189,0.405118 0.441733,0.914174 0.677953,1.35945 0.00944882,0.0791339 0.0188976,0.158268 0.0283465,0.236221 -0.315354,0.258662 -0.732284,0.441733 -0.924804,0.79252 0.0165354,0 0.0318898,0.00236221 0.0484252,0.00236221 0.114567,0.0153543 0.226772,0.022441 0.337795,0.022441 0.529134,0 1.02992,-0.152362 1.54016,-0.304725 0.509055,-0.151181 1.02638,-0.303543 1.58858,-0.303543 0.0897638,0 0.18189,0.00472441 0.274016,0.0129921 1.10551,0.101575 2.21575,0.137008 3.30591,0.400394 0.157087,0.0826772 0.277559,0.200788 0.36378,0.355512 0.0543307,0.165354 0.068504,0.334252 0.0413386,0.505512 -0.0909449,0.33189 -0.242126,0.609449 -0.516142,0.773622 0.0366142,0.0448819 0.0720473,0.0909449 0.105118,0.13937 0.305906,0.568111 0.351969,1.28504 0.955512,1.6878 0.0011811,0.0248032 0.00354331,0.0484252 0.00590551,0.0720473 0.0625985,0.0307087 0.121654,0.0661418 0.177165,0.108661 0.0472441,-0.233858 0.177165,-0.41811 0.373229,-0.565748 0.488977,-0.275197 0.996851,-0.457087 1.53898,-0.457087 0.168898,0 0.341339,0.0177165 0.517323,0.0555118 0.172441,0.046063 0.324803,0.131102 0.455906,0.252756 0.237402,0.295276 0.218504,0.629528 0.148819,0.972048 -0.440551,0.644882 0.120473,1.36417 -0.134646,2.02441 -0.432284,0.682678 -1.00984,1.21181 -1.71969,1.59803 -0.379134,0.0767717 -0.611811,0.298819 -0.680315,0.683859 -0.526772,0.297638 -1.09606,0.341339 -1.67244,0.341339 -0.119291,0 -0.238583,-0.0011811 -0.357874,-0.00354331 -0.178347,-0.142913 -0.373229,-0.17126 -0.572835,-0.17126 -0.0614174,0 -0.124016,0.00354331 -0.185433,0.00590551 -0.0625985,0.00236221 -0.124016,0.00472441 -0.185433,0.00472441 -0.0555118,0 -0.109843,-0.0011811 -0.164173,-0.00826772 -1.57913,-0.174803 -1.95,-0.800788 -1.45512,-2.45906 0.16063,-0.147638 0.322441,-0.194882 0.485433,-0.194882 0.0106299,0 0.022441,0 0.0330709,0.0011811 0.0011811,-0.190158 0.00236221,-0.380315 0.00354331,-0.569292 -0.317717,-0.18189 -0.774804,0.0507874 -1.02165,-0.344882 -0.227953,-0.22441 -0.455906,-0.448819 -0.683859,-0.672048 -0.111024,-0.22441 -0.220866,-0.448819 -0.33189,-0.672048 -0.387402,0.285827 -0.806693,0.343701 -1.23307,0.343701 -0.277559,0 -0.557481,-0.0248032 -0.83504,-0.0271654 0.0507874,0.388583 -0.238583,0.681496 -0.315354,1.03583 -0.207874,1.08543 -1.51299,1.72205 -1.22953,3.00709 -0.265748,0.0141732 -0.532677,0.0283465 -0.798426,0.0425197 -0.283465,-0.281103 -0.646063,-0.32126 -1.01811,-0.333071l-0.166536 0.00236221 -0.165354 -0.00354331c-0.00826772,0.377953 0.0425197,0.735827 0.335433,1.01457 0.155906,0.734646 -0.388583,0.929528 -0.779528,0.929528zm-13.7161 -4.78465l0 0 -0.00590551 -0.00944882 -0.00236221 0.00944882 0.00826772 0zm-11.6528 -10.0181c-0.0236221,0.00708662 -0.0472441,0.0141732 -0.0720473,0.0188976 0.109843,0.141732 0.142913,0.294095 0.111024,0.457087 0.0472441,-0.0472441 0.100394,-0.0874016 0.155906,-0.122835 -0.112205,-0.101575 -0.18189,-0.217323 -0.194882,-0.35315zm15.0815 -5.51575l0 0c-0.115748,-0.316536 -0.191339,-0.633071 -0.0496063,-0.949607 -0.0791339,0.0401575 -0.164173,0.0661418 -0.251575,0.0838583 -0.0720473,0.0555118 -0.140551,0.115748 -0.20315,0.183071 0.209055,0.179528 0.349606,0.43937 0.504331,0.682678zm2.80984 -9.10276l0 0c-0.0531496,-0.106299 -0.0862205,-0.212599 -0.0992126,-0.318898 -0.0791339,0.0897638 -0.138189,0.193701 -0.184252,0.307087 0.034252,-0.00472441 0.0696851,-0.00708662 0.105118,-0.00708662 0.057874,0 0.116929,0.00590551 0.178347,0.0188976zm-2.18268 -3.77126l0 0 0 -0.00236221 -0.0011811 0.00236221 0.0011811 0z"
       id="_305304272"
       style="fill:#dff3f6;fill-opacity:1" /><path
       class="fil9"
       d="M651.891 677.955c-0.132284,0 -0.284646,-0.00826772 -0.46063,-0.022441 0.304725,-0.301181 0.536221,-0.441733 0.773622,-0.441733 0.140551,0 0.282284,0.0484252 0.441733,0.142913 -0.159449,0.248032 -0.375591,0.32126 -0.754725,0.32126z"
       id="_305304008"
       style="fill:#dff3f6;fill-opacity:1" /><path
       class="fil9"
       d="M671.109 662.313c-0.392126,0 -0.686221,-0.467717 -0.908268,-1.09606 -0.382677,-1.08307 -0.133465,-2.23465 -0.191339,-3.35433 -0.206693,-0.302362 -0.172441,-0.601181 0.00944882,-0.895276 0.092126,-0.109843 0.209055,-0.191339 0.341339,-0.240945 0.0259843,-0.00826772 0.0519685,-0.011811 0.0767717,-0.011811 0.0602363,0 0.111024,0.0248032 0.142913,0.0708662 0,0.00590551 0.00354331,0.0129921 0.0106299,0.0188976l0 0c-0.00354331,-0.00708662 -0.00708662,-0.0129921 -0.0106299,-0.0188976 -0.00236221,-0.0141732 0.00826772,-0.0271654 0.00826772,-0.0271654 0,0 -0.0885827,-0.142913 -0.0992126,-0.158268 -0.109843,-0.312992 -0.0377953,-0.562205 0.199606,-0.762993 0.337795,-0.0011811 0.675591,-0.0011811 1.01221,-0.00236221 0.849213,0.0200788 1.03465,1.03937 1.72795,1.29331 -0.0425197,-0.0732284 -0.0862205,-0.147638 -0.134646,-0.218504 -0.0720473,-0.851575 0.249213,-1.38543 1.15748,-1.45158 0.0106299,0.0011811 0.022441,0.0011811 0.034252,0.0011811 0.00472441,0 0.00944882,0 0.0153543,0 0.00472441,0 0.00944882,0 0.0153543,0 0.0389764,0 0.0767717,0.00236221 0.092126,0.0212599 0.903544,1.12087 1.9063,1.81654 3.23386,1.81654 0.389764,0 0.806693,-0.0590551 1.25787,-0.186614 0.0791339,-0.022441 0.159449,-0.0330709 0.236221,-0.0330709 0.592914,0 1.06063,0.629528 0.48189,1.46221l0.0011811 0.0011811c-0.225591,0 -0.451181,0 -0.677953,0 -0.496063,0.43937 -0.618898,1.01457 -0.68504,1.65118 -0.106299,1.01221 -0.290551,1.44803 -0.798426,1.44803 -0.288189,0 -0.680315,-0.13937 -1.22126,-0.393307 -0.337795,0 -0.676772,-0.0011811 -1.01457,-0.0011811 0.0944882,-0.823229 -0.499607,-1.23307 -1.01575,-1.69016 -0.980315,0.296457 -2.22165,0.22441 -2.36693,1.69016 -0.0011811,0.113386 -0.00236221,0.226772 -0.00236221,0.340158 -0.359055,0.516142 -0.666142,0.727559 -0.928347,0.727559z"
       id="_305304416"
       style="fill:#dff3f6;fill-opacity:1" /><path
       class="fil9"
       d="M673.245 662.67c-0.080315,0 -0.164173,-0.0188976 -0.248032,-0.0366142 -0.0850394,-0.0188976 -0.168898,-0.0366142 -0.250394,-0.0366142 -0.00944882,0 -0.0188976,0 -0.0283465,0.0011811l0 -0.0011811c0.0850394,-0.277559 0.197244,-0.540945 0.483071,-0.540945 0.0531496,0 0.112205,0.00944882 0.178347,0.0295276 0.100394,0.0295276 0.238583,0.297638 0.199606,0.370866 -0.0897638,0.167717 -0.206693,0.21378 -0.334252,0.21378z"
       id="_305304296"
       style="fill:#dff3f6;fill-opacity:1" /><path
       class="fil9"
       d="M671.231 626.463c-0.0259843,0 -0.0507874,-0.0011811 -0.0767717,-0.00236221 -0.486614,-0.324803 -0.975591,-0.496063 -1.46693,-0.496063 -0.46063,0 -0.923623,0.15 -1.38898,0.462992 -1.30984,-0.0165354 -1.95827,-0.822048 -2.32795,-1.95709 0.00708662,-0.0956693 0.0271654,-0.187795 0.0566929,-0.277559 -0.046063,0.011811 -0.092126,0.0200788 -0.141732,0.0212599 -0.429921,-0.157087 -0.819685,-0.359055 -0.951969,-0.850394 0.33189,-0.520866 0.735827,-1.01339 0.677953,-1.69134 -0.0625985,-0.612992 -0.48189,-0.941339 -1.19882,-1.18583 0.831496,-0.627166 1.47874,-1.19055 2.39528,-1.19055 0.0496063,0 0.100394,0.0011811 0.151181,0.00472441l0.00590551 0.00944882 0.0011811 0 -0.00708662 -0.00944882c0.00354331,-0.109843 0.00944882,-0.218504 0.0165354,-0.327166 0.451181,-0.175984 0.822048,-0.823229 1.30394,-0.823229 0.212599,0 0.446457,0.125197 0.719292,0.472441 0.336614,0.00236221 0.672048,0.00472441 1.00748,0.00826772 0.316536,0.557481 -0.106299,0.930709 -0.336614,1.35118 0.112205,0.112205 0.225591,0.225591 0.336614,0.337795 0.0188976,-0.0011811 0.0354331,-0.0011811 0.0531496,-0.0011811 0.784252,0 0.784252,0.672048 1.08661,1.17756 0.408662,0.680315 0.740552,1.50709 1.56614,1.8685 0.114567,0.225591 0.226772,0.451181 0.341339,0.675591 -0.00236221,0.675591 -0.00236221,1.35236 -0.00354331,2.02795 -0.338977,0.00236221 -0.677953,0.00472441 -1.01693,0.00708662 -0.205512,0.271654 -0.478347,0.387402 -0.801969,0.387402z"
       id="_305304032"
       style="fill:#dff3f6;fill-opacity:1" /><path
       class="fil9"
       d="M666.9 664.752c-0.360236,0 -0.7063,-0.170079 -1.01929,-0.687402 0.057874,-0.119291 0.132284,-0.178347 0.22441,-0.178347 0.0543307,0 0.114567,0.0200788 0.180709,0.0625985 0.0401575,0.00354331 0.0791339,0.00590551 0.11811,0.00590551 0.52441,-0.0011811 0.887008,-0.327166 1.23661,-0.680315 0.381496,0.0708662 0.608268,0.298819 0.679134,0.680315 -0.0011811,0.111024 -0.00236221,0.223228 -0.00354331,0.334252 -0.474803,0.188976 -0.957874,0.462992 -1.41614,0.462992z"
       id="_305303120"
       style="fill:#dff3f6;fill-opacity:1" /><path
       class="fil9"
       d="M626.714 632.496c-0.327166,-0.434646 -0.568111,-1.01693 -0.0874016,-1.33583 0.080315,-0.0531496 0.148819,-0.0767717 0.209055,-0.0767717 0.281103,0 0.366142,0.506693 0.550394,0.733465 -0.223228,0.225591 -0.447638,0.452362 -0.672048,0.679134z"
       id="_305303576"
       style="fill:#dff3f6;fill-opacity:1" /><path
       class="fil9"
       d="M662.354 665.882c-0.51378,0 -1.02638,0 -1.59921,0 0.196063,-0.179528 0.393307,-0.239764 0.588189,-0.239764 0.341339,0 0.680315,0.183071 1.01102,0.239764z"
       id="_305303528"
       style="fill:#dff3f6;fill-opacity:1" /><path
       class="fil9"
       d="M662.907 662.935c-0.904725,-0.544488 -1.54843,-1.27677 -1.69134,-2.36575 -1.42913,-0.602363 -0.206693,-1.5815 -0.337795,-2.36811 0.451181,-0.112205 0.902363,-0.225591 1.35236,-0.337795 0.216142,-0.190158 0.413386,-0.43937 0.693307,-0.43937 0.0956693,0 0.201969,0.0295276 0.32126,0.100394 0.338977,0.113386 0.676772,0.226772 1.01575,0.338977 0.341339,0.0011811 0.683859,0.0011811 1.02638,0.0011811 0.0307087,-0.0236221 0.0625985,-0.0472441 0.0956693,-0.0708662 0.199606,-0.186614 0.431103,-0.281103 0.694489,-0.281103 0.034252,0 0.0696851,0.00236221 0.105118,0.00472441 0.486614,0.162992 0.851575,0.41811 0.768898,1.01339 -0.597638,0.549213 -0.635433,1.3748 -1.00276,2.03858 -0.190158,0.36378 -0.309449,0.859843 -0.699213,0.859843 -0.0885827,0 -0.191339,-0.0259843 -0.311811,-0.0838583 -0.00236221,0.527953 -0.00590551,1.05591 -0.00944882,1.58268 -0.673229,0.00236221 -1.34646,0.00472441 -2.02087,0.00708662zm-0.00236221 -2.49213c-0.135827,0 -0.302362,0.0956693 -0.558662,0.271654l0 0c0.0188976,0.0791339 0.0165354,0.152362 0.00236221,0.223228 0.0838583,-0.0637796 0.178347,-0.115748 0.284646,-0.151181 0.183071,-0.0472441 0.359055,-0.11811 0.52441,-0.209055 -0.0838583,-0.092126 -0.161811,-0.134646 -0.252756,-0.134646z"
       id="_305303504"
       style="fill:#dff3f6;fill-opacity:1" /><path
       class="fil9"
       d="M628.179 635.267c-0.120473,0 -0.265748,-0.0236221 -0.437008,-0.0744095 -0.00236221,-0.109843 -0.00590551,-0.218504 -0.00826772,-0.328347 0.212599,-0.407481 0.542126,-0.638977 1.00512,-0.672048 0.0496063,0.594095 -0.0141732,1.0748 -0.559843,1.0748z"
       id="_305303192"
       style="fill:#dff3f6;fill-opacity:1" /><path
       class="fil9"
       d="M658.339 662.981c-0.284646,0 -0.569292,-0.126378 -0.853937,-0.376772 -0.219685,-0.116929 -0.43937,-0.233858 -0.660237,-0.350788 -0.10748,-0.616536 0.266929,-0.924804 0.745276,-1.16693 0.424016,-0.21378 0.883465,-0.290551 1.33701,-0.290551 0.151181,0 0.302362,0.00826772 0.45,0.0236221 0.833859,0.0850394 1.40315,0.467717 0.844489,1.43858 -0.336614,0.113386 -0.67441,0.227953 -1.01102,0.34252 -0.283465,0.253937 -0.568111,0.380315 -0.851575,0.380315z"
       id="_305303792"
       style="fill:#dff3f6;fill-opacity:1" /><path
       class="fil9"
       d="M672.038 638.921c-0.0472441,-0.0283465 -0.0956693,-0.0543307 -0.140551,-0.0862205 -0.512599,-0.366142 -0.975591,-0.772441 -0.753544,-1.49291 0.0484252,-0.157087 0.180709,-0.239764 0.322441,-0.239764 0.0744095,0 0.15,0.0212599 0.219685,0.0673229 0.630709,0.414567 1.17165,0.889371 0.68504,1.75158l-0.166536 0 -0.166536 0z"
       id="_305303336"
       style="fill:#dff3f6;fill-opacity:1" /><path
       class="fil9"
       d="M669.666 638.817c-0.364961,0 -0.581103,-0.218504 -0.566929,-0.602363 0.0129921,-0.368504 0.239764,-0.546851 0.551575,-0.546851 0.0425197,0 0.0874016,0.00236221 0.132284,0.00944882 0.302362,0.0437008 0.474803,0.269291 0.464173,0.595276 -0.0248032,0.325984 -0.207874,0.52441 -0.523229,0.543307 -0.0188976,0.0011811 -0.0389764,0.0011811 -0.057874,0.0011811z"
       id="_305303696"
       style="fill:#dff3f6;fill-opacity:1" /><path
       class="fil9"
       d="M649.766 654.169c-0.126378,0 -0.256299,-0.00826772 -0.389764,-0.0259843 -0.225591,0 -0.451181,0.0011811 -0.676772,0.0011811 -0.596457,-0.0791339 -0.935434,-0.416929 -1.01811,-1.01339 -0.441733,-0.564567 -0.433465,-1.12913 0.00236221,-1.6937 0.505512,-0.133465 1.00984,-0.644882 1.51536,-0.644882 0.284646,0 0.568111,0.161811 0.852756,0.646063 0.50315,0.422835 0.400394,0.892914 0.238583,1.36654 0.133465,-0.132284 0.290551,-0.230315 0.472441,-0.28937 -0.0720473,-0.486614 -0.199606,-0.955512 -0.562205,-1.33465 -0.0307087,-0.127559 -0.0377953,-0.255118 -0.0212599,-0.382677 -0.0366142,0.00354331 -0.0720473,0.00590551 -0.106299,0.00590551 -0.505512,0 -0.713386,-0.394488 -0.831496,-0.908268 -0.0401575,-0.0980315 0.0389764,-0.178347 0.135827,-0.256299 -0.0011811,-0.0295276 -0.00236221,-0.0602363 -0.00354331,-0.0897638l-0.00236221 0.00236221c-0.198425,0.0779528 -0.372047,0.111024 -0.527953,0.111024 -0.863386,0 -1.15984,-1.03937 -1.83071,-1.39488 -0.464173,-0.787796 -1.2626,-0.805512 -2.03504,-0.884646 0.00708662,-0.539764 -0.0165354,-1.08071 0.0283465,-1.61575 0.0507874,-0.607087 0.288189,-0.924804 0.7063,-0.924804 0.173622,0 0.379134,0.0543307 0.614174,0.166536 0.113386,-0.225591 0.226772,-0.451181 0.338977,-0.676772 -0.193701,-0.226772 -0.206693,-0.451181 0.00590551,-0.67441 0.348425,-0.237402 0.733465,-0.435827 1.04055,-0.718111 0.729922,-0.673229 -0.0248032,-0.546851 -0.366142,-0.635433 -0.272835,-0.902363 -0.269291,-1.80473 -0.00236221,-2.70709 0.113386,-0.112205 0.226772,-0.22441 0.340158,-0.336614 0.168898,-0.164173 0.362599,-0.27874 0.6,-0.298819 -0.12874,-0.611811 -0.0259843,-1.00394 0.494882,-1.00394 0.174803,0 0.398032,0.0437008 0.675591,0.13937 0.113386,0.0401575 0.223228,0.0590551 0.329528,0.0590551 0.219685,0 0.425197,-0.0826772 0.614174,-0.242126 0.0696851,-0.0437008 0.13937,-0.0661418 0.209055,-0.0661418 0.0673229,0 0.133465,0.0200788 0.199606,0.0590551 0.0354331,-0.00236221 0.0708662,-0.00472441 0.106299,-0.00708662 -0.00826772,-0.272835 0.101575,-0.500788 0.282284,-0.707481 0.396851,-0.452362 0.124016,-0.703937 -0.287008,-0.888189 -0.135827,-0.0602363 -0.252756,-0.0885827 -0.351969,-0.0885827 -0.263386,0 -0.402756,0.206693 -0.427559,0.584646 -0.0307087,0.477166 -0.153543,0.891733 -0.696851,1.0252 -0.556299,0 -1.10551,-0.0614174 -1.66063,-0.0614174 -0.00354331,0 -0.00590551,0 -0.00944882,0 -0.0011811,0 -0.00354331,0 -0.00590551,0 -1.12795,0 -1.67362,-0.496063 -1.29685,-1.68307 0.046063,-0.0448819 0.0933071,-0.0897638 0.140551,-0.134646l-0.00354331 -0.00472441c-0.232677,0.19252 -0.466536,0.271654 -0.700394,0.271654 -0.307087,0 -0.614174,-0.137008 -0.92126,-0.33189 -0.109843,-0.0011811 -0.219685,-0.00354331 -0.329528,-0.00590551 -0.00236221,-0.255118 -0.00354331,-0.510236 -0.00472441,-0.765355 -0.411024,-0.0862205 -0.707481,-0.262205 -0.711024,-0.664961 -0.536221,0.261024 -1.07126,0.486614 -1.59449,0.486614 -0.474803,0 -0.938977,-0.185433 -1.38543,-0.696851 -0.475984,-0.857481 -0.21378,-1.90394 -0.701575,-2.76142 -0.0484252,-0.904725 -1.54252,-1.80118 -0.0129921,-2.71417 0.0011811,-0.10748 0.00354331,-0.21378 0.00944882,-0.32126 0.225591,-0.113386 0.45,-0.226772 0.67441,-0.340158 1.35354,-0.297638 2.33976,-1.18937 2.8441,-2.35866 0.494882,-1.14921 1.27441,-1.36654 2.23701,-1.36654 0.108661,0 0.219685,0.00236221 0.33189,0.00708662 0.113386,-0.111024 0.226772,-0.223228 0.338977,-0.335433 0.354331,-0.164173 0.69567,-0.229134 1.02874,-0.229134 0.647244,0 1.26378,0.246851 1.88032,0.493701 0.617717,0.246851 1.23425,0.493701 1.8815,0.493701 0.201969,0 0.406299,-0.0248032 0.615355,-0.0791339 0.146457,0.108661 0.243307,0.250394 0.294095,0.425197 0.518504,0.209055 1.02165,0.532677 1.56732,0.532677 0.242126,0 0.493701,-0.0637796 0.757087,-0.231496 -0.0129921,-0.0188976 -0.0271654,-0.0389764 -0.0389764,-0.0590551 -0.0377953,-0.158268 -0.0330709,-0.315354 0.0141732,-0.47126 0.205512,-0.307087 0.360236,-0.633071 0.336614,-1.01693 -0.00354331,-0.206693 -0.0767717,-0.38504 -0.219685,-0.536221 1.27323,-0.131102 0.294095,-1.76693 1.36063,-2.03622 0.448819,0.114567 0.896457,0.227953 1.34528,0.34252 0.564567,0.113386 1.12795,0.225591 1.69134,0.338977 0.226772,-0.225591 0.451181,-0.45 0.677953,-0.675591 0.311811,-0.132284 0.561024,-0.188976 0.761811,-0.188976 0.896457,0 0.840945,1.13976 1.2,1.78228 0.271654,-0.324803 0.636614,-0.468898 1.07717,-0.468898 0.0011811,0 0.00236221,0 0.00236221,0 0.338977,0.0507874 0.49252,0.327166 0.677953,0.565748 0.22441,0.114567 0.45,0.229134 0.675591,0.343701l0 0 0 0 0 0c0.113386,-0.00236221 0.226772,-0.00472441 0.341339,-0.00590551 0.437008,0.424016 1.00866,0.708662 1.32165,1.26496 0.142913,0.304725 0.292914,0.609449 0.148819,0.92126 0.140551,0.318898 0.0779528,0.620079 -0.0909449,0.914174 -0.0944882,0.138189 -0.214961,0.252756 -0.351969,0.346063 -0.0590551,0.0295276 -0.115748,0.0566929 -0.172441,0.0826772 -0.186614,0.183071 -0.367323,0.381496 -0.592914,0.475984 -1.31575,0.555118 -1.20827,1.26614 -0.285827,2.10591 0.121654,0.100394 0.194882,0.227953 0.219685,0.38504 -0.00708662,0.113386 -0.0389764,0.218504 -0.0897638,0.315354 0.49252,0.294095 0.526772,0.928347 0.908268,1.30512 0.251575,0.812599 0.427559,1.49882 -0.440551,1.49882 -0.170079,0 -0.381496,-0.0271654 -0.641339,-0.0850394 -0.111024,-0.0248032 -0.218504,-0.0366142 -0.320079,-0.0366142 -0.693307,0 -1.15158,0.549213 -1.29921,1.33347 -0.0838583,0.425197 -0.356693,0.662599 -0.761811,0.766536 -0.124016,0.0141732 -0.246851,0.0236221 -0.366142,0.0236221 -0.00944882,0 -0.0188976,0 -0.0283465,0 -0.76063,0.582284 -1.5874,0.823229 -2.45906,0.823229 -0.444095,0 -0.9,-0.0625985 -1.36536,-0.173622 -0.318898,-0.251575 -0.892914,-0.245669 -1.07244,-0.636614 -0.0318898,-0.00472441 -0.0637796,-0.00826772 -0.0968504,-0.0141732 -0.427559,-0.11811 -0.850394,-0.246851 -1.29685,-0.281103 -1.97599,-0.424016 -2.23583,-0.722835 -2.19685,-2.51457 0.0236221,-0.304725 0.0826772,-0.590551 0.263386,-0.819685 -0.400394,-0.0165354 -0.791339,-0.126378 -1.18819,-0.175984 0.0236221,0.0720473 0.0377953,0.147638 0.0413386,0.229134 -0.0814961,0.571654 -0.360236,1.02165 -0.831496,1.35354 -0.120473,0.100394 -0.25748,0.167717 -0.407481,0.209055 -0.0425197,-0.00236221 -0.0862205,-0.00472441 -0.12874,-0.00826772 -0.137008,0.237402 -0.315354,0.435827 -0.507874,0.622441 0.10748,-0.0708662 0.218504,-0.134646 0.338977,-0.18189 0.159449,-0.0295276 0.318898,-0.0448819 0.478347,-0.0448819 0.183071,0 0.364961,0.0200788 0.548032,0.0590551 1.58504,0.780709 2.18504,2.09764 2.07047,3.80433 0.0708662,0.827953 0.198425,1.64173 -0.0011811,2.4815 -0.183071,0.772441 -0.542126,1.23425 -1.31929,1.23425 -0.0507874,0 -0.103937,-0.00236221 -0.158268,-0.00590551 -0.114567,-0.0295276 -0.218504,-0.080315 -0.312992,-0.145276 0.180709,0.488977 0.225591,0.887008 -0.320079,0.887008 -0.0909449,0 -0.198425,-0.0106299 -0.323622,-0.034252 0.0188976,0.0744095 0.0259843,0.152362 0.0200788,0.235039 -0.265748,0.68504 -1.09488,0.801969 -1.4315,1.41732 -0.173622,0.185433 -0.320079,0.401575 -0.533859,0.542126 0.530315,0.608268 0.282284,1.21535 -0.0153543,1.82244 0.41811,0.204331 0.904725,0.323622 1.07244,0.840945 0.13937,-0.0826772 0.297638,-0.126378 0.473622,-0.127559 0.703937,0.249213 1.62756,-0.116929 2.11181,0.75 0.00236221,0.103937 -0.0153543,0.206693 -0.0413386,0.308268 0.777166,0.669685 0.244488,1.07717 -0.248032,1.49291 0.0271654,0.057874 0.057874,0.115748 0.100394,0.174803 -0.0318898,0.236221 -0.0862205,0.462992 -0.261024,0.640158 -0.250394,0.225591 -0.250394,0.452362 0.0011811,0.676772 0.467717,1.28858 0.488977,2.40354 -1.11378,2.89488 -0.112205,-0.00236221 -0.212599,-0.0248032 -0.304725,-0.0590551 -0.351969,0.649607 -0.897638,0.91063 -1.57323,0.91063zm7.68426 -20.9988l0.00826772 0.0153543 0.034252 -0.0106299c-0.0129921,-0.00236221 -0.0283465,-0.00354331 -0.0425197,-0.00472441zm-7.5437 -7.43268c0.0248032,0.034252 0.0496063,0.0673229 0.0755906,0.100394l0.00944882 -0.00826772c-0.0283465,-0.0295276 -0.0566929,-0.0590551 -0.0850394,-0.092126z"
       id="_305303552"
       style="fill:#dff3f6;fill-opacity:1" /><path
       class="fil9"
       d="M659.99 658.258c-0.154724,-0.356693 -0.309449,-0.713386 -0.464173,-1.07008 -0.536221,-0.303543 -0.938977,-0.708662 -1.02165,-1.35354 0.46063,-0.242126 0.949607,-0.338977 1.4563,-0.338977 0.0791339,0 0.158268,0.00236221 0.237402,0.00708662 0.131102,0.0177165 0.262205,0.0330709 0.393307,0.0389764 0.399213,-0.0011811 0.764174,-0.120473 1.10551,-0.322441 0.0661418,-0.0200788 0.131102,-0.0401575 0.196063,-0.0602363 0.540945,1.70551 0.348425,1.93583 -1.68898,2.03032 -0.0011811,0.112205 -0.0011811,0.22441 -0.0011811,0.336614 -0.0708662,0.244488 -0.141732,0.488977 -0.212599,0.732284z"
       id="_305303360"
       style="fill:#dff3f6;fill-opacity:1" /><path
       class="fil9"
       d="M657.492 656.504c-0.559843,-0.00354331 -1.1185,-0.00590551 -1.67835,-0.00944882 -0.45,-0.426378 -0.977953,-0.779528 -1.25551,-1.36536 -0.0318898,-0.255118 0.0496063,-0.470079 0.229134,-0.649607 1.21654,0.0614174 2.57599,-0.10748 2.70827,1.69134 -0.0011811,0.111024 -0.00236221,0.222047 -0.00354331,0.333071z"
       id="_305302856"
       style="fill:#dff3f6;fill-opacity:1" /><path
       class="fil9"
       d="M646.669 659.894c0.0944882,-0.35315 0.269291,-0.625985 0.629528,-0.625985 0.0448819,0 0.092126,0.00354331 0.141732,0.0129921 0.367323,0.0625985 0.315354,0.344882 0.243307,0.61063 -0.337795,0.0011811 -0.676772,0.0011811 -1.01457,0.00236221z"
       id="_305302736"
       style="fill:#dff3f6;fill-opacity:1" /><path
       class="fil9"
       d="M642.769 661.132c-0.080315,0 -0.190158,-0.0425197 -0.222047,-0.0980315 -0.0933071,-0.162992 -0.0106299,-0.281103 0.16063,-0.281103 0.00590551,0 0.0129921,0 0.0188976,0 0.0779528,0.00354331 0.15,0.109843 0.225591,0.168898 -0.0507874,0.0767717 -0.0909449,0.197244 -0.151181,0.207874 -0.00944882,0.0011811 -0.0200788,0.00236221 -0.0318898,0.00236221z"
       id="_305302520"
       style="fill:#dff3f6;fill-opacity:1" /><text
       xml:space="preserve"
       style="font-style:normal;font-weight:bold;font-size:40px;line-height:1.25;font-family:sans-serif;letter-spacing:0px;word-spacing:0px;fill:#dff3f6;fill-opacity:1;stroke:none;-inkscape-font-specification:'sans-serif Bold';font-stretch:normal;font-variant:normal;"
       x="608.83093"
       y="862.87811"
       id="text4646"><tspan
         sodipodi:role="line"
         id="tspan4644"
         x="608.83093"
         y="862.87811">Taranto ,TA</tspan></text>
</g></svg>