<?xml version="1.0" encoding="UTF-8" standalone="no"?>
<svg
   xmlns:dc="http://purl.org/dc/elements/1.1/"
   xmlns:cc="http://creativecommons.org/ns#"
   xmlns:rdf="http://www.w3.org/1999/02/22-rdf-syntax-ns#"
   xmlns:svg="http://www.w3.org/2000/svg"
   xmlns="http://www.w3.org/2000/svg"
   xmlns:sodipodi="http://sodipodi.sourceforge.net/DTD/sodipodi-0.dtd"
   xmlns:inkscape="http://www.inkscape.org/namespaces/inkscape"
   height="480"
   width="640"
   version="1.1"
   id="svg326"
   sodipodi:docname="ar.svg"
   inkscape:version="0.92.2 2405546, 2018-03-11">
  <title
     id="title1303">Bandiere del Mondo</title>
  <metadata
     id="metadata332">
    <rdf:RDF>
      <cc:Work
         rdf:about="">
        <dc:format>image/svg+xml</dc:format>
        <dc:type
           rdf:resource="http://purl.org/dc/dcmitype/StillImage" />
        <dc:title>Bandiere del Mondo</dc:title>
        <dc:date>2016</dc:date>
        <dc:creator>
          <cc:Agent>
            <dc:title>Cristian Pozzessere  &lt; ilnanny &gt;</dc:title>
          </cc:Agent>
        </dc:creator>
        <dc:description>Playing with Inkscape on Gnu/Linux O. S.</dc:description>
        <dc:contributor>
          <cc:Agent>
            <dc:title>In the night, alone like a dog.</dc:title>
          </cc:Agent>
        </dc:contributor>
      </cc:Work>
    </rdf:RDF>
  </metadata>
  <defs
     id="defs330" />
  <sodipodi:namedview
     pagecolor="#ffffff"
     bordercolor="#666666"
     borderopacity="1"
     objecttolerance="10"
     gridtolerance="10"
     guidetolerance="10"
     inkscape:pageopacity="0"
     inkscape:pageshadow="2"
     inkscape:window-width="640"
     inkscape:window-height="480"
     id="namedview328"
     showgrid="false"
     inkscape:zoom="0.59641304"
     inkscape:cx="320"
     inkscape:cy="246.53909"
     inkscape:current-layer="svg326" />
  <g
     fill-rule="evenodd"
     stroke-width="1pt"
     id="g52">
    <path
       fill="#00c4ff"
       d="M0-.01h640.003v160.43H0z"
       id="path46" />
    <path
       fill="#fff"
       d="M0 159.763h640.003v160.43H0z"
       id="path48" />
    <path
       fill="#00c4ff"
       d="M0 319.536h640.003v160.43H0z"
       id="path50" />
  </g>
  <path
     d="M382.49 221.33c0 14.564-11.864 26.37-26.5 26.37s-26.498-11.806-26.498-26.37 11.864-26.37 26.5-26.37 26.498 11.806 26.498 26.37z"
     stroke-opacity=".387"
     fill-rule="evenodd"
     transform="matrix(1.6452 0 0 1.62 -265.894 -116.567)"
     stroke="#000"
     stroke-width=".625"
     fill="#ffd600"
     id="path54" />
  <path
     d="M364.43 195.28c-4.34-1.05-8.785.422-10.185.318-1.925 0-6.79-1.68-10.185 0m-5.35 4.892c4.305-3.01 9.115 1.086 10.394.315 3.492-2.294 6.736-1.868 10.08.21 2.155 1.272 5.914-3.71 10.29.315"
     stroke-opacity=".387"
     transform="matrix(1.2703 0 0 1.231 -130.873 -28.912)"
     stroke="#000"
     stroke-width=".5"
     fill="none"
     id="path56" />
  <path
     d="M333.88 205.63c2.275-1.855 9.694-1.925 17.324 2.414 1.155-.28 1.89-1.084.945-2.204-5.74-1.995-12.425-4.515-18.585-2.625-1.68 1.19-1.26 1.96.315 2.415z"
     stroke-opacity=".387"
     fill-rule="evenodd"
     transform="matrix(1.2703 0 0 1.231 -130.873 -28.912)"
     stroke="#000"
     stroke-width=".5"
     fill="#efc000"
     id="path58" />
  <path
     d="M333.88 205.63c2.275-1.855 9.694-1.925 17.324 2.414 1.155-.28 1.89-1.084.945-2.204-5.74-1.995-12.425-4.515-18.585-2.625-1.68 1.19-1.26 1.96.315 2.415z"
     stroke-opacity=".387"
     fill-rule="evenodd"
     transform="matrix(-1.2703 0 0 1.231 768.984 -28.912)"
     stroke="#000"
     stroke-width=".5"
     fill="#efc000"
     id="path60" />
  <path
     stroke-linejoin="round"
     d="M330.84 211.83c7.525-4.83 17.464-2.31 21.63.315-6.09-1.155-6.196-1.68-10.606-1.785-3.115.106-7.7-.21-11.024 1.47z"
     stroke-opacity=".387"
     fill-rule="evenodd"
     transform="matrix(1.2703 0 0 1.231 -130.873 -28.912)"
     stroke="#000"
     stroke-width=".625"
     fill="#f0bf00"
     id="path62" />
  <path
     d="M348.06 211.3c-3.675 7.665-10.08 7.77-14.594-.42"
     stroke-opacity=".387"
     transform="matrix(1.2703 0 0 1.231 -130.873 -28.912)"
     stroke="#000"
     stroke-width=".625"
     fill="none"
     id="path64" />
  <path
     d="M308.78 234.09c-1.383 1.514-4.77 2.413-7.564 2.01s-3.937-1.96-2.553-3.474c1.384-1.514 4.77-2.413 7.565-2.01s3.937 1.96 2.553 3.474z"
     fill-rule="evenodd"
     fill-opacity=".368"
     id="path66" />
  <path
     d="M301.898 232.147c.143.353-.297.82-.984 1.045s-1.358.12-1.5-.23c-.144-.354.297-.822.983-1.046s1.36-.12 1.5.23z"
     fill-rule="evenodd"
     fill="gold"
     id="path68" />
  <path
     d="M349.18 224.5c-4.24 7.127 1.537 2.1 2.475 4.164 1.65 1.913 3.3 1.462 4.276 0 .977-1.65 7.128 3.113 2.927-3.938"
     stroke-opacity=".387"
     transform="matrix(1.2703 0 0 1.231 -130.873 -28.912)"
     stroke="#000"
     stroke-width=".625"
     fill="none"
     id="path70" />
  <path
     stroke-linejoin="round"
     d="M341.64 236.31c3.638-.413 9.753-3.188 11.93-.9 1.874-2.063 8.476.6 12.714.9-3.076 1.875-9.302.6-12.265 2.588-2.89-1.763-9.267-.15-12.38-2.588z"
     stroke-opacity=".387"
     transform="matrix(1.2703 0 0 1.231 -130.873 -28.912)"
     stroke="#000"
     stroke-linecap="round"
     stroke-width=".625"
     fill="none"
     id="path72" />
  <path
     stroke-linejoin="round"
     d="M347.5 239.58c5.514 2.25 6.752 1.913 12.716.225-1.238 3.264-4.398 3.95-6.19 3.826-1.857-.12-4.388.114-6.526-4.05z"
     stroke-opacity=".387"
     transform="matrix(1.2703 0 0 1.231 -130.873 -28.912)"
     stroke="#000"
     stroke-width=".625"
     fill="none"
     id="path74" />
  <path
     stroke-linejoin="round"
     d="M343.17 258.06c-3.977 10.41.38 15.358-1.567 20.964-1.874 5.398-10.025 18.776-3.82 24.59 4.93.227-.853-7.377 9.01-21.456 4.576-6.595-1.195-10.77 3.626-23.707.448-1.106-6.623-2.03-7.25-.39z"
     stroke-opacity=".387"
     fill-rule="evenodd"
     transform="matrix(1.2703 0 0 1.231 -130.873 -28.912)"
     stroke="#000"
     stroke-width=".625"
     fill="gold"
     id="path76" />
  <path
     stroke-linejoin="round"
     d="M342.97 258.16c-1.528 11.683-.62 47.577 3.037 46.14 4.05 1.306 4.583-35.162 4.212-45.945-.053-1.194-7.037-1.938-7.25-.195z"
     stroke-opacity=".387"
     fill-rule="evenodd"
     transform="matrix(1.2703 0 0 1.231 -119.922 -28.068)"
     stroke="#000"
     stroke-width=".625"
     fill="gold"
     id="path78" />
  <path
     stroke-linejoin="round"
     d="M343.17 258.06c-3.977 10.41.38 15.358-1.567 20.964-1.874 5.398-10.025 18.776-3.82 24.59 4.93.227-.853-7.377 9.01-21.456 4.576-6.595-1.195-10.77 3.626-23.707.448-1.106-6.623-2.03-7.25-.39z"
     stroke-opacity=".387"
     transform="matrix(-.908 -.861 -.8884 .88 837.014 353.18)"
     stroke="#000"
     stroke-width=".625"
     fill="none"
     id="path80" />
  <path
     stroke-linejoin="round"
     d="M343.17 258.06c-3.977 10.41.38 15.358-1.567 20.964-1.874 5.398-10.025 18.776-3.82 24.59 4.93.227-.853-7.377 9.01-21.456 4.576-6.595-1.195-10.77 3.626-23.707.448-1.106-6.623-2.03-7.25-.39z"
     stroke-opacity=".387"
     transform="matrix(.889 .8794 -.9075 .8614 204.616 -258.71)"
     stroke="#000"
     stroke-width=".625"
     fill="none"
     id="path82" />
  <path
     stroke-linejoin="round"
     d="M343.17 258.06c-3.977 10.41.38 15.358-1.567 20.964-1.874 5.398-10.025 18.776-3.82 24.59 4.93.227-.853-7.377 9.01-21.456 4.576-6.595-1.195-10.77 3.626-23.707.448-1.106-6.623-2.03-7.25-.39z"
     stroke-opacity=".387"
     transform="matrix(-.0073 -1.231 -1.2703 .007 601.74 676.9)"
     stroke="#000"
     stroke-width=".625"
     fill="none"
     id="path84" />
  <path
     stroke-linejoin="round"
     d="M342.97 258.16c-1.528 11.683-.62 47.577 3.037 46.14 4.05 1.306 4.583-35.162 4.212-45.945-.053-1.194-7.037-1.938-7.25-.195z"
     stroke-opacity=".387"
     transform="matrix(-1.1653 -.49 -.5057 1.1292 835.787 164.23)"
     stroke="#000"
     stroke-width=".625"
     fill="none"
     id="path86" />
  <path
     stroke-linejoin="round"
     d="M342.97 258.16c-1.528 11.683-.62 47.577 3.037 46.14 4.05 1.306 4.583-35.162 4.212-45.945-.053-1.194-7.037-1.938-7.25-.195z"
     stroke-opacity=".387"
     transform="matrix(-.905 -.864 -.8915 .877 827.91 348.79)"
     stroke="#000"
     stroke-width=".625"
     fill="none"
     id="path88" />
  <path
     stroke-linejoin="round"
     d="M342.97 258.16c-1.528 11.683-.62 47.577 3.037 46.14 4.05 1.306 4.583-35.162 4.212-45.945-.053-1.194-7.037-1.938-7.25-.195z"
     stroke-opacity=".387"
     transform="matrix(-.4964 -1.133 -1.1693 .481 748.115 528.492)"
     stroke="#000"
     stroke-width=".625"
     fill="none"
     id="path90" />
  <path
     d="M349.18 224.5c-4.24 7.127 1.537 2.1 2.475 4.164 1.65 1.913 3.3 1.462 4.276 0 .977-1.65 7.128 3.113 2.927-3.938"
     stroke-opacity=".082"
     transform="matrix(1.2703 0 0 1.231 -130.873 -28.912)"
     stroke="#000"
     stroke-width=".625"
     fill="none"
     id="path92" />
  <path
     stroke-linejoin="round"
     d="M341.64 236.31c3.638-.413 9.753-3.188 11.93-.9 1.874-2.063 8.476.6 12.714.9-3.076 1.875-9.302.6-12.265 2.588-2.89-1.763-9.267-.15-12.38-2.588z"
     stroke-opacity=".082"
     fill-rule="evenodd"
     transform="matrix(1.2703 0 0 1.231 -130.873 -28.912)"
     stroke="#000"
     stroke-linecap="round"
     stroke-width=".625"
     fill="#f0bf00"
     id="path94" />
  <path
     stroke-linejoin="round"
     d="M347.5 239.58c5.514 2.25 6.752 1.913 12.716.225-1.238 3.264-4.398 3.95-6.19 3.826-1.857-.12-4.388.114-6.526-4.05z"
     stroke-opacity=".082"
     fill-rule="evenodd"
     transform="matrix(1.2703 0 0 1.231 -130.873 -28.912)"
     stroke="#000"
     stroke-width=".625"
     fill="#f0bf00"
     id="path96" />
  <path
     stroke-linejoin="round"
     d="M343.17 258.06c-3.977 10.41.38 15.358-1.567 20.964-1.874 5.398-10.025 18.776-3.82 24.59 4.93.227-.853-7.377 9.01-21.456 4.576-6.595-1.195-10.77 3.626-23.707.448-1.106-6.623-2.03-7.25-.39z"
     stroke-opacity=".149"
     fill-rule="evenodd"
     transform="matrix(-.908 -.861 -.8884 .88 837.014 353.18)"
     stroke="#000"
     stroke-width=".625"
     fill="gold"
     id="path98" />
  <path
     stroke-linejoin="round"
     d="M343.17 258.06c-3.977 10.41.38 15.358-1.567 20.964-1.874 5.398-10.025 18.776-3.82 24.59 4.93.227-.853-7.377 9.01-21.456 4.576-6.595-1.195-10.77 3.626-23.707.448-1.106-6.623-2.03-7.25-.39z"
     stroke-opacity=".149"
     fill-rule="evenodd"
     transform="matrix(.889 .8794 -.9075 .8614 204.616 -258.71)"
     stroke="#000"
     stroke-width=".625"
     fill="gold"
     id="path100" />
  <path
     stroke-linejoin="round"
     d="M343.17 258.06c-3.977 10.41.38 15.358-1.567 20.964-1.874 5.398-10.025 18.776-3.82 24.59 4.93.227-.853-7.377 9.01-21.456 4.576-6.595-1.195-10.77 3.626-23.707.448-1.106-6.623-2.03-7.25-.39z"
     stroke-opacity=".149"
     fill-rule="evenodd"
     transform="matrix(-.0073 -1.231 -1.2703 .007 601.74 676.9)"
     stroke="#000"
     stroke-width=".625"
     fill="gold"
     id="path102" />
  <path
     stroke-linejoin="round"
     d="M342.97 258.16c-1.528 11.683-.62 47.577 3.037 46.14 4.05 1.306 4.583-35.162 4.212-45.945-.053-1.194-7.037-1.938-7.25-.195z"
     stroke-opacity=".149"
     fill-rule="evenodd"
     transform="matrix(-1.1653 -.49 -.5057 1.1292 835.787 164.23)"
     stroke="#000"
     stroke-width=".625"
     fill="gold"
     id="path104" />
  <path
     stroke-linejoin="round"
     d="M342.97 258.16c-1.528 11.683-.62 47.577 3.037 46.14 4.05 1.306 4.583-35.162 4.212-45.945-.053-1.194-7.037-1.938-7.25-.195z"
     stroke-opacity=".149"
     fill-rule="evenodd"
     transform="matrix(-.905 -.864 -.8915 .877 827.91 348.79)"
     stroke="#000"
     stroke-width=".625"
     fill="gold"
     id="path106" />
  <path
     stroke-linejoin="round"
     d="M342.97 258.16c-1.528 11.683-.62 47.577 3.037 46.14 4.05 1.306 4.583-35.162 4.212-45.945-.053-1.194-7.037-1.938-7.25-.195z"
     stroke-opacity=".149"
     fill-rule="evenodd"
     transform="matrix(-.4964 -1.133 -1.1693 .481 748.115 528.492)"
     stroke="#000"
     stroke-width=".625"
     fill="gold"
     id="path108" />
  <path
     stroke-linejoin="round"
     d="M342.97 258.16c-1.528 11.683-.62 47.577 3.037 46.14 4.05 1.306 4.583-35.162 4.212-45.945-.053-1.194-7.037-1.938-7.25-.195z"
     stroke-opacity=".387"
     fill-rule="evenodd"
     transform="matrix(0 -1.231 1.2703 0 41.183 668.378)"
     stroke="#000"
     stroke-width=".625"
     fill="gold"
     id="path110" />
  <path
     stroke-linejoin="round"
     d="M343.17 258.06c-3.977 10.41.38 15.358-1.567 20.964-1.874 5.398-10.025 18.776-3.82 24.59 4.93.227-.853-7.377 9.01-21.456 4.576-6.595-1.195-10.77 3.626-23.707.448-1.106-6.623-2.03-7.25-.39z"
     stroke-opacity=".387"
     fill-rule="evenodd"
     transform="matrix(-1.2703 0 0 1.231 770.68 -28.276)"
     stroke="#000"
     stroke-width=".625"
     fill="gold"
     id="path112" />
  <path
     stroke-linejoin="round"
     d="M343.17 258.06c-3.977 10.41.38 15.358-1.567 20.964-1.874 5.398-10.025 18.776-3.82 24.59 4.93.227-.853-7.377 9.01-21.456 4.576-6.595-1.195-10.77 3.626-23.707.448-1.106-6.623-2.03-7.25-.39z"
     stroke-opacity=".387"
     fill-rule="evenodd"
     transform="matrix(.908 -.861 .8884 .88 -196.843 353.81)"
     stroke="#000"
     stroke-width=".625"
     fill="gold"
     id="path114" />
  <path
     stroke-linejoin="round"
     d="M343.17 258.06c-3.977 10.41.38 15.358-1.567 20.964-1.874 5.398-10.025 18.776-3.82 24.59 4.93.227-.853-7.377 9.01-21.456 4.576-6.595-1.195-10.77 3.626-23.707.448-1.106-6.623-2.03-7.25-.39z"
     stroke-opacity=".387"
     fill-rule="evenodd"
     transform="matrix(-.889 .8794 .9075 .8614 435.564 -258.39)"
     stroke="#000"
     stroke-width=".625"
     fill="gold"
     id="path116" />
  <path
     stroke-linejoin="round"
     d="M343.17 258.06c-3.977 10.41.38 15.358-1.567 20.964-1.874 5.398-10.025 18.776-3.82 24.59 4.93.227-.853-7.377 9.01-21.456 4.576-6.595-1.195-10.77 3.626-23.707.448-1.106-6.623-2.03-7.25-.39z"
     stroke-opacity=".387"
     fill-rule="evenodd"
     transform="matrix(.0073 -1.231 1.2703 .007 38.068 676.9)"
     stroke="#000"
     stroke-width=".625"
     fill="gold"
     id="path118" />
  <path
     stroke-linejoin="round"
     d="M342.97 258.16c-1.528 11.683-.62 47.577 3.037 46.14 4.05 1.306 4.583-35.162 4.212-45.945-.053-1.194-7.037-1.938-7.25-.195z"
     stroke-opacity=".387"
     fill-rule="evenodd"
     transform="matrix(1.1653 -.49 .5057 1.1292 -195.68 164.874)"
     stroke="#000"
     stroke-width=".625"
     fill="gold"
     id="path120" />
  <path
     stroke-linejoin="round"
     d="M342.97 258.16c-1.528 11.683-.62 47.577 3.037 46.14 4.05 1.306 4.583-35.162 4.212-45.945-.053-1.194-7.037-1.938-7.25-.195z"
     stroke-opacity=".387"
     fill-rule="evenodd"
     transform="matrix(.905 -.864 .8915 .877 -188.602 348.79)"
     stroke="#000"
     stroke-width=".625"
     fill="gold"
     id="path122" />
  <path
     stroke-linejoin="round"
     d="M342.97 258.16c-1.528 11.683-.62 47.577 3.037 46.14 4.05 1.306 4.583-35.162 4.212-45.945-.053-1.194-7.037-1.938-7.25-.195z"
     stroke-opacity=".387"
     fill-rule="evenodd"
     transform="matrix(.4964 -1.133 1.1693 .481 -107.76 528.492)"
     stroke="#000"
     stroke-width=".625"
     fill="gold"
     id="path124" />
  <path
     stroke-linejoin="round"
     d="M343.17 258.06c-3.977 10.41.38 15.358-1.567 20.964-1.874 5.398-10.025 18.776-3.82 24.59 4.93.227-.853-7.377 9.01-21.456 4.576-6.595-1.195-10.77 3.626-23.707.448-1.106-6.623-2.03-7.25-.39z"
     stroke-opacity=".149"
     fill-rule="evenodd"
     transform="matrix(.908 -.861 .8884 .88 -196.843 353.81)"
     stroke="#000"
     stroke-width=".625"
     fill="gold"
     id="path126" />
  <path
     stroke-linejoin="round"
     d="M343.17 258.06c-3.977 10.41.38 15.358-1.567 20.964-1.874 5.398-10.025 18.776-3.82 24.59 4.93.227-.853-7.377 9.01-21.456 4.576-6.595-1.195-10.77 3.626-23.707.448-1.106-6.623-2.03-7.25-.39z"
     stroke-opacity=".149"
     fill-rule="evenodd"
     transform="matrix(-.889 .8794 .9075 .8614 435.564 -258.39)"
     stroke="#000"
     stroke-width=".625"
     fill="gold"
     id="path128" />
  <path
     stroke-linejoin="round"
     d="M343.17 258.06c-3.977 10.41.38 15.358-1.567 20.964-1.874 5.398-10.025 18.776-3.82 24.59 4.93.227-.853-7.377 9.01-21.456 4.576-6.595-1.195-10.77 3.626-23.707.448-1.106-6.623-2.03-7.25-.39z"
     stroke-opacity=".149"
     fill-rule="evenodd"
     transform="matrix(.0073 -1.231 1.2703 .007 38.068 676.9)"
     stroke="#000"
     stroke-width=".625"
     fill="gold"
     id="path130" />
  <path
     stroke-linejoin="round"
     d="M342.97 258.16c-1.528 11.683-.62 47.577 3.037 46.14 4.05 1.306 4.583-35.162 4.212-45.945-.053-1.194-7.037-1.938-7.25-.195z"
     stroke-opacity=".149"
     fill-rule="evenodd"
     transform="matrix(1.1653 -.49 .5057 1.1292 -195.68 164.874)"
     stroke="#000"
     stroke-width=".625"
     fill="gold"
     id="path132" />
  <path
     stroke-linejoin="round"
     d="M342.97 258.16c-1.528 11.683-.62 47.577 3.037 46.14 4.05 1.306 4.583-35.162 4.212-45.945-.053-1.194-7.037-1.938-7.25-.195z"
     stroke-opacity=".149"
     fill-rule="evenodd"
     transform="matrix(.905 -.864 .8915 .877 -188.602 348.79)"
     stroke="#000"
     stroke-width=".625"
     fill="gold"
     id="path134" />
  <path
     stroke-linejoin="round"
     d="M342.97 258.16c-1.528 11.683-.62 47.577 3.037 46.14 4.05 1.306 4.583-35.162 4.212-45.945-.053-1.194-7.037-1.938-7.25-.195z"
     stroke-opacity=".149"
     fill-rule="evenodd"
     transform="matrix(.4964 -1.133 1.1693 .481 -107.76 528.492)"
     stroke="#000"
     stroke-width=".625"
     fill="gold"
     id="path136" />
  <path
     stroke-linejoin="round"
     d="M342.97 258.16c-1.528 11.683-.62 47.577 3.037 46.14 4.05 1.306 4.583-35.162 4.212-45.945-.053-1.194-7.037-1.938-7.25-.195z"
     stroke-opacity=".387"
     fill-rule="evenodd"
     transform="matrix(0 1.231 -1.2703 0 598.48 -184.42)"
     stroke="#000"
     stroke-width=".625"
     fill="gold"
     id="path138" />
  <path
     stroke-linejoin="round"
     d="M343.17 258.06c-3.977 10.41.38 15.358-1.567 20.964-1.874 5.398-10.025 18.776-3.82 24.59 4.93.227-.853-7.377 9.01-21.456 4.576-6.595-1.195-10.77 3.626-23.707.448-1.106-6.623-2.03-7.25-.39z"
     stroke-opacity=".387"
     fill-rule="evenodd"
     transform="matrix(1.2703 0 0 -1.231 -131 512.223)"
     stroke="#000"
     stroke-width=".625"
     fill="gold"
     id="path140" />
  <path
     stroke-linejoin="round"
     d="M343.17 258.06c-3.977 10.41.38 15.358-1.567 20.964-1.874 5.398-10.025 18.776-3.82 24.59 4.93.227-.853-7.377 9.01-21.456 4.576-6.595-1.195-10.77 3.626-23.707.448-1.106-6.623-2.03-7.25-.39z"
     stroke-opacity=".387"
     fill-rule="evenodd"
     transform="matrix(-.908 .861 -.8884 -.88 836.514 130.14)"
     stroke="#000"
     stroke-width=".625"
     fill="gold"
     id="path142" />
  <path
     stroke-linejoin="round"
     d="M343.17 258.06c-3.977 10.41.38 15.358-1.567 20.964-1.874 5.398-10.025 18.776-3.82 24.59 4.93.227-.853-7.377 9.01-21.456 4.576-6.595-1.195-10.77 3.626-23.707.448-1.106-6.623-2.03-7.25-.39z"
     stroke-opacity=".387"
     fill-rule="evenodd"
     transform="matrix(.889 -.8794 -.9075 -.8614 204.116 742.347)"
     stroke="#000"
     stroke-width=".625"
     fill="gold"
     id="path144" />
  <path
     stroke-linejoin="round"
     d="M343.17 258.06c-3.977 10.41.38 15.358-1.567 20.964-1.874 5.398-10.025 18.776-3.82 24.59 4.93.227-.853-7.377 9.01-21.456 4.576-6.595-1.195-10.77 3.626-23.707.448-1.106-6.623-2.03-7.25-.39z"
     stroke-opacity=".387"
     fill-rule="evenodd"
     transform="matrix(-.0073 1.231 -1.2703 -.007 601.612 -192.956)"
     stroke="#000"
     stroke-width=".625"
     fill="gold"
     id="path146" />
  <path
     stroke-linejoin="round"
     d="M342.97 258.16c-1.528 11.683-.62 47.577 3.037 46.14 4.05 1.306 4.583-35.162 4.212-45.945-.053-1.194-7.037-1.938-7.25-.195z"
     stroke-opacity=".387"
     fill-rule="evenodd"
     transform="matrix(-1.1653 .49 -.5057 -1.1292 835.352 319.092)"
     stroke="#000"
     stroke-width=".625"
     fill="gold"
     id="path148" />
  <path
     stroke-linejoin="round"
     d="M342.97 258.16c-1.528 11.683-.62 47.577 3.037 46.14 4.05 1.306 4.583-35.162 4.212-45.945-.053-1.194-7.037-1.938-7.25-.195z"
     stroke-opacity=".387"
     fill-rule="evenodd"
     transform="matrix(-.905 .864 -.8915 -.877 828.282 135.16)"
     stroke="#000"
     stroke-width=".625"
     fill="gold"
     id="path150" />
  <path
     stroke-linejoin="round"
     d="M342.97 258.16c-1.528 11.683-.62 47.577 3.037 46.14 4.05 1.306 4.583-35.162 4.212-45.945-.053-1.194-7.037-1.938-7.25-.195z"
     stroke-opacity=".387"
     fill-rule="evenodd"
     transform="matrix(-.4964 1.133 -1.1693 -.481 747.437 -44.55)"
     stroke="#000"
     stroke-width=".625"
     fill="gold"
     id="path152" />
  <path
     stroke-linejoin="round"
     d="M343.17 258.06c-3.977 10.41.38 15.358-1.567 20.964-1.874 5.398-10.025 18.776-3.82 24.59 4.93.227-.853-7.377 9.01-21.456 4.576-6.595-1.195-10.77 3.626-23.707.448-1.106-6.623-2.03-7.25-.39z"
     stroke-opacity=".149"
     fill-rule="evenodd"
     transform="matrix(-.908 .861 -.8884 -.88 836.514 130.14)"
     stroke="#000"
     stroke-width=".625"
     fill="gold"
     id="path154" />
  <path
     stroke-linejoin="round"
     d="M343.17 258.06c-3.977 10.41.38 15.358-1.567 20.964-1.874 5.398-10.025 18.776-3.82 24.59 4.93.227-.853-7.377 9.01-21.456 4.576-6.595-1.195-10.77 3.626-23.707.448-1.106-6.623-2.03-7.25-.39z"
     stroke-opacity=".149"
     fill-rule="evenodd"
     transform="matrix(.889 -.8794 -.9075 -.8614 204.116 742.347)"
     stroke="#000"
     stroke-width=".625"
     fill="gold"
     id="path156" />
  <path
     stroke-linejoin="round"
     d="M343.17 258.06c-3.977 10.41.38 15.358-1.567 20.964-1.874 5.398-10.025 18.776-3.82 24.59 4.93.227-.853-7.377 9.01-21.456 4.576-6.595-1.195-10.77 3.626-23.707.448-1.106-6.623-2.03-7.25-.39z"
     stroke-opacity=".149"
     fill-rule="evenodd"
     transform="matrix(-.0073 1.231 -1.2703 -.007 601.612 -192.956)"
     stroke="#000"
     stroke-width=".625"
     fill="gold"
     id="path158" />
  <path
     stroke-linejoin="round"
     d="M342.97 258.16c-1.528 11.683-.62 47.577 3.037 46.14 4.05 1.306 4.583-35.162 4.212-45.945-.053-1.194-7.037-1.938-7.25-.195z"
     stroke-opacity=".149"
     fill-rule="evenodd"
     transform="matrix(-1.1653 .49 -.5057 -1.1292 835.352 319.092)"
     stroke="#000"
     stroke-width=".625"
     fill="gold"
     id="path160" />
  <path
     stroke-linejoin="round"
     d="M342.97 258.16c-1.528 11.683-.62 47.577 3.037 46.14 4.05 1.306 4.583-35.162 4.212-45.945-.053-1.194-7.037-1.938-7.25-.195z"
     stroke-opacity=".149"
     fill-rule="evenodd"
     transform="matrix(-.905 .864 -.8915 -.877 828.282 135.16)"
     stroke="#000"
     stroke-width=".625"
     fill="gold"
     id="path162" />
  <path
     stroke-linejoin="round"
     d="M342.97 258.16c-1.528 11.683-.62 47.577 3.037 46.14 4.05 1.306 4.583-35.162 4.212-45.945-.053-1.194-7.037-1.938-7.25-.195z"
     stroke-opacity=".149"
     fill-rule="evenodd"
     transform="matrix(-.4964 1.133 -1.1693 -.481 747.437 -44.55)"
     stroke="#000"
     stroke-width=".625"
     fill="gold"
     id="path164" />
  <path
     stroke-linejoin="round"
     d="M342.97 258.16c-1.528 11.683-.62 47.577 3.037 46.14 4.05 1.306 4.583-35.162 4.212-45.945-.053-1.194-7.037-1.938-7.25-.195z"
     stroke-opacity=".387"
     fill-rule="evenodd"
     transform="matrix(-1.2703 0 0 -1.231 759.526 511.997)"
     stroke="#000"
     stroke-width=".625"
     fill="gold"
     id="path166" />
  <path
     stroke-linejoin="round"
     d="M343.17 258.06c-3.977 10.41.38 15.358-1.567 20.964-1.874 5.398-10.025 18.776-3.82 24.59 4.93.227-.853-7.377 9.01-21.456 4.576-6.595-1.195-10.77 3.626-23.707.448-1.106-6.623-2.03-7.25-.39z"
     stroke-opacity=".387"
     fill-rule="evenodd"
     transform="matrix(0 1.231 1.2703 0 40.634 -194.91)"
     stroke="#000"
     stroke-width=".625"
     fill="gold"
     id="path168" />
  <path
     stroke-linejoin="round"
     d="M343.17 258.06c-3.977 10.41.38 15.358-1.567 20.964-1.874 5.398-10.025 18.776-3.82 24.59 4.93.227-.853-7.377 9.01-21.456 4.576-6.595-1.195-10.77 3.626-23.707.448-1.106-6.623-2.03-7.25-.39z"
     stroke-opacity=".387"
     fill-rule="evenodd"
     transform="matrix(-.8884 -.88 .908 -.861 434.918 742.67)"
     stroke="#000"
     stroke-width=".625"
     fill="gold"
     id="path170" />
  <path
     stroke-linejoin="round"
     d="M343.17 258.06c-3.977 10.41.38 15.358-1.567 20.964-1.874 5.398-10.025 18.776-3.82 24.59 4.93.227-.853-7.377 9.01-21.456 4.576-6.595-1.195-10.77 3.626-23.707.448-1.106-6.623-2.03-7.25-.39z"
     stroke-opacity=".387"
     fill-rule="evenodd"
     transform="matrix(.9075 .8614 .889 -.8794 -196.835 129.834)"
     stroke="#000"
     stroke-width=".625"
     fill="gold"
     id="path172" />
  <path
     stroke-linejoin="round"
     d="M343.17 258.06c-3.977 10.41.38 15.358-1.567 20.964-1.874 5.398-10.025 18.776-3.82 24.59 4.93.227-.853-7.377 9.01-21.456 4.576-6.595-1.195-10.77 3.626-23.707.448-1.106-6.623-2.03-7.25-.39z"
     stroke-opacity=".387"
     fill-rule="evenodd"
     transform="matrix(-1.2703 -.007 .0073 -1.231 768.322 515.032)"
     stroke="#000"
     stroke-width=".625"
     fill="gold"
     id="path174" />
  <path
     stroke-linejoin="round"
     d="M342.97 258.16c-1.528 11.683-.62 47.577 3.037 46.14 4.05 1.306 4.583-35.162 4.212-45.945-.053-1.194-7.037-1.938-7.25-.195z"
     stroke-opacity=".387"
     fill-rule="evenodd"
     transform="matrix(-.5057 -1.1292 1.1653 -.49 239.93 741.54)"
     stroke="#000"
     stroke-width=".625"
     fill="gold"
     id="path176" />
  <path
     stroke-linejoin="round"
     d="M342.97 258.16c-1.528 11.683-.62 47.577 3.037 46.14 4.05 1.306 4.583-35.162 4.212-45.945-.053-1.194-7.037-1.938-7.25-.195z"
     stroke-opacity=".387"
     fill-rule="evenodd"
     transform="matrix(-.8915 -.877 .905 -.864 429.72 734.68)"
     stroke="#000"
     stroke-width=".625"
     fill="gold"
     id="path178" />
  <path
     stroke-linejoin="round"
     d="M342.97 258.16c-1.528 11.683-.62 47.577 3.037 46.14 4.05 1.306 4.583-35.162 4.212-45.945-.053-1.194-7.037-1.938-7.25-.195z"
     stroke-opacity=".387"
     fill-rule="evenodd"
     transform="matrix(-1.1693 -.481 .4964 -1.133 615.186 656.337)"
     stroke="#000"
     stroke-width=".625"
     fill="gold"
     id="path180" />
  <path
     stroke-linejoin="round"
     d="M343.17 258.06c-3.977 10.41.38 15.358-1.567 20.964-1.874 5.398-10.025 18.776-3.82 24.59 4.93.227-.853-7.377 9.01-21.456 4.576-6.595-1.195-10.77 3.626-23.707.448-1.106-6.623-2.03-7.25-.39z"
     stroke-opacity=".149"
     fill-rule="evenodd"
     transform="matrix(-.8884 -.88 .908 -.861 434.918 742.67)"
     stroke="#000"
     stroke-width=".625"
     fill="gold"
     id="path182" />
  <path
     stroke-linejoin="round"
     d="M343.17 258.06c-3.977 10.41.38 15.358-1.567 20.964-1.874 5.398-10.025 18.776-3.82 24.59 4.93.227-.853-7.377 9.01-21.456 4.576-6.595-1.195-10.77 3.626-23.707.448-1.106-6.623-2.03-7.25-.39z"
     stroke-opacity=".149"
     fill-rule="evenodd"
     transform="matrix(.9075 .8614 .889 -.8794 -196.835 129.834)"
     stroke="#000"
     stroke-width=".625"
     fill="gold"
     id="path184" />
  <path
     stroke-linejoin="round"
     d="M343.17 258.06c-3.977 10.41.38 15.358-1.567 20.964-1.874 5.398-10.025 18.776-3.82 24.59 4.93.227-.853-7.377 9.01-21.456 4.576-6.595-1.195-10.77 3.626-23.707.448-1.106-6.623-2.03-7.25-.39z"
     stroke-opacity=".149"
     fill-rule="evenodd"
     transform="matrix(-1.2703 -.007 .0073 -1.231 768.322 515.032)"
     stroke="#000"
     stroke-width=".625"
     fill="gold"
     id="path186" />
  <path
     stroke-linejoin="round"
     d="M342.97 258.16c-1.528 11.683-.62 47.577 3.037 46.14 4.05 1.306 4.583-35.162 4.212-45.945-.053-1.194-7.037-1.938-7.25-.195z"
     stroke-opacity=".149"
     fill-rule="evenodd"
     transform="matrix(-.5057 -1.1292 1.1653 -.49 239.93 741.54)"
     stroke="#000"
     stroke-width=".625"
     fill="gold"
     id="path188" />
  <path
     stroke-linejoin="round"
     d="M342.97 258.16c-1.528 11.683-.62 47.577 3.037 46.14 4.05 1.306 4.583-35.162 4.212-45.945-.053-1.194-7.037-1.938-7.25-.195z"
     stroke-opacity=".149"
     fill-rule="evenodd"
     transform="matrix(-.8915 -.877 .905 -.864 429.72 734.68)"
     stroke="#000"
     stroke-width=".625"
     fill="gold"
     id="path190" />
  <path
     stroke-linejoin="round"
     d="M342.97 258.16c-1.528 11.683-.62 47.577 3.037 46.14 4.05 1.306 4.583-35.162 4.212-45.945-.053-1.194-7.037-1.938-7.25-.195z"
     stroke-opacity=".149"
     fill-rule="evenodd"
     transform="matrix(-1.1693 -.481 .4964 -1.133 615.186 656.337)"
     stroke="#000"
     stroke-width=".625"
     fill="gold"
     id="path192" />
  <path
     d="M328.14 202.55h-3.15"
     stroke-opacity=".171"
     transform="matrix(1.2703 0 0 1.231 -130.216 -27.957)"
     stroke="#000"
     stroke-width="1pt"
     fill="none"
     id="path194" />
  <path
     d="M328.14 202.55h-3.15"
     stroke-opacity=".171"
     transform="matrix(1.2703 0 0 1.231 -131.217 -25.465)"
     stroke="#000"
     stroke-width="1pt"
     fill="none"
     id="path196" />
  <path
     d="M328.14 202.55h-3.15"
     stroke-opacity=".171"
     transform="matrix(1.4064 0 0 1.231 -176.307 -23.11)"
     stroke="#000"
     stroke-width="1pt"
     fill="none"
     id="path198" />
  <path
     d="M328.14 202.55h-3.15"
     stroke-opacity=".171"
     transform="matrix(1.4064 0 0 1.231 -177.588 -20.892)"
     stroke="#000"
     stroke-width="1pt"
     fill="none"
     id="path200" />
  <path
     d="M328.14 202.55h-3.15"
     stroke-opacity=".171"
     transform="matrix(1.6786 0 0 1.231 -267.194 -18.537)"
     stroke="#000"
     stroke-width="1pt"
     fill="none"
     id="path202" />
  <path
     d="M328.14 202.55h-3.15"
     stroke-opacity=".171"
     transform="matrix(1.86 0 0 1.231 -326.593 -16.183)"
     stroke="#000"
     stroke-width="1pt"
     fill="none"
     id="path204" />
  <path
     d="M328.14 202.55h-3.15"
     stroke-opacity=".171"
     transform="matrix(1.7693 0 0 1.231 -297.676 -13.552)"
     stroke="#000"
     stroke-width="1pt"
     fill="none"
     id="path206" />
  <path
     d="M328.14 202.55h-3.15"
     stroke-opacity=".171"
     transform="matrix(1.724 0 0 1.231 -282.503 -10.92)"
     stroke="#000"
     stroke-width="1pt"
     fill="none"
     id="path208" />
  <path
     d="M328.14 202.55h-3.15"
     stroke-opacity=".171"
     transform="matrix(1.7693 0 0 1.231 -297.39 -8.426)"
     stroke="#000"
     stroke-width="1pt"
     fill="none"
     id="path210" />
  <path
     d="M328.14 202.55h-3.15"
     stroke-opacity=".171"
     transform="matrix(2.223 0 0 1.231 -444.825 -5.517)"
     stroke="#000"
     stroke-width="1pt"
     fill="none"
     id="path212" />
  <path
     d="M328.14 202.55h-3.15"
     stroke-opacity=".171"
     transform="matrix(1.9053 0 0 1.231 -341.188 -2.192)"
     stroke="#000"
     stroke-width="1pt"
     fill="none"
     id="path214" />
  <path
     d="M328.14 202.55h-3.15"
     stroke-opacity=".078"
     transform="matrix(1.9053 0 0 1.231 -341.045 .162)"
     stroke="#000"
     stroke-width="1pt"
     fill="none"
     id="path216" />
  <path
     d="M328.14 202.55h-3.15"
     stroke-opacity=".078"
     transform="matrix(1.9053 0 0 1.231 -340.044 3.348)"
     stroke="#000"
     stroke-width="1pt"
     fill="none"
     id="path218" />
  <path
     d="M328.14 202.55h-3.15"
     stroke-opacity=".078"
     transform="matrix(1.9053 0 0 1.231 -339.902 6.12)"
     stroke="#000"
     stroke-width="1pt"
     fill="none"
     id="path220" />
  <path
     d="M328.14 202.55h-3.15"
     stroke-opacity=".078"
     transform="matrix(1.9053 0 0 1.231 -338.186 9.167)"
     stroke="#000"
     stroke-width="1pt"
     fill="none"
     id="path222" />
  <path
     d="M328.14 202.55h-3.15"
     stroke-opacity=".078"
     transform="matrix(1.9053 0 0 1.231 -336.47 11.66)"
     stroke="#000"
     stroke-width="1pt"
     fill="none"
     id="path224" />
  <path
     d="M328.14 202.55h-3.15"
     stroke-opacity=".078"
     transform="matrix(1.9053 0 0 1.231 -334.9 14.57)"
     stroke="#000"
     stroke-width="1pt"
     fill="none"
     id="path226" />
  <path
     d="M328.14 202.55h-3.15"
     stroke-opacity=".078"
     transform="matrix(1.9053 0 0 1.231 -333.04 17.34)"
     stroke="#000"
     stroke-width="1pt"
     fill="none"
     id="path228" />
  <path
     d="M328.14 202.55h-3.15"
     stroke-opacity=".078"
     transform="matrix(1.9053 0 0 1.231 -331.753 19.97)"
     stroke="#000"
     stroke-width="1pt"
     fill="none"
     id="path230" />
  <path
     d="M328.14 202.55h-3.15"
     stroke-opacity=".078"
     transform="matrix(1.9053 0 0 1.231 -329.038 23.165)"
     stroke="#000"
     stroke-width="1pt"
     fill="none"
     id="path232" />
  <path
     d="M328.14 202.55h-3.15"
     stroke-opacity=".078"
     transform="matrix(1.225 0 0 1.231 -104.597 26.07)"
     stroke="#000"
     stroke-width="1pt"
     fill="none"
     id="path234" />
  <path
     d="M328.14 202.55h-3.15"
     stroke-opacity=".078"
     transform="matrix(1.9053 0 0 1.231 -341.045 .162)"
     stroke="#000"
     stroke-width="1pt"
     fill="none"
     id="path236" />
  <path
     d="M328.14 202.55h-3.15"
     stroke-opacity=".078"
     transform="matrix(1.9053 0 0 1.231 -340.044 3.348)"
     stroke="#000"
     stroke-width="1pt"
     fill="none"
     id="path238" />
  <path
     d="M328.14 202.55h-3.15"
     stroke-opacity=".078"
     transform="matrix(1.9053 0 0 1.231 -339.902 6.12)"
     stroke="#000"
     stroke-width="1pt"
     fill="none"
     id="path240" />
  <path
     d="M328.14 202.55h-3.15"
     stroke-opacity=".078"
     transform="matrix(1.9053 0 0 1.231 -338.186 9.167)"
     stroke="#000"
     stroke-width="1pt"
     fill="none"
     id="path242" />
  <path
     d="M328.14 202.55h-3.15"
     stroke-opacity=".078"
     transform="matrix(1.9053 0 0 1.231 -336.47 11.66)"
     stroke="#000"
     stroke-width="1pt"
     fill="none"
     id="path244" />
  <path
     d="M328.14 202.55h-3.15"
     stroke-opacity=".078"
     transform="matrix(1.9053 0 0 1.231 -334.9 14.57)"
     stroke="#000"
     stroke-width="1pt"
     fill="none"
     id="path246" />
  <path
     d="M328.14 202.55h-3.15"
     stroke-opacity=".078"
     transform="matrix(1.9053 0 0 1.231 -333.04 17.34)"
     stroke="#000"
     stroke-width="1pt"
     fill="none"
     id="path248" />
  <path
     d="M328.14 202.55h-3.15"
     stroke-opacity=".078"
     transform="matrix(1.9053 0 0 1.231 -331.753 19.97)"
     stroke="#000"
     stroke-width="1pt"
     fill="none"
     id="path250" />
  <path
     d="M328.14 202.55h-3.15"
     stroke-opacity=".078"
     transform="matrix(1.9053 0 0 1.231 -329.038 23.165)"
     stroke="#000"
     stroke-width="1pt"
     fill="none"
     id="path252" />
  <path
     d="M328.14 202.55h-3.15"
     stroke-opacity=".078"
     transform="matrix(1.225 0 0 1.231 -103.975 25.828)"
     stroke="#000"
     stroke-width="1pt"
     fill="none"
     id="path254" />
  <path
     d="M328.14 202.55h-3.15"
     stroke-opacity=".134"
     fill-rule="evenodd"
     fill-opacity=".867"
     transform="matrix(-1.2703 0 0 1.231 769.71 -28.594)"
     stroke="#000"
     stroke-width="1pt"
     fill="#00699d"
     id="path256" />
  <path
     d="M328.14 202.55h-3.15"
     stroke-opacity=".134"
     fill-rule="evenodd"
     fill-opacity=".867"
     transform="matrix(-1.2703 0 0 1.231 770.71 -26.1)"
     stroke="#000"
     stroke-width="1pt"
     fill="#00699d"
     id="path258" />
  <path
     d="M328.14 202.55h-3.15"
     stroke-opacity=".134"
     fill-rule="evenodd"
     fill-opacity=".867"
     transform="matrix(-1.4064 0 0 1.231 815.79 -23.746)"
     stroke="#000"
     stroke-width="1pt"
     fill="#00699d"
     id="path260" />
  <path
     d="M328.14 202.55h-3.15"
     stroke-opacity=".134"
     fill-rule="evenodd"
     fill-opacity=".867"
     transform="matrix(-1.4064 0 0 1.231 817.08 -21.53)"
     stroke="#000"
     stroke-width="1pt"
     fill="#00699d"
     id="path262" />
  <path
     d="M328.14 202.55h-3.15"
     stroke-opacity=".134"
     fill-rule="evenodd"
     fill-opacity=".867"
     transform="matrix(-1.6786 0 0 1.231 906.69 -19.175)"
     stroke="#000"
     stroke-width="1pt"
     fill="#00699d"
     id="path264" />
  <path
     d="M328.14 202.55h-3.15"
     stroke-opacity=".134"
     fill-rule="evenodd"
     fill-opacity=".867"
     transform="matrix(-1.86 0 0 1.231 966.086 -16.82)"
     stroke="#000"
     stroke-width="1pt"
     fill="#00699d"
     id="path266" />
  <path
     d="M328.14 202.55h-3.15"
     stroke-opacity=".134"
     fill-rule="evenodd"
     fill-opacity=".867"
     transform="matrix(-1.7693 0 0 1.231 937.163 -14.188)"
     stroke="#000"
     stroke-width="1pt"
     fill="#00699d"
     id="path268" />
  <path
     d="M328.14 202.55h-3.15"
     stroke-opacity=".134"
     fill-rule="evenodd"
     fill-opacity=".867"
     transform="matrix(-1.724 0 0 1.231 921.99 -11.555)"
     stroke="#000"
     stroke-width="1pt"
     fill="#00699d"
     id="path270" />
  <path
     d="M328.14 202.55h-3.15"
     stroke-opacity=".134"
     fill-rule="evenodd"
     fill-opacity=".867"
     transform="matrix(-1.7693 0 0 1.231 936.888 -9.062)"
     stroke="#000"
     stroke-width="1pt"
     fill="#00699d"
     id="path272" />
  <path
     d="M328.14 202.55h-3.15"
     stroke-opacity=".134"
     fill-rule="evenodd"
     fill-opacity=".867"
     transform="matrix(-2.223 0 0 1.231 1084.31 -6.153)"
     stroke="#000"
     stroke-width="1pt"
     fill="#00699d"
     id="path274" />
  <path
     d="M328.14 202.55h-3.15"
     stroke-opacity=".134"
     fill-rule="evenodd"
     fill-opacity=".867"
     transform="matrix(-1.9053 0 0 1.231 980.676 -2.828)"
     stroke="#000"
     stroke-width="1pt"
     fill="#00699d"
     id="path276" />
  <path
     d="M328.14 202.55h-3.15"
     stroke-opacity=".063"
     fill-rule="evenodd"
     fill-opacity=".867"
     transform="matrix(-1.9053 0 0 1.231 980.53 -.474)"
     stroke="#000"
     stroke-width="1pt"
     fill="#00699d"
     id="path278" />
  <path
     d="M328.14 202.55h-3.15"
     stroke-opacity=".063"
     fill-rule="evenodd"
     fill-opacity=".867"
     transform="matrix(-1.9053 0 0 1.231 979.53 2.712)"
     stroke="#000"
     stroke-width="1pt"
     fill="#00699d"
     id="path280" />
  <path
     d="M328.14 202.55h-3.15"
     stroke-opacity=".063"
     fill-rule="evenodd"
     fill-opacity=".867"
     transform="matrix(-1.9053 0 0 1.231 979.385 5.482)"
     stroke="#000"
     stroke-width="1pt"
     fill="#00699d"
     id="path282" />
  <path
     d="M328.14 202.55h-3.15"
     stroke-opacity=".063"
     fill-rule="evenodd"
     fill-opacity=".867"
     transform="matrix(-1.9053 0 0 1.231 977.674 8.53)"
     stroke="#000"
     stroke-width="1pt"
     fill="#00699d"
     id="path284" />
  <path
     d="M328.14 202.55h-3.15"
     stroke-opacity=".063"
     fill-rule="evenodd"
     fill-opacity=".867"
     transform="matrix(-1.9053 0 0 1.231 975.963 11.025)"
     stroke="#000"
     stroke-width="1pt"
     fill="#00699d"
     id="path286" />
  <path
     d="M328.14 202.55h-3.15"
     stroke-opacity=".063"
     fill-rule="evenodd"
     fill-opacity=".867"
     transform="matrix(-1.9053 0 0 1.231 974.382 13.933)"
     stroke="#000"
     stroke-width="1pt"
     fill="#00699d"
     id="path288" />
  <path
     d="M328.14 202.55h-3.15"
     stroke-opacity=".063"
     fill-rule="evenodd"
     fill-opacity=".867"
     transform="matrix(-1.9053 0 0 1.231 972.525 16.71)"
     stroke="#000"
     stroke-width="1pt"
     fill="#00699d"
     id="path290" />
  <path
     d="M328.14 202.55h-3.15"
     stroke-opacity=".063"
     fill-rule="evenodd"
     fill-opacity=".867"
     transform="matrix(-1.9053 0 0 1.231 971.25 19.34)"
     stroke="#000"
     stroke-width="1pt"
     fill="#00699d"
     id="path292" />
  <path
     d="M328.14 202.55h-3.15"
     stroke-opacity=".063"
     fill-rule="evenodd"
     fill-opacity=".867"
     transform="matrix(-1.9053 0 0 1.231 968.523 22.52)"
     stroke="#000"
     stroke-width="1pt"
     fill="#00699d"
     id="path294" />
  <path
     d="M328.14 202.55h-3.15"
     stroke-opacity=".063"
     fill-rule="evenodd"
     fill-opacity=".867"
     transform="matrix(-1.225 0 0 1.231 744.08 25.425)"
     stroke="#000"
     stroke-width="1pt"
     fill="#00699d"
     id="path296" />
  <path
     d="M328.14 202.55h-3.15"
     stroke-opacity=".063"
     transform="matrix(-1.9053 0 0 1.231 980.53 -.474)"
     stroke="#000"
     stroke-width="1pt"
     fill="none"
     id="path298" />
  <path
     d="M328.14 202.55h-3.15"
     stroke-opacity=".063"
     transform="matrix(-1.9053 0 0 1.231 979.53 2.712)"
     stroke="#000"
     stroke-width="1pt"
     fill="none"
     id="path300" />
  <path
     d="M328.14 202.55h-3.15"
     stroke-opacity=".063"
     transform="matrix(-1.9053 0 0 1.231 979.385 5.482)"
     stroke="#000"
     stroke-width="1pt"
     fill="none"
     id="path302" />
  <path
     d="M328.14 202.55h-3.15"
     stroke-opacity=".063"
     transform="matrix(-1.9053 0 0 1.231 977.674 8.53)"
     stroke="#000"
     stroke-width="1pt"
     fill="none"
     id="path304" />
  <path
     d="M328.14 202.55h-3.15"
     stroke-opacity=".063"
     transform="matrix(-1.9053 0 0 1.231 975.963 11.025)"
     stroke="#000"
     stroke-width="1pt"
     fill="none"
     id="path306" />
  <path
     d="M328.14 202.55h-3.15"
     stroke-opacity=".063"
     transform="matrix(-1.9053 0 0 1.231 974.382 13.933)"
     stroke="#000"
     stroke-width="1pt"
     fill="none"
     id="path308" />
  <path
     d="M328.14 202.55h-3.15"
     stroke-opacity=".063"
     transform="matrix(-1.9053 0 0 1.231 972.525 16.71)"
     stroke="#000"
     stroke-width="1pt"
     fill="none"
     id="path310" />
  <path
     d="M328.14 202.55h-3.15"
     stroke-opacity=".063"
     transform="matrix(-1.9053 0 0 1.231 971.25 19.34)"
     stroke="#000"
     stroke-width="1pt"
     fill="none"
     id="path312" />
  <path
     d="M328.14 202.55h-3.15"
     stroke-opacity=".063"
     transform="matrix(-1.9053 0 0 1.231 968.523 22.52)"
     stroke="#000"
     stroke-width="1pt"
     fill="none"
     id="path314" />
  <path
     d="M328.14 202.55h-3.15"
     stroke-opacity=".063"
     transform="matrix(-1.225 0 0 1.231 744.08 25.425)"
     stroke="#000"
     stroke-width="1pt"
     fill="none"
     id="path316" />
  <path
     stroke-linejoin="round"
     d="M330.84 211.83c7.525-4.83 17.464-2.31 21.63.315-6.09-1.155-6.196-1.68-10.606-1.785-3.115.106-7.7-.21-11.024 1.47z"
     stroke-opacity=".387"
     fill-rule="evenodd"
     transform="matrix(-1.2703 0 0 1.231 770.29 -29.23)"
     stroke="#000"
     stroke-width=".625"
     fill="#f0bf00"
     id="path318" />
  <path
     d="M348.06 211.3c-3.675 7.665-10.08 7.77-14.594-.42"
     stroke-opacity=".387"
     transform="matrix(1.2703 0 0 1.231 -97.703 -29.548)"
     stroke="#000"
     stroke-width=".625"
     fill="none"
     id="path320" />
  <path
     d="M341.925 233.537c-1.43 1.45-4.93 2.31-7.815 1.924s-4.067-1.874-2.637-3.324c1.43-1.45 4.928-2.31 7.815-1.924s4.067 1.876 2.637 3.325z"
     fill-rule="evenodd"
     fill-opacity=".368"
     id="path322" />
  <path
     d="M335.073 231.518c.142.352-.298.82-.985 1.045s-1.358.12-1.5-.232c-.144-.35.297-.82.983-1.044s1.36-.12 1.503.232z"
     fill-rule="evenodd"
     fill="gold"
     id="path324" />
</svg>
