<?xml version="1.0" encoding="UTF-8" standalone="no"?>
<svg
   xmlns:dc="http://purl.org/dc/elements/1.1/"
   xmlns:cc="http://creativecommons.org/ns#"
   xmlns:rdf="http://www.w3.org/1999/02/22-rdf-syntax-ns#"
   xmlns:svg="http://www.w3.org/2000/svg"
   xmlns="http://www.w3.org/2000/svg"
   xmlns:sodipodi="http://sodipodi.sourceforge.net/DTD/sodipodi-0.dtd"
   xmlns:inkscape="http://www.inkscape.org/namespaces/inkscape"
   height="480"
   width="640"
   version="1.1"
   id="svg788"
   sodipodi:docname="aw.svg"
   inkscape:version="0.92.2 2405546, 2018-03-11">
  <title
     id="title1299">Bandiere del Mondo</title>
  <metadata
     id="metadata792">
    <rdf:RDF>
      <cc:Work
         rdf:about="">
        <dc:format>image/svg+xml</dc:format>
        <dc:type
           rdf:resource="http://purl.org/dc/dcmitype/StillImage" />
        <dc:title>Bandiere del Mondo</dc:title>
        <dc:date>2016</dc:date>
        <dc:creator>
          <cc:Agent>
            <dc:title>Cristian Pozzessere  &lt; ilnanny &gt;</dc:title>
          </cc:Agent>
        </dc:creator>
        <dc:description>Playing with Inkscape on Gnu/Linux O. S.</dc:description>
        <dc:contributor>
          <cc:Agent>
            <dc:title>In the night, alone like a dog.</dc:title>
          </cc:Agent>
        </dc:contributor>
      </cc:Work>
    </rdf:RDF>
  </metadata>
  <sodipodi:namedview
     pagecolor="#ffffff"
     bordercolor="#666666"
     borderopacity="1"
     objecttolerance="10"
     gridtolerance="10"
     guidetolerance="10"
     inkscape:pageopacity="0"
     inkscape:pageshadow="2"
     inkscape:window-width="640"
     inkscape:window-height="480"
     id="namedview790"
     showgrid="false"
     inkscape:zoom="0.59641304"
     inkscape:cx="320"
     inkscape:cy="246.53909"
     inkscape:current-layer="svg788" />
  <defs
     id="defs430">
    <clipPath
       id="a">
      <path
         fill-opacity=".67"
         d="M0 0h288v216H0z"
         id="path427" />
    </clipPath>
  </defs>
  <g
     transform="scale(2.2222)"
     clip-path="url(#a)"
     id="g436">
    <path
       fill="#39c"
       d="M0 0v216h324V0H0z"
       id="path432" />
    <path
       fill="#ff0"
       d="M0 144v12h324v-12H0zm0 24v12h324v-12H0z"
       id="path434" />
  </g>
  <path
     fill="#9cc"
     d="M142.647 28.067l2.952 2.952-2.953-2.953zm-2.952 5.903l2.952 2.953-2.952-2.952m5.904 0l2.95 2.953-2.95-2.952z"
     id="path438" />
  <path
     fill="#ccf"
     d="M139.695 36.923l2.952 2.952-2.952-2.952m5.904 0l2.95 2.952-2.95-2.952z"
     id="path440" />
  <path
     fill="#6cc"
     d="M136.743 42.827l2.952 2.952-2.952-2.953z"
     id="path442" />
  <path
     fill="#c66"
     d="M142.647 42.827l2.952 2.952-2.953-2.953z"
     id="path444" />
  <path
     fill="#6cc"
     d="M148.55 42.827l2.953 2.952-2.952-2.953z"
     id="path446" />
  <path
     fill="#ccf"
     d="M136.743 45.78l2.952 2.95-2.952-2.95zm11.807 0l2.953 2.95-2.952-2.95z"
     id="path448" />
  <path
     fill="#fcc"
     d="M139.695 48.73l2.952 2.954-2.952-2.953m5.904 0l2.95 2.954-2.95-2.953z"
     id="path450" />
  <path
     fill="#6cc"
     d="M133.79 51.684l2.953 2.952-2.952-2.952z"
     id="path452" />
  <path
     d="M142.16 34.065l-20.695 78.45-78.68 21.367 78.453 20.476 20.922 78.45 20.918-78.45 78.452-20.922-78.452-20.922-20.918-78.45z"
     stroke="#fff"
     stroke-width="3.69"
     fill="#c00"
     id="path454" />
  <path
     fill="#6cc"
     d="M151.503 51.684l2.952 2.952-2.952-2.952z"
     id="path456" />
  <path
     fill="#9cf"
     d="M133.79 54.636l2.953 2.952-2.952-2.952m17.713 0l2.952 2.952-2.952-2.952z"
     id="path458" />
  <path
     fill="#fcc"
     d="M136.743 57.588l2.952 2.952-2.952-2.952m11.808 0l2.953 2.952-2.952-2.952z"
     id="path460" />
  <path
     fill="#69c"
     d="M130.838 60.54l2.953 2.952-2.952-2.952z"
     id="path462" />
  <path
     fill="#c33"
     d="M137.726 62.51l.984 1.967-.984-1.968m11.808 0l.984 1.967-.984-1.968z"
     id="path464" />
  <path
     fill="#69c"
     d="M154.455 60.54l2.952 2.952-2.952-2.952z"
     id="path466" />
  <path
     fill="#9cf"
     d="M130.838 63.492l2.953 2.952-2.952-2.952m23.617 0l2.952 2.952-2.952-2.952z"
     id="path468" />
  <path
     fill="#fcc"
     d="M133.79 66.444l2.953 2.952-2.952-2.952m17.713 0l2.952 2.952-2.952-2.952z"
     id="path470" />
  <path
     fill="#69c"
     d="M127.886 69.396l2.952 2.952-2.952-2.952zm29.521 0l2.952 2.952-2.953-2.952z"
     id="path472" />
  <path
     fill="#9cc"
     d="M127.886 72.348l2.952 2.952-2.952-2.952m29.52 0l2.953 2.952-2.953-2.952z"
     id="path474" />
  <path
     fill="#cff"
     d="M127.886 75.3l2.952 2.952-2.952-2.952m29.52 0l2.953 2.952-2.953-2.952z"
     id="path476" />
  <path
     fill="#69c"
     d="M124.934 78.252l2.952 2.952-2.952-2.952z"
     id="path478" />
  <path
     fill="#fcc"
     d="M130.838 78.252l2.953 2.952-2.952-2.952m23.617 0l2.952 2.952-2.952-2.952z"
     id="path480" />
  <path
     fill="#69c"
     d="M160.36 78.252l2.95 2.952-2.95-2.952z"
     id="path482" />
  <path
     fill="#9cc"
     d="M124.934 81.204l2.952 2.953-2.952-2.952z"
     id="path484" />
  <path
     fill="#c33"
     d="M131.82 83.174l.986 1.967-.985-1.966m23.618 0l.984 1.967-.984-1.966z"
     id="path486" />
  <path
     fill="#9cc"
     d="M160.36 81.204l2.95 2.953-2.95-2.952z"
     id="path488" />
  <path
     fill="#cff"
     d="M124.934 84.157l2.952 2.952-2.952-2.953m35.425 0l2.95 2.952-2.95-2.953z"
     id="path490" />
  <path
     fill="#fcc"
     d="M127.886 87.11l2.952 2.95-2.952-2.95m29.52 0l2.953 2.95-2.953-2.95z"
     id="path492" />
  <path
     fill="#9cc"
     d="M121.982 90.06l2.952 2.953-2.952-2.952z"
     id="path494" />
  <path
     fill="#c33"
     d="M128.87 92.03l.984 1.968-.985-1.968m29.52 0l.985 1.968-.985-1.968z"
     id="path496" />
  <path
     fill="#9cc"
     d="M163.31 90.06l2.954 2.953-2.953-2.952z"
     id="path498" />
  <path
     fill="#ccf"
     d="M121.982 93.013l2.952 2.952-2.952-2.952m41.33 0l2.952 2.952-2.953-2.952z"
     id="path500" />
  <path
     fill="#fcc"
     d="M124.934 95.965l2.952 2.952-2.952-2.952m35.425 0l2.95 2.952-2.95-2.952z"
     id="path502" />
  <path
     fill="#9cc"
     d="M119.03 98.917l2.952 2.952-2.952-2.953z"
     id="path504" />
  <path
     fill="#c33"
     d="M125.917 100.886l.984 1.968-.983-1.968m35.425 0l.985 1.968-.985-1.968z"
     id="path506" />
  <path
     fill="#9cc"
     d="M166.264 98.917l2.952 2.952-2.952-2.953z"
     id="path508" />
  <path
     fill="#ccf"
     d="M119.03 101.87l2.952 2.95-2.952-2.95m47.234 0l2.952 2.95-2.952-2.95z"
     id="path510" />
  <path
     fill="#fcc"
     d="M121.982 104.82l2.952 2.953-2.952-2.952m41.33 0l2.952 2.953-2.953-2.952z"
     id="path512" />
  <path
     fill="#9cc"
     d="M116.078 107.773l2.952 2.952-2.952-2.952z"
     id="path514" />
  <path
     fill="#c33"
     d="M121.982 107.773l2.952 2.952-2.952-2.952m41.33 0l2.952 2.952-2.953-2.952z"
     id="path516" />
  <path
     fill="#9cc"
     d="M169.216 107.773l2.952 2.952-2.952-2.952m-61.994 2.952l2.952 2.953-2.952-2.952z"
     id="path518" />
  <path
     fill="#ccf"
     d="M110.174 110.725l2.952 2.953-2.952-2.952m64.946 0l2.952 2.952-2.952-2.952z"
     id="path520" />
  <path
     fill="#9cc"
     d="M178.072 110.725l2.952 2.953-2.952-2.952m-79.707 2.952l2.952 2.952-2.952-2.952z"
     id="path522" />
  <path
     fill="#ccf"
     d="M101.317 113.678l2.953 2.952-2.953-2.952z"
     id="path524" />
  <path
     fill="#fcc"
     d="M113.126 113.678l2.952 2.952-2.952-2.952z"
     id="path526" />
  <path
     fill="#c33"
     d="M116.078 113.678l2.952 2.952-2.952-2.952m53.138 0l2.952 2.952-2.952-2.952z"
     id="path528" />
  <path
     fill="#fcc"
     d="M172.168 113.678l2.952 2.952-2.952-2.952z"
     id="path530" />
  <path
     fill="#ccf"
     d="M183.976 113.678l2.952 2.952-2.952-2.952z"
     id="path532" />
  <path
     fill="#9cc"
     d="M186.928 113.678l2.952 2.952-2.952-2.952z"
     id="path534" />
  <path
     fill="#69c"
     d="M86.557 116.63l2.952 2.952-2.953-2.952z"
     id="path536" />
  <path
     fill="#9cc"
     d="M89.51 116.63l2.95 2.952-2.95-2.952z"
     id="path538" />
  <path
     fill="#cff"
     d="M92.46 116.63l2.953 2.952-2.952-2.952z"
     id="path540" />
  <path
     fill="#fcc"
     d="M104.27 116.63l2.952 2.952-2.952-2.952z"
     id="path542" />
  <path
     fill="#c33"
     d="M109.19 117.613l1.97.984-1.97-.984m67.9 0l1.967.984-1.968-.984z"
     id="path544" />
  <path
     fill="#fcc"
     d="M181.024 116.63l2.952 2.952-2.952-2.952z"
     id="path546" />
  <path
     fill="#cff"
     d="M192.833 116.63l2.952 2.952-2.952-2.952z"
     id="path548" />
  <path
     fill="#9cc"
     d="M195.785 116.63l2.952 2.952-2.952-2.952z"
     id="path550" />
  <path
     fill="#69c"
     d="M198.737 116.63l2.952 2.952-2.953-2.952M77.7 119.582l2.953 2.952-2.952-2.952z"
     id="path552" />
  <path
     fill="#9cc"
     d="M80.653 119.582l2.952 2.952-2.952-2.952z"
     id="path554" />
  <path
     fill="#cff"
     d="M83.605 119.582l2.952 2.952-2.952-2.952z"
     id="path556" />
  <path
     fill="#fcc"
     d="M95.413 119.582l2.952 2.952-2.952-2.952z"
     id="path558" />
  <path
     fill="#c33"
     d="M100.334 120.565l1.968.984-1.968-.985m85.61 0l1.97.984-1.97-.985z"
     id="path560" />
  <path
     fill="#fcc"
     d="M189.88 119.582l2.953 2.952-2.953-2.952z"
     id="path562" />
  <path
     fill="#cff"
     d="M201.69 119.582l2.95 2.952-2.95-2.952z"
     id="path564" />
  <path
     fill="#9cc"
     d="M204.64 119.582l2.953 2.952-2.952-2.952z"
     id="path566" />
  <path
     fill="#69c"
     d="M207.593 119.582l2.952 2.952-2.952-2.952m-138.75 2.952l2.953 2.952-2.952-2.952z"
     id="path568" />
  <path
     fill="#9cf"
     d="M71.796 122.534l2.952 2.952-2.952-2.952z"
     id="path570" />
  <path
     fill="#fcc"
     d="M86.557 122.534l2.952 2.952-2.953-2.952z"
     id="path572" />
  <path
     fill="#c33"
     d="M91.478 123.517l1.968.984-1.968-.983m103.324 0l1.967.984-1.968-.983z"
     id="path574" />
  <path
     fill="#fcc"
     d="M198.737 122.534l2.952 2.952-2.953-2.952z"
     id="path576" />
  <path
     fill="#9cf"
     d="M213.497 122.534l2.952 2.952-2.953-2.952z"
     id="path578" />
  <path
     fill="#69c"
     d="M216.45 122.534l2.95 2.952-2.95-2.952z"
     id="path580" />
  <path
     fill="#6cc"
     d="M59.988 125.486l2.952 2.952-2.952-2.952z"
     id="path582" />
  <path
     fill="#9cf"
     d="M62.94 125.486l2.952 2.952-2.952-2.952z"
     id="path584" />
  <path
     fill="#fcc"
     d="M74.75 125.486l2.95 2.952-2.95-2.952zm135.795 0l2.952 2.952-2.952-2.952z"
     id="path586" />
  <path
     fill="#9cf"
     d="M222.353 125.486l2.953 2.952-2.953-2.952z"
     id="path588" />
  <path
     fill="#6cc"
     d="M225.306 125.486l2.952 2.952-2.952-2.952m-174.174 2.952l2.952 2.952-2.952-2.952z"
     id="path590" />
  <path
     fill="#ccf"
     d="M54.084 128.438l2.952 2.952-2.952-2.952z"
     id="path592" />
  <path
     fill="#fcc"
     d="M65.892 128.438l2.952 2.952-2.952-2.952z"
     id="path594" />
  <path
     fill="#c33"
     d="M70.813 129.42l1.968.985-1.967-.984m144.653 0l1.968.985-1.968-.984z"
     id="path596" />
  <path
     fill="#fcc"
     d="M219.4 128.438l2.954 2.952-2.953-2.952z"
     id="path598" />
  <path
     fill="#ccf"
     d="M231.21 128.438l2.952 2.952-2.952-2.952z"
     id="path600" />
  <path
     fill="#6cc"
     d="M234.162 128.438l2.952 2.952-2.952-2.952z"
     id="path602" />
  <path
     fill="#9cc"
     d="M42.275 131.39l2.952 2.952-2.952-2.952z"
     id="path604" />
  <path
     fill="#ccf"
     d="M45.227 131.39l2.953 2.952-2.952-2.952z"
     id="path606" />
  <path
     fill="#fcc"
     d="M57.036 131.39l2.952 2.952-2.952-2.952zm171.222 0l2.952 2.952-2.952-2.952z"
     id="path608" />
  <path
     fill="#ccf"
     d="M240.066 131.39l2.952 2.952-2.952-2.952z"
     id="path610" />
  <path
     fill="#9cc"
     d="M243.018 131.39l2.952 2.952-2.952-2.952M36.37 134.342l2.953 2.952-2.952-2.952z"
     id="path612" />
  <path
     fill="#c66"
     d="M51.132 134.342l2.952 2.952-2.952-2.952zm183.03 0l2.952 2.952-2.952-2.952z"
     id="path614" />
  <path
     fill="#9cc"
     d="M248.922 134.342l2.953 2.952-2.953-2.952m-206.647 2.952l2.952 2.953-2.952-2.953z"
     id="path616" />
  <path
     fill="#ccf"
     d="M45.227 137.294l2.953 2.953-2.952-2.953z"
     id="path618" />
  <path
     fill="#fcc"
     d="M57.036 137.294l2.952 2.953-2.952-2.953m171.222 0l2.952 2.953-2.952-2.953z"
     id="path620" />
  <path
     fill="#ccf"
     d="M240.066 137.294l2.952 2.953-2.952-2.953z"
     id="path622" />
  <path
     fill="#9cc"
     d="M243.018 137.294l2.952 2.953-2.952-2.953z"
     id="path624" />
  <path
     fill="#6cc"
     d="M51.132 140.247l2.952 2.952-2.952-2.953z"
     id="path626" />
  <path
     fill="#ccf"
     d="M54.084 140.247l2.952 2.952-2.952-2.953z"
     id="path628" />
  <path
     fill="#fcc"
     d="M65.892 140.247l2.952 2.952-2.952-2.953z"
     id="path630" />
  <path
     fill="#c33"
     d="M70.813 141.23l1.968.984-1.967-.984m144.653 0l1.968.984-1.968-.984z"
     id="path632" />
  <path
     fill="#fcc"
     d="M219.4 140.247l2.954 2.952-2.953-2.953z"
     id="path634" />
  <path
     fill="#ccf"
     d="M231.21 140.247l2.952 2.952-2.952-2.953z"
     id="path636" />
  <path
     fill="#6cc"
     d="M234.162 140.247l2.952 2.952-2.952-2.953M59.988 143.2l2.952 2.95-2.952-2.95z"
     id="path638" />
  <path
     fill="#9cf"
     d="M62.94 143.2l2.952 2.95-2.952-2.95z"
     id="path640" />
  <path
     fill="#fcc"
     d="M74.75 143.2l2.95 2.95-2.95-2.95zm135.795 0l2.952 2.95-2.952-2.95z"
     id="path642" />
  <path
     fill="#9cf"
     d="M222.353 143.2l2.953 2.95-2.953-2.95z"
     id="path644" />
  <path
     fill="#6cc"
     d="M225.306 143.2l2.952 2.95-2.952-2.95z"
     id="path646" />
  <path
     fill="#69c"
     d="M68.844 146.15l2.952 2.953-2.952-2.952z"
     id="path648" />
  <path
     fill="#9cf"
     d="M71.796 146.15l2.952 2.953-2.952-2.952z"
     id="path650" />
  <path
     fill="#fcc"
     d="M86.557 146.15l2.952 2.953-2.953-2.952z"
     id="path652" />
  <path
     fill="#c33"
     d="M91.478 147.134l1.968.984-1.968-.984m103.324 0l1.967.984-1.968-.984z"
     id="path654" />
  <path
     fill="#fcc"
     d="M198.737 146.15l2.952 2.953-2.953-2.952z"
     id="path656" />
  <path
     fill="#9cf"
     d="M213.497 146.15l2.952 2.953-2.953-2.952z"
     id="path658" />
  <path
     fill="#69c"
     d="M216.45 146.15l2.95 2.953-2.95-2.952M77.7 149.104l2.953 2.952-2.952-2.952z"
     id="path660" />
  <path
     fill="#9cc"
     d="M80.653 149.103l2.952 2.952-2.952-2.952z"
     id="path662" />
  <path
     fill="#cff"
     d="M83.605 149.103l2.952 2.952-2.952-2.952z"
     id="path664" />
  <path
     fill="#fcc"
     d="M95.413 149.103l2.952 2.952-2.952-2.952z"
     id="path666" />
  <path
     fill="#c33"
     d="M100.334 150.086l1.968.984-1.968-.984m85.61 0l1.97.984-1.97-.984z"
     id="path668" />
  <path
     fill="#fcc"
     d="M189.88 149.103l2.953 2.952-2.953-2.952z"
     id="path670" />
  <path
     fill="#cff"
     d="M201.69 149.103l2.95 2.952-2.95-2.952z"
     id="path672" />
  <path
     fill="#9cc"
     d="M204.64 149.103l2.953 2.952-2.952-2.952z"
     id="path674" />
  <path
     fill="#69c"
     d="M207.593 149.103l2.952 2.952-2.952-2.952m-121.036 2.952l2.952 2.952-2.953-2.952z"
     id="path676" />
  <path
     fill="#9cc"
     d="M89.51 152.055l2.95 2.952-2.95-2.952z"
     id="path678" />
  <path
     fill="#cff"
     d="M92.46 152.055l2.953 2.952-2.952-2.952z"
     id="path680" />
  <path
     fill="#fcc"
     d="M104.27 152.055l2.952 2.952-2.952-2.952z"
     id="path682" />
  <path
     fill="#c33"
     d="M109.19 153.038l1.97.984-1.97-.984m67.9 0l1.967.984-1.968-.984z"
     id="path684" />
  <path
     fill="#fcc"
     d="M181.024 152.055l2.952 2.952-2.952-2.952z"
     id="path686" />
  <path
     fill="#cff"
     d="M192.833 152.055l2.952 2.952-2.952-2.952z"
     id="path688" />
  <path
     fill="#9cc"
     d="M195.785 152.055l2.952 2.952-2.952-2.952z"
     id="path690" />
  <path
     fill="#69c"
     d="M198.737 152.055l2.952 2.952-2.953-2.952z"
     id="path692" />
  <path
     fill="#9cc"
     d="M98.365 155.007l2.952 2.952-2.952-2.953z"
     id="path694" />
  <path
     fill="#ccf"
     d="M101.317 155.007l2.953 2.952-2.953-2.953z"
     id="path696" />
  <path
     fill="#fcc"
     d="M113.126 155.007l2.952 2.952-2.952-2.953z"
     id="path698" />
  <path
     fill="#c33"
     d="M116.078 155.007l2.952 2.952-2.952-2.953m53.138 0l2.952 2.952-2.952-2.953z"
     id="path700" />
  <path
     fill="#fcc"
     d="M172.168 155.007l2.952 2.952-2.952-2.953z"
     id="path702" />
  <path
     fill="#ccf"
     d="M183.976 155.007l2.952 2.952-2.952-2.953z"
     id="path704" />
  <path
     fill="#9cc"
     d="M186.928 155.007l2.952 2.952-2.952-2.953m-79.706 2.952l2.952 2.95-2.952-2.95z"
     id="path706" />
  <path
     fill="#ccf"
     d="M110.174 157.96l2.952 2.95-2.952-2.95m64.946 0l2.952 2.95-2.952-2.95z"
     id="path708" />
  <path
     fill="#9cc"
     d="M178.072 157.96l2.952 2.95-2.952-2.95m-61.994 2.95l2.952 2.953-2.952-2.952z"
     id="path710" />
  <path
     fill="#c33"
     d="M121.982 160.91l2.952 2.953-2.952-2.952m41.33 0l2.952 2.953-2.953-2.952z"
     id="path712" />
  <path
     fill="#9cc"
     d="M169.216 160.91l2.952 2.953-2.952-2.952z"
     id="path714" />
  <path
     fill="#fcc"
     d="M121.982 163.863l2.952 2.952-2.952-2.952m41.33 0l2.952 2.952-2.953-2.952z"
     id="path716" />
  <path
     fill="#ccf"
     d="M119.03 166.815l2.952 2.953-2.952-2.953z"
     id="path718" />
  <path
     fill="#c33"
     d="M125.917 168.784l.984 1.968-.983-1.968m35.425 0l.985 1.968-.985-1.968z"
     id="path720" />
  <path
     fill="#ccf"
     d="M166.264 166.815l2.952 2.953-2.952-2.953z"
     id="path722" />
  <path
     fill="#9cc"
     d="M119.03 169.768l2.952 2.952-2.952-2.952m47.234 0l2.952 2.952-2.952-2.952z"
     id="path724" />
  <path
     fill="#fcc"
     d="M124.934 172.72l2.952 2.952-2.952-2.952m35.425 0l2.95 2.952-2.95-2.952z"
     id="path726" />
  <path
     fill="#ccf"
     d="M121.982 175.672l2.952 2.952-2.952-2.952z"
     id="path728" />
  <path
     fill="#c33"
     d="M128.87 177.64l.984 1.97-.985-1.97m29.52 0l.985 1.97-.985-1.97z"
     id="path730" />
  <path
     fill="#ccf"
     d="M163.31 175.672l2.954 2.952-2.953-2.952z"
     id="path732" />
  <path
     fill="#9cc"
     d="M121.982 178.624l2.952 2.952-2.952-2.952m41.33 0l2.952 2.952-2.953-2.952z"
     id="path734" />
  <path
     fill="#fcc"
     d="M127.886 181.576l2.952 2.952-2.952-2.952m29.52 0l2.953 2.952-2.953-2.952z"
     id="path736" />
  <path
     fill="#cff"
     d="M124.934 184.528l2.952 2.952-2.952-2.952z"
     id="path738" />
  <path
     fill="#c33"
     d="M131.82 186.497l.986 1.968-.985-1.968m23.618 0l.984 1.968-.984-1.968z"
     id="path740" />
  <path
     fill="#cff"
     d="M160.36 184.528l2.95 2.952-2.95-2.952z"
     id="path742" />
  <path
     fill="#9cc"
     d="M124.934 187.48l2.952 2.952-2.952-2.952m35.425 0l2.95 2.952-2.95-2.952z"
     id="path744" />
  <path
     fill="#69c"
     d="M124.934 190.432l2.952 2.952-2.952-2.952z"
     id="path746" />
  <path
     fill="#fcc"
     d="M130.838 190.432l2.953 2.952-2.952-2.952m23.617 0l2.952 2.952-2.952-2.952z"
     id="path748" />
  <path
     fill="#69c"
     d="M160.36 190.432l2.95 2.952-2.95-2.952z"
     id="path750" />
  <path
     fill="#cff"
     d="M127.886 193.384l2.952 2.952-2.952-2.952zm29.521 0l2.952 2.952-2.953-2.952z"
     id="path752" />
  <path
     fill="#9cc"
     d="M127.886 196.336l2.952 2.953-2.952-2.954m29.52 0l2.953 2.953-2.953-2.954z"
     id="path754" />
  <path
     fill="#69c"
     d="M127.886 199.29l2.952 2.95-2.952-2.95m29.52 0l2.953 2.95-2.953-2.95z"
     id="path756" />
  <path
     fill="#fcc"
     d="M133.79 202.24l2.953 2.953-2.952-2.952m17.713 0l2.952 2.953-2.952-2.952z"
     id="path758" />
  <path
     fill="#9cf"
     d="M130.838 205.193l2.953 2.952-2.952-2.952z"
     id="path760" />
  <path
     fill="#c33"
     d="M137.726 207.162l.984 1.968-.984-1.968m11.808 0l.984 1.968-.984-1.968z"
     id="path762" />
  <path
     fill="#9cf"
     d="M154.455 205.193l2.952 2.952-2.952-2.952z"
     id="path764" />
  <path
     fill="#69c"
     d="M130.838 208.145l2.953 2.952-2.952-2.952m23.617 0l2.952 2.952-2.952-2.952z"
     id="path766" />
  <path
     fill="#fcc"
     d="M136.743 211.097l2.952 2.952-2.952-2.953m11.808 0l2.953 2.952-2.952-2.953z"
     id="path768" />
  <path
     fill="#9cf"
     d="M133.79 214.05l2.953 2.95-2.952-2.95zm17.713 0l2.952 2.95-2.952-2.95z"
     id="path770" />
  <path
     fill="#6cc"
     d="M133.79 217l2.953 2.953L133.79 217m17.713 0l2.952 2.953-2.952-2.952z"
     id="path772" />
  <path
     fill="#fcc"
     d="M139.695 219.953l2.952 2.952-2.952-2.952m5.904 0l2.95 2.952-2.95-2.952z"
     id="path774" />
  <path
     fill="#ccf"
     d="M136.743 222.905l2.952 2.952-2.952-2.952m11.808 0l2.953 2.952-2.952-2.952z"
     id="path776" />
  <path
     fill="#6cc"
     d="M136.743 225.857l2.952 2.953-2.952-2.953z"
     id="path778" />
  <path
     fill="#c66"
     d="M142.647 225.857l2.952 2.953-2.953-2.953z"
     id="path780" />
  <path
     fill="#6cc"
     d="M148.55 225.857l2.953 2.953-2.952-2.953z"
     id="path782" />
  <path
     fill="#ccf"
     d="M139.695 231.762l2.952 2.952-2.952-2.952m5.904 0l2.95 2.952-2.95-2.952z"
     id="path784" />
  <path
     fill="#9cc"
     d="M139.695 234.714l2.952 2.952-2.952-2.952m5.904 0l2.95 2.952-2.95-2.952m-2.953 5.904l2.952 2.952-2.953-2.952z"
     id="path786" />
</svg>
