<?xml version="1.0" encoding="UTF-8" standalone="no"?>
<svg
   xmlns:dc="http://purl.org/dc/elements/1.1/"
   xmlns:cc="http://creativecommons.org/ns#"
   xmlns:rdf="http://www.w3.org/1999/02/22-rdf-syntax-ns#"
   xmlns:svg="http://www.w3.org/2000/svg"
   xmlns="http://www.w3.org/2000/svg"
   xmlns:sodipodi="http://sodipodi.sourceforge.net/DTD/sodipodi-0.dtd"
   xmlns:inkscape="http://www.inkscape.org/namespaces/inkscape"
   height="480"
   viewBox="0 0 512 512"
   width="640"
   version="1"
   id="svg854"
   sodipodi:docname="ba.svg"
   inkscape:version="0.92.2 2405546, 2018-03-11">
  <metadata
     id="metadata858">
    <rdf:RDF>
      <cc:Work
         rdf:about="">
        <dc:format>image/svg+xml</dc:format>
        <dc:type
           rdf:resource="http://purl.org/dc/dcmitype/StillImage" />
        <dc:title></dc:title>
        <dc:description>Playing with Inkscape on Gnu/Linux O. S.</dc:description>
        <dc:contributor>
          <cc:Agent>
            <dc:title>In the night, alone like a dog.</dc:title>
          </cc:Agent>
        </dc:contributor>
      </cc:Work>
    </rdf:RDF>
  </metadata>
  <sodipodi:namedview
     pagecolor="#ffffff"
     bordercolor="#666666"
     borderopacity="1"
     objecttolerance="10"
     gridtolerance="10"
     guidetolerance="10"
     inkscape:pageopacity="0"
     inkscape:pageshadow="2"
     inkscape:window-width="640"
     inkscape:window-height="480"
     id="namedview856"
     showgrid="false"
     inkscape:zoom="0.59641304"
     inkscape:cx="320"
     inkscape:cy="246.53909"
     inkscape:current-layer="svg854" />
  <defs
     id="defs844">
    <clipPath
       id="a">
      <path
         fill-opacity=".67"
         d="M-85.333 0h682.67v512h-682.67z"
         id="path841" />
    </clipPath>
  </defs>
  <g
     fill-rule="evenodd"
     clip-path="url(#a)"
     id="g852">
    <path
       fill="#009"
       d="M-85.333 0h682.67v512h-682.67z"
       id="path846" />
    <path
       d="M-85.333 0l682.67 512V0h-682.67z"
       fill="#fc0"
       id="path848" />
    <path
       fill="#fff"
       d="M-21.46 75.087L-45.857 57.36l-24.397 17.727 9.32-28.68-24.398-17.726h30.155L-45.857 0l9.32 28.68h30.154L-30.78 46.407m60.873 65.57L5.696 129.703l9.32-28.68-24.398-17.726h30.155l9.32-28.68 9.32 28.68h30.154L45.17 101.022l9.32 28.68m27.15 54.611l9.318-28.68-24.397-17.726h30.156l9.32-28.68 9.32 28.68h30.154l-24.397 17.725 9.32 28.68-24.397-17.725m60.869 43.665l-24.397-17.725h30.154l9.32-28.68 9.32 28.68h30.154l-24.397 17.725 9.32 28.68-24.396-17.725-24.397 17.726m60.871 8.204h30.155l9.32-28.68 9.32 28.68h30.154l-24.397 17.725 9.32 28.68-24.397-17.725-24.397 17.726 9.32-28.68m81.707 36.884l9.32-28.68 9.32 28.68h30.154l-24.397 17.725 9.32 28.68-24.397-17.725-24.397 17.726 9.32-28.68-24.398-17.726m115.415 25.94l9.32 28.68h30.154L424.9 374.092l9.32 28.68-24.397-17.725-24.397 17.726 9.32-28.68-24.398-17.726h30.155m85.27 25.93l9.32 28.68h30.154l-24.397 17.725 9.32 28.68-24.397-17.725-24.397 17.726 9.32-28.68-24.398-17.726h30.155m94.589 54.62h30.155L576.8 483.322l9.32 28.68-24.397-17.725-24.397 17.726 9.32-28.68-24.398-17.726h30.155l9.32-28.68"
       id="path850" />
  </g>
</svg>
