<?xml version="1.0" encoding="UTF-8" standalone="no"?>
<svg
   xmlns:dc="http://purl.org/dc/elements/1.1/"
   xmlns:cc="http://creativecommons.org/ns#"
   xmlns:rdf="http://www.w3.org/1999/02/22-rdf-syntax-ns#"
   xmlns:svg="http://www.w3.org/2000/svg"
   xmlns="http://www.w3.org/2000/svg"
   xmlns:sodipodi="http://sodipodi.sourceforge.net/DTD/sodipodi-0.dtd"
   xmlns:inkscape="http://www.inkscape.org/namespaces/inkscape"
   height="480"
   width="640"
   version="1.1"
   id="svg971"
   sodipodi:docname="bi.svg"
   inkscape:version="0.92.2 2405546, 2018-03-11">
  <title
     id="title1289">Bandiere del Mondo</title>
  <metadata
     id="metadata975">
    <rdf:RDF>
      <cc:Work
         rdf:about="">
        <dc:format>image/svg+xml</dc:format>
        <dc:type
           rdf:resource="http://purl.org/dc/dcmitype/StillImage" />
        <dc:title>Bandiere del Mondo</dc:title>
        <dc:date>2016</dc:date>
        <dc:creator>
          <cc:Agent>
            <dc:title>Cristian Pozzessere  &lt; ilnanny &gt;</dc:title>
          </cc:Agent>
        </dc:creator>
        <dc:description>Playing with Inkscape on Gnu/Linux O. S.</dc:description>
        <dc:contributor>
          <cc:Agent>
            <dc:title>In the night, alone like a dog.</dc:title>
          </cc:Agent>
        </dc:contributor>
        <cc:license
           rdf:resource="http://creativecommons.org/licenses/by-sa/4.0/" />
      </cc:Work>
      <cc:License
         rdf:about="http://creativecommons.org/licenses/by-sa/4.0/">
        <cc:permits
           rdf:resource="http://creativecommons.org/ns#Reproduction" />
        <cc:permits
           rdf:resource="http://creativecommons.org/ns#Distribution" />
        <cc:requires
           rdf:resource="http://creativecommons.org/ns#Notice" />
        <cc:requires
           rdf:resource="http://creativecommons.org/ns#Attribution" />
        <cc:permits
           rdf:resource="http://creativecommons.org/ns#DerivativeWorks" />
        <cc:requires
           rdf:resource="http://creativecommons.org/ns#ShareAlike" />
      </cc:License>
    </rdf:RDF>
  </metadata>
  <sodipodi:namedview
     pagecolor="#ffffff"
     bordercolor="#666666"
     borderopacity="1"
     objecttolerance="10"
     gridtolerance="10"
     guidetolerance="10"
     inkscape:pageopacity="0"
     inkscape:pageshadow="2"
     inkscape:window-width="640"
     inkscape:window-height="480"
     id="namedview973"
     showgrid="false"
     inkscape:zoom="0.59641304"
     inkscape:cx="320"
     inkscape:cy="246.53909"
     inkscape:current-layer="svg971" />
  <defs
     id="defs955">
    <clipPath
       id="a">
      <path
         fill-opacity=".67"
         d="M-90.533 0h682.67v512h-682.67z"
         id="path952" />
    </clipPath>
  </defs>
  <g
     clip-path="url(#a)"
     fill-rule="evenodd"
     transform="translate(84.875) scale(.9375)"
     id="g969">
    <path
       d="M-178 0l428.8 256L-178 512zm857.6 0L250.8 256l428.8 256z"
       fill="#00cf00"
       id="path957" />
    <path
       d="M-178 0l428.8 256L679.6 0zm0 512l428.8-256 428.8 256z"
       fill="red"
       id="path959" />
    <path
       d="M679.6 0h-79.902l-777.7 464.3v47.703H-98.1l777.7-464.3z"
       fill="#fff"
       id="path961" />
    <path
       d="M398.855 256c0 81.767-66.285 148.05-148.052 148.05S102.75 337.768 102.75 256s66.285-148.053 148.053-148.053S398.855 174.232 398.855 256z"
       fill="#fff"
       id="path963" />
    <path
       d="M-178 0v47.703l777.7 464.3h79.902V464.3L-98.098 0z"
       fill="#fff"
       id="path965" />
    <path
       stroke="#00de00"
       stroke-width="3.901"
       fill="red"
       d="M279.943 200.164l-19.25.322-9.948 16.442-9.92-16.472-19.22-.41 9.303-16.822-9.245-16.875 19.222-.332 9.977-16.457 9.918 16.496 19.222.41-9.333 16.817zm-64.5 111.62l-19.25.322-9.948 16.442-9.92-16.47-19.22-.41 9.303-16.824-9.245-16.875 19.222-.332 9.977-16.457 9.918 16.496 19.222.41-9.333 16.817zm130.57 0l-19.25.322-9.948 16.442-9.92-16.47-19.22-.41 9.303-16.824-9.245-16.875 19.222-.332 9.977-16.457 9.918 16.496 19.222.41-9.333 16.817z"
       id="path967" />
  </g>
</svg>
