<?xml version="1.0" encoding="UTF-8" standalone="no"?>
<svg
   xmlns:dc="http://purl.org/dc/elements/1.1/"
   xmlns:cc="http://creativecommons.org/ns#"
   xmlns:rdf="http://www.w3.org/1999/02/22-rdf-syntax-ns#"
   xmlns:svg="http://www.w3.org/2000/svg"
   xmlns="http://www.w3.org/2000/svg"
   xmlns:sodipodi="http://sodipodi.sourceforge.net/DTD/sodipodi-0.dtd"
   xmlns:inkscape="http://www.inkscape.org/namespaces/inkscape"
   fill-opacity="14.118"
   height="480"
   width="640"
   fill="#28ff09"
   version="1.1"
   id="svg2407"
   sodipodi:docname="ca.svg"
   inkscape:version="0.92.2 2405546, 2018-03-11">
  <metadata
     id="metadata2411">
    <rdf:RDF>
      <cc:Work
         rdf:about="">
        <dc:format>image/svg+xml</dc:format>
        <dc:type
           rdf:resource="http://purl.org/dc/dcmitype/StillImage" />
        <dc:title></dc:title>
        <dc:description>Playing with Inkscape on Gnu/Linux O. S.</dc:description>
        <dc:contributor>
          <cc:Agent>
            <dc:title>In the night, alone like a dog.</dc:title>
          </cc:Agent>
        </dc:contributor>
      </cc:Work>
    </rdf:RDF>
  </metadata>
  <sodipodi:namedview
     pagecolor="#ffffff"
     bordercolor="#666666"
     borderopacity="1"
     objecttolerance="10"
     gridtolerance="10"
     guidetolerance="10"
     inkscape:pageopacity="0"
     inkscape:pageshadow="2"
     inkscape:window-width="640"
     inkscape:window-height="480"
     id="namedview2409"
     showgrid="false"
     inkscape:zoom="0.58125"
     inkscape:cx="320"
     inkscape:cy="240"
     inkscape:current-layer="svg2407" />
  <defs
     id="defs2399">
    <clipPath
       id="a">
      <path
         fill-opacity=".67"
         fill="#000"
         d="M-79.06 0h682.67v512H-79.06z"
         id="path2396" />
    </clipPath>
  </defs>
  <g
     fill-opacity="1"
     clip-path="url(#a)"
     transform="translate(74.118) scale(.9375)"
     id="g2405">
    <path
       fill="#fff"
       d="M81.137 0h362.276v512H81.137z"
       id="path2401" />
    <path
       fill="#bf0a30"
       d="M-100 0H81.138v512H-100zm543.413 0H624.55v512H443.414zM135.31 247.41l-14.067 4.808 65.456 57.446c4.95 14.764-1.72 19.116-5.97 26.86l71.06-9.02-1.85 71.512 14.718-.423-3.21-70.918 71.13 8.432c-4.402-9.297-8.32-14.233-4.247-29.098l65.414-54.426-11.447-4.144c-9.36-7.222 4.044-34.784 6.066-52.178 0 0-38.195 13.135-40.698 6.262l-9.727-18.685-34.747 38.17c-3.796.91-5.413-.6-6.304-3.808l16.053-79.766-25.42 14.297c-2.128.91-4.256.125-5.658-2.355l-24.45-49.06-25.21 50.95c-1.9 1.826-3.803 2.037-5.382.796l-24.204-13.578 14.53 79.143c-1.156 3.14-3.924 4.025-7.18 2.324l-33.216-37.737c-4.345 6.962-7.29 18.336-13.033 20.885-5.744 2.387-24.98-4.823-37.873-7.637 4.404 15.895 18.176 42.302 9.46 50.957z"
       id="path2403" />
  </g>
</svg>
