<?xml version="1.0" encoding="UTF-8" standalone="no"?>
<svg
   xmlns:dc="http://purl.org/dc/elements/1.1/"
   xmlns:cc="http://creativecommons.org/ns#"
   xmlns:rdf="http://www.w3.org/1999/02/22-rdf-syntax-ns#"
   xmlns:svg="http://www.w3.org/2000/svg"
   xmlns="http://www.w3.org/2000/svg"
   xmlns:sodipodi="http://sodipodi.sourceforge.net/DTD/sodipodi-0.dtd"
   xmlns:inkscape="http://www.inkscape.org/namespaces/inkscape"
   width="640"
   height="480"
   viewBox="-159 41 640 480"
   version="1.1"
   id="svg12"
   sodipodi:docname="tk.svg"
   inkscape:version="">
  <title
     id="title20">Bandiere del Mondo</title>
  <metadata
     id="metadata18">
    <rdf:RDF>
      <cc:Work
         rdf:about="">
        <dc:format>image/svg+xml</dc:format>
        <dc:type
           rdf:resource="http://purl.org/dc/dcmitype/StillImage" />
        <dc:title>Bandiere del Mondo</dc:title>
        <dc:date>2016</dc:date>
        <dc:creator>
          <cc:Agent>
            <dc:title>Cristian Pozzessere  &lt; ilnanny &gt;</dc:title>
          </cc:Agent>
        </dc:creator>
        <dc:description>Playing with Inkscape on Gnu/Linux O. S.</dc:description>
        <dc:contributor>
          <cc:Agent>
            <dc:title>In the night, alone like a dog.</dc:title>
          </cc:Agent>
        </dc:contributor>
      </cc:Work>
    </rdf:RDF>
  </metadata>
  <defs
     id="defs16" />
  <sodipodi:namedview
     pagecolor="#ffffff"
     bordercolor="#666666"
     borderopacity="1"
     objecttolerance="10"
     gridtolerance="10"
     guidetolerance="10"
     inkscape:pageopacity="0"
     inkscape:pageshadow="2"
     inkscape:window-width="1920"
     inkscape:window-height="1016"
     id="namedview14"
     showgrid="false"
     inkscape:zoom="0.49166667"
     inkscape:cx="320"
     inkscape:cy="240"
     inkscape:window-x="0"
     inkscape:window-y="26"
     inkscape:window-maximized="1"
     inkscape:current-layer="svg12" />
  <path
     fill="#00247D"
     d="M-159 41h640v480h-640z"
     id="path2" />
  <g
     fill="#FED100"
     id="g6">
    <path
       d="M-50.9 395.6c-6.7-.1 62.8-37 120.9-84.4 76.2-62.1 240.3-161.4 288.6-177.6 5-1.7-10.3 8.6-12.3 11.9-51.5 61-10.4 176 54 233.9 19.4 14.8 18.4 15.6 54.3 17v3.4l-505.5-4.2zM-55.1 402.3s-4.9 3.5-4.9 6.1c0 2.9 5.5 6.7 5.5 6.7l498.5 5.5 9.2-6.1-12.8-7.9-495.5-4.3z"
       id="path4" />
  </g>
  <g
     fill="#FFF"
     id="g10">
    <path
       d="M-52.2 150.1l-4 12.2 10.4-7.5 10.3 7.5-3.9-12.2 10.3-7.5h-12.8l-3.9-12.2-4 12.2h-12.8zM25.9 207.5l8.6-6.3H23.8l-3.3-10.1-3.3 10.1H6.6l8.6 6.3-3.3 10.1 8.6-6.3 8.7 6.3zM-119.3 220.5l-4-12.2-3.9 12.2H-140l10.3 7.5-3.9 12.2 10.3-7.5 10.4 7.5-4-12.2 10.4-7.5zM-41.2 342.8l-4.6-14.2-4.6 14.2h-15l12.1 8.7-4.6 14.3 12.1-8.8 12.1 8.8-4.7-14.3 12.1-8.7z"
       id="path8" />
  </g>
</svg>
