<?xml version="1.0" encoding="UTF-8" standalone="no"?>
<svg
   xmlns:dc="http://purl.org/dc/elements/1.1/"
   xmlns:cc="http://creativecommons.org/ns#"
   xmlns:rdf="http://www.w3.org/1999/02/22-rdf-syntax-ns#"
   xmlns:svg="http://www.w3.org/2000/svg"
   xmlns="http://www.w3.org/2000/svg"
   xmlns:sodipodi="http://sodipodi.sourceforge.net/DTD/sodipodi-0.dtd"
   xmlns:inkscape="http://www.inkscape.org/namespaces/inkscape"
   height="480"
   width="640"
   version="1.1"
   id="svg59"
   sodipodi:docname="um.svg"
   inkscape:version="">
  <title
     id="title65">Bandiere del Mondo</title>
  <metadata
     id="metadata63">
    <rdf:RDF>
      <cc:Work
         rdf:about="">
        <dc:format>image/svg+xml</dc:format>
        <dc:type
           rdf:resource="http://purl.org/dc/dcmitype/StillImage" />
        <dc:title>Bandiere del Mondo</dc:title>
        <dc:date>2016</dc:date>
        <dc:creator>
          <cc:Agent>
            <dc:title>Cristian Pozzessere  &lt; ilnanny &gt;</dc:title>
          </cc:Agent>
        </dc:creator>
        <dc:description>Playing with Inkscape on Gnu/Linux O. S.</dc:description>
        <dc:contributor>
          <cc:Agent>
            <dc:title>In the night, alone like a dog.</dc:title>
          </cc:Agent>
        </dc:contributor>
      </cc:Work>
    </rdf:RDF>
  </metadata>
  <sodipodi:namedview
     pagecolor="#ffffff"
     bordercolor="#666666"
     borderopacity="1"
     objecttolerance="10"
     gridtolerance="10"
     guidetolerance="10"
     inkscape:pageopacity="0"
     inkscape:pageshadow="2"
     inkscape:window-width="1920"
     inkscape:window-height="1016"
     id="namedview61"
     showgrid="false"
     inkscape:zoom="0.49166667"
     inkscape:cx="320"
     inkscape:cy="240"
     inkscape:window-x="0"
     inkscape:window-y="26"
     inkscape:window-maximized="1"
     inkscape:current-layer="svg59" />
  <desc
     id="desc2">
    The United States of America flag, produced by Daniel McRae
  </desc>
  <defs
     id="defs7">
    <clipPath
       id="a">
      <path
         fill-opacity=".67"
         d="M0 0h682.67v512H0z"
         id="path4" />
    </clipPath>
  </defs>
  <g
     fill-rule="evenodd"
     clip-path="url(#a)"
     transform="scale(.9375)"
     id="g57">
    <g
       stroke-width="1pt"
       id="g17">
      <g
         fill="#bd3d44"
         id="g11">
        <path
           d="M0 0h972.81v39.385H0zM0 78.77h972.81v39.385H0zM0 157.54h972.81v39.385H0zM0 236.31h972.81v39.385H0zM0 315.08h972.81v39.385H0zM0 393.85h972.81v39.385H0zM0 472.62h972.81v39.385H0z"
           id="path9" />
      </g>
      <g
         fill="#fff"
         id="g15">
        <path
           d="M0 39.385h972.81V78.77H0zM0 118.155h972.81v39.385H0zM0 196.925h972.81v39.385H0zM0 275.695h972.81v39.385H0zM0 354.465h972.81v39.385H0zM0 433.235h972.81v39.385H0z"
           id="path13" />
      </g>
    </g>
    <path
       fill="#192f5d"
       d="M0 0h389.12v275.69H0z"
       id="path19" />
    <g
       fill="#fff"
       id="g55">
      <path
         d="M32.427 11.8l3.54 10.896h11.458l-9.27 6.735 3.541 10.896-9.27-6.734-9.268 6.734 3.54-10.896-9.269-6.735h11.457zM97.28 11.8l3.541 10.896h11.458l-9.27 6.735 3.541 10.896-9.27-6.734-9.268 6.734 3.54-10.896-9.269-6.735H93.74zM162.136 11.8l3.54 10.896h11.458l-9.27 6.735 3.541 10.896-9.269-6.734-9.269 6.734 3.54-10.896-9.269-6.735h11.458zM226.988 11.8l3.54 10.896h11.457l-9.269 6.735 3.54 10.896-9.268-6.734-9.27 6.734 3.541-10.896-9.27-6.735h11.458zM291.843 11.8l3.54 10.896h11.458l-9.27 6.735 3.541 10.896-9.27-6.734-9.268 6.734 3.54-10.896-9.269-6.735h11.457zM356.698 11.8l3.54 10.896h11.458l-9.27 6.735 3.541 10.896-9.269-6.734-9.27 6.734 3.542-10.896-9.27-6.735h11.458z"
         id="path21" />
      <g
         id="g25">
        <path
           d="M64.855 39.37l3.54 10.896h11.458L70.583 57l3.542 10.897-9.27-6.734-9.269 6.734L59.126 57l-9.269-6.734h11.458zM129.707 39.37l3.54 10.896h11.457L135.435 57l3.54 10.897-9.268-6.734-9.27 6.734L123.978 57l-9.27-6.734h11.458zM194.562 39.37l3.54 10.896h11.458L200.29 57l3.541 10.897-9.27-6.734-9.268 6.734L188.833 57l-9.269-6.734h11.457zM259.417 39.37l3.54 10.896h11.458L265.145 57l3.541 10.897-9.269-6.734-9.27 6.734L253.69 57l-9.27-6.734h11.458zM324.269 39.37l3.54 10.896h11.457L329.997 57l3.54 10.897-9.268-6.734-9.27 6.734L318.54 57l-9.27-6.734h11.458z"
           id="path23" />
      </g>
      <g
         id="g33">
        <path
           d="M32.427 66.939l3.54 10.896h11.458l-9.27 6.735 3.541 10.896-9.27-6.734-9.268 6.734 3.54-10.896-9.269-6.735h11.457zM97.28 66.939l3.541 10.896h11.458l-9.27 6.735 3.541 10.896-9.27-6.734-9.268 6.734 3.54-10.896-9.269-6.735H93.74zM162.136 66.939l3.54 10.896h11.458l-9.27 6.735 3.541 10.896-9.269-6.734-9.269 6.734 3.54-10.896-9.269-6.735h11.458zM226.988 66.939l3.54 10.896h11.457l-9.269 6.735 3.54 10.896-9.268-6.734-9.27 6.734 3.541-10.896-9.27-6.735h11.458zM291.843 66.939l3.54 10.896h11.458l-9.27 6.735 3.541 10.896-9.27-6.734-9.268 6.734 3.54-10.896-9.269-6.735h11.457zM356.698 66.939l3.54 10.896h11.458l-9.27 6.735 3.541 10.896-9.269-6.734-9.27 6.734 3.542-10.896-9.27-6.735h11.458z"
           id="path27" />
        <g
           id="g31">
          <path
             d="M64.855 94.508l3.54 10.897h11.458l-9.27 6.734 3.542 10.897-9.27-6.734-9.269 6.734 3.54-10.897-9.269-6.734h11.458zM129.707 94.508l3.54 10.897h11.457l-9.269 6.734 3.54 10.897-9.268-6.734-9.27 6.734 3.541-10.897-9.27-6.734h11.458zM194.562 94.508l3.54 10.897h11.458l-9.27 6.734 3.541 10.897-9.27-6.734-9.268 6.734 3.54-10.897-9.269-6.734h11.457zM259.417 94.508l3.54 10.897h11.458l-9.27 6.734 3.541 10.897-9.269-6.734-9.27 6.734 3.542-10.897-9.27-6.734h11.458zM324.269 94.508l3.54 10.897h11.457l-9.269 6.734 3.54 10.897-9.268-6.734-9.27 6.734 3.541-10.897-9.27-6.734h11.458z"
             id="path29" />
        </g>
      </g>
      <g
         id="g41">
        <path
           d="M32.427 122.078l3.54 10.896h11.458l-9.27 6.735 3.541 10.896-9.27-6.734-9.268 6.734 3.54-10.896-9.269-6.735h11.457zM97.28 122.078l3.541 10.896h11.458l-9.27 6.735 3.541 10.896-9.27-6.734-9.268 6.734 3.54-10.896-9.269-6.735H93.74zM162.136 122.078l3.54 10.896h11.458l-9.27 6.735 3.541 10.896-9.269-6.734-9.269 6.734 3.54-10.896-9.269-6.735h11.458zM226.988 122.078l3.54 10.896h11.457l-9.269 6.735 3.54 10.896-9.268-6.734-9.27 6.734 3.541-10.896-9.27-6.735h11.458zM291.843 122.078l3.54 10.896h11.458l-9.27 6.735 3.541 10.896-9.27-6.734-9.268 6.734 3.54-10.896-9.269-6.735h11.457zM356.698 122.078l3.54 10.896h11.458l-9.27 6.735 3.541 10.896-9.269-6.734-9.27 6.734 3.542-10.896-9.27-6.735h11.458z"
           id="path35" />
        <g
           id="g39">
          <path
             d="M64.855 149.647l3.54 10.897h11.458l-9.27 6.734 3.542 10.897-9.27-6.734-9.269 6.734 3.54-10.897-9.269-6.734h11.458zM129.707 149.647l3.54 10.897h11.457l-9.269 6.734 3.54 10.897-9.268-6.734-9.27 6.734 3.541-10.897-9.27-6.734h11.458zM194.562 149.647l3.54 10.897h11.458l-9.27 6.734 3.541 10.897-9.27-6.734-9.268 6.734 3.54-10.897-9.269-6.734h11.457zM259.417 149.647l3.54 10.897h11.458l-9.27 6.734 3.541 10.897-9.269-6.734-9.27 6.734 3.542-10.897-9.27-6.734h11.458zM324.269 149.647l3.54 10.897h11.457l-9.269 6.734 3.54 10.897-9.268-6.734-9.27 6.734 3.541-10.897-9.27-6.734h11.458z"
             id="path37" />
        </g>
      </g>
      <g
         id="g49">
        <path
           d="M32.427 177.217l3.54 10.896h11.458l-9.27 6.735 3.541 10.896-9.27-6.734-9.268 6.734 3.54-10.896-9.269-6.735h11.457zM97.28 177.217l3.541 10.896h11.458l-9.27 6.735 3.541 10.896-9.27-6.734-9.268 6.734 3.54-10.896-9.269-6.735H93.74zM162.136 177.217l3.54 10.896h11.458l-9.27 6.735 3.541 10.896-9.269-6.734-9.269 6.734 3.54-10.896-9.269-6.735h11.458zM226.988 177.217l3.54 10.896h11.457l-9.269 6.735 3.54 10.896-9.268-6.734-9.27 6.734 3.541-10.896-9.27-6.735h11.458zM291.843 177.217l3.54 10.896h11.458l-9.27 6.735 3.541 10.896-9.27-6.734-9.268 6.734 3.54-10.896-9.269-6.735h11.457zM356.698 177.217l3.54 10.896h11.458l-9.27 6.735 3.541 10.896-9.269-6.734-9.27 6.734 3.542-10.896-9.27-6.735h11.458z"
           id="path43" />
        <g
           id="g47">
          <path
             d="M64.855 204.786l3.54 10.897h11.458l-9.27 6.734 3.542 10.897-9.27-6.734-9.269 6.734 3.54-10.897-9.269-6.734h11.458zM129.707 204.786l3.54 10.897h11.457l-9.269 6.734 3.54 10.897-9.268-6.734-9.27 6.734 3.541-10.897-9.27-6.734h11.458zM194.562 204.786l3.54 10.897h11.458l-9.27 6.734 3.541 10.897-9.27-6.734-9.268 6.734 3.54-10.897-9.269-6.734h11.457zM259.417 204.786l3.54 10.897h11.458l-9.27 6.734 3.541 10.897-9.269-6.734-9.27 6.734 3.542-10.897-9.27-6.734h11.458zM324.269 204.786l3.54 10.897h11.457l-9.269 6.734 3.54 10.897-9.268-6.734-9.27 6.734 3.541-10.897-9.27-6.734h11.458z"
             id="path45" />
        </g>
      </g>
      <g
         id="g53">
        <path
           d="M32.427 232.356l3.54 10.896h11.458l-9.27 6.735 3.541 10.896-9.27-6.734-9.268 6.734 3.54-10.896-9.269-6.735h11.457zM97.28 232.356l3.541 10.896h11.458l-9.27 6.735 3.541 10.896-9.27-6.734-9.268 6.734 3.54-10.896-9.269-6.735H93.74zM162.136 232.356l3.54 10.896h11.458l-9.27 6.735 3.541 10.896-9.269-6.734-9.269 6.734 3.54-10.896-9.269-6.735h11.458zM226.988 232.356l3.54 10.896h11.457l-9.269 6.735 3.54 10.896-9.268-6.734-9.27 6.734 3.541-10.896-9.27-6.735h11.458zM291.843 232.356l3.54 10.896h11.458l-9.27 6.735 3.541 10.896-9.27-6.734-9.268 6.734 3.54-10.896-9.269-6.735h11.457zM356.698 232.356l3.54 10.896h11.458l-9.27 6.735 3.541 10.896-9.269-6.734-9.27 6.734 3.542-10.896-9.27-6.735h11.458z"
           id="path51" />
      </g>
    </g>
  </g>
</svg>
