<?xml version="1.0" encoding="UTF-8" standalone="no"?>
<!-- Created with Inkscape (http://www.inkscape.org/) -->

<svg
   xmlns:sketch="http://www.bohemiancoding.com/sketch/ns"
   xmlns:dc="http://purl.org/dc/elements/1.1/"
   xmlns:cc="http://creativecommons.org/ns#"
   xmlns:rdf="http://www.w3.org/1999/02/22-rdf-syntax-ns#"
   xmlns:svg="http://www.w3.org/2000/svg"
   xmlns="http://www.w3.org/2000/svg"
   xmlns:xlink="http://www.w3.org/1999/xlink"
   xmlns:sodipodi="http://sodipodi.sourceforge.net/DTD/sodipodi-0.dtd"
   xmlns:inkscape="http://www.inkscape.org/namespaces/inkscape"
   width="512"
   height="512"
   viewBox="0 0 512.00002 512.00002"
   id="svg2"
   version="1.1"
   inkscape:version="0.92.2 2405546, 2018-03-11"
   sodipodi:docname="bootne-1.svg">
  <defs
     id="defs4">
    <linearGradient
       inkscape:collect="always"
       xlink:href="#linearGradient6558"
       id="linearGradient6636"
       gradientUnits="userSpaceOnUse"
       gradientTransform="matrix(1.862746,1.0754569,-1.0754569,1.862746,831.02925,-956.51226)"
       x1="195.23741"
       y1="724.58649"
       x2="251.82281"
       y2="916.672" />
    <linearGradient
       inkscape:collect="always"
       id="linearGradient6558">
      <stop
         style="stop-color:#fefefe;stop-opacity:1"
         offset="0"
         id="stop6554" />
      <stop
         id="stop6570"
         offset="0.12065922"
         style="stop-color:#060606;stop-opacity:0.99607843" />
      <stop
         style="stop-color:#ffffff;stop-opacity:0.88095236"
         offset="0.1961367"
         id="stop6578" />
      <stop
         id="stop6562"
         offset="0.25634706"
         style="stop-color:#b3b3b3;stop-opacity:0.99607843" />
      <stop
         style="stop-color:#fefefe;stop-opacity:0.99215686"
         offset="0.32487023"
         id="stop6572" />
      <stop
         style="stop-color:#040404;stop-opacity:0.99215686"
         offset="0.50166756"
         id="stop6566" />
      <stop
         id="stop6574"
         offset="0.65177846"
         style="stop-color:#ffffff;stop-opacity:0.99215686" />
      <stop
         style="stop-color:#fefefe;stop-opacity:0.99215686;"
         offset="0.65177846"
         id="stop6564" />
      <stop
         id="stop6576"
         offset="0.80294323"
         style="stop-color:#dedede;stop-opacity:0.98809522" />
      <stop
         id="stop6568"
         offset="0.89797378"
         style="stop-color:#101010;stop-opacity:0.99215686" />
      <stop
         style="stop-color:#ffffff;stop-opacity:0.99206346"
         offset="1"
         id="stop6556" />
    </linearGradient>
    <radialGradient
       inkscape:collect="always"
       xlink:href="#linearGradient6602"
       id="radialGradient6638"
       gradientUnits="userSpaceOnUse"
       gradientTransform="matrix(2.1509138,0,0,2.1509138,-293.28918,-925.0469)"
       cx="256"
       cy="796.36218"
       fx="256"
       fy="796.36218"
       r="78" />
    <linearGradient
       inkscape:collect="always"
       id="linearGradient6602">
      <stop
         style="stop-color:#ffffff;stop-opacity:1"
         offset="0"
         id="stop6598" />
      <stop
         id="stop6606"
         offset="0.44514003"
         style="stop-color:#f5faff;stop-opacity:0.99206346" />
      <stop
         style="stop-color:#f5faff;stop-opacity:0;"
         offset="1"
         id="stop6600" />
    </linearGradient>
    <radialGradient
       inkscape:collect="always"
       xlink:href="#linearGradient6588"
       id="radialGradient6640"
       gradientUnits="userSpaceOnUse"
       gradientTransform="matrix(2.1509138,0,0,2.1509138,-293.28918,-925.0469)"
       cx="255.7916"
       cy="796.57056"
       fx="255.7916"
       fy="796.57056"
       r="78" />
    <linearGradient
       inkscape:collect="always"
       id="linearGradient6588">
      <stop
         style="stop-color:#ffffff;stop-opacity:1;"
         offset="0"
         id="stop6584" />
      <stop
         style="stop-color:#ffffff;stop-opacity:0;"
         offset="1"
         id="stop6586" />
    </linearGradient>
    <radialGradient
       inkscape:collect="always"
       xlink:href="#linearGradient6588"
       id="radialGradient6642"
       gradientUnits="userSpaceOnUse"
       gradientTransform="matrix(2.1507419,0.02719121,-0.02554875,2.0208287,-272.73495,-919.1465)"
       cx="253.68126"
       cy="855.43927"
       fx="253.68126"
       fy="855.43927"
       r="99.25" />
    <filter
       inkscape:collect="always"
       style="color-interpolation-filters:sRGB"
       id="filter6597"
       x="-0.048135553"
       width="1.0962712"
       y="-0.047865208"
       height="1.0957304">
      <feGaussianBlur
         inkscape:collect="always"
         stdDeviation="0.44124257"
         id="feGaussianBlur6599" />
    </filter>
    <linearGradient
       inkscape:collect="always"
       xlink:href="#linearGradient6558"
       id="linearGradient877"
       gradientUnits="userSpaceOnUse"
       gradientTransform="matrix(1.862746,1.0754569,-1.0754569,1.862746,831.02925,-956.51226)"
       x1="195.23741"
       y1="724.58649"
       x2="251.82281"
       y2="916.672" />
  </defs>
  <sodipodi:namedview
     id="base"
     pagecolor="#ffffff"
     bordercolor="#666666"
     borderopacity="1.0"
     inkscape:pageopacity="0.0"
     inkscape:pageshadow="2"
     inkscape:zoom="1"
     inkscape:cx="-27.684919"
     inkscape:cy="245.06276"
     inkscape:document-units="px"
     inkscape:current-layer="layer1"
     showgrid="false"
     units="px"
     inkscape:showpageshadow="false"
     inkscape:window-width="1920"
     inkscape:window-height="991"
     inkscape:window-x="0"
     inkscape:window-y="25"
     inkscape:window-maximized="1" />
  <metadata
     id="metadata7">
    <rdf:RDF>
      <cc:Work
         rdf:about="">
        <dc:format>image/svg+xml</dc:format>
        <dc:type
           rdf:resource="http://purl.org/dc/dcmitype/StillImage" />
        <dc:title />
        <cc:license
           rdf:resource="http://creativecommons.org/licenses/by-sa/4.0/" />
        <dc:date>2019</dc:date>
        <dc:creator>
          <cc:Agent>
            <dc:title>Cristian Pozzessere  &lt; ilnanny &gt;</dc:title>
          </cc:Agent>
        </dc:creator>
        <dc:subject>
          <rdf:Bag>
            <rdf:li>ilnanny</rdf:li>
          </rdf:Bag>
        </dc:subject>
      </cc:Work>
      <cc:License
         rdf:about="http://creativecommons.org/licenses/by-sa/4.0/">
        <cc:permits
           rdf:resource="http://creativecommons.org/ns#Reproduction" />
        <cc:permits
           rdf:resource="http://creativecommons.org/ns#Distribution" />
        <cc:requires
           rdf:resource="http://creativecommons.org/ns#Notice" />
        <cc:requires
           rdf:resource="http://creativecommons.org/ns#Attribution" />
        <cc:permits
           rdf:resource="http://creativecommons.org/ns#DerivativeWorks" />
        <cc:requires
           rdf:resource="http://creativecommons.org/ns#ShareAlike" />
      </cc:License>
    </rdf:RDF>
  </metadata>
  <g
     inkscape:label="Livello 1"
     inkscape:groupmode="layer"
     id="layer1"
     transform="translate(0,-540.3622)">
    <rect
       style="opacity:1;fill:#c0ddff;fill-opacity:1;stroke:none;stroke-width:3.01775742;stroke-linecap:round;stroke-linejoin:bevel;stroke-miterlimit:4;stroke-dasharray:none;stroke-opacity:0.38492067;paint-order:stroke fill markers"
       id="rect859"
       width="510"
       height="510"
       x="3"
       y="540.36218" />
    <g
       id="g875"
       transform="translate(2e-6,8.5026)">
      <path
         inkscape:connector-curvature="0"
         id="path849"
         d="M 256,559.3622 A 228.49739,228.49739 0 0 0 27.502606,787.85959 228.49739,228.49739 0 0 0 256,1016.357 228.49739,228.49739 0 0 0 484.49739,787.85959 228.49739,228.49739 0 0 0 256,559.3622 Z m 0,9.64124 A 218.85615,218.85615 0 0 1 474.85615,787.85959 218.85615,218.85615 0 0 1 256,1006.7157 218.85615,218.85615 0 0 1 37.143847,787.85959 218.85615,218.85615 0 0 1 256,569.00344 Z"
         style="opacity:0.25;fill:#080808;fill-opacity:0.98809521;stroke:none;stroke-width:2.8151629;stroke-linecap:round;stroke-linejoin:bevel;stroke-miterlimit:4;stroke-dasharray:none;stroke-opacity:0.38492067;paint-order:stroke fill markers" />
      <path
         style="color:#000000;font-style:normal;font-variant:normal;font-weight:normal;font-stretch:normal;font-size:medium;line-height:normal;font-family:sans-serif;font-variant-ligatures:normal;font-variant-position:normal;font-variant-caps:normal;font-variant-numeric:normal;font-variant-alternates:normal;font-feature-settings:normal;text-indent:0;text-align:start;text-decoration:none;text-decoration-line:none;text-decoration-style:solid;text-decoration-color:#000000;letter-spacing:normal;word-spacing:normal;text-transform:none;writing-mode:lr-tb;direction:ltr;text-orientation:mixed;dominant-baseline:auto;baseline-shift:baseline;text-anchor:start;white-space:normal;shape-padding:0;clip-rule:nonzero;display:inline;overflow:visible;visibility:visible;opacity:1;isolation:auto;mix-blend-mode:normal;color-interpolation:sRGB;color-interpolation-filters:linearRGB;solid-color:#000000;solid-opacity:1;vector-effect:none;fill:none;fill-opacity:1;fill-rule:nonzero;stroke:#050505;stroke-width:4.30182743;stroke-linecap:round;stroke-linejoin:bevel;stroke-miterlimit:4;stroke-dasharray:none;stroke-dashoffset:0;stroke-opacity:0.2142857;paint-order:stroke fill markers;color-rendering:auto;image-rendering:auto;shape-rendering:auto;text-rendering:auto;enable-background:accumulate"
         d="m 256.00001,567.47495 c -121.63828,0 -220.384656,98.74637 -220.384678,220.38465 0,121.63827 98.746398,220.3847 220.384678,220.3847 121.63826,0 220.38466,-98.74643 220.38466,-220.3847 0,-121.63826 -98.7464,-220.38465 -220.38466,-220.38465 z m 0,12.90548 c 114.66363,0 207.47917,92.81555 207.47917,207.47917 0,114.66363 -92.81554,207.47919 -207.47917,207.47919 -114.66365,0 -207.479194,-92.81556 -207.479194,-207.47919 2.1e-5,-114.66362 92.815544,-207.47917 207.479194,-207.47917 z"
         id="path6616"
         inkscape:connector-curvature="0" />
      <circle
         style="opacity:1;fill:#000000;fill-opacity:0.2745098;stroke:none;stroke-width:16.00911522;stroke-linecap:round;stroke-linejoin:bevel;stroke-miterlimit:4;stroke-dasharray:none;stroke-opacity:1;paint-order:stroke fill markers"
         id="circle6618"
         cx="256.00003"
         cy="787.85944"
         r="212.78017" />
      <circle
         r="213.93121"
         cy="787.85944"
         cx="256.00003"
         id="circle6620"
         style="opacity:1;fill:#fdfdfd;fill-opacity:0.39682539;stroke:none;stroke-width:8.60365486;stroke-linecap:round;stroke-linejoin:bevel;stroke-miterlimit:4;stroke-dasharray:none;stroke-opacity:1;paint-order:stroke fill markers" />
      <path
         inkscape:connector-curvature="0"
         id="path6622"
         d="M 366.19234,597.00089 C 260.85049,536.18176 125.96043,572.32544 65.141271,677.66728 4.3221387,783.0091 40.465836,917.89917 145.80768,978.7183 c 105.34182,60.8191 240.23189,24.6755 301.05103,-80.66637 60.81913,-105.34182 24.67545,-240.23191 -80.66637,-301.05104 z m -6.45275,11.17649 c 99.30161,57.33181 133.27445,184.1202 75.94264,283.42181 C 378.35041,990.90083 251.56205,1024.8737 152.26042,967.54183 52.958796,910.20999 18.985929,783.42162 76.317742,684.12002 133.64958,584.81841 260.43795,550.84554 359.73959,608.17738 Z"
         style="color:#000000;font-style:normal;font-variant:normal;font-weight:normal;font-stretch:normal;font-size:medium;line-height:normal;font-family:sans-serif;font-variant-ligatures:normal;font-variant-position:normal;font-variant-caps:normal;font-variant-numeric:normal;font-variant-alternates:normal;font-feature-settings:normal;text-indent:0;text-align:start;text-decoration:none;text-decoration-line:none;text-decoration-style:solid;text-decoration-color:#000000;letter-spacing:normal;word-spacing:normal;text-transform:none;writing-mode:lr-tb;direction:ltr;text-orientation:mixed;dominant-baseline:auto;baseline-shift:baseline;text-anchor:start;white-space:normal;shape-padding:0;clip-rule:nonzero;display:inline;overflow:visible;visibility:visible;opacity:1;isolation:auto;mix-blend-mode:normal;color-interpolation:sRGB;color-interpolation-filters:linearRGB;solid-color:#000000;solid-opacity:1;vector-effect:none;fill:url(#linearGradient877);fill-opacity:1;fill-rule:nonzero;stroke:none;stroke-width:12.90548325;stroke-linecap:round;stroke-linejoin:bevel;stroke-miterlimit:4;stroke-dasharray:none;stroke-dashoffset:0;stroke-opacity:1;paint-order:stroke fill markers;color-rendering:auto;image-rendering:auto;shape-rendering:auto;text-rendering:auto;enable-background:accumulate" />
      <circle
         r="167.77127"
         cy="787.85944"
         cx="256.00003"
         id="circle6624"
         style="opacity:1;fill:#c0c6cc;fill-opacity:0.99206346;stroke:none;stroke-width:12.62274456;stroke-linecap:round;stroke-linejoin:bevel;stroke-miterlimit:4;stroke-dasharray:none;stroke-opacity:1;paint-order:stroke fill markers" />
      <path
         style="color:#000000;font-style:normal;font-variant:normal;font-weight:normal;font-stretch:normal;font-size:medium;line-height:normal;font-family:sans-serif;font-variant-ligatures:normal;font-variant-position:normal;font-variant-caps:normal;font-variant-numeric:normal;font-variant-alternates:normal;font-feature-settings:normal;text-indent:0;text-align:start;text-decoration:none;text-decoration-line:none;text-decoration-style:solid;text-decoration-color:#000000;letter-spacing:normal;word-spacing:normal;text-transform:none;writing-mode:lr-tb;direction:ltr;text-orientation:mixed;dominant-baseline:auto;baseline-shift:baseline;text-anchor:start;white-space:normal;shape-padding:0;clip-rule:nonzero;display:inline;overflow:visible;visibility:visible;opacity:1;isolation:auto;mix-blend-mode:normal;color-interpolation:sRGB;color-interpolation-filters:linearRGB;solid-color:#000000;solid-opacity:1;vector-effect:none;fill:#e7e7e7;fill-opacity:0.94444442;fill-rule:nonzero;stroke:none;stroke-width:9.89197636;stroke-linecap:round;stroke-linejoin:bevel;stroke-miterlimit:4;stroke-dasharray:none;stroke-dashoffset:0;stroke-opacity:1;paint-order:stroke fill markers;color-rendering:auto;image-rendering:auto;shape-rendering:auto;text-rendering:auto;enable-background:accumulate"
         d="m 255.99999,618.93606 c -93.23503,0 -168.923528,75.68853 -168.923528,168.92354 0,93.23502 75.688498,168.92351 168.923528,168.92351 93.23504,0 168.92354,-75.68849 168.92354,-168.92351 0,-93.23501 -75.6885,-168.92354 -168.92354,-168.92354 z m 0,9.89199 c 87.88898,0 159.03155,71.14257 159.03155,159.03155 0,87.88899 -71.14257,159.03154 -159.03155,159.03154 -87.88901,0 -159.031561,-71.14255 -159.03154,-159.03154 0,-87.88898 71.14253,-159.03155 159.03154,-159.03155 z"
         id="path6626"
         inkscape:connector-curvature="0" />
      <circle
         style="opacity:1;fill:url(#radialGradient6638);fill-opacity:1;stroke:none;stroke-width:12.62274456;stroke-linecap:round;stroke-linejoin:bevel;stroke-miterlimit:4;stroke-dasharray:none;stroke-opacity:1;paint-order:stroke fill markers"
         id="circle6628"
         cx="257.34479"
         cy="787.85944"
         r="167.77127" />
      <circle
         r="167.77127"
         cy="787.85944"
         cx="257.34479"
         id="circle6630"
         style="opacity:1;fill:url(#radialGradient6640);fill-opacity:1;stroke:none;stroke-width:12.62274456;stroke-linecap:round;stroke-linejoin:bevel;stroke-miterlimit:4;stroke-dasharray:none;stroke-opacity:1;paint-order:stroke fill markers" />
      <g
         transform="matrix(0.96412402,0,0,0.96412402,6.1145558,-5.9551653)"
         id="g857">
        <path
           sketch:type="MSShapeGroup"
           id="common_heart_like_favourite_favorite_glyph"
           d="m 265.30823,941.04753 c 3.80984,-2.92166 8.04991,-6.29324 12.61328,-10.07246 13.03414,-10.7945 26.06814,-22.70738 38.24848,-35.40787 27.19668,-28.35814 46.21125,-56.45126 53.3784,-83.12829 2.02811,-7.54888 3.07406,-14.91781 3.07406,-22.08446 0,-71.13869 -64.94661,-101.55789 -115.27776,-47.95978 -50.14767,-53.59812 -115.1775,-21.29851 -115.1775,47.95978 0,7.16665 1.04596,14.53558 3.07407,22.08446 7.16716,26.67703 26.18171,54.77015 53.37839,83.12829 12.18034,12.70049 25.21434,24.61337 38.2485,35.40787 4.56335,3.77922 8.80343,7.1508 12.61326,10.07246 2.29787,1.76218 3.9504,2.98895 4.85053,3.63785 l 3.06288,2.20805 3.06289,-2.20805 c 0.90013,-0.64895 2.55268,-1.87567 4.85052,-3.63785 z"
           inkscape:connector-curvature="0"
           style="fill:#dc0000;fill-rule:evenodd;stroke:none;stroke-width:10.47523975" />
        <path
           style="fill:#dc0000;fill-opacity:0.34920636;fill-rule:evenodd;stroke:none;stroke-width:10.47523975"
           inkscape:connector-curvature="0"
           d="m 265.30823,941.04753 c 3.80984,-2.92166 8.04991,-6.29324 12.61328,-10.07246 13.03414,-10.7945 26.06814,-22.70738 38.24848,-35.40787 27.19668,-28.35814 46.21125,-56.45126 53.3784,-83.12829 2.02811,-7.54888 3.07406,-14.91781 3.07406,-22.08446 0,-71.13869 -64.94661,-101.55789 -115.27776,-47.95978 -50.14767,-53.59812 -115.1775,-21.29851 -115.1775,47.95978 0,7.16665 1.04596,14.53558 3.07407,22.08446 7.16716,26.67703 26.18171,54.77015 53.37839,83.12829 12.18034,12.70049 25.21434,24.61337 38.2485,35.40787 4.56335,3.77922 8.80343,7.1508 12.61326,10.07246 2.29787,1.76218 3.9504,2.98895 4.85053,3.63785 l 3.06288,2.20805 3.06289,-2.20805 c 0.90013,-0.64895 2.55268,-1.87567 4.85052,-3.63785 z"
           id="path4965"
           sketch:type="MSShapeGroup" />
        <path
           transform="matrix(9.6897976,0,0,9.6897976,152.76377,708.79752)"
           sketch:type="MSShapeGroup"
           id="path6569"
           d="m 11.75544,22.523598 c 0.363698,-0.278911 0.76847,-0.600772 1.204102,-0.961549 1.244283,-1.030478 2.488551,-2.167719 3.651324,-3.380149 2.596283,-2.707158 4.411474,-5.389019 5.095674,-7.935694 C 21.900149,9.5255667 22,8.8221043 22,8.1379533 22,1.3468251 15.799988,-1.5570893 10.995215,3.5595589 6.2079569,-1.5570894 0,1.5263346 0,8.1379533 c 0,0.684151 0.09985071,1.3876134 0.29346042,2.1082527 0.6842,2.546675 2.49939078,5.228536 5.09567358,7.935694 1.1627733,1.21243 2.4070415,2.349671 3.6513236,3.380149 0.435632,0.360777 0.840404,0.682638 1.2041024,0.961549 0.219362,0.168223 0.377119,0.285335 0.463047,0.347281 L 11,23.081666 11.292393,22.870879 c 0.08593,-0.06195 0.243686,-0.179058 0.463047,-0.347281 z"
           inkscape:connector-curvature="0"
           style="fill:none;fill-opacity:0.34920636;fill-rule:evenodd;stroke:#ffe5e5;stroke-width:0.80698168;stroke-miterlimit:4;stroke-dasharray:none;stroke-opacity:0.77380958;filter:url(#filter6597)" />
      </g>
      <path
         inkscape:connector-curvature="0"
         id="path6634"
         d="M 256.00001,580.38043 A 213.93121,213.93121 0 0 0 42.605824,783.55778 775.59256,775.59256 0 0 0 256.00001,814.15788 775.59256,775.59256 0 0 0 469.56224,783.86865 213.93121,213.93121 0 0 0 256.00001,580.38043 Z"
         style="opacity:0.772;fill:url(#radialGradient6642);fill-opacity:1;stroke:none;stroke-width:31.19194794;stroke-linecap:round;stroke-linejoin:bevel;stroke-miterlimit:4;stroke-dasharray:none;stroke-opacity:1;paint-order:stroke fill markers" />
    </g>
  </g>
</svg>
