<?xml version="1.0" encoding="UTF-8" standalone="no"?>
<!-- Created with Inkscape (http://www.inkscape.org/) -->

<svg
   xmlns:dc="http://purl.org/dc/elements/1.1/"
   xmlns:cc="http://creativecommons.org/ns#"
   xmlns:rdf="http://www.w3.org/1999/02/22-rdf-syntax-ns#"
   xmlns:svg="http://www.w3.org/2000/svg"
   xmlns="http://www.w3.org/2000/svg"
   xmlns:sodipodi="http://sodipodi.sourceforge.net/DTD/sodipodi-0.dtd"
   xmlns:inkscape="http://www.inkscape.org/namespaces/inkscape"
   width="512"
   height="512"
   viewBox="0 0 135.46666 135.46667"
   version="1.1"
   id="svg1751"
   inkscape:version="0.92.2 2405546, 2018-03-11"
   sodipodi:docname="cavallo-1.svg">
  <defs
     id="defs1745">
    <filter
       inkscape:collect="always"
       style="color-interpolation-filters:sRGB"
       id="filter832"
       x="-0.011409529"
       width="1.0228191"
       y="-0.012654924"
       height="1.0253098">
      <feGaussianBlur
         inkscape:collect="always"
         stdDeviation="13.104752"
         id="feGaussianBlur834" />
    </filter>
  </defs>
  <sodipodi:namedview
     id="base"
     pagecolor="#ffffff"
     bordercolor="#666666"
     borderopacity="1.0"
     inkscape:pageopacity="0.0"
     inkscape:pageshadow="2"
     inkscape:zoom="1.4863281"
     inkscape:cx="256"
     inkscape:cy="256"
     inkscape:document-units="px"
     inkscape:current-layer="g1731"
     showgrid="false"
     units="px"
     inkscape:window-width="1920"
     inkscape:window-height="991"
     inkscape:window-x="0"
     inkscape:window-y="25"
     inkscape:window-maximized="1" />
  <metadata
     id="metadata1748">
    <rdf:RDF>
      <cc:Work
         rdf:about="">
        <dc:format>image/svg+xml</dc:format>
        <dc:type
           rdf:resource="http://purl.org/dc/dcmitype/StillImage" />
        <dc:title></dc:title>
        <cc:license
           rdf:resource="http://creativecommons.org/licenses/by-sa/4.0/" />
        <dc:date>2018</dc:date>
        <dc:creator>
          <cc:Agent>
            <dc:title>Cristian Pozzessere  == ilnanny ==</dc:title>
          </cc:Agent>
        </dc:creator>
        <dc:subject>
          <rdf:Bag>
            <rdf:li>Global language</rdf:li>
          </rdf:Bag>
        </dc:subject>
        <dc:description>Playing with Inkscape on Gnu/Linux O. S.</dc:description>
        <dc:contributor>
          <cc:Agent>
            <dc:title>In the night, alone like a dog.</dc:title>
          </cc:Agent>
        </dc:contributor>
      </cc:Work>
      <cc:License
         rdf:about="http://creativecommons.org/licenses/by-sa/4.0/">
        <cc:permits
           rdf:resource="http://creativecommons.org/ns#Reproduction" />
        <cc:permits
           rdf:resource="http://creativecommons.org/ns#Distribution" />
        <cc:requires
           rdf:resource="http://creativecommons.org/ns#Notice" />
        <cc:requires
           rdf:resource="http://creativecommons.org/ns#Attribution" />
        <cc:permits
           rdf:resource="http://creativecommons.org/ns#DerivativeWorks" />
        <cc:requires
           rdf:resource="http://creativecommons.org/ns#ShareAlike" />
      </cc:License>
    </rdf:RDF>
  </metadata>
  <g
     inkscape:label="Livello 1"
     inkscape:groupmode="layer"
     id="layer1"
     transform="translate(0,-161.53332)">
    <rect
       style="opacity:1;fill:#c60000;fill-opacity:1;stroke:#232323;stroke-width:0.33554754;stroke-linecap:round;stroke-linejoin:bevel;stroke-miterlimit:4;stroke-dasharray:none;stroke-opacity:0.21132076;paint-order:stroke markers fill"
       id="rect819"
       width="134.60196"
       height="134.60194"
       x="0.4323529"
       y="161.96568" />
    <g
       id="g1731"
       transform="matrix(0.04294076,0,0,-0.04294076,-28.883693,324.16573)"
       style="fill:#000000">
      <path
         style="color:#000000;font-style:normal;font-variant:normal;font-weight:normal;font-stretch:normal;font-size:medium;line-height:normal;font-family:sans-serif;font-variant-ligatures:normal;font-variant-position:normal;font-variant-caps:normal;font-variant-numeric:normal;font-variant-alternates:normal;font-feature-settings:normal;text-indent:0;text-align:start;text-decoration:none;text-decoration-line:none;text-decoration-style:solid;text-decoration-color:#000000;letter-spacing:normal;word-spacing:normal;text-transform:none;writing-mode:lr-tb;direction:ltr;text-orientation:mixed;dominant-baseline:auto;baseline-shift:baseline;text-anchor:start;white-space:normal;shape-padding:0;clip-rule:nonzero;display:inline;overflow:visible;visibility:visible;opacity:1;isolation:auto;mix-blend-mode:normal;color-interpolation:sRGB;color-interpolation-filters:linearRGB;solid-color:#000000;solid-opacity:1;vector-effect:none;fill:#ffffff;fill-opacity:1;fill-rule:nonzero;stroke:none;stroke-width:24.64635658;stroke-linecap:butt;stroke-linejoin:miter;stroke-miterlimit:4;stroke-dasharray:none;stroke-dashoffset:0;stroke-opacity:1;color-rendering:auto;image-rendering:auto;shape-rendering:auto;text-rendering:auto;enable-background:accumulate;filter:url(#filter832)"
         d="m 2755.6621,961.8457 c -138.3504,133.9023 -289.4645,258.3083 -470.6783,329.6514 -66.0071,20.7885 -141.4445,42.5317 -55.9175,103.0846 127.3276,97.5486 174.3492,271.1054 110.3698,418.8766 -21.7935,119.9775 -231.984,171.0905 -102.0211,289.6147 103.4848,109.4602 -54.2542,203.011 -25.1686,325.7013 -12.1595,149.6225 -61.3136,-95.0243 -10.9396,-142.0372 60.8724,-131.4357 -52.0111,-256.4747 -159.7527,-317.189 -117.0888,-69.3158 -266.6194,-62.0554 -381.4561,8.2936 -132.7055,66.9926 -292.6005,39.9787 -410.6267,-43.3316 -131.0712,-15.8214 -249.2677,48.1173 -339.4237,160.8719 -75.49545,95.8455 -16.92612,230.1344 45.824,310.9193 133.1706,75.3606 264.7565,154.0138 378.1796,258.305 78.1726,89.872 221.4442,61.8714 266.4549,173.9033 105.5669,84.433 241.7966,116.4548 362.0522,174.8317 99.1217,58.3886 62.771,-178.3171 97.0823,-29.9838 31.8847,138.3223 174.7271,221.5834 198.8223,366.7226 -7.1367,89.406 35.8571,122.2498 84.6648,36.8837 74.6518,-139.812 164.3003,-294.032 123.6544,-459.0318 -0.2025,-69.0216 -88.1413,-218.4385 -86.817,-191.5989 83.1155,77.7463 138.6749,230.8043 272.9832,129.4847 260.5974,-109.3137 440.8978,-344.5626 581.146,-579.9619 79.4747,-73.024 146.9488,-261.4885 -14.0155,-268.6844 -74.2508,108.7043 -104.9355,248.6605 -195.5891,353.249 -37.148,60.4015 -163.7462,207.2547 -172.4747,196.2448 138.8533,-183.194 246.368,-391.5546 305.2956,-614.2001 -63.6542,-114.9927 -175.2904,-196.1165 -227.8603,-319.1446 -112.4748,-200.3921 -169.84,-431.6947 -161.869,-661.48496 -4.6138,-2.19582 -5.8348,-10.3835 -11.9192,-9.98994 z m -12.3828,40.5566 c -9.0972,351.5327 147.5789,694.518 390.0703,944.3418 -71.0868,265.7423 -211.0483,510.6557 -392.7954,716.1764 128.1277,-9.945 189.5458,-154.5767 274.1101,-235.6499 89.5328,-121.5499 158.1268,-256.9959 217.8668,-395.2156 156.7871,54.0659 2.3181,175.9927 -31.9985,264.6866 -150.6924,254.0149 -363.5582,493.1093 -653.3,584.1538 -81.7029,-45.0101 -131.3053,-217.3464 -251.1274,-200.77 92.5173,109.0674 200.3065,273.0769 142.2224,433.1926 -28.5109,120.8888 -100.9836,230.8377 -169.3498,333.8238 55.362,-102.8831 -27.1875,-212.5471 -85.4803,-295.9317 -70.5,-89.6044 -136.1237,-195.3914 -102.1553,-313.7021 -67.5469,-32.3899 -61.8714,251.7115 -180.9998,121.238 -132.4027,-49.3359 -273.9209,-102.6021 -356.895,-220.4482 -129.7058,-24.6975 -218.7442,-110.831 -316.4791,-191.9913 -86.629,-81.5241 -222.3316,-100.125 -286.21715,-204.7346 -46.61209,-105.18 -75.59523,-241.0879 66.68105,-290.9819 68.9057,-98.6935 213.4068,-120.4958 313.7601,-49.9857 129.1834,72.8664 283.5707,44.5991 407.359,-29.2276 188.1628,-85.2556 411.6983,40.4117 477.6854,226.1451 -83.2607,103.1226 -50.2003,338.6558 29.2973,376.5151 4.242,-138.8145 0.1379,-281.3292 64.1083,-403.6325 -39.2777,-80.9234 -134.4364,-191.8626 -1.827,-238.1355 151.611,-169.1878 108.8383,-469.2672 -86.7484,-586.5071 201.7945,-68.853 386.4369,-187.7135 532.2124,-343.3595 z m 644.3965,1113.9864 c -80.5192,99.0498 -117.4758,225.8343 -200.1377,324.2372 -154.076,228.8325 -360.0277,449.5667 -638.341,514.0899 -64.699,112.8927 -14.638,268.3821 -122.3516,371.6615 -76.3095,149.1434 159.3424,82.6633 222.459,40.0371 70.4422,-40.7617 -13.6122,-235.907 39.3086,-81.0346 11.4364,190.0676 322.1765,-163.6918 189.0021,-57.1011 91.6955,31.0037 249.7854,-132.6215 145.3868,-223.9118 47.582,103.7335 160.3791,47.5971 149.3513,-29.1667 196.2092,1.4073 -145.8675,-267.636 22.7835,-156.4504 95.8378,141.4085 182.0014,-83.1136 231.1284,-153.13 95.1155,-104.2029 92.7141,-249.7242 190.0874,-344.5122 71.8722,-145.2723 -140.2389,-125.4348 -207.7989,-197.6951 l -9.8541,-5.0261 z m 0.3867,23.9765 h 0.01 z m 2.5918,1.4844 c 80.3742,62.157 290.9819,72.6108 178.2252,219.9521 -58.1127,37.2323 -96.4576,11.493 -51.2861,86.1978 -52.7198,130.8917 -139.9397,249.2357 -218.4225,367.4317 -58.97,88.5267 -155.5354,-144.0036 -239.657,-70.3885 49.4788,50.9688 231.2414,206.5688 69.9597,201.4697 31.0621,87.2297 -22.9816,119.1392 -74.7447,45.4482 -158.3327,-69.9862 46.3329,115.543 -58.7688,167.1085 -56.3044,92.0629 -195.3294,-11.2863 -187.7476,123.0121 -115.7427,139.504 -118.0908,-226.7071 -183.3435,-124.1012 45.7591,100.2973 40.6684,261.0763 -112.1947,226.121 -165.2889,27.6638 31.6257,-139.4528 14.0514,-219.1122 20.4158,-100.1021 7.0744,-226.4465 143.6494,-223.6266 313.1331,-129.2744 512.7227,-425.9303 674.0792,-710.0886 15.9606,-29.5139 31.3606,-59.3308 46.2,-89.424 z m -2321.9902,94.127 c 1.1362,96.0765 -84.74057,141.1252 -81.51076,122.2105 79.82366,118.0571 242.88196,-52.2843 81.51076,-122.2105 z m 21.4414,52.2285 c 111.3907,75.063 -163.91401,95.3663 -18.2906,62.565 17.5793,-15.3523 21.3287,-40.6481 18.2906,-62.565 z m 661.6133,267.8965 c -125.7891,0.7233 -99.9726,192.1383 25.6291,133.6481 160.4774,23.2942 72.2704,-136.2162 -25.6291,-133.6481 z m 0.5429,24.4629 c 103.1922,8.1772 91.2081,119.8047 -11.0714,83.9227 -100.6484,14.9509 -48.1669,-76.2753 11.0714,-83.9227 z m 425.0391,202.207 c -73.7337,113.4973 75.426,210.8382 122.9272,304.1448 37.1819,61.7436 11.1144,277.7473 74.4642,119.616 35.3519,-112.7886 9.1788,-250.7823 -95.6785,-317.8952 -37.4307,-31.3898 -78.0418,-62.0184 -101.7129,-105.8656 z m 1.3887,49.1836 c 96.8356,56.9666 249.3939,246.5784 164.4413,314.938 -17.1675,-155.9019 -133.5922,-158.0448 -164.4413,-314.938 z m -493.9043,110.9511 c -136.1571,53.9651 -35.7189,173.5361 44.7082,212.2779 24.2796,79.2308 178.6007,101.5486 195.4985,74.6714 -21.2505,123.9039 167.4309,82.5639 221.7543,153.5632 139.49,-56.4634 -59.4608,-205.6999 -105.8419,-283.4462 -103.0471,-79.3891 -239.1831,-103.2154 -356.1191,-157.0663 z m 2.1328,24.6797 c 140.6251,69.7739 319.8034,83.6301 404.9566,234.8404 54.5386,27.8034 125.2046,194.3956 12.4151,130.5529 -13.3886,-114.8229 -103.0102,46.2891 -144.9303,-62.7665 -13.8181,-42.6328 54.2568,-226.9624 -24.3049,-124.0598 -6.7812,229.9936 -301.1661,-122.8839 -211.5897,-60.5325 -80.0993,31.0512 -122.2637,-89.2502 -36.5468,-118.0345 z"
         id="path821"
         inkscape:connector-curvature="0" />
      <g
         id="g848"
         transform="translate(-1.0032052e-5,-4.850866e-5)">
        <path
           inkscape:connector-curvature="0"
           id="path860"
           style="fill:#2f2f2f;fill-opacity:0.97619042;fill-rule:nonzero;stroke:none"
           d="m 3549.21,2397.09 -47.31,-4.31 c -5.65,-0.5 -6.84,2.17 -2.67,6 l 33.75,30.8 c 4.2,3.82 5.54,11.04 2.98,16.11 -59.35,117.93 -144.85,268.73 -255.22,415.63 -3.41,4.54 -9.26,4.77 -13.24,0.73 -50.19,-51.06 -146.52,-107.7 -196.74,-129.23 -5.2,-2.23 -6.4,-0.46 -2.44,3.6 28.87,29.64 113.2,110.46 155.27,182.66 2.85,4.89 2.12,12.52 -1.49,16.9 -8.46,10.28 -17.06,20.52 -25.78,30.69 -3.68,4.31 -10.15,4.76 -14.69,1.35 -12.52,-9.43 -26.75,-17.23 -40.88,-19.1 -5.63,-0.74 -7.6,3.53 -4.83,8.47 5.57,9.89 13.11,25.28 20,41.13 2.27,5.21 0.92,12.86 -2.92,17.04 -13.81,15.04 -27.88,29.89 -42.25,44.49 -3.99,4.04 -9.35,3.2 -12.39,-1.58 -21.63,-34 -62.93,-64.78 -99.89,-81.67 -5.16,-2.36 -6.57,-0.45 -3.4,4.25 17.58,25.99 44.75,80.37 51.06,129.91 0.71,5.63 -2.4,13.32 -6.61,17.1 -40.5,36.3 -82.97,70.33 -127.38,101.29 -4.64,3.24 -12.09,3.02 -16.86,-0.03 -16.62,-10.62 -37.13,-18.66 -53.28,-20.86 -5.62,-0.76 -8.88,3.85 -7.92,9.44 3.49,20.2 0.53,41.61 -1.86,53.77 -1.11,5.57 -6.29,12.31 -11.24,15.09 -30.26,17.04 -61.32,32.53 -93.18,46.28 -5.21,2.25 -10.28,-0.5 -11.4,-6.06 -17.75,-87.62 -52.8,-152.57 -79.66,-191.93 -3.2,-4.68 -4.84,-3.94 -3.58,1.59 10.73,46.63 29.12,130.18 28.89,211.65 -0.01,5.67 -4.48,11.77 -9.86,13.54 -74.87,24.67 -153.74,39.4 -236.56,41.59 -5.67,0.15 -7.92,-3.74 -5.05,-8.62 75.88,-128.71 141.92,-276.4 122.47,-419.42 -0.76,-5.62 3.04,-10.7 8.66,-11.48 366.85,-51.66 675.77,-497.56 839.26,-830.19 2.51,-5.09 8.46,-6.84 13.35,-3.96 72.91,42.98 148.99,77.77 226.66,103.89 5.38,1.81 8.07,7.51 5.95,12.76 -10.82,26.82 -31.96,77.15 -63.05,142.35 -2.44,5.13 -9.01,8.85 -14.67,8.34" />
        <path
           inkscape:connector-curvature="0"
           id="path862"
           style="fill:#2f2f2f;fill-opacity:0.97619042;fill-rule:nonzero;stroke:none"
           d="m 1691.92,2956.33 c 66.93,32.25 258.08,95.96 334.18,139.09 4.93,2.8 10.32,9.6 12.46,14.84 42.81,104.7 161.44,130.86 144.59,256.2 -0.76,5.62 -6.08,9.01 -11.57,7.56 -24.01,-6.33 -48.3,-13.75 -72.84,-22.28 -5.36,-1.86 -8.66,-7.9 -7.91,-13.53 2.39,-18.09 0.18,-33.88 -5.77,-46.85 -2.36,-5.16 -6.67,-4.65 -9.39,0.32 -5.71,10.37 -14.05,21.08 -23.39,32.16 -3.66,4.33 -10.94,6.07 -16.18,3.87 -32.99,-13.78 -66.45,-29.61 -100.37,-47.58 -5.02,-2.66 -7.35,-9.11 -5.27,-14.39 19.44,-49.49 34.01,-96.39 36.41,-145.77 0.27,-5.67 -0.6,-5.75 -2.12,-0.29 -12.86,46.27 -45.47,83.77 -77.17,121.97 -3.62,4.37 -10.5,5.58 -15.36,2.67 -46.36,-27.76 -93.55,-59.53 -141.59,-95.57 -4.54,-3.4 -6.01,-10.22 -3.66,-15.39 5.61,-12.33 10.06,-26.14 12.9,-41.73 1.02,-5.58 -1.31,-6.55 -5.33,-2.55 -8.66,8.61 -20.19,17.55 -32.17,25.69 -4.69,3.17 -12.19,2.78 -16.62,-0.75 -18.41,-14.65 -36.91,-29.88 -55.56,-45.82 -4.31,-3.68 -4.76,-10.15 -1.02,-14.42 l 16.73,-19.12 c 3.73,-4.26 2.18,-8.08 -3.47,-8.54 l -26.06,-2.09 c -5.65,-0.45 -6.75,-3.81 -2.35,-7.39 23.07,-18.77 46.97,-34.79 63.02,-56.42 3.38,-4.55 9.77,-6.35 14.88,-3.89" />
        <path
           inkscape:connector-curvature="0"
           id="path864"
           style="fill:#2f2f2f;fill-opacity:0.97619042;fill-rule:nonzero;stroke:none"
           d="m 2172.54,2798.69 c -49.56,140.37 211.44,242.35 162.7,465.06 -1.19,5.54 -0.54,5.78 1.64,0.54 142.47,-343.67 -138.69,-363.78 -159.35,-464.93 -1.14,-5.56 -3.09,-6.02 -4.99,-0.67 z m -502.97,-136.83 c 49.76,21.96 135.04,7.54 182.3,7.68 5.67,0.03 9.85,-3.68 8.41,-9.17 -16.27,-61.77 -129.69,-163.18 -192.54,-16.55 -2.23,5.21 -3.36,15.76 1.83,18.04 z m -602.38,-408.98 c 26.34,59.45 6.97,114.03 -55.04,93.69 -5.39,-1.77 -6.39,-2.9 -11.68,-2.13 -1.818,0.27 -4.38,3.87 -4.786,8.35 -0.512,5.65 3.304,12.97 7.896,16.3 l 16.5,11.99 c 4.58,3.33 12.93,5.97 18.46,4.75 46.66,-10.33 155.95,-21.02 31.84,-135.36 -4.17,-3.84 -5.49,-2.78 -3.19,2.41 z m 1442.88,630 c -31.41,-78.99 -95.67,-149.85 -207.02,-203.7 -5.12,-2.46 -6.03,-1.14 -2.05,2.89 144.48,145.99 274.58,327.11 13.42,717.85 -9.41,14.08 -19.28,28.42 -29.71,43.06 -3.29,4.61 -5.7,3.75 -5.51,-1.92 0.53,-15.75 0.11,-30.89 -1.17,-45.5 -21.63,-250.4 -291.63,-340.16 -201.66,-564 2.11,-5.26 1.34,-5.7 -1.84,-1 -49.55,73.18 -67.33,130.69 -66.2,178.66 0.13,5.67 -3.58,8.2 -8.71,5.76 -137.15,-65.28 -440.49,-154.54 -435.75,-256.32 0.28,-5.66 -3.07,-9.6 -8.74,-9.35 -160.1,7.05 -322.37,-225.48 -465.31,-270.78 -14.13,-4.48 -25.35,-25.77 -29.48,-29.67 -13.78,-12.99 -24.21,-18 -33.46,-18.84 -27.286,-2.49 -74.181,-38.37 -92.564,-58.7 -5.921,-6.55 -14.156,-22.93 -15.781,-31.59 -5.484,-28.85 -0.801,-45.1 0.676,-73.06 0.293,-5.66 -2.918,-13.25 -7.082,-17.09 -13.285,-12.22 -39.258,-37.84 -39.75,-51.85 -1.438,-40.01 76.66,-123.36 101.129,-148.46 3.949,-4.06 11.769,-7.95 17.387,-8.75 l 27.065,-3.87 c 5.61,-0.8 7.09,-4.87 3.3,-9.08 l -6.58,-7.32 c -3.8,-4.21 -3.48,-10.75 0.77,-14.5 16.34,-14.38 54.68,-46.62 73.62,-49.56 10.74,-1.67 35.65,8.06 49.32,13.9 5.22,2.21 12.85,1.13 17.17,-2.54 32.65,-27.61 79.77,-59.21 141.31,10.16 3.76,4.26 10.9,9.58 16.23,11.52 79.41,29.03 214.21,43.59 264.62,42.1 5.67,-0.17 13.53,-3.88 17.94,-7.43 21.78,-17.52 71.27,-47.48 135.15,-68 108.63,-34.86 258.87,-42.36 385.4,84.97 36.3,36.55 70.67,84.13 101.51,145.4 2.55,5.07 1.97,13.01 -1.04,17.81 -55.71,88.75 -76.24,221.54 15.99,373.19 2.95,4.85 4.21,4.29 2.96,-1.24 -19.87,-88.05 -23.32,-297.47 55.6,-371.65 4.14,-3.86 5.98,-10.87 3.66,-16.06 -12.96,-28.95 -54.6,-118.13 -98.97,-172.95 -3.58,-4.4 -2.65,-10.19 2.16,-13.21 108.07,-67.88 179.96,-188.08 179.96,-325.12 0,-140.15 -75.15,-262.7 -187.3,-329.68 -4.86,-2.91 -4.47,-6.45 0.94,-8.14 94.05,-29.28 196.21,-76.83 296.89,-141.43 105.35,-67.58 194.55,-144.44 261.45,-221.13 3.74,-4.281 6.51,-3.172 6.26,2.488 -10.08,256.302 64.41,527.932 229.31,767.162 46.9,68.03 98.88,130.09 154.8,186.04 3.99,4.02 6.26,11.72 4.95,17.24 -49.46,206.17 -206.35,522.74 -389.87,710.37 -3.95,4.06 -3.34,4.85 1.42,1.75 226.56,-148.07 367.96,-410.02 466.76,-640.1 2.24,-5.2 7.57,-6.48 11.95,-2.89 27.1,22.23 54.88,43.15 83.3,62.75 4.68,3.23 6.52,9.95 4.06,15.06 -252.97,529 -579.49,764.9 -799.04,794.71 -5.63,0.76 -11.76,-3.09 -13.85,-8.36" />
      </g>
    </g>
  </g>
</svg>
