<?xml version="1.0" encoding="UTF-8" standalone="no"?>
<svg
   xmlns:dc="http://purl.org/dc/elements/1.1/"
   xmlns:cc="http://creativecommons.org/ns#"
   xmlns:rdf="http://www.w3.org/1999/02/22-rdf-syntax-ns#"
   xmlns:svg="http://www.w3.org/2000/svg"
   xmlns="http://www.w3.org/2000/svg"
   xmlns:sodipodi="http://sodipodi.sourceforge.net/DTD/sodipodi-0.dtd"
   xmlns:inkscape="http://www.inkscape.org/namespaces/inkscape"
   viewBox="0 0 200 250.00001"
   sodipodi:docname="file-format.svg"
   inkscape:version="1.0beta2 (2b71d25d45, 2019-12-03)"
   height="250"
   width="200"
   id="svg2"
   version="1.1">
  <metadata
     id="metadata8">
    <rdf:RDF>
      <cc:Work
         rdf:about="">
        <dc:format>image/svg+xml</dc:format>
        <dc:type
           rdf:resource="http://purl.org/dc/dcmitype/StillImage" />
        <dc:title></dc:title>
        <dc:date>2019</dc:date>
        <dc:creator>
          <cc:Agent>
            <dc:title>Cristian Pozzessere &lt; ilnanny &gt;</dc:title>
          </cc:Agent>
        </dc:creator>
        <dc:subject>
          <rdf:Bag>
            <rdf:li>ilnanny</rdf:li>
            <rdf:li>inkscape</rdf:li>
            <rdf:li>vectorart</rdf:li>
            <rdf:li>svgfiles</rdf:li>
            <rdf:li>wallpapers</rdf:li>
            <rdf:li>icons</rdf:li>
            <rdf:li>patterns</rdf:li>
          </rdf:Bag>
        </dc:subject>
        <dc:description>..when I have nothing to do, I scribble and have fun with inkscape.</dc:description>
        <dc:contributor>
          <cc:Agent>
            <dc:title>In the night, alone like a dog.</dc:title>
          </cc:Agent>
        </dc:contributor>
        <cc:license
           rdf:resource="http://creativecommons.org/licenses/by-sa/4.0/" />
        <dc:coverage>Italy</dc:coverage>
      </cc:Work>
      <cc:License
         rdf:about="http://creativecommons.org/licenses/by-sa/4.0/">
        <cc:permits
           rdf:resource="http://creativecommons.org/ns#Reproduction" />
        <cc:permits
           rdf:resource="http://creativecommons.org/ns#Distribution" />
        <cc:requires
           rdf:resource="http://creativecommons.org/ns#Notice" />
        <cc:requires
           rdf:resource="http://creativecommons.org/ns#Attribution" />
        <cc:permits
           rdf:resource="http://creativecommons.org/ns#DerivativeWorks" />
        <cc:requires
           rdf:resource="http://creativecommons.org/ns#ShareAlike" />
      </cc:License>
    </rdf:RDF>
  </metadata>
  <defs
     id="defs6">
    <clipPath
       id="clipPath214"
       clipPathUnits="userSpaceOnUse">
      <path
         inkscape:connector-curvature="0"
         id="path212"
         d="m 342.622,676.769 h 42.789 v -27.212 h -42.789 z" />
    </clipPath>
    <clipPath
       id="clipPath264"
       clipPathUnits="userSpaceOnUse">
      <path
         inkscape:connector-curvature="0"
         id="path262"
         d="m 524.361,676.771 h 43.2 v -27.212 h -43.2 z" />
    </clipPath>
    <clipPath
       id="clipPath318"
       clipPathUnits="userSpaceOnUse">
      <path
         inkscape:connector-curvature="0"
         id="path316"
         d="m 524.357,473.399 h 61.909 v -24.472 h -61.909 z" />
    </clipPath>
    <clipPath
       id="clipPath368"
       clipPathUnits="userSpaceOnUse">
      <path
         inkscape:connector-curvature="0"
         id="path366"
         d="m 344.44,474.769 h 52.168 V 447.557 H 344.44 Z" />
    </clipPath>
    <clipPath
       id="clipPath410"
       clipPathUnits="userSpaceOnUse">
      <path
         inkscape:connector-curvature="0"
         id="path408"
         d="m 524.361,272.773 h 53.266 v -27.212 h -53.266 z" />
    </clipPath>
    <clipPath
       id="clipPath460"
       clipPathUnits="userSpaceOnUse">
      <path
         inkscape:connector-curvature="0"
         id="path458"
         d="M 168.305,272.77 H 208.04 V 245.557 H 168.305 Z" />
    </clipPath>
    <clipPath
       id="clipPath506"
       clipPathUnits="userSpaceOnUse">
      <path
         inkscape:connector-curvature="0"
         id="path504"
         d="m 344.44,272.77 h 52.542 V 245.557 H 344.44 Z" />
    </clipPath>
    <clipPath
       id="clipPath554"
       clipPathUnits="userSpaceOnUse">
      <path
         inkscape:connector-curvature="0"
         id="path552"
         d="m 168.305,474.769 h 44.704 v -27.212 h -44.704 z" />
    </clipPath>
    <clipPath
       clipPathUnits="userSpaceOnUse"
       id="clipPath214-3">
      <path
         d="m 342.622,676.769 h 42.789 v -27.212 h -42.789 z"
         id="path212-6"
         inkscape:connector-curvature="0" />
    </clipPath>
    <clipPath
       clipPathUnits="userSpaceOnUse"
       id="clipPath264-7">
      <path
         d="m 524.361,676.771 h 43.2 v -27.212 h -43.2 z"
         id="path262-5"
         inkscape:connector-curvature="0" />
    </clipPath>
    <clipPath
       clipPathUnits="userSpaceOnUse"
       id="clipPath318-3">
      <path
         d="m 524.357,473.399 h 61.909 v -24.472 h -61.909 z"
         id="path316-5"
         inkscape:connector-curvature="0" />
    </clipPath>
    <clipPath
       clipPathUnits="userSpaceOnUse"
       id="clipPath368-6">
      <path
         d="m 344.44,474.769 h 52.168 V 447.557 H 344.44 Z"
         id="path366-2"
         inkscape:connector-curvature="0" />
    </clipPath>
    <clipPath
       clipPathUnits="userSpaceOnUse"
       id="clipPath410-9">
      <path
         d="m 524.361,272.773 h 53.266 v -27.212 h -53.266 z"
         id="path408-1"
         inkscape:connector-curvature="0" />
    </clipPath>
    <clipPath
       clipPathUnits="userSpaceOnUse"
       id="clipPath460-2">
      <path
         d="M 168.305,272.77 H 208.04 V 245.557 H 168.305 Z"
         id="path458-7"
         inkscape:connector-curvature="0" />
    </clipPath>
    <clipPath
       clipPathUnits="userSpaceOnUse"
       id="clipPath506-0">
      <path
         d="m 344.44,272.77 h 52.542 V 245.557 H 344.44 Z"
         id="path504-9"
         inkscape:connector-curvature="0" />
    </clipPath>
    <clipPath
       clipPathUnits="userSpaceOnUse"
       id="clipPath554-3">
      <path
         d="m 168.305,474.769 h 44.704 v -27.212 h -44.704 z"
         id="path552-6"
         inkscape:connector-curvature="0" />
    </clipPath>
  </defs>
  <sodipodi:namedview
     inkscape:document-rotation="0"
     inkscape:window-maximized="1"
     inkscape:window-y="21"
     inkscape:window-x="0"
     inkscape:current-layer="g2174"
     inkscape:cy="99.259974"
     inkscape:cx="195.09995"
     inkscape:zoom="2.1976879"
     inkscape:showpageshadow="false"
     units="px"
     showgrid="false"
     id="namedview4"
     inkscape:window-height="1027"
     inkscape:window-width="1920"
     inkscape:pageshadow="2"
     inkscape:pageopacity="0"
     guidetolerance="10"
     gridtolerance="10"
     objecttolerance="10"
     borderopacity="1"
     bordercolor="#666666"
     pagecolor="#ffffff" />
  <g
     transform="translate(10.747042,-48.393133)"
     id="g2174">
    <rect
       y="48.393131"
       x="-10.747042"
       height="250"
       width="200"
       id="rect2856"
       style="fill:#d5dee5;fill-opacity:1;stroke:none;stroke-width:1.60761;stroke-miterlimit:4;stroke-dasharray:none;stroke-opacity:1" />
    <g
       transform="matrix(0.95026995,0,0,0.95026995,-275.5558,-319.54486)"
       id="g2434">
      <g
         transform="matrix(0.27347866,0,0,0.27347866,278.28009,352.03655)"
         style="stroke:#ffffff;stroke-width:0.3;stroke-miterlimit:4;stroke-dasharray:none;stroke-opacity:1"
         id="g2262">
        <text
           y="248.50041"
           x="53.462379"
           id="text174"
           style="font-variant:normal;font-weight:600;font-stretch:normal;font-size:35.0257px;font-family:'Open Sans Semibold';-inkscape-font-specification:OpenSans-Semibold;writing-mode:lr-tb;fill:#ffffff;fill-opacity:1;fill-rule:nonzero;stroke:#ffffff;stroke-width:0.3;stroke-miterlimit:4;stroke-dasharray:none;stroke-opacity:1"
           mask="none"
           clip-path="none"><tspan
             style="stroke:#ffffff;stroke-width:0.3;stroke-miterlimit:4;stroke-dasharray:none;stroke-opacity:1"
             id="tspan172"
             sodipodi:role="line"
             y="248.50041"
             x="53.462379 73.882347 96.298775">EPS</tspan></text>
        <path
           inkscape:connector-curvature="0"
           id="path146"
           style="fill:#f9f9f9;fill-opacity:1;fill-rule:nonzero;stroke:#ffffff;stroke-width:0.3;stroke-miterlimit:4;stroke-dasharray:none;stroke-opacity:1"
           d="M 35.057631,425.99206 H 215.09127 V 263.43747 H 35.057631 Z" />
        <path
           d="m 215.09083,269.67295 v -9.91911 H 156.28877 V 200.95032 H 35.057191 v 68.72263 z"
           style="fill:#f1a02e;fill-opacity:1;fill-rule:nonzero;stroke:#ffffff;stroke-width:0.3;stroke-miterlimit:4;stroke-dasharray:none;stroke-opacity:1"
           id="path150"
           inkscape:connector-curvature="0" />
        <path
           d="m 160.2765,200.9509 v 54.80949 h 54.81389 z"
           style="fill:#f1a02e;fill-opacity:1;fill-rule:nonzero;stroke:#ffffff;stroke-width:0.3;stroke-miterlimit:4;stroke-dasharray:none;stroke-opacity:1"
           id="path154"
           inkscape:connector-curvature="0" />
        <text
           style="font-variant:normal;font-weight:600;font-stretch:normal;font-size:35.0257px;font-family:'Open Sans Semibold';-inkscape-font-specification:OpenSans-Semibold;writing-mode:lr-tb;opacity:0.5;fill:#231f20;fill-opacity:1;fill-rule:nonzero;stroke:#ffffff;stroke-width:0.3;stroke-miterlimit:4;stroke-dasharray:none;stroke-opacity:1"
           id="text166"
           x="53.990086"
           y="249.02731"><tspan
             x="53.990086 74.410049 96.826477"
             y="249.02731"
             sodipodi:role="line"
             id="tspan164"
             style="stroke:#ffffff;stroke-width:0.3;stroke-miterlimit:4;stroke-dasharray:none;stroke-opacity:1">EPS</tspan></text>
        <path
           inkscape:connector-curvature="0"
           id="path184"
           style="fill:#f1a02e;fill-opacity:1;fill-rule:nonzero;stroke:#ffffff;stroke-width:0.3;stroke-miterlimit:4;stroke-dasharray:none;stroke-opacity:1"
           d="M 79.684088,356.89261 H 66.319315 v 13.3677 h 13.364773 z m -3.818087,9.55401 h -5.727132 v -5.73885 h 5.727132 z" />
        <path
           inkscape:connector-curvature="0"
           id="path186"
           style="fill:#f1a02e;fill-opacity:1;fill-rule:nonzero;stroke:#ffffff;stroke-width:0.3;stroke-miterlimit:4;stroke-dasharray:none;stroke-opacity:1"
           d="m 183.81198,356.89261 h -13.36916 v 13.3677 h 13.36916 z m -3.81809,9.55401 h -5.73299 v -5.73885 h 5.73299 z" />
        <path
           inkscape:connector-curvature="0"
           id="path188"
           style="fill:#f1a02e;fill-opacity:1;fill-rule:nonzero;stroke:#ffffff;stroke-width:0.3;stroke-miterlimit:4;stroke-dasharray:none;stroke-opacity:1"
           d="m 131.73997,322.40374 h -13.36476 v -13.36477 h 13.36476 z" />
        <path
           d="m 74.412071,359.22305 c 4.338609,-24.04925 25.37034,-42.36551 50.646829,-42.36551 25.27943,0 46.31117,18.31626 50.65564,42.36551 h 1.9193 c -4.35327,-25.10201 -26.24569,-44.27016 -52.57494,-44.27016 -26.32632,0 -48.217263,19.16815 -52.571994,44.27016 z"
           style="fill:#f1a02e;fill-opacity:1;fill-rule:nonzero;stroke:#ffffff;stroke-width:0.3;stroke-miterlimit:4;stroke-dasharray:none;stroke-opacity:1"
           id="path192"
           inkscape:connector-curvature="0" />
        <path
           d="m 179.4901,313.27141 c -1.0293,0 -1.74923,0.75218 -2.02635,1.69058 H 72.662855 c -0.275656,-0.9384 -1.002907,-1.69058 -2.03221,-1.69058 -1.250702,0 -2.263873,1.0117 -2.263873,2.26387 0,1.25364 1.013171,2.26681 2.263873,2.26681 1.029303,0 1.756554,-0.74925 2.03221,-1.69057 H 177.46375 c 0.27712,0.94132 0.99705,1.69057 2.02635,1.69057 1.25657,0 2.26388,-1.01317 2.26388,-2.26681 0,-1.25217 -1.00731,-2.26387 -2.26388,-2.26387"
           style="fill:#f1a02e;fill-opacity:1;fill-rule:nonzero;stroke:#ffffff;stroke-width:0.3;stroke-miterlimit:4;stroke-dasharray:none;stroke-opacity:1"
           id="path196"
           inkscape:connector-curvature="0" />
      </g>
      <g
         transform="matrix(0.27347866,0,0,0.27347866,278.28009,352.03655)"
         style="stroke:#ffffff;stroke-width:0.3;stroke-miterlimit:4;stroke-dasharray:none;stroke-opacity:1"
         id="g2276">
        <path
           inkscape:connector-curvature="0"
           id="path198"
           style="fill:#f9f9f9;fill-opacity:1;fill-rule:nonzero;stroke:#ffffff;stroke-width:0.3;stroke-miterlimit:4;stroke-dasharray:none;stroke-opacity:1"
           d="M 293.30781,425.99206 H 473.34144 V 264.28348 H 293.30781 Z" />
        <path
           d="m 473.34086,269.67295 v -9.91911 H 414.5388 V 200.95032 H 293.30721 v 68.72263 z"
           style="fill:#78c5ee;fill-opacity:1;fill-rule:nonzero;stroke:#ffffff;stroke-width:0.3;stroke-miterlimit:4;stroke-dasharray:none;stroke-opacity:1"
           id="path202"
           inkscape:connector-curvature="0" />
        <path
           d="m 418.53298,200.9509 v 54.80949 H 473.341 Z"
           style="fill:#78c5ee;fill-opacity:1;fill-rule:nonzero;stroke:#ffffff;stroke-width:0.3;stroke-miterlimit:4;stroke-dasharray:none;stroke-opacity:1"
           id="path206"
           inkscape:connector-curvature="0" />
        <g
           style="stroke:#ffffff;stroke-width:0.204605;stroke-miterlimit:4;stroke-dasharray:none;stroke-opacity:1"
           transform="matrix(1.4662391,0,0,-1.4662391,-192.78566,1211.3186)"
           id="g222">
          <g
             style="stroke:#ffffff;stroke-width:0.204605;stroke-miterlimit:4;stroke-dasharray:none;stroke-opacity:1"
             clip-path="url(#clipPath214-3)"
             opacity="0.5"
             id="g220">
            <text
               transform="matrix(0.99999163,0,0,-1,344.4399,656.2988)"
               style="font-variant:normal;font-weight:600;font-stretch:normal;font-size:23.8882px;font-family:'Open Sans Semibold';-inkscape-font-specification:OpenSans-Semibold;writing-mode:lr-tb;fill:#231f20;fill-opacity:1;fill-rule:nonzero;stroke:#ffffff;stroke-width:0.204606;stroke-miterlimit:4;stroke-dasharray:none;stroke-opacity:1"
               id="text218"><tspan
                 x="0 7.7397766 23.028225"
                 y="0"
                 sodipodi:role="line"
                 id="tspan216">JPG</tspan></text>
          </g>
        </g>
        <text
           y="248.50041"
           x="311.71921"
           id="text226"
           style="font-variant:normal;font-weight:600;font-stretch:normal;font-size:35.0257px;font-family:'Open Sans Semibold';-inkscape-font-specification:OpenSans-Semibold;writing-mode:lr-tb;fill:#ffffff;fill-opacity:1;fill-rule:nonzero;stroke:#ffffff;stroke-width:0.3;stroke-miterlimit:4;stroke-dasharray:none;stroke-opacity:1"
           mask="none"
           clip-path="none"><tspan
             style="stroke:#ffffff;stroke-width:0.3;stroke-miterlimit:4;stroke-dasharray:none;stroke-opacity:1"
             id="tspan224"
             sodipodi:role="line"
             y="248.50041"
             x="311.71921 323.0675 345.48395">JPG</tspan></text>
        <path
           d="m 346.43522,376.61544 v -15.76941 l 21.71207,-11.84428 22.77656,14.3017 36.67651,-20.1432 v 33.45519 z m 81.16514,-50.97968 V 339.002 l -36.55481,20.07281 -22.7707,-14.29436 -21.83963,11.91319 v -31.05788 z m -84.81314,54.62328 h 88.4582 v -58.26102 h -88.4582 z"
           style="fill:#78c5ee;fill-opacity:1;fill-rule:nonzero;stroke:#ffffff;stroke-width:0.3;stroke-miterlimit:4;stroke-dasharray:none;stroke-opacity:1"
           id="path238"
           inkscape:connector-curvature="0" />
        <path
           d="m 393.90472,332.82151 c 3.22865,0 5.85322,2.62603 5.85322,5.85763 0,3.23159 -2.62457,5.86055 -5.85322,5.86055 -3.2404,0 -5.86497,-2.62896 -5.86497,-5.86055 0,-3.2316 2.62457,-5.85763 5.86497,-5.85763 m 0,15.36326 c 5.233,0 9.49829,-4.2697 9.49829,-9.50563 0,-5.24034 -4.26529,-9.50123 -9.49829,-9.50123 -5.23448,0 -9.50857,4.26089 -9.50857,9.50123 0,5.23593 4.27409,9.50563 9.50857,9.50563"
           style="fill:#78c5ee;fill-opacity:1;fill-rule:nonzero;stroke:#ffffff;stroke-width:0.3;stroke-miterlimit:4;stroke-dasharray:none;stroke-opacity:1"
           id="path242"
           inkscape:connector-curvature="0" />
        <path
           d="m 334.68888,312.91351 v 58.25807 h 3.63774 v -3.64067 -15.7694 -0.0132 -4.14945 0.01 -31.05641 h 81.171 3.63774 v -3.6392 z"
           style="fill:#78c5ee;fill-opacity:1;fill-rule:nonzero;stroke:#ffffff;stroke-width:0.3;stroke-miterlimit:4;stroke-dasharray:none;stroke-opacity:1"
           id="path246"
           inkscape:connector-curvature="0" />
      </g>
      <g
         transform="matrix(0.27347866,0,0,0.27347866,278.28009,352.03655)"
         style="stroke:#ffffff;stroke-width:0.3;stroke-miterlimit:4;stroke-dasharray:none;stroke-opacity:1"
         id="g2291">
        <path
           inkscape:connector-curvature="0"
           id="path248"
           style="fill:#f9f9f9;fill-opacity:1;fill-rule:nonzero;stroke:#ffffff;stroke-width:0.3;stroke-miterlimit:4;stroke-dasharray:none;stroke-opacity:1"
           d="M 557.12088,425.99206 H 737.14865 V 262.45802 H 557.12088 Z" />
        <path
           d="m 737.14924,269.67295 v -9.91911 H 678.34719 V 200.95032 H 557.12146 v 68.72263 z"
           style="fill:#ce57a0;fill-opacity:1;fill-rule:nonzero;stroke:#ffffff;stroke-width:0.3;stroke-miterlimit:4;stroke-dasharray:none;stroke-opacity:1"
           id="path252"
           inkscape:connector-curvature="0" />
        <path
           d="m 682.34151,200.9509 v 54.80949 h 54.80802 z"
           style="fill:#ce57a0;fill-opacity:1;fill-rule:nonzero;stroke:#ffffff;stroke-width:0.3;stroke-miterlimit:4;stroke-dasharray:none;stroke-opacity:1"
           id="path256"
           inkscape:connector-curvature="0" />
        <g
           style="stroke:#ffffff;stroke-width:0.204605;stroke-miterlimit:4;stroke-dasharray:none;stroke-opacity:1"
           transform="matrix(1.4662391,0,0,-1.4662391,-192.78566,1211.3186)"
           id="g272">
          <g
             style="stroke:#ffffff;stroke-width:0.204605;stroke-miterlimit:4;stroke-dasharray:none;stroke-opacity:1"
             clip-path="url(#clipPath264-7)"
             opacity="0.5"
             id="g270">
            <text
               transform="matrix(0.99999163,0,0,-1,524.3618,656.3008)"
               style="font-variant:normal;font-weight:600;font-stretch:normal;font-size:23.8882px;font-family:'Open Sans Semibold';-inkscape-font-specification:OpenSans-Semibold;writing-mode:lr-tb;fill:#231f20;fill-opacity:1;fill-rule:nonzero;stroke:#ffffff;stroke-width:0.204606;stroke-miterlimit:4;stroke-dasharray:none;stroke-opacity:1"
               id="text268"><tspan
                 x="0 15.742324 29.478039"
                 y="0"
                 sodipodi:role="line"
                 id="tspan266">CSS</tspan></text>
          </g>
        </g>
        <text
           y="248.49747"
           x="575.52881"
           id="text276"
           style="font-variant:normal;font-weight:600;font-stretch:normal;font-size:35.0257px;font-family:'Open Sans Semibold';-inkscape-font-specification:OpenSans-Semibold;writing-mode:lr-tb;fill:#ffffff;fill-opacity:1;fill-rule:nonzero;stroke:#ffffff;stroke-width:0.3;stroke-miterlimit:4;stroke-dasharray:none;stroke-opacity:1"
           mask="none"
           clip-path="none"><tspan
             style="stroke:#ffffff;stroke-width:0.3;stroke-miterlimit:4;stroke-dasharray:none;stroke-opacity:1"
             id="tspan274"
             sodipodi:role="line"
             y="248.49747"
             x="575.52881 598.61078 618.75055">CSS</tspan></text>
        <path
           d="m 659.96128,365.73814 c 0,1.69497 -1.37826,3.06297 -3.06591,3.06297 -1.69057,0 -3.0659,-1.368 -3.0659,-3.06297 0,-1.69058 1.37533,-3.0615 3.0659,-3.0615 1.68765,0 3.06591,1.37092 3.06591,3.0615"
           style="fill:#ce57a0;fill-opacity:1;fill-rule:nonzero;stroke:#ffffff;stroke-width:0.3;stroke-miterlimit:4;stroke-dasharray:none;stroke-opacity:1"
           id="path288"
           inkscape:connector-curvature="0" />
        <path
           d="m 635.61365,365.73814 c 0,1.69497 -1.368,3.06297 -3.06004,3.06297 -1.68471,0 -3.06005,-1.368 -3.06005,-3.06297 0,-1.69058 1.37534,-3.0615 3.06005,-3.0615 1.69204,0 3.06004,1.37092 3.06004,3.0615"
           style="fill:#ce57a0;fill-opacity:1;fill-rule:nonzero;stroke:#ffffff;stroke-width:0.3;stroke-miterlimit:4;stroke-dasharray:none;stroke-opacity:1"
           id="path292"
           inkscape:connector-curvature="0" />
        <path
           d="m 609.20991,370.03378 c 0,2.76679 0.79469,4.83126 2.41342,6.20073 1.61141,1.36506 4.35327,2.09379 8.21974,2.17296 v 3.69933 c -5.27846,0 -9.0379,-1.01465 -11.27097,-3.04978 -2.23163,-2.03074 -3.35183,-5.16263 -3.35183,-9.38686 v -13.69468 c 0,-5.55265 -3.11283,-8.38542 -9.34875,-8.49099 v -3.25359 c 3.31517,-0.0528 5.69634,-0.74484 7.14939,-2.0674 1.4633,-1.32841 2.19936,-3.33275 2.19936,-6.01744 v -14.22545 c 0,-8.09511 4.87524,-12.22843 14.6228,-12.38532 v 3.6524 c -3.72865,0.13636 -6.43972,0.92079 -8.13029,2.35771 -1.67151,1.43545 -2.50287,3.5615 -2.50287,6.37521 v 12.39998 c 0,3.52045 -0.6041,6.14795 -1.79321,7.8825 -1.18766,1.73163 -3.1187,2.8841 -5.76966,3.453 v 0.3255 c 2.63043,0.54398 4.54388,1.67005 5.74912,3.39141 1.20965,1.72284 1.81375,4.2477 1.81375,7.58047 z"
           style="fill:#ce57a0;fill-opacity:1;fill-rule:nonzero;stroke:#ffffff;stroke-width:0.3;stroke-miterlimit:4;stroke-dasharray:none;stroke-opacity:1"
           id="path296"
           inkscape:connector-curvature="0" />
        <path
           d="m 682.16528,356.95361 c 0,-3.33277 0.60555,-5.85763 1.80347,-7.58045 1.20378,-1.72138 3.11722,-2.84745 5.75353,-3.39142 v -0.32697 c -2.63631,-0.53811 -4.54975,-1.67592 -5.75353,-3.41194 -1.19792,-1.73163 -1.80347,-4.37819 -1.80347,-7.92356 v -12.39851 c 0,-2.78146 -0.83136,-4.90604 -2.49701,-6.35615 -1.67151,-1.44718 -4.38552,-2.24042 -8.14642,-2.37678 v -3.65239 c 4.70956,0 8.32677,1.04982 10.85163,3.14654 2.51167,2.09966 3.7697,5.18169 3.7697,9.23878 v 14.22545 c 0,2.70961 0.73752,4.71983 2.21696,6.03211 1.47357,1.31815 3.85034,1.99995 7.13324,2.05274 v 3.25357 c -6.22565,0.10557 -9.3502,2.93835 -9.3502,8.491 v 13.69467 c 0,4.19784 -1.10847,7.31947 -3.34596,9.36927 -2.23895,2.04394 -5.99838,3.06737 -11.27537,3.06737 v -3.69932 c 3.81368,-0.0528 6.54382,-0.76684 8.18747,-2.13631 1.6334,-1.36653 2.45596,-3.44567 2.45596,-6.23738 z"
           style="fill:#ce57a0;fill-opacity:1;fill-rule:nonzero;stroke:#ffffff;stroke-width:0.3;stroke-miterlimit:4;stroke-dasharray:none;stroke-opacity:1"
           id="path300"
           inkscape:connector-curvature="0" />
      </g>
      <g
         transform="matrix(0.27347866,0,0,0.27347866,278.28009,352.03655)"
         style="stroke:#ffffff;stroke-width:0.3;stroke-miterlimit:4;stroke-dasharray:none;stroke-opacity:1"
         id="g2234">
        <path
           inkscape:connector-curvature="0"
           id="path302"
           style="fill:#f9f9f9;fill-opacity:1;fill-rule:nonzero;stroke:#ffffff;stroke-width:0.3;stroke-miterlimit:4;stroke-dasharray:none;stroke-opacity:1"
           d="M 557.12088,722.16944 H 737.14865 V 559.33919 H 557.12088 Z" />
        <path
           d="M 737.14924,565.85398 V 555.9334 H 678.34719 V 497.13135 H 557.12146 v 68.72263 z"
           style="fill:#005e9c;fill-opacity:1;fill-rule:nonzero;stroke:#ffffff;stroke-width:0.3;stroke-miterlimit:4;stroke-dasharray:none;stroke-opacity:1"
           id="path306"
           inkscape:connector-curvature="0" />
        <path
           d="m 682.34151,497.1312 v 54.80949 h 54.80802 z"
           style="fill:#005e9c;fill-opacity:1;fill-rule:nonzero;stroke:#ffffff;stroke-width:0.3;stroke-miterlimit:4;stroke-dasharray:none;stroke-opacity:1"
           id="path310"
           inkscape:connector-curvature="0" />
        <g
           style="stroke:#ffffff;stroke-width:0.204605;stroke-miterlimit:4;stroke-dasharray:none;stroke-opacity:1"
           transform="matrix(1.4662391,0,0,-1.4662391,-192.78566,1211.3186)"
           id="g326">
          <g
             style="stroke:#ffffff;stroke-width:0.204605;stroke-miterlimit:4;stroke-dasharray:none;stroke-opacity:1"
             clip-path="url(#clipPath318-3)"
             opacity="0.5"
             id="g324">
            <text
               transform="matrix(0.99999069,0,0,-1,524.3579,454.9902)"
               style="font-variant:normal;font-weight:600;font-stretch:normal;font-size:21.4829px;font-family:'Open Sans Semibold';-inkscape-font-specification:OpenSans-Semibold;writing-mode:lr-tb;fill:#231f20;fill-opacity:1;fill-rule:nonzero;stroke:#ffffff;stroke-width:0.204606;stroke-miterlimit:4;stroke-dasharray:none;stroke-opacity:1"
               id="text322"><tspan
                 x="0 16.670731 29.367125 49.732914"
                 y="0"
                 sodipodi:role="line"
                 id="tspan320">HTML</tspan></text>
          </g>
        </g>
        <text
           y="543.66559"
           x="575.52325"
           id="text330"
           style="font-variant:normal;font-weight:600;font-stretch:normal;font-size:31.4989px;font-family:'Open Sans Semibold';-inkscape-font-specification:OpenSans-Semibold;writing-mode:lr-tb;fill:#ffffff;fill-opacity:1;fill-rule:nonzero;stroke:#ffffff;stroke-width:0.3;stroke-miterlimit:4;stroke-dasharray:none;stroke-opacity:1"
           mask="none"
           clip-path="none"><tspan
             style="stroke:#ffffff;stroke-width:0.3;stroke-miterlimit:4;stroke-dasharray:none;stroke-opacity:1"
             id="tspan328"
             sodipodi:role="line"
             y="543.66559"
             x="575.52325 599.96643 618.58221 648.44324">HTML</tspan></text>
        <path
           d="M 627.87147,660.75718 593.91483,642.9761 v -2.6143 l 33.95664,-20.26343 v 4.05562 l -29.48021,17.32215 29.48021,15.17118 z"
           style="fill:#005e9c;fill-opacity:1;fill-rule:nonzero;stroke:#ffffff;stroke-width:0.3;stroke-miterlimit:4;stroke-dasharray:none;stroke-opacity:1"
           id="path342"
           inkscape:connector-curvature="0" />
        <path
           d="m 657.80342,609.62357 -19.51711,62.5043 H 634.543 l 19.49512,-62.5043 z"
           style="fill:#005e9c;fill-opacity:1;fill-rule:nonzero;stroke:#ffffff;stroke-width:0.3;stroke-miterlimit:4;stroke-dasharray:none;stroke-opacity:1"
           id="path346"
           inkscape:connector-curvature="0" />
        <path
           d="m 664.47452,656.64776 29.4758,-15.17264 -29.4758,-17.32069 v -4.05708 l 33.95516,20.26489 v 2.6143 l -33.95516,17.78108 z"
           style="fill:#005e9c;fill-opacity:1;fill-rule:nonzero;stroke:#ffffff;stroke-width:0.3;stroke-miterlimit:4;stroke-dasharray:none;stroke-opacity:1"
           id="path350"
           inkscape:connector-curvature="0" />
      </g>
      <path
         d="m 358.49352,549.53449 h 49.23537 v -44.49492 h -49.23537 z"
         style="fill:#f9f9f9;fill-opacity:1;fill-rule:nonzero;stroke:#ffffff;stroke-width:0.0820436;stroke-miterlimit:4;stroke-dasharray:none;stroke-opacity:1"
         id="path352"
         inkscape:connector-curvature="0" />
      <path
         inkscape:connector-curvature="0"
         id="path356"
         style="fill:#8252b1;fill-opacity:1;fill-rule:nonzero;stroke:#ffffff;stroke-width:0.0820436;stroke-miterlimit:4;stroke-dasharray:none;stroke-opacity:1"
         d="m 407.72872,506.78554 v -2.71306 h -16.08111 v -16.0811 h -33.15424 v 18.79416 z" />
      <path
         inkscape:connector-curvature="0"
         id="path360"
         style="fill:#8252b1;fill-opacity:1;fill-rule:nonzero;stroke:#ffffff;stroke-width:0.0820436;stroke-miterlimit:4;stroke-dasharray:none;stroke-opacity:1"
         d="m 392.73994,487.99133 v 14.98923 h 14.98881 z" />
      <g
         style="stroke:#ffffff;stroke-width:0.204605;stroke-miterlimit:4;stroke-dasharray:none;stroke-opacity:1"
         id="g376"
         transform="matrix(0.40098511,0,0,-0.40098511,225.55734,683.30635)">
        <g
           style="stroke:#ffffff;stroke-width:0.204605;stroke-miterlimit:4;stroke-dasharray:none;stroke-opacity:1"
           id="g374"
           opacity="0.5"
           clip-path="url(#clipPath368-6)">
          <text
             id="text372"
             style="font-variant:normal;font-weight:600;font-stretch:normal;font-size:23.8882px;font-family:'Open Sans Semibold';-inkscape-font-specification:OpenSans-Semibold;writing-mode:lr-tb;fill:#231f20;fill-opacity:1;fill-rule:nonzero;stroke:#ffffff;stroke-width:0.204606;stroke-miterlimit:4;stroke-dasharray:none;stroke-opacity:1"
             transform="matrix(0.99999163,0,0,-1,344.4399,454.2988)"><tspan
               id="tspan370"
               sodipodi:role="line"
               y="0"
               x="0 22.646013 37.934464">MP3</tspan></text>
        </g>
      </g>
      <text
         clip-path="none"
         mask="none"
         style="font-variant:normal;font-weight:600;font-stretch:normal;font-size:9.57878px;font-family:'Open Sans Semibold';-inkscape-font-specification:OpenSans-Semibold;writing-mode:lr-tb;fill:#ffffff;fill-opacity:1;fill-rule:nonzero;stroke:#ffffff;stroke-width:0.0820436;stroke-miterlimit:4;stroke-dasharray:none;stroke-opacity:1"
         id="text380"
         x="363.52872"
         y="500.99484"><tspan
           x="363.52872 372.60934 378.73978"
           y="500.99484"
           sodipodi:role="line"
           id="tspan378"
           style="stroke:#ffffff;stroke-width:0.0820436;stroke-miterlimit:4;stroke-dasharray:none;stroke-opacity:1">MP3</tspan></text>
      <path
         inkscape:connector-curvature="0"
         id="path392"
         style="fill:#8252b1;fill-opacity:1;fill-rule:evenodd;stroke:#ffffff;stroke-width:0.0820436;stroke-miterlimit:4;stroke-dasharray:none;stroke-opacity:1"
         d="m 387.25458,533.2721 c -0.5758,2.63205 -4.59568,3.98098 -7.2879,3.1746 l 1.64926,-6.06531 c 1.37497,0.35688 2.0811,1.51133 2.09554,2.17254 0.0205,0.79195 -0.16802,1.48204 -0.97439,1.93476 -0.80359,0.45712 -0.92989,0.45712 -0.92989,0.45712 l 0.0726,0.19407 c 0,0 1.9159,-0.009 2.86744,-2.01896 0.96437,-1.9969 -1.05138,-4.20714 -2.60479,-4.65384 l 0.80477,-2.95565 c 0.71776,0.69169 1.49367,1.4283 2.29724,2.33052 1.47684,1.6661 2.46726,3.31975 2.01014,5.43015 m -7.94592,2.91916 c -0.89941,-0.42063 -1.55623,-1.1456 -1.74348,-2.22747 -0.38455,-2.13765 1.29518,-3.69227 3.22111,-3.68385 0.0392,0 0.0914,0 0.13032,0.006 z m 0.80037,-18.23038 c -0.0987,-1.64484 1.0558,-2.71788 2.1593,-1.39823 1.45758,1.74628 1.29679,4.01746 0.7731,5.95823 -1.41829,-1.01971 -2.8133,-2.95005 -2.9324,-4.56 m 8.17368,10.4625 c -0.77992,-1.71261 -2.54064,-3.36426 -3.93286,-4.73242 -0.47878,-0.47117 -0.64278,-0.67125 -0.70053,-0.73541 0.56259,-2.0735 0.98602,-3.59643 0.53212,-5.81549 -1.23104,-5.96385 -4.78737,-4.15943 -4.97302,0.63796 -0.14357,3.68708 1.21819,5.30985 3.15574,7.18327 l -0.9018,3.35222 c -1.34891,-0.22937 -2.65854,0.0245 -3.86951,0.97159 -1.40986,1.11354 -1.65366,3.18462 -1.37778,4.22037 0.28429,1.00807 0.92066,2.21584 2.96729,3.13692 l -0.4423,1.63601 c -0.2061,0.77589 -0.18003,1.52293 0.0317,2.17694 0.18124,0.53652 0.4876,1.00968 0.92106,1.38502 0.42504,0.36689 0.96879,0.64276 1.60113,0.7791 3.00058,0.61471 4.03914,-1.59552 2.92239,-2.78805 -0.82965,-0.88137 -2.42917,-0.91625 -3.18784,0.0236 -0.23056,0.28993 -0.3685,0.6424 -0.37412,1.00488 -0.009,0.38134 0.11755,0.74984 0.36089,1.04576 -0.31879,-0.1247 -0.58704,-0.2843 -0.82202,-0.48438 -0.34685,-0.30194 -0.59466,-0.68488 -0.74263,-1.11835 -0.18404,-0.55656 -0.19446,-1.20537 -0.0276,-1.87782 l 0.41943,-1.52613 c 2.12722,0.67724 4.45215,-0.0173 5.11375,-0.33644 3.23115,-1.60113 4.68431,-5.16589 3.32658,-8.1392" />
      <g
         transform="matrix(0.27347866,0,0,0.27347866,278.28009,352.03655)"
         style="stroke:#ffffff;stroke-width:0.3;stroke-miterlimit:4;stroke-dasharray:none;stroke-opacity:1"
         id="g2204">
        <path
           inkscape:connector-curvature="0"
           id="path394"
           style="fill:#f9f9f9;fill-opacity:1;fill-rule:nonzero;stroke:#ffffff;stroke-width:0.3;stroke-miterlimit:4;stroke-dasharray:none;stroke-opacity:1"
           d="M 557.12088,1018.3556 H 737.14865 V 856.63823 H 557.12088 Z" />
        <path
           d="m 737.14924,862.03722 v -9.92351 H 678.34719 V 793.31166 H 557.12146 v 68.72556 z"
           style="fill:#00aeef;fill-opacity:1;fill-rule:nonzero;stroke:#ffffff;stroke-width:0.3;stroke-miterlimit:4;stroke-dasharray:none;stroke-opacity:1"
           id="path398"
           inkscape:connector-curvature="0" />
        <path
           d="M 682.34151,793.31151 V 848.121 h 54.80802 z"
           style="fill:#00aeef;fill-opacity:1;fill-rule:nonzero;stroke:#ffffff;stroke-width:0.3;stroke-miterlimit:4;stroke-dasharray:none;stroke-opacity:1"
           id="path402"
           inkscape:connector-curvature="0" />
        <g
           style="stroke:#ffffff;stroke-width:0.204605;stroke-miterlimit:4;stroke-dasharray:none;stroke-opacity:1"
           transform="matrix(1.4662391,0,0,-1.4662391,-192.78566,1211.3186)"
           id="g418">
          <g
             style="stroke:#ffffff;stroke-width:0.204605;stroke-miterlimit:4;stroke-dasharray:none;stroke-opacity:1"
             clip-path="url(#clipPath410-9)"
             opacity="0.5"
             id="g416">
            <text
               transform="matrix(0.99999163,0,0,-1,524.3618,252.3027)"
               style="font-variant:normal;font-weight:600;font-stretch:normal;font-size:23.8882px;font-family:'Open Sans Semibold';-inkscape-font-specification:OpenSans-Semibold;writing-mode:lr-tb;fill:#231f20;fill-opacity:1;fill-rule:nonzero;stroke:#ffffff;stroke-width:0.204606;stroke-miterlimit:4;stroke-dasharray:none;stroke-opacity:1"
               id="text414"><tspan
                 x="0 18.131144 37.528362"
                 y="0"
                 sodipodi:role="line"
                 id="tspan412">DOC</tspan></text>
          </g>
        </g>
        <text
           y="840.85284"
           x="575.52881"
           id="text422"
           style="font-variant:normal;font-weight:600;font-stretch:normal;font-size:35.0257px;font-family:'Open Sans Semibold';-inkscape-font-specification:OpenSans-Semibold;writing-mode:lr-tb;fill:#ffffff;fill-opacity:1;fill-rule:nonzero;stroke:#ffffff;stroke-width:0.3;stroke-miterlimit:4;stroke-dasharray:none;stroke-opacity:1"
           mask="none"
           clip-path="none"><tspan
             style="stroke:#ffffff;stroke-width:0.3;stroke-miterlimit:4;stroke-dasharray:none;stroke-opacity:1"
             id="tspan420"
             sodipodi:role="line"
             y="840.85284"
             x="575.52881 602.11334 630.5542">DOC</tspan></text>
        <path
           inkscape:connector-curvature="0"
           id="path432"
           style="fill:#00aeef;fill-opacity:1;fill-rule:nonzero;stroke:#ffffff;stroke-width:0.3;stroke-miterlimit:4;stroke-dasharray:none;stroke-opacity:1"
           d="m 604.78684,909.46976 h 88.31893 v -4.3606 h -88.31893 z" />
        <path
           inkscape:connector-curvature="0"
           id="path434"
           style="fill:#00aeef;fill-opacity:1;fill-rule:nonzero;stroke:#ffffff;stroke-width:0.3;stroke-miterlimit:4;stroke-dasharray:none;stroke-opacity:1"
           d="m 604.78684,921.42255 h 88.31893 v -4.36061 h -88.31893 z" />
        <path
           inkscape:connector-curvature="0"
           id="path436"
           style="fill:#00aeef;fill-opacity:1;fill-rule:nonzero;stroke:#ffffff;stroke-width:0.3;stroke-miterlimit:4;stroke-dasharray:none;stroke-opacity:1"
           d="m 604.78684,933.37532 h 88.31893 v -4.35473 h -88.31893 z" />
        <path
           inkscape:connector-curvature="0"
           id="path438"
           style="fill:#00aeef;fill-opacity:1;fill-rule:nonzero;stroke:#ffffff;stroke-width:0.3;stroke-miterlimit:4;stroke-dasharray:none;stroke-opacity:1"
           d="m 604.78684,945.32958 h 88.31893 v -4.34887 h -88.31893 z" />
        <path
           inkscape:connector-curvature="0"
           id="path440"
           style="fill:#00aeef;fill-opacity:1;fill-rule:nonzero;stroke:#ffffff;stroke-width:0.3;stroke-miterlimit:4;stroke-dasharray:none;stroke-opacity:1"
           d="m 604.78684,957.28821 h 88.31893 v -4.35473 h -88.31893 z" />
        <path
           inkscape:connector-curvature="0"
           id="path442"
           style="fill:#00aeef;fill-opacity:1;fill-rule:nonzero;stroke:#ffffff;stroke-width:0.3;stroke-miterlimit:4;stroke-dasharray:none;stroke-opacity:1"
           d="m 604.78684,969.24687 h 46.6572 v -4.3606 h -46.6572 z" />
      </g>
      <g
         transform="matrix(0.27347866,0,0,0.27347866,278.28009,352.03655)"
         style="stroke:#ffffff;stroke-width:0.3;stroke-miterlimit:4;stroke-dasharray:none;stroke-opacity:1"
         id="g2187">
        <path
           inkscape:connector-curvature="0"
           id="path444"
           style="fill:#f9f9f9;fill-opacity:1;fill-rule:nonzero;stroke:#ffffff;stroke-width:0.3;stroke-miterlimit:4;stroke-dasharray:none;stroke-opacity:1"
           d="M 35.057631,1018.3556 H 215.09127 V 855.07962 H 35.057631 Z" />
        <path
           d="m 215.09083,862.03722 v -9.92351 H 156.28877 V 793.31166 H 35.057191 v 68.72556 z"
           style="fill:#f16690;fill-opacity:1;fill-rule:nonzero;stroke:#ffffff;stroke-width:0.3;stroke-miterlimit:4;stroke-dasharray:none;stroke-opacity:1"
           id="path448"
           inkscape:connector-curvature="0" />
        <path
           d="M 160.2765,793.31151 V 848.121 h 54.81389 z"
           style="fill:#f16690;fill-opacity:1;fill-rule:nonzero;stroke:#ffffff;stroke-width:0.3;stroke-miterlimit:4;stroke-dasharray:none;stroke-opacity:1"
           id="path452"
           inkscape:connector-curvature="0" />
        <g
           style="stroke:#ffffff;stroke-width:0.204605;stroke-miterlimit:4;stroke-dasharray:none;stroke-opacity:1"
           transform="matrix(1.4662391,0,0,-1.4662391,-192.78566,1211.3186)"
           id="g468">
          <g
             style="stroke:#ffffff;stroke-width:0.204605;stroke-miterlimit:4;stroke-dasharray:none;stroke-opacity:1"
             clip-path="url(#clipPath460-2)"
             opacity="0.5"
             id="g466">
            <text
               transform="matrix(0.99999163,0,0,-1,168.3052,252.2988)"
               style="font-variant:normal;font-weight:600;font-stretch:normal;font-size:23.8882px;font-family:'Open Sans Semibold';-inkscape-font-specification:OpenSans-Semibold;writing-mode:lr-tb;fill:#231f20;fill-opacity:1;fill-rule:nonzero;stroke:#ffffff;stroke-width:0.204606;stroke-miterlimit:4;stroke-dasharray:none;stroke-opacity:1"
               id="text464"><tspan
                 x="0 16.387304 31.84297"
                 y="0"
                 sodipodi:role="line"
                 id="tspan462">AVI</tspan></text>
          </g>
        </g>
        <text
           y="840.85852"
           x="53.462379"
           id="text472"
           style="font-variant:normal;font-weight:600;font-stretch:normal;font-size:35.0257px;font-family:'Open Sans Semibold';-inkscape-font-specification:OpenSans-Semibold;writing-mode:lr-tb;fill:#ffffff;fill-opacity:1;fill-rule:nonzero;stroke:#ffffff;stroke-width:0.3;stroke-miterlimit:4;stroke-dasharray:none;stroke-opacity:1"
           mask="none"
           clip-path="none"><tspan
             style="stroke:#ffffff;stroke-width:0.3;stroke-miterlimit:4;stroke-dasharray:none;stroke-opacity:1"
             id="tspan470"
             sodipodi:role="line"
             y="840.85852"
             x="53.462379 77.48999 100.1516">AVI</tspan></text>
        <path
           d="m 121.10695,970.66779 c -19.10216,0 -34.65163,-15.54799 -34.65163,-34.66189 0,-19.11243 15.54947,-34.65016 34.65163,-34.65016 19.11243,0 34.66189,15.53773 34.66189,34.65016 0,19.1139 -15.54946,34.66189 -34.66189,34.66189 m 0,-73.45564 c -21.418814,0 -38.787887,17.36907 -38.787887,38.79375 0,21.43202 17.369073,38.79816 38.787887,38.79816 21.43056,0 38.80402,-17.36614 38.80402,-38.79816 0,-21.42468 -17.37346,-38.79375 -38.80402,-38.79375"
           style="fill:#f16690;fill-opacity:1;fill-rule:nonzero;stroke:#ffffff;stroke-width:0.3;stroke-miterlimit:4;stroke-dasharray:none;stroke-opacity:1"
           id="path484"
           inkscape:connector-curvature="0" />
        <path
           d="M 110.27761,955.15059 143.44394,936.0059 110.27761,916.86268 Z"
           style="fill:#f16690;fill-opacity:1;fill-rule:nonzero;stroke:#ffffff;stroke-width:0.3;stroke-miterlimit:4;stroke-dasharray:none;stroke-opacity:1"
           id="path488"
           inkscape:connector-curvature="0" />
      </g>
      <g
         transform="matrix(0.27347866,0,0,0.27347866,278.28009,352.03655)"
         style="stroke:#ffffff;stroke-width:0.3;stroke-miterlimit:4;stroke-dasharray:none;stroke-opacity:1"
         id="g2220">
        <path
           inkscape:connector-curvature="0"
           id="path490"
           style="fill:#f9f9f9;fill-opacity:1;fill-rule:nonzero;stroke:#ffffff;stroke-width:0.3;stroke-miterlimit:4;stroke-dasharray:none;stroke-opacity:1"
           d="M 293.30781,1018.3556 H 473.34144 V 855.50483 H 293.30781 Z" />
        <path
           d="m 473.34086,862.03722 v -9.92351 H 414.5388 V 793.31166 H 293.30721 v 68.72556 z"
           style="fill:#00b48d;fill-opacity:1;fill-rule:nonzero;stroke:#ffffff;stroke-width:0.3;stroke-miterlimit:4;stroke-dasharray:none;stroke-opacity:1"
           id="path494"
           inkscape:connector-curvature="0" />
        <path
           d="M 418.53298,793.31151 V 848.121 H 473.341 Z"
           style="fill:#00b48d;fill-opacity:1;fill-rule:nonzero;stroke:#ffffff;stroke-width:0.3;stroke-miterlimit:4;stroke-dasharray:none;stroke-opacity:1"
           id="path498"
           inkscape:connector-curvature="0" />
        <g
           style="stroke:#ffffff;stroke-width:0.204605;stroke-miterlimit:4;stroke-dasharray:none;stroke-opacity:1"
           transform="matrix(1.4662391,0,0,-1.4662391,-192.78566,1211.3186)"
           id="g514">
          <g
             style="stroke:#ffffff;stroke-width:0.204605;stroke-miterlimit:4;stroke-dasharray:none;stroke-opacity:1"
             clip-path="url(#clipPath506-0)"
             opacity="0.5"
             id="g512">
            <text
               transform="matrix(0.99999163,0,0,-1,344.4399,252.2988)"
               style="font-variant:normal;font-weight:600;font-stretch:normal;font-size:23.8882px;font-family:'Open Sans Semibold';-inkscape-font-specification:OpenSans-Semibold;writing-mode:lr-tb;fill:#231f20;fill-opacity:1;fill-rule:nonzero;stroke:#ffffff;stroke-width:0.204606;stroke-miterlimit:4;stroke-dasharray:none;stroke-opacity:1"
               id="text510"><tspan
                 x="0 15.288448 34.590115"
                 y="0"
                 sodipodi:role="line"
                 id="tspan508">PNG</tspan></text>
          </g>
        </g>
        <text
           y="840.85852"
           x="311.71921"
           id="text518"
           style="font-variant:normal;font-weight:600;font-stretch:normal;font-size:35.0257px;font-family:'Open Sans Semibold';-inkscape-font-specification:OpenSans-Semibold;writing-mode:lr-tb;fill:#ffffff;fill-opacity:1;fill-rule:nonzero;stroke:#ffffff;stroke-width:0.3;stroke-miterlimit:4;stroke-dasharray:none;stroke-opacity:1"
           mask="none"
           clip-path="none"><tspan
             style="stroke:#ffffff;stroke-width:0.3;stroke-miterlimit:4;stroke-dasharray:none;stroke-opacity:1"
             id="tspan516"
             sodipodi:role="line"
             y="840.85852"
             x="311.71921 334.13565 362.43637">PNG</tspan></text>
        <path
           inkscape:connector-curvature="0"
           id="path528"
           style="fill:#00b48d;fill-opacity:1;fill-rule:nonzero;stroke:#ffffff;stroke-width:0.3;stroke-miterlimit:4;stroke-dasharray:none;stroke-opacity:1"
           d="m 345.20974,927.44731 h 25.24864 v -25.24424 h -25.24864 z" />
        <path
           inkscape:connector-curvature="0"
           id="path530"
           style="fill:#00b48d;fill-opacity:1;fill-rule:nonzero;stroke:#ffffff;stroke-width:0.3;stroke-miterlimit:4;stroke-dasharray:none;stroke-opacity:1"
           d="m 420.95565,902.20307 h -25.24864 v 25.24424 h 25.24864 z" />
        <path
           inkscape:connector-curvature="0"
           id="path532"
           style="fill:#00b48d;fill-opacity:1;fill-rule:nonzero;stroke:#ffffff;stroke-width:0.3;stroke-miterlimit:4;stroke-dasharray:none;stroke-opacity:1"
           d="m 370.45984,952.69595 h 25.24864 v -25.2501 h -25.24864 z" />
        <path
           inkscape:connector-curvature="0"
           id="path534"
           style="fill:#00b48d;fill-opacity:1;fill-rule:nonzero;stroke:#ffffff;stroke-width:0.3;stroke-miterlimit:4;stroke-dasharray:none;stroke-opacity:1"
           d="m 345.20974,977.94459 h 25.24864 v -25.24864 h -25.24864 z" />
        <path
           inkscape:connector-curvature="0"
           id="path536"
           style="fill:#00b48d;fill-opacity:1;fill-rule:nonzero;stroke:#ffffff;stroke-width:0.3;stroke-miterlimit:4;stroke-dasharray:none;stroke-opacity:1"
           d="m 420.95565,952.69595 h -25.24864 v 25.24864 h 25.24864 z" />
      </g>
      <g
         transform="matrix(0.27347866,0,0,0.27347866,278.28009,352.03655)"
         style="stroke:#ffffff;stroke-width:0.3;stroke-miterlimit:4;stroke-dasharray:none;stroke-opacity:1"
         id="g2248">
        <path
           inkscape:connector-curvature="0"
           id="path538"
           style="fill:#f9f9f9;fill-opacity:1;fill-rule:nonzero;stroke:#ffffff;stroke-width:0.3;stroke-miterlimit:4;stroke-dasharray:none;stroke-opacity:1"
           d="M 35.057631,722.16944 H 215.09127 V 562.43882 H 35.057631 Z" />
        <path
           d="M 215.09083,565.85398 V 555.9334 H 156.28877 V 497.13135 H 35.057191 v 68.72263 z"
           style="fill:#f1583e;fill-opacity:1;fill-rule:nonzero;stroke:#ffffff;stroke-width:0.3;stroke-miterlimit:4;stroke-dasharray:none;stroke-opacity:1"
           id="path542"
           inkscape:connector-curvature="0" />
        <path
           d="m 160.2765,497.1312 v 54.80949 h 54.81389 z"
           style="fill:#f1583e;fill-opacity:1;fill-rule:nonzero;stroke:#ffffff;stroke-width:0.3;stroke-miterlimit:4;stroke-dasharray:none;stroke-opacity:1"
           id="path546"
           inkscape:connector-curvature="0" />
        <g
           style="stroke:#ffffff;stroke-width:0.204605;stroke-miterlimit:4;stroke-dasharray:none;stroke-opacity:1"
           transform="matrix(1.4662391,0,0,-1.4662391,-192.78566,1211.3186)"
           id="g562">
          <g
             style="stroke:#ffffff;stroke-width:0.204605;stroke-miterlimit:4;stroke-dasharray:none;stroke-opacity:1"
             clip-path="url(#clipPath554-3)"
             opacity="0.5"
             id="g560">
            <text
               transform="matrix(0.99999163,0,0,-1,168.3052,454.2988)"
               style="font-variant:normal;font-weight:600;font-stretch:normal;font-size:23.8882px;font-family:'Open Sans Semibold';-inkscape-font-specification:OpenSans-Semibold;writing-mode:lr-tb;fill:#231f20;fill-opacity:1;fill-rule:nonzero;stroke:#ffffff;stroke-width:0.204606;stroke-miterlimit:4;stroke-dasharray:none;stroke-opacity:1"
               id="text558"><tspan
                 x="0 15.288448 30.576897"
                 y="0"
                 sodipodi:role="line"
                 id="tspan556">PPT</tspan></text>
          </g>
        </g>
        <text
           y="544.67944"
           x="53.462379"
           id="text566"
           style="font-variant:normal;font-weight:600;font-stretch:normal;font-size:35.0257px;font-family:'Open Sans Semibold';-inkscape-font-specification:OpenSans-Semibold;writing-mode:lr-tb;fill:#ffffff;fill-opacity:1;fill-rule:nonzero;stroke:#ffffff;stroke-width:0.3;stroke-miterlimit:4;stroke-dasharray:none;stroke-opacity:1"
           mask="none"
           clip-path="none"><tspan
             style="stroke:#ffffff;stroke-width:0.3;stroke-miterlimit:4;stroke-dasharray:none;stroke-opacity:1"
             id="tspan564"
             sodipodi:role="line"
             y="544.67944"
             x="53.462379 75.878807 98.295242">PPT</tspan></text>
        <path
           inkscape:connector-curvature="0"
           id="path576"
           style="fill:#f1583e;fill-opacity:1;fill-rule:nonzero;stroke:#ffffff;stroke-width:0.3;stroke-miterlimit:4;stroke-dasharray:none;stroke-opacity:1"
           d="M 98.293588,614.56655 H 152.4594 v 47.9944 H 98.293588 Z m -3.548291,51.54711 H 156.00329 V 611.02412 H 94.745297 Z" />
        <path
           d="m 68.25006,655.9532 h 21.694477 v -3.55416 H 71.796891 V 624.7267 h 18.147646 v -3.54243 H 68.25006 Z"
           style="fill:#f1583e;fill-opacity:1;fill-rule:nonzero;stroke:#ffffff;stroke-width:0.3;stroke-miterlimit:4;stroke-dasharray:none;stroke-opacity:1"
           id="path580"
           inkscape:connector-curvature="0" />
        <path
           d="m 161.04041,621.18456 v 3.54244 h 18.15204 v 27.67233 h -18.15204 v 3.55417 h 21.69448 v -34.76894 z"
           style="fill:#f1583e;fill-opacity:1;fill-rule:nonzero;stroke:#ffffff;stroke-width:0.3;stroke-miterlimit:4;stroke-dasharray:none;stroke-opacity:1"
           id="path584"
           inkscape:connector-curvature="0" />
      </g>
    </g>
  </g>
</svg>
