<?xml version="1.0" encoding="UTF-8" standalone="no"?>
<!-- Created with Inkscape (http://www.inkscape.org/) -->

<svg
   xmlns:dc="http://purl.org/dc/elements/1.1/"
   xmlns:cc="http://creativecommons.org/ns#"
   xmlns:rdf="http://www.w3.org/1999/02/22-rdf-syntax-ns#"
   xmlns:svg="http://www.w3.org/2000/svg"
   xmlns="http://www.w3.org/2000/svg"
   xmlns:sodipodi="http://sodipodi.sourceforge.net/DTD/sodipodi-0.dtd"
   xmlns:inkscape="http://www.inkscape.org/namespaces/inkscape"
   width="512"
   height="512"
   viewBox="0 0 512.00002 512.00002"
   id="svg2"
   version="1.1"
   inkscape:version="0.92.2 2405546, 2018-03-11"
   sodipodi:docname="gatto1.svg">
  <defs
     id="defs4" />
  <sodipodi:namedview
     id="base"
     pagecolor="#ffffff"
     bordercolor="#666666"
     borderopacity="1.0"
     inkscape:pageopacity="0.0"
     inkscape:pageshadow="2"
     inkscape:zoom="1.0509927"
     inkscape:cx="-165.30308"
     inkscape:cy="178.75289"
     inkscape:document-units="px"
     inkscape:current-layer="layer1"
     showgrid="false"
     units="px"
     inkscape:showpageshadow="false"
     inkscape:window-width="1920"
     inkscape:window-height="991"
     inkscape:window-x="0"
     inkscape:window-y="25"
     inkscape:window-maximized="1" />
  <metadata
     id="metadata7">
    <rdf:RDF>
      <cc:Work
         rdf:about="">
        <dc:format>image/svg+xml</dc:format>
        <dc:type
           rdf:resource="http://purl.org/dc/dcmitype/StillImage" />
        <dc:title />
        <cc:license
           rdf:resource="http://creativecommons.org/licenses/by-sa/4.0/" />
        <dc:date>2019</dc:date>
        <dc:creator>
          <cc:Agent>
            <dc:title>Cristian Pozzessere  &lt; ilnanny &gt;</dc:title>
          </cc:Agent>
        </dc:creator>
        <dc:subject>
          <rdf:Bag>
            <rdf:li>ilnanny</rdf:li>
          </rdf:Bag>
        </dc:subject>
      </cc:Work>
      <cc:License
         rdf:about="http://creativecommons.org/licenses/by-sa/4.0/">
        <cc:permits
           rdf:resource="http://creativecommons.org/ns#Reproduction" />
        <cc:permits
           rdf:resource="http://creativecommons.org/ns#Distribution" />
        <cc:requires
           rdf:resource="http://creativecommons.org/ns#Notice" />
        <cc:requires
           rdf:resource="http://creativecommons.org/ns#Attribution" />
        <cc:permits
           rdf:resource="http://creativecommons.org/ns#DerivativeWorks" />
        <cc:requires
           rdf:resource="http://creativecommons.org/ns#ShareAlike" />
      </cc:License>
    </rdf:RDF>
  </metadata>
  <g
     inkscape:label="Livello 1"
     inkscape:groupmode="layer"
     id="layer1"
     transform="translate(0,-540.3622)">
    <path
       style="opacity:1;fill:#f6e6e4;fill-opacity:0.98867923;stroke:none;stroke-width:4.75087738;stroke-linecap:round;stroke-linejoin:bevel;stroke-miterlimit:4;stroke-dasharray:none;stroke-opacity:0.98113248;paint-order:stroke markers fill"
       d="m 1,541.3622 h 510 v 510 H 1 Z"
       id="rect1404"
       inkscape:connector-curvature="0" />
    <g
       transform="matrix(1.9137842,0,0,1.9137842,87.376094,566.06723)"
       id="g1071"
       style="opacity:0.307">
      <path
         d="M 5.2868,81.7918 C 5.4296884,85.902691 18.359794,93.253783 8.7408375,91.642575 5.9645993,89.344724 5.1733761,84.953661 5.2868,81.7918 Z M 120.7997,48.6463 c 5.77473,0.211526 8.39889,1.02125 1.15646,2.216287 -6.50093,-0.01893 -7.59305,-2.289421 -1.09367,-4.62888 3.8184,-3.099971 10.00077,-11.234776 4.50907,-2.377357 -1.3061,1.780522 -2.76283,3.498609 -4.57186,4.78995 z m 38.7797,18.9462 c -1.52856,6.487041 -1.21677,14.401354 4.26382,13.795557 -6.14217,2.56108 -13.20675,-1.896132 -6.38953,-7.340832 1.03347,-2.024773 1.7923,-4.201293 2.12571,-6.454725 z m -62.3712,8.1576 c 0.956105,5.924204 17.47672,6.361718 6.11139,6.4584 -7.318196,-5.765187 -6.968464,15.032625 -8.010755,2.25387 -0.03045,-3.00065 0.68518,-5.978307 1.899365,-8.71227 z M 86.529,86.9368 c -6.680938,7.654862 -14.91287,-2.608511 -4.878253,-3.163669 1.626097,1.054537 3.252178,2.109098 4.878253,3.163669 z m -32.8874,1.8368 c 6.749781,-0.220063 8.779841,-15.375233 11.818976,-4.546819 2.483855,5.429771 3.032494,12.273793 -1.010072,3.8736 C 61.792649,82.086093 58.265717,89.714337 53.6416,88.7736 Z M 25.1461,58.5585 c 6.181594,-0.319532 13.867121,-5.969389 3.8881,-8.269512 -4.427412,-1.044898 -9.438652,-1.576599 -2.185753,-1.755316 6.894226,-1.150681 18.241574,8.023747 5.655953,9.437316 -2.405438,0.571885 -4.895659,0.692756 -7.3583,0.587512 z m 85.7449,13.5277 c -6.80969,13.713219 -9.20782,-15.216689 -0.19013,-1.241769 z M 55.7751,78.8739 C 54.08936,92.036819 41.618662,76.05715 52.462963,73.69 c 2.505975,0.361086 2.854825,3.23115 3.312137,5.1839 z m 85.5865,-37.0061 c 4.50271,9.908051 -4.37699,28.938116 -14.96207,15.725623 -0.40288,-0.919307 13.18074,4.784097 13.03445,-4.622565 1.26405,-3.575943 1.32613,-7.421688 1.92762,-11.103058 z M 30.7332,62.4292 C 28.268822,74.364209 15.030247,70.648145 14.933175,59.831853 11.903418,46.504813 21.021318,73.933272 28.8588,63.8362 Z m 33.3012,64.3098 c 10.512309,0.37394 14.417726,-19.77402 24.598197,-11.97999 2.916069,2.90388 16.832533,7.05179 13.149523,6.80527 -9.161181,-0.64215 -19.20992,-11.87829 -25.850742,-0.0563 -3.197691,3.04959 -7.360992,5.3782 -11.896978,5.23106 z m 19.747,-81.8639 c 6.929815,-2.246801 21.32337,8.828642 13.5247,13.6181 C 91.458826,55.741542 91.569298,46.482797 83.7814,44.8751 Z M 39.053,43.6509 c 1.809234,-5.976722 -14.113087,-16.659962 -3.014852,-10.453314 5.757758,3.832721 8.057529,17.893048 5.386823,19.592315 -1.345992,-5.834479 -12.46114,-12.886046 -12.025027,-12.875668 3.510949,0.254842 6.731305,1.879391 9.653056,3.736667 z m 29.4302,3.1365 c -8.873853,1.916578 -4.333868,18.1612 -11.8016,16.663 -4.359516,-7.946426 4.363997,-16.689746 11.8016,-16.663 z m 24.6971,47.2547 c -2.766621,4.150988 -7.217372,8.24786 -10.463169,11.94285 -4.012195,-4.04272 -16.919153,-8.997085 -8.276903,-14.708094 6.851257,3.30185 16.01878,-7.407549 18.740072,2.765244 z m -3.2463,3.9268 c 4.876642,-10.387599 -11.357438,-4.146015 -16.2561,-3.6965 -2.052332,4.923755 1.06866,5.109807 3.7832,3.4914 -1.516078,7.87912 11.97943,7.75303 8.8048,-0.3595 0.943622,-1.547977 2.792654,-0.01405 3.6681,0.5646 z m 30.7328,-63.613 c 2.29163,12.669619 -15.94576,16.599527 -11.25096,1.751028 -0.031,-6.577546 16.69508,-15.422116 6.25038,-6.344978 -5.48809,3.64598 -2.33656,20.749605 3.03803,9.192866 0.71188,-1.508187 1.29192,-3.07284 1.96255,-4.598916 z M 61.6587,76.0087 C 55.394988,67.128902 39.846723,72.617257 41.648373,82.974544 46.387621,91.561943 33.836054,78.517908 41.404588,75.34934 46.567763,65.130788 58.162345,63.12773 61.6587,76.0087 Z m 54.312,2.7404 c 9.46264,-8.337706 -8.55445,-21.000874 -15.21626,-12.872467 -3.435468,6.640522 -3.414051,4.035798 -1.51554,-1.493333 4.76256,-12.539895 17.75903,-0.23611 21.6946,6.5928 -0.4118,3.155392 -2.15796,6.175607 -4.9628,7.773 z M 12.6228,59.5919 c 1.008875,7.117108 7.66231,22.719637 16.078056,14.639745 2.26904,-3.355426 13.732102,-11.625718 5.928741,-3.66784 -3.141417,6.40298 -7.512379,17.218044 -15.444194,8.444839 C 14.445744,73.848313 12.906648,66.069038 12.6228,59.5919 Z M 68.9435,83.5587 C 74.822684,74.78491 60.931399,67.722072 65.005002,61.601893 68.610421,58.478461 71.423595,45.277526 72.46,47.7328 74.443224,57.056908 65.21355,65.294567 71.594267,73.805808 72.212041,77.259547 71.078228,80.829597 68.9435,83.5587 Z M 54.0626,53.2189 c -1.438521,-5.306932 -4.843545,-16.026752 1.2823,-6.1252 7.330805,-2.750091 16.379153,-6.692298 23.364613,-6.266111 8.504108,0.371021 20.194749,5.419682 22.957587,-4.923089 -2.790165,4.376895 2.06756,14.676611 -5.3777,8.8933 C 85.041806,41.827684 73.827979,40.576509 62.995211,45.378325 59.173323,46.809483 56.217388,49.836373 54.0626,53.2189 Z M 79.6687,45.6773 C 81.722338,53.122749 95.194888,57.039618 91.919326,63.818999 86.802141,67.991927 94.388821,85.826981 88.24,75.319 88.622403,63.621366 81.731747,56.89324 79.6687,45.6773 Z m 46.8217,26.5659 c 9.29986,6.941532 20.2799,15.435013 22.3823,27.1157 -5.64434,-12.64963 -20.61092,-16.221279 -33.2119,-16.1882 6.76408,-1.750115 20.07305,-0.9197 10.8296,-10.9275 z m -90.0602,5.585 c -3.714327,6.204015 -2.601397,15.114378 6.3832,13.6499 -11.823768,2.201609 -20.600117,13.2623 -20.097266,25.27272 0.06052,9.48424 -1.749379,-7.63843 -0.0157,-11.07804 C 24.371535,95.153632 30.949477,86.620452 36.4302,77.8282 Z m 120.0371,6.9425 c 12.09628,5.28539 3.16232,19.07014 5.4036,26.86323 4.44342,3.32336 6.66184,19.97415 2.0815,8.49194 -3.6836,-9.61228 -3.42257,18.08772 -4.71698,6.41325 -0.44143,-9.18737 -3.74646,-17.94462 0.68832,-26.732486 0.9533,-5.314196 -0.25051,-10.799471 -3.45644,-15.035934 z m 16.2985,67.4077 c -6.55882,6.7446 -26.12443,-8.14697 -15.64962,-10.56792 6.42482,-0.15269 12.84484,-9.29742 14.25062,-10.74558 3.66603,9.39967 -16.5869,13.88836 -4.26786,19.61481 1.79109,0.8642 3.75121,1.23493 5.66686,1.69869 z M 19.4761,91.1869 C 9.25821,89.643341 7.0169638,70.048036 9.3949312,68.769436 9.506865,78.12124 15.881749,88.388545 26.2211,87.3469 20.267527,95.304325 18.089741,110.29033 19.238311,116.43112 15.008928,108.64073 16.097763,99.068727 19.4761,91.1869 Z m 98.6965,-31.3047 c 6.52397,5.253404 18.1594,15.163781 24.88808,4.884329 3.64711,-4.678665 1.89441,-17.751283 2.99831,-18.555495 2.31153,8.889414 4.23145,21.069705 -4.26079,27.322866 -10.88019,5.240707 -17.25143,-7.429642 -23.6256,-13.6517 z m 22.4323,126.8102 c 10.55417,-7.66504 14.42988,-21.35219 14.1566,-33.865 1.93876,7.136 16.33668,9.88452 16.48181,10.83046 -7.03314,1.9225 -13.74461,-2.44566 -14.13988,7.56336 -3.19726,7.09937 -9.41688,12.44671 -16.49853,15.47118 z M 13.6305,153.0164 c -6.0275546,2.66295 -15.1408258,-12.30261 -6.390975,-5.19959 6.634744,4.3128 16.733236,-9.8594 11.708177,2.86998 -1.57746,9.27407 -2.870361,20.056 3.148798,28.07441 -9.487373,-4.17013 -11.308947,-16.81258 -8.466,-25.7448 z M 58.7391,95.2219 c -9.042046,-1.326841 -21.823452,5.30415 -23.840151,10.21252 2.140064,-12.029571 14.593648,-13.285309 24.068901,-15.420858 9.139775,-1.114987 4.477542,18.716538 -5.662528,17.599898 -5.259831,1.63744 -17.929756,1.58061 -6.204122,-0.53706 5.532379,-1.45514 11.982533,-5.31364 11.6379,-11.8545 z m 62.4931,4.5889 c -10.26955,6.61336 -26.834395,-7.573993 -19.30824,-14.87765 8.2835,3.007195 18.63596,-2.082264 25.23978,5.454171 5.16993,3.619217 7.52751,19.780269 2.72594,7.381817 -3.9109,-9.67964 -18.57002,-7.793093 -24.2777,-6.543743 1.55318,7.008833 9.57564,8.512727 15.62022,8.585405 z M 29.7654,133.711 c -6.28502,-3.5345 -9.53484,-4.57638 -8.852271,3.49709 -1.687162,4.59594 -7.817015,8.39102 -2.746966,1.87702 1.902178,-11.48729 -8.5781069,-20.58031 -7.375157,-32.12929 0.663807,-4.98637 0.510536,-9.218865 -2.5387431,-2.15122 -1.8969882,4.21477 -3.4248314,11.88108 -2.6058629,3.1383 -2.2392657,-6.70736 12.777719,-22.368782 8.458706,-7.84876 -2.110881,13.09471 4.839037,26.2996 15.792294,33.35246 z M 140.573,78.3873 c 9.85777,-0.03399 14.29684,-16.553642 15.22469,-18.620097 3.19289,9.797456 -10.01927,18.286954 -2.34955,26.942134 5.07941,8.56333 3.98716,19.609193 -1.43104,27.735463 3.69543,-13.2005 -1.04953,-27.25391 -11.4441,-36.0575 z m -2.0811,79.9951 c 2.71933,5.23041 -6.70406,23.15605 1.34937,12.40915 5.56518,-5.20437 8.54534,-20.4599 9.70449,-22.15467 1.74423,17.29042 -9.97689,34.56319 -26.72796,39.21572 6.38921,-9.13165 12.20596,-18.81853 15.6741,-29.4702 z m -80.4844,-4.3167 c -6.444887,1.73068 -9.400676,13.8044 -9.839326,15.21051 -0.816538,-12.51002 8.181783,-25.51795 21.275126,-26.13281 4.561823,0.51928 -8.160764,8.90335 -6.824448,15.02013 -1.75233,9.57449 3.68588,18.49758 8.705848,25.92687 -8.835108,-7.1835 -15.779052,-18.21833 -13.3172,-30.0247 z M 50.7879,62.5325 C 45.176635,60.633722 38.667078,62.933311 34.1976,65.0452 38.670805,58.154351 50.867033,59.257484 47.18184,47.99988 45.438541,35.779524 34.322517,26.826616 23.511106,22.305341 10.560556,16.82312 13.520035,39.515142 11.709245,47.574744 11.026427,57.245908 10.545331,37.297417 11.345559,33.159977 12.099459,25.822928 12.348917,9.9576737 23.299,19.5835 c 13.149813,7.309662 28.307779,18.547422 27.810112,35.261894 -0.118943,2.555052 0.25196,5.170269 -0.321212,7.687106 z m 19.9386,3.8582 c 4.44744,-5.184809 3.630901,-19.625771 5.249025,-20.668025 0.164472,10.137308 13.485109,16.401549 6.647275,26.243525 -3.90008,7.792979 16.036469,16.069947 2.313262,11.64695 -4.850386,-4.750256 -5.704496,-4.382915 -8.787675,1.165537 -6.403751,5.255063 -4.659566,2.381651 -1.40101,-2.974371 C 76.992385,76.389765 74.812501,70.277243 70.7265,66.3907 Z m 7.9328,4.474 c 4.923244,-3.919214 -2.593326,-18.213234 -2.755191,-7.202742 -1.456827,2.776537 1.803099,4.899546 2.755191,7.202742 z m -27.5902,64.5485 c -10.568257,1.65075 -23.720645,-3.28705 -25.428283,-15.09154 -2.802324,-5.43083 4.781014,-18.72835 6.124546,-16.58843 -6.650534,7.61274 0.557919,21.66553 10.834415,16.71179 6.470254,-1.14101 -0.339926,-12.02323 5.891376,-5.02236 5.750276,9.98049 -11.138317,11.18226 -13.289983,12.01591 3.392396,5.46604 10.278763,6.19493 15.867929,7.97463 z M 144.2623,37.7285 C 142.08168,27.626207 138.72944,17.191781 131.74367,9.3582375 124.21789,10.10958 118.03143,18.137697 113.1203,23.875525 c -5.00593,6.983243 -10.65048,18.375805 -3.20504,25.555484 5.10105,0.04607 16.56159,10.789585 13.15483,10.014654 -6.10254,-8.67887 -23.469493,-1.213787 -20.9756,-16.053693 2.381,-15.204922 13.82976,-27.312232 25.35411,-36.67957 9.27314,-5.94686631 11.48408,12.21747 14.51354,18.065372 1.11264,4.182929 2.38284,8.79002 2.30016,12.950728 z M 70.7601,219.933 c 4.756366,-12.32959 -3.369825,-23.14612 -12.419566,-30.64099 -9.865159,-6.02548 9.919706,16.86579 -0.373301,7.9111 -10.291959,-7.34535 -8.734075,-22.14945 -3.314233,-32.02361 -0.967373,18.42405 21.431257,28.27409 19.373785,46.86791 -0.345803,2.85996 -1.386385,5.67302 -3.266685,7.88559 z M 134.6857,92.4441 c 9.14871,6.085134 17.93823,18.70634 11.1739,29.5114 -2.18981,7.03213 -17.47007,12.86198 -17.76035,10.25698 9.0657,-1.5408 16.4638,-16.45827 12.15662,-21.43446 -4.63821,4.87564 -18.76888,-0.43504 -6.87253,-2.0407 5.3338,-3.84043 4.83502,-11.414305 1.30236,-16.29322 z m -9.5866,81.2905 c -5.52353,6.52492 -12.28718,17.14931 -6.79601,25.32599 3.66182,6.8856 13.70796,0.3975 15.49321,0.33601 -3.24037,10.14456 -15.64776,5.29434 -20.92698,6.29151 -2.32598,6.78051 -13.41207,13.91056 -16.97222,13.32079 10.74731,-8.19916 13.57836,-21.67636 17.94698,-33.4934 2.85934,-4.63448 6.62421,-8.86547 11.25502,-11.7809 z m 30.2347,-56.9689 c 2.4938,11.19478 -2.76563,23.61028 -13.3947,28.4624 -5.97789,8.65036 -7.95257,22.11661 -19.94148,26.15084 -6.02098,2.77243 6.11999,-6.18804 5.93714,-9.05768 7.51237,-7.6569 -3.76856,-23.17124 10.27731,-22.16247 10.20135,-3.40739 14.77793,-13.72266 17.12173,-23.39309 z m -59.0354,27.5387 c 9.68329,-3.99886 20.56442,8.02025 22.81928,10.01159 5.26273,-7.54761 -15.17482,-19.09417 -1.35888,-12.49572 10.5018,5.4776 6.65587,19.43205 0.62793,26.81584 -3.34497,5.36788 -5.00748,5.74132 -2.52032,-0.43443 2.48252,-7.7793 -1.66687,-17.56852 -10.47361,-18.52678 8.78415,8.74252 -1.02641,27.16224 -5.89935,28.68553 6.46038,-10.86918 5.9509,-24.94051 -3.19505,-34.05603 z m 13.1452,31.1939 c 0.86005,17.26178 -10.418346,32.49706 -23.776488,42.28284 -6.614185,4.67394 -12.014443,21.58548 -0.808881,22.95616 8.787677,-0.002 -1.282387,-10.33645 4.789769,-5.8581 5.791299,13.85741 -19.151463,11.72605 -16.501729,-1.5114 -1.300378,-9.76755 5.283459,-17.83451 13.075792,-22.70011 11.147994,-8.96389 20.465287,-20.83303 23.221537,-35.16939 z m -32.0107,38.6782 c 11.115619,-15.75746 14.223549,-36.02539 10.8353,-54.7849 0.249961,-9.23802 -6.998053,-7.75585 -7.715259,0.0251 -3.408108,5.84555 -1.905979,19.3074 -2.394416,21.53287 -4.674844,-10.27178 -1.034132,-22.36163 3.253275,-32.18831 5.914047,-13.68952 12.796014,3.7019 12.335113,11.01917 2.951189,19.2093 -1.109872,41.45338 -16.314013,54.39603 z M 57.4236,200.2303 c -14.421113,-5.0516 -28.885371,-17.04663 -28.396925,-33.6462 -1.768202,-6.01788 8.687331,-20.99898 -2.871233,-13.72073 -8.469957,5.59744 -1.682257,-14.79777 5.194901,-15.27846 5.632688,-3.0678 -9.480431,11.87996 2.006232,6.24344 4.346931,-1.03106 18.286634,-4.42239 10.208125,2.48455 -9.664922,11.00904 -9.56577,28.08824 -0.510375,39.36558 3.750778,5.73142 9.639917,10.26759 14.369275,14.55182 z"
         id="path1069"
         inkscape:connector-curvature="0"
         style="stroke:#ffffff;stroke-opacity:1;stroke-width:2.09009981;stroke-miterlimit:4;stroke-dasharray:none;fill:none" />
    </g>
    <g
       id="g914"
       transform="matrix(1.9137842,0,0,1.9137842,87.376094,566.06723)">
      <path
         id="path816"
         d="m 57.4236,200.2303 c -1.5924,-0.6861 -3.2033,-1.3324 -4.7741,-2.065 -6.7854,-3.1644 -12.9324,-7.1967 -17.5083,-13.2646 -5.1548,-6.8355 -6.9159,-14.5503 -5.7882,-22.9834 0.491,-3.6718 1.4831,-7.1975 3.0018,-10.5763 0.0918,-0.2042 0.1317,-0.4316 0.2301,-0.7644 -3.84,0.4876 -6.9257,2.2889 -9.7216,4.72 -2.8657,-6.6588 4.2818,-18.4463 11.0091,-18.1252 -2.849,1.953 -4.9327,4.2854 -4.8663,8.1404 5.7695,-2.3048 11.6365,-3.2862 17.9254,-3.1355 -1.2224,1.4968 -2.3378,2.7839 -3.3668,4.1366 -3.7393,4.9154 -6.4371,10.2929 -7.1871,16.5134 -0.8279,6.8665 0.8794,13.1742 4.2739,19.0865 3.9906,6.9505 9.5254,12.4958 15.8834,17.2776 0.3428,0.2578 0.679,0.5246 1.0182,0.7872 -0.0431,0.0843 -0.0863,0.1685 -0.1295,0.2527 z"
         inkscape:connector-curvature="0" />
      <path
         id="path818"
         d="m 77.4329,214.1765 c 1.9567,-3.3898 4.0119,-6.7271 5.8473,-10.1813 2.887,-5.4335 4.2503,-11.3687 5.1989,-17.3863 1.4303,-9.0737 1.5019,-18.1618 -0.2109,-27.2173 -0.2886,-1.5257 -0.71,-3.0406 -1.231,-4.5032 -0.3757,-1.0548 -0.6803,-2.4977 -2.007,-2.599 -1.3813,-0.1056 -1.9815,1.2747 -2.4614,2.3212 -0.9631,2.1004 -1.9137,4.2385 -2.5436,6.4537 -1.6845,5.9238 -2.6674,11.9441 -1.603,18.1239 0.1549,0.8993 0.3942,1.784 0.4089,2.8026 -0.4292,-0.7027 -0.9397,-1.369 -1.2739,-2.1144 -1.5857,-3.536 -1.7502,-7.2956 -1.4593,-11.0654 0.54,-6.9987 2.1934,-13.7336 5.3139,-20.0497 0.7373,-1.4923 1.647,-2.9445 2.7103,-4.2211 2.0327,-2.4406 3.6926,-2.2771 5.369,0.4024 1.7684,2.8266 2.6047,6.0162 3.2676,9.2252 2.0581,9.9624 2.5528,20.0152 0.7896,30.0502 -1.9573,11.1393 -6.7006,20.9574 -14.8486,28.9762 -0.3894,0.3832 -0.8064,0.7382 -1.2106,1.1064 -0.0188,-0.0414 -0.0375,-0.0828 -0.0562,-0.1241 z"
         inkscape:connector-curvature="0" />
      <path
         id="path820"
         d="m 109.4436,175.4983 c 0.3267,4.2538 -0.3122,8.3737 -1.4928,12.4109 -3.1236,10.6811 -9.378,19.28 -17.9241,26.2173 -2.9653,2.4072 -5.969,4.694 -8.0738,7.9335 -2.5829,3.9754 -4.0126,8.2612 -3.2964,13.0625 0.1337,0.8962 0.4212,1.7949 0.7895,2.6252 0.7346,1.6561 1.8846,2.8738 3.8321,3.0361 2.2101,0.1842 4.0115,-0.6213 5.3522,-2.3579 0.8174,-1.0587 0.5046,-2.5516 -0.6633,-3.513 -0.4847,-0.399 -1.0397,-0.7125 -1.617,-1.1014 2.6542,-0.1895 4.6157,1.6415 4.5743,4.1856 -0.0516,3.1671 -2.0697,5.6832 -5.1392,6.407 -5.4895,1.2944 -9.8403,-1.1668 -11.7295,-6.6465 -2.5248,-7.3233 -0.1784,-17.7423 6.601,-22.7528 5.0465,-3.7297 9.8575,-7.7652 14.196,-12.3377 7.1741,-7.5612 12.2387,-16.2464 14.3838,-26.5256 0.0456,-0.2193 0.137,-0.429 0.2072,-0.6432 z"
         inkscape:connector-curvature="0" />
      <path
         id="path822"
         d="m 96.2984,144.3044 c 4.2721,-0.3951 8.4538,-0.1492 12.4794,1.4012 4.062,1.5645 7.0977,4.2591 8.7891,8.3436 0.122,0.2947 0.2131,0.6021 0.3224,0.9022 0.1047,0.2876 0.2144,0.5735 0.41,1.0947 1.3453,-2.3266 1.6688,-4.5536 1.034,-6.9267 -0.9827,-3.6736 -3.4731,-6.2253 -6.3425,-8.4904 -0.4948,-0.3905 -1.0054,-0.7609 -1.6839,-1.2727 9.9696,2.2886 14.5471,8.7905 12.8182,16.7876 -1.3394,6.1958 -4.6709,11.3283 -8.4847,16.2176 -0.3879,0.4973 -0.8129,0.9657 -1.4801,1.3313 0.1445,-0.4073 0.285,-0.816 0.4342,-1.2215 1.3825,-3.7586 2.1684,-7.6013 1.7564,-11.6365 -0.5798,-5.677 -4.7659,-10.0456 -10.9581,-11.1599 0.6426,1.1896 1.3276,2.2994 1.8633,3.4771 2.1755,4.7828 2.0575,9.6242 0.1944,14.4614 -1.8305,4.7524 -4.8482,8.6839 -8.6669,12.0715 0.4679,-0.8856 0.9584,-1.7601 1.3999,-2.6587 2.7704,-5.6388 4.2768,-11.5259 3.4959,-17.8631 -0.6443,-5.2284 -2.941,-9.6631 -6.45,-13.5224 -0.2954,-0.3249 -0.5907,-0.6502 -0.8758,-0.9841 -0.0418,-0.0489 -0.0259,-0.1467 -0.0552,-0.3522 z"
         inkscape:connector-curvature="0" />
      <path
         id="path824"
         d="m 155.3338,116.7657 c 0.5147,3.16 0.599,6.1707 0.2864,9.1912 -0.9311,8.995 -5.9583,15.1202 -13.6811,19.2712 -1.7295,0.9296 -2.6531,2.1643 -3.0909,4.0784 -1.2527,5.4773 -3.37,10.5729 -7.1807,14.8359 -3.1468,3.5204 -6.9675,6.0777 -11.2556,7.9818 -0.1459,0.0648 -0.2949,0.1268 -0.4483,0.1688 -0.065,0.0178 -0.1451,-0.0193 -0.3796,-0.0583 9.4353,-8.129 13.8195,-17.9659 10.6301,-30.417 1.666,-0.2422 3.3393,-0.3577 4.9488,-0.7409 8.4983,-2.0235 14.0307,-7.4855 17.281,-15.3729 1.1641,-2.8252 1.8988,-5.8274 2.8899,-8.9382 z"
         inkscape:connector-curvature="0" />
      <path
         id="path826"
         d="m 125.0991,173.7346 c -4.676,4.7602 -7.0145,10.4707 -8.6181,16.5654 -1.0115,3.8444 -0.1538,7.1602 2.8477,9.773 3.0013,2.6126 6.4054,2.9097 9.9426,1.1925 1.3558,-0.6582 2.5925,-1.5625 3.8782,-2.3632 0.2868,-0.1786 0.5512,-0.393 1.0037,-0.4549 -0.1174,0.3172 -0.2041,0.6501 -0.3569,0.9492 -1.8458,3.613 -4.6842,6.0988 -8.6443,7.0151 -1.4153,0.3275 -3.035,0.2171 -4.4726,-0.098 -2.3686,-0.5193 -4.665,-1.3678 -7.1062,-2.1125 -3.5841,8.1207 -9.8963,13.1855 -18.5041,15.5447 0.276,-0.2457 0.5522,-0.4911 0.828,-0.737 8.2911,-7.3933 13.4273,-16.5351 15.4121,-27.4853 0.5265,-2.905 2.1079,-5.4161 3.7252,-7.857 2.4447,-3.6899 7.0075,-8.2274 10.0647,-9.932 z"
         inkscape:connector-curvature="0" />
      <path
         id="path828"
         d="m 134.6857,92.4441 c 4.0471,2.9647 7.6126,6.3489 10.2922,10.5902 1.487,2.3537 2.5709,4.8718 3.0414,7.6332 0.6871,4.0325 -0.0145,7.8374 -2.1597,11.288 -3.7388,6.0137 -9.0924,9.7703 -16.1244,10.9591 -1.1138,0.1883 -2.2867,0.0264 -3.4949,-0.168 5.0806,-1.2536 9.1887,-3.8531 11.971,-8.2727 2.7351,-4.3447 4.1539,-9.0012 2.9673,-14.48 -2.4353,2.2566 -5.0647,3.1869 -8.0914,2.8231 -2.0181,-0.2426 -3.8003,-1.0611 -5.6536,-2.3882 4.8159,-0.0477 7.915,-2.2935 9.4052,-6.5082 1.4675,-4.1505 0.0177,-7.8992 -2.1531,-11.4765 z"
         inkscape:connector-curvature="0" />
      <path
         id="path830"
         d="m 70.7601,219.933 c 0.3909,-2.248 0.8549,-4.2344 1.0641,-6.2473 0.6165,-5.9325 -0.7258,-11.2815 -4.9964,-15.6749 -3.2309,-3.3238 -6.4613,-6.648 -9.7021,-9.962 -0.3738,-0.3823 -0.8135,-0.7002 -1.357,-0.9432 -0.4091,5.445 3.0827,8.8578 6.3451,12.4032 -1.2549,-0.2332 -3.7771,-1.8448 -5.6335,-3.5428 -4.795,-4.386 -6.4703,-9.945 -6.0636,-16.2523 0.3075,-4.7691 1.7177,-9.2546 3.7326,-13.5636 0.1305,-0.2792 0.2834,-0.5479 0.5037,-0.9706 -0.3058,8.887 4.3515,15.5571 9.1017,22.149 2.6388,3.6619 5.5963,7.0944 7.5924,11.1938 2.4112,4.9518 3.6124,10.0798 2.3042,15.566 -0.4941,2.071 -1.3601,3.9906 -2.8912,5.8447 z"
         inkscape:connector-curvature="0" />
      <path
         id="path832"
         d="m 144.2623,37.7285 c -0.3651,-1.6273 -0.6808,-3.2677 -1.1038,-4.8798 -1.8987,-7.2366 -4.6677,-14.1044 -8.7881,-20.3836 -0.4808,-0.7326 -1.0228,-1.4342 -1.6047,-2.0895 -1.5321,-1.7254 -2.2146,-1.9789 -4.1117,-0.7153 -2.8479,1.8969 -5.7138,3.8446 -8.2307,6.1444 -5.4212,4.9535 -9.8688,10.695 -12.554,17.6211 -1.5974,4.1201 -2.2642,8.3313 -0.5438,12.6209 0.7692,1.9181 1.8658,3.327 4.0165,4.0557 4.1571,1.4086 8.023,3.4581 10.9151,6.8989 0.9194,1.0938 1.5497,2.4306 2.4361,3.8551 -1.1818,-1.0259 -2.1232,-1.848 -3.0699,-2.6642 -4.2812,-3.6907 -9.2918,-4.9989 -14.8303,-4.433 -0.9292,0.0949 -1.49,-0.139 -2.0236,-0.8525 -2.9473,-3.9406 -3.2127,-8.3267 -2.1454,-12.9132 1.1965,-5.1419 3.6809,-9.6967 6.6402,-14.0018 5.0615,-7.3634 11.015,-13.9002 18.1844,-19.2793 0.7322,-0.5493 1.5194,-1.0406 2.3292,-1.4678 1.5471,-0.8161 2.3769,-0.7518 3.4582,0.6494 1.2371,1.6031 2.4231,3.2973 3.3115,5.1088 3.8953,7.9429 6.6893,16.246 7.7454,25.0746 0.0647,0.5407 0.0697,1.0885 0.1025,1.633 -0.0444,0.0061 -0.0887,0.0121 -0.1331,0.0181 z"
         inkscape:connector-curvature="0" />
      <path
         id="path834"
         d="m 51.0691,135.4132 c -8.2547,0.5299 -16.0922,-0.1902 -21.8359,-7.1049 -6.1118,-7.358 -4.7886,-19.5811 2.6329,-25.6329 0.1186,-0.0967 0.2645,-0.16 0.6724,-0.4018 -0.566,1.0827 -1.0206,1.8975 -1.4253,2.7364 -1.433,2.9703 -2.3822,6.0433 -1.625,9.3802 0.7823,3.4476 3.0478,5.5669 6.3449,6.549 3.2089,0.9558 6.2082,0.3473 8.7617,-1.8373 1.8958,-1.6219 2.0455,-3.7723 0.5997,-5.7684 -0.106,-0.1463 -0.1979,-0.3029 -0.3502,-0.5378 4.2956,1.2846 5.9625,5.9105 3.546,9.5575 -1.771,2.6728 -4.3955,3.9157 -7.4764,4.1716 -1.6575,0.1376 -3.3432,-0.0563 -5.0158,-0.1122 -0.381,-0.0127 -0.7603,-0.0734 -1.3648,-0.1348 1.6679,3.26 4.2598,5.1783 7.3129,6.3477 2.9601,1.1338 6.0777,1.8561 9.2229,2.7877 z"
         inkscape:connector-curvature="0" />
      <path
         id="path836"
         d="m 70.7265,66.3907 c 2.1226,-3.2878 2.9749,-6.9553 3.5458,-10.6701 0.5677,-3.6943 0.8751,-7.4286 1.3359,-11.4916 0.2762,1.123 0.4772,1.9407 0.6784,2.7583 1.5258,6.1999 4.1466,11.8332 8.6154,16.4891 0.5027,0.5237 0.2186,0.8615 0.0418,1.3619 -0.8337,2.3601 -1.9738,4.6899 -2.321,7.1279 -0.7617,5.348 1.8806,9.4469 7.1527,11.8917 0.5385,0.2497 1.0829,0.4865 1.6694,0.7494 -1.0101,0.5227 -2.7156,0.6116 -4.386,-0.0403 -1.4352,-0.5601 -2.856,-1.2658 -4.1091,-2.1531 -1.2193,-0.8634 -2.2174,-2.0391 -3.4651,-3.2223 -1.2804,4.6569 -4.679,7.2192 -8.8123,9.0684 2.6953,-3.2175 4.9001,-6.6401 4.96,-11.0154 0.0596,-4.3594 -1.9693,-7.8076 -4.9059,-10.8539 z m 7.9328,4.474 c 0.6079,-1.7001 1.1725,-3.4333 1.857,-5.1177 0.2757,-0.6786 0.1889,-1.0866 -0.211,-1.6983 -1.0178,-1.557 -1.8841,-3.2132 -2.8039,-4.8337 -0.1574,-0.2772 -0.2792,-0.5746 -0.352,-0.7262 -0.5529,2.2923 -1.122,4.5934 -1.6455,6.9048 -0.0584,0.2577 0.0814,0.612 0.2331,0.8573 0.9601,1.5517 1.9494,3.0852 2.9223,4.6138 z"
         inkscape:connector-curvature="0" />
      <path
         id="path838"
         d="m 50.7879,62.5325 c -5.9344,-1.373 -11.3519,-0.6032 -16.2907,2.8825 -0.0999,-0.1233 -0.1997,-0.2465 -0.2996,-0.3698 0.9004,-1.0553 1.6984,-2.2247 2.7218,-3.1431 2.3807,-2.1364 5.3009,-3.2073 8.3742,-3.9436 0.426,-0.1021 0.9951,-0.5799 1.0823,-0.9754 1.0554,-4.7906 1.4,-9.6219 -0.3587,-14.302 C 45.3142,40.8103 44.156,39.057 42.9541,37.4363 37.0887,29.5275 29.5837,23.8695 20.0206,21.1487 c -2.9299,-0.8336 -3.0948,-0.7732 -4.1254,2.0517 -2.0268,5.5554 -3.1064,11.3316 -3.6643,17.1958 -0.363,3.8152 -0.4877,7.653 -0.8668,11.5075 -0.1609,-2.8763 -0.4583,-5.7526 -0.4564,-8.6287 0.0051,-7.7375 0.705,-15.414 2.4842,-22.9648 0.2102,-0.8922 0.5423,-1.7551 0.7988,-2.6371 0.3397,-1.1679 1.0985,-1.5456 2.1945,-1.0901 2.3205,0.9645 4.7042,1.8216 6.9138,3.0005 8.0011,4.2689 15.2058,9.5786 21.1054,16.5531 4.0913,4.8367 6.4762,10.3389 6.6679,16.7056 0.0804,2.6699 0.0213,5.3445 -0.0065,8.0166 -0.0054,0.5048 -0.1627,1.0078 -0.2779,1.6737 z"
         inkscape:connector-curvature="0" />
      <path
         id="path840"
         d="m 58.0075,154.0657 c -6.6312,3.6002 -8.7069,9.703 -9.8205,16.3896 -0.3941,-12.5672 5.3554,-25.5686 21.2563,-27.3119 0.8512,-0.0933 1.7052,-0.162 2.6617,-0.0101 -0.5779,0.5225 -1.1627,1.0377 -1.7327,1.5687 -6.0751,5.6599 -9.0582,12.5021 -7.7427,20.8698 0.9993,6.3561 3.9809,11.8412 7.8562,16.8856 0.2921,0.3802 0.5848,0.76 0.867,1.1474 0.0315,0.0433 -0.0045,0.1357 -0.0281,0.4856 -9.1556,-7.9874 -15.451,-17.0019 -13.3172,-30.0247 z"
         inkscape:connector-curvature="0" />
      <path
         id="path842"
         d="m 138.4919,158.3824 c 0.6131,5.9109 -0.4244,11.5258 -2.8035,16.941 8.2348,-7.6449 11.7206,-17.5828 13.7439,-28.2592 0.7351,8.4143 -0.5916,16.4057 -4.8481,23.8075 -5.3902,9.3734 -15.4036,15.3701 -21.7664,16.9809 6.4792,-9.2757 12.1784,-18.7802 15.6741,-29.4702 z"
         inkscape:connector-curvature="0" />
      <path
         id="path844"
         d="m 140.573,78.3873 c 4.7782,-1.0646 8.1612,-3.7722 10.6659,-7.6542 2.4498,-3.7969 3.5773,-8.0687 4.3772,-12.4653 0.5677,3.9997 0.4912,7.9967 -0.7911,11.8075 -0.8956,2.6617 -2.2523,5.1884 -3.5918,7.6737 -0.8906,1.6525 -0.9369,3.0608 -0.0389,4.725 1.5143,2.8061 3.1022,5.6202 4.1812,8.6038 2.4395,6.7458 1.5479,13.3786 -1.3988,19.8007 -0.5589,1.2181 -1.2127,2.3927 -1.9596,3.5663 3.4354,-14.2905 -0.5934,-26.1769 -11.4441,-36.0575 z"
         inkscape:connector-curvature="0" />
      <path
         id="path846"
         d="m 29.7654,133.711 c -2.7657,-1.175 -5.5314,-2.3499 -8.4426,-3.5867 0.2761,3.9349 0.325,7.7714 -2.5612,10.777 -0.9485,0.9877 -2.2665,1.6207 -3.5435,2.2585 3.3038,-2.2777 3.5246,-5.5759 3.0993,-9.0367 -0.5138,-4.1811 -2.0952,-8.0396 -3.9746,-11.7592 -3.3302,-6.5909 -4.0801,-13.5507 -3.2289,-20.7752 0.0374,-0.3172 0.0752,-0.6346 0.0978,-0.953 0.0044,-0.0623 -0.0604,-0.1296 -0.1711,-0.3484 -3.0385,3.8098 -4.3983,8.2219 -5.5628,12.8035 0,-0.8385 -0.0211,-1.6776 0.0058,-2.5152 0.0282,-0.8785 0.079,-1.7578 0.1628,-2.6327 0.0838,-0.8745 0.1735,-1.7531 0.3427,-2.6138 0.6804,-3.4617 1.8047,-6.7577 4.3502,-9.3131 0.9893,-0.9932 2.2494,-1.7764 3.5046,-2.4267 1.0333,-0.5354 1.3526,-0.1715 1.1706,1.0021 -0.3795,2.4472 -0.9271,4.8829 -1.102,7.3449 -0.8936,12.5807 4.2356,22.4077 13.9837,30.0602 0.6475,0.5083 1.3332,0.9679 2.0012,1.4501 -0.044,0.0883 -0.088,0.1763 -0.132,0.2644 z"
         inkscape:connector-curvature="0" />
      <path
         id="path848"
         d="m 121.2322,99.8108 c -5.0769,1.2422 -10.1709,1.9053 -15.0011,-0.7636 -4.126,-2.2798 -5.735,-6.1623 -6.1707,-10.6325 -0.1183,-1.2139 -0.0179,-2.449 -0.0179,-3.8666 1.352,0.2821 2.4716,0.4943 3.5809,0.7512 3.376,0.7816 6.7797,1.0859 10.2331,0.6645 9.185,-1.1207 14.9873,4.575 17.6095,11.0941 1.0281,2.5559 1.3834,4.6911 1.1802,6.8302 -0.4543,-1.1305 -0.7978,-2.0161 -1.1645,-2.892 -1.2483,-2.9819 -2.8848,-5.7003 -5.363,-7.8421 -1.9705,-1.7029 -4.2434,-2.72 -6.8537,-2.8017 -1.8326,-0.0574 -3.673,0.0096 -5.5057,0.1035 -2.7074,0.1388 -5.4198,0.5622 -8.2377,-0.4893 -0.0396,1.7665 0.5965,3.1609 1.4848,4.4257 2.3197,3.3025 5.7988,4.4879 9.5751,5.0229 1.538,0.2179 3.0997,0.2688 4.6507,0.3957 z"
         inkscape:connector-curvature="0" />
      <path
         id="path850"
         d="m 58.7391,95.2219 c -2.4684,1.2328 -4.9809,1.0538 -7.4991,0.9076 -5.8098,-0.3373 -10.4611,1.7803 -13.8147,6.5991 -0.9073,1.3037 -1.8125,2.6087 -2.8003,3.8665 0.6476,-3.1342 1.9571,-5.9574 3.9657,-8.4378 3.2506,-4.0141 7.4281,-6.1869 12.6365,-6.3854 1.7499,-0.0667 3.565,-0.1407 5.2147,-0.6504 1.744,-0.5389 3.3263,-1.6011 4.9967,-2.4435 4.2241,7.1829 3.1479,14.1345 -4.169,17.4944 -5.2102,2.3925 -10.7393,2.7935 -16.3847,2.4887 2.0735,-0.5234 4.1645,-0.9869 6.2163,-1.5847 2.8954,-0.8436 5.6587,-2.0061 7.9991,-3.9725 2.3933,-2.0107 3.6765,-4.5558 3.6388,-7.882 z"
         inkscape:connector-curvature="0" />
      <path
         id="path852"
         d="m 13.6305,153.0164 c -3.4062,-0.107 -6.4352,-0.9265 -8.6013,-3.6506 -0.9747,-1.2259 -1.595,-2.6233 -1.6977,-4.4833 2.3018,2.9601 5.2614,3.7143 8.5746,3.4513 3.2843,-0.2607 6.0331,-1.6756 8.4079,-4.3358 -0.6268,3.1419 -1.2865,5.9724 -1.7432,8.8352 -1.0194,6.3904 -1.4835,12.7938 0.1529,19.1693 0.6328,2.4653 1.6789,4.7354 3.3728,6.7587 -3.0799,-0.522 -7.5847,-6.1879 -8.9328,-11.0914 -1.3467,-4.8986 -0.7605,-9.7446 0.4668,-14.6534 z"
         inkscape:connector-curvature="0" />
      <path
         id="path854"
         d="m 140.6049,186.6924 c 5.2489,-3.8661 8.8167,-8.9583 11.1001,-15.0129 2.2407,-5.9413 3.1482,-12.1064 3.0565,-18.8521 4.3635,6.8468 10.6203,9.6942 18.1274,10.3303 -4.3882,1.4402 -8.7701,2.0941 -13.3047,0.3944 -2.2524,11.1047 -8.775,18.6507 -18.9793,23.1403 z"
         inkscape:connector-curvature="0" />
      <path
         id="path856"
         d="m 118.1726,59.8822 c 1.5303,1.108 3.2574,2.1828 4.7773,3.4972 2.7825,2.4064 5.7294,4.4634 9.3219,5.4625 5.4778,1.5235 9.6388,-0.5911 11.6384,-5.9233 1.179,-3.1441 1.6288,-6.4235 1.7166,-9.7511 0.0726,-2.7496 0.0148,-5.5027 0.0148,-8.1931 -0.0315,-0.0216 0.0733,0.01 0.0897,0.067 1.7908,6.2331 2.925,12.5431 1.8079,19.0377 -0.6659,3.8715 -2.3459,7.2134 -5.741,9.4548 -2.4445,1.6139 -5.1305,1.2548 -7.7667,0.736 -2.2894,-0.4505 -4.2639,-1.6567 -5.8753,-3.3089 -1.9776,-2.0275 -3.8093,-4.1973 -5.7031,-6.3065 -1.4382,-1.6019 -2.8749,-3.2051 -4.2805,-4.7723 z"
         inkscape:connector-curvature="0" />
      <path
         id="path858"
         d="M 19.4761,91.1869 C 14.5636,89.1595 11.4264,85.562 9.7728,80.6544 8.2624,76.1717 8.3332,71.5924 9.1053,66.9892 c 0.4002,2.3707 0.7234,4.7576 1.2204,7.1078 0.6086,2.8781 1.7075,5.5758 3.5056,7.9411 2.4837,3.2673 5.8285,4.8764 9.8919,5.0738 0.7957,0.0387 1.5916,0.0731 2.3872,0.1139 0.0253,0.0013 0.0481,0.0507 0.1107,0.1211 -5.1326,9.3294 -9.148,18.9276 -6.3067,29.9583 -1.818,-1.806 -3.5934,-8.0585 -3.45,-12.8209 0.1389,-4.6122 1.1925,-9.0034 3.0117,-13.2974 z"
         inkscape:connector-curvature="0" />
      <path
         id="path860"
         d="m 172.7658,152.1784 c -5.7426,4.3559 -17.0508,-1.101 -19.9105,-9.6847 3.8583,-0.5846 7.5533,-1.631 10.88,-3.7218 3.3871,-2.1288 5.8797,-5.0093 7.4707,-9.0633 0.0859,0.5968 0.164,0.877 0.1608,1.1563 -0.0725,6.2657 -2.7272,10.9964 -8.3787,13.8739 -0.8826,0.4494 -0.8139,0.8958 -0.4442,1.5872 1.4182,2.6518 3.7929,4.0436 6.5315,4.9183 1.1984,0.3827 2.4423,0.6229 3.6904,0.9341 z"
         inkscape:connector-curvature="0" />
      <path
         id="path862"
         d="m 156.4673,84.7707 c 2.772,1.4096 4.6707,3.4933 5.7325,6.3334 1.3372,3.5769 1.2062,7.2464 0.3988,10.8793 -0.5179,2.3303 -1.3197,4.6034 -2.0981,6.8665 -0.2432,0.707 -0.0526,1.0935 0.3721,1.5818 2.7483,3.16 4.8397,6.6735 5.4934,10.8785 0.2124,1.3665 0.1761,2.7718 0.0709,4.2179 -0.9215,-3.1056 -2.348,-5.8496 -4.9549,-8.2442 0.0508,4.6301 0.2036,8.9997 -2.5173,13.0783 0.918,-6.8908 -0.6701,-13.2431 -1.9341,-19.6339 -0.0993,-0.5024 0.0269,-1.1119 0.224,-1.6008 1.9643,-4.8721 3.3107,-9.855 2.8521,-15.1774 -0.2711,-3.146 -1.2816,-6.0055 -3.3522,-8.4408 -0.1031,-0.1213 -0.2017,-0.2491 -0.2822,-0.3857 -0.0308,-0.0523 -0.005,-0.138 -0.005,-0.3529 z"
         inkscape:connector-curvature="0" />
      <path
         id="path864"
         d="m 36.4302,77.8282 c -0.6837,2.331 -1.366,4.6097 -2.0115,6.8987 -0.1283,0.4549 -0.1453,0.9486 -0.1628,1.4262 -0.095,2.5972 0.8586,4.0242 3.3903,4.6157 1.727,0.4035 3.5269,0.4949 5.1672,0.7093 -15.0702,3.9084 -20.9283,14.2904 -20.023,29.3949 -0.8156,-2.8944 -0.9885,-5.8278 -0.8448,-8.7773 0.4267,-8.755 3.1999,-16.7364 7.9895,-24.0545 1.9041,-2.9093 3.7157,-5.8791 5.573,-8.819 0.2934,-0.4643 0.6057,-0.9166 0.9221,-1.394 z"
         inkscape:connector-curvature="0" />
      <path
         id="path866"
         d="m 126.4904,72.2432 c 2.9453,2.3082 5.9771,4.5154 8.8167,6.9472 4.8284,4.1349 9.1152,8.7666 11.8578,14.5979 0.8218,1.7474 1.3482,3.6338 2.0099,5.4565 -0.1007,0.038 -0.2014,0.076 -0.3021,0.1141 -0.8261,-1.3845 -1.5625,-2.8327 -2.4936,-4.1424 -4.1148,-5.7883 -10.0181,-8.7519 -16.7161,-10.4191 -4.1747,-1.0391 -8.4239,-1.4357 -12.715,-1.4672 -0.4246,-0.0031 -0.8492,-4e-4 -1.2872,-0.1595 1.9969,-0.3451 4.0091,-0.6203 5.9865,-1.0541 2.1411,-0.4697 4.2858,-0.9797 6.3614,-1.674 1.7056,-0.5705 2.0802,-1.5309 1.3175,-3.1912 -0.5605,-1.2201 -1.3938,-2.3176 -2.1339,-3.4513 -0.2805,-0.4296 -0.6404,-0.8074 -0.9641,-1.2088 0.0875,-0.1161 0.1748,-0.2321 0.2622,-0.3481 z"
         inkscape:connector-curvature="0" />
      <path
         id="path868"
         d="M 79.6687,45.6773 C 83.5931,51.3239 87.7543,56.6302 93.692,60.3279 90.21,66.5055 88.2466,72.8081 91.7137,79.6931 90.0682,78.5996 88.9898,77.0849 88.24,75.319 86.719,71.7368 86.7181,68.0036 87.2721,64.2469 87.4131,63.2906 87.2432,62.653 86.5798,61.9125 82.5591,57.4245 80.4544,52.0677 79.6714,46.1464 79.6509,45.9926 79.6687,45.8338 79.6687,45.6773 Z"
         inkscape:connector-curvature="0" />
      <path
         id="path870"
         d="m 54.0626,53.2189 c -0.9799,-3.8102 -1.9306,-7.5067 -2.8837,-11.2124 0.6672,0.7013 1.4717,1.457 2.1668,2.3026 0.7067,0.8597 1.3055,1.808 1.9992,2.7846 3.1826,-2.3723 6.9493,-3.0187 10.7567,-3.615 3.2668,-0.5116 6.3996,-1.4344 8.9494,-3.732 0.1962,-0.1768 0.6948,-0.263 0.9076,-0.1399 3.5912,2.0764 7.5094,2.2133 11.5114,2.148 2.7489,-0.0449 5.5043,0.1749 8.2531,0.339 0.7446,0.0444 1.4757,0.3163 2.338,0.5122 0.5355,-2.5884 1.4372,-4.9731 3.606,-6.7015 -1.26,3.6748 -1.432,7.4086 -0.7779,11.1792 -1.5794,-0.8094 -3.0055,-1.8703 -4.5998,-2.2859 -2.9611,-0.7719 -6.0115,-1.2228 -9.041,-1.705 -3.6231,-0.5766 -7.2623,-1.0531 -10.8977,-1.5492 -0.325,-0.0443 -0.7229,-0.0045 -1.0039,0.1485 -2.709,1.4754 -5.6456,2.2855 -8.6542,2.725 -5.2838,0.7717 -9.1044,3.6396 -12.0307,7.9261 -0.2131,0.3119 -0.4267,0.6235 -0.5993,0.8757 z"
         inkscape:connector-curvature="0" />
      <path
         id="path872"
         d="m 68.9435,83.5587 c 2.446,-7.6499 -0.1887,-13.6097 -6.139,-18.5987 3.9539,-5.9449 7.8377,-11.9448 9.1979,-19.2589 0.1554,0.6768 0.3653,1.3464 0.4576,2.0317 0.6476,4.8108 -0.538,9.3587 -2.0309,13.8591 -0.0125,0.0377 -0.0351,0.0718 -0.05,0.1088 -0.5978,1.4806 -1.6787,2.9695 -1.654,4.4397 0.0238,1.4098 1.2492,2.7772 1.8515,4.2033 1.9787,4.6847 1.4821,9.097 -1.6331,13.215 z"
         inkscape:connector-curvature="0" />
      <path
         id="path874"
         d="m 12.6228,59.5919 c 0.5066,1.7824 0.9634,3.5808 1.5306,5.3438 1.0835,3.3678 2.4564,6.5948 4.9564,9.2039 1.614,1.6844 3.5305,2.7334 5.9249,2.706 1.0857,-0.0124 1.9266,-0.3793 2.641,-1.3277 2.6509,-3.5192 5.9755,-6.3148 9.7119,-8.6292 0.2331,-0.1444 0.4931,-0.2455 0.6537,-0.3242 -1.4565,1.768 -3.2013,3.4439 -4.4002,5.4466 -1.7133,2.8619 -3.0831,5.9372 -4.4756,8.9782 C 28.7746,81.843 28.37,82.2199 27.4449,82.273 22.798,82.5399 19.62,80.1982 17.2407,76.5211 14.7123,72.6137 13.6479,68.1889 12.95,63.6583 c -0.206,-1.337 -0.3537,-2.6831 -0.528,-4.025 0.0669,-0.0137 0.1339,-0.0276 0.2008,-0.0414 z"
         inkscape:connector-curvature="0" />
      <path
         id="path876"
         d="m 115.9707,78.7491 c 0.8936,-1.6927 1.8897,-3.3993 2.7088,-5.187 0.674,-1.471 0.4803,-2.8596 -0.9194,-3.9393 -2.2689,-1.7502 -4.3467,-3.8152 -6.797,-5.2485 -4.4862,-2.6242 -8.5713,-1.4058 -11.2905,3.0057 -0.6465,1.0488 -1.1681,2.1746 -1.7471,3.2649 -0.1059,-0.0235 -0.2119,-0.047 -0.3178,-0.0705 0.5288,-2.0689 0.9312,-4.1818 1.6312,-6.1911 0.4636,-1.3308 1.2004,-2.6363 2.0852,-3.7356 1.77,-2.199 4.4285,-2.683 7.2853,-1.2354 1.8709,0.948 3.7142,2.0999 5.2625,3.5004 2.3641,2.1382 4.4754,4.5581 6.6568,6.8932 0.2621,0.2806 0.4597,0.8024 0.4048,1.1702 -0.5036,3.373 -2.0906,6.0599 -4.9628,7.773 z"
         inkscape:connector-curvature="0" />
      <path
         id="path878"
         d="m 61.6587,76.0087 c -1.5537,-1.0984 -2.8637,-2.1409 -4.2819,-3.0059 -4.8466,-2.9561 -9.4144,-2.2414 -13.011,2.1427 -1.2556,1.5306 -2.2131,3.316 -3.2101,5.041 -0.2353,0.4071 -0.2626,1.1197 -0.0723,1.5547 0.7249,1.6568 1.5779,3.2575 2.3849,4.8829 -2.3585,-1.3703 -3.7014,-3.5858 -4.7256,-6.0441 -0.0881,-0.2115 -0.0041,-0.5558 0.1111,-0.7817 2.0856,-4.0892 4.5712,-7.8845 8.1345,-10.8663 0.4578,-0.3831 0.9595,-0.7221 1.4715,-1.0307 3.3162,-1.9982 6.4427,-1.575 9.0933,1.2435 1.8213,1.9366 3.037,4.2348 4.1056,6.8639 z"
         inkscape:connector-curvature="0" />
      <path
         id="path880"
         d="m 120.6668,34.3559 c -0.0527,3.2967 -0.5874,6.2434 -2.4344,8.8194 -1.5609,2.1769 -3.7543,3.2624 -6.3599,3.6631 -0.8649,0.133 -1.094,-0.366 -1.3591,-0.9905 -3.3576,-7.9093 -0.8693,-14.9506 6.8972,-19.4334 0.9143,-0.5277 1.8772,-0.9714 2.9322,-1.2477 -0.9455,0.8436 -1.9362,1.6422 -2.828,2.5392 -2.6266,2.642 -4.7372,5.638 -4.756,9.5048 -0.009,1.8624 0.6307,3.7339 1.0306,5.5896 0.1897,0.88 0.8728,0.9824 1.4437,0.4699 0.9956,-0.8937 2.1018,-1.7884 2.7478,-2.9191 1.0366,-1.8142 1.7356,-3.8211 2.6859,-5.9953 z"
         inkscape:connector-curvature="0" />
      <path
         id="path882"
         d="m 93.1803,94.0421 c -0.0697,2.1589 -1.8893,4.2174 -3.9138,4.5101 -1.0163,0.1469 -1.5852,0.7171 -2.0425,1.6163 -0.8477,1.6668 -1.748,3.3177 -2.7697,4.8815 -0.784,1.1999 -1.3489,1.2898 -2.5075,0.5264 -2.0251,-1.3344 -4.061,-2.6461 -5.3177,-4.8806 -0.3146,-0.5594 -1.2677,-1.0287 -1.9512,-1.0629 -2.3665,-0.1185 -4.0118,-2.3029 -3.2503,-4.5403 0.0772,-0.2267 0.1662,-0.4494 0.2523,-0.673 1.287,-3.3446 1.2871,-3.3436 4.8269,-2.991 4.0329,0.4016 7.8972,-0.0281 11.4099,-2.2694 0.2307,-0.1472 0.6497,-0.2192 0.8808,-0.1113 1.9438,0.9071 3.4786,2.2478 4.2646,4.3074 0.0971,0.2546 0.0956,0.5468 0.1182,0.6868 z m -3.2463,3.9268 c 1.3644,-1.3678 1.7237,-3.1819 0.9818,-4.5724 -0.8302,-1.5559 -2.2292,-2.2056 -4.137,-1.7151 -1.3037,0.3352 -2.5357,0.9402 -3.8249,1.3444 -0.6377,0.1999 -1.3708,0.4102 -1.994,0.2847 -2.1232,-0.4278 -4.206,-0.4662 -6.2634,0.24 -0.3837,0.1317 -0.8376,0.3904 -1.0186,0.7219 -0.6813,1.2479 -0.8162,2.5898 -0.2501,3.9246 0.5195,1.2247 1.052,1.2686 1.911,0.2427 0.5587,-0.6672 1.1709,-1.3094 2.1223,-0.6759 0.8333,0.5549 0.8688,1.3805 0.3442,2.4156 -0.187,0.369 -0.2413,1.1912 -0.0538,1.3039 1.725,1.0375 3.4505,2.5402 5.3081,2.7529 1.6674,0.191 2.5138,-2.0508 3.5306,-3.4094 0.0477,-0.0637 0.1266,-0.1405 0.1193,-0.2029 -0.0479,-0.4115 0.031,-0.9666 -0.2045,-1.2029 -0.6539,-0.6566 -0.7725,-1.289 -0.2391,-2.0167 0.5638,-0.7693 1.3036,-0.8655 2.1117,-0.408 0.5154,0.2914 1.006,0.6264 1.5564,0.9726 z"
         inkscape:connector-curvature="0" />
      <path
         id="path884"
         d="m 68.4832,46.7874 c -2.9008,1.9352 -5.1979,4.4367 -6.4183,7.6855 -0.6572,1.7495 -0.7563,3.7099 -1.0956,5.5773 -0.1776,0.9775 -0.1657,2.031 -0.5497,2.9154 -0.2737,0.6303 -1.0291,1.387 -1.6344,1.4484 -0.6787,0.0689 -1.5967,-0.4253 -2.1036,-0.9636 -0.5049,-0.5362 -0.7893,-1.4089 -0.8934,-2.1719 -0.5221,-3.827 0.1707,-7.3005 3.1472,-10.0632 2.1125,-1.9608 4.5074,-3.4198 7.2674,-4.2527 0.7089,-0.214 1.4512,-0.3176 2.1781,-0.472 0.0342,0.0989 0.0682,0.1979 0.1023,0.2968 z"
         inkscape:connector-curvature="0" />
      <path
         id="path886"
         d="M 39.053,43.6509 C 38.6416,37.91 35.1215,34.193 30.7615,30.951 c 7.5783,0.3556 13.5351,12.3459 11.2755,23.0672 -1.6119,-3.3303 -3.3647,-6.222 -5.7508,-8.6728 -2.3925,-2.4575 -5.1948,-4.2781 -8.4286,-5.4676 4.192,-0.1246 7.7267,1.5808 11.1954,3.7731 z"
         inkscape:connector-curvature="0" />
      <path
         id="path888"
         d="m 83.7814,44.8751 c 6.079,-0.7376 13.2975,3.2353 15.5701,8.4957 0.4479,1.0368 0.5688,2.3294 0.4548,3.4653 -0.1404,1.3996 -1.1113,1.8547 -2.5002,1.6571 -1.6873,-0.2401 -2.8722,-1.113 -3.5973,-2.6301 -0.3091,-0.6466 -0.6315,-1.2943 -0.8585,-1.9715 -1.4018,-4.1835 -4.3882,-6.8348 -8.2722,-8.6325 -0.1736,-0.0803 -0.3448,-0.1659 -0.7967,-0.384 z"
         inkscape:connector-curvature="0" />
      <path
         id="path890"
         d="m 64.0344,126.739 c 5.8136,-1.3356 9.767,-5.3419 13.6347,-9.4768 1.2546,-1.3413 2.5311,-2.6622 3.8025,-3.9876 0.9802,-1.0218 2.1133,-1.2351 3.3691,-0.5649 1.6899,0.9019 3.3789,1.8069 5.046,2.7501 4.5172,2.5558 9.0256,5.1255 14.2134,6.1557 -3.1215,0.1063 -6.1217,-0.5005 -8.9751,-1.6436 -2.887,-1.1566 -5.7127,-2.4784 -8.513,-3.8356 -2.2212,-1.0765 -4.0945,-0.8505 -5.8886,0.8938 -2.0885,2.0305 -4.2062,4.0462 -6.4565,5.8911 -2.9374,2.4082 -6.3095,3.8643 -10.2325,3.8178 z"
         inkscape:connector-curvature="0" />
      <path
         id="path892"
         d="m 30.7332,62.4292 c -1.1633,2.7248 -2.5882,5.2479 -4.9649,7.0513 -2.1865,1.6591 -4.2872,1.4922 -6.2454,-0.4398 -2.141,-2.1123 -3.2947,-4.8067 -4.1484,-7.6078 -0.6453,-2.1174 -1.032,-4.3136 -1.5337,-6.4748 0.1596,-0.0544 0.3192,-0.1088 0.4789,-0.1633 0.2991,0.6156 0.5514,1.2596 0.9058,1.8415 1.2226,2.0074 2.2957,4.143 3.7645,5.9553 2.9282,3.6128 6.0459,3.9118 9.8688,1.2446 0.6403,-0.4468 1.2503,-0.9369 1.8744,-1.407 z"
         inkscape:connector-curvature="0" />
      <path
         id="path894"
         d="m 141.3616,41.8678 c 0.9998,5.5434 1.1584,11.0167 -1.1926,16.257 -1.8651,4.1573 -5.1358,5.2145 -9.1333,3.071 -1.996,-1.0703 -4.7296,-3.3986 -5.5945,-4.7836 1.6009,0.6706 3.1374,1.4132 4.7393,1.966 4.2574,1.4691 7.1103,0.1151 8.7812,-4.101 1.3716,-3.4607 1.8116,-7.1115 2.136,-10.7826 0.0387,-0.4379 0.077,-0.8761 0.1309,-1.3122 0.0133,-0.1088 0.087,-0.21 0.133,-0.3146 z"
         inkscape:connector-curvature="0" />
      <path
         id="path896"
         d="m 55.7751,78.8739 c -0.3588,1.1345 -0.6227,2.3889 -1.149,3.5213 -0.5975,1.2859 -1.7358,1.9723 -3.202,1.8768 -1.484,-0.0966 -2.4243,-0.9686 -2.8685,-2.3369 -0.7895,-2.4316 -0.4864,-4.7598 1.0463,-6.8062 1.6267,-2.1717 4.229,-1.8667 5.3214,0.604 0.4097,0.9266 0.5454,1.9742 0.8518,3.141 z"
         inkscape:connector-curvature="0" />
      <path
         id="path898"
         d="m 110.891,72.0862 c -0.0139,2.152 -0.8607,3.3529 -2.4192,3.7839 -1.4419,0.3987 -2.9427,-0.195 -3.7837,-1.6227 -1.1166,-1.8955 -1.4306,-3.9003 -0.3792,-5.9345 0.8845,-1.7112 2.7295,-2.1042 4.2352,-0.9126 1.6138,1.277 2.2275,3.0523 2.3469,4.6859 z"
         inkscape:connector-curvature="0" />
      <path
         id="path900"
         d="m 25.1461,58.5585 c 3.534,-0.7601 6.9098,-1.7588 9.7746,-4.4121 -3.4227,-3.9264 -8.0061,-4.6498 -12.8056,-5.1307 5.9058,-1.395 14.0432,0.1115 17.0888,5.8117 -4.1798,3.1918 -8.9996,3.9474 -14.0578,3.7311 z"
         inkscape:connector-curvature="0" />
      <path
         id="path902"
         d="m 53.6416,88.7736 c 4.3587,-1.8294 7.5778,-4.7229 9.0109,-9.6093 2.9179,4.4314 4.7861,8.982 5.0031,14.1613 -1.6859,-2.7942 -3.1125,-5.7717 -5.7048,-7.9957 -2.3627,2.151 -5.2381,3.0049 -8.3092,3.4437 z"
         inkscape:connector-curvature="0" />
      <path
         id="path904"
         d="m 86.529,86.9368 c -1.6851,2.5485 -7.8825,3.5082 -10.7567,1.5219 1.4477,-1.9231 2.8966,-3.8477 4.2986,-5.7101 2.0927,1.3571 4.2388,2.7489 6.4581,4.1882 z"
         inkscape:connector-curvature="0" />
      <path
         id="path906"
         d="m 97.2082,75.7501 c 2.7422,4.2923 6.5124,6.0063 11.2923,5.9743 -0.591,0.1414 -1.1749,0.3464 -1.7742,0.4129 -2.2874,0.254 -4.5585,0.1753 -6.716,-0.7183 -0.7359,-0.3048 -1.1852,-0.0972 -1.4261,0.5485 -0.7479,2.0044 -1.4646,4.0211 -2.1486,6.0483 -0.1824,0.5406 -0.204,1.1355 -0.394,1.693 -1.2657,-4.7042 -0.9029,-9.2655 1.1666,-13.9587 z"
         inkscape:connector-curvature="0" />
      <path
         id="path908"
         d="m 159.5794,67.5925 c 0.3946,2.9453 -0.008,5.7972 -0.9233,8.5836 -0.8374,2.5509 -0.2241,3.7171 2.4741,4.2462 1.1959,0.2345 2.4471,0.1871 3.6103,0.2636 -2.0253,2.1918 -7.1777,1.8216 -10.9573,-0.944 2.7564,-3.6384 5.0995,-7.4976 5.7962,-12.1494 z"
         inkscape:connector-curvature="0" />
      <path
         id="path910"
         d="m 120.7997,48.6463 c 2.3,0.8051 4.4494,0.5297 6.6729,0.2261 -2.3911,2.5353 -8.2498,2.6774 -12.2088,0.2834 5.661,-1.8037 9.2601,-5.9892 12.6922,-10.4347 -0.3507,2.5251 -4.1557,7.8605 -7.1563,9.9252 z"
         inkscape:connector-curvature="0" />
      <path
         id="path912"
         d="m 5.2868,81.7918 c 0.457,0.9184 0.908,1.8398 1.3724,2.7545 0.757,1.4911 1.787,2.7144 3.3043,3.5056 0.6672,0.3479 1.2908,0.7928 1.8939,1.2471 0.712,0.5364 1.179,1.1977 0.7794,2.16 -0.4194,1.01 -1.2741,0.9552 -2.1207,0.8529 C 9.1554,92.1476 8.1731,91.3717 7.4251,90.2708 6.0867,88.3008 5.6268,86.0387 5.2932,83.7401 5.2024,83.1141 5.1626,82.4807 5.0994,81.8508 5.1619,81.831 5.2243,81.8114 5.2868,81.7918 Z"
         inkscape:connector-curvature="0" />
    </g>
  </g>
</svg>
