<?xml version="1.0" encoding="UTF-8" standalone="no"?>
<!-- Created with Inkscape (http://www.inkscape.org/) -->

<svg
   xmlns:dc="http://purl.org/dc/elements/1.1/"
   xmlns:cc="http://creativecommons.org/ns#"
   xmlns:rdf="http://www.w3.org/1999/02/22-rdf-syntax-ns#"
   xmlns:svg="http://www.w3.org/2000/svg"
   xmlns="http://www.w3.org/2000/svg"
   xmlns:xlink="http://www.w3.org/1999/xlink"
   xmlns:sodipodi="http://sodipodi.sourceforge.net/DTD/sodipodi-0.dtd"
   xmlns:inkscape="http://www.inkscape.org/namespaces/inkscape"
   width="256"
   height="256"
   viewBox="0 0 256 256.00001"
   id="svg2"
   version="1.1"
   inkscape:version="0.92.2 2405546, 2018-03-11"
   sodipodi:docname="gufo-1.svg"
   inkscape:export-filename="/home/ilnanny/Immagini/gufo-1.png"
   inkscape:export-xdpi="375"
   inkscape:export-ydpi="375">
  <defs
     id="defs4">
    <pattern
       inkscape:collect="always"
       xlink:href="#pattern6493"
       id="pattern6497"
       patternTransform="matrix(0.08740985,-0.12551733,0.68838741,0.47939068,-276.31188,1087.0325)" />
    <pattern
       inkscape:collect="always"
       xlink:href="#pattern6486"
       id="pattern6493"
       patternTransform="matrix(0.08740985,-0.12551733,0.68838741,0.47939068,-20.311876,1087.0325)" />
    <pattern
       inkscape:collect="always"
       xlink:href="#Wavy"
       id="pattern6489"
       patternTransform="translate(0,-796.36218)" />
    <pattern
       inkscape:stockid="Wavy"
       id="Wavy"
       height="5.1805778"
       width="30.066020"
       patternUnits="userSpaceOnUse"
       inkscape:collect="always">
      <path
         id="path6391"
         d="M 7.597,0.061 C 5.079,-0.187 2.656,0.302 -0.01,1.788 L -0.01,3.061 C 2.773,1.431 5.173,1.052 7.472,1.280 C 9.770,1.508 11.969,2.361 14.253,3.218 C 18.820,4.931 23.804,6.676 30.066,3.061 L 30.062,1.788 C 23.622,5.497 19.246,3.770 14.691,2.061 C 12.413,1.207 10.115,0.311 7.597,0.061 z "
         style="fill:black;stroke:none;" />
    </pattern>
    <pattern
       patternUnits="userSpaceOnUse"
       width="256"
       height="256"
       patternTransform="translate(0,796.36218)"
       id="pattern6486">
      <rect
         style="opacity:0.24899998;fill:url(#pattern6489);fill-opacity:1;stroke:none;stroke-width:0.45087391;stroke-linecap:round;stroke-linejoin:bevel;stroke-miterlimit:4;stroke-dasharray:none;stroke-opacity:1"
         id="rect5045"
         width="256"
         height="256"
         x="0"
         y="0" />
    </pattern>
  </defs>
  <sodipodi:namedview
     id="base"
     pagecolor="#ffffff"
     bordercolor="#666666"
     borderopacity="1.0"
     inkscape:pageopacity="0.0"
     inkscape:pageshadow="2"
     inkscape:zoom="2.0495797"
     inkscape:cx="-52.380447"
     inkscape:cy="111.40092"
     inkscape:document-units="px"
     inkscape:current-layer="layer1"
     showgrid="false"
     units="px"
     inkscape:showpageshadow="false"
     inkscape:window-width="1920"
     inkscape:window-height="991"
     inkscape:window-x="0"
     inkscape:window-y="25"
     inkscape:window-maximized="1" />
  <metadata
     id="metadata7">
    <rdf:RDF>
      <cc:Work
         rdf:about="">
        <dc:format>image/svg+xml</dc:format>
        <dc:type
           rdf:resource="http://purl.org/dc/dcmitype/StillImage" />
        <dc:title />
        <cc:license
           rdf:resource="http://creativecommons.org/licenses/by-sa/4.0/" />
        <dc:date>2017</dc:date>
        <dc:creator>
          <cc:Agent>
            <dc:title>Cristian Pozzessere  &lt; ilnanny &gt;</dc:title>
          </cc:Agent>
        </dc:creator>
        <dc:subject>
          <rdf:Bag>
            <rdf:li>ilnanny</rdf:li>
          </rdf:Bag>
        </dc:subject>
      </cc:Work>
      <cc:License
         rdf:about="http://creativecommons.org/licenses/by-sa/4.0/">
        <cc:permits
           rdf:resource="http://creativecommons.org/ns#Reproduction" />
        <cc:permits
           rdf:resource="http://creativecommons.org/ns#Distribution" />
        <cc:requires
           rdf:resource="http://creativecommons.org/ns#Notice" />
        <cc:requires
           rdf:resource="http://creativecommons.org/ns#Attribution" />
        <cc:permits
           rdf:resource="http://creativecommons.org/ns#DerivativeWorks" />
        <cc:requires
           rdf:resource="http://creativecommons.org/ns#ShareAlike" />
      </cc:License>
    </rdf:RDF>
  </metadata>
  <g
     inkscape:label="Livello 1"
     inkscape:groupmode="layer"
     id="layer1"
     transform="translate(0,-796.36218)">
    <rect
       style="opacity:1;fill:#dc0000;fill-opacity:1;stroke:none;stroke-width:0.45087391;stroke-linecap:round;stroke-linejoin:bevel;stroke-miterlimit:4;stroke-dasharray:none;stroke-opacity:1"
       id="rect4819"
       width="256"
       height="256"
       x="0"
       y="796.36218" />
    <path
       style="fill:#510000;fill-opacity:0.75;fill-rule:nonzero;stroke:none;stroke-width:0.94342428;stroke-miterlimit:4;stroke-dasharray:none;stroke-opacity:1"
       d="m 110.51063,990.47802 c 0.0384,0 0.0768,0 0.11647,0.01 0.26296,0.035 0.49951,0.1837 0.64239,0.4082 l 16.69506,26.10528 20.53501,-25.56128 c 0.1681,-0.2101 0.42266,-0.3338 0.69282,-0.3362 0.28818,-0.03 0.52593,0.114 0.70003,0.3218 l 9.58309,11.44178 13.47347,-14.80748 6.57284,-9.8941 c 0.23294,-0.3506 0.67601,-0.4947 1.06866,-0.3434 l 4.84977,1.8335 2.84455,-14.43637 c 0.054,-0.27257 0.23174,-0.50551 0.4803,-0.62919 0.24855,-0.12607 0.54273,-0.12847 0.79128,-0.008 l 3.05468,1.45289 4.0717,-17.70487 c 0.06,-0.27017 0.24375,-0.49711 0.4935,-0.61358 0.25096,-0.11767 0.54033,-0.11527 0.78648,0.0108 l 5.15237,2.58519 -3.67426,-37.88207 -10.5821,-11.67357 c -0.1753,-0.19332 -0.25815,-0.45267 -0.22694,-0.70963 l 1.42768,-12.10944 -4.84017,-7.18761 c -0.13929,-0.20653 -0.18732,-0.45989 -0.13208,-0.70364 l 0.78528,-3.4341 -0.79849,-5.92084 c -0.0588,-0.43107 0.20052,-0.84292 0.61358,-0.9762 l 6.50559,-2.1145 14.25756,-21.76096 5.13075,-14.45328 h -40.74823 l -5.11634,14.87354 c -0.0937,0.26776 -0.30619,0.47789 -0.57875,0.56434 l -16.46812,5.25323 c -0.0876,0.0288 -0.18011,0.0432 -0.27256,0.0432 h -44.74668 c -0.11407,0 -0.22574,-0.0216 -0.33261,-0.0636 l -13.220114,-5.25323 c -0.22574,-0.0901 -0.40705,-0.27017 -0.4995,-0.4947 l -6.12857,-14.92277 h -39.05158 l 5.12955,14.45328 14.26476,21.76937 8.53004,2.94541 c 0.31219,0.10806 0.54033,0.37943 0.59436,0.70603 0.054,0.3254 -0.0756,0.6556 -0.3374,0.85853 l -5.92564,4.57961 3.25039,2.87336 c 0.323,0.28458 0.39865,0.75527 0.18492,1.12629 l -4.18697,7.22844 0.74685,12.17068 c 0.0156,0.26416 -0.0853,0.52352 -0.27857,0.70723 l -10.00934,9.51345 -3.06549,40.01097 5.18599,-2.602 c 0.24855,-0.12608 0.53793,-0.12848 0.78768,-0.0108 0.24976,0.11647 0.43227,0.34341 0.49351,0.61358 l 4.0717,17.70487 3.05347,-1.45289 c 0.24975,-0.12127 0.54514,-0.11887 0.79249,0.008 0.24855,0.12368 0.42506,0.35662 0.47909,0.62919 l 2.84455,14.43636 4.84978,-1.8335 c 0.39264,-0.1501 0.83691,-0.01 1.06985,0.3434 l 6.55963,9.8761 14.07144,13.98138 12.326764,-11.30618 c 0.16691,-0.1537 0.38424,-0.2365 0.60878,-0.2365"
       id="path1970"
       inkscape:connector-curvature="0" />
    <rect
       style="fill:url(#pattern6493);stroke:none"
       width="256"
       height="256"
       x="0"
       y="796.36218"
       id="rect6491" />
    <rect
       id="rect6495"
       y="796.36218"
       x="-256"
       height="256"
       width="256"
       style="fill:url(#pattern6497);stroke:none"
       transform="scale(-1,1)" />
    <g
       aria-label="@ilnanny"
       style="font-style:normal;font-variant:normal;font-weight:normal;font-stretch:normal;font-size:14.18806267px;line-height:125%;font-family:Satellite;-inkscape-font-specification:Satellite;letter-spacing:0px;word-spacing:0px;fill:none;fill-opacity:1;stroke:#5a9cfe;stroke-width:0.6;stroke-linecap:butt;stroke-linejoin:miter;stroke-opacity:1;stroke-miterlimit:4;stroke-dasharray:none"
       id="text6888">
      <path
         d="m 211.57814,1042.4169 c 0.25539,0.5959 0.68103,0.9364 1.22018,1.0783 0.31213,-0.4541 0.48239,-1.1635 0.48239,-1.6742 0,-1.7594 -1.43299,-3.1782 -3.19231,-3.1782 -1.75932,0 -3.17813,1.4188 -3.17813,3.1782 0,1.7735 1.41881,3.1781 3.17813,3.1781 0.96479,0 1.71675,-0.3122 2.38359,-1.1351 -0.17026,-0.071 -0.26957,-0.099 -0.42564,-0.1844 -0.53915,0.6668 -1.16342,0.8938 -1.95795,0.8938 -1.51813,0 -2.75249,-1.2343 -2.75249,-2.7524 0,-1.504 1.24855,-2.7525 2.75249,-2.7525 1.51812,0 2.76667,1.2485 2.76667,2.7525 0,0.4398 -0.12769,0.8938 -0.36889,1.3194 -0.52496,-0.2695 -0.80872,-0.7803 -0.80872,-1.3194 v -1.5891 h -0.21282 v 0.7945 c -0.41145,-0.5391 -0.87966,-0.7945 -1.37624,-0.7945 -0.89385,0 -1.58907,0.7236 -1.58907,1.5891 0,0.8796 0.70941,1.589 1.58907,1.589 0.75196,0 1.20598,-0.4114 1.48974,-0.9931 z m -0.19863,-0.5959 c 0,0.7094 -0.58171,1.2911 -1.29111,1.2911 -0.70941,0 -1.29112,-0.5817 -1.29112,-1.2911 0,-0.6953 0.58171,-1.277 1.29112,-1.277 0.7094,0 1.29111,0.5817 1.29111,1.277 z"
         style="fill:none;stroke-width:0.6;fill-opacity:1;stroke:#5a9cfe;stroke-opacity:1;stroke-miterlimit:4;stroke-dasharray:none"
         id="path6894" />
      <path
         d="m 215.47122,1038.8131 c 0.18444,0 0.3547,-0.1561 0.3547,-0.3689 0,-0.1986 -0.15607,-0.3547 -0.3547,-0.3547 -0.21283,0 -0.36889,0.1419 -0.36889,0.3547 0,0.2128 0.15606,0.3689 0.36889,0.3689 z m 0.19863,8.5128 v -6.342 h -0.42564 v 6.342 z"
         style="fill:none;stroke-width:0.6;fill-opacity:1;stroke:#5a9cfe;stroke-opacity:1;stroke-miterlimit:4;stroke-dasharray:none"
         id="path6896" />
      <path
         d="m 218.3525,1047.3259 v -11.2085 h -0.42564 v 11.2085 z"
         style="fill:none;stroke-width:0.6;fill-opacity:1;stroke:#5a9cfe;stroke-opacity:1;stroke-miterlimit:4;stroke-dasharray:none"
         id="path6898" />
      <path
         d="m 225.38069,1047.3259 v -4.1145 c 0,-1.3195 -0.96479,-2.0998 -2.08565,-2.0998 -0.59589,0 -1.63162,0.2128 -2.09983,0.8229 v -0.7946 h -0.41145 v 6.186 h 0.41145 v -4.3273 c 0,-0.9223 1.17761,-1.4756 2.09983,-1.4756 0.89385,0 1.6742,0.752 1.6742,1.6884 v 4.1145 z"
         style="fill:none;stroke-width:0.6;fill-opacity:1;stroke:#5a9cfe;stroke-opacity:1;stroke-miterlimit:4;stroke-dasharray:none"
         id="path6900" />
      <path
         d="m 230.11463,1041.4237 c 1.48974,0 2.65316,1.2627 2.65316,2.7667 0,1.5181 -1.16342,2.7666 -2.65316,2.7666 -1.53231,0 -2.65317,-1.2769 -2.65317,-2.7666 0,-1.4898 1.12086,-2.7667 2.65317,-2.7667 z m 3.10718,5.9022 v -6.2711 h -0.42564 v 1.5607 c -0.68103,-1.0357 -1.61744,-1.6174 -2.68154,-1.6174 -1.77351,0 -3.07881,1.4471 -3.07881,3.1923 0,1.7451 1.3053,3.1923 3.07881,3.1923 1.0641,0 2.00051,-0.5817 2.68154,-1.6175 v 1.5607 z"
         style="fill:none;stroke-width:0.6;fill-opacity:1;stroke:#5a9cfe;stroke-opacity:1;stroke-miterlimit:4;stroke-dasharray:none"
         id="path6902" />
      <path
         d="m 240.26153,1047.3259 v -4.1145 c 0,-1.3195 -0.96479,-2.0998 -2.08565,-2.0998 -0.59589,0 -1.63162,0.2128 -2.09983,0.8229 v -0.7946 h -0.41145 v 6.186 h 0.41145 v -4.3273 c 0,-0.9223 1.17761,-1.4756 2.09983,-1.4756 0.89385,0 1.6742,0.752 1.6742,1.6884 v 4.1145 z"
         style="fill:none;stroke-width:0.6;fill-opacity:1;stroke:#5a9cfe;stroke-opacity:1;stroke-miterlimit:4;stroke-dasharray:none"
         id="path6904" />
      <path
         d="m 246.96761,1047.3259 v -4.1145 c 0,-1.3195 -0.96479,-2.0998 -2.08565,-2.0998 -0.5959,0 -1.63163,0.2128 -2.09983,0.8229 v -0.7946 h -0.41146 v 6.186 h 0.41146 v -4.3273 c 0,-0.9223 1.17761,-1.4756 2.09983,-1.4756 0.89385,0 1.67419,0.752 1.67419,1.6884 v 4.1145 z"
         style="fill:none;stroke-width:0.6;fill-opacity:1;stroke:#5a9cfe;stroke-opacity:1;stroke-miterlimit:4;stroke-dasharray:none"
         id="path6906" />
      <path
         d="m 249.27538,1040.9697 h -0.51077 l 2.48291,6.4272 -1.03573,2.9653 h 0.51077 l 3.27745,-9.3925 h -0.52496 l -2.00052,5.7745 z"
         style="fill:none;stroke-width:0.6;fill-opacity:1;stroke:#5a9cfe;stroke-opacity:1;stroke-miterlimit:4;stroke-dasharray:none"
         id="path6908" />
    </g>
    <g
       style="fill:none;fill-opacity:1;stroke:#050505;stroke-width:4.16410766;stroke-miterlimit:4;stroke-dasharray:none;stroke-opacity:1;opacity:0.31"
       id="g5607"
       transform="matrix(1.2007374,0,0,-1.2007374,-308.84895,1106.1769)">
      <path
         style="color:#000000;font-style:normal;font-variant:normal;font-weight:normal;font-stretch:normal;font-size:medium;line-height:normal;font-family:sans-serif;font-variant-ligatures:normal;font-variant-position:normal;font-variant-caps:normal;font-variant-numeric:normal;font-variant-alternates:normal;font-feature-settings:normal;text-indent:0;text-align:start;text-decoration:none;text-decoration-line:none;text-decoration-style:solid;text-decoration-color:#000000;letter-spacing:normal;word-spacing:normal;text-transform:none;writing-mode:lr-tb;direction:ltr;text-orientation:mixed;dominant-baseline:auto;baseline-shift:baseline;text-anchor:start;white-space:normal;shape-padding:0;clip-rule:nonzero;display:inline;overflow:visible;visibility:visible;opacity:1;isolation:auto;mix-blend-mode:normal;color-interpolation:sRGB;color-interpolation-filters:linearRGB;solid-color:#000000;solid-opacity:1;vector-effect:none;fill:#050505;fill-opacity:1;fill-rule:nonzero;stroke:none;stroke-width:4.1641078;stroke-linecap:butt;stroke-linejoin:miter;stroke-miterlimit:4;stroke-dasharray:none;stroke-dashoffset:0;stroke-opacity:1;color-rendering:auto;image-rendering:auto;shape-rendering:auto;text-rendering:auto;enable-background:accumulate"
         d="m 363.71875,70.277344 c -8.40316,3.188398 -11.05597,27.686139 -19.92968,16.503489 -8.76115,-9.296369 -16.90865,8.422463 -22.8823,13.930027 -4.25081,1.61003 -10.68603,2.13908 -9.03136,9.79894 -5.36413,3.15963 -5.4974,11.65583 -8.51413,16.43049 -10.79399,-1.92173 -2.16439,17.13519 -3.73916,23.83683 -1.858,10.22275 4.3157,17.04875 9.42995,24.04713 -2.42439,6.86528 3.96323,12.03453 -0.007,17.74424 1.78102,4.69293 -9.27044,12.40095 -11.41909,19.12387 -5.29894,8.02062 -12.91906,25.66355 4.48178,20.85246 9.69252,-2.17327 26.55292,5.76753 29.83452,-6.97577 2.64487,-11.91105 17.20993,-10.45875 26.62254,-10.26689 11.41903,-0.0324 23.07836,-1.11026 33.73882,3.80072 1.17822,10.17935 7.36509,16.39443 17.93797,13.40052 8.54531,-0.18015 17.28619,0.64321 25.71354,-0.40628 2.56615,-10.7199 -7.40007,-21.7418 -12.77751,-30.85883 -5.14339,-5.59012 -12.03611,-10.81093 -4.36822,-18.34303 -4.65601,-12.70433 11.51757,-17.68956 9.00265,-30.50366 -1.00514,-9.37749 8.09387,-27.061 -4.69948,-27.52594 -0.92217,-9.60789 -7.17614,-14.36534 -10.1235,-22.8227 -10.88469,1.93758 -14.11552,-21.426264 -25.30895,-18.647262 -3.54224,7.682118 -8.35939,7.760994 -11.70497,0.42524 -4.35322,-4.09285 -6.93193,-11.029167 -12.25678,-13.543594 z M 372.375,88.40625 c 9.07354,10.295054 15.16945,22.70199 22.59766,34.14258 -5.67796,3.91433 -10.96588,6.82185 -11.53211,-2.45826 -3.68851,-10.56144 -7.37704,-21.122878 -11.06555,-31.68432 z m -5.82422,0.501953 c 5.06315,14.498047 10.1263,28.996087 15.18945,43.494137 7.60766,5.43496 16.47146,-12.23294 22.98315,-0.1525 7.17328,0.86269 13.266,-17.23161 13.67308,-3.18587 -0.11331,5.13746 -4.48264,19.36739 -6.53966,17.97418 -2.17188,-7.76994 -5.66189,-18.5036 -15.37129,-11.64649 -10.62325,6.30961 -19.1812,-5.70773 -28.59064,-9.41712 -2.88464,-2.80526 -0.63012,-8.55667 -1.34415,-12.60629 2e-5,-8.15335 4e-5,-16.306697 6e-5,-24.460047 z m -5.66406,0.898438 c 0,11.717449 0,23.434889 0,35.152339 -9.47168,3.39162 -17.99361,15.71049 -28.33222,11.07749 -9.05929,-6.3806 -15.20238,-0.38458 -16.63703,9.06129 -2.51353,7.48864 -4.80779,-10.51808 -6.6124,-14.21976 1.69737,-6.12907 0.68756,-10.51069 5.07405,-3.62026 5.49464,6.61027 11.2764,3.90714 16.75973,0.28419 6.06092,5.18189 16.47397,10.50994 17.18115,-1.74964 4.18891,-11.99522 8.37781,-23.99043 12.56672,-35.985649 z m 27.96094,1.013671 c 1.34945,5.556923 7.68374,22.071748 5.57373,20.023928 -2.06166,-6.61611 -14.23622,-14.390906 -5.57373,-20.023928 z m -48.7461,0.361329 c 12.13568,4.596049 -5.18652,19.739189 -5.07568,21.481929 1.69189,-7.16064 3.38378,-14.321286 5.07568,-21.481929 z m -6.67968,3.646484 c -2.14844,9.087895 -4.29688,18.175785 -6.44532,27.263675 -4.09639,2.33306 -3.49099,-13.43574 -2.13174,-17.03089 2.39991,-3.76005 5.18524,-7.313454 8.57706,-10.232785 z m 19.64062,0.203125 c -4.64283,9.48975 -6.61309,26.58319 -12.9449,31.26762 -10.22847,-4.45089 6.21741,-15.51345 7.54114,-22.55375 1.78895,-2.91222 3.58711,-5.818825 5.40376,-8.71387 z m 43.45117,1.353516 c 7.26579,3.970934 9.27675,18.381334 6.41785,20.592044 -2.13928,-6.86402 -4.27857,-13.72803 -6.41785,-20.592044 z m -15.17969,1.632812 0.0302,0.02901 z m -63.40039,10.296872 c 0.49763,4.31114 2.72505,21.92204 -1.56352,10.64562 -0.45173,-3.58908 1.15879,-7.10267 1.56352,-10.64562 z m 92.15625,0 c 3.57005,3.14773 -0.4628,21.21504 -1.12806,10.95938 0.4055,-3.65007 0.58214,-7.32512 1.12806,-10.95938 z m -49.20312,23.20899 c -1.72178,7.63278 -3.63176,18.86201 -10.51208,22.25716 -3.4885,-5.54662 -11.97577,-13.42966 -0.74158,-15.6678 3.75122,-2.19646 7.50244,-4.39291 11.25366,-6.58936 z m 5.66406,0.22656 c 6.58478,5.40703 23.73805,8.10694 13.10693,17.92383 -6.85808,11.25738 -9.71903,-8.07233 -13.10697,-13.36993 l 2e-5,-2.27695 z m -62.5625,1.8457 c 2.28969,8.18838 5.6508,16.27831 7.27185,24.52813 -10.04848,6.09975 -4.43961,-15.35189 -7.0246,-21.30207 l -0.12363,-1.61303 z m 119.91797,0.23047 c -3.00953,7.62195 2.65634,25.45726 -7.31801,25.03306 -0.73927,-7.69283 5.48927,-17.00915 7.31801,-25.03306 z m -99.62891,5.48242 c 9.96786,0.51702 21.16831,10.90783 19.45362,18.91406 -8.3043,7.5052 -15.11237,-7.1642 -22.67041,-10.71874 1.07226,-2.73177 2.14453,-5.46355 3.21679,-8.19532 z m 78.49219,0 c 5.72272,6.69551 1.26427,10.71154 -4.42827,14.40279 -3.20229,2.59946 -6.40459,5.19893 -9.60688,7.79839 -9.2652,-2.15033 -5.74645,-7.41689 -1.91991,-12.75847 2.33898,-7.36302 9.75987,-6.87895 15.95506,-9.44271 z m -39.24609,4.24805 c 3.1809,3.98832 4.57834,20.30264 -1.24027,18.76132 -1.71772,-5.59794 -2.1447,-13.56395 1.24027,-18.76132 z m -44.57813,9.52539 c 5.43815,4.41406 10.87631,8.82813 16.31446,13.24219 -3.97888,0.14118 -9.10866,-5.44049 -13.55066,-7.6509 -2.14339,-1.81917 -5.75642,-1.97504 -2.7638,-5.59129 z m 89.15821,0 c 3.38125,5.65198 -15.64433,13.0615 -15.64614,12.7246 5.18426,-4.25519 10.43139,-8.48071 15.64614,-12.7246 z m -36.61133,4.44531 c 5.65066,3.73122 16.73129,7.67906 4.41171,10.36777 -5.64986,4.32046 -13.30767,3.87244 -5.77316,-3.62786 1.15857,-2.01853 1.73047,-4.41845 1.36145,-6.73991 z m -15.93555,0.125 c -0.90655,6.41021 10.81532,17.74927 -2.10291,11.28134 -7.93569,-2.47249 -11.34755,-5.20623 -2.19051,-8.6658 1.43114,-0.87185 2.86228,-1.7437 4.29342,-2.61554 z m -39.77148,3.91216 c 3.84936,1.89061 1.3104,1.76427 0,0 z m 95.47851,0 c -1.11995,1.71977 -4.03974,1.9065 0,0 z m -96.20312,6.36719 c 5.40498,0.88938 7.12794,6.10238 0,0 z m 96.92773,0 c -1.46035,4.47803 -9.654,2.33108 0,0 z m -26.61523,5.01758 c 5.81784,8.849 -2.18018,4.97633 0,0 z m -43.71485,0.0762 c 3.07394,3.78717 -5.83198,7.61374 -0.12186,1.28871 z m 70.94727,2.0625 c 3.17918,7.82672 -19.72663,0.86721 -5.65153,1.12992 1.88385,-0.37664 3.76769,-0.75328 5.65153,-1.12992 z m -97.98633,0.0352 c 3.8763,0.77474 7.75261,1.54948 11.62891,2.32422 -3.95248,0.47005 -7.90495,0.9401 -11.85743,1.41015 l 0.11427,-1.86719 z m 33.16602,2.81445 c -3.14974,3.76955 -11.84702,8.12001 -3.50364,2.2086 1.20342,-0.64105 2.03836,-2.04784 3.50364,-2.2086 z m 31.47461,0 c 4.17213,0.98853 11.11882,9.36006 3.48642,2.78839 l -1.51884,-1.15161 z m 9.42382,1.17188 c 1.99164,0.0186 1.0245,1.45938 0,0 z m -50.32812,0.008 c -0.74526,1.23889 -1.96383,0.0486 0,0 z m 22.53125,1.27343 c -0.64158,4.73716 2.57956,12.56563 -5.15845,11.62354 -6.56555,1.90635 -11.0729,2.68966 -3.43896,-3.15186 2.8658,-2.82389 5.7316,-5.64779 8.59741,-8.47168 z m 13.04101,0.47461 c 3.89467,1.41031 16.84486,16.38541 7.6457,8.3108 -2.54856,-2.77027 -5.09713,-5.54053 -7.6457,-8.3108 z m -7.37695,0.34766 c 4.02402,5.24301 18.93453,17.21997 4.59229,11.10229 -7.33157,0.2127 -3.76231,-6.53938 -4.59229,-11.10229 z m 43.59766,2.99805 c 1.23089,-0.38885 1.625,1.13322 0,0 z m -76.91602,0.004 c 7.9553,2.88863 -10.55376,8.11953 0,0 z m 60.58399,0 c 9.68327,5.69154 -3.97558,5.64535 -1.39063,0.17188 z m -77.06446,0.0664 -0.76146,0.20548 z m 31.33008,0.77734 c -3.40551,4.21257 -9.88786,8.38444 -2.52022,2.18366 l 1.48987,-1.32645 z m -25.25976,2.58789 c -1.12553,3.65387 -5.74039,1.58695 0,0 z m 81.40625,0.002 c 3.79139,0.18671 3.02472,4.95251 0,0 z m -13.41993,5.12109 c 7.28867,-0.13701 3.88795,4.79604 -0.19483,2.2368 z m -55.04492,0.14649 c 0.11327,4.81076 -7.10374,0.18784 0,0 z m -15.11133,4.64062 c 6.18461,1.60673 16.43759,2.01893 6.10718,7.94044 -7.6094,8.79376 -18.65031,12.77139 -28.51343,18.333 4.6043,-9.497 9.14443,-22.71316 20.25822,-25.61281 z m 85.80664,0.0215 c 11.39144,0.57473 14.79913,12.0669 20.45898,19.97977 3.45492,5.8399 3.54254,10.18851 -2.96358,4.59577 -10.92763,-5.68023 -20.88323,-12.8858 -30.20628,-20.89975 4.23696,-1.22526 8.47392,-2.45053 12.71088,-3.67579 z m -39.9082,0.0566 c 8.68947,1.52739 21.65076,12.35169 6.68147,11.99414 -4.5831,0.60495 -8.3433,0.387 -6.68147,-5.25299 0,-2.24705 0,-4.4941 0,-6.74115 z m -5.66406,0.002 c 0,3.9974 0,7.99479 0,11.99219 -5.14388,0 -10.28776,0 -15.43164,0 -4.49477,-6.8744 12.1372,-8.4261 15.43164,-11.99219 z m 25.88672,9.93555 c 4.7534,2.37695 16.17721,8.46987 4.50587,5.34983 -2.71648,-2.06459 -9.33173,-0.35263 -4.50587,-5.34983 z m -47.89258,0.88281 c 2.91628,6.19331 -17.39505,6.64855 -3.59125,1.96122 l 1.79562,-0.98061 z m -18.17383,9.91015 c 12.44219,-2.36922 5.42558,12.05758 -3.03181,8.53125 -4.37026,0 -8.74051,0 -13.11077,0 5.38086,-2.84375 10.76172,-5.6875 16.14258,-8.53125 z m 85.5625,0.008 c 5.21371,3.59802 21.15447,10.11297 7.29082,8.52343 -4.1946,0 -8.38919,0 -12.58379,0 -4.55271,-8.43013 -1.80544,-8.02687 5.29297,-8.52343 z"
         id="path5605"
         inkscape:connector-curvature="0" />
    </g>
    <g
       transform="matrix(1.2007374,0,0,-1.2007374,-308.84895,1106.1769)"
       id="g7125"
       style="fill:#ebffa4;fill-opacity:1;stroke:none;stroke-width:0.78570408;stroke-miterlimit:4;stroke-dasharray:none;stroke-opacity:1">
      <path
         d="m 349.2521,96.4813 c 0.032,0 0.064,-0.002 0.097,-0.006 0.219,-0.029 0.416,-0.153 0.535,-0.34 l 13.904,-21.741 17.102,21.288 c 0.14,0.175 0.352,0.278 0.577,0.28 0.24,0.025 0.438,-0.095 0.583,-0.268 l 7.981,-9.529 11.221,12.332 5.474,8.24 c 0.194,0.292 0.563,0.412 0.89,0.286 l 4.039,-1.527 2.369,12.023 c 0.045,0.227 0.193,0.421 0.4,0.524 0.207,0.105 0.452,0.107 0.659,0.007 l 2.544,-1.21 3.391,14.745 c 0.05,0.225 0.203,0.414 0.411,0.511 0.209,0.098 0.45,0.096 0.655,-0.009 l 4.291,-2.153 -3.06,31.549 -8.813,9.722 c -0.146,0.161 -0.215,0.377 -0.189,0.591 l 1.189,10.085 -4.031,5.986 c -0.116,0.172 -0.156,0.383 -0.11,0.586 l 0.654,2.86 -0.665,4.931 c -0.049,0.359 0.167,0.702 0.511,0.813 l 5.418,1.761 11.874,18.123 4.273,12.037 h -33.936 l -4.261,-12.387 c -0.078,-0.223 -0.255,-0.398 -0.482,-0.47 l -13.715,-4.375 c -0.073,-0.024 -0.15,-0.036 -0.227,-0.036 h -37.266 c -0.095,0 -0.188,0.018 -0.277,0.053 l -11.01,4.375 c -0.188,0.075 -0.339,0.225 -0.416,0.412 l -5.104,12.428 h -32.523 l 4.272,-12.037 11.88,-18.13 7.104,-2.453 c 0.26,-0.09 0.45,-0.316 0.495,-0.588 0.045,-0.271 -0.063,-0.546 -0.281,-0.715 l -4.935,-3.814 2.707,-2.393 c 0.269,-0.237 0.332,-0.629 0.154,-0.938 l -3.487,-6.02 0.622,-10.136 c 0.013,-0.22 -0.071,-0.436 -0.232,-0.589 l -8.336,-7.923 -2.553,-33.322 4.319,2.167 c 0.207,0.105 0.448,0.107 0.656,0.009 0.208,-0.097 0.36,-0.286 0.411,-0.511 l 3.391,-14.745 2.543,1.21 c 0.208,0.101 0.454,0.099 0.66,-0.007 0.207,-0.103 0.354,-0.297 0.399,-0.524 l 2.369,-12.023 4.039,1.527 c 0.327,0.125 0.697,0.005 0.891,-0.286 l 5.463,-8.225 11.719,-11.644 10.266,9.416 c 0.139,0.128 0.32,0.197 0.507,0.197 m 14.467,-24.121 c -0.014,0 -0.028,0 -0.04,0.001 -0.241,0.013 -0.462,0.141 -0.592,0.345 l -13.986,21.869 -10.136,-9.297 c -0.295,-0.272 -0.752,-0.262 -1.035,0.02 l -12.282,12.203 c -0.036,0.037 -0.068,0.076 -0.096,0.118 l -5.174,7.79 -4.31,-1.63 c -0.207,-0.079 -0.437,-0.061 -0.629,0.046 -0.194,0.107 -0.33,0.294 -0.373,0.51 l -2.353,11.947 -2.517,-1.197 c -0.204,-0.099 -0.444,-0.097 -0.648,10e-4 -0.205,0.099 -0.354,0.286 -0.404,0.507 l -3.386,14.726 -4.652,-2.334 c -0.241,-0.121 -0.53,-0.103 -0.754,0.047 -0.225,0.151 -0.351,0.411 -0.33,0.68 l 2.676,34.932 c 0.015,0.185 0.097,0.358 0.232,0.486 l 8.292,7.881 -0.616,10.013 c -0.008,0.147 0.027,0.294 0.1,0.422 l 3.292,5.684 -2.928,2.586 c -0.167,0.149 -0.259,0.364 -0.253,0.587 0.008,0.224 0.115,0.433 0.291,0.57 l 4.555,3.52 -6.034,2.084 c -0.156,0.055 -0.291,0.159 -0.382,0.298 l -12.069,18.419 c -0.033,0.05 -0.06,0.103 -0.08,0.16 l -4.659,13.123 c -0.081,0.23 -0.045,0.484 0.095,0.684 0.141,0.199 0.369,0.317 0.613,0.317 h 34.088 c 0.304,0 0.579,-0.184 0.694,-0.465 l 5.174,-12.598 10.58,-4.205 h 37.005 l 13.245,4.225 4.313,12.537 c 0.104,0.303 0.389,0.506 0.709,0.506 h 35.533 c 0.243,0 0.472,-0.118 0.613,-0.317 0.14,-0.2 0.175,-0.454 0.094,-0.684 l -4.658,-13.123 c -0.02,-0.057 -0.047,-0.11 -0.08,-0.16 l -12.068,-18.419 c -0.093,-0.143 -0.233,-0.249 -0.396,-0.302 l -5.073,-1.648 0.6,-4.446 c 0.011,-0.089 0.007,-0.179 -0.012,-0.267 l -0.611,-2.677 4.004,-5.946 c 0.101,-0.149 0.144,-0.328 0.123,-0.507 l -1.181,-10.023 8.751,-9.653 c 0.108,-0.12 0.175,-0.27 0.19,-0.431 l 3.199,-32.978 c 0.026,-0.076 0.04,-0.157 0.04,-0.242 0,-0.414 -0.335,-0.75 -0.75,-0.75 h -0.02 c -0.115,0 -0.23,0.026 -0.336,0.08 l -4.652,2.334 -3.386,-14.726 c -0.051,-0.221 -0.199,-0.408 -0.404,-0.507 -0.204,-0.098 -0.445,-0.1 -0.649,-10e-4 l -2.516,1.197 -2.354,-11.947 c -0.043,-0.216 -0.179,-0.403 -0.372,-0.51 -0.192,-0.108 -0.424,-0.125 -0.63,-0.046 l -4.309,1.63 -5.175,-7.79 c -0.022,-0.032 -0.045,-0.062 -0.071,-0.09 l -11.836,-13.009 c -0.146,-0.16 -0.309,-0.239 -0.571,-0.245 -0.216,0.005 -0.42,0.102 -0.559,0.268 l -7.947,9.487 -17.182,-21.39 c -0.143,-0.178 -0.359,-0.28 -0.585,-0.28"
         style="fill:#ebffa4;fill-opacity:1;fill-rule:nonzero;stroke:none;stroke-width:0.78570408;stroke-miterlimit:4;stroke-dasharray:none;stroke-opacity:1"
         id="path524"
         inkscape:connector-curvature="0" />
      <path
         d="m 338.091,198.1268 c -0.183,0 -0.365,0.065 -0.509,0.199 l -17.864,16.511 -26.922,14.229 c -0.366,0.193 -0.506,0.647 -0.312,1.013 0.193,0.365 0.644,0.504 1.013,0.313 l 27.009,-14.275 c 0.058,-0.03 0.11,-0.068 0.158,-0.112 l 17.936,-16.577 c 0.304,-0.281 0.323,-0.756 0.042,-1.06 -0.148,-0.16 -0.349,-0.241 -0.551,-0.241"
         style="fill:#ebffa4;fill-opacity:1;fill-rule:nonzero;stroke:none;stroke-width:0.78570408;stroke-miterlimit:4;stroke-dasharray:none;stroke-opacity:1"
         id="path528"
         inkscape:connector-curvature="0" />
      <path
         d="m 387.7268,199.2967 c -0.219,0 -0.437,0.096 -0.585,0.28 -0.259,0.323 -0.208,0.795 0.115,1.055 l 19.167,15.407 c 0.029,0.023 0.059,0.043 0.09,0.062 l 24.303,14.274 c 0.356,0.212 0.816,0.092 1.026,-0.266 0.21,-0.358 0.091,-0.817 -0.266,-1.027 l -24.256,-14.247 -19.124,-15.373 c -0.139,-0.111 -0.305,-0.165 -0.47,-0.165"
         style="fill:#ebffa4;fill-opacity:1;fill-rule:nonzero;stroke:none;stroke-width:0.78570408;stroke-miterlimit:4;stroke-dasharray:none;stroke-opacity:1"
         id="path532"
         inkscape:connector-curvature="0" />
      <path
         d="m 369.84,173.0311 h -12.632 c -0.175,0 -0.345,0.062 -0.479,0.174 l -18.262,15.195 c -0.154,0.128 -0.25,0.313 -0.268,0.512 l -0.855,9.9 c -0.011,0.117 0.007,0.235 0.051,0.344 l 5.448,13.584 c 0.153,0.385 0.589,0.569 0.976,0.417 0.384,-0.154 0.571,-0.591 0.417,-0.976 l -5.382,-13.418 0.813,-9.411 17.813,-14.821 h 12.089 l 17.771,14.787 -0.356,10.522 -6.834,12.255 c -0.202,0.362 -0.072,0.819 0.29,1.021 0.362,0.203 0.818,0.071 1.02,-0.29 l 6.922,-12.414 c 0.058,-0.105 0.09,-0.221 0.095,-0.34 l 0.375,-11.07 c 0.008,-0.232 -0.092,-0.454 -0.271,-0.602 l -18.262,-15.195 c -0.134,-0.112 -0.304,-0.174 -0.479,-0.174"
         style="fill:#ebffa4;fill-opacity:1;fill-rule:nonzero;stroke:none;stroke-width:0.78570408;stroke-miterlimit:4;stroke-dasharray:none;stroke-opacity:1"
         id="path536"
         inkscape:connector-curvature="0" />
      <path
         d="m 317.6672,147.6473 c -0.066,0 -0.132,0.009 -0.197,0.026 -0.234,0.064 -0.421,0.236 -0.506,0.462 l -5.081,13.642 c -0.026,0.069 -0.041,0.141 -0.046,0.216 l -0.595,9.67 c -0.025,0.413 0.29,0.769 0.703,0.795 0.408,0.032 0.769,-0.29 0.795,-0.704 l 0.588,-9.558 4.677,-12.559 19.613,15.919 c 0.049,0.04 0.102,0.073 0.159,0.1 l 19.117,8.806 c 0.374,0.171 0.821,0.011 0.996,-0.368 0.172,-0.376 0.008,-0.821 -0.369,-0.995 l -19.031,-8.766 -20.35,-16.518 c -0.135,-0.11 -0.303,-0.168 -0.473,-0.168"
         style="fill:#ebffa4;fill-opacity:1;fill-rule:nonzero;stroke:none;stroke-width:0.78570408;stroke-miterlimit:4;stroke-dasharray:none;stroke-opacity:1"
         id="path540"
         inkscape:connector-curvature="0" />
      <path
         d="m 338.9465,188.2264 c -0.072,0 -0.147,0.011 -0.22,0.033 l -23.991,7.368 c -0.396,0.122 -0.619,0.541 -0.497,0.937 0.121,0.395 0.536,0.62 0.936,0.497 l 23.992,-7.368 c 0.396,-0.121 0.619,-0.541 0.497,-0.937 -0.099,-0.323 -0.396,-0.53 -0.717,-0.53"
         style="fill:#ebffa4;fill-opacity:1;fill-rule:nonzero;stroke:none;stroke-width:0.78570408;stroke-miterlimit:4;stroke-dasharray:none;stroke-opacity:1"
         id="path544"
         inkscape:connector-curvature="0" />
      <path
         d="m 337.041,182.5852 10.798,-7.595 -10.083,-7.425 -9.131,13.986 z"
         style="fill:#ebffa4;fill-opacity:1;fill-rule:nonzero;stroke:none;stroke-width:0.78570408;stroke-miterlimit:4;stroke-dasharray:none;stroke-opacity:1"
         id="path548"
         inkscape:connector-curvature="0" />
      <path
         d="m 338.091,164.2245 c -0.414,0 -0.75,0.336 -0.75,0.75 v 7.598 c 0,0.414 0.336,0.75 0.75,0.75 0.414,0 0.75,-0.336 0.75,-0.75 v -7.598 c 0,-0.414 -0.336,-0.75 -0.75,-0.75"
         style="fill:#ebffa4;fill-opacity:1;fill-rule:nonzero;stroke:none;stroke-width:0.78570408;stroke-miterlimit:4;stroke-dasharray:none;stroke-opacity:1"
         id="path552"
         inkscape:connector-curvature="0" />
      <path
         d="m 357.2092,173.0311 c -0.034,0 -0.068,0.002 -0.104,0.007 l -12.544,1.726 c -0.411,0.057 -0.698,0.436 -0.641,0.846 0.057,0.41 0.43,0.697 0.846,0.641 l 12.545,-1.727 c 0.41,-0.056 0.697,-0.435 0.64,-0.845 -0.052,-0.375 -0.373,-0.648 -0.742,-0.648"
         style="fill:#ebffa4;fill-opacity:1;fill-rule:nonzero;stroke:none;stroke-width:0.78570408;stroke-miterlimit:4;stroke-dasharray:none;stroke-opacity:1"
         id="path556"
         inkscape:connector-curvature="0" />
      <path
         d="m 331.4816,179.5926 c -0.108,0 -0.219,0.023 -0.324,0.074 l -16.528,7.944 c -0.373,0.179 -0.53,0.627 -0.35,1.001 0.179,0.373 0.624,0.533 1.001,0.35 l 16.527,-7.943 c 0.373,-0.18 0.531,-0.627 0.351,-1.001 -0.129,-0.269 -0.398,-0.425 -0.677,-0.425"
         style="fill:#ebffa4;fill-opacity:1;fill-rule:nonzero;stroke:none;stroke-width:0.78570408;stroke-miterlimit:4;stroke-dasharray:none;stroke-opacity:1"
         id="path560"
         inkscape:connector-curvature="0" />
      <path
         d="m 337.0412,181.8348 c -0.07,0 -0.143,0.01 -0.214,0.031 -0.397,0.118 -0.623,0.536 -0.505,0.933 l 1.905,6.392 c 0.118,0.397 0.533,0.626 0.933,0.504 0.398,-0.118 0.623,-0.536 0.505,-0.932 l -1.905,-6.392 c -0.097,-0.326 -0.396,-0.536 -0.719,-0.536"
         style="fill:#ebffa4;fill-opacity:1;fill-rule:nonzero;stroke:none;stroke-width:0.78570408;stroke-miterlimit:4;stroke-dasharray:none;stroke-opacity:1"
         id="path564"
         inkscape:connector-curvature="0" />
      <path
         d="m 312.4914,162.8368 c -0.281,0 -0.552,0.159 -0.68,0.43 -0.176,0.375 -0.015,0.822 0.359,0.999 l 25.265,11.921 c 0.378,0.177 0.824,0.014 0.999,-0.359 0.177,-0.375 0.016,-0.822 -0.358,-0.999 l -25.266,-11.921 c -0.103,-0.049 -0.212,-0.071 -0.319,-0.071"
         style="fill:#ebffa4;fill-opacity:1;fill-rule:nonzero;stroke:none;stroke-width:0.78570408;stroke-miterlimit:4;stroke-dasharray:none;stroke-opacity:1"
         id="path568"
         inkscape:connector-curvature="0" />
      <path
         d="m 311.9904,170.9588 c -0.35,0 -0.663,0.246 -0.734,0.603 -0.081,0.406 0.182,0.801 0.588,0.882 l 25.049,5.008 c 0.404,0.082 0.802,-0.181 0.883,-0.588 0.081,-0.406 -0.182,-0.801 -0.588,-0.883 l -25.05,-5.007 c -0.049,-0.01 -0.099,-0.015 -0.148,-0.015"
         style="fill:#ebffa4;fill-opacity:1;fill-rule:nonzero;stroke:none;stroke-width:0.78570408;stroke-miterlimit:4;stroke-dasharray:none;stroke-opacity:1"
         id="path572"
         inkscape:connector-curvature="0" />
      <path
         d="m 334.6008,178.5565 c -0.029,0 -0.06,0.002 -0.09,0.005 l -23.244,2.764 c -0.411,0.048 -0.705,0.421 -0.656,0.833 0.05,0.412 0.413,0.7 0.834,0.657 l 23.244,-2.764 c 0.411,-0.049 0.705,-0.422 0.656,-0.834 -0.046,-0.381 -0.369,-0.661 -0.744,-0.661"
         style="fill:#ebffa4;fill-opacity:1;fill-rule:nonzero;stroke:none;stroke-width:0.78570408;stroke-miterlimit:4;stroke-dasharray:none;stroke-opacity:1"
         id="path576"
         inkscape:connector-curvature="0" />
      <path
         d="m 359.1379,147.3758 4.387,-8.258 4.386,8.258 v 13.504 l -4.386,7.223 -4.387,-7.223 z m 4.387,-10.606 c -0.278,0 -0.532,0.153 -0.662,0.398 l -5.137,9.67 c -0.058,0.108 -0.088,0.229 -0.088,0.352 v 13.9 c 0,0.138 0.038,0.271 0.109,0.39 l 5.137,8.458 c 0.136,0.223 0.379,0.36 0.641,0.36 0.261,0 0.505,-0.137 0.64,-0.36 l 5.136,-8.458 c 0.071,-0.119 0.11,-0.252 0.11,-0.39 v -13.9 c 0,-0.123 -0.031,-0.244 -0.088,-0.352 l -5.136,-9.67 c -0.13,-0.245 -0.385,-0.398 -0.662,-0.398"
         style="fill:#ebffa4;fill-opacity:1;fill-rule:nonzero;stroke:none;stroke-width:0.78570408;stroke-miterlimit:4;stroke-dasharray:none;stroke-opacity:1"
         id="path580"
         inkscape:connector-curvature="0" />
      <path
         d="m 358.3869,151.8612 c -0.133,0 -0.268,0.035 -0.39,0.109 l -20.297,12.364 c -0.353,0.215 -0.465,0.676 -0.25,1.031 0.216,0.352 0.677,0.466 1.032,0.25 l 20.297,-12.363 c 0.353,-0.216 0.465,-0.677 0.25,-1.032 -0.142,-0.231 -0.389,-0.359 -0.642,-0.359"
         style="fill:#ebffa4;fill-opacity:1;fill-rule:nonzero;stroke:none;stroke-width:0.78570408;stroke-miterlimit:4;stroke-dasharray:none;stroke-opacity:1"
         id="path584"
         inkscape:connector-curvature="0" />
      <path
         d="m 363.7189,168.7977 c -0.414,0 -0.75,0.336 -0.75,0.75 v 42.913 c 0,0.414 0.336,0.75 0.75,0.75 0.414,0 0.75,-0.336 0.75,-0.75 v -42.913 c 0,-0.414 -0.336,-0.75 -0.75,-0.75"
         style="fill:#ebffa4;fill-opacity:1;fill-rule:nonzero;stroke:none;stroke-width:0.78570408;stroke-miterlimit:4;stroke-dasharray:none;stroke-opacity:1"
         id="path588"
         inkscape:connector-curvature="0" />
      <path
         d="m 363.718,192.3709 c -0.109,0 -0.221,0.025 -0.326,0.075 l -23.396,11.321 c -0.372,0.18 -0.528,0.629 -0.347,1.002 0.179,0.373 0.629,0.527 1.002,0.348 l 23.395,-11.321 c 0.372,-0.18 0.528,-0.629 0.348,-1.002 -0.129,-0.268 -0.397,-0.423 -0.676,-0.423"
         style="fill:#ebffa4;fill-opacity:1;fill-rule:nonzero;stroke:none;stroke-width:0.78570408;stroke-miterlimit:4;stroke-dasharray:none;stroke-opacity:1"
         id="path592"
         inkscape:connector-curvature="0" />
      <path
         d="m 363.7199,192.3709 c -0.279,0 -0.547,0.156 -0.677,0.424 -0.179,0.373 -0.023,0.821 0.35,1.002 l 21.955,10.607 c 0.376,0.179 0.822,0.023 1.002,-0.349 0.18,-0.373 0.023,-0.822 -0.35,-1.002 l -21.955,-10.608 c -0.105,-0.051 -0.216,-0.074 -0.325,-0.074"
         style="fill:#ebffa4;fill-opacity:1;fill-rule:nonzero;stroke:none;stroke-width:0.78570408;stroke-miterlimit:4;stroke-dasharray:none;stroke-opacity:1"
         id="path596"
         inkscape:connector-curvature="0" />
      <path
         d="m 363.7189,72.3602 c -0.414,0 -0.75,0.336 -0.75,0.75 v 64.409 c 0,0.414 0.336,0.75 0.75,0.75 0.414,0 0.75,-0.336 0.75,-0.75 v -64.409 c 0,-0.414 -0.336,-0.75 -0.75,-0.75"
         style="fill:#ebffa4;fill-opacity:1;fill-rule:nonzero;stroke:none;stroke-width:0.78570408;stroke-miterlimit:4;stroke-dasharray:none;stroke-opacity:1"
         id="path600"
         inkscape:connector-curvature="0" />
      <path
         d="m 363.718,125.8329 c -0.129,0 -0.259,0.033 -0.378,0.103 l -24.482,14.335 -16.011,-5.193 c -0.378,-0.118 -0.785,0.07 -0.93,0.439 l -4.948,12.606 c -0.151,0.386 0.039,0.821 0.424,0.973 0.386,0.149 0.821,-0.038 0.972,-0.424 l 4.691,-11.948 15.659,5.078 c 0.202,0.065 0.425,0.041 0.61,-0.067 l 24.773,-14.505 c 0.357,-0.21 0.477,-0.668 0.268,-1.026 -0.139,-0.238 -0.39,-0.371 -0.648,-0.371"
         style="fill:#ebffa4;fill-opacity:1;fill-rule:nonzero;stroke:none;stroke-width:0.78570408;stroke-miterlimit:4;stroke-dasharray:none;stroke-opacity:1"
         id="path604"
         inkscape:connector-curvature="0" />
      <path
         d="m 338.9455,140.3377 c -0.135,0 -0.271,0.036 -0.393,0.112 -0.353,0.218 -0.461,0.68 -0.244,1.033 l 10.306,16.669 c 0.217,0.353 0.678,0.462 1.032,0.244 0.353,-0.218 0.461,-0.68 0.243,-1.033 l -10.305,-16.67 c -0.142,-0.229 -0.387,-0.355 -0.639,-0.355"
         style="fill:#ebffa4;fill-opacity:1;fill-rule:nonzero;stroke:none;stroke-width:0.78570408;stroke-miterlimit:4;stroke-dasharray:none;stroke-opacity:1"
         id="path608"
         inkscape:connector-curvature="0" />
      <path
         d="m 320.1545,214.704 c -0.377,0 -0.701,0.283 -0.744,0.667 -0.046,0.411 0.25,0.782 0.662,0.828 l 12.374,1.382 c 0.409,0.04 0.782,-0.249 0.828,-0.662 0.046,-0.411 -0.25,-0.782 -0.662,-0.828 l -12.374,-1.382 c -0.028,-0.003 -0.056,-0.005 -0.084,-0.005"
         style="fill:#ebffa4;fill-opacity:1;fill-rule:nonzero;stroke:none;stroke-width:0.78570408;stroke-miterlimit:4;stroke-dasharray:none;stroke-opacity:1"
         id="path612"
         inkscape:connector-curvature="0" />
      <path
         d="m 314.9553,187.536 c -0.177,0 -0.354,0.062 -0.497,0.189 -0.311,0.274 -0.339,0.748 -0.065,1.058 l 5.611,6.336 c 0.101,0.115 0.235,0.195 0.385,0.231 l 17.525,4.255 c 0.4,0.1 0.808,-0.148 0.905,-0.551 0.098,-0.403 -0.149,-0.808 -0.552,-0.906 l -17.296,-4.199 -5.455,-6.16 c -0.148,-0.168 -0.354,-0.253 -0.561,-0.253"
         style="fill:#ebffa4;fill-opacity:1;fill-rule:nonzero;stroke:none;stroke-width:0.78570408;stroke-miterlimit:4;stroke-dasharray:none;stroke-opacity:1"
         id="path616"
         inkscape:connector-curvature="0" />
      <path
         d="m 332.5295,179.9383 c -0.211,0 -0.421,0.089 -0.569,0.262 l -11.964,13.933 c -0.27,0.314 -0.234,0.788 0.081,1.058 0.315,0.268 0.789,0.233 1.058,-0.081 l 11.963,-13.934 c 0.27,-0.313 0.234,-0.787 -0.081,-1.057 -0.141,-0.121 -0.315,-0.181 -0.488,-0.181"
         style="fill:#ebffa4;fill-opacity:1;fill-rule:nonzero;stroke:none;stroke-width:0.78570408;stroke-miterlimit:4;stroke-dasharray:none;stroke-opacity:1"
         id="path620"
         inkscape:connector-curvature="0" />
      <path
         d="m 409.3811,147.6473 c -0.17,0 -0.338,0.058 -0.473,0.168 l -20.349,16.518 -19.033,8.766 c -0.377,0.174 -0.541,0.619 -0.368,0.995 0.175,0.377 0.622,0.537 0.995,0.368 l 19.119,-8.806 c 0.057,-0.027 0.11,-0.06 0.159,-0.1 l 19.612,-15.919 4.678,12.559 0.588,9.558 c 0.026,0.414 0.386,0.738 0.795,0.704 0.414,-0.026 0.728,-0.382 0.703,-0.795 l -0.595,-9.67 c -0.005,-0.075 -0.021,-0.147 -0.046,-0.216 l -5.082,-13.642 c -0.085,-0.226 -0.272,-0.398 -0.506,-0.462 -0.065,-0.017 -0.132,-0.026 -0.197,-0.026"
         style="fill:#ebffa4;fill-opacity:1;fill-rule:nonzero;stroke:none;stroke-width:0.78570408;stroke-miterlimit:4;stroke-dasharray:none;stroke-opacity:1"
         id="path624"
         inkscape:connector-curvature="0" />
      <path
         d="m 388.1018,188.2264 c -0.321,0 -0.618,0.207 -0.717,0.53 -0.122,0.396 0.101,0.816 0.497,0.937 l 23.991,7.368 c 0.401,0.123 0.816,-0.102 0.937,-0.497 0.122,-0.396 -0.101,-0.815 -0.497,-0.937 l -23.991,-7.368 c -0.074,-0.022 -0.148,-0.033 -0.22,-0.033"
         style="fill:#ebffa4;fill-opacity:1;fill-rule:nonzero;stroke:none;stroke-width:0.78570408;stroke-miterlimit:4;stroke-dasharray:none;stroke-opacity:1"
         id="path628"
         inkscape:connector-curvature="0" />
      <path
         d="m 390.0078,182.5852 -10.798,-7.595 9.845,-7.425 9.369,13.986 z"
         style="fill:#ebffa4;fill-opacity:1;fill-rule:nonzero;stroke:none;stroke-width:0.78570408;stroke-miterlimit:4;stroke-dasharray:none;stroke-opacity:1"
         id="path632"
         inkscape:connector-curvature="0" />
      <path
         d="m 388.9582,164.2245 c -0.414,0 -0.75,0.336 -0.75,0.75 v 7.598 c 0,0.414 0.336,0.75 0.75,0.75 0.414,0 0.75,-0.336 0.75,-0.75 v -7.598 c 0,-0.414 -0.336,-0.75 -0.75,-0.75"
         style="fill:#ebffa4;fill-opacity:1;fill-rule:nonzero;stroke:none;stroke-width:0.78570408;stroke-miterlimit:4;stroke-dasharray:none;stroke-opacity:1"
         id="path636"
         inkscape:connector-curvature="0" />
      <path
         d="m 369.8391,173.0311 c -0.369,0 -0.69,0.273 -0.742,0.648 -0.057,0.41 0.23,0.789 0.64,0.845 l 12.546,1.727 c 0.412,0.055 0.789,-0.231 0.846,-0.641 0.057,-0.41 -0.23,-0.789 -0.641,-0.846 l -12.545,-1.726 c -0.036,-0.005 -0.07,-0.007 -0.104,-0.007"
         style="fill:#ebffa4;fill-opacity:1;fill-rule:nonzero;stroke:none;stroke-width:0.78570408;stroke-miterlimit:4;stroke-dasharray:none;stroke-opacity:1"
         id="path640"
         inkscape:connector-curvature="0" />
      <path
         d="m 395.5666,179.5926 c -0.279,0 -0.548,0.156 -0.677,0.425 -0.179,0.374 -0.022,0.821 0.351,1.001 l 16.527,7.943 c 0.378,0.183 0.822,0.023 1.001,-0.35 0.18,-0.374 0.023,-0.822 -0.35,-1.001 l -16.528,-7.944 c -0.105,-0.051 -0.216,-0.074 -0.324,-0.074"
         style="fill:#ebffa4;fill-opacity:1;fill-rule:nonzero;stroke:none;stroke-width:0.78570408;stroke-miterlimit:4;stroke-dasharray:none;stroke-opacity:1"
         id="path644"
         inkscape:connector-curvature="0" />
      <path
         d="m 390.008,181.8348 c -0.323,0 -0.622,0.21 -0.719,0.536 l -1.906,6.392 c -0.118,0.396 0.107,0.814 0.505,0.932 0.398,0.121 0.814,-0.107 0.933,-0.504 l 1.906,-6.392 c 0.118,-0.397 -0.108,-0.815 -0.505,-0.933 -0.071,-0.021 -0.144,-0.031 -0.214,-0.031"
         style="fill:#ebffa4;fill-opacity:1;fill-rule:nonzero;stroke:none;stroke-width:0.78570408;stroke-miterlimit:4;stroke-dasharray:none;stroke-opacity:1"
         id="path648"
         inkscape:connector-curvature="0" />
      <path
         d="m 421.7482,130.6678 c -0.31,0 -0.6,0.193 -0.708,0.502 l -8.983,25.595 -24.367,15.958 c -0.346,0.226 -0.443,0.691 -0.215,1.038 0.225,0.345 0.689,0.443 1.038,0.216 l 24.578,-16.097 c 0.137,-0.09 0.242,-0.223 0.297,-0.379 l 9.068,-25.835 c 0.137,-0.391 -0.068,-0.818 -0.46,-0.956 -0.082,-0.028 -0.166,-0.042 -0.248,-0.042"
         style="fill:#ebffa4;fill-opacity:1;fill-rule:nonzero;stroke:none;stroke-width:0.78570408;stroke-miterlimit:4;stroke-dasharray:none;stroke-opacity:1"
         id="path652"
         inkscape:connector-curvature="0" />
      <path
         d="m 414.5568,162.8368 c -0.106,0 -0.216,0.022 -0.319,0.071 l -25.265,11.921 c -0.374,0.177 -0.535,0.624 -0.358,0.999 0.176,0.373 0.622,0.536 0.999,0.359 l 25.264,-11.921 c 0.374,-0.177 0.536,-0.624 0.359,-0.999 -0.128,-0.271 -0.399,-0.43 -0.68,-0.43"
         style="fill:#ebffa4;fill-opacity:1;fill-rule:nonzero;stroke:none;stroke-width:0.78570408;stroke-miterlimit:4;stroke-dasharray:none;stroke-opacity:1"
         id="path656"
         inkscape:connector-curvature="0" />
      <path
         d="m 415.0588,170.9588 c -0.049,0 -0.099,0.005 -0.148,0.015 l -25.05,5.007 c -0.405,0.082 -0.669,0.477 -0.588,0.883 0.081,0.407 0.475,0.67 0.883,0.588 l 25.05,-5.008 c 0.405,-0.081 0.668,-0.476 0.587,-0.882 -0.071,-0.357 -0.384,-0.603 -0.734,-0.603"
         style="fill:#ebffa4;fill-opacity:1;fill-rule:nonzero;stroke:none;stroke-width:0.78570408;stroke-miterlimit:4;stroke-dasharray:none;stroke-opacity:1"
         id="path660"
         inkscape:connector-curvature="0" />
      <path
         d="m 392.4475,178.5565 c -0.376,0 -0.7,0.281 -0.744,0.664 -0.048,0.411 0.247,0.783 0.659,0.831 l 23.831,2.764 c 0.408,0.036 0.783,-0.247 0.831,-0.659 0.048,-0.412 -0.247,-0.784 -0.659,-0.831 l -23.831,-2.764 c -0.029,-0.003 -0.058,-0.005 -0.087,-0.005"
         style="fill:#ebffa4;fill-opacity:1;fill-rule:nonzero;stroke:none;stroke-width:0.78570408;stroke-miterlimit:4;stroke-dasharray:none;stroke-opacity:1"
         id="path664"
         inkscape:connector-curvature="0" />
      <path
         d="m 368.9191,151.8612 c -0.252,0 -0.497,0.126 -0.64,0.356 -0.216,0.353 -0.107,0.815 0.245,1.033 l 20.04,12.363 c 0.352,0.217 0.814,0.108 1.033,-0.245 0.217,-0.353 0.107,-0.815 -0.245,-1.032 l -20.04,-12.364 c -0.122,-0.075 -0.259,-0.111 -0.393,-0.111"
         style="fill:#ebffa4;fill-opacity:1;fill-rule:nonzero;stroke:none;stroke-width:0.78570408;stroke-miterlimit:4;stroke-dasharray:none;stroke-opacity:1"
         id="path668"
         inkscape:connector-curvature="0" />
      <path
         d="m 363.3303,125.8329 c -0.258,0 -0.509,0.133 -0.648,0.371 -0.209,0.358 -0.089,0.816 0.268,1.026 l 24.773,14.505 c 0.185,0.108 0.409,0.132 0.61,0.067 l 15.659,-5.078 4.691,11.948 c 0.152,0.386 0.585,0.574 0.972,0.424 0.385,-0.152 0.575,-0.587 0.424,-0.973 l -4.948,-12.606 c -0.145,-0.369 -0.553,-0.558 -0.93,-0.439 l -16.011,5.193 -24.482,-14.335 c -0.119,-0.07 -0.249,-0.103 -0.378,-0.103"
         style="fill:#ebffa4;fill-opacity:1;fill-rule:nonzero;stroke:none;stroke-width:0.78570408;stroke-miterlimit:4;stroke-dasharray:none;stroke-opacity:1"
         id="path672"
         inkscape:connector-curvature="0" />
      <path
         d="m 388.1027,140.3377 c -0.255,0 -0.504,0.13 -0.645,0.364 l -9.983,16.67 c -0.213,0.356 -0.097,0.817 0.258,1.029 0.356,0.213 0.817,0.097 1.029,-0.257 l 9.984,-16.67 c 0.212,-0.356 0.096,-0.817 -0.258,-1.03 -0.121,-0.072 -0.254,-0.106 -0.385,-0.106"
         style="fill:#ebffa4;fill-opacity:1;fill-rule:nonzero;stroke:none;stroke-width:0.78570408;stroke-miterlimit:4;stroke-dasharray:none;stroke-opacity:1"
         id="path676"
         inkscape:connector-curvature="0" />
      <path
         d="m 406.8947,214.704 c -0.028,0 -0.056,0.002 -0.084,0.005 l -12.374,1.382 c -0.412,0.046 -0.708,0.417 -0.662,0.828 0.047,0.413 0.424,0.702 0.828,0.662 l 12.374,-1.382 c 0.412,-0.046 0.708,-0.417 0.662,-0.828 -0.043,-0.384 -0.367,-0.667 -0.744,-0.667"
         style="fill:#ebffa4;fill-opacity:1;fill-rule:nonzero;stroke:none;stroke-width:0.78570408;stroke-miterlimit:4;stroke-dasharray:none;stroke-opacity:1"
         id="path680"
         inkscape:connector-curvature="0" />
      <path
         d="m 412.093,187.536 c -0.207,0 -0.413,0.085 -0.562,0.253 l -5.465,6.173 -18.547,5.364 c -0.399,0.115 -0.628,0.531 -0.513,0.929 0.114,0.398 0.527,0.625 0.929,0.512 l 18.756,-5.424 c 0.136,-0.04 0.259,-0.118 0.353,-0.224 l 5.61,-6.336 c 0.275,-0.31 0.247,-0.784 -0.064,-1.058 -0.143,-0.127 -0.32,-0.189 -0.497,-0.189"
         style="fill:#ebffa4;fill-opacity:1;fill-rule:nonzero;stroke:none;stroke-width:0.78570408;stroke-miterlimit:4;stroke-dasharray:none;stroke-opacity:1"
         id="path684"
         inkscape:connector-curvature="0" />
      <path
         d="m 394.5197,179.9383 c -0.173,0 -0.347,0.06 -0.488,0.181 -0.315,0.27 -0.351,0.743 -0.081,1.057 l 11.963,13.934 c 0.271,0.314 0.744,0.349 1.057,0.081 0.315,-0.27 0.351,-0.743 0.081,-1.058 l -11.963,-13.933 c -0.148,-0.173 -0.358,-0.262 -0.569,-0.262"
         style="fill:#ebffa4;fill-opacity:1;fill-rule:nonzero;stroke:none;stroke-width:0.78570408;stroke-miterlimit:4;stroke-dasharray:none;stroke-opacity:1"
         id="path688"
         inkscape:connector-curvature="0" />
      <path
         d="m 363.7189,72.3602 c -0.31,0 -0.6,0.193 -0.708,0.503 l -20.088,57.517 -13.032,-7.392 c -0.275,-0.156 -0.618,-0.123 -0.86,0.084 l -6.457,5.55 -7.52,-5.412 -1.054,-5.967 c -0.071,-0.407 -0.449,-0.683 -0.869,-0.608 -0.407,0.072 -0.68,0.461 -0.607,0.87 l 1.106,6.266 c 0.034,0.193 0.142,0.363 0.3,0.478 l 8.247,5.935 c 0.282,0.202 0.664,0.188 0.928,-0.04 l 6.505,-5.591 13.355,7.575 c 0.193,0.109 0.427,0.128 0.634,0.049 0.208,-0.078 0.371,-0.245 0.444,-0.455 l 20.384,-58.365 c 0.137,-0.39 -0.069,-0.818 -0.461,-0.955 -0.082,-0.028 -0.165,-0.042 -0.247,-0.042"
         style="fill:#ebffa4;fill-opacity:1;fill-rule:nonzero;stroke:none;stroke-width:0.78570408;stroke-miterlimit:4;stroke-dasharray:none;stroke-opacity:1"
         id="path692"
         inkscape:connector-curvature="0" />
      <path
         d="m 364.0324,72.3602 c -0.082,0 -0.165,0.014 -0.247,0.042 -0.392,0.137 -0.598,0.565 -0.461,0.955 l 20.384,58.365 c 0.072,0.208 0.232,0.373 0.437,0.452 0.203,0.081 0.435,0.065 0.627,-0.039 l 14.057,-7.6 5.786,5.581 c 0.261,0.251 0.665,0.278 0.959,0.068 l 8.247,-5.935 c 0.15,-0.108 0.254,-0.267 0.294,-0.448 l 1.378,-6.266 c 0.089,-0.404 -0.167,-0.805 -0.571,-0.894 -0.406,-0.083 -0.805,0.166 -0.894,0.572 l -1.316,5.986 -7.506,5.402 -5.731,-5.527 c -0.236,-0.227 -0.59,-0.275 -0.877,-0.12 l -13.764,7.443 -20.094,-57.534 c -0.108,-0.31 -0.398,-0.503 -0.708,-0.503"
         style="fill:#ebffa4;fill-opacity:1;fill-rule:nonzero;stroke:none;stroke-width:0.78570408;stroke-miterlimit:4;stroke-dasharray:none;stroke-opacity:1"
         id="path696"
         inkscape:connector-curvature="0" />
      <path
         d="m 338.4572,85.0809 c -0.34,0 -0.647,0.232 -0.728,0.577 l -8.938,37.81 c -0.096,0.403 0.154,0.807 0.557,0.902 0.403,0.096 0.807,-0.153 0.902,-0.557 l 8.937,-37.809 c 0.096,-0.403 -0.154,-0.808 -0.556,-0.902 -0.059,-0.014 -0.116,-0.021 -0.174,-0.021"
         style="fill:#ebffa4;fill-opacity:1;fill-rule:nonzero;stroke:none;stroke-width:0.78570408;stroke-miterlimit:4;stroke-dasharray:none;stroke-opacity:1"
         id="path700"
         inkscape:connector-curvature="0" />
      <path
         d="m 349.2531,94.9813 c -0.253,0 -0.499,0.127 -0.641,0.358 l -17.769,29.023 c -0.216,0.353 -0.106,0.815 0.248,1.031 0.354,0.219 0.815,0.106 1.031,-0.248 l 17.77,-29.022 c 0.216,-0.354 0.105,-0.815 -0.248,-1.032 -0.122,-0.075 -0.258,-0.11 -0.391,-0.11"
         style="fill:#ebffa4;fill-opacity:1;fill-rule:nonzero;stroke:none;stroke-width:0.78570408;stroke-miterlimit:4;stroke-dasharray:none;stroke-opacity:1"
         id="path704"
         inkscape:connector-curvature="0" />
      <path
         d="m 390.008,84.2752 c -0.073,0 -0.148,0.011 -0.224,0.034 -0.394,0.123 -0.615,0.544 -0.492,0.94 l 13.351,42.837 c 0.123,0.393 0.536,0.616 0.939,0.492 0.395,-0.123 0.615,-0.544 0.492,-0.94 l -13.35,-42.837 c -0.1,-0.32 -0.397,-0.526 -0.716,-0.526"
         style="fill:#ebffa4;fill-opacity:1;fill-rule:nonzero;stroke:none;stroke-width:0.78570408;stroke-miterlimit:4;stroke-dasharray:none;stroke-opacity:1"
         id="path708"
         inkscape:connector-curvature="0" />
      <path
         d="m 381.4738,94.4627 c -0.134,0 -0.27,0.036 -0.393,0.111 -0.352,0.217 -0.461,0.679 -0.245,1.033 l 17.481,28.401 c 0.217,0.351 0.677,0.462 1.032,0.245 0.353,-0.217 0.462,-0.679 0.245,-1.032 l -17.48,-28.402 c -0.142,-0.229 -0.388,-0.356 -0.64,-0.356"
         style="fill:#ebffa4;fill-opacity:1;fill-rule:nonzero;stroke:none;stroke-width:0.78570408;stroke-miterlimit:4;stroke-dasharray:none;stroke-opacity:1"
         id="path712"
         inkscape:connector-curvature="0" />
      <path
         d="m 306.2746,130.6678 c -0.074,0 -0.149,0.011 -0.225,0.034 -0.394,0.124 -0.615,0.545 -0.491,0.941 l 8.094,25.835 c 0.052,0.165 0.16,0.307 0.305,0.402 l 24.578,16.097 c 0.347,0.227 0.811,0.129 1.038,-0.216 0.227,-0.347 0.131,-0.812 -0.216,-1.038 l -24.354,-15.951 -8.013,-25.579 c -0.101,-0.32 -0.397,-0.525 -0.716,-0.525"
         style="fill:#ebffa4;fill-opacity:1;fill-rule:nonzero;stroke:none;stroke-width:0.78570408;stroke-miterlimit:4;stroke-dasharray:none;stroke-opacity:1"
         id="path716"
         inkscape:connector-curvature="0" />
      <path
         d="m 312.5871,161.2889 c -0.042,0 -0.084,0.003 -0.126,0.011 l -9.14,1.548 c -0.408,0.069 -0.683,0.456 -0.614,0.864 0.069,0.409 0.466,0.689 0.864,0.614 l 9.14,-1.548 c 0.408,-0.069 0.684,-0.456 0.614,-0.864 -0.061,-0.366 -0.379,-0.625 -0.738,-0.625"
         style="fill:#ebffa4;fill-opacity:1;fill-rule:nonzero;stroke:none;stroke-width:0.78570408;stroke-miterlimit:4;stroke-dasharray:none;stroke-opacity:1"
         id="path720"
         inkscape:connector-curvature="0" />
      <path
         d="m 424.0383,161.0526 h -0.019 l -9.575,0.236 c -0.414,0.011 -0.741,0.355 -0.731,0.769 0.011,0.414 0.326,0.714 0.768,0.731 l 9.575,-0.236 c 0.415,-0.011 0.742,-0.354 0.732,-0.769 -0.011,-0.408 -0.344,-0.731 -0.75,-0.731"
         style="fill:#ebffa4;fill-opacity:1;fill-rule:nonzero;stroke:none;stroke-width:0.78570408;stroke-miterlimit:4;stroke-dasharray:none;stroke-opacity:1"
         id="path724"
         inkscape:connector-curvature="0" />
      <path
         d="m 320.673,105.5721 c -0.021,0 -0.042,10e-4 -0.063,0.003 -0.414,0.034 -0.72,0.396 -0.685,0.809 l 1.943,23.254 c 0.034,0.414 0.409,0.72 0.81,0.685 0.413,-0.034 0.72,-0.396 0.684,-0.81 l -1.943,-23.254 c -0.032,-0.391 -0.36,-0.687 -0.746,-0.687"
         style="fill:#ebffa4;fill-opacity:1;fill-rule:nonzero;stroke:none;stroke-width:0.78570408;stroke-miterlimit:4;stroke-dasharray:none;stroke-opacity:1"
         id="path728"
         inkscape:connector-curvature="0" />
      <path
         d="m 407.3498,105.5721 c -0.382,0 -0.709,0.291 -0.746,0.679 l -2.215,23.254 c -0.039,0.412 0.264,0.778 0.676,0.818 0.423,0.03 0.779,-0.265 0.818,-0.676 l 2.215,-23.254 c 0.039,-0.412 -0.264,-0.778 -0.676,-0.818 -0.024,-0.002 -0.049,-0.003 -0.072,-0.003"
         style="fill:#ebffa4;fill-opacity:1;fill-rule:nonzero;stroke:none;stroke-width:0.78570408;stroke-miterlimit:4;stroke-dasharray:none;stroke-opacity:1"
         id="path732"
         inkscape:connector-curvature="0" />
      <path
         d="m 363.7189,192.3709 c -0.326,0 -0.626,0.214 -0.721,0.542 -0.114,0.399 0.116,0.813 0.513,0.929 l 24.008,6.925 c 0.399,0.115 0.813,-0.115 0.929,-0.512 0.114,-0.399 -0.116,-0.814 -0.513,-0.929 l -24.008,-6.926 c -0.069,-0.019 -0.14,-0.029 -0.208,-0.029"
         style="fill:#ebffa4;fill-opacity:1;fill-rule:nonzero;stroke:none;stroke-width:0.78570408;stroke-miterlimit:4;stroke-dasharray:none;stroke-opacity:1"
         id="path736"
         inkscape:connector-curvature="0" />
      <path
         d="m 363.7199,192.3709 c -0.055,0 -0.11,0.006 -0.165,0.019 l -25.628,5.756 c -0.404,0.09 -0.658,0.491 -0.567,0.895 0.09,0.404 0.499,0.661 0.895,0.567 l 25.628,-5.755 c 0.404,-0.091 0.658,-0.492 0.567,-0.896 -0.078,-0.349 -0.387,-0.586 -0.73,-0.586"
         style="fill:#ebffa4;fill-opacity:1;fill-rule:nonzero;stroke:none;stroke-width:0.78570408;stroke-miterlimit:4;stroke-dasharray:none;stroke-opacity:1"
         id="path740"
         inkscape:connector-curvature="0" />
      <path
         d="m 340.3225,203.6922 c -0.121,0 -0.244,0.029 -0.358,0.092 l -20.168,11.012 c -0.364,0.198 -0.497,0.654 -0.299,1.017 0.197,0.362 0.652,0.498 1.017,0.299 l 20.168,-11.012 c 0.364,-0.198 0.497,-0.654 0.299,-1.017 -0.136,-0.249 -0.393,-0.391 -0.659,-0.391"
         style="fill:#ebffa4;fill-opacity:1;fill-rule:nonzero;stroke:none;stroke-width:0.78570408;stroke-miterlimit:4;stroke-dasharray:none;stroke-opacity:1"
         id="path744"
         inkscape:connector-curvature="0" />
      <path
         d="m 385.675,202.9784 c -0.265,0 -0.521,0.14 -0.657,0.388 -0.2,0.362 -0.07,0.818 0.294,1.018 l 21.219,11.726 c 0.362,0.201 0.819,0.068 1.019,-0.294 0.2,-0.362 0.069,-0.818 -0.294,-1.019 l -21.22,-11.725 c -0.114,-0.064 -0.239,-0.094 -0.361,-0.094"
         style="fill:#ebffa4;fill-opacity:1;fill-rule:nonzero;stroke:none;stroke-width:0.78570408;stroke-miterlimit:4;stroke-dasharray:none;stroke-opacity:1"
         id="path748"
         inkscape:connector-curvature="0" />
      <path
         d="m 363.5607,173.0311 c -0.19,0 -0.38,0.072 -0.526,0.216 l -25.47,25.096 c -0.295,0.291 -0.299,0.765 -0.008,1.06 0.291,0.297 0.766,0.298 1.061,0.008 l 25.469,-25.096 c 0.295,-0.291 0.299,-0.765 0.008,-1.06 -0.146,-0.15 -0.341,-0.224 -0.534,-0.224"
         style="fill:#ebffa4;fill-opacity:1;fill-rule:nonzero;stroke:none;stroke-width:0.78570408;stroke-miterlimit:4;stroke-dasharray:none;stroke-opacity:1"
         id="path752"
         inkscape:connector-curvature="0" />
      <path
         d="m 363.5607,173.0311 c -0.182,0 -0.363,0.065 -0.508,0.198 -0.304,0.281 -0.324,0.755 -0.044,1.06 l 24.166,26.265 c 0.281,0.306 0.755,0.324 1.06,0.044 0.305,-0.28 0.324,-0.755 0.044,-1.059 l -24.166,-26.266 c -0.148,-0.161 -0.35,-0.242 -0.552,-0.242"
         style="fill:#ebffa4;fill-opacity:1;fill-rule:nonzero;stroke:none;stroke-width:0.78570408;stroke-miterlimit:4;stroke-dasharray:none;stroke-opacity:1"
         id="path756"
         inkscape:connector-curvature="0" />
    </g>
  </g>
</svg>
