<?xml version="1.0" encoding="UTF-8" standalone="no"?>
<!-- Created with Inkscape (http://www.inkscape.org/) -->

<svg
   xmlns:sketch="http://www.bohemiancoding.com/sketch/ns"
   xmlns:dc="http://purl.org/dc/elements/1.1/"
   xmlns:cc="http://creativecommons.org/ns#"
   xmlns:rdf="http://www.w3.org/1999/02/22-rdf-syntax-ns#"
   xmlns:svg="http://www.w3.org/2000/svg"
   xmlns="http://www.w3.org/2000/svg"
   xmlns:xlink="http://www.w3.org/1999/xlink"
   xmlns:sodipodi="http://sodipodi.sourceforge.net/DTD/sodipodi-0.dtd"
   xmlns:inkscape="http://www.inkscape.org/namespaces/inkscape"
   width="1024"
   height="1024"
   viewBox="0 0 1024 1024"
   id="svg2"
   version="1.1"
   inkscape:version="0.92.2 2405546, 2018-03-11"
   sodipodi:docname="lucentis.svg"
   inkscape:export-filename="/home/ilnanny/lucentis..png"
   inkscape:export-xdpi="96"
   inkscape:export-ydpi="96">
  <title
     id="title6810">lucentis icon</title>
  <defs
     id="defs4">
    <linearGradient
       inkscape:collect="always"
       id="linearGradient6717">
      <stop
         style="stop-color:#ffffff;stop-opacity:1;"
         offset="0"
         id="stop6713" />
      <stop
         style="stop-color:#ffffff;stop-opacity:0;"
         offset="1"
         id="stop6715" />
    </linearGradient>
    <linearGradient
       inkscape:collect="always"
       id="linearGradient6565">
      <stop
         style="stop-color:#ffffff;stop-opacity:1;"
         offset="0"
         id="stop6561" />
      <stop
         style="stop-color:#ffffff;stop-opacity:0;"
         offset="1"
         id="stop6563" />
    </linearGradient>
    <linearGradient
       inkscape:collect="always"
       id="linearGradient5020">
      <stop
         style="stop-color:#ffffff;stop-opacity:1;"
         offset="0"
         id="stop5016" />
      <stop
         style="stop-color:#ffffff;stop-opacity:0;"
         offset="1"
         id="stop5018" />
    </linearGradient>
    <linearGradient
       inkscape:collect="always"
       id="linearGradient957">
      <stop
         style="stop-color:#ffffff;stop-opacity:1;"
         offset="0"
         id="stop953" />
      <stop
         style="stop-color:#f0fbff;stop-opacity:0.72075474"
         offset="1"
         id="stop955" />
    </linearGradient>
    <linearGradient
       id="linearGradient6724"
       inkscape:collect="always">
      <stop
         id="stop6702"
         offset="0"
         style="stop-color:#e1e1e1;stop-opacity:1" />
      <stop
         style="stop-color:#060606;stop-opacity:0.99607843"
         offset="0.12065922"
         id="stop6704" />
      <stop
         id="stop6706"
         offset="0.1961367"
         style="stop-color:#ffffff;stop-opacity:0.88095236" />
      <stop
         style="stop-color:#b3b3b3;stop-opacity:0.99607843"
         offset="0.25634706"
         id="stop6708" />
      <stop
         id="stop6710"
         offset="0.32487023"
         style="stop-color:#fefefe;stop-opacity:0.99215686" />
      <stop
         id="stop6712"
         offset="0.50166756"
         style="stop-color:#040404;stop-opacity:0.99215686" />
      <stop
         style="stop-color:#ffffff;stop-opacity:0.99215686"
         offset="0.65177846"
         id="stop6714" />
      <stop
         id="stop6716"
         offset="0.65177846"
         style="stop-color:#fefefe;stop-opacity:0.99215686;" />
      <stop
         style="stop-color:#dedede;stop-opacity:0.98809522"
         offset="0.80294323"
         id="stop6718" />
      <stop
         style="stop-color:#101010;stop-opacity:0.99215686"
         offset="0.89797378"
         id="stop6720" />
      <stop
         id="stop6722"
         offset="1"
         style="stop-color:#e9e9e9;stop-opacity:0.99215686" />
    </linearGradient>
    <linearGradient
       inkscape:collect="always"
       id="linearGradient6602">
      <stop
         style="stop-color:#ffffff;stop-opacity:1"
         offset="0"
         id="stop6598" />
      <stop
         id="stop6606"
         offset="0.44514003"
         style="stop-color:#f5faff;stop-opacity:0.99206346" />
      <stop
         style="stop-color:#f5faff;stop-opacity:0;"
         offset="1"
         id="stop6600" />
    </linearGradient>
    <linearGradient
       inkscape:collect="always"
       id="linearGradient6588">
      <stop
         style="stop-color:#ffffff;stop-opacity:1;"
         offset="0"
         id="stop6584" />
      <stop
         style="stop-color:#ffffff;stop-opacity:0;"
         offset="1"
         id="stop6586" />
    </linearGradient>
    <linearGradient
       inkscape:collect="always"
       id="linearGradient6558">
      <stop
         style="stop-color:#fefefe;stop-opacity:1"
         offset="0"
         id="stop6554" />
      <stop
         id="stop6570"
         offset="0.12065922"
         style="stop-color:#060606;stop-opacity:0.99607843" />
      <stop
         style="stop-color:#ffffff;stop-opacity:0.88095236"
         offset="0.1961367"
         id="stop6578" />
      <stop
         id="stop6562"
         offset="0.25634706"
         style="stop-color:#b3b3b3;stop-opacity:0.99607843" />
      <stop
         style="stop-color:#fefefe;stop-opacity:0.99215686"
         offset="0.32487023"
         id="stop6572" />
      <stop
         style="stop-color:#040404;stop-opacity:0.99215686"
         offset="0.50166756"
         id="stop6566" />
      <stop
         id="stop6574"
         offset="0.65177846"
         style="stop-color:#ffffff;stop-opacity:0.99215686" />
      <stop
         style="stop-color:#fefefe;stop-opacity:0.99215686;"
         offset="0.65177846"
         id="stop6564" />
      <stop
         id="stop6576"
         offset="0.80294323"
         style="stop-color:#dedede;stop-opacity:0.98809522" />
      <stop
         id="stop6568"
         offset="0.89797378"
         style="stop-color:#101010;stop-opacity:0.99215686" />
      <stop
         style="stop-color:#ffffff;stop-opacity:0.99206346"
         offset="1"
         id="stop6556" />
    </linearGradient>
    <linearGradient
       inkscape:collect="always"
       xlink:href="#linearGradient6558"
       id="linearGradient6560"
       x1="195.23741"
       y1="724.58649"
       x2="251.82281"
       y2="916.672"
       gradientUnits="userSpaceOnUse"
       gradientTransform="matrix(2,0,0,2,-79.852542,-1379.5469)" />
    <radialGradient
       inkscape:collect="always"
       xlink:href="#linearGradient6588"
       id="radialGradient6610"
       gradientUnits="userSpaceOnUse"
       gradientTransform="matrix(1.3571221,-1.469088,1.8108091,1.672799,-1441.2325,-652.17562)"
       cx="254.13632"
       cy="758.90723"
       fx="254.13632"
       fy="758.90723"
       r="78" />
    <linearGradient
       inkscape:collect="always"
       xlink:href="#linearGradient6558"
       id="linearGradient6636"
       gradientUnits="userSpaceOnUse"
       gradientTransform="matrix(1.7320508,1,-1,1.7320508,1294.5733,-1329.5095)"
       x1="195.23741"
       y1="724.58649"
       x2="251.82281"
       y2="916.672" />
    <radialGradient
       inkscape:collect="always"
       xlink:href="#linearGradient6602"
       id="radialGradient6638"
       gradientUnits="userSpaceOnUse"
       gradientTransform="matrix(2,0,0,2,249.14004,-1300.2518)"
       cx="256"
       cy="796.36218"
       fx="256"
       fy="796.36218"
       r="78" />
    <radialGradient
       inkscape:collect="always"
       xlink:href="#linearGradient6588"
       id="radialGradient6640"
       gradientUnits="userSpaceOnUse"
       gradientTransform="matrix(2,0,0,2,249.14004,-1300.2518)"
       cx="255.7916"
       cy="796.57056"
       fx="255.7916"
       fy="796.57056"
       r="78" />
    <radialGradient
       inkscape:collect="always"
       xlink:href="#linearGradient6588"
       id="radialGradient6642"
       gradientUnits="userSpaceOnUse"
       gradientTransform="matrix(1.9998402,0.0252834,-0.02375618,1.879042,268.25214,-1294.7654)"
       cx="253.68126"
       cy="855.43927"
       fx="253.68126"
       fy="855.43927"
       r="99.25" />
    <linearGradient
       inkscape:collect="always"
       xlink:href="#linearGradient6724"
       id="linearGradient6692"
       gradientUnits="userSpaceOnUse"
       gradientTransform="matrix(1.4142136,-1.4142136,1.4142136,1.4142136,-668.43848,-151.99133)"
       x1="173.97072"
       y1="733.54883"
       x2="224.31374"
       y2="930.84332" />
    <radialGradient
       inkscape:collect="always"
       xlink:href="#linearGradient6602"
       id="radialGradient6694"
       gradientUnits="userSpaceOnUse"
       gradientTransform="matrix(2,0,0,2,249.14004,-808.45112)"
       cx="256"
       cy="796.36218"
       fx="256"
       fy="796.36218"
       r="78" />
    <path
       id="path-1"
       d="M 15.406237,3.1154721 C 18.169791,4.9402483 20,8.1231911 20,11.744523 20,17.408467 15.522848,22 10,22 4.4771522,22 0,17.408467 0,11.744523 0,8.0455604 1.9095189,4.8039838 4.7727686,3 L 6.1706362,7.4777248 C 5.0210651,8.5657382 4.3010753,10.124038 4.3010753,11.854797 c 0,3.288742 2.5996367,5.954793 5.8064517,5.954793 3.206815,0 5.806452,-2.666051 5.806452,-5.954793 0,-1.730759 -0.71999,-3.2890588 -1.869561,-4.3770718 z M 10,0 C 8,-8.304769e-7 8,2.0952381 8,2.0952381 v 6.8095238 c 0,0 0,2.0952371 2,2.0952381 2,10e-7 2,-2.0952381 2,-2.0952381 V 2.0952381 C 12,2.0952381 12,8.3047687e-7 10,0 Z"
       inkscape:connector-curvature="0" />
    <path
       id="path-1-7"
       d="M 0.14048767,4 C 0.06289847,4 0,4.0579357 0,4.1287911 V 19.871209 C 0,19.942338 0.06311035,20 0.14048767,20 H 21.859512 C 21.937101,20 22,19.942064 22,19.871209 V 4.1287911 C 22,4.0576617 21.93689,4 21.859512,4 Z M 8.3114676,7.9655728 11.568023,13.589603 c 0.04007,0.06921 0.126624,0.08728 0.190864,0.0421 l 2.762507,-1.94284 c 0.129305,-0.09094 0.301493,-0.05921 0.387839,0.07594 l 5.020622,5.858533 c 0.08489,0.132879 0.02351,0.240598 -0.126381,0.240598 H 2.1472269 c -0.155104,0 -0.2224937,-0.112508 -0.1492512,-0.253739 L 8.0350292,7.9691594 C 8.107704,7.8290232 8.2329135,7.8299109 8.3114676,7.9655728 Z M 17.5,9 C 18.328427,9 19,8.3284272 19,7.5 19,6.6715728 18.328427,6 17.5,6 16.671573,6 16,6.6715728 16,7.5 16,8.3284272 16.671573,9 17.5,9 Z M 2,0 V 1 H 20 V 0 Z M 1,2 V 3 H 21 V 2 Z"
       inkscape:connector-curvature="0" />
    <radialGradient
       inkscape:collect="always"
       xlink:href="#linearGradient957"
       id="radialGradient985"
       cx="-490.90292"
       cy="861.29602"
       fx="-490.90292"
       fy="861.29602"
       r="98.996712"
       gradientTransform="matrix(0.99999992,0,0,0.5767977,-3.783249e-5,375.07601)"
       gradientUnits="userSpaceOnUse" />
    <linearGradient
       inkscape:collect="always"
       xlink:href="#linearGradient6558"
       id="linearGradient928"
       gradientUnits="userSpaceOnUse"
       gradientTransform="matrix(1.7320508,1,-1,1.7320508,802.77252,-837.70879)"
       x1="312.88486"
       y1="907.1377"
       x2="233.33522"
       y2="705.45764" />
    <radialGradient
       inkscape:collect="always"
       xlink:href="#linearGradient977"
       id="radialGradient979"
       cx="-489.06497"
       cy="927.22015"
       fx="-489.06497"
       fy="927.22015"
       r="105.45019"
       gradientTransform="matrix(1.7705241,1.0328993,-1.0362936,1.7763424,2094.8624,-357.63212)"
       gradientUnits="userSpaceOnUse" />
    <linearGradient
       inkscape:collect="always"
       id="linearGradient977">
      <stop
         style="stop-color:#000000;stop-opacity:0.04150943"
         offset="0"
         id="stop973" />
      <stop
         id="stop981"
         offset="0.85196686"
         style="stop-color:#fafafa;stop-opacity:0" />
      <stop
         style="stop-color:#000000;stop-opacity:1"
         offset="1"
         id="stop975" />
    </linearGradient>
    <radialGradient
       inkscape:collect="always"
       xlink:href="#linearGradient957"
       id="radialGradient985-7"
       cx="-495.27359"
       cy="827.54181"
       fx="-495.27359"
       fy="827.54181"
       r="98.996712"
       gradientTransform="matrix(1.9999998,0,0,1.1535954,1252.666,-320.01494)"
       gradientUnits="userSpaceOnUse" />
    <radialGradient
       inkscape:collect="always"
       xlink:href="#linearGradient965"
       id="radialGradient967"
       cx="-492.31952"
       cy="973.06268"
       fx="-492.31952"
       fy="973.06268"
       r="98.859123"
       gradientTransform="matrix(2,0,0,1.0946956,1252.7279,-189.249)"
       gradientUnits="userSpaceOnUse" />
    <linearGradient
       inkscape:collect="always"
       id="linearGradient965">
      <stop
         style="stop-color:#000000;stop-opacity:0.53207546"
         offset="0"
         id="stop961" />
      <stop
         style="stop-color:#000000;stop-opacity:0.98113209"
         offset="1"
         id="stop963" />
    </linearGradient>
    <radialGradient
       inkscape:collect="always"
       xlink:href="#linearGradient5020"
       id="radialGradient5024"
       cx="65.058838"
       cy="323.4787"
       fx="65.058838"
       fy="323.4787"
       r="44.896484"
       gradientTransform="matrix(2.1154144,1.6209878,-1.559334,2.0349554,513.39622,-96.779396)"
       gradientUnits="userSpaceOnUse" />
    <filter
       inkscape:collect="always"
       style="color-interpolation-filters:sRGB"
       id="filter5036"
       x="-0.23619156"
       width="1.4723831"
       y="-0.25928476"
       height="1.5185695">
      <feGaussianBlur
         inkscape:collect="always"
         stdDeviation="3.7252153"
         id="feGaussianBlur5038" />
    </filter>
    <linearGradient
       id="linearGradient3946">
      <stop
         id="stop3948"
         offset="0"
         style="stop-color:#ff49de;stop-opacity:1;" />
      <stop
         style="stop-color:#e99ff2;stop-opacity:1;"
         offset="0.25"
         id="stop3956" />
      <stop
         style="stop-color:#49c7ee;stop-opacity:1;"
         offset="0.5"
         id="stop3954" />
      <stop
         id="stop3950"
         offset="1"
         style="stop-color:#ff49fa;stop-opacity:1;" />
    </linearGradient>
    <radialGradient
       gradientTransform="matrix(2.1647059,0,0,0.7529402,-111.56471,36.517647)"
       gradientUnits="userSpaceOnUse"
       xlink:href="#linearGradient8838-561-565"
       id="radialGradient3890-540-810"
       fy="4.625"
       fx="62.625"
       r="10.625"
       cy="4.625"
       cx="62.625" />
    <linearGradient
       id="linearGradient8838-561-565">
      <stop
         offset="0"
         style="stop-color:#0a0a0a;stop-opacity:1"
         id="stop4621" />
      <stop
         offset="1"
         style="stop-color:#0a0a0a;stop-opacity:0"
         id="stop4623" />
    </linearGradient>
    <radialGradient
       gradientTransform="matrix(0,1.7703635,-1.4881952,0,30.166509,-32.859046)"
       gradientUnits="userSpaceOnUse"
       xlink:href="#linearGradient2867-449-88-871-390-598-476-591-434-148"
       id="radialGradient2860-830-797-965-521-124-769-292-682-235"
       fy="4.9115634"
       fx="20.248743"
       r="23"
       cy="4.9115634"
       cx="20.248743" />
    <linearGradient
       id="linearGradient2867-449-88-871-390-598-476-591-434-148">
      <stop
         offset="0"
         style="stop-color:#51cfee;stop-opacity:1;"
         id="stop4627" />
      <stop
         offset="0.26238"
         style="stop-color:#49a3d2;stop-opacity:1;"
         id="stop4629" />
      <stop
         offset="0.704952"
         style="stop-color:#3470b4;stop-opacity:1;"
         id="stop4631" />
      <stop
         offset="1"
         style="stop-color:#1b5699;stop-opacity:1;"
         id="stop4633" />
    </linearGradient>
    <linearGradient
       gradientUnits="userSpaceOnUse"
       xlink:href="#linearGradient3707-319-631"
       id="linearGradient2862-249-451-585-788-999-493-675-437-502"
       y2="2.9999995"
       x2="18.138792"
       y1="45.21809"
       x1="18.138792" />
    <linearGradient
       id="linearGradient3707-319-631">
      <stop
         offset="0"
         style="stop-color:#254b6d;stop-opacity:1"
         id="stop4637" />
      <stop
         offset="0.5"
         style="stop-color:#415b73;stop-opacity:1"
         id="stop4639" />
      <stop
         offset="1"
         style="stop-color:#6195b5;stop-opacity:1"
         id="stop4641" />
    </linearGradient>
    <radialGradient
       gradientTransform="matrix(-1.4868718e-8,1.4132436,-1.2268499,-1.2907672e-8,26.77217,-29.044021)"
       gradientUnits="userSpaceOnUse"
       xlink:href="#linearGradient4593-546-445"
       id="radialGradient2857-700-249"
       fy="2.2461414"
       fx="24.016491"
       r="21.995602"
       cy="2.2461414"
       cx="24.016491" />
    <linearGradient
       id="linearGradient4593-546-445">
      <stop
         offset="0"
         style="stop-color:#ffffff;stop-opacity:0.70200002"
         id="stop4645" />
      <stop
         offset="1"
         style="stop-color:#ffffff;stop-opacity:0"
         id="stop4647" />
    </linearGradient>
    <radialGradient
       gradientTransform="matrix(0.32729625,-0.22730582,0.12062179,0.17368257,-25.123657,54.138634)"
       gradientUnits="userSpaceOnUse"
       xlink:href="#linearGradient3725-941-985"
       id="radialGradient3847-112-902"
       fy="32.164093"
       fx="90.746872"
       r="23"
       cy="32.164093"
       cx="90.746872" />
    <linearGradient
       id="linearGradient3725-941-985">
      <stop
         offset="0"
         style="stop-color:#54e1fa;stop-opacity:1"
         id="stop4651" />
      <stop
         offset="1"
         style="stop-color:#05a4dd;stop-opacity:0"
         id="stop4653" />
    </linearGradient>
    <radialGradient
       inkscape:collect="always"
       xlink:href="#linearGradient8838-545-634-701-934"
       id="radialGradient3665"
       gradientUnits="userSpaceOnUse"
       gradientTransform="matrix(2.1647059,0,0,0.7529402,-111.56471,36.517647)"
       cx="62.625"
       cy="4.625"
       fx="62.625"
       fy="4.625"
       r="10.625" />
    <radialGradient
       inkscape:collect="always"
       xlink:href="#linearGradient3671-841-686-741-866-985-469-576-180-780-926-793-371-248-664-131-552-717-210"
       id="radialGradient3660"
       gradientUnits="userSpaceOnUse"
       gradientTransform="matrix(0,1.8560646,-1.5602369,0,30.635076,-35.038403)"
       cx="20.248743"
       cy="4.9115634"
       fx="20.248743"
       fy="4.9115634"
       r="23" />
    <linearGradient
       inkscape:collect="always"
       xlink:href="#linearGradient19229-104-621-395-322-303-6-479"
       id="linearGradient3653"
       gradientUnits="userSpaceOnUse"
       gradientTransform="matrix(1.015646,-0.03492084,0.03492084,1.0156461,-1.2558846,0.3012604)"
       x1="27.892366"
       y1="8.9829054"
       x2="33.397804"
       y2="31.631201" />
    <linearGradient
       inkscape:collect="always"
       xlink:href="#linearGradient4150-0"
       id="linearGradient3650"
       gradientUnits="userSpaceOnUse"
       gradientTransform="matrix(1.015646,-0.03492084,0.03492084,1.0156461,-1.1515525,1.2343302)"
       x1="27.892366"
       y1="8.9829054"
       x2="33.397804"
       y2="31.631201" />
    <radialGradient
       inkscape:collect="always"
       xlink:href="#linearGradient4593-546-445"
       id="radialGradient3643"
       gradientUnits="userSpaceOnUse"
       gradientTransform="matrix(-1.4868718e-8,1.4132436,-1.2268499,-1.2907672e-8,26.77217,-29.044021)"
       cx="24.016491"
       cy="2.2461414"
       fx="24.016491"
       fy="2.2461414"
       r="21.995602" />
    <linearGradient
       inkscape:collect="always"
       xlink:href="#linearGradient3707-445-98-777-536-603-435-695-345-307-501-414-743-811-524-159-340-444-727"
       id="linearGradient3641"
       gradientUnits="userSpaceOnUse"
       x1="18.138792"
       y1="45.21809"
       x2="18.138792"
       y2="2.9999995" />
    <radialGradient
       inkscape:collect="always"
       xlink:href="#linearGradient3671-841-686-741-866-985-469-576-180-780-926-793-371-248-664-131-552-717-210"
       id="radialGradient3639"
       gradientUnits="userSpaceOnUse"
       gradientTransform="matrix(0,1.7703635,-1.4881952,0,30.166509,-32.859046)"
       cx="20.248743"
       cy="4.9115634"
       fx="20.248743"
       fy="4.9115634"
       r="23" />
    <radialGradient
       inkscape:collect="always"
       xlink:href="#linearGradient8838-545-634-701-934"
       id="radialGradient3637"
       gradientUnits="userSpaceOnUse"
       gradientTransform="matrix(2.1647059,0,0,0.7529402,-111.56471,36.517647)"
       cx="62.625"
       cy="4.625"
       fx="62.625"
       fy="4.625"
       r="10.625" />
    <radialGradient
       cx="62.625"
       cy="4.625"
       r="10.625"
       fx="62.625"
       fy="4.625"
       id="radialGradient9336"
       xlink:href="#linearGradient8838-545-634-701-934"
       gradientUnits="userSpaceOnUse"
       gradientTransform="matrix(2.1647059,0,0,0.7529402,-111.56471,36.517647)" />
    <linearGradient
       id="linearGradient8838-545-634-701-934">
      <stop
         id="stop7285"
         style="stop-color:#000000;stop-opacity:1"
         offset="0" />
      <stop
         id="stop7287"
         style="stop-color:#000000;stop-opacity:0"
         offset="1" />
    </linearGradient>
    <linearGradient
       id="linearGradient3707-445-98-777-536-603-435-695-345-307-501-414-743-811-524-159-340-444-727">
      <stop
         id="stop7301"
         style="stop-color:#878787;stop-opacity:1"
         offset="0" />
      <stop
         id="stop7303"
         style="stop-color:#c8c8c8;stop-opacity:1"
         offset="1" />
    </linearGradient>
    <linearGradient
       id="linearGradient3671-841-686-741-866-985-469-576-180-780-926-793-371-248-664-131-552-717-210">
      <stop
         id="stop7291"
         style="stop-color:#ffffff;stop-opacity:1"
         offset="0" />
      <stop
         id="stop7293"
         style="stop-color:#f0f0f0;stop-opacity:1;"
         offset="0.26238" />
      <stop
         id="stop7295"
         style="stop-color:#cbcdcf;stop-opacity:1;"
         offset="0.704952" />
      <stop
         id="stop7297"
         style="stop-color:#7e8c9a;stop-opacity:1;"
         offset="1" />
    </linearGradient>
    <radialGradient
       cx="20.248743"
       cy="4.9115634"
       r="23"
       fx="20.248743"
       fy="4.9115634"
       id="radialGradient2941-65-374-302-438-697-619-633-214-34-360-274-687-474-771-698-130-212-908"
       xlink:href="#linearGradient3671-841-686-741-866-985-469-576-180-780-926-793-371-248-664-131-552-717-210"
       gradientUnits="userSpaceOnUse"
       gradientTransform="matrix(0,1.7703635,-1.4881952,0,30.166509,-32.859046)" />
    <radialGradient
       cx="24.016491"
       cy="2.2461414"
       r="21.995602"
       fx="24.016491"
       fy="2.2461414"
       id="radialGradient2938-776-769-2-657"
       xlink:href="#linearGradient4593-546-445"
       gradientUnits="userSpaceOnUse"
       gradientTransform="matrix(-1.4868718e-8,1.4132436,-1.2268499,-1.2907672e-8,26.77217,-29.044021)" />
    <linearGradient
       id="linearGradient19229-104-621-395-322-303-6-479">
      <stop
         id="stop8988"
         style="stop-color:#aa9c1e;stop-opacity:1;"
         offset="0" />
      <stop
         id="stop8990"
         style="stop-color:#d61a1a;stop-opacity:1;"
         offset="1" />
    </linearGradient>
    <linearGradient
       id="linearGradient4150-0">
      <stop
         id="stop4152-0"
         style="stop-color:#fce94f;stop-opacity:1"
         offset="0" />
      <stop
         id="stop4154-70"
         style="stop-color:#ff8181;stop-opacity:1"
         offset="1" />
    </linearGradient>
    <linearGradient
       gradientTransform="matrix(1.476934,0,0,1.4626834,10.538779,-15.604815)"
       gradientUnits="userSpaceOnUse"
       y2="39.325596"
       x2="32.856747"
       y1="39.325596"
       x1="-3.4091759"
       id="linearGradient3958"
       xlink:href="#linearGradient2867-449-88-871-390-598-476-591-434-148"
       inkscape:collect="always" />
    <linearGradient
       gradientUnits="userSpaceOnUse"
       y2="23.674068"
       x2="46.532169"
       y1="23.674068"
       x1="1.6614611"
       id="linearGradient3835"
       xlink:href="#linearGradient4593-546-445"
       inkscape:collect="always" />
    <linearGradient
       y2="39.325596"
       x2="32.856747"
       y1="39.325596"
       x1="-3.4091759"
       gradientTransform="matrix(1.3687144,0.55493697,-0.54958251,1.3555079,29.691178,-67.555089)"
       gradientUnits="userSpaceOnUse"
       id="linearGradient3982"
       xlink:href="#linearGradient2867-449-88-871-390-598-476-591-434-148"
       inkscape:collect="always" />
    <radialGradient
       inkscape:collect="always"
       xlink:href="#linearGradient6565"
       id="radialGradient6567"
       cx="381.28125"
       cy="916.58826"
       fx="381.28125"
       fy="916.58826"
       r="98.996712"
       gradientTransform="matrix(1.9997125,-0.033912,0.02699948,1.5920969,-24.63778,-697.40356)"
       gradientUnits="userSpaceOnUse" />
    <filter
       inkscape:collect="always"
       style="color-interpolation-filters:sRGB"
       id="filter6597"
       x="-0.048135553"
       width="1.0962712"
       y="-0.047865208"
       height="1.0957304">
      <feGaussianBlur
         inkscape:collect="always"
         stdDeviation="0.44124257"
         id="feGaussianBlur6599" />
    </filter>
    <radialGradient
       inkscape:collect="always"
       xlink:href="#linearGradient6717"
       id="radialGradient6719"
       cx="183.44579"
       cy="211.9413"
       fx="183.44579"
       fy="211.9413"
       r="103.97851"
       gradientTransform="matrix(1,0,0,1.0281384,0,-5.9636829)"
       gradientUnits="userSpaceOnUse" />
    <filter
       inkscape:collect="always"
       style="color-interpolation-filters:sRGB"
       id="filter6763"
       x="-0.031394357"
       width="1.0627887"
       y="-0.028724234"
       height="1.0574485">
      <feGaussianBlur
         inkscape:collect="always"
         stdDeviation="1.9771426"
         id="feGaussianBlur6765" />
    </filter>
    <pattern
       patternUnits="userSpaceOnUse"
       width="268.39489"
       height="149.22132"
       patternTransform="translate(-361.99708,533.64539)"
       id="pattern7561">
      <path
         id="path2"
         d="M 87.100598,1.1614735e-5 C 85.509058,-0.00298839 83.932168,0.57516161 82.790048,1.7441516 l -19,19.4433604 c -6.41991,7.9503 4.36909,7.02457 8.99414,9.31446 1.65908,1.69585 -6.36025,2.9492 -4.70117,4.64648 1.65908,1.69585 10.0334,3.26704 11.69531,4.96289 1.65908,1.69585 -3.39735,3.4936 -1.73828,5.18945 1.65908,1.69585 5.49633,0.09085 6.21484,4.00586 0.51202,2.79766 6.91542,1.20146 10.04688,-1.08984 1.65908,-1.69728 -3.17275,-1.53852 -1.51367,-3.23438 4.12578,-4.21911 7.967342,-1.53216 9.378902,-5.75976 0.69729,-2.08907 -6.074022,-3.22017 -4.412112,-4.91602 4.773572,-2.78776 21.272012,-4.60299 13.443362,-12.43164 L 91.502938,1.7441516 C 90.298578,0.58789161 88.692148,0.00319161 87.100598,1.1614735e-5 Z m 107.580072,0 C 193.08912,-0.00298839 191.5142,0.57516161 190.37208,1.7441516 l -19,19.4433604 c -6.41991,7.9503 4.36714,7.02457 8.99219,9.31446 1.65908,1.69585 -6.3583,2.9492 -4.69922,4.64648 1.65909,1.69585 10.03146,3.26704 11.69336,4.96289 1.65908,1.69585 -3.3954,3.4936 -1.73633,5.18945 1.65908,1.69585 5.49633,0.09085 6.21484,4.00586 0.51202,2.79766 6.91542,1.20146 10.04688,-1.08984 1.65909,-1.69728 -3.17471,-1.53852 -1.51563,-3.23438 4.12578,-4.21911 7.96734,-1.53216 9.37891,-5.75976 0.69729,-2.08907 -6.07207,-3.22017 -4.41016,-4.91602 4.77357,-2.78776 21.27201,-4.60299 13.44336,-12.43164 L 199.08497,1.7441516 C 197.88062,0.58789161 196.27221,0.00319161 194.68067,1.1614735e-5 Z M 87.270518,1.8496216 c 1.13628,0.006 2.26858,0.43181 3.08398,1.25781 l 7.51758,7.6347704 c 0.71285,0.72841 0.70355,2.14095 0.30469,2.54688 l -3.73438,-2.98633 -0.73242,4.42187 -3.11914,-1.64648 -4.99414,3.15429 -1.6543,-6.6503904 -2.68164,4.6406304 h -4.10156 c -1.6718,0 -1.86867,-2.12157 -0.34961,-3.64063 2.6534,-2.8641304 5.69869,-5.7829904 7.35352,-7.4746104 0.83167,-0.85004 1.97113,-1.26381 3.10742,-1.25781 z m 107.582032,0 c 1.13628,0.006 2.26858,0.43181 3.08398,1.25781 l 7.51758,7.6347704 c 0.71286,0.72841 0.70161,2.14095 0.30274,2.54688 l -3.73243,-2.98633 -0.73242,4.42187 -3.11914,-1.64648 -4.99414,3.15429 -1.6543,-6.6503904 -2.68359,4.6406304 h -4.10156 c -1.67181,0 -1.86866,-2.12157 -0.34961,-3.64063 2.6534,-2.8641304 5.69867,-5.7829904 7.35351,-7.4746104 0.83166,-0.85004 1.97309,-1.26381 3.10938,-1.25781 z M 78.243168,31.554702 c 0.50776,0.3154 8.18756,1.87633 10.06446,2.1875 0.65062,0.1372 0.1897,0.80716 -0.70703,1.25977 -2.02258,0.53746 -11.83261,-3.44727 -9.35743,-3.44727 z m 107.582032,0 c 0.50776,0.3154 8.18756,1.87633 10.06446,2.1875 0.65061,0.1372 0.18969,0.80716 -0.70703,1.25977 -2.02258,0.53746 -11.83261,-3.44727 -9.35743,-3.44727 z m -77.43164,5.34375 c -1.64016,-0.0414 -3.33101,0.75154 -3.77734,2.32422 0,0.9646 7.10742,1.59605 7.10742,-0.22852 -0.47471,-1.37372 -1.88286,-2.05912 -3.33008,-2.0957 z m 107.58204,0 c -1.64017,-0.0414 -3.33103,0.75154 -3.77735,2.32422 0,0.9646 7.10742,1.59605 7.10742,-0.22852 -0.47471,-1.37372 -1.88286,-2.05912 -3.33007,-2.0957 z m -140.457042,4.17774 c -2.22745,-0.02071 -4.84129,1.60732 -2.91992,3.27148 1.68312,1.45541 4.28318,-0.36152 5.0625,-2.39258 -0.45865,-0.60943 -1.27098,-0.87081 -2.14258,-0.8789 z m 107.582042,0 c -2.22744,-0.02071 -4.84129,1.60732 -2.91993,3.27148 1.68313,1.45541 4.28317,-0.36152 5.0625,-2.39258 -0.45866,-0.60943 -1.27096,-0.87081 -2.14257,-0.8789 z m -79.375,0.1289 c -2.16968,1.94621 0.24231,3.9195 2.38086,2.66211 0.47665,-0.48371 -0.0117,-2.17838 -2.38086,-2.66211 z m 107.58007,0 c -2.16967,1.94621 0.24427,3.9195 2.38282,2.66211 0.47666,-0.48371 -0.0137,-2.17838 -2.38282,-2.66211 z m -186.007812,57.2207 c -1.59154,-0.003 -3.16843,0.57515 -4.31055,1.744138 L 1.9873078,119.61329 c -6.41991,7.9503 4.36909,7.02458 8.9941502,9.31446 1.65908,1.69586 -6.3583002,2.94921 -4.6992202,4.64648 1.65908,1.69586 10.0314502,3.26703 11.6933602,4.96289 1.65908,1.69585 -3.3954,3.4936 -1.73633,5.18946 1.65908,1.69585 5.49633,0.0908 6.21484,4.00585 0.51202,2.79766 6.91346,1.20147 10.04492,-1.08984 1.65908,-1.69727 -3.17275,-1.53851 -1.51367,-3.23437 4.12578,-4.21912 7.96735,-1.53216 9.37891,-5.75977 0.69729,-2.08906 -6.07402,-3.22015 -4.41211,-4.91602 4.77357,-2.78776 21.27201,-4.60299 13.44336,-12.43164 l -19.69532,-20.13086 c -1.20436,-1.156258 -2.81079,-1.740958 -4.40234,-1.744138 z m 107.582032,0 c -1.59155,-0.003 -3.16843,0.57515 -4.31054,1.744138 l -19,19.44336 c -6.41992,7.9503 4.36909,7.02458 8.99414,9.31446 1.65909,1.69586 -6.36026,2.94921 -4.70118,4.64648 1.65908,1.69586 10.03341,3.26703 11.69532,4.96289 1.65908,1.69585 -3.39735,3.4936 -1.73828,5.18946 1.65908,1.69585 5.49633,0.0908 6.21484,4.00585 0.51202,2.79766 6.91541,1.20147 10.04687,-1.08984 1.65908,-1.69727 -3.17275,-1.53851 -1.51367,-3.23437 4.12578,-4.21912 7.96735,-1.53216 9.37891,-5.75977 0.69729,-2.08906 -6.07402,-3.22015 -4.41211,-4.91602 4.77357,-2.78776 21.27201,-4.60299 13.44336,-12.43164 l -19.69531,-20.13086 c -1.20435,-1.156258 -2.81081,-1.740958 -4.40235,-1.744138 z m 109.33985,0 c -1.59155,-0.003 -3.16648,0.57515 -4.3086,1.744138 l -19,19.44336 c -6.41991,7.9503 4.36714,7.02458 8.99219,9.31446 1.65908,1.69586 -6.35831,2.94921 -4.69922,4.64648 1.65908,1.69586 10.03146,3.26703 11.69336,4.96289 1.65909,1.69585 -3.3954,3.4936 -1.73633,5.18946 1.65909,1.69585 5.49634,0.0908 6.21485,4.00585 0.51202,2.79766 6.9154,1.20147 10.04687,-1.08984 1.65908,-1.69727 -3.1747,-1.53851 -1.51562,-3.23437 4.12578,-4.21912 7.96733,-1.53216 9.3789,-5.75977 0.69729,-2.08906 -6.07205,-3.22015 -4.41015,-4.91602 4.77357,-2.78776 21.272,-4.60299 13.44335,-12.43164 l -19.69531,-20.13086 c -1.20435,-1.156258 -2.81275,-1.740958 -4.40429,-1.744138 z M 25.467778,100.2754 c 1.13627,0.006 2.26859,0.43181 3.08399,1.25782 l 7.51758,7.63476 c 0.71285,0.72841 0.70355,2.14095 0.30468,2.54688 l -3.73242,-2.98633 -0.73437,4.42187 -3.11914,-1.64648 -4.99414,3.1543 -1.65235,-6.65039 -2.68359,4.64062 h -4.10156 c -1.67181,0 -1.86866,-2.12157 -0.34961,-3.64062 2.6534,-2.86413 5.69868,-5.783 7.35351,-7.47461 0.83167,-0.85005 1.97112,-1.26383 3.10742,-1.25782 z m 107.582032,0 c 1.13628,0.006 2.26859,0.43181 3.08399,1.25782 l 7.51758,7.63476 c 0.71286,0.72841 0.70354,2.14095 0.30468,2.54688 l -3.73242,-2.98633 -0.73437,4.42187 -3.11914,-1.64648 -4.99414,3.1543 -1.6543,-6.65039 -2.68164,4.64062 h -4.10156 c -1.67181,0 -1.86866,-2.12157 -0.34961,-3.64062 2.6534,-2.86413 5.69867,-5.783 7.35351,-7.47461 0.83166,-0.85005 1.97113,-1.26383 3.10742,-1.25782 z m 109.3418,0 c 1.13628,0.006 2.26859,0.43181 3.08399,1.25782 l 7.51757,7.63476 c 0.71286,0.72841 0.70161,2.14095 0.30274,2.54688 l -3.73242,-2.98633 -0.73438,4.42187 -3.11719,-1.64648 -4.99414,3.1543 -1.65429,-6.65039 -2.6836,4.64062 h -4.10156 c -1.67181,0 -1.86866,-2.12157 -0.34961,-3.64062 2.6534,-2.86413 5.69868,-5.783 7.35352,-7.47461 0.83166,-0.85005 1.97308,-1.26383 3.10937,-1.25782 z M 16.440438,129.98048 c 0.50776,0.31541 8.18755,1.87634 10.06445,2.1875 0.65062,0.1372 0.1897,0.80716 -0.70703,1.25977 -2.02258,0.53747 -11.8326,-3.44727 -9.35742,-3.44727 z m 107.582032,0 c 0.50776,0.31541 8.18755,1.87634 10.06445,2.1875 0.65061,0.1372 0.1897,0.80716 -0.70703,1.25977 -2.02258,0.53747 -11.8326,-3.44727 -9.35742,-3.44727 z m 109.3418,0 c 0.50777,0.31541 8.18755,1.87634 10.06445,2.1875 0.65062,0.1372 0.1897,0.80716 -0.70703,1.25977 -2.02258,0.53747 -11.8326,-3.44727 -9.35742,-3.44727 z m -186.771492,5.34375 c -1.64016,-0.0414 -3.33296,0.75155 -3.77929,2.32422 0,0.96461 7.10742,1.59604 7.10742,-0.22852 -0.47471,-1.37372 -1.88092,-2.05913 -3.32813,-2.0957 z m 107.582032,0 c -1.64016,-0.0414 -3.33296,0.75155 -3.77929,2.32422 0,0.96461 7.10742,1.59604 7.10742,-0.22852 -0.47471,-1.37372 -1.88091,-2.05913 -3.32813,-2.0957 z m 109.33985,0 c -1.64016,-0.0414 -3.33103,0.75155 -3.77735,2.32422 0,0.96461 7.10742,1.59604 7.10742,-0.22852 -0.47471,-1.37372 -1.88286,-2.05913 -3.33007,-2.0957 z m -249.798832,4.17774 c -2.22744,-0.0207 -4.8393302,1.60732 -2.91797,3.27148 1.68313,1.45541 4.28317,-0.36152 5.0625,-2.39258 -0.45865,-0.60943 -1.27292,-0.87081 -2.14453,-0.8789 z m 107.582032,0 c -2.22745,-0.0207 -4.83933,1.60732 -2.91797,3.27148 1.68313,1.45541 4.28123,-0.36152 5.06055,-2.39258 -0.45865,-0.60943 -1.27098,-0.87081 -2.14258,-0.8789 z m 109.3418,0 c -2.22744,-0.0207 -4.84128,1.60732 -2.91992,3.27148 1.68313,1.45541 4.28317,-0.36152 5.0625,-2.39258 -0.45866,-0.60943 -1.27097,-0.87081 -2.14258,-0.8789 z m -188.716802,0.1289 c -2.16967,1.94621 0.2423,3.9195 2.38086,2.66211 0.47665,-0.48372 -0.01174,-2.17838 -2.38086,-2.66211 z m 107.582032,0 c -2.16967,1.94621 0.24231,3.9195 2.38086,2.66211 0.47665,-0.48372 -0.0118,-2.17838 -2.38086,-2.66211 z m 109.33985,0 c -2.16967,1.94621 0.24426,3.9195 2.38281,2.66211 0.47666,-0.48372 -0.0137,-2.17838 -2.38281,-2.66211 z"
         style="stroke-width:0.14143898"
         inkscape:connector-curvature="0" />
    </pattern>
    <pattern
       patternUnits="userSpaceOnUse"
       width="268.39488"
       height="149.22132"
       patternTransform="translate(-361.99708,533.64539)"
       id="pattern7570">
      <path
         sodipodi:nodetypes="cccccccccccccccscccccccccsccsccccccccccccccccccccccccccccccccccccccccccccccccccccccccccccccccccccccscccccccccccccscccccccccccccsccccccccccccccccccccccccccccccccccccccczczcccccc"
         id="path7568"
         d="M 134.68067,1.1614735e-5 C 133.08912,-0.00298839 131.5142,0.57516161 130.37208,1.7441516 l -19,19.4433604 c -6.41991,7.9503 4.36714,7.02457 8.99219,9.31446 1.65908,1.69585 -6.3583,2.9492 -4.69922,4.64648 1.65909,1.69585 10.03146,3.26704 11.69336,4.96289 1.65908,1.69585 -3.3954,3.4936 -1.73633,5.18945 1.65908,1.69585 5.49633,0.0908 6.21484,4.00586 0.51202,2.79766 6.91542,1.20146 10.04688,-1.08984 1.65909,-1.69728 -3.17471,-1.53852 -1.51563,-3.23438 4.12578,-4.21911 7.96734,-1.53216 9.37891,-5.75976 0.69729,-2.08907 -6.07207,-3.22017 -4.41016,-4.91602 4.77357,-2.78776 21.27201,-4.60299 13.44336,-12.43164 L 139.08497,1.7441516 C 137.88062,0.58789161 136.27221,0.00319161 134.68067,1.1614735e-5 Z M 134.85255,1.8496216 c 1.13628,0.006 2.26858,0.43181 3.08398,1.25781 l 7.51758,7.6347704 c 0.71286,0.72841 0.70161,2.14095 0.30274,2.54688 l -3.73243,-2.98633 -0.73242,4.42187 -3.11914,-1.64648 -4.99414,3.15429 -1.6543,-6.6503904 -2.68359,4.6406304 h -4.10156 c -1.67181,0 -1.86866,-2.12157 -0.34961,-3.64063 2.6534,-2.8641304 5.69867,-5.7829904 7.35351,-7.4746104 0.83166,-0.85004 1.97309,-1.26381 3.10938,-1.25781 z M 125.8252,31.554702 c 0.50776,0.3154 8.18756,1.87633 10.06446,2.1875 0.65061,0.1372 0.18969,0.80716 -0.70703,1.25977 -2.02258,0.53746 -11.83261,-3.44727 -9.35743,-3.44727 z m 30.1504,5.34375 c -1.64017,-0.0414 -3.33103,0.75154 -3.77735,2.32422 0,0.9646 7.10742,1.59605 7.10742,-0.22852 -0.47471,-1.37372 -1.88286,-2.05912 -3.33007,-2.0957 z m -32.875,4.17774 c -2.22744,-0.0207 -4.84129,1.60732 -2.91993,3.27148 1.68313,1.45541 4.28317,-0.36152 5.0625,-2.39258 -0.45866,-0.60943 -1.27096,-0.87081 -2.14257,-0.8789 z m 28.20507,0.1289 c -2.16967,1.94621 0.24427,3.9195 2.38282,2.66211 0.47666,-0.48371 -0.0137,-2.17838 -2.38282,-2.66211 z m -126.007812,57.2207 c -1.59154,-0.003 -3.16843,0.57515 -4.31055,1.744138 L 1.9873078,119.61329 c -6.41991,7.9503 4.36909,7.02458 8.9941502,9.31446 1.65908,1.69586 -6.3583002,2.94921 -4.6992202,4.64648 1.65908,1.69586 10.0314502,3.26703 11.6933602,4.96289 1.65908,1.69585 -3.3954,3.4936 -1.73633,5.18946 1.65908,1.69585 5.49633,0.0908 6.21484,4.00585 0.51202,2.79766 6.91346,1.20147 10.04492,-1.08984 1.65908,-1.69727 -3.17275,-1.53851 -1.51367,-3.23437 4.12578,-4.21912 7.96735,-1.53216 9.37891,-5.75977 0.69729,-2.08906 -6.07402,-3.22015 -4.41211,-4.91602 4.77357,-2.78776 21.27201,-4.60299 13.44336,-12.43164 l -19.69532,-20.13086 c -1.20436,-1.156258 -2.81079,-1.740958 -4.40234,-1.744138 z m 107.582032,0 c -1.59155,-0.003 -3.16843,0.57515 -4.31054,1.744138 l -19,19.44336 c -6.41992,7.9503 4.36909,7.02458 8.99414,9.31446 1.65909,1.69586 -6.36026,2.94921 -4.70118,4.64648 1.65908,1.69586 10.03341,3.26703 11.69532,4.96289 1.65908,1.69585 -3.39735,3.4936 -1.73828,5.18946 1.65908,1.69585 5.49633,0.0908 6.21484,4.00585 0.51202,2.79766 6.91541,1.20147 10.04687,-1.08984 1.65908,-1.69727 -3.17275,-1.53851 -1.51367,-3.23437 4.12578,-4.21912 7.96735,-1.53216 9.37891,-5.75977 0.69729,-2.08906 -6.07402,-3.22015 -4.41211,-4.91602 4.77357,-2.78776 21.27201,-4.60299 13.44336,-12.43164 l -19.69531,-20.13086 c -1.20435,-1.156258 -2.81081,-1.740958 -4.40235,-1.744138 z m 109.33985,0 c -1.59155,-0.003 -3.16648,0.57515 -4.3086,1.744138 l -19,19.44336 c -6.41991,7.9503 4.36714,7.02458 8.99219,9.31446 1.65908,1.69586 -6.35831,2.94921 -4.69922,4.64648 1.65908,1.69586 10.03146,3.26703 11.69336,4.96289 1.65909,1.69585 -3.3954,3.4936 -1.73633,5.18946 1.65909,1.69585 5.49634,0.0908 6.21485,4.00585 0.51202,2.79766 6.9154,1.20147 10.04687,-1.08984 1.65908,-1.69727 -3.1747,-1.53851 -1.51562,-3.23437 4.12578,-4.21912 7.96733,-1.53216 9.3789,-5.75977 0.69729,-2.08906 -6.07205,-3.22015 -4.41015,-4.91602 4.77357,-2.78776 21.272,-4.60299 13.44335,-12.43164 l -19.69531,-20.13086 c -1.20435,-1.156258 -2.81275,-1.740958 -4.40429,-1.744138 z M 25.467778,100.2754 c 1.13627,0.006 2.26859,0.43181 3.08399,1.25782 l 7.51758,7.63476 c 0.71285,0.72841 0.70355,2.14095 0.30468,2.54688 l -3.73242,-2.98633 -0.73437,4.42187 -3.11914,-1.64648 -4.99414,3.1543 -1.65235,-6.65039 -2.68359,4.64062 h -4.10156 c -1.67181,0 -1.86866,-2.12157 -0.34961,-3.64062 2.6534,-2.86413 5.69868,-5.783 7.35351,-7.47461 0.83167,-0.85005 1.97112,-1.26383 3.10742,-1.25782 z m 107.582032,0 c 1.13628,0.006 2.26859,0.43181 3.08399,1.25782 l 7.51758,7.63476 c 0.71286,0.72841 0.70354,2.14095 0.30468,2.54688 l -3.73242,-2.98633 -0.73437,4.42187 -3.11914,-1.64648 -4.99414,3.1543 -1.6543,-6.65039 -2.68164,4.64062 h -4.10156 c -1.67181,0 -1.86866,-2.12157 -0.34961,-3.64062 2.6534,-2.86413 5.69867,-5.783 7.35351,-7.47461 0.83166,-0.85005 1.97113,-1.26383 3.10742,-1.25782 z m 109.3418,0 c 1.13628,0.006 2.26859,0.43181 3.08399,1.25782 l 7.51757,7.63476 c 0.71286,0.72841 0.70161,2.14095 0.30274,2.54688 l -3.73242,-2.98633 -0.73438,4.42187 -3.11719,-1.64648 -4.99414,3.1543 -1.65429,-6.65039 -2.6836,4.64062 h -4.10156 c -1.67181,0 -1.86866,-2.12157 -0.34961,-3.64062 2.6534,-2.86413 5.69868,-5.783 7.35352,-7.47461 0.83166,-0.85005 1.97308,-1.26383 3.10937,-1.25782 z M 16.440438,129.98048 c 0.50776,0.31541 8.18755,1.87634 10.06445,2.1875 0.65062,0.1372 0.1897,0.80716 -0.70703,1.25977 -2.02258,0.53747 -11.8326,-3.44727 -9.35742,-3.44727 z m 107.582032,0 c 0.50776,0.31541 8.18755,1.87634 10.06445,2.1875 0.65061,0.1372 0.1897,0.80716 -0.70703,1.25977 -2.02258,0.53747 -11.8326,-3.44727 -9.35742,-3.44727 z m 109.3418,0 c 0.50777,0.31541 8.18755,1.87634 10.06445,2.1875 0.65062,0.1372 0.1897,0.80716 -0.70703,1.25977 -2.02258,0.53747 -11.8326,-3.44727 -9.35742,-3.44727 z m -186.771492,5.34375 c -1.64016,-0.0414 -3.33296,0.75155 -3.77929,2.32422 0,0.96461 7.10742,1.59604 7.10742,-0.22852 -0.47471,-1.37372 -1.88092,-2.05913 -3.32813,-2.0957 z m 107.582032,0 c -1.64016,-0.0414 -3.33296,0.75155 -3.77929,2.32422 0,0.96461 7.10742,1.59604 7.10742,-0.22852 -0.47471,-1.37372 -1.88091,-2.05913 -3.32813,-2.0957 z m 109.33985,0 c -1.64016,-0.0414 -3.33103,0.75155 -3.77735,2.32422 0,0.96461 7.10742,1.59604 7.10742,-0.22852 -0.47471,-1.37372 -1.88286,-2.05913 -3.33007,-2.0957 z m -249.798832,4.17774 c -2.22744,-0.0207 -4.8393302,1.60732 -2.91797,3.27148 1.68313,1.45541 4.28317,-0.36152 5.0625,-2.39258 -0.45865,-0.60943 -1.27292,-0.87081 -2.14453,-0.8789 z m 107.582032,0 c -2.22745,-0.0207 -4.83933,1.60732 -2.91797,3.27148 1.68313,1.45541 4.28123,-0.36152 5.06055,-2.39258 -0.45865,-0.60943 -1.27098,-0.87081 -2.14258,-0.8789 z m 109.3418,0 c -2.22744,-0.0207 -4.84128,1.60732 -2.91992,3.27148 1.68313,1.45541 4.28317,-0.36152 5.0625,-2.39258 -0.45866,-0.60943 -1.27097,-0.87081 -2.14258,-0.8789 z m -188.716802,0.1289 c -2.16967,1.94621 0.2423,3.9195 2.38086,2.66211 0.47665,-0.48372 -0.0117,-2.17838 -2.38086,-2.66211 z m 107.582032,0 c -2.16967,1.94621 0.24231,3.9195 2.38086,2.66211 0.47665,-0.48372 -0.0118,-2.17838 -2.38086,-2.66211 z m 109.33985,0 c -2.16967,1.94621 0.24426,3.9195 2.38281,2.66211 0.47666,-0.48372 -0.0137,-2.17838 -2.38281,-2.66211 z"
         style="stroke-width:0.14143898"
         inkscape:connector-curvature="0" />
    </pattern>
    <filter
       inkscape:collect="always"
       style="color-interpolation-filters:sRGB"
       id="filter7655"
       x="-0.033260869"
       width="1.0665217"
       y="-0.30600001"
       height="1.612">
      <feGaussianBlur
         inkscape:collect="always"
         stdDeviation="3.4312748"
         id="feGaussianBlur7657" />
    </filter>
  </defs>
  <sodipodi:namedview
     id="base"
     pagecolor="#ffffff"
     bordercolor="#666666"
     borderopacity="1.0"
     inkscape:pageopacity="0"
     inkscape:pageshadow="2"
     inkscape:zoom="0.74316406"
     inkscape:cx="365.08036"
     inkscape:cy="490.47044"
     inkscape:document-units="px"
     inkscape:current-layer="layer1"
     showgrid="false"
     units="px"
     inkscape:showpageshadow="false"
     inkscape:window-width="1920"
     inkscape:window-height="991"
     inkscape:window-x="0"
     inkscape:window-y="25"
     inkscape:window-maximized="1"
     showguides="true"
     inkscape:guide-bbox="true"
     inkscape:snap-global="false" />
  <metadata
     id="metadata7">
    <rdf:RDF>
      <cc:Work
         rdf:about="">
        <dc:format>image/svg+xml</dc:format>
        <dc:type
           rdf:resource="http://purl.org/dc/dcmitype/StillImage" />
        <dc:title>lucentis icon</dc:title>
        <cc:license
           rdf:resource="http://creativecommons.org/publicdomain/zero/1.0/" />
        <dc:date>2019</dc:date>
        <dc:creator>
          <cc:Agent>
            <dc:title>Cristian Pozzessere  &lt; ilnanny &gt;</dc:title>
          </cc:Agent>
        </dc:creator>
        <dc:subject>
          <rdf:Bag>
            <rdf:li>ilnanny</rdf:li>
          </rdf:Bag>
        </dc:subject>
      </cc:Work>
      <cc:License
         rdf:about="http://creativecommons.org/publicdomain/zero/1.0/">
        <cc:permits
           rdf:resource="http://creativecommons.org/ns#Reproduction" />
        <cc:permits
           rdf:resource="http://creativecommons.org/ns#Distribution" />
        <cc:permits
           rdf:resource="http://creativecommons.org/ns#DerivativeWorks" />
      </cc:License>
    </rdf:RDF>
  </metadata>
  <g
     inkscape:label="Livello 1"
     inkscape:groupmode="layer"
     id="layer1"
     transform="translate(0,-28.3622)">
    <rect
       style="opacity:1;fill:#8795bd;fill-opacity:1;stroke:#000000;stroke-width:2;stroke-linecap:round;stroke-linejoin:bevel;stroke-miterlimit:4;stroke-dasharray:none;stroke-opacity:0.98809522;paint-order:stroke fill markers"
       id="rect6700"
       width="1020"
       height="1020"
       x="2"
       y="30.362165" />
    <ellipse
       transform="matrix(0.89326585,0,0,1.0373213,29.667624,463.44026)"
       ry="13.455979"
       rx="123.79501"
       cy="489.90228"
       cx="277.95816"
       id="ellipse7661"
       style="opacity:1;fill:#000000;fill-opacity:0.36904764;stroke:none;stroke-width:10.25055027;stroke-linecap:round;stroke-linejoin:bevel;stroke-miterlimit:4;stroke-dasharray:none;stroke-opacity:0.26984127;paint-order:stroke fill markers;filter:url(#filter7655)" />
    <ellipse
       style="opacity:1;fill:#000000;fill-opacity:0.36904764;stroke:none;stroke-width:10.25055027;stroke-linecap:round;stroke-linejoin:bevel;stroke-miterlimit:4;stroke-dasharray:none;stroke-opacity:0.26984127;paint-order:stroke fill markers;filter:url(#filter7655)"
       id="path7633"
       cx="277.95816"
       cy="489.90228"
       rx="123.79501"
       ry="13.455979"
       transform="matrix(0.89326585,0,0,1.0373213,29.667624,-15.592588)" />
    <ellipse
       transform="matrix(0.89326585,0,0,1.0373213,504.80297,-15.592588)"
       ry="13.455979"
       rx="123.79501"
       cy="489.90228"
       cx="277.95816"
       id="ellipse7659"
       style="opacity:1;fill:#000000;fill-opacity:0.36904764;stroke:none;stroke-width:10.25055027;stroke-linecap:round;stroke-linejoin:bevel;stroke-miterlimit:4;stroke-dasharray:none;stroke-opacity:0.26984127;paint-order:stroke fill markers;filter:url(#filter7655)" />
    <g
       id="g7631"
       transform="translate(-8.8775386,24.880185)">
      <g
         transform="matrix(0.92882473,0,0,0.92882473,52.810414,21.071378)"
         id="g6797">
        <path
           inkscape:connector-curvature="0"
           id="path6664"
           d="m 759.88964,579.35142 c -113.10382,0 -204.92188,91.81806 -204.9219,204.92188 0,113.1038 91.81808,204.9219 204.9219,204.9219 113.1038,0 204.92188,-91.8181 204.92188,-204.9219 0,-113.1038 -91.81808,-204.92188 -204.92188,-204.92188 z m 0,12 c 106.61852,0 192.92188,86.30336 192.92188,192.92188 0,106.61852 -86.30336,192.9219 -192.92188,192.9219 -106.61854,0 -192.9219,-86.30338 -192.9219,-192.9219 2e-5,-106.61852 86.30336,-192.92188 192.9219,-192.92188 z"
           style="color:#000000;font-style:normal;font-variant:normal;font-weight:normal;font-stretch:normal;font-size:medium;line-height:normal;font-family:sans-serif;font-variant-ligatures:normal;font-variant-position:normal;font-variant-caps:normal;font-variant-numeric:normal;font-variant-alternates:normal;font-feature-settings:normal;text-indent:0;text-align:start;text-decoration:none;text-decoration-line:none;text-decoration-style:solid;text-decoration-color:#000000;letter-spacing:normal;word-spacing:normal;text-transform:none;writing-mode:lr-tb;direction:ltr;text-orientation:mixed;dominant-baseline:auto;baseline-shift:baseline;text-anchor:start;white-space:normal;shape-padding:0;clip-rule:nonzero;display:inline;overflow:visible;visibility:visible;opacity:1;isolation:auto;mix-blend-mode:normal;color-interpolation:sRGB;color-interpolation-filters:linearRGB;solid-color:#000000;solid-opacity:1;vector-effect:none;fill:none;fill-opacity:1;fill-rule:nonzero;stroke:#050505;stroke-width:4;stroke-linecap:round;stroke-linejoin:bevel;stroke-miterlimit:4;stroke-dasharray:none;stroke-dashoffset:0;stroke-opacity:0.2142857;paint-order:stroke fill markers;color-rendering:auto;image-rendering:auto;shape-rendering:auto;text-rendering:auto;enable-background:accumulate" />
        <circle
           r="197.85095"
           cy="784.27319"
           cx="759.88965"
           id="circle6666"
           style="opacity:1;fill:#000000;fill-opacity:0.2745098;stroke:none;stroke-width:14.88587379;stroke-linecap:round;stroke-linejoin:bevel;stroke-miterlimit:4;stroke-dasharray:none;stroke-opacity:1;paint-order:stroke fill markers" />
        <circle
           style="opacity:1;fill:#ffffff;fill-opacity:0.24603176;stroke:none;stroke-width:8;stroke-linecap:round;stroke-linejoin:bevel;stroke-miterlimit:4;stroke-dasharray:none;stroke-opacity:1;paint-order:stroke fill markers"
           id="circle6668"
           cx="759.88965"
           cy="784.27319"
           r="198.92123" />
        <path
           style="color:#000000;font-style:normal;font-variant:normal;font-weight:normal;font-stretch:normal;font-size:medium;line-height:normal;font-family:sans-serif;font-variant-ligatures:normal;font-variant-position:normal;font-variant-caps:normal;font-variant-numeric:normal;font-variant-alternates:normal;font-feature-settings:normal;text-indent:0;text-align:start;text-decoration:none;text-decoration-line:none;text-decoration-style:solid;text-decoration-color:#000000;letter-spacing:normal;word-spacing:normal;text-transform:none;writing-mode:lr-tb;direction:ltr;text-orientation:mixed;dominant-baseline:auto;baseline-shift:baseline;text-anchor:start;white-space:normal;shape-padding:0;clip-rule:nonzero;display:inline;overflow:visible;visibility:visible;opacity:1;isolation:auto;mix-blend-mode:normal;color-interpolation:sRGB;color-interpolation-filters:linearRGB;solid-color:#000000;solid-opacity:1;vector-effect:none;fill:url(#linearGradient6692);fill-opacity:1;fill-rule:nonzero;stroke:none;stroke-width:12;stroke-linecap:round;stroke-linejoin:bevel;stroke-miterlimit:4;stroke-dasharray:none;stroke-dashoffset:0;stroke-opacity:1;paint-order:stroke fill markers;color-rendering:auto;image-rendering:auto;shape-rendering:auto;text-rendering:auto;enable-background:accumulate"
           d="m 614.98798,639.37164 c -79.97648,79.97648 -79.97648,209.82684 -2e-5,289.80332 79.97646,79.97644 209.82686,79.97644 289.80334,2e-5 79.97646,-79.97646 79.97644,-209.82686 -2e-5,-289.80334 -79.97648,-79.97646 -209.82684,-79.97646 -289.8033,0 z m 8.48528,8.48528 c 75.39068,-75.39066 197.44206,-75.39066 272.83274,0 75.39068,75.39068 75.3907,197.4421 2e-5,272.83278 -75.3907,75.3907 -197.4421,75.3907 -272.83278,-2e-5 -75.39066,-75.3907 -75.39068,-197.44206 2e-5,-272.83276 z"
           id="path6670"
           inkscape:connector-curvature="0" />
        <circle
           style="opacity:1;fill:#a0ace7;fill-opacity:0.99206346;stroke:none;stroke-width:11.73709965;stroke-linecap:round;stroke-linejoin:bevel;stroke-miterlimit:4;stroke-dasharray:none;stroke-opacity:1;paint-order:stroke fill markers"
           id="circle6672"
           cx="759.88965"
           cy="784.27319"
           r="156" />
        <path
           inkscape:connector-curvature="0"
           id="path6674"
           d="m 759.88962,627.20188 c -86.6934,0 -157.0714,70.37802 -157.0714,157.07142 0,86.6934 70.378,157.07132 157.0714,157.07132 86.69342,0 157.07142,-70.37792 157.07142,-157.07132 0,-86.6934 -70.378,-157.07142 -157.07142,-157.07142 z m 0,9.19794 c 81.72246,0 147.87348,66.15102 147.87348,147.87348 0,81.72246 -66.15102,147.87346 -147.87348,147.87346 -81.72248,0 -147.87348,-66.151 -147.87346,-147.87346 0,-81.72246 66.15098,-147.87348 147.87346,-147.87348 z"
           style="color:#000000;font-style:normal;font-variant:normal;font-weight:normal;font-stretch:normal;font-size:medium;line-height:normal;font-family:sans-serif;font-variant-ligatures:normal;font-variant-position:normal;font-variant-caps:normal;font-variant-numeric:normal;font-variant-alternates:normal;font-feature-settings:normal;text-indent:0;text-align:start;text-decoration:none;text-decoration-line:none;text-decoration-style:solid;text-decoration-color:#000000;letter-spacing:normal;word-spacing:normal;text-transform:none;writing-mode:lr-tb;direction:ltr;text-orientation:mixed;dominant-baseline:auto;baseline-shift:baseline;text-anchor:start;white-space:normal;shape-padding:0;clip-rule:nonzero;display:inline;overflow:visible;visibility:visible;opacity:1;isolation:auto;mix-blend-mode:normal;color-interpolation:sRGB;color-interpolation-filters:linearRGB;solid-color:#000000;solid-opacity:1;vector-effect:none;fill:#e7e7e7;fill-opacity:0.94444442;fill-rule:nonzero;stroke:none;stroke-width:9.19792843;stroke-linecap:round;stroke-linejoin:bevel;stroke-miterlimit:4;stroke-dasharray:none;stroke-dashoffset:0;stroke-opacity:1;paint-order:stroke fill markers;color-rendering:auto;image-rendering:auto;shape-rendering:auto;text-rendering:auto;enable-background:accumulate" />
        <circle
           r="156"
           cy="784.27319"
           cx="761.14008"
           id="circle6676"
           style="opacity:1;fill:url(#radialGradient6694);fill-opacity:1;stroke:none;stroke-width:11.73709965;stroke-linecap:round;stroke-linejoin:bevel;stroke-miterlimit:4;stroke-dasharray:none;stroke-opacity:1;paint-order:stroke fill markers" />
        <path
           sodipodi:nodetypes="cccccccccccccccccccccccccccccccccccccccccccccccccc"
           inkscape:connector-curvature="0"
           id="path7003"
           d="m 804.3086,591.4911 c 20.30576,4.9426 39.34832,13.09146 56.5625,23.88672 l -18.73828,25.53516 -41.20314,-41.6172 c 0.1332,-0.69364 1.51454,-3.78868 3.37892,-7.80468 z m -12.87892,26.42188 39.23048,38.32812 -36.02344,49.16016 -31.33594,-29.8125 z m 80.97266,5.29296 c 17.87336,13.09488 33.41136,29.18414 45.85938,47.54688 l -25.55078,20.65624 -41.82032,-41.73828 z m -33.35546,41.1875 39.47656,38.57422 -46.63282,37.71874 -30.71484,-29.20312 34.91016,-43.4375 z m 87.12108,19.0664 c 9.60076,16.84196 16.73024,35.27598 20.91408,54.8086 l -5.39844,2.78516 -0.2461,-0.2422 0.4961,-0.24608 -39.60156,-39.66798 z M 757.75,686.78406 787.48046,715.25672 762.5625,748.96376 739.125,724.74892 Z m 129.65624,24.94532 38.4883,37.47656 -55.01954,28.35156 -31.95312,-30.29688 z m -93.8789,9.36718 28.6172,27.37892 -33.6758,27.2578 -21.58984,-22.39062 0.2461,-0.36328 0.3711,0.48438 z m 35.15626,33.70704 30.22656,28.96094 -41.69922,21.53516 c -5.6279,-5.2127 -22.85476,-24.16158 -23.5625,-24.94532 z"
           style="opacity:1;fill:#ffffff;fill-opacity:0.31698118;stroke:none;stroke-width:3.98632169" />
        <path
           id="path6539"
           d="M 846.7159,779.5478 705.01432,697.7969 c -1.67862,-0.9701 -3.77144,-0.9701 -5.45006,0 -1.67862,0.98102 -2.72502,2.77954 -2.72502,4.73066 v 163.50182 c 0,1.95112 1.0464,3.74964 2.72502,4.71978 0.83932,0.49048 1.78762,0.73024 2.72504,0.73024 0.9374,0 1.8857,-0.23976 2.72502,-0.73024 L 846.7159,788.99822 c 1.67862,-0.97012 2.72502,-2.76862 2.72502,-4.71976 0,-1.95112 -1.0464,-3.74964 -2.72502,-4.73066 z"
           inkscape:connector-curvature="0"
           style="fill:#0d73ff;fill-opacity:1;stroke-width:0.1703144" />
        <path
           id="path6767"
           d="M 846.7159,779.5478 705.01432,697.7969 c -1.67862,-0.9701 -3.77144,-0.9701 -5.45006,0 -1.67862,0.98102 -2.72502,2.77954 -2.72502,4.73066 v 163.50182 c 0,1.95112 1.0464,3.74964 2.72502,4.71978 0.83932,0.49048 1.78762,0.73024 2.72504,0.73024 0.9374,0 1.8857,-0.23976 2.72502,-0.73024 L 846.7159,788.99822 c 1.67862,-0.97012 2.72502,-2.76862 2.72502,-4.71976 0,-1.95112 -1.0464,-3.74964 -2.72502,-4.73066 z"
           inkscape:connector-curvature="0"
           style="fill:none;fill-opacity:0.30158733;stroke:#4652f2;stroke-width:7.63199997;stroke-linecap:round;stroke-miterlimit:4;stroke-dasharray:none;stroke-opacity:0.26984127;paint-order:stroke fill markers" />
        <path
           style="fill:#1c30a9;fill-opacity:0.73412697;stroke-width:0.1703144"
           d="m 702.28794,697.07086 c -0.94284,0 -1.8844,0.23984 -2.72372,0.72488 -1.67862,0.98102 -2.72374,2.78222 -2.72374,4.73334 v 81.2779 h 152.56876 c -0.154,-1.7653 -1.15316,-3.35854 -2.69504,-4.25966 L 705.01528,697.79574 c -0.83932,-0.48504 -1.78446,-0.72488 -2.72734,-0.72488 z"
           id="path6550"
           inkscape:connector-curvature="0" />
        <path
           style="fill:none;fill-opacity:0.30158733;stroke:#b200e9;stroke-width:5.1317358;stroke-linecap:round;stroke-miterlimit:4;stroke-dasharray:none;stroke-opacity:0.24603176;paint-order:stroke fill markers"
           inkscape:connector-curvature="0"
           d="M 846.7159,779.5478 705.01432,697.7969 c -1.67862,-0.9701 -3.77144,-0.9701 -5.45006,0 -1.67862,0.98102 -2.72502,2.77954 -2.72502,4.73066 v 163.50182 c 0,1.95112 1.0464,3.74964 2.72502,4.71978 0.83932,0.49048 1.78762,0.73024 2.72504,0.73024 0.9374,0 1.8857,-0.23976 2.72502,-0.73024 L 846.7159,788.99822 c 1.67862,-0.97012 2.72502,-2.76862 2.72502,-4.71976 0,-1.95112 -1.0464,-3.74964 -2.72502,-4.73066 z"
           id="path6557" />
        <path
           id="path6559"
           d="m 702.28794,697.07086 c -0.94284,0 -1.8844,0.23984 -2.72372,0.72488 -1.67862,0.98102 -2.72374,2.78222 -2.72374,4.73334 v 81.2779 h 152.56876 c -0.154,-1.7653 -1.15316,-3.35854 -2.69504,-4.25966 L 705.01528,697.79574 c -0.83932,-0.48504 -1.78446,-0.72488 -2.72734,-0.72488 z"
           style="fill:none;fill-opacity:0.30158733;stroke:none;stroke-width:5.1317358;stroke-miterlimit:4;stroke-dasharray:none;stroke-opacity:0.23412697"
           inkscape:connector-curvature="0" />
        <path
           inkscape:connector-curvature="0"
           id="path5007"
           d="m 759.88964,591.35142 a 197.99339,197.99339 0 0 0 -197.9934,197.99338 197.99339,197.99339 0 0 0 0.1934,5.44364 829.40946,829.40946 0 0 0 197.80006,24.96728 829.40946,829.40946 0 0 0 197.7108,-24.80368 197.99339,197.99339 0 0 0 0.2826,-5.60724 197.99339,197.99339 0 0 0 -197.9934,-197.99338 z"
           style="opacity:0.46200005;fill:url(#radialGradient6567);fill-opacity:1;stroke:none;stroke-width:62.40295792;stroke-linecap:round;stroke-linejoin:bevel;stroke-miterlimit:4;stroke-dasharray:none;stroke-opacity:1;paint-order:stroke fill markers" />
      </g>
      <g
         transform="matrix(0.92882473,0,0,0.92882473,37.828139,21.071378)"
         id="g6807">
        <circle
           style="opacity:1;fill:#19aeff;fill-opacity:1;stroke:none;stroke-width:14.89659119;stroke-linecap:round;stroke-linejoin:bevel;stroke-miterlimit:4;stroke-dasharray:none;stroke-opacity:1;paint-order:stroke fill markers"
           id="circle930"
           cx="274.06348"
           cy="782.36243"
           r="197.99339" />
        <path
           style="opacity:1;fill:url(#radialGradient5024);fill-opacity:1;stroke:none;stroke-width:3.48344803"
           d="m 205.10938,602.1122 c -0.8413,0.20478 -1.66762,0.44674 -2.50392,0.66406 -15.78204,5.68718 -30.85589,13.43676 -44.78515,23.1289 l 14.23438,19.39454 36.00781,-36.36718 c -0.1164,-0.60614 -1.32394,-3.31094 -2.95312,-6.82032 z m 11.2539,23.08984 -34.28125,33.4922 31.47657,42.95702 27.3828,-26.05078 z m -68.15234,7.82812 c -14.61885,11.5896 -27.7393,25.47488 -38.78906,41.4922 l 18.4375,14.90234 36.54296,-36.47266 z m 26.54297,32.78908 -34.5,33.70702 40.75,32.96094 26.83985,-25.51954 -30.50392,-37.95702 z m -72.25782,19.49608 c -0.49624,0.83098 -0.99878,1.65502 -1.48437,2.4961 -8.12213,14.06794 -14.261318,28.73226 -18.527344,43.66796 l 2.578124,1.32814 0.214844,-0.21094 -0.433594,-0.21484 34.60547,-34.66408 z m 143.29687,0.0704 -25.98046,24.8789 21.77344,29.45704 20.48438,-21.16016 z m -113.30077,21.79688 -33.632814,32.75 48.078124,24.77344 27.92188,-26.47266 z m 82.03515,8.1875 -25.0039,23.92186 29.42578,23.82032 18.86718,-19.5664 -0.21484,-0.31642 -0.32422,0.42188 z m -30.71875,29.45312 -26.41406,25.3086 36.4375,18.8164 c 4.91794,-4.55512 19.97139,-21.11202 20.58985,-21.79688 z"
           id="path5011"
           inkscape:connector-curvature="0" />
        <path
           style="opacity:0.75499998;fill:url(#radialGradient967);fill-opacity:1;stroke:none;stroke-width:62.40295792;stroke-linecap:round;stroke-linejoin:bevel;stroke-miterlimit:4;stroke-dasharray:none;stroke-opacity:1;paint-order:stroke fill markers"
           d="M 268.14094,767.73776 A 829.40946,829.40946 0 0 0 70.370612,792.55634 197.99339,197.99339 0 0 0 268.14094,984.179 197.99339,197.99339 0 0 0 465.80712,792.67036 829.40946,829.40946 0 0 0 268.14094,767.73776 Z"
           id="circle919"
           inkscape:connector-curvature="0" />
        <path
           style="opacity:1;fill:url(#radialGradient985-7);fill-opacity:1;stroke:none;stroke-width:62.40295792;stroke-linecap:round;stroke-linejoin:bevel;stroke-miterlimit:4;stroke-dasharray:none;stroke-opacity:1;paint-order:stroke fill markers"
           d="M 268.08884,588.19222 A 197.99339,197.99339 0 0 0 70.095432,786.1856 a 197.99339,197.99339 0 0 0 0.1934,5.44364 829.40946,829.40946 0 0 0 197.800068,24.96728 829.40946,829.40946 0 0 0 197.7108,-24.80368 197.99339,197.99339 0 0 0 0.2826,-5.60724 197.99339,197.99339 0 0 0 -197.9934,-197.99338 z"
           id="circle915"
           inkscape:connector-curvature="0" />
        <path
           style="opacity:1;fill:#010101;fill-opacity:0.39682539;stroke:none;stroke-width:62.40295792;stroke-linecap:round;stroke-linejoin:bevel;stroke-miterlimit:4;stroke-dasharray:none;stroke-opacity:1;paint-order:stroke fill markers"
           d="M 268.07912,767.73776 A 829.40946,829.40946 0 0 0 72.457992,792.06198 829.40946,829.40946 0 0 0 268.07912,816.59322 829.40946,829.40946 0 0 0 463.71974,792.2651 829.40946,829.40946 0 0 0 268.07912,767.73776 Z"
           id="path940"
           inkscape:connector-curvature="0" />
        <path
           style="color:#000000;font-style:normal;font-variant:normal;font-weight:normal;font-stretch:normal;font-size:medium;line-height:normal;font-family:sans-serif;font-variant-ligatures:normal;font-variant-position:normal;font-variant-caps:normal;font-variant-numeric:normal;font-variant-alternates:normal;font-feature-settings:normal;text-indent:0;text-align:start;text-decoration:none;text-decoration-line:none;text-decoration-style:solid;text-decoration-color:#000000;letter-spacing:normal;word-spacing:normal;text-transform:none;writing-mode:lr-tb;direction:ltr;text-orientation:mixed;dominant-baseline:auto;baseline-shift:baseline;text-anchor:start;white-space:normal;shape-padding:0;clip-rule:nonzero;display:inline;overflow:visible;visibility:visible;opacity:0.75800003;isolation:auto;mix-blend-mode:normal;color-interpolation:sRGB;color-interpolation-filters:linearRGB;solid-color:#000000;solid-opacity:1;vector-effect:none;fill:none;fill-opacity:1;fill-rule:nonzero;stroke:url(#radialGradient979);stroke-width:12;stroke-linecap:round;stroke-linejoin:bevel;stroke-miterlimit:4;stroke-dasharray:none;stroke-dashoffset:0;stroke-opacity:1;paint-order:stroke fill markers;color-rendering:auto;image-rendering:auto;shape-rendering:auto;text-rendering:auto;enable-background:accumulate"
           d="m 370.54984,606.80576 c -97.95078,-56.5519 -223.37661,-22.94414 -279.928548,75.00662 -56.551898,97.95076 -22.94416,223.37664 75.006598,279.92842 97.95081,56.552 223.37665,22.9442 279.92855,-75.00654 56.5519,-97.95076 22.94416,-223.3766 -75.0066,-279.9285 z m -6,10.39232 c 0.51696,0.29846 1.03202,0.59896 1.54516,0.90146 91.14024,53.72712 122.07994,170.81734 69.06914,262.63472 C 381.85486,973.0686 263.96228,1004.6578 171.62789,951.3486 79.293552,898.03934 47.704352,780.14674 101.01361,687.81238 154.32289,595.47804 272.21548,563.88882 364.54984,617.19808 Z"
           id="path926"
           inkscape:connector-curvature="0"
           sodipodi:nodetypes="sscssssssss" />
        <path
           inkscape:connector-curvature="0"
           id="path969"
           d="m 370.54984,606.80576 c -97.95078,-56.5519 -223.37661,-22.94414 -279.928548,75.00662 -56.551898,97.95076 -22.94416,223.37664 75.006598,279.92842 97.95081,56.552 223.37665,22.9442 279.92855,-75.00654 56.5519,-97.95076 22.94416,-223.3766 -75.0066,-279.9285 z m -6,10.39232 c 92.33434,53.30926 123.92356,171.20184 70.6143,263.53618 C 381.85488,973.0686 263.96228,1004.6578 171.62789,951.3486 79.293552,898.03934 47.704352,780.14674 101.01361,687.81238 154.32289,595.47804 272.21548,563.88882 364.54984,617.19808 Z"
           style="color:#000000;font-style:normal;font-variant:normal;font-weight:normal;font-stretch:normal;font-size:medium;line-height:normal;font-family:sans-serif;font-variant-ligatures:normal;font-variant-position:normal;font-variant-caps:normal;font-variant-numeric:normal;font-variant-alternates:normal;font-feature-settings:normal;text-indent:0;text-align:start;text-decoration:none;text-decoration-line:none;text-decoration-style:solid;text-decoration-color:#000000;letter-spacing:normal;word-spacing:normal;text-transform:none;writing-mode:lr-tb;direction:ltr;text-orientation:mixed;dominant-baseline:auto;baseline-shift:baseline;text-anchor:start;white-space:normal;shape-padding:0;clip-rule:nonzero;display:inline;overflow:visible;visibility:visible;opacity:1;isolation:auto;mix-blend-mode:normal;color-interpolation:sRGB;color-interpolation-filters:linearRGB;solid-color:#000000;solid-opacity:1;vector-effect:none;fill:url(#linearGradient928);fill-opacity:1;fill-rule:nonzero;stroke:none;stroke-width:12;stroke-linecap:round;stroke-linejoin:bevel;stroke-miterlimit:4;stroke-dasharray:none;stroke-dashoffset:0;stroke-opacity:0.30566035;paint-order:stroke fill markers;color-rendering:auto;image-rendering:auto;shape-rendering:auto;text-rendering:auto;enable-background:accumulate" />
        <ellipse
           style="opacity:0.594;fill:#ffffff;fill-opacity:1;stroke:none;stroke-width:2.76999998;stroke-linecap:round;stroke-linejoin:bevel;stroke-miterlimit:4;stroke-dasharray:none;stroke-opacity:1;paint-order:stroke fill markers;filter:url(#filter5036)"
           id="path5026"
           cx="-481.91019"
           cy="726.62524"
           rx="21.756836"
           ry="13.49414"
           transform="matrix(1.5551934,-1.2575267,1.2575267,1.5551934,0,-1052.3622)" />
      </g>
      <g
         transform="matrix(0.92882473,0,0,0.92882473,52.810414,6.0890974)"
         id="g6781">
        <path
           style="color:#000000;font-style:normal;font-variant:normal;font-weight:normal;font-stretch:normal;font-size:medium;line-height:normal;font-family:sans-serif;font-variant-ligatures:normal;font-variant-position:normal;font-variant-caps:normal;font-variant-numeric:normal;font-variant-alternates:normal;font-feature-settings:normal;text-indent:0;text-align:start;text-decoration:none;text-decoration-line:none;text-decoration-style:solid;text-decoration-color:#000000;letter-spacing:normal;word-spacing:normal;text-transform:none;writing-mode:lr-tb;direction:ltr;text-orientation:mixed;dominant-baseline:auto;baseline-shift:baseline;text-anchor:start;white-space:normal;shape-padding:0;clip-rule:nonzero;display:inline;overflow:visible;visibility:visible;opacity:1;isolation:auto;mix-blend-mode:normal;color-interpolation:sRGB;color-interpolation-filters:linearRGB;solid-color:#000000;solid-opacity:1;vector-effect:none;fill:none;fill-opacity:1;fill-rule:nonzero;stroke:#050505;stroke-width:4;stroke-linecap:round;stroke-linejoin:bevel;stroke-miterlimit:4;stroke-dasharray:none;stroke-dashoffset:0;stroke-opacity:0.2142857;paint-order:stroke fill markers;color-rendering:auto;image-rendering:auto;shape-rendering:auto;text-rendering:auto;enable-background:accumulate"
           d="m 759.88964,87.55074 c -113.10382,0 -204.92188,91.81806 -204.9219,204.92188 0,113.1038 91.81808,204.92186 204.9219,204.92186 113.1038,0 204.92188,-91.81806 204.92188,-204.92186 0,-113.1038 -91.81808,-204.92188 -204.92188,-204.92188 z m 0,12 c 106.61852,0 192.92188,86.30336 192.92188,192.92188 0,106.61852 -86.30336,192.92186 -192.92188,192.92186 -106.61854,0 -192.9219,-86.30334 -192.9219,-192.92186 2e-5,-106.61852 86.30336,-192.92188 192.9219,-192.92188 z"
           id="path6616"
           inkscape:connector-curvature="0" />
        <circle
           style="opacity:1;fill:#000000;fill-opacity:0.2745098;stroke:none;stroke-width:14.88587379;stroke-linecap:round;stroke-linejoin:bevel;stroke-miterlimit:4;stroke-dasharray:none;stroke-opacity:1;paint-order:stroke fill markers"
           id="circle6618"
           cx="759.88965"
           cy="292.4725"
           r="197.85095" />
        <circle
           r="198.92123"
           cy="292.4725"
           cx="759.88965"
           id="circle6620"
           style="opacity:1;fill:#ffffff;fill-opacity:0.24603176;stroke:none;stroke-width:8;stroke-linecap:round;stroke-linejoin:bevel;stroke-miterlimit:4;stroke-dasharray:none;stroke-opacity:1;paint-order:stroke fill markers" />
        <path
           inkscape:connector-curvature="0"
           id="path6622"
           d="M 862.35058,115.00506 C 764.3998,58.45316 638.97398,92.0609 582.42206,190.01168 c -56.5519,97.95076 -22.94414,223.37658 75.00664,279.92848 97.95076,56.5519 223.37658,22.94416 279.92848,-75.0066 56.5519,-97.95076 22.94416,-223.3766 -75.0066,-279.9285 z m -6,10.39232 c 92.33434,53.30926 123.92356,171.20184 70.6143,263.53618 C 873.65562,481.26792 755.76306,512.85712 663.4287,459.54786 571.09434,406.23858 539.5051,288.34602 592.81436,196.01168 646.12364,103.67734 764.0162,72.0881 856.35058,125.39738 Z"
           style="color:#000000;font-style:normal;font-variant:normal;font-weight:normal;font-stretch:normal;font-size:medium;line-height:normal;font-family:sans-serif;font-variant-ligatures:normal;font-variant-position:normal;font-variant-caps:normal;font-variant-numeric:normal;font-variant-alternates:normal;font-feature-settings:normal;text-indent:0;text-align:start;text-decoration:none;text-decoration-line:none;text-decoration-style:solid;text-decoration-color:#000000;letter-spacing:normal;word-spacing:normal;text-transform:none;writing-mode:lr-tb;direction:ltr;text-orientation:mixed;dominant-baseline:auto;baseline-shift:baseline;text-anchor:start;white-space:normal;shape-padding:0;clip-rule:nonzero;display:inline;overflow:visible;visibility:visible;opacity:1;isolation:auto;mix-blend-mode:normal;color-interpolation:sRGB;color-interpolation-filters:linearRGB;solid-color:#000000;solid-opacity:1;vector-effect:none;fill:url(#linearGradient6636);fill-opacity:1;fill-rule:nonzero;stroke:none;stroke-width:12;stroke-linecap:round;stroke-linejoin:bevel;stroke-miterlimit:4;stroke-dasharray:none;stroke-dashoffset:0;stroke-opacity:1;paint-order:stroke fill markers;color-rendering:auto;image-rendering:auto;shape-rendering:auto;text-rendering:auto;enable-background:accumulate" />
        <circle
           r="156"
           cy="292.4725"
           cx="759.88965"
           id="circle6624"
           style="opacity:1;fill:#c0c6cc;fill-opacity:0.99206346;stroke:none;stroke-width:11.73709965;stroke-linecap:round;stroke-linejoin:bevel;stroke-miterlimit:4;stroke-dasharray:none;stroke-opacity:1;paint-order:stroke fill markers" />
        <path
           style="color:#000000;font-style:normal;font-variant:normal;font-weight:normal;font-stretch:normal;font-size:medium;line-height:normal;font-family:sans-serif;font-variant-ligatures:normal;font-variant-position:normal;font-variant-caps:normal;font-variant-numeric:normal;font-variant-alternates:normal;font-feature-settings:normal;text-indent:0;text-align:start;text-decoration:none;text-decoration-line:none;text-decoration-style:solid;text-decoration-color:#000000;letter-spacing:normal;word-spacing:normal;text-transform:none;writing-mode:lr-tb;direction:ltr;text-orientation:mixed;dominant-baseline:auto;baseline-shift:baseline;text-anchor:start;white-space:normal;shape-padding:0;clip-rule:nonzero;display:inline;overflow:visible;visibility:visible;opacity:1;isolation:auto;mix-blend-mode:normal;color-interpolation:sRGB;color-interpolation-filters:linearRGB;solid-color:#000000;solid-opacity:1;vector-effect:none;fill:#e7e7e7;fill-opacity:0.94444442;fill-rule:nonzero;stroke:none;stroke-width:9.19792843;stroke-linecap:round;stroke-linejoin:bevel;stroke-miterlimit:4;stroke-dasharray:none;stroke-dashoffset:0;stroke-opacity:1;paint-order:stroke fill markers;color-rendering:auto;image-rendering:auto;shape-rendering:auto;text-rendering:auto;enable-background:accumulate"
           d="m 759.88962,135.4012 c -86.6934,0 -157.0714,70.37802 -157.0714,157.07142 0,86.6934 70.378,157.07138 157.0714,157.07138 86.69342,0 157.07142,-70.37798 157.07142,-157.07138 0,-86.6934 -70.378,-157.07142 -157.07142,-157.07142 z m 0,9.19794 c 81.72246,0 147.87348,66.15102 147.87348,147.87348 0,81.72246 -66.15102,147.87346 -147.87348,147.87346 -81.72248,0 -147.87348,-66.151 -147.87346,-147.87346 0,-81.72246 66.15098,-147.87348 147.87346,-147.87348 z"
           id="path6626"
           inkscape:connector-curvature="0" />
        <circle
           style="opacity:1;fill:url(#radialGradient6638);fill-opacity:1;stroke:none;stroke-width:11.73709965;stroke-linecap:round;stroke-linejoin:bevel;stroke-miterlimit:4;stroke-dasharray:none;stroke-opacity:1;paint-order:stroke fill markers"
           id="circle6628"
           cx="761.14008"
           cy="292.4725"
           r="156" />
        <circle
           r="156"
           cy="292.4725"
           cx="761.14008"
           id="circle6630"
           style="opacity:1;fill:url(#radialGradient6640);fill-opacity:1;stroke:none;stroke-width:11.73709965;stroke-linecap:round;stroke-linejoin:bevel;stroke-miterlimit:4;stroke-dasharray:none;stroke-opacity:1;paint-order:stroke fill markers" />
        <path
           style="fill:#dc0000;fill-rule:evenodd;stroke:none;stroke-width:7.43511295"
           inkscape:connector-curvature="0"
           d="m 766.75684,380.00259 c 2.70414,-2.07373 5.71366,-4.46681 8.95264,-7.14922 9.25138,-7.66172 18.50265,-16.11724 27.148,-25.13179 19.30366,-20.12803 32.79981,-40.06797 37.88691,-59.00278 1.43951,-5.35804 2.18191,-10.58836 2.18191,-15.6751 0,-50.4928 -46.09779,-72.08373 -81.82182,-34.04088 -35.5938,-38.04286 -81.75066,-15.11725 -81.75066,34.04088 0,5.08674 0.7424,10.31706 2.18191,15.6751 5.08711,18.93481 18.58325,38.87475 37.88691,59.00278 8.64535,9.01455 17.89662,17.47007 27.148,25.13179 3.23898,2.68241 6.2485,5.07549 8.95264,7.14922 1.63098,1.25076 2.80392,2.1215 3.44281,2.58208 l 2.17397,1.56722 2.17398,-1.56722 c 0.63889,-0.46061 1.81183,-1.33132 3.4428,-2.58208 z"
           id="common_heart_like_favourite_favorite_glyph"
           sketch:type="MSShapeGroup" />
        <path
           inkscape:connector-curvature="0"
           id="path6634"
           d="M 759.88964,99.55074 A 198.92123,198.92123 0 0 0 561.46776,288.47262 721.17492,721.17492 0 0 0 759.88964,316.92574 721.17492,721.17492 0 0 0 958.46778,288.76168 198.92123,198.92123 0 0 0 759.88964,99.55074 Z"
           style="opacity:0.772;fill:url(#radialGradient6642);fill-opacity:1;stroke:none;stroke-width:29.00343704;stroke-linecap:round;stroke-linejoin:bevel;stroke-miterlimit:4;stroke-dasharray:none;stroke-opacity:1;paint-order:stroke fill markers" />
        <path
           sketch:type="MSShapeGroup"
           id="path4965"
           d="m 766.75684,380.00259 c 2.70414,-2.07373 5.71366,-4.46681 8.95264,-7.14922 9.25138,-7.66172 18.50265,-16.11724 27.148,-25.13179 19.30366,-20.12803 32.79981,-40.06797 37.88691,-59.00278 1.43951,-5.35804 2.18191,-10.58836 2.18191,-15.6751 0,-50.4928 -46.09779,-72.08373 -81.82182,-34.04088 -35.5938,-38.04286 -81.75066,-15.11725 -81.75066,34.04088 0,5.08674 0.7424,10.31706 2.18191,15.6751 5.08711,18.93481 18.58325,38.87475 37.88691,59.00278 8.64535,9.01455 17.89662,17.47007 27.148,25.13179 3.23898,2.68241 6.2485,5.07549 8.95264,7.14922 1.63098,1.25076 2.80392,2.1215 3.44281,2.58208 l 2.17397,1.56722 2.17398,-1.56722 c 0.63889,-0.46061 1.81183,-1.33132 3.4428,-2.58208 z"
           inkscape:connector-curvature="0"
           style="fill:#dc0000;fill-opacity:0.34920636;fill-rule:evenodd;stroke:none;stroke-width:7.43511295" />
        <path
           style="fill:none;fill-opacity:0.34920636;fill-rule:evenodd;stroke:#ffe5e5;stroke-width:0.80698168;stroke-miterlimit:4;stroke-dasharray:none;stroke-opacity:0.77380958;filter:url(#filter6597)"
           inkscape:connector-curvature="0"
           d="m 11.75544,22.523598 c 0.363698,-0.278911 0.76847,-0.600772 1.204102,-0.961549 1.244283,-1.030478 2.488551,-2.167719 3.651324,-3.380149 2.596283,-2.707158 4.411474,-5.389019 5.095674,-7.935694 C 21.900149,9.5255667 22,8.8221043 22,8.1379533 22,1.3468251 15.799988,-1.5570893 10.995215,3.5595589 6.2079569,-1.5570894 0,1.5263346 0,8.1379533 c 0,0.684151 0.09985071,1.3876134 0.29346042,2.1082527 0.6842,2.546675 2.49939078,5.228536 5.09567358,7.935694 1.1627733,1.21243 2.4070415,2.349671 3.6513236,3.380149 0.435632,0.360777 0.840404,0.682638 1.2041024,0.961549 0.219362,0.168223 0.377119,0.285335 0.463047,0.347281 L 11,23.081666 11.292393,22.870879 c 0.08593,-0.06195 0.243686,-0.179058 0.463047,-0.347281 z"
           id="path6569"
           sketch:type="MSShapeGroup"
           transform="matrix(6.877622,0,0,6.877622,686.87506,215.15624)" />
      </g>
      <g
         transform="matrix(0.92882473,0,0,0.92882473,37.828143,6.0890974)"
         id="g6819">
        <path
           inkscape:connector-curvature="0"
           id="path6614"
           d="m 268.08886,87.55074 c -113.1038,0 -204.921856,91.81806 -204.921876,204.92188 0,113.1038 91.818076,204.92186 204.921876,204.92186 113.1038,0 204.92188,-91.81806 204.92188,-204.92186 0,-113.1038 -91.81808,-204.92188 -204.92188,-204.92188 z m 0,12 c 106.61852,0 192.92188,86.30336 192.92188,192.92188 0,106.61852 -86.30336,192.92186 -192.92188,192.92186 -106.61852,0 -192.921876,-86.30334 -192.921876,-192.92186 2e-5,-106.61852 86.303356,-192.92188 192.921876,-192.92188 z"
           style="color:#000000;font-style:normal;font-variant:normal;font-weight:normal;font-stretch:normal;font-size:medium;line-height:normal;font-family:sans-serif;font-variant-ligatures:normal;font-variant-position:normal;font-variant-caps:normal;font-variant-numeric:normal;font-variant-alternates:normal;font-feature-settings:normal;text-indent:0;text-align:start;text-decoration:none;text-decoration-line:none;text-decoration-style:solid;text-decoration-color:#000000;letter-spacing:normal;word-spacing:normal;text-transform:none;writing-mode:lr-tb;direction:ltr;text-orientation:mixed;dominant-baseline:auto;baseline-shift:baseline;text-anchor:start;white-space:normal;shape-padding:0;clip-rule:nonzero;display:inline;overflow:visible;visibility:visible;opacity:1;isolation:auto;mix-blend-mode:normal;color-interpolation:sRGB;color-interpolation-filters:linearRGB;solid-color:#000000;solid-opacity:1;vector-effect:none;fill:none;fill-opacity:1;fill-rule:nonzero;stroke:#050505;stroke-width:4;stroke-linecap:round;stroke-linejoin:bevel;stroke-miterlimit:4;stroke-dasharray:none;stroke-dashoffset:0;stroke-opacity:0.2142857;paint-order:stroke fill markers;color-rendering:auto;image-rendering:auto;shape-rendering:auto;text-rendering:auto;enable-background:accumulate" />
        <circle
           r="197.85095"
           cy="292.4725"
           cx="268.08887"
           id="circle6612"
           style="opacity:1;fill:#000000;fill-opacity:0.2745098;stroke:none;stroke-width:14.88587379;stroke-linecap:round;stroke-linejoin:bevel;stroke-miterlimit:4;stroke-dasharray:none;stroke-opacity:1;paint-order:stroke fill markers" />
        <circle
           style="opacity:1;fill:#ffffff;fill-opacity:0.24603176;stroke:none;stroke-width:8;stroke-linecap:round;stroke-linejoin:bevel;stroke-miterlimit:4;stroke-dasharray:none;stroke-opacity:1;paint-order:stroke fill markers"
           id="path6538"
           cx="268.08887"
           cy="292.4725"
           r="198.92123" />
        <path
           style="color:#000000;font-style:normal;font-variant:normal;font-weight:normal;font-stretch:normal;font-size:medium;line-height:normal;font-family:sans-serif;font-variant-ligatures:normal;font-variant-position:normal;font-variant-caps:normal;font-variant-numeric:normal;font-variant-alternates:normal;font-feature-settings:normal;text-indent:0;text-align:start;text-decoration:none;text-decoration-line:none;text-decoration-style:solid;text-decoration-color:#000000;letter-spacing:normal;word-spacing:normal;text-transform:none;writing-mode:lr-tb;direction:ltr;text-orientation:mixed;dominant-baseline:auto;baseline-shift:baseline;text-anchor:start;white-space:normal;shape-padding:0;clip-rule:nonzero;display:inline;overflow:visible;visibility:visible;opacity:1;isolation:auto;mix-blend-mode:normal;color-interpolation:sRGB;color-interpolation-filters:linearRGB;solid-color:#000000;solid-opacity:1;vector-effect:none;fill:url(#linearGradient6560);fill-opacity:1;fill-rule:nonzero;stroke:none;stroke-width:12;stroke-linecap:round;stroke-linejoin:bevel;stroke-miterlimit:4;stroke-dasharray:none;stroke-dashoffset:0;stroke-opacity:1;paint-order:stroke fill markers;color-rendering:auto;image-rendering:auto;shape-rendering:auto;text-rendering:auto;enable-background:accumulate"
           d="m 268.08886,87.55074 c -113.1038,0 -204.921856,91.81806 -204.921876,204.92188 0,113.1038 91.818076,204.92186 204.921876,204.92186 113.1038,0 204.92188,-91.81806 204.92188,-204.92186 0,-113.1038 -91.81808,-204.92188 -204.92188,-204.92188 z m 0,12 c 106.61852,0 192.92188,86.30336 192.92188,192.92188 0,106.61852 -86.30336,192.92186 -192.92188,192.92186 -106.61852,0 -192.921876,-86.30334 -192.921876,-192.92186 2e-5,-106.61852 86.303356,-192.92188 192.921876,-192.92188 z"
           id="circle6549"
           inkscape:connector-curvature="0" />
        <circle
           style="opacity:1;fill:#ff0202;fill-opacity:0.99206346;stroke:none;stroke-width:11.73709965;stroke-linecap:round;stroke-linejoin:bevel;stroke-miterlimit:4;stroke-dasharray:none;stroke-opacity:1;paint-order:stroke fill markers"
           id="path6594"
           cx="268.08887"
           cy="292.4725"
           r="156" />
        <path
           inkscape:connector-curvature="0"
           id="path6580"
           d="m 268.08884,135.4012 c -86.69338,0 -157.07138,70.37802 -157.07138,157.07142 0,86.6934 70.378,157.07138 157.07138,157.07138 86.69342,0 157.07142,-70.37798 157.07142,-157.07138 0,-86.6934 -70.378,-157.07142 -157.07142,-157.07142 z m 0,9.19794 c 81.72246,0 147.87348,66.15102 147.87348,147.87348 0,81.72246 -66.15102,147.87346 -147.87348,147.87346 -81.72246,0 -147.87346,-66.151 -147.87344,-147.87346 0,-81.72246 66.15098,-147.87348 147.87344,-147.87348 z"
           style="color:#000000;font-style:normal;font-variant:normal;font-weight:normal;font-stretch:normal;font-size:medium;line-height:normal;font-family:sans-serif;font-variant-ligatures:normal;font-variant-position:normal;font-variant-caps:normal;font-variant-numeric:normal;font-variant-alternates:normal;font-feature-settings:normal;text-indent:0;text-align:start;text-decoration:none;text-decoration-line:none;text-decoration-style:solid;text-decoration-color:#000000;letter-spacing:normal;word-spacing:normal;text-transform:none;writing-mode:lr-tb;direction:ltr;text-orientation:mixed;dominant-baseline:auto;baseline-shift:baseline;text-anchor:start;white-space:normal;shape-padding:0;clip-rule:nonzero;display:inline;overflow:visible;visibility:visible;opacity:1;isolation:auto;mix-blend-mode:normal;color-interpolation:sRGB;color-interpolation-filters:linearRGB;solid-color:#000000;solid-opacity:1;vector-effect:none;fill:#e7e7e7;fill-opacity:0.94444442;fill-rule:nonzero;stroke:none;stroke-width:9.19792843;stroke-linecap:round;stroke-linejoin:bevel;stroke-miterlimit:4;stroke-dasharray:none;stroke-dashoffset:0;stroke-opacity:1;paint-order:stroke fill markers;color-rendering:auto;image-rendering:auto;shape-rendering:auto;text-rendering:auto;enable-background:accumulate" />
        <circle
           style="opacity:1;fill:url(#radialGradient6610);fill-opacity:1;stroke:none;stroke-width:11.73709965;stroke-linecap:round;stroke-linejoin:bevel;stroke-miterlimit:4;stroke-dasharray:none;stroke-opacity:1;paint-order:stroke fill markers"
           id="circle6608"
           cx="269.33929"
           cy="292.4725"
           r="156" />
        <path
           style="fill:#000000;fill-opacity:0.73412697;fill-rule:evenodd;stroke:none;stroke-width:8.59967613"
           inkscape:connector-curvature="0"
           d="m 306.25795,363.61383 18.03241,17.95598 6.01988,-5.99436 -16.6293,-16.55882 c 19.98603,-13.99475 33.05463,-37.193 33.05463,-63.44358 0,-42.74523 -34.65185,-77.39708 -77.39708,-77.39708 -42.74523,0 -77.39708,34.65185 -77.39708,77.39708 0,25.97897 12.79955,48.96843 32.43647,63.00622 l -17.06853,16.99618 6.01988,5.99436 18.40877,-18.33075 c 11.1325,6.19933 23.95405,9.73108 37.60049,9.73108 13.36902,0 25.94635,-3.38962 36.91946,-9.35631 z M 269.33849,295.50212 V 243.975 h 8.55907 v 51.52712 h 0.0406 v 8.63701 h -0.0404 v 0.0336 h -8.55926 v -0.0335 h -34.39871 v -8.63707 z m -31.92609,-78.74482 -40.65982,31.76693 -5.28896,-6.76956 c -5.82894,-7.46071 -4.53283,-18.29625 2.94463,-24.13828 l 13.58155,-10.61107 c 7.45195,-5.8221 18.28245,-4.50676 24.13364,2.98241 l 2.64448,3.38478 z m 104.512,31.76693 -40.65982,-31.76693 5.28896,-6.76957 c 5.82894,-7.4607 16.65618,-8.82444 24.13363,-2.98241 l 13.58156,10.61107 c 7.45194,5.8221 8.79581,16.6491 2.94463,24.13828 l -2.64448,3.38478 z"
           id="editor_alarm_clock_glyph"
           sketch:type="MSShapeGroup" />
        <path
           style="opacity:1;fill:url(#radialGradient6719);fill-opacity:1;stroke:none;stroke-width:3.98632169"
           d="m 222.2407,105.037 c -20.30576,4.9426 -39.34831,13.09146 -56.56249,23.88672 l 18.73828,25.53516 41.20313,-41.6172 c -0.1332,-0.69364 -1.51454,-3.78868 -3.37892,-7.80468 z m 12.87892,26.42188 -39.23047,38.32812 36.02343,49.16016 31.33594,-29.8125 z m -80.97266,5.29296 c -17.87335,13.09488 -33.41136,29.18414 -45.85938,47.54688 l 25.55079,20.65624 41.82031,-41.73828 z m 33.35547,41.1875 -39.47656,38.57422 46.63281,37.71874 30.71484,-29.20312 -34.91015,-43.4375 z m -87.1211,19.0664 c -9.60074,16.84196 -16.730224,35.27598 -20.914058,54.8086 l 5.398438,2.78516 0.246094,-0.2422 -0.496094,-0.24608 39.60156,-39.66798 z m 168.41797,3.32422 -29.73046,28.47266 24.91796,33.70704 23.4375,-24.21484 z m -129.65625,24.94532 -38.48828,37.47656 55.01953,28.35156 31.95313,-30.29688 z m 93.87891,9.36718 -28.61718,27.37892 33.67578,27.2578 21.58984,-22.39062 -0.2461,-0.36328 -0.3711,0.48438 z m -35.15625,33.70704 -30.22656,28.96094 41.69921,21.53516 c 5.6279,-5.2127 22.85476,-24.16158 23.5625,-24.94532 z"
           id="path4158-0-8"
           inkscape:connector-curvature="0"
           sodipodi:nodetypes="cccccccccccccccccccccccccccccccccccccccccccccccccc" />
        <path
           sketch:type="MSShapeGroup"
           id="path6721"
           d="m 303.56505,358.13524 16.71707,16.64621 5.58077,-5.55711 -15.41631,-15.35096 c 18.52819,-12.97393 30.64352,-34.48002 30.64352,-58.81579 0,-39.62725 -32.12423,-71.75148 -71.75148,-71.75148 -39.62725,0 -71.75148,32.12423 -71.75148,71.75148 0,24.08397 11.86591,45.39651 30.07045,58.41033 l -15.82349,15.75642 5.58076,5.55711 17.06598,-16.99364 c 10.32046,5.74713 22.20676,9.02126 34.85778,9.02126 12.39384,0 24.05374,-3.14237 34.22643,-8.67383 z m -34.22643,-63.14341 v -47.76856 h 7.93474 v 47.76856 h 0.0376 v 8.007 h -0.0375 v 0.0312 h -7.93492 v -0.0311 h -31.88955 v -8.00705 z m -29.59729,-73.00091 -37.69396,29.44975 -4.90316,-6.27577 c -5.40376,-6.9165 -4.20219,-16.96166 2.72983,-22.37755 l 12.59087,-9.83706 c 6.90838,-5.39742 16.94887,-4.17803 22.37325,2.76486 l 2.45158,3.13788 z m 96.88854,29.44975 -37.69395,-29.44975 4.90316,-6.27577 c 5.40376,-6.91649 15.44122,-8.18076 22.37324,-2.76486 l 12.59088,9.83706 c 6.90837,5.39741 8.15421,15.43466 2.72984,22.37755 l -2.45159,3.13788 z"
           inkscape:connector-curvature="0"
           style="fill:none;fill-opacity:0.73412697;fill-rule:evenodd;stroke:#ffffff;stroke-width:2.78116989;stroke-miterlimit:4;stroke-dasharray:none;stroke-opacity:0.49603176;filter:url(#filter6763)" />
      </g>
    </g>
    <ellipse
       style="opacity:1;fill:#000000;fill-opacity:0.36904764;stroke:none;stroke-width:10.25055027;stroke-linecap:round;stroke-linejoin:bevel;stroke-miterlimit:4;stroke-dasharray:none;stroke-opacity:0.26984127;paint-order:stroke fill markers;filter:url(#filter7655)"
       id="ellipse7663"
       cx="277.95816"
       cy="489.90228"
       rx="123.79501"
       ry="13.455979"
       transform="matrix(0.89326585,0,0,1.0373213,504.80297,463.44026)" />
    <rect
       style="stroke:none;fill:none"
       width="268.39489"
       height="149.22132"
       x="-361.99708"
       y="533.64539"
       id="rect7564" />
    <path
       d="m 954.49641,941.91324 c -2.70142,-0.006 -5.37613,0.97591 -7.31471,2.96013 l -32.25133,33.00295 c -10.89692,13.4945 7.41581,11.92427 15.26618,15.81105 2.81605,2.87847 -10.79378,5.00308 -7.97773,7.88393 2.81605,2.8785 17.02828,5.5456 19.84913,8.4242 2.81606,2.8784 -5.76397,5.9319 -2.94792,8.8104 2.81605,2.8784 9.3291,0.1513 10.54867,6.7966 0.86906,4.7486 11.73699,2.0408 17.05221,-1.8484 2.81603,-2.8808 -5.387,-2.6099 -2.57094,-5.4884 7.00291,-7.1613 13.52342,-2.602 15.91934,-9.7777 1.18357,-3.5459 -10.30905,-5.4664 -7.4882,-8.345 8.10245,-4.73176 36.10709,-7.81205 22.81907,-21.10006 l -33.43011,-34.16957 c -2.04422,-1.96261 -4.77224,-2.95472 -7.47366,-2.96013 z m 0.28978,3.14063 c 1.92867,0.01 3.85069,0.73192 5.23471,2.13394 l 12.75949,12.95876 c 1.20996,1.23638 1.19326,3.6323 0.51624,4.32131 l -6.33566,-5.06778 -1.24585,7.50462 -5.29332,-2.79413 -8.47709,5.35568 -2.80632,-11.29044 -4.55436,7.87925 h -6.96211 c -2.83767,0 -3.17152,-3.60114 -0.59314,-6.17952 4.50375,-4.86148 9.67259,-9.81647 12.48144,-12.68775 1.41163,-1.44284 3.34728,-2.14414 5.27597,-2.13394 z m -15.32293,50.41951 c 0.86186,0.53536 13.89786,3.1836 17.08361,3.71175 1.10435,0.23286 0.3217,1.37087 -1.20035,2.13907 -3.43305,0.9123 -20.08453,-5.85082 -15.88326,-5.85082 z m 51.17769,9.06932 c -2.78396,-0.071 -5.65592,1.2758 -6.4135,3.9453 0,1.6372 12.06366,2.71 12.06366,-0.3869 -0.80575,-2.3317 -3.19372,-3.4964 -5.65016,-3.5584 z m -55.80143,7.0929 c -3.78077,-0.035 -8.21649,2.7279 -4.95524,5.5527 2.85685,2.4703 7.26964,-0.6146 8.59243,-4.0621 -0.77851,-1.0344 -2.15776,-1.4769 -3.63719,-1.4906 z m 47.87528,0.2157 c -3.68271,3.3034 0.41289,6.6549 4.04279,4.5206 0.80904,-0.8211 -0.0216,-3.6996 -4.04279,-4.5206 z"
       id="path2-6"
       inkscape:connector-curvature="0"
       style="opacity:0.42000002;fill:#000000;fill-opacity:0.38492063;stroke-width:0.24007271" />
  </g>
</svg>
