<?xml version="1.0" encoding="UTF-8" standalone="no"?>
<!-- Created with Inkscape (http://www.inkscape.org/) -->

<svg
   xmlns:dc="http://purl.org/dc/elements/1.1/"
   xmlns:cc="http://creativecommons.org/ns#"
   xmlns:rdf="http://www.w3.org/1999/02/22-rdf-syntax-ns#"
   xmlns:svg="http://www.w3.org/2000/svg"
   xmlns="http://www.w3.org/2000/svg"
   xmlns:xlink="http://www.w3.org/1999/xlink"
   xmlns:sodipodi="http://sodipodi.sourceforge.net/DTD/sodipodi-0.dtd"
   xmlns:inkscape="http://www.inkscape.org/namespaces/inkscape"
   width="512"
   height="512"
   viewBox="0 0 512.00002 512.00002"
   id="svg2"
   version="1.1"
   inkscape:version="0.92.2 2405546, 2018-03-11"
   sodipodi:docname="mela.svg"
   inkscape:export-filename="/home/ilnanny/mela.png"
   inkscape:export-xdpi="192"
   inkscape:export-ydpi="192">
  <title
     id="title20642">Mela</title>
  <defs
     id="defs4">
    <inkscape:path-effect
       effect="powerstroke"
       id="path-effect20452"
       is_visible="true"
       offset_points="0.03491268,4.4900794"
       sort_points="true"
       interpolator_type="CubicBezierJohan"
       interpolator_beta="0.2"
       start_linecap_type="zerowidth"
       linejoin_type="extrp_arc"
       miter_limit="4"
       end_linecap_type="zerowidth" />
    <inkscape:path-effect
       effect="powerstroke"
       id="path-effect20448"
       is_visible="true"
       offset_points="0.14241119,8.0703557"
       sort_points="true"
       interpolator_type="CubicBezierJohan"
       interpolator_beta="0.2"
       start_linecap_type="zerowidth"
       linejoin_type="extrp_arc"
       miter_limit="4"
       end_linecap_type="zerowidth" />
    <inkscape:path-effect
       end_linecap_type="zerowidth"
       miter_limit="4"
       linejoin_type="extrp_arc"
       start_linecap_type="zerowidth"
       interpolator_beta="0.2"
       interpolator_type="CubicBezierJohan"
       sort_points="true"
       offset_points="0.21628159,2.1859909"
       is_visible="true"
       id="path-effect19193"
       effect="powerstroke" />
    <inkscape:path-effect
       effect="powerstroke"
       id="path-effect19189"
       is_visible="true"
       offset_points="0.21628159,2.7192852"
       sort_points="true"
       interpolator_type="CubicBezierJohan"
       interpolator_beta="0.2"
       start_linecap_type="zerowidth"
       linejoin_type="extrp_arc"
       miter_limit="4"
       end_linecap_type="zerowidth" />
    <inkscape:path-effect
       end_linecap_type="zerowidth"
       miter_limit="4"
       linejoin_type="extrp_arc"
       start_linecap_type="zerowidth"
       interpolator_beta="0.2"
       interpolator_type="CubicBezierJohan"
       sort_points="true"
       offset_points="0.21628159,2.2667771"
       is_visible="true"
       id="path-effect19185"
       effect="powerstroke" />
    <inkscape:path-effect
       effect="powerstroke"
       id="path-effect19181"
       is_visible="true"
       offset_points="0.21628159,2.1859909"
       sort_points="true"
       interpolator_type="CubicBezierJohan"
       interpolator_beta="0.2"
       start_linecap_type="zerowidth"
       linejoin_type="extrp_arc"
       miter_limit="4"
       end_linecap_type="zerowidth" />
    <inkscape:path-effect
       end_linecap_type="zerowidth"
       miter_limit="4"
       linejoin_type="extrp_arc"
       start_linecap_type="zerowidth"
       interpolator_beta="0.2"
       interpolator_type="CubicBezierJohan"
       sort_points="true"
       offset_points="0.21628159,2.7192852"
       is_visible="true"
       id="path-effect19177"
       effect="powerstroke" />
    <inkscape:path-effect
       effect="powerstroke"
       id="path-effect19173"
       is_visible="true"
       offset_points="0.21628159,2.2667771"
       sort_points="true"
       interpolator_type="CubicBezierJohan"
       interpolator_beta="0.2"
       start_linecap_type="zerowidth"
       linejoin_type="extrp_arc"
       miter_limit="4"
       end_linecap_type="zerowidth" />
    <inkscape:path-effect
       effect="powerstroke"
       id="path-effect19169"
       is_visible="true"
       offset_points="2.5465322e-16,-3.0800694"
       sort_points="true"
       interpolator_type="CubicBezierJohan"
       interpolator_beta="0.2"
       start_linecap_type="zerowidth"
       linejoin_type="extrp_arc"
       miter_limit="4"
       end_linecap_type="zerowidth" />
    <radialGradient
       inkscape:collect="always"
       xlink:href="#linearGradient19079"
       id="radialGradient19081"
       cx="226.84457"
       cy="427.97894"
       fx="226.84457"
       fy="427.97894"
       r="235.72667"
       gradientTransform="matrix(0.82304028,0,0,-0.75720956,-24.0486,1062.2406)"
       gradientUnits="userSpaceOnUse" />
    <linearGradient
       inkscape:collect="always"
       id="linearGradient19079">
      <stop
         style="stop-color:#fffffd;stop-opacity:0.86037737"
         offset="0"
         id="stop19075" />
      <stop
         style="stop-color:#fffffd;stop-opacity:0;"
         offset="1"
         id="stop19077" />
    </linearGradient>
    <filter
       inkscape:collect="always"
       style="color-interpolation-filters:sRGB"
       id="filter19141"
       x="-0.1419422"
       width="1.2838844"
       y="-0.060867764"
       height="1.1217355">
      <feGaussianBlur
         inkscape:collect="always"
         stdDeviation="4.8780321"
         id="feGaussianBlur19143" />
    </filter>
    <filter
       inkscape:collect="always"
       style="color-interpolation-filters:sRGB"
       id="filter19159"
       x="-0.45086664"
       width="1.9017333"
       y="-0.050730843"
       height="1.1014616">
      <feGaussianBlur
         inkscape:collect="always"
         stdDeviation="6.4869617"
         id="feGaussianBlur19161" />
    </filter>
    <inkscape:path-effect
       effect="powerstroke"
       id="path-effect19149"
       is_visible="true"
       offset_points="0.14025913,5.0748273"
       sort_points="true"
       interpolator_type="CubicBezierJohan"
       interpolator_beta="0.2"
       start_linecap_type="zerowidth"
       linejoin_type="extrp_arc"
       miter_limit="4"
       end_linecap_type="zerowidth" />
    <filter
       inkscape:collect="always"
       style="color-interpolation-filters:sRGB"
       id="filter19111"
       x="-0.36391303"
       width="1.7278261"
       y="-0.35617021"
       height="1.7123404">
      <feGaussianBlur
         inkscape:collect="always"
         stdDeviation="5.9625255"
         id="feGaussianBlur19113" />
    </filter>
    <linearGradient
       inkscape:collect="always"
       xlink:href="#linearGradient1186"
       id="linearGradient19196"
       gradientUnits="userSpaceOnUse"
       gradientTransform="matrix(11.102979,-92.615553,30.044015,3.0743369,249.86716,707.80736)"
       x1="0.44345096"
       y1="0.018139996"
       x2="1.19256"
       y2="0.019848304"
       spreadMethod="pad" />
    <linearGradient
       x1="0"
       y1="0"
       x2="1"
       y2="0"
       gradientUnits="userSpaceOnUse"
       gradientTransform="matrix(13.4902,121.799,36.5037,-4.04307,281.566,499.518)"
       spreadMethod="pad"
       id="linearGradient1186">
      <stop
         style="stop-opacity:1;stop-color:#85a92d"
         offset="0"
         id="stop1180" />
      <stop
         style="stop-opacity:1;stop-color:#456c21"
         offset="0.807692"
         id="stop1182" />
      <stop
         style="stop-opacity:1;stop-color:#415a19"
         offset="1"
         id="stop1184" />
    </linearGradient>
    <linearGradient
       x1="0"
       y1="0"
       x2="0.68906647"
       y2="-0.43498901"
       gradientUnits="userSpaceOnUse"
       gradientTransform="matrix(23.585207,-2.8988982,2.9659244,20.597093,252.80499,643.58449)"
       spreadMethod="pad"
       id="linearGradient1168">
      <stop
         style="stop-opacity:1;stop-color:#bae041"
         offset="0"
         id="stop1162" />
      <stop
         style="stop-opacity:1;stop-color:#456627"
         offset="0.576923"
         id="stop1164" />
      <stop
         style="stop-opacity:1;stop-color:#273019"
         offset="1"
         id="stop1166" />
    </linearGradient>
    <linearGradient
       gradientTransform="matrix(0.82304028,0,0,-0.82304028,-24.0486,1080.7763)"
       inkscape:collect="always"
       xlink:href="#linearGradient1456"
       id="linearGradient19067"
       x1="94.852196"
       y1="352.69821"
       x2="381.95007"
       y2="55.159"
       gradientUnits="userSpaceOnUse" />
    <linearGradient
       x1="0"
       y1="0"
       x2="1"
       y2="0"
       gradientUnits="userSpaceOnUse"
       gradientTransform="matrix(-133.303,8.6967,2.04444,31.3372,609.977,595.378)"
       spreadMethod="pad"
       id="linearGradient1456">
      <stop
         style="stop-opacity:1;stop-color:#e7cc00"
         offset="0"
         id="stop1450" />
      <stop
         id="stop19069"
         offset="0.31863293"
         style="stop-color:#cfc216;stop-opacity:1" />
      <stop
         style="stop-color:#e1c640;stop-opacity:1"
         offset="0.53106308"
         id="stop19071" />
      <stop
         style="stop-opacity:1;stop-color:#c3ba01"
         offset="0.807692"
         id="stop1452" />
      <stop
         style="stop-opacity:1;stop-color:#c2c200"
         offset="1"
         id="stop1454" />
    </linearGradient>
    <filter
       inkscape:collect="always"
       style="color-interpolation-filters:sRGB"
       id="filter20490"
       x="-0.3036"
       width="1.6072"
       y="-0.1518"
       height="1.3036">
      <feGaussianBlur
         inkscape:collect="always"
         stdDeviation="0.86472617"
         id="feGaussianBlur20492" />
    </filter>
    <filter
       inkscape:collect="always"
       style="color-interpolation-filters:sRGB"
       id="filter20539"
       x="-0.072707263"
       width="1.1454145"
       y="-0.65073"
       height="2.30146">
      <feGaussianBlur
         inkscape:collect="always"
         stdDeviation="7.4137464"
         id="feGaussianBlur20541" />
    </filter>
    <filter
       inkscape:collect="always"
       style="color-interpolation-filters:sRGB"
       id="filter20594"
       x="-0.050368596"
       width="1.1007372"
       y="-0.12793015"
       height="1.2558603">
      <feGaussianBlur
         inkscape:collect="always"
         stdDeviation="4.2001769"
         id="feGaussianBlur20596" />
    </filter>
    <filter
       inkscape:collect="always"
       style="color-interpolation-filters:sRGB"
       id="filter20638"
       x="-0.098463976"
       width="1.196928"
       y="-0.066604597"
       height="1.1332092">
      <feGaussianBlur
         inkscape:collect="always"
         stdDeviation="5.8013038"
         id="feGaussianBlur20640" />
    </filter>
    <filter
       inkscape:collect="always"
       style="color-interpolation-filters:sRGB"
       id="filter1029"
       x="-0.011594842"
       width="1.0231897"
       y="-0.012505985"
       height="1.025012">
      <feGaussianBlur
         inkscape:collect="always"
         stdDeviation="1.8860972"
         id="feGaussianBlur1031" />
    </filter>
  </defs>
  <sodipodi:namedview
     id="base"
     pagecolor="#ffffff"
     bordercolor="#666666"
     borderopacity="1.0"
     inkscape:pageopacity="0.0"
     inkscape:pageshadow="2"
     inkscape:zoom="0.7314453"
     inkscape:cx="-198.92124"
     inkscape:cy="38.82824"
     inkscape:document-units="px"
     inkscape:current-layer="layer1"
     showgrid="false"
     units="px"
     inkscape:showpageshadow="false"
     inkscape:window-width="1920"
     inkscape:window-height="991"
     inkscape:window-x="0"
     inkscape:window-y="25"
     inkscape:window-maximized="1"
     inkscape:snap-global="false" />
  <metadata
     id="metadata7">
    <rdf:RDF>
      <cc:Work
         rdf:about="">
        <dc:format>image/svg+xml</dc:format>
        <dc:type
           rdf:resource="http://purl.org/dc/dcmitype/StillImage" />
        <dc:title>Mela</dc:title>
        <cc:license
           rdf:resource="http://creativecommons.org/licenses/by-sa/4.0/" />
        <dc:date>2019</dc:date>
        <dc:creator>
          <cc:Agent>
            <dc:title>Cristian Pozzessere  &lt; ilnanny &gt;</dc:title>
          </cc:Agent>
        </dc:creator>
        <dc:subject>
          <rdf:Bag>
            <rdf:li>ilnanny</rdf:li>
          </rdf:Bag>
        </dc:subject>
      </cc:Work>
      <cc:License
         rdf:about="http://creativecommons.org/licenses/by-sa/4.0/">
        <cc:permits
           rdf:resource="http://creativecommons.org/ns#Reproduction" />
        <cc:permits
           rdf:resource="http://creativecommons.org/ns#Distribution" />
        <cc:requires
           rdf:resource="http://creativecommons.org/ns#Notice" />
        <cc:requires
           rdf:resource="http://creativecommons.org/ns#Attribution" />
        <cc:permits
           rdf:resource="http://creativecommons.org/ns#DerivativeWorks" />
        <cc:requires
           rdf:resource="http://creativecommons.org/ns#ShareAlike" />
      </cc:License>
    </rdf:RDF>
  </metadata>
  <g
     inkscape:label="Livello 1"
     inkscape:groupmode="layer"
     id="layer1"
     transform="translate(0,-540.3622)">
    <path
       style="opacity:1;fill:#eff4f1;fill-opacity:1;stroke:#060500;stroke-width:1.99600005;stroke-linecap:round;stroke-linejoin:bevel;stroke-miterlimit:4;stroke-dasharray:none;stroke-opacity:0.62301588;paint-order:stroke fill markers"
       d="M 1.49804,541.86025 H 510.50196 V 1050.8642 H 1.49804 Z"
       id="rect20543"
       inkscape:connector-curvature="0" />
    <ellipse
       style="opacity:0.43800001;fill:#3e3221;fill-opacity:1;stroke:none;stroke-width:4.4000001;stroke-linecap:round;stroke-linejoin:bevel;stroke-miterlimit:4;stroke-dasharray:none;stroke-opacity:0.99622641;paint-order:stroke fill markers;filter:url(#filter20539)"
       id="path20509"
       cx="222.16289"
       cy="1042.7921"
       rx="122.36048"
       ry="13.671562"
       transform="matrix(0.8584513,0,0,0.99046349,47.766911,-5.4867493)" />
    <path
       d="m 228.14914,655.28547 c 0,0 36.60145,6.25806 41.55202,-12.24316 0,0 -3.52589,8.08073 4.00163,13.22178 0,0 -15.13161,0.68739 -40.00058,4.25215 l -5.55307,-5.23077"
       style="fill:url(#linearGradient1168);fill-opacity:1;fill-rule:nonzero;stroke:none;stroke-width:0.07910987"
       id="path1170"
       inkscape:connector-curvature="0" />
    <path
       style="fill:#4e391a;fill-opacity:1;fill-rule:nonzero;stroke:none;stroke-width:0.96967739px;stroke-linecap:butt;stroke-linejoin:miter;stroke-opacity:1"
       d="m 215.555,638.71421 v 0 c -0.14981,0.0976 -1.5302,1.02347 -3.16029,2.58487 -1.49724,1.43415 -2.85608,3.11682 -2.62499,3.52031 1.33288,2.32727 5.21669,8.12842 10.19711,17.18511 2.66091,4.83875 5.46723,10.37401 7.48884,15.47155 0.94887,2.3926 1.68095,4.5793 2.15638,6.49615 0.47824,1.92822 0.62241,3.27843 0.62828,4.26254 -0.94002,8.41929 -1.49053,13.05402 -1.71251,16.46844 -0.19975,3.07246 0.0364,3.82661 0.0364,3.82661 0,0 0.7913,-0.28012 2.61815,-2.88017 1.82994,-2.60445 4.549,-7.40516 7.6371,-15.27009 0.82313,-2.37357 1.01938,-5.0582 0.90074,-7.6977 -0.12269,-2.72942 -0.59323,-5.64082 -1.24934,-8.53949 -1.3905,-6.14324 -3.72018,-12.67709 -5.86713,-18.06824 -3.93062,-9.87011 -7.85007,-17.56936 -8.82788,-19.27658 -0.25178,-0.43962 -2.41736,-0.15631 -4.41712,0.42328 -2.17008,0.62896 -3.65244,1.41095 -3.80378,1.49341 z"
       id="path20446"
       inkscape:connector-curvature="0"
       inkscape:path-effect="#path-effect20448"
       inkscape:original-d="m 215.555,638.71421 c 0,0 22.28918,37.33593 18.97492,50.59293 -3.31424,13.257 -5.96566,19.22265 -5.96566,19.22265 v 0"
       sodipodi:nodetypes="cscc" />
    <path
       style="opacity:1;fill:url(#linearGradient19067);fill-opacity:1;stroke:none;stroke-width:2.46912098;stroke-linecap:round;stroke-linejoin:bevel;stroke-miterlimit:4;stroke-dasharray:none;stroke-opacity:1;paint-order:stroke fill markers"
       d="m 414.0244,844.42365 c 0,40.80178 -14.4911,89.71051 -46.79397,121.18291 -71.98041,70.13044 -114.30289,63.83574 -169.06104,59.55284 -95.26902,-7.4512 -172.170076,-87.74551 -172.17007,-183.30541 0,-95.56004 65.474714,-171.31356 161.03469,-171.31356 18.37239,0 20.10255,4.751 42.84102,5.68958 21.94343,-2.52052 64.45229,-2.32751 106.06698,15.13181 47.85798,20.07866 78.08239,93.60426 78.08239,153.06183 z"
       id="path19054"
       inkscape:connector-curvature="0"
       sodipodi:nodetypes="ssssscss" />
    <path
       style="fill:url(#linearGradient19196);fill-opacity:1;fill-rule:nonzero;stroke:none;stroke-width:0.07910985"
       d="m 383.75718,555.74654 c -4.22521,4.3924 -20.94311,1.77114 -18.85891,5.00445 3.50329,-6.07587 -12.69413,-2.99194 -14.53137,0.59725 -8.37066,1.63403 -14.64348,7.96382 -23.17939,9.34479 -9.71952,2.11092 -13.17066,8.85336 -22.24035,11.85611 -3.58341,3.40085 -6.64396,4.33895 -10.41257,8.27335 -3.1533,-1.25193 -1.22238,5.32762 -5.68728,2.75061 -1.85095,8.75801 -12.27795,15.97575 -16.00308,22.55009 -3.84745,6.44514 -8.06662,10.69346 -8.35182,18.89978 -6.50798,9.73443 -2.58889,24.94149 9.95668,28.42378 7.05577,3.18308 11.33023,8.11989 18.23341,9.57415 6.88337,4.04002 16.38497,5.75398 24.42416,7.93207 8.30734,0.56946 18.2513,6.67161 25.60195,1.39734 4.45046,3.44332 -0.68684,-5.34412 4.17227,-0.58277 6.02236,2.11619 12.8426,-0.0857 16.79592,-0.4796 7.87979,4.03699 18.21501,3.5167 26.95299,-0.86889 9.13324,-3.07257 18.55569,-3.18794 27.87463,-6.44958 8.46121,-1.9676 7.44502,-9.32418 15.38141,-8.90964 12.16158,-6.83398 22.07916,-16.60564 29.86038,-27.49553 2.75692,-9.57187 7.8918,-17.89195 11.94257,-27.06064 2.57654,-6.91805 14.56255,-13.20547 15.09696,-18.33705 -9.62445,2.21506 -18.39542,-2.17561 -26.78952,-5.99381 -6.49646,-6.32074 -14.13644,-9.46244 -22.90569,-12.37269 -4.77478,-5.15713 -13.92827,-8.28122 -21.30483,-11.83943 -5.80019,-0.39886 -8.19366,0.60751 -12.53234,-3.08102 -7.64618,-1.01422 -17.00266,0.61323 -23.49618,-3.13312 z"
       id="path1188"
       inkscape:connector-curvature="0" />
    <g
       id="g9692"
       transform="matrix(0.92021876,0,0,-0.83997786,-777.19625,1035.549)"
       style="fill:#040400;fill-opacity:0.51587301;filter:url(#filter1029)">
      <path
         d="m 1096.882,368.81681 c -0.01,-1.269 1.018,-2.303 2.285,-2.309 1.269,-0.006 2.303,1.017 2.309,2.285 0,1.268 -1.017,2.302 -2.286,2.309 -1.267,0.006 -2.301,-1.018 -2.308,-2.285"
         style="fill:#040400;fill-opacity:0.51587301;fill-rule:nonzero;stroke:none;stroke-width:0.1"
         id="path5640"
         inkscape:connector-curvature="0" />
      <path
         d="m 1211.68,364.79181 c 0,-1.268 1.017,-2.302 2.285,-2.308 1.269,-0.007 2.301,1.016 2.308,2.284 0.01,1.269 -1.015,2.301 -2.284,2.308 -1.267,0.007 -2.303,-1.016 -2.309,-2.284"
         style="fill:#040400;fill-opacity:0.51587301;fill-rule:nonzero;stroke:none;stroke-width:0.1"
         id="path5648"
         inkscape:connector-curvature="0" />
      <path
         d="m 1229.9,334.84581 c -0.01,-1.267 1.018,-2.301 2.286,-2.308 1.267,-0.007 2.3,1.017 2.306,2.285 0.01,1.269 -1.015,2.301 -2.284,2.308 -1.268,0.007 -2.302,-1.016 -2.308,-2.285"
         style="fill:#040400;fill-opacity:0.51587301;fill-rule:nonzero;stroke:none;stroke-width:0.1"
         id="path5650"
         inkscape:connector-curvature="0" />
      <path
         d="m 1251.594,310.62481 c -0.01,-1.269 1.015,-2.303 2.285,-2.308 1.269,-0.006 2.3,1.016 2.307,2.284 0.01,1.269 -1.016,2.303 -2.284,2.31 -1.268,0.006 -2.304,-1.018 -2.308,-2.286"
         style="fill:#040400;fill-opacity:0.51587301;fill-rule:nonzero;stroke:none;stroke-width:0.1"
         id="path5652"
         inkscape:connector-curvature="0" />
      <path
         d="m 1195.539,351.09481 c -0.01,-1.268 1.014,-2.302 2.283,-2.309 1.268,-0.006 2.301,1.017 2.308,2.286 0.01,1.268 -1.017,2.302 -2.284,2.307 -1.269,0.007 -2.302,-1.016 -2.307,-2.284"
         style="fill:#040400;fill-opacity:0.51587301;fill-rule:nonzero;stroke:none;stroke-width:0.1"
         id="path5654"
         inkscape:connector-curvature="0" />
      <path
         d="m 1171.42,350.06781 c -0.01,-1.267 1.016,-2.3 2.285,-2.307 1.268,-0.005 2.302,1.017 2.308,2.283 0.01,1.269 -1.018,2.303 -2.286,2.31 -1.268,0.006 -2.3,-1.018 -2.307,-2.286"
         style="fill:#040400;fill-opacity:0.51587301;fill-rule:nonzero;stroke:none;stroke-width:0.1"
         id="path5656"
         inkscape:connector-curvature="0" />
      <path
         d="m 1152,369.68581 c -0.01,-1.268 1.017,-2.302 2.285,-2.308 1.268,-0.007 2.302,1.017 2.308,2.284 0,1.268 -1.018,2.302 -2.286,2.309 -1.268,0.006 -2.3,-1.017 -2.307,-2.285"
         style="fill:#040400;fill-opacity:0.51587301;fill-rule:nonzero;stroke:none;stroke-width:0.1"
         id="path5658"
         inkscape:connector-curvature="0" />
      <path
         d="m 1130.248,382.42581 c -0.01,-1.268 1.016,-2.301 2.285,-2.308 1.269,-0.006 2.302,1.016 2.309,2.285 0.01,1.268 -1.019,2.301 -2.285,2.307 -1.269,0.007 -2.301,-1.017 -2.309,-2.284"
         style="fill:#040400;fill-opacity:0.51587301;fill-rule:nonzero;stroke:none;stroke-width:0.1"
         id="path5660"
         inkscape:connector-curvature="0" />
      <path
         d="m 1128.943,351.43181 c 0,-1.269 1.017,-2.303 2.287,-2.308 1.267,-0.007 2.301,1.016 2.307,2.285 0.01,1.267 -1.018,2.3 -2.286,2.308 -1.269,0.005 -2.301,-1.017 -2.308,-2.285"
         style="fill:#040400;fill-opacity:0.51587301;fill-rule:nonzero;stroke:none;stroke-width:0.1"
         id="path5662"
         inkscape:connector-curvature="0" />
      <path
         d="m 1156.32,315.69981 c -0.01,-1.27 1.017,-2.301 2.285,-2.308 1.267,-0.006 2.301,1.017 2.309,2.285 0,1.268 -1.018,2.3 -2.285,2.307 -1.27,0.007 -2.302,-1.017 -2.309,-2.284"
         style="fill:#040400;fill-opacity:0.51587301;fill-rule:nonzero;stroke:none;stroke-width:0.1"
         id="path5664"
         inkscape:connector-curvature="0" />
      <path
         d="m 1195.41,325.83481 c -0.01,-1.268 1.015,-2.301 2.284,-2.308 1.268,-0.006 2.301,1.017 2.308,2.286 0.01,1.268 -1.016,2.3 -2.284,2.307 -1.269,0.005 -2.301,-1.016 -2.308,-2.285"
         style="fill:#040400;fill-opacity:0.51587301;fill-rule:nonzero;stroke:none;stroke-width:0.1"
         id="path5666"
         inkscape:connector-curvature="0" />
      <path
         d="m 1259.311,247.43581 c -0.01,-1.268 1.016,-2.302 2.285,-2.307 1.268,-0.007 2.3,1.016 2.306,2.286 0.01,1.264 -1.014,2.3 -2.283,2.306 -1.269,0.006 -2.301,-1.017 -2.308,-2.285"
         style="fill:#040400;fill-opacity:0.51587301;fill-rule:nonzero;stroke:none;stroke-width:0.1"
         id="path5668"
         inkscape:connector-curvature="0" />
      <path
         d="m 1232.932,253.31081 c -0.01,-1.268 1.015,-2.303 2.284,-2.309 1.268,-0.006 2.303,1.016 2.309,2.286 0.01,1.266 -1.017,2.302 -2.286,2.306 -1.267,0.006 -2.3,-1.017 -2.307,-2.283"
         style="fill:#040400;fill-opacity:0.51587301;fill-rule:nonzero;stroke:none;stroke-width:0.1"
         id="path5670"
         inkscape:connector-curvature="0" />
      <path
         d="m 1274.12,224.39781 c -0.01,-1.269 1.016,-2.302 2.284,-2.308 1.27,-0.009 2.303,1.016 2.309,2.285 0.01,1.266 -1.016,2.3 -2.284,2.307 -1.269,0.007 -2.301,-1.017 -2.309,-2.284"
         style="fill:#040400;fill-opacity:0.51587301;fill-rule:nonzero;stroke:none;stroke-width:0.1"
         id="path5672"
         inkscape:connector-curvature="0" />
      <path
         d="m 1182.443,259.30681 c -0.01,-1.268 1.016,-2.301 2.284,-2.308 1.27,-0.006 2.301,1.017 2.309,2.285 0.01,1.266 -1.016,2.301 -2.285,2.308 -1.269,0.005 -2.302,-1.017 -2.308,-2.285"
         style="fill:#040400;fill-opacity:0.51587301;fill-rule:nonzero;stroke:none;stroke-width:0.1"
         id="path5674"
         inkscape:connector-curvature="0" />
      <path
         d="m 1217.084,298.16881 c -0.01,-1.268 1.018,-2.301 2.285,-2.307 1.27,-0.008 2.301,1.015 2.309,2.285 0.01,1.268 -1.017,2.301 -2.285,2.308 -1.269,0.006 -2.302,-1.017 -2.309,-2.286"
         style="fill:#040400;fill-opacity:0.51587301;fill-rule:nonzero;stroke:none;stroke-width:0.1"
         id="path5676"
         inkscape:connector-curvature="0" />
      <path
         d="m 1226.328,309.60381 c -0.01,-1.268 1.017,-2.302 2.285,-2.307 1.268,-0.007 2.302,1.016 2.307,2.284 0.01,1.268 -1.015,2.303 -2.284,2.308 -1.269,0.006 -2.302,-1.016 -2.308,-2.285"
         style="fill:#040400;fill-opacity:0.51587301;fill-rule:nonzero;stroke:none;stroke-width:0.1"
         id="path5678"
         inkscape:connector-curvature="0" />
      <path
         d="m 1132.086,291.70981 c -0.01,-1.269 1.018,-2.301 2.285,-2.307 1.268,-0.008 2.3,1.015 2.308,2.283 0.01,1.269 -1.016,2.302 -2.284,2.309 -1.268,0.007 -2.302,-1.016 -2.309,-2.285"
         style="fill:#040400;fill-opacity:0.51587301;fill-rule:nonzero;stroke:none;stroke-width:0.1"
         id="path5680"
         inkscape:connector-curvature="0" />
      <path
         d="m 1100.113,326.31881 c -0.01,-1.27 1.016,-2.304 2.283,-2.31 1.269,-0.007 2.303,1.018 2.31,2.285 0.01,1.269 -1.018,2.3 -2.285,2.308 -1.269,0.005 -2.303,-1.016 -2.308,-2.283"
         style="fill:#040400;fill-opacity:0.51587301;fill-rule:nonzero;stroke:none;stroke-width:0.1"
         id="path5682"
         inkscape:connector-curvature="0" />
      <path
         d="m 1046.463,388.58981 c -0.01,-1.268 1.016,-2.301 2.285,-2.307 1.268,-0.007 2.3,1.016 2.306,2.284 0.01,1.268 -1.015,2.301 -2.283,2.308 -1.269,0.006 -2.302,-1.017 -2.308,-2.285"
         style="fill:#040400;fill-opacity:0.51587301;fill-rule:nonzero;stroke:none;stroke-width:0.1"
         id="path5686"
         inkscape:connector-curvature="0" />
      <path
         d="m 1018.907,388.72881 c 0,-1.268 1.016,-2.301 2.284,-2.307 1.268,-0.007 2.304,1.016 2.309,2.284 0.01,1.268 -1.017,2.302 -2.285,2.308 -1.269,0.006 -2.301,-1.016 -2.308,-2.285"
         style="fill:#040400;fill-opacity:0.51587301;fill-rule:nonzero;stroke:none;stroke-width:0.1"
         id="path5688"
         inkscape:connector-curvature="0" />
      <path
         d="m 1007.386,380.75081 c -0.01,-1.269 1.015,-2.302 2.283,-2.308 1.269,-0.007 2.303,1.016 2.31,2.285 0,1.268 -1.02,2.301 -2.288,2.308 -1.268,0.006 -2.299,-1.018 -2.305,-2.285"
         style="fill:#040400;fill-opacity:0.51587301;fill-rule:nonzero;stroke:none;stroke-width:0.1"
         id="path5690"
         inkscape:connector-curvature="0" />
      <path
         d="m 983.33802,393.50181 c -0.006,-1.268 1.014,-2.301 2.283,-2.308 1.268,-0.007 2.303,1.017 2.309,2.285 0.008,1.268 -1.017,2.301 -2.285,2.307 -1.269,0.007 -2.3,-1.016 -2.307,-2.284"
         style="fill:#040400;fill-opacity:0.51587301;fill-rule:nonzero;stroke:none;stroke-width:0.1"
         id="path5692"
         inkscape:connector-curvature="0" />
      <path
         d="m 948.63902,393.62481 c -0.006,-1.269 1.017,-2.302 2.285,-2.309 1.269,-0.005 2.302,1.018 2.307,2.286 0.007,1.268 -1.016,2.301 -2.285,2.307 -1.268,0.006 -2.301,-1.016 -2.307,-2.284"
         style="fill:#040400;fill-opacity:0.51587301;fill-rule:nonzero;stroke:none;stroke-width:0.1"
         id="path5694"
         inkscape:connector-curvature="0" />
      <path
         d="m 917.65402,346.75781 c -0.006,-1.267 1.017,-2.299 2.286,-2.306 1.267,-0.007 2.301,1.015 2.307,2.283 0.006,1.269 -1.016,2.303 -2.283,2.309 -1.269,0.007 -2.304,-1.018 -2.31,-2.286"
         style="fill:#040400;fill-opacity:0.51587301;fill-rule:nonzero;stroke:none;stroke-width:0.1"
         id="path5696"
         inkscape:connector-curvature="0" />
      <path
         d="m 900.33402,327.32681 c -0.006,-1.267 1.016,-2.301 2.284,-2.308 1.269,-0.006 2.302,1.017 2.308,2.286 0.006,1.269 -1.016,2.3 -2.284,2.308 -1.269,0.005 -2.303,-1.017 -2.308,-2.286"
         style="fill:#040400;fill-opacity:0.51587301;fill-rule:nonzero;stroke:none;stroke-width:0.1"
         id="path5698"
         inkscape:connector-curvature="0" />
      <path
         d="m 895.42902,265.35081 c -0.007,-1.271 1.015,-2.303 2.284,-2.308 1.268,-0.005 2.301,1.015 2.307,2.284 0.007,1.268 -1.016,2.302 -2.284,2.308 -1.269,0.006 -2.301,-1.015 -2.307,-2.284"
         style="fill:#040400;fill-opacity:0.51587301;fill-rule:nonzero;stroke:none;stroke-width:0.1"
         id="path5700"
         inkscape:connector-curvature="0" />
      <path
         d="m 963.28502,287.97181 c -0.008,-1.267 1.017,-2.304 2.285,-2.309 1.268,-0.006 2.301,1.018 2.307,2.287 0.006,1.265 -1.015,2.299 -2.283,2.306 -1.269,0.006 -2.304,-1.017 -2.309,-2.284"
         style="fill:#040400;fill-opacity:0.51587301;fill-rule:nonzero;stroke:none;stroke-width:0.1"
         id="path5702"
         inkscape:connector-curvature="0" />
      <path
         d="m 1024.241,308.32981 c 0,-1.269 1.018,-2.301 2.286,-2.308 1.267,-0.007 2.301,1.017 2.307,2.285 0.01,1.269 -1.016,2.301 -2.285,2.309 -1.268,0.005 -2.301,-1.018 -2.308,-2.286"
         style="fill:#040400;fill-opacity:0.51587301;fill-rule:nonzero;stroke:none;stroke-width:0.1"
         id="path5704"
         inkscape:connector-curvature="0" />
      <path
         d="m 1073.502,286.26481 c -0.01,-1.266 1.017,-2.302 2.285,-2.309 1.269,-0.007 2.301,1.018 2.307,2.286 0.01,1.269 -1.015,2.3 -2.283,2.307 -1.268,0.008 -2.303,-1.015 -2.309,-2.284"
         style="fill:#040400;fill-opacity:0.51587301;fill-rule:nonzero;stroke:none;stroke-width:0.1"
         id="path5706"
         inkscape:connector-curvature="0" />
      <path
         d="m 1103.168,249.37381 c -0.01,-1.268 1.016,-2.303 2.285,-2.31 1.268,-0.004 2.301,1.019 2.307,2.287 0.01,1.267 -1.016,2.299 -2.283,2.306 -1.269,0.008 -2.303,-1.015 -2.309,-2.283"
         style="fill:#040400;fill-opacity:0.51587301;fill-rule:nonzero;stroke:none;stroke-width:0.1"
         id="path5708"
         inkscape:connector-curvature="0" />
      <path
         d="m 1162.838,242.18381 c -0.01,-1.269 1.014,-2.302 2.283,-2.307 1.268,-0.007 2.303,1.014 2.311,2.283 0,1.267 -1.019,2.303 -2.286,2.309 -1.27,0.004 -2.301,-1.019 -2.308,-2.285"
         style="fill:#040400;fill-opacity:0.51587301;fill-rule:nonzero;stroke:none;stroke-width:0.1"
         id="path5710"
         inkscape:connector-curvature="0" />
      <path
         d="m 1082.455,240.29281 c -0.01,-1.268 1.017,-2.301 2.285,-2.307 1.268,-0.007 2.301,1.016 2.308,2.285 0.01,1.265 -1.017,2.302 -2.285,2.308 -1.267,0.005 -2.302,-1.019 -2.308,-2.286"
         style="fill:#040400;fill-opacity:0.51587301;fill-rule:nonzero;stroke:none;stroke-width:0.1"
         id="path5712"
         inkscape:connector-curvature="0" />
      <path
         d="m 1075.369,201.28981 c -0.01,-1.267 1.015,-2.302 2.283,-2.308 1.269,-0.007 2.303,1.017 2.31,2.284 0.01,1.269 -1.018,2.305 -2.286,2.309 -1.269,0.006 -2.3,-1.016 -2.307,-2.285"
         style="fill:#040400;fill-opacity:0.51587301;fill-rule:nonzero;stroke:none;stroke-width:0.1"
         id="path5714"
         inkscape:connector-curvature="0" />
      <path
         d="m 1147.784,216.99881 c -0.01,-1.269 1.016,-2.302 2.285,-2.308 1.268,-0.006 2.3,1.015 2.306,2.284 0.01,1.27 -1.014,2.302 -2.282,2.309 -1.269,0.006 -2.305,-1.017 -2.309,-2.285"
         style="fill:#040400;fill-opacity:0.51587301;fill-rule:nonzero;stroke:none;stroke-width:0.1"
         id="path5716"
         inkscape:connector-curvature="0" />
      <path
         d="m 995.10202,222.36381 c -0.006,-1.27 1.017,-2.301 2.285,-2.308 1.267,-0.008 2.302,1.015 2.308,2.284 0.007,1.268 -1.018,2.302 -2.284,2.31 -1.269,0.005 -2.302,-1.019 -2.309,-2.286"
         style="fill:#040400;fill-opacity:0.51587301;fill-rule:nonzero;stroke:none;stroke-width:0.1"
         id="path5718"
         inkscape:connector-curvature="0" />
      <path
         d="m 1110.973,203.40881 c -0.01,-1.269 1.017,-2.304 2.285,-2.31 1.267,-0.007 2.301,1.018 2.307,2.286 0.01,1.266 -1.016,2.3 -2.284,2.307 -1.267,0.005 -2.302,-1.018 -2.308,-2.283"
         style="fill:#040400;fill-opacity:0.51587301;fill-rule:nonzero;stroke:none;stroke-width:0.1"
         id="path5720"
         inkscape:connector-curvature="0" />
      <path
         d="m 1038.97,269.21681 c -0.01,-1.269 1.017,-2.3 2.284,-2.307 1.269,-0.008 2.302,1.017 2.309,2.285 0.01,1.268 -1.017,2.301 -2.285,2.307 -1.268,0.005 -2.302,-1.016 -2.308,-2.285"
         style="fill:#040400;fill-opacity:0.51587301;fill-rule:nonzero;stroke:none;stroke-width:0.1"
         id="path5722"
         inkscape:connector-curvature="0" />
      <path
         d="m 1017.004,239.47481 c -0.01,-1.269 1.016,-2.3 2.285,-2.307 1.268,-0.007 2.302,1.015 2.308,2.284 0.01,1.269 -1.017,2.302 -2.285,2.308 -1.269,0.006 -2.301,-1.017 -2.308,-2.285"
         style="fill:#040400;fill-opacity:0.51587301;fill-rule:nonzero;stroke:none;stroke-width:0.1"
         id="path5724"
         inkscape:connector-curvature="0" />
      <path
         d="m 981.52302,261.47081 c -0.007,-1.269 1.015,-2.303 2.284,-2.31 1.268,-0.005 2.301,1.018 2.307,2.286 0.007,1.27 -1.016,2.301 -2.284,2.307 -1.269,0.008 -2.301,-1.014 -2.307,-2.283"
         style="fill:#040400;fill-opacity:0.51587301;fill-rule:nonzero;stroke:none;stroke-width:0.1"
         id="path5726"
         inkscape:connector-curvature="0" />
      <path
         d="m 971.09002,242.00381 c -0.007,-1.267 1.016,-2.302 2.285,-2.309 1.269,-0.005 2.301,1.018 2.307,2.287 0.007,1.268 -1.016,2.299 -2.284,2.307 -1.268,0.006 -2.302,-1.017 -2.308,-2.285"
         style="fill:#040400;fill-opacity:0.51587301;fill-rule:nonzero;stroke:none;stroke-width:0.1"
         id="path5728"
         inkscape:connector-curvature="0" />
      <path
         d="m 931.05502,272.05781 c -0.005,-1.268 1.017,-2.3 2.285,-2.308 1.268,-0.003 2.301,1.017 2.308,2.285 0.005,1.269 -1.017,2.303 -2.285,2.309 -1.268,0.006 -2.302,-1.017 -2.308,-2.286"
         style="fill:#040400;fill-opacity:0.51587301;fill-rule:nonzero;stroke:none;stroke-width:0.1"
         id="path5730"
         inkscape:connector-curvature="0" />
      <path
         d="m 920.79302,285.88681 c -0.008,-1.267 1.014,-2.299 2.283,-2.306 1.268,-0.005 2.303,1.016 2.308,2.284 0.007,1.268 -1.018,2.303 -2.286,2.309 -1.268,0.007 -2.3,-1.017 -2.305,-2.287"
         style="fill:#040400;fill-opacity:0.51587301;fill-rule:nonzero;stroke:none;stroke-width:0.1"
         id="path5732"
         inkscape:connector-curvature="0" />
      <path
         d="m 924.05702,250.27981 c -0.006,-1.27 1.016,-2.303 2.284,-2.31 1.268,-0.007 2.301,1.02 2.308,2.287 0.005,1.269 -1.017,2.3 -2.285,2.307 -1.268,0.005 -2.301,-1.016 -2.307,-2.284"
         style="fill:#040400;fill-opacity:0.51587301;fill-rule:nonzero;stroke:none;stroke-width:0.1"
         id="path5734"
         inkscape:connector-curvature="0" />
      <path
         d="m 934.29102,230.70581 c -0.007,-1.264 1.016,-2.299 2.286,-2.307 1.268,-0.006 2.299,1.019 2.306,2.285 0.006,1.27 -1.015,2.305 -2.283,2.309 -1.269,0.007 -2.304,-1.018 -2.309,-2.287"
         style="fill:#040400;fill-opacity:0.51587301;fill-rule:nonzero;stroke:none;stroke-width:0.1"
         id="path5736"
         inkscape:connector-curvature="0" />
      <path
         d="m 911.27502,220.49081 c -0.006,-1.267 1.016,-2.301 2.285,-2.309 1.268,-0.007 2.302,1.019 2.308,2.285 0.007,1.269 -1.016,2.301 -2.285,2.309 -1.269,0.008 -2.301,-1.018 -2.308,-2.285"
         style="fill:#040400;fill-opacity:0.51587301;fill-rule:nonzero;stroke:none;stroke-width:0.1"
         id="path5738"
         inkscape:connector-curvature="0" />
      <path
         d="m 888.31252,220.60781 c -0.007,-1.268 1.0176,-2.304 2.2855,-2.309 1.268,-0.006 2.3,1.018 2.307,2.285 0.006,1.266 -1.0163,2.302 -2.2835,2.308 -1.2684,0.005 -2.3035,-1.017 -2.309,-2.284"
         style="fill:#040400;fill-opacity:0.51587301;fill-rule:nonzero;stroke:none;stroke-width:0.1"
         id="path5740"
         inkscape:connector-curvature="0" />
      <path
         d="m 919.20902,199.78381 c -0.006,-1.269 1.014,-2.301 2.284,-2.308 1.268,-0.007 2.302,1.017 2.309,2.284 0.007,1.269 -1.018,2.301 -2.286,2.307 -1.269,0.008 -2.3,-1.015 -2.307,-2.283"
         style="fill:#040400;fill-opacity:0.51587301;fill-rule:nonzero;stroke:none;stroke-width:0.1"
         id="path5742"
         inkscape:connector-curvature="0" />
      <path
         d="m 900.71002,174.61681 c -0.006,-1.269 1.017,-2.301 2.285,-2.307 1.268,-0.008 2.301,1.016 2.306,2.285 0.007,1.269 -1.015,2.3 -2.283,2.307 -1.268,0.008 -2.301,-1.019 -2.308,-2.285"
         style="fill:#040400;fill-opacity:0.51587301;fill-rule:nonzero;stroke:none;stroke-width:0.1"
         id="path5744"
         inkscape:connector-curvature="0" />
      <path
         d="m 929.43802,179.06281 c -0.007,-1.266 1.016,-2.299 2.284,-2.307 1.268,-0.006 2.301,1.018 2.307,2.284 0.006,1.268 -1.015,2.302 -2.283,2.31 -1.269,0.006 -2.303,-1.019 -2.308,-2.287"
         style="fill:#040400;fill-opacity:0.51587301;fill-rule:nonzero;stroke:none;stroke-width:0.1"
         id="path5746"
         inkscape:connector-curvature="0" />
      <path
         d="m 918.98802,156.15381 c -0.005,-1.269 1.016,-2.303 2.284,-2.307 1.268,-0.007 2.302,1.017 2.309,2.284 0.005,1.267 -1.017,2.301 -2.286,2.306 -1.268,0.007 -2.301,-1.015 -2.307,-2.283"
         style="fill:#040400;fill-opacity:0.51587301;fill-rule:nonzero;stroke:none;stroke-width:0.1"
         id="path5748"
         inkscape:connector-curvature="0" />
      <path
         d="m 951.09402,147.95481 c -0.005,-1.268 1.018,-2.303 2.286,-2.31 1.269,-0.004 2.301,1.019 2.309,2.287 0.005,1.268 -1.017,2.299 -2.285,2.306 -1.269,0.005 -2.303,-1.015 -2.31,-2.283"
         style="fill:#040400;fill-opacity:0.51587301;fill-rule:nonzero;stroke:none;stroke-width:0.1"
         id="path5750"
         inkscape:connector-curvature="0" />
      <path
         d="m 967.26102,166.24281 c -0.005,-1.269 1.018,-2.3 2.287,-2.308 1.267,-0.006 2.3,1.017 2.306,2.285 0.007,1.269 -1.016,2.303 -2.283,2.308 -1.268,0.007 -2.303,-1.018 -2.31,-2.285"
         style="fill:#040400;fill-opacity:0.51587301;fill-rule:nonzero;stroke:none;stroke-width:0.1"
         id="path5752"
         inkscape:connector-curvature="0" />
      <path
         d="m 983.36502,171.90281 c -0.006,-1.267 1.017,-2.302 2.285,-2.31 1.268,-0.003 2.301,1.019 2.309,2.288 0.005,1.267 -1.018,2.301 -2.286,2.306 -1.267,0.007 -2.301,-1.015 -2.308,-2.284"
         style="fill:#040400;fill-opacity:0.51587301;fill-rule:nonzero;stroke:none;stroke-width:0.1"
         id="path5754"
         inkscape:connector-curvature="0" />
      <path
         d="m 995.95502,163.80381 c -0.008,-1.268 1.017,-2.305 2.285,-2.311 1.267,-0.005 2.29998,1.019 2.30698,2.288 0.01,1.267 -1.01598,2.299 -2.28298,2.305 -1.269,0.006 -2.304,-1.015 -2.309,-2.282"
         style="fill:#040400;fill-opacity:0.51587301;fill-rule:nonzero;stroke:none;stroke-width:0.1"
         id="path5756"
         inkscape:connector-curvature="0" />
      <path
         d="m 1027.071,186.60781 c -0.01,-1.268 1.016,-2.303 2.285,-2.309 1.268,-0.005 2.301,1.017 2.307,2.285 0.01,1.269 -1.017,2.303 -2.285,2.308 -1.269,0.007 -2.301,-1.015 -2.307,-2.284"
         style="fill:#040400;fill-opacity:0.51587301;fill-rule:nonzero;stroke:none;stroke-width:0.1"
         id="path5758"
         inkscape:connector-curvature="0" />
      <path
         d="m 1046.589,186.50881 c 0,-1.268 1.016,-2.301 2.284,-2.307 1.268,-0.007 2.304,1.015 2.309,2.284 0.01,1.27 -1.017,2.302 -2.286,2.308 -1.267,0.006 -2.3,-1.016 -2.307,-2.285"
         style="fill:#040400;fill-opacity:0.51587301;fill-rule:nonzero;stroke:none;stroke-width:0.1"
         id="path5760"
         inkscape:connector-curvature="0" />
      <path
         d="m 1091.327,178.24581 c -0.01,-1.269 1.016,-2.3 2.284,-2.308 1.268,-0.007 2.303,1.018 2.309,2.284 0.01,1.268 -1.017,2.302 -2.285,2.31 -1.269,0.007 -2.301,-1.019 -2.308,-2.286"
         style="fill:#040400;fill-opacity:0.51587301;fill-rule:nonzero;stroke:none;stroke-width:0.1"
         id="path5762"
         inkscape:connector-curvature="0" />
      <path
         d="m 1122.327,178.08781 c -0.01,-1.265 1.018,-2.3 2.284,-2.307 1.268,-0.006 2.301,1.018 2.308,2.284 0.01,1.269 -1.016,2.303 -2.284,2.309 -1.267,0.007 -2.303,-1.017 -2.308,-2.286"
         style="fill:#040400;fill-opacity:0.51587301;fill-rule:nonzero;stroke:none;stroke-width:0.1"
         id="path5764"
         inkscape:connector-curvature="0" />
      <path
         d="m 1163.672,180.17681 c -0.01,-1.269 1.017,-2.302 2.284,-2.309 1.267,-0.007 2.303,1.017 2.308,2.286 0.01,1.268 -1.016,2.302 -2.284,2.309 -1.268,0.005 -2.302,-1.017 -2.308,-2.286"
         style="fill:#040400;fill-opacity:0.51587301;fill-rule:nonzero;stroke:none;stroke-width:0.1"
         id="path5766"
         inkscape:connector-curvature="0" />
      <path
         d="m 1221.225,208.59181 c -0.01,-1.27 1.017,-2.306 2.284,-2.31 1.268,-0.006 2.302,1.016 2.309,2.285 0.01,1.268 -1.018,2.301 -2.285,2.307 -1.269,0.005 -2.302,-1.014 -2.308,-2.282"
         style="fill:#040400;fill-opacity:0.51587301;fill-rule:nonzero;stroke:none;stroke-width:0.1"
         id="path5768"
         inkscape:connector-curvature="0" />
      <path
         d="m 1226.616,139.67181 c -0.01,-1.268 1.018,-2.299 2.284,-2.306 1.269,-0.008 2.304,1.013 2.31,2.283 0.01,1.269 -1.017,2.302 -2.285,2.309 -1.269,0.005 -2.301,-1.017 -2.309,-2.286"
         style="fill:#040400;fill-opacity:0.51587301;fill-rule:nonzero;stroke:none;stroke-width:0.1"
         id="path5770"
         inkscape:connector-curvature="0" />
      <path
         d="m 1201.52,171.94781 c -0.01,-1.269 1.017,-2.302 2.285,-2.309 1.268,-0.005 2.302,1.017 2.308,2.286 0.01,1.269 -1.017,2.301 -2.286,2.309 -1.267,0.008 -2.3,-1.017 -2.307,-2.286"
         style="fill:#040400;fill-opacity:0.51587301;fill-rule:nonzero;stroke:none;stroke-width:0.1"
         id="path5772"
         inkscape:connector-curvature="0" />
      <path
         d="m 1241.805,191.26381 c -0.01,-1.269 1.016,-2.301 2.285,-2.309 1.269,-0.007 2.299,1.017 2.306,2.286 0.01,1.268 -1.014,2.299 -2.283,2.307 -1.269,0.006 -2.302,-1.015 -2.308,-2.284"
         style="fill:#040400;fill-opacity:0.51587301;fill-rule:nonzero;stroke:none;stroke-width:0.1"
         id="path5774"
         inkscape:connector-curvature="0" />
      <path
         d="m 1249.662,155.63081 c -0.01,-1.268 1.016,-2.304 2.284,-2.309 1.268,-0.005 2.302,1.018 2.307,2.286 0.01,1.267 -1.015,2.302 -2.283,2.306 -1.268,0.008 -2.303,-1.016 -2.308,-2.283"
         style="fill:#040400;fill-opacity:0.51587301;fill-rule:nonzero;stroke:none;stroke-width:0.1"
         id="path5776"
         inkscape:connector-curvature="0" />
      <path
         d="m 1194.453,136.38981 c -0.01,-1.268 1.015,-2.3 2.283,-2.307 1.268,-0.007 2.301,1.014 2.309,2.284 0,1.268 -1.017,2.301 -2.284,2.308 -1.27,0.008 -2.302,-1.016 -2.308,-2.285"
         style="fill:#040400;fill-opacity:0.51587301;fill-rule:nonzero;stroke:none;stroke-width:0.1"
         id="path5778"
         inkscape:connector-curvature="0" />
      <path
         d="m 1211.639,129.41481 c -0.01,-1.269 1.017,-2.301 2.284,-2.309 1.268,-0.006 2.302,1.018 2.307,2.286 0.01,1.269 -1.014,2.3 -2.284,2.308 -1.268,0.006 -2.301,-1.016 -2.307,-2.285"
         style="fill:#040400;fill-opacity:0.51587301;fill-rule:nonzero;stroke:none;stroke-width:0.1"
         id="path5780"
         inkscape:connector-curvature="0" />
      <path
         d="m 1217.293,112.16281 c -0.01,-1.268 1.016,-2.301 2.284,-2.308 1.27,-0.006 2.301,1.018 2.307,2.283 0.01,1.27 -1.015,2.304 -2.283,2.31 -1.269,0.007 -2.301,-1.017 -2.308,-2.285"
         style="fill:#040400;fill-opacity:0.51587301;fill-rule:nonzero;stroke:none;stroke-width:0.1"
         id="path5782"
         inkscape:connector-curvature="0" />
      <path
         d="m 1164.686,153.76481 c -0.01,-1.268 1.017,-2.304 2.286,-2.309 1.266,-0.007 2.301,1.017 2.307,2.286 0.01,1.265 -1.016,2.3 -2.284,2.306 -1.269,0.007 -2.302,-1.017 -2.309,-2.283"
         style="fill:#040400;fill-opacity:0.51587301;fill-rule:nonzero;stroke:none;stroke-width:0.1"
         id="path5784"
         inkscape:connector-curvature="0" />
      <path
         d="m 1182.918,126.11681 c -0.01,-1.269 1.014,-2.305 2.283,-2.31 1.269,-0.007 2.303,1.018 2.31,2.286 0.01,1.266 -1.018,2.3 -2.285,2.308 -1.27,0.003 -2.3,-1.019 -2.308,-2.284"
         style="fill:#040400;fill-opacity:0.51587301;fill-rule:nonzero;stroke:none;stroke-width:0.1"
         id="path5786"
         inkscape:connector-curvature="0" />
      <path
         d="m 1139.363,141.26081 c -0.01,-1.268 1.016,-2.302 2.285,-2.305 1.268,-0.008 2.302,1.014 2.308,2.283 0.01,1.267 -1.017,2.299 -2.284,2.305 -1.27,0.008 -2.302,-1.014 -2.309,-2.283"
         style="fill:#040400;fill-opacity:0.51587301;fill-rule:nonzero;stroke:none;stroke-width:0.1"
         id="path5788"
         inkscape:connector-curvature="0" />
      <path
         d="m 1106.056,139.13281 c -0.01,-1.269 1.017,-2.302 2.286,-2.307 1.265,-0.008 2.3,1.018 2.306,2.286 0.01,1.269 -1.017,2.299 -2.283,2.307 -1.269,0.004 -2.304,-1.018 -2.309,-2.286"
         style="fill:#040400;fill-opacity:0.51587301;fill-rule:nonzero;stroke:none;stroke-width:0.1"
         id="path5790"
         inkscape:connector-curvature="0" />
      <path
         d="m 1090.016,146.10581 c -0.01,-1.268 1.017,-2.305 2.286,-2.311 1.268,-0.005 2.3,1.019 2.306,2.288 0.01,1.267 -1.016,2.299 -2.284,2.305 -1.268,0.005 -2.303,-1.015 -2.308,-2.282"
         style="fill:#040400;fill-opacity:0.51587301;fill-rule:nonzero;stroke:none;stroke-width:0.1"
         id="path5792"
         inkscape:connector-curvature="0" />
      <path
         d="m 1071.715,159.97481 c -0.01,-1.269 1.016,-2.303 2.285,-2.308 1.267,-0.008 2.302,1.017 2.308,2.285 0.01,1.267 -1.018,2.3 -2.285,2.305 -1.268,0.008 -2.301,-1.014 -2.308,-2.282"
         style="fill:#040400;fill-opacity:0.51587301;fill-rule:nonzero;stroke:none;stroke-width:0.1"
         id="path5794"
         inkscape:connector-curvature="0" />
      <path
         d="m 1065.764,36.260113 c -0.01,-1.2676 1.018,-2.3016 2.285,-2.3086 1.269,-0.0047 2.303,1.0183 2.308,2.2851 0.01,1.2688 -1.017,2.3027 -2.285,2.3074 -1.267,0.0071 -2.301,-1.0144 -2.308,-2.2839"
         style="fill:#040400;fill-opacity:0.51587301;fill-rule:nonzero;stroke:none;stroke-width:0.1"
         id="path5796"
         inkscape:connector-curvature="0" />
      <path
         d="m 1053.205,132.50981 c -0.01,-1.267 1.018,-2.3 2.285,-2.306 1.268,-0.006 2.301,1.015 2.307,2.285 0.01,1.265 -1.016,2.301 -2.284,2.306 -1.267,0.008 -2.302,-1.017 -2.308,-2.285"
         style="fill:#040400;fill-opacity:0.51587301;fill-rule:nonzero;stroke:none;stroke-width:0.1"
         id="path5798"
         inkscape:connector-curvature="0" />
      <path
         d="m 1034.824,130.30781 c -0.01,-1.268 1.015,-2.302 2.283,-2.306 1.268,-0.007 2.303,1.014 2.31,2.284 0.01,1.268 -1.018,2.299 -2.286,2.306 -1.268,0.008 -2.301,-1.015 -2.307,-2.284"
         style="fill:#040400;fill-opacity:0.51587301;fill-rule:nonzero;stroke:none;stroke-width:0.1"
         id="path5800"
         inkscape:connector-curvature="0" />
      <path
         d="m 1046.428,154.36281 c -0.01,-1.269 1.015,-2.303 2.283,-2.31 1.269,-0.006 2.302,1.017 2.31,2.287 0.01,1.265 -1.018,2.299 -2.285,2.306 -1.27,0.008 -2.302,-1.019 -2.308,-2.283"
         style="fill:#040400;fill-opacity:0.51587301;fill-rule:nonzero;stroke:none;stroke-width:0.1"
         id="path5802"
         inkscape:connector-curvature="0" />
      <path
         d="m 1100.227,121.94081 c -0.01,-1.269 1.016,-2.302 2.285,-2.309 1.267,-0.008 2.302,1.017 2.308,2.286 0.01,1.269 -1.016,2.3 -2.285,2.307 -1.268,0.007 -2.301,-1.016 -2.308,-2.284"
         style="fill:#040400;fill-opacity:0.51587301;fill-rule:nonzero;stroke:none;stroke-width:0.1"
         id="path5804"
         inkscape:connector-curvature="0" />
      <path
         d="m 1150.734,119.38681 c 0,-1.266 1.017,-2.299 2.285,-2.306 1.268,-0.006 2.3,1.015 2.308,2.284 0.01,1.267 -1.016,2.302 -2.284,2.309 -1.268,0.006 -2.303,-1.018 -2.309,-2.287"
         style="fill:#040400;fill-opacity:0.51587301;fill-rule:nonzero;stroke:none;stroke-width:0.1"
         id="path5806"
         inkscape:connector-curvature="0" />
      <path
         d="m 1172.514,112.38881 c 0,-1.267 1.016,-2.301 2.286,-2.306 1.268,-0.006 2.3,1.015 2.306,2.284 0.01,1.267 -1.016,2.301 -2.283,2.309 -1.268,0.003 -2.302,-1.018 -2.309,-2.287"
         style="fill:#040400;fill-opacity:0.51587301;fill-rule:nonzero;stroke:none;stroke-width:0.1"
         id="path5808"
         inkscape:connector-curvature="0" />
      <path
         d="m 1129.969,99.972813 c -0.01,-1.268 1.019,-2.3 2.285,-2.306 1.267,-0.006 2.301,1.015 2.307,2.283 0.01,1.267997 -1.015,2.301997 -2.284,2.307997 -1.267,0.006 -2.302,-1.015 -2.308,-2.284997"
         style="fill:#040400;fill-opacity:0.51587301;fill-rule:nonzero;stroke:none;stroke-width:0.1"
         id="path5810"
         inkscape:connector-curvature="0" />
      <path
         d="m 1096.661,97.847813 c -0.01,-1.269 1.016,-2.303 2.284,-2.31 1.269,-0.006 2.302,1.017 2.308,2.286 0.01,1.268 -1.017,2.299997 -2.284,2.306997 -1.269,0.007 -2.301,-1.015997 -2.308,-2.282997"
         style="fill:#040400;fill-opacity:0.51587301;fill-rule:nonzero;stroke:none;stroke-width:0.1"
         id="path5812"
         inkscape:connector-curvature="0" />
      <path
         d="m 1069.234,123.24481 c -0.01,-1.269 1.016,-2.3 2.284,-2.307 1.269,-0.008 2.301,1.014 2.308,2.283 0.01,1.269 -1.016,2.303 -2.285,2.31 -1.268,0.007 -2.302,-1.019 -2.307,-2.286"
         style="fill:#040400;fill-opacity:0.51587301;fill-rule:nonzero;stroke:none;stroke-width:0.1"
         id="path5814"
         inkscape:connector-curvature="0" />
      <path
         d="m 1051.982,117.59181 c -0.01,-1.268 1.016,-2.302 2.284,-2.307 1.268,-0.006 2.303,1.016 2.309,2.284 0.01,1.269 -1.018,2.299 -2.286,2.306 -1.268,0.007 -2.3,-1.014 -2.307,-2.283"
         style="fill:#040400;fill-opacity:0.51587301;fill-rule:nonzero;stroke:none;stroke-width:0.1"
         id="path5816"
         inkscape:connector-curvature="0" />
      <path
         d="m 1066.838,103.73881 c -0.01,-1.27 1.017,-2.302 2.285,-2.31 1.269,-0.005 2.301,1.019 2.307,2.286 0.01,1.267 -1.016,2.302 -2.284,2.308 -1.269,0.007 -2.301,-1.019 -2.308,-2.284"
         style="fill:#040400;fill-opacity:0.51587301;fill-rule:nonzero;stroke:none;stroke-width:0.1"
         id="path5818"
         inkscape:connector-curvature="0" />
      <path
         d="m 1027.784,100.49181 c -0.01,-1.268997 1.016,-2.302997 2.284,-2.306997 1.268,-0.007 2.303,1.016 2.309,2.283997 0.01,1.268 -1.017,2.299 -2.285,2.306 -1.269,0.007 -2.301,-1.016 -2.308,-2.283"
         style="fill:#040400;fill-opacity:0.51587301;fill-rule:nonzero;stroke:none;stroke-width:0.1"
         id="path5820"
         inkscape:connector-curvature="0" />
      <path
         d="m 1010.602,108.61481 c -0.01,-1.268 1.016,-2.302 2.284,-2.306 1.268,-0.008 2.301,1.015 2.308,2.283 0,1.268 -1.017,2.303 -2.285,2.308 -1.267,0.006 -2.3,-1.016 -2.307,-2.285"
         style="fill:#040400;fill-opacity:0.51587301;fill-rule:nonzero;stroke:none;stroke-width:0.1"
         id="path5822"
         inkscape:connector-curvature="0" />
      <path
         d="m 1010.684,124.68781 c -0.01,-1.268 1.015,-2.3 2.283,-2.306 1.269,-0.008 2.303,1.016 2.308,2.283 0.01,1.268 -1.017,2.303 -2.285,2.309 -1.267,0.007 -2.3,-1.016 -2.306,-2.286"
         style="fill:#040400;fill-opacity:0.51587301;fill-rule:nonzero;stroke:none;stroke-width:0.1"
         id="path5824"
         inkscape:connector-curvature="0" />
      <path
         d="m 988.95602,142.02081 c -0.007,-1.269 1.015,-2.3 2.284,-2.306 1.268,-0.007 2.301,1.014 2.309,2.284 0.006,1.268 -1.018,2.3 -2.286,2.308 -1.268,0.005 -2.301,-1.017 -2.307,-2.286"
         style="fill:#040400;fill-opacity:0.51587301;fill-rule:nonzero;stroke:none;stroke-width:0.1"
         id="path5826"
         inkscape:connector-curvature="0" />
      <path
         d="m 968.27702,139.83081 c -0.006,-1.268 1.016,-2.305 2.284,-2.308 1.269,-0.008 2.303,1.017 2.309,2.286 0.007,1.267 -1.017,2.3 -2.285,2.307 -1.269,0.004 -2.301,-1.017 -2.308,-2.285"
         style="fill:#040400;fill-opacity:0.51587301;fill-rule:nonzero;stroke:none;stroke-width:0.1"
         id="path5828"
         inkscape:connector-curvature="0" />
      <path
         d="m 994.51002,105.25181 c -0.006,-1.267 1.017,-2.301 2.285,-2.308 1.267,-0.008 2.302,1.019 2.308,2.286 0.006,1.266 -1.017,2.3 -2.285,2.306 -1.268,0.007 -2.301,-1.016 -2.308,-2.284"
         style="fill:#040400;fill-opacity:0.51587301;fill-rule:nonzero;stroke:none;stroke-width:0.1"
         id="path5830"
         inkscape:connector-curvature="0" />
      <path
         d="m 955.54302,119.22581 c -0.005,-1.267 1.017,-2.3 2.285,-2.307 1.267,-0.006 2.302,1.018 2.308,2.287 0.007,1.267 -1.018,2.3 -2.285,2.306 -1.269,0.006 -2.301,-1.017 -2.308,-2.286"
         style="fill:#040400;fill-opacity:0.51587301;fill-rule:nonzero;stroke:none;stroke-width:0.1"
         id="path5832"
         inkscape:connector-curvature="0" />
      <path
         d="m 936.06002,126.21481 c -0.006,-1.269 1.015,-2.301 2.283,-2.307 1.268,-0.008 2.304,1.015 2.309,2.284 0.006,1.268 -1.018,2.301 -2.285,2.308 -1.269,0.006 -2.301,-1.016 -2.307,-2.285"
         style="fill:#040400;fill-opacity:0.51587301;fill-rule:nonzero;stroke:none;stroke-width:0.1"
         id="path5834"
         inkscape:connector-curvature="0" />
      <path
         d="m 937.04402,94.060813 c -0.005,-1.268 1.017,-2.303 2.285,-2.309 1.267,-0.005 2.302,1.017 2.308,2.284 0.008,1.27 -1.017,2.302 -2.285,2.308 -1.267,0.008 -2.301,-1.014 -2.308,-2.283"
         style="fill:#040400;fill-opacity:0.51587301;fill-rule:nonzero;stroke:none;stroke-width:0.1"
         id="path5836"
         inkscape:connector-curvature="0" />
      <path
         d="m 975.30202,94.546813 c -0.007,-1.268 1.016,-2.304 2.284,-2.311 1.268,-0.003 2.302,1.018 2.309,2.287 0.006,1.267 -1.018,2.299 -2.286,2.307 -1.268,0.006 -2.301,-1.015 -2.307,-2.283"
         style="fill:#040400;fill-opacity:0.51587301;fill-rule:nonzero;stroke:none;stroke-width:0.1"
         id="path5838"
         inkscape:connector-curvature="0" />
      <path
         d="m 986.73002,84.153813 c -0.006,-1.269 1.016,-2.3 2.284,-2.308 1.269,-0.006 2.304,1.018 2.31,2.286 0.006,1.269 -1.017,2.3 -2.286,2.308 -1.268,0.003 -2.301,-1.018 -2.308,-2.286"
         style="fill:#040400;fill-opacity:0.51587301;fill-rule:nonzero;stroke:none;stroke-width:0.1"
         id="path5840"
         inkscape:connector-curvature="0" />
      <path
         d="m 972.69602,105.36381 c -0.007,-1.27 1.017,-2.302 2.284,-2.31 1.268,-0.007 2.302,1.019 2.308,2.286 0.007,1.266 -1.018,2.3 -2.285,2.308 -1.268,0.006 -2.301,-1.019 -2.307,-2.284"
         style="fill:#040400;fill-opacity:0.51587301;fill-rule:nonzero;stroke:none;stroke-width:0.1"
         id="path5842"
         inkscape:connector-curvature="0" />
      <path
         d="m 1041.508,90.087813 c -0.01,-1.269 1.017,-2.302 2.285,-2.308 1.268,-0.007 2.304,1.015 2.309,2.283 0.01,1.27 -1.018,2.302 -2.286,2.31 -1.267,0.006 -2.301,-1.017 -2.308,-2.285"
         style="fill:#040400;fill-opacity:0.51587301;fill-rule:nonzero;stroke:none;stroke-width:0.1"
         id="path5844"
         inkscape:connector-curvature="0" />
      <path
         d="m 1043.042,94.203813 c 0,-1.269 1.017,-2.302 2.285,-2.309 1.269,-0.008 2.302,1.016 2.307,2.286 0.01,1.269 -1.015,2.3 -2.284,2.307 -1.268,0.007 -2.301,-1.016 -2.308,-2.284"
         style="fill:#040400;fill-opacity:0.51587301;fill-rule:nonzero;stroke:none;stroke-width:0.1"
         id="path5846"
         inkscape:connector-curvature="0" />
      <path
         d="m 1083.991,89.873813 c -0.01,-1.269 1.016,-2.303 2.284,-2.309 1.268,-0.005 2.302,1.018 2.309,2.286 0,1.267 -1.017,2.302 -2.285,2.306 -1.269,0.007 -2.303,-1.016 -2.308,-2.283"
         style="fill:#040400;fill-opacity:0.51587301;fill-rule:nonzero;stroke:none;stroke-width:0.1"
         id="path5848"
         inkscape:connector-curvature="0" />
      <path
         d="m 1098.113,85.885813 c -0.01,-1.268 1.017,-2.301 2.285,-2.307 1.267,-0.004 2.301,1.014 2.309,2.284 0,1.268 -1.018,2.304 -2.285,2.309 -1.269,0.007 -2.304,-1.017 -2.309,-2.286"
         style="fill:#040400;fill-opacity:0.51587301;fill-rule:nonzero;stroke:none;stroke-width:0.1"
         id="path5850"
         inkscape:connector-curvature="0" />
      <path
         d="m 1129.124,88.025813 c -0.01,-1.269 1.019,-2.302 2.286,-2.308 1.269,-0.005 2.3,1.019 2.307,2.286 0.01,1.27 -1.016,2.3 -2.285,2.306 -1.268,0.008 -2.3,-1.016 -2.308,-2.284"
         style="fill:#040400;fill-opacity:0.51587301;fill-rule:nonzero;stroke:none;stroke-width:0.1"
         id="path5852"
         inkscape:connector-curvature="0" />
      <path
         d="m 1157.503,95.242813 c -0.01,-1.27 1.015,-2.301 2.284,-2.308 1.267,-0.007 2.301,1.016 2.308,2.284 0.01,1.269 -1.019,2.302 -2.284,2.309 -1.269,0.008 -2.304,-1.017 -2.308,-2.285"
         style="fill:#040400;fill-opacity:0.51587301;fill-rule:nonzero;stroke:none;stroke-width:0.1"
         id="path5854"
         inkscape:connector-curvature="0" />
      <path
         d="m 1186.207,95.096813 c -0.01,-1.27 1.015,-2.3 2.283,-2.307 1.268,-0.007 2.302,1.015 2.309,2.284 0.01,1.268 -1.02,2.301 -2.288,2.309 -1.266,0.007 -2.299,-1.017 -2.304,-2.286"
         style="fill:#040400;fill-opacity:0.51587301;fill-rule:nonzero;stroke:none;stroke-width:0.1"
         id="path5856"
         inkscape:connector-curvature="0" />
      <path
         d="m 1075.12,80.261813 c -0.01,-1.269 1.017,-2.299 2.285,-2.307 1.268,-0.008 2.302,1.014 2.308,2.283 0.01,1.268 -1.016,2.305 -2.285,2.309 -1.268,0.007 -2.301,-1.017 -2.308,-2.285"
         style="fill:#040400;fill-opacity:0.51587301;fill-rule:nonzero;stroke:none;stroke-width:0.1"
         id="path5858"
         inkscape:connector-curvature="0" />
      <path
         d="m 1052.088,66.600813 c -0.01,-1.268 1.017,-2.3 2.285,-2.308 1.269,-0.007 2.301,1.018 2.307,2.287 0.01,1.268 -1.015,2.299 -2.284,2.303 -1.268,0.007 -2.302,-1.015 -2.308,-2.282"
         style="fill:#040400;fill-opacity:0.51587301;fill-rule:nonzero;stroke:none;stroke-width:0.1"
         id="path5860"
         inkscape:connector-curvature="0" />
      <path
         d="m 1031.421,66.705813 c -0.01,-1.269 1.018,-2.302 2.286,-2.306 1.268,-0.008 2.3,1.014 2.306,2.283 0.01,1.268 -1.016,2.3 -2.284,2.307 -1.268,0.007 -2.301,-1.017 -2.308,-2.284"
         style="fill:#040400;fill-opacity:0.51587301;fill-rule:nonzero;stroke:none;stroke-width:0.1"
         id="path5862"
         inkscape:connector-curvature="0" />
      <path
         d="m 1014.274,81.718813 c 0,-1.268 1.017,-2.301 2.285,-2.308 1.269,-0.008 2.302,1.016 2.308,2.285 0.01,1.267 -1.015,2.301 -2.285,2.307 -1.268,0.008 -2.301,-1.018 -2.308,-2.284"
         style="fill:#040400;fill-opacity:0.51587301;fill-rule:nonzero;stroke:none;stroke-width:0.1"
         id="path5864"
         inkscape:connector-curvature="0" />
      <path
         d="m 969.40302,63.573813 c -0.005,-1.266 1.017,-2.3 2.285,-2.307 1.268,-0.007 2.302,1.017 2.308,2.282 0.007,1.269 -1.016,2.304 -2.285,2.311 -1.268,0.006 -2.3,-1.018 -2.308,-2.286"
         style="fill:#040400;fill-opacity:0.51587301;fill-rule:nonzero;stroke:none;stroke-width:0.1"
         id="path5866"
         inkscape:connector-curvature="0" />
      <path
         d="m 959.14602,78.551813 c -0.007,-1.267 1.017,-2.3 2.285,-2.306 1.267,-0.007 2.301,1.014 2.308,2.282 0.006,1.269 -1.017,2.303 -2.284,2.307 -1.269,0.008 -2.303,-1.014 -2.309,-2.283"
         style="fill:#040400;fill-opacity:0.51587301;fill-rule:nonzero;stroke:none;stroke-width:0.1"
         id="path5868"
         inkscape:connector-curvature="0" />
      <path
         d="m 955.24802,60.671813 c -0.008,-1.2692 1.016,-2.3004 2.285,-2.3075 1.266,-0.0078 2.301,1.0161 2.307,2.2845 0.006,1.266 -1.019,2.302 -2.285,2.305 -1.269,0.007 -2.301,-1.015 -2.307,-2.282"
         style="fill:#040400;fill-opacity:0.51587301;fill-rule:nonzero;stroke:none;stroke-width:0.1"
         id="path5870"
         inkscape:connector-curvature="0" />
      <path
         d="m 978.52402,50.899913 c -0.006,-1.2695 1.018,-2.302 2.287,-2.3098 1.268,-0.0066 2.3,1.0176 2.308,2.2864 0.005,1.2683 -1.017,2.2996 -2.285,2.3074 -1.269,0.0058 -2.304,-1.0188 -2.31,-2.284"
         style="fill:#040400;fill-opacity:0.51587301;fill-rule:nonzero;stroke:none;stroke-width:0.1"
         id="path5872"
         inkscape:connector-curvature="0" />
      <path
         d="m 1003.89,71.436813 c -0.01,-1.269 1.015,-2.302 2.283,-2.309 1.27,-0.005 2.303,1.02 2.31,2.287 0.01,1.27 -1.019,2.3 -2.287,2.305 -1.268,0.008 -2.3,-1.015 -2.306,-2.283"
         style="fill:#040400;fill-opacity:0.51587301;fill-rule:nonzero;stroke:none;stroke-width:0.1"
         id="path5874"
         inkscape:connector-curvature="0" />
      <path
         d="m 1003.498,46.073313 c 0,-1.2683 1.016,-2.3007 2.285,-2.3062 1.269,-0.0063 2.303,1.0164 2.308,2.284 0.01,1.2683 -1.016,2.3 -2.284,2.3078 -1.269,0.0066 -2.301,-1.0156 -2.309,-2.2856"
         style="fill:#040400;fill-opacity:0.51587301;fill-rule:nonzero;stroke:none;stroke-width:0.1"
         id="path5876"
         inkscape:connector-curvature="0" />
      <path
         d="m 1041.703,56.320613 c -0.01,-1.2688 1.016,-2.2996 2.285,-2.3074 1.268,-0.0071 2.3,1.0144 2.307,2.2832 0.01,1.2676 -1.016,2.3023 -2.284,2.3094 -1.269,0.007 -2.302,-1.0176 -2.308,-2.2852"
         style="fill:#040400;fill-opacity:0.51587301;fill-rule:nonzero;stroke:none;stroke-width:0.1"
         id="path5878"
         inkscape:connector-curvature="0" />
      <path
         d="m 1100.716,43.389013 c -0.01,-1.2664 1.018,-2.2989 2.285,-2.3047 1.269,-0.0078 2.302,1.0144 2.31,2.2832 0,1.2676 -1.019,2.3015 -2.288,2.3086 -1.267,0.007 -2.3,-1.0176 -2.307,-2.2871"
         style="fill:#040400;fill-opacity:0.51587301;fill-rule:nonzero;stroke:none;stroke-width:0.1"
         id="path5880"
         inkscape:connector-curvature="0" />
      <path
         d="m 1062.329,48.178013 c -0.01,-1.2683 1.016,-2.3 2.284,-2.3074 1.267,-0.007 2.301,1.0152 2.309,2.284 0.01,1.2676 -1.018,2.3015 -2.286,2.3097 -1.267,0.0067 -2.301,-1.0187 -2.307,-2.2863"
         style="fill:#040400;fill-opacity:0.51587301;fill-rule:nonzero;stroke:none;stroke-width:0.1"
         id="path5882"
         inkscape:connector-curvature="0" />
      <path
         d="m 1080.687,45.788613 c -0.01,-1.266 1.018,-2.3032 2.286,-2.3071 1.267,-0.0066 2.3,1.0168 2.307,2.2844 0.01,1.2676 -1.016,2.302 -2.284,2.3086 -1.267,0.0039 -2.303,-1.0187 -2.309,-2.2859"
         style="fill:#040400;fill-opacity:0.51587301;fill-rule:nonzero;stroke:none;stroke-width:0.1"
         id="path5884"
         inkscape:connector-curvature="0" />
      <path
         d="m 1135.875,60.436813 c -0.01,-1.2678 1.017,-2.2998 2.284,-2.3064 1.269,-0.0071 2.302,1.0144 2.309,2.2834 0.01,1.267 -1.018,2.301 -2.287,2.306 -1.269,0.007 -2.3,-1.014 -2.306,-2.283"
         style="fill:#040400;fill-opacity:0.51587301;fill-rule:nonzero;stroke:none;stroke-width:0.1"
         id="path5886"
         inkscape:connector-curvature="0" />
      <path
         d="m 1130.761,50.337413 c -0.01,-1.2695 1.014,-2.3012 2.282,-2.3078 1.268,-0.0078 2.304,1.0144 2.309,2.2832 0.01,1.2683 -1.016,2.3027 -2.286,2.3078 -1.267,0.0066 -2.3,-1.0148 -2.305,-2.2832"
         style="fill:#040400;fill-opacity:0.51587301;fill-rule:nonzero;stroke:none;stroke-width:0.1"
         id="path5888"
         inkscape:connector-curvature="0" />
      <path
         d="m 1157.679,58.030813 c -0.01,-1.2676 1.015,-2.3032 2.284,-2.3086 1.267,-0.0071 2.301,1.0171 2.306,2.2859 0.01,1.2656 -1.016,2.2987 -2.283,2.3057 -1.268,0.006 -2.302,-1.0159 -2.307,-2.283"
         style="fill:#040400;fill-opacity:0.51587301;fill-rule:nonzero;stroke:none;stroke-width:0.1"
         id="path5890"
         inkscape:connector-curvature="0" />
      <path
         d="m 1030.191,50.637013 c -0.01,-1.2676 1.018,-2.3027 2.286,-2.3066 1.268,-0.0071 2.301,1.0144 2.307,2.2824 0.01,1.2691 -1.016,2.3035 -2.283,2.3094 -1.269,0.0058 -2.303,-1.0164 -2.31,-2.2852"
         style="fill:#040400;fill-opacity:0.51587301;fill-rule:nonzero;stroke:none;stroke-width:0.1"
         id="path5892"
         inkscape:connector-curvature="0" />
      <path
         d="m 911.72902,310.04681 c -0.007,-1.267 1.016,-2.301 2.284,-2.309 1.269,-0.006 2.301,1.018 2.308,2.285 0.007,1.269 -1.017,2.301 -2.285,2.308 -1.267,0.007 -2.301,-1.016 -2.307,-2.284"
         style="fill:#040400;fill-opacity:0.51587301;fill-rule:nonzero;stroke:none;stroke-width:0.1"
         id="path5894"
         inkscape:connector-curvature="0" />
      <path
         d="m 964.93197,351.37637 c -0.006,-1.268 1.016,-2.301 2.285,-2.307 1.267,-0.007 2.302,1.016 2.308,2.284 0.007,1.269 -1.018,2.302 -2.285,2.307 -1.269,0.007 -2.301,-1.015 -2.308,-2.284"
         style="fill:#040400;fill-opacity:0.51587301;fill-rule:nonzero;stroke:none;stroke-width:0.1"
         id="path5896"
         inkscape:connector-curvature="0" />
      <path
         d="m 1268.734,294.46281 c 0,-1.267 1.017,-2.302 2.284,-2.306 1.267,-0.007 2.303,1.016 2.309,2.284 0.01,1.268 -1.017,2.3 -2.285,2.306 -1.267,0.007 -2.301,-1.014 -2.308,-2.284"
         style="fill:#040400;fill-opacity:0.51587301;fill-rule:nonzero;stroke:none;stroke-width:0.1"
         id="path5898"
         inkscape:connector-curvature="0" />
      <path
         d="m 1270.856,260.00681 c 0,-1.266 1.018,-2.301 2.285,-2.309 1.269,-0.004 2.3,1.019 2.307,2.286 0.01,1.27 -1.014,2.301 -2.283,2.308 -1.267,0.007 -2.302,-1.016 -2.309,-2.285"
         style="fill:#040400;fill-opacity:0.51587301;fill-rule:nonzero;stroke:none;stroke-width:0.1"
         id="path5900"
         inkscape:connector-curvature="0" />
      <path
         d="m 1093.439,69.835813 c -0.01,-1.269 1.018,-2.3 2.285,-2.307 1.269,-0.008 2.301,1.014 2.307,2.283 0.01,1.269 -1.016,2.303 -2.283,2.31 -1.268,0.006 -2.304,-1.018 -2.309,-2.286"
         style="fill:#040400;fill-opacity:0.51587301;fill-rule:nonzero;stroke:none;stroke-width:0.1"
         id="path5902"
         inkscape:connector-curvature="0" />
      <path
         d="m 1115.221,62.837813 c -0.01,-1.269 1.015,-2.302 2.284,-2.309 1.266,-0.006 2.301,1.016 2.308,2.285 0,1.269 -1.018,2.303 -2.285,2.308 -1.268,0.006 -2.303,-1.015 -2.307,-2.284"
         style="fill:#040400;fill-opacity:0.51587301;fill-rule:nonzero;stroke:none;stroke-width:0.1"
         id="path5904"
         inkscape:connector-curvature="0" />
      <path
         d="m 1129.061,75.398813 c 0,-1.268 1.017,-2.305 2.285,-2.309 1.268,-0.007 2.3,1.017 2.307,2.284 0.01,1.268 -1.015,2.301 -2.284,2.308 -1.267,0.006 -2.301,-1.017 -2.308,-2.283"
         style="fill:#040400;fill-opacity:0.51587301;fill-rule:nonzero;stroke:none;stroke-width:0.1"
         id="path5906"
         inkscape:connector-curvature="0" />
      <path
         d="m 1147.391,67.264813 c -0.01,-1.267 1.015,-2.3 2.284,-2.306 1.268,-0.007 2.302,1.018 2.309,2.287 0.01,1.267 -1.017,2.299 -2.285,2.306 -1.269,0.007 -2.301,-1.017 -2.308,-2.287"
         style="fill:#040400;fill-opacity:0.51587301;fill-rule:nonzero;stroke:none;stroke-width:0.1"
         id="path5908"
         inkscape:connector-curvature="0" />
      <path
         d="m 1150.898,79.877813 c -0.01,-1.267 1.018,-2.301 2.287,-2.306 1.268,-0.006 2.299,1.016 2.307,2.284 0.01,1.268 -1.017,2.303 -2.285,2.309 -1.269,0.007 -2.302,-1.017 -2.309,-2.287"
         style="fill:#040400;fill-opacity:0.51587301;fill-rule:nonzero;stroke:none;stroke-width:0.1"
         id="path5910"
         inkscape:connector-curvature="0" />
      <path
         d="m 1170.453,86.671813 c -0.01,-1.269 1.017,-2.304 2.285,-2.31 1.268,-0.007 2.301,1.019 2.306,2.287 0.01,1.265 -1.016,2.3 -2.284,2.305 -1.268,0.007 -2.301,-1.016 -2.307,-2.282"
         style="fill:#040400;fill-opacity:0.51587301;fill-rule:nonzero;stroke:none;stroke-width:0.1"
         id="path5912"
         inkscape:connector-curvature="0" />
      <path
         d="m 1173.804,68.281813 c -0.01,-1.269 1.017,-2.3 2.285,-2.307 1.268,-0.008 2.3,1.015 2.307,2.283 0.01,1.268 -1.015,2.303 -2.283,2.309 -1.267,0.008 -2.303,-1.018 -2.309,-2.285"
         style="fill:#040400;fill-opacity:0.51587301;fill-rule:nonzero;stroke:none;stroke-width:0.1"
         id="path5914"
         inkscape:connector-curvature="0" />
      <path
         d="m 1188.8,81.984813 c 0,-1.27 1.014,-2.302 2.283,-2.31 1.269,-0.005 2.304,1.018 2.31,2.286 0.01,1.269 -1.017,2.302 -2.286,2.308 -1.268,0.006 -2.3,-1.016 -2.307,-2.284"
         style="fill:#040400;fill-opacity:0.51587301;fill-rule:nonzero;stroke:none;stroke-width:0.1"
         id="path5916"
         inkscape:connector-curvature="0" />
    </g>
    <path
       transform="matrix(0.82304027,0,0,0.82304027,-25.455738,1083.5906)"
       style="opacity:0.69300022;fill:#ffffff;fill-opacity:0.52452835;stroke:none;stroke-width:3;stroke-linecap:round;stroke-linejoin:bevel;stroke-miterlimit:4;stroke-dasharray:none;stroke-opacity:1;paint-order:stroke fill markers;filter:url(#filter19111)"
       d="m 291.50125,-285.94479 c -1e-5,4.95722 -8.80271,8.97584 -19.66138,8.97584 -10.85867,0 -19.66136,-4.01862 -19.66137,-8.97584 -1e-5,-4.95722 17.35111,-31.20175 28.20979,-31.20175 10.85869,0 11.11297,26.24452 11.11296,31.20175 z"
       id="path19088"
       inkscape:connector-curvature="0"
       sodipodi:nodetypes="sssss" />
    <path
       transform="matrix(0.21683606,0.48455908,-0.63258653,0.16609565,-74.690636,708.78184)"
       style="opacity:0.69300022;fill:#e3d90c;fill-opacity:0.52452835;stroke:none;stroke-width:3;stroke-linecap:round;stroke-linejoin:bevel;stroke-miterlimit:4;stroke-dasharray:none;stroke-opacity:1;paint-order:stroke fill markers;filter:url(#filter19141)"
       d="m 140.19413,-365.0177 c 0,42.49047 -45.432463,115.40371 -66.677698,115.40372 -21.245239,0 -19.449552,-74.22912 -1.709688,-112.83919 17.95169,-39.07111 30.045306,-79.50034 51.290546,-79.50034 21.24523,10e-6 17.09684,34.44534 17.09684,76.93581 z"
       id="path19122"
       inkscape:connector-curvature="0"
       sodipodi:nodetypes="sssss" />
    <path
       sodipodi:nodetypes="sssss"
       inkscape:connector-curvature="0"
       id="path19145"
       d="m 140.19413,-365.0177 c 0,42.49047 -45.432463,115.40371 -66.677698,115.40372 -21.245239,0 -19.449552,-74.22912 -1.709688,-112.83919 17.95169,-39.07111 30.045306,-79.50034 51.290546,-79.50034 21.24523,10e-6 17.09684,34.44534 17.09684,76.93581 z"
       style="opacity:0.189;fill:#e3f6a5;fill-opacity:1;stroke:none;stroke-width:3;stroke-linecap:round;stroke-linejoin:bevel;stroke-miterlimit:4;stroke-dasharray:none;stroke-opacity:1;paint-order:stroke fill markers;filter:url(#filter20594)"
       transform="matrix(0.21559017,0.64286339,-0.62895193,0.06835525,59.09678,661.57342)" />
    <path
       transform="matrix(0.82304027,0,0,-0.82304027,-24.048598,1080.7762)"
       style="fill:#6d6406;fill-opacity:0.55849059;fill-rule:nonzero;stroke:none;stroke-width:0.75px;stroke-linecap:butt;stroke-linejoin:miter;stroke-opacity:1;filter:url(#filter19159)"
       d="m 294.06578,492.3892 c 0.15235,-0.53323 1.65649,-1.1052 3.17235,-1.49554 1.50535,-0.38763 3.00159,-0.60424 3.17214,-0.96599 0.43375,-0.92002 0.92327,-1.85892 1.53021,-2.95773 0.91818,-1.66228 2.94108,-5.07841 4.43598,-8.19362 1.46602,-3.05504 3.03271,-6.9408 4.281,-12.14546 1.1334,-4.72567 2.03645,-10.65371 2.40286,-18.43098 0.33144,-7.12324 0.84555,-12.56597 1.28823,-18.06823 0.40248,-5.00272 0.71609,-9.74314 0.49985,-14.5574 -0.2117,-4.71311 -0.92516,-9.53304 -2.53653,-15.19963 -1.56334,-5.49771 -3.96195,-11.7644 -7.55814,-19.59088 -3.31742,-7.19964 -5.89132,-17.69469 -7.84778,-29.73103 -1.92735,-11.8572 -3.20584,-24.88281 -4.06296,-37.05927 -1.71149,-24.3139 -1.71429,-44.72316 -1.92803,-44.69749 l -0.88546,0.10633 0.86951,0.12464 c -0.21403,-0.0307 0.672,-8.67357 1.51071,-17.4031 0.44352,-4.61629 0.87115,-9.21796 1.17095,-13.03387 0.15377,-1.95718 0.27181,-3.68161 0.34108,-5.08245 0.0353,-0.71275 0.0578,-1.34071 0.0662,-1.8737 0.008,-0.53954 0.002,-0.98398 -0.0204,-1.32636 -0.022,-0.38125 -0.10612,-0.89298 -0.22149,-1.46477 -0.11967,-0.59306 -0.28332,-1.29989 -0.4796,-2.08837 -0.40295,-1.6187 -0.95484,-3.62738 -1.58365,-5.81716 -1.33659,-4.65455 -3.06269,-10.27392 -4.63356,-15.28129 -4.22418,-13.46514 -6.66088,-20.65506 -6.66088,-20.65506 0,0 2.27791,7.2431 6.16176,20.8048 1.44152,5.03354 3.01959,10.71165 4.18201,15.38619 0.5486,2.20616 1.01174,4.21725 1.32147,5.83005 0.15099,0.78618 0.26507,1.47551 0.33434,2.04227 0.0687,0.56177 0.0909,0.9882 0.0665,1.24334 -0.0237,0.30238 -0.0609,0.70023 -0.11644,1.22815 -0.054,0.51335 -0.1226,1.12258 -0.20516,1.82283 -0.1621,1.37505 -0.37518,3.07639 -0.62729,5.01535 -0.4884,3.75626 -1.11904,8.37068 -1.76757,12.93196 -1.23247,8.66837 -2.54623,17.24918 -2.7635,17.21803 l -0.0159,0.23097 c -0.2059,0.0247 -0.6577,20.41097 0.6365,45.06096 0.64441,12.27377 1.71991,25.50595 3.47034,37.63259 1.75944,12.18902 4.21829,23.40624 7.69968,31.49709 3.31309,7.72004 5.36341,13.70049 6.60016,18.77013 1.2607,5.16777 1.68449,9.43282 1.68426,13.54444 -2.4e-4,4.27813 -0.46449,8.57836 -1.04955,13.54554 -0.63079,5.35542 -1.34831,11.07823 -1.86401,18.36944 -0.51888,7.274 -1.51261,12.58529 -2.61933,16.61757 -1.20892,4.4046 -2.64355,7.59441 -3.94685,10.08043 -1.5524,2.96119 -3.08268,5.27972 -4.43301,7.62096 -0.70416,1.22089 -1.3352,2.39288 -1.90696,3.60562 -0.23624,0.50109 0.46465,2.02003 1.26966,3.47813 0.79789,1.44523 1.70453,2.82817 1.56641,3.31157 z"
       id="path19147"
       inkscape:connector-curvature="0"
       inkscape:path-effect="#path-effect19149"
       inkscape:original-d="m 294.06578,492.3892 c 3.41937,-11.96779 12.82263,-15.38716 14.53231,-44.4518 1.70969,-29.06464 6.83874,-35.04854 -6.83873,-65.82286 -13.67748,-30.77433 -12.82264,-112.8392 -12.82264,-112.8392 0,0 4.27421,-33.33885 4.27421,-38.4679 0,-5.12905 -12.82264,-45.30665 -12.82264,-45.30665" />
    <path
       style="opacity:0.43800001;fill:#6a6506;fill-opacity:0.52452835;stroke:none;stroke-width:1.97919917;stroke-linecap:round;stroke-linejoin:bevel;stroke-miterlimit:4;stroke-dasharray:none;stroke-opacity:1;paint-order:stroke fill markers;filter:url(#filter19141)"
       d="m 414.43555,347.26758 c -0.48399,0.061 -1.30754,0.93294 -2.52149,2.77539 -5.43619,8.25065 -25.89937,39.7403 -46.60742,64.62891 -20.46369,24.59491 -59.88635,60.09747 -49.67383,60.70117 10.21253,0.60369 67.57904,-47.21052 80.71485,-74.83203 11.28858,-23.73724 21.04561,-53.6461 18.08789,-53.27344 z M 129.23047,470.76172 c -6.81571,0.003 -10.3631,1.03918 -8.65039,3.82226 6.08965,9.8954 90.2422,30.29946 125.77344,23.51563 35.53123,-6.78383 77.85792,-21.23426 59.43359,-20.24609 -11.60239,0.62227 -55.69812,3.26017 -93.51563,1.13671 -26.86059,-1.50822 -65.62309,-8.23723 -83.04101,-8.22851 z"
       transform="matrix(0.96967741,0,0,0.96967741,7.8351321,540.82869)"
       id="path19163"
       inkscape:connector-curvature="0" />
    <path
       sodipodi:nodetypes="ssssscss"
       inkscape:connector-curvature="0"
       id="path19073"
       d="m 414.0244,844.42365 c 0,40.80178 -14.4911,89.71051 -46.79397,121.18291 -71.98041,70.13044 -114.30289,63.83574 -169.06104,59.55284 -95.26902,-7.4512 -172.170076,-87.74551 -172.17007,-183.30541 0,-95.56004 65.474714,-171.31356 161.03469,-171.31356 18.37239,0 20.10255,4.751 42.84102,5.68958 21.94343,-2.52052 64.45229,-2.32751 106.06698,15.13181 47.85798,20.07866 78.08239,93.60426 78.08239,153.06183 z"
       style="opacity:0.794;fill:url(#radialGradient19081);fill-opacity:1;stroke:none;stroke-width:2.46912098;stroke-linecap:round;stroke-linejoin:bevel;stroke-miterlimit:4;stroke-dasharray:none;stroke-opacity:1;paint-order:stroke fill markers" />
    <path
       style="fill:#0f2806;fill-opacity:0.43197279;fill-rule:nonzero;stroke:none;stroke-width:0.59332401px;stroke-linecap:butt;stroke-linejoin:miter;stroke-opacity:1"
       d="m 264.17067,653.04198 c 0,0 -1.13391,-2.86375 -1.13391,-2.86375 -2.00008,0.79193 9.54939,-3.73293 24.7744,-9.17035 6.3875,-2.28122 13.97326,-4.91632 21.22988,-7.23851 6.70013,-2.14411 13.39749,-4.11104 18.59814,-5.23659 9.7092,-2.09671 17.44595,-3.96336 26.17174,-6.04527 8.094,-1.93117 16.48819,-3.9117 26.81709,-6.04969 10.34964,-2.14363 20.99809,-3.14609 30.8039,-4.26303 10.53404,-1.19989 19.87392,-2.51064 28.43925,-5.21117 9.40469,-2.96714 20.09421,-5.30043 27.14646,-6.70273 9.99907,-1.98826 13.85249,-2.47055 13.85249,-2.47055 0,0 -3.83188,0.63122 -13.76261,2.89212 -6.98659,1.59061 -17.63116,4.20746 -26.8525,7.43521 -8.61475,3.0136 -18.02345,4.63309 -28.54988,6.16415 -9.85446,1.43331 -20.28964,2.74071 -30.4067,5.16222 -10.20204,2.44047 -18.47406,4.72396 -26.47829,6.95071 -8.60084,2.39272 -16.38171,4.57245 -26.06832,6.95513 -4.93545,1.2165 -11.41051,3.25734 -18.03143,5.50903 -7.14664,2.43048 -14.61055,5.15624 -20.94033,7.52912 -16.11709,6.04189 -24.48721,9.52235 -24.47547,9.5177 0,0 -1.13391,-2.86375 -1.13391,-2.86375 z"
       id="path19167"
       inkscape:connector-curvature="0"
       inkscape:path-effect="#path-effect19169"
       inkscape:original-d="m 264.17067,653.04198 c 0,0 44.32488,-17.55052 64.02483,-22.10065 19.69996,-4.55014 32.3642,-8.45026 52.76772,-13.0004 20.40354,-4.55012 41.51062,-4.55012 59.09986,-10.40029 17.58925,-5.85018 40.80703,-9.7503 40.80703,-9.7503 v 0 0" />
    <path
       style="fill:#0f2806;fill-opacity:0.43197279;fill-rule:nonzero;stroke:none;stroke-width:0.63100106px;stroke-linecap:butt;stroke-linejoin:miter;stroke-opacity:1"
       d="m 319.04527,634.42985 c 0,0 -0.042,0.56083 0.17902,1.22355 0.21568,0.64679 0.64684,1.36132 0.99005,1.4622 0.8983,0.26403 3.43293,0.97965 6.08581,1.86392 1.94461,0.64818 4.30555,1.49971 6.52541,2.48982 2.00961,0.89633 3.86875,1.89159 5.17379,2.91873 2.78153,2.22254 5.12698,5.11581 7.25817,8.58883 2.06499,3.36513 3.78692,7.0411 5.40171,10.56057 0.56144,1.14859 1.10408,2.66786 1.59041,4.23456 0.51855,1.67051 0.98298,3.42673 1.35221,4.90768 1.02755,4.1214 1.32929,5.71301 1.32929,5.71301 0,0 -0.10982,-1.61571 -0.78776,-5.82388 -0.24459,-1.51829 -0.56074,-3.30722 -0.93099,-5.04773 -0.34324,-1.61357 -0.74542,-3.24408 -1.18648,-4.54262 -1.3063,-3.61885 -2.7528,-7.54357 -4.59444,-11.20906 -1.90407,-3.78976 -4.1841,-7.2148 -7.14812,-10.00092 -1.55437,-1.46146 -3.68387,-2.76021 -5.74941,-3.8323 -2.32628,-1.20742 -4.79135,-2.23947 -6.77473,-3.00616 -2.84378,-1.09927 -5.20467,-1.85194 -6.26644,-2.16402 -0.36288,-0.10666 -1.13024,0.26149 -1.66248,0.7031 -0.54495,0.45215 -0.78502,0.96072 -0.78502,0.96072 z"
       id="path19171"
       inkscape:connector-curvature="0"
       inkscape:path-effect="#path-effect19173"
       inkscape:original-d="m 319.04527,634.42985 c 0,0 14.59307,3.85035 20.09608,8.64844 5.91735,5.15934 9.22397,12.90043 12.20122,20.17969 1.96203,4.79713 3.58857,15.13474 3.58857,15.13474"
       sodipodi:nodetypes="caac" />
    <path
       sodipodi:nodetypes="caac"
       inkscape:original-d="m 362.66907,626.11518 c 0,0 19.16981,4.18008 26.3987,9.38902 7.77315,5.60113 12.11679,14.00507 16.02778,21.90765 2.57737,5.2079 4.71405,16.43074 4.71405,16.43074"
       inkscape:path-effect="#path-effect19177"
       inkscape:connector-curvature="0"
       id="path19175"
       d="m 362.66907,626.11518 c 0,0 -0.0119,0.67437 0.32933,1.46792 0.3321,0.77236 0.95083,1.61912 1.40421,1.72925 1.16881,0.28392 4.54215,1.06719 8.01816,2.01839 2.56012,0.70057 5.67195,1.62191 8.59901,2.69479 2.65097,0.97168 5.10777,2.05318 6.8293,3.16995 3.63716,2.39541 6.68315,5.50477 9.4429,9.23151 2.67888,3.61755 4.91034,7.5747 7.00979,11.3777 0.7204,1.22586 1.41988,2.85887 2.04854,4.55103 0.67001,1.80342 1.26992,3.70143 1.74695,5.30419 1.32634,4.4563 1.71234,6.18268 1.71234,6.18268 0,0 -0.15606,-1.76145 -1.06868,-6.34214 -0.32934,-1.65304 -0.75477,-3.60428 -1.25234,-5.5037 -0.46104,-1.75995 -1.0028,-3.54742 -1.59925,-4.97774 -1.73816,-3.94706 -3.66804,-8.24045 -6.12137,-12.25604 -2.5406,-4.15842 -5.57165,-7.90743 -9.4815,-10.95005 -2.03613,-1.58537 -4.81597,-2.99342 -7.51968,-4.15916 -3.04484,-1.31284 -6.27262,-2.43637 -8.87238,-3.27183 -3.72995,-1.19866 -6.81666,-2.01649 -8.20805,-2.35447 -0.47391,-0.11512 -1.43009,0.35547 -2.08022,0.90513 -0.66739,0.56426 -0.93706,1.18259 -0.93706,1.18259 z"
       style="fill:#0f2806;fill-opacity:0.43197279;fill-rule:nonzero;stroke:none;stroke-width:0.7535401px;stroke-linecap:butt;stroke-linejoin:miter;stroke-opacity:1" />
    <path
       style="fill:#0f2806;fill-opacity:0.43197279;fill-rule:nonzero;stroke:none;stroke-width:0.60575914px;stroke-linecap:butt;stroke-linejoin:miter;stroke-opacity:1"
       d="m 416.14024,612.07459 c 0,0 -0.01,0.54211 0.26475,1.18004 0.26696,0.62089 0.76435,1.30158 1.12881,1.39011 0.9396,0.22824 3.65137,0.8579 6.44568,1.62255 2.05804,0.56317 4.55959,1.30382 6.91261,2.16629 2.13107,0.78112 4.10605,1.65052 5.48995,2.54827 2.92388,1.92564 5.3725,4.4252 7.59102,7.42108 2.15351,2.90809 3.94734,6.08918 5.63505,9.14635 0.57912,0.98545 1.14142,2.2982 1.64679,3.6585 0.53861,1.44975 1.02087,2.97553 1.40435,4.26396 1.06622,3.58234 1.37652,4.97015 1.37652,4.97015 0,0 -0.12546,-1.416 -0.8591,-5.09834 -0.26475,-1.32885 -0.60675,-2.89743 -1.00673,-4.42433 -0.37062,-1.41481 -0.80613,-2.85172 -1.28561,-4.00153 -1.39728,-3.17298 -2.94868,-6.62438 -4.92087,-9.85244 -2.04234,-3.3429 -4.47897,-6.35667 -7.62204,-8.80259 -1.63681,-1.27445 -3.87148,-2.40636 -6.04495,-3.34348 -2.4477,-1.05536 -5.04246,-1.95855 -7.13237,-2.63016 -2.99844,-0.96358 -5.4798,-1.62103 -6.59832,-1.89272 -0.38096,-0.0925 -1.14962,0.28576 -1.67225,0.72763 -0.53651,0.45359 -0.75329,0.95066 -0.75329,0.95066 z"
       id="path19179"
       inkscape:connector-curvature="0"
       inkscape:path-effect="#path-effect19181"
       inkscape:original-d="m 416.14024,612.07459 c 0,0 15.41031,3.36028 21.22149,7.54767 6.24874,4.50266 9.74051,11.25847 12.88449,17.61122 2.0719,4.18656 3.78955,13.20841 3.78955,13.20841"
       sodipodi:nodetypes="caac" />
    <path
       sodipodi:nodetypes="caac"
       inkscape:original-d="m 291.28733,641.37361 c 0,0 10.55418,-10.07569 12.72327,-16.77304 2.33238,-7.20159 1.00658,-15.43304 -0.35451,-23.11238 -0.897,-5.06079 -5.083,-14.7648 -5.083,-14.7648"
       inkscape:path-effect="#path-effect19185"
       inkscape:connector-curvature="0"
       id="path19183"
       d="m 291.28733,641.37361 v 0 c 0.0385,0.0324 0.41092,0.32284 1.13999,0.47264 0.67049,0.13776 1.50581,0.10232 1.76305,-0.15839 0.75156,-0.76168 2.39603,-2.50935 4.27129,-4.77946 1.30804,-1.58345 2.89303,-3.62241 4.26378,-5.75134 1.21583,-1.88832 2.37252,-4.01455 2.93834,-6.02107 1.07144,-3.80163 1.19448,-7.82758 0.79622,-11.97901 -0.38532,-4.01654 -1.25349,-8.07325 -2.07695,-11.79764 -0.31905,-1.32272 -0.85162,-2.91493 -1.42579,-4.46471 -0.6195,-1.67215 -1.31216,-3.36161 -1.92058,-4.78454 -1.68725,-3.94598 -2.46359,-5.3867 -2.46359,-5.3867 0,0 0.60137,1.52268 1.94666,5.58251 0.48315,1.45803 1.0331,3.19937 1.48989,4.89181 0.42842,1.58735 0.78247,3.15996 0.91949,4.41933 0.50988,3.80672 1.01142,7.79649 1.04766,11.67306 0.0374,4.00257 -0.42544,7.58475 -1.61937,10.77505 -0.56392,1.46963 -1.61958,3.17245 -2.86786,4.8714 -1.37714,1.87434 -2.95202,3.69579 -4.28011,5.15224 -1.81443,1.98981 -3.60913,3.76925 -4.24618,4.41489 -0.24188,0.24514 -0.25717,1.06345 -0.12328,1.72434 0.14657,0.72358 0.41475,1.10309 0.44734,1.14559 z"
       style="fill:#0f2806;fill-opacity:0.43197279;fill-rule:nonzero;stroke:none;stroke-width:0.63100106px;stroke-linecap:butt;stroke-linejoin:miter;stroke-opacity:1" />
    <path
       style="fill:#0f2806;fill-opacity:0.43197279;fill-rule:nonzero;stroke:none;stroke-width:0.7535401px;stroke-linecap:butt;stroke-linejoin:miter;stroke-opacity:1"
       d="m 333.56648,628.42258 c 0,0 0.53145,0.4155 1.37523,0.59947 0.8228,0.17939 1.86885,0.14803 2.21766,-0.17122 1.02277,-0.93608 3.26168,-3.07562 5.85159,-5.84092 1.80541,-1.92768 4.00273,-4.39808 5.94056,-6.95022 1.71863,-2.26344 3.38364,-4.78608 4.30488,-7.12599 1.75895,-4.46773 2.3604,-9.12721 2.31493,-13.89509 -0.0439,-4.60393 -0.69248,-9.20342 -1.31891,-13.40899 -0.25549,-1.5089 -0.75206,-3.30121 -1.30307,-5.03086 -0.59491,-1.86747 -1.28049,-3.74692 -1.88814,-5.32464 -1.68499,-4.37493 -2.49951,-5.96095 -2.49951,-5.96095 0,0 0.6017,1.67913 1.87039,6.17054 0.45601,1.61435 0.96568,3.54217 1.36355,5.42077 0.37337,1.76291 0.65333,3.50708 0.69474,4.90638 0.24422,4.27868 0.45725,8.74715 0.0995,13.12426 -0.36853,4.50971 -1.31783,8.59627 -3.15199,12.32468 -0.87116,1.73641 -2.39279,3.78807 -4.15525,5.84962 -1.943,2.27273 -4.12899,4.50157 -5.96103,6.28781 -2.49187,2.42959 -4.97158,4.65221 -5.83417,5.44169 -0.33226,0.3041 -0.4467,1.32617 -0.35393,2.15209 0.0952,0.84765 0.43292,1.43157 0.43292,1.43157 z"
       id="path19187"
       inkscape:connector-curvature="0"
       inkscape:path-effect="#path-effect19189"
       inkscape:original-d="m 333.56648,628.42258 c 0,0 14.33932,-12.47542 17.78069,-20.32583 3.70047,-8.44148 2.91402,-17.72604 2.02423,-26.37651 -0.5864,-5.70078 -4.8097,-16.40707 -4.8097,-16.40707"
       sodipodi:nodetypes="caac" />
    <path
       sodipodi:nodetypes="caac"
       inkscape:original-d="m 387.47252,615.88143 c 0,0 11.52717,-10.0288 14.29362,-16.33963 2.97477,-6.78596 2.34254,-14.24966 1.62726,-21.20367 -0.47141,-4.58275 -3.86644,-13.18937 -3.86644,-13.18937"
       inkscape:path-effect="#path-effect19193"
       inkscape:connector-curvature="0"
       id="path19191"
       d="m 387.47252,615.88143 c 0,0 0.42723,0.33402 1.10552,0.4819 0.66144,0.14422 1.50235,0.119 1.78275,-0.13764 0.82219,-0.7525 2.62202,-2.47244 4.704,-4.69543 1.45135,-1.54963 3.21774,-3.53554 4.77553,-5.58717 1.38158,-1.81955 2.72005,-3.84746 3.46062,-5.72849 1.414,-3.59151 1.8975,-7.3372 1.86095,-11.17002 -0.0353,-3.70103 -0.55668,-7.39849 -1.06025,-10.7793 -0.20539,-1.21297 -0.60458,-2.65378 -1.04752,-4.04422 -0.47825,-1.50123 -1.02937,-3.01208 -1.51785,-4.28039 -1.35453,-3.51693 -2.00931,-4.79191 -2.00931,-4.79191 0,0 0.48369,1.34983 1.50357,4.9604 0.36658,1.29775 0.7763,2.84749 1.09614,4.35766 0.30014,1.41718 0.5252,2.81929 0.55849,3.94416 0.19632,3.43958 0.36757,7.03172 0.08,10.55041 -0.29626,3.62528 -1.05939,6.91039 -2.53385,9.9076 -0.70031,1.39587 -1.92352,3.04517 -3.34033,4.70242 -1.56195,1.82702 -3.31924,3.61875 -4.79198,5.05468 -2.00318,1.95311 -3.99658,3.73984 -4.69,4.37449 -0.2671,0.24446 -0.3591,1.06609 -0.28452,1.73003 0.0765,0.68141 0.34801,1.15082 0.34801,1.15082 z"
       style="fill:#0f2806;fill-opacity:0.43197279;fill-rule:nonzero;stroke:none;stroke-width:0.60575914px;stroke-linecap:butt;stroke-linejoin:miter;stroke-opacity:1" />
    <path
       style="fill:#3e3221;fill-opacity:1;fill-rule:nonzero;stroke:none;stroke-width:0.96967739px;stroke-linecap:butt;stroke-linejoin:miter;stroke-opacity:1"
       d="m 233.86707,647.54758 c 0,0 -4.35817,1.08042 -4.35639,1.08779 0.0346,0.14326 0.62605,1.66916 1.27438,4.51482 0.27441,1.20445 0.52593,2.54005 0.66455,3.80964 0.1446,1.32436 0.11711,2.02109 0.0848,2.69075 0.35622,-0.0913 0.66522,0.0721 0.86297,0.32615 0.19808,0.25443 0.29035,0.59614 0.29277,0.91254 0.24198,0.0622 0.28004,0.25784 0.27459,0.37674 -0.007,0.1439 -0.0727,0.29091 -0.13105,0.39941 -0.1616,0.30047 -0.29233,0.46487 -0.29233,0.46487 0,0 0.0312,0.20434 0.21741,0.52832 0.0669,0.11633 0.16987,0.2738 0.30551,0.40734 0.11344,0.11168 0.32729,0.286 0.65421,0.30526 0.56234,0.0854 1.21914,0.0534 1.88278,-0.15507 0.66082,-0.20764 1.35835,-0.60221 1.92414,-1.25756 0.75841,-1.55731 1.0765,-3.38007 1.21971,-4.93569 0.1594,-1.73136 0.13182,-3.49133 0.0597,-4.91748 -0.16672,-3.29803 -0.58047,-5.64225 -0.56543,-5.58006 -0.004,-0.0173 -4.37236,1.02223 -4.37236,1.02223 z"
       id="path20450"
       inkscape:connector-curvature="0"
       inkscape:path-effect="#path-effect20452"
       inkscape:original-d="m 233.86707,647.54758 c 0,0 2.25342,9.12826 0.66285,13.257 -0.22466,0.58316 -0.74833,1.08655 -1.32571,1.32571 -0.20413,0.0846 -0.66284,0 -0.66284,0"
       sodipodi:nodetypes="caac" />
    <path
       style="color:#000000;font-style:normal;font-variant:normal;font-weight:normal;font-stretch:normal;font-size:medium;line-height:normal;font-family:sans-serif;font-variant-ligatures:normal;font-variant-position:normal;font-variant-caps:normal;font-variant-numeric:normal;font-variant-alternates:normal;font-feature-settings:normal;text-indent:0;text-align:start;text-decoration:none;text-decoration-line:none;text-decoration-style:solid;text-decoration-color:#000000;letter-spacing:normal;word-spacing:normal;text-transform:none;writing-mode:lr-tb;direction:ltr;text-orientation:mixed;dominant-baseline:auto;baseline-shift:baseline;text-anchor:start;white-space:normal;shape-padding:0;clip-rule:nonzero;display:inline;overflow:visible;visibility:visible;opacity:0.73600003;isolation:auto;mix-blend-mode:normal;color-interpolation:sRGB;color-interpolation-filters:linearRGB;solid-color:#000000;solid-opacity:1;vector-effect:none;fill:#000000;fill-opacity:1;fill-rule:nonzero;stroke:none;stroke-width:4.4000001;stroke-linecap:butt;stroke-linejoin:miter;stroke-miterlimit:4;stroke-dasharray:none;stroke-dashoffset:0;stroke-opacity:1;filter:url(#filter20490);color-rendering:auto;image-rendering:auto;shape-rendering:auto;text-rendering:auto;enable-background:accumulate"
       d="m 217.295,641.91501 c -1.38611,1.10626 -5.35344,1.35239 -3.08106,3.67773 2.36665,3.45308 3.72352,9.93648 6.68241,11.61225 2.89613,-0.88309 4.0125,-2.35923 1.5256,-5.03607 -1.70898,-3.41797 -3.41796,-6.83594 -5.12695,-10.25391 z m 8.13672,23.54297 c -1.99428,4.92819 8.46272,2.36843 2.94765,-0.20954 -0.93945,0.3679 -1.96631,0.15187 -2.94765,0.20954 z"
       id="path20454"
       inkscape:connector-curvature="0"
       transform="matrix(0.96967741,0,0,0.96967741,7.8351321,16.851678)" />
    <path
       sodipodi:nodetypes="sssss"
       inkscape:connector-curvature="0"
       id="path20608"
       d="m 127.89632,-346.29394 c -17.74306,44.2135 -72.00517,110.60333 -93.250405,110.60334 -21.245239,0 19.420965,-88.1525 37.160829,-126.76257 17.95169,-39.07111 30.045306,-79.50034 51.290546,-79.50034 21.24523,10e-6 20.28475,57.07107 4.79903,95.65957 z"
       style="opacity:0.465;fill:#d1dd5e;fill-opacity:0.99622641;stroke:none;stroke-width:3;stroke-linecap:round;stroke-linejoin:bevel;stroke-miterlimit:4;stroke-dasharray:none;stroke-opacity:1;paint-order:stroke fill markers;filter:url(#filter20638)"
       transform="matrix(-0.53067455,-0.01413862,0.08955481,0.64786837,137.12146,1127.2218)" />
  </g>
</svg>
