<?xml version="1.0" encoding="UTF-8" standalone="no"?>
<!-- Created with Inkscape (http://www.inkscape.org/) -->

<svg
   xmlns:dc="http://purl.org/dc/elements/1.1/"
   xmlns:cc="http://creativecommons.org/ns#"
   xmlns:rdf="http://www.w3.org/1999/02/22-rdf-syntax-ns#"
   xmlns:svg="http://www.w3.org/2000/svg"
   xmlns="http://www.w3.org/2000/svg"
   xmlns:sodipodi="http://sodipodi.sourceforge.net/DTD/sodipodi-0.dtd"
   xmlns:inkscape="http://www.inkscape.org/namespaces/inkscape"
   width="512"
   height="512"
   viewBox="0 0 512.00002 512.00002"
   id="svg2"
   version="1.1"
   inkscape:version="0.92.2 2405546, 2018-03-11"
   sodipodi:docname="occhiali.svg">
  <title
     id="title3615">Occhiali</title>
  <defs
     id="defs4" />
  <sodipodi:namedview
     id="base"
     pagecolor="#ffffff"
     bordercolor="#666666"
     borderopacity="1.0"
     inkscape:pageopacity="0.0"
     inkscape:pageshadow="2"
     inkscape:zoom="1.4082031"
     inkscape:cx="256"
     inkscape:cy="369.61997"
     inkscape:document-units="px"
     inkscape:current-layer="layer1"
     showgrid="false"
     units="px"
     inkscape:showpageshadow="false"
     inkscape:window-width="1920"
     inkscape:window-height="994"
     inkscape:window-x="0"
     inkscape:window-y="21"
     inkscape:window-maximized="1" />
  <metadata
     id="metadata7">
    <rdf:RDF>
      <cc:Work
         rdf:about="">
        <dc:format>image/svg+xml</dc:format>
        <dc:type
           rdf:resource="http://purl.org/dc/dcmitype/StillImage" />
        <dc:title>Occhiali</dc:title>
        <cc:license
           rdf:resource="http://creativecommons.org/licenses/by-sa/4.0/" />
        <dc:date>2019</dc:date>
        <dc:creator>
          <cc:Agent>
            <dc:title>Cristian Pozzessere  &lt; ilnanny &gt;</dc:title>
          </cc:Agent>
        </dc:creator>
        <dc:subject>
          <rdf:Bag>
            <rdf:li>ilnanny</rdf:li>
          </rdf:Bag>
        </dc:subject>
      </cc:Work>
      <cc:License
         rdf:about="http://creativecommons.org/licenses/by-sa/4.0/">
        <cc:permits
           rdf:resource="http://creativecommons.org/ns#Reproduction" />
        <cc:permits
           rdf:resource="http://creativecommons.org/ns#Distribution" />
        <cc:requires
           rdf:resource="http://creativecommons.org/ns#Notice" />
        <cc:requires
           rdf:resource="http://creativecommons.org/ns#Attribution" />
        <cc:permits
           rdf:resource="http://creativecommons.org/ns#DerivativeWorks" />
        <cc:requires
           rdf:resource="http://creativecommons.org/ns#ShareAlike" />
      </cc:License>
    </rdf:RDF>
  </metadata>
  <g
     inkscape:label="Livello 1"
     inkscape:groupmode="layer"
     id="layer1"
     transform="translate(0,-540.3622)">
    <path
       style="opacity:1;fill:#eff4f7;fill-opacity:1;stroke:none;stroke-width:1.11829257;stroke-linecap:round;stroke-linejoin:round;stroke-miterlimit:4;stroke-dasharray:none;stroke-opacity:1;paint-order:stroke markers fill"
       d="M 0.55915833,540.92133 H 511.44084 V 1051.803 H 0.55915833 Z"
       id="rect3591" />
    <path
       inkscape:connector-curvature="0"
       id="path24"
       style="fill:#333333;fill-opacity:1;fill-rule:evenodd;stroke:none;stroke-width:0.93548495"
       d="m 208.79228,622.36863 c -1.63616,9.85346 -4.07029,17.45896 -10.59998,21.50773 -9.55785,5.9263 -33.57736,5.45482 -43.32698,0 -6.51846,-3.64371 -10.12102,-10.2052 -12.71885,-19.3898 -1.26478,-4.437 -3.1423,-11.88347 -1.52204,-17.26812 2.32935,-7.7589 17.21759,-10.68791 29.09077,-11.51113 12.54486,-0.87375 33.37437,-0.70162 38.16966,6.66252 2.76342,4.24336 1.99165,13.48969 0.90742,19.9988 m -98.43734,2.11793 c -2.60158,9.1846 -6.20226,15.74609 -12.72353,19.3898 -9.746819,5.45482 -33.768202,5.9263 -43.32231,0 -6.533427,-4.04877 -8.965688,-11.65427 -10.604658,-21.50773 -1.085163,-6.50911 -1.853196,-15.75544 0.90555,-19.9988 4.797167,-7.36414 25.629481,-7.53627 38.175271,-6.66252 11.867563,0.82322 26.755807,3.75223 29.083297,11.51113 1.62213,5.38465 -0.25165,12.83112 -1.51362,17.26812 m 113.28162,-30.59784 c -19.10354,-6.96842 -49.12325,-7.17984 -70.28392,-2.72601 -3.57449,0.71472 -16.2026,4.81682 -17.2728,5.14892 -2.88784,0.89339 -5.75229,1.28723 -8.59524,1.33961 v -0.0365 c -0.41629,0.0188 -0.82415,0.0299 -1.23483,0.0402 -0.41162,-0.0104 -0.8251,-0.0215 -1.23952,-0.0402 v 0.0365 c -2.83733,-0.0524 -5.70178,-0.44622 -8.59524,-1.33961 -1.07019,-0.3321 -13.69269,-4.4342 -17.268116,-5.14892 -21.160669,-4.45383 -51.18693,-4.24241 -70.288599,2.72601 0.122548,5.04133 -1.246065,11.53734 0,16.66099 0.612743,2.52487 3.751295,5.44732 5.149845,7.87866 4.45478,7.74113 6.864589,19.77241 12.723531,25.75016 7.315493,7.46236 23.941868,8.10035 37.569077,7.27432 20.215832,-1.22455 25.391872,-11.61498 31.812102,-26.66225 2.16845,-5.08156 3.84204,-11.83015 8.8974,-12.73569 0.435,-0.0683 0.84474,-0.1001 1.23952,-0.10291 0.39289,0.003 0.80078,0.0346 1.23483,0.10291 5.06005,0.90554 6.73175,7.65413 8.89834,12.73569 6.42866,15.04727 11.59814,25.4377 31.81397,26.66225 13.62908,0.82603 30.25639,0.18804 37.57095,-7.27432 5.85426,-5.97775 8.2622,-18.00903 12.71885,-25.75016 1.39949,-2.43134 4.53898,-5.35379 5.14985,-7.87866 1.25261,-5.12365 -0.12256,-11.61966 0,-16.66099" />
    <path
       inkscape:connector-curvature="0"
       id="path28"
       style="fill:#c1f4ef;fill-opacity:1;fill-rule:nonzero;stroke:none;stroke-width:0.93548495"
       d="m 207.75314,602.39874 c -4.79716,-7.36321 -25.62012,-7.5344 -38.16966,-6.66253 -11.87037,0.82136 -26.75673,3.75316 -29.08984,11.51208 -1.61651,5.38652 0.25633,12.83017 1.51549,17.26999 2.60346,9.18085 6.20414,15.74327 12.72541,19.38792 9.74868,5.45482 33.76819,5.92443 43.32417,0 6.53249,-4.04784 8.96475,-11.65427 10.60466,-21.51054 1.08049,-6.50629 1.8532,-15.75263 -0.91023,-19.99692" />
    <path
       inkscape:connector-curvature="0"
       id="path32"
       style="fill:#c1f4ef;fill-opacity:1;fill-rule:nonzero;stroke:none;stroke-width:0.93548495"
       d="m 82.658036,595.73658 c -12.547659,-0.87187 -33.381845,-0.70067 -38.174334,6.66253 -2.76623,4.2443 -1.993519,13.49063 -0.908357,19.99692 1.636163,9.85534 4.06936,17.46271 10.600916,21.51055 9.553173,5.92348 33.573621,5.45387 43.326052,0 6.518457,-3.64559 10.120077,-10.20708 12.720727,-19.38793 1.25916,-4.43981 3.132,-11.88346 1.52016,-17.27092 -2.3331,-7.75891 -17.219471,-10.68978 -29.085164,-11.51115" />
    <path
       inkscape:connector-curvature="0"
       id="path36"
       style="fill:#ffffff;fill-opacity:1;fill-rule:nonzero;stroke:none;stroke-width:0.93548495"
       d="m 82.741201,595.69271 c -4.197521,-0.29187 -9.321172,-0.46494 -14.460726,-0.29281 l -21.643381,38.77398 c 1.667034,4.16478 4.018844,7.47921 7.612976,9.71034 2.748456,1.70726 6.70275,2.87475 11.162208,3.55765 l 28.135646,-50.41328 c -3.601618,-0.67169 -7.332332,-1.09546 -10.806723,-1.33588" />
    <path
       inkscape:connector-curvature="0"
       id="path72"
       style="fill:#ffffff;fill-opacity:1;fill-rule:nonzero;stroke:none;stroke-width:0.93548495"
       d="m 82.741201,595.69271 c -4.197521,-0.29187 -9.321172,-0.46494 -14.460726,-0.29281 l -21.643381,38.77398 c 1.667034,4.16478 4.018844,7.47921 7.612976,9.71034 2.748456,1.70726 6.70275,2.87475 11.162208,3.55765 l 28.135646,-50.41328 c -3.601618,-0.67169 -7.332332,-1.09546 -10.806723,-1.33588" />
    <path
       inkscape:connector-curvature="0"
       id="path82"
       style="fill:#ffffff;fill-opacity:1;fill-rule:nonzero;stroke:none;stroke-width:0.93548495"
       d="m 101.75961,599.15597 -27.340483,48.99135 c 1.345228,0.0159 2.696068,-0.009 4.036618,-0.0645 L 105.01229,600.5087 c -1.01313,-0.49393 -2.09922,-0.94578 -3.25268,-1.35271" />
    <path
       inkscape:connector-curvature="0"
       id="path118"
       style="fill:#ffffff;fill-opacity:1;fill-rule:nonzero;stroke:none;stroke-width:0.93548495"
       d="m 101.75961,599.15597 -27.340483,48.99135 c 1.345228,0.0159 2.696068,-0.009 4.036618,-0.0645 L 105.01229,600.5087 c -1.01313,-0.49393 -2.09922,-0.94578 -3.25268,-1.35271" />
    <path
       inkscape:connector-curvature="0"
       id="path128"
       style="fill:#ffffff;fill-opacity:1;fill-rule:nonzero;stroke:none;stroke-width:0.93548495"
       d="m 169.69237,595.69271 c -1.03464,0.0692 -2.09268,0.1609 -3.161,0.26474 l -21.12511,37.40631 c 2.28725,4.64749 5.2621,8.18362 9.4353,10.52046 2.3228,1.29845 5.45575,2.30784 9.00217,3.02068 l 28.72313,-50.85952 c -7.58679,-0.9757 -16.3448,-0.80731 -22.87449,-0.35267" />
    <path
       inkscape:connector-curvature="0"
       id="path164"
       style="fill:#ffffff;fill-opacity:1;fill-rule:nonzero;stroke:none;stroke-width:0.93548495"
       d="m 169.69237,595.69271 c -1.03464,0.0692 -2.09268,0.1609 -3.161,0.26474 l -21.12511,37.40631 c 2.28725,4.64749 5.2621,8.18362 9.4353,10.52046 2.3228,1.29845 5.45575,2.30784 9.00217,3.02068 l 28.72313,-50.85952 c -7.58679,-0.9757 -16.3448,-0.80731 -22.87449,-0.35267" />
    <path
       inkscape:connector-curvature="0"
       id="path174"
       style="fill:#ffffff;fill-opacity:1;fill-rule:nonzero;stroke:none;stroke-width:0.93548495"
       d="m 200.89866,597.82768 -28.33771,50.18315 c 1.34896,0.0824 2.72039,0.13285 4.089,0.13845 l 27.61178,-48.89499 c -0.9963,-0.54165 -2.13103,-1.01687 -3.36307,-1.42661" />
    <path
       inkscape:connector-curvature="0"
       id="path210"
       style="fill:#ffffff;fill-opacity:1;fill-rule:nonzero;stroke:none;stroke-width:0.93548495"
       d="m 200.89866,597.82768 -28.33771,50.18315 c 1.34896,0.0824 2.72039,0.13285 4.089,0.13845 l 27.61178,-48.89499 c -0.9963,-0.54165 -2.13103,-1.01687 -3.36307,-1.42661" />
    <path
       inkscape:connector-curvature="0"
       id="path220"
       style="fill:#c1f4ef;fill-opacity:1;fill-rule:nonzero;stroke:none;stroke-width:0.93548495"
       d="M 97.027368,845.97694 H 58.129901 c -6.771976,0 -12.265144,7.21166 -12.265144,16.10813 v 16.69279 c 0,8.89927 5.493168,16.11092 12.265144,16.11092 h 38.897467 c 6.777592,0 12.265142,-7.21165 12.265142,-16.11092 v -16.69279 c 0,-8.89647 -5.48755,-16.10813 -12.265142,-16.10813" />
    <path
       inkscape:connector-curvature="0"
       id="path224"
       style="fill:#c1f4ef;fill-opacity:1;fill-rule:nonzero;stroke:none;stroke-width:0.93548495"
       d="m 209.33991,845.97694 h -38.89278 c -6.77666,0 -12.26982,7.21166 -12.26982,16.10813 v 16.69279 c 0,8.89927 5.49316,16.11092 12.26982,16.11092 h 38.89278 c 6.77759,0 12.27076,-7.21165 12.27076,-16.11092 v -16.69279 c 0,-8.89647 -5.49317,-16.10813 -12.27076,-16.10813" />
    <path
       inkscape:connector-curvature="0"
       id="path228"
       style="fill:#333333;fill-opacity:1;fill-rule:nonzero;stroke:none;stroke-width:0.93548495"
       d="m 221.61039,878.77739 c 0,8.9002 -5.49317,16.11186 -12.27075,16.11186 h -38.89186 c -6.77759,0 -12.27075,-7.21166 -12.27075,-16.11186 V 862.0846 c 0,-8.89646 5.49316,-16.10813 12.27075,-16.10813 h 38.89186 c 6.77758,0 12.27075,7.21167 12.27075,16.10813 v 0.63799 15.42242 z m -112.31713,0 c 0,8.9002 -5.48849,16.11186 -12.26608,16.11186 H 58.13065 c -6.772912,0 -12.266079,-7.21166 -12.266079,-16.11186 v -3.40423 -13.28856 c 0,-8.89646 5.493167,-16.10813 12.266079,-16.10813 h 38.89653 c 6.77759,0 12.26608,7.21167 12.26608,16.10813 z m 121.2641,-16.0548 h -2.04309 v -0.63799 c 0,-5.80282 -1.77742,-11.33715 -5.00484,-15.57209 -3.60069,-4.72888 -8.76549,-7.43992 -14.16979,-7.43992 h -38.89186 c -5.40429,0 -10.56724,2.71104 -14.16886,7.43992 -2.74284,3.59694 -4.43513,8.13404 -4.88041,12.97424 -3.33782,-1.1731 -8.85624,-2.42103 -17.19142,-2.42103 -10.17901,0 -15.55431,1.86535 -18.07356,3.17223 -0.33398,-5.12366 -2.05526,-9.9414 -4.93843,-13.72544 -3.60162,-4.72888 -8.76176,-7.43992 -14.16792,-7.43992 H 58.13065 c -5.399619,0 -10.56911,2.71104 -14.164179,7.43992 -2.831713,3.71388 -4.546457,8.42123 -4.927199,13.44198 h -2.352745 c -2.538906,0 -4.600715,2.06275 -4.600715,4.60072 v 6.21537 c 0,2.5417 2.061809,4.60258 4.600715,4.60258 h 2.271358 v 3.40423 c 0,5.80655 1.776486,11.33715 5.008586,15.57395 3.595069,4.73076 8.76456,7.44272 14.164179,7.44272 h 38.89653 c 5.40616,0 10.5663,-2.71196 14.16792,-7.44272 3.22836,-4.2368 5.00391,-9.7674 5.00391,-15.57395 v -10.51111 c 2.38174,-1.57909 7.96472,-4.35468 17.86496,-4.35468 7.75797,0 13.58604,1.70539 17.20918,3.19936 v 11.66643 c 0,5.80655 1.77836,11.33715 5.00577,15.57395 3.60162,4.73076 8.76457,7.44272 14.16886,7.44272 h 38.89186 c 5.4043,0 10.5691,-2.71196 14.16979,-7.44272 3.22742,-4.2368 5.00484,-9.7674 5.00484,-15.57395 v -0.63238 h 2.04309 c 2.54079,0 4.59978,-2.06088 4.59978,-4.60446 v -6.21163 c 0,-2.54732 -2.05899,-4.60633 -4.59978,-4.60633" />
    <path
       inkscape:connector-curvature="0"
       id="path232"
       style="fill:#ffffff;fill-opacity:1;fill-rule:nonzero;stroke:none;stroke-width:0.93548495"
       d="m 71.367388,845.97694 -25.50787,25.51068 v 7.29024 c 0,4.72233 1.553841,8.9526 4.017909,11.89937 l 44.699344,-44.70029 z" />
    <path
       inkscape:connector-curvature="0"
       id="path236"
       style="fill:#ffffff;fill-opacity:1;fill-rule:nonzero;stroke:none;stroke-width:0.93548495"
       d="m 66.979964,894.88897 h 7.774815 l 34.470751,-34.46888 c -0.17681,-2.25826 -0.71378,-4.36872 -1.52671,-6.24998 z" />
    <path
       inkscape:connector-curvature="0"
       id="path240"
       style="fill:#ffffff;fill-opacity:1;fill-rule:nonzero;stroke:none;stroke-width:0.93548495"
       d="m 209.33589,845.97694 h -24.86238 l -26.29836,26.29929 v 6.50163 c 0,5.84772 2.37333,10.94611 5.92443,13.77221 l 46.48986,-46.4908 c -0.41442,-0.0552 -0.83164,-0.0824 -1.25355,-0.0824" />
    <path
       inkscape:connector-curvature="0"
       id="path244"
       style="fill:#ffffff;fill-opacity:1;fill-rule:nonzero;stroke:none;stroke-width:0.93548495"
       d="m 219.16756,852.4724 -42.41676,42.41675 h 8.81695 l 35.81317,-35.81692 c -0.34707,-2.44161 -1.12633,-4.68302 -2.21336,-6.59983" />
    <path
       inkscape:connector-curvature="0"
       id="path312"
       style="fill:#c1f4ef;fill-opacity:1;fill-rule:evenodd;stroke:none;stroke-width:0.93548495"
       d="m 306.36093,594.86593 c -2.97577,3.64371 -4.56703,7.90298 -4.7719,12.21275 -0.20488,4.31072 0.36016,10.87877 1.64177,15.6516 4.68117,17.41593 16.27556,25.49478 33.42301,24.57707 22.7379,-1.2152 34.07878,-26.07104 33.23123,-46.38509 -0.20487,-4.92626 -0.92333,-8.92827 -3.28449,-10.77585 -3.18065,-2.4912 -10.44469,-3.44071 -14.36624,-3.69517 -11.09017,-0.71845 -37.95637,-1.276 -45.87338,8.41469" />
    <path
       inkscape:connector-curvature="0"
       id="path316"
       style="fill:#c1f4ef;fill-opacity:1;fill-rule:evenodd;stroke:none;stroke-width:0.93548495"
       d="m 392.82566,600.92188 c -0.84661,20.315 10.49333,45.16989 33.23123,46.38509 17.14838,0.91772 28.74091,-7.16114 33.42208,-24.57706 1.28161,-4.77284 1.84758,-11.34088 1.64271,-15.65066 -0.20581,-4.30978 -1.79613,-8.56998 -4.77191,-12.2137 -7.91795,-9.69068 -34.78133,-9.13313 -45.87244,-8.41468 -3.92249,0.25445 -11.18653,1.2049 -14.36718,3.69517 -2.36117,1.84758 -3.07962,5.84958 -3.28449,10.77584" />
    <path
       inkscape:connector-curvature="0"
       id="path320"
       style="fill:#333333;fill-opacity:1;fill-rule:evenodd;stroke:none;stroke-width:0.93548495"
       d="m 366.60008,590.1465 v 0 c 2.36117,1.84759 3.07962,5.84865 3.28543,10.77585 0.84661,20.31405 -10.49334,45.16989 -33.23216,46.38509 -17.14745,0.91772 -28.74092,-7.16114 -33.42208,-24.57707 -1.28161,-4.77283 -1.84758,-11.34087 -1.64178,-15.65158 0.20488,-4.30979 1.79613,-8.56905 4.77098,-12.21277 7.91701,-9.69069 34.78321,-9.13313 45.87431,-8.41468 3.92061,0.25445 11.18559,1.20396 14.3653,3.69516 m 29.50988,0 v 0 c 3.18065,-2.4912 10.44469,-3.44071 14.36717,-3.69516 11.09112,-0.71845 37.95545,-1.27601 45.87245,8.41468 2.97578,3.64372 4.5661,7.90298 4.77191,12.21277 0.20487,4.31071 -0.3611,10.87875 -1.64272,15.65158 -4.68116,17.41593 -16.27369,25.49479 -33.42112,24.57707 -22.73884,-1.2152 -34.07879,-26.07104 -33.23218,-46.38509 0.20487,-4.9272 0.92333,-8.92826 3.28449,-10.77585 m -21.43944,11.16221 v 0 c -0.60433,0.46868 -1.45655,-1.06084 -1.54075,-1.53981 -0.83913,-4.77752 0.27971,-11.63743 -6.41275,-12.87976 h 29.27788 c -6.6934,1.24233 -5.57362,8.10224 -6.41463,12.87976 -0.0833,0.47897 -0.93642,1.97481 -1.5398,1.53981 -0.60246,-0.43594 -12.76751,-0.46868 -13.36995,0 m -69.16977,-10.46807 c -3.63436,4.04035 -5.24526,7.50913 -6.51565,12.08459 0,0 -3.33593,0.12816 -4.46506,1.10294 -1.12914,0.97384 -1.1544,4.38742 -0.12817,5.13113 1.02529,0.74371 4.38649,0.69226 4.38649,0.69226 -0.0252,24.08873 12.95928,41.25021 37.7356,40.35776 12.2193,-0.44062 21.86228,-5.65408 28.81668,-17.5497 3.90003,-6.67095 6.66907,-14.9818 7.28649,-19.29252 0.61554,-4.31071 1.12819,-6.46512 2.15442,-7.08162 0.82977,-0.49767 5.01138,-0.55941 6.583,-0.56502 1.57349,0.006 5.75511,0.0674 6.58489,0.56502 1.02529,0.6165 1.53887,2.77091 2.15442,7.08162 0.61555,4.31072 3.38645,12.62157 7.28649,19.29252 6.9544,11.89562 16.59644,17.10908 28.81761,17.5497 24.77445,0.89245 37.76085,-16.26903 37.73373,-40.35776 0,0 3.36119,0.0514 4.38555,-0.69226 1.02717,-0.74371 1.00191,-4.15729 -0.12629,-5.13113 -1.13007,-0.97478 -4.46601,-1.10294 -4.46601,-1.10294 -1.26945,-4.57546 -2.88036,-8.04424 -6.51565,-12.08459 -3.37991,-3.75598 -11.51957,-6.53344 -21.49651,-7.31831 -24.70989,-1.94581 -81.99619,-1.81484 -106.7669,-0.26007 -10.8273,0.67917 -19.83135,3.5642 -23.44513,7.57838" />
    <path
       inkscape:connector-curvature="0"
       id="path324"
       style="fill:#ffffff;fill-opacity:1;fill-rule:evenodd;stroke:none;stroke-width:0.93548495"
       d="m 338.2359,586.13317 -24.48165,54.57621 c 5.6915,4.80184 13.17258,6.99462 22.23742,6.62977 l 26.53129,-59.1423 c -3.42107,-1.07954 -7.62513,-1.57347 -10.28846,-1.74561 -3.47533,-0.22545 -8.49513,-0.43501 -13.9986,-0.31807" />
    <path
       inkscape:connector-curvature="0"
       id="path328"
       style="fill:#ffffff;fill-opacity:1;fill-rule:evenodd;stroke:none;stroke-width:0.93548495"
       d="m 424.08583,586.12588 -21.5358,48.00815 c 4.78313,6.40807 11.30158,11.17531 19.51234,12.70108 l 25.72116,-57.33961 c -6.80846,-2.41262 -15.7807,-3.22369 -23.6977,-3.36962" />
    <path
       inkscape:connector-curvature="0"
       id="path332"
       style="fill:#ffffff;fill-opacity:1;fill-rule:evenodd;stroke:none;stroke-width:0.93548495"
       d="m 306.52259,631.41795 c 0.75213,1.4631 1.57816,2.82142 2.47528,4.08152 l 23.52465,-49.12045 c -1.86162,0.12161 -3.73352,0.28907 -5.58484,0.51359 z" />
    <path
       inkscape:connector-curvature="0"
       id="path336"
       style="fill:#ffffff;fill-opacity:1;fill-rule:evenodd;stroke:none;stroke-width:0.93548495"
       d="m 396.91747,624.06419 c 0.65671,1.59875 1.39668,3.15258 2.20681,4.65779 l 18.86874,-42.58703 c -1.29471,0.0252 -2.52114,0.0645 -3.66898,0.1132 z" />
    <path
       inkscape:connector-curvature="0"
       id="path340"
       style="fill:#333333;fill-opacity:1;fill-rule:evenodd;stroke:none;stroke-width:0.93548495"
       d="m 42.888044,737.19212 v 0 c 0.07016,-7.79354 3.69236,-13.17163 10.851627,-16.16893 3.757843,-1.57255 7.726169,-2.28445 11.724433,-2.76623 8.593365,-1.03558 17.173633,-0.8382 25.699643,0.70629 3.910327,0.70816 7.731781,1.798 11.037783,4.08714 4.33692,3.00384 6.49133,7.32765 6.82249,12.51865 0.55756,8.7524 -1.46309,17.01086 -5.1751,24.87829 -3.22555,6.8356 -8.731813,10.87034 -15.950016,12.80024 -8.655107,2.31346 -13.870435,2.49307 -22.397381,0.48739 -10.354883,-2.43694 -18.601184,-13.06404 -20.92867,-23.08403 -1.03184,-4.43981 -1.72597,-8.89739 -1.684809,-13.45881 m 167.149646,0 v 0 c 0.0412,4.56142 -0.65297,9.019 -1.6848,13.45881 -2.32843,10.01999 -10.57285,20.64709 -20.92961,23.08403 -8.52602,2.00568 -13.74134,1.82607 -22.39645,-0.48739 -7.2182,-1.9299 -12.72539,-5.96464 -15.95001,-12.80024 -3.71201,-7.86743 -5.73359,-16.12589 -5.17511,-24.87829 0.33023,-5.191 2.48652,-9.51481 6.8225,-12.51865 3.306,-2.28914 7.12745,-3.37898 11.03778,-4.08714 8.52507,-1.54449 17.10534,-1.74187 25.69871,-0.70629 3.99919,0.48178 7.96752,1.19368 11.72537,2.76623 7.15833,2.9973 10.78146,8.37539 10.85162,16.16893 m -107.5078,-19.71909 c -8.74772,-3.29572 -17.878054,-4.37621 -28.730615,-4.44357 -1.727841,0.11226 -5.023554,0.23201 -8.300559,0.54914 -9.217333,0.89152 -29.360196,3.3874 -37.185528,7.83469 -0.368581,0.20861 -0.67542,0.87 -0.67542,1.32371 0,2.44068 0.04023,4.88604 0.197387,7.32016 0.117871,1.82046 0.923323,3.17878 2.819552,3.85607 3.25923,1.16562 5.444523,3.46878 6.532491,6.7776 1.257292,3.82894 2.472487,7.67284 3.778425,11.48495 1.98697,5.80281 4.721393,11.22114 8.807591,15.84337 5.38278,6.08814 12.42137,8.95072 20.299088,9.9601 7.182654,0.92052 14.236211,0.18992 21.117638,-2.088 4.343458,-1.4369 8.099431,-3.79525 11.25482,-7.13213 2.84855,-3.01133 4.98426,-6.46795 6.74204,-10.20053 2.80084,-5.95062 4.94217,-12.10892 6.30236,-18.55441 0.36858,-1.74468 0.28533,-3.07495 -0.93174,-4.54739 -1.91869,-2.32469 -0.7381,-5.6784 2.16846,-6.48759 6.01329,-1.67452 13.46069,-1.67452 19.47399,0 2.90654,0.80919 4.08713,4.1629 2.16845,6.48759 -1.21706,1.47244 -1.30126,2.80271 -0.93268,4.54739 1.36113,6.44549 3.50153,12.60379 6.3033,18.55441 1.75777,3.73258 3.89348,7.1892 6.74204,10.20053 3.15445,3.33688 6.91043,5.69523 11.25388,7.13213 6.88236,2.27792 13.93498,3.00852 21.11858,2.088 7.87771,-1.00938 14.9163,-3.87196 20.29815,-9.9601 4.08713,-4.62223 6.82156,-10.04056 8.80853,-15.84337 1.30499,-3.81211 2.52113,-7.65601 3.77842,-11.48495 1.08796,-3.30882 3.27326,-5.61198 6.53249,-6.7776 1.89529,-0.67729 2.70168,-2.03561 2.81956,-3.85607 0.15715,-2.43412 0.19738,-4.87948 0.19738,-7.32016 0,-0.45371 -0.30871,-1.1151 -0.67636,-1.32371 -7.82439,-4.44729 -27.96819,-6.94317 -37.18459,-7.83469 -3.277,-0.31713 -6.57272,-0.43688 -8.30149,-0.54914 -10.85256,0.0674 -19.98196,1.14785 -28.72968,4.44357 -2.56978,0.96822 -5.03946,2.20587 -7.53065,3.37242 -1.48462,0.696 -2.85136,0.64922 -4.3341,-0.0917 -0.90649,-0.45371 -1.9954,-0.75308 -3.00291,-0.75588 -6.03855,-0.015 -12.09208,-0.015 -18.13157,0 -1.00751,0.003 -2.09549,0.30217 -3.00197,0.75588 -1.48275,0.7409 -2.84949,0.78767 -4.3341,0.0917 -2.4912,-1.16655 -4.96182,-2.4042 -7.53066,-3.37242" />
    <path
       inkscape:connector-curvature="0"
       id="path344"
       style="fill:#c1f4ef;fill-opacity:1;fill-rule:evenodd;stroke:none;stroke-width:0.93548495"
       d="m 102.20135,723.05066 c -3.306005,-2.29006 -7.127463,-3.37897 -11.03779,-4.08712 -8.526011,-1.54542 -17.105343,-1.74188 -25.699644,-0.70629 -3.998262,0.48177 -7.966589,1.19366 -11.724433,2.76623 -7.159267,2.99728 -10.781464,8.37539 -10.851625,16.16891 -0.04116,4.56142 0.652968,9.01901 1.684808,13.45882 2.327487,10.01905 10.573786,20.64709 20.929605,23.0831 8.526011,2.00661 13.741339,1.82607 22.396446,-0.48645 7.218202,-1.92991 12.724463,-5.96466 15.950023,-12.80024 3.712,-7.86744 5.73359,-16.12589 5.1751,-24.87923 -0.33116,-5.19007 -2.48558,-9.51389 -6.82249,-12.51773" />
    <path
       inkscape:connector-curvature="0"
       id="path348"
       style="fill:#c1f4ef;fill-opacity:1;fill-rule:evenodd;stroke:none;stroke-width:0.93548495"
       d="m 150.72411,723.05066 c -4.33597,3.00384 -6.49133,7.32766 -6.82249,12.51773 -0.55848,8.75334 1.4631,17.01179 5.17511,24.87923 3.22555,6.83558 8.7318,10.87033 15.95001,12.80024 8.65511,2.31252 13.87043,2.49306 22.39644,0.48645 10.35675,-2.43601 18.60119,-13.06405 20.92962,-23.0831 1.03183,-4.43981 1.72596,-8.8974 1.6848,-13.45882 -0.0702,-7.79352 -3.69236,-13.17163 -10.85163,-16.16891 -3.75784,-1.57257 -7.72617,-2.28446 -11.72537,-2.76623 -8.59336,-1.03559 -17.17363,-0.83913 -25.6987,0.70629 -3.91033,0.70815 -7.73178,1.79706 -11.03779,4.08712" />
    <path
       inkscape:connector-curvature="0"
       id="path352"
       style="fill:#ffffff;fill-opacity:1;fill-rule:evenodd;stroke:none;stroke-width:0.93548495"
       d="m 101.71761,722.72633 c -3.192816,-2.07022 -6.83372,-3.08897 -10.554144,-3.76251 -5.191005,-0.94111 -10.402593,-1.38265 -15.625405,-1.34898 l -22.003543,49.05028 c 3.385521,3.41733 7.478268,6.0133 11.96766,7.06946 4.920651,1.15626 8.73743,1.58659 12.75066,1.2994 z" />
    <path
       inkscape:connector-curvature="0"
       id="path356"
       style="fill:#ffffff;fill-opacity:1;fill-rule:evenodd;stroke:none;stroke-width:0.93548495"
       d="m 172.43812,717.72598 -20.97077,46.74898 c 3.28075,4.44543 7.89362,7.2575 13.55892,8.77299 3.87478,1.03465 7.06104,1.64271 10.16217,1.81857 l 24.2038,-53.95502 c -0.0683,-0.0299 -0.13657,-0.059 -0.2058,-0.0879 -3.75877,-1.57256 -7.7271,-2.28446 -11.72537,-2.76624 -5.0142,-0.60526 -10.02466,-0.78954 -15.02295,-0.53135" />
    <path
       inkscape:connector-curvature="0"
       id="path360"
       style="fill:#ffffff;fill-opacity:1;fill-rule:evenodd;stroke:none;stroke-width:0.93548495"
       d="m 45.650157,754.2359 c 0.577195,1.57255 1.286292,3.13387 2.117004,4.65123 L 69.044766,717.9026 c -1.193679,0.0964 -2.385487,0.21048 -3.580101,0.35455 -0.674484,0.0804 -1.346163,0.17212 -2.018776,0.27035 z" />
    <path
       inkscape:connector-curvature="0"
       id="path364"
       style="fill:#ffffff;fill-opacity:1;fill-rule:evenodd;stroke:none;stroke-width:0.93548495"
       d="m 147.59473,757.04694 c 0.39383,0.97851 0.8148,1.95142 1.26197,2.91964 l 18.50482,-41.81337 c -0.71284,0.0804 -1.42661,0.16372 -2.13945,0.26194 z" />
    <path
       inkscape:connector-curvature="0"
       id="path368"
       style="fill:#333333;fill-opacity:1;fill-rule:evenodd;stroke:none;stroke-width:0.93548495"
       d="m 382.5371,735.70946 v 0 c -15.96031,-8.67755 -37.50078,-13.89475 -54.89987,-17.18485 -6.02452,-1.13849 -25.28428,-3.86356 -27.11035,-0.95139 -2.58849,4.13016 0.51452,14.30168 4.73916,23.89509 3.64278,8.27623 8.12281,16.12214 10.50457,19.28595 15.33727,20.38049 50.28979,22.22151 65.19487,0.21985 1.43598,-2.11982 2.55481,-4.45198 3.81491,-6.69059 1.17685,-2.09269 1.95985,-3.76907 4.75508,-3.96646 2.79336,0.19739 3.57635,1.87377 4.75413,3.96646 1.2601,2.23861 2.37988,4.57077 3.81397,6.69059 14.90509,22.00166 49.85762,20.16064 65.19582,-0.21985 2.38268,-3.16381 6.86085,-11.00972 10.5055,-19.28595 4.22371,-9.59341 7.32578,-19.76493 4.73823,-23.89509 -1.827,-2.91217 -21.08676,-0.1871 -27.1113,0.95139 -17.39814,3.2901 -38.93955,8.5073 -54.89986,17.18485 -3.16568,1.72223 -5.0881,2.64274 -6.99649,2.75875 -1.91026,-0.11601 -3.83269,-1.03652 -6.99837,-2.75875 m -33.7364,-6.22378 v 0 c -6.54371,-1.27133 -13.13794,-2.21055 -19.82666,-2.19185 -2.92246,0.008 -5.78223,0.43127 -8.56063,1.44908 -2.88971,1.05803 -4.2181,3.27606 -4.93841,6.04323 -0.8382,3.22275 -0.30029,6.3903 0.33021,9.57094 2.11888,10.68605 7.97314,19.10355 17.7527,24.12055 18.82383,9.66076 48.20929,-2.56697 48.489,-21.69109 0.043,-2.98606 -1.70819,-5.75791 -5.01982,-8.01898 -6.19852,-4.23307 -20.92118,-7.86275 -28.22639,-9.28188 m 81.46765,0 c 6.54372,-1.27133 13.13795,-2.21055 19.82667,-2.19185 2.92339,0.008 5.7813,0.43127 8.56249,1.44908 2.88785,1.05803 4.21624,3.27606 4.93656,6.04323 0.83913,3.22275 0.30122,6.3903 -0.32929,9.57094 -2.11888,10.68605 -7.97408,19.10355 -17.75176,24.12055 -18.8257,9.66076 -48.21022,-2.56697 -48.48993,-21.69109 -0.044,-2.98606 1.70819,-5.75791 5.02075,-8.01898 6.19852,-4.23307 20.91932,-7.86275 28.22451,-9.28188" />
    <path
       inkscape:connector-curvature="0"
       id="path372"
       style="fill:#c1f4ef;fill-opacity:1;fill-rule:evenodd;stroke:none;stroke-width:0.93548495"
       d="m 377.02747,738.7671 c -6.19853,-4.23214 -20.92119,-7.86182 -28.22732,-9.28096 -6.54279,-1.27132 -13.13796,-2.21148 -19.82574,-2.19277 -2.92245,0.008 -5.78223,0.4322 -8.56156,1.45 -2.88877,1.0571 -4.21716,3.27513 -4.93749,6.04229 -0.83819,3.22275 -0.30028,6.3903 0.33023,9.57095 2.11793,10.68605 7.97314,19.10354 17.75176,24.12148 18.82383,9.66077 48.20929,-2.56696 48.489,-21.69202 0.044,-2.98607 -1.70726,-5.75792 -5.01888,-8.01897" />
    <path
       inkscape:connector-curvature="0"
       id="path376"
       style="fill:#c1f4ef;fill-opacity:1;fill-rule:evenodd;stroke:none;stroke-width:0.93548495"
       d="m 402.04346,738.7671 c -3.31255,2.26105 -5.06378,5.0329 -5.0198,8.01897 0.2797,19.12506 29.66422,31.35279 48.48992,21.69202 9.77769,-5.01794 15.63289,-13.43543 17.75082,-24.12148 0.63052,-3.18065 1.16843,-6.3482 0.33023,-9.57095 -0.72126,-2.76716 -2.04964,-4.98519 -4.93656,-6.04229 -2.78119,-1.0178 -5.64004,-1.44158 -8.56343,-1.45 -6.68777,-0.0188 -13.28294,0.92145 -19.82572,2.19277 -7.30614,1.41914 -22.02693,5.04882 -28.22546,9.28096" />
    <path
       inkscape:connector-curvature="0"
       id="path380"
       style="fill:#ffffff;fill-opacity:1;fill-rule:evenodd;stroke:none;stroke-width:0.93548495"
       d="m 350.45109,771.80599 16.81254,-37.47366 c -6.46047,-2.21523 -13.90598,-3.96085 -18.46367,-4.84674 -1.57255,-0.30497 -3.14884,-0.59217 -4.72888,-0.85036 l -16.23347,36.18362 c 1.73065,1.36769 3.63623,2.59036 5.71956,3.65868 5.11616,2.62778 11.01439,3.63623 16.89392,3.32846" />
    <path
       inkscape:connector-curvature="0"
       id="path384"
       style="fill:#ffffff;fill-opacity:1;fill-rule:evenodd;stroke:none;stroke-width:0.93548495"
       d="m 426.03715,730.38066 -16.06976,35.81878 c 6.70369,4.00295 15.16141,6.12837 23.24775,5.57269 l 19.87998,-44.31485 c -0.99067,-0.10853 -1.99071,-0.16091 -3.0001,-0.16372 -6.68872,-0.0188 -13.28295,0.92146 -19.82667,2.19184 -1.22641,0.23855 -2.66239,0.53977 -4.2312,0.89526" />
    <path
       inkscape:connector-curvature="0"
       id="path388"
       style="fill:#ffffff;fill-opacity:1;fill-rule:nonzero;stroke:none;stroke-width:0.93548495"
       d="m 322.59946,759.56704 c 0.44154,0.55942 0.90087,1.10761 1.38078,1.6371 l 16.18949,-33.13768 c -0.65202,-0.0861 -1.30593,-0.16559 -1.95984,-0.23761 z" />
    <path
       inkscape:connector-curvature="0"
       id="path392"
       style="fill:#ffffff;fill-opacity:1;fill-rule:nonzero;stroke:none;stroke-width:0.93548495"
       d="m 404.22782,761.87282 c 0.76055,0.72126 1.57161,1.40884 2.42291,2.06275 l 12.71323,-31.89723 c -0.71003,0.1927 -1.42661,0.39196 -2.14132,0.59871 z" />
    <path
       inkscape:connector-curvature="0"
       id="path396"
       style="fill:#333333;fill-opacity:1;fill-rule:evenodd;stroke:none;stroke-width:0.93548495"
       d="m 375.4726,867.41274 v 0 c 0.46588,1.10013 0.58094,2.26762 0.62397,3.45007 0.0804,2.24704 -0.23013,4.45572 -0.65203,6.65223 -0.87468,4.54553 -3.12078,11.03031 -6.08066,14.70115 -2.56136,3.17505 -5.20316,4.57078 -9.52792,5.3332 -2.57632,0.45465 -5.16013,0.90088 -7.7589,1.20959 -11.50366,1.36674 -22.48719,1.72503 -33.92818,-0.52107 -1.33586,-0.261 -2.67735,-0.53135 -3.98048,-0.92052 -2.378,-0.70348 -4.59417,-1.73252 -6.26494,-3.66523 -2.21898,-2.57258 -4.36217,-8.09288 -5.17044,-11.33715 -1.18151,-4.75974 -2.38361,-10.5719 -2.06648,-15.45607 0.12348,-1.92523 0.76242,-3.57355 2.4622,-4.66246 2.28539,-1.46216 8.47549,-2.36117 11.12759,-2.5361 11.81425,-0.78768 24.03635,-0.8148 35.85714,0.17493 6.54091,0.54445 15.41119,1.55572 21.50493,4.0123 1.72503,0.69507 3.10955,1.79801 3.8542,3.56513 m 28.12349,0 v 0 c 0.74557,-1.76712 2.13103,-2.87006 3.85606,-3.56513 6.09188,-2.45658 14.96402,-3.46785 21.50493,-4.0123 11.81986,-0.98973 24.0401,-0.96261 35.85621,-0.17493 2.65303,0.17493 8.84501,1.07394 11.12759,2.5361 1.69978,1.08891 2.33872,2.73723 2.46313,4.66246 0.31526,4.88417 -0.8859,10.69633 -2.06836,15.45607 -0.80732,3.24427 -2.95051,8.76457 -5.17042,11.33715 -1.66891,1.93271 -3.88601,2.96175 -6.26401,3.66523 -1.30313,0.38917 -2.64274,0.65952 -3.97955,0.92052 -11.44285,2.2461 -22.42638,1.88781 -33.93097,0.52107 -2.59597,-0.30871 -5.18166,-0.75494 -7.75798,-1.20959 -4.32381,-0.76242 -6.96656,-2.15815 -9.52698,-5.3332 -2.95895,-3.67084 -5.20504,-10.15562 -6.08066,-14.70115 -0.42096,-2.19651 -0.73248,-4.40519 -0.65202,-6.65223 0.0421,-1.18245 0.15716,-2.34994 0.62303,-3.45007 m -19.28129,4.80746 c 1.73065,-0.435 3.46972,-0.609 5.22094,-0.52668 1.74843,-0.0824 3.48936,0.0917 5.21815,0.52668 1.89903,0.47429 3.12545,1.69324 3.77748,3.51836 0.73529,2.05806 1.42755,4.12923 2.21149,6.16672 1.60248,4.18629 3.53893,8.19671 6.36223,11.72255 4.63813,5.78692 12.20715,6.56899 19.08015,7.2285 13.69551,1.31716 24.11025,1.46871 37.72156,-1.00284 1.85414,-0.33864 3.6512,-0.90462 5.39682,-1.61746 2.58661,-1.05242 4.55674,-2.81206 5.95529,-5.22561 1.47807,-2.55013 2.61936,-5.2565 3.71013,-7.98623 0.78488,-1.96359 1.54075,-3.9412 2.31907,-5.90665 0.50423,-1.27414 1.2442,-2.39204 2.20587,-3.36776 0.75776,-0.7727 1.59594,-1.95328 2.2564,-2.86258 0.46681,-0.64361 0.69225,-1.39107 0.7409,-2.175 0.16745,-2.71291 0.34706,-5.55023 0.40506,-8.26594 0.1581,-7.30053 -44.19324,-6.0423 -49.34309,-5.86643 -2.33403,0.0786 -4.6718,0.18803 -7.0021,0.34332 -6.84214,0.45839 -17.92483,1.41819 -24.46013,3.21994 -2.88503,0.7961 -12.72634,3.17503 -16.55528,2.90468 -3.8308,0.27035 -13.6693,-2.10858 -16.55714,-2.90468 -6.53436,-1.80175 -17.61799,-2.76155 -24.46012,-3.21994 -2.33123,-0.15529 -4.66808,-0.26474 -7.00305,-0.34332 -5.14985,-0.17587 -49.50118,-1.4341 -49.34403,5.86643 0.0599,2.71571 0.23949,5.55303 0.40787,8.26594 0.0477,0.78393 0.27223,1.53139 0.73997,2.175 0.65952,0.9093 1.49772,2.08988 2.25733,2.86258 0.96075,0.97572 1.70071,2.09362 2.204,3.36776 0.77739,1.96545 1.53606,3.94306 2.32095,5.90665 1.09077,2.72973 2.23113,5.4361 3.71013,7.98623 1.39948,2.41355 3.36774,4.17319 5.9553,5.22561 1.7456,0.71284 3.54174,1.27882 5.39494,1.61746 13.6113,2.47155 24.02699,2.32 37.72343,1.00284 6.87113,-0.65951 14.44014,-1.44158 19.07827,-7.2285 2.82517,-3.52584 4.76162,-7.53626 6.36411,-11.72255 0.783,-2.03749 1.47526,-4.10866 2.20961,-6.16672 0.65297,-1.82512 1.8794,-3.04407 3.77749,-3.51836" />
    <path
       inkscape:connector-curvature="0"
       id="path400"
       style="fill:#c1f4ef;fill-opacity:1;fill-rule:evenodd;stroke:none;stroke-width:0.93548495"
       d="m 464.8132,859.66029 c -11.81611,-0.78768 -24.03635,-0.81481 -35.85621,0.17494 -6.54091,0.54538 -15.41305,1.5557 -21.50493,4.01322 -1.72503,0.69413 -3.11049,1.79706 -3.85513,3.5642 -0.46681,1.10013 -0.58187,2.26762 -0.62303,3.45006 -0.0814,2.24704 0.23013,4.45572 0.65109,6.65225 0.87562,4.54551 3.12171,11.0303 6.08066,14.70114 2.56042,3.17503 5.20316,4.57171 9.52697,5.3332 2.57633,0.45464 5.16201,0.90087 7.75798,1.20958 11.5046,1.36675 22.48812,1.72504 33.93098,-0.52106 1.33681,-0.261 2.67642,-0.53137 3.97955,-0.92052 2.37801,-0.70348 4.5951,-1.73252 6.26401,-3.66523 2.2199,-2.57258 4.3631,-8.09194 5.17042,-11.33715 1.18246,-4.75974 2.38361,-10.57191 2.06836,-15.45608 -0.12348,-1.92522 -0.76335,-3.57355 -2.4622,-4.66245 -2.28351,-1.46217 -8.4755,-2.36116 -11.12852,-2.5361" />
    <path
       inkscape:connector-curvature="0"
       id="path404"
       style="fill:#c1f4ef;fill-opacity:1;fill-rule:evenodd;stroke:none;stroke-width:0.93548495"
       d="m 375.44425,877.51486 c 0.42191,-2.19652 0.73249,-4.4052 0.65204,-6.65223 -0.043,-1.18246 -0.1581,-2.34994 -0.62397,-3.45007 -0.74465,-1.76714 -2.12916,-2.87007 -3.85421,-3.5642 -6.09374,-2.45752 -14.96401,-3.46784 -21.50492,-4.01229 -11.82078,-0.99069 -24.04197,-0.96356 -35.85714,-0.17588 -2.6521,0.17588 -8.84126,1.07488 -11.1276,2.5361 -1.69977,1.08891 -2.3387,2.73723 -2.46218,4.66246 -0.3162,4.88417 0.8859,10.69634 2.06648,15.45609 0.8092,3.24519 2.95239,8.76456 5.17136,11.33714 1.66985,1.93271 3.886,2.96174 6.264,3.66523 1.30408,0.38916 2.64462,0.65951 3.9805,0.92052 11.44098,2.24609 22.42544,1.8878 33.92817,0.52106 2.59878,-0.30871 5.18351,-0.75494 7.75891,-1.20958 4.32475,-0.76149 6.96749,-2.15817 9.52792,-5.33321 2.95986,-3.67084 5.20596,-10.15562 6.08064,-14.70114" />
    <path
       inkscape:connector-curvature="0"
       id="path408"
       style="fill:#ffffff;fill-opacity:1;fill-rule:evenodd;stroke:none;stroke-width:0.93548495"
       d="m 342.47393,899.63759 17.3626,-38.70383 c -3.40329,-0.51732 -6.79536,-0.85503 -9.72343,-1.09826 -5.33694,-0.44903 -10.75247,-0.68665 -16.17921,-0.74371 l -17.41124,38.81328 c 0.53976,0.11693 1.08328,0.22732 1.62586,0.33303 8.22292,1.61464 16.21102,1.88407 24.32542,1.39949" />
    <path
       inkscape:connector-curvature="0"
       id="path412"
       style="fill:#ffffff;fill-opacity:1;fill-rule:evenodd;stroke:none;stroke-width:0.93548495"
       d="m 439.31851,859.2236 -17.40282,38.78988 c 1.68855,0.28346 3.37991,0.54445 5.07501,0.74559 7.07787,0.84006 13.95837,1.29846 20.86692,1.00658 l 17.95476,-40.02098 c -0.36951,-0.0365 -0.70628,-0.0645 -0.99909,-0.0842 -8.3913,-0.56129 -16.98373,-0.73622 -25.49478,-0.43687" />
    <path
       inkscape:connector-curvature="0"
       id="path416"
       style="fill:#ffffff;fill-opacity:1;fill-rule:evenodd;stroke:none;stroke-width:0.93548495"
       d="m 313.10756,896.97005 16.92854,-37.87592 c -0.78581,0.004 -1.57255,0.002 -2.35836,0.014 h -7.1e-4 l -16.09595,37.25008 c 0.49394,0.23013 1.00565,0.43125 1.52672,0.6118" />
    <path
       inkscape:connector-curvature="0"
       id="path420"
       style="fill:#ffffff;fill-opacity:1;fill-rule:evenodd;stroke:none;stroke-width:0.93548495"
       d="m 416.17986,896.80381 c 0.55567,0.18242 1.1497,0.34145 1.77274,0.48271 l 16.88551,-37.85065 c -0.81669,0.0458 -1.6315,0.0945 -2.44442,0.1478 z" />
    <path
       inkscape:connector-curvature="0"
       id="path424"
       style="fill:#333333;fill-opacity:1;fill-rule:evenodd;stroke:none;stroke-width:0.93548495"
       d="m 134.36828,996.96824 v 0 c 2.85323,0.48926 4.91504,2.03752 6.20414,4.63356 1.53606,3.0918 2.95145,6.2415 4.67087,9.2416 2.1984,3.8373 4.43981,7.6429 7.52317,10.8638 5.12459,5.3481 11.4363,8.4615 18.65076,9.8759 15.31202,2.9964 31.18159,2.3863 44.29335,-7.1462 5.35471,-3.8916 9.12005,-9.0658 11.90218,-15.0098 1.89528,-4.0451 3.60816,-8.1575 4.79435,-12.47753 0.71378,-2.59969 1.13007,-5.25651 1.66985,-7.8908 0.23481,-1.15163 0.58654,-2.25828 1.11322,-3.30319 0.50048,-0.99068 0.67729,-2.03567 0.67542,-3.12268 -0.004,-2.131 0.0243,-4.25929 -0.10758,-6.38749 -0.10945,-1.77648 -0.56503,-2.45937 -2.28258,-2.9561 -3.75223,-1.08241 -7.58117,-1.8224 -11.43912,-2.41737 -4.64936,-0.71845 -9.31743,-1.28627 -14.01262,-1.62494 -3.06185,-0.2189 -6.1293,-0.27222 -9.19114,-0.4331 -3.07494,-0.16088 -6.13959,-0.014 -9.20144,0.0861 -5.017,0.16649 -9.99846,0.77641 -14.94998,1.62957 -7.94039,1.36674 -15.64318,3.55019 -23.07747,6.66535 -2.64555,1.10953 -5.17324,2.48561 -7.86837,3.48099 -3.36868,1.24606 -6.73923,1.95701 -10.11353,2.06274 -3.37429,-0.10573 -6.74578,-0.81668 -10.11259,-2.06274 -2.69513,-0.99538 -5.22374,-2.37146 -7.8693,-3.48099 -7.4343,-3.11516 -15.13802,-5.29861 -23.078415,-6.66535 -4.949652,-0.85316 -9.932044,-1.46308 -14.94905,-1.62957 -3.061842,-0.10012 -6.126491,-0.24697 -9.20143,-0.0861 -3.062778,0.16088 -6.130233,0.2142 -9.19114,0.4331 -4.696135,0.33867 -9.363269,0.90649 -14.013565,1.62494 -3.857941,0.59497 -7.685945,1.33496 -11.439111,2.41737 -1.716615,0.49673 -2.17126,1.17962 -2.281647,2.9561 -0.130968,2.1282 -0.103839,4.25649 -0.107581,6.38749 -9.12e-4,1.08701 0.175871,2.132 0.674484,3.12268 0.527614,1.04491 0.878421,2.15156 1.114163,3.30319 0.539774,2.63429 0.95513,5.29111 1.669841,7.8908 1.185259,4.32003 2.900003,8.43243 4.793425,12.47753 2.783067,5.944 6.54933,11.1182 11.903111,15.0098 13.111757,9.5325 28.981324,10.1426 44.293343,7.1462 7.215392,-1.4144 13.526182,-4.5278 18.649822,-9.8759 3.08429,-3.2209 5.3276,-7.0265 7.52505,-10.8638 1.71849,-3.0001 3.13387,-6.1498 4.66995,-9.2416 1.29002,-2.59604 3.3509,-4.1443 6.20412,-4.63356 0.24697,-0.0444 0.49674,-0.0878 0.74652,-0.12256 0.24977,0.0342 0.49862,0.0786 0.74652,0.12256 m 91.76265,-5.3201 v 0 c 0.75962,-23.39462 -41.76566,-17.5188 -55.40222,-14.41675 -4.50904,1.02716 -8.97878,2.19093 -13.12861,4.307 -3.07025,1.5641 -5.98616,3.34529 -8.22196,6.05541 -2.0459,2.48463 -2.85043,5.32197 -2.60626,8.50816 0.33958,4.44364 1.36955,8.72254 3.06371,12.83024 4.13203,10.0162 11.66363,16.0314 22.09335,18.5526 5.82806,1.4106 11.74875,2.0224 17.7396,1.7502 6.61949,-0.3031 12.84327,-2.0131 18.63673,-5.308 7.72055,-4.3939 12.58134,-11.0302 15.38312,-19.3102 1.42193,-4.206 2.29942,-8.52418 2.44254,-12.96866 m -185.019278,0 c -0.757743,-23.39462 41.766598,-17.5188 55.403162,-14.41675 4.508106,1.02716 8.978786,2.19093 13.129536,4.307 3.06932,1.5641 5.98523,3.34529 8.22011,6.05541 2.0459,2.48463 2.85136,5.32197 2.60719,8.50816 -0.33958,4.44364 -1.37049,8.72254 -3.06371,12.83024 -4.13204,10.0162 -11.66363,16.0314 -22.094288,18.5526 -5.828071,1.4106 -11.748756,2.0224 -17.737731,1.7502 -6.620426,-0.3031 -12.844209,-2.0131 -18.636731,-5.308 -7.721494,-4.3939 -12.582273,-11.0302 -15.384052,-19.3102 -1.421936,-4.206 -2.299421,-8.52418 -2.443486,-12.96866" />
    <path
       inkscape:connector-curvature="0"
       id="path428"
       style="fill:#c1f4ef;fill-opacity:1;fill-rule:evenodd;stroke:none;stroke-width:0.93548495"
       d="m 109.64416,981.53832 c -4.15075,-2.11607 -8.62143,-3.27984 -13.129532,-4.307 -13.636565,-3.10204 -56.160907,-8.97787 -55.403163,14.41673 0.145,4.4454 1.021549,8.76275 2.443487,12.96865 2.802713,8.28 7.662557,14.9163 15.38405,19.3113 5.792523,3.2938 12.016305,5.0038 18.636732,5.3069 5.98991,0.2722 11.910595,-0.3396 17.738666,-1.7503 10.42972,-2.5211 17.96131,-8.5363 22.09335,-18.5525 1.69323,-4.1068 2.72413,-8.3867 3.06371,-12.83014 0.24416,-3.18628 -0.56036,-6.02362 -2.6072,-8.5083 -2.23487,-2.71005 -5.15077,-4.49124 -8.2201,-6.05534" />
    <path
       inkscape:connector-curvature="0"
       id="path432"
       style="fill:#c1f4ef;fill-opacity:1;fill-rule:evenodd;stroke:none;stroke-width:0.93548495"
       d="m 149.37804,987.59331 c -2.0459,2.48466 -2.85042,5.32191 -2.60626,8.5092 0.33959,4.44349 1.36956,8.72239 3.06371,12.83019 4.13204,10.0162 11.66457,16.0304 22.09335,18.5524 5.82807,1.4099 11.74969,2.0226 17.7396,1.7504 6.6195,-0.3041 12.84328,-2.0142 18.63673,-5.3079 7.72056,-4.394 12.58135,-11.0304 15.38312,-19.3112 1.42287,-4.206 2.29943,-8.52322 2.44255,-12.96872 0.75961,-23.39459 -41.76566,-17.51883 -55.40223,-14.4158 -4.50903,1.02626 -8.97878,2.19093 -13.12859,4.30602 -3.07026,1.56417 -5.98617,3.34627 -8.22198,6.05541" />
    <path
       inkscape:connector-curvature="0"
       id="path436"
       style="fill:#ffffff;fill-opacity:1;fill-rule:evenodd;stroke:none;stroke-width:0.93548495"
       d="m 82.617811,1029.2571 22.301959,-49.71635 c -2.7391,-0.96071 -5.565198,-1.66233 -8.405329,-2.3088 -4.180683,-0.9504 -11.074272,-2.16378 -18.604926,-2.71195 l -21.463767,47.8454 c 0.796098,0.5482 1.626808,1.0702 2.493067,1.5623 5.792524,3.2937 12.016304,5.0038 18.636731,5.3078 1.685745,0.075 3.365876,0.081 5.042265,0.022" />
    <path
       inkscape:connector-curvature="0"
       id="path440"
       style="fill:#ffffff;fill-opacity:1;fill-rule:evenodd;stroke:none;stroke-width:0.93548495"
       d="m 179.86989,975.56365 -20.64615,46.01925 c 3.5642,2.77 7.81692,4.7177 12.70482,5.902 4.32288,1.0468 8.69533,1.654 13.10988,1.7848 l 24.23842,-54.0316 c -9.31743,-1.76063 -20.72661,-0.94114 -29.40697,0.32555" />
    <path
       inkscape:connector-curvature="0"
       id="path444"
       style="fill:#ffffff;fill-opacity:1;fill-rule:evenodd;stroke:none;stroke-width:0.93548495"
       d="m 51.443522,1018.0972 20.659251,-43.84907 c -0.693194,-0.0133 -1.38826,-0.0217 -2.083326,-0.0203 l -19.919281,42.35507 c 0.434064,0.5173 0.876549,1.0234 1.343356,1.5145" />
    <path
       inkscape:connector-curvature="0"
       id="path448"
       style="fill:#ffffff;fill-opacity:1;fill-rule:evenodd;stroke:none;stroke-width:0.93548495"
       d="m 153.43693,1015.5136 c 0.42189,0.5958 0.86065,1.173 1.31809,1.7268 l 19.56005,-40.75062 c -0.6801,0.12812 -1.32183,0.2563 -1.92803,0.38168 z" />
    <path
       inkscape:connector-curvature="0"
       id="path452"
       style="fill:#333333;fill-opacity:1;fill-rule:evenodd;stroke:none;stroke-width:0.93548495"
       d="m 372.65791,969.79532 v 0 c 4.80652,3.86261 7.43805,8.84688 7.72243,15.00241 0.51451,11.16585 -3.60629,26.30307 -11.90405,34.36967 -4.63251,4.5006 -10.05084,7.5644 -16.37379,9.0022 -6.2902,1.4294 -12.63466,1.7251 -19.00438,0.7474 -5.86642,-0.9008 -11.1781,-3.2246 -15.82653,-6.9132 -11.22769,-8.9133 -16.3158,-32.98706 -10.31185,-45.89022 2.11981,-4.5549 5.90385,-8.30615 12.31659,-11.11078 11.45877,-4.88414 27.12439,-5.28546 39.1276,-2.13381 5.20035,1.36484 10.02559,3.53143 14.25398,6.92633 m 42.70958,0 v 0 c 4.22932,-3.3949 9.05174,-5.56149 14.25491,-6.92633 12.00321,-3.15165 27.6679,-2.75033 39.12573,2.13381 6.41462,2.80463 10.19678,6.55588 12.31659,11.11078 6.00487,12.90316 0.91584,36.97692 -10.31186,45.89022 -4.64655,3.6886 -9.95823,6.0124 -15.8256,6.9132 -6.3697,0.9777 -12.71416,0.682 -19.0053,-0.7474 -6.32294,-1.4378 -11.74221,-4.5016 -16.37286,-9.0022 -8.29963,-8.0666 -12.41763,-23.20382 -11.90405,-34.36967 0.28533,-6.15553 2.91685,-11.1398 7.72244,-15.00241 m -31.89912,2.02064 c -0.64361,0.68007 -1.27599,1.35742 -2.34432,1.34339 -0.59123,-0.7896 -1.15719,-1.6502 -1.827,-2.41917 -3.05436,-3.50063 -6.89734,-5.92352 -11.06959,-7.83281 -11.10234,-5.07597 -25.26651,-6.26872 -37.25195,-4.59137 -6.91697,0.96823 -13.61505,2.85697 -20.34025,4.64188 -3.90472,1.0346 -7.77856,2.18342 -11.65147,3.33498 -1.00377,0.29748 -1.9907,0.72125 -2.90374,1.23112 -0.42191,0.23385 -0.91958,0.81009 -0.9252,1.23575 -0.0373,2.53052 0.009,5.06477 0.13939,7.59148 0.0449,0.85879 0.63145,1.41537 1.59874,1.49774 0.66607,0.0555 1.31997,0.26002 1.97856,0.39852 1.23484,0.26001 2.07022,1.08701 2.1909,2.33869 1.0599,11.01623 0.014,17.45422 3.58946,28.54534 1.57442,4.8843 4.06468,9.2689 7.57368,13.0436 6.19665,6.669 14.10524,9.6878 22.93061,10.7383 9.04427,1.0796 21.08676,-1.1552 28.85129,-5.915 12.0135,-7.3651 18.41035,-21.8268 19.86035,-35.37078 0.36577,-3.4098 0.42845,-6.85142 0.60151,-10.27902 0.0739,-1.48742 0.66888,-2.27513 2.13665,-2.39952 2.46782,-0.20957 4.93656,-0.33958 7.40718,-0.37045 2.47061,0.0309 4.93748,0.16088 7.40624,0.37045 1.46682,0.12439 2.06273,0.9121 2.13663,2.39952 0.17213,3.4276 0.23575,6.86922 0.60152,10.27902 1.45001,13.54398 7.84779,28.00568 19.85848,35.37078 7.76546,4.7598 19.80703,6.9946 28.85223,5.915 8.8263,-1.0505 16.73489,-4.0693 22.9306,-10.7383 3.50901,-3.7747 6.00021,-8.1593 7.57463,-13.0436 3.57355,-11.09112 2.53049,-17.52911 3.58945,-28.54534 0.11975,-1.25168 0.95607,-2.07868 2.19091,-2.33869 0.65859,-0.1385 1.31249,-0.34337 1.97948,-0.39852 0.9673,-0.0824 1.55384,-0.63895 1.59687,-1.49774 0.13005,-2.52671 0.17868,-5.06096 0.14127,-7.59148 -0.006,-0.42566 -0.50329,-1.0019 -0.9252,-1.23575 -0.9149,-0.50987 -1.89997,-0.93364 -2.90561,-1.23112 -3.87197,-1.15156 -7.74676,-2.30038 -11.65147,-3.33498 -6.72427,-1.78491 -13.42328,-3.67365 -20.33838,-4.64188 -11.98637,-1.67735 -26.15055,-0.4846 -37.25288,4.59137 -4.17227,1.90929 -8.01524,4.33218 -11.06959,7.83281 -0.67075,0.76897 -1.23578,1.62957 -1.82701,2.41917 -1.07019,0.014 -1.70071,-0.66332 -2.34246,-1.34339 -1.05896,-1.11977 -2.3069,-1.74841 -3.90845,-1.75403 -2.21242,-0.007 -4.42671,-0.0231 -6.63726,-0.0526 -2.21243,0.0288 -4.42578,0.0471 -6.63914,0.0526 -1.60156,0.007 -2.84855,0.63426 -3.90566,1.75403" />
    <path
       inkscape:connector-curvature="0"
       id="path456"
       style="fill:#c1f4ef;fill-opacity:1;fill-rule:evenodd;stroke:none;stroke-width:0.93548495"
       d="m 419.5491,1019.1678 c 4.63065,4.5006 10.04992,7.5643 16.37286,9.0022 6.29114,1.4284 12.6356,1.725 19.0053,0.7475 5.86737,-0.901 11.17905,-3.2247 15.8256,-6.9143 11.2277,-8.9123 16.31673,-32.98611 10.31186,-45.8892 -2.11981,-4.55588 -5.90197,-8.30621 -12.31659,-11.11078 -11.45783,-4.88421 -27.12252,-5.28645 -39.12573,-2.1348 -5.20317,1.36485 -10.02559,3.53242 -14.25491,6.92725 -4.80559,3.86268 -7.43711,8.84694 -7.72244,15.00242 -0.51358,11.16494 3.60442,26.30301 11.90405,34.36971" />
    <path
       inkscape:connector-curvature="0"
       id="path460"
       style="fill:#c1f4ef;fill-opacity:1;fill-rule:evenodd;stroke:none;stroke-width:0.93548495"
       d="m 368.47658,1019.1678 c 8.29774,-8.0667 12.41763,-23.20477 11.90404,-34.36971 -0.28438,-6.15548 -2.91683,-11.13974 -7.72242,-15.00242 -4.2284,-3.39483 -9.05363,-5.5624 -14.25493,-6.92725 -12.0032,-3.15165 -27.66884,-2.74941 -39.12759,2.1348 -6.41181,2.80457 -10.19586,6.5549 -12.31566,11.11078 -6.00488,12.90309 -0.91584,36.9769 10.31185,45.8892 4.64749,3.6896 9.96011,6.0133 15.82654,6.9143 6.36971,0.9775 12.71324,0.6809 19.00437,-0.7475 6.32294,-1.4379 11.74128,-4.5016 16.3738,-9.0022" />
    <path
       inkscape:connector-curvature="0"
       id="path464"
       style="fill:#ffffff;fill-opacity:1;fill-rule:evenodd;stroke:none;stroke-width:0.93548495"
       d="m 372.34453,969.5487 c -4.15262,-3.2545 -8.86747,-5.35002 -13.9406,-6.68028 -2.84575,-0.74652 -5.8973,-1.29468 -9.04895,-1.62964 l -28.40413,63.31932 c 3.7092,2.2255 7.77482,3.6867 12.14727,4.3594 4.16946,0.6388 8.32862,0.7343 12.46815,0.3236 z" />
    <path
       inkscape:connector-curvature="0"
       id="path468"
       style="fill:#ffffff;fill-opacity:1;fill-rule:evenodd;stroke:none;stroke-width:0.93548495"
       d="m 440.40022,961.0763 -24.2618,54.0814 c 1.04587,1.4668 2.18248,2.8149 3.41077,4.0103 4.63065,4.4998 10.04992,7.5645 16.37286,9.0023 0.33304,0.075 0.66607,0.1478 0.99816,0.217 l 28.93362,-64.49333 c -7.71588,-2.65112 -16.88176,-3.50989 -25.45361,-2.81767" />
    <path
       inkscape:connector-curvature="0"
       id="path472"
       style="fill:#ffffff;fill-opacity:1;fill-rule:evenodd;stroke:none;stroke-width:0.93548495"
       d="m 338.94304,960.91372 -25.79881,56.79798 c 0.66981,0.8784 1.36862,1.7026 2.10297,2.4576 l 27.79139,-59.30328 c -1.36207,-0.0217 -2.72881,-0.009 -4.09555,0.0477" />
    <path
       inkscape:connector-curvature="0"
       id="path476"
       style="fill:#ffffff;fill-opacity:1;fill-rule:evenodd;stroke:none;stroke-width:0.93548495"
       d="m 411.85052,1007.3227 c 0.32836,0.7745 0.67168,1.5388 1.03559,2.2871 l 21.43664,-47.76019 c -0.83072,0.14404 -1.6502,0.30492 -2.45566,0.48173 z" />
    <g
       aria-label="Occhiali"
       style="font-style:normal;font-variant:normal;font-weight:bold;font-stretch:normal;font-size:21.33333397px;line-height:1.25;font-family:Decker;-inkscape-font-specification:'Decker, Bold';font-variant-ligatures:normal;font-variant-caps:normal;font-variant-numeric:normal;font-feature-settings:normal;text-align:start;letter-spacing:0px;word-spacing:0px;writing-mode:lr-tb;text-anchor:start;fill:#000000;fill-opacity:1;stroke:none"
       id="text3595">
      <path
         d="m 218.70833,557.5603 q 0,1.1875 0.39584,2.25 0.39583,1.05209 1.13541,1.82292 0.78125,0.8125 1.80209,1.26042 1.02083,0.44791 2.08333,0.44791 2.35417,0 3.9375,-1.66666 1.58333,-1.67709 1.58333,-4.15625 0,-1.05209 -0.38541,-2 -0.375,-0.95834 -1.10417,-1.76042 -0.86458,-0.92708 -1.85417,-1.36458 -0.97916,-0.44792 -2.17708,-0.44792 -1.07292,0 -2.04167,0.40625 -0.96875,0.40625 -1.71875,1.17708 -0.78125,0.80209 -1.21875,1.86459 -0.4375,1.0625 -0.4375,2.16666 z m -2.29166,-0.0208 q 0,-1.59375 0.60416,-3.02083 0.60417,-1.42709 1.77084,-2.57292 1.10416,-1.08333 2.44791,-1.63542 1.35417,-0.5625 2.90625,-0.5625 1.59375,0 2.94792,0.5625 1.36458,0.55209 2.48958,1.65625 1.15625,1.13542 1.73959,2.54167 0.58333,1.40625 0.58333,3.03125 0,1.61458 -0.5,2.97917 -0.5,1.35416 -1.5,2.4375 -1.17708,1.27083 -2.63542,1.91666 -1.44791,0.64584 -3.14583,0.64584 -1.70833,0 -3.15625,-0.65625 -1.4375,-0.65625 -2.58333,-1.94792 -0.96875,-1.07292 -1.46875,-2.4375 -0.5,-1.375 -0.5,-2.9375 z"
         style=""
         id="path3597" />
      <path
         d="m 244.66667,561.3103 q -0.71875,2.07292 -2.13542,3.14584 -1.41667,1.0625 -3.44792,1.0625 -1.28125,0 -2.32291,-0.4375 -1.04167,-0.44792 -1.88542,-1.33334 -0.80208,-0.84375 -1.26042,-1.95833 -0.44791,-1.125 -0.44791,-2.29167 0,-1.19791 0.40625,-2.23958 0.41666,-1.05208 1.21875,-1.91667 0.88541,-0.94791 1.98958,-1.4375 1.10417,-0.48958 2.36458,-0.48958 1.96875,0 3.41667,1.09375 1.44792,1.08333 2.10417,3.05208 h -2.26042 q -0.54167,-1.05208 -1.39583,-1.57291 -0.85417,-0.52084 -2.04167,-0.52084 -1.53125,0 -2.60417,1.15625 -1.0625,1.15625 -1.0625,2.85417 0,1.71875 1.08334,2.86458 1.08333,1.14584 2.69791,1.14584 1.08334,0 1.95834,-0.5625 0.875,-0.57292 1.36458,-1.61459 z"
         style=""
         id="path3599" />
      <path
         d="m 257.58334,561.3103 q -0.71875,2.07292 -2.13542,3.14584 -1.41667,1.0625 -3.44792,1.0625 -1.28125,0 -2.32291,-0.4375 -1.04167,-0.44792 -1.88542,-1.33334 -0.80208,-0.84375 -1.26042,-1.95833 -0.44791,-1.125 -0.44791,-2.29167 0,-1.19791 0.40625,-2.23958 0.41666,-1.05208 1.21875,-1.91667 0.88541,-0.94791 1.98958,-1.4375 1.10417,-0.48958 2.36458,-0.48958 1.96875,0 3.41667,1.09375 1.44792,1.08333 2.10417,3.05208 h -2.26042 q -0.54167,-1.05208 -1.39583,-1.57291 -0.85417,-0.52084 -2.04167,-0.52084 -1.53125,0 -2.60417,1.15625 -1.0625,1.15625 -1.0625,2.85417 0,1.71875 1.08334,2.86458 1.08333,1.14584 2.69791,1.14584 1.08334,0 1.95834,-0.5625 0.875,-0.57292 1.36458,-1.61459 z"
         style=""
         id="path3601" />
      <path
         d="m 261.6875,565.21655 h -2.0625 v -15.16666 h 2.0625 v 5.01041 q 0.5,-0.73958 1.29167,-1.11458 0.80208,-0.375 1.86458,-0.375 2.08333,0 3.23958,1.33333 1.15625,1.33334 1.15625,3.73959 v 6.57291 h -2.0625 v -5.90625 q 0,-1.90625 -0.64583,-2.83333 -0.64583,-0.92708 -1.97917,-0.92708 -0.8125,0 -1.4375,0.375 -0.625,0.375 -1,1.08333 -0.22916,0.42708 -0.33333,1.04167 -0.0937,0.61458 -0.0937,1.95833 z"
         style=""
         id="path3603" />
      <path
         d="m 273.70833,552.41447 h -2.04166 v -2.36458 h 2.04166 z m -2.04166,12.80208 v -11.45833 h 2.04166 v 11.45833 z"
         style=""
         id="path3605" />
      <path
         d="m 277.71875,559.41447 q 0,1.73958 1.14583,2.91667 1.15625,1.17708 2.82292,1.17708 1.52083,0 2.67708,-1.17708 1.16667,-1.1875 1.16667,-2.77084 0,-1.6875 -1.15625,-2.88541 -1.14583,-1.20834 -2.72917,-1.20834 -1.625,0 -2.78125,1.14584 -1.14583,1.14583 -1.14583,2.80208 z m 7.70833,5.80208 v -1.40625 q -0.79166,0.82292 -1.77083,1.25 -0.96875,0.41667 -2.07292,0.41667 -2.58333,0 -4.29166,-1.71875 -1.70834,-1.72917 -1.70834,-4.32292 0,-1.20833 0.42709,-2.29166 0.42708,-1.08334 1.21875,-1.90625 0.86458,-0.90625 1.88541,-1.33334 1.03125,-0.4375 2.34375,-0.4375 1.17709,0 2.16667,0.41667 0.98958,0.41667 1.80208,1.26042 v -1.38542 h 2.08334 v 11.45833 z"
         style=""
         id="path3607" />
      <path
         d="m 289.91667,565.21655 v -15.16666 h 2.04167 v 15.16666 z"
         style=""
         id="path3609" />
      <path
         d="m 296.45834,552.41447 h -2.04167 v -2.36458 h 2.04167 z m -2.04167,12.80208 v -11.45833 h 2.04167 v 11.45833 z"
         style=""
         id="path3611" />
    </g>
  </g>
</svg>
