<?xml version="1.0" encoding="UTF-8" standalone="no"?>
<!-- Created with Inkscape (http://www.inkscape.org/) -->

<svg
   xmlns:dc="http://purl.org/dc/elements/1.1/"
   xmlns:cc="http://creativecommons.org/ns#"
   xmlns:rdf="http://www.w3.org/1999/02/22-rdf-syntax-ns#"
   xmlns:svg="http://www.w3.org/2000/svg"
   xmlns="http://www.w3.org/2000/svg"
   xmlns:sodipodi="http://sodipodi.sourceforge.net/DTD/sodipodi-0.dtd"
   xmlns:inkscape="http://www.inkscape.org/namespaces/inkscape"
   width="512"
   height="512"
   viewBox="0 0 512.00002 512.00002"
   id="svg2"
   version="1.1"
   inkscape:version="0.92.2 2405546, 2018-03-11"
   sodipodi:docname="occhio5.svg">
  <defs
     id="defs4" />
  <sodipodi:namedview
     id="base"
     pagecolor="#ffffff"
     bordercolor="#666666"
     borderopacity="1.0"
     inkscape:pageopacity="0.0"
     inkscape:pageshadow="2"
     inkscape:zoom="1.4082031"
     inkscape:cx="255.28988"
     inkscape:cy="290.52871"
     inkscape:document-units="px"
     inkscape:current-layer="g4241"
     showgrid="false"
     units="px"
     inkscape:showpageshadow="false"
     inkscape:window-width="1920"
     inkscape:window-height="994"
     inkscape:window-x="0"
     inkscape:window-y="21"
     inkscape:window-maximized="1" />
  <metadata
     id="metadata7">
    <rdf:RDF>
      <cc:Work
         rdf:about="">
        <dc:format>image/svg+xml</dc:format>
        <dc:type
           rdf:resource="http://purl.org/dc/dcmitype/StillImage" />
        <dc:title></dc:title>
        <cc:license
           rdf:resource="http://creativecommons.org/licenses/by-sa/4.0/" />
        <dc:date>2019</dc:date>
        <dc:creator>
          <cc:Agent>
            <dc:title>Cristian Pozzessere  &lt; ilnanny &gt;</dc:title>
          </cc:Agent>
        </dc:creator>
        <dc:subject>
          <rdf:Bag>
            <rdf:li>ilnanny</rdf:li>
          </rdf:Bag>
        </dc:subject>
      </cc:Work>
      <cc:License
         rdf:about="http://creativecommons.org/licenses/by-sa/4.0/">
        <cc:permits
           rdf:resource="http://creativecommons.org/ns#Reproduction" />
        <cc:permits
           rdf:resource="http://creativecommons.org/ns#Distribution" />
        <cc:requires
           rdf:resource="http://creativecommons.org/ns#Notice" />
        <cc:requires
           rdf:resource="http://creativecommons.org/ns#Attribution" />
        <cc:permits
           rdf:resource="http://creativecommons.org/ns#DerivativeWorks" />
        <cc:requires
           rdf:resource="http://creativecommons.org/ns#ShareAlike" />
      </cc:License>
    </rdf:RDF>
  </metadata>
  <g
     inkscape:label="Livello 1"
     inkscape:groupmode="layer"
     id="layer1"
     transform="translate(0,-540.3622)">
    <path
       style="opacity:1;fill:#f9f3f1;fill-opacity:0.98867923;stroke:none;stroke-width:4.75087738;stroke-linecap:round;stroke-linejoin:bevel;stroke-miterlimit:4;stroke-dasharray:none;stroke-opacity:0.98113248;paint-order:stroke markers fill"
       d="m 1,541.3622 h 510 v 510 H 1 Z"
       id="rect1404"
       inkscape:connector-curvature="0" />
    <g
       transform="matrix(1.380083,0,0,-1.380083,685.84882,1555.491)"
       id="g4179">
      <path
         d="m -251.7897,510.68991 c 0,0 7.69,19.76 17.94,23.58 10.25,3.83 26.91,6.38 37.16,3.83 10.25,-2.55 26.91,-31.87 26.91,-31.87 0,0 -0.64,-3.83 -10.25,-5.1 -9.61,-1.28 -48.05,-5.74 -55.1,-1.91 -7.05,3.82 -16.66,11.47 -16.66,11.47"
         style="fill:#ffffff;fill-opacity:1;fill-rule:evenodd;stroke:none"
         id="path688"
         inkscape:connector-curvature="0" />
      <path
         d="m -247.3098,517.69971 c 0,0 -4.48,-6.37 -0.64,-8.92 3.85,-2.55 8.33,-8.29 20.51,-9.56 12.17,-1.28 29.47,0 29.47,0 0,0 -32.68,-5.1 -42.93,0.63 -10.25,5.74 -22.42,3.83 -20.5,7.65 1.92,3.83 14.09,10.2 14.09,10.2"
         style="fill:#9c634e;fill-opacity:1;fill-rule:evenodd;stroke:none"
         id="path692"
         inkscape:connector-curvature="0" />
      <path
         d="m -253.07,510.04981 c 0,0 2.56,0.64 5.12,4.46 2.57,3.83 13.1,18.23 27.55,21.68 16.02,3.82 26.92,-0.64 32.68,-5.74 5.77,-5.1 18.58,-23.58 16.02,-25.5 -2.56,-1.91 -6.41,-3.18 -6.41,-3.18 0,0 10.25,-1.28 10.25,2.55 0,3.82 -17.3,31.87 -28.19,34.42 -10.89,2.55 -28.19,3.82 -41,-5.74 -12.82,-9.56 -16.02,-22.95 -16.02,-22.95"
         style="fill:#a5777c;fill-opacity:1;fill-rule:evenodd;stroke:none"
         id="path696"
         inkscape:connector-curvature="0" />
      <path
         d="m -256.9196,511.33011 c 0,0 2.57,-3.19 5.77,2.55 3.2,5.73 10.25,17.21 23.07,21.67 10.56,3.68 23.7,5.74 32.03,1.91 8.33,-3.82 -1.14,5.93 -21.78,3.83 -24.99,-2.55 -25.63,-14.03 -30.12,-14.03 -4.48,0 -8.97,-0.63 -8.97,-0.63 0,0 3.85,-3.19 7.05,-3.19 3.2,0 -2.56,-3.19 -7.05,-3.19 -4.48,0 -5.76,-0.64 -5.76,-0.64 0,0 1.92,-3.18 5.76,-3.18 3.85,0 0,-5.1 -5.12,-4.47 z"
         style="fill:#3f1c1d;fill-opacity:1;fill-rule:evenodd;stroke:none"
         id="path700"
         inkscape:connector-curvature="0" />
      <path
         d="m -167.2097,518.33981 c -1.93,1.27 -10.9,18.48 -25.63,23.58 -14.74,5.1 -31.4,5.1 -44.86,-2.55 -13.45,-7.65 -26.91,-21.67 -26.91,-21.67 0,0 19.87,25.5 37.17,29.32 17.3,3.83 28.19,3.83 41,-5.1 5.94,-4.13 21.15,-24.86 19.23,-23.58"
         style="fill:#9e6359;fill-opacity:1;fill-rule:evenodd;stroke:none"
         id="path704"
         inkscape:connector-curvature="0" />
      <path
         d="m -277.4196,555.31011 c 0,0 17.94,25.5 65.35,22.95 47.42,-2.55 56.97,-15.87 58.31,-3.83 0.64,5.74 -42.29,19.12 -80.09,8.92 -37.8,-10.19 -43.57,-28.04 -43.57,-28.04"
         style="fill:#a56f53;fill-opacity:1;fill-rule:evenodd;stroke:none"
         id="path708"
         inkscape:connector-curvature="0" />
      <path
         d="m -164.6496,511.33011 c 0,0 9.61,-6.38 3.84,-12.11 -5.76,-5.74 -17.94,-7.65 -16.66,-5.1 1.28,2.55 12.82,5.73 12.18,10.2 -0.64,4.46 0.64,7.01 0.64,7.01"
         style="fill:#ffffff;fill-opacity:1;fill-rule:evenodd;stroke:none"
         id="path712"
         inkscape:connector-curvature="0" />
      <path
         d="m -190.9196,517.69971 c 0,10.91 -8.89,19.76 -19.86,19.76 -10.97,0 -19.87,-8.85 -19.87,-19.76 0,-10.91 8.9,-19.76 19.87,-19.76 10.97,0 19.86,8.85 19.86,19.76"
         style="fill:#5a667d;fill-opacity:1;fill-rule:evenodd;stroke:none"
         id="path716"
         inkscape:connector-curvature="0" />
      <path
         d="m -190.9196,517.69971 c 0,10.91 -8.89,19.76 -19.86,19.76 -10.97,0 -19.87,-8.85 -19.87,-19.76 0,-10.91 8.9,-19.76 19.87,-19.76 10.97,0 19.86,8.85 19.86,19.76 z"
         style="fill:none;stroke:#3e455e;stroke-width:1;stroke-linecap:round;stroke-linejoin:round;stroke-miterlimit:4;stroke-dasharray:none;stroke-opacity:1"
         id="path720"
         inkscape:connector-curvature="0" />
      <path
         d="m -210.78,536.81981 -1.59,-9.69 -4.66,8.66 1.67,-9.68 -7.23,6.68 4.73,-8.61 -9.02,3.98 7.29,-6.62 -9.83,0.86 9.06,-3.91 -9.58,-2.37 9.84,-0.77 -8.29,-5.33 9.56,2.45 -6.1,-7.72 8.24,5.41 -3.24,-9.28 6.02,7.78 -0.04,-9.82 3.17,9.3 3.16,-9.3 -0.04,9.82 6.02,-7.78 -3.24,9.28 8.24,-5.41 -6.1,7.72 9.56,-2.45 -8.29,5.33 9.84,0.77 -9.58,2.37 9.06,3.91 -9.83,-0.86 7.29,6.62 -9.02,-3.98 4.73,8.61 -7.23,-6.68 1.67,9.68 -4.66,-8.66 z"
         style="fill:#718ebb;fill-opacity:1;fill-rule:evenodd;stroke:none"
         id="path724"
         inkscape:connector-curvature="0" />
      <path
         d="m -199.8898,517.69971 c 0,5.99 -4.88,10.84 -10.89,10.84 -6.02,0 -10.9,-4.85 -10.9,-10.84 0,-5.98 4.88,-10.83 10.9,-10.83 6.01,0 10.89,4.85 10.89,10.83"
         style="fill:#121328;fill-opacity:1;fill-rule:evenodd;stroke:none"
         id="path728"
         inkscape:connector-curvature="0" />
      <path
         d="m -206.3,522.15971 c 0,2.12 -2.01,3.83 -4.48,3.83 -2.48,0 -4.49,-1.71 -4.49,-3.83 0,-2.11 2.01,-3.82 4.49,-3.82 2.47,0 4.48,1.71 4.48,3.82"
         style="fill:#ffffff;fill-opacity:1;fill-rule:evenodd;stroke:none"
         id="path732"
         inkscape:connector-curvature="0" />
      <path
         d="m -219.8098,510.54001 c -0.33,0.42 -2.17,-0.07 -4.17,-1.13 -2.09,-1.1 -3.67,-2.44 -3.44,-2.97 0.23,-0.55 2.28,0.01 4.48,1.22 2.12,1.16 3.48,2.44 3.13,2.88"
         style="fill:#ffffff;fill-opacity:1;fill-rule:evenodd;stroke:none"
         id="path736"
         inkscape:connector-curvature="0" />
    </g>
    <g
       transform="matrix(1.380083,0,0,-1.380083,611.77856,1149.7857)"
       id="g4314">
      <path
         d="m -423.53937,149.34482 c 0,0 12.42,5.7 18.16,7.6 5.73,1.9 3.82,-0.47 9.08,2.85 5.25,3.33 7.64,-1.42 14.33,1.43 6.69,2.85 27.24,7.12 44.92,7.12 17.68,0 50.17,-3.8 61.64,-11.87 11.47,-8.08 10.03,-3.8 2.39,-7.13 -7.65,-3.32 -1.91,1.9 -8.13,0.48 -6.21,-1.43 -8.12,-2.38 -8.12,-0.48 0,1.9 -7.17,0.95 -6.21,1.9 0.95,0.95 -6.21,-0.47 -5.74,0.95 0.48,1.43 -25.32,5.23 -33.92,5.23 -8.6,0 -43.48,-7.6 -46.35,-5.7 -2.87,1.9 -11.95,0.95 -13.86,-0.48 -1.91,-1.42 -2.87,3.33 -5.26,0.95 -2.38,-2.37 -5.25,1.43 -7.16,-0.47 -1.91,-1.9 -7.17,-0.95 -10.04,-2.38 -2.86,-1.42 -5.73,0 -5.73,0"
         style="fill:#d6a895;fill-opacity:1;fill-rule:evenodd;stroke:none"
         id="path828"
         inkscape:connector-curvature="0" />
      <path
         d="m -301.21907,88.534721 c 0,0 -24.84,-5.7 -40.61,-5.7 -15.77,0 -24.85,3.32 -32.49,8.55 -7.65,5.23 -13.38,8.08 -13.38,8.08 0,0 10.99,9.969999 19.11,11.869999 8.12,1.9 48.26,8.56 54.95,4.76 6.69,-3.81 23.41,-16.159999 23.41,-21.859999 0,-5.7 -10.99,-5.7 -10.99,-5.7"
         style="fill:#f4c2b2;fill-opacity:1;fill-rule:evenodd;stroke:none"
         id="path832"
         inkscape:connector-curvature="0" />
      <path
         d="m -295.95937,90.914621 c 0,0 -25.32,-6.18 -41.09,-6.18 -15.77,0 -24.85,3.33 -32.5,8.55 -7.64,5.23 -13.38,8.079999 -13.38,8.079999 0,0 10.99,9.97 19.12,11.87 8.12,1.9 48.26,8.56 54.95,4.76 6.69,-3.81 20.07,-16.63 20.07,-22.329999 0,-5.7 -7.17,-4.75 -7.17,-4.75"
         style="fill:#ffe0d6;fill-opacity:1;fill-rule:evenodd;stroke:none"
         id="path836"
         inkscape:connector-curvature="0" />
      <path
         d="m -296.43927,91.864821 c 0,0 -24.84,-5.71 -40.61,-5.71 -15.77,0 -24.85,3.33 -32.5,8.56 -7.64,5.22 -13.38,8.069999 -13.38,8.069999 0,0 10.99,9.98 19.12,11.88 8.12,1.9 48.26,8.55 54.95,4.75 6.69,-3.8 19.59,-18.05 19.59,-23.749999 0,-5.7 -7.17,-3.8 -7.17,-3.8"
         style="fill:#ffffff;fill-opacity:1;fill-rule:evenodd;stroke:none"
         id="path840"
         inkscape:connector-curvature="0" />
      <path
         d="m -296.43927,91.864821 c 0,0 -24.84,-5.71 -40.61,-5.71 -15.77,0 -24.85,3.33 -32.5,8.56 -7.64,5.22 -13.38,8.069999 -13.38,8.069999 0,0 10.99,9.98 19.12,11.88 8.12,1.9 48.26,8.55 54.95,4.75 6.69,-3.8 19.59,-18.05 19.59,-23.749999 0,-5.7 -7.17,-3.8 -7.17,-3.8 z"
         style="fill:none;stroke:#c88372;stroke-width:1;stroke-linecap:round;stroke-linejoin:round;stroke-miterlimit:4;stroke-dasharray:none;stroke-opacity:1"
         id="path844"
         inkscape:connector-curvature="0" />
      <path
         d="m -365.48907,92.214421 c -1.41,0.77 -2.75,1.61 -4.06,2.5 -7.64,5.22 -13.38,8.069999 -13.38,8.069999 0,0 10.99,9.98 19.12,11.88 8.12,1.9 48.26,8.55 54.95,4.75 6.69,-3.8 19.59,-18.05 19.59,-23.749999 l -0.01,-0.4 c -3.14,5.999999 -15.24,16.239999 -22.45,18.919999 -7.64,2.86 -20.54,0.95 -33.45,-0.95 -12.9,-1.9 -23.41,-6.17 -26.76,-9.97 -1.85,-2.11 2.12,-6.599999 6.45,-11.049999"
         style="fill:#bcccdf;fill-opacity:1;fill-rule:evenodd;stroke:none"
         id="path848"
         inkscape:connector-curvature="0" />
      <path
         d="m -316.50917,106.58462 c 0,10.76 -8.77,19.48 -19.59,19.48 -10.82,0 -19.59,-8.72 -19.59,-19.48 0,-10.749999 8.77,-19.479999 19.59,-19.479999 10.82,0 19.59,8.73 19.59,19.479999"
         style="fill:#8a999d;fill-opacity:1;fill-rule:evenodd;stroke:none"
         id="path852"
         inkscape:connector-curvature="0" />
      <path
         d="m -316.50917,106.58462 c 0,10.76 -8.77,19.48 -19.59,19.48 -10.82,0 -19.59,-8.72 -19.59,-19.48 0,-10.749999 8.77,-19.479999 19.59,-19.479999 10.82,0 19.59,8.73 19.59,19.479999 z"
         style="fill:none;stroke:#3f4e50;stroke-width:3;stroke-linecap:round;stroke-linejoin:round;stroke-miterlimit:4;stroke-dasharray:none;stroke-opacity:1"
         id="path856"
         inkscape:connector-curvature="0" />
      <path
         d="m -355.19907,106.11482 -0.01,0.62 c 0,10.41 8.56,18.86 19.11,18.86 10.48,0 18.98,-8.31 19.12,-18.61 -4.13,3.82 -10.81,8.22 -19.21,7.48 -10.64,-0.94 -15.99,-4.61 -19.01,-8.35"
         style="fill:#647376;fill-opacity:1;fill-rule:evenodd;stroke:none"
         id="path860"
         inkscape:connector-curvature="0" />
      <path
         d="m -350.42907,100.88482 c 0,0 -2.39,4.75 5.25,0 7.65,-4.749999 11.95,-6.649999 16.25,-0.949999 4.3,5.699999 8.12,7.129999 9.56,4.279999 1.43,-2.85 -6.22,-14.729999 -14.34,-14.729999 -8.12,0 -10.99,1.9 -14.33,5.23 -3.35,3.32 -2.39,6.169999 -2.39,6.169999"
         style="fill:#9fbec6;fill-opacity:1;fill-rule:evenodd;stroke:none"
         id="path864"
         inkscape:connector-curvature="0" />
      <path
         d="m -327.01937,107.06452 c 0,4.72 -3.85,8.55 -8.6,8.55 -4.75,0 -8.6,-3.83 -8.6,-8.55 0,-4.72 3.85,-8.549999 8.6,-8.549999 4.75,0 8.6,3.829999 8.6,8.549999"
         style="fill:#5a564f;fill-opacity:1;fill-rule:evenodd;stroke:none"
         id="path868"
         inkscape:connector-curvature="0" />
      <path
         d="m -328.44907,107.06452 c 0,3.93 -3.21,7.12 -7.17,7.12 -3.96,0 -7.17,-3.19 -7.17,-7.12 0,-3.94 3.21,-7.129999 7.17,-7.129999 3.96,0 7.17,3.189999 7.17,7.129999"
         style="fill:#000000;fill-opacity:1;fill-rule:evenodd;stroke:none"
         id="path872"
         inkscape:connector-curvature="0" />
      <path
         d="m -338.48907,107.53472 c 0,2.37 -1.92,4.28 -4.3,4.28 -2.37,0 -4.3,-1.91 -4.3,-4.28 0,-2.36 1.93,-4.27 4.3,-4.27 2.38,0 4.3,1.91 4.3,4.27"
         style="fill:#ffffff;fill-opacity:1;fill-rule:evenodd;stroke:none"
         id="path876"
         inkscape:connector-curvature="0" />
      <path
         d="m -324.14927,98.034721 c 0,1.05 -0.86,1.9 -1.91,1.9 -1.06,0 -1.91,-0.85 -1.91,-1.9 0,-1.05 0.85,-1.9 1.91,-1.9 1.05,0 1.91,0.85 1.91,1.9"
         style="fill:#ffffff;fill-opacity:1;fill-rule:evenodd;stroke:none"
         id="path880"
         inkscape:connector-curvature="0" />
      <path
         d="m -326.53937,94.234521 c 0,1.58 -1.28,2.85 -2.87,2.85 -1.58,0 -2.86,-1.27 -2.86,-2.85 0,-1.57 1.28,-2.85 2.86,-2.85 1.59,0 2.87,1.28 2.87,2.85"
         style="fill:#ffffff;fill-opacity:1;fill-rule:evenodd;stroke:none"
         id="path884"
         inkscape:connector-curvature="0" />
      <path
         d="m -404.42907,106.58462 c 0,0 25.81,18.06 35.36,21.86 9.56,3.8 64.03,5.22 74.54,-1.9 10.52,-7.13 12.91,-33.259999 4.3,-24.71 -8.6,8.55 -10.99,15.21 -22.93,17.11 -11.95,1.9 -33.45,-0.95 -45.87,-3.81 -12.43,-2.85 -31.06,-16.149999 -37.75,-14.72 -6.69,1.42 -7.65,6.17 -7.65,6.17"
         style="fill:#deb19e;fill-opacity:1;fill-rule:evenodd;stroke:none"
         id="path888"
         inkscape:connector-curvature="0" />
      <path
         d="m -370.49937,94.714421 c 0,0 -19.11,4.75 -24.85,4.27 -5.73,-0.47 18.16,10.929999 24.37,13.779999 6.21,2.85 -11.95,-8.08 -9.08,-10.45 2.87,-2.379999 9.56,-7.599999 9.56,-7.599999"
         style="fill:#c88372;fill-opacity:1;fill-rule:evenodd;stroke:none"
         id="path892"
         inkscape:connector-curvature="0" />
      <path
         d="m -379.57897,102.31452 c 0,0 8.12,-6.179999 11.95,-9.029999 3.82,-2.85 -12.91,7.129999 -17.68,7.129999 -4.78,0 9.17,13.66 22.93,16.15 15.77,2.85 44.44,6.18 53.04,3.8 8.6,-2.37 10.51,-10.45 15.77,-15.68 4.69,-4.66 -11.95,9.98 -15.77,13.31 -3.82,3.32 -48.26,-2.86 -55.91,-5.71 -7.64,-2.85 -14.33,-9.97 -14.33,-9.97"
         style="fill:#000000;fill-opacity:1;fill-rule:evenodd;stroke:none"
         id="path896"
         inkscape:connector-curvature="0" />
      <path
         d="m -289.74937,98.034721 c 0,0 6.21,-6.65 3.83,-7.6 -2.39,-0.95 -7.17,1.43 -11.47,0.48 -2.53,-0.56 1.03,0.57 4,2.77 2.09,1.55 3.64,4.35 3.64,4.35"
         style="fill:#c88372;fill-opacity:1;fill-rule:evenodd;stroke:none"
         id="path900"
         inkscape:connector-curvature="0" />
      <path
         d="m -401.07897,109.43462 c 0,0 32.49,18.53 41.57,19.01 9.08,0.47 49.69,4.27 61.64,-3.8 11.95,-8.08 17.2,-18.53 20.07,-19.48 2.87,-0.95 -12.43,20.43 -20.07,24.23 -7.65,3.8 -51.61,5.22 -65.46,1.42 -13.86,-3.8 -37.75,-21.38 -37.75,-21.38"
         style="fill:#c0836b;fill-opacity:1;fill-rule:evenodd;stroke:none"
         id="path904"
         inkscape:connector-curvature="0" />
      <path
         d="m -359.98907,119.41462 c 12.42,0 41.57,3.8 38.23,6.18 -3.35,2.37 -27.72,3.32 -42.53,0.47 -14.81,-2.85 -28.67,-13.78 -28.67,-16.63 0,-2.85 20.55,9.98 32.97,9.98"
         style="fill:#fad9cd;fill-opacity:1;fill-rule:evenodd;stroke:none"
         id="path908"
         inkscape:connector-curvature="0" />
      <path
         d="m -299.77917,157.42492 c 0,0 -2.87,-4.75 -9.08,-2.85 -6.21,1.9 -20.07,5.22 -25.8,2.85 -5.74,-2.38 -0.96,2.37 -5.74,0.47 -4.78,-1.9 -4.3,1.9 -10.99,0 -6.69,-1.9 -18.16,-1.9 -12.9,0.48 5.26,2.37 21.03,7.6 38.7,7.12 17.68,-0.47 25.81,-8.07 25.81,-8.07"
         style="fill:#a5705c;fill-opacity:1;fill-rule:evenodd;stroke:none"
         id="path912"
         inkscape:connector-curvature="0" />
    </g>
    <g
       transform="matrix(1.380083,0,0,-1.380083,326.2862,748.23385)"
       id="g4241">
      <path
         d="m -116.3178,-81.14807 c 0,0 7.415,-12.794 20.994998,-13.422 13.59,-0.628 42.754,17.992 36.359,27.499 -6.386,9.507 -15.134,22.163 -18.852,12.287 -3.708,-9.875 -23.810998,-18.065 -23.810998,-18.065 z"
         style="fill:#f0d7d2;fill-opacity:1;fill-rule:evenodd;stroke:none"
         id="path916"
         inkscape:connector-curvature="0" />
      <path
         d="m -198.789,-55.11527 c 0,0 7.161,-16.891 23.139,-14.557 15.988,2.336 19.928,3.422 10.926,11.98 -8.993,8.569 -34.065,2.577 -34.065,2.577"
         style="fill:#deb89f;fill-opacity:1;fill-rule:evenodd;stroke:none"
         id="path920"
         inkscape:connector-curvature="0" />
      <path
         d="m -169.4174,-71.06157 c 0,0 10.011,-11.837 27.088,-13.46 17.067,-1.625 52.764998,6.146 46.995998,9.61 -5.769998,3.474 -61.582998,7.181 -72.311998,12.854 -10.729,5.665 -1.772,-9.004 -1.772,-9.004"
         style="fill:#edccc4;fill-opacity:1;fill-rule:evenodd;stroke:none"
         id="path924"
         inkscape:connector-curvature="0" />
      <path
         d="m -145.8164,-31.32337 c 0,0 -31.538,-28.356 -45.66,-29.141 -14.113,-0.784 -42.326,10.533 -25.908,21.724 16.418,11.193 8.643,14.459 35.442,23.342 26.789,8.875 36.532,-0.285 37.621,-4.243 1.079,-3.951 -1.495,-11.682 -1.495,-11.682"
         style="fill:#eecbb5;fill-opacity:1;fill-rule:evenodd;stroke:none"
         id="path928"
         inkscape:connector-curvature="0" />
      <path
         d="m -140.2993,-6.34137 c 0,0 25.999,-37.76 54.546998,-54.461 28.549,-16.711 31.781,6.453 13.602,29.658 -18.178,23.204 -26.034,25.096 -43.923998,25.956 -17.89,0.86 -24.225,-1.153 -24.225,-1.153"
         style="fill:#eecbb5;fill-opacity:1;fill-rule:evenodd;stroke:none"
         id="path932"
         inkscape:connector-curvature="0" />
      <path
         d="m -183.5874,-58.28967 c 0,0 5.873,-6.623 11.191,-3.581 5.319,3.033 9.954,14.816 25.618,20.278 15.654,5.462 1.67,9.897 -11.933,4.193 -13.603,-5.704 -24.876,-20.89 -24.876,-20.89"
         style="fill:#d3ab91;fill-opacity:1;fill-rule:evenodd;stroke:none"
         id="path936"
         inkscape:connector-curvature="0" />
      <path
         d="m -87.770002,-56.49427 c 0,0 14.276,-13.886 8.354,-15.41 -5.931,-1.517 -13.509,-2.302 -24.677998,-3.236 -11.17,-0.925 -25.791,-3.352 -33.657,-1.452 -7.856,1.9 -14.472,4.83 -22.652,9.857 -8.18,5.027 -12.919,7.25 -3.395,13.21 9.524,5.96 18.817,11.897 28.919,14.523 10.092,2.626 19.152,2.208 29.314,-2.39 10.161998,-4.589 17.794998,-15.102 17.794998,-15.102"
         style="fill:#ffffff;fill-opacity:1;fill-rule:evenodd;stroke:none"
         id="path940"
         inkscape:connector-curvature="0" />
      <path
         d="m -131.2514,-8.79647 c 0,0 58.417998,-24.455 24.25,-25.281 -34.168,-0.826 -36.891,-4.957 -43.323,-8.105 -6.439,-3.158 -12.152,4.16 -10.903,16.048 1.243,11.878 -14.83,14.48 -9.117,16.224 27.958,8.549 39.093,1.114 39.093,1.114"
         style="fill:#f1d5c9;fill-opacity:1;fill-rule:evenodd;stroke:none"
         id="path944"
         inkscape:connector-curvature="0" />
      <path
         d="m -87.770002,-56.49427 c 0,0 -7.633,10.513 -17.794998,15.102 -10.162,4.598 -19.222,5.016 -29.314,2.39 -10.102,-2.626 -19.395,-8.563 -28.919,-14.523 l -0.401,-0.255 c -4.937,-5.643 -5.65,-9.435 2.221,-4.306 8.655,5.647 38.42,14.16 50.806,12.05 12.394998,-2.108 28.339998,-25.544 28.339998,-25.544 0,0 2.584,0.983 4.148,3.832 -2.243,4.601 -9.086,11.254 -9.086,11.254"
         style="fill:#dae0eb;fill-opacity:1;fill-rule:evenodd;stroke:none"
         id="path948"
         inkscape:connector-curvature="0" />
      <path
         d="m -97.813902,-37.87507 c 0,0 24.656,-27.051 33.82,-26.324 9.166,0.717 13.023,7.001 3.083,15.907 -9.93,8.917 -33.205,15.997 -44.153998,15.094 -10.94,-0.911 7.250998,-4.677 7.250998,-4.677"
         style="fill:#deb89f;fill-opacity:1;fill-rule:evenodd;stroke:none"
         id="path952"
         inkscape:connector-curvature="0" />
      <path
         d="m -150.3242,-59.58357 c -1.267,12.222 7.583,23.16 19.778,24.424 12.185,1.263 23.099,-7.627 24.366,-19.85 1.268,-12.231 -7.593,-23.16 -19.778,-24.423 -12.195,-1.264 -23.098,7.618 -24.366,19.849"
         style="fill:#455a7c;fill-opacity:1;fill-rule:evenodd;stroke:none"
         id="path956"
         inkscape:connector-curvature="0" />
      <path
         d="m -148.2837,-59.71637 c -1.171,11.303 7.011,21.409 18.277,22.577 11.266,1.167 21.348,-7.047 22.519,-18.349 1.171,-11.303 -7.012,-21.409 -18.278,-22.577 -11.266,-1.167 -21.347,7.047 -22.518,18.349"
         style="fill:#6680aa;fill-opacity:1;fill-rule:evenodd;stroke:none"
         id="path960"
         inkscape:connector-curvature="0" />
      <path
         d="m -129.6308,-37.44437 c 0.056,0.006 2.566,-10.954 2.614,-10.958 0.037,-0.006 4.072,10.489 4.119,10.475 0.058,-0.013 -1.304,-11.178 -1.266,-11.193 0.031,-0.025 7.397,8.454 7.438,8.421 0.05,-0.032 -5.028,-10.058 -5.006,-10.083 0.03,-0.026 9.832,5.396 9.865,5.353 0.033,-0.053 -8.152,-7.714 -8.13,-7.748 0.013,-0.037 11.071,1.695 11.088,1.631 0.014,-0.054 -10.285,-4.44 -10.282,-4.476 0.004,-0.037 10.984,-2.218 10.981,-2.274 -0.004,-0.056 -11.181,-0.638 -11.187,-0.676 -0.014,-0.038 9.568,-5.859 9.547,-5.917 -0.024,-0.049 -10.73,3.248 -10.754,3.217 -0.015,-0.029 7.009,-8.792 6.967,-8.834 -0.034,-0.04 -8.981,6.739 -9.007,6.717 -0.034,-0.031 3.589,-10.68 3.535,-10.704 -0.043,-0.023 -6.144,9.421 -6.18,9.408 -0.045,-0.014 -0.256,-11.255 -0.311,-11.261 -0.064,-0.007 -2.575,10.952 -2.622,10.957 -0.038,0.005 -4.072,-10.49 -4.12,-10.475 -0.058,0.012 1.305,11.178 1.265,11.202 -0.03,0.015 -7.397,-8.454 -7.437,-8.421 -0.051,0.032 5.028,10.049 5.007,10.074 -0.031,0.025 -9.833,-5.397 -9.866,-5.353 -0.032,0.052 8.153,7.713 8.13,7.748 -0.013,0.036 -11.072,-1.687 -11.087,-1.632 -0.015,0.054 10.285,4.44 10.282,4.477 -0.004,0.036 -10.985,2.217 -10.982,2.274 0.003,0.065 11.182,0.637 11.187,0.676 0.015,0.038 -9.568,5.858 -9.546,5.917 0.023,0.048 10.729,-3.249 10.754,-3.218 0.015,0.03 -7.01,8.801 -6.968,8.843 0.033,0.041 8.981,-6.747 9.006,-6.716 0.035,0.022 -3.587,10.67 -3.534,10.695 0.043,0.022 6.144,-9.421 6.18,-9.408 0.045,0.013 0.256,11.255 0.32,11.262"
         style="fill:#94a2bd;fill-opacity:1;fill-rule:evenodd;stroke:none"
         id="path964"
         inkscape:connector-curvature="0" />
      <path
         d="m -138.184,-58.32577 c -0.57,5.5 3.41,10.42 8.9,10.989 5.481,0.568 10.395,-3.431 10.964,-8.93 0.571,-5.509 -3.418,-10.431 -8.899,-10.998 -5.49,-0.57 -10.395,3.431 -10.965,8.939"
         style="fill:#000000;fill-opacity:1;fill-rule:evenodd;stroke:none"
         id="path968"
         inkscape:connector-curvature="0" />
      <path
         d="m -141.6811,-67.63977 c -0.381,3.67 2.273,6.947 5.934,7.327 3.651,0.378 6.929,-2.285 7.309,-5.954 0.381,-3.67 -2.282,-6.949 -5.933,-7.327 -3.661,-0.379 -6.93,2.285 -7.31,5.954"
         style="fill:#99ccff;fill-opacity:1;fill-rule:evenodd;stroke:none"
         id="path972"
         inkscape:connector-curvature="0" />
      <path
         d="m -141.9101,-65.43217 c -0.253,2.446 1.518,4.638 3.955,4.891 2.437,0.252 4.621,-1.53 4.874,-3.976 0.253,-2.437 -1.519,-4.629 -3.956,-4.881 -2.437,-0.253 -4.62,1.529 -4.873,3.966"
         style="fill:#ffffff;fill-opacity:1;fill-rule:evenodd;stroke:none"
         id="path976"
         inkscape:connector-curvature="0" />
      <path
         d="m -119.8818,-51.95807 c -0.253,2.446 1.519,4.629 3.956,4.881 2.438,0.253 4.619,-1.52 4.873,-3.966 0.254,-2.446 -1.519,-4.628 -3.956,-4.881 -2.437,-0.252 -4.62,1.52 -4.873,3.966"
         style="fill:#ffffff;fill-opacity:1;fill-rule:evenodd;stroke:none"
         id="path980"
         inkscape:connector-curvature="0" />
      <path
         d="m -135.4751,-73.70757 c -0.254,2.446 1.519,4.628 3.956,4.881 2.437,0.252 4.619,-1.52 4.873,-3.966 0.253,-2.446 -1.518,-4.638 -3.955,-4.89 -2.437,-0.253 -4.621,1.529 -4.874,3.975"
         style="fill:#ccffff;fill-opacity:1;fill-rule:evenodd;stroke:none"
         id="path984"
         inkscape:connector-curvature="0" />
      <path
         d="m -172.291,-60.73547 c 0,0 13.493,12.785 22.859,18.646 19.048,11.919 37.154,9.055 48.93,1.9 17.794998,-10.807 19.046998,-22.882 19.046998,-22.882 0,0 -22.012998,27.548 -45.776998,24.184 -23.764,-3.365 -27.141,-11.848 -34.422,-15.773 -7.255,-3.911 -10.637,-6.075 -10.637,-6.075"
         style="fill:#513f37;fill-opacity:1;fill-rule:evenodd;stroke:none"
         id="path988"
         inkscape:connector-curvature="0" />
      <path
         d="m -173.4604,-64.69587 c 0,0 6.985,0.046 13.799,-2.641 6.812,-2.687 -2.051,4.537 -6.049,6.159 -3.997,1.612 5.352,7.108 5.352,7.108 l -17.39,-8.356 z"
         style="fill:#907a5f;fill-opacity:1;fill-rule:evenodd;stroke:none"
         id="path992"
         inkscape:connector-curvature="0" />
      <path
         d="m -178.5825,-54.37847 c 0,0 27.215,22.257 48.431,21.964 21.204,-0.284 38.002998,-5.775 45.035998,-12.734 7.022,-6.951 12.653,-9.081 12.653,-9.081 0,0 -13.512,18.176 -31.039998,21.193 -22.941,3.953 -39.533,3.136 -53.157,-4.606 -9.464,-5.378 -21.923,-16.736 -21.923,-16.736"
         style="fill:#b18b80;fill-opacity:1;fill-rule:evenodd;stroke:none"
         id="path996"
         inkscape:connector-curvature="0" />
      <path
         d="m -157.6572,-67.12897 c 0,0 11.089,-13.538 29.788,-13.413 18.688,0.134 48.662998,6.623 48.662998,6.623 0,0 2.403,2.824 -15.503,-0.472 -16.800998,-3.098 -36.274998,-4.438 -44.917998,-1.494 -8.644,2.952 -18.03,8.756 -18.03,8.756"
         style="fill:#c1a39d;fill-opacity:1;fill-rule:evenodd;stroke:none"
         id="path1000"
         inkscape:connector-curvature="0" />
      <path
         d="m -204.5234,-25.87997 c 0,0 62.355,21.873 96.641,13.407 42.546998,-10.511 61.743998,-8.744 50.005998,0.209 -11.748,8.952 -50.330998,20.328 -83.709998,16.19 -33.37,-4.13599996 -62.937,-29.806 -62.937,-29.806"
         style="fill:#d8b8a0;fill-opacity:1;fill-rule:evenodd;stroke:none"
         id="path1004"
         inkscape:connector-curvature="0" />
      <path
         d="m -204.5234,-25.87997 c 0,0 41.385,20.341 85.923,16.814 38.828998,-3.069 67.513998,-12.209 55.765998,-3.256 -11.738,8.952 -47.329998,17.469 -80.699998,13.332 -33.379,-4.137 -60.989,-26.89 -60.989,-26.89"
         style="fill:#bb957f;fill-opacity:1;fill-rule:evenodd;stroke:none"
         id="path1008"
         inkscape:connector-curvature="0" />
      <path
         d="m -172.9975,-10.40827 c 0,0 2.156,0.902 7.357,0.762 5.192,-0.14 -0.219,4.272 3.13,2.36 3.359,-1.911 12.256,-0.766 12.256,-0.766 0,0 -4.088,0.256 -5.631,2.131 -1.551,1.875 3.188,-0.348 10.313,-1.645 7.115,-1.299 1.484,0.832 -0.279,2.685 -1.772,1.852 4.612,1.156 9.501,-0.372 4.89,-1.53 14.182,-4.183 14.994,-1.161 0.811,3.021 4.123,1.561 8.168,-0.511 4.043,-2.063 7.797,-3.486 8.157,-0.503 0.37,2.977 2.525,-0.416 5.560998,-1.459 3.036,-1.042 0.511,5.928 -8.792998,6.544 -9.294,0.618 -17.033,5.69 -19.281,3.431 -2.246,-2.269 -6.79,-1.83799996 -10.034,-1.03999996 -3.232,0.79 -10.508,1.39299996 -11.367,-1.17800004 -0.857,-2.58 -9.568,-1.224 -9.824,-3.054 -0.265,-1.84 -8.492,-2.916 -8.492,-2.916 z"
         style="fill:#a17961;fill-opacity:1;fill-rule:evenodd;stroke:none"
         id="path1012"
         inkscape:connector-curvature="0" />
      <path
         d="m -172.604,-59.86577 c 1.51,1.662 6.096,8.718 6.755,10.878 0.411,1.335 -0.323,6.706 -2.028,6.566 1.74,-0.107 8.177,-1.411 6.708,-3.822 -0.462,-0.745 0.667,-1.688 1.426,-0.763 1.725,2.103 1.466,2.448 1.118,5.182 -0.245,1.824 -1.326,4.901 -3.789,3.818 2.29,0.507 7.689,0.88 7.073,-2.948 -0.284,-1.749 -0.917,-3.795 -0.765,-5.619 1.668,2.022 3.312,4.46 3.994,7.022 0.678,2.525 -2.566,3.676 -4.458,3.908 1.862,0.248 6.136,0.356 6.945,-1.893 0.547,-1.514 0.516,-3.274 -0.178,-4.741 1.306,1.391 4.414,4.948 2.001,6.705 -0.764,0.553 -2.882,1.793 -3.005,2.895 1.949,-0.057 5.268,-0.605 6.33,-2.513 0.8,-1.441 1.009,-3.186 0.493,-4.755 1.262,1.005 3.574,3.271 3.51,5.143 -0.053,1.416 -0.669,2.96 -1.763,3.916 1.565,-0.387 6.731,-1.98 4.497,-4.368 -0.803,-0.864 -2.526,-2.446 -2.289,-3.835 1.725,0.57 8.345,2.715 8.195,5.237 -0.075,1.349 -0.402,2.98 -1.1,4.153 1.021,-0.787 4.079,-3.389 3.234,-4.926 -0.721,-1.293 -1.944,-2.321 -3.055,-3.255 1.848,0.462 7.837,2.049 7.558,4.837 -0.157,1.508 -0.901,3.225 -2.412,3.812 1.075,-0.428 6.17,-2.679 4.506,-4.562 l -2.406,-2.703 c 1.951,0.453 6.687,1.669 6.951,4.141 0.189,1.683 -1.046,3.284 -2.431,4.089 1.237,-0.811 5.321,-3.716 3.942,-5.653 -0.464,-0.642 -1.116,-1.612 -1.797,-2.129 2.107,0.303 6.571,1.351 5.587,4.391 -0.113,0.369 -1.215,3.387 -1.672,3.219 1.451,-0.723 5.422,-3.073 3.897,-5.229 -0.819,-1.154 -2.245,-2.556 -3.743,-2.721 1.735,0.217 5.383,0.976 6.438,2.647 0.645,1.034 0.754,2.319 -0.321,3.1 0.827,-1.17 2.486,-3.898 0.495,-4.783 -0.32,-0.145 -2.281,-0.859 -1.853,-1.577 1.502,0.304 7.361,1.432 6.999,3.672 -0.177,1.078 -0.719,2.64 -1.689,3.292 1.079,-0.715 5.712998,-3.999 3.251,-5.445 -0.639,-0.382 -2.781,-1.506 -3.792,-2.252 0.491,0.107 7.918998,1.62 7.750998,2.886 -0.131,0.906 -0.325,1.704 -0.271,2.621 1.552,-1.345 3.189,-3.955 0.325,-4.93 -0.701,-0.24 -3.503998,-0.726 -3.658998,-1.737 1.472998,0.041 7.774998,-0.848 8.257998,0.856 0.382,1.341 0.892,2.333 0.742,3.693 0.882,-1.154 1.104,-3.474 0.069,-4.966 -1.011,-1.452 -4.078,-0.832 -5.589,-0.886 2.394,-0.04 7.975,-1.693 9.76,-0.262 2.918,2.339 2.965,1.887 0.116,-1.113 -1.818,-1.926 -3.718,-0.181 -6.345,-0.313 1.865,-0.234 6.513,-3.202 8.209,-2.431 2.584,1.169 4.188,2.377 4.276,2.246 1.21,-1.9 -2.777,-4.507 -4.264,-4.513 -2.454,-0.003 -3.108,0.924 -5.538,1.239 1.957,-0.234 2.398,-5.384 10.416,-0.5 0.288,0.178 2.698,2.398 2.515,1.84 -0.858,-2.58 -4.53,-5.981 -6.628,-5.66 -1.955,0.299 1.372,-2.646 -0.613,-2.778 -0.97,-0.063 -0.095,-2.938 -1.055,-2.823 -1.79,0.223 -6.34,5.468 -7.879,6.424 -4.746,2.92 -9.419998,8.283 -15.813998,9.619 -12.711,2.642 -25.159,1.306 -37.256,-3.685 -6.917,-2.854 -9.955,-7.538 -15.671,-12.388 z"
         style="fill:#513f37;fill-opacity:1;fill-rule:evenodd;stroke:none"
         id="path1016"
         inkscape:connector-curvature="0" />
      <path
         d="m -121.3457,-78.28577 c 0,0 -1.038,0.06 -2.686,0.177 -5.299,0.362 -16.86,1.33 -19.942,2.907 -4.044,2.063 -14.715,5.028 -14.715,5.028 0,0 11.866,-8.037 17.509,-8.131 5.652,-0.093 19.834,0.019 19.834,0.019"
         style="fill:#907a5f;fill-opacity:1;fill-rule:evenodd;stroke:none"
         id="path1020"
         inkscape:connector-curvature="0" />
      <path
         d="m -158.7109,-65.65827 -9.015,-0.023 c 0,0 3.452,-2.812 11.889,-6 l 6.569,-2.489 z"
         style="fill:#513f37;fill-opacity:1;fill-rule:evenodd;stroke:none"
         id="path1024"
         inkscape:connector-curvature="0" />
    </g>
    <g
       transform="matrix(1.380083,0,0,-1.380083,588.95327,620.51284)"
       id="g4277">
      <path
         d="m -330.78929,-69.182651 c 0,0 -36.413,8.324 -53.216,-0.106 -16.794,-8.432 -14.035,-4.109 -0.185,17.599 13.986,21.922 23.088,27.536 61.045,33.762 37.725,6.187 62.453,-14.346 72.283,-30.217 9.703,-15.676 3.021,-21.349 -6.265,-19.474 -9.315,1.874 -26.254,-5.497 -39.822,-4.108 -13.637,1.388 -33.84,2.544 -33.84,2.544"
         style="fill:#ffcca2;fill-opacity:1;fill-rule:evenodd;stroke:none"
         id="path1028"
         inkscape:connector-curvature="0" />
      <path
         d="m -260.42949,-58.149051 c 0,0 -20.814,31.382 -41.542,36.948 -20.912,5.604 -63.502,-17.989 -72.875,-31.46 -9.314,-13.394 15.443,-5.303 38.754,-14.152 14.365,-5.448 40.173,-0.757 57.597,3.565 10.567,2.613 18.066,5.099 18.066,5.099"
         style="fill:#ffffff;fill-opacity:1;fill-rule:evenodd;stroke:none"
         id="path1032"
         inkscape:connector-curvature="0" />
      <path
         d="m -376.78879,-56.584551 c -0.078,-0.418 -0.098,-0.787 -0.059,-1.127 3.924,2.457 30.227,21.038 41.212,25.107 11.743,4.352 15.453,6.741 38.084,-0.942 11.859,-4.03 28.07,-17.007 32.713,-25.972 l 1.243,0.379 -1.068,6.848 c -7.11,9.333 -18.62,28.215 -33.82,31.644 -51.877,11.6940002 -78.013,-35.18 -78.305,-35.937"
         style="fill:#d9dfea;fill-opacity:1;fill-rule:evenodd;stroke:none"
         id="path1036"
         inkscape:connector-curvature="0" />
      <path
         d="m -344.07589,-32.225651 c 7.051,13.871 24,19.115 37.831,11.326 13.957,-7.858 18.92,-25.701 11.141,-39.464 -7.596,-13.423 -24.428,-17.736 -37.657,-9.985 -13.112,7.674 -18.192,24.583 -11.315,38.123"
         style="fill:#846d66;fill-opacity:1;fill-rule:evenodd;stroke:none"
         id="path1040"
         inkscape:connector-curvature="0" />
      <path
         d="m -330.77959,-39.869251 c 3.244,6.187 10.859,8.431 17.007,4.924 6.168,-3.506 8.422,-11.422 5.032,-17.58 -3.351,-6.099 -10.937,-8.149 -16.959,-4.662 -6.003,3.477 -8.275,11.199 -5.08,17.318"
         style="fill:#000000;fill-opacity:1;fill-rule:evenodd;stroke:none"
         id="path1044"
         inkscape:connector-curvature="0" />
      <path
         d="m -340.71559,-46.901451 c 2.098,4.05 7.062,5.478 11.073,3.167 4.031,-2.322 5.536,-7.499 3.38,-11.54 -2.147,-4.001 -7.091,-5.361 -11.054,-3.049 -3.953,2.301 -5.478,7.401 -3.399,11.422"
         style="fill:#99ccff;fill-opacity:1;fill-rule:evenodd;stroke:none"
         id="path1048"
         inkscape:connector-curvature="0" />
      <path
         d="m -346.20339,-52.573351 c -1.01,4.468 1.651,8.819 5.963,9.722 4.342,0.903 8.694,-2.039 9.684,-6.566 0.981,-4.516 -1.748,-8.848 -6.08,-9.693 -4.293,-0.835 -8.567,2.088 -9.567,6.537"
         style="fill:#ffffff;fill-opacity:1;fill-rule:evenodd;stroke:none"
         id="path1052"
         inkscape:connector-curvature="0" />
      <path
         d="m -325.91329,-61.256951 c -0.729,3.37 1.341,6.624 4.652,7.275 3.322,0.661 6.615,-1.573 7.343,-4.973 0.719,-3.39 -1.398,-6.644 -4.71,-7.256 -3.303,-0.621 -6.556,1.603 -7.285,4.954"
         style="fill:#ffffff;fill-opacity:1;fill-rule:evenodd;stroke:none"
         id="path1056"
         inkscape:connector-curvature="0" />
      <path
         d="m -384.63699,-56.283751 c 0,0 12.879,17.396 32.052,28.371 21.844,12.52 46.389,20.2120002 69.806,-1.049 20.922,-18.998 15.172,-21.086 15.172,-21.086 0,0 -30.858,41.6970002 -68.913,24.311 -26.04,-11.908 -38.783,-31.518 -38.783,-31.518 l 17.367,-4.556 c 0,0 -22.223,-0.184 -29.391,-2.846 -7.159,-2.651 2.69,8.373 2.69,8.373"
         style="fill:#624f55;fill-opacity:1;fill-rule:evenodd;stroke:none"
         id="path1060"
         inkscape:connector-curvature="0" />
      <path
         d="m -369.41719,-60.460551 c 0,0 17.348,-0.417 34.578,-7.576 10.276,-4.273 25.593,-3.953 48.748,2.496 23.107,6.44 -23.728,-10.003 -38.093,-9.149 -23.476,1.409 -45.233,14.229 -45.233,14.229"
         style="fill:#feb498;fill-opacity:1;fill-rule:evenodd;stroke:none"
         id="path1064"
         inkscape:connector-curvature="0" />
      <path
         d="m -246.10279,14.901249 c 0,0 -6.09,9.412 -60.366,7.819 -54.634,-1.622 -86.978,2.564 -102.625,-17.0269998 -15.657,-19.6000002 -11.626,16.3859998 20.426,23.8159998 83.705,19.416 125.509,11.054 144.701,-4.41 11.083,-8.926 -2.136,-10.198 -2.136,-10.198"
         style="fill:#d7ad88;fill-opacity:1;fill-rule:evenodd;stroke:none"
         id="path1068"
         inkscape:connector-curvature="0" />
      <path
         d="m -258.86549,-33.798451 c 0,0 -34.024,42.3090002 -73.701,31.8870002 -39.832,-10.4610002 -51.818,-48.0110002 -51.818,-48.0110002 0,0 47.525,45.1070002 66.747,40.6870002 19.173,-4.3990002 58.772,-24.5630002 58.772,-24.5630002"
         style="fill:#ffead5;fill-opacity:1;fill-rule:evenodd;stroke:none"
         id="path1072"
         inkscape:connector-curvature="0" />
      <path
         d="m -267.73369,-22.026951 c 0,0 -45.408,28.7700002 -72.749,16.2590002 -27.4,-12.5390002 -43.824,-37.6170002 -43.824,-37.6170002 0,0 26.341,53.517 64.872,44.6300002 35.16,-8.11 51.701,-23.2720002 51.701,-23.2720002"
         style="fill:#f5c49d;fill-opacity:1;fill-rule:evenodd;stroke:none"
         id="path1076"
         inkscape:connector-curvature="0" />
      <path
         d="m -263.05199,22.253849 c 0,0 -17.114,7.051 -18.144,4.118 -1.019,-2.933 -7.828,-0.573 -14.977,0.817 -7.158,1.388 -14.375,-0.496 -21.543,0.893 -7.177,1.388 -5.322,-5.847 -17.687,-0.466 -12.393,5.39 -20.378,-1.749 -20.378,-1.749 l -13.16,0.136 c 0,0 32.062,13.123 42.824,9.383 10.742,-3.73 24.107,-6.168 23.524,-1.573 -0.583,4.593 16.833,-8.042 12.365,-2.108 -4.469,5.944 14.006,-0.486 11.772,2.487 -2.224,2.972 15.404,-11.938 15.404,-11.938"
         style="fill:#c98b61;fill-opacity:1;fill-rule:evenodd;stroke:none"
         id="path1080"
         inkscape:connector-curvature="0" />
      <path
         d="m -308.85769,-49.300351 c 2.224,4.254 7.499,5.867 11.772,3.604 4.273,-2.264 5.935,-7.547 3.701,-11.801 -2.235,-4.245 -7.499,-5.857 -11.772,-3.585 -4.274,2.263 -5.925,7.537 -3.701,11.782"
         style="fill:#c5bab7;fill-opacity:1;fill-rule:evenodd;stroke:none"
         id="path1084"
         inkscape:connector-curvature="0" />
      <path
         d="m -379.36299,-37.654851 c 0,0 1.729,-3.807 6.751,-7.566"
         style="fill:none;stroke:#624f55;stroke-width:0.97100002;stroke-linecap:square;stroke-linejoin:round;stroke-miterlimit:4;stroke-dasharray:none;stroke-opacity:1"
         id="path1088"
         inkscape:connector-curvature="0" />
      <path
         d="m -382.84009,-40.685151 c 0,0 1.729,-3.817 6.75,-7.576"
         style="fill:none;stroke:#624f55;stroke-width:0.97100002;stroke-linecap:square;stroke-linejoin:round;stroke-miterlimit:4;stroke-dasharray:none;stroke-opacity:1"
         id="path1092"
         inkscape:connector-curvature="0" />
      <path
         d="m -385.71509,-45.706651 c 0,0 3.127,-1.195 8.159,-4.963"
         style="fill:none;stroke:#624f55;stroke-width:0.97100002;stroke-linecap:square;stroke-linejoin:round;stroke-miterlimit:4;stroke-dasharray:none;stroke-opacity:1"
         id="path1096"
         inkscape:connector-curvature="0" />
      <path
         d="m -376.43969,-32.876051 c 0,0 1.729,-3.797 6.751,-7.547"
         style="fill:none;stroke:#624f55;stroke-width:0.97100002;stroke-linecap:square;stroke-linejoin:round;stroke-miterlimit:4;stroke-dasharray:none;stroke-opacity:1"
         id="path1100"
         inkscape:connector-curvature="0" />
      <path
         d="m -371.59249,-27.271551 c 0,0 -1.661,-7.022 3.36,-10.752"
         style="fill:none;stroke:#624f55;stroke-width:0.97100002;stroke-linecap:square;stroke-linejoin:round;stroke-miterlimit:4;stroke-dasharray:none;stroke-opacity:1"
         id="path1104"
         inkscape:connector-curvature="0" />
      <path
         d="m -368.14479,-24.280351 c 0,0 -1.651,-7.003 3.361,-10.732"
         style="fill:none;stroke:#624f55;stroke-width:0.97100002;stroke-linecap:square;stroke-linejoin:round;stroke-miterlimit:4;stroke-dasharray:none;stroke-opacity:1"
         id="path1108"
         inkscape:connector-curvature="0" />
      <path
         d="m -364.70629,-21.288651 c 0,0 -2.253,-5.021 2.749,-8.741 5.021,-3.72 11.636,-2.128 11.636,-2.128"
         style="fill:none;stroke:#624f55;stroke-width:0.97100002;stroke-linecap:square;stroke-linejoin:round;stroke-miterlimit:4;stroke-dasharray:none;stroke-opacity:1"
         id="path1112"
         inkscape:connector-curvature="0" />
      <path
         d="m -361.27759,-18.306751 c 0,0 -2.244,-5.012 2.758,-8.722 5.013,-3.72 11.626,-2.127 11.626,-2.127"
         style="fill:none;stroke:#624f55;stroke-width:0.97100002;stroke-linecap:square;stroke-linejoin:round;stroke-miterlimit:4;stroke-dasharray:none;stroke-opacity:1"
         id="path1116"
         inkscape:connector-curvature="0" />
      <path
         d="m -355.31419,-16.451751 c 0,0 -2.234,-5.002 2.769,-8.703 5.011,-3.719 11.616,-2.127 11.616,-2.127"
         style="fill:none;stroke:#624f55;stroke-width:0.97100002;stroke-linecap:square;stroke-linejoin:round;stroke-miterlimit:4;stroke-dasharray:none;stroke-opacity:1"
         id="path1120"
         inkscape:connector-curvature="0" />
      <path
         d="m -349.91379,-12.857551 c 0,0 -2.224,-4.993 2.778,-8.693 5.012,-3.701 8.188,-5.109 8.188,-5.109"
         style="fill:none;stroke:#624f55;stroke-width:0.97100002;stroke-linecap:square;stroke-linejoin:round;stroke-miterlimit:4;stroke-dasharray:none;stroke-opacity:1"
         id="path1124"
         inkscape:connector-curvature="0" />
      <path
         d="m -343.97929,-11.012251 c 0,0 -1.651,-6.721 3.351,-10.413 5.012,-3.71 11.597,-2.116 11.597,-2.116"
         style="fill:none;stroke:#624f55;stroke-width:0.97100002;stroke-linecap:square;stroke-linejoin:round;stroke-miterlimit:4;stroke-dasharray:none;stroke-opacity:1"
         id="path1128"
         inkscape:connector-curvature="0" />
      <path
         d="m -338.05449,-9.1670508 c 0,0 -2.195,-4.9730002 2.807,-8.6640002 5.012,-3.691 10.17,-4.477 10.17,-4.477"
         style="fill:none;stroke:#624f55;stroke-width:0.97100002;stroke-linecap:square;stroke-linejoin:round;stroke-miterlimit:4;stroke-dasharray:none;stroke-opacity:1"
         id="path1132"
         inkscape:connector-curvature="0" />
      <path
         d="m -331.57539,-9.0503508 c 0,0 -2.186,-4.9730002 2.816,-8.6640002 5.022,-3.691 10.169,-4.468 10.169,-4.468"
         style="fill:none;stroke:#624f55;stroke-width:0.97100002;stroke-linecap:square;stroke-linejoin:round;stroke-miterlimit:4;stroke-dasharray:none;stroke-opacity:1"
         id="path1136"
         inkscape:connector-curvature="0" />
      <path
         d="m -325.10719,-8.9434508 c 0,0 -2.175,-4.9630002 2.836,-8.6450002 5.022,-3.7 10.169,-4.477 10.169,-4.477"
         style="fill:none;stroke:#624f55;stroke-width:0.97100002;stroke-linecap:square;stroke-linejoin:round;stroke-miterlimit:4;stroke-dasharray:none;stroke-opacity:1"
         id="path1140"
         inkscape:connector-curvature="0" />
      <path
         d="m -321.17309,-7.7100508 c 0,0 -2.167,-4.9630002 2.845,-8.6450002 5.022,-3.69 10.17,-4.467 10.17,-4.467"
         style="fill:none;stroke:#624f55;stroke-width:0.97100002;stroke-linecap:square;stroke-linejoin:round;stroke-miterlimit:4;stroke-dasharray:none;stroke-opacity:1"
         id="path1144"
         inkscape:connector-curvature="0" />
      <path
         d="m -314.70479,-7.6035508 c 0,0 -2.156,-4.9540002 2.855,-8.6340002 5.022,-3.691 10.17,-4.468 10.17,-4.468"
         style="fill:none;stroke:#624f55;stroke-width:0.97100002;stroke-linecap:square;stroke-linejoin:round;stroke-miterlimit:4;stroke-dasharray:none;stroke-opacity:1"
         id="path1148"
         inkscape:connector-curvature="0" />
      <path
         d="m -309.64429,-9.8174508 c 0,0 -2.146,-4.9630002 2.875,-8.6540002 5.031,-3.691 10.179,-4.469 10.179,-4.469"
         style="fill:none;stroke:#624f55;stroke-width:0.97100002;stroke-linecap:square;stroke-linejoin:round;stroke-miterlimit:4;stroke-dasharray:none;stroke-opacity:1"
         id="path1152"
         inkscape:connector-curvature="0" />
      <path
         d="m -305.14719,-10.322851 c 0,0 -2.137,-4.963 2.885,-8.644 5.031,-3.691 8.8,-6.829 8.8,-6.829"
         style="fill:none;stroke:#624f55;stroke-width:0.97100002;stroke-linecap:square;stroke-linejoin:round;stroke-miterlimit:4;stroke-dasharray:none;stroke-opacity:1"
         id="path1156"
         inkscape:connector-curvature="0" />
      <path
         d="m -370.05789,-59.149051 c 0,0 17.269,-6.945 29.313,-9.936 12.034,-2.982 -11.121,-0.593 -22.845,3.37 -11.752,3.982 -6.468,6.566 -6.468,6.566"
         style="fill:#9c8883;fill-opacity:1;fill-rule:evenodd;stroke:none"
         id="path1160"
         inkscape:connector-curvature="0" />
    </g>
    <g
       transform="matrix(1.380083,0,0,-1.380083,566.05335,772.14993)"
       id="g4290">
      <path
         d="m -179.90537,61.488658 c 0,0 11.994,-6.215 30.125,-11.162 28.701,-7.821 61.129004,3.466 69.415004,3.011 8.286,-0.455 10.958,4.463 10.958,4.463 0,0 -17.84,21.547 -24.374,26.242 -6.535004,4.695 -20.261004,4.53 -34.558004,2.517 -14.288,-2.013 -37.53,-14.423 -42.893,-17.656 -4.481,-2.711 -8.673,-7.415 -8.673,-7.415"
         style="fill:#ffffff;fill-opacity:1;fill-rule:evenodd;stroke:none"
         id="path1180"
         inkscape:connector-curvature="0" />
      <path
         d="m -142.38587,67.538458 c -0.871,11.858 8.074,22.148 19.97,22.971 11.906,0.822 22.264,-8.131 23.135004,-19.999 0.872,-11.868 -8.072004,-22.148 -19.969004,-22.971 -11.907,-0.823 -22.264,8.131 -23.136,19.999"
         style="fill:#463d31;fill-opacity:1;fill-rule:evenodd;stroke:none"
         id="path1184"
         inkscape:connector-curvature="0" />
      <path
         d="m -129.81117,68.399758 c -0.368,4.947 3.359,9.235 8.325,9.574 4.956,0.339 9.274,-3.388 9.631,-8.335 0.368,-4.937 -3.358,-9.225 -8.315,-9.573 -4.965,-0.339 -9.283,3.388 -9.641,8.334"
         style="fill:#000000;fill-opacity:1;fill-rule:evenodd;stroke:none"
         id="path1188"
         inkscape:connector-curvature="0" />
      <path
         d="m -117.63347,76.666358 c 1.723,3.03 7.018,3.543 11.751,1.336 4.56,-2.12 7.164004,-6.127 5.924004,-9.128 -1.297004,-3.137 -6.330004,-4.143 -11.374004,-2.052 -5.236,2.168 -8.102,6.669 -6.301,9.844"
         style="fill:#ffffff;fill-opacity:1;fill-rule:evenodd;stroke:none"
         id="path1192"
         inkscape:connector-curvature="0" />
      <path
         d="m -138.10657,71.633158 c 2.42,0.503 5.343,-2.381 6.592,-6.292 1.2,-3.766 0.465,-7.328 -1.694,-8.103 -2.255,-0.813 -5.315,1.666 -6.776,5.702 -1.52,4.192 -0.659,8.16 1.878,8.693"
         style="fill:#928a81;fill-opacity:1;fill-rule:evenodd;stroke:none"
         id="path1196"
         inkscape:connector-curvature="0" />
      <path
         d="m -75.177366,82.087258 c 0,0 -9.283,13.426 -30.743004,15.372 -21.471,1.946 -44.8,2.033 -69.61,-25.381 -13.319,-14.733 28.915,14.113 59.658,16.456 31.403004,2.391 40.879004,-22.893 40.879004,-22.893 z"
         style="fill:#e3d0c9;fill-opacity:1;fill-rule:evenodd;stroke:none"
         id="path1200"
         inkscape:connector-curvature="0" />
      <path
         d="m -63.948366,55.593658 c 0,0 -10.338,9.757 -15.682,16.93 -5.343,7.173 -12.883,16.253 -24.084004,18.905 -11.19,2.652 -37.422,-5.324 -54.662,-14.055 -17.24,-8.732 -29.437,-20.541 -29.437,-20.541 0,0 38.275,26.629 60.8,28.875 22.525,2.237 22.941,1.239 32.186004,-2.923 9.254,-4.163 20.58,-27.365 20.58,-27.365 z"
         style="fill:#291e1b;fill-opacity:1;fill-rule:evenodd;stroke:none"
         id="path1204"
         inkscape:connector-curvature="0" />
      <path
         d="m -167.99917,55.312858 c 0,0 13.175,-3.659 28.295,-7.502 19.031,-4.831 64.633004,6.34 64.633004,6.34 l -55.853004,-5.188 z"
         style="fill:#a97c60;fill-opacity:1;fill-rule:evenodd;stroke:none"
         id="path1208"
         inkscape:connector-curvature="0" />
      <path
         d="m -109.71547,88.960358 c 0,0 -6.292,0.571 -16.853,3.959 -10.57,3.378 -3.678,-5.382 -3.678,-5.382 0,0 -14.143,-4.056 -16.718,2.962 -2.584,7.018 -1.451,-8.325 -1.451,-8.325 0,0 -13.998,-6.108 -16.418,-1.132 -2.43,4.975 -1.452,-8.325 -1.452,-8.325 l 26.155,9.002 z"
         style="fill:#291e1b;fill-opacity:1;fill-rule:evenodd;stroke:none"
         id="path1212"
         inkscape:connector-curvature="0" />
      <path
         d="m -168.33757,72.571658 c 0,0 -5.208,0.668 -14.675,3.098 -9.457,2.439 4.704,-7.899 4.704,-7.899 0,0 -10.425,-2.139 -14.684,-0.377 -1.627,0.677 5.15,-3.204 9.341,-5.586 2.072,-1.181 -7.356,-4.404 -5.828,-5.75 2.643,-2.333 7.929,1.433 7.929,1.433 0,0 -5.808,-6.795 -7.86,-6.941 -2.063,-0.135 19.341,3.398 24.48,3.747 5.131,0.358 -12.845,6.311 -12.845,6.311 z"
         style="fill:#463c30;fill-opacity:1;fill-rule:evenodd;stroke:none"
         id="path1216"
         inkscape:connector-curvature="0" />
      <path
         d="m -203.13737,101.70886 c 0,0 15.11,22.419 29.669,28.885 14.559,6.457 90.102004,12.71 104.167004,5.257 12.555,-6.651 21.915,-23.136 7.831,-19.941 -6.882,1.568 -20.047,4.8 -40.424004,8.237 -22.051,3.717 -67.421,2.285 -81.224,-8.519 -9.758,-7.627 -20.019,-13.919 -20.019,-13.919"
         style="fill:#886854;fill-opacity:1;fill-rule:evenodd;stroke:none"
         id="path1220"
         inkscape:connector-curvature="0" />
    </g>
  </g>
</svg>
