<?xml version="1.0" encoding="UTF-8" standalone="no"?>
<!-- Created with Inkscape (http://www.inkscape.org/) -->

<svg
   xmlns:dc="http://purl.org/dc/elements/1.1/"
   xmlns:cc="http://creativecommons.org/ns#"
   xmlns:rdf="http://www.w3.org/1999/02/22-rdf-syntax-ns#"
   xmlns:svg="http://www.w3.org/2000/svg"
   xmlns="http://www.w3.org/2000/svg"
   xmlns:xlink="http://www.w3.org/1999/xlink"
   xmlns:sodipodi="http://sodipodi.sourceforge.net/DTD/sodipodi-0.dtd"
   xmlns:inkscape="http://www.inkscape.org/namespaces/inkscape"
   width="512"
   height="512"
   viewBox="0 0 512.00002 512.00002"
   id="svg2"
   version="1.1"
   inkscape:version="0.92.2 2405546, 2018-03-11"
   sodipodi:docname="occhio2.svg">
  <title
     id="title5356">occhio</title>
  <defs
     id="defs4">
    <filter
       inkscape:collect="always"
       style="color-interpolation-filters:sRGB"
       id="filter2434"
       x="-0.034130782"
       width="1.0682616"
       y="-0.080856413"
       height="1.1617128">
      <feGaussianBlur
         inkscape:collect="always"
         stdDeviation="88.222278"
         id="feGaussianBlur2436" />
    </filter>
    <linearGradient
       inkscape:collect="always"
       xlink:href="#linearGradient72"
       id="linearGradient2396"
       x1="2275.2673"
       y1="4014.2712"
       x2="7911.6543"
       y2="4014.2712"
       gradientUnits="userSpaceOnUse" />
    <linearGradient
       x1="0"
       y1="0"
       x2="1"
       y2="0"
       gradientUnits="userSpaceOnUse"
       gradientTransform="matrix(833.62421,-6405.1509,-6405.1509,-833.62421,9989.4308,24756.136)"
       spreadMethod="pad"
       id="linearGradient72">
      <stop
         style="stop-opacity:1;stop-color:#84b2f5"
         offset="0"
         id="stop66" />
      <stop
         style="stop-opacity:1;stop-color:#a667ff"
         offset="0.53534877"
         id="stop68" />
      <stop
         id="stop2332"
         offset="0.71488696"
         style="stop-color:#d720d6;stop-opacity:1;" />
      <stop
         style="stop-opacity:0.07539683;stop-color:#df16d0"
         offset="1"
         id="stop70" />
    </linearGradient>
    <filter
       inkscape:collect="always"
       style="color-interpolation-filters:sRGB"
       id="filter2410"
       x="-0.028271401"
       width="1.0565428"
       y="-0.049543895"
       height="1.0990878">
      <feGaussianBlur
         inkscape:collect="always"
         stdDeviation="66.39523"
         id="feGaussianBlur2412" />
    </filter>
    <linearGradient
       inkscape:collect="always"
       xlink:href="#linearGradient72"
       id="linearGradient2388"
       x1="6145.0796"
       y1="5497.1729"
       x2="222.55652"
       y2="4382.1089"
       gradientUnits="userSpaceOnUse" />
    <filter
       inkscape:collect="always"
       style="color-interpolation-filters:sRGB"
       id="filter2384"
       x="-0.082368962"
       width="1.1647379"
       y="-0.22093727"
       height="1.4418745">
      <feGaussianBlur
         inkscape:collect="always"
         stdDeviation="175.33326"
         id="feGaussianBlur2386" />
    </filter>
    <radialGradient
       fx="0"
       fy="0"
       cx="0"
       cy="0"
       r="1"
       gradientUnits="userSpaceOnUse"
       gradientTransform="matrix(273.65613,-20.574255,24.480768,229.98823,1192.3477,110.33068)"
       spreadMethod="pad"
       id="radialGradient218-9">
      <stop
         style="stop-opacity:1;stop-color:#b3b2b2"
         offset="0"
         id="stop206-3" />
      <stop
         style="stop-opacity:1;stop-color:#b3b2b2"
         offset="0.005618"
         id="stop208-6" />
      <stop
         style="stop-opacity:1;stop-color:#a19fa0"
         offset="0.449438"
         id="stop210-0" />
      <stop
         style="stop-opacity:1;stop-color:#979595"
         offset="0.624242"
         id="stop212-6" />
      <stop
         style="stop-opacity:1;stop-color:#524f50"
         offset="0.854545"
         id="stop214-2" />
      <stop
         style="stop-opacity:1;stop-color:#231f20"
         offset="1"
         id="stop216-6" />
    </radialGradient>
    <radialGradient
       fx="0"
       fy="0"
       cx="0"
       cy="0"
       r="1"
       gradientUnits="userSpaceOnUse"
       gradientTransform="matrix(270.35809,-20.326242,24.185573,227.21606,1172.6795,117.91717)"
       spreadMethod="pad"
       id="radialGradient244-1">
      <stop
         style="stop-opacity:1;stop-color:#b3b2b2"
         offset="0"
         id="stop232-8" />
      <stop
         style="stop-opacity:1;stop-color:#b3b2b2"
         offset="0.005618"
         id="stop234-7" />
      <stop
         style="stop-opacity:1;stop-color:#a19fa0"
         offset="0.523397"
         id="stop236-9" />
      <stop
         style="stop-opacity:1;stop-color:#979595"
         offset="0.714406"
         id="stop238-2" />
      <stop
         style="stop-opacity:1;stop-color:#524f50"
         offset="0.890909"
         id="stop240-0" />
      <stop
         style="stop-opacity:1;stop-color:#231f20"
         offset="1"
         id="stop242-2" />
    </radialGradient>
    <radialGradient
       fx="0"
       fy="0"
       cx="0"
       cy="0"
       r="1"
       gradientUnits="userSpaceOnUse"
       gradientTransform="matrix(305.66845,0,0,256.89439,1192.2599,123.74294)"
       spreadMethod="pad"
       id="radialGradient288-3">
      <stop
         style="stop-opacity:1;stop-color:#4c494a"
         offset="0"
         id="stop280-7" />
      <stop
         style="stop-opacity:1;stop-color:#4c494a"
         offset="0.526193"
         id="stop282-5" />
      <stop
         style="stop-opacity:1;stop-color:#231f20"
         offset="0.98042"
         id="stop284-9" />
      <stop
         style="stop-opacity:1;stop-color:#231f20"
         offset="1"
         id="stop286-2" />
    </radialGradient>
    <radialGradient
       inkscape:collect="always"
       xlink:href="#linearGradient4334"
       id="radialGradient4401"
       gradientUnits="userSpaceOnUse"
       gradientTransform="matrix(1,0,0,0.93126941,0,192.76111)"
       cx="5433.0005"
       cy="2804.5898"
       fx="5433.0005"
       fy="2804.5898"
       r="382.17346" />
    <linearGradient
       inkscape:collect="always"
       id="linearGradient4334">
      <stop
         style="stop-color:#f8fafb;stop-opacity:1;"
         offset="0"
         id="stop4330" />
      <stop
         style="stop-color:#f8fafb;stop-opacity:0;"
         offset="1"
         id="stop4332" />
    </linearGradient>
    <filter
       inkscape:collect="always"
       style="color-interpolation-filters:sRGB"
       id="filter2454"
       x="-0.034677047"
       width="1.0693541"
       y="-0.037427898"
       height="1.0748558">
      <feGaussianBlur
         inkscape:collect="always"
         stdDeviation="10.327611"
         id="feGaussianBlur2456" />
    </filter>
    <linearGradient
       x1="0"
       y1="0"
       x2="1"
       y2="0"
       gradientUnits="userSpaceOnUse"
       gradientTransform="matrix(-20.561692,35.156184,-35.156184,-20.561692,787.20006,293.01941)"
       spreadMethod="pad"
       id="linearGradient616">
      <stop
         style="stop-opacity:1;stop-color:#b4b3b3"
         offset="0"
         id="stop610" />
      <stop
         style="stop-opacity:1;stop-color:#d7d7d7"
         offset="0.994382"
         id="stop612" />
      <stop
         style="stop-opacity:1;stop-color:#d7d7d7"
         offset="1"
         id="stop614" />
    </linearGradient>
    <linearGradient
       x1="0"
       y1="0"
       x2="1"
       y2="0"
       gradientUnits="userSpaceOnUse"
       gradientTransform="matrix(-19.556122,27.483743,-27.483743,-19.556122,795.22876,300.86853)"
       spreadMethod="pad"
       id="linearGradient636">
      <stop
         style="stop-opacity:1;stop-color:#848283"
         offset="0"
         id="stop630" />
      <stop
         style="stop-opacity:1;stop-color:#a7a5a6"
         offset="0.994382"
         id="stop632" />
      <stop
         style="stop-opacity:1;stop-color:#a7a5a6"
         offset="1"
         id="stop634" />
    </linearGradient>
    <filter
       inkscape:collect="always"
       style="color-interpolation-filters:sRGB"
       id="filter2486"
       x="-0.030573655"
       width="1.0611473"
       y="-0.11162249"
       height="1.223245">
      <feGaussianBlur
         inkscape:collect="always"
         stdDeviation="73.286919"
         id="feGaussianBlur2488" />
    </filter>
    <linearGradient
       inkscape:collect="always"
       xlink:href="#linearGradient4318"
       id="linearGradient4320"
       x1="53.347649"
       y1="567.18964"
       x2="603.94049"
       y2="567.18964"
       gradientUnits="userSpaceOnUse" />
    <linearGradient
       inkscape:collect="always"
       id="linearGradient4318">
      <stop
         style="stop-color:#4f4346;stop-opacity:1;"
         offset="0"
         id="stop4314" />
      <stop
         style="stop-color:#4f4346;stop-opacity:0;"
         offset="1"
         id="stop4316" />
    </linearGradient>
  </defs>
  <sodipodi:namedview
     id="base"
     pagecolor="#ffffff"
     bordercolor="#666666"
     borderopacity="1.0"
     inkscape:pageopacity="0.0"
     inkscape:pageshadow="2"
     inkscape:zoom="1.4082031"
     inkscape:cx="256"
     inkscape:cy="256"
     inkscape:document-units="px"
     inkscape:current-layer="layer1"
     showgrid="false"
     units="px"
     inkscape:showpageshadow="false"
     inkscape:window-width="1920"
     inkscape:window-height="994"
     inkscape:window-x="0"
     inkscape:window-y="21"
     inkscape:window-maximized="1" />
  <metadata
     id="metadata7">
    <rdf:RDF>
      <cc:Work
         rdf:about="">
        <dc:format>image/svg+xml</dc:format>
        <dc:type
           rdf:resource="http://purl.org/dc/dcmitype/StillImage" />
        <dc:title>occhio</dc:title>
        <cc:license
           rdf:resource="http://creativecommons.org/licenses/by-sa/4.0/" />
        <dc:date>2019</dc:date>
        <dc:creator>
          <cc:Agent>
            <dc:title>Cristian Pozzessere  &lt; ilnanny &gt;</dc:title>
          </cc:Agent>
        </dc:creator>
        <dc:subject>
          <rdf:Bag>
            <rdf:li>ilnanny</rdf:li>
          </rdf:Bag>
        </dc:subject>
      </cc:Work>
      <cc:License
         rdf:about="http://creativecommons.org/licenses/by-sa/4.0/">
        <cc:permits
           rdf:resource="http://creativecommons.org/ns#Reproduction" />
        <cc:permits
           rdf:resource="http://creativecommons.org/ns#Distribution" />
        <cc:requires
           rdf:resource="http://creativecommons.org/ns#Notice" />
        <cc:requires
           rdf:resource="http://creativecommons.org/ns#Attribution" />
        <cc:permits
           rdf:resource="http://creativecommons.org/ns#DerivativeWorks" />
        <cc:requires
           rdf:resource="http://creativecommons.org/ns#ShareAlike" />
      </cc:License>
    </rdf:RDF>
  </metadata>
  <g
     inkscape:label="Livello 1"
     inkscape:groupmode="layer"
     id="layer1"
     transform="translate(0,-540.3622)">
    <path
       style="opacity:1;fill:#bbd5fc;fill-opacity:0.98867923;stroke:none;stroke-width:4.75087738;stroke-linecap:round;stroke-linejoin:bevel;stroke-miterlimit:4;stroke-dasharray:none;stroke-opacity:0.98113248;paint-order:stroke markers fill"
       d="m 1,541.3622 h 510 v 510 H 1 Z"
       id="rect1404"
       inkscape:connector-curvature="0" />
    <g
       id="g4399"
       transform="matrix(0.81560423,0,0,0.81560423,-6.7843929,266.90598)">
      <path
         transform="matrix(0.06707345,0,0,-0.06707345,36.71597,921.59007)"
         inkscape:connector-curvature="0"
         id="path36"
         style="fill:#7338dd;fill-opacity:1;fill-rule:nonzero;stroke:none;stroke-width:0.468209;filter:url(#filter2434)"
         d="m 7579.9291,2484.9209 c 18.4007,-60.3568 108.3436,-299.3915 -2.5751,-300.1594 -69.4822,-0.501 -144.6298,48.3379 -293.5202,52.2802 -747.683,19.8006 -1569.6239,-622.1186 -3176.1707,-331.3796 -1327.0588,240.1491 -2818.473,1310.8682 -2669.1003,1943.1423 99.1573,419.7494 2300.971,757.2906 3817.5514,522.8209 1269.4083,-196.2732 2031.9335,-829.1326 2323.8149,-1886.7044" />
      <path
         transform="matrix(0.06707345,0,0,-0.06707345,36.71597,921.59007)"
         inkscape:connector-curvature="0"
         id="path54"
         style="fill:url(#linearGradient2396);fill-opacity:1;fill-rule:nonzero;stroke:none;stroke-width:0.48537999;filter:url(#filter2410)"
         d="m 5828.0062,5108.7216 c -1599.3077,1031.481 -3172.2689,337.3876 -3491.7995,-572.0252 -43.2958,-123.1992 -54.0082,-155.6614 -60.9394,-236.7684 810.871,138.7071 2009.7013,221.8284 2980.8642,71.6907 1269.4143,-196.2732 2031.9463,-829.131 2323.7567,-1886.7012 4.9024,-16.1389 14.9497,-45.087 24.9,-78.8015 426.0666,639.0708 808.2548,2442.4419 -1776.782,2702.6056" />
      <path
         transform="matrix(0.06707345,0,0,-0.06707345,36.71597,921.59007)"
         inkscape:connector-curvature="0"
         id="path74"
         style="fill:url(#linearGradient2388);fill-opacity:1;fill-rule:nonzero;stroke:none;stroke-width:0.37835601;filter:url(#filter2384)"
         d="M 1370.9616,5852.2971 C 502.81621,5597.2095 42.765957,5015.8277 451.04575,4462.1037 1022.0795,3687.6732 3205.6212,5452.8288 5409.1666,4946.8155 3242.4315,6729.2128 2237.0223,6106.7793 1370.9616,5852.2971" />
      <path
         inkscape:connector-curvature="0"
         id="path94"
         style="fill:#f8f7f7;fill-opacity:1;fill-rule:nonzero;stroke:none;stroke-width:0.03100852"
         d="m 542.15495,765.57594 c -48.01051,-12.20585 -105.83516,30.69006 -203.34708,23.14511 -77.2311,-5.97477 -142.08075,-59.08239 -139.53869,-84.50632 2.78553,-17.90338 84.68952,-56.95553 164.43794,-46.22843 79.75079,10.72643 175.03377,64.46545 178.44783,107.58964" />
      <path
         inkscape:connector-curvature="0"
         id="path114"
         style="fill:#f8f7f7;fill-opacity:1;fill-rule:nonzero;stroke:none;stroke-width:0.03102288"
         d="m 542.36094,764.20694 c 0.0743,0.90501 0.1924,2.62614 -3.21086,1.26795 -1.95134,-0.77897 -4.02367,-1.44971 -6.20144,-2.01898 -45.63156,-11.89948 -138.09211,21.01673 -189.58734,15.64085 -71.65911,-7.47876 -123.95281,-44.39779 -117.60092,-77.74279 6.34919,-33.3449 69.29798,-52.60116 140.59854,-43.01073 69.82934,9.39221 172.47787,62.84554 176.00202,105.8637" />
      <path
         inkscape:connector-curvature="0"
         id="path134"
         style="fill:#f8f7f7;fill-opacity:1;fill-rule:nonzero;stroke:none;stroke-width:0.02863339"
         d="m 503.20825,730.49572 c 5.71238,34.67102 -96.40859,54.21018 -159.84585,48.60087 -71.81285,-6.34859 -132.59813,-47.36078 -126.24548,-80.70375 6.34826,-33.34676 77.94211,-49.64028 149.24091,-40.0501 71.30006,9.59018 131.78522,41.36153 136.85042,72.15298" />
      <path
         inkscape:connector-curvature="0"
         id="path176"
         style="fill:#ff6161;fill-opacity:1;fill-rule:nonzero;stroke:none;stroke-width:0.03080643"
         d="m 432.69264,682.06023 c 5.04916,6.11906 9.473,13.2874 22.1252,18.63913 50.39317,21.30165 69.98298,43.82524 69.99531,54.33268 0,3.15977 -0.56378,5.6933 1.30619,6.54572 3.63204,0.0287 8.71505,1.11894 12.73535,3.28802 0.55761,-37.7918 -106.16205,-82.80555 -106.16205,-82.80555" />
      <path
         inkscape:connector-curvature="0"
         id="path194"
         style="fill:#8e0028;fill-opacity:1;fill-rule:nonzero;stroke:none;stroke-width:0.03099947"
         d="m 522.54901,761.57016 c 10.06548,0.90738 13.01665,2.51006 17.92077,3.76492 3.65796,0.93498 0.95786,-12.03768 -10.04387,-12.46427 -10.01592,-0.38902 -12.82138,8.25394 -7.8769,8.69935" />
      <path
         inkscape:connector-curvature="0"
         id="path220"
         style="fill:url(#radialGradient218-9);fill-opacity:1;fill-rule:nonzero;stroke:none;stroke-width:0.02441266"
         d="m 369.4141,669.34877 c -39.0822,-0.33448 -68.87788,5.58314 -93.38228,13.16279 -1.64059,5.69331 -2.43814,11.65558 -2.23822,17.79194 1.21332,37.32722 38.19702,66.75693 82.60124,65.73204 44.41392,-1.02625 79.43149,-32.09993 78.21327,-69.42106 -0.12452,-3.84791 -0.64938,-7.60549 -1.50627,-11.26226 -22.633,-9.26558 -45.31235,-15.84726 -63.68774,-16.00345" />
      <path
         inkscape:connector-curvature="0"
         id="path246"
         style="fill:url(#radialGradient244-1);fill-opacity:1;fill-rule:nonzero;stroke:none;stroke-width:0.02408514"
         d="m 369.41604,669.34641 c -35.8965,-0.30586 -63.95814,4.66048 -87.28214,11.34415 -2.15084,6.17131 -3.22504,12.71956 -3.00343,19.49255 1.13439,34.84612 35.66282,62.32077 77.12059,61.36704 41.46014,-0.95186 74.15575,-29.97035 73.02136,-64.81647 -0.15415,-4.76508 -0.95381,-9.38436 -2.29056,-13.81909 -20.56869,-7.96352 -40.84832,-13.42365 -57.56582,-13.56818" />
      <path
         inkscape:connector-curvature="0"
         id="path268"
         style="fill:#7bd5ed;fill-opacity:1;fill-rule:nonzero;stroke:none;stroke-width:0.02380591"
         d="m 424.75234,696.81726 c -6.78709,-0.0405 -12.59335,-0.10519 -1.64743,-0.78319 -21.14674,0.45183 -25.54137,0.29092 -0.22608,-1.69378 -32.72128,1.4964 -35.73036,1.16985 -0.46906,-3.43879 -39.91773,3.72136 -41.56743,3.16121 -1.29259,-5.75359 -41.4414,7.35669 -42.48402,6.65632 -4.62553,-6.07819 -0.0523,-0.0194 -0.10713,-0.038 -0.1642,-0.0591 -33.99961,9.76899 -35.30901,9.29478 -8.10595,-2.63526 -0.18809,-0.0549 -0.37374,-0.11431 -0.56183,-0.16902 -19.78272,7.56505 -19.73747,6.89414 -3.79945,-1.1213 -0.2428,-0.0692 -0.49041,-0.14284 -0.73558,-0.2119 -5.92766,2.55202 -5.82053,2.22353 -1.19745,-0.32613 -0.89505,-0.24516 -1.78782,-0.4856 -2.67578,-0.71649 -2.46624,1.17356 -2.85906,1.195 -0.76411,-0.19291 -0.35238,-0.0904 -0.70713,-0.18092 -1.05942,-0.26661 -9.80563,5.23253 -11.05306,5.39682 -2.55438,-0.61417 -0.41182,-0.0952 -0.82363,-0.19755 -1.23553,-0.28805 -12.17673,7.26078 -13.66223,7.30131 -4.27788,-0.8975 -0.56419,-0.1095 -1.12839,-0.21899 -1.6855,-0.3214 -9.7104,6.88468 -11.00544,6.77282 -4.43498,-0.73794 -0.71186,-0.10477 -1.42126,-0.2119 -2.12594,-0.30232 -4.34693,3.70422 -5.07778,3.58755 -2.49959,-0.29522 -3.16383,-0.34276 -6.23952,-0.54276 -9.19863,-0.56657 -15.02152,-0.12857 -28.6575,0.6737 -41.16043,2.13067 2.43062,3.30186 1.69977,3.39709 -2.41863,0.2856 -0.77374,0.0952 -1.53076,0.2 -2.2925,0.3024 6.89658,7.06079 5.50149,7.14175 -4.71358,0.66179 -0.59991,0.0928 -1.207,0.17611 -1.80209,0.26897 10.48886,8.18446 8.76292,8.07733 -4.89214,0.80945 -0.41899,0.0709 -0.83325,0.14757 -1.25224,0.22136 10.47468,6.56564 8.89394,6.31331 -3.16611,0.58083 -0.32376,0.0616 -0.6428,0.12384 -0.96656,0.18809 4.62553,2.602 3.76847,2.44252 -1.25933,0.2428 -0.97838,0.19282 -1.94494,0.39282 -2.90668,0.59282 7.89168,3.75656 8.39391,4.30168 -1.82117,0.38083 -0.19282,0.043 -0.38092,0.0858 -0.57374,0.12621 20.47786,8.97719 20.62788,9.68879 -5.09686,1.16411 -0.10232,0.0236 -0.20709,0.0473 -0.30941,0.0734 32.73073,12.38406 32.31647,13.13948 -6.26577,3.978 40.90573,11.56913 40.65339,12.4419 -2.00446,6.91583 40.80097,7.03589 39.18933,7.66906 -0.91176,5.80838 35.51128,2.96408 32.526,3.43094 -0.2428,3.45829 25.40806,0.80447 21.03015,1.16985 -0.11431,1.70188 10.97218,0.16885 5.18018,0.50308 -1.59492,0.8585 6.78701,0.0431 12.59327,0.10663 1.64735,0.78463 21.14673,-0.45327 25.54373,-0.29093 0.22853,1.69234 32.72119,-1.49572 35.73027,-1.16766 0.46897,3.44208 39.91773,-3.72439 41.56515,-3.16307 1.29268,5.75106 42.22686,-7.49625 42.53636,-6.6364 2.44961,6.80802 39.38688,-11.35825 38.38225,-10.13082 2.69486,5.34084 32.38317,-12.58288 30.08585,-10.92068 1.8378,3.02242 22.38708,-10.11731 18.82089,-7.95499 0.88796,1.46837 9.56047,-4.527 4.75402,-1.79238 -0.88796,1.3755 5.87524,-2.85053 10.91976,-5.26925 1.85925,-0.0625 17.98535,-9.35481 21.86804,-11.08641 1.15693,1.29859 27.37444,-15.12249 30.15499,-16.12299 2.36392,2.6708 32.30938,-20.02265 34.04722,-20.24527 4.38264,4.29147 32.15708,-24.16393 32.90937,-23.56495 5.96338,4.74473 27.52682,-26.2398 27.35544,-24.76763 5.34447,3.44166 20.80162,-24.35108 19.76364,-21.96192 3.2995,1.83899 13.58127,-18.06083 11.73393,-14.70587 1.60927,0.89893 5.68723,-7.88712 3.09241,-3.52212 0.0287,1.56478 3.45425,-4.9086 6.43716,-9.09175 1.58555,-0.81823 10.21035,-15.56976 12.58381,-18.67931 1.79255,0.66255 15.01443,-24.47181 16.8665,-26.49053 3.69468,1.37711 16.42133,-30.79956 17.82351,-31.7104 6.49903,1.96781 13.76692,-34.37976 14.80726,-34.16786 8.22971,1.68567 8.37255,-34.2907 9.12712,-32.93925 6.91322,0.76538 3.52803,-29.84449 4.08269,-27.33654 4.11603,0.20379 0.95938,-21.3534 1.39264,-17.67324 2.0259,0.0978 0.2,-9.22387 0.59518,-4.35436 1.02126,1.33886 0.0523,-5.70394 0.12858,-10.58291 0.93321,-1.3836 -0.53803,-17.77472 -0.3452,-21.46822 2.01399,-0.1919 -1.77837,-27.50082 -1.39264,-30.02877 4.08987,-0.39374 -4.42553,-33.54896 -3.76138,-34.934 6.84652,-1.08534 -8.91767,-35.49389 -7.89641,-35.75214 8.09876,-2.05967 -13.51221,-33.10498 -12.05524,-32.25982 6.3562,-2.26582 -14.97155,-27.21851 -12.99563,-25.28548 3.59709,-1.5441 -12.04106,-18.81548 -9.46524,-15.81923 1.74493,-0.74655 -5.38482,-8.0373 -2.13058,-3.99556 1.63789,0.74655 -3.39236,-4.93848 -6.26814,-9.1776 -0.0735,-1.56325 -11.13165,-15.11515 -13.19326,-18.37894 1.54739,-0.97205 -17.9949,-23.00623 -19.18762,-25.34373 3.17328,-1.9868 -23.82015,-27.15402 -24.08921,-28.61352 5.10877,-3.68236 -28.75037,-27.02518 -28.0386,-27.65835 5.64434,-5.01092 -31.21906,-23.13574 -29.47167,-22.99146 4.09704,-4.49146 -28.97653,-17.48447 -26.1341,-16.61196 2.18773,-2.77481 -21.48958,-11.41253 -17.50203,-9.8616 1.07133,-1.35068 -9.38909,-4.77909 -4.19464,-2.59989 1.85924,-0.022 -5.83961,-2.90617 -10.8198,-5.41269 -0.97365,-1.33599 -18.52583,-8.58082 -22.22524,-10.5781 0.79028,-1.5045 -29.11937,-12.62189 -31.52373,-14.17527 1.63553,-3.10474 -36.64685,-13.80313 -37.73236,-14.98226 2.34248,-5.46257 -40.90573,-11.57294 -40.65576,-12.44359 2.00445,-6.91727 -40.7986,-7.03749 -39.1917,-7.6726 0.91177,-5.80863 -35.51129,-2.9667 -32.52601,-3.43086 0.2428,-3.45973 -25.40562,-0.80481 -21.03015,-1.17095 0.11903,-1.70281 -10.97691,-0.16707 -5.18255,-0.50114 1.59028,-0.85943" />
      <path
         inkscape:connector-curvature="0"
         id="path290"
         style="fill:url(#radialGradient288-3);fill-opacity:1;fill-rule:nonzero;stroke:none;stroke-width:0.02441266"
         d="m 434.60811,696.61448 c -0.10502,-3.29596 -0.52241,-6.51745 -1.17179,-9.67131 -20.86552,-7.10503 -41.2061,-11.92338 -58.61485,-12.47263 -38.8161,-1.23283 -70.32548,2.19955 -97.05907,7.51929 -0.57568,0.17509 -1.16107,0.34672 -1.73058,0.52173 -1.64059,5.69331 -2.43814,11.65558 -2.23822,17.79194 0.5132,15.7918 7.44685,30.15769 18.61565,41.41387 -8.75929,-21.57881 17.41356,-48.58069 55.42646,-53.41854 31.26532,-3.97953 82.07782,7.0667 81.60421,34.0847 3.60333,-7.99467 5.46604,-16.69335 5.16819,-25.76905" />
      <path
         inkscape:connector-curvature="0"
         id="path294"
         style="fill:#231f20;fill-opacity:1;fill-rule:nonzero;stroke:none;stroke-width:0.01568673"
         d="m 290.75009,732.2198 c -7.01351,-9.29123 -11.23642,-20.23741 -11.61911,-32.03702 -0.21655,-6.5963 0.80472,-12.97605 2.84555,-19.00291 -1.41492,0.26509 -2.82521,0.53339 -4.21346,0.80945 -0.57567,0.17568 -1.16081,0.34664 -1.73024,0.52232 -1.64084,5.69272 -2.43771,11.65525 -2.23847,17.79195 0.51295,15.79179 7.44643,30.15777 18.6154,41.41294 -1.25022,-3.08084 -1.76629,-6.27464 -1.65967,-9.49673" />
      <path
         inkscape:connector-curvature="0"
         id="path298"
         style="fill:#231f20;fill-opacity:1;fill-rule:nonzero;stroke:none;stroke-width:0.02442883"
         d="m 434.61022,696.61431 c -0.10755,-3.29621 -0.52528,-6.51761 -1.17508,-9.6714 -1.97136,-0.6715 -3.93545,-1.31522 -5.8971,-1.94299 0.9869,3.79422 1.60496,7.70797 1.73447,11.73359 0.18075,5.57588 -0.51304,11.00004 -1.9592,16.18631 1.4291,2.90212 2.18638,6.05472 2.1277,9.46346 3.60325,-7.99459 5.46478,-16.69343 5.16921,-25.76897" />
      <path
         inkscape:connector-curvature="0"
         id="path322"
         style="fill:#231f20;fill-opacity:1;fill-rule:nonzero;stroke:none;stroke-width:0.02358296"
         d="m 412.20854,680.51563 c -0.19805,-0.0515 -0.39856,-0.10375 -0.59898,-0.15559 -27.44586,7.80565 -29.15095,7.44863 -8.02295,-1.94088 -0.37256,-0.0827 -0.74757,-0.16749 -1.11785,-0.24769 -12.65456,4.73552 -13.10267,4.35343 -3.31334,-0.69565 -2.41964,-0.48349 -4.81092,-0.91506 -7.17163,-1.28998 -3.04927,1.48804 -3.59878,1.46921 -1.47394,-0.22169 -0.77348,-0.11558 -1.54705,-0.23352 -2.31344,-0.33727 -5.35806,2.98561 -6.35088,2.95733 -2.90778,-0.36319 -1.04,-0.12022 -2.06591,-0.22397 -3.08937,-0.32072 -2.95969,1.82767 -3.74263,1.78765 -2.39372,-0.19569 -1.68381,-0.12504 -3.35108,-0.22643 -4.98306,-0.27826 -17.4773,-0.55424 -33.45947,-0.15804 -48.20358,0.92679 2.26161,2.70254 1.28998,2.7521 -3.04926,0.23579 -0.98345,0.0802 -1.9668,0.16041 -2.94079,0.24525 5.2755,4.37699 3.95724,4.34871 -3.85112,0.3561 -0.70746,0.0684 -1.41256,0.14149 -2.11301,0.21224 5.0137,3.30169 4.00442,3.22622 -2.45738,0.26416 -2.01627,0.21933 -4.00671,0.45048 -5.97351,0.69572 3.23795,1.62253 3.07282,1.78285 -1.3419,0.16269 -0.37729,0.0498 -0.75466,0.0967 -1.12958,0.14622 15.98454,7.08434 15.53406,7.54655 -5.24722,0.71692 -0.22878,0.0329 -0.45048,0.0709 -0.67918,0.10375 29.60836,11.26353 28.02357,11.68682 -9.31766,2.82057 40.90463,11.5693 40.65466,12.4419 -2.00454,6.91566 40.80088,7.03597 39.19018,7.66923 -0.91269,5.80855 35.51128,2.96408 32.52803,3.43077 -0.24052,3.45838 25.40595,0.80421 21.02888,1.16976 -0.11558,1.70179 10.97083,0.16885 5.17884,0.503 -1.59415,0.85842 6.78717,0.043 12.59327,0.10654 1.64607,0.78479 21.14682,-0.45343 25.545,-0.29126 0.2287,1.69209 14.9068,-0.68197 23.62312,-0.98176 25.38713,-0.67395 9.75861,-6.72284 22.48163,-11.76466 36.92376,-13.60246 13.57908,-1.72864 30.84186,-0.62042 45.9939,3.39785 3.83457,-1.2362 12.8527,-3.35302 27.28782,-6.54902 -39.8057,7.06687 -42.31728,6.6933 -8.90965,-4.63169" />
      <path
         inkscape:connector-curvature="0"
         id="path326"
         style="fill:#2a2325;fill-opacity:1;fill-rule:nonzero;stroke:none;stroke-width:0.01592095"
         d="m 289.7382,718.57556 c 2.20825,-0.63681 4.27002,-1.22903 6.22509,-1.7847 0.0875,-0.13533 0.17509,-0.26745 0.26424,-0.40278 -2.03628,0.69091 -4.1872,1.41534 -6.48933,2.18748" />
      <path
         inkscape:connector-curvature="0"
         id="path330"
         style="fill:#231f20;fill-opacity:1;fill-rule:nonzero;stroke:none;stroke-width:0.01677245"
         d="m 307.85272,704.14862 c 0.73136,-0.5669 1.48272,-1.12713 2.25426,-1.67554 -2.78089,0.64905 -10.64715,1.78462 -24.11209,3.54399 9.46135,-0.88222 16.74561,-1.52122 21.85783,-1.86845" />
      <path
         inkscape:connector-curvature="0"
         id="path334"
         style="fill:#231f20;fill-opacity:1;fill-rule:nonzero;stroke:none;stroke-width:0.01634761"
         d="m 302.13417,709.19542 c 0.34166,-0.34495 0.69311,-0.6883 1.04786,-1.02827 -4.27323,1.00531 -9.56502,2.19871 -15.8964,3.60131 5.72986,-1.01839 10.65864,-1.87503 14.84854,-2.57304" />
      <path
         inkscape:connector-curvature="0"
         id="path352"
         style="fill:#0e0d0d;fill-opacity:1;fill-rule:nonzero;stroke:none;stroke-width:0.0216713"
         d="m 363.09868,669.3535 c -7.33136,0.065 -14.32469,0.35542 -21.01461,0.83216 -14.12968,4.27356 -24.05949,15.78757 -23.62826,29.09371 0.53963,16.58917 16.97945,29.67454 36.72207,29.22051 19.74034,-0.45293 35.3047,-14.27142 34.76507,-30.86102 -0.44423,-13.72225 -11.77184,-25.03685 -26.84427,-28.28536" />
      <path
         transform="matrix(0.06707345,0,0,-0.06707345,36.71597,921.59007)"
         inkscape:connector-curvature="0"
         id="path378"
         style="fill:url(#radialGradient4401);fill-opacity:1;fill-rule:nonzero;stroke:none;stroke-width:0.355239;filter:url(#filter2454)"
         d="m 5697.6428,3119.8368 c -181.0298,65.3107 -427.4236,-76.8489 -550.1942,-317.5304 -29.4848,-57.769 -52.1135,-118.1987 -63.8009,-180.3797 -5.897,-31.5275 -9.4493,-63.8684 -7.4955,-95.8186 5.1865,-86.3799 145.5769,-46.3303 206.5004,-20.5115 61.634,26.0923 121.918,54.7423 174.4579,92.323 235.8787,168.7776 327.9211,371.8571 333.1431,426.0382 3.3393,35.3889 -56.554,82.9092 -92.6108,95.879" />
      <path
         inkscape:connector-curvature="0"
         id="path618"
         style="fill:url(#linearGradient616);fill-opacity:1;fill-rule:nonzero;stroke:none;stroke-width:0.01761067"
         d="m 323.73823,690.37605 c 0.30991,2.89874 -2.24008,5.46106 -5.69179,5.71999 -3.44994,0.26061 -6.50014,-1.88086 -6.81005,-4.78306 -0.30814,-2.89875 2.24185,-5.46284 5.69179,-5.72176 3.45171,-0.26061 6.50182,1.88263 6.81005,4.78483" />
      <path
         inkscape:connector-curvature="0"
         id="path638"
         style="fill:url(#linearGradient636);fill-opacity:1;fill-rule:nonzero;stroke:none;stroke-width:0.01761067"
         d="m 323.73823,690.37605 c -0.16024,-1.52155 -1.08661,-2.82124 -2.41796,-3.68767 -1.47756,2.90575 -2.41972,6.03868 -2.73496,9.32138 3.16814,-0.47556 5.44696,-2.89174 5.15292,-5.63371" />
      <path
         inkscape:connector-curvature="0"
         id="path658"
         style="fill:#2a2325;fill-opacity:1;fill-rule:nonzero;stroke:none;stroke-width:0.01859954"
         d="m 338.84679,719.45777 c 1.97904,1.40244 1.05647,5.05161 -2.05519,8.1485 -3.1136,3.09865 -7.239,4.47314 -9.21796,3.06885 -1.9771,-1.4042 -1.05832,-5.05347 2.05528,-8.15026 3.11351,-3.0968 7.24077,-4.47137 9.21787,-3.06709" />
      <path
         inkscape:connector-curvature="0"
         id="path678"
         style="fill:#2a2325;fill-opacity:1;fill-rule:nonzero;stroke:none;stroke-width:0.01859954"
         d="m 338.84679,719.45777 c -1.69808,-1.20522 -4.98095,-0.3571 -7.84524,1.8655 2.28211,1.63679 4.81539,3.03179 7.53651,4.14963 1.62564,-2.48676 1.8432,-4.92708 0.30873,-6.01513" />
      <path
         inkscape:connector-curvature="0"
         id="path682"
         style="fill:#ffffff;fill-opacity:1;fill-rule:nonzero;stroke:none;stroke-width:0.01936605"
         d="m 347.34741,698.83015 c -11.97985,-5.28309 -16.62184,-6.80912 -7.27387,12.14254 -9.79727,-19.35832 -11.89847,-13.45945 -13.80803,-5.69753 1.90956,-7.76192 3.53048,-12.26064 -14.56522,-0.32536 18.0957,-11.93528 12.80678,-13.65886 3.14509,-12.93459 10.01609,-1.95203 13.21926,-2.80614 4.64781,-6.95822 8.57145,4.15208 8.76512,1.85334 5.50581,-8.94519 4.23726,9.22986 5.62003,12.23354 9.55523,3.85002 -2.96113,8.35643 -2.61053,8.87546 17.82833,-3.64276 -20.40213,12.85709 -19.99732,13.8022 -7.40557,14.10815 -10.07224,0.56547 -9.14266,2.76738 2.37042,8.40294" />
      <path
         inkscape:connector-curvature="0"
         id="path686"
         style="fill:#2a2325;fill-opacity:1;fill-rule:nonzero;stroke:none;stroke-width:0.02731459"
         d="m 302.69762,781.60437 c 0,0 88.00354,34.29922 191.04514,-9.83492 0,0 -102.05825,39.30296 -191.04514,9.83492" />
      <path
         inkscape:connector-curvature="0"
         id="path726"
         style="fill:#2a2325;fill-opacity:1;fill-rule:nonzero;stroke:none;stroke-width:0.03061971"
         d="m 455.67001,768.08372 c 0,0 45.90204,-13.61875 80.14706,-3.79776 0,0 -22.42886,-7.48864 -80.14706,3.79776" />
      <path
         transform="matrix(0.06707345,0,0,-0.06707345,36.71597,921.59007)"
         inkscape:connector-curvature="0"
         id="path746"
         style="fill:#e06ea7;fill-opacity:1;fill-rule:nonzero;stroke:none;stroke-width:0.454281;filter:url(#filter2486)"
         d="m 4960.2034,3760.688 c 879.3517,-7.4865 2338.4569,-969.0767 2444.5769,-1099.3782 -200.8376,246.6701 -325.4469,519.6612 -561.6276,750.7403 -565.171,552.9417 -1428.4412,788.9407 -2275.3118,821.6626 -803.6822,31.0592 -1620.1296,-156.8315 -2331.3292,-460.3321 -191.5294,-81.7387 -478.6714,-242.1999 -567.8694,-325.5286 -72.7804,-67.9832 106.2063,-264.0827 241.6184,-323.5799 825.0015,-132.3911 1344.908,650.9893 3049.9427,636.4159" />
      <path
         inkscape:connector-curvature="0"
         id="path750"
         style="fill:#2a2325;fill-opacity:1;fill-rule:nonzero;stroke:none;stroke-width:0.01212896"
         d="m 177.35731,736.78843 c -0.008,-0.008 8.11549,-2.3082 16.55971,-3.50768 8.41865,-1.34638 16.97085,-1.63257 17.1321,-1.60471 0.35297,-0.0228 1.87756,0.2135 1.78782,-1.27352 -0.0659,-1.09159 -0.9024,-1.14494 -1.4785,-1.09041 0.0633,-0.0777 0.13339,-0.14191 0.18311,-0.24136 0.68045,-1.36326 -1.76477,-1.75262 -2.30086,-1.91032 -0.13457,-0.29354 -14.02592,-3.2724 -27.49145,-0.86846 -13.63901,1.55499 -25.29257,7.83537 -24.7976,8.28652 -0.45478,-0.4791 11.49214,-6.193 24.96375,-7.13786 13.40736,-1.77204 26.3368,1.65798 26.40476,1.89698 0.13094,0.0388 0.36023,0.12976 0.64034,0.22077 -3.05281,0.35052 -9.27857,1.19466 -15.32122,2.5895 -8.40058,1.78537 -16.29411,4.6381 -16.28196,4.64055" />
      <path
         inkscape:connector-curvature="0"
         id="path754"
         style="fill:#2a2325;fill-opacity:1;fill-rule:nonzero;stroke:none;stroke-width:0.0114711"
         d="m 222.02248,742.43902 c 0.2661,-0.16066 1.6725,-0.59535 0.58961,-1.77347 -0.31321,-0.34065 -0.60227,-0.49328 -0.8661,-0.55289 0.0481,-0.12731 0.086,-0.27074 0.10097,-0.44279 0.12731,-1.47403 -1.93522,-1.15744 -2.32517,-1.06685 -0.33043,-0.16514 -10.70144,1.70576 -19.69703,5.96734 -9.43391,3.84394 -15.77052,10.86994 -15.46423,10.98358 -0.27412,-0.15028 6.54656,-6.71753 16.05722,-9.93978 9.17803,-3.67763 19.22907,-4.87981 19.32886,-4.70657 0.086,-0.016 0.21908,-0.0169 0.36817,-0.0169 -3.00081,2.20479 -25.99008,13.54278 -26.09215,13.41665 0.0599,0.15137 28.04687,-10.96636 27.99985,-11.86799" />
      <path
         inkscape:connector-curvature="0"
         id="path758"
         style="fill:#2a2325;fill-opacity:1;fill-rule:nonzero;stroke:none;stroke-width:0.01156367"
         d="m 197.84868,741.14254 c -0.0397,-0.0371 3.94094,-2.45958 8.53396,-3.77894 4.55031,-1.51606 9.22556,-1.65595 9.27064,-1.5646 0.19308,-0.0101 0.97019,0.26829 1.00599,-1.22 0.0346,-1.47664 -0.90654,-1.10315 -1.11818,-1.08922 -0.15264,-0.10528 -5.38863,0.71455 -9.71581,2.81685 -4.47052,1.91032 -8.03207,4.81396 -7.9766,4.83591" />
      <path
         inkscape:connector-curvature="0"
         id="path762"
         style="fill:#2a2325;fill-opacity:1;fill-rule:nonzero;stroke:none;stroke-width:0.01235326"
         d="m 237.93441,751.99847 c 0.13955,-1.48365 -2.38545,-0.87462 -2.61272,-0.66711 -0.4287,-0.0144 -10.04192,3.7282 -18.32727,9.26498 -8.37305,5.43295 -14.34462,12.69669 -14.35821,12.65093 0.0152,0.0371 6.54108,-6.85361 15.16732,-11.71577 8.4373,-4.93021 18.29764,-8.12604 18.34458,-7.99257 0.52629,-0.22237 1.66642,0 1.7863,-1.54046" />
      <path
         inkscape:connector-curvature="0"
         id="path766"
         style="fill:#2a2325;fill-opacity:1;fill-rule:nonzero;stroke:none;stroke-width:0.01266239"
         d="m 241.5201,755.02891 c 0.31777,-0.20253 1.59289,-0.15567 1.18386,-1.63594 -0.38615,-1.42709 -2.07916,-0.65335 -2.35261,-0.45969 -0.49894,-0.16327 -8.01021,4.56483 -12.50665,11.05053 -5.15233,6.28435 -5.91078,13.89946 -5.56389,13.8526 -0.34562,-0.008 1.12696,-7.44035 6.69085,-13.18912 5.03582,-6.05261 12.39015,-9.89309 12.54844,-9.61838" />
      <path
         inkscape:connector-curvature="0"
         id="path770"
         style="fill:#2a2325;fill-opacity:1;fill-rule:nonzero;stroke:none;stroke-width:0.01766393"
         d="m 322.86808,785.93375 c -0.1837,0 -0.33212,0.0304 -0.47344,0.0625 0.37627,-0.11009 0.78429,-0.4065 0.56884,-1.37829 -0.32326,-1.45553 -1.63569,-0.79881 -1.93776,-0.71574 -0.38682,-0.29784 -7.40827,3.43821 -10.00664,9.32459 -3.30312,5.54624 -3.31199,11.78078 -2.78384,11.69493 -0.5387,0.0346 0.21199,-6.08756 3.99565,-11.15091 3.32609,-5.49348 9.58967,-7.96909 9.69748,-7.68737 0.065,-0.0144 0.17839,-0.0236 0.30907,-0.0473 -1.03156,0.33136 -0.80902,1.40784 -0.81957,1.70509 0.0972,0.10595 0.0726,8.68517 -3.4957,16.66507 -2.93572,8.29564 -10.69198,14.16733 -10.745,14.05724 0.008,0.13339 8.31269,-5.31079 12.01506,-13.61462 4.30286,-7.91134 5.08014,-16.83214 4.97233,-17.00174 0.0144,-0.35956 0.47345,-1.95186 -1.29648,-1.9137" />
      <path
         inkscape:connector-curvature="0"
         id="path774"
         style="fill:#2a2325;fill-opacity:1;fill-rule:nonzero;stroke:none;stroke-width:0.01840147"
         d="m 332.97223,786.1676 c -0.23926,-0.15348 -1.1869,-1.13203 -2.06836,0.16175 -0.87589,1.28373 0.0884,1.48762 0.29818,1.61054 0.29624,-0.34209 4.82485,3.64124 2.58537,9.49199 -1.48129,5.41505 -4.99784,10.34551 -4.90953,10.34805 -0.0827,-0.0304 3.98949,-4.5455 6.23074,-10.02471 1.14089,-2.70372 1.55127,-5.81251 0.57416,-8.14064 -0.96976,-2.30998 -2.68667,-3.44546 -2.71056,-3.44698" />
      <path
         inkscape:connector-curvature="0"
         id="path778"
         style="fill:#2a2325;fill-opacity:1;fill-rule:nonzero;stroke:none;stroke-width:0.01924036"
         d="m 345.30049,788.49876 c -0.21359,-0.28298 -0.85815,-1.74527 -2.28195,-0.85849 -1.41222,0.87926 -0.29818,1.75861 -0.0942,2.02294 0.18083,-0.0743 5.20644,6.71254 3.8057,14.63132 -0.65994,7.84161 -6.23387,14.51473 -6.42433,14.30621 0.15779,0.21798 6.35696,-6.07017 7.78463,-14.13036 2.24345,-8.0509 -2.52053,-16.03873 -2.78984,-15.97162" />
      <path
         inkscape:connector-curvature="0"
         id="path782"
         style="fill:#2a2325;fill-opacity:1;fill-rule:nonzero;stroke:none;stroke-width:0.02000526"
         d="m 362.31963,789.2557 c -0.47614,-1.42396 -1.44439,-0.71016 -1.67849,-0.61578 -0.34808,-0.20928 -5.79555,3.07341 -7.9501,7.8195 -2.70069,4.62738 -1.84844,9.68329 -1.69445,9.60487 -0.17003,0.0211 -0.25606,-4.97352 2.91478,-9.06837 2.79473,-4.31535 7.72604,-6.46907 7.8081,-6.22846 0.20202,-0.076 1.08221,-0.0785 0.60016,-1.51176" />
      <path
         inkscape:connector-curvature="0"
         id="path786"
         style="fill:#2a2325;fill-opacity:1;fill-rule:nonzero;stroke:none;stroke-width:0.0204073"
         d="m 365.25712,788.40556 c -0.28155,-0.14884 -1.5305,-1.11345 -2.18967,0.27303 -0.65301,1.3771 0.35103,1.50703 0.59585,1.61239 0.41224,-0.51777 5.01615,3.95673 3.106,10.46277 -1.03873,6.0608 -4.53654,11.61059 -4.61809,11.53875 0.0734,0.0675 4.18137,-5.14186 5.96092,-11.29527 0.95103,-3.02901 1.24279,-6.34505 0.23267,-8.85697 -0.9918,-2.52804 -3.05906,-3.7515 -3.08768,-3.7347" />
      <path
         inkscape:connector-curvature="0"
         id="path790"
         style="fill:#2a2325;fill-opacity:1;fill-rule:nonzero;stroke:none;stroke-width:0.02106133"
         d="m 376.8228,787.27734 c -0.73929,0.1154 -3.49621,7.0764 -2.54636,13.90114 0.25276,6.95611 4.31552,13.01083 4.48192,12.86714 -0.19595,0.10874 -3.55944,-6.14716 -3.10659,-12.8874 -0.20642,-6.78515 3.06024,-12.83117 3.38248,-12.5064 0.18109,-0.30519 0.98142,-0.42127 0.0905,-1.7359 -0.8866,-1.30872 -2.26194,0.0857 -2.30195,0.36142" />
      <path
         inkscape:connector-curvature="0"
         id="path794"
         style="fill:#2a2325;fill-opacity:1;fill-rule:nonzero;stroke:none;stroke-width:0.02207133"
         d="m 391.48164,786.92276 c -0.20751,-0.18843 -0.95347,-1.30332 -2.02176,-0.11541 -1.06162,1.17973 -0.13465,1.56681 0.0532,1.72772 0.25386,-0.22465 4.70125,4.02646 4.58863,10.03829 0.30899,5.73814 -1.35515,11.46344 -1.28449,11.45145 -0.0726,-0.008 2.26447,-5.49795 2.65957,-11.43802 1.00202,-6.07161 -3.51815,-11.86732 -3.99489,-11.66403" />
      <path
         inkscape:connector-curvature="0"
         id="path798"
         style="fill:#2a2325;fill-opacity:1;fill-rule:nonzero;stroke:none;stroke-width:0.02261402"
         d="m 397.44122,786.10588 c -0.35965,-0.15694 -1.86794,-1.1603 -2.51243,0.22795 -0.63773,1.37786 0.79375,1.63476 1.12612,1.77093 0.23976,-0.45478 8.35592,4.17049 7.36319,12.62721 -0.13119,7.78581 -3.97556,15.16521 -3.86927,15.13575 -0.11085,0 4.37125,-7.02525 5.2419,-15.0607 0.53372,-3.96804 -0.43191,-8.21991 -2.61643,-10.92887 -2.19356,-2.69106 -4.6902,-3.74466 -4.73308,-3.77227" />
      <path
         inkscape:connector-curvature="0"
         id="path802"
         style="fill:#2a2325;fill-opacity:1;fill-rule:nonzero;stroke:none;stroke-width:0.02466459"
         d="m 410.89745,784.25939 c -0.63637,-0.0321 -1.95092,-0.45952 -2.45906,0.93431 -0.52292,1.45865 1.94848,1.39111 2.20748,1.36739 -0.22937,0.19856 11.80941,-0.45799 19.02376,6.43994 7.79155,6.46705 9.07909,16.01645 8.78555,15.92249 0.2639,0.12672 -0.19975,-9.50424 -7.7447,-16.67579 -7.29574,-7.82828 -19.96845,-7.78463 -19.81303,-7.98834" />
      <path
         inkscape:connector-curvature="0"
         id="path806"
         style="fill:#2a2325;fill-opacity:1;fill-rule:nonzero;stroke:none;stroke-width:0.02509252"
         d="m 430.61322,780.62186 c -0.25343,-0.0734 -1.33244,-0.71844 -1.68119,0.74098 -0.34875,1.44887 0.62228,1.39787 0.85064,1.46161 0.0929,-0.1463 5.72108,1.3387 9.71082,5.31965 4.07999,3.77615 6.23049,8.69606 6.20289,8.68272 0.0203,0.0245 -1.42531,-5.06537 -5.11392,-9.38959 -3.47281,-4.50412 -9.7559,-6.98928 -9.96924,-6.81537" />
      <path
         inkscape:connector-curvature="0"
         id="path810"
         style="fill:#2a2325;fill-opacity:1;fill-rule:nonzero;stroke:none;stroke-width:0.02559254"
         d="m 439.89839,778.80289 c -0.25082,-0.027 -1.41012,-0.46272 -1.44347,1.02751 -0.0329,1.47773 0.79341,1.23899 1.00843,1.25562 0.0127,-0.18379 5.37951,0.57272 9.01113,4.37369 3.87467,3.41693 5.40002,8.15685 5.10057,8.17433 0.29177,0.0211 -0.49911,-4.88285 -4.01295,-8.88036 -3.05569,-4.35714 -9.4871,-6.20111 -9.66371,-5.95079" />
      <path
         inkscape:connector-curvature="0"
         id="path814"
         style="fill:#2a2325;fill-opacity:1;fill-rule:nonzero;stroke:none;stroke-width:0.02663426"
         d="m 459.81187,779.5312 c -6.44011,-3.5488 -15.03764,-2.60512 -15.10155,-2.08338 -0.29303,0.11802 -1.89639,0.45335 -0.90561,1.69107 0.98547,1.2281 1.68863,0.57205 1.92831,0.45723 -0.20777,-0.31185 6.68519,-1.87925 13.46366,0.96926 6.80499,2.23299 11.65247,7.08021 11.50067,7.13052 0.15711,-0.0228 -4.107,-5.27516 -10.88548,-8.1647" />
      <path
         inkscape:connector-curvature="0"
         id="path818"
         style="fill:#2a2325;fill-opacity:1;fill-rule:nonzero;stroke:none;stroke-width:0.02724081"
         d="m 454.53823,775.16342 c -0.26694,0.0675 -1.59635,0.0566 -0.96436,1.44726 0.62659,1.37972 1.5419,0.81966 1.79517,0.75406 0.0926,0.0135 6.11829,-2.25037 12.67516,-1.82513 6.516,0.18032 12.69694,2.50254 12.69694,2.39524 -0.027,0.11119 -5.8023,-2.74205 -12.54709,-3.54432 -6.76117,-1.04904 -13.57139,0.77069 -13.65582,0.77289" />
      <path
         inkscape:connector-curvature="0"
         id="path822"
         style="fill:#2a2325;fill-opacity:1;fill-rule:nonzero;stroke:none;stroke-width:0.02804087"
         d="m 483.17412,770.00738 c -5.48757,-0.27176 -10.93031,1.15642 -10.99759,1.26769 -0.21309,0.0667 -1.259,0.18058 -0.81317,0.99214 0.44306,0.80472 1.18893,0.36901 1.39357,0.30451 0.0422,-0.0886 4.99691,-1.77752 10.40317,-1.87005 5.3839,-0.29109 10.61069,1.03975 10.58266,1.06778 0.0388,-0.022 -5.0614,-1.69842 -10.56864,-1.76207" />
      <path
         inkscape:connector-curvature="0"
         id="path826"
         style="fill:#2a2325;fill-opacity:1;fill-rule:nonzero;stroke:none;stroke-width:0.01304578"
         d="m 247.94029,760.18242 c 0.21916,-0.19308 1.42202,-0.77103 0.18919,-1.83814 -1.22371,-1.05807 -1.91513,0.0118 -2.14079,0.20869 -0.16961,0.0625 -5.35925,5.15309 -9.19863,10.86455 -4.02857,5.64096 -6.5464,11.80509 -6.52285,11.79859 -0.0211,-0.008 3.13614,-5.93188 7.67091,-11.16069 4.37556,-5.33308 9.86388,-9.83391 10.00217,-9.873" />
      <path
         inkscape:connector-curvature="0"
         id="path830"
         style="fill:#2a2325;fill-opacity:1;fill-rule:nonzero;stroke:none;stroke-width:0.01339598"
         d="m 238.69785,783.65838 c -0.0144,0.008 5.09846,-4.23448 8.96587,-9.40124 4.08311,-5.03287 6.61495,-10.94052 6.56809,-11.0946 0.0827,-0.24381 0.83858,-1.24844 -0.88551,-1.58875 -1.71066,-0.33761 -1.67182,0.69928 -1.75219,0.93507 0.054,0.10181 -1.67444,5.87676 -5.10784,11.15479 -3.2003,5.3584 -7.79518,9.99878 -7.78842,9.99473" />
      <path
         inkscape:connector-curvature="0"
         id="path834"
         style="fill:#2a2325;fill-opacity:1;fill-rule:nonzero;stroke:none;stroke-width:0.01383826"
         d="m 260.32841,767.80555 c 0.30721,-0.29616 1.95118,-1.01164 0.84549,-2.19204 -1.07664,-1.15271 -2.41753,0.20759 -2.71225,0.49404 -0.34875,0.054 -7.76884,7.19038 -13.25987,15.25943 -5.94489,7.90586 -8.94916,16.88423 -8.64887,16.92188 -0.28923,-0.0701 3.35716,-8.80074 9.79609,-16.28533 6.03758,-7.69818 13.74412,-14.22432 13.97941,-14.19798" />
      <path
         inkscape:connector-curvature="0"
         id="path838"
         style="fill:#2a2325;fill-opacity:1;fill-rule:nonzero;stroke:none;stroke-width:0.01468976"
         d="m 274.81047,773.93161 c 0.19831,-0.18514 1.34857,-0.75652 0.0397,-1.75836 -1.29859,-0.9945 -1.8568,0 -2.05654,0.18657 -0.65816,-0.13668 -17.57042,19.41919 -16.25275,20.05515 -1.19728,-0.76867 17.63205,-18.63026 18.26961,-18.48336" />
      <path
         inkscape:connector-curvature="0"
         id="path842"
         style="fill:#2a2325;fill-opacity:1;fill-rule:nonzero;stroke:none;stroke-width:0.01493713"
         d="m 279.40839,775.10517 c 0.10452,-0.0785 0.78269,-0.14293 -0.30772,-1.31539 -1.08146,-1.16436 -1.32046,-0.55804 -1.42945,-0.47615 -0.0718,0.0321 -2.63196,2.23889 -4.52751,4.7568 -1.93877,2.54611 -2.78426,5.41218 -2.82453,5.37993 0.0464,0.008 1.54443,-2.6171 3.91046,-4.67027 2.36612,-2.0719 5.12202,-3.64816 5.17875,-3.67492" />
      <path
         inkscape:connector-curvature="0"
         id="path846"
         style="fill:#2a2325;fill-opacity:1;fill-rule:nonzero;stroke:none;stroke-width:0.0152458"
         d="m 284.09732,776.89316 c 0.1463,-0.24609 1.1251,-1.1495 -0.44829,-1.83299 -1.55962,-0.67952 -1.8432,0.51439 -1.9895,0.76377 -1.02912,0 -11.12491,25.2908 -10.27874,25.46581 -0.78665,-0.30105 11.75605,-24.50727 12.71653,-24.39659" />
      <path
         inkscape:connector-curvature="0"
         id="path850"
         style="fill:#2a2325;fill-opacity:1;fill-rule:nonzero;stroke:none;stroke-width:0.01594779"
         d="m 295.62188,779.37907 c -0.16901,-0.35947 -0.79737,-2.19862 -2.2757,-1.36959 -1.47039,0.82228 -0.53431,1.76874 -0.34926,2.06254 0.91219,-0.19857 1.40497,8.36604 -4.99167,15.6958 -5.37604,7.39418 -13.13619,13.26916 -13.15535,13.21142 0.0127,0.054 8.21155,-5.34439 14.28282,-12.55013 3.0301,-3.56349 5.65667,-7.50756 6.50993,-10.95243 1.02227,-3.43736 -0.0591,-6.02922 -0.0211,-6.09761" />
      <path
         inkscape:connector-curvature="0"
         id="path854"
         style="fill:#2a2325;fill-opacity:1;fill-rule:nonzero;stroke:none;stroke-width:0.01649249"
         d="m 302.07685,782.65358 c -0.20945,0.0279 -5.71635,5.86156 -8.50189,12.63937 -2.95378,6.69658 -4.24849,13.65674 -4.30125,13.64137 0.0464,0.0236 2.03686,-6.84289 5.56295,-13.17865 3.39574,-6.4451 9.07909,-11.51038 9.25063,-11.52397 0.22761,-0.21385 1.4563,-0.88399 0.20617,-1.93768 -1.24026,-1.04566 -1.98082,0.13685 -2.21661,0.35956" />
      <path
         inkscape:connector-curvature="0"
         id="path872"
         style="fill:#231f20;fill-opacity:1;fill-rule:nonzero;stroke:none;stroke-width:0.03047019"
         d="m 395.67315,663.36463 c -0.0583,0.0177 -0.11887,0.0321 -0.1767,0.0473 0.14622,-0.18371 0.30468,-0.38759 0.46011,-0.5902 -0.10368,0.19991 -0.19806,0.37694 -0.28341,0.54267 z m 31.8231,12.5031 c 1.19441,-0.943 2.46194,-2.05088 3.70515,-3.29991 -1.34376,1.4026 -2.60824,2.53884 -3.61077,3.34078 -0.0338,-0.0127 -0.0608,-0.0279 -0.0944,-0.0405 z m 8.2574,-8.92011 c 0.009,-0.008 0.0186,-0.0152 0.0279,-0.0228 -0.0338,0.049 -0.0701,0.0954 -0.10359,0.14386 0.027,-0.0405 0.0515,-0.081 0.076,-0.12098 z M 273.05929,655.66054 c -1.38977,-2.09664 -2.80478,-4.50928 -3.96602,-7.07885 -0.82093,-1.60969 -1.50492,-3.24843 -2.0833,-4.84081 0.95524,1.34502 1.99677,2.6811 3.14365,3.98282 4.15462,5.2332 9.25291,9.80436 13.689,13.29018 -1.26086,-0.43419 -2.53049,-0.94917 -3.88734,-1.58572 -1.71851,-0.80835 -4.38196,-2.69841 -6.89599,-3.76762 z m -68.01314,11.43879 c 0.90889,0.5674 1.82969,1.12746 2.76822,1.6741 8.81197,4.98424 17.45729,9.94577 24.21618,13.58634 -0.0304,0.0312 -0.0659,0.0633 -0.096,0.0941 -4.02359,-1.59846 -13.39444,-5.75426 -21.61553,-11.56433 -1.87149,-1.19779 -3.63297,-2.48245 -5.27288,-3.79024 z m 295.15808,50.23597 c 6.08182,-1.96443 12.31298,-4.99108 12.11189,-5.27592 0.0186,0.0523 -5.24392,1.63257 -10.70118,2.2871 -1.15179,0.20987 -2.25173,0.32722 -3.27249,0.38632 -0.20717,-0.4043 -0.35955,-0.79467 -0.45098,-1.16698 1.51133,-0.53321 3.03491,-1.16976 4.47002,-1.93852 6.73694,-3.36365 12.40745,-7.57644 12.46233,-7.52553 -0.0127,-0.0642 -6.64864,3.22064 -13.65675,5.35967 -1.41991,0.46348 -2.83677,0.80775 -4.19877,1.06735 -1.38031,-0.0582 -2.90389,-0.14622 -4.38779,-0.30865 3.80578,-1.85595 6.24645,-4.40079 6.26772,-4.3563 0.009,-0.0355 -3.95496,2.04489 -8.18429,2.55801 -1.66059,0.24559 -3.21456,0.18649 -4.49737,0.0245 -0.43571,-0.3214 -0.74343,-0.69438 -0.89277,-1.12435 2.75142,-0.77787 5.86553,-1.92906 8.59568,-3.59852 6.92275,-3.83043 11.78889,-9.20901 11.798,-9.16697 0.008,-0.0312 -5.99655,4.51873 -13.16008,7.07311 -1.70627,0.67058 -3.42174,1.15018 -5.04587,1.49969 0.0608,-0.0566 0.11279,-0.11 0.17982,-0.16758 -2.67527,0.13533 -4.58576,0.0338 -5.896,-0.29522 0.54849,-0.34133 1.06955,-0.70966 1.54181,-1.10729 3.99464,-2.75877 7.45606,-5.75435 7.49869,-5.73299 -0.008,-0.0405 -4.43642,2.05857 -8.95819,3.68599 -0.55761,0.22912 -1.10307,0.42169 -1.63325,0.58868 1.50526,-0.79282 2.94341,-1.73439 4.27501,-2.71707 5.73138,-4.31367 10.36594,-9.16021 10.49089,-9.08525 -0.0642,-0.11245 -5.87161,3.99033 -12.14853,7.14834 -0.53018,0.26745 -1.06947,0.51489 -1.60877,0.75229 0.2011,-0.32334 0.41435,-0.65512 0.64592,-1.00277 -0.34731,-0.20844 -0.72823,-0.35931 -1.1213,-0.48147 4.90269,-3.53487 8.06854,-7.71413 8.11422,-7.66998 -0.0118,-0.0507 -4.8295,3.94803 -10.59752,6.32319 -5.82289,2.63449 -11.76153,2.04429 -11.77065,2.01475 -0.0667,0.008 -0.13406,0.12275 -0.19806,0.30983 -0.86533,-0.054 -1.69411,-0.2011 -2.4681,-0.4775 3.54677,-0.8129 7.91312,-2.16637 11.73106,-4.26639 8.36715,-3.85086 14.28747,-9.96924 14.20828,-9.96105 0.0515,0.0346 -6.88325,5.22966 -15.44845,7.81384 -3.71731,1.36841 -7.4591,2.07587 -10.48481,2.42479 1.42911,-1.36503 2.90693,-2.96991 4.11046,-4.71797 3.78139,-5.0538 5.07635,-10.7466 5.07331,-10.71216 0.0118,-0.008 -2.71183,5.29272 -7.33719,9.27275 -0.323,0.29523 -0.64904,0.57771 -0.98116,0.85402 1.07251,-1.09749 2.16029,-2.11825 2.93428,-2.96408 -1.65452,0.78336 -3.90025,1.74586 -6.21597,2.35227 0.39004,-0.33887 0.77095,-0.68897 1.13963,-1.05241 5.79537,-5.22358 8.68094,-11.72313 8.69614,-11.6756 0,-0.0304 -4.26276,5.92463 -10.62191,9.9229 -1.88305,1.28187 -3.87577,2.2746 -5.74666,3.04243 -0.19502,-0.0557 -0.38691,-0.1133 -0.56673,-0.17155 1.89217,-0.92173 3.73258,-2.08077 5.19825,-3.48177 5.63691,-4.30092 10.05822,-9.28913 10.07949,-9.27359 0,-0.0152 -2.04151,1.52923 -5.03362,3.45162 6.79485,-5.45565 10.79557,-11.5601 10.85348,-11.48234 -0.0363,-0.0836 -6.59376,7.28476 -15.6373,11.8571 -2.54738,1.36385 -5.21345,2.42091 -7.73339,3.24909 0.59417,-0.82818 1.18834,-1.54544 1.03291,-2.05096 -0.66727,-2.16123 -2.20596,-1.83527 -4.05862,-1.02895 4.94532,-5.79453 9.39094,-12.29323 9.24168,-12.56229 0.14622,0.0905 -4.69247,5.10556 -10.2106,9.57676 -0.78311,0.64601 -1.57229,1.28314 -2.35532,1.90011 0.30165,-0.30106 0.60025,-0.60481 0.88974,-0.91743 5.5882,-5.70521 6.5724,-12.86544 6.62727,-12.76608 -0.0186,-0.0566 -2.00799,5.26984 -6.70655,9.52712 0.50586,-0.58227 1.00252,-1.17432 1.47175,-1.78892 6.07574,-7.52765 8.20564,-16.23637 8.28179,-16.17052 -0.049,-0.0608 -3.65947,8.33177 -10.53968,14.72165 -0.67336,0.66154 -1.37719,1.28585 -2.09327,1.88947 -0.076,-0.38877 -0.51194,-0.54174 -1.60276,-0.19383 -2.55945,0.8151 -4.25365,3.96753 -6.56329,5.27963 -0.49362,0.27876 -1.00243,0.51093 -1.52349,0.70873 2.02328,-2.66067 4.06166,-5.99107 5.42374,-9.41711 0.94149,-1.94772 1.77634,-3.91511 2.50154,-5.77292 3.64124,-4.88158 5.01235,-9.37144 4.93012,-9.32205 0.0608,0 -1.11219,2.36392 -3.47358,5.32159 1.23401,-3.6344 1.86169,-6.20339 1.78555,-6.21225 0.10054,0.0253 -1.8557,4.47061 -4.95444,9.71242 -0.14327,0.13955 -0.29557,0.27758 -0.44491,0.41654 2.96476,-5.44232 4.49129,-10.07198 4.29628,-10.10212 0.25293,0.0734 -3.86057,7.72418 -9.98503,14.19882 -0.15542,0.18708 -0.31996,0.36285 -0.47842,0.54478 -1.9592,1.24625 -3.97936,2.29259 -5.90513,3.15978 6.84366,-6.10841 13.13873,-17.17878 13.56836,-18.22115 -0.38995,0.73035 -4.93308,6.08942 -10.37202,10.75598 -1.41687,1.24068 -2.89165,2.44792 -4.31156,3.50372 1.60276,-1.49243 3.08059,-3.15126 4.32371,-4.89383 6.02095,-8.18428 8.38235,-17.35522 8.4677,-17.30398 -0.049,-0.076 -3.90625,8.8449 -10.78342,15.92249 -1.31632,1.55211 -2.76974,2.83036 -4.25668,3.89164 -0.23765,-0.33609 -0.53929,-0.64322 -0.93236,-0.90831 -0.94461,0.52596 -1.75507,0.94123 -2.46811,1.26238 1.06956,-1.20657 2.00192,-2.54544 2.67224,-4.0068 4.05255,-7.22541 7.7821,-14.21376 8.09286,-14.12664 -0.14926,-0.12005 -2.2091,2.43214 -4.97884,5.91855 2.30972,-5.8722 2.68448,-11.00857 2.60217,-10.97387 0.11582,-0.011 -1.98056,8.00455 -7.36159,14.56969 -2.16334,3.04454 -4.86909,5.4733 -7.24272,7.22204 -0.18894,-0.24626 -0.38396,-0.50519 -0.59721,-0.78159 0.54233,-1.63654 0.95981,-3.37978 1.12131,-5.15249 1.05418,-7.40363 0.22844,-14.6114 0.30468,-14.61199 -0.0642,-0.027 -0.70392,7.28417 -3.08363,14.12352 -0.29556,0.95803 -0.65504,1.87275 -1.04811,2.74602 -1.34376,-0.9745 -2.74543,-1.2563 -4.22629,-0.9918 0.85014,-2.54155 1.66372,-5.42552 2.17558,-8.36749 1.7825,-8.63519 0.31388,-17.16535 0.34132,-17.13184 -0.0152,-0.0152 -0.0186,8.57981 -3.11107,16.60471 -0.72823,2.07992 -1.60876,4.09949 -2.51377,5.96 0.3382,-1.80961 0.61552,-3.70026 0.77095,-5.60745 0.0734,-0.75103 0.12182,-1.49817 0.16141,-2.24075 2.98612,-9.55059 1.82523,-18.89062 1.79171,-18.83212 0.0363,-0.0177 -0.0701,5.08124 -1.8069,11.31511 -0.26509,-4.92641 -0.90797,-8.47133 -0.85926,-8.46584 -0.0583,-0.016 0.10359,7.07548 -1.39855,14.76066 -0.26508,0.58961 -0.54545,1.17803 -0.8471,1.76275 -3.72043,8.19703 -10.3477,14.58117 -12.09669,16.10314 -0.0701,-0.0397 -0.13406,-0.0684 -0.20413,-0.11 -0.0118,-0.008 -0.0245,-0.0152 -0.0363,-0.0236 2.08111,-6.36337 6.48098,-27.24122 6.46274,-27.19647 0,0.043 -6.70646,15.95701 -10.32635,23.38715 -0.0211,-0.0338 -0.0397,-0.0701 -0.0608,-0.10393 1.34376,-3.39532 2.89165,-8.00852 3.61988,-12.75114 1.62404,-9.21939 0.36868,-18.3016 0.43267,-18.2843 -0.0515,-0.0211 -0.26205,9.14933 -3.21465,17.79862 -0.8775,2.76332 -2.02928,5.41935 -3.19634,7.76715 -0.0583,-0.18987 -0.10966,-0.37847 -0.16141,-0.56614 0.1127,-0.52106 0.21325,-1.04422 0.29244,-1.57018 1.23409,-6.3518 1.07563,-12.63143 1.10611,-12.62594 -0.0245,-0.0127 -1.31025,6.21293 -3.8545,12.02755 -0.0456,0.11271 -0.0945,0.22153 -0.14014,0.3333 -0.81358,0.17037 -1.52957,0.45673 -2.18469,0.81966 2.59904,-11.60028 1.944,-28.09228 1.2736,-27.93323 0.19502,-0.008 -0.29253,9.66059 -2.69655,19.04663 -1.14874,4.67103 -2.70888,9.31657 -4.50354,12.31696 -0.27116,0.43967 -0.53321,0.81594 -0.7831,1.14536 -1.30712,0.74866 -1.78555,1.30256 -3.79962,0.85318 1.89217,-3.53943 3.99463,-8.65841 4.36331,-13.95265 1.26153,-9.50423 -0.33212,-18.78458 -0.29861,-18.76778 -0.0211,-0.0203 0.10975,9.39178 -2.49849,18.36011 -1.06043,4.41151 -3.1141,8.25866 -5.00019,11.08446 -0.0794,-0.0439 -0.15543,-0.10114 -0.24069,-0.12402 -0.45403,-0.11794 -0.85318,-0.1642 -1.21578,-0.16243 0.96588,-3.50253 1.69716,-7.54833 1.69412,-11.60543 0.97812,-11.09603 -2.92205,-21.67776 -3.36999,-21.48916 0.48146,-0.11549 2.90684,10.64116 0.54545,21.26155 -0.74655,5.28681 -2.59001,10.14501 -4.33596,13.70639 0.50587,-1.97052 0.88974,-4.08396 1.0086,-6.21285 1.11211,-8.29767 -1.70331,-16.18428 -1.7825,-16.1072 0.10663,-0.0186 1.43814,8.02735 -1.02379,15.73971 -0.47235,1.9397 -1.13963,3.78501 -1.87698,5.46638 -0.72215,-0.73989 -1.30416,-1.64878 -1.90137,-2.52053 0.46618,-3.07139 0.67952,-6.46671 0.33516,-9.83028 -0.55457,-10.51714 -2.11766,-20.76396 -2.00183,-20.78558 -0.11583,-0.0194 0.027,10.422 -0.83495,20.72252 -0.1127,2.41044 -0.47834,4.72464 -0.96892,6.8737 -1.06035,-0.4119 -1.95616,-0.4997 -2.73622,-0.34554 -1.5479,-10.0719 -3.80874,-24.26304 -3.65644,-24.27469 -0.17366,0 -0.31996,18.6588 -0.46922,28.42779 -0.24162,0.45681 -0.47775,0.92696 -0.71388,1.40319 -2.06718,-3.67957 -4.83777,-8.8617 -7.10292,-14.18726 -4.60746,-9.82969 -4.1693,-20.48292 -4.02908,-20.47135 -0.12402,-0.0865 -2.04978,10.60207 1.29834,21.12588 2.14113,7.66053 5.22316,15.05133 6.71406,18.53866 -0.5338,0.5366 -1.13135,0.96774 -1.81416,1.2563 -1.64481,-2.92787 -4.38526,-8.07032 -6.59013,-13.44433 -3.66952,-8.07496 -4.93131,-16.64439 -4.785,-16.67242 -0.14808,-0.0338 -0.31448,8.71877 2.04632,17.30677 0.008,0.0253 0.0127,0.0498 0.0186,0.0743 -1.17525,-1.92628 -2.33953,-3.95014 -3.42428,-6.01513 -5.90571,-10.75656 -9.49081,-22.27639 -9.49757,-22.26787 0.009,-0.0177 2.18656,11.75141 6.8537,23.13962 2.71183,7.00271 6.3741,13.75366 8.84701,17.98266 -0.67884,-0.18312 -1.32941,-0.43208 -1.9641,-0.71363 0.0625,-0.11608 0.076,-0.20878 0.0262,-0.26568 -0.0599,-0.15365 -6.14302,-5.64155 -11.04689,-11.76153 -5.14642,-6.05658 -7.27269,-13.39655 -7.20287,-13.41057 -0.0718,-0.0473 0.61763,7.60143 4.71856,14.56691 0.6612,1.20024 1.3614,2.37912 2.06439,3.51477 -0.13288,0.19772 -0.28586,0.43208 -0.52503,0.71422 -1.79221,-2.51048 -3.6046,-5.38651 -5.0641,-8.44119 -5.08217,-9.45915 -4.30269,-20.08562 -4.27526,-20.0402 0,-0.0939 -2.31335,10.46615 1.58833,20.81504 1.63384,5.03185 4.19734,9.75843 6.40888,13.31061 -0.33491,1.14021 -1.28922,1.78892 -4.23389,1.22219 -1.33059,-0.25412 -2.63779,-2.35776 -3.93368,-3.11833 -2.06921,-3.46632 -4.69577,-8.06483 -7.02525,-12.78685 -4.67837,-9.53168 -7.61418,-19.58804 -7.73237,-19.56516 0.11946,-0.0312 1.64658,10.25079 5.0468,20.34008 2.03417,5.99951 4.54338,11.88395 6.25851,15.71252 -0.5024,0.70814 -0.96858,1.27546 -1.43603,1.72037 -2.34163,-2.78351 -5.16743,-6.91128 -7.02735,-11.71764 -4.23229,-8.93083 -5.81859,-18.55115 -5.65557,-18.55664 -0.15906,-0.0228 -0.0177,9.72424 2.94188,19.26081 0.15027,0.69227 0.33186,1.37905 0.52899,2.06195 -1.63383,-2.70246 -3.35201,-5.77934 -4.82375,-8.95186 -4.60797,-9.37262 -5.20551,-19.67643 -5.22383,-19.65296 0.0321,-0.0481 -0.8525,10.27823 2.51867,20.38026 2.02902,6.535 5.01573,12.77073 6.87168,16.41222 -5.16533,-3.0827 -12.60585,-8.11548 -18.66724,-14.47674 -2.87949,-2.72981 -5.26131,-5.70099 -7.20962,-8.60201 -0.74706,-3.19726 -0.96926,-5.41488 -0.93237,-5.41606 -0.0279,-0.0169 -0.13744,1.50703 -0.0574,3.89282 -4.77985,-7.62212 -6.54986,-14.35391 -6.40482,-14.31339 -0.15356,-0.0892 1.19256,8.60666 6.65227,17.95944 0.28636,2.83804 0.84642,6.17815 1.91564,9.49968 0.53659,2.02691 1.25351,4.01903 2.03357,5.88444 -1.00218,0.38877 -1.70298,1.09935 -2.21669,1.97448 -5.08884,-10.44521 -13.29381,-26.15656 -13.56835,-26.02308 0.37627,-0.0566 8.62911,23.74873 11.26293,32.84048 -0.0228,0.0515 -0.0464,0.10392 -0.0701,0.15415 -3.15032,-3.07046 -7.21047,-7.1035 -11.08657,-11.24014 -8.26356,-8.27538 -13.72867,-18.02739 -13.25793,-18.20105 -0.50949,0.0914 3.70059,10.45222 10.92693,19.56457 3.65551,4.93561 7.51971,9.73251 10.35007,13.17536 -2.93488,1.369 -6.88561,0.0557 -10.56577,-2.10339 -3.55099,-2.89284 -8.00548,-7.12909 -11.32549,-12.30716 -6.76041,-9.67613 -9.38487,-20.93096 -9.41838,-20.88613 0.0506,-0.0507 1.18774,11.35681 6.88232,21.96049 1.32729,2.76485 3.01904,5.36456 4.80576,7.70958 -3.49645,-2.10373 -7.41156,-4.92278 -10.80806,-8.46221 -8.31506,-8.18952 -15.63553,-17.18156 -16.18977,-17.56459 0.62676,0.6314 6.63767,10.03787 13.96084,19.04419 4.9877,6.65108 12.49584,11.77495 16.89301,14.24179 -0.32174,0.84651 -0.92629,1.52197 -2.1381,1.82184 -1.06794,0.2629 -2.8084,-0.36842 -4.56322,-1.20539 -5.54345,-3.60316 -13.5708,-9.44733 -20.63623,-16.32171 -12.58449,-11.30169 -22.19206,-24.56418 -22.03731,-24.62783 -0.16539,0.0405 8.20387,13.92369 19.86207,26.16263 3.62199,4.14364 7.65833,8.03739 11.47804,11.39649 -0.0439,0.0701 -0.0871,0.15475 -0.13068,0.23276 -1.31109,-0.73127 -2.65274,-1.49792 -3.98003,-2.28744 -7.51085,-4.45102 -14.1659,-9.83357 -14.23107,-9.78672 0.0549,-0.0591 5.65709,6.14008 12.40863,11.6165 1.65064,1.34553 3.34627,2.65611 4.96609,3.87155 0.21663,2.30998 1.7928,4.66833 3.19203,6.45235 -5.99959,-2.8377 -12.97545,-6.23235 -19.76938,-9.59474 -4.52785,-2.26852 -8.78116,-4.82257 -12.60889,-7.37746 -3.15792,-3.41203 -4.91509,-5.94319 -4.80602,-5.98009 -0.1,0.008 0.87994,1.86051 2.79895,4.61261 -10.31233,-7.14799 -17.07485,-13.89777 -16.98832,-13.9258 -0.11853,0 7.96977,9.29158 20.25507,18.24648 2.67071,3.27459 6.15805,6.98253 10.34247,10.27848 2.58055,2.24016 5.34844,4.31552 8.04077,6.16202 -2.97937,-1.48913 -6.1513,-3.24513 -9.16478,-5.24063 -10.47349,-6.45354 -18.16424,-15.45563 -18.17091,-15.42127 0.008,-0.054 6.46518,9.63045 16.32501,17.23518 3.40198,2.81238 7.13128,5.30884 10.52871,7.36378 -3.72533,-0.67344 -8.40649,-1.56588 -11.90379,-1.53177 -4.5986,-1.91842 -11.18045,-4.98947 -17.16147,-8.98326 -10.79465,-6.7247 -18.10625,-16.39812 -18.04201,-16.40539 -0.0768,-0.0338 5.97705,10.30837 16.17972,18.20714 5.36364,4.44283 11.5265,8.12519 16.05047,10.56341 1.28796,1.5619 2.67097,3.38704 1.62919,4.5026 -0.14352,0.15416 -0.3501,0.26906 -0.59476,0.35863 0.1469,-0.56006 0.10908,-0.98513 -0.15626,-1.10121 -0.15914,-0.2054 -12.41818,-4.25795 -23.03401,-10.4903 -11.15268,-5.84147 -18.21229,-15.34967 -18.14711,-15.35119 -0.092,-0.0608 5.73543,10.17253 16.41002,17.23787 5.82197,4.26859 12.25085,7.81806 16.6806,10.0979 0.011,0.77087 -0.23216,1.66094 -0.2032,2.42539 -5.38685,-1.39644 -15.17695,-4.707 -23.83932,-10.29157 -13.25118,-7.41832 -21.73044,-18.98661 -21.20111,-19.19049 -0.56706,0.12461 6.68638,12.43067 19.43507,21.05978 2.09723,1.63932 4.32675,3.1418 6.57856,4.50658 -2.89072,-0.79282 -5.87954,-1.69572 -8.8248,-2.7158 -7.02795,-2.4367 -13.77958,-5.52674 -18.04023,-8.72881 -4.3764,-3.11774 -6.10225,-6.11998 -6.16743,-6.06477 0.0701,-0.0591 1.4449,3.07316 5.55655,6.60465 3.99066,3.60924 10.539,7.30376 17.45053,10.35134 6.41673,2.82976 13.13425,5.09559 18.53444,6.72022 0.2721,0.71152 0.40279,1.48753 -0.20751,2.40715 -0.10114,-0.41587 -0.27969,-0.69227 -0.52038,-0.72697 -0.12798,0.19257 -13.70917,-1.73193 -26.38264,-6.55847 -13.09491,-4.17808 -23.02025,-12.62991 -22.44221,-13.03632 -0.67006,0.31169 8.33271,9.75717 21.17308,15.17197 4.26648,2.09605 8.7544,3.85998 12.81243,5.26317 -5.69913,-1.033 -12.58634,-2.75936 -19.12616,-5.63337 -15.15863,-6.10985 -26.5395,-16.94079 -26.53342,-16.85577 0.008,-0.10663 10.19321,11.52413 25.16045,18.94423 1.29682,0.69716 2.62015,1.3462 3.95411,1.95253 -3.51198,-0.84102 -7.28813,-1.93151 -10.97994,-3.33403 -13.12016,-4.29087 -23.19053,-12.85878 -22.96107,-12.98676 -0.26906,0.0743 8.77296,9.5613 21.70266,15.12637 6.54319,3.20486 13.68781,5.41944 19.03963,6.77561 0.65453,0.87327 1.38521,1.75878 2.0714,2.63264 -4.74482,-0.99788 -13.43767,-3.18654 -21.50647,-6.9789 -12.17318,-4.98888 -21.24906,-13.63994 -21.17983,-13.66164 -0.0982,-0.0253 7.8829,9.4763 19.71695,15.70746 11.2843,6.72411 24.97726,10.26084 25.29604,10.24682 0.0566,0.0127 0.11397,0.008 0.17214,0 -0.10182,0.52984 -0.39882,1.0189 -0.93608,1.45613 -6.68452,-0.69345 -14.78379,-2.31597 -22.55618,-5.68512 -18.31038,-6.68907 -31.17921,-20.07161 -30.94789,-20.08715 -0.23318,-0.0279 11.4208,14.17198 29.65664,22.21275 4.14576,2.16857 8.54993,3.80975 12.86537,5.04739 -5.32497,-0.49633 -11.25416,-1.6487 -17.00842,-3.29469 -18.06091,-4.81126 -31.95927,-14.9615 -32.51267,-15.47403 0.37146,0.50586 13.45785,11.59641 31.49985,17.70414 2.90347,1.03781 5.88622,1.94798 8.85368,2.72315 -7.25859,-0.59088 -14.41326,-2.35481 -21.15907,-4.64216 -5.51424,-1.87056 -10.95166,-3.95656 -16.01366,-6.59469 -4.440131,-2.31268 -8.324763,-5.17656 -12.366,-7.93752 -0.03715,-0.0253 -0.927216,-0.6048 -0.908052,-0.58868 7.648962,6.37198 18.356812,13.00475 20.206692,14.19941 7.9219,5.11358 20.38296,11.86605 35.95391,16.01029 36.80523,9.80225 63.03642,-6.70706 94.69979,-19.87449 38.66118,-16.07883 85.48048,-26.93536 127.05399,-23.96544 38.87089,2.77312 65.94968,9.4811 101.98683,29.69015 10.53656,5.91188 45.97651,24.95936 62.59185,33.19607 -11.15209,-9.24185 -27.15199,-18.95427 -33.17589,-25.75158" />
      <path
         inkscape:connector-curvature="0"
         id="path890"
         style="fill:#353334;fill-opacity:1;fill-rule:nonzero;stroke:none;stroke-width:0.03524522"
         d="m 611.10029,602.53874 c -4.18712,8.07749 -4.96255,10.50026 -3.81355,5.66427 4.48673,-18.8897 -15.07437,-29.35787 -15.07437,-29.35787 6.60845,10.34517 2.80554,17.53555 2.80554,17.53555 0,0 -7.88442,-22.13153 -24.37212,-23.80783 11.83533,17.76855 -13.66805,-0.9403 -20.54091,-1.12992 2.38967,2.48372 2.95007,3.82512 1.0926,4.85398 -1.64591,-0.0734 -3.45754,-0.21114 -5.32202,-0.37644 -5.71323,-2.48904 -12.65304,-4.73874 -21.00963,-6.16507 5.38195,1.8747 9.59372,3.63795 12.97722,5.27584 -4.31046,-0.56394 -8.98394,-1.29775 -13.90064,-2.17997 -6.60499,-3.4702 -15.58547,-6.89954 -27.26925,-8.77111 7.32393,2.42843 12.54025,4.67357 16.33616,6.66451 -2.7879,-0.57095 -5.61108,-1.17542 -8.48002,-1.82184 -6.80584,-3.94036 -16.96351,-8.21916 -30.94528,-10.31977 8.46592,2.67156 14.16506,5.13173 18.0561,7.24289 -5.43835,-1.36047 -10.88016,-2.81964 -16.22691,-4.38095 -5.31492,-4.00038 -13.31213,-8.1452 -25.13335,-10.60182 6.86577,2.66109 11.42655,5.14582 14.45412,7.33812 -0.50755,-0.16218 -1.0292,-0.31727 -1.53675,-0.4829 -4.97664,-1.61071 -9.71707,-3.22842 -14.30959,-4.84267 -4.00738,-3.32718 -9.76991,-6.66484 -18.20764,-9.25544 4.3845,2.31209 7.53187,4.40214 9.77,6.25962 -2.19229,-0.79662 -4.3422,-1.5896 -6.464,-2.38259 -2.49182,-1.18428 -5.04359,-2.40022 -7.65875,-3.65846 -3.3201,-2.1852 -7.51076,-4.307 -12.83633,-6.12209 -32.27586,-11.01414 -62.72067,-23.88921 -96.00977,-33.25035 -21.89608,-6.15738 -49.79124,-11.79657 -72.92622,-11.81422 -107.68157,-0.0777 -185.604604,54.10845 -192.954202,57.59773 0,0 67.446662,-36.6444 144.704872,-48.01455 77.59876,-12.98432 156.45289,43.57011 216.69896,78.77198 40.78577,27.89736 82.75928,45.57246 119.86548,54.12508 21.40794,5.70302 33.54634,5.42071 38.30804,5.26529 9.3505,-0.30663 25.76424,-3.59042 32.14712,-12.73409 6.38996,-9.22725 8.40598,-19.76448 7.77509,-25.12491" />
      <path
         inkscape:connector-curvature="0"
         id="path910"
         style="fill:#181818;fill-opacity:1;fill-rule:nonzero;stroke:none;stroke-width:0.03537079"
         d="m 563.79015,595.84426 c 3.35666,1.06719 4.0252,4.68631 6.86544,5.45558 0.35727,0.0962 0.74275,0.1479 1.17786,0.1436 0.9409,-0.32115 1.5988,-0.68864 2.04447,-1.09395 0.44212,-0.40506 0.66846,-0.84719 0.74985,-1.32856 0.71447,-4.14652 -3.19397,-5.75908 -5.02975,-9.00682 1.82514,0.74452 3.83423,0.63207 5.58863,1.56477 1.8145,0.96462 3.29299,2.46785 4.58052,3.88692 1.55271,1.7077 2.87207,5.26604 4.85634,6.4916 0.43866,0.27235 0.83478,0.54934 1.19197,0.83368 4.62299,3.66336 2.57152,8.62236 4.42139,13.81512 0.12385,0.26104 0.24761,0.50156 0.37492,0.72156 0.38202,0.65825 0.78167,1.12088 1.24507,1.34486 3.18696,1.54072 8.34047,-5.5649 9.15042,-22.29244 3.13386,6.08477 5.79732,21.10393 3.21871,27.43421 -2.52543,6.20305 3.82714,-0.88846 8.90289,-7.08257 1.90998,23.91024 -17.54745,32.40317 -44.79002,31.60943 -19.24174,-0.56065 -38.39855,-3.21415 -56.73831,-8.16394 -24.17236,-6.5231 -46.73538,-16.99677 -67.97912,-28.53998 -6.09786,-3.31352 -12.10741,-6.74167 -18.05323,-10.2448 -7.54461,-4.4468 -14.97956,-9.02666 -22.33313,-13.69836 -60.18976,-35.4635 -116.18523,-85.40703 -213.82234,-77.5406 -57.89178,4.66191 -137.812002,40.09637 -137.812002,40.09637 0,0 62.051962,-39.99726 146.410972,-49.72429 84.55486,-10.64301 127.64006,13.11197 207.71705,46.89106 60.86253,33.15479 110.233,48.32287 139.95507,53.48701 0.31836,0.0549 0.62963,0.10933 0.94444,0.15492 0.25825,-0.16167 0.50223,-0.31127 0.7463,-0.46162 0.34664,-2.35498 2.8827,-5.54751 0.34664,-7.67581 6.33137,0 6.33137,5.32083 9.76941,7.14141 0.37492,0.25285 0.78175,0.45943 1.23443,0.60269 0.90197,0.28653 1.97718,0.32469 3.32136,-0.0523 0.19097,-0.27446 0.3501,-0.56099 0.48459,-0.85208 0.53051,-1.16478 0.67555,-2.40841 0.96554,-3.29874 0.0885,-0.23976 0.18396,-0.44777 0.29362,-0.61755" />
      <path
         inkscape:connector-curvature="0"
         id="path928"
         style="fill:url(#linearGradient4320);fill-opacity:1;fill-rule:nonzero;stroke:none;stroke-width:0.03479905"
         d="m 591.04395,622.91959 c 0,0 6.76489,-11.27382 2.90221,-18.71282 -0.0591,12.30319 -9.85156,13.20415 -9.85156,13.20415 2.29673,-6.09508 6.79275,-13.50656 3.41719,-19.31594 -0.41055,5.94336 -2.55422,11.61312 -8.87022,16.58596 -2.33852,-2.78638 -3.97058,-5.863 -3.69224,-9.13126 -0.9013,1.01991 -2.40807,1.98664 -3.30237,3.00866 -2.13665,-1.27884 -3.46597,-3.20739 -3.5878,-5.02915 -0.38632,1.41805 -2.49511,2.32948 -3.3894,3.34179 -5.27905,-3.32364 -4.75706,-9.73994 -9.16258,-13.98363 0.0591,4.27813 2.25839,9.81222 -3.13893,13.65894 -9.98384,-6.49 -13.52639,-18.3043 -26.66993,-22.24491 0.8769,3.22268 3.59472,10.07705 2.0844,12.54329 -7.74976,-3.32263 -13.17486,-10.50616 -18.76019,-14.89953 0.57771,2.3917 1.65992,5.15646 2.2237,7.56108 -8.65452,-2.2584 -9.95599,-8.68061 -16.44253,-12.02342 0.76555,1.69268 0.82819,3.68278 0.37231,5.30936 -11.90818,-1.68956 -15.91362,-11.63896 -23.99736,-15.84262 0.16006,1.60074 0.76554,3.8696 0.22617,5.7627 -11.49417,-3.07975 -19.95731,-12.48242 -29.14766,-17.07587 -0.16707,2.75261 1.95219,6.20466 4.21413,9.06516 -10.49544,-4.36737 -16.03189,-10.88869 -25.26758,-15.28028 -0.26104,0.88737 -0.76563,2.65864 -0.58117,4.14803 -7.21731,-2.82572 -8.84937,-7.84027 -14.77914,-10.82596 -0.16708,0.57762 -2.42902,1.99744 -2.59254,2.57506 -6.18035,-2.08794 -7.93068,-6.67438 -11.4176,-9.5245 -0.41055,1.41636 -1.44068,2.82918 -1.23536,4.24554 -4.18627,-2.55776 -6.2819,-5.92631 -9.86827,-8.42489 -3.19008,6.68148 -13.00441,-6.31255 -13.08689,-6.03758 -1.97169,2.40807 -11.91206,-3.18063 -14.91101,-5.50876 -1.57677,3.91148 -56.30353,-27.36591 -118.21619,-26.58644 -1.1094,0.0279 -2.247,0.0625 -3.40064,0.10089 -0.38311,0.0135 -0.77669,0.0279 -1.16436,0.0456 -0.78293,0.0279 -1.57355,0.0591 -2.37642,0.0974 -0.47774,0.0211 -0.96115,0.0456 -1.44624,0.0659 -0.73913,0.038 -1.48905,0.0768 -2.24422,0.12174 -0.52443,0.0279 -1.04912,0.0557 -1.5809,0.0905 -0.75651,0.0456 -1.52594,0.0974 -2.2974,0.14959 -0.53692,0.0346 -1.06626,0.0701 -1.61019,0.1079 -1.11633,0.0836 -2.25114,0.17053 -3.39811,0.26796 -0.76596,0.0625 -1.54713,0.13229 -2.32669,0.20531 -0.65799,0.0591 -1.31328,0.11482 -1.98073,0.181 -0.77601,0.0734 -1.56351,0.15661 -2.3521,0.23664 -0.57416,0.0591 -1.14976,0.11828 -1.73126,0.18438 -0.84837,0.0905 -1.70441,0.18793 -2.56713,0.28881 -0.51008,0.0591 -1.02616,0.12182 -1.5419,0.18447 -0.94309,0.11481 -1.88752,0.22971 -2.84724,0.35499 -0.3111,0.0414 -0.62921,0.087 -0.94241,0.12529 -3.60233,0.48019 -7.31094,1.0335 -11.12525,1.67376 -0.20742,0.0346 -0.41341,0.0659 -0.62118,0.10097 -1.2221,0.20878 -2.45713,0.42803 -3.69983,0.65073 -0.27243,0.049 -0.54529,0.10089 -0.81848,0.1496 -1.2774,0.23318 -2.56392,0.47674 -3.86336,0.73077 -0.14022,0.0279 -0.28222,0.0557 -0.42312,0.0836 -7.26256,1.43021 -14.85158,3.1667 -22.73321,5.28251 -0.0312,0.008 -0.0633,0.0177 -0.0946,0.0245 -17.54222,4.71181 -36.52402,11.28185 -56.533498,20.39926 -0.09498,0.0414 -0.189614,0.0836 -0.283999,0.12874 -1.780646,0.8108 -3.567877,1.64245 -5.365239,2.49858 -1.11531,0.52891 -2.230283,1.05782 -3.351165,1.60421 -1.343927,0.65419 -2.695198,1.33278 -4.048581,2.01137 -0.475638,0.23664 -0.951698,0.47673 -1.428772,0.72038 -1.46406,0.74115 -2.931498,1.49285 -4.404592,2.26194 -0.624645,0.32705 -1.251653,0.66111 -1.877733,0.99171 -1.736831,0.91869 -3.479571,1.85832 -5.227883,2.81525 -0.314898,0.174 -0.63123,0.34799 -0.946887,0.52545 -1.612138,0.88745 -3.227231,1.78174 -4.850429,2.70744 -3.0556,1.73996 -10.573284,5.64789 -13.662062,7.51659 -0.02533,0.0135 5.82813,-1.80961 16.878825,-5.30691 18.724224,-5.9193 34.830585,-7.72536 34.806945,-7.83325 0.0253,0.094 -7.327989,0.0312 -17.2589,1.52417 2.884137,-0.78995 5.803056,-1.90695 9.513355,-2.62032 8.281125,-1.6286 16.821505,-2.18891 16.819395,-2.25848 0.0118,0.0734 -8.52088,-0.53591 -17.19668,-0.0312 -1.093023,0.0591 -2.186045,0.13575 -3.262689,0.2227 0.105781,-0.0346 0.198309,-0.0658 0.266523,-0.0836 0.03799,-1.40243 63.040556,-11.80729 63.182896,-11.4663 0,-0.23318 -27.83683,1.5451 -46.28938,3.93925 2.53547,-0.32706 14.06721,-2.80478 14.8314,-2.97185 0.2314,-0.10435 13.43379,-3.36155 27.16381,-4.9693 16.04473,-1.87908 31.70364,-0.0143 35.08368,-0.0768 0.008,0.0346 -21.28063,-2.71774 -35.28486,-2.22708 -2.36038,0.0447 -4.71907,0.1496 -7.01377,0.29573 3.22833,-0.7934 6.47861,-1.55895 9.74307,-2.28625 1.6286,-0.0591 12.56347,-0.45588 23.51269,-0.0101 11.73697,0.45588 36.26163,2.6621 36.2797,2.58207 -4.75664,-1.00911 -24.22218,-3.2572 -35.95501,-4.87879 -2.62876,-0.36885 -5.27001,-0.68552 -7.79012,-0.96048 22.62178,-4.14803 45.23561,-6.28815 65.0272,-4.95537 81.57389,5.49474 132.70407,53.72627 187.59926,85.16541 0.92561,0.52587 1.85131,1.05512 2.78046,1.57677 52.79011,34.65954 106.92008,46.76923 140.78301,49.25219 7.92722,0.57273 18.08506,-0.82962 24.18883,-5.01319 10.50929,-8.14926 10.35969,-13.14498 12.18314,-18.29139 -2.10534,3.19734 -7.61756,5.153 -12.89652,5.43489" />
      <path
         inkscape:connector-curvature="0"
         id="path932"
         style="fill:#2a2627;fill-opacity:1;fill-rule:nonzero;stroke:none;stroke-width:0.03549279"
         d="m 603.52866,624.50193 c 11.71974,-11.35799 8.78807,-28.12167 8.78807,-28.12167 0,0 -3.09494,20.27499 -21.65766,23.79686 -3.8794,4.14989 1.18538,15.4639 12.86959,4.32481" />
      <path
         inkscape:connector-curvature="0"
         id="path936"
         style="fill:#2a2627;fill-opacity:1;fill-rule:nonzero;stroke:none;stroke-width:0.0356881"
         d="m 613.32162,625.45447 c -3.21913,2.26549 -7.18759,4.09806 -10.41026,5.37461 8.29386,-6.30891 12.83699,-13.34446 12.83699,-13.34446 0,0 -7.34816,8.61223 -28.45057,14.76952 -4.04344,1.17981 -28.61825,3.77362 -28.84306,7.67936 29.61755,3.29721 42.23682,-0.90434 51.09818,-6.94133 -2.11277,0.67411 -4.8143,1.20977 -7.35534,1.61703 6.57021,-4.00206 16.2346,-12.77495 11.12406,-9.15473" />
    </g>
  </g>
</svg>
