<?xml version="1.0" encoding="UTF-8" standalone="no"?>
<!-- Created with Inkscape (http://www.inkscape.org/) -->

<svg
   xmlns:dc="http://purl.org/dc/elements/1.1/"
   xmlns:cc="http://creativecommons.org/ns#"
   xmlns:rdf="http://www.w3.org/1999/02/22-rdf-syntax-ns#"
   xmlns:svg="http://www.w3.org/2000/svg"
   xmlns="http://www.w3.org/2000/svg"
   xmlns:sodipodi="http://sodipodi.sourceforge.net/DTD/sodipodi-0.dtd"
   xmlns:inkscape="http://www.inkscape.org/namespaces/inkscape"
   width="512"
   height="512"
   viewBox="0 0 512.00002 512.00002"
   id="svg2"
   version="1.1"
   inkscape:version="0.92.2 2405546, 2018-03-11"
   sodipodi:docname="occhio4.svg">
  <defs
     id="defs4" />
  <sodipodi:namedview
     id="base"
     pagecolor="#ffffff"
     bordercolor="#666666"
     borderopacity="1.0"
     inkscape:pageopacity="0.0"
     inkscape:pageshadow="2"
     inkscape:zoom="1.4082031"
     inkscape:cx="255.28988"
     inkscape:cy="465.58597"
     inkscape:document-units="px"
     inkscape:current-layer="layer1"
     showgrid="false"
     units="px"
     inkscape:showpageshadow="false"
     inkscape:window-width="1920"
     inkscape:window-height="994"
     inkscape:window-x="0"
     inkscape:window-y="21"
     inkscape:window-maximized="1" />
  <metadata
     id="metadata7">
    <rdf:RDF>
      <cc:Work
         rdf:about="">
        <dc:format>image/svg+xml</dc:format>
        <dc:type
           rdf:resource="http://purl.org/dc/dcmitype/StillImage" />
        <dc:title></dc:title>
        <cc:license
           rdf:resource="http://creativecommons.org/licenses/by-sa/4.0/" />
        <dc:date>2019</dc:date>
        <dc:creator>
          <cc:Agent>
            <dc:title>Cristian Pozzessere  &lt; ilnanny &gt;</dc:title>
          </cc:Agent>
        </dc:creator>
        <dc:subject>
          <rdf:Bag>
            <rdf:li>ilnanny</rdf:li>
          </rdf:Bag>
        </dc:subject>
      </cc:Work>
      <cc:License
         rdf:about="http://creativecommons.org/licenses/by-sa/4.0/">
        <cc:permits
           rdf:resource="http://creativecommons.org/ns#Reproduction" />
        <cc:permits
           rdf:resource="http://creativecommons.org/ns#Distribution" />
        <cc:requires
           rdf:resource="http://creativecommons.org/ns#Notice" />
        <cc:requires
           rdf:resource="http://creativecommons.org/ns#Attribution" />
        <cc:permits
           rdf:resource="http://creativecommons.org/ns#DerivativeWorks" />
        <cc:requires
           rdf:resource="http://creativecommons.org/ns#ShareAlike" />
      </cc:License>
    </rdf:RDF>
  </metadata>
  <g
     inkscape:label="Livello 1"
     inkscape:groupmode="layer"
     id="layer1"
     transform="translate(0,-540.3622)">
    <path
       style="opacity:1;fill:#f9f3f1;fill-opacity:0.98867923;stroke:none;stroke-width:4.75087738;stroke-linecap:round;stroke-linejoin:bevel;stroke-miterlimit:4;stroke-dasharray:none;stroke-opacity:0.98113248;paint-order:stroke markers fill"
       d="m 1,541.3622 h 510 v 510 H 1 Z"
       id="rect1404"
       inkscape:connector-curvature="0" />
    <g
       transform="matrix(1.1989484,0,0,-1.1989484,817.61758,1269.263)"
       id="g4151">
      <path
         d="m -393.96818,550.25321 c -1.931,-1.44 -5.74,-10.88 -1.5,-28.76 4.24,-17.88 19.96,-32.64 27.069,-35.77 7.11,-3.13 32.441,-4.13 39.74,10.31 7.3,14.44 16.41,24.82 9.241,34.51 -7.18,9.7 -52.151,29.15 -65.941,26.71 -13.79,-2.43 -6.67,-5.56 -8.609,-7"
         style="fill:#ffffff;fill-opacity:1;fill-rule:evenodd;stroke:none"
         id="path24"
         inkscape:connector-curvature="0" />
      <path
         d="m -393.96818,550.25321 c -1.931,-1.44 -5.74,-10.88 -1.5,-28.76 4.24,-17.88 19.96,-32.64 27.069,-35.77 7.11,-3.13 32.441,-4.13 39.74,10.31 7.3,14.44 16.41,24.82 9.241,34.51 -7.18,9.7 -52.151,29.15 -65.941,26.71 -13.79,-2.43 -6.67,-5.56 -8.609,-7 z"
         style="fill:none;stroke:#b8a19e;stroke-width:1;stroke-linecap:round;stroke-linejoin:round;stroke-miterlimit:4;stroke-dasharray:none;stroke-opacity:1"
         id="path28"
         inkscape:connector-curvature="0" />
      <path
         d="m -383.45848,515.39281 c -3.15,17.91 6.4,34.56 21.34,37.2 14.94,2.64 29.6,-9.73 32.75,-27.64 3.15,-17.91 -6.411,-34.56 -21.34,-37.2 -14.941,-2.64 -29.6,9.74 -32.75,27.64"
         style="fill:#748f9e;fill-opacity:1;fill-rule:evenodd;stroke:none"
         id="path32"
         inkscape:connector-curvature="0" />
      <path
         d="m -383.45848,515.39281 c -3.15,17.91 6.4,34.56 21.34,37.2 14.94,2.64 29.6,-9.73 32.75,-27.64 3.15,-17.91 -6.411,-34.56 -21.34,-37.2 -14.941,-2.64 -29.6,9.74 -32.75,27.64 z"
         style="fill:none;stroke:#2e333d;stroke-width:3;stroke-linecap:round;stroke-linejoin:round;stroke-miterlimit:4;stroke-dasharray:none;stroke-opacity:1"
         id="path36"
         inkscape:connector-curvature="0" />
      <path
         d="m -374.84858,522.39281 c -2.02,11.45 4.19,22.11 13.85,23.82 9.67,1.71 19.13,-6.18 21.15,-17.63 2.01,-11.45 -4.19,-22.11 -13.86,-23.82 -9.66,-1.71 -19.13,6.18 -21.14,17.63"
         style="fill:#000000;fill-opacity:1;fill-rule:evenodd;stroke:none"
         id="path40"
         inkscape:connector-curvature="0" />
      <path
         d="m -383.20848,535.38301 c -0.82,4.7 2.3,9.18 6.99,10 4.69,0.83 9.16,-2.3 9.979,-7 0.831,-4.7 -2.299,-9.17 -6.989,-10 -4.68,-0.83 -9.15,2.3 -9.98,7"
         style="fill:#ffffff;fill-opacity:1;fill-rule:evenodd;stroke:none"
         id="path44"
         inkscape:connector-curvature="0" />
      <path
         d="m -318.04858,516.54321 c 0,0 -1.19,12.94 -10.98,18.88 -9.791,5.94 -27.45,19.26 -47.6,15.7 -20.15,-3.56 -17.59,-11.87 -20.21,-15.63 -2.62,-3.75 -7.86,7.38 -4.55,13.45 3.3,6.06 9.36,21.38 49.16,6.49 39.8,-14.88 39.73,-26.95 39.05,-29.26 -0.69,-2.32 -4.87,-9.63 -4.87,-9.63"
         style="fill:#000000;fill-opacity:1;fill-rule:evenodd;stroke:none"
         id="path48"
         inkscape:connector-curvature="0" />
      <path
         d="m -334.95868,506.97291 c -0.43,8.7 -5.3,-0.93 -15.72,-3.87 -10.42,-2.94 -15.28,6.07 -17.34,-0.87 -0.8,-2.7 8.72,-10.57 14.97,-10.51 9.82,0.09 18.36,9.94 18.09,15.25"
         style="fill:#ffffff;fill-opacity:1;fill-rule:evenodd;stroke:none"
         id="path52"
         inkscape:connector-curvature="0" />
      <path
         d="m -384.91838,585.83281 c -20.84,-5.88 -30.69,-12 -29.88,-4.19 0.81,7.82 26.76,15.69 47.16,11.62 20.399,-4.06 45.67,-17.13 47.48,-21.2 0.589,-1.33 -3.09,-0.66 -10.11,1.5 -14.341,4.43 -40.66,16.21 -54.65,12.27"
         style="fill:#673a2b;fill-opacity:1;fill-rule:evenodd;stroke:none"
         id="path56"
         inkscape:connector-curvature="0" />
    </g>
    <g
       transform="matrix(1.1989484,0,0,-1.1989484,571.04559,1468.9023)"
       id="g4140">
      <path
         d="m -301.85145,697.00661 c -3.46,10.35 -14.6,30.04 -29.59,34.49 -27.33,8.89 -46.73,3.55 -65.24,-8.89 -18.52,-12.44 -22.92,-26.66 -22.92,-26.66 0,0 13.22,-33.77 63.47,-27.55 29.56,3.66 49.89,11.8 56.43,18.66 4.58,4.81 -1.49,7.96 -2.15,9.95"
         style="fill:#ffffff;fill-opacity:1;fill-rule:evenodd;stroke:none"
         id="path120"
         inkscape:connector-curvature="0" />
      <path
         d="m -303.27135,700.73651 c -4.54,10.77 -14.83,26.8 -28.17,30.76 -27.33,8.89 -46.73,3.55 -65.24,-8.89 -18.52,-12.44 -22.92,-26.66 -22.92,-26.66 0,0 4.02,-10.28 16.07,-18.45 -3.74,6.58 -7.89,11.84 -9.02,17.56 -1.76,8.89 28.21,24.89 41.44,28.44 13.22,3.55 45.84,0 59.07,-14.22 3.26,-3.5 6.19,-6.31 8.77,-8.54"
         style="fill:#b4c6db;fill-opacity:1;fill-rule:evenodd;stroke:none"
         id="path124"
         inkscape:connector-curvature="0" />
      <path
         d="m -389.63125,703.05661 c 0,17.67 14.21,31.99 31.74,31.99 17.53,0 31.74,-14.32 31.74,-31.99 0,-17.67 -14.21,-31.99 -31.74,-31.99 -17.53,0 -31.74,14.32 -31.74,31.99"
         style="fill:#3e464f;fill-opacity:1;fill-rule:evenodd;stroke:none"
         id="path128"
         inkscape:connector-curvature="0" />
      <path
         d="m -389.63125,703.05661 c 0,17.67 14.21,31.99 31.74,31.99 17.53,0 31.74,-14.32 31.74,-31.99 0,-17.67 -14.21,-31.99 -31.74,-31.99 -17.53,0 -31.74,14.32 -31.74,31.99 z"
         style="fill:none;stroke:#232027;stroke-width:1;stroke-linecap:round;stroke-linejoin:round;stroke-miterlimit:4;stroke-dasharray:none;stroke-opacity:1"
         id="path132"
         inkscape:connector-curvature="0" />
      <path
         d="m -357.89145,734.15671 c 0,0 3.34,-18.98 2.21,-18.77 -1.13,0.22 8.67,16.69 8.67,16.69 0,0 -3.57,-18.95 -4.54,-18.33 -0.98,0.62 13.94,12.34 13.94,12.34 0,0 -9.98,-16.34 -10.67,-15.4 -0.7,0.94 17.34,6.33 17.34,6.33 0,0 -15.06,-11.53 -15.37,-10.4 -0.32,1.14 18.4,-0.53 18.4,-0.53 0,0 -18.1,-5.16 -17.99,-3.99 0.1,1.17 16.97,-7.32 16.97,-7.32 0,0 -18.7,1.9 -18.18,2.95 0.51,1.06 13.25,-13.12 13.25,-13.12 0,0 -16.77,8.7 -15.92,9.5 0.85,0.79 7.74,-17.16 7.74,-17.16 0,0 -12.57,14.34 -11.5,14.76 1.07,0.43 1.18,-18.87 1.18,-18.87 0,0 -6.68,18.04 -5.53,18.04 1.15,0 -5.53,-18.04 -5.53,-18.04 0,0 0.11,19.3 1.18,18.87 1.07,-0.42 -11.5,-14.76 -11.5,-14.76 0,0 6.9,17.95 7.74,17.16 0.85,-0.8 -15.91,-9.5 -15.91,-9.5 0,0 12.74,14.18 13.25,13.12 0.51,-1.05 -18.18,-2.95 -18.18,-2.95 0,0 16.86,8.49 16.97,7.32 0.1,-1.17 -17.99,3.99 -17.99,3.99 0,0 18.71,1.67 18.4,0.53 -0.32,-1.13 -15.38,10.4 -15.38,10.4 0,0 18.04,-5.39 17.35,-6.33 -0.69,-0.94 -10.68,15.4 -10.68,15.4 0,0 14.92,-11.72 13.95,-12.34 -0.98,-0.62 -4.54,18.33 -4.54,18.33 0,0 9.79,-16.47 8.66,-16.69 -1.13,-0.21 2.21,18.77 2.21,18.77"
         style="fill:#476487;fill-opacity:1;fill-rule:evenodd;stroke:none"
         id="path136"
         inkscape:connector-curvature="0" />
      <path
         d="m -352.17125,733.64671 c 0,0 -0.26,-19.26 -1.33,-18.85 -1.07,0.42 11.62,14.86 11.62,14.86 0,0 -7.03,-17.98 -7.88,-17.2 -0.84,0.78 16.01,9.65 16.01,9.65 0,0 -12.86,-14.29 -13.37,-13.24 -0.5,1.05 18.22,3.14 18.22,3.14 0,0 -16.94,-8.66 -17.04,-7.49 -0.1,1.17 17.97,-3.79 17.97,-3.79 0,0 -18.74,-1.86 -18.41,-0.73 0.32,1.14 15.3,-10.21 15.3,-10.21 0,0 -18.01,5.19 -17.31,6.13 0.7,0.95 10.56,-15.25 10.56,-15.25 0,0 -14.84,11.53 -13.85,12.16 0.98,0.63 4.39,-18.24 4.39,-18.24 0,0 -9.67,16.33 -8.53,16.56 1.13,0.23 -2.37,-18.76 -2.37,-18.76 0,0 -3.19,18.91 -2.06,18.71 1.13,-0.2 -8.8,-16.74 -8.8,-16.74 0,0 3.71,18.94 4.68,18.33 0.98,-0.61 -14.05,-12.47 -14.05,-12.47 0,0 10.12,16.42 10.81,15.49 0.68,-0.93 -17.41,-6.51 -17.41,-6.51 0,0 15.16,11.68 15.47,10.55 0.3,-1.13 -18.41,0.33 -18.41,0.33 0,0 18.15,5.35 18.03,4.18 -0.11,-1.17 -16.92,7.12 -16.92,7.12 0,0 18.69,-1.69 18.17,-2.75 -0.52,-1.05 -13.16,12.96 -13.16,12.96 0,0 16.71,-8.51 15.86,-9.31 -0.86,-0.8 -7.62,17.04 -7.62,17.04 0,0 12.47,-14.17 11.4,-14.61 -1.08,-0.44 -1.04,18.82 -1.04,18.82 0,0 6.54,-17.93 5.39,-17.94 -1.14,-0.01 5.68,18.06 5.68,18.06"
         style="fill:#5581b7;fill-opacity:1;fill-rule:evenodd;stroke:none"
         id="path140"
         inkscape:connector-curvature="0" />
      <path
         d="m -378.17125,703.05661 c 0,11.29 9.08,20.44 20.28,20.44 11.2,0 20.28,-9.15 20.28,-20.44 0,-11.29 -9.08,-20.44 -20.28,-20.44 -11.2,0 -20.28,9.15 -20.28,20.44"
         style="fill:#000000;fill-opacity:1;fill-rule:evenodd;stroke:none"
         id="path144"
         inkscape:connector-curvature="0" />
      <path
         d="m -338.49105,723.49651 c 0,0 -2.65,9.78 -10.58,0 -7.94,-9.78 2.64,-21.33 6.17,-16.89 3.53,4.45 4.41,16.89 4.41,16.89"
         style="fill:#ffffff;fill-opacity:1;fill-rule:evenodd;stroke:none"
         id="path148"
         inkscape:connector-curvature="0" />
      <path
         d="m -357.01115,687.05661 c 0,0 -12.34,-7.11 -7.05,-9.77 5.29,-2.67 7.05,9.77 7.05,9.77"
         style="fill:#ffffff;fill-opacity:1;fill-rule:evenodd;stroke:none"
         id="path152"
         inkscape:connector-curvature="0" />
      <path
         d="m -384.34115,693.27661 c 0.45,-6.73 8,-7.74 13.23,-3.55 2.37,1.9 8.06,9.39 4.4,11.55 -4.23,2.51 -18.1,-0.84 -17.63,-8"
         style="fill:#ffffff;fill-opacity:1;fill-rule:evenodd;stroke:none"
         id="path156"
         inkscape:connector-curvature="0" />
      <path
         d="m -339.37145,718.16671 c 0,2.94 2.36,5.33 5.29,5.33 2.92,0 5.29,-2.39 5.29,-5.33 0,-2.95 -2.37,-5.33 -5.29,-5.33 -2.93,0 -5.29,2.38 -5.29,5.33"
         style="fill:#ffffff;fill-opacity:1;fill-rule:evenodd;stroke:none"
         id="path160"
         inkscape:connector-curvature="0" />
      <path
         d="m -442.53115,703.05661 c 0,0 17.64,1.78 24.69,13.33 7.05,11.55 29.09,26.66 51.13,26.66 30.86,0 42.32,-7.11 52.9,-22.22 2.08,-2.97 3.04,-4.19 2.98,-4.24 -0.24,-0.21 -17.47,19.13 -44.41,18.46 -36.15,-0.89 -59.96,-27.55 -61.72,-37.32 -1.85,-10.24 32.62,-33.77 -8.82,-6.22 -4.65,3.09 -16.75,11.55 -16.75,11.55"
         style="fill:#000000;fill-opacity:1;fill-rule:evenodd;stroke:none"
         id="path164"
         inkscape:connector-curvature="0" />
    </g>
    <g
       transform="matrix(1.1989484,0,0,-1.1989484,634.95076,1271.332)"
       id="g4196">
      <path
         d="m -166.72942,404.23596 c 7.248,-14.02 6.074,-46.468 10.792,-48.49 4.719,-2.022 5.393,-6.058 2.696,-6.732 -2.696,-0.674 -9.436,-0.674 -12.132,-4.719 -2.704,-4.036 -28.991,-20.879 -50.568,-14.139 -21.568,6.733 -33.035,28.286 -39.101,29.634 -6.066,1.34 -2.022,4.71 0,13.465 2.022,8.754 14.162,31.655 26.969,41.757 12.806,10.103 50.559,10.103 61.344,-10.776"
         style="fill:#ffffff;fill-opacity:1;fill-rule:evenodd;stroke:none"
         id="path340"
         inkscape:connector-curvature="0" />
      <path
         d="m -166.72942,404.23596 c 7.248,-14.02 6.074,-46.468 10.792,-48.49 4.719,-2.022 5.393,-6.058 2.696,-6.732 -2.696,-0.674 -9.436,-0.674 -12.132,-4.719 -2.704,-4.036 -28.991,-20.879 -50.568,-14.139 -21.568,6.733 -33.035,28.286 -39.101,29.634 -6.066,1.34 -2.022,4.71 0,13.465 2.022,8.754 14.162,31.655 26.969,41.757 12.806,10.103 50.559,10.103 61.344,-10.776 z"
         style="fill:none;stroke:#c99b79;stroke-width:0.79299998;stroke-linecap:round;stroke-linejoin:round;stroke-miterlimit:4;stroke-dasharray:none;stroke-opacity:1"
         id="path344"
         inkscape:connector-curvature="0" />
      <path
         d="m -236.16202,373.92856 c 0,24.55 14.488,44.454 32.361,44.454 17.866,0 32.353,-19.904 32.353,-44.454 0,-24.55 -14.487,-44.446 -32.353,-44.446 -17.873,0 -32.361,19.896 -32.361,44.446"
         style="fill:#263e53;fill-opacity:1;fill-rule:evenodd;stroke:none"
         id="path348"
         inkscape:connector-curvature="0" />
      <path
         d="m -233.13322,374.26946 c 0,22.505 13.132,40.743 29.333,40.743 16.192,0 29.324,-18.238 29.324,-40.743 0,-22.505 -13.132,-40.75 -29.324,-40.75 -16.201,0 -29.333,18.245 -29.333,40.75"
         style="fill:#3f6794;fill-opacity:1;fill-rule:evenodd;stroke:none"
         id="path352"
         inkscape:connector-curvature="0" />
      <path
         d="m -174.50822,376.06976 c -0.674,21.672 -13.536,38.943 -29.292,38.943 -15.765,0 -28.626,-17.271 -29.301,-38.943 4.496,12.926 15.923,17.39 29.301,17.39 13.369,0 24.796,-4.464 29.292,-17.39"
         style="fill:#315073;fill-opacity:1;fill-rule:evenodd;stroke:none"
         id="path356"
         inkscape:connector-curvature="0" />
      <path
         d="m -174.50822,371.90666 c -0.674,-21.664 -13.536,-38.935 -29.292,-38.935 -15.765,0 -28.626,17.271 -29.301,38.935 4.496,-12.917 15.923,-24.122 29.301,-24.122 13.369,0 24.796,11.205 29.292,24.122"
         style="fill:#638fbf;fill-opacity:1;fill-rule:evenodd;stroke:none"
         id="path360"
         inkscape:connector-curvature="0" />
      <path
         d="m -220.99262,374.26946 c 0,13.203 7.692,23.908 17.192,23.908 9.492,0 17.183,-10.705 17.183,-23.908 0,-13.211 -7.691,-23.908 -17.183,-23.908 -9.5,0 -17.192,10.697 -17.192,23.908"
         style="fill:#253c50;fill-opacity:1;fill-rule:evenodd;stroke:none"
         id="path364"
         inkscape:connector-curvature="0" />
      <path
         d="m -174.50822,376.06976 c -0.674,21.672 -13.536,38.943 -29.292,38.943 -15.765,0 -28.626,-17.271 -29.301,-38.943 4.496,12.926 14.464,30.862 29.301,30.188 18.182,-0.824 24.796,-17.262 29.292,-30.188"
         style="fill:#2b4660;fill-opacity:1;fill-rule:evenodd;stroke:none"
         id="path368"
         inkscape:connector-curvature="0" />
      <path
         d="m -226.05122,398.17736 c 0,6.693 5.432,12.125 12.132,12.125 6.701,0 12.14,-5.432 12.14,-12.125 0,-6.7 -5.439,-12.124 -12.14,-12.124 -6.7,0 -12.132,5.424 -12.132,12.124"
         style="fill:#77bbff;fill-opacity:1;fill-rule:evenodd;stroke:none"
         id="path372"
         inkscape:connector-curvature="0" />
      <path
         d="m -223.49792,398.17736 c 0,5.281 4.29,9.571 9.579,9.571 5.297,0 9.579,-4.29 9.579,-9.571 0,-5.289 -4.282,-9.571 -9.579,-9.571 -5.289,0 -9.579,4.282 -9.579,9.571"
         style="fill:#ffffff;fill-opacity:1;fill-rule:evenodd;stroke:none"
         id="path376"
         inkscape:connector-curvature="0" />
      <path
         d="m -185.60242,371.23256 c 0,2.609 2.11,4.718 4.719,4.718 2.609,0 4.718,-2.109 4.718,-4.718 0,-2.601 -2.109,-4.71 -4.718,-4.71 -2.609,0 -4.719,2.109 -4.719,4.71"
         style="fill:#ffffff;fill-opacity:1;fill-rule:evenodd;stroke:none"
         id="path380"
         inkscape:connector-curvature="0" />
      <path
         d="m -200.86662,342.19396 c -5.091,4.726 4.004,4.322 8.659,9.341 4.647,5.019 3.1,13.568 8.199,8.842 5.091,-4.718 2.387,-11.062 -2.268,-16.082 -4.654,-5.019 -9.491,-6.827 -14.59,-2.101"
         style="fill:#77bbff;fill-opacity:1;fill-rule:evenodd;stroke:none"
         id="path384"
         inkscape:connector-curvature="0" />
      <path
         d="m -191.44622,348.75206 c 1.34,3.053 3.806,5.059 5.471,4.313 1.682,-0.745 1.769,-3.957 0.238,-7.009 -1.443,-2.895 -3.79,-4.512 -5.289,-3.767 -1.483,0.737 -1.689,3.569 -0.42,6.463"
         style="fill:#99ffff;fill-opacity:1;fill-rule:evenodd;stroke:none"
         id="path388"
         inkscape:connector-curvature="0" />
      <path
         d="m -164.69912,403.56186 c 0,0 -15.511,16.843 -45.176,12.798 -24.939,-3.393 -31.679,-18.183 -33.709,-25.589 -2.022,-7.414 -10.784,-22.901 -15.503,-22.226 -4.67,0.666 -12.806,7.406 -12.806,7.406 0,0 15.503,-1.348 21.569,12.798 4.457,10.372 8.77,23.567 24.947,30.981 15.36,7.034 35.057,3.363 45.167,-0.674 14.876,-5.947 15.511,-15.494 15.511,-15.494"
         style="fill:#37281c;fill-opacity:1;fill-rule:evenodd;stroke:none"
         id="path392"
         inkscape:connector-curvature="0" />
      <path
         d="m -168.75132,450.03776 c 0,0 -41.124,20.879 -64.04,6.058 l -22.925,-14.812 c 0,0 15.518,22.139 37.753,24.915 21.577,2.696 49.212,-16.161 49.212,-16.161"
         style="fill:#986d4e;fill-opacity:1;fill-rule:evenodd;stroke:none"
         id="path396"
         inkscape:connector-curvature="0" />
    </g>
    <g
       transform="matrix(1.1989484,0,0,-1.1989484,582.96552,1265.6296)"
       id="g4211">
      <path
         d="m -129.73821,205.66287 c -2.56,-2.54 -1.92,0.63 -5.12,-1.27 -3.19,-1.9 -14.69,-6.34 -30.67,-6.97 -15.98,-0.64 -42.18,5.7 -54.32,14.57 -12.14,8.88 -15.33,13.32 -15.33,13.32 0,0 16.61,17.74 24.28,20.91 7.67,3.17 67.74,10.78 70.29,9.51 2.56,-1.27 10.23,-13.31 12.14,-31.06 0.56,-5.2 -1.91,-13.31 -0.64,-15.21 1.28,-1.9 1.92,-1.27 -0.63,-3.8"
         style="fill:#ffffff;fill-opacity:1;fill-rule:evenodd;stroke:none"
         id="path400"
         inkscape:connector-curvature="0" />
      <path
         d="m -129.73821,205.66287 c -2.56,-2.54 -1.92,0.63 -5.12,-1.27 -3.19,-1.9 -14.69,-6.34 -30.67,-6.97 -15.98,-0.64 -42.18,5.7 -54.32,14.57 -12.14,8.88 -15.33,13.32 -15.33,13.32 0,0 16.61,17.74 24.28,20.91 7.67,3.17 67.74,10.78 70.29,9.51 2.56,-1.27 10.23,-13.31 12.14,-31.06 0.56,-5.2 -1.91,-13.31 -0.64,-15.21 1.28,-1.9 1.92,-1.27 -0.63,-3.8 z"
         style="fill:none;stroke:#d0ab95;stroke-width:1;stroke-linecap:square;stroke-linejoin:round;stroke-miterlimit:4;stroke-dasharray:none;stroke-opacity:1"
         id="path404"
         inkscape:connector-curvature="0" />
      <path
         d="m -128.88811,227.93247 c -2.43,15.95 -9.32,26.61 -11.72,27.8 -2.55,1.27 -62.62,-6.34 -70.29,-9.51 -7.67,-3.17 -24.28,-20.91 -24.28,-20.91 0,0 3.19,-4.44 15.33,-13.32 2.23,-1.62 4.92,-3.16 7.94,-4.59 -5.7,5.53 -13.42,14.42 -10.49,19.81 4.47,8.241 40.89,24.72 64.54,22.81 18.24,-1.46 25.45,-13.87 28.97,-22.09"
         style="fill:#b1c3d9;fill-opacity:1;fill-rule:evenodd;stroke:none"
         id="path408"
         inkscape:connector-curvature="0" />
      <path
         d="m -191.72851,231.01257 c 0,22.82 2.08,20.29 21.73,23.45 23.64,3.8 22.36,-1.97 22.36,-19.65 0,-17.68 -9.51,-36.76 -22.04,-36.76 -12.529,0 -22.05,15.28 -22.05,32.96"
         style="fill:#3f6794;fill-opacity:1;fill-rule:evenodd;stroke:none"
         id="path412"
         inkscape:connector-curvature="0" />
      <path
         d="m -191.72851,231.01257 c 0,22.82 2.08,20.29 21.73,23.45 23.64,3.8 22.36,-1.97 22.36,-19.65 0,-17.68 -9.51,-36.76 -22.04,-36.76 -12.529,0 -22.05,15.28 -22.05,32.96 z"
         style="fill:none;stroke:#243448;stroke-width:1;stroke-linecap:square;stroke-linejoin:round;stroke-miterlimit:4;stroke-dasharray:none;stroke-opacity:1"
         id="path416"
         inkscape:connector-curvature="0" />
      <path
         d="m -191.72851,231.01257 c 0,-0.51 0.01,-1.01 0.021,-1.51 3.519,4.74 10.899,11.86 23.619,12.28 13.96,0.47 18.43,-9.49 19.84,-14.93 0.4,2.64 0.61,5.32 0.61,7.96 0,17.68 1.28,23.45 -22.36,19.65 -19.65,-3.16 -21.73,-0.63 -21.73,-23.45"
         style="fill:#1c3046;fill-opacity:1;fill-rule:evenodd;stroke:none"
         id="path420"
         inkscape:connector-curvature="0" />
      <path
         d="m -180.22851,235.13267 c 0,9.63 4.87,17.43 10.87,17.43 6,0 10.86,-7.8 10.86,-17.43 0,-9.63 -4.86,-17.43 -10.86,-17.43 -6,0 -10.87,7.8 -10.87,17.43"
         style="fill:#000000;fill-opacity:1;fill-rule:evenodd;stroke:none"
         id="path424"
         inkscape:connector-curvature="0" />
      <path
         d="m -180.22851,235.13267 c 0,9.63 4.87,17.43 10.87,17.43 6,0 10.86,-7.8 10.86,-17.43 0,-9.63 -4.86,-17.43 -10.86,-17.43 -6,0 -10.87,7.8 -10.87,17.43 z"
         style="fill:none;stroke:#243448;stroke-width:1;stroke-linecap:round;stroke-linejoin:round;stroke-miterlimit:4;stroke-dasharray:none;stroke-opacity:1"
         id="path428"
         inkscape:connector-curvature="0" />
      <path
         d="m -187.89841,218.33287 c 0,8.38 3.42,17.63 5.76,10.78 7.95,-23.38 23,-5.57 23,-13.95 0,-8.37 -4.91,-15.21 -11.5,-15.21 -6.59,0 -17.26,10.01 -17.26,18.38"
         style="fill:#3f85da;fill-opacity:1;fill-rule:evenodd;stroke:none"
         id="path432"
         inkscape:connector-curvature="0" />
      <path
         d="m -180.22851,213.26257 c 0,4.73 4.6,1.27 8.31,1.27 3.711,0 8.31,0.92 8.31,-3.8 0,-4.73 -4.29,-9.51 -7.99,-9.51 -3.71,0 -8.63,7.32 -8.63,12.04"
         style="fill:#99ccff;fill-opacity:1;fill-rule:evenodd;stroke:none"
         id="path436"
         inkscape:connector-curvature="0" />
      <path
         d="m -167.08831,237.24247 c -1.25,3.88 2.06,8.37 7.37,9.95 5.28,1.57 10.41,-0.36 11.47,-4.25 1.05,-3.81 -2.22,-8.12 -7.32,-9.69 -5.13,-1.58 -10.3,0.17 -11.52,3.99"
         style="fill:#ffffff;fill-opacity:1;fill-rule:evenodd;stroke:none"
         id="path440"
         inkscape:connector-curvature="0" />
      <path
         d="m -128.46821,230.38267 c 0,0 -5.75,20.91 -15.33,22.18 -9.59,1.27 -53.04,-2.54 -65.82,-10.14 -12.78,-7.61 -23.65,-14.58 -19.81,-19.65 3.83,-5.07 15.97,-15.85 15.97,-15.85 l -26.84,17.12 c 0,0 -0.63,1.34 1.92,3.8 6.17,5.95 19.99,16.98 26.84,20.92 12.14,6.97 51.02,13.1 63.9,12.04 7.67,-0.63 22.37,-2.54 19.81,-8.87 -2.55,-6.34 -3.19,-6.34 -3.19,-6.34 z"
         style="fill:#000000;fill-opacity:1;fill-rule:evenodd;stroke:none"
         id="path444"
         inkscape:connector-curvature="0" />
      <path
         d="m -242.20801,277.91287 c 0,0 46.01,16.48 69.65,18.38 23.64,1.9 67.74,-12.04 75.409997,-15.21 7.66,-3.17 -1.28,9.51 -9.589997,12.04 -8.31,2.54 -51.82,10.62 -69.65,8.24 -42.82,-5.7 -65.82,-23.45 -65.82,-23.45"
         style="fill:#000000;fill-opacity:1;fill-rule:evenodd;stroke:none"
         id="path448"
         inkscape:connector-curvature="0" />
    </g>
    <g
       transform="matrix(1.1989484,0,0,-1.1989484,532.24235,1263.8622)"
       id="g4164">
      <path
         d="m -313.15417,407.99765 c 7.67,-8.54 21.78,-51.72 14.31,-63.56 -2.63,-4.17 -4.98,-8.1 -15.56,-5.6 -15.84,3.73 -21.78,-14.96 -35.47,-11.84 -16.8,4.98 -28,6.85 -27.38,14.95 0.62,8.1 3.26,41.52 4.36,62.94 1.24,24.3 42.93,21.81 59.74,3.11"
         style="fill:#000000;fill-opacity:1;fill-rule:evenodd;stroke:none"
         id="path592"
         inkscape:connector-curvature="0" />
      <path
         d="m -317.51397,403.63775 c 14.86,-18.01 18.05,-50.47 10.58,-62.31 -7.47,-11.84 -37.96,-21.19 -53.52,-13.09 -15.55,8.1 -17.42,5.61 -16.8,13.71 0.62,8.1 -6.22,46.11 6.22,63.56 12.45,17.45 41.7,12.46 53.52,-1.87"
         style="fill:#ffffff;fill-opacity:1;fill-rule:evenodd;stroke:none"
         id="path596"
         inkscape:connector-curvature="0" />
      <path
         d="m -317.51397,403.63775 c 14.86,-18.01 18.05,-50.47 10.58,-62.31 -7.47,-11.84 -37.96,-21.19 -53.52,-13.09 -15.55,8.1 -17.42,5.61 -16.8,13.71 0.62,8.1 -6.22,46.11 6.22,63.56 12.45,17.45 41.7,12.46 53.52,-1.87 z"
         style="fill:none;stroke:#d1bfab;stroke-width:1;stroke-linecap:round;stroke-linejoin:round;stroke-miterlimit:4;stroke-dasharray:none;stroke-opacity:1"
         id="path600"
         inkscape:connector-curvature="0" />
      <path
         d="m -366.83407,364.49765 c 0,25.64 14.94,52.05 26.14,52.05 9.95,0 26.13,-26.41 26.13,-52.05 0,-25.64 -11.7,-39.37 -26.13,-39.37 -14.44,0 -26.14,13.73 -26.14,39.37"
         style="fill:#3873cb;fill-opacity:1;fill-rule:evenodd;stroke:none"
         id="path604"
         inkscape:connector-curvature="0" />
      <path
         d="m -362.47397,365.96785 c 0,22.55 12.44,47.02 21.78,47.02 8.29,0 21.78,-24.47 21.78,-47.02 0,-22.54 -9.75,-34.61 -21.78,-34.61 -12.03,0 -21.78,12.07 -21.78,34.61"
         style="fill:#519fe6;fill-opacity:1;fill-rule:evenodd;stroke:none"
         id="path608"
         inkscape:connector-curvature="0" />
      <path
         d="m -356.87407,346.30765 c 0,5.17 7.07,-1.24 16.18,-1.24 9.1,0 9.42,-13.27 0.31,-13.27 -9.11,0 -16.49,9.35 -16.49,14.51"
         style="fill:#99ffff;fill-opacity:1;fill-rule:evenodd;stroke:none"
         id="path612"
         inkscape:connector-curvature="0" />
      <path
         d="m -323.44417,360.10755 c -2.76,2.98 -3.13,-4.53 -8.02,-9.43 -4.89,-4.9 1.28,-11.91 6.18,-7.01 4.89,4.9 4.61,13.45 1.84,16.44"
         style="fill:#66ccff;fill-opacity:1;fill-rule:evenodd;stroke:none"
         id="path616"
         inkscape:connector-curvature="0" />
      <path
         d="m -353.14417,369.67785 c 0,13.59 7.47,28.35 13.07,28.35 4.98,0 13.07,-14.76 13.07,-28.35 0,-13.59 -5.85,-20.87 -13.07,-20.87 -7.22,0 -13.07,7.28 -13.07,20.87"
         style="fill:#315880;fill-opacity:1;fill-rule:evenodd;stroke:none"
         id="path620"
         inkscape:connector-curvature="0" />
      <path
         d="m -334.47397,399.27795 c 0,3.1 2.51,5.61 5.6,5.61 3.09,0 5.6,-2.51 5.6,-5.61 0,-3.1 -2.51,-5.61 -5.6,-5.61 -3.09,0 -5.6,2.51 -5.6,5.61"
         style="fill:#ffffff;fill-opacity:1;fill-rule:evenodd;stroke:none"
         id="path624"
         inkscape:connector-curvature="0" />
      <path
         d="m -364.96417,340.69785 c 0,5.51 4.45,9.97 9.95,9.97 5.5,0 9.96,-4.46 9.96,-9.97 0,-5.5 -4.46,-9.97 -9.96,-9.97 -5.5,0 -9.95,4.47 -9.95,9.97"
         style="fill:#ffffff;fill-opacity:1;fill-rule:evenodd;stroke:none"
         id="path628"
         inkscape:connector-curvature="0" />
      <path
         d="m -353.60407,452.24765 c -24.27,-3.74 -13.69,3.11 -2.49,4.98 11.2,1.87 34.22,-6.23 42.31,-16.2 4.48,-5.51 -15.55,14.95 -39.82,11.22"
         style="fill:#000000;fill-opacity:1;fill-rule:evenodd;stroke:none"
         id="path632"
         inkscape:connector-curvature="0" />
    </g>
    <g
       transform="matrix(1.0099244,0,0,-1.0099244,302.10638,1691.1893)"
       id="g4126">
      <path
         d="m -154.46935,727.91847 c 7.671,-8.54 21.78,-51.72 14.311,-63.56 -2.63,-4.17 -4.981,-8.1 -15.561,-5.61 -15.84,3.73 -21.779,-14.95 -35.47,-11.84 -16.8,4.99 -28,6.86 -27.38,14.96 0.621,8.1 3.26,41.52 4.361,62.94 1.239,24.3 42.929,21.8 59.739,3.11"
         style="fill:#000000;fill-opacity:1;fill-rule:evenodd;stroke:none"
         id="path548"
         inkscape:connector-curvature="0" />
      <path
         d="m -158.82875,723.55807 c 14.859,-18.01 18.05,-50.48 10.58,-62.31 -7.471,-11.84 -37.96,-21.19 -53.52,-13.09 -15.56,8.1 -17.42,5.61 -16.8,13.71 0.62,8.1 -6.22,46.11 6.219,63.56 12.451,17.45 41.701,12.46 53.521,-1.87"
         style="fill:#ffffff;fill-opacity:1;fill-rule:evenodd;stroke:none"
         id="path552"
         inkscape:connector-curvature="0" />
      <path
         d="m -158.82875,723.55807 c 14.859,-18.01 18.05,-50.48 10.58,-62.31 -7.471,-11.84 -37.96,-21.19 -53.52,-13.09 -15.56,8.1 -17.42,5.61 -16.8,13.71 0.62,8.1 -6.22,46.11 6.219,63.56 12.451,17.45 41.701,12.46 53.521,-1.87 z"
         style="fill:none;stroke:#d1bfab;stroke-width:1;stroke-linecap:round;stroke-linejoin:round;stroke-miterlimit:4;stroke-dasharray:none;stroke-opacity:1"
         id="path556"
         inkscape:connector-curvature="0" />
      <path
         d="m -208.14905,684.41847 c 0,25.64 14.93,53.47 26.14,53.47 9.95,0 26.131,-27.83 26.131,-53.47 0,-25.64 -11.701,-39.38 -26.131,-39.38 -14.44,0 -26.14,13.74 -26.14,39.38"
         style="fill:#0e0b08;fill-opacity:1;fill-rule:evenodd;stroke:none"
         id="path560"
         inkscape:connector-curvature="0" />
      <path
         d="m -203.78875,685.88817 c 0,22.54 12.439,47.02 21.779,47.02 8.29,0 21.781,-24.48 21.781,-47.02 0,-22.54 -9.76,-34.61 -21.781,-34.61 -12.029,0 -21.779,12.07 -21.779,34.61"
         style="fill:#271f14;fill-opacity:1;fill-rule:evenodd;stroke:none"
         id="path564"
         inkscape:connector-curvature="0" />
      <path
         d="m -198.18915,666.22847 c 0,5.16 7.07,-1.25 16.18,-1.25 9.1,0 9.41,-11.84 0.31,-11.84 -9.11,0 -16.49,7.93 -16.49,13.09"
         style="fill:#54432c;fill-opacity:1;fill-rule:evenodd;stroke:none"
         id="path568"
         inkscape:connector-curvature="0" />
      <path
         d="m -164.75945,680.01857 c -2.76,2.99 -3.13,-4.52 -8.02,-9.42 -4.889,-4.9 1.281,-11.91 6.18,-7.01 4.891,4.9 4.611,13.45 1.84,16.43"
         style="fill:#3c2c1a;fill-opacity:1;fill-rule:evenodd;stroke:none"
         id="path572"
         inkscape:connector-curvature="0" />
      <path
         d="m -194.45865,689.59817 c 0,13.59 7.47,28.35 13.069,28.35 4.981,0 13.071,-14.76 13.071,-28.35 0,-13.6 -5.85,-20.88 -13.071,-20.88 -7.219,0 -13.069,7.28 -13.069,20.88"
         style="fill:#000000;fill-opacity:1;fill-rule:evenodd;stroke:none"
         id="path576"
         inkscape:connector-curvature="0" />
      <path
         d="m -175.78875,719.19827 c 0,3.09 2.51,5.61 5.6,5.61 3.089,0 5.6,-2.52 5.6,-5.61 0,-3.1 -2.511,-5.61 -5.6,-5.61 -3.09,0 -5.6,2.51 -5.6,5.61"
         style="fill:#ffffff;fill-opacity:1;fill-rule:evenodd;stroke:none"
         id="path580"
         inkscape:connector-curvature="0" />
      <path
         d="m -206.27895,660.61817 c 0,5.51 4.45,9.97 9.95,9.97 5.5,0 9.96,-4.46 9.96,-9.97 0,-5.5 -4.46,-9.97 -9.96,-9.97 -5.5,0 -9.95,4.47 -9.95,9.97"
         style="fill:#ffffff;fill-opacity:1;fill-rule:evenodd;stroke:none"
         id="path584"
         inkscape:connector-curvature="0" />
      <path
         d="m -194.91855,772.15817 c -24.271,-3.74 -13.69,3.12 -2.49,4.99 11.2,1.87 34.219,-6.23 42.309,-16.2 4.481,-5.52 -15.549,14.95 -39.819,11.21"
         style="fill:#000000;fill-opacity:1;fill-rule:evenodd;stroke:none"
         id="path588"
         inkscape:connector-curvature="0" />
      <path
         d="m -133.87565,801.28607 c 0.33,0.42 2.16,-0.07 4.17,-1.13 2.09,-1.1 3.66,-2.44 3.44,-2.97 -0.23,-0.55 -2.28,0.01 -4.49,1.22 -2.11,1.16 -3.47,2.44 -3.12,2.88"
         style="fill:#ffffff;fill-opacity:1;fill-rule:evenodd;stroke:none"
         id="path684"
         inkscape:connector-curvature="0" />
    </g>
  </g>
</svg>
