<?xml version="1.0" encoding="UTF-8" standalone="no"?>
<!-- Created with Inkscape (http://www.inkscape.org/) -->

<svg
   xmlns:dc="http://purl.org/dc/elements/1.1/"
   xmlns:cc="http://creativecommons.org/ns#"
   xmlns:rdf="http://www.w3.org/1999/02/22-rdf-syntax-ns#"
   xmlns:svg="http://www.w3.org/2000/svg"
   xmlns="http://www.w3.org/2000/svg"
   xmlns:sodipodi="http://sodipodi.sourceforge.net/DTD/sodipodi-0.dtd"
   xmlns:inkscape="http://www.inkscape.org/namespaces/inkscape"
   width="512"
   height="512"
   viewBox="0 0 512.00002 512.00002"
   id="svg2"
   version="1.1"
   inkscape:version="0.92.2 2405546, 2018-03-11"
   sodipodi:docname="occhio3.svg">
  <title
     id="title1987">occhio2</title>
  <defs
     id="defs4" />
  <sodipodi:namedview
     id="base"
     pagecolor="#ffffff"
     bordercolor="#666666"
     borderopacity="1.0"
     inkscape:pageopacity="0.0"
     inkscape:pageshadow="2"
     inkscape:zoom="1.4082031"
     inkscape:cx="256"
     inkscape:cy="256"
     inkscape:document-units="px"
     inkscape:current-layer="layer1"
     showgrid="false"
     units="px"
     inkscape:showpageshadow="false"
     inkscape:window-width="1920"
     inkscape:window-height="994"
     inkscape:window-x="0"
     inkscape:window-y="21"
     inkscape:window-maximized="1" />
  <metadata
     id="metadata7">
    <rdf:RDF>
      <cc:Work
         rdf:about="">
        <dc:format>image/svg+xml</dc:format>
        <dc:type
           rdf:resource="http://purl.org/dc/dcmitype/StillImage" />
        <dc:title>occhio2</dc:title>
        <cc:license
           rdf:resource="http://creativecommons.org/licenses/by-sa/4.0/" />
        <dc:date>2019</dc:date>
        <dc:creator>
          <cc:Agent>
            <dc:title>Cristian Pozzessere  &lt; ilnanny &gt;</dc:title>
          </cc:Agent>
        </dc:creator>
        <dc:subject>
          <rdf:Bag>
            <rdf:li>ilnanny</rdf:li>
          </rdf:Bag>
        </dc:subject>
      </cc:Work>
      <cc:License
         rdf:about="http://creativecommons.org/licenses/by-sa/4.0/">
        <cc:permits
           rdf:resource="http://creativecommons.org/ns#Reproduction" />
        <cc:permits
           rdf:resource="http://creativecommons.org/ns#Distribution" />
        <cc:requires
           rdf:resource="http://creativecommons.org/ns#Notice" />
        <cc:requires
           rdf:resource="http://creativecommons.org/ns#Attribution" />
        <cc:permits
           rdf:resource="http://creativecommons.org/ns#DerivativeWorks" />
        <cc:requires
           rdf:resource="http://creativecommons.org/ns#ShareAlike" />
      </cc:License>
    </rdf:RDF>
  </metadata>
  <g
     inkscape:label="Livello 1"
     inkscape:groupmode="layer"
     id="layer1"
     transform="translate(0,-540.3622)">
    <path
       style="opacity:1;fill:#f0e2d9;fill-opacity:0.98867923;stroke:none;stroke-width:4.75087738;stroke-linecap:round;stroke-linejoin:bevel;stroke-miterlimit:4;stroke-dasharray:none;stroke-opacity:0.98113248;paint-order:stroke markers fill"
       d="m 1,541.3622 h 510 v 510 H 1 Z"
       id="rect1404"
       inkscape:connector-curvature="0" />
    <g
       id="g1327"
       transform="matrix(1.453647,-0.02343261,-0.02057794,-1.2765573,-660.8857,1923.1493)">
      <path
         d="m 642.183,757.405 c -18.959,2.597 -37.913,6.207 -56.313,12.723 -9.278,3.286 -17.978,7.983 -26.982,12.178 -3.958,1.843 -8.725,1.805 -12.209,5.152 -2.13,2.044 -2.248,4.503 -0.586,7.249 2.073,3.427 3.914,6.952 5.962,10.463 5.061,8.672 10.758,16.426 18.094,21.896 4.242,3.16 8.589,6.034 12.912,9.014 5.767,3.975 11.653,7.459 17.599,10.947 11.269,6.611 25.147,8.737 37.381,10.101 6.006,0.673 12.25,-0.612 18.19,-1.803 6.717,-1.348 12.959,-3.374 19.321,-6.367 10.79,-5.085 23.331,-9.527 32.467,-18.813 6.045,-6.146 11.599,-12.687 16.555,-20.188 3.162,-4.789 8.098,-9.99 9.744,-15.991 -1.669,-0.564 -3.331,-2.894 -4.675,-4.238 -2.1,-2.099 -4.186,-3.983 -6.391,-5.892 -4.635,-4.017 -8.644,-9.01 -13.683,-12.221 -5.307,-3.387 -11.073,-5.373 -16.719,-7.624 -16.945,-6.759 -33.019,-9 -50.667,-6.586"
         style="fill:#ffffff;fill-opacity:1;fill-rule:nonzero;stroke:none;stroke-width:0.1"
         id="path208"
         inkscape:connector-curvature="0" />
      <path
         d="m 574.526,809.775 c 0.673,7.419 3.621,15.067 7.37,20.701 1.988,2.988 4.1,4.908 6.453,7.26 2.799,2.802 5.205,5.817 8.625,7.456 -6.253,-2.281 -12.898,-6.765 -18.515,-11.014 -5.74,-4.346 -11.182,-9.058 -16.175,-14.768 -4.725,-5.4 -9.186,-12.187 -13.005,-18.649 -2.61,-4.425 -5.272,-11.926 -0.577,-15.766 5.003,-4.089 11.508,-4.949 17.029,-7.278 6.282,-2.647 13.56,-6.565 20.234,-6.869 2.833,-0.128 4.699,-0.216 7.513,-1.372 3.276,-1.344 6.718,-2.533 10.19,-1.973 -2.994,2.276 -6.272,4.042 -9.358,6.086 -2.452,1.623 -4.64,3.561 -6.714,5.902 -3.575,4.031 -6.738,8.597 -9.691,13.512 -2.981,4.96 -3.939,10.603 -3.379,16.772"
         style="fill:#f2f2f2;fill-opacity:1;fill-rule:nonzero;stroke:none;stroke-width:0.1"
         id="path210"
         inkscape:connector-curvature="0" />
      <path
         d="m 565.939,810.818 c 2.02,8.463 7.201,16.332 12.297,21.557 1.904,1.945 4.066,3.545 5.875,5.595 -3.239,-2.137 -6.454,-4.463 -9.608,-6.861 -3.669,-2.789 -7.051,-6.494 -10.371,-9.887 -3.272,-3.347 -6.331,-6.714 -8.79,-11.101 -1.93,-3.441 -4.752,-6.237 -6.618,-9.936 -1.308,-2.591 -2.929,-5.973 -2.397,-9.156 0.572,-3.443 4.004,-5.545 6.156,-7.226 2.364,-1.853 5.171,-2.437 7.754,-3.604 4.491,-2.032 8.727,-4.374 13.076,-6.824 6.058,-3.414 12.133,-5.095 18.689,-6.546 -1.593,1.791 -4.207,2.75 -6.199,3.623 -3.141,1.38 -5.728,3.482 -8.245,6.225 -6.374,6.932 -12.929,16.732 -12.478,28.076 0.084,2.035 0.383,4.069 0.859,6.065"
         style="fill:#dad9d9;fill-opacity:1;fill-rule:nonzero;stroke:none;stroke-width:0.1"
         id="path212"
         inkscape:connector-curvature="0" />
      <path
         d="m 707.389,786.168 c -0.96,-2.982 -2.337,-5.753 -4.185,-8.168 -2.969,-3.883 -6.406,-6.731 -9.872,-9.801 -1.661,-1.472 -4.339,-3.241 -5.513,-5.329 2.599,1.845 6.282,2.214 9.154,3.157 7.792,2.57 15.572,6.971 22.713,11.665 4.797,3.153 13.304,8.316 14.941,15.646 2.049,9.201 -6.894,17.576 -11.326,22.707 -7.355,8.51 -15.24,15.441 -23.803,21.766 -3.252,2.404 -7.046,4.181 -10.626,5.665 10.067,-9.377 18.97,-25.613 20.144,-41.928 0.378,-5.277 -0.087,-10.6 -1.627,-15.38"
         style="fill:#f2f2f2;fill-opacity:1;fill-rule:nonzero;stroke:none;stroke-width:0.1"
         id="path214"
         inkscape:connector-curvature="0" />
      <path
         d="m 714.015,779.279 c -1.562,-1.542 -3.157,-3.054 -4.515,-5.048 1.341,-0.13 2.827,0.688 4.112,1.262 3.058,1.364 6.118,2.791 8.989,4.726 2.419,1.623 3.435,3.745 5.332,6.021 3.009,3.617 10.796,8.411 6.928,14.91 -2.88,4.839 -7.082,7.916 -11.002,11.186 -4.024,3.353 -7.407,7.731 -11.389,11.086 -3.11,2.618 -6.3,4.994 -9.356,7.68 5.889,-9.272 14.443,-17.47 17.324,-29.365 1.216,-5.009 0.833,-10.645 -1.109,-15.254 -1.337,-3.179 -3.3,-5.216 -5.314,-7.204"
         style="fill:#dad9d9;fill-opacity:1;fill-rule:nonzero;stroke:none;stroke-width:0.1"
         id="path216"
         inkscape:connector-curvature="0" />
      <path
         d="m 596.321,805.867 c 0.441,-4.559 1.275,-9.022 2.52,-13.248 2.934,-9.983 7.892,-22.036 15.765,-26.549 8.59,-4.922 17.856,-6.73 27.146,-7.884 4.224,-0.524 7.952,-0.655 12.115,0.084 3.661,0.654 7.019,-0.495 10.64,1.242 2.577,1.235 5.088,2.685 7.347,4.822 8.869,8.38 16.682,21.23 19.28,35.244 1.294,6.988 2.283,14.674 1.847,21.857 -0.803,13.103 -8.242,24.469 -17.655,28.392 -4.303,1.792 -8.61,2.174 -13.066,3.08 -13.617,2.771 -26.192,3.404 -39.998,1.755 -4.889,-0.58 -11.723,-0.528 -16.001,-4.201 -3.872,-3.327 -6.303,-11.122 -7.749,-16.607 -2.332,-8.829 -3.097,-18.597 -2.191,-27.987"
         style="fill:#75aec6;fill-opacity:1;fill-rule:nonzero;stroke:none;stroke-width:0.1"
         id="path218"
         inkscape:connector-curvature="0" />
      <path
         d="m 655.243,799.182 c 7.109,5.705 10.559,17.409 10.211,27.781 -0.394,11.811 -6.233,19.46 -14.785,23.183 -3.727,1.623 -9.245,1.556 -13.152,0.568 -5.647,-1.434 -9.204,-4.7 -12.326,-10.864 -5.628,-11.119 -5.1,-25.815 2.455,-35.227 6.989,-8.696 18.977,-12.363 27.597,-5.441"
         style="fill:#231f20;fill-opacity:1;fill-rule:nonzero;stroke:none;stroke-width:0.1"
         id="path220"
         inkscape:connector-curvature="0" />
      <path
         d="m 608.118,817.332 c -0.272,-10.078 2.644,-20.457 8.232,-27.685 4.114,-5.325 12.655,-11.345 18.442,-12.504 2.791,-0.56 5.171,-1.618 7.753,-2.679 1.086,-5.973 -0.893,-10.147 -5.299,-10.179 -6.532,-0.053 -14.137,1.041 -19.805,5.352 -5.697,4.335 -10.137,11.584 -13.033,19.099 -4.776,12.398 -5.016,24.71 -1.618,37.498 2.584,9.727 6.928,22.731 16.42,23.55 0.021,-3.193 -2.518,-5.776 -3.972,-8.147 -4.532,-7.395 -6.889,-15.897 -7.12,-24.305"
         style="fill:#abe3f9;fill-opacity:1;fill-rule:nonzero;stroke:none;stroke-width:0.1"
         id="path222"
         inkscape:connector-curvature="0" />
      <path
         d="m 681.071,820.859 c 0.388,-1.53 0.686,-3.087 0.884,-4.661 2.612,-20.721 -4.33,-47.08 -19.848,-57.317 2.503,2.323 5.639,2.935 8.203,5.204 2.218,1.961 4.401,4.51 6.277,7.011 6.376,8.511 11.116,16.299 14.495,27.21 1.793,5.795 2.116,13.193 1.703,19.335 -0.611,9.099 -2.85,17.347 -8.274,23.643 -5.501,6.389 -11.388,6.182 -18.096,8.71 -8.991,3.386 -17.37,3.679 -26.525,5.524 3.373,-1.858 7.119,-1.035 10.65,-2.241 3.569,-1.216 7.397,-3.2 10.725,-5.219 3.451,-2.096 7.458,-5.516 10.27,-8.827 4.161,-4.899 7.768,-11.345 9.536,-18.372"
         style="fill:#166b92;fill-opacity:1;fill-rule:nonzero;stroke:none;stroke-width:0.1"
         id="path224"
         inkscape:connector-curvature="0" />
      <path
         d="m 687.133,803.027 c -0.195,-4.503 -1.783,-9.801 -1.515,-14.015 4.132,1.257 5.522,12.571 6.125,17.015 0.982,7.231 0.772,14.852 -1.299,21.758 -3.385,11.298 -13.205,22.978 -23.671,19.847 1.802,0.54 6.664,-4.944 8.034,-6.268 1.913,-1.85 3.661,-3.742 5.188,-6.137 3.158,-4.94 5.171,-10.902 6.228,-17.1 0.836,-4.92 1.111,-9.979 0.914,-15.003 0,-0.031 -0.004,-0.063 -0.004,-0.097"
         style="fill:#00537b;fill-opacity:1;fill-rule:nonzero;stroke:none;stroke-width:0.1"
         id="path226"
         inkscape:connector-curvature="0" />
      <path
         d="m 660.453,782.835 c 9.128,-0.594 15.837,12.892 9.812,24.257 -3.542,6.677 -9.767,5.154 -14.778,2.284 -4.13,-2.362 -7.442,-7.35 -7.008,-13.402 0.415,-5.773 3.148,-9.04 7.036,-11.455 1.681,-1.047 3.348,-1.579 4.938,-1.684"
         style="fill:#ffffff;fill-opacity:1;fill-rule:nonzero;stroke:none;stroke-width:0.1"
         id="path228"
         inkscape:connector-curvature="0" />
      <path
         d="m 568.828,777.611 c 12.616,-6.812 26.52,-6.607 39.702,-10.856 3.057,-0.984 6.18,-1.488 9.309,-2.318 7.894,-2.095 16.066,-4.811 24.13,-5.422 10.821,-0.82 21.841,-0.97 32.486,1.595 3.079,0.741 6.231,1.582 9.196,2.835 5.059,2.137 10.095,4.264 15.088,6.676 7.169,3.457 14.049,7.849 21.06,11.762 4.755,2.652 9.81,6.371 13.374,11.169 1.266,1.706 1.544,2.299 3.119,0.71 1.406,-1.421 2.801,-3.381 4.079,-5.042 -2.854,-3.115 -6.847,-6.25 -10.166,-8.764 -2.899,-2.201 -5.86,-4.645 -8.903,-6.518 -7.168,-4.417 -14.316,-8.872 -22.031,-11.27 -18.327,-5.694 -35.521,-11.636 -54.543,-10.842 -20.624,0.86 -39.48,4.459 -59.083,12.241 -14.788,5.874 -28.862,13.482 -44.722,10.817 -6.138,-1.029 -23.236,-9.147 -18.074,7.951 1.698,5.623 6.864,10.137 10.264,14.227 8.599,10.343 18.485,21.66 28.687,29.327 14.175,10.655 28.71,21.377 44.688,26.956 17.865,6.236 33.352,10.26 51.819,6.274 15.504,-3.348 32.64,-9.288 46.467,-19.222 11.225,-8.067 21.423,-20.172 30.45,-31.72 5.087,-6.507 13.755,-15.894 15.725,-25.005 -9.646,1.193 -16.182,14.251 -22.947,21.769 -10.351,11.496 -20.148,24.529 -32.516,32.618 -31.452,20.566 -68.595,22.159 -101.681,5.669 -16.302,-8.123 -32.437,-24.734 -43.265,-42.21 -3.832,-6.185 -6.487,-11.787 0.851,-15.318 4.699,-2.26 9.173,-2.965 13.65,-5.854 1.219,-0.789 2.486,-1.535 3.787,-2.235"
         style="fill:#e19f80;fill-opacity:1;fill-rule:nonzero;stroke:none;stroke-width:0.1"
         id="path230"
         inkscape:connector-curvature="0" />
      <path
         d="m 508.701,768.042 c -2.053,9.778 1.304,20.749 6.11,28.367 -4.35,-4.346 -7.783,-11.844 -10.489,-17.841 -1.318,-2.933 -3.534,-7.112 -3.595,-10.63 -0.065,-3.689 1.361,-4.336 2.267,-7.649 2.605,-9.518 13.054,-11.313 19.937,-10.13 -4.82,5.077 -12.226,8.319 -14.23,17.883"
         style="fill:#f0bfa3;fill-opacity:1;fill-rule:nonzero;stroke:none;stroke-width:0.1"
         id="path232"
         inkscape:connector-curvature="0" />
      <path
         d="m 529.213,818.694 c 15.133,17.98 27.415,39.11 46.106,51.84 24.172,16.46 54.641,24.969 82.006,24.22 36.171,-0.988 77.367,-17.749 100.949,-54.617 1.105,-1.732 2.137,-3.545 3.398,-5.14 -3.878,5.614 -11.851,11.488 -17.244,15.775 -8.881,7.064 -17.866,14.157 -27.483,19.458 -20.073,11.06 -43.856,15.638 -65.707,14.916 -23.413,-0.775 -45.343,-6.561 -66.925,-18.127 -8.784,-4.708 -16.791,-12.004 -24.723,-18.522 -6.156,-5.06 -12.091,-10.588 -18.037,-16.099 -4.073,-3.775 -9.679,-8.401 -12.34,-13.704 v 0"
         style="fill:#e19f80;fill-opacity:1;fill-rule:nonzero;stroke:none;stroke-width:0.1"
         id="path234"
         inkscape:connector-curvature="0" />
      <path
         d="m 551.164,842.524 c -2.01,-1.103 -3.678,-3.078 -5.185,-5.04 6.14,7.996 12.052,16.842 19.02,23.692 6.73,6.617 15.256,11.298 23.147,15.359 16.356,8.419 34.187,12.907 51.798,9.785 -32.729,-11.203 -63.373,-23.174 -91.952,-47.186 1.001,1.178 2.075,2.331 3.172,3.39 v 0"
         style="fill:#8c5249;fill-opacity:1;fill-rule:nonzero;stroke:none;stroke-width:0.1"
         id="path236"
         inkscape:connector-curvature="0" />
      <path
         d="m 697.126,734.373 c -20.02,-5.208 -42.925,-3.644 -63.081,0.162 -6.975,1.316 -13.539,3.483 -20.185,6.533 -3.68,1.69 -7.256,4.063 -10.988,5.505 -2.069,0.803 -3.967,0.639 -5.848,2.209 11.821,-3.841 25.955,-3.894 38.074,-2.99 14.409,1.071 28.565,2.865 42.866,5.515 19.713,3.647 38.758,11.349 57.381,20.317 5.934,2.854 11.806,4.999 18.201,4.824 7.178,-0.194 12.749,-5.409 19.418,-6.621 -10.61,-1.792 -20.544,-6.185 -30.14,-12.273 -8.312,-5.276 -15.468,-11.551 -24.255,-15.457 -6.77,-3.012 -14.024,-5.793 -21.443,-7.724"
         style="fill:#f0bfa3;fill-opacity:1;fill-rule:nonzero;stroke:none;stroke-width:0.1"
         id="path238"
         inkscape:connector-curvature="0" />
      <path
         d="m 662.803,831.57 c 3.702,1.51 5.199,7.33 4.113,11.838 -0.95,3.952 -4.661,5.4 -7.577,5.653 -5.054,0.435 -7.431,-1.593 -8.315,-7.736 -1.037,-7.203 7.186,-11.636 11.779,-9.755"
         style="fill:#ffffff;fill-opacity:1;fill-rule:nonzero;stroke:none;stroke-width:0.1"
         id="path240"
         inkscape:connector-curvature="0" />
      <path
         d="m 647.705,856.37 c -21.821,1.363 -45.258,-4.707 -63.141,-17.959 -5.716,-4.234 -11.061,-9.333 -16.449,-14.169 -6.666,-5.983 -15.113,-14.161 -19.696,-22.751 5.464,6.418 8.999,14.863 14.774,21.131 6.962,7.562 14.174,15.372 22.494,20.592 17.233,10.804 38.671,19.423 57.96,18.545 11.596,-0.525 24.381,-1.458 35.279,-6.996 11.111,-5.641 24.091,-9.258 35.62,-1.268 -5.812,-3.983 -11.948,-6.204 -18.607,-6.92 5.265,-3.749 19.115,0.465 23.804,5.433 -5.434,-5.124 -12.077,-8.982 -18.794,-9.091 7.707,-1.075 16.598,1.746 22.869,7.256 -4.684,-5.48 -11.788,-7.897 -17.775,-9.664 3.576,-0.446 6.028,-5.277 9.774,-6.08 4.519,-0.963 16.791,0.067 19.66,5.641 -4.942,-5.937 -10.746,-10.942 -18.029,-8.683 5.706,-1.701 17.484,-0.142 21.715,5.078 -5.57,-5.031 -10.377,-7.041 -17.289,-6.984 5.545,-3.461 13.393,-0.23 18.988,1.818 -5.2,-4.172 -10.888,-4.367 -16.564,-5.428 7.817,-2.672 12.966,0.613 20.195,2.858 -5.759,-4.678 -11.32,-4.933 -17.753,-5.713 5.374,-10.624 19.908,-3.978 26.972,-1.52 0.153,0.137 0.145,0.141 -0.012,0.014 -4.881,-4.826 -17.637,-7.76 -23.321,-4.675 3.075,-4.143 10.92,-4.286 15.168,-4.461 5.389,-0.225 10.484,3.299 15.395,3.681 -4.573,-3.861 -8.719,-5.335 -14.234,-5.96 -4.769,-0.541 -8.632,0.972 -13.187,1.057 0.407,-0.007 6.542,-9.216 7.899,-10.186 3.504,-2.509 7.399,-4.01 11.149,-5.778 6.918,-3.256 15.777,-4.037 22.692,-1.892 -3.92,-0.482 -7.792,-3.112 -11.785,-4.065 -4.509,-1.078 -8.796,-0.788 -13.394,0.405 -10.364,2.692 -17.248,13.133 -24.842,21.544 -5.883,6.521 -12.177,12.749 -18.959,17.761 -8.903,6.581 -16.437,14.669 -26.396,18.786 -3.928,1.62 -7.573,3.68 -11.617,4.938 -6.518,2.03 -13.455,3.264 -20.563,3.705"
         style="fill:#231f20;fill-opacity:1;fill-rule:nonzero;stroke:none;stroke-width:0.1"
         id="path242"
         inkscape:connector-curvature="0" />
      <path
         d="m 575.292,769.876 c 11.21,-4.493 22.952,-5.681 34.349,-9.196 10.196,-3.144 20.76,-6.282 31.283,-5.811 26.811,1.203 52.85,6.652 77.619,20.069 5.439,2.947 9.611,9.015 15.515,9.785 9.074,1.189 18.666,-12.736 19.039,-23.897 -0.129,6.248 -7.096,14.065 -10.795,17.234 -3.755,3.227 -9.15,1.988 -12.548,3.31 3.29,-0.659 6.571,-1.007 9.398,-3.347 2.4,-1.987 6.8,-7.569 6.714,-11.164 -4.001,9.49 -11.913,10.469 -19.488,11.99 5.645,-0.464 11.1,-6.716 11.429,-14.039 0.358,7.967 -7.571,11.856 -12.99,11.054 -3.645,-0.544 -7.438,-3.971 -10.932,-5.41 4.971,0.561 9.046,-7.96 8.21,-13.921 -1.132,6.435 -4.898,11.094 -10.202,12.448 5.033,-3.647 9.832,-14.112 6.545,-21.288 4.107,7.514 -8.252,22.752 -14.396,18.649 3.554,-5.684 3.244,-13.929 1.109,-19.762 -0.129,3.702 -1.008,20.168 -6.462,17.62 2.25,-7.58 7.409,-14.784 2.603,-22.686 0.36,5.636 0.971,14.115 -2.72,18.389 -2.585,2.992 -9.209,-0.967 -9.995,0.146 3.041,-4.304 2.979,-10.903 2.147,-16.416 0.869,4.903 -0.064,11.697 -3.879,13.932 2.98,-2.579 3.515,-10.295 1.693,-13.927 2.463,4.861 -1.282,12.719 -5.207,13.337 -3.164,0.502 -6.761,-3.166 -9.764,-1.541 4.402,-3.297 4.535,-12.64 3.809,-18.262 1.166,7.375 -2.596,17.258 -8.981,17.665 3.792,-1.971 8.225,-12.04 6.136,-17.986 2.705,4.881 -5.749,16.787 -9.692,17.783 -2.756,0.696 -8.256,0.932 -11.11,-0.164 4.483,-3.772 9.938,-12.826 8.9,-20.735 -1.391,6.199 -7.455,23.898 -14.451,19.333 5.123,-2.957 11.075,-12.387 10.08,-19.828 -0.429,6.525 -3.637,13.862 -7.945,17.593 -4.722,4.094 -10.116,2.905 -15.451,3.626 -7.068,0.955 -14.072,2.546 -21.08,4.022 -10.729,2.257 -20.872,9.529 -31.677,11.399 l -6.813,-0.004"
         style="fill:#231f20;fill-opacity:1;fill-rule:nonzero;stroke:none;stroke-width:0.1"
         id="path248"
         inkscape:connector-curvature="0" />
      <path
         d="m 474.886,894.556 c 2.224,16.401 2.127,32.552 5.881,48.871 3.723,16.196 10.725,30.465 19.21,43.494 -16.425,-25.288 -20.381,-60.038 -24.282,-91.616 l -0.809,-0.749"
         style="fill:#965a0c;fill-opacity:1;fill-rule:nonzero;stroke:none;stroke-width:0.1"
         id="path250"
         inkscape:connector-curvature="0" />
      <path
         d="m 483.967,910.085 c -1.962,12.349 5.686,33.455 9.749,44.557 6.111,16.697 15.489,31.904 25.718,44.839 -11.243,-23.08 -31.723,-45.255 -32.196,-74.526 l -3.271,-14.87"
         style="fill:#965a0c;fill-opacity:1;fill-rule:nonzero;stroke:none;stroke-width:0.1"
         id="path252"
         inkscape:connector-curvature="0" />
      <path
         d="m 489.082,920.832 c 4.247,31.946 23.575,62.3 41.533,86.348 -10.664,-17.738 -23.409,-38.61 -29.45,-57.852 8.244,20.809 22.043,44.519 36.516,58.482 -9.066,-19.11 -21.444,-36.403 -29.752,-55.734 8.342,25.573 30.929,49.544 47.479,65.874 -10.083,-20.32 -27.813,-35.206 -38.188,-55.914 8.754,17.817 22.897,33.323 36.662,44.574 -9.691,-13.055 -19.762,-24.407 -28.299,-38.936 4.959,6.541 9.326,15.412 15.847,19.291 -3.706,-5.341 -6.804,-11.198 -9.977,-17.004 4.756,8.705 14.332,18.65 20.802,25.562 5.083,5.437 12.724,8.437 16.892,14.907 -6.313,-5.71 -12.454,-15.049 -17.314,-22.8 5.881,6.737 13.388,11.268 20.602,15.14 -4.595,-3.166 -8.354,-8.619 -12.567,-12.517 4.909,5.532 11.315,8.309 17.427,11.017 6.511,2.89 13.793,7.73 20.741,7.87 -7.163,-3.79 -14.039,-8.9 -21.226,-12.835 11.088,7.345 22.652,16.555 34.832,20.465 -7.121,-6.17 -14.538,-12.26 -22.021,-17.736 9.835,7.946 21.879,11.636 33.275,14.696 -3.725,-4.71 -11.679,-8.12 -17.031,-9.84 8.479,2.77 16.735,6.82 25.308,9.04 -1.889,-2.35 -5.91,-3.62 -8.695,-4.45 5.764,2.53 11.605,5.69 17.63,6.89 -2.682,-1.23 -5.464,-2.59 -7.839,-4.5 6.121,2.37 12.658,3.09 18.857,5.12 -1.98,-0.83 -4.143,-1.59 -5.9,-2.93 5.416,0.1 11.404,2.55 16.744,4.06 -2.305,-1.31 -4.839,-1.82 -7.27,-2.42 5.431,0.44 11.178,3.81 16.571,2.07 -1.029,-0.38 -2.499,-1.44 -3.319,-1.76 3.418,0.01 6.72,1.5 10.135,1.02 -1.174,-0.48 -2.358,-1.7 -3.483,-2.26 8.595,-3.15 19.454,6.1 28.613,5.78 -2.258,-2.05 -5.894,-3.27 -7.381,-5.97 4.476,2.15 10.504,3.38 15.154,2.99 -1.595,-0.76 -3.176,-2.01 -4.662,-2.91 3.693,0.5 7.442,2.03 11.069,1.6 -0.973,-0.55 -1.819,-1.72 -2.737,-2.36 2.86,-1.77 6.389,-0.09 9.508,-1.14 -0.954,-0.57 -1.708,-1.75 -2.2,-2.16 2.75,0.22 6.028,0.77 6.747,-2.73 5.693,-1.69 10.168,-2.43 15.935,-4.13 -0.012,-0.38 -0.022,-0.76 -0.033,-1.14 4.005,-2.615 8.057,-2.401 11.674,-4.552 2.646,-1.57 4.936,-2.999 7.568,-4.529 4.556,-2.649 9.516,-4.325 13.962,-7.257 2.904,-1.909 5.584,-5.614 8.866,-6.206 -2.104,-1.132 -4.295,-2.017 -6.381,-3.2 3.044,1.082 6.814,1.466 9.854,0.539 -2.244,-0.902 -4.551,-2.678 -6.39,-4.273 3.717,0.871 7.811,2.07 11.604,1.312 -2.682,-1.513 -5.64,-2.301 -8.282,-3.907 3.387,0.328 6.884,1.197 10.321,0.446 -1.848,-1.345 -4.022,-2.236 -6.123,-2.569 2.927,0.154 5.967,0.822 8.88,0.09 -2.167,-0.886 -4.317,-2.052 -6.576,-2.636 3.599,-0.415 8.198,1.793 11.233,-0.262 -1.967,-0.903 -4.28,-1.702 -6.178,-3.168 2.503,-0.76 5.158,-0.229 7.653,-1.104 -1.444,-0.655 -3.124,-1.771 -4.215,-2.816 2.567,-0.33 5.249,0.278 7.879,-0.331 -1.15,-0.368 -2.366,-1.529 -3.09,-1.883 2.218,-0.38 4.552,-0.196 6.824,-0.799 -3.238,0.861 -6.577,-2.841 -9.802,-0.845 2.997,-0.087 6.022,-0.294 9.034,-0.382 -6.84,1.384 -13.84,3.624 -20.763,2.694 4.294,1.491 9.674,1.531 14.13,1.47 -3.443,0.049 -7.189,0.268 -10.636,0.681 3.311,1.084 6.984,1.432 10.465,1.623 -3.213,1.794 -8.192,-1.706 -12.014,-0.429 2.893,1.398 6.11,1.676 8.95,2.892 -4.577,-0.259 -9.741,-2.341 -14.269,-1.297 3.268,0.561 6.619,2.267 9.565,3.631 -5.115,0.654 -11.174,-1.317 -16.496,-1.57 3.61,1.455 7.017,3.514 10.784,4.291 -5.638,-0.122 -11.434,-2.948 -17.089,-1.603 3.099,1.213 6.039,2.984 9.048,4.49 -4.733,-0.117 -10.067,-2.329 -14.659,-1.127 3.807,2.001 7.97,3.047 11.865,4.447 -5.675,0.563 -11.803,-2.267 -17.521,-1.168 2.787,2.638 6.896,3.997 9.868,5.522 -5.134,0.381 -11.168,-1.261 -16.52,-1.561 3.519,1.713 7.429,2.633 10.696,4.909 -4.138,-0.14 -8.539,-1.027 -12.635,-2.042 2.332,0.689 4.75,1.317 7.062,1.898 -4.076,-0.636 -9.483,-2.907 -13.379,-1.479 2.705,2.421 5.917,4.202 8.942,6.047 -4.676,-1.249 -8.986,-5.032 -13.828,-5.592 3.677,2.378 7.268,5.414 10.812,7.575 -6.105,-2.726 -12.522,-7.378 -18.861,-8.537 4.176,4.655 9.55,6.521 13.761,10.743 -5.791,-3.156 -14.473,-9.156 -20.618,-8.411 4.201,4.085 9.76,7.031 13.927,10.621 -6.732,-1.599 -13.158,-5.895 -20.062,-7.808 4.769,3.296 10.921,6.07 14.691,10.717 -8.134,-0.692 -14.583,-3.304 -22.719,-0.592 1.555,0.633 3.082,1.633 4.576,2.484 -2.967,0.874 -11.503,0.816 -13.785,-1.576 0.31,0.329 0.67,0.529 1.07,0.609 -5.778,-0.969 -11.719,-4.005 -17.482,-5.617 3.696,3.078 8.131,4.881 12.083,7.486 -9.161,-2.515 -18.647,-10.709 -27.72,-11.693 4.855,3.798 9.646,8.087 14.67,11.492 -3.154,-1.332 -6.608,-3.477 -9.533,-4.217 0.999,0.97 2.446,2.68 3.796,3.621 -5.599,-3.824 -11.227,-10.04 -17.518,-12.666 3.145,5.759 8.93,9.351 13.411,13.375 -8.199,-3.951 -14.383,-13.526 -22.801,-16.922 5.119,7.004 11.774,12.179 18.273,17.078 -7.314,-5.115 -14.432,-10.998 -21.677,-16.354 4.9,6.048 11.393,10.86 16.256,17.263 -8.544,-4.459 -16.642,-11.751 -24.149,-18.505 4.05,6.869 10.285,14.554 16.268,18.466 -9.376,-7.182 -18.674,-20.285 -28.641,-24.991 5.243,10.852 14.299,17.544 21.568,26.185 -8.603,-7.948 -17.935,-16.281 -26.964,-23.308 4.107,9.979 15.51,18.088 23.167,24.047 -10.432,-6.81 -19.994,-15.635 -29.284,-24.619 6.076,8.453 14.235,15.986 21.519,22.754 -8.799,-3.054 -15.278,-14.076 -23.016,-19.745 5.397,5.08 11.277,12.57 17.551,16.228 -8.6,-5.715 -15.901,-14.209 -23.741,-21.232 5.105,9.067 11.359,16.557 18.822,22.217 -10.747,-6.295 -20.634,-16.842 -30.021,-26.042 7.795,6.878 13.362,20.156 21.997,25.06 -8.698,-1.971 -15.324,-9.821 -22.523,-15.582 -5.479,-4.389 -16.587,-9.841 -19.887,-16.853 5.949,12.636 17.878,19.805 25.271,31.184 -6.124,-1.362 -13.108,-11.695 -17.789,-16.621 -7.076,-7.445 -13.749,-15.63 -20.854,-22.83 6.387,11.262 14.6,20.533 21.769,30.72 -9.866,-6.078 -17.174,-18.262 -27.413,-24.06 5.376,8.604 13.931,14.924 18.131,24.362 -13.266,-7.168 -23.196,-25.208 -36.213,-33.894 6.377,11.872 15.934,21.25 21.876,33.228 -14.58,-6.936 -23.323,-31.061 -35.27,-42.318 6.217,15.79 19.047,27.592 27.224,41.852 -14.687,-17.005 -24.744,-40.265 -39.725,-56.683 8.329,14.344 13.079,32.055 22.034,45.775 -12.175,-15.035 -20.097,-38.516 -34.228,-50.546 5.493,15.794 15.763,29.093 23.836,42.437 -11.017,-13.556 -19.57,-31.288 -28.642,-46.961 5.467,11.388 8.182,25.69 14.239,36.396 -9.289,-14.439 -15.387,-32.898 -23.622,-48.402 4.65,14.45 8.123,29.981 14.088,43.723 -7.372,-11.295 -9.743,-25.87 -15.373,-38.391 3.58,8.337 7.133,20.411 8.345,29.621 -7.104,-13.437 -8.832,-30.704 -14.862,-45.005 5.314,12.441 5.565,28.013 11.529,40.449 l -6.983,-15.95"
         style="fill:#cc933c;fill-opacity:1;fill-rule:nonzero;stroke:none;stroke-width:0.1"
         id="path254"
         inkscape:connector-curvature="0" />
      <path
         d="m 505.952,928.837 c -0.343,-0.047 -1.112,-2.06 -0.837,-0.896 1.964,13.654 11.469,29.218 17.638,40.221 6.961,12.403 15.449,25.449 25.17,34.148 -8.038,-6.909 -14.385,-21.529 -20.273,-31.193 -4.7,-7.721 -9.981,-15.649 -13.112,-24.545 9.807,20.808 26.173,41.498 41.783,55.088 -9.654,-12.828 -17.636,-27.802 -27.027,-40.815 8.441,14.501 20.446,24.811 29.095,38.688 -7.394,-12.421 -17.022,-22.688 -23.589,-35.987 2.605,3.745 4.511,8.262 7.429,11.656 -6.456,-10.257 -13.685,-24.869 -17.277,-37.134 12.133,20.156 26.177,37.856 39.797,56.278 -8.895,-11.439 -20.299,-26.599 -26.193,-40.746 13.485,17.634 26.189,34.527 41.657,49.54 -11.49,-14.273 -23.515,-30.249 -32.642,-46.997 10.553,13.031 21.178,27.123 33.498,37.909 -7.406,-12.555 -19.044,-22.044 -25.429,-35.79 14.079,15.636 29.352,38.489 47.552,46.858 -10.671,-17.121 -28.205,-30.137 -41.093,-44.647 -6.919,-7.795 -13.314,-21.139 -20.953,-26.841 5.218,9.012 10.05,18.51 15.81,26.999 -7.289,-6.016 -12.31,-17.784 -19.777,-24.234 3.919,9.126 10.093,16.753 15.009,24.81 -5.136,-7.974 -11.316,-18.417 -17.954,-24.14 4.27,9.387 9.142,18.53 13.803,27.633 -11.116,-10.691 -18.298,-29.258 -28.16,-41.953 1.061,5.342 3.217,10.391 5.709,14.735 -3.8,-5.407 -8.685,-16.977 -13.632,-18.944 1.353,19.319 13.646,33.264 20.258,49.536 -10.29,-12.241 -20.382,-31.727 -27.728,-47.159 5.144,14.789 13.717,28.141 20.563,41.478 -8.805,-8.584 -16.306,-26.237 -22.631,-38.195 2.952,9.656 9.249,18.088 13.843,26.545 -4.137,-6.618 -7.99,-13.613 -11.592,-20.736 l 1.285,-1.17"
         style="fill:#ae6c32;fill-opacity:1;fill-rule:nonzero;stroke:none;stroke-width:0.1"
         id="path256"
         inkscape:connector-curvature="0" />
      <path
         d="m 478.235,900.982 c 4.385,12.898 0.293,39.296 -3.428,52.534 1.122,-12.595 3.454,-25.513 4.384,-37.837 -0.946,15.398 2.49,36.369 4.199,50.219 -2.01,-16.582 -2.669,-32.933 -3.252,-49.515 2.232,17.937 3.284,40.075 10.34,55.879 -3.995,-16.644 -6.242,-34.309 -8.397,-51.767 1.269,18.66 10.291,50.069 21.433,62.787 -9.775,-21.387 -16.922,-44.047 -19.991,-68.488 2.181,20.402 13.634,44.919 23.831,60.448 -11.796,-26.397 -24.284,-59.357 -25.328,-90.274 -1.573,6.803 -0.062,14.88 -0.233,21.908 -0.59,-3.955 0.267,-12.571 -0.917,-18.018 -1.54,7.796 0.45,16.627 -1.17,24.307 -0.348,-3.175 -0.738,-6.343 -1.14,-9.508 l -0.331,-2.675"
         style="fill:#ae6c32;fill-opacity:1;fill-rule:nonzero;stroke:none;stroke-width:0.1"
         id="path258"
         inkscape:connector-curvature="0" />
      <path
         d="m 501.739,926.032 c 1.227,17.17 17.297,32.475 24.806,46.012 -6.568,-9.437 -10.743,-21.993 -15.386,-33.021 5.575,9.571 11.503,24.116 19.522,30.268 -4.597,-9.274 -10.127,-18.031 -14.08,-27.842 8.513,12.428 16.179,25.063 25.753,36.418 -4.921,-9.658 -13.566,-18.113 -16.392,-29.086 7.73,11.628 16.775,25.89 27.621,32.74 -4.125,-8.593 -10.801,-15.386 -15.663,-23.363 8.997,7.776 15.446,20.166 25.467,26.469 -2.976,-3.532 -6.057,-7.609 -9.054,-11.399 4.373,3.547 7.989,8.784 12.035,12.581 -18.333,-18.235 -38.247,-42.098 -51.273,-66.826 5.54,9.804 11.77,19.842 16.7,30.06 -8.215,-5.59 -15.002,-19.636 -21.495,-28.198 2.896,8.215 7.54,17.438 11.711,24.662 -6.142,-6.513 -10.063,-15.901 -15.798,-22.914 2.961,5.508 4.595,11.983 7.766,17.289 -5.765,-7.71 -9.452,-17.568 -14.504,-25.985 0.692,6.565 4.719,11.334 6.431,17.496 -7.062,-6.581 -12.002,-19.911 -17.162,-28.974 3.08,14.546 14.25,32.121 21.087,44.646 -4.149,-5.519 -7.743,-12.703 -10.077,-19.721 l 1.985,-1.312"
         style="fill:#ceaf5c;fill-opacity:1;fill-rule:nonzero;stroke:none;stroke-width:0.1"
         id="path260"
         inkscape:connector-curvature="0" />
      <path
         d="m 490.326,930.782 c -4.794,-12.878 -5.106,-29.465 -7.049,-43.425 2.05,4.872 2.413,11.338 3.869,16.646 1.718,6.274 4.362,12.027 6.018,18.281 -2.838,-8.959 -4.548,-18.235 -6.618,-27.379 3.773,7.47 5.64,17.917 8.711,26.251 -1.477,-8.775 -5.117,-16.764 -6.004,-25.792 2.147,10.164 4.788,20.377 9.116,29.402 -3.218,-8.305 -5.753,-17.822 -6.61,-27.089 1.077,9.701 5.823,19.907 10.122,27.844 -2.809,-9.077 -6.506,-18.814 -7.495,-28.566 4.036,9.73 6.69,20.112 11.239,29.717 -2.246,-8.068 -4.737,-16.048 -7.111,-24.006 3.779,7.674 6.695,17.453 10.328,25.715 -1.911,-10.106 -8.841,-21.766 -8.539,-31.695 4.452,11.736 6.689,24.2 12.824,35.019 -3.939,-11.417 -9.792,-24.588 -10.722,-37.076 2.332,15.562 10.592,32.107 18.652,43.859 -2.518,-7.933 -7.233,-15.292 -8.495,-23.867 4.072,8.487 7.142,17.921 12.636,25.146 -2.589,-8.384 -5.923,-16.531 -8.613,-24.827 5.601,6.925 6.89,22.719 15.339,26.45 -1.789,-6.207 -7.491,-14.209 -6.96,-20.275 3.118,6.683 6.468,16.646 11.947,20.51 -1.637,-6.749 -5.562,-12.55 -6.736,-19.426 6.264,7.254 8.428,20.105 15.906,26.825 -2.482,-5.938 -6.077,-11.387 -7.615,-17.882 5.249,8.258 9.516,19.579 16.874,25.135 -2.508,-6.37 -6.394,-11.95 -8.897,-18.324 6.122,6.131 8.772,19.562 16.538,23.242 -3.077,-5.429 -8.365,-11.073 -9.78,-17.48 6.721,5.727 9.986,17.845 17.512,22.107 -1.188,-4.827 -4.735,-8.51 -6.454,-13.163 5.224,5.572 9.684,12.855 15.255,17.853 -2.134,-5.448 -5.662,-9.852 -7.761,-15.255 4.623,3.048 8.784,11.567 12.985,16.23 -1.325,-1.943 -3.229,-3.821 -4.536,-5.814 4.293,4.879 8.939,10.149 12.321,16.093 -3.29,-3.169 -6.33,-7.044 -9.804,-9.906 3.457,3.188 6.56,8.238 8.147,13.367 -4.796,-2.311 -8.667,-7.227 -13.358,-9.86 1.051,2.503 2.11,5.066 2.591,7.785 -5.563,-2.724 -9.818,-8.578 -15.229,-11.514 1.038,2.685 2.344,5.251 2.658,8.231 -5.799,-5.458 -10.491,-12.793 -16.885,-17.348 2.148,4.687 4.839,8.918 6.831,13.722 -4.858,-7.794 -10.62,-17.453 -17.251,-22.475 3.388,6.61 7.534,13.245 11.529,19.29 -5.168,-8.409 -12.702,-19.907 -20.092,-24.997 3.079,8.824 9.235,16.06 11.733,25.333 -10.133,-8.352 -15.886,-24.37 -25.594,-33.413 1.027,9.425 7.141,20.25 10.487,28.961 -6.038,-10.765 -12.64,-21.989 -19.485,-31.937 1.376,7.06 4.518,14.153 5.285,21.343 -5.097,-7.223 -8.385,-16.726 -13.876,-23.58 2.485,7.965 5.69,15.869 8.515,23.711 -3.414,-6.026 -6.473,-12.435 -9.925,-18.458 3.539,6.539 6.248,13.928 9.046,20.956 -5.951,-6.001 -8.678,-16.421 -13.237,-23.929 1.868,5.096 3.766,10.189 5.374,15.435 -4.646,-6.687 -7.044,-16.279 -11.382,-23.562 3.176,3.963 6.225,10.643 7.431,16.191 -2.672,-7.292 -7.063,-14.223 -10.407,-21.126 l 4.701,6.796"
         style="fill:#b08233;fill-opacity:1;fill-rule:nonzero;stroke:none;stroke-width:0.1"
         id="path262"
         inkscape:connector-curvature="0" />
    </g>
  </g>
</svg>
