<?xml version="1.0" encoding="UTF-8" standalone="no"?>
<!-- Created with Inkscape (http://www.inkscape.org/) -->

<svg
   xmlns:dc="http://purl.org/dc/elements/1.1/"
   xmlns:cc="http://creativecommons.org/ns#"
   xmlns:rdf="http://www.w3.org/1999/02/22-rdf-syntax-ns#"
   xmlns:svg="http://www.w3.org/2000/svg"
   xmlns="http://www.w3.org/2000/svg"
   xmlns:xlink="http://www.w3.org/1999/xlink"
   xmlns:sodipodi="http://sodipodi.sourceforge.net/DTD/sodipodi-0.dtd"
   xmlns:inkscape="http://www.inkscape.org/namespaces/inkscape"
   width="512"
   height="512"
   viewBox="0 0 512.00002 512.00002"
   id="svg2"
   version="1.1"
   inkscape:version="0.92.2 2405546, 2018-03-11"
   sodipodi:docname="toro.svg">
  <defs
     id="defs4">
    <linearGradient
       inkscape:collect="always"
       id="linearGradient988">
      <stop
         style="stop-color:#ffffff;stop-opacity:1;"
         offset="0"
         id="stop984" />
      <stop
         style="stop-color:#ffffff;stop-opacity:0;"
         offset="1"
         id="stop986" />
    </linearGradient>
    <radialGradient
       inkscape:collect="always"
       xlink:href="#linearGradient988"
       id="radialGradient990"
       cx="255.68611"
       cy="832.40436"
       fx="255.68611"
       fy="832.40436"
       r="75.849281"
       gradientTransform="matrix(1,0,0,0.96228428,0,31.394728)"
       gradientUnits="userSpaceOnUse" />
    <filter
       inkscape:collect="always"
       style="color-interpolation-filters:sRGB"
       id="filter1000"
       x="-0.22723252"
       width="1.454465"
       y="-0.23613866"
       height="1.4722773">
      <feGaussianBlur
         inkscape:collect="always"
         stdDeviation="14.362853"
         id="feGaussianBlur1002" />
    </filter>
  </defs>
  <sodipodi:namedview
     id="base"
     pagecolor="#ffffff"
     bordercolor="#666666"
     borderopacity="1.0"
     inkscape:pageopacity="0.0"
     inkscape:pageshadow="2"
     inkscape:zoom="1.4628906"
     inkscape:cx="149.58498"
     inkscape:cy="251.52448"
     inkscape:document-units="px"
     inkscape:current-layer="layer1"
     showgrid="false"
     units="px"
     inkscape:showpageshadow="false"
     inkscape:window-width="1920"
     inkscape:window-height="994"
     inkscape:window-x="0"
     inkscape:window-y="21"
     inkscape:window-maximized="1" />
  <metadata
     id="metadata7">
    <rdf:RDF>
      <cc:Work
         rdf:about="">
        <dc:format>image/svg+xml</dc:format>
        <dc:type
           rdf:resource="http://purl.org/dc/dcmitype/StillImage" />
        <dc:title></dc:title>
        <cc:license
           rdf:resource="http://creativecommons.org/licenses/by-sa/4.0/" />
        <dc:date>2019</dc:date>
        <dc:creator>
          <cc:Agent>
            <dc:title>Cristian Pozzessere  &lt; ilnanny &gt;</dc:title>
          </cc:Agent>
        </dc:creator>
        <dc:subject>
          <rdf:Bag>
            <rdf:li>ilnanny</rdf:li>
          </rdf:Bag>
        </dc:subject>
      </cc:Work>
      <cc:License
         rdf:about="http://creativecommons.org/licenses/by-sa/4.0/">
        <cc:permits
           rdf:resource="http://creativecommons.org/ns#Reproduction" />
        <cc:permits
           rdf:resource="http://creativecommons.org/ns#Distribution" />
        <cc:requires
           rdf:resource="http://creativecommons.org/ns#Notice" />
        <cc:requires
           rdf:resource="http://creativecommons.org/ns#Attribution" />
        <cc:permits
           rdf:resource="http://creativecommons.org/ns#DerivativeWorks" />
        <cc:requires
           rdf:resource="http://creativecommons.org/ns#ShareAlike" />
      </cc:License>
    </rdf:RDF>
  </metadata>
  <g
     inkscape:label="Livello 1"
     inkscape:groupmode="layer"
     id="layer1"
     transform="translate(0,-540.3622)">
    <path
       style="opacity:1;fill:#ced4de;fill-opacity:0.98867923;stroke:none;stroke-width:4.75087738;stroke-linecap:round;stroke-linejoin:bevel;stroke-miterlimit:4;stroke-dasharray:none;stroke-opacity:0.98113248;paint-order:stroke markers fill"
       d="m 1,541.3622 h 510 v 510 H 1 Z"
       id="rect1404"
       inkscape:connector-curvature="0" />
    <ellipse
       style="opacity:1;fill:url(#radialGradient990);fill-opacity:1;stroke:none;stroke-width:1.29999995;stroke-linecap:round;stroke-linejoin:bevel;stroke-miterlimit:4;stroke-dasharray:none;stroke-opacity:1;paint-order:stroke fill markers;filter:url(#filter1000)"
       id="path982"
       cx="255.68611"
       cy="832.40436"
       rx="75.849281"
       ry="72.988571"
       transform="matrix(2.405879,0,0,2.405879,-359.14985,-1206.302)" />
    <path
       style="color:#000000;font-style:normal;font-variant:normal;font-weight:normal;font-stretch:normal;font-size:medium;line-height:normal;font-family:sans-serif;font-variant-ligatures:normal;font-variant-position:normal;font-variant-caps:normal;font-variant-numeric:normal;font-variant-alternates:normal;font-feature-settings:normal;text-indent:0;text-align:start;text-decoration:none;text-decoration-line:none;text-decoration-style:solid;text-decoration-color:#000000;letter-spacing:normal;word-spacing:normal;text-transform:none;writing-mode:lr-tb;direction:ltr;text-orientation:mixed;dominant-baseline:auto;baseline-shift:baseline;text-anchor:start;white-space:normal;shape-padding:0;clip-rule:nonzero;display:inline;overflow:visible;visibility:visible;opacity:1;isolation:auto;mix-blend-mode:normal;color-interpolation:sRGB;color-interpolation-filters:linearRGB;solid-color:#000000;solid-opacity:1;vector-effect:none;fill:#ffffff;fill-opacity:0.34339622;fill-rule:nonzero;stroke:none;stroke-width:1.29999995;stroke-linecap:butt;stroke-linejoin:miter;stroke-miterlimit:4;stroke-dasharray:none;stroke-dashoffset:0;stroke-opacity:1;color-rendering:auto;image-rendering:auto;shape-rendering:auto;text-rendering:auto;enable-background:accumulate"
       d="m 168.49163,701.20854 c -17.30241,11.02728 -25.58794,33.91751 -22.37811,53.40447 5.47724,10.6224 27.1484,20.77259 27.74129,26.87701 -13.35847,-8.44074 -28.33312,-14.22493 -43.6196,-18.57006 -9.2695,-1.82022 -33.820995,-18.26118 -16.03379,-2.65227 10.11932,7.16517 36.50793,12.35056 39.35426,16.60684 -29.73506,-8.639 -66.498695,-3.73288 -88.929375,-29.22202 0.62335,13.98601 22.2422,22.41377 36.441535,25.34087 7.34435,5.05074 39.54976,1.54074 26.69335,12.74801 -10.12399,0.73008 -33.348245,-15.43892 -35.758655,-4.6189 -5.80481,-4.633 -29.40661,-13.82957 -43.71677,-13.43532 -12.28831,-0.51878 -30.78752,3.30866 -36.08957,12.99599 16.79621,-9.25888 36.99668,-11.52752 54.96207,-3.82311 8.7021,3.89207 30.83286,13.67221 10.37425,11.19946 -11.79372,0.16332 -15.33805,11.62891 -9.12642,17.92885 -19.8887,13.26391 12.32262,-2.24529 20.4467,2.67504 10.30464,3.09052 25.978525,0.52481 7.62781,-6.18319 -8.32956,0.55602 -18.89691,-10.70343 -19.52318,-1.68006 -12.15164,-9.6327 18.15133,-9.07804 21.93749,0.53522 24.132805,21.0786 44.565895,52.54844 79.309965,55.76935 -13.37484,0.31972 1.80136,23.7169 -1.86811,7.26026 6.82779,-5.97411 17.57517,-4.4042 5.42471,2.98166 -5.51964,9.85347 19.45656,17.88362 5.7112,5.31544 5.0635,-10.63346 20.61452,-13.94002 11.24842,0.56954 2.37959,19.35221 39.27828,1.1731 14.65016,-0.66002 4.81271,12.86511 -12.22626,-5.85453 0.83281,-11.83567 15.19846,-6.1916 10.58267,25.0812 27.68349,27.56616 18.24164,10.19022 44.65897,-5.32222 44.14621,-25.90037 12.09381,-14.1759 23.63252,21.13566 9.10746,12.63906 7.32902,-8.49208 -16.4538,0.49633 -1.95803,7.67331 13.89753,5.42538 22.21548,-16.6348 16.87183,-20.34782 15.05408,-2.31755 9.065,20.5382 13.27624,17.2945 14.31401,-4.82712 -3.52603,-21.36109 1.10937,-19.87626 8.94057,0.24289 14.22711,20.8613 13.93667,3.93263 -14.63611,-13.74287 16.96987,-6.4405 22.48861,-16.19309 24.22161,-14.90529 39.4152,-40.8306 64.20783,-54.94162 7.24463,-5.03156 19.88015,11.3741 6.604,7.1409 2.51696,-9.22608 -14.07722,8.49897 -20.25122,3.28356 -14.738,10.31017 1.14852,7.61883 9.31824,4.70094 7.66369,-1.05721 31.03228,6.96621 27.29984,1.87916 -13.86994,-3.47502 8.46923,-17.87201 -9.13153,-19.77023 -8.16066,-0.49221 -23.03461,-1.60199 -7.38222,-6.95876 19.96486,-13.57681 47.75839,-14.0202 68.27294,-1.36631 -12.70923,-16.31738 -37.08289,-15.33624 -55.4266,-10.95137 -17.49941,4.50055 -33.43696,13.73719 -47.54636,24.85302 -10.79581,-3.7953 20.45872,-9.62098 23.319,-17.39894 -13.35614,-6.97525 -30.90681,16.97325 -39.99743,3.42861 15.13106,-8.53315 34.4871,-6.5392 49.83492,-14.99549 7.83097,-1.15605 25.31146,-27.47443 9.99107,-12.75206 -23.78418,19.63563 -58.07946,15.55196 -85.22479,23.4265 16.26471,-8.73185 38.7087,-8.63192 49.62288,-25.3434 -20.27464,14.40893 -47.19286,15.04039 -66.83964,30.57998 -8.96573,-6.78966 19.72565,-10.3758 20.11623,-21.40727 16.26787,-12.91092 4.17481,-37.61498 -5.93757,-51.19472 -17.66319,-17.66501 -0.7185,12.20831 0.82647,21.25136 -0.75575,15.20411 -14.41432,27.61148 -28.94775,31.09176 -13.1155,10.37651 -29.5305,1.2266 -41.59154,-0.66602 -17.27195,4.55194 -36.79857,2.67818 -53.94279,-1.19484 -12.02997,3.16561 -24.00602,11.93374 -37.61381,2.49658 -17.14618,-3.5864 -38.42429,-21.09764 -29.07935,-40.0283 2.67933,-7.01949 7.096,-13.72277 7.12489,-21.47855 z m -0.78335,1.96637 c -4.16174,5.22281 -9.08284,32.65756 -11.18127,26.35249 -3.19946,-16.39761 -13.13208,23.91256 -7.87099,2.0728 2.78635,-11.31473 9.73477,-21.47092 19.05226,-28.42529 z m 176.42258,1.31091 c 11.99573,2.62773 18.81989,34.65649 18.35199,30.50877 -4.22989,-22.11754 -9.31425,5.22211 -9.20706,-5.66862 -2.84837,-8.34963 -5.79905,-16.67534 -9.14493,-24.84015 z m -189.64588,20.9426 c -0.55685,5.50837 6.96924,25.54213 -3.18575,15.91295 -4.75224,11.94842 -0.7391,-14.67973 3.18575,-15.91295 z m 201.90998,0.21696 c 5.9678,4.70517 6.56377,23.446 2.22215,17.17553 -10.45122,6.15775 -0.46643,-13.49575 -2.22215,-17.17553 z m -198.7035,11.51958 c 2.36138,4.70331 14.68041,19.75785 2.52099,10.75681 -8.61317,-1.08847 -0.7495,11.30255 -8.98453,3.53992 -1.05355,9.24693 8.76122,11.63833 -2.55831,4.48431 -7.44102,-4.63241 -0.0726,-18.8731 0.97883,-10.38773 7.41844,1.48497 9.60594,-2.26077 8.04302,-8.39331 z m 195.86928,0.10277 c -5.88287,14.21897 19.22901,2.41474 9.50026,17.88879 -10.86377,10.64543 3.25536,-7.31652 -9.75115,-6.55907 -17.77348,4.08448 -0.72853,-3.25332 0.25089,-11.32972 z m -192.19006,11.6703 c 12.61054,4.1637 7.4185,21.17829 -1.7303,7.83539 -3.73978,-2.58865 -4.49312,-8.2443 1.7303,-7.83539 z m 188.20708,0.16443 c 17.23041,6.16637 -21.61113,20.38782 -3.92664,3.32498 l 1.8847,-1.80895 z m -283.990345,1.15333 c 21.69449,23.47224 56.292625,19.47394 84.672285,27.21725 20.21933,1.67375 -16.32822,-9.70844 -22.2276,-12.41964 -5.59653,-1.55271 -21.0919,-10.47966 -5.61937,-3.62922 19.55075,3.86841 38.14639,17.36326 55.90294,20.68481 -7.77184,-8.65758 6.10701,-8.44498 6.99327,-18.22706 -15.26341,-7.02848 24.67557,3.15836 2.90614,5.45125 -10.45243,11.17898 33.39785,13.15273 7.78275,10.5369 -8.21771,-2.87889 -19.28048,-2.50569 -4.57335,1.45458 6.94721,1.3926 11.07714,4.89187 1.60687,2.00537 13.23648,14.13 -39.82745,16.33844 -14.76059,10.61068 -1.49646,-12.18457 -19.41069,5.19996 -14.42162,-8.74259 -7.40554,-6.95806 -9.92014,18.26959 -19.75607,4.20179 23.58873,-0.6505 -9.29357,-21.20687 -7.82628,-1.41297 0.49716,8.37594 11.87088,8.06171 1.88209,8.37426 9.74791,8.73028 5.07714,10.28429 -4.2792,3.28917 -4.29516,-0.75524 -28.08041,1.09106 -13.44035,-3.43028 -2.04544,-8.08712 -23.172725,-10.72622 -23.629625,-16.91358 11.639615,-2.34819 33.884255,18.79541 35.336275,-1.03043 -17.65731,-3.56007 -35.907885,-6.09562 -52.357765,-14.5901 -5.8487,-3.02509 -11.21984,-7.43867 -14.1908,-13.43019 z m 379.533845,0.19184 c -14.82738,22.02029 -44.30038,21.96735 -67.40441,28.16032 2.94147,18.86829 26.38878,-1.33895 38.16475,0.48811 -3.39618,6.59321 -28.84747,8.7075 -24.53576,21.37447 -7.06327,-4.62951 -27.26812,4.41859 -23.77886,3.15851 10.23691,-6.79132 1.05942,-8.85433 -0.43669,-8.54169 22.30986,-4.70333 -5.47226,-26.09454 -8.49236,-8.71384 1.12375,6.73255 14.69591,-1.62741 3.34669,5.64888 -9.4896,7.40892 -12.85687,-21.69696 -14.04366,-2.11021 -3.72571,0.19336 -21.84307,-1.59773 -11.47488,6.89032 -7.27909,-2.47996 -25.27437,-1.85904 -18.90909,-11.72017 -24.76313,1.96646 27.33944,-9.58315 3.01707,-6.58515 13.76998,-1.97412 -13.49006,-18.22866 6.42759,-15.60965 6.78645,-1.25146 14.7981,-13.35664 13.76258,-0.86102 7.39533,8.08719 19.75258,-17.79948 10.0687,-2.03241 -3.95349,6.47826 1.15277,11.69356 -11.13439,14.711 -16.54138,6.64778 0.57461,12.5342 7.02324,3.20861 13.74043,-7.80943 45.7921,-16.9211 49.8943,-19.48011 -11.33471,8.96472 -39.10435,12.65295 -42.69283,19.46781 18.57155,-2.30037 36.92698,-6.23708 55.42994,-9.00949 13.18454,-2.8772 26.94136,-7.64225 35.76807,-18.44429 z m -87.2715,1.90699 c 4.1864,6.95726 -16.86301,19.50699 -4.39795,6.37733 1.53314,-2.07903 2.94106,-4.24538 4.39795,-6.37733 z m -204.91321,0.17814 c 6.3631,6.22405 13.25457,19.77026 1.77267,6.24208 -0.47969,-1.02562 -5.89814,-5.99745 -1.77267,-6.24208 z m 15.4249,0.70342 c 15.64377,1.88113 1.13336,14.2475 5.69095,17.45301 5.12878,4.38943 -14.65151,-5.02099 -2.51734,4.21093 -0.584,1.07368 -23.00424,-14.38528 -7.6436,-8.59443 -1.63797,-6.47127 -9.89685,-13.41951 -1.19278,-3.56874 5.94897,4.5619 13.87428,-6.68446 5.66277,-9.50077 z m 56.93099,7.15748 c 7.80695,4.716 21.92802,2.3216 14.4409,14.2251 1.47001,26.64504 -2.1392,-19.75823 -17.74308,-10.01836 0.95033,12.06761 -11.96759,35.38839 -22.2,25.22981 7.59588,1.95206 7.0426,-1.6694 3.94033,-4.92647 7.48782,2.1641 2.33697,-5.15323 11.173,-6.01131 -16.57211,-3.6442 12.95254,-6.12514 -2.42279,-10.57053 -16.19221,1.0093 8.33756,-0.19197 12.81164,-7.92824 z m 107.14985,0.4796 c -23.48872,2.61617 17.17053,20.61136 3.44245,1.92559 l -1.53232,-1.35995 z m -45.89103,0.0982 c 4.9808,7.63094 19.39412,5.3399 6.873,11.1107 4.53135,5.42832 14.68932,0.49221 3.60817,6.43907 2.70009,7.26404 33.85993,-4.17334 12.02001,2.28741 -5.58974,-0.63727 -11.43163,6.86506 -1.85251,5.21401 -12.14034,6.12262 15.55843,3.05324 -0.61613,5.49813 -21.27636,7.41537 32.18952,6.41523 6.94902,8.04638 -14.08125,-5.81042 -34.52611,7.48625 -25.16574,23.47489 9.93246,-4.60848 -14.51576,28.52229 -4.05963,9.28645 -0.58613,-18.68808 -20.29478,9.12345 -17.03502,-4.54579 0.31887,-15.43302 22.0929,-22.06118 31.36677,-34.43126 3.10835,-9.11278 -11.58788,-15.39869 -9.20037,-27.57852 -12.79911,-15.09548 -21.35541,33.86006 -17.18975,5.23184 -11.37037,-10.12125 9.83131,-4.57545 14.30218,-10.03331 z m 46.37291,1.10993 c 15.90837,8.87606 -7.77746,12.97351 -5.66377,2.02102 l 2.15282,-1.08438 z m -154.69435,0.0457 c 17.85438,3.21842 -14.30299,15.23883 -1.12569,0.62416 0.26093,-0.3692 0.64238,-0.61806 1.12569,-0.62416 z m 107.43532,1.42055 c 3.25581,9.81139 9.52254,21.29544 12.29813,28.26604 -11.87709,8.94965 -21.45834,23.9394 -34.44738,28.78971 -10.89729,-7.73046 9.43427,-18.82653 2.8995,-31.25926 0.98115,-9.88308 -1.76709,-21.62668 -4.65076,-5.68123 4.98406,10.42254 -7.25106,28.92498 -12.32078,11.12092 3.58504,-8.84532 -7.86243,-32.53262 -5.57657,-12.30964 -1.77622,12.092 5.89296,29.84464 4.71747,36.88126 -15.86694,-1.73602 -23.45745,-22.121 -36.4169,-28.82896 5.50023,-7.95525 13.38153,-17.25598 12.11773,-25.32755 13.49588,-3.58232 15.71638,40.37329 17.06089,12.45528 -2.56175,-17.6458 10.67326,-3.67117 14.23342,3.0684 3.26316,-4.96995 14.15135,-22.35086 14.86031,-4.65529 -0.67817,9.86856 0.59501,15.56271 3.86161,2.09696 1.61949,-5.99856 4.19698,-13.55054 11.36333,-14.61664 z m -31.21749,0.30831 c 12.68834,0.0294 10.34985,4.31439 3.92618,11.06328 -2.82713,9.62906 -21.87462,-15.97817 -6.45411,-10.40077 z m -62.09697,3.41887 c 8.14735,1.84076 34.80538,3.96714 12.57807,6.55698 3.95024,3.45983 11.90095,8.69103 -1.75122,4.69387 -6.60588,-1.39779 -24.16684,-1.61902 -10.82685,-11.25085 z m 126.21285,0.0594 c 18.53949,11.91219 -32.9795,15.82202 -11.77596,7.39467 -10.1777,-0.85141 -16.39422,-5.44125 -2.41798,-5.25152 4.77896,-0.32243 9.54116,-0.99399 14.19394,-2.14315 z m -272.710585,1.49361 c 24.82687,0.62725 48.05406,12.23225 67.203615,27.40134 -8.21947,10.49903 15.77046,27.34067 21.43376,32.3608 2.77795,-14.81341 10.90085,16.54386 20.10191,16.57701 19.93047,9.91054 42.48915,11.36908 64.27192,13.3858 -19.36464,-1.24671 -8.74097,31.36417 1.451,16.01334 -0.65627,18.57106 -30.39013,-1.75991 -16.03318,-13.66786 -12.18883,-4.35938 -17.28151,15.93816 -18.77366,14.62127 -12.20636,-9.83238 17.48656,-17.87684 -1.2521,-16.24254 -9.4246,-0.66475 -12.95774,16.4189 -8.1018,0.53166 6.04335,-7.20155 -19.7508,-5.5803 -25.6073,-13.63348 -23.42736,-13.27431 -37.07721,-38.46201 -60.222505,-51.86506 -9.38039,-9.10079 -29.87284,6.38903 -11.00924,7.44982 -1.57608,-7.37908 12.63461,5.12939 19.89019,2.66989 13.353925,8.45941 -19.78978,-1.02602 -27.82917,4.16731 -13.11643,3.22666 9.32207,-3.6303 -5.00285,-9.38487 -5.76547,-16.20544 38.833335,-3.62447 14.63634,-17.2444 -19.2776,-11.40136 -44.80163,-15.66407 -65.02921,-4.1737 8.69245,-6.05571 19.35316,-8.86394 29.87228,-8.96633 z m 413.480495,0.4796 c 8.91723,-3.22244 33.88949,5.41253 32.03709,6.71999 -23.48141,-10.99379 -52.0507,-3.35652 -71.0543,13.01218 12.9927,-3.14121 32.10298,6.41958 20.29017,17.59131 14.20331,7.86054 -15.52721,-3.9442 -22.05503,0.97014 -24.01991,4.60902 11.23529,-13.29182 15.3774,-4.54461 16.64282,-13.05232 -14.04713,-14.65029 -20.64409,-4.4182 -24.30583,19.7077 -42.88378,50.82041 -76.14426,56.36155 -9.11144,-1.56033 15.53441,-6.99197 20.75148,-10.44318 7.93822,-2.67843 16.76027,-30.0116 19.5242,-15.25675 7.72676,-8.18188 25.79266,-23.23043 21.34177,-32.64691 -6.86151,1.08636 14.83694,-10.66271 19.951,-14.23898 12.34912,-7.23779 26.35474,-11.95644 40.62457,-13.10654 z m -115.95852,0.70342 c -15.40196,1.89821 -6.91151,12.27551 0,0 z m -2.76114,2.00976 c -5.08433,3.30969 -5.60351,2.53072 0,0 z m -169.84062,0.24665 c 5.22291,2.29393 5.63841,3.84233 0,0 z m 73.427,2.8936 c 7.70904,7.4821 0.004,39.30494 18.2624,24.46449 1.71052,-6.12925 0.45669,-31.58786 3.05269,-12.67785 4.33726,13.25743 -13.58088,29.31938 -1.53724,36.52527 -6.4832,14.70721 -22.42977,-8.5165 -22.96472,8.1631 -8.78988,-13.82427 -19.63484,-1.60649 -12.10679,6.71781 -6.3508,-8.36555 -14.73507,-21.3893 -4.3192,-17.03269 2.75655,-14.41551 -9.95193,-25.64429 -21.02699,-21.56634 -4.42578,-4.00238 -22.65877,3.60012 -6.77123,-1.9723 15.05564,-6.0093 29.31309,0.96141 36.58095,15.94077 5.44757,13.10435 30.4735,5.03781 13.70807,-6.60043 -5.41632,-10.02705 2.60826,-21.94451 -2.87794,-31.96183 z m 40.22487,0.39053 c -8.44109,8.59883 -7.90577,25.28868 -12.0213,34.56549 12.23773,-8.84346 9.98903,-22.13685 12.0213,-34.56549 z m -56.5336,0.13931 c -4.67955,9.93891 4.32701,35.67257 11.54733,31.83805 -7.61316,-9.33658 -3.82056,-22.77222 -11.54733,-31.83805 z m 0.20326,1.28579 c 2.81516,8.88696 8.06466,28.6865 8.99972,30.6992 -9.39644,-9.40608 -7.48724,-20.62963 -8.99972,-30.6992 z m 54.76593,0.0206 c 0.0557,10.44509 -2.55095,26.66126 -9.74904,29.789 7.80408,-9.00684 4.11177,-20.76076 9.74904,-29.789 z m 159.39216,1.90014 c -16.74132,3.12854 -3.80002,11.2814 6.05667,8.76716 13.87922,0.005 31.14006,10.81278 38.06509,16.04002 -5.37569,-17.49963 -27.90462,-23.19626 -44.12176,-24.80718 z m -373.216805,0.21924 c -16.37499,-1.01354 -45.21484,12.71518 -43.36495,25.2902 13.51771,-16.01095 34.52767,-15.72151 53.27446,-19.53509 -2.37225,-3.06286 -5.84593,-5.76455 -9.90951,-5.75511 z m 250.491325,0.97976 c -9.29511,3.92083 -21.26047,4.58553 -5.21205,1.26869 1.73836,-0.41876 3.47482,-0.84534 5.21205,-1.26869 z m 122.77573,0.12104 c 15.41652,-2.51867 43.974,16.72282 41.45812,21.04626 -10.74096,-14.97898 -40.00145,-12.73502 -48.23853,-18.23947 1.95408,-1.53031 4.34461,-2.42731 6.78041,-2.80679 z m -373.241935,0.19861 c 15.29318,8.024 -18.68002,5.00275 -23.95155,9.33231 -8.99638,2.2532 -28.2043,21.87681 -12.49951,3.79593 10.12203,-8.50291 23.40079,-12.50887 36.45106,-13.12824 z m 76.124195,0.43164 c 13.0287,-1.61252 0.13225,14.80566 -0.29924,2.9004 -8.46022,15.22462 21.34259,7.77458 17.27442,1.56368 -3.09378,13.45639 5.17328,4.67842 12.17639,6.01597 5.58911,9.66281 -15.64141,0.0171 -3.34424,9.78729 6.03373,3.03079 31.08805,17.54498 12.32717,8.79626 -13.22259,-9.38244 -30.08089,-10.48869 -43.58064,-18.7849 -6.77452,-3.96578 -1.31668,-12.3671 5.44614,-10.2787 z m 224.1338,0.0274 c 11.35059,17.92126 -24.05087,16.75184 -33.93309,24.55863 -3.73054,3.83381 -24.58343,13.31666 -11.0336,4.02747 11.37993,-4.83558 31.40774,-15.48869 10.39925,-15.91612 3.91334,-8.01888 18.23471,7.05663 14.18641,-8.4323 1.13676,12.78293 26.04406,8.17605 17.75609,0.4894 -11.92296,9.01356 -6.91314,-8.56143 2.62494,-4.72708 z m -173.56781,0.5093 c 15.55345,2.82096 10.63661,3.62022 0,0 z m -10.93263,1.68317 c -18.73813,11.20526 14.21107,11.80351 2.0724,-0.0215 z m 139.32883,0.10505 c -8.92209,4.53739 7.02783,10.53151 5.09325,11.33816 7.40056,-2.07145 1.71352,-14.93864 -5.09325,-11.33816 z m -226.214365,0.85871 c 9.204505,-0.60557 30.273075,18.65789 10.444125,7.50069 -3.57708,-2.36521 -6.98102,-4.97543 -10.444125,-7.50069 z m 86.869545,0.33572 c 9.68377,3.16026 -7.1679,6.13346 -3.60372,8.59489 -3.75987,-2.46847 -0.96576,-9.73556 3.60372,-8.59489 z m 139.58233,0.0822 c 10.68542,-4.22386 3.68854,16.40282 3.36413,3.61757 -2.73185,4.10276 -9.28975,-2.01899 -3.36413,-3.61757 z m -8.23545,0.5504 c 1.40425,8.53633 -19.57126,1.80055 -3.97955,1.03406 z m -121.38259,0.0434 c 18.61573,0.13156 2.5643,10.3785 0,0 z m 117.72163,6.57283 c 9.22639,3.49156 37.29464,6.90336 14.40322,13.8604 -7.12759,6.04753 -31.85113,4.12069 -26.73537,-4.64737 2.45599,0.90313 13.43036,6.88087 7.69363,-0.73789 6.07653,4.29767 30.29045,-2.75735 10.93628,-2.40774 -7.95926,-2.58897 -27.39584,-3.25652 -6.29776,-6.0674 z m -115.26424,0.0891 c 12.54503,0.0885 11.53193,5.68854 -0.0863,4.78703 -7.76828,0.43921 -19.73206,4.57046 -4.7405,4.78649 11.316,-4.89445 8.24446,6.83894 17.4695,-0.68374 14.54784,-3.64216 19.98174,34.34998 3.47238,15.69272 5.17868,6.08907 16.8152,31.69668 18.4748,23.01238 -12.45928,-11.81232 7.7887,-19.22897 8.63156,-3.70214 5.81575,15.39427 -21.06072,1.36853 -7.08355,13.24623 6.43525,4.39041 17.90042,26.46757 12.19886,6.94881 -3.27229,-13.59847 16.15424,7.32611 5.5614,-8.20405 -11.13901,-11.18429 -8.17741,-29.65344 6.85002,-16.07282 11.55156,-15.71488 9.85744,11.83808 1.95205,17.38629 -8.16932,10.52842 -2.46527,6.49035 4.37519,1.4139 5.76911,1.79908 -5.82081,22.59426 4.1268,9.22088 7.38182,-8.24952 16.84719,-17.40356 1.86837,-18.18159 -6.91113,-14.37704 22.84208,-19.20987 8.73066,-2.58494 -2.78269,8.64161 14.68689,-10.33947 14.64661,-16.82213 6.25,-11.43032 -12.07458,8.56834 -5.97255,-7.32378 0.085,-7.21645 12.32535,-20.39252 7.84232,-4.89342 20.3007,12.68636 -14.049,24.14075 -11.02097,39.68871 -4.43891,6.72415 -27.02707,19.29673 -12.40317,24.13612 5.76993,0.27921 9.34453,-9.69035 1.07823,-4.85837 7.05348,-16.89721 16.24603,7.44024 0.43134,7.15731 -7.12692,1.02796 -25.95178,8.68817 -8.39413,4.20591 20.79888,-0.4945 -15.80378,17.92167 -22.59297,4.74041 -13.9473,-10.42442 25.26746,1.06902 5.22164,-6.06641 -9.43228,1.30116 -31.63028,-14.23989 -13.26174,-15.56788 9.35103,9.93683 -10.10014,0.54533 1.24061,8.31931 18.06789,7.16594 0.0803,-16.51627 -6.61707,-19.26242 -1.5421,-15.13131 -24.09628,-24.22957 -18.6409,-39.24154 10.28266,-4.17966 2.99699,-17.15945 -3.96544,-5.34149 -7.81914,6.12566 -34.85291,-3.47796 -31.03311,-10.47772 7.86633,0.62346 14.16403,-3.97993 21.64001,-5.45806 z m -52.00023,4.19994 c 16.65859,2.67898 36.90507,17.08088 48.68943,19.0722 -8.4711,-13.26345 14.91615,1.97569 19.01919,-9.61325 2.51431,3.6682 -3.9769,11.54377 -1.54008,3.66853 -6.38597,1.74334 -21.64324,-0.63068 -12.57759,10.88678 -4.35347,9.64366 12.80777,28.0983 -1.75299,18.26916 -6.10408,17.44226 25.8836,4.73679 10.97258,-7.22814 -8.48226,-1.14749 -8.65509,-10.08028 -0.67853,-9.6678 7.53537,2.84245 16.93103,31.68337 30.43721,38.70185 9.19341,4.94886 -2.44952,20.43738 0.46454,5.2316 -5.76959,-12.00855 -16.56216,6.8188 -14.47803,-4.63598 -11.02436,-10.67835 -30.36312,-6.50179 -44.06742,-14.23296 -20.00629,-7.27524 -36.47895,-21.17972 -53.81319,-33.02493 -10.25081,-12.4042 13.87443,6.21852 18.93852,9.43419 6.01001,5.23518 34.44138,22.98996 17.97343,4.8388 -8.33094,-6.61148 -11.00742,-18.35812 -1.84078,-4.67516 7.04403,11.87255 19.90702,0.81215 5.98136,-4.11954 6.141,-23.20105 -33.93446,6.24314 -23.92295,-8.21187 7.6659,-2.87722 26.09568,-6.79242 8.78248,-11.19307 -1.23957,-1.0955 -7.88302,-0.30635 -6.58718,-3.50041 z m 198.14168,0.26264 c -4.64812,2.69062 -6.14581,-0.75784 0,0 z m 20.63885,0.23523 c -9.97185,3.64518 -19.93913,11.50242 -2.58197,10.51557 11.71568,1.96918 10.96939,14.3365 -0.2491,5.19783 -9.53782,-5.9885 -19.25755,-1.06825 -19.45946,6.63389 -12.36866,7.57609 5.01313,15.63815 8.31164,2.80868 20.80887,-19.90262 -22.27093,26.50123 0.44839,11.31346 13.29341,-7.40683 24.33211,-18.67629 38.58398,-24.33505 -16.26802,15.17145 -35.64684,27.03066 -55.34064,37.13022 -14.96426,8.48975 -38.5376,3.67364 -47.96618,15.64308 2.9432,14.04518 -5.84398,-10.91671 -11.06982,1.93549 -6.63907,4.1921 6.10176,13.13491 -5.417,7.73898 2.50294,-13.48252 19.86825,-20.18017 21.99891,-34.89137 5.71609,-8.77137 19.65293,-23.36684 17.60688,-7.70834 -20.6218,1.58943 -1.59732,31.31193 7.42241,12.59518 -3.72001,-9.97262 -10.79373,9.56874 -9.52208,-4.27478 9.5985,-4.18931 4.20855,-19.30187 6.94474,-26.17273 -5.9317,-3.88376 -17.17759,1.67173 -14.66065,1.25508 -9.06374,-17.44145 9.50925,6.81051 17.95102,-2.17233 6.73007,-0.98618 18.84498,-6.5439 5.11315,-1.16668 -13.92741,14.51385 8.78552,2.10518 14.97243,-1.93275 8.6919,-4.06304 17.7398,-7.3233 26.91335,-10.11343 z m 7.42013,0.30832 c -12.8962,7.43019 0.22091,13.74531 6.28191,3.77174 5.91696,2.0335 25.42227,-2.76192 20.49486,1.60142 -7.11293,9.12142 -15.28529,27.39768 -24.55363,21.18707 -8.73806,13.76534 -20.59735,25.63459 -37.89263,28.19202 -14.14519,3.01633 -28.75189,4.62417 -43.12489,5.16444 21.90922,-2.71014 44.30955,-8.21361 62.66706,-21.45111 10.93055,-9.93011 30.89578,-14.93412 35.02726,-29.25066 -15.86808,6.71133 -29.23968,20.39551 -45.02018,28.38833 -5.03468,4.3473 24.1419,-26.97803 6.50241,-16.87316 0.98158,10.94336 -22.47545,11.82617 -7.35104,3.52861 -0.15714,-20.28256 16.98345,-3.32855 27.78271,-4.57834 7.54352,-9.74656 -33.06701,-10.86838 -10.19272,-16.62781 3.0955,-1.11011 6.24225,-2.06763 9.37888,-3.05255 z M 139.341,796.82055 c 8.69626,2.2468 28.77035,8.67997 8.37839,9.98029 -12.72638,0.18545 -11.91806,17.1685 0.17542,7.73118 10.20401,-7.53845 18.11773,-2.15648 20.56399,6.66215 11.42023,6.29594 -3.61475,8.46124 -6.30629,-0.60704 -7.38057,-9.46565 -13.23116,-4.86537 -3.82279,3.96168 6.67022,5.91907 11.03452,14.46653 0.0951,5.65775 -12.75187,-6.44146 -28.60486,-23.1352 -39.29809,-23.36582 3.218,11.21541 23.07306,13.11217 14.37856,19.29209 -4.73951,-2.02612 -22.67431,-20.30491 -19.98842,-26.88541 10.54524,3.36117 23.12111,-1.58692 31.33268,7.50789 4.90574,-2.36609 -3.60905,-8.72099 -5.50852,-9.93476 z m 43.57523,9.58518 c 7.12792,1.77225 6.38564,3.08511 0,0 z m 102.05922,0.56182 c -13.7153,8.00912 -2.67318,19.7995 2.21344,4.37433 l -0.54051,-2.39285 z m -59.11661,0.005 c -10.24101,8.02323 16.15285,20.31428 4.95108,5.8988 l -2.22435,-3.16541 z m 0.14617,1.85903 c 13.40309,11.42665 -4.689,10.42289 0,0 z m -0.68744,0.99118 0.24264,0.0318 z m 59.5414,-0.96148 c 4.06316,9.73757 -14.20509,12.80915 0,0 z m 16.09862,2.2587 c 14.51612,-5.80549 12.76656,19.26952 3.08537,4.37956 l -1.32317,-1.91579 z m -90.94159,0.10505 c -0.15239,14.49916 -19.07617,6.29594 -9.19863,0.90717 3.08918,0.0896 6.18192,-0.25196 9.19863,-0.90717 z m 128.59717,0.98432 c -3.78826,7.06376 -20.66071,-2.45898 -20.89161,13.98016 -5.36953,7.90209 9.88388,10.62472 6.73432,3.64846 13.50714,5.71955 -16.58221,15.95098 -1.35629,15.3158 16.45924,-5.22671 2.89654,-19.81304 -3.14989,-20.98079 2.29642,-6.97073 33.85867,-0.29947 18.66347,-11.96363 z m -167.98616,0.10735 c -10.07534,12.59492 34.09864,6.34507 15.38469,14.70768 -20.25546,5.71346 15.52641,30.65388 3.48486,13.48683 -9.11574,-2.46692 -4.85747,-16.30184 -1.47983,-5.91681 18.98061,-8.75028 -6.64893,-22.85285 -12.83723,-20.53856 -0.89303,-1.52706 -2.87683,-2.24607 -4.55249,-1.73914 z m 169.26052,1.23554 c 4.37336,12.4213 -26.95263,1.99716 -8.48721,2.81428 10.19476,7.23294 3.68747,-2.70421 8.48721,-2.81428 z m -168.97733,0.032 c 1.15799,10.02494 17.56771,-2.69214 13.61128,5.64473 -3.72272,0.69257 -17.64004,1.50114 -13.61128,-5.64473 z m 20.38764,9.64914 0.8642,1.33513 z m 128.12669,0.3791 -0.86424,1.33929 z m -126.83177,1.76768 c 1.50211,11.56291 -6.69472,5.13543 -6.69479,3.27263 -4.30268,1.04162 8.27494,0.3327 6.69479,-3.27263 z m -51.51377,0.14388 c 21.84342,17.1972 48.26324,28.51825 76.08695,30.74366 -5.53114,1.20298 -26.74501,-2.00091 -38.26961,-4.04696 -15.05104,-3.45632 -33.90382,-9.60434 -37.81734,-26.6967 z m 59.25819,0.31059 c 12.26778,6.22435 11.90629,27.63075 -3.43219,16.93607 1.14914,-9.25214 7.95759,8.19564 8.05699,-5.1429 -0.0384,-6.26206 -6.90692,-4.98965 -4.6248,-11.79317 z m 117.70336,0.20099 c 11.41986,-3.87705 14.86419,19.34166 3.02383,16.00504 13.3772,-0.0763 2.48106,-20.48099 2.60758,-10.36833 0.13057,5.25801 -10.51057,-1.9483 -5.63141,-5.63671 z m -7.51603,0.66459 c 3.29276,5.80796 -13.12635,17.51465 0.0427,16.21915 0.26354,-9.38895 7.29683,4.37051 -3.45719,2.93952 -14.32515,-6.07222 -1.74089,-14.49556 3.41454,-19.15867 z m -127.89147,4.04235 c 0.0426,8.63567 12.98603,17.14508 -1.25143,7.58352 -1.38213,-2.40689 -0.9577,-5.78967 1.25143,-7.58352 z m 110.63266,3.34808 c -13.98481,7.88803 -1.6012,31.22261 4.81102,14.05716 -2.85372,-3.98706 -7.61256,-8.73394 -4.81102,-14.05716 z m -74.90235,0.16444 c -3.50099,9.58263 -10.30847,23.69379 6.57374,17.89668 0.84913,-6.46668 -3.72339,-12.44463 -6.57374,-17.89668 z m 24.51678,0.62119 c 0.8514,5.96714 14.07625,17.83309 0.35854,16.01665 0.6352,9.27473 3.65771,12.08619 -3.89056,2.20911 -14.61383,-10.0964 6.78394,-4.61262 2.15168,-16.67515 l 0.39055,-1.05931 z m 25.01008,0.27178 c -4.42089,9.41161 18.0747,9.33725 4.38549,17.23803 -3.83884,6.72081 -8.88378,9.19114 -4.03464,0.15006 -5.57505,-4.21956 -11.97222,-1.43129 -3.6583,-10.06005 1.34235,-2.32134 2.57776,-4.73425 3.30745,-7.32804 z m -48.91479,2.84335 c 7.75067,6.01409 4.49159,20.69481 -5.81694,12.07237 4.27223,-2.42117 5.40159,-7.60054 5.81694,-12.07237 z m 73.01362,0.47731 c 8.41204,6.20691 -1.30693,21.27825 -4.42385,10.05476 0.70143,-3.6353 2.39495,-6.99396 4.42385,-10.05476 z m 39.16975,15.28559 c 2.43819,6.54808 10.71743,21.04605 2.77338,8.06206 -6.59635,-5.54007 -22.08091,-1.44198 -7.29651,3.83534 6.12259,6.82135 -9.077,17.25988 -2.61597,4.89534 -1.50361,-8.88664 -27.75081,-13.61569 -13.20747,-2.05315 6.40641,14.49434 -26.57679,14.34229 -18.03303,6.1415 14.89122,15.7718 8.76065,-24.69286 1.73442,-16.62386 12.3215,-0.2525 24.50141,-2.3385 36.64518,-4.25723 z m -48.50599,18.16777 c -3.71362,6.79954 -7.90847,13.46682 -10.63558,6.63099 -10.81272,1.16649 11.80396,-2.69397 10.63558,-6.63099 z m -54.47818,0.0776 c 3.54608,5.28598 22.59082,8.11286 7.63029,5.61139 -3.86941,10.49212 26.29323,14.12907 5.72124,9.2616 -6.05534,-3.20394 -10.08972,-9.04347 -13.35153,-14.87299 z m 42.64573,13.85592 c -12.39719,5.1462 -9.87553,3.88914 0,0 z"
       id="path956"
       inkscape:connector-curvature="0" />
    <g
       id="XMLID_1_"
       transform="matrix(1.1693143,0,0,1.1693143,6.6962277,699.99121)">
	<g
   id="g868">
		<path
   id="path816"
   d="m 422.0901,68.56 c -0.06,0.12 -0.13,0.24 -0.2,0.37 -2.34,-1.1 -4.64,-2.28 -7.03,-3.26 -2.67,-1.1 -5.39,-2.11 -8.14,-2.97 -4.08,-1.28 -8.35,-1.63 -12.58,-1.66 -3.35,-0.02 -6.72,0.54 -10.04,1.08 -5.15,0.84 -10.04,2.63 -14.68,4.95 -4.04,2.04 -7.9,4.45 -11.82,6.72 -0.76,0.44 -1.47,0.96 -2.16,1.49 -0.26,0.21 -0.41,0.57 -0.62,0.86 0.06,0.1 0.11,0.19 0.16,0.29 0.8,-0.08 1.64,-0.04 2.39,-0.27 4.62,-1.39 8.9,-0.23 13.18,1.48 2.01,0.81 3.6,2.11 5.09,3.57 1.5,1.47 1.01,4.33 -0.96,5.75 -1.09,0.78 -2.33,1.35 -3.49,2.02 -0.3,0.18 -0.57,0.41 -0.9,0.65 3.46,2 6.82,3.94 10.18,5.88 -0.05,0.12 -0.11,0.23 -0.17,0.35 -13.02,-4 -26.11,-5.88 -39.49,-1.37 0.61,-1.46 1.47,-2.65 2.55,-3.62 0.36,-0.32 0.74,-0.61 1.14,-0.88 3.18,-2.11 6.66,-3.13 10.52,-2.47 0.78,0.13 1.57,0.23 2.36,0.3 0.97,0.09 2.59,-1.08 2.92,-2.32 0.41,-1.52 1.59,-2.26 2.75,-2.99 0.47,-0.3 1.23,-0.14 1.73,-0.18 -0.52,0.97 -1.14,1.81 -1.44,2.75 -0.36,1.13 1.45,2.76 2.97,2.56 1.01,-0.14 2,-0.63 2.95,-1.07 1.38,-0.63 1.5,-4.49 0.32,-5.4 -1.17,-0.92 -2.69,-1.64 -4.16,-1.92 -2.92,-0.55 -5.9,-0.18 -8.71,0.77 -2.64,0.89 -4.96,2.45 -7.14,4.22 -1.76,1.43 -3.68,2.66 -5.36,4.17 -0.57,0.51 -1.13,1.03 -1.69,1.54 -2.68,2.45 -5.31,4.96 -7.9,7.49 -2.85,2.79 -5.59,5.67 -8.39,8.51 -2.29,2.33 -4.54,4.69 -6.9,6.95 -7.21,6.92 -14.99,13.04 -24.41,16.7 -3.15,1.22 -6.45,2.09 -9.72,2.94 -2.02,0.53 -4.13,0.71 -6.18,1.09 -0.04,0.01 -0.08,0.02 -0.12,0.03 l -0.55,-2.84 c 0.19,-0.03 0.37,-0.07 0.56,-0.11 2.2,-0.48 4.34,-1.17 6.52,-1.74 5.48,-1.44 10.69,-3.51 15.45,-6.62 5.45,-3.55 9.23,-8.28 10.23,-14.49 2.01,-1.08 3.77,-2.05 5.55,-2.97 0.26,-0.14 0.66,-0.18 0.94,-0.09 0.18,0.05 0.4,0.46 0.36,0.65 -0.18,0.71 -0.45,1.4 -0.71,2.08 -0.36,0.95 -0.75,1.89 -1.12,2.84 0.13,0.09 0.26,0.18 0.38,0.27 0.43,-0.25 0.95,-0.4 1.27,-0.74 2.8,-2.95 5.78,-5.75 8.28,-8.93 3.91,-4.99 7.51,-10.23 11.19,-15.4 0.39,-0.55 0.46,-1.33 0.68,-2 -0.75,0.12 -1.61,0.04 -2.22,0.4 -0.98,0.57 -1.98,1.07 -2.99,1.47 l -1.09,-2.44 c 0.95,0 1.9,-0.36 2.77,-1.01 3.97,-2.93 7.94,-5.87 12.07,-8.55 0.77,-0.5 1.54,-0.99 2.32,-1.47 5.46,-3.35 11.21,-6.21 17.26,-8.34 4.69,-1.65 9.52,-2.93 14.36,-4.13 2.29,-0.58 4.71,-0.73 7.09,-0.82 3.41,-0.14 6.85,-0.23 10.26,0.02 2.7,0.21 5.4,0.81 8.03,1.5 4.13,1.09 8.02,2.79 11.63,5.09 1.6,1.02 3.1201,2.17 4.67,3.27 z"
   inkscape:connector-curvature="0" />

		<path
   id="path818"
   d="m 411.1302,88.8 c 0.13,0.31 0.06,0.69 0.08,1.04 -0.4,-0.17 -0.95,-0.23 -1.18,-0.53 -1.93,-2.52 -4.12,-4.78 -6.77,-6.54 -4.19,-2.78 -8.7,-4.88 -13.6,-6 -4.72,-1.09 -9.49,-2.06 -14.27,-2.83 -3.14,-0.51 -6.35,-0.58 -9.53,-0.86 -0.3,-0.02 -0.62,-0.11 -0.85,-0.28 -0.07,-0.05 0.05,-0.53 0.21,-0.71 1.88,-2.21 4.28,-3.51 7.7,-4.09 2.94,0.44 6.43,0.79 9.85,1.5 5.64,1.17 11.01,3.15 15.95,6.16 5.32,3.24 9.9599,7.18 12.41,13.14 z"
   inkscape:connector-curvature="0" />

		<path
   id="path820"
   d="m 376.3001,41.25 c 0.25,-0.27 0.43,-0.6 0.7,-0.86 -0.64,3.14 -2.29,5.72 -4.49,7.96 -5.08,5.15 -11.44,8.19 -18.12,10.54 -4.73,1.66 -9.58,3.01 -14.43,4.3 -3.17,0.84 -6.42,1.36 -9.64,1.98 -3.23,0.62 -6.46,1.22 -9.7,1.79 -1.06,0.19 -2.13,0.26 -3.2,0.38 -0.03,0.15 -0.07,0.3 -0.1,0.45 0.69,0.73 1.39,1.46 2.08,2.19 0.88,0.94 1.71,1.8 1.23,3.34 -0.34,1.11 0.66,1.91 1.83,1.53 1.42,-0.46 2.78,-1.12 4.2,-1.6 3.63,-1.24 7.25,-2.54 10.93,-3.61 3.15,-0.91 6.35,-1.67 9.57,-2.27 2.28,-0.42 4.64,-0.45 6.96,-0.65 0.04,0.1 0.08,0.21 0.11,0.31 -0.8,0.55 -1.58,1.13 -2.4,1.65 -1.21,0.77 -2.4,1.56 -3.63,2.29 -1.5,0.89 -3.06,1.67 -4.77,2.15 -2.13,0.59 -4.31,1 -6.43,1.6 -0.91,0.25 -1.74,0.74 -2.59,1.16 -1.07,0.53 -0.87,1.46 -0.73,2.39 0.07,0.48 0,0.99 -0.01,1.49 -0.48,-0.03 -1,0.06 -1.43,-0.1 -1.11,-0.39 -2.14,-0.91 -3.15,0.25 -0.64,0.74 -0.7,1.44 0.03,2.09 0.78,0.69 1.64,1 2.51,1 l 1.09,2.44 c -2.54,1.02 -5.21,1.49 -8.01,1.35 -1.57,-0.08 -3.02,-0.74 -3.84,-2.25 -0.44,-0.81 -1.07,-0.93 -1.79,-0.5 -1.39,0.83 -2.79,1.66 -4.1,2.61 -1.84,1.34 -3.57,2.82 -5.4,4.17 -0.33,0.24 -0.99,0.33 -1.37,0.17 -1.53,-0.61 -1.83,-1.94 -0.65,-3.09 1.36,-1.31 2.87,-2.46 4.28,-3.72 0.6,-0.53 1.13,-1.15 1.69,-1.72 -0.05,-0.12 -0.11,-0.23 -0.16,-0.34 -0.4,0 -0.83,-0.09 -1.19,0.02 -1.72,0.54 -3.44,1.06 -5.15,1.63 l -0.67,-2.03 c 1.45,-0.51 2.79,-1.33 4.24,-1.82 2.37,-0.79 3.63,-2.64 4.37,-4.75 0.82,-2.31 0.59,-3.57 -1.31,-5.19 -3.47,-2.95 -9.64,-1.27 -11.94,1.74 -0.89,1.16 -0.77,3 0.79,3.91 1.51,0.88 3.05,0.71 4.61,0.14 1.06,-0.39 1.79,-1.01 1.61,-2.29 -0.03,-0.23 0.09,-0.47 0.14,-0.71 0.12,-0.03 0.23,-0.05 0.35,-0.07 0.17,0.44 0.42,0.87 0.51,1.32 0.24,1.36 -0.28,2.42 -1.37,3.22 -2.47,1.81 -5.29,2.66 -8.28,2.24 -1.4,-0.2 -3.05,-0.91 -3.93,-1.94 -1.33,-1.54 -1.71,-3.62 -0.84,-5.69 0.12,-0.28 0.1,-0.62 0.16,-1 -4.15,0.88 -5.18,4.83 -2.24,8.18 -0.71,0.65 -1.53,0.64 -2.34,0.36 -1.94,-0.7 -3.9,-1.37 -5.22,-3.14 -0.17,-0.23 -0.99,-0.32 -1.19,-0.13 -1.54,1.43 -3.02,2.92 -4.46,4.45 -0.14,0.15 0.05,0.94 0.18,0.97 1.47,0.33 2.95,0.77 4.42,0.78 1.36,0.01 2.71,-0.51 4.07,-0.74 0.29,-0.05 0.62,0.13 1.21,0.27 -0.67,0.43 -1.06,0.64 -1.39,0.91 -1.46,1.22 -2.84,2.55 -4.32,3.73 l -0.39,-0.49 c 0.85,-0.67 1.66,-1.46 2.44,-2.42 -0.98,-0.12 -1.71,-0.31 -2.43,-0.27 -3.49,0.24 -6.8,-0.65 -10.04,-1.72 -3.52,-1.17 -6.81,-3.03 -10.5,-3.66 l 0.24,-1.42 c 0.22,0.03 0.43,0.05 0.65,0.07 0.23,0.02 0.57,-0.29 0.71,-0.54 0.2,-0.36 0.32,-0.8 0.4,-1.21 0.18,-0.94 0.32,-1.89 0.49,-2.93 -0.99,0.26 -1.74,0.47 -2.5,0.66 -1.72,0.46 -3.45,0.85 -5.16,1.34 l -0.51,-1.78 c 4.35,-1.23 8.67,-2.56 13,-3.86 1.66,-0.49 3.32,-1 4.98,-1.5 0,-0.19 -0.01,-0.37 -0.01,-0.55 -0.52,-0.04 -1.08,-0.21 -1.56,-0.08 -1.31,0.34 -2.55,0.89 -3.86,1.22 -0.56,0.14 -1.13,0.28 -1.69,0.42 l -0.51,-2.06 c 1.63,-0.38 3.19,-1.03 4.75,-1.55 -1.54,-2.21 -3,-4.19 -4.33,-6.26 -0.66,-1.03 -1.41,-1.07 -2.44,-0.81 -0.96,0.25 -1.92,0.53 -2.88,0.77 l -0.16,-0.67 c 1.84,-0.46 3.57,-1.38 5.15,-2.58 0.86,-0.65 2.07,-0.91 3.17,-1.14 4.53,-0.94 8.67,-2.78 12.57,-5.23 1.51,-0.94 2.95,-1.97 4.21,-3.2 l 0.65,0.68 c -1.13,1.08 -2.26,2.16 -3.41,3.21 -0.75,0.69 -0.86,1.13 -0.05,1.78 1.24,1 2.5,1.99 3.68,3.06 0.93,0.83 1.63,0.66 2.46,-0.15 2.95,-2.9 5.4,-6.17 7.66,-9.76 l 1.13,0.72 c -0.03,0.05 -0.06,0.1 -0.09,0.15 -0.64,1.1 -1.34,2.17 -2.09,3.19 -1.81,2.47 -3.67,4.91 -5.52,7.35 -0.37,0.49 -0.64,0.88 0,1.4 0.54,0.44 0.94,0.6 1.53,0.06 1.41,-1.27 2.75,-2.61 3.99,-4.02 l 0.73,0.65 c -3.77,4.28 -7.58,8.54 -12.65,11.37 -2.14,1.2 -4.44,2.12 -6.72,3.03 -1.5,0.6 -1.61,0.78 -0.46,1.93 1.7,1.7 4.2,1.89 6.35,0.43 1.58,-1.07 3.14,-2.18 4.65,-3.35 2.81,-2.18 6.06,-3.54 9.31,-4.76 6.77,-2.55 13.67,-4.74 20.49,-7.16 6.36,-2.26 12.71,-4.57 18.39,-8.35 0.89,-0.59 1.72,-1.28 2.75,-1.77 -0.7,0.78 -1.35,1.62 -2.11,2.33 -3.52,3.28 -7.64,5.62 -12.03,7.48 -3.85,1.64 -7.79,3.12 -11.73,4.54 -3.16,1.15 -6.43,2.01 -9.57,3.19 -2.97,1.12 -5.84,2.48 -8.74,3.77 -0.27,0.11 -0.45,0.44 -0.67,0.67 0.05,0.1 0.09,0.21 0.14,0.31 0.48,-0.02 0.98,0.04 1.44,-0.08 3.64,-0.91 7.25,-1.99 10.92,-2.75 3.2,-0.67 6.49,-0.99 9.73,-1.47 4.08,-0.61 8.15,-1.23 12.22,-1.83 1.96,-0.28 3.93,-0.49 5.88,-0.81 1.98,-0.33 3.96,-0.7 5.92,-1.15 2.96,-0.68 5.93,-1.34 8.84,-2.21 7.56,-2.25 14.83,-5.18 20.82,-10.52 1.6501,-1.48 3.0001,-3.28 4.48,-4.95 z m -88.3599,19.64 c -0.03,-0.16 -0.05,-0.32 -0.07,-0.47 -0.37,0.02 -0.79,-0.06 -1.1,0.09 -1.94,1 -3.86,2.03 -5.77,3.09 -0.24,0.13 -0.37,0.44 -0.54,0.67 0.31,0.11 0.68,0.4 0.92,0.31 2.3899,-0.86 4.6099,-2.04 6.56,-3.69 z m -2.68,-2.76 c -1.85,-1.94 -3.36,-3.56 -4.93,-5.14 -0.27,-0.27 -0.84,-0.56 -1.12,-0.45 -2.19,0.88 -4.34,1.87 -6.92,3 2.17,2.06 4.08,3.9 6.04,5.69 0.25,0.22 0.88,0.29 1.18,0.13 1.8499,-0.98 3.65,-2.04 5.75,-3.23 z m -8.78,22.2 c 1.85,-1 3.33,-4.66 1.47,-6.82 -1.63,-1.89 -3.69,-2.3 -5.94,-1.87 -0.82,0.15 -1.82,0.72 -2.22,1.4 -0.68,1.19 -0.04,2.81 1.06,3.56 0.97,0.66 2.42,0.52 3.55,-0.33 0.25,-0.19 0.56,-0.33 0.87,-0.51 0.97,1.95 -0.66,2.83 -1.44,4.13 0.89,0.67 1.7799,0.91 2.65,0.44 z"
   inkscape:connector-curvature="0" />

		<path
   id="path822"
   d="m 328.7701,90.63 c 0.12,0.13 0.24,0.26 0.36,0.39 -0.42,0.72 -0.75,1.51 -1.29,2.13 -1.46,1.65 -2.39,3.75 -4.35,4.99 -2.83,1.79 -5.62,3.62 -8.39,5.49 -1.57,1.06 -3.13,2.13 -4.69,3.2 -4.69,3.21 -9.35,6.44 -14.08,9.58 -6.85,4.55 -14.1,8.34 -22,10.67 -5.1,1.51 -10.25,2.88 -15.45,3.96 -4.38,0.91 -8.86,1.32 -13.29,1.96 -0.78,0.12 -1.56,0.28 -2.32,0.5 -0.21,0.05 -0.34,0.37 -0.51,0.56 0.21,0.14 0.41,0.39 0.63,0.41 0.2,0.02 0.39,0.04 0.59,0.06 l -0.15,1.44 c -0.72,-0.07 -1.46,-0.1 -2.2,-0.08 -0.51,0.01 -1.04,0.1 -1.51,0.29 -0.21,0.09 -0.5,0.63 -0.42,0.74 1.3,1.88 0.58,3.69 -0.22,5.41 -2.26,4.86 -4.79,9.6 -8.51,13.51 -3.01,3.17 -6.62,5.48 -11.01,6.31 -1.21,0.23 -2.43,0.38 -3.64,0.56 -1.06,0.16 -2.12,0.49 -3.17,0.45 l -0.04,-0.65 c 0.12,0 0.24,-0.02 0.35,-0.04 3.22,-0.71 6.43,-1.53 9.57,-2.56 2.72,-0.89 5.21,-2.28 6.3,-5.22 0.2,-0.53 0.18,-1.14 0.26,-1.71 -0.57,-0.07 -1.17,-0.29 -1.71,-0.19 -3.79,0.67 -7.56,1.41 -11.33,2.12 -0.86,0.16 -1.72,0.3 -2.59,0.44 0.01,-0.04 0.02,-0.08 0.03,-0.11 0.06,-0.24 0.17,-0.3 0.28,-0.33 3.38,-0.87 6.75,-1.73 10.13,-2.61 3.12,-0.81 6.25,-1.59 9.03,-3.31 3.32,-2.05 5.08,-5.41 4.36,-9.44 -0.26,-1.44 -0.9,-1.99 -2.38,-1.97 -2.16,0.03 -3.84,1.16 -5.46,2.43 -1.36,1.06 -2.09,2.45 -2.17,4.2 -0.06,1.41 0.52,1.87 1.81,1.23 1.12,-0.55 2.19,-1.2 3.37,-1.86 -0.81,2.48 -4.68,5.15 -7.08,4.98 -1.86,-0.13 -2.93,-1.14 -2.72,-2.59 0.35,-2.36 1.21,-4.49 2.68,-6.39 2.51,-3.24 5.84,-5.35 9.5,-7.02 0.79,-0.36 1.44,-0.64 1.41,-1.74 -0.02,-0.98 0.22,-1.97 0.45,-2.93 1.04,-4.45 3.05,-8.45 5.99,-11.9 3.41,-4 7.06,-7.79 10.57,-11.71 0.4,-0.44 0.67,-1.05 0.81,-1.64 0.37,-1.54 -0.25,-2.82 -1.35,-3.87 -1.41,-1.34 -2.86,-2.65 -4.31,-3.96 -1.74,-1.57 -1.56,-3.58 -1.14,-5.54 0.17,-0.78 0.68,-1.48 1.17,-2.31 0.07,-0.12 0.13,-0.24 0.2,-0.36 0.49,1.34 0.72,2.44 1.27,3.36 1.73,2.87 4.66,3.56 7.69,3.75 2.73,0.18 5.47,0.09 8.16,-0.7 1.86,-0.54 3.87,-0.66 5.67,-1.34 3.12,-1.17 6.19,-2.53 9.18,-4 0.94,-0.45 1.83,-1 2.69,-1.67 l 0.39,0.49 c -0.41,0.33 -0.82,0.64 -1.25,0.94 -3.86,2.71 -7.93,5.1 -12.68,5.83 -1.44,0.21 -2.19,1 -2.8,2.09 -0.43,0.75 -0.74,1.58 -1.06,2.39 -0.2,0.51 -0.33,1.05 -0.49,1.58 0.12,0.09 0.23,0.18 0.35,0.27 0.52,-0.3 1.04,-0.61 1.56,-0.91 4.47,-2.53 8.8,-5.35 13.44,-7.51 5.56,-2.58 11.38,-4.6 17.08,-6.86 1.29,-0.51 2.56,-1.07 3.88,-1.48 1.36,-0.43 2.8,-0.62 4.14,-1.09 l 0.67,2.03 c -0.97,0.31 -1.94,0.64 -2.9,0.99 -3.01,1.1 -5.98,2.33 -8.95,3.54 -0.3,0.13 -0.51,0.49 -0.81,0.78 2.96,0.78 5.68,1.42 8.35,2.21 3.99,1.19 7.74,2.87 11.04,5.48 0.67,0.53 0.72,0.85 0.3,1.17 -0.11,0.08 -0.25,0.16 -0.42,0.25 -1.17,0.58 -2.36,1.13 -3.48,1.8 -0.68,0.4 -0.97,0.14 -1.51,-0.28 -1.51,-1.2 -3.01,-2.51 -4.72,-3.34 -4.32,-2.08 -9.02,-2.06 -13.69,-1.98 -0.3,0.01 -0.59,0.21 -1.27,0.46 0.62,0.47 1.01,0.69 1.3,1 0.9,1 1.56,2.23 0.89,3.48 -0.66,1.22 -1.54,2.49 -2.65,3.25 -1.74,1.2 -3.75,1.98 -5.84,3.04 0.11,0.18 0.34,0.6 0.61,0.98 0.77,1.06 1.65,2.05 2.31,3.17 0.64,1.07 0.96,1.29 1.92,0.48 1.18,-1 2.35,-2.04 3.35,-3.22 2.33,-2.76 4.64,-5.54 6.78,-8.45 0.74,-1.02 1.48,-1.21 2.5,-1.03 0.46,0.07 0.88,0.32 1.42,0.52 -0.31,0.46 -0.57,0.85 -0.82,1.24 -2.9,4.63 -6.27,8.89 -10.05,12.82 -1.1,1.15 -2.21,2.29 -3.27,3.48 -0.23,0.25 -0.24,0.7 -0.34,1.05 0.36,0.01 0.77,0.15 1.07,0.02 0.81,-0.33 1.61,-0.72 2.34,-1.19 4.84,-3.15 9.7,-6.27 14.49,-9.5 3.33,-2.24 6.62,-4.54 9.93,-6.82 1.91,-1.31 3.83,-2.62 5.77,-3.9 2.59,-1.71 5.3901,-3.11 8.09,-4.64 z m -42.8899,10.84 c 1.41,-0.73 2,-2.43 1.32,-3.73 -0.62,-1.21 -2.62,-1.72 -3.9,-0.87 -0.5,0.33 -0.75,1.02 -1.12,1.55 0.46,0.28 0.92,0.55 1.37,0.83 0.22,0.14 0.55,0.3 0.57,0.48 0.02,0.2 -0.2,0.51 -0.41,0.64 -2.03,1.3 -4.15,0.53 -5,-1.79 -0.18,-0.5 -0.38,-1.16 -1.17,-0.81 -3.17,1.38 -6.13,3.06 -8.48,5.5 -0.78,0.81 -1.5,1.71 -2.14,2.72 -1.65,2.6 -1.56,5.15 0.18,7.47 0.89,1.19 3.13,1.8 4.31,1.01 0.56,-0.37 1.03,-1.11 1.18,-1.77 0.06,-0.27 -0.79,-0.78 -1.25,-1.15 -0.35,-0.27 -0.75,-0.47 -1.12,-0.71 0.02,-0.11 0.05,-0.23 0.07,-0.34 0.44,-0.05 0.94,-0.27 1.31,-0.13 1.07,0.39 2.18,0.79 3.1,1.44 0.52,0.36 0.94,1.22 0.95,1.87 0.06,2.41 -1.55,4.56 -4.03,5.1 -1.57,0.34 -2.52,0.83 -2.89,2.54 -0.24,1.13 -1.09,2.13 -1.69,3.23 0.15,0.01 0.29,0.07 0.37,0.03 2.64,-1.38 5.37,-2.63 7.88,-4.21 1.81,-1.14 2.76,-3.11 2.46,-5.27 -0.38,-2.84 -2.09,-4.85 -4.84,-5.69 -1.33,-0.41 -2.8,-0.45 -4.22,-0.51 -1.16,-0.05 -1.86,-0.5 -1.45,-1.22 0.72,-1.28 1.46,-2.57 2.38,-3.7 0.11,-0.13 0.22,-0.25 0.33,-0.37 0.92,-0.95 2.09,-1.49 3.57,-1.3 1.46,0.18 2.94,0.19 4.41,0.31 2.7499,0.23 5.4399,0.16 7.95,-1.15 z m -23.06,21.73 c 0.96,-0.58 1.95,-1.36 1.82,-2.61 -0.14,-1.26 -1.32,-1.72 -2.35,-2.17 -1.31,-0.57 -3.2,0.37 -3.55,1.74 -0.17,0.65 0.07,1.06 0.76,1.24 0.41,0.11 0.78,0.35 1.27,0.58 -1.16,0.94 -2.3,0.92 -3.33,0.11 -2.12,-1.66 -1.86,-5.59 0.5,-6.88 0.83,-0.46 1.8,-0.68 2.64,-1.12 0.33,-0.18 0.72,-0.68 0.7,-1.01 -0.12,-1.71 -0.58,-3.42 -0.5,-5.1 0.05,-1.11 0.14,-2.22 0.27,-3.33 0.16,-1.61 0.4,-3.22 0.68,-4.82 0.28,-1.56 1,-3.04 1.59,-4.75 -4.34,0.68 -8.51,0.27 -12.66,-0.91 1.04,1.38 2.14,2.63 3.25,3.86 1.64,1.82 2.59,3.82 1.56,6.56 1.3,-0.62 2.29,-1.11 3.3,-1.58 0.95,-0.44 1.38,-0.06 1.3,0.93 -0.02,0.2 -0.03,0.41 -0.05,0.61 -0.14,1.43 -0.34,2.84 -0.36,4.27 -0.01,1.18 -0.51,1.61 -1.55,2.01 -3.7,1.42 -6.42,3.81 -7.27,7.9 -0.48,2.29 1.07,5.29 3.3,5.98 3.12,0.97 5.99,0.11 8.68,-1.51 z m -12.51,5.54 c 0.03,-0.12 0.06,-0.23 0.09,-0.34 -4.38,-2.83 -5.73,-6.99 -5.53,-11.94 -2.96,4.1 -5.12,8.48 -5.08,13.67 0,0.79 0.45,0.79 1.05,0.66 1.13,-0.24 2.28,-0.39 3.41,-0.64 2.02,-0.44 4.0399,-0.94 6.06,-1.41 z"
   inkscape:connector-curvature="0" />

		<path
   id="path824"
   d="m 306.8202,41.15 c 1.52,1.48 1.46,1.59 0.05,3.08 -2.43,2.57 -4.77,5.23 -7.11,7.88 -0.37,0.42 -0.74,0.84 -1.11,1.25 l -0.73,-0.65 c 1.24,-1.42 2.38,-2.93 3.37,-4.56 0.58,-0.95 1.06,-1.95 1.68,-3.1 -0.37,-0.21 -0.65,-0.47 -0.97,-0.54 -0.64,-0.11 -1.32,-0.74 -1.9,0.07 l -1.13,-0.72 c 0.05,-0.07 0.09,-0.13 0.13,-0.2 -1.68,-0.79 -3.21,-1.57 -4.79,-2.21 -0.39,-0.16 -1.13,-0.03 -1.43,0.25 -1.43,1.32 -2.84,2.67 -4.25,4.02 l -0.65,-0.68 c 0.75,-0.74 1.43,-1.55 2.01,-2.46 0.78,-1.24 1.21,-2.69 1.86,-4.02 0.22,-0.44 0.53,-0.9 0.91,-1.18 2.21,-1.62 3.47,-3.78 3.97,-6.19 l 1.06,0.24 c -0.27,1.23 -0.61,2.46 -0.99,3.68 -0.75,2.43 -0.63,2.47 1.86,3.25 0.07,0.03 0.14,0.07 0.22,0.1 2.39,0.79 2.38,0.79 2.51,-1.76 0.02,-0.32 0.29,-0.63 0.44,-0.95 0.21,0.29 0.55,0.56 0.6,0.87 0.11,0.66 -0.07,1.39 0.14,2.01 0.15,0.45 0.74,0.75 1.13,1.12 0.27,-0.36 0.68,-0.68 0.78,-1.08 0.16,-0.65 0.13,-1.35 0.17,-2.03 0.04,0 0.08,-0.01 0.11,-0.01 l 1.19,-0.03 c 0.03,1.03 0.03,2.07 0.02,3.1 0,0.49 0.4599,1.06 0.85,1.45 z"
   inkscape:connector-curvature="0" />

		<path
   id="path826"
   d="m 305.9502,36.6 -1.19,0.03 c -0.15,-1.14 -0.37,-2.28 -0.45,-3.43 -0.3,-4.01 -1.72,-7.66 -3.7,-11.11 -0.25,-0.43 -0.85,-0.67 -1.28,-1 -0.26,0.52 -0.77,1.05 -0.74,1.56 0.16,2.99 -0.16,5.91 -0.8,8.78 l -1.06,-0.24 c 0.34,-1.68 0.31,-3.47 -0.03,-5.29 -0.76,-4.07 -2.63,-7.66 -4.29,-11.37 -1.17,-2.61 -1.98,-5.37 -2.97,-8.06 -0.48,-1.31 -1.01,-2.6 -1.51,-3.89 0.08,-0.07 0.16,-0.13 0.24,-0.19 0.74,0.61 1.48,1.22 2.22,1.84 5.21,4.3 9.2,9.54 11.88,15.73 0.91,2.11 1.5,4.36 2.22,6.56 1.07,3.3 1.3799,6.67 1.46,10.08 z"
   inkscape:connector-curvature="0" />

		<path
   id="path828"
   d="m 284.1101,140.68 c 0.33,1.67 -0.3,3.15 -1.44,4.35 -0.55,0.58 -1.29,0.97 -2.13,1.27 0.34,-0.73 0.68,-1.46 1.02,-2.2 0.93,-2.03 0.58,-3.4 -1.14,-4.81 -2.58,-2.09 -5.62,-2.62 -8.81,-2.74 -0.87,-0.04 -1.75,-0.13 -2.62,-0.11 -0.4,0 -0.78,0.22 -1.19,0.64 0.56,0.22 1.12,0.44 1.67,0.66 2.91,1.17 5.11,3.04 6.01,6.16 0.8,2.77 0.16,5.07 -1.94,6.78 -1.64,1.33 -3.67,2.19 -5.52,3.27 -0.11,-0.16 -0.22,-0.31 -0.33,-0.46 0.68,-0.61 1.47,-1.13 2,-1.84 0.83,-1.13 1.61,-2.34 2.17,-3.63 0.2,-0.46 -0.1,-1.39 -0.48,-1.84 -1.47,-1.7 -2.88,-3.53 -4.65,-4.88 -2.62,-2 -5.7,-3.11 -9.07,-3.2 -0.25,-0.01 -0.51,0.07 -1.13,0.17 0.56,0.44 0.85,0.73 1.18,0.93 1.85,1.11 3.2,2.74 3.35,4.82 0.11,1.49 -0.29,3.23 -1.03,4.53 -2.42,4.25 -6.18,6.74 -11.09,7.37 -2.51,0.32 -6.47,-1.79 -7.39,-4.05 -0.38,-0.94 -0.4,-2.03 0.4,-2.94 1.36,-1.55 4.34,-2.41 6.22,-1.63 0.56,0.23 0.96,0.84 1.44,1.28 -0.09,0.11 -0.18,0.22 -0.27,0.33 -0.59,-0.27 -1.17,-0.55 -1.77,-0.8 -1.13,-0.47 -1.89,0.02 -1.93,1.22 -0.05,1.67 0.89,3.25 2.22,3.74 1.19,0.43 2.82,-0.21 3.91,-1.48 1.39,-1.63 2.42,-3.37 2.41,-5.64 -0.01,-3.02 -1.39,-5.29 -3.59,-7.16 -1.99,-1.7 -4.28,-2.56 -6.76,-2.82 l 0.15,-1.44 c 1.04,0.12 2.08,0.27 3.11,0.19 4.3,-0.37 8.6,-0.85 12.89,-1.28 1.86,-0.19 3.72,-0.32 5.57,-0.57 2.2,-0.29 4.39,-0.67 6.58,-1.03 2.07,-0.33 4.16,-0.6 6.22,-1.02 l 0.55,2.84 c -0.27,0.11 -0.51,0.39 -0.76,0.57 0.24,0.21 0.44,0.52 0.72,0.63 2.76,1.04 4.66,2.87 5.25,5.82 z"
   inkscape:connector-curvature="0" />

		<path
   id="path830"
   d="m 264.9702,83.47 c 2.97,0.74 5.86,1.73 9.04,1.27 -1.04,0.87 -3.16,1.53 -4.27,1.43 -1.81,-0.16 -3.63,-0.21 -5.43,-0.42 -1.76,-0.2 -3.51,-0.55 -5.27,-0.78 -0.55,-0.07 -1.11,0.04 -1.67,0.06 0.05,0.63 -0.03,1.31 0.18,1.88 0.16,0.44 0.69,0.74 1.03,1.12 0.22,0.25 0.41,0.53 0.61,0.8 -0.1,0.1 -0.19,0.2 -0.29,0.3 -1.3,-0.82 -2.56,-1.71 -3.91,-2.45 -1.27,-0.69 -2.65,-1.76 -3.95,-1.73 -1.67,0.04 -3.31,0.58 -4.74,1.48 -2.39,1.49 -4.22,3.95 -4.72,6.67 -0.76,4.12 -1.24,8.29 -1.85,12.46 1.4,0.5 2.11,-0.35 2.83,-1.05 1.21,-1.16 2.31,-2.43 3.57,-3.52 0.61,-0.54 1.47,-0.78 2.22,-1.16 -0.91,0.84 -1.58,1.73 -2.29,2.59 -2.1,2.51 -3.27,5.52 -4.53,8.47 -1.21,2.82 -2.44,5.63 -4.79,7.73 -1.45,1.3 -3.11,2.22 -5,2.65 1.37,-1.49 2.84,-2.84 4.01,-4.42 1.82,-2.47 2.74,-4.82 0.92,-7.26 -1.96,-2.62 -4.7,-3.26 -6.99,-1.37 -0.64,0.52 -1.24,1.15 -1.68,1.84 -1.04,1.66 -1.87,3.36 -2.35,5.14 l -2.22,-0.26 c 0.49,-1.92 0.6,-3.95 0.09,-6.13 -0.34,-1.48 -0.93,-2.33 -2,-2.33 l -0.07,-2.81 c 1.98,-0.05 3.86,-0.89 5.84,-2.59 2.29,-1.97 4.27,-4.39 6.03,-6.87 3.21,-4.55 7.17,-8.13 12.03,-10.84 2.02,-1.13 3.9,-2.62 5.6,-4.2 1.36,-1.25 1.21,-3.13 -0.04,-4.47 -0.73,-0.79 -1.59,-1.44 -2.41,-2.14 -1.18,-1 -2.51,-1.86 -3.54,-3 -2.94,-3.23 -3.76,-7.02 -2.62,-11.25 0.2,-0.75 0.59,-1.76 0.28,-2.28 -1.17,-1.97 -2.83,-2.84 -5.4,-1.89 -1.96,0.73 -3.44,2.1 -4.7,3.73 -1.76,2.26 -2.48,5 -3.52,7.6 -1.03,2.57 -2.02,5.14 -2.17,7.96 -0.03,0.49 -0.32,0.96 -0.49,1.43 -0.15,-0.01 -0.29,-0.03 -0.43,-0.04 -0.04,-1.97 -0.26,-3.95 -0.09,-5.9 0.24,-2.8 0.8,-5.57 1.15,-8.37 0.23,-1.8 -1.26,-3.35 -3.08,-3.43 -0.22,-0.01 -0.44,-0.01 -0.65,0 l -0.03,-1.4 c 1.09,-0.02 2.2,-0.1 3.31,-0.25 4.15,-0.56 8.06,-1.69 11.69,-3.81 0.44,-0.25 1.16,-0.23 1.69,-0.09 2.08,0.52 3.74,1.9 4.76,3.58 1.41,2.31 3.49,2.64 5.69,2.67 3.66,0.04 7.34,0.03 10.98,-0.35 0.53,-0.05 1.04,-0.15 1.55,-0.28 l 0.16,0.67 c -0.97,0.23 -1.94,0.43 -2.92,0.52 -4.12,0.4 -8.27,0.57 -12.4,0.8 -1.09,0.07 -1.68,0.61 -1.73,1.7 -0.05,1.06 0.75,2.1 2.21,2.26 2.4,0.26 4.84,0.24 7.26,0.36 0.44,0.02 0.88,0.12 1.33,0.18 -0.01,0.13 -0.01,0.26 -0.01,0.39 -2.71,1.34 -6.39,0.53 -8.48,3.71 1.75,0.89 3.53,1.48 5.33,1.12 4.79,-0.95 9.56,-2.06 14.31,-3.19 l 0.51,2.06 c -4.34,1.07 -8.68,2.1 -13.02,3.16 -1,0.24 -1.99,0.51 -2.98,0.77 0.01,0.18 0.01,0.36 0.01,0.54 0.44,0.15 0.9,0.45 1.32,0.42 1.27,-0.1 2.56,-0.18 3.78,-0.53 0.01,0 0.02,-0.01 0.03,-0.01 l 0.51,1.78 c -0.56,0.17 -1.13,0.34 -1.69,0.53 -0.71,0.24 -1.2,1.16 -1.79,1.77 0.1,0.13 0.19,0.27 0.28,0.41 0.44,-0.08 0.89,-0.12 1.31,-0.24 1.78,-0.51 3.55,-0.81 5.4,-0.25 0.61,0.19 1.26,0.31 1.9,0.39 l -0.24,1.42 c -0.42,-0.08 -0.85,-0.13 -1.28,-0.17 -1.01,-0.09 -2.16,-0.22 -3.04,0.16 -2.45,1.03 -4.8,2.31 -7.18,3.51 -0.1,0.05 -0.13,0.24 -0.29,0.57 0.58,-0.07 0.99,-0.11 1.4,-0.16 0.67,-0.09 1.33,-0.23 1.99,-0.27 3.52,-0.2 6.7799,1.07 10.1,1.9 z m -25.2101,12 c 0.07,-0.96 -0.13,-2.02 -1.39,-3.28 0,0 -3.39,2.74 -6.02,9.27 -0.01,0.02 -0.03,0.04 -0.04,0.06 0.01,0 0.01,0 0.01,0 -0.04,0.11 -0.09,0.21 -0.13,0.31 0,0 3.83,-0.39 6.21,-3.07 0.35,-0.38 0.61,-0.82 0.83,-1.29 0.28,-0.49 0.43,-0.96 0.44,-1.44 0.03,-0.19 0.0701,-0.37 0.09,-0.56 z"
   inkscape:connector-curvature="0" />

		<path
   id="path832"
   d="m 238.3701,92.19 c 1.26,1.26 1.46,2.32 1.39,3.28 -0.02,0.19 -0.06,0.37 -0.09,0.56 -0.08,0.5 -0.23,0.98 -0.44,1.44 -0.22,0.47 -0.48,0.91 -0.83,1.29 -2.38,2.68 -6.21,3.07 -6.21,3.07 0.04,-0.1 0.09,-0.2 0.13,-0.31 0.01,-0.02 0.02,-0.04 0.03,-0.06 2.63,-6.53 6.02,-9.27 6.02,-9.27 z"
   inkscape:connector-curvature="0"
   style="fill:#ed1f24" />

		<path
   id="path834"
   d="m 237.2702,65.23 c -0.05,0.31 -0.06,0.65 -0.18,0.94 -0.11,0.29 -0.3,0.57 -0.52,0.79 -2.02,1.98 -1.59,4.25 -0.76,6.54 0.3,0.81 0.75,1.57 1.13,2.35 1.29,2.62 0.19,4.82 -1.34,6.85 -1.21,1.62 -2.56,3.15 -3.92,4.66 -1.63,1.79 -2.42,3.97 -3.13,6.21 -0.11,0.36 -0.35,0.68 -0.59,1.13 -1.22,-1.26 -1.04,-2.61 -0.71,-3.78 0.68,-2.48 1.97,-4.68 3.82,-6.5 2.05,-2.02 2.42,-4.58 2.34,-7.26 -0.08,-2.7 -0.67,-5.46 0.34,-8.06 0.52,-1.36 1.57,-2.52 2.46,-3.71 0.15,-0.21 0.7,-0.11 1.06,-0.16 z"
   inkscape:connector-curvature="0" />

		<path
   id="path836"
   d="m 232.2502,123.82 c 0.88,-0.26 1.73,-0.62 2.58,-1.04 -4.74,6.48 -11.34,11.45 -15.04,18.8 0.26,-1.39 0.7,-2.69 1.2,-3.96 0.76,-1.91 1.64,-3.78 2.34,-5.71 0.76,-2.08 -0.42,-3.6 -2.65,-3.72 -1.66,-0.09 -2.96,0.6 -4.07,1.68 -0.96,0.93 -1.8,1.98 -2.69,2.99 0.02,-0.12 0.05,-0.23 0.08,-0.33 0.09,-0.32 0.22,-0.61 0.39,-0.88 2.01,-3.34 4.06,-6.65 6.03,-10 1.27,-2.17 2.42,-4.37 3.01,-6.71 l 2.22,0.26 c -0.52,1.94 -0.62,3.97 -0.11,6.14 0.35,1.46 1.8,2.73 3.31,2.85 1.1899,0.09 2.32,-0.06 3.4,-0.37 z"
   inkscape:connector-curvature="0" />

		<path
   id="path838"
   d="m 223.2102,55.72 0.03,1.4 c -1.88,0.12 -3.37,1.08 -4.57,2.48 -1.36,1.58 -2.53,3.35 -3.69,5.09 -0.81,1.22 -1.59,2.52 -0.77,4.09 0.04,0.07 -0.06,0.21 -0.19,0.59 -0.5,-0.37 -1.07,-0.6 -1.32,-1.02 -1.07,-1.84 -2,-3.76 -3.07,-5.6 -1.35,-2.32 -3.11,-4.19 -5.71,-5.2 -0.31,-0.12 -0.65,-0.18 -0.98,-0.18 l -0.01,-2.03 c 3.14,0.09 6.18,-0.39 9.22,-1.3 0.35,-0.1 0.79,-0.08 1.13,0.04 3.25,1.17 6.55,1.71 9.93,1.64 z"
   inkscape:connector-curvature="0" />

		<path
   id="path840"
   d="m 221.8302,78.64 c 0.42,3.26 0.69,6.45 -0.08,9.7 -0.61,2.62 -1.84,4.89 -3.91,6.5 -2.38,1.85 -2.24,4.28 -2.14,6.78 0.01,0.21 0.26,0.49 0.48,0.6 1.9,0.98 3.62,1.49 5.27,1.45 l 0.07,2.81 c -0.32,0 -0.69,0.08 -1.11,0.24 -2.97,1.12 -6.12,2.17 -6.37,5.9 -0.69,0.04 -1.18,0.07 -1.67,0.1 -0.61,-2.45 -1.34,-3.61 -3,-4.49 -1.05,-0.55 -2.15,-1.04 -3.26,-1.47 -1.17,-0.46 -2.53,-0.13 -2.85,0.63 -0.97,2.38 -1.02,4.84 -0.44,7.25 l -2.19,0.53 c -0.66,-2.75 -1.86,-5.22 -4.13,-7.08 -1.3,-1.07 -2.84,-1.44 -4.33,-0.61 -1.72,0.97 -3.33,2.27 -3.49,4.41 -0.18,2.41 1.27,4.24 2.71,6 0.89,1.1 1.78,2.2 2.67,3.29 -0.62,-0.21 -1.2,-0.46 -1.76,-0.73 -2.41,-1.22 -4.3,-3.06 -5.57,-5.56 -1.37,-2.7 -2.57,-5.49 -3.83,-8.25 -1.16,-2.57 -2.73,-4.82 -5,-6.58 1.28,0.06 2.23,0.72 3.08,1.55 1.23,1.2 2.39,2.46 3.67,3.6 0.42,0.38 1.12,0.44 1.87,0.72 -0.24,-2.05 -0.43,-3.71 -0.63,-5.36 -0.2,-1.7 -0.36,-3.4 -0.62,-5.08 -0.49,-3.26 -1.54,-6.38 -4.32,-8.34 -1.07,-0.75 -2,-1.33 -2.87,-1.71 -2.3,-1.02 -4.1,-0.71 -6.57,1.05 -0.32,0.23 -0.6,0.54 -0.94,0.74 -1.05,0.63 -2.13,1.22 -3.2,1.83 -0.07,-0.11 -0.15,-0.22 -0.22,-0.34 0.58,-0.62 1.28,-1.18 1.7,-1.9 0.27,-0.47 0.28,-1.23 0.1,-1.76 -0.08,-0.21 -0.99,-0.24 -1.5,-0.17 -1.87,0.25 -3.73,0.63 -5.61,0.86 -1.76,0.21 -3.54,0.39 -5.3,0.39 -1.47,0.01 -2.93,-0.27 -4.07,-1.18 1.57,-0.12 3.15,-0.07 4.66,-0.38 3.08,-0.64 6.17,-1.32 9.16,-2.27 2.53,-0.81 4.98,-0.85 7.52,-0.35 0.31,0.06 0.66,-0.03 1.37,-0.07 -0.55,-0.39 -0.77,-0.58 -1.02,-0.73 -0.21,-0.12 -0.42,-0.23 -0.63,-0.34 l 2.63,-1.31 c 1.58,1.32 3.28,2.55 5.06,3.59 4.33,2.51 8.17,5.49 11.15,9.61 2.1,2.89 4.48,5.61 6.98,8.17 2.63,2.68 6.96,3.07 10.21,1.24 0.35,-0.2 0.83,-0.59 0.84,-0.9 0.05,-2.03 0.12,-4.04 -1.67,-5.58 -3.08,-2.64 -4.99,-5.98 -4.93,-10.09 0.06,-3.7 0.39,-7.41 0.76,-11.1 0.37,-3.69 0.16,-7.24 -1.77,-10.52 -0.12,-0.21 -0.12,-0.48 -0.24,-0.97 2.08,0.87 3.39,2.22 4.21,3.98 1.68,3.58 1.1,7.33 0.7,11.06 -0.16,1.54 -0.71,3.17 -0.38,4.59 0.48,2.05 1.68,3.95 3.56,5.08 2.73,1.66 3.92,1.9 6.39,-0.68 1.04,-1.08 1.71,-2.54 2.48,-3.86 0.23,-0.38 0.33,-0.91 0.29,-1.36 -0.15,-1.45 -0.39,-2.9 -0.6,-4.35 -0.43,-3.01 -0.68,-6.02 0.2,-8.99 0.59,-2.02 1.79,-3.6 3.54,-4.69 -0.56,1.86 -1.47,3.66 -1.55,5.5 -0.15,3.12 0.04,6.29 0.44,9.4 z m -33.5701,20.52 c 2.39,2.32 5.82,2.67 5.82,2.67 -1.59,-4.1 -3.51,-6.75 -4.78,-8.22 -0.1,-0.13 -0.21,-0.27 -0.34,-0.39 -0.64,-0.7 -1.06,-1.03 -1.06,-1.03 -1.25,1.26 -1.46,2.32 -1.38,3.28 0.05,0.73 0.25,1.44 0.57,2.1 0.07,0.16 0.15,0.31 0.23,0.45 0.01,0.02 0.02,0.03 0.02,0.04 0.21,0.35 0.46,0.66 0.72,0.91 0.0701,0.07 0.1301,0.13 0.2,0.19 z"
   inkscape:connector-curvature="0" />

		<path
   id="path842"
   d="m 213.1102,162.51 0.04,0.65 c -3.35,-0.12 -6.65,-0.66 -9.79,-1.85 -4.38,-1.65 -7.78,-4.62 -10.47,-8.39 -2.79,-3.92 -5.17,-8.06 -6.85,-12.59 -0.45,-1.2 0.03,-2.1 0.41,-3.06 0.28,-0.71 0.16,-1.01 -0.59,-1.17 -1.16,-0.26 -2.29,-0.29 -3.4,-0.14 l -0.11,-1.44 c 0.22,-0.01 0.43,-0.03 0.65,-0.05 0.23,-0.02 0.45,-0.21 0.68,-0.33 0.01,-0.1 0.02,-0.21 0.04,-0.31 -0.44,-0.17 -0.87,-0.42 -1.33,-0.49 -2.82,-0.43 -5.66,-0.73 -8.46,-1.24 -4.82,-0.88 -9.61,-1.88 -14.41,-2.85 -4.9,-0.99 -9.58,-2.66 -14.18,-4.58 -8.59,-3.57 -16.28,-8.69 -23.92,-13.9 -2.01,-1.37 -4.03,-2.75 -6.04,-4.11 -4.12,-2.81 -8.23,-5.6 -12.34,-8.4 -0.56,-0.39 -1.22,-0.71 -1.62,-1.22 -1.31,-1.64 -2.52,-3.35 -3.74,-5.06 -0.2,-0.29 -0.22,-0.7 -0.38,-1.23 0.7,0.31 1.2,0.54 1.71,0.76 4.21,1.89 7.89,4.6 11.62,7.27 0.35,0.25 0.7,0.5 1.05,0.74 4.16,2.97 8.41,5.82 12.64,8.67 2.44,1.65 4.94,3.22 7.45,4.76 2.06,1.28 4.17,2.5 6.29,3.69 0.29,0.16 0.77,0 1.17,0 -0.13,-0.39 -0.16,-0.86 -0.41,-1.14 -1.14,-1.26 -2.36,-2.47 -3.54,-3.71 -3.96,-4.2 -7.43,-8.77 -10.53,-13.74 0.54,-0.19 1.01,-0.48 1.5,-0.51 0.79,-0.05 1.54,-0.2 2.22,0.68 2.59,3.37 5.26,6.67 7.99,9.92 0.76,0.9 1.76,1.62 2.74,2.29 0.3,0.21 1.13,0.15 1.33,-0.1 1.01,-1.29 1.91,-2.67 2.83,-4.02 0.4,-0.58 0.6,-1.02 -0.4,-1.26 -2.65,-0.64 -4.98,-1.86 -6.8,-3.95 -1.2,-1.38 -1.65,-3.57 -0.22,-5.09 0.34,-0.37 0.67,-0.75 1.21,-1.36 -0.64,-0.12 -1.06,-0.28 -1.48,-0.26 -2.66,0.13 -5.34,0.18 -7.98,0.5 -3.92,0.48 -7.45,1.89 -10.18,4.93 -0.22,0.24 -0.86,0.34 -1.17,0.21 -1.18,-0.49 -2.31,-1.08 -3.43,-1.69 -0.09,-0.05 -0.19,-0.12 -0.27,-0.18 -0.26,-0.21 -0.5,-0.48 -0.79,-0.73 0.3,-0.29 0.46,-0.46 0.64,-0.61 5.45,-4.27 11.91,-6 18.49,-7.43 0.31,-0.07 0.59,-0.26 0.88,-0.4 -0.27,-0.24 -0.5,-0.59 -0.82,-0.71 -3.35,-1.27 -6.72,-2.51 -10.1,-3.74 -1.05,-0.38 -2.1,-0.75 -3.15,-1.12 l 0.75,-2.1 c 0.99,0.36 2.08,0.46 3.09,0.79 1.68,0.54 3.32,1.19 4.99,1.75 1.27,0.43 2.59,0.74 3.84,1.21 2.47,0.94 4.92,1.98 7.38,2.95 6.71,2.66 13.17,5.78 19.2,9.75 0.99,0.65 2,1.27 3,1.91 0.15,-0.09 0.29,-0.17 0.44,-0.25 -0.2,-0.72 -0.34,-1.46 -0.6,-2.15 -0.87,-2.32 -2.05,-4.31 -4.98,-4.25 -0.27,0.01 -0.55,-0.1 -0.81,-0.19 -4.45,-1.47 -8.49,-3.68 -12.18,-6.51 l 0.44,-0.56 c 1.56,1.18 3.32,2.07 5.05,3.04 4.34,2.42 9.1,3.61 13.87,4.48 3.07,0.57 6.35,0.31 9.49,0.04 1.91,-0.17 3.78,-1.1 4.85,-2.9 0.65,-1.08 1.07,-2.29 1.6,-3.48 0.04,0.03 0.21,0.13 0.32,0.27 1.44,1.81 2.24,5.6 -0.21,7.71 -1.51,1.3 -2.99,2.64 -4.42,4.03 -1.45,1.42 -1.8,4.3 0.16,5.94 1.5,1.24 2.78,2.75 4.11,4.18 3.26,3.49 6.46,7.04 8.91,11.17 1.48,2.5 2.62,5.15 3.06,8.04 0.3,2.04 0.2,4.23 2.93,4.81 0.59,0.13 1.12,0.58 1.68,0.9 4.57,2.59 8.27,5.88 9.31,11.4 0.31,1.66 -0.16,2.61 -1.81,3.01 -2.61,0.63 -6.64,-1.78 -7.96,-4.9 0.46,0.26 0.79,0.45 1.13,0.63 0.87,0.49 1.73,0.99 2.62,1.44 0.61,0.31 1.28,0.24 1.4,-0.52 0.12,-0.77 0.14,-1.64 -0.08,-2.37 -0.81,-2.65 -5.1,-5.43 -7.87,-5.06 -0.65,0.09 -1.55,0.72 -1.76,1.3 -0.6,1.68 -0.39,3.46 0.12,5.15 0.95,3.09 3.29,4.97 6.12,5.94 4.27,1.46 8.68,2.51 13.02,3.74 1.47,0.41 2.94,0.84 4.41,1.26 -0.03,0.09 -0.05,0.18 -0.08,0.26 -5.15,-0.92 -10.3,-1.84 -15.47,-2.77 -0.21,2.04 0.67,4 2.3,5.18 1.85,1.34 3.82,2.38 6.2,2.69 1.83,0.23 3.59,0.98 5.39,1.48 0.78,0.22 1.62,0.65 2.37,0.65 z m -26.6001,-33.17 c 0.04,-2.94 -0.92,-5.63 -2.14,-8.22 -0.78,-1.65 -1.79,-3.2 -2.66,-4.74 -0.44,2.35 -0.7,4.62 -1.31,6.79 -0.67,2.32 -2.54,3.85 -4.48,5.32 0.26,0.14 0.35,0.21 0.45,0.24 2.87,0.64 5.74,1.28 8.61,1.9 1.56,0.34 1.5101,0.32 1.53,-1.29 z m -12.36,-5.93 c 1.67,-2.14 1.86,-4.56 0.58,-7.05 -1.46,-2.82 -3.79,-4.54 -6.69,-5.64 -0.49,-0.18 -1.13,-0.64 -1.22,-1.07 -0.29,-1.44 -0.43,-2.92 -0.5,-4.39 -0.05,-0.76 0.15,-1.54 0.24,-2.31 0.78,0.22 1.57,0.4 2.32,0.67 0.62,0.23 1.19,0.57 2.02,0.98 -0.79,-2.11 -0.57,-3.78 0.57,-5.3 0.57,-0.77 1.19,-1.49 1.82,-2.22 0.81,-0.94 1.64,-1.87 2.46,-2.8 -4.24,1.09 -8.39,1.47 -12.73,0.79 0.57,1.68 1.04,3.09 1.52,4.5 0.64,1.89 0.96,3.8 1.06,5.73 0.12,2.27 -0.06,4.54 -0.38,6.81 -0.27,1.92 -0.03,1.89 1.42,2.31 2.17,0.63 3.48,1.88 3.7,4.25 0.2,2.07 -1.52,4.24 -3.43,4.03 -0.39,-0.04 -0.74,-0.35 -1.11,-0.54 0.3,-0.25 0.57,-0.6 0.91,-0.73 1.03,-0.37 1.22,-0.85 0.61,-1.78 -1.04,-1.59 -2.45,-1.85 -4.22,-0.75 -1.78,1.09 -1.9,2.33 -0.34,3.72 1.51,1.35 3.37,2.02 5.31,2.33 2.2001,0.35 4.5401,0.44 6.08,-1.54 z m -14.8999,-9.97 c 1.81,-2.43 1.78,-5.2 -0.09,-7.89 -0.46,-0.66 -0.95,-1.28 -1.48,-1.86 -2.28,-2.49 -5.14,-4.23 -8.25,-5.65 -1.31,-0.6 -1.5,-0.49 -1.87,0.91 -0.36,1.35 -1.22,2.01 -2.63,1.94 -0.59,-0.04 -1.2,-0.13 -1.75,-0.35 -0.38,-0.14 -0.67,-0.54 -1,-0.82 0.32,-0.16 0.63,-0.38 0.97,-0.46 1.02,-0.24 1.31,-0.79 0.8,-1.61 -0.6,-0.94 -1.86,-1.4 -3.21,-1.09 -1.03,0.23 -1.66,0.9 -1.78,1.98 -0.14,1.2 0.01,2.35 1.3,2.78 1.68,0.56 3.41,1.22 5.15,1.32 2.46,0.14 4.95,-0.12 7.41,-0.34 1.71,-0.15 2.98,0.57 3.98,1.76 0.79,0.93 1.43,2 2,3.09 0.7,1.32 0.27,1.67 -1.25,1.75 -1.68,0.09 -3.5,0.19 -4.98,0.88 -4.41,2.07 -5.63,7.41 -1.44,10.68 1.4,1.1 3.04,1.9 4.62,2.75 1.1,0.58 2.28,1.01 3.7,1.62 -0.8,-1.47 -1.7,-2.55 -1.95,-3.76 -0.32,-1.53 -1.13,-1.93 -2.46,-2.22 -2.44,-0.53 -4.31,-2.31 -4.39,-5.08 -0.03,-0.93 0.24,-1.64 1.07,-2.1 0.66,-0.36 1.29,-0.83 2,-1.05 0.71,-0.23 1.49,-0.21 2.24,-0.3 0.05,0.2 0.11,0.41 0.16,0.62 -0.5,0.24 -1,0.5 -1.5,0.73 -1.06,0.47 -1.22,0.97 -0.61,1.95 1.02,1.67 3.93,1.57 5.24,-0.18 z"
   inkscape:connector-curvature="0" />

		<path
   id="path844"
   d="m 212.6201,132.62 c -0.1,0.07 -0.2,0.14 -0.3,0.21 -0.27,-0.35 -0.53,-0.71 -0.81,-1.06 -1.6,-1.92 -3.22,-3.79 -6.1,-3.57 -2.01,0.15 -3.14,1.68 -2.47,3.55 0.62,1.7 1.35,3.36 2.04,5.03 0.66,1.62 1.57,3.16 1.51,5.01 -3.53,-7.48 -10.17,-12.47 -15.23,-19.19 0.6,0.26 0.88,0.36 1.15,0.5 1.55,0.81 3.17,1.21 4.94,1.09 1.27,-0.08 2.32,-0.59 2.87,-1.67 0.72,-1.44 1.32,-2.97 0.92,-4.67 -0.16,-0.7 -0.24,-1.42 -0.39,-2.12 -0.04,-0.19 -0.08,-0.37 -0.12,-0.56 l 2.19,-0.53 c 0.04,0.19 0.09,0.39 0.14,0.58 0.92,3.32 2.77,6.22 4.59,9.11 1.7301,2.74 3.3801,5.53 5.07,8.29 z"
   inkscape:connector-curvature="0" />

		<path
   id="path846"
   d="m 202.9302,55.34 0.01,2.03 c -1.8,0 -3.67,1.63 -3.25,3.49 0.18,0.81 0.32,1.64 0.44,2.47 0.2,1.38 0.36,2.76 0.66,4.12 0.56,2.5 0.27,4.92 -0.23,7.36 -0.06,0.3 -0.39,0.55 -0.82,1.12 -0.25,-1.21 -0.41,-2.01 -0.57,-2.82 -0.26,-1.24 -0.38,-2.53 -0.8,-3.72 -1.05,-2.91 -2.19,-5.79 -3.37,-8.65 -1.23,-3 -3.28,-5.24 -6.36,-6.43 -1.65,-0.64 -3.69,0.14 -4.5,1.72 -0.13,0.26 -0.13,0.68 -0.03,0.96 0.88,2.52 1.09,5.11 0.42,7.66 -0.83,3.2 -2.83,5.66 -5.52,7.56 -0.98,0.69 -1.96,1.39 -2.85,2.19 -1.81,1.63 -1.86,3.56 0,5.11 l -2.63,1.31 c -0.64,-0.33 -1.29,-0.64 -1.87,-1.05 -2.7,-1.83 -5.49,-2.32 -8.37,-1.93 l -0.17,-1.29 c 0.32,-0.03 0.64,-0.09 0.92,-0.2 2.18,-0.87 4.29,-0.54 6.42,0.13 0.33,0.1 0.71,0.01 1.14,0.01 -0.53,-1.66 -1.66,-2.4 -3.06,-2.73 -0.65,-0.16 -1.31,-0.31 -1.96,-0.46 l 0.49,-1.67 c 0.57,0.17 1.13,0.34 1.7,0.5 1.29,0.37 2.67,0.43 4.02,0.52 0.31,0.02 0.66,-0.42 0.99,-0.65 -0.29,-0.22 -0.55,-0.54 -0.88,-0.66 -0.55,-0.2 -1.13,-0.27 -1.71,-0.38 l 0.4,-2.19 c 1.83,0.33 3.62,0.14 5.38,-0.48 0.35,-0.13 0.66,-0.35 1.05,-0.55 -2.07,-3.14 -5.75,-2.32 -8.45,-3.68 0.02,-0.15 0.04,-0.29 0.05,-0.44 0.41,-0.05 0.82,-0.12 1.22,-0.12 1.84,-0.01 3.69,0.14 5.51,-0.02 1.11,-0.1 2.22,-0.55 3.24,-1.05 0.79,-0.39 0.97,-1.25 0.68,-2.1 -0.29,-0.85 -0.9,-1.17 -1.85,-1.16 -3.73,0.07 -7.44,-0.08 -11.11,-0.59 l 0.14,-1.06 c 3.75,0.43 7.47,0.12 11.18,-0.34 0.61,-0.07 1.27,-0.62 1.71,-1.12 1.66,-1.9 3.24,-3.85 5.73,-4.77 0.94,-0.34 1.76,-0.31 2.62,0.2 3.69,2.22 7.74,3.2 12,3.69 0.75,0.08 1.49,0.14 2.24,0.16 z"
   inkscape:connector-curvature="0" />

		<path
   id="path848"
   d="m 195.6302,84.82 c 2.05,2.13 3.73,4.7 3.58,7.94 -0.03,0.59 -0.28,1.18 -0.43,1.77 -0.19,0.02 -0.37,0.04 -0.55,0.06 -0.28,-0.65 -0.66,-1.28 -0.8,-1.95 -0.68,-3.26 -2.94,-5.49 -5,-7.86 -0.7,-0.81 -1.41,-1.63 -2.03,-2.5 -1.76,-2.45 -2.06,-4.99 -0.43,-7.67 0.45,-0.73 0.71,-1.59 0.96,-2.42 0.56,-1.87 0.42,-3.62 -1.04,-5.09 -0.28,-0.28 -0.5,-0.63 -0.68,-0.98 -0.12,-0.25 -0.13,-0.56 -0.19,-0.84 0.37,0.01 0.84,-0.11 1.08,0.07 1.25,0.97 2.11,2.24 2.58,3.78 0.78,2.59 0.37,5.22 0.27,7.84 -0.1101,2.95 0.47,5.55 2.68,7.85 z"
   inkscape:connector-curvature="0" />

		<path
   id="path850"
   d="m 194.0702,121.19 c 0.18,0.05 0.36,0.05 0.24,0.3 -0.09,-0.1 -0.1601,-0.2 -0.24,-0.3 z"
   inkscape:connector-curvature="0" />

		<path
   id="path852"
   d="m 194.0802,101.83 c 0,0 -3.43,-0.35 -5.82,-2.67 -0.07,-0.06 -0.13,-0.12 -0.2,-0.19 -0.06,-0.07 -0.13,-0.13 -0.19,-0.21 -0.2,-0.22 -0.37,-0.45 -0.53,-0.7 0,-0.01 -0.01,-0.02 -0.02,-0.04 -0.08,-0.14 -0.16,-0.29 -0.23,-0.45 -0.32,-0.66 -0.52,-1.37 -0.57,-2.1 -0.08,-0.96 0.13,-2.02 1.38,-3.28 0,0 0.42,0.33 1.06,1.03 0.11,0.12 0.22,0.25 0.34,0.39 1.27,1.47 3.19,4.12 4.78,8.22 z m -6.5,-8.45 c 0.01,0 0.01,-0.01 0.02,-0.01 -0.02,0 -0.03,-0.01 -0.04,-0.01 -0.01,0.03 -0.02,0.06 -0.03,0.1 0.02,-0.03 0.03,-0.06 0.05,-0.08 z"
   inkscape:connector-curvature="0"
   style="fill:#ed1f24" />

		<path
   id="path854"
   d="m 187.6002,93.37 c -0.01,0 -0.01,0.01 -0.02,0.01 -0.02,0.02 -0.03,0.05 -0.05,0.08 0.01,-0.04 0.02,-0.07 0.03,-0.1 0.01,0 0.02,0.01 0.04,0.01 z"
   inkscape:connector-curvature="0"
   style="fill:#ed1f24" />

		<path
   id="path856"
   d="m 184.5401,149.06 c 0.66,0.83 0.72,2.2 0.07,3.12 -2.03,2.84 -4.7,4.15 -8.25,3.53 -4.84,-0.84 -8.25,-3.56 -10.45,-7.84 -1.73,-3.37 -0.49,-6.48 2.32,-8.43 0.42,-0.29 0.82,-0.59 1.23,-0.88 -0.02,-0.15 -0.04,-0.29 -0.06,-0.44 -0.65,0 -1.33,-0.11 -1.96,0.02 -3.02,0.64 -5.93,1.57 -8.35,3.58 -0.96,0.81 -1.77,1.81 -2.63,2.74 -0.27,0.28 -0.43,0.68 -0.72,0.94 -1.77,1.61 -1.47,2.78 -0.44,4.52 0.5,0.84 1.26,1.52 1.93,2.24 0.49,0.52 1.03,0.98 1.55,1.46 -0.07,0.1 -0.14,0.2 -0.21,0.29 -1.55,-0.73 -3.21,-1.3 -4.64,-2.23 -4.36,-2.85 -4.51,-7.78 -0.98,-11.42 1.35,-1.41 2.97,-2.4 4.86,-2.9 0.21,-0.06 0.4,-0.21 0.88,-0.46 -0.53,-0.18 -0.8,-0.35 -1.06,-0.34 -2.69,0.12 -5.47,-0.19 -8.03,0.83 -1.59,0.64 -3.08,1.64 -4.44,2.7 -1.23,0.95 -0.88,2.39 -0.47,3.66 0.29,0.89 0.78,1.72 1.18,2.59 -2.65,-0.42 -4.18,-4.01 -3.66,-5.92 0.77,-2.79 2.57,-4.49 5.11,-5.59 0.31,-0.13 0.52,-0.46 0.78,-0.7 -0.3,-0.13 -0.59,-0.35 -0.91,-0.39 -9.65,-1.2 -18.56,-4.44 -26.68,-9.78 -4.78,-3.15 -9.21,-6.76 -13.28,-10.78 -5.1,-5.03 -10.18,-10.11 -15.14,-15.28 -2.82,-2.95 -5.73,-5.8 -8.8,-8.46 -1.56,-1.37 -3.16,-2.68 -4.82,-3.93 -2.45,-1.86 -5.03,-3.64 -7.78,-4.99 -2.69,-1.33 -5.74,-1.52 -8.77,-1.33 -1.84,0.11 -3.49,0.79 -4.92,1.85 -0.54,0.4 -0.86,1.35 -0.92,2.08 -0.23,3.38 1.81,5.01 5.07,4.26 0.68,-0.15 1.53,-1.11 1.67,-1.81 0.22,-1.18 -0.49,-2.25 -1.5,-3 1.65,-0.58 3.54,0.34 4.55,2.21 1.71,3.17 1.82,3.17 5.27,2.72 4.44,-0.57 8.24,0.35 11.3,2.92 1.12,0.94 2.15,2.11 3.07,3.51 0.06,0.1 0.09,0.21 0.16,0.38 -4.4,-0.78 -8.71,-1.8 -13.09,-2.26 -4.52,-0.47 -9.1,-0.06 -13.58,0.72 -4.39,0.77 -8.71,1.95 -13.01,2.94 2.92,-2.41 6.33,-4.21 10.16,-5.87 -0.53,-0.37 -0.86,-0.66 -1.24,-0.85 -1.68,-0.83 -3.26,-1.73 -4.48,-3.28 -0.86,-1.1 -0.69,-2.19 -0.34,-3.21 0.3,-0.86 0.98,-1.66 1.66,-2.32 2.27,-2.17 5.1,-3.29 8.1,-3.98 1.28,-0.29 2.58,-0.68 3.86,-0.63 2.16,0.08 4.3,0.47 6.45,0.74 0.38,0.04 0.75,0.08 1.12,0.12 0.07,-0.1 0.14,-0.21 0.21,-0.31 -0.3,-0.36 -0.54,-0.8 -0.91,-1.05 -4.5,-3.03 -9.04,-5.99 -14.06,-8.09 -3.62,-1.52 -7.28,-3 -11.05,-4.05 -3.25,-0.9 -6.66,-1.42 -10.04,-1.63 -3.43,-0.21 -6.93,-0.07 -10.35,0.34 -5.34,0.64 -10.44,2.24 -15.21,4.84 -1.73,0.94 -3.6,1.63 -5.55,2.25 0.11,-0.16 0.2,-0.36 0.34,-0.47 4.32,-3.44 9.12,-5.95 14.37,-7.65 4.84,-1.57 9.84,-2.22 14.87,-2.34 3.2,-0.07 6.44,0.32 9.62,0.81 3.32,0.51 6.69,1.09 9.86,2.16 5.18,1.75 10.29,3.75 15.28,5.98 3.01,1.34 5.91,2.88 8.73,4.56 3.5,2.11 6.88,4.43 10.18,6.87 1.55,1.14 3.07,2.33 4.6,3.5 l -1.45,1.89 c -0.73,-0.41 -1.54,-1.06 -2.65,-0.13 0.8,1.21 1.55,2.41 2.36,3.58 4.78,6.89 9.46,13.87 15.45,19.83 1.04,1.04 2.14,2.02 3.25,2.98 0.17,0.14 0.61,0.13 0.83,0.02 0.12,-0.06 0.14,-0.53 0.05,-0.75 -0.58,-1.44 -1.21,-2.86 -1.84,-4.31 0.36,-0.31 0.62,-0.54 0.65,-0.57 1.94,0.88 3.7,1.69 5.47,2.47 0.21,0.09 0.39,0.18 0.55,0.29 0.26,0.19 0.43,0.46 0.52,0.92 0.51,2.52 1.44,4.9 2.88,7.05 2.94,4.38 7.06,7.36 11.76,9.46 3.87,1.74 7.92,3.11 11.98,4.39 2.73,0.87 5.6,1.32 8.42,1.88 2.25,0.45 4.52,0.81 6.78,1.16 2.36,0.36 4.71,0.69 7.07,0.97 2.61,0.31 5.24,0.4 7.82,0.86 3.42,0.62 6.84,0.67 10.28,0.38 l 0.11,1.44 c -1.31,0.16 -2.57,0.57 -3.81,1.1 -3.13,1.35 -5.45,3.63 -6.25,7.01 -0.6,2.5 -0.03,4.89 1.73,6.91 0.95,1.1 1.87,2.16 3.49,2.15 1.92,-0.02 3.76,-2.65 3.02,-4.41 -0.3,-0.72 -1,-0.9 -1.73,-0.62 -0.66,0.25 -1.3,0.59 -1.99,0.91 -0.19,-1.03 0.47,-1.49 1.22,-1.78 2.0201,-0.77 5.01,0.12 6.4,1.83 z"
   inkscape:connector-curvature="0" />

		<path
   id="path858"
   d="m 171.5901,68.77 -0.4,2.19 c -0.01,0 -0.03,-0.01 -0.04,-0.01 -6.37,-1.22 -12.69,-2.64 -18.82,-4.83 -0.45,-0.16 -1.04,0.05 -1.57,0.09 0,0.18 -0.01,0.37 -0.01,0.55 0.67,0.2 1.34,0.39 2.01,0.59 4.77,1.43 9.53,2.89 14.31,4.28 l -0.49,1.67 c -1.97,-0.44 -3.97,-0.88 -6.06,-1.34 0.35,1.5 0.67,2.96 1.04,4.41 0.03,0.12 0.4,0.24 0.6,0.23 0.32,-0.02 0.64,-0.02 0.96,-0.05 l 0.17,1.29 c -1.21,0.17 -2.44,0.49 -3.67,0.94 -3.15,1.15 -6.26,2.44 -9.45,3.45 -2.5,0.79 -5.08,1.32 -7.75,1.08 -0.67,-0.06 -1.35,0.16 -2.01,0.25 0.03,0.32 0.01,0.41 0.05,0.47 0.12,0.16 0.25,0.31 0.39,0.45 0.47,0.47 0.97,0.9 1.5,1.29 l -0.44,0.56 c -0.52,-0.4 -1.04,-0.82 -1.55,-1.25 -1.22,-1.02 -2.37,-2.13 -3.55,-3.2 0.39,-0.24 0.65,-0.28 0.88,-0.21 2.76,0.87 5.51,0.66 8.27,0.02 0.88,-0.21 0.95,-0.66 0.36,-1.26 -1.39,-1.41 -2.76,-2.85 -4.24,-4.17 -0.28,-0.26 -1.31,-0.24 -1.48,0.01 -1.33,1.88 -3.41,2.4 -5.37,3.1 -0.58,0.21 -1.33,-0.06 -2.19,-0.12 2.08,-2.5 2.43,-4.36 1.31,-6.13 -0.93,-1.49 -2.36,-2.33 -3.52,-2.08 0.17,0.84 0.46,1.67 0.5,2.51 0.08,1.66 -0.18,3.32 -1.58,4.38 -2.32,1.74 -4.92,2.01 -7.69,1.18 -1.74,-0.52 -3.39,-1.13 -4.67,-2.49 -1.07,-1.14 -1.05,-3.13 0.29,-3.88 -0.66,2.21 0.67,2.98 2.31,3.33 0.92,0.2 1.95,0.27 2.85,0.05 1.67,-0.41 3.23,-2.16 1.84,-4.33 -1.95,-3.03 -9.09,-5.18 -12.68,-1.23 -1.06,1.17 -1.34,3.23 -0.73,4.75 1.35,3.33 4.14,4.88 7.27,6.01 l -0.75,2.1 c -1.05,-0.36 -2.11,-0.72 -3.17,-1.08 -0.5,-0.17 -1.04,-0.19 -1.55,-0.28 -0.06,0.09 -0.12,0.19 -0.18,0.29 0.19,0.27 0.33,0.59 0.57,0.8 1.24,1.09 2.52,2.14 3.74,3.25 0.67,0.6 1.28,1.28 1.88,1.95 0.69,0.76 0.64,1.5 -0.15,2.17 -0.74,0.62 -1.37,0.99 -2.39,0.21 -2.97,-2.26 -6.05,-4.38 -9.08,-6.55 -0.89,-0.64 -1.55,-0.43 -2.05,0.51 -0.73,1.37 -2.1,1.97 -3.43,2.08 -4.01,0.33 -7.76,-0.73 -11.26,-2.73 l 1.45,-1.89 c 0.08,0.06 0.15,0.12 0.23,0.18 1.22,0.93 3.9,0.74 4.86,-0.43 0.3,-0.36 0.54,-1.19 0.35,-1.46 -0.49,-0.67 -1.11,-1.46 -2.16,-1.2 -0.61,0.14 -1.19,0.45 -1.81,0.58 -0.33,0.08 -0.84,0.07 -1.04,-0.13 -0.22,-0.22 -0.32,-0.75 -0.22,-1.07 0.6,-1.99 0.49,-2.55 -1.47,-3.24 -2.46,-0.86 -5.03,-1.38 -7.51,-2.16 -1.59,-0.5 -3.19,-1.05 -4.63,-1.85 -0.28,-0.15 -0.56,-0.31 -0.83,-0.48 -1.93,-1.13 -3.77,-2.4 -5.65,-3.61 -0.08,-0.06 -0.12,-0.18 -0.39,-0.58 2.39,0.17 4.6,0.07 6.69,0.52 4.75,1.01 9.49,2.15 14.16,3.5 3.11,0.91 6.09,2.27 9.14,3.41 0.7,0.27 1.42,0.55 2.15,0.69 1.23,0.22 1.99,-0.6 1.58,-1.77 -0.32,-0.9 -0.09,-1.52 0.48,-2.14 0.94,-1.03 1.87,-2.06 3,-3.29 -0.73,-0.22 -1.32,-0.48 -1.95,-0.58 -2.97,-0.5 -5.95,-0.89 -8.91,-1.43 -3.78,-0.68 -7.59,-1.31 -11.31,-2.25 -4.51,-1.15 -9,-2.46 -13.41,-3.96 -3.48,-1.19 -6.9,-2.62 -10.21,-4.24 -4.04,-1.96 -7.7,-4.51 -10.62,-8 -1.28,-1.52 -3.27,-4.62 -3.41,-6.88 1.14,1.36 2.23,2.78 3.43,4.09 3.57,3.88 7.98,6.62 12.76,8.68 3.64,1.56 7.39,2.94 11.19,4.01 3.94,1.11 8.01,1.79 12.03,2.6 2.68,0.53 5.37,0.99 8.07,1.41 2.78,0.43 5.58,0.75 8.36,1.14 2.51,0.36 5.02,0.76 7.53,1.15 2.23,0.35 4.48,0.59 6.68,1.08 3.16,0.7 6.28,1.59 9.41,2.4 0.12,0.03 0.23,0.12 0.34,0.1 0.4,-0.04 0.79,-0.11 1.19,-0.17 -0.24,-0.27 -0.44,-0.62 -0.74,-0.79 -3.68,-2.09 -7.67,-3.41 -11.66,-4.76 -4.72,-1.61 -9.4,-3.33 -14.1,-5 -4.11,-1.46 -8.09,-3.21 -11.64,-5.74 -2.23,-1.58 -4.18,-3.54 -6.24,-5.35 -0.19,-0.16 -0.3,-0.42 -0.46,-0.65 2.17,1.38 4.24,2.85 6.45,4.07 2.26,1.24 4.58,2.45 7.01,3.3 6.19,2.17 12.5,3.98 18.66,6.19 5.36,1.93 10.66,4.05 15.82,6.43 2.5,1.15 4.63,3.1 6.94,4.67 0.52,0.36 1.08,0.68 1.62,1.01 2.34,1.45 4.45,0.45 6,-1.61 -0.67,-0.26 -1.3,-0.52 -1.95,-0.76 -1.23,-0.44 -2.42,-0.95 -3.57,-1.53 l 1.04,-2.2 c 0.6,0.28 1.13,0.47 1.5,0.53 0.29,0.05 0.62,-0.19 0.93,-0.3 -0.18,-0.23 -0.31,-0.55 -0.54,-0.68 l 1.08,-2.34 c 0.39,0.22 1.18,0.31 1.44,0.07 2.02,-1.82 3.96,-3.74 6.13,-5.82 -2.37,-1.04 -4.37,-1.89 -6.34,-2.81 -0.13,-0.06 -0.26,-0.11 -0.38,-0.14 l 0.8,-1.74 c 2.87,1.25 5.89,2.16 9.03,2.78 0.45,0.09 0.96,0.23 1.3,0.52 2.3,1.97 5.02,2.79 7.95,3.25 0.37,0.06 0.74,0.11 1.1,0.15 l -0.14,1.06 c -2.42,-0.34 -4.83,-0.85 -7.21,-1.56 -0.77,-0.23 -1.41,-0.14 -1.94,0.67 -1.42,2.15 -2.94,4.22 -4.49,6.42 0.73,0.28 1.48,0.66 2.27,0.86 5.01,1.24 10.04,2.44 15.05,3.67 0.2001,0.05 0.4001,0.09 0.6,0.13 z m -16.7899,8.13 c 0.88,-0.31 2.06,-1.46 2.05,-2.44 -0.01,-0.97 -0.08,-2.05 -1.34,-2.36 -0.91,-0.22 -1.84,-0.53 -2.76,-0.54 -3.77,-0.06 -5.89,2.69 -4.89,6.22 0.53,1.87 2.05,3.03 3.53,2.68 1.1,-0.26 1.16,-0.56 0.46,-1.46 -0.71,-0.91 -1.65,-1.82 -0.64,-3.28 1.09,0.9 2.11,1.71 3.59,1.18 z"
   inkscape:connector-curvature="0" />

		<path
   id="path860"
   d="m 148.0702,50.82 -0.8,1.74 c -0.47,-0.13 -0.85,-0.02 -1.22,0.38 -1.56,1.63 -3.13,3.26 -4.91,5.12 1.9,1.17 3.56,2.24 5.28,3.2 l -1.08,2.34 c -1.91,-1.05 -3.83,-2.09 -5.77,-3.09 -0.3,-0.15 -0.72,-0.07 -1.09,-0.09 0.72,1.15 3.17,2.78 4.97,3.63 l -1.04,2.2 c -5.05,-2.5 -9.25,-6.17 -13.03,-10.45 -0.54,-0.61 -1.07,-1.21 -1.62,-1.82 l 1,-0.89 c 1.2,1.33 2.5,2.59 3.88,3.78 0.19,0.17 0.64,0.14 0.92,0.06 0.41,-0.13 0.78,-0.39 1.16,-0.59 -0.1,-0.14 -0.21,-0.27 -0.32,-0.4 -0.27,-0.39 -0.54,-0.78 -0.82,-1.16 -1.7,-2.34 -3.46,-4.64 -5.13,-7 l 1.34,-0.32 c 1.64,2.29 3.43,4.44 5.5,6.37 0.67,0.64 1.26,0.7 1.97,0.09 1.28,-1.08 2.58,-2.14 3.89,-3.19 0.76,-0.61 0.79,-1.05 0,-1.77 -1.17,-1.06 -2.32,-2.14 -3.46,-3.23 l 0.94,-0.99 c 0.95,0.91 2.01,1.72 3.11,2.5 2.01,1.42 4.1299,2.61 6.33,3.58 z"
   inkscape:connector-curvature="0" />

		<path
   id="path862"
   d="m 138.7502,1.67 c 0.09,0.07 0.18,0.14 0.27,0.21 -0.6,1.56 -1.2,3.13 -1.78,4.69 -1.12,2.97 -2.19,5.95 -3.34,8.9 -1.13,2.9 -2.54,5.72 -3.47,8.69 -0.74,2.34 -1.03,4.71 -0.55,6.94 l -1.35,0.32 c -0.51,-2.17 -0.75,-4.39 -0.8,-6.65 0,-0.88 0.07,-1.76 -0.04,-2.63 -0.05,-0.38 -0.4,-0.88 -0.74,-1 -0.23,-0.09 -0.82,0.27 -1,0.57 -2.36,4.02 -3.81,8.25 -4.13,12.77 l -1.72,-0.14 c 0.81,-10.12 4.56,-19.11 11.71,-26.74 1.83,-1.95 3.96,-3.6 5.97,-5.36 0.27,-0.25 0.65,-0.38 0.97,-0.57 z"
   inkscape:connector-curvature="0" />

		<path
   id="path864"
   d="m 138.6302,44.74 -0.94,0.99 c -1.4,-1.33 -2.78,-2.68 -4.15,-4.04 -0.55,-0.55 -1.01,-0.51 -1.59,-0.24 -1.51,0.71 -3.03,1.42 -4.7,2.21 0.36,0.56 0.65,1.02 0.95,1.48 0.52,0.79 1.04,1.56 1.59,2.32 l -1.34,0.32 c -0.56,-0.78 -1.11,-1.58 -1.64,-2.38 -0.77,-1.16 -1.43,-1.31 -2.6,-0.9 -0.7,0.24 -0.79,0.59 -0.52,1.15 1.34,2.75 3.06,5.21 5.07,7.44 l -1,0.89 c -3.09,-3.48 -6.23,-6.91 -9.4,-10.32 -0.83,-0.9 -0.37,-1.58 0.23,-2 1.26,-0.9 1.33,-2.07 1.34,-3.45 0.01,-1.31 0.07,-2.6 0.17,-3.87 l 1.72,0.14 c -0.1,1.34 -0.1,2.71 0.01,4.11 0.04,0.54 -0.01,1.18 0.84,1.16 0.84,-0.02 1.09,-0.58 1.15,-1.26 0.06,-0.56 -0.07,-1.14 0.05,-1.67 0.09,-0.39 0.45,-0.71 0.69,-1.07 0.14,0.37 0.39,0.74 0.4,1.11 0.09,2.31 0.15,2.37 2.32,1.67 0.12,-0.04 0.22,-0.11 0.34,-0.14 2.66,-0.87 2.66,-0.87 1.94,-3.46 -0.02,-0.08 -0.04,-0.16 -0.07,-0.23 -0.39,-1.08 -0.71,-2.17 -0.96,-3.28 l 1.35,-0.32 c 0.48,2.25 1.74,4.35 4.09,6.14 0.54,0.41 0.82,1.28 1.05,1.99 0.72,2.24 2.0199,4 3.61,5.51 z"
   inkscape:connector-curvature="0" />

		<path
   id="path866"
   d="m 60.0602,70.99 c 0.56,0.49 1,1.11 1.74,1.93 -2.33,0.21 -4.22,0.38 -6.11,0.55 -6.31,0.55 -12.57,1.41 -18.7,3.15 -5.22,1.48 -10.25,3.4 -14.57,6.7 -2.2,1.68 -4,3.87 -5.97,5.83 -0.11,0.11 -0.15,0.33 -0.27,0.38 -0.34,0.13 -0.71,0.2 -1.07,0.3 0.01,-0.31 -0.07,-0.66 0.04,-0.93 1.65,-4.05 4.4,-7.25 7.77,-9.96 5.37,-4.32 11.51,-7.04 18.13,-8.83 4.17,-1.12 8.4,-1.85 12.7,-1.93 2.47,-0.05 4.49,1.25 6.31,2.81 z"
   inkscape:connector-curvature="0" />

	</g>

</g>
    <g
       transform="matrix(1.1693143,0,0,1.1693143,6.6962359,713.66278)"
       id="g960"
       style="stroke:#f3f3f3;stroke-opacity:1;stroke-width:1.11176268;stroke-miterlimit:4;stroke-dasharray:none">
	<g
   id="g958"
   style="stroke:#f3f3f3;stroke-opacity:1;stroke-width:1.11176268;stroke-miterlimit:4;stroke-dasharray:none">
		
		
		
		
		
		
		
		
		
		
		
		
		
		
		
		
		
		
		
		
		
		
		
		
		
		
	</g>

</g>
  </g>
</svg>
