<?xml version="1.0" encoding="UTF-8" standalone="no"?>
<!-- Created with Inkscape (http://www.inkscape.org/) -->

<svg
   xmlns:dc="http://purl.org/dc/elements/1.1/"
   xmlns:cc="http://creativecommons.org/ns#"
   xmlns:rdf="http://www.w3.org/1999/02/22-rdf-syntax-ns#"
   xmlns:svg="http://www.w3.org/2000/svg"
   xmlns="http://www.w3.org/2000/svg"
   xmlns:sodipodi="http://sodipodi.sourceforge.net/DTD/sodipodi-0.dtd"
   xmlns:inkscape="http://www.inkscape.org/namespaces/inkscape"
   width="297mm"
   height="210mm"
   viewBox="0 0 1052.3622 744.09448"
   id="svg4205"
   version="1.1"
   inkscape:version="0.91 r13725"
   sodipodi:docname="XFCE-MOUSE-1.svg"
   inkscape:export-filename="D:\1-Gnu-LINUX\XFCE-MOUSE-1.png"
   inkscape:export-xdpi="90"
   inkscape:export-ydpi="90">
  <title
     id="title4863">XFCE-MOUSE-1</title>
  <defs
     id="defs4207" />
  <sodipodi:namedview
     id="base"
     pagecolor="#ffffff"
     bordercolor="#666666"
     borderopacity="1.0"
     inkscape:pageopacity="0.0"
     inkscape:pageshadow="2"
     inkscape:zoom="0.49497475"
     inkscape:cx="513.26853"
     inkscape:cy="234.28571"
     inkscape:document-units="px"
     inkscape:current-layer="text3542"
     showgrid="false"
     showborder="true"
     inkscape:showpageshadow="false"
     inkscape:window-width="1280"
     inkscape:window-height="961"
     inkscape:window-x="-8"
     inkscape:window-y="32"
     inkscape:window-maximized="1" />
  <metadata
     id="metadata4210">
    <rdf:RDF>
      <cc:Work
         rdf:about="">
        <dc:format>image/svg+xml</dc:format>
        <dc:type
           rdf:resource="http://purl.org/dc/dcmitype/StillImage" />
        <dc:title>XFCE-MOUSE-1</dc:title>
        <cc:license
           rdf:resource="http://creativecommons.org/licenses/by-nc-nd/3.0/" />
        <dc:date>05-06-2013</dc:date>
        <dc:creator>
          <cc:Agent>
            <dc:title>cRISTIAN pOZZESSERE ilnanny</dc:title>
          </cc:Agent>
        </dc:creator>
        <dc:description>xfce mouse vector
</dc:description>
        <dc:contributor>
          <cc:Agent>
            <dc:title>Edless team</dc:title>
          </cc:Agent>
        </dc:contributor>
      </cc:Work>
      <cc:License
         rdf:about="http://creativecommons.org/licenses/by-nc-nd/3.0/">
        <cc:permits
           rdf:resource="http://creativecommons.org/ns#Reproduction" />
        <cc:permits
           rdf:resource="http://creativecommons.org/ns#Distribution" />
        <cc:requires
           rdf:resource="http://creativecommons.org/ns#Notice" />
        <cc:requires
           rdf:resource="http://creativecommons.org/ns#Attribution" />
        <cc:prohibits
           rdf:resource="http://creativecommons.org/ns#CommercialUse" />
      </cc:License>
    </rdf:RDF>
  </metadata>
  <g
     inkscape:label="Livello 1"
     inkscape:groupmode="layer"
     id="layer1"
     transform="translate(0,-308.26772)">
    <g
       id="g4354"
       transform="matrix(1.3124724,0,0,1.2713308,-717.55168,-30.457776)">
      <path
         inkscape:connector-curvature="0"
         id="ellipse3403"
         d="m 1205.9856,502.01931 c -1.4656,10e-6 -2.8629,0.26347 -4.164,0.72071 l 15.4453,15.34375 c 0.5639,-1.34884 0.8809,-2.81836 0.8809,-4.36133 0,-6.46309 -5.4457,-11.70312 -12.1622,-11.70313 z"
         style="fill:#ff0000;fill-rule:evenodd;stroke:#000000;stroke-width:0.96900421px;stroke-linecap:butt;stroke-linejoin:miter;stroke-opacity:1" />
      <path
         sodipodi:nodetypes="cccccccc"
         inkscape:connector-curvature="0"
         id="polygon3349"
         d="m 1012.7,480.7 163.3,-29.4 12.7,38.7 48.6,50 0,54.7 -73.3,-36.7 -68,-60 z"
         style="fill:none;stroke:#000000;stroke-miterlimit:10" />
      <path
         sodipodi:nodetypes="ccccc"
         inkscape:connector-curvature="0"
         id="path3375"
         d="m 949.14783,535.72174 55.93037,18.78261 50.0574,36.33401 -60.07473,-17.13401 z"
         style="fill:none;fill-rule:evenodd;stroke:#000000;stroke-width:1px;stroke-linecap:butt;stroke-linejoin:miter;stroke-opacity:1" />
      <path
         sodipodi:nodetypes="ccccc"
         inkscape:connector-curvature="0"
         id="polygon3353"
         d="M 1125,630 1238.613,594.28261 1250,602 l -40.5652,28.41739 z"
         style="fill:none;stroke:#000000;stroke-miterlimit:10" />
      <path
         sodipodi:nodetypes="cccc"
         inkscape:connector-curvature="0"
         id="polygon3355"
         d="m 840,568 102.7,10 -60,-55 z"
         style="fill:none;stroke:#000000;stroke-miterlimit:10" />
      <path
         sodipodi:nodetypes="cccc"
         inkscape:connector-curvature="0"
         id="polygon3357"
         d="M 825.49565,486.3087 882.7,523 840,568 Z"
         style="fill:none;stroke:#000000;stroke-miterlimit:10" />
      <path
         sodipodi:nodetypes="ccccccccc"
         inkscape:connector-curvature="0"
         id="polyline3359"
         d="M 814,635.20435 801.6,532.8 762,608.7 742.4,668.6 813.58261,636.78696 1064,594.7 l 61,35.3 -29,-132 -83.3,-17.3"
         style="fill:none;stroke:#000000;stroke-miterlimit:10" />
      <path
         sodipodi:nodetypes="cccccc"
         inkscape:connector-curvature="0"
         id="path3365"
         d="m 815.03428,637.21944 51.49464,-9.17541 77.61021,131.39945 -128.55652,-60.52174 -1.25217,-62.19131 z"
         style="fill:none;fill-rule:evenodd;stroke:#000000;stroke-width:1px;stroke-linecap:butt;stroke-linejoin:miter;stroke-opacity:1" />
      <path
         sodipodi:nodetypes="ccccc"
         inkscape:connector-curvature="0"
         id="path3367"
         d="M 815.58261,698.50435 726.26087,753.6 743.7913,667.61739 813.49565,635.89565 Z"
         style="fill:none;fill-rule:evenodd;stroke:#000000;stroke-width:1px;stroke-linecap:butt;stroke-linejoin:miter;stroke-opacity:1" />
      <path
         sodipodi:nodetypes="cccccc"
         inkscape:connector-curvature="0"
         id="path3369"
         d="m 838.95652,458.92174 -14.1913,26.71304 -95.16522,-134.4 -71.7913,-69.28695 93.49565,59.26956 z"
         style="fill:none;fill-rule:evenodd;stroke:#000000;stroke-width:1px;stroke-linecap:butt;stroke-linejoin:miter;stroke-opacity:1" />
      <path
         sodipodi:nodetypes="cccccccccc"
         inkscape:connector-curvature="0"
         id="path3371"
         d="m 952.90434,524.03478 -71.3739,-2.50435 -55.44143,-35.6931 12.03272,-26.4982 -86.81738,-119.7913 -90.15652,-55.09566 101.84347,50.92174 92.66087,118.53913 106.0174,31.72174 z"
         style="fill:none;fill-rule:evenodd;stroke:#000000;stroke-width:1px;stroke-linecap:butt;stroke-linejoin:miter;stroke-opacity:1" />
      <path
         sodipodi:nodetypes="ccccc"
         inkscape:connector-curvature="0"
         id="path3373"
         d="m 825.6,486.46956 -23.37391,45.91305 11.68695,103.51304 27.54783,-67.61739 z"
         style="fill:none;fill-rule:evenodd;stroke:#000000;stroke-width:1px;stroke-linecap:butt;stroke-linejoin:miter;stroke-opacity:1" />
      <path
         sodipodi:nodetypes="ccccc"
         inkscape:connector-curvature="0"
         id="path3377"
         d="m 1124.4522,630.05217 -87.6522,40.06957 -16.6957,-88.48696 44.2435,12.52174 z"
         style="fill:none;fill-rule:evenodd;stroke:#000000;stroke-width:1px;stroke-linecap:butt;stroke-linejoin:miter;stroke-opacity:1" />
      <path
         sodipodi:nodetypes="cccc"
         inkscape:connector-curvature="0"
         id="path3381"
         d="m 1249.6696,600.83478 -12.5218,-61.77391 -0.8348,53.42609 z"
         style="fill:none;fill-rule:evenodd;stroke:#000000;stroke-width:1px;stroke-linecap:butt;stroke-linejoin:miter;stroke-opacity:1" />
      <path
         sodipodi:nodetypes="cccc"
         inkscape:connector-curvature="0"
         id="path3383"
         d="m 1201.2522,791.16522 -61.7739,-64.27826 40.0695,-26.71305 z"
         style="fill:none;fill-rule:evenodd;stroke:#000000;stroke-width:1px;stroke-linecap:butt;stroke-linejoin:miter;stroke-opacity:1" />
      <path
         sodipodi:nodetypes="cccccccccc"
         inkscape:connector-curvature="0"
         id="path3385"
         d="m 1180.3826,699.33913 -0.8348,-50.92174 -111.0261,30.05218 -30.8869,-7.51305 -18.3652,-89.32174 -0.8348,151.09565 69.7043,3.75653 26.2957,-37.14783 25.8782,28.38261 z"
         style="fill:none;fill-rule:evenodd;stroke:#000000;stroke-width:1px;stroke-linecap:butt;stroke-linejoin:miter;stroke-opacity:1" />
      <path
         sodipodi:nodetypes="cccc"
         inkscape:connector-curvature="0"
         id="path3387"
         d="m 1087.7217,736.06957 -46.7478,89.32173 -21.7043,-91.82608 z"
         style="fill:none;fill-rule:evenodd;stroke:#000000;stroke-width:1px;stroke-linecap:butt;stroke-linejoin:miter;stroke-opacity:1" />
      <path
         sodipodi:nodetypes="cccc"
         inkscape:connector-curvature="0"
         id="path3389"
         d="m 1087.7217,736.90435 42.9913,16.27826 -16.2782,-52.17391 z"
         style="fill:none;fill-rule:evenodd;stroke:#000000;stroke-width:1px;stroke-linecap:butt;stroke-linejoin:miter;stroke-opacity:1" />
      <path
         sodipodi:nodetypes="cccc"
         inkscape:connector-curvature="0"
         id="path3391"
         d="m 1131.9652,753.6 70.1218,37.56522 -87.2348,-90.57391 c 3.393,11.14025 17.113,53.00869 17.113,53.00869 z"
         style="fill:none;fill-rule:evenodd;stroke:#000000;stroke-width:1px;stroke-linecap:butt;stroke-linejoin:miter;stroke-opacity:1" />
      <path
         sodipodi:nodetypes="cccccccc"
         inkscape:connector-curvature="0"
         id="path3393"
         d="m 1040.1391,822.05217 -22.5391,-90.9913 1.6696,-129.39131 -205.77395,34.64348 53.79645,-8.51352 76.01225,131.64396 96.83475,65.94782 z"
         style="fill:none;fill-rule:evenodd;stroke:#000000;stroke-width:1px;stroke-linecap:butt;stroke-linejoin:miter;stroke-opacity:1" />
      <path
         sodipodi:nodetypes="ccccc"
         inkscape:connector-curvature="0"
         id="path3395"
         d="m 1074.3652,455.58261 20.4522,10.85217 81.3913,-15.86087 -45.0783,-66.78261 z"
         style="fill:none;fill-rule:evenodd;stroke:#000000;stroke-width:1px;stroke-linecap:butt;stroke-linejoin:miter;stroke-opacity:1" />
      <path
         sodipodi:nodetypes="cccc"
         inkscape:connector-curvature="0"
         id="path3397"
         d="M 1093.9826,466.43478 979.2,409.66956 l 34.2261,71.7913 z"
         style="fill:none;fill-rule:evenodd;stroke:#000000;stroke-width:1px;stroke-linecap:butt;stroke-linejoin:miter;stroke-opacity:1" />
      <path
         sodipodi:nodetypes="cccccc"
         inkscape:connector-curvature="0"
         id="path3399"
         d="m 1013.4261,481.46087 76.6903,73.0616 19.1158,2.31334 14.3852,72.38158 -71.7913,-40.90435 z"
         style="fill:none;fill-rule:evenodd;stroke:#000000;stroke-width:1px;stroke-linecap:butt;stroke-linejoin:miter;stroke-opacity:1" />
      <path
         sodipodi:nodetypes="ccccc"
         inkscape:connector-curvature="0"
         id="path3401"
         d="m 1113.6333,538.22614 c 0,7.34916 -6.1631,13.30684 -13.7657,13.30684 -7.6026,5e-5 -13.7658,-5.95764 -13.7658,-13.30684 0,-7.34921 6.1632,-13.3069 13.7658,-13.30685 7.6026,0 13.7657,5.95768 13.7657,13.30685 z"
         style="fill:#ff0000;fill-rule:evenodd;stroke:#000000;stroke-width:1.09934461px;stroke-linecap:butt;stroke-linejoin:miter;stroke-opacity:1" />
      <path
         sodipodi:nodetypes="cccccc"
         inkscape:connector-curvature="0"
         id="path3405"
         d="m 1179.5478,649.25217 30.0522,-18.36521 -86.8174,-0.83479 -86.8174,40.48696 34.2261,8.76522 z"
         style="fill:none;fill-rule:evenodd;stroke:#000000;stroke-width:1px;stroke-linecap:butt;stroke-linejoin:miter;stroke-opacity:1" />
      <path
         sodipodi:nodetypes="cccccc"
         inkscape:connector-curvature="0"
         id="path3407"
         d="m 950.05637,536.64685 55.19123,18.00355 45.1565,33.05571 -37.1877,-106.54562 -34.23628,-70.83365 z"
         style="fill:none;fill-rule:evenodd;stroke:#000000;stroke-width:1px;stroke-linecap:butt;stroke-linejoin:miter;stroke-opacity:1" />
      <path
         inkscape:connector-curvature="0"
         id="path3540"
         d="m 1202.4013,791.94314 -72.0142,-38.36823 -42.5002,-16.52785 -47.8128,89.72263 -98.57679,-67.88225 -126.32002,-59.61833 -89.72262,54.89608 17.11813,-86.77122 18.29869,-59.02804 63.75029,-122.18806 -96.80599,-135.7645 -70.83366,-68.47253 108.02133,53.71552 91.49346,118.05609 105.06992,31.28486 17.11814,-76.73646 95.62542,47.81272 57.8475,-72.60449 45.4516,67.88225 11.2153,38.95851 50.1739,51.3544 11.2153,60.2086 -41.9099,29.51402 -27.7432,18.2987 0,52.53496 z"
         style="fill:none;fill-rule:evenodd;stroke:#000000;stroke-width:2;stroke-linecap:butt;stroke-linejoin:miter;stroke-miterlimit:4;stroke-dasharray:none;stroke-opacity:1" />
      <g
         id="text3542"
         style="font-style:normal;font-variant:normal;font-weight:bold;font-stretch:normal;font-size:181.85267639px;line-height:125%;font-family:'Myriad عربي';-inkscape-font-specification:'Myriad عربي Bold';letter-spacing:0px;word-spacing:0px;fill:none;fill-opacity:1;stroke:#000000;stroke-width:0.99996036;stroke-linecap:butt;stroke-linejoin:miter;stroke-miterlimit:4;stroke-dasharray:none;stroke-opacity:1"
         transform="matrix(1.1863174,0.05248158,-0.0489541,0.94504212,-60.018334,-60.526122)">
        <path
           sodipodi:nodetypes="ccccc"
           inkscape:connector-curvature="0"
           id="path4352"
           d="m 865.41505,790.89867 75.4583,-4.19047 23.44979,98.01035 -85.36569,-67.0892 z"
           style="fill:none;fill-rule:evenodd;stroke:#000000;stroke-width:0.94335878px;stroke-linecap:butt;stroke-linejoin:miter;stroke-opacity:1" />
      </g>
    </g>
  </g>
</svg>
