<?xml version="1.0" encoding="UTF-8" standalone="no"?>
<!-- Created with Inkscape (http://www.inkscape.org/) -->

<svg
   xmlns:osb="http://www.openswatchbook.org/uri/2009/osb"
   xmlns:dc="http://purl.org/dc/elements/1.1/"
   xmlns:cc="http://creativecommons.org/ns#"
   xmlns:rdf="http://www.w3.org/1999/02/22-rdf-syntax-ns#"
   xmlns:svg="http://www.w3.org/2000/svg"
   xmlns="http://www.w3.org/2000/svg"
   xmlns:xlink="http://www.w3.org/1999/xlink"
   xmlns:sodipodi="http://sodipodi.sourceforge.net/DTD/sodipodi-0.dtd"
   xmlns:inkscape="http://www.inkscape.org/namespaces/inkscape"
   version="1.0"
   width="256"
   height="256"
   id="svg4458"
   inkscape:version="0.48.1 r9760"
   sodipodi:docname="Game icon.svg"
   inkscape:export-filename="/home/ilnanny/Scrivania/Game icon16.png"
   inkscape:export-xdpi="5.5154781"
   inkscape:export-ydpi="5.5154781">
  <metadata
     id="metadata78">
    <rdf:RDF>
      <cc:Work
         rdf:about="">
        <dc:format>image/svg+xml</dc:format>
        <dc:type
           rdf:resource="http://purl.org/dc/dcmitype/StillImage" />
        <dc:title />
      </cc:Work>
    </rdf:RDF>
  </metadata>
  <sodipodi:namedview
     pagecolor="#ffffff"
     bordercolor="#666666"
     borderopacity="1"
     objecttolerance="10"
     gridtolerance="10"
     guidetolerance="10"
     inkscape:pageopacity="0"
     inkscape:pageshadow="2"
     inkscape:window-width="1280"
     inkscape:window-height="964"
     id="namedview76"
     showgrid="false"
     showguides="true"
     inkscape:guide-bbox="true"
     inkscape:zoom="2.36"
     inkscape:cx="141.64327"
     inkscape:cy="101.01726"
     inkscape:window-x="0"
     inkscape:window-y="26"
     inkscape:window-maximized="1"
     inkscape:current-layer="g4171"
     borderlayer="true" />
  <defs
     id="defs4460">
    <linearGradient
       id="linearGradient3874"
       osb:paint="solid">
      <stop
         style="stop-color:#58009a;stop-opacity:1;"
         offset="0"
         id="stop3876" />
    </linearGradient>
    <linearGradient
       id="linearGradient3860"
       osb:paint="solid">
      <stop
         style="stop-color:#58009a;stop-opacity:1;"
         offset="0"
         id="stop3862" />
    </linearGradient>
    <linearGradient
       id="linearGradient3897">
      <stop
         offset="0"
         style="stop-color:#2a2a2a;stop-opacity:1;"
         id="stop3899" />
      <stop
         id="stop3950"
         style="stop-color:#cbcbcb;stop-opacity:1;"
         offset="0.06974658" />
      <stop
         id="stop3948"
         style="stop-color:#2a2a2a;stop-opacity:1;"
         offset="0.24062221" />
      <stop
         id="stop3946"
         style="stop-color:#cbcbcb;stop-opacity:0"
         offset="0.41367358" />
      <stop
         id="stop3926"
         style="stop-color:#2a2a2a;stop-opacity:1;"
         offset="0.5022186" />
      <stop
         id="stop3924"
         style="stop-color:#cbcbcb;stop-opacity:1;"
         offset="0.59543139" />
      <stop
         offset="0.74109828"
         style="stop-color:#2a2a2a;stop-opacity:1;"
         id="stop3930" />
      <stop
         id="stop3932"
         style="stop-color:#cbcbcb;stop-opacity:1;"
         offset="0.88906056" />
      <stop
         offset="0.98036677"
         style="stop-color:#2a2a2a;stop-opacity:1;"
         id="stop3944" />
      <stop
         offset="1"
         style="stop-color:#cbcbcb;stop-opacity:1;"
         id="stop3901" />
    </linearGradient>
    <linearGradient
       x1="44"
       y1="53.860592"
       x2="44"
       y2="85.547989"
       id="linearGradient4363"
       gradientUnits="userSpaceOnUse"
       gradientTransform="translate(1.3179695e-6,2.3803711e-8)">
      <stop
         id="stop637"
         style="stop-color:#d00e72;stop-opacity:1"
         offset="0" />
      <stop
         id="stop639"
         style="stop-color:#af0b54;stop-opacity:1"
         offset="1" />
    </linearGradient>
    <linearGradient
       x1="44"
       y1="4.9791408"
       x2="44"
       y2="31.820999"
       id="linearGradient4220"
       gradientUnits="userSpaceOnUse"
       gradientTransform="translate(0.08824784,0.1010006)">
      <stop
         id="stop362"
         style="stop-color:#ffffff;stop-opacity:1"
         offset="0" />
      <stop
         id="stop364"
         style="stop-color:#ffffff;stop-opacity:0.1300813"
         offset="1" />
    </linearGradient>
    <linearGradient
       x1="44"
       y1="4.9791408"
       x2="44"
       y2="31.820999"
       id="linearGradient5202"
       xlink:href="#linearGradient4220"
       gradientUnits="userSpaceOnUse"
       gradientTransform="translate(0.3560382,-0.2491509)" />
    <linearGradient
       x1="44"
       y1="53.860592"
       x2="44"
       y2="85.547989"
       id="linearGradient5206"
       xlink:href="#linearGradient4363"
       gradientUnits="userSpaceOnUse"
       gradientTransform="translate(0.2677917,-0.3501515)" />
    <linearGradient
       x1="22.87648"
       y1="49.381584"
       x2="22.804022"
       y2="52.106773"
       id="linearGradient4198"
       xlink:href="#linearGradient4121"
       gradientUnits="userSpaceOnUse"
       gradientTransform="matrix(1.0450162,0,0,1.0917266,24.055534,-20.654757)" />
    <linearGradient
       x1="69.082405"
       y1="40.165863"
       x2="69.082405"
       y2="45.283607"
       id="linearGradient4196"
       xlink:href="#linearGradient4107"
       gradientUnits="userSpaceOnUse"
       gradientTransform="matrix(1.0450162,0,0,1.0660375,24.291585,-23.7409)" />
    <linearGradient
       x1="22.87648"
       y1="49.381584"
       x2="22.804022"
       y2="52.106773"
       id="linearGradient4194"
       xlink:href="#linearGradient4121"
       gradientUnits="userSpaceOnUse"
       gradientTransform="matrix(1.0450162,0,0,1.0917266,24.055534,-24.72983)" />
    <linearGradient
       x1="69.082405"
       y1="40.165863"
       x2="69.082405"
       y2="45.283607"
       id="linearGradient4192"
       xlink:href="#linearGradient4107"
       gradientUnits="userSpaceOnUse"
       gradientTransform="matrix(1.0450162,0,0,1.0660375,31.236907,-26.186437)" />
    <linearGradient
       x1="44.323193"
       y1="31.635447"
       x2="44.524776"
       y2="57.587322"
       id="linearGradient4190"
       xlink:href="#linearGradient4070"
       gradientUnits="userSpaceOnUse"
       gradientTransform="matrix(1.1529591,0,0,1.2725883,19.777392,-30.883441)" />
    <linearGradient
       x1="45.484577"
       y1="59.968018"
       x2="45.227203"
       y2="28.261139"
       id="linearGradient4188"
       xlink:href="#linearGradient4133"
       gradientUnits="userSpaceOnUse" />
    <linearGradient
       x1="46.669048"
       y1="63.807705"
       x2="45.88089"
       y2="23.092196"
       id="linearGradient4186"
       xlink:href="#linearGradient4141"
       gradientUnits="userSpaceOnUse" />
    <linearGradient
       id="linearGradient4070">
      <stop
         id="stop4072"
         style="stop-color:#1d1fb7;stop-opacity:1"
         offset="0" />
      <stop
         id="stop4074"
         style="stop-color:#05ebff;stop-opacity:1"
         offset="1" />
    </linearGradient>
    <linearGradient
       id="linearGradient4107">
      <stop
         id="stop4109"
         style="stop-color:#ffffff;stop-opacity:1"
         offset="0" />
      <stop
         id="stop4111"
         style="stop-color:#12120a;stop-opacity:1"
         offset="1" />
    </linearGradient>
    <linearGradient
       id="linearGradient4121">
      <stop
         id="stop4123"
         style="stop-color:#e4e4eb;stop-opacity:1"
         offset="0" />
      <stop
         id="stop4125"
         style="stop-color:#161616;stop-opacity:1"
         offset="1" />
    </linearGradient>
    <linearGradient
       id="linearGradient4133"
       osb:paint="gradient">
      <stop
         id="stop4135"
         style="stop-color:#adadad;stop-opacity:1;"
         offset="0" />
      <stop
         offset="0.0078125"
         style="stop-color:#ababab;stop-opacity:1;"
         id="stop4049" />
      <stop
         offset="0.015625"
         style="stop-color:#aaaaaa;stop-opacity:1;"
         id="stop4047" />
      <stop
         offset="0.03125"
         style="stop-color:#a7a7a7;stop-opacity:1;"
         id="stop4045" />
      <stop
         offset="0.0625"
         style="stop-color:#a2a2a2;stop-opacity:1;"
         id="stop4043" />
      <stop
         offset="0.125"
         style="stop-color:#979797;stop-opacity:1;"
         id="stop4041" />
      <stop
         offset="0.25"
         style="stop-color:#818181;stop-opacity:1;"
         id="stop4039" />
      <stop
         offset="0.5"
         style="stop-color:#565656;stop-opacity:1;"
         id="stop4037" />
      <stop
         id="stop4137"
         style="stop-color:#131313;stop-opacity:1;"
         offset="1" />
    </linearGradient>
    <linearGradient
       id="linearGradient4141">
      <stop
         id="stop4143"
         style="stop-color:#5b3a8b;stop-opacity:1"
         offset="0" />
      <stop
         id="stop4145"
         style="stop-color:#65398e;stop-opacity:1"
         offset="1" />
    </linearGradient>
    <linearGradient
       x1="44"
       y1="4.9791408"
       x2="44"
       y2="31.820999"
       id="linearGradient4176"
       xlink:href="#linearGradient4220"
       gradientUnits="userSpaceOnUse"
       gradientTransform="translate(0.08824784,0.1010006)" />
    <linearGradient
       x1="44"
       y1="4.9791408"
       x2="44"
       y2="31.820999"
       id="linearGradient4179"
       xlink:href="#linearGradient4220"
       gradientUnits="userSpaceOnUse"
       gradientTransform="translate(0.3560382,-0.2491509)" />
    <linearGradient
       x1="44"
       y1="53.860592"
       x2="44"
       y2="85.547989"
       id="linearGradient4183"
       xlink:href="#linearGradient4363"
       gradientUnits="userSpaceOnUse"
       gradientTransform="translate(0.2677917,-0.3501515)" />
    <radialGradient
       inkscape:collect="always"
       xlink:href="#linearGradient4121"
       id="radialGradient3829"
       cx="68.239929"
       cy="31.226997"
       fx="68.239929"
       fy="31.226997"
       r="1.136076"
       gradientTransform="matrix(1.0450162,0,0,1.0880683,24.499254,-23.467859)"
       gradientUnits="userSpaceOnUse" />
    <radialGradient
       inkscape:collect="always"
       xlink:href="#linearGradient4107"
       id="radialGradient3837"
       cx="68.333542"
       cy="42.459908"
       fx="68.333542"
       fy="42.459908"
       r="2.8739369"
       gradientTransform="matrix(1.3746587,-0.02064281,0.02785775,1.85512,7.5284518,-58.280213)"
       gradientUnits="userSpaceOnUse" />
    <radialGradient
       inkscape:collect="always"
       xlink:href="#linearGradient4121"
       id="radialGradient3845"
       cx="68.333542"
       cy="42.459908"
       fx="68.333542"
       fy="42.459908"
       r="2.8739369"
       gradientTransform="matrix(1.4477923,0.04552689,-0.04334259,1.3783289,-1.3912126,-40.111781)"
       gradientUnits="userSpaceOnUse" />
    <linearGradient
       inkscape:collect="always"
       xlink:href="#linearGradient4121"
       id="linearGradient3853"
       x1="65.175308"
       y1="51.72517"
       x2="73.644737"
       y2="51.72517"
       gradientUnits="userSpaceOnUse"
       gradientTransform="matrix(1.0450162,0,0,1.0450162,24.682869,-22.30709)" />
    <linearGradient
       x1="44.323193"
       y1="31.635447"
       x2="44.524776"
       y2="57.587322"
       id="linearGradient4190-1"
       xlink:href="#linearGradient4070-2"
       gradientUnits="userSpaceOnUse" />
    <linearGradient
       id="linearGradient4070-2">
      <stop
         offset="0"
         style="stop-color:#151687;stop-opacity:1;"
         id="stop4093" />
      <stop
         offset="0.0078125"
         style="stop-color:#1c1eb6;stop-opacity:1;"
         id="stop4091" />
      <stop
         offset="0.015625"
         style="stop-color:#162d8c;stop-opacity:1;"
         id="stop4089" />
      <stop
         offset="0.03125"
         style="stop-color:#1c1eb6;stop-opacity:1;"
         id="stop4087" />
      <stop
         offset="0.0625"
         style="stop-color:#1b1db5;stop-opacity:1;"
         id="stop4085" />
      <stop
         offset="0.125"
         style="stop-color:#191cb4;stop-opacity:1;"
         id="stop4083" />
      <stop
         offset="0.25"
         style="stop-color:#1519b2;stop-opacity:1;"
         id="stop4081" />
      <stop
         offset="0.5"
         style="stop-color:#0e13ae;stop-opacity:1;"
         id="stop4079" />
      <stop
         id="stop4074-9"
         style="stop-color:#0008a5;stop-opacity:1;"
         offset="1" />
    </linearGradient>
    <radialGradient
       inkscape:collect="always"
       xlink:href="#linearGradient4220"
       id="radialGradient3913"
       cx="43.807861"
       cy="41.457001"
       fx="43.807861"
       fy="41.457001"
       r="15.123827"
       gradientTransform="matrix(1,0,0,0.62651576,0,15.483536)"
       gradientUnits="userSpaceOnUse" />
    <filter
       inkscape:collect="always"
       id="filter3927"
       x="-0.076796331"
       width="1.1535927"
       y="-0.12288084"
       height="1.2457618"
       color-interpolation-filters="sRGB">
      <feGaussianBlur
         inkscape:collect="always"
         stdDeviation="0.96387892"
         id="feGaussianBlur3929" />
    </filter>
    <radialGradient
       inkscape:collect="always"
       xlink:href="#linearGradient4121"
       id="radialGradient3937"
       cx="22.325409"
       cy="50.744179"
       fx="22.325409"
       fy="50.744179"
       r="1.4146883"
       gradientTransform="matrix(1.0450162,0,0,1.0556075,24.055534,-22.897)"
       gradientUnits="userSpaceOnUse" />
    <radialGradient
       inkscape:collect="always"
       xlink:href="#linearGradient4107"
       id="radialGradient3945"
       cx="22.325409"
       cy="50.744179"
       fx="22.325409"
       fy="50.744179"
       r="1.4146883"
       gradientTransform="matrix(1.0450162,0,0,1.0556075,24.055534,-18.821927)"
       gradientUnits="userSpaceOnUse" />
    <radialGradient
       inkscape:collect="always"
       xlink:href="#linearGradient4121"
       id="radialGradient3947"
       cx="16.491228"
       cy="43.395508"
       fx="16.491228"
       fy="43.395508"
       r="5.6821756"
       gradientTransform="matrix(-0.08938193,1.2674405,-1.3180141,-0.0929485,74.07094,23.613672)"
       gradientUnits="userSpaceOnUse" />
    <radialGradient
       inkscape:collect="always"
       xlink:href="#linearGradient4107"
       id="radialGradient3987"
       cx="44.36375"
       cy="25.818529"
       fx="44.36375"
       fy="25.818529"
       r="4.9366207"
       gradientTransform="matrix(1.0450162,0,0,0.40123875,24.682869,-5.1713111)"
       gradientUnits="userSpaceOnUse" />
    <radialGradient
       inkscape:collect="always"
       xlink:href="#linearGradient4133"
       id="radialGradient4035"
       cx="44.326206"
       cy="44.114578"
       fx="44.326206"
       fy="44.114578"
       r="19.71612"
       gradientTransform="matrix(1.0531751,0,0,0.82574383,24.162007,-12.913532)"
       gradientUnits="userSpaceOnUse" />
    <radialGradient
       inkscape:collect="always"
       xlink:href="#linearGradient4107"
       id="radialGradient4051"
       cx="44.496426"
       cy="43.449951"
       fx="44.496426"
       fy="43.449951"
       r="35.351234"
       gradientTransform="matrix(1.0450058,0.00467667,-0.002597,0.58030044,24.796167,-2.3233059)"
       gradientUnits="userSpaceOnUse" />
    <linearGradient
       inkscape:collect="always"
       xlink:href="#linearGradient4141"
       id="linearGradient4077"
       x1="39.427132"
       y1="25.818529"
       x2="49.300373"
       y2="25.818529"
       gradientUnits="userSpaceOnUse"
       gradientTransform="matrix(1.0450162,0,0,1.0450162,24.682869,-21.792702)" />
    <radialGradient
       inkscape:collect="always"
       xlink:href="#linearGradient4220"
       id="radialGradient4101"
       cx="44.36375"
       cy="26.015108"
       fx="44.36375"
       fy="26.015108"
       r="4.936583"
       gradientTransform="matrix(1.0450162,0,0,0.2704238,24.682869,-2.1559815)"
       gradientUnits="userSpaceOnUse" />
    <radialGradient
       inkscape:collect="always"
       xlink:href="#linearGradient4070-2"
       id="radialGradient4140"
       cx="-52.311634"
       cy="10.048843"
       fx="-52.311634"
       fy="10.048843"
       r="3.1201172"
       gradientTransform="matrix(0.26250111,0,0,0.30666209,56.19129,13.410743)"
       gradientUnits="userSpaceOnUse" />
    <filter
       inkscape:collect="always"
       id="filter3887"
       x="-0.018658616"
       width="1.0373172"
       y="-0.21102434"
       height="1.4220487">
      <feGaussianBlur
         inkscape:collect="always"
         stdDeviation="0.49067201"
         id="feGaussianBlur3889" />
    </filter>
    <filter
       inkscape:collect="always"
       id="filter3892">
      <feGaussianBlur
         inkscape:collect="always"
         stdDeviation="0.095528016"
         id="feGaussianBlur3894" />
    </filter>
    <linearGradient
       inkscape:collect="always"
       xlink:href="#linearGradient3897"
       id="linearGradient3942"
       x1="34.299999"
       y1="23.885721"
       x2="107.85126"
       y2="22.643307"
       gradientUnits="userSpaceOnUse"
       gradientTransform="matrix(1,0,0,0.98821906,0,0.03634109)" />
  </defs>
  <rect
     width="91.992783"
     height="91.992783"
     x="89.301552"
     y="96.986671"
     id="rect645"
     style="fill:#ffffff;fill-opacity:0;fill-rule:nonzero;stroke:none;visibility:visible;display:inline" />
  <g
     transform="matrix(3.4105124,0,0,3.4105124,-105.90985,51.90442)"
     id="g4140">
    <g
       transform="translate(-2.3993955,0.9462538)"
       id="g4171">
      <path
         d="m 34.569023,34.048458 c 0.06439,2.679554 2.06068,4.763648 4.539935,5.359107 3.541793,0.628536 6.504019,1.356317 9.466247,3.076522 6.8582,2.878038 15.261909,2.878038 22.892863,2.977282 6.66501,0.165405 15.165313,-0.06616 20.284814,-2.481067 3.734983,-1.984856 7.856341,-3.275011 12.074298,-4.168196 1.8031,-0.595454 3.70278,-3.275008 3.67059,-5.359104 -0.0966,-7.476283 -0.38638,-14.952567 -1.44892,-22.428851 C 105.85566,9.5685921 105.1795,8.5100033 103.73058,8.4438416 100.63956,8.2453562 96.003034,6.6574724 92.139261,4.573376 90.303968,3.4817059 88.661863,3.1839786 86.923164,3.0847355 75.71822,2.6216022 64.513275,2.6546836 53.308329,3.1839775 51.054461,3.3824628 49.573347,4.4741331 48.575205,5.268075 45.516385,7.153686 41.29843,8.4438416 37.949826,8.840812 c -1.191331,0.099245 -1.899689,1.0916694 -2.125077,2.084097 -0.901546,7.707849 -1.416716,15.217213 -1.255726,23.123549 z"
         id="path3954"
         style="fill:url(#linearGradient3942);fill-opacity:1;fill-rule:evenodd;stroke:#4d4d4d;stroke-width:0.46913771999999998;stroke-linecap:round;stroke-linejoin:round;stroke-miterlimit:4;stroke-opacity:1;stroke-dasharray:none"
         inkscape:connector-curvature="0" />
      <path
         inkscape:connector-curvature="0"
         style="fill:url(#linearGradient3942);fill-opacity:1;fill-rule:evenodd;stroke:none;stroke-width:0.22968531000000000;stroke-linecap:round;stroke-linejoin:round;stroke-miterlimit:4;stroke-opacity:1;stroke-dasharray:none"
         id="path3952"
         d="m 34.569023,34.048458 c 0.06439,2.679554 2.06068,4.763648 4.539935,5.359107 3.541793,0.628536 6.504019,1.356317 9.466247,3.076522 6.8582,2.878038 15.261909,2.878038 22.892863,2.977282 6.66501,0.165405 15.165313,-0.06616 20.284814,-2.481067 3.734983,-1.984856 7.856341,-3.275011 12.074298,-4.168196 1.8031,-0.595454 3.70278,-3.275008 3.67059,-5.359104 -0.0966,-7.476283 -0.38638,-14.952567 -1.44892,-22.428851 C 105.85566,9.5685921 105.1795,8.5100033 103.73058,8.4438416 100.63956,8.2453562 96.003034,6.6574724 92.139261,4.573376 90.303968,3.4817059 88.661863,3.1839786 86.923164,3.0847355 75.71822,2.6216022 64.513275,2.6546836 53.308329,3.1839775 51.054461,3.3824628 49.573347,4.4741331 48.575205,5.268075 45.516385,7.153686 41.29843,8.4438416 37.949826,8.840812 c -1.191331,0.099245 -1.899689,1.0916694 -2.125077,2.084097 -0.901546,7.707849 -1.416716,15.217213 -1.255726,23.123549 z" />
      <path
         d="m 34.569023,34.048458 c 0.06439,2.679554 2.06068,4.763648 4.539935,5.359107 3.541793,0.628536 6.504019,1.356317 9.466247,3.076522 6.8582,2.878038 15.261909,2.878038 22.892863,2.977282 6.66501,0.165405 15.165313,-0.06616 20.284814,-2.481067 3.734983,-1.984856 7.856341,-3.275011 12.074298,-4.168196 1.8031,-0.595454 3.70278,-3.275008 3.67059,-5.359104 -0.0966,-7.476283 -0.38638,-14.952567 -1.44892,-22.428851 C 105.85566,9.5685921 105.1795,8.5100033 103.73058,8.4438416 100.63956,8.2453562 96.003034,6.6574724 92.139261,4.573376 90.303968,3.4817059 88.661863,3.1839786 86.923164,3.0847355 75.71822,2.6216022 64.513275,2.6546836 53.308329,3.1839775 51.054461,3.3824628 49.573347,4.4741331 48.575205,5.268075 45.516385,7.153686 41.29843,8.4438416 37.949826,8.840812 c -1.191331,0.099245 -1.899689,1.0916694 -2.125077,2.084097 -0.901546,7.707849 -1.416716,15.217213 -1.255726,23.123549 z"
         id="path4358"
         style="fill:url(#linearGradient3942);fill-opacity:1;fill-rule:evenodd;stroke:none;stroke-width:0.22968531000000000;stroke-linecap:round;stroke-linejoin:round;stroke-miterlimit:4;stroke-opacity:1;stroke-dasharray:none"
         inkscape:connector-curvature="0" />
      <path
         d="m 34.269366,32.873474 c 0.06524,2.641179 2.086855,4.695429 4.597607,5.282362 3.586786,0.619535 6.586641,1.336889 9.5865,3.032462 6.945325,2.836819 15.455797,2.836819 23.183685,2.934641 6.749676,0.16302 15.357967,-0.06524 20.542506,-2.445535 3.782429,-1.956429 7.956136,-3.228108 12.227676,-4.108501 1.82598,-0.586925 3.74982,-3.228103 3.71721,-5.282354 -0.0978,-7.369218 -0.39125,-14.738434 -1.46733,-22.107653 -0.19563,-1.4347081 -0.88038,-2.4781425 -2.3477,-2.5433539 C 101.17922,7.4398944 96.483802,5.8747549 92.570954,3.8205052 90.712339,2.7444727 89.049376,2.4510069 87.288593,2.3531834 75.941306,1.8966829 64.594013,1.9292903 53.246725,2.4510069 50.964228,2.6466546 49.464294,3.7226874 48.453473,4.5052598 45.355797,6.3638651 41.084258,7.6355453 37.693115,8.0268321 c -1.206464,0.097823 -1.923819,1.0760346 -2.152069,2.0542489 -0.913001,7.597468 -1.434717,14.999287 -1.27168,22.7924 z"
         id="path3555"
         style="fill:url(#radialGradient4051);fill-opacity:1;fill-rule:evenodd;stroke:#a5a5a5;stroke-opacity:1;stroke-width:0.14983086;stroke-miterlimit:4;stroke-dasharray:none;stroke-linecap:round;stroke-linejoin:round"
         inkscape:connector-curvature="0" />
      <path
         d="m 54.624821,7.8277993 c -1.643084,0.256331 -3.286174,1.3778489 -3.450483,3.1722537 -0.854402,7.658279 -1.018712,15.31655 -0.78868,22.97483 0.09858,1.441935 1.67595,3.268381 3.253311,3.749027 6.113209,1.274877 12.226429,1.910624 18.339645,1.862418 5.256937,-0.04145 10.51388,-0.588668 15.770828,-1.67016 2.300324,-0.801075 3.614782,-3.140214 3.647648,-4.71032 C 91.429829,25.643705 91.068488,18.081554 90.312655,10.519412 89.984053,9.0774743 88.669568,7.8277993 86.960757,7.6355421 76.182109,7.3471485 65.403468,7.3471485 54.624821,7.8278049 z"
         id="path4066"
         style="fill:url(#radialGradient4035);fill-opacity:1;fill-rule:evenodd;stroke:#000000;stroke-width:0.41598904;stroke-linecap:round;stroke-linejoin:round;stroke-miterlimit:4;stroke-opacity:1;stroke-dasharray:none"
         inkscape:connector-curvature="0" />
      <path
         d="m 54.085653,9.6299705 33.589128,0 c 0.830364,0 1.498845,0.7378525 1.498845,1.6543705 l 0,22.302909 c 0,0.916517 -0.668481,1.654364 -1.498845,1.654364 l -33.589128,0 c -0.830363,0 -1.498844,-0.737847 -1.498844,-1.654364 l 0,-22.302909 c 0,-0.916518 0.668481,-1.6543705 1.498844,-1.6543705 z"
         id="rect4068"
         style="fill:url(#linearGradient4190);fill-opacity:1;fill-rule:evenodd;stroke:#040202;stroke-width:0.48451903;stroke-linecap:round;stroke-linejoin:round;stroke-miterlimit:4;stroke-opacity:1"
         inkscape:connector-curvature="0" />
      <path
         d="m 41.053045,18.016415 -0.620929,-3.134685 -0.535122,-0.683049 5.218763,0.04885 0.126951,3.666835 3.935752,0 0,4.905476 -0.6236,-0.48858 -3.312152,-0.244291 0,4.575009 -4.143207,-0.709592 0,-3.865417 -3.796982,0.05324 -0.631841,-3.687337 -0.655085,-0.489701 5.037444,0.05324 z"
         id="path4202"
         style="fill:#e2e4e4;fill-opacity:1;fill-rule:evenodd;stroke:none"
         inkscape:connector-curvature="0" />
      <path
         d="m 39.823876,18.612213 0.07157,-4.347181 0.500115,0.586303 3.704407,0 0.05983,3.655241 4.073132,0 0.230322,3.805704 0.743422,0.513892 -3.974129,0 -1.07272,-0.684016 0.442672,3.982358 0.625317,0.628564 -5.355819,0.07469 0,-4.001586 -3.929519,0.0551 0.04095,-4.763914 0.650548,0.449058 3.189958,0.04578 z"
         id="path4204"
         style="fill:#282828;fill-opacity:1;fill-rule:evenodd;stroke:none"
         inkscape:connector-curvature="0" />
      <text
         xml:space="preserve"
         style="font-size:2.75670624000000020px;font-style:normal;font-variant:normal;font-weight:bold;font-stretch:normal;line-height:125%;letter-spacing:0px;word-spacing:0px;fill:#ffffff;fill-opacity:1;stroke:#58009a;stroke-width:0.13794875000000001;stroke-miterlimit:4;stroke-opacity:1;stroke-dasharray:none;font-family:Sans;-inkscape-font-specification:Sans Bold"
         x="39.307247"
         y="18.291529"
         id="text4130"
         sodipodi:linespacing="125%"
         transform="scale(1.0458008,0.95620505)"><tspan
           sodipodi:role="line"
           id="tspan4132"
           x="39.307247"
           y="18.291529"
           style="font-style:normal;font-variant:normal;font-weight:bold;font-stretch:normal;stroke:#58009a;stroke-width:0.13794875000000001;stroke-miterlimit:4;stroke-opacity:1;stroke-dasharray:none;font-family:Sans;-inkscape-font-specification:Sans Bold">X</tspan></text>
      <path
         d="m 15.064847,39.037126 0,-3.457376 3.887701,0 0.07474,3.363768 3.812965,0 0,3.827736 -3.766211,0 -0.04675,3.666775 -3.871221,-0.02733 -0.04675,-3.639441 -3.633419,0.04884 0.03784,-3.831806 3.551114,0.04884 z"
         id="path4079"
         style="opacity:0.50623794;fill:url(#radialGradient3947);fill-opacity:1;fill-rule:evenodd;stroke:none;filter:url(#filter3892)"
         inkscape:connector-curvature="0"
         sodipodi:nodetypes="cccccccccccccc"
         transform="matrix(0.96408481,0,0,1.0067225,26.066624,-20.82627)" />
      <path
         d="m 105.28773,19.077421 c 0,1.460467 -1.1825,2.644411 -2.64118,2.644411 -1.45869,0 -2.64117,-1.183944 -2.64117,-2.644411 0,-1.460471 1.18248,-2.644417 2.64117,-2.644417 1.45868,0 2.64118,1.183946 2.64118,2.644417 z"
         id="path4083"
         style="fill:url(#radialGradient3837);fill-opacity:1;fill-rule:evenodd;stroke:url(#linearGradient4192);stroke-width:0.73151135;stroke-linecap:round;stroke-linejoin:round;stroke-miterlimit:4;stroke-opacity:1;stroke-dasharray:none"
         inkscape:connector-curvature="0" />
      <path
         d="m 48.608711,30.668929 c 0,0.677283 -0.547452,1.226328 -1.222772,1.226328 -0.675316,0 -1.222768,-0.549045 -1.222768,-1.226328 0,-0.677277 0.547452,-1.226325 1.222768,-1.226325 0.67532,0 1.222772,0.549048 1.222772,1.226325 l 0,0 z"
         id="path4085"
         style="fill:url(#radialGradient3937);fill-opacity:1;fill-rule:evenodd;stroke:url(#linearGradient4194);stroke-width:0.52250808;stroke-linecap:round;stroke-linejoin:round;stroke-miterlimit:4;stroke-opacity:1;stroke-dasharray:none"
         inkscape:connector-curvature="0" />
      <path
         d="m 94.832864,9.4821203 1.95643,0 0,2.0542497 -1.95643,0 0,-2.0542497 z"
         id="rect4089"
         style="fill:url(#radialGradient3829);fill-opacity:1;fill-rule:evenodd;stroke:#363637;stroke-width:0.41800645;stroke-linecap:round;stroke-linejoin:round;stroke-miterlimit:4;stroke-opacity:1"
         inkscape:connector-curvature="0" />
      <path
         d="m 67.333015,3.8070091 c -1.695573,-0.065018 -1.434719,1.820733 -0.09782,2.1458659 2.510743,0 5.021496,0 7.532248,0 1.565139,-0.032452 1.565139,-2.2108928 0,-2.1458659 -2.47814,0 -4.956287,0 -7.434427,0 z"
         id="path4169"
         style="fill:none;stroke:url(#radialGradient4101);stroke-width:0.52242959;stroke-linecap:round;stroke-linejoin:round;stroke-miterlimit:4;stroke-opacity:1;stroke-dasharray:none"
         inkscape:connector-curvature="0" />
      <path
         d="m 67.333015,4.1128699 c -1.695573,-0.065193 -1.434719,1.8259986 -0.09782,2.1520708 2.510743,0 5.021496,0 7.532248,0 1.565139,-0.032453 1.565139,-2.2172846 0,-2.1520708 -2.47814,0 -4.956287,0 -7.434427,0 z"
         id="path4092"
         style="fill:url(#radialGradient3987);fill-opacity:1;stroke:url(#linearGradient4077);stroke-width:0.27730137;stroke-linecap:round;stroke-linejoin:round;stroke-miterlimit:4;stroke-opacity:1;stroke-dasharray:none"
         inkscape:connector-curvature="0" />
      <path
         d="m 93.15787,29.952191 8.11918,-2.054247 m -8.11918,3.517161 8.11918,-2.054249 m -8.11918,3.621774 8.11918,-2.054252 m -8.11918,3.621772 8.11918,-2.054247 m -8.11918,3.517271 8.11918,-2.05425"
         id="path4105"
         style="fill:none;stroke:#e3b2f7;stroke-width:0.73151135;stroke-linecap:round;stroke-linejoin:round;stroke-miterlimit:4;stroke-opacity:1;stroke-dasharray:none"
         inkscape:connector-curvature="0" />
      <path
         d="m 93.15787,29.74319 8.11918,-2.054254 m -8.11918,3.517165 8.11918,-2.054249 m -8.11918,3.621771 8.11918,-2.054245 m -8.11918,3.621771 8.11918,-2.05425 m -8.11918,3.517274 8.11918,-2.054253"
         id="path4094"
         style="opacity:0.84887462;fill:url(#linearGradient3853);fill-opacity:1;stroke:#570ac4;stroke-width:0.73151135;stroke-linecap:round;stroke-linejoin:round;stroke-miterlimit:4;stroke-opacity:1;stroke-dasharray:none"
         inkscape:connector-curvature="0" />
      <path
         d="m 98.342416,21.522956 c 0,1.460467 -1.182502,2.644412 -2.64118,2.644412 -1.458685,0 -2.641179,-1.183945 -2.641179,-2.644412 0,-1.460472 1.182494,-2.644417 2.641179,-2.644417 1.458678,0 2.64118,1.183945 2.64118,2.644417 z"
         id="path4115"
         style="fill:url(#radialGradient3845);fill-opacity:1;fill-rule:evenodd;stroke:url(#linearGradient4196);stroke-width:0.73151135;stroke-linecap:round;stroke-linejoin:round;stroke-miterlimit:4;stroke-opacity:1;stroke-dasharray:none"
         inkscape:connector-curvature="0" />
      <path
         d="m 48.608711,34.744007 c 0,0.67728 -0.547452,1.226324 -1.222772,1.226324 -0.675316,0 -1.222768,-0.549044 -1.222768,-1.226324 0,-0.677284 0.547452,-1.226327 1.222768,-1.226327 0.67532,0 1.222772,0.549043 1.222772,1.226327 l 0,0 z"
         id="path4129"
         style="fill:url(#radialGradient3945);fill-opacity:1;fill-rule:evenodd;stroke:url(#linearGradient4198);stroke-width:0.52250808;stroke-linecap:round;stroke-linejoin:round;stroke-miterlimit:4;stroke-opacity:1;stroke-dasharray:none"
         inkscape:connector-curvature="0" />
      <path
         d="m 30.033277,32.044183 28.83591,0 C 54.262101,43.485922 32.199929,40.876187 28.746533,50.869815 l 0,-17.525632 c 0,-0.7202 0.573888,-1.3 1.286744,-1.3 z"
         id="rect4068-6"
         style="opacity:0.87152782;fill:url(#radialGradient3913);fill-opacity:1;fill-rule:evenodd;stroke:#ffffff;stroke-width:0.0875137;stroke-linecap:round;stroke-linejoin:round;stroke-miterlimit:4;stroke-opacity:1;stroke-dasharray:none;filter:url(#filter3927)"
         inkscape:connector-curvature="0"
         sodipodi:nodetypes="sccss"
         transform="matrix(1.0450162,0,0,1.0450162,24.682863,-22.307091)" />
      <path
         sodipodi:type="arc"
         style="opacity:0.61805558000000005;fill:#ffffff;fill-opacity:1;stroke:#58009a;stroke-width:0.80000000999999998;stroke-linejoin:round;stroke-miterlimit:4;stroke-opacity:1;stroke-dasharray:none"
         id="path4103"
         sodipodi:cx="-56.478657"
         sodipodi:cy="40.809612"
         sodipodi:rx="2.8464043"
         sodipodi:ry="2.8464043"
         d="m -53.632252,40.809612 a 2.8464043,2.8464043 0 1 1 -0.0038,-0.146245"
         transform="matrix(0.30641034,0,0,0.30641034,59.642139,12.276946)"
         sodipodi:start="0"
         sodipodi:end="6.2317837"
         sodipodi:open="true" />
      <rect
         style="opacity:0.61805558;fill:#ffffff;fill-opacity:1;stroke:#58009a;stroke-width:0.26749623;stroke-linejoin:round;stroke-miterlimit:4;stroke-opacity:1;stroke-dasharray:none"
         id="rect4107"
         width="1.5710818"
         height="1.7547063"
         x="37.516407"
         y="19.72683"
         rx="0"
         ry="0" />
      <path
         sodipodi:type="star"
         style="opacity:0.61805558;fill:#ffffff;fill-opacity:1;stroke:#102084;stroke-width:0.80000001;stroke-linejoin:round;stroke-miterlimit:4;stroke-opacity:1;stroke-dasharray:none"
         id="path4122"
         sodipodi:sides="3"
         sodipodi:cx="-110.56034"
         sodipodi:cy="-29.152014"
         sodipodi:r1="264.00888"
         sodipodi:r2="236.3383"
         sodipodi:arg1="1.2381053"
         sodipodi:arg2="-3.0370907"
         inkscape:flatsided="false"
         inkscape:rounded="0.1"
         inkscape:randomized="0"
         d="M -24.338294,220.38044 C -58.45999,195.48794 -313.64958,-26.191479 -345.60933,-53.8049 c -2.65511,-2.294026 -27.37176,-24.021919 -24.16348,-25.44286 38.61839,-17.104004 358.19319,-127.26496 398.086991,-141.13621 3.314236,-1.15237 34.489472,-11.69368 34.115902,-8.20476 -4.496691,41.99651 -68.8819062,373.83689 -76.815954,415.32156 -0.659132,3.4464 -7.117713,35.7156 -9.952423,33.64761 z"
         transform="matrix(-0.03753963,-4.933203e-8,0.01221107,-1.4180943e-7,69.682916,25.28634)"
         inkscape:transform-center-y="-4.6817297e-05"
         inkscape:transform-center-x="6.5826519" />
      <path
         sodipodi:type="star"
         style="opacity:0.61805558000000005;fill:#ffffff;fill-opacity:1;stroke:#58009a;stroke-width:6.31303268000000006;stroke-linejoin:round;stroke-miterlimit:4;stroke-opacity:1;stroke-dasharray:none"
         id="path4128"
         sodipodi:sides="3"
         sodipodi:cx="-58.725819"
         sodipodi:cy="22.98213"
         sodipodi:r1="41.441025"
         sodipodi:r2="35.230743"
         sodipodi:arg1="-1.7086034"
         sodipodi:arg2="0.25754493"
         inkscape:flatsided="false"
         inkscape:rounded="0.1"
         inkscape:randomized="0"
         d="m -64.418626,-18.066018 c 4.536079,4.50061 35.835285,44.980271 39.761578,50.021673 0.485949,0.623963 5.089485,6.412744 4.326372,6.620433 -6.165682,1.678055 -56.8717,8.544131 -63.200828,9.4237 -0.783343,0.108863 -8.098342,1.201252 -7.89665,0.436532 1.629603,-6.178665 21.036415,-53.5244027 23.439251,-59.445373 0.297393,-0.732826 3.008856,-7.613996 3.570277,-7.056965 z"
         transform="matrix(-0.01837924,0.0242849,-0.02139726,-0.01845948,46.027256,22.565833)"
         inkscape:transform-center-x="0.42153348"
         inkscape:transform-center-y="-1.4733338" />
    </g>
    <path
       d="m 38.189818,9.3122261 c 3.671873,-0.541119 6.763979,-1.5460544 9.972041,-3.7105257 1.15954,-1.0822399 2.550988,-1.3527997 4.174343,-1.507402 10.822372,-0.502467 21.412828,-0.4251643 32.119252,-0.1159746 1.816603,0 3.401311,0.4638147 5.101969,1.3914438 3.401316,2.2031269 9.413141,3.7902844 11.746017,3.8264845"
       id="path4360"
       style="opacity:0.57556272;fill:none;stroke:#ffffff;stroke-width:0.90866411;stroke-linecap:round;stroke-linejoin:round;stroke-miterlimit:4;stroke-opacity:1;stroke-dasharray:none;filter:url(#filter3887)"
       inkscape:connector-curvature="0"
       transform="matrix(1.0293871,0,0,0.88839412,-2.2661802,0.50156477)" />
  </g>
</svg>
