<svg xmlns="http://www.w3.org/2000/svg" width="48" height="48" viewBox="0 0 48 48">
    <rect x="24" y="6" fill="#6D4C41" width="18" height="12"/>
    <path fill="#F4511E" d="M33,7l-9,10v25h18V17L33,7z"/>
    <circle fill="#BF360C" cx="33" cy="14" r="3"/>
    <rect x="6" y="6" fill="#4E342E" width="18" height="12"/>
    <path fill="#BF360C" d="M15,7L6,17v25h18V17L15,7z"/>
    <circle fill="#6D4C41" cx="15" cy="14" r="3"/>
    <g fill="#FFC107">
        <rect x="35" y="35" width="4" height="4"/>
        <rect x="35" y="19" width="4" height="4"/>
        <rect x="35" y="27" width="4" height="4"/>
        <rect x="27" y="19" width="4" height="4"/>
        <rect x="27" y="27" width="4" height="4"/>
        <rect x="27" y="35" width="4" height="4"/>
        <circle cx="33" cy="14" r="2"/>
        <rect x="17" y="35" width="4" height="4"/>
        <rect x="17" y="19" width="4" height="4"/>
        <rect x="17" y="27" width="4" height="4"/>
        <rect x="9" y="19" width="4" height="4"/>
        <rect x="9" y="27" width="4" height="4"/>
        <rect x="9" y="35" width="4" height="4"/>
        <circle cx="15" cy="14" r="2"/>
    </g>
</svg>
