<svg xmlns="http://www.w3.org/2000/svg" viewBox="0 0 48 48" enable-background="new 0 0 48 48">
    <path fill="#FF8A65" d="M10,26c0,3.2,1,6.2,3,8.6c2,2.6,3,6,3,9.4l0,0h16c0,0,1-6.8,3-9.6c1.8-2.4,3-5.4,3-8.6 c0-5.4-3.2-10.6-8-12.8V6H18v7C18,13,10,16.2,10,26z"/>
    <g fill="#FFAB91">
        <path d="M36,26c0-2.2,0.6-3.9,1.3-4.6c-0.2-0.7-0.5-1.3-0.8-1.9C35,20.5,34,22.9,34,26c0,2.9,0.9,5.3,2.3,6.4 c0.3-0.6,0.6-1.3,0.9-1.9C36.6,29.6,36,28.1,36,26z"/>
        <path d="M24,19c-3.9,0-7,3.1-7,7s3.1,7,7,7s7-3.1,7-7S27.9,19,24,19z M24,31c-2.8,0-5-2.2-5-5s2.2-5,5-5s5,2.2,5,5 S26.8,31,24,31z"/>
        <path d="M11.4,19.4c-0.3,0.6-0.6,1.2-0.8,1.9c0.7,0.7,1.3,2.4,1.3,4.6c0,2.2-0.6,3.8-1.3,4.5 c0.2,0.7,0.5,1.3,0.8,1.9C13,31.4,14,29,14,26C14,22.9,13,20.4,11.4,19.4z"/>
        <rect x="18" y="11" width="12" height="2"/>
    </g>
    <path fill="#FF7043" d="M16,6L16,6c0,1.1,0.9,2,2,2h12c1.1,0,2-0.9,2-2v0c0-1.1-0.9-2-2-2H18C16.9,4,16,4.9,16,6z"/>
    <path fill="#8C2A0B" d="M22.7,29.9l1.5,7.3l-0.2-8l-3-2.4l3.6-6h-8.8l-2.6-3.9c-0.7,0.8-1.3,1.7-1.9,2.9l2.6,2.9l8.7-0.7l-4.2,5.6 L22.7,29.9z"/>
</svg>
