<svg xmlns="http://www.w3.org/2000/svg" width="48" height="48" viewBox="0 0 48 48">
    <path fill="#F44336" d="M24,8l-11,5.945V16L2,20v20h44V20l-11-4v-2.055L24,8z"/>
    <g fill="#FF8A80">
        <rect x="6" y="25" width="10" height="15"/>
        <rect x="32" y="25" width="10" height="15"/>
    </g>
    <rect x="16" y="25" fill="#4E342E" width="16" height="15"/>
    <g fill="#fff">
        <polygon points="16,25 13.817,25 11,30.354 8.183,25 6,25 6,25.146 9.87,32.5 6,39.854 6,40 8.183,40 11,34.646 13.817,40 16,40 16,39.854 12.13,32.5 16,25.146"/>
        <polygon points="42,25 39.817,25 37,30.354 34.183,25 32,25 32,25.146 35.87,32.5 32,39.854 32,40 34.183,40 37,34.646 39.817,40 42,40 42,39.854 38.13,32.5 42,25.146"/>
        <rect x="20.818" y="14.318" transform="matrix(.707 -.707 .707 .707 -5.345 22.096)" width="6.364" height="6.364"/>
    </g>
    <g fill="#B71C1C">
        <rect x="22.637" y="16.137" transform="matrix(.707 -.707 .707 .707 -5.346 22.089)" width="2.727" height="2.727"/>
        <polygon points="13,18 1,22 1,20 13,16"/>
        <polygon points="24,9 12,15 12,13 24,7"/>
        <polygon points="36,13 24,7 24,9 36,15"/>
        <polygon points="35,18 47,22 47,20 35,16"/>
    </g>
</svg>
