<svg xmlns="http://www.w3.org/2000/svg" width="48" height="48" viewBox="0 0 48 48">
    <path fill="#9C27B0" d="M44,23c0,1.657-1.343,3-3,3H7c-1.657,0-3-1.343-3-3V9c0-1.657,1.343-3,3-3h34c1.657,0,3,1.343,3,3V23z"/>
    <g fill="#F3E5F5">
        <path d="M40,21v-7.353c0-0.256-0.11-0.497-0.303-0.664C39.465,12.78,37.563,11,32.531,11s-6.996,1.78-7.229,1.983 C25.11,13.15,25,13.392,25,13.647V19L40,21z"/>
        <path d="M8,21v-7.353c0-0.256,0.11-0.497,0.303-0.664C8.535,12.78,10.438,11,15.469,11s6.996,1.78,7.229,1.983 C22.89,13.15,23,13.392,23,13.647V19L8,21z"/>
    </g>
    <path fill="#FF9800" d="M46,42h-6v-2.237C40,38.52,39.56,38,38.315,38H9.685C8.44,38,8,38.52,8,39.763V42H2V31h44V42z"/>
    <path fill="#E1BEE7" d="M46,33H2v-1c0-10.992,3.252-14.895,21.526-14.895C40.959,17.105,46,20.446,46,32V33z"/>
    <rect x="2" y="32" fill="#EF6C00" width="44" height="2"/>
</svg>
