<svg xmlns="http://www.w3.org/2000/svg" viewBox="0 0 48 48" enable-background="new 0 0 48 48">
    <g fill="#9C1818">
        <rect x="28" y="12.1" width="1" height="10"/>
        <rect x="31" y="14.4" width="1" height="7.6"/>
        <rect x="34" y="15.8" width="1" height="6.2"/>
        <rect x="37" y="17.1" width="1" height="5"/>
        <rect x="40" y="17.6" width="1" height="4.4"/>
        <rect x="19" y="12.1" width="1" height="10"/>
        <rect x="16" y="14.4" width="1" height="7.6"/>
        <rect x="13" y="15.8" width="1" height="6.2"/>
        <rect x="10" y="17.1" width="1" height="5"/>
        <rect x="7" y="17.6" width="1" height="4.4"/>
        <path d="M44,23H4v2h0c2.2,0,4,1.8,4,4v6h6v-6c0-2.2,1.8-4,4-4h12c2.2,0,4,1.8,4,4v6h6v-6c0-2.2,1.8-4,4-4h0V23z"/>
    </g>
    <rect x="4" y="35.3" fill="#81D4FA" width="40" height="6.7"/>
    <g fill="#03A9F4">
        <path d="M42,40h-2c0,1.1-0.9,2-2,2s-2-0.9-2-2h-2c0,1.1-0.9,2-2,2s-2-0.9-2-2h-2c0,1.1-0.9,2-2,2s-2-0.9-2-2h-2 c0,1.1-0.9,2-2,2s-2-0.9-2-2h-2c0,1.1-0.9,2-2,2s-2-0.9-2-2h-2c0,1.1-0.9,2-2,2s-2-0.9-2-2H4v3.4c0.4-0.2,0.7-0.5,1-0.8 C5.7,43.5,6.8,44,8,44s2.3-0.5,3-1.4c0.7,0.8,1.8,1.4,3,1.4s2.3-0.5,3-1.4c0.7,0.8,1.8,1.4,3,1.4s2.3-0.5,3-1.4 c0.7,0.8,1.8,1.4,3,1.4s2.3-0.5,3-1.4c0.7,0.8,1.8,1.4,3,1.4s2.3-0.5,3-1.4c0.7,0.8,1.8,1.4,3,1.4s2.3-0.5,3-1.4 c0.7,0.8,1.8,1.4,3,1.4v-2C42.9,42,42,41.1,42,40z"/>
        <path d="M42,33h-2c0,1.1-0.9,2-2,2s-2-0.9-2-2h-2c0,1.1-0.9,2-2,2s-2-0.9-2-2h-2c0,1.1-0.9,2-2,2s-2-0.9-2-2h-2 c0,1.1-0.9,2-2,2s-2-0.9-2-2h-2c0,1.1-0.9,2-2,2s-2-0.9-2-2h-2c0,1.1-0.9,2-2,2s-2-0.9-2-2H4v3.4c0.4-0.2,0.7-0.5,1-0.8 C5.7,36.5,6.8,37,8,37s2.3-0.5,3-1.4c0.7,0.8,1.8,1.4,3,1.4s2.3-0.5,3-1.4c0.7,0.8,1.8,1.4,3,1.4s2.3-0.5,3-1.4 c0.7,0.8,1.8,1.4,3,1.4s2.3-0.5,3-1.4c0.7,0.8,1.8,1.4,3,1.4s2.3-0.5,3-1.4c0.7,0.8,1.8,1.4,3,1.4s2.3-0.5,3-1.4 c0.7,0.8,1.8,1.4,3,1.4v-2C42.9,35,42,34.1,42,33z"/>
    </g>
    <rect x="4" y="22" fill="#C62828" width="40" height="3"/>
    <path fill="#C62828" d="M26,7.6C25.8,6.7,25,6,24,6c-1,0-1.8,0.7-2,1.7C21.4,8.8,16.3,17,4,17v2c9.8,0,15.4-4.7,18-7.8V22h1v-2h2v2 h1V10.9C28.8,14,34.6,19,44,19v-2C32.7,17,26.8,8.9,26,7.6z M25,18h-2v-2h2V18z M25,14h-2v-2h2V14z M25,10h-2V8h2V10z"/>
</svg>
