<svg xmlns="http://www.w3.org/2000/svg" width="48" height="48" viewBox="0 0 48 48">
    <g fill="none" stroke="#455A64" stroke-width="2" stroke-linejoin="round">
        <polyline points="27,32 31,35 32,42 35,44"/>
        <polyline points="28,26 33,27 34,31 36,33"/>
        <polyline points="29,22 34,20 31,15 33,12"/>
        <polyline points="21,32 17,35 16,42 13,44"/>
        <polyline points="20,26 15,27 14,31 12,33"/>
        <polyline points="19,22 14,20 17,15 15,12"/>
    </g>
    <g fill="none" stroke="#4DB6AC" stroke-width="2">
        <path d="M39,4c0,0-14,1-14,10"/>
        <path d="M9,4c0,0,14,1,14,10"/>
    </g>
    <path fill="#00695C" d="M27.021,20.812c0,1.67-1.354,3.021-3.021,3.021l0,0c-1.669,0-3.021-1.352-3.021-3.021v-5.79 C20.979,13.352,22.331,12,24,12l0,0c1.668,0,3.021,1.352,3.021,3.021V20.812z"/>
    <path fill="#26A69A" d="M24,42c-6,0-7-22-7-22c0-1.104,4-2,7-2s7,0.896,7,2C31,20,30,42,24,42z"/>
    <path fill="#00897B" d="M23,41.773C23.313,41.918,23.646,42,24,42s0.687-0.082,1-0.227V18.034C24.669,18.013,24.335,18,24,18 s-0.669,0.013-1,0.034V41.773z"/>
</svg>
