<svg xmlns="http://www.w3.org/2000/svg" width="48" height="48" viewBox="0 0 48 48">
    <path fill="#FFA000" d="M44,36H4V10h40V36z"/>
    <g fill="#5D4037">
        <path d="M27,30h-6c-0.553,0-1-0.447-1-1s0.447-1,1-1h6c0.553,0,1,0.447,1,1S27.553,30,27,30z"/>
        <path d="M27,18h-6c-0.553,0-1-0.447-1-1s0.447-1,1-1h6c0.553,0,1,0.447,1,1S27.553,18,27,18z"/>
    </g>
    <g fill="#EF6C00">
        <rect x="4" y="22" width="40" height="2"/>
        <path d="M46,12H2V7h44V12z"/>
        <path d="M4,34v2v5h6v-3.375c0-1.2,0.425-1.625,1.625-1.625h24.75c1.2,0,1.625,0.425,1.625,1.625V41h6v-5v-2H4z"/>
    </g>
</svg>
