<svg xmlns="http://www.w3.org/2000/svg" width="48" height="48" viewBox="0 0 48 48">
    <path fill="#F44336" d="M33.126,8c2.048,3,1.022,7-1.024,7s-3.072-2-3.072-2s-3.07-7-8.19-11c2.319,7.93-1.024,13-5.12,11.999 C11.624,13,15.719,7,15.719,7C3.433,13,2.408,45,23.911,45C45.412,45,44.389,15,33.126,8z M24,34.841c-2.485,0-4.5-2.016-4.5-4.5 s2.015-4.5,4.5-4.5s4.5,2.016,4.5,4.5S26.485,34.841,24,34.841z"/>
    <path fill="#FFC107" d="M24,16c-7.731,0-14,6.271-14,14s6.269,14,14,14c7.73,0,14-6.271,14-14S31.73,16,24,16z M24,33.841 c-1.933,0-3.5-1.568-3.5-3.5s1.567-3.5,3.5-3.5s3.5,1.568,3.5,3.5S25.933,33.841,24,33.841z"/>
    <g fill="#FFECB3">
        <path d="M20.563,32.091l-7.781,6.213c1.036,1.44,2.31,2.699,3.779,3.696l6.231-7.909 C21.81,33.577,21.133,33.039,20.563,32.091z"/>
        <path d="M28.063,28.924L36,22.604c-1.002-1.473-2.267-2.749-3.715-3.784l-6.264,7.854 C26.977,27.245,27.548,27.934,28.063,28.924z"/>
    </g>
    <path fill="#C62828" d="M24,16c7.73,0,14,6.271,14,14s-6.27,14-14,14c-7.731,0-14-6.271-14-14S16.269,16,24,16 M24,14 c-8.822,0-16,7.178-16,16s7.178,16,16,16s16-7.178,16-16S32.822,14,24,14L24,14z"/>
    <path fill="#EF6C00" d="M24,25.841c-2.485,0-4.5,2.016-4.5,4.5s2.015,4.5,4.5,4.5s4.5-2.016,4.5-4.5S26.485,25.841,24,25.841z M24,32.341c-1.104,0-2-0.896-2-2s0.896-2,2-2c1.104,0,2,0.896,2,2S25.104,32.341,24,32.341z"/>
</svg>
