<svg xmlns="http://www.w3.org/2000/svg" width="48" height="48" viewBox="0 0 48 48">
    <path fill="#3F51B5" d="M24,43C13.522,43,5,34.478,5,24S13.522,5,24,5s19,8.522,19,19S34.478,43,24,43z"/>
    <g fill="#1A237E">
        <circle cx="18" cy="18" r="3"/>
        <circle cx="30" cy="18" r="3"/>
        <circle cx="18" cy="30" r="3"/>
        <circle cx="30" cy="30" r="3"/>
    </g>
    <g fill="#fff">
        <path d="M19,30.017c-0.256,0-0.512-0.098-0.707-0.292c-0.391-0.391-0.391-1.023-0.001-1.415l10-10.017 c0.391-0.391,1.024-0.39,1.415-0.001c0.391,0.391,0.391,1.023,0.001,1.415l-10,10.017C19.513,29.919,19.256,30.017,19,30.017z"/>
        <path d="M29,30.017c0.256,0,0.512-0.098,0.707-0.292c0.391-0.391,0.391-1.023,0.001-1.415l-10-10.017 c-0.391-0.391-1.024-0.39-1.415-0.001c-0.391,0.391-0.391,1.023-0.001,1.415l10,10.017C28.487,29.919,28.744,30.017,29,30.017z"/>
    </g>
</svg>
