<svg xmlns="http://www.w3.org/2000/svg" viewBox="0 0 48 48" enable-background="new 0 0 48 48">
    <path fill="#546E7A" d="M12.7,30.7l2,8.2c0.3,1-0.5,2.1-1.6,2.1h0c-0.8,0-1.4-0.5-1.6-1.3l-1.4-5.8L12.7,30.7z"/>
    <path fill="#607D8B" d="M8.6,31.9l-3.1-1.9c-1.7-1.1-1.9-3.2-0.9-4.6l4-7.7C9,16.6,10,16,11.2,16h0c0.9,0,1.8,0.3,2.6,0.8l3.1,2.2 c0,0,0.1,0,0.1,0h4.9c0.8,0,1.5,0.7,1.5,1.5S22.7,22,21.9,22h-4.9c-0.7,0-1.3-0.2-1.8-0.6l-1.2-0.8l-4.1,7.2l1.6,1.3 c1.7,1.3,1.7,2.5,0.6,4.2l-4.5,6.9C7.3,40.7,6.8,41,6.2,41h0c-1.3,0-2.1-1.4-1.5-2.5L8.6,31.9z"/>
    <path fill="#37474F" d="M25,41h4c0.6,0,1-0.4,1-1V30h-6v10C24,40.6,24.4,41,25,41z"/>
    <circle fill="#FFB74D" cx="14.5" cy="12.5" r="3.5"/>
    <path fill="#263238" d="M24,38h6V27h-6V38z"/>
    <path fill="#F44336" d="M30.9,9H44v28H26c-1.1,0-2-0.9-2-2V21l3.1-9.3C27.6,10.1,29.2,9,30.9,9z"/>
    <path fill="#607D8B" d="M27.4,21H44V11H30.7c-0.9,0-1.6,0.6-1.9,1.4l-2.3,7.3C26.2,20.3,26.7,21,27.4,21z"/>
    <path fill="#F44336" d="M21.8,22H25l1-4h-3.9c-0.7,0-1.2,0.4-1.4,1.1l-0.3,1.1C20.2,21.1,20.9,22,21.8,22z"/>
    <circle fill="#FFF9C4" cx="28.5" cy="27.5" r="2.5"/>
    <circle fill="#FFEB3B" cx="28.5" cy="27.5" r="1.2"/>
    <g fill="#C62828">
        <path d="M44,33v2H27c-0.6,0-1-0.4-1-1v-1H44z"/>
        <path d="M44,30h-8c-0.6,0-1-0.4-1-1v-3c0-0.6,0.4-1,1-1h8V30z"/>
    </g>
</svg>
