<svg xmlns="http://www.w3.org/2000/svg" viewBox="0 0 48 48" enable-background="new 0 0 48 48">
    <path fill="#9575CD" d="M9,15h30c2.2,0,4,1.8,4,4v18H5V19C5,16.8,6.8,15,9,15z"/>
    <g fill="#673AB7">
        <path d="M5,37h38v2c0,2.2-1.8,4-4,4H9c-2.2,0-4-1.8-4-4V37z"/>
        <path d="M37,17h-9c-1.1,0-2-0.9-2-2v-5c0-1.1,0.9-2,2-2h9c1.1,0,2,0.9,2,2v5C39,16.1,38.1,17,37,17z"/>
        <rect x="11" y="17" width="12" height="4"/>
    </g>
    <polygon fill="#90CAF9" points="23,5 21,6 19,5 17,6 15,5 13,6 11,5 11,19 23,19"/>
    <rect x="28" y="10" fill="#2196F3" width="9" height="5"/>
    <g fill="#B39DDB">
        <rect x="10" y="23" width="4" height="4"/>
        <rect x="16" y="23" width="4" height="4"/>
        <rect x="22" y="23" width="4" height="4"/>
        <rect x="28" y="23" width="4" height="4"/>
        <rect x="34" y="23" width="4" height="4"/>
        <rect x="10" y="29" width="4" height="4"/>
        <rect x="16" y="29" width="4" height="4"/>
        <rect x="22" y="29" width="4" height="4"/>
        <rect x="28" y="29" width="4" height="4"/>
        <rect x="34" y="29" width="4" height="4"/>
        <circle cx="24" cy="40" r="1.5"/>
    </g>
</svg>
