<svg xmlns="http://www.w3.org/2000/svg" viewBox="0 0 48 48" enable-background="new 0 0 48 48">
    <path fill="#E89419" d="M24,13.5L13,23l-7,4v15h36V27l-6.8-3.8L24,13.5z"/>
    <g fill="#C62828">
        <polygon points="35.2,22.2 24,12.5 13,22 6,26 6,28 13,24 24,14.5 35.2,24.2 42,28 42,26"/>
        <polygon points="35,4 32,16 38,16"/>
        <polygon points="13,4 10,16 16,16"/>
    </g>
    <g fill="#FFB74D">
        <rect x="32" y="16" width="6" height="26"/>
        <rect x="10" y="16" width="6" height="26"/>
    </g>
    <g fill="#805A26">
        <path d="M28,42h-8v-9c0-2.2,1.8-4,4-4h0c2.2,0,4,1.8,4,4V42z"/>
        <path d="M36,40h-2V30c0-0.6,0.4-1,1-1l0,0c0.6,0,1,0.4,1,1V40z"/>
        <path d="M14,40h-2V30c0-0.6,0.4-1,1-1h0c0.6,0,1,0.4,1,1V40z"/>
        <path d="M36,25h-2v-6c0-0.6,0.4-1,1-1l0,0c0.6,0,1,0.4,1,1V25z"/>
        <path d="M14,25h-2v-6c0-0.6,0.4-1,1-1h0c0.6,0,1,0.4,1,1V25z"/>
        <path d="M24,19c-1.7,0-3,1.3-3,3s1.3,3,3,3s3-1.3,3-3S25.7,19,24,19z M24,23c-0.6,0-1-0.4-1-1c0-0.6,0.4-1,1-1 s1,0.4,1,1C25,22.6,24.6,23,24,23z"/>
    </g>
</svg>
