<svg xmlns="http://www.w3.org/2000/svg" width="48" height="48" viewBox="0 0 48 48">
    <polygon fill="#546E7A" points="33.719,3.483 33.111,5.851 30.973,5.146 30.973,7.968 28.836,7.262 28.836,10.085 26.698,9.379 26.698,12.202 24.561,11.496 24.561,14.319 22.423,13.613 22.423,16.437 28.717,24.111 30.973,24.904 30.973,22.082 33.111,22.788 33.111,19.965 35.248,20.671 35.248,17.848 37.386,18.553 37.386,15.73 39.523,16.437 39.196,13.672 41.943,13.746 40.577,11.629 43.012,10.571 40.771,9.174 42.27,6.924 39.553,7.115 40.146,4.469 37.741,5.615 37.088,3.175 35.426,5.175"/>
    <path fill="#CFD8DC" d="M37.386,8.674c0.786,0.779,0.786,2.043,0,2.822l-9.263,9.175c-0.787,0.778-2.063,0.778-2.85,0l0,0 c-0.787-0.779-0.787-2.044,0-2.823l9.262-9.174C35.322,7.894,36.599,7.894,37.386,8.674L37.386,8.674z"/>
    <path fill="#F57C00" d="M17.435,32.668l-5.7,5.645l-0.662-0.654c-0.366-1.072,0.919-4.548,3.178-8.145l-2.904-2.876 c-2.327,3.548-6.322,10.675-3.175,13.793l2.138,2.116c1.425,1.412,2.85,0,2.85,0l7.125-7.057L17.435,32.668z"/>
    <path fill="#FFC107" d="M30.26,22.788c1.182,1.169,1.182,3.065,0,4.233l-9.974,9.88c0,0-0.712,0.706-1.425,0 c-0.712-0.706-5.7-5.646-5.7-5.646c-4.987-4.939,0-9.879,0-9.879l7.125-7.058c0,0,0.712-0.706,1.425,0L30.26,22.788z"/>
    <path fill="#6D4C41" d="M22.765,23.154c0,0-5.775-8.555-5.837-8.648c-0.962-1.472-2.954-1.898-4.442-0.944 c-0.002,0-0.004,0.003-0.005,0.004c-0.718,0.463-1.213,1.171-1.393,2.001c-0.181,0.829-0.024,1.679,0.442,2.394 c0.098,0.15,1.25,1.765,2.062,2.989c0.406-0.399,0.876-0.876,1.425-1.412c-0.73-1.102-1.727-2.514-1.813-2.647 c-0.177-0.272-0.237-0.595-0.168-0.91c0.068-0.316,0.257-0.586,0.531-0.762c0,0,0.001-0.001,0.001-0.002 c0.567-0.359,1.324-0.197,1.69,0.364c0.07,0.104,5.834,8.646,5.834,8.646L22.765,23.154z"/>
</svg>
