<svg xmlns="http://www.w3.org/2000/svg" viewBox="0 0 48 48" enable-background="new 0 0 48 48">
    <path fill="#FF8A65" d="M34.3,42H13.7c-1,0-1.8-0.7-2-1.6L8,21h32l-3.7,19.4C36.1,41.3,35.3,42,34.3,42z"/>
    <g fill="#F0744D">
        <rect x="23" y="19" width="2" height="21"/>
        <polygon points="38.1,19 37.1,19 33.1,40 34.1,40"/>
        <polygon points="31.9,19 30.4,19 28.4,40 29.9,40"/>
        <polygon points="9.9,19 10.9,19 14.9,40 13.9,40"/>
        <polygon points="16.1,19 17.6,19 19.6,40 18.1,40"/>
        <path d="M8.4,23l1.7,8.9c1.1,1.2,3.8,3.6,8.8,3.6c11.7,0,13.6-8.1,17.3-8.1c0.9,0,1.8,1,2.1,2.2l1.3-6.6H8.4z"/>
    </g>
    <path fill="#F8BBD0" d="M12.5,16.9C10.3,16.1,6,19.2,6,23.6c0,5.4,4.6,9.4,13.2,9.4c8.8,0,11.2-4.2,13.8-5.4c1.6-0.8,5.6-1,5.5,1.3 c1.5-0.6,3.5-2.3,3.5-6.4c0-3.7-3.9-8-9.3-9.3c-1-5.4-5.5-8.5-8.7-9.3c0,3.5-5,2.6-5,6.2C12,10.2,12.5,16.9,12.5,16.9z"/>
    <g fill="#F48FB1">
        <path d="M10,17.2c4,7.7,15.9,6,15.9,6s-11.1,0.2-13.4-6.4l0,0l0,0C11.8,16.6,10.9,16.8,10,17.2z"/>
        <path d="M34.5,13.9c-0.6-0.2-1.2-0.4-1.8-0.6c0,0,0,0,0-0.1c-2.4,3.7-5.4,4.2-5.4,4.2S32.1,17.7,34.5,13.9z"/>
        <path d="M19,10.2c-0.9,0-1.7,0.1-2.4,0.3c2,4.1,7.5,2.9,7.5,2.9S19.8,13.7,19,10.2z"/>
    </g>
</svg>
