<svg xmlns="http://www.w3.org/2000/svg" width="48" height="48" viewBox="0 0 48 48">
    <path fill="none" stroke="#546E7A" stroke-width="2" stroke-linejoin="round" stroke-miterlimit="10" d="M24,16 c-0.238-9.155,13-1,13-11"/>
    <path fill="#CFD8DC" d="M45,38c0,3.313-2,5-5,5s-6-8-10-8s-7,0-11,0s-8,8-11,8s-5-1.687-5-5c0,0,0-24,9-24c4,0,5.116,2,7,2 c4.144,0,4.856,0,9,0c1.885,0,4-2,8-2C45,14,45,38,45,38z"/>
    <path fill="#fff" d="M41.071,23.586c0.78,0.781,0.78,2.047,0,2.828l-5.657,5.657c-0.781,0.78-2.047,0.78-2.828,0l-5.657-5.657 c-0.78-0.781-0.78-2.047,0-2.828l5.657-5.657c0.781-0.78,2.047-0.78,2.828,0L41.071,23.586z"/>
    <circle fill="#FFC107" cx="34" cy="21" r="2"/>
    <circle fill="#8BC34A" cx="34" cy="28.999" r="2"/>
    <path fill="#F44336" d="M36,25c0-1.102,0.895-2,2-2c1.104,0,2,0.898,2,2s-0.896,2-2,2S36,26.102,36,25z"/>
    <circle fill="#2196F3" cx="30" cy="25" r="2"/>
    <g fill="#78909C">
        <rect x="12" y="20" width="4" height="4"/>
        <rect x="16" y="24" width="4" height="4"/>
        <rect x="8" y="24" width="4" height="4"/>
        <rect x="12" y="28" width="4" height="4"/>
    </g>
</svg>
