<svg xmlns="http://www.w3.org/2000/svg" width="48" height="48" viewBox="0 0 48 48">
    <g fill="#37474F">
        <path d="M37.75,9.417h-9.792V7.708C27.958,6.767,28.725,6,29.667,6h6.375c0.941,0,1.708,0.767,1.708,1.708V9.417z"/>
        <path d="M22.167,9.417H10.25V7.708C10.25,6.767,11.016,6,11.958,6h8.5c0.942,0,1.709,0.767,1.709,1.708V9.417z"/>
    </g>
    <g fill="#546E7A">
        <path d="M37.292,42h-2.584C33.767,42,33,41.233,33,40.292v-2.417h6v2.417C39,41.233,38.233,42,37.292,42z"/>
        <path d="M13.375,42h-2.667C9.767,42,9,41.233,9,40.292v-2.417h6.083v2.417C15.083,41.233,14.317,42,13.375,42z"/>
    </g>
    <path fill="#CFD8DC" d="M39.583,40H8.417C7.084,40,6,38.999,6,37.666v-27.25C6,9.084,7.084,8,8.417,8h31.167 C40.916,8,42,9.084,42,10.416v27.25C42,38.999,40.916,40,39.583,40z"/>
    <rect x="6" y="15" fill="#90A4AE" width="36" height="2"/>
    <path fill="#37474F" d="M38,36H10V20h28V36z"/>
    <circle fill="#FF1744" cx="36.5" cy="11.5" r="1.5"/>
    <g fill="#37474F">
        <circle cx="11.5" cy="11.5" r="1.5"/>
        <circle cx="15.5" cy="11.5" r="1.5"/>
        <circle cx="19.5" cy="11.5" r="1.5"/>
        <circle cx="23.5" cy="11.5" r="1.5"/>
    </g>
</svg>
