<svg xmlns="http://www.w3.org/2000/svg" width="48" height="48" viewBox="0 0 48 48">
    <g fill="#3F51B5">
        <path d="M22.345,20.133c-0.232-0.141-5.718-3.48-7.03-4.187c-0.246-0.134-0.397-0.232-0.49-0.303 c1.045-0.923,1.591-2.633,1.591-3.871c0-1.861-1.584-5.772-6.29-5.772C5.631,6,4,9.281,4,11.601c0,1.821,0.689,4.3,3.97,5.761 c0.556,0.248,1.137,0.479,1.73,0.714c2.797,1.106,5.69,2.252,8.18,6.048c0.125,0.192,0.328,0.321,0.556,0.354 c0.038,0.007,0.076,0.009,0.116,0.009c0.188,0,0.373-0.066,0.519-0.19l3.375-2.863c0.197-0.167,0.302-0.419,0.282-0.676 C22.707,20.5,22.565,20.269,22.345,20.133z M12.456,14.085c-0.523,0.591-1.237,0.916-2.01,0.916c-1.673,0-3.197-1.346-3.396-2.998 c-0.099-0.822,0.14-1.604,0.672-2.205c0.539-0.609,1.332-0.957,2.176-0.957c1.721,0,3.109,1.175,3.305,2.795 C13.311,12.536,13.038,13.429,12.456,14.085z"/>
        <path d="M43.853,35.973L30.117,25.86l-5.354,3.949L34,36.4c0.095,0.072,2.336,1.662,5.087,1.662 c0.001,0,0.001,0,0.001,0c1.502,0,2.864-0.409,4.051-1.38C43.33,36.525,43.853,35.973,43.853,35.973z"/>
    </g>
    <polygon fill="#283593" points="23.741,21.28 17.671,24.828 24.763,29.81 30.117,25.86"/>
    <path fill="#03A9F4" d="M22.403,27.659L44,12l-0.684-0.771c-1.187-0.971-2.549-1.213-4.052-1.213c-2.752,0-4.992,1.423-5.069,1.48 L18.844,22.23c-0.098,0.069-0.178,0.16-0.237,0.266c-2.627,4.776-5.817,6.04-8.904,7.262c-0.596,0.235-1.176,0.466-1.732,0.714 C4.689,31.933,4,34.412,4,36.232C4,38.551,5.631,42,10.125,42c4.706,0,6.29-4.078,6.29-5.939c0-1.239-0.546-2.947-1.591-3.871 c0.093-0.07,0.244-0.169,0.49-0.303C16.627,31.18,22.112,27.841,22.403,27.659z M22.485,22.486c0.55,0,0.999,0.447,0.999,0.998 c0,0.553-0.449,1.002-0.999,1.002c-0.553,0-1.001-0.449-1.001-1.002C21.484,22.934,21.933,22.486,22.485,22.486z M13.202,36.197 c-0.195,1.62-1.586,2.795-3.305,2.795c-0.844,0-1.637-0.349-2.176-0.956c-0.532-0.601-0.771-1.384-0.672-2.205 c0.199-1.653,1.724-2.997,3.398-2.997c0.772,0,1.485,0.324,2.008,0.915C13.038,34.404,13.311,35.297,13.202,36.197z"/>
</svg>
