<svg xmlns="http://www.w3.org/2000/svg" width="48" height="48" viewBox="0 0 48 48">
    <circle fill="#eee" cx="24" cy="24" r="15"/>
    <g fill="#263238">
        <path d="M22.485,21.415c-1.438,0.837-1.912,2.678-1.058,4.111c0.853,1.437,2.707,1.919,4.146,1.082 c1.438-0.836,1.911-2.677,1.056-4.112C25.776,21.062,23.921,20.576,22.485,21.415"/>
        <polygon points="35.299,17.444 25.925,25.238 23.866,21.776"/>
    </g>
    <g fill="#FF1744">
        <rect x="5" y="23" width="7.004" height="2.02"/>
        <rect x="9.316" y="27.793" transform="matrix(-.47 -.883 .883 -.47 -12.443 55.12)" width="2.019" height="7.004"/>
    </g>
    <g fill="#90A4AE">
        <rect x="22.98" y="5" width="2.02" height="7.004"/>
        <rect x="35.996" y="22.98" width="7.004" height="2.02"/>
        <rect x="30.839" y="7.135" transform="matrix(.862 .507 -.507 .862 9.792 -14.681)" width="2.02" height="7.003"/>
        <rect x="15.31" y="7.036" transform="matrix(.869 -.495 .495 .869 -3.077 9.462)" width="2.02" height="7.004"/>
        <rect x="9.563" y="12.757" transform="matrix(.5 -.866 .866 .5 -8.795 17.286)" width="2.02" height="7.004"/>
        <rect x="36.786" y="27.563" transform="matrix(-.457 .89 -.89 -.457 82.687 11.617)" width="2.02" height="7.004"/>
    </g>
    <path fill="#4DD0E1" d="M23.512,23.146c-0.477,0.277-0.634,0.894-0.35,1.371c0.283,0.478,0.904,0.639,1.382,0.359 c0.479-0.277,0.637-0.893,0.353-1.372C24.612,23.028,23.991,22.867,23.512,23.146"/>
    <path fill="#00ACC1" d="M24,5C13.507,5,5,13.507,5,24s8.507,19,19,19s19-8.507,19-19S34.493,5,24,5z M24,39c-8.284,0-15-6.716-15-15 S15.716,9,24,9s15,6.716,15,15S32.284,39,24,39z"/>
</svg>
