<svg xmlns="http://www.w3.org/2000/svg" viewBox="0 0 48 48" enable-background="new 0 0 48 48">
    <polygon fill="#F44336" points="24,3 28.3,7.8 34.5,5.8 35.9,12.1 42.2,13.5 40.2,19.7 45,24 40.2,28.3 42.2,34.5 35.9,35.9 34.5,42.2 28.3,40.2 24,45 19.7,40.2 13.5,42.2 12.1,35.9 5.8,34.5 7.8,28.3 3,24 7.8,19.7 5.8,13.5 12.1,12.1 13.5,5.8 19.7,7.8"/>
    <g fill="#fff">
        <polygon points="20,32.3 18.3,31.3 28,15.7 29.7,16.7"/>
        <path d="M19,14c-1.8,0-4,1.1-4,4v1c0,1.8,1.1,4,4,4c2.1,0,4-1.4,4-4v-1C23,15.5,21.3,14,19,14z M20.8,19 c0,1.3-0.7,2-1.8,2c-0.9,0-1.8-0.6-1.8-2v-1c0-1.4,0.9-2.1,1.8-2.1c1.4,0,1.8,1.3,1.8,2.1V19z"/>
        <path d="M29,34c1.8,0,4-1.1,4-4v-1c0-1.8-1.1-4-4-4c-2.1,0-4,1.4-4,4v1C25,32.5,26.7,34,29,34z M27.2,29 c0-1.3,0.7-2,1.8-2c0.9,0,1.8,0.6,1.8,2v1c0,1.4-0.9,2.1-1.8,2.1c-1.4,0-1.8-1.3-1.8-2.1V29z"/>
    </g>
</svg>
