<svg xmlns="http://www.w3.org/2000/svg" width="48" height="48" viewBox="0 0 48 48">
    <g fill="#455A64">
        <path d="M40,30H7.98C7.439,30,7,29.554,7,29c0-0.552,0.439-1,0.98-1H40c0.543,0,0.981,0.448,0.981,1 C40.981,29.554,40.543,30,40,30z"/>
        <rect x="35.144" y="38.765" transform="matrix(.911 -.412 .412 .911 -13.588 18.518)" width="2" height="4"/>
        <rect x="22" y="4" width="4" height="7"/>
        <rect x="10.866" y="38.765" transform="matrix(-.911 -.412 .412 -.911 5.877 82.798)" width="2" height="4"/>
    </g>
    <g fill="#E91E63">
        <circle cx="40" cy="29" r="2"/>
        <circle cx="8" cy="29" r="2"/>
    </g>
    <g fill="#B0BEC5">
        <path d="M28.875,17.735c-0.918,0.98-2.16,1.65-3.557,1.841l9.223,20.081l1.825-0.831l0.253-4.306L28.875,17.735z"/>
        <path d="M19.135,17.735c0.918,0.98,2.16,1.65,3.557,1.841l-9.223,20.081l-1.825-0.831l-0.253-4.306L19.135,17.735z"/>
    </g>
    <g fill="#78909C">
        <path d="M24,9c-3.313,0-6,2.687-6,6s2.687,6,6,6s6-2.687,6-6S27.313,9,24,9z M24,18c-1.656,0-3-1.344-3-3 s1.344-3,3-3s3,1.344,3,3S25.656,18,24,18z"/>
        <rect x="22" y="26" width="4" height="6"/>
    </g>
</svg>
