<svg xmlns="http://www.w3.org/2000/svg" width="48" height="48" viewBox="0 0 48 48">
    <g fill="#37474F">
        <path d="M22.483,27h-3.65c-0.553,0-1-0.447-1-1v-5c0-0.54,0.429-0.982,0.968-0.999l5.167-0.167 c0.428-0.039,0.787,0.226,0.95,0.602c0.163,0.377,0.079,0.815-0.211,1.105c-0.04,0.042-1.224,1.335-1.224,4.459 C23.483,26.553,23.036,27,22.483,27z"/>
        <path d="M42.569,16h-5.402v-4h5.402L45,13.199v1.585L42.569,16z"/>
        <rect x="26" y="8" width="10" height="12"/>
        <path d="M20,40c0,1.104-0.896,2-2,2H7c-1.104,0-2-0.896-2-2v-3c0-1.104,0.896-2,2-2h11c1.104,0,2,0.896,2,2V40z"/>
    </g>
    <g fill="#FF9800">
        <path d="M7,6c-1.104,0-4,3.582-4,8s2.896,8,4,8V6z"/>
        <path d="M9.124,22.216c0.223,0.268,0.295,0.866,0.179,1.488C9.165,24.447,7.615,31.147,6.684,35H17.32 c-0.372-0.396-0.446-0.619-0.313-1.025c0.883-2.692,2.576-9.728,2.576-9.738C19.607,24.177,20.514,22,22,22l-0.717-1.167H7.78 L8.497,22C8.945,22,9.075,22.157,9.124,22.216z"/>
    </g>
    <path fill="#78909C" d="M36,20V8l3,4v4L36,20z"/>
    <path fill="#FFC107" d="M29,20c0,1.104-0.896,2-2,2H7V6h20c1.104,0,2,0.896,2,2V20z"/>
</svg>
