<svg xmlns="http://www.w3.org/2000/svg" viewBox="0 0 48 48" enable-background="new 0 0 48 48">
    <polygon fill="#FF9800" points="24,37 19,33 19,25 29,25 29,33"/>
    <g fill="#FFA726">
        <circle cx="33" cy="19" r="2"/>
        <circle cx="15" cy="19" r="2"/>
    </g>
    <path fill="#FFB74D" d="M33,13c0-7.6-18-5-18,0c0,1.1,0,5.9,0,7c0,5,4,9,9,9s9-4,9-9C33,18.9,33,14.1,33,13z"/>
    <path fill="#FF5722" d="M24,4c-6.1,0-10,4.9-10,11c0,0.8,0,2.3,0,2.3l2,1.7v-5l12-4l4,4v5l2-1.7c0,0,0-1.5,0-2.3c0-4-1-8-6-9l-1-2 H24z"/>
    <g fill="#784719">
        <circle cx="28" cy="19" r="1"/>
        <circle cx="20" cy="19" r="1"/>
    </g>
    <path fill="#546E7A" d="M29,31L29,31c0,0-1.5,3-5,3s-5-3-5-3S8,33,8,44h32C40,33,29,31,29,31z"/>
    <path fill="#37474F" d="M24,17c-4,0-10-1-10-1v1.3c0,0,3,5.7,5.5,5.7H20c1.2,0,2.2-0.6,2.9-1.5l0,0c0.5-0.7,1.6-0.7,2.2,0l0,0 c0.7,0.9,1.8,1.5,2.9,1.5h0.5c2.5,0,5.5-5.7,5.5-5.7V16C34,16,28,17,24,17z M21.7,19c0,1.5-0.5,2-1.8,2h-0.3c-1,0-1.9-0.7-2.3-1.6 c-0.2-0.7,0.3-1.4,1-1.4L21.7,19z M30.5,19.4c-0.3,1-1.2,1.6-2.3,1.6H28c-1.3,0-1.8-0.5-1.8-2l3.3-1C30.3,18,30.8,18.7,30.5,19.4z"/>
</svg>
