<svg xmlns="http://www.w3.org/2000/svg" width="48" height="48" viewBox="0 0 48 48">
    <path fill="#607D8B" d="M24,6L2,17.89V42h44V17.89L24,6z"/>
    <g fill="#3E2723">
        <path d="M13,36c0-0.553-0.447-1-1-1H9c-0.553,0-1,0.447-1,1v5c0,0.553,0.447,1,1,1h3c0.553,0,1-0.447,1-1V36z"/>
        <path d="M40,36c0-0.553-0.447-1-1-1h-3c-0.553,0-1,0.447-1,1v5c0,0.553,0.447,1,1,1h3c0.553,0,1-0.447,1-1V36z"/>
    </g>
    <g fill="#FFEB3B">
        <path d="M40,30c0-0.553-0.447-1-1-1H9c-0.553,0-1,0.447-1,1v8c0,0.553,0.447,1,1,1h30c0.553,0,1-0.447,1-1V30z"/>
        <path d="M39,39H9c-1-2-1-9-1-9c0-1.104,0.896-2,2-2l14-1l14,1c1.104,0,2,0.896,2,2C40,30,40,37,39,39z"/>
        <path d="M41,26h-3.889c-1.296-2.061-2.829-4.51-3.111-5c-0.56-0.973-1.652-1-1.954-1c-0.019,0-0.034,0-0.046,0 c0,0-3.999,0-8,0c-3.919,0-7.838,0-8,0c-0.328,0-1.359,0-2,1c-0.356,0.557-1.863,2.968-3.13,5H7c-0.553,0-1,0.447-1,1v2 c0,0.553,0.447,1,1,1h3h1h26h1h3c0.553,0,1-0.447,1-1v-2C42,26.447,41.553,26,41,26z M15.684,22.079C15.715,22.031,15.734,22,16,22 h8h8.046c0.13,0,0.204,0.018,0.239,0.029c0.395,0.677,2.352,3.796,3.715,5.961V28H12v-0.033 C13.338,25.821,15.279,22.71,15.684,22.079z"/>
    </g>
    <path fill="#37474F" d="M38,34c0,0.553-0.447,1-1,1H11c-0.553,0-1-0.447-1-1v-3c0-0.553,0.447-1,1-1h26c0.553,0,1,0.447,1,1V34z"/>
    <g fill="#4DD0E1">
        <circle cx="12.5" cy="32.5" r="1.5"/>
        <circle cx="35.5" cy="32.5" r="1.5"/>
    </g>
</svg>
