<svg xmlns="http://www.w3.org/2000/svg" viewBox="0 0 48 48" enable-background="new 0 0 48 48">
    <rect x="5" y="21" fill="#0277BD" width="38" height="4"/>
    <path fill="#03A9F4" d="M31,39H17c-4.4,0-8-3.6-8-8V18C9,9.7,15.7,3,24,3h0c8.3,0,15,6.7,15,15v13C39,35.4,35.4,39,31,39z"/>
    <g fill="#B3E5FC">
        <circle cx="31" cy="23" r="4"/>
        <circle cx="17" cy="23" r="4"/>
    </g>
    <path fill="#607D8B" d="M24,31c-4,0-7,3-7,7s3,7,7,7s7-3,7-7S28,31,24,31z"/>
    <g fill="#263238">
        <path d="M24,33c-0.6,0-1,0.4-1,1s0.4,1,1,1s1-0.4,1-1S24.6,33,24,33z"/>
        <path d="M24,41c-0.6,0-1,0.4-1,1s0.4,1,1,1s1-0.4,1-1S24.6,41,24,41z"/>
        <path d="M19.7,35.5c-0.3,0.5-0.1,1.1,0.4,1.4c0.5,0.3,1.1,0.1,1.4-0.4s0.1-1.1-0.4-1.4C20.5,34.9,20,35,19.7,35.5z"/>
        <path d="M26.6,39.5c-0.3,0.5-0.1,1.1,0.4,1.4c0.5,0.3,1.1,0.1,1.4-0.4c0.3-0.5,0.1-1.1-0.4-1.4 C27.5,38.9,26.9,39,26.6,39.5z"/>
        <path d="M19.7,40.5c0.3,0.5,0.9,0.6,1.4,0.4c0.5-0.3,0.6-0.9,0.4-1.4s-0.9-0.6-1.4-0.4C19.5,39.4,19.4,40,19.7,40.5 z"/>
        <path d="M26.6,36.5c0.3,0.5,0.9,0.6,1.4,0.4c0.5-0.3,0.6-0.9,0.4-1.4C28,35,27.5,34.9,27,35.1 C26.5,35.4,26.3,36,26.6,36.5z"/>
    </g>
</svg>
