<svg xmlns="http://www.w3.org/2000/svg" viewBox="0 0 48 48" enable-background="new 0 0 48 48">
    <path fill="#42A5F5" d="M32.7,8.3l-1.4,1.4l4.7,4.7V19c0,0.6,0.4,1,1,1h2c0.6,0,1-0.4,1-1v-2.6c0-0.5-0.2-1-0.6-1.4L32.7,8.3z"/>
    <path fill="#FFC107" d="M33,43H9V9c0-2.2,1.8-4,4-4h16c2.2,0,4,1.8,4,4V43z"/>
    <g fill="#607D8B">
        <path d="M41.1,27c-1-1.8-2.1-3.6-2.1-7h-2c0,4,1.2,6.1,2.4,8c0.9,1.5,1.6,2.9,1.6,5c0,1.1-0.9,2-2,2s-2-0.9-2-2v-5 c0-1.1-0.9-2-2-2h-2v2h2v5c0,2.2,1.8,4,4,4s4-1.8,4-4C43,30.4,42,28.7,41.1,27z"/>
        <rect x="5" y="39" width="38" height="4"/>
    </g>
    <path fill="#B2EBF2" d="M29,8H13c-0.6,0-1,0.4-1,1v10c0,0.6,0.4,1,1,1h16c0.6,0,1-0.4,1-1V9C30,8.4,29.6,8,29,8z"/>
    <path fill="#B2EBF2" d="M29,8H13c-0.6,0-1,0.4-1,1v10c0,0.6,0.4,1,1,1h16c0.6,0,1-0.4,1-1V9C30,8.4,29.6,8,29,8z"/>
    <polygon fill="#F44336" points="22,20 26.7,14.3 19.7,20"/>
    <path fill="#455A64" d="M14,13.8l-1.4-1.4c0.3-0.3,0.5-0.5,0.8-0.7l1.3,1.6C14.4,13.4,14.2,13.6,14,13.8z M28,13.8 c-0.2-0.2-0.4-0.4-0.7-0.6l1.2-1.6c0.3,0.2,0.6,0.5,0.8,0.7L28,13.8z M17,11.8L16.2,10c0.3-0.1,0.7-0.3,1-0.4l0.6,1.9 C17.5,11.6,17.3,11.7,17,11.8z M24.9,11.8c-0.3-0.1-0.6-0.2-0.9-0.3l0.6-1.9c0.3,0.1,0.7,0.2,1,0.4L24.9,11.8z M20.5,11l-0.1-2 c0.4,0,0.7,0,1.1,0l-0.1,2C21.1,11,20.8,11,20.5,11z"/>
    <path fill="#455A64" d="M23,20h-4c0-1.1,0.9-2,2-2S23,18.9,23,20z"/>
</svg>
