<svg xmlns="http://www.w3.org/2000/svg" viewBox="0 0 48 48" enable-background="new 0 0 48 48">
    <path fill="#455A64" d="M7,35h34c1.1,0,2-0.9,2-2V9c0-1.1-0.9-2-2-2H7C5.9,7,5,7.9,5,9v24C5,34.1,5.9,35,7,35z"/>
    <path fill="#EA80FC" d="M8,31h32c0.6,0,1-0.4,1-1V10c0-0.6-0.4-1-1-1H8c-0.6,0-1,0.4-1,1v20C7,30.6,7.4,31,8,31z"/>
    <path fill="#F4BAFD" d="M15,28v3h18v-3H15z M17.2,30.2h-1.5v-1.5h1.5V30.2z M20.2,30.2h-1.5v-1.5h1.5V30.2z M23.2,30.2h-1.5v-1.5 h1.5V30.2z M26.2,30.2h-1.5v-1.5h1.5V30.2z M29.2,30.2h-1.5v-1.5h1.5V30.2z M32.2,30.2h-1.5v-1.5h1.5V30.2z"/>
    <polygon fill="#607D8B" points="30,39 18,39 19,35 29,35"/>
    <rect x="15" y="39" fill="#90A4AE" width="18" height="2"/>
    <g fill="#4A148C">
        <circle cx="29.5" cy="18.5" r="1.5"/>
        <circle cx="18.5" cy="18.5" r="1.5"/>
    </g>
    <path fill="#263238" d="M24,16.2c-5.2,0-13-1.3-13-1.3v1.6c0,0,3.9,7.5,7.1,7.5h0.6c1.5,0,2.9-0.7,3.8-1.9l0,0c0.7-1,2.1-1,2.8,0 l0,0c0.9,1.2,2.3,1.9,3.8,1.9h0.6c3.2,0,7.1-7.5,7.1-7.5v-1.6C37,14.9,29.2,16.2,24,16.2z M21,18.8c0,1.9-0.6,2.6-2.3,2.6h-0.3 c-1.3,0-2.5-0.9-2.9-2.1c-0.3-0.9,0.4-1.8,1.3-1.8L21,18.8z M32.5,19.3c-0.4,1.3-1.6,2.1-2.9,2.1h-0.3c-1.7,0-2.3-0.7-2.3-2.6 l4.2-1.3C32.1,17.5,32.8,18.4,32.5,19.3z"/>
    <circle fill="#263238" cx="24" cy="33" r="1"/>
</svg>
