<svg xmlns="http://www.w3.org/2000/svg" width="48" height="48" viewBox="0 0 48 48">
    <path fill="#FFC107" d="M22.034,17.85L4,36.507l6.333,6.503l18.004-18.799L22.034,17.85z"/>
    <path fill="#78909C" d="M44,23l-5-5.003c-0.844,0.781-2.145,0.374-2.451,0.054l-1.163-1.206c0.265-0.393,0.413-0.856,0.411-1.345 c0.002-0.631-0.231-1.221-0.658-1.661l-3.053-3.175c-0.016-0.018-0.053-0.051-0.084-0.077L31.36,9.918 c-1.327-1.378-2.566-2.667-2.881-2.992c-2.69-2.799-12.506-2.912-13.616-2.916c-0.001,0-0.002,0-0.003,0c-0.383,0-0.86,0-0.86,0 v1.98c0,0,0.583,0.168,0.553,0.168c0.156,0.063,3.127,0.943,6.743,4.883c1.622,1.766,3.319,4.109,2.174,5.276 c-0.026,0.029-0.162,0.18-0.661,0.7c-0.047,0.049-0.071,0.094-0.109,0.143l-1.406,1.46l6.465,6.222l1.721-1.787 c0.013-0.011,0.016-0.027,0.026-0.039l0.911-0.949l0,0c0.041,0.043,0.26,0.27,1.137,1.18c0.328,0.342,0.697,1.598-0.303,2.505 c0.158,0.166,5,5.232,5,5.232L44,23z"/>
    <path fill="#546E7A" d="M39,17.997c-0.844,0.781-2.145,0.374-2.451,0.054l-1.158-1.201l-4.973,5.22 c0.046,0.047,0.268,0.277,1.135,1.177c0.328,0.342,0.697,1.598-0.303,2.505L39,17.997z"/>
</svg>
