<svg xmlns="http://www.w3.org/2000/svg" viewBox="0 0 48 48" enable-background="new 0 0 48 48">
    <g fill="#3949AB">
        <path d="M35.1,8.1L33,6c-1.4-1.4-3.6-1.4-4.9,0l0,0c-1.4,1.4-1.4,3.6,0,4.9l2.1,2.1c1.4,1.4,3.6,1.4,4.9,0l0,0 C36.5,11.7,36.5,9.5,35.1,8.1z M29.4,7.4L29.4,7.4c0.6-0.6,1.5-0.6,2.1,0l2.1,2.1c0.6,0.6,0.6,1.5,0,2.1l0,0 c-0.6,0.6-1.5,0.6-2.1,0l-2.1-2.1C28.9,9,28.9,8,29.4,7.4z"/>
        <path d="M34.6,15.7c-0.6-0.2-1.2,0.2-1.3,0.7L31.2,23c-0.2,0.6,0.2,1.2,0.7,1.3c0,0,0.1,0,0.1,0 c0.5,0.1,1.1-0.2,1.2-0.8l2.1-6.6C35.5,16.5,35.2,15.9,34.6,15.7z"/>
    </g>
    <g fill="#5C6BC0">
        <path d="M30.8,8.4c-0.1-0.6-0.6-1-1.2-0.9l-5.8,0.8c-0.6,0.1-1,0.6-0.9,1.2c0.1,0.4,0.3,0.7,0.6,0.8 c0.2,0.1,0.4,0.1,0.7,0.1l5.8-0.8C30.5,9.6,30.9,9,30.8,8.4z"/>
        <path d="M32.6,18.4l0.6-2c0,0,0,0,0,0c-0.2-0.2-0.3-0.6-0.3-0.9v-1.4c-0.7,0.1-1.4-0.1-2-0.4v1.8 C31,16.7,31.7,17.8,32.6,18.4z"/>
        <path d="M34.5,9c-1.5,0-2.8,1-3.3,2.3l0.3,0.3c0.4,0.4,1,0.5,1.5,0.3c0.2-0.6,0.8-1,1.4-1c0.8,0,1.5,0.7,1.5,1.5v3 c0,0.5-0.2,0.9-0.6,1.2c0,0.1,0,0.2,0,0.3L34.7,19c1.8-0.1,3.3-1.6,3.3-3.5v-3C38,10.6,36.4,9,34.5,9z"/>
    </g>
    <g fill="#7986CB">
        <path d="M37,29H27v-6c0-1.1,0.9-2,2-2h6c1.1,0,2,0.9,2,2V29z"/>
        <path d="M32,25c-6.1,0-11,4-11,9c0,5,4.9,9,11,9s11-4,11-9C43,29,38.1,25,32,25z M32,39c-3.8,0-7-2.3-7-5s3.2-5,7-5 s7,2.3,7,5S35.8,39,32,39z"/>
        <path d="M22.1,16.9l-7.1-7.1l4.2-4.2c0.8-0.8,2-0.8,2.8,0l4.2,4.2c0.8,0.8,0.8,2,0,2.8L22.1,16.9z"/>
        <path d="M21.4,10.5C17.1,6.2,10.8,5.6,7.3,9.1C3.8,12.6,4.4,19,8.7,23.3s10.6,4.9,14.1,1.4 C26.3,21.2,25.7,14.8,21.4,10.5z M11.5,20.4c-2.7-2.7-3.3-6.6-1.4-8.5s5.8-1.3,8.5,1.4s3.3,6.6,1.4,8.5S14.2,23.1,11.5,20.4z"/>
    </g>
    <g fill="#3949AB">
        <circle cx="32" cy="25" r="1.5"/>
        <circle cx="22.4" cy="9.9" r="1.5"/>
    </g>
</svg>
