<svg xmlns="http://www.w3.org/2000/svg" width="48" height="48" viewBox="0 0 48 48">
    <g fill="#455A64">
        <rect x="21" y="31" width="6" height="5"/>
        <path d="M35,37H13c0,0,0-2,2-2s16,0,18,0S35,37,35,37z"/>
    </g>
    <rect x="6" y="11" fill="#546E7A" width="36" height="21"/>
    <rect x="8" y="13" fill="#BBDEFB" width="32" height="17"/>
    <polygon fill-rule="evenodd" clip-rule="evenodd" fill="#1E88E5" points="21.619,17 21.115,20 17.658,20 18.189,17 15.539,17 14,26 16.649,26 17.237,22.274 20.693,22.279 20.107,26 22.73,26 24.271,17"/>
    <path fill="#1E88E5" d="M31.041,17H26.27l-1.452,9c0,0,2.103,0,4.565,0c2.849,0,5.113-1.802,5.282-5.37 C34.834,17.069,31.041,17,31.041,17z M29.122,24c-1.072,0-1.359,0-1.359,0l0.895-5h1.222c1.186,0.063,2.43,0.179,2.338,2.125 C32.102,23.57,30.194,24,29.122,24z"/>
</svg>
