<svg xmlns="http://www.w3.org/2000/svg" width="48" height="48" viewBox="0 0 48 48">
    <path fill="#546E7A" d="M23.258,15.236L21,19l-2-2l-2,2l-2.258-3.764C12.496,16.653,11,19.149,11,22l2.417,1L15,46h8l1.625-23 l2.857-1.847C26.351,18.739,25.359,16.375,23.258,15.236z"/>
    <g fill="#E3F2FD">
        <path d="M19,17l2,2l2.258-3.764C22.024,14.457,20.567,14,19,14s-3.024,0.457-4.258,1.236L17,19L19,17z"/>
        <path d="M24.343,27h-10.65l0.049,0.71L14,33c0,1.104,0.896,2,2,2h6c1.104,0,2-0.896,2-2L24.343,27z"/>
    </g>
    <path fill="#BF360C" d="M23,14c0,0-1-1-4-1s-4,1-4,1V5h8V14z"/>
    <path fill="#FF9800" d="M21,11h-4v3c0,0-0.124,2,1.959,2S21,14,21,14V11z"/>
    <g fill="#FFB74D">
        <polygon points="33,19.094 32,18.565 28.071,22.343 27.482,21.153 24.625,23 27,26 29,26 33,21.069"/>
        <polygon points="11,22 11,30 14,32 13.417,23"/>
        <path d="M23.5,5c0-3.818-9-2.484-9,0v3.5c0,2.485,2.015,4.5,4.5,4.5s4.5-2.015,4.5-4.5V5z"/>
    </g>
    <rect x="32" y="9" fill="#3F51B5" width="2" height="27"/>
    <path fill="#FFC107" d="M34,35h-2c0,0-4,5-4,11h10C38,40,34,35,34,35z"/>
    <path fill="#FF5722" d="M19,1c-3.038,0-7,1-7,10l3,3V7.5L21,4l2,2.5V14l3-3c0-2.012,0-9-5-9l-0.5-1H19z"/>
</svg>
