<svg xmlns="http://www.w3.org/2000/svg" width="48" height="48" viewBox="0 0 48 48">
    <path fill="#CFD8DC" d="M38,12h-2c-0.132,0,0.744,0.028,0.628,0.075C22,13,10.641,21.628,3,35h31v-2c0-0.553,0.447-1,1-1h7 c0,0,1,0,1-1C43,26,41,12,38,12z M36,21.999H24c0,0-1.547,0.063-1-1c2-4,12-5,12-5c2,0.001,2,5,2,5 C37,21.552,36.553,21.999,36,21.999z"/>
    <rect x="42" y="27" fill="#B0BEC5" width="3" height="2"/>
    <path fill="#2196F3" d="M3,35h31v-2c0-0.553,0.447-1,1-1h7c0,0,1,0,1-1c0-2.029-0.33-5.543-0.922-9h-28.76 C9.295,25.558,5.885,29.95,3,35z"/>
    <g fill="#455A64">
        <rect x="26" y="20" width="9" height="2"/>
        <path d="M3,35h31v-2c0-0.553,0.447-1,1-1H4.84C4.207,32.975,3.589,33.97,3,35z"/>
    </g>
    <g fill="#fff">
        <circle cx="25.5" cy="26.5" r="1.5"/>
        <circle cx="30.5" cy="26.5" r="1.5"/>
        <circle cx="35.5" cy="26.5" r="1.5"/>
    </g>
</svg>
