<svg xmlns="http://www.w3.org/2000/svg" width="48" height="48" viewBox="0 0 48 48">
    <path fill="#546E7A" d="M38,6c-2.112,0-3.913,1.321-4.645,3.178l1.804,0.902C35.551,8.877,36.669,8,38,8c1.654,0,3,1.346,3,3v9h2v-9 C43,8.243,40.757,6,38,6z"/>
    <path fill="#64B5F6" d="M36,42c-5,0-19,0-24,0S4,19,4,19s13,2,20,2s20-2,20-2S41,42,36,42z"/>
    <g fill="#2196F3">
        <circle cx="33" cy="12" r="1"/>
        <circle cx="32" cy="15" r="1"/>
        <circle cx="31" cy="18" r="1"/>
    </g>
    <g fill="#BBDEFB">
        <path d="M24,20c-4.535,0-11.587,0.16-15.992-0.431C8.178,28.268,12.257,38,24,38s15.822-9.732,15.992-18.431 C35.587,20.16,28.535,20,24,20z"/>
        <circle cx="16.5" cy="19.5" r="3.5"/>
        <circle cx="22" cy="18" r="3"/>
        <circle cx="14.5" cy="9.5" r="1.5"/>
        <circle cx="26" cy="20" r="2"/>
        <circle cx="7.5" cy="13.5" r="2.5"/>
    </g>
    <g fill="#fff">
        <circle cx="28" cy="32" r="3"/>
        <circle cx="18" cy="29" r="2"/>
        <circle cx="22.5" cy="22.5" r="1.5"/>
    </g>
</svg>
