<svg xmlns="http://www.w3.org/2000/svg" viewBox="0 0 48 48" enable-background="new 0 0 48 48">
    <path fill="#607D8B" d="M29,6V5H19v1c0,2.4-1.6,4.4-4,4.9L5,13c0,15,7,30,7,30h24c0,0,7-15,7-30l-10-2.2C30.6,10.4,29,8.3,29,6z"/>
    <g fill="#FFB300">
        <path d="M32,9.4c-0.5,0-1,0.4-1.1,0.9c-0.2,3.7-3.3,6.6-7,6.6c-3.7,0-6.8-2.9-7-6.6c0-0.6-0.5-1-1.1-0.9 c-0.6,0-1,0.5-0.9,1.1c0.3,4.7,4.2,8.5,9,8.5c4.8,0,8.7-3.7,9-8.5C33,9.9,32.6,9.5,32,9.4z"/>
        <polygon points="24,29.3 20,24 24,20 28,24"/>
    </g>
    <path fill="#FFC107" d="M24,20L24,20c-0.6,0-1-0.4-1-1v-2c0-0.6,0.4-1,1-1h0c0.6,0,1,0.4,1,1v2C25,19.6,24.6,20,24,20z"/>
    <polygon fill="#F44336" points="24,21 27,24 24,28 21,24"/>
    <polygon fill="#B71C1C" points="27,24 24,28 24,24"/>
    <polygon fill="#E57373" points="24,21 21,24 24,24 24,24"/>
</svg>
