<svg xmlns="http://www.w3.org/2000/svg" viewBox="0 0 48 48" enable-background="new 0 0 48 48">
    <path fill="#607D8B" d="M23,7v32.5c0,0.8-0.7,1.5-1.5,1.5S20,40.3,20,39.5V39c0-0.6-0.4-1-1-1s-1,0.4-1,1v0.5c0,1.9,1.6,3.5,3.5,3.5 s3.5-1.6,3.5-3.5V7H23z"/>
    <path fill="#F50057" d="M43,26c0,0-4.2-15-19-15S5,26,5,26s2-2,4.5-2s4.5,2,4.5,2s2.2-2,5-2s5,2,5,2s2.2-2,5-2s5,2,5,2s2-2,4.5-2 S43,26,43,26z"/>
    <path fill="#D9004D" d="M43,26c0,0-4.2-15-19-15c8,0,10,15,10,15s2-2,4.5-2S43,26,43,26z"/>
    <path fill="#FF4081" d="M24,11C9.2,11,5,26,5,26s2-2,4.5-2s4.5,2,4.5,2S14,11,24,11z"/>
    <path fill="#03A9F4" d="M41,11c0,1.1-0.9,2-2,2s-2-0.9-2-2s2-4,2-4S41,9.9,41,11z"/>
    <path fill="#03A9F4" d="M33,8c0,1.1-0.9,2-2,2c-1.1,0-2-0.9-2-2s2-4,2-4S33,6.9,33,8z"/>
    <path fill="#03A9F4" d="M7,11c0,1.1,0.9,2,2,2s2-0.9,2-2S9,7,9,7S7,9.9,7,11z"/>
    <path fill="#03A9F4" d="M15,8c0,1.1,0.9,2,2,2s2-0.9,2-2s-2-4-2-4S15,6.9,15,8z"/>
</svg>
