<svg xmlns="http://www.w3.org/2000/svg" viewBox="0 0 48 48" enable-background="new 0 0 48 48">
    <path fill="#E0F2F1" d="M42,16L6,16v1.9h1.8c0.4,0,0.6,0.4,0.7,0.6l1.1,8.8c0.2,2.1,2.1,3.8,4.2,3.8h20.3c2.1,0,4-1.7,4.2-3.8 l1.1-8.8c0.1-0.4,0.3-0.7,0.7-0.7l1.8,0L42,16z"/>
    <g fill="#F44336">
        <path d="M24,8.7C14.2,8.7,7.6,16,7.6,16h32.7C40.4,16,33.8,8.7,24,8.7z"/>
        <path d="M25.8,10.6h-3.6l-1.1-2.9c0-0.4,0.2-0.7,0.7-0.7h4.5c0.4,0,0.7,0.4,0.5,0.7L25.8,10.6z"/>
        <path d="M39,42H9c-1.3,0-2.3-1.3-1.9-2.6l1.8-6c0.3-0.8,1-1.4,1.9-1.4h26.4c0.9,0,1.7,0.6,1.9,1.4l1.8,6 C41.3,40.7,40.3,42,39,42z"/>
    </g>
    <path fill="#fff" d="M24,34c-1.7,0-3,1.3-3,3s1.3,3,3,3s3-1.3,3-3S25.7,34,24,34z M25.8,36.1l-2.8,2.8c-0.2,0.2-0.6,0.2-0.9,0 c-0.2-0.2-0.2-0.6,0-0.9l2.8-2.8c0.2-0.2,0.6-0.2,0.9,0C26.1,35.4,26.1,35.8,25.8,36.1z"/>
    <path fill="#80CBC4" d="M36,22c-0.7,0-1.3,0.2-1.8,0.6c-0.7-1-1.9-1.6-3.2-1.6c-1.1,0-2.1,0.5-2.9,1.2C27.2,20.9,25.7,20,24,20 s-3.2,0.9-4.1,2.2C19.1,21.5,18.1,21,17,21c-1.3,0-2.5,0.6-3.2,1.6C13.3,22.2,12.7,22,12,22c-1.7,0-3,1.3-3,3l1.2,3.5 c0.5,1.5,1.9,2.5,3.5,2.5h20.7c1.6,0,3-1,3.5-2.5L39,25C39,23.3,37.7,22,36,22z"/>
    <path fill="#009688" d="M43,16l-1.9,0c-1.3,0-2.4,1-2.7,2.4l-1.2,9.4C37,29,35.9,30,34.7,30H13.3c-1.2,0-2.3-1-2.5-2.2l-1.2-9.4 C9.3,17,8.2,16,6.9,16H5v2h1.9c0.4,0,0.7,0.4,0.7,0.7L8.8,28c0.2,2.2,2.2,4,4.5,4h21.4c2.2,0,4.2-1.8,4.4-4l1.2-9.3 c0.1-0.4,0.4-0.8,0.8-0.8l1.9,0L43,16z"/>
</svg>
