<svg xmlns="http://www.w3.org/2000/svg" viewBox="0 0 48 48" enable-background="new 0 0 48 48">
    <path fill="#4CAF50" d="M42,11H6c-2.2,0-4,1.8-4,4v16h44V15C46,12.8,44.2,11,42,11z"/>
    <path fill="#37474F" d="M2,31v4c0,2.2,1.8,4,4,4h17v-5c0-0.6,0.4-1,1-1s1,0.4,1,1v5h17c2.2,0,4-1.8,4-4v-4H2z"/>
    <rect x="7" y="33" fill="#FF9800" width="2" height="6"/>
    <rect x="11" y="33" fill="#FF9800" width="2" height="6"/>
    <rect x="15" y="33" fill="#FF9800" width="2" height="6"/>
    <rect x="19" y="33" fill="#FF9800" width="2" height="6"/>
    <rect x="27" y="33" fill="#FF9800" width="2" height="6"/>
    <rect x="31" y="33" fill="#FF9800" width="2" height="6"/>
    <rect x="35" y="33" fill="#FF9800" width="2" height="6"/>
    <rect x="39" y="33" fill="#FF9800" width="2" height="6"/>
    <g fill="#37474F">
        <rect x="20" y="17" width="8" height="10"/>
        <rect x="32" y="17" width="8" height="10"/>
        <rect x="8" y="17" width="8" height="10"/>
    </g>
</svg>
