<svg xmlns="http://www.w3.org/2000/svg" width="48" height="48" viewBox="0 0 48 48">
    <rect x="13" y="3" fill="#FF1744" width="5" height="3"/>
    <path fill="#CFD8DC" d="M33.5,13H19H6.394C6.146,13.961,6,14.962,6,16c0,0,0,6,1,11h12c0-2,1.896-4,3-4h14h0.081C42,23,42,16,42,16 c0-1.062-0.059-2.059-0.174-3H33.5z"/>
    <g fill="#90A4AE">
        <rect x="12" y="27" width="2" height="18"/>
        <path d="M17,45H9c-1.103,0-2-0.897-2-2l0.024-0.217l1.98-8.911C9.07,32.829,9.94,32,11,32h4 c1.06,0,1.93,0.829,1.996,1.872L19,43C19,44.103,18.103,45,17,45z M9.024,43h7.951L15,34h-4l-0.024,0.217L9.024,43z"/>
    </g>
    <g fill="#90A4AE">
        <path d="M10,15H6.05C6.023,15.33,6,15.662,6,16c0,0,0,0.37,0.015,1H10V15z"/>
        <path d="M6.22,21H10v-2H6.091C6.122,19.608,6.164,20.283,6.22,21z"/>
    </g>
    <g fill="#455A64">
        <path d="M7,27h12c0-2,1.896-4,3-4H6.404C6.547,24.318,6.739,25.692,7,27z"/>
        <path d="M33,4H18C12.411,4,7.728,7.827,6.394,13H19c-1.381,0-2.5-1.119-2.5-2.5S17.619,8,19,8h14.5 c1.381,0,2.5,1.119,2.5,2.5c0,1.21-0.859,2.218-2,2.449V13h7.923C41.512,7.689,39,4,33,4z"/>
    </g>
</svg>
