<svg xmlns="http://www.w3.org/2000/svg" viewBox="0 0 48 48" enable-background="new 0 0 48 48">
    <g fill="#3F51B5">
        <path d="M18,12c-2.8,0-5-2.2-5-5s2.2-5,5-5s5,2.2,5,5S20.8,12,18,12z"/>
        <path d="M10,22v8l3,2l1,14h8l1-14l3-2v-8c0-4.4-3.6-8-8-8h0C13.6,14,10,17.6,10,22z"/>
    </g>
    <path fill="#1E88E5" d="M30,33.7V22c0-4.5-1.4-7.4-4-10.2c0.7-1.5,1-3.2,1-4.8c0-1.8-0.4-3.5-1.1-5h-2.7C24.3,3.4,25,5.1,25,7 c0,3-2.1,5.6-2.1,5.6S28,14.8,28,22v9.6l-3.1,2.1L24,46h2l0.7-10.1L30,33.7z"/>
    <path fill="#64B5F6" d="M29,7c0,2.3-0.7,4.3-0.7,4.3S32,15.6,32,22v13.1l-3.4,2.2L28,46h2l0.5-7.6l3.4-2.3V22c0-4-1.2-7.8-3.5-11.1 C30.8,9.6,31,8.3,31,7c0-1.7-0.3-3.4-0.8-5h-2.1C28.7,3.6,29,5.2,29,7z"/>
    <path fill="#BBDEFB" d="M33,7c0,1.2-0.1,2.4-0.3,3.5C34.8,14,36,17.9,36,22v15.2l-3.5,2.3L32,46h2l0.4-5.3l3.6-2.4V22 c0-4.2-1.1-8.3-3.2-11.9C34.9,9.1,35,8,35,7c0-1.7-0.2-3.4-0.6-5h-2.1C32.8,3.6,33,5.3,33,7z"/>
</svg>
