<svg xmlns="http://www.w3.org/2000/svg" viewBox="0 0 48 48" enable-background="new 0 0 48 48">
    <path fill="#607D8B" d="M13.1,33c-0.7,0-1.2-0.5-1.3-1.2L9.2,9.7C9,8.1,7.7,7,6.2,7H5v2h1.2c0.5,0,0.9,0.4,1,0.9l2.6,22.2 c0.2,1.7,1.6,2.9,3.3,2.9H24v-2H13.1z"/>
    <rect x="14" y="31" fill="#FFC107" width="29" height="4"/>
    <g fill="#37474F">
        <circle cx="38" cy="38" r="3"/>
        <circle cx="19" cy="38" r="3"/>
    </g>
    <g fill="#607D8B">
        <circle cx="38" cy="38" r="1"/>
        <circle cx="19" cy="38" r="1"/>
    </g>
    <path fill="#FF9800" d="M38,31H18c-1.1,0-2-0.9-2-2V9c0-1.1,0.9-2,2-2h20c1.1,0,2,0.9,2,2v20C40,30.1,39.1,31,38,31z"/>
    <path fill="#8A5100" d="M30,11h-4c-0.6,0-1-0.4-1-1v0c0-0.6,0.4-1,1-1h4c0.6,0,1,0.4,1,1v0C31,10.6,30.6,11,30,11z"/>
    <path fill="#8A5100" d="M30,24h-4c-0.6,0-1-0.4-1-1v0c0-0.6,0.4-1,1-1h4c0.6,0,1,0.4,1,1v0C31,23.6,30.6,24,30,24z"/>
    <rect x="16" y="18" fill="#C77600" width="24" height="2"/>
</svg>
