<svg xmlns="http://www.w3.org/2000/svg" viewBox="0 0 48 48" enable-background="new 0 0 48 48">
    <g fill="#673AB7">
        <path d="M39,12H9c-1.7,0-3-1.3-3-3v0c0-1.7,1.3-3,3-3h30c1.7,0,3,1.3,3,3v0C42,10.7,40.7,12,39,12z"/>
        <path d="M39,42H9c-1.7,0-3-1.3-3-3v0c0-1.7,1.3-3,3-3h30c1.7,0,3,1.3,3,3v0C42,40.7,40.7,42,39,42z"/>
        <path d="M39,27H9c-1.7,0-3-1.3-3-3v0c0-1.7,1.3-3,3-3h30c1.7,0,3,1.3,3,3v0C42,25.7,40.7,27,39,27z"/>
        <rect x="8" y="11" width="32" height="26"/>
    </g>
    <path fill="#FFEB3B" d="M30,26c0,3.3-2.7,6-6,6s-6-2.7-6-6s6-10.5,6-10.5S30,22.7,30,26z"/>
</svg>
