<svg xmlns="http://www.w3.org/2000/svg" width="48" height="48" viewBox="0 0 48 48">
    <path fill="#455A64" d="M42,18c0,1.657-1.343,3-3,3H9c-1.657,0-3-1.343-3-3V8c0-1.657,1.343-3,3-3h30c1.657,0,3,1.343,3,3V18z"/>
    <rect x="6" y="15" fill="#BBDEFB" width="36" height="23"/>
    <circle fill="#8BC34A" cx="10" cy="11" r="2"/>
    <circle fill="#FFEB3B" cx="16" cy="11" r="2"/>
    <path fill="#FAFAFA" d="M40,12c0,0.553-0.447,1-1,1H22c-0.553,0-1-0.447-1-1v-2c0-0.553,0.447-1,1-1h17c0.553,0,1,0.447,1,1V12z"/>
    <path fill="#3F51B5" d="M30.5,30h-11c-0.182,0-0.35-0.099-0.438-0.258s-0.097-0.354,0-0.507l5.507-8 c0.182-0.293,0.666-0.293,0.848,0l5.507,8c0.097,0.153,0.102,0.348,0.014,0.507S30.682,30,30.5,30z"/>
    <path fill="#3F51B5" d="M14.134,40.153C24.733,43.276,27,37.237,27,30h-4C23,37.375,20.757,40.643,14.134,40.153z"/>
</svg>
