<svg xmlns="http://www.w3.org/2000/svg" width="48" height="48" viewBox="0 0 48 48">
    <polygon fill="#B0BEC5" points="9.536,41.293 6,42 6.706,38.465 19.436,25.736 22.264,28.564"/>
    <polygon fill="#D84315" points="28.071,27.106 21,20.035 34,9 39,14"/>
    <g fill="#FF5722">
        <path d="M33.515,6l-1.414,1.415c-0.781,0.78-0.781,2.047,0,2.828l5.656,5.656c0.781,0.781,2.048,0.781,2.828,0 L42,14.485L33.515,6z"/>
        <path d="M26.121,35l1.415-1.414c1.952-1.953,1.952-5.118,0-7.071l-6.051-6.051c-1.953-1.952-5.118-1.952-7.071,0 L13,21.879L26.121,35z"/>
    </g>
</svg>
