<svg xmlns="http://www.w3.org/2000/svg" viewBox="0 0 48 48" enable-background="new 0 0 48 48">
    <path fill="#F8BBD0" d="M34.7,5.4c-0.3-0.5-1-0.6-1.4-0.1c-1.7,1.9-5.9,5.2-9.2,5.2c-3.4,0-8.2-3.4-10.2-5.3 c-0.4-0.4-1.2-0.3-1.4,0.2C10.9,8.4,7,17.1,7,31.8V35c0,4.4,3.5,8,7.9,8h18.2c4.4,0,7.9-3.6,7.9-8v-3.1C41,16.8,36.5,8.2,34.7,5.4z"/>
    <ellipse fill="#F9E3EA" cx="24" cy="25" rx="7" ry="6"/>
    <g fill="#37474F">
        <circle cx="32" cy="17" r="3"/>
        <circle cx="16" cy="17" r="3"/>
    </g>
    <polygon fill="#9E3157" points="24,24 21,21 27,21"/>
    <g fill="#F48FB1">
        <path d="M7.8,21c-2.1,0.7-3.4,1.3-3.5,1.4c-1.9,0.9-2.8,3.3-1.9,5.3c0.8,1.8,2.8,2.7,4.7,2.1 C7.1,26.5,7.4,23.6,7.8,21z"/>
        <path d="M43.7,22.4c-0.1-0.1-1.5-0.7-3.6-1.4c0.4,2.6,0.7,5.6,0.8,8.9c0.4,0.1,0.8,0.2,1.2,0.2 c1.5,0,2.9-0.9,3.5-2.3C46.5,25.7,45.7,23.3,43.7,22.4z"/>
        <ellipse transform="matrix(.816 .579 -.579 .816 27.93 -13.631)" cx="35.3" cy="37" rx="5.3" ry="6.3"/>
        <ellipse transform="matrix(-.816 .579 -.579 -.816 44.381 59.854)" cx="12.7" cy="37" rx="5.3" ry="6.3"/>
        <path d="M30.2,10.9c0,0,1.7-0.7,3.4-2.5c0.2-0.2,0.6-0.1,0.7,0.2c0.8,1.5,1.5,3.4,1.5,3.4 C33.6,10.8,30.2,10.9,30.2,10.9z"/>
        <path d="M17.8,10.9c0,0-1.7-0.7-3.4-2.5c-0.2-0.2-0.6-0.1-0.7,0.2c-0.8,1.5-1.5,3.4-1.5,3.4 C14.4,10.8,17.8,10.9,17.8,10.9z"/>
    </g>
</svg>
