<svg xmlns="http://www.w3.org/2000/svg" viewBox="0 0 48 48" enable-background="new 0 0 48 48">
    <g fill="#469C10">
        <rect x="22.9" y="2.1" transform="matrix(-.707 -.707 .707 -.707 25.405 58.773)" width="4" height="44"/>
        <circle cx="39" cy="7" r="3"/>
        <circle cx="42" cy="10" r="3"/>
        <circle cx="8" cy="38" r="3"/>
        <circle cx="10" cy="41" r="3"/>
        <rect x="21.1" y="2.1" transform="matrix(.707 -.707 .707 .707 -10.286 23.418)" width="4" height="44"/>
        <path d="M28,43h-8c-2.2,0-4-1.8-4-4v-6h16v6C32,41.2,30.2,43,28,43z"/>
        <circle cx="9" cy="7" r="3"/>
        <circle cx="6" cy="10" r="3"/>
        <circle cx="40" cy="38" r="3"/>
        <circle cx="38" cy="41" r="3"/>
    </g>
    <g fill="#64DD17">
        <ellipse cx="24" cy="19" rx="15" ry="14"/>
        <path d="M34,33H14c-1.7,0-3-1.3-3-3v-8h26v8C37,31.7,35.7,33,34,33z"/>
        <path d="M28,38h-8c-1.1,0-2-0.9-2-2v-6h12v6C30,37.1,29.1,38,28,38z"/>
        <rect x="20" y="39" width="2" height="2"/>
        <rect x="26" y="39" width="2" height="2"/>
        <rect x="23" y="39" width="2" height="2"/>
    </g>
    <g fill="#33691E">
        <path d="M24,29c-1,0.2-2.5,2.7-2.5,4c0,0.6,0.6,1,1,1c0.8,0,1.3-0.8,1.5-1.3c0.2,0.6,0.6,1.3,1.5,1.3 c0.6,0,1-0.4,1-1C26.5,31.7,25,29.2,24,29z"/>
        <circle cx="30" cy="26" r="4"/>
        <circle cx="18" cy="26" r="4"/>
    </g>
    <g fill="#CCFF90">
        <rect x="20" y="36" width="2" height="2"/>
        <rect x="26" y="36" width="2" height="2"/>
        <rect x="23" y="36" width="2" height="2"/>
    </g>
</svg>
