<svg xmlns="http://www.w3.org/2000/svg" viewBox="0 0 48 48" enable-background="new 0 0 48 48">
    <rect x="12" y="35" fill="#1976D2" width="19" height="4"/>
    <path fill="#2196F3" d="M29,44H14c-1.1,0-2-0.9-2-2v-3h19v3C31,43.1,30.1,44,29,44z"/>
    <path fill="#607D8B" d="M35,15H9v18c0,2.2,1.8,4,4,4h18c2.2,0,4-1.8,4-4V15z"/>
    <path fill="#546E7A" d="M31,4H13c-2.2,0-4,1.8-4,4v8h26V8C35,5.8,33.2,4,31,4z"/>
    <path fill="#9CCC65" d="M31,13H13c-0.6,0-1-0.4-1-1V8c0-0.6,0.4-1,1-1h18c0.6,0,1,0.4,1,1v4C32,12.6,31.6,13,31,13z"/>
    <g fill="#33691E">
        <rect x="28" y="9" width="2" height="2"/>
        <rect x="24" y="9" width="2" height="2"/>
    </g>
    <path fill="#FF5252" d="M32,22h-2c-0.6,0-1-0.4-1-1v-2c0-0.6,0.4-1,1-1h2c0.6,0,1,0.4,1,1v2C33,21.6,32.6,22,32,22z"/>
    <g fill="#E0E0E0">
        <path d="M14,22h-2c-0.6,0-1-0.4-1-1v-2c0-0.6,0.4-1,1-1h2c0.6,0,1,0.4,1,1v2C15,21.6,14.6,22,14,22z"/>
        <path d="M20,22h-2c-0.6,0-1-0.4-1-1v-2c0-0.6,0.4-1,1-1h2c0.6,0,1,0.4,1,1v2C21,21.6,20.6,22,20,22z"/>
        <path d="M14,28h-2c-0.6,0-1-0.4-1-1v-2c0-0.6,0.4-1,1-1h2c0.6,0,1,0.4,1,1v2C15,27.6,14.6,28,14,28z"/>
        <path d="M20,28h-2c-0.6,0-1-0.4-1-1v-2c0-0.6,0.4-1,1-1h2c0.6,0,1,0.4,1,1v2C21,27.6,20.6,28,20,28z"/>
        <path d="M14,34h-2c-0.6,0-1-0.4-1-1v-2c0-0.6,0.4-1,1-1h2c0.6,0,1,0.4,1,1v2C15,33.6,14.6,34,14,34z"/>
        <path d="M20,34h-2c-0.6,0-1-0.4-1-1v-2c0-0.6,0.4-1,1-1h2c0.6,0,1,0.4,1,1v2C21,33.6,20.6,34,20,34z"/>
        <path d="M26,22h-2c-0.6,0-1-0.4-1-1v-2c0-0.6,0.4-1,1-1h2c0.6,0,1,0.4,1,1v2C27,21.6,26.6,22,26,22z"/>
        <path d="M26,28h-2c-0.6,0-1-0.4-1-1v-2c0-0.6,0.4-1,1-1h2c0.6,0,1,0.4,1,1v2C27,27.6,26.6,28,26,28z"/>
        <path d="M26,34h-2c-0.6,0-1-0.4-1-1v-2c0-0.6,0.4-1,1-1h2c0.6,0,1,0.4,1,1v2C27,33.6,26.6,34,26,34z"/>
    </g>
    <path fill="#81C784" d="M32,28h-2c-0.6,0-1-0.4-1-1v-2c0-0.6,0.4-1,1-1h2c0.6,0,1,0.4,1,1v2C33,27.6,32.6,28,32,28z"/>
    <path fill="#FFC107" d="M32,34h-2c-0.6,0-1-0.4-1-1v-2c0-0.6,0.4-1,1-1h2c0.6,0,1,0.4,1,1v2C33,33.6,32.6,34,32,34z"/>
    <path fill="#455A64" d="M37,32h-2V9h2c1.1,0,2,0.9,2,2v19C39,31.1,38.1,32,37,32z"/>
    <rect x="24" y="37" fill="#263238" width="3" height="7"/>
</svg>
