<svg xmlns="http://www.w3.org/2000/svg" viewBox="0 0 48 48" enable-background="new 0 0 48 48">
    <path fill="#4CAF50" d="M25,5L6.2,23.8c-1.6,1.6-1.6,4.1,0,5.7l12.3,12.3c1.6,1.6,4.1,1.6,5.7,0L43,23V9c0-2.2-1.8-4-4-4H25z M37,13 c-1.1,0-2-0.9-2-2c0-1.1,0.9-2,2-2s2,0.9,2,2C39,12.1,38.1,13,37,13z"/>
    <path fill="#fff" d="M26.2,30c-2.8,2.8-5.8,0.5-6.4,0l-1.6,1.6L17,30.4l1.6-1.6c-0.4-0.5-3.1-3.8,0.4-7.2l2.3,2.3 c-0.4,0.4-2,2-0.2,3.7c1.5,1.5,2.7,0.3,2.9,0.1c2.5-2.5-3.6-6.6,0.4-10.6c2.4-2.4,5.4-1,6.4-0.1l1.7-1.7l1.3,1.3l-1.7,1.7 c0.7,0.9,2.3,3.7-0.7,6.7l-2.3-2.3c0.6-0.6,1.7-2.1,0.5-3.4c-1.4-1.4-2.6-0.2-2.8,0C24.1,21.9,30.2,26,26.2,30z"/>
</svg>
