<svg xmlns="http://www.w3.org/2000/svg" viewBox="0 0 48 48" enable-background="new 0 0 48 48">
    <path fill="#FF9800" d="M39,42H9c-1.1,0-2-0.9-2-2V14h34v26C41,41.1,40.1,42,39,42z"/>
    <g fill="#754600">
        <rect x="28" y="37" width="9" height="1"/>
        <rect x="34" y="32" width="2" height="4"/>
        <polygon points="35,30 33,33 37,33"/>
        <rect x="29" y="32" width="2" height="4"/>
        <polygon points="30,30 28,33 32,33"/>
    </g>
    <path fill="#FFAA2E" d="M43,14H5V8c0-1.1,0.9-2,2-2h34c1.1,0,2,0.9,2,2V14z"/>
</svg>
