<svg xmlns="http://www.w3.org/2000/svg" viewBox="0 0 48 48" enable-background="new 0 0 48 48">
    <circle fill="#33691E" cx="24" cy="24" r="19"/>
    <path fill="#689F38" d="M43,23.5h-4.5c-0.3-7.6-6.4-13.7-14-14V5h-1v4.5c-7.6,0.3-13.7,6.4-14,14H5v1h4.5c0.3,7.6,6.4,13.7,14,14V43 h1v-4.5c7.6-0.3,13.7-6.4,14-14H43V23.5z M37.5,23.5h-6c-0.2-3.7-3.2-6.7-7-7v-6C31.5,10.8,37.2,16.5,37.5,23.5z M23.5,23.5h-6 c0.2-3.2,2.8-5.7,6-6V23.5z M23.5,24.5v6c-3.2-0.2-5.7-2.8-6-6H23.5z M24.5,24.5h6c-0.2,3.2-2.8,5.7-6,6V24.5z M24.5,23.5v-6 c3.2,0.2,5.7,2.8,6,6H24.5z M23.5,10.5v6c-3.7,0.2-6.7,3.2-7,7h-6C10.8,16.5,16.5,10.8,23.5,10.5z M10.5,24.5h6c0.2,3.7,3.2,6.7,7,7 v6C16.5,37.2,10.8,31.5,10.5,24.5z M24.5,37.5v-6c3.7-0.2,6.7-3.2,7-7h6C37.2,31.5,31.5,37.2,24.5,37.5z"/>
    <circle fill="#C6FF00" cx="24" cy="24" r="2"/>
    <circle fill="#C6FF00" cx="13.8" cy="34" r="2"/>
    <circle fill="#C6FF00" cx="13.8" cy="14.5" r="2"/>
    <circle fill="#C6FF00" cx="33" cy="35" r="1"/>
    <line fill="none" stroke="#C6FF00" stroke-width="2" stroke-linecap="round" stroke-linejoin="round" stroke-miterlimit="10" x1="24" y1="24" x2="36.7" y2="11.3"/>
</svg>
