<svg xmlns="http://www.w3.org/2000/svg" viewBox="0 0 48 48" enable-background="new 0 0 48 48">
    <g fill="#455A64">
        <rect x="27" y="6" width="6" height="22"/>
        <path d="M19,33c-3.3,0-6-2.7-6-6v-3c0-3.3,2.7-6,6-6h6v-4h-6c-5.5,0-10,4.5-10,10v3c0,5.5,4.5,10,10,10h17v-4H19z"/>
        <path d="M9,44h30v-2c0-1.1-0.9-2-2-2H11c-1.1,0-2,0.9-2,2V44z"/>
        <path d="M25,20h-5c-2.2,0-4-1.8-4-4v0c0-2.2,1.8-4,4-4h5V20z"/>
    </g>
    <g fill="#03A9F4">
        <path d="M33,26h-6c-1.1,0-2-0.9-2-2V8h10v16C35,25.1,34.1,26,33,26z"/>
        <rect x="26" y="4" width="8" height="2"/>
        <circle cx="21" cy="16" r="2"/>
        <path d="M21.6,31.9c-0.4-0.6-1-0.9-1.7-0.9h-1.9c-0.7,0-1.3,0.3-1.7,0.9L11,40h16L21.6,31.9z M19,37 c-1.1,0-2-0.9-2-2c0-1.1,0.9-2,2-2s2,0.9,2,2C21,36.1,20.1,37,19,37z"/>
    </g>
</svg>
