<svg xmlns="http://www.w3.org/2000/svg" viewBox="0 0 48 48" enable-background="new 0 0 48 48">
    <g fill="#009688">
        <path d="M18,32c-1.1,0-2-0.9-2-2l0-10l-4,0l0,10c0,3.3,2.7,6,6,6h19v-4H18z"/>
        <path d="M40,10l-6,13.4c-0.2,0.4-0.5,0.6-0.9,0.6H18.2c-0.4,0-0.8-0.3-0.9-0.7L12.4,8.7C11.8,7.1,10.3,6,8.6,6H5v4 h3.6l5.5,16.6c0.3,0.8,1,1.4,1.9,1.4h19c0.8,0,1.5-0.5,1.8-1.2L44.4,10H40z"/>
    </g>
    <circle fill="#00695C" cx="5" cy="8" r="2"/>
    <g fill="#37474F">
        <circle cx="34" cy="39" r="3"/>
        <circle cx="19" cy="39" r="3"/>
    </g>
    <g fill="#607D8B">
        <circle cx="34" cy="39" r="1"/>
        <circle cx="19" cy="39" r="1"/>
    </g>
    <path fill="#a0f" d="M23,10V6l-6,6l6,6v-4h4c0.6,0,1,0.4,1,1v6h4v-7c0-2.2-1.8-4-4-4H23z"/>
</svg>
