<svg xmlns="http://www.w3.org/2000/svg" viewBox="0 0 48 48" enable-background="new 0 0 48 48">
    <g fill="#455A64">
        <rect x="10" y="10" width="19" height="6"/>
        <path d="M9,43h30v-2c0-1.1-0.9-2-2-2H11c-1.1,0-2,0.9-2,2V43z"/>
        <polygon points="34.8,16.4 29.8,13 34.8,9.6 39,12.2 41,9 34.7,5 23.1,13 34.7,21 41,17 39,13.8"/>
        <polygon points="16,11 9,11 18,39 25,39"/>
    </g>
    <path fill="#FFC107" d="M22.6,30.9c-0.4-0.6-1-0.9-1.7-0.9h-1.9c-0.7,0-1.3,0.3-1.7,0.9L12,39h16L22.6,30.9z M20,36 c-1.1,0-2-0.9-2-2c0-1.1,0.9-2,2-2s2,0.9,2,2C22,35.1,21.1,36,20,36z"/>
    <path fill="#FFC107" d="M13,7c-3.3,0-6,2.7-6,6s2.7,6,6,6s6-2.7,6-6S16.3,7,13,7z M13,15c-1.1,0-2-0.9-2-2c0-1.1,0.9-2,2-2 s2,0.9,2,2C15,14.1,14.1,15,13,15z"/>
    <path fill="#FFC107" d="M30,18h-3c-1.1,0-2-0.9-2-2v-6c0-1.1,0.9-2,2-2h3V18z"/>
</svg>
