<svg xmlns="http://www.w3.org/2000/svg" width="48" height="48" viewBox="0 0 48 48">
    <polygon fill="#F44336" points="42,42 6,42 6,6 37,6 42,11"/>
    <path fill="#fff" d="M39,39c0,0.553-0.447,1-1,1H10c-0.553,0-1-0.447-1-1V25c0-0.553,0.447-1,1-1h28c0.553,0,1,0.447,1,1V39z"/>
    <g fill="#CFD8DC">
        <rect x="13" y="31" width="22" height="2"/>
        <rect x="13" y="27" width="22" height="2"/>
        <rect x="13" y="35" width="22" height="2"/>
    </g>
    <path fill="#C62828" d="M9,6v10c0,1.104,0.896,2,2,2h15c1.104,0,2-0.896,2-2V6H9z"/>
    <path fill="#B0BEC5" d="M15,6v10c0,1.104,0.896,2,2,2h15c1.104,0,2-0.896,2-2V6H15z"/>
    <rect x="26" y="8" fill="#263238" width="4" height="8"/>
</svg>
