<svg xmlns="http://www.w3.org/2000/svg" width="48" height="48" viewBox="0 0 48 48">
    <path fill="#B0BEC5" d="M8,25h32c1.104,0,2,0.896,2,2v9c0,1.104-0.896,2-2,2H8V25z"/>
    <rect x="10" y="27" fill="#37474F" width="30" height="9"/>
    <rect x="30" y="27" fill="#18FFFF" width="2" height="9"/>
    <g fill="#00838F">
        <path d="M40,38H8v2c0,1.104,0.896,2,2,2h30c1.104,0,2-0.896,2-2v-4C42,37.104,41.104,38,40,38z"/>
        <path d="M31,7.998c0-2-1.479-2.563-2.828-1.397c0,0-20.766,17.07-21.172,17.398s-1,1.004-1,2.002S6,36,6,36 c0,1.104,0.896,2,2,2c0,0,20.178-15.668,21.35-16.637S31,20.062,31,17.979C31,14.732,31,9.014,31,7.998z"/>
    </g>
    <circle fill="#FFEB3B" cx="38" cy="40" r="1"/>
</svg>
