<svg xmlns="http://www.w3.org/2000/svg" viewBox="0 0 48 48" enable-background="new 0 0 48 48">
    <path fill="#E39D36" d="M32.4,28.1l-13.2,7.8c0,0,3.1,4,3.1,4L35,32.3c1.1-0.7,1.5-2.2,0.8-3.3v0C35.1,27.8,33.6,27.4,32.4,28.1z"/>
    <path fill="#EDA740" d="M36,28.5l-13.2,7.8c0,0,3.1,4,3.1,4l12.6-7.6c1.1-0.7,1.5-2.2,0.8-3.3v0C38.6,28.3,37.1,27.9,36,28.5z"/>
    <path fill="#FFB74D" d="M38.9,29.4l-12.4,7.3c0,0,0,0,0,0l-5.9-3.4l2.9,1.6c1.3,0.7,2.9,0.5,3.9-0.6c1.3-1.5,0.9-3.8-0.8-4.7 l-12.4-6.8c-1.1-0.6-2.5-0.6-3.7,0L5,26.1c0,0,0,0,0,0.1v10.7l4-2.5l15.1,8.2c1.2,0.6,2.6,0.6,3.8-0.1l13.8-8.3 c1.3-0.8,1.7-2.4,0.9-3.7v0C41.9,29.1,40.2,28.7,38.9,29.4z"/>
    <path fill="#7986CB" d="M39,21H17c-1.1,0-2-0.9-2-2V9h26v10C41,20.1,40.1,21,39,21z"/>
    <path fill="#9FA8DA" d="M42,9H14V7c0-1.1,0.9-2,2-2h24c1.1,0,2,0.9,2,2V9z"/>
    <path fill="#EDA740" d="M26.5,36.8L26.5,36.8l-1.3-0.9l-10.7-6l8,6.6C23.7,37.4,25.2,37.5,26.5,36.8z"/>
    <path fill="#FFCC80" d="M24.4,34.2c-0.9-0.5-0.6-1.3-0.1-2.2c0.5-0.9,0.9-1.6,1.8-1.1s1.3,1.6,0.8,2.5 C26.5,34.3,25.4,34.6,24.4,34.2z"/>
    <path fill="#3E4778" d="M31,12h-6c-0.6,0-1-0.4-1-1v0c0-0.6,0.4-1,1-1h6c0.6,0,1,0.4,1,1v0C32,11.6,31.6,12,31,12z"/>
</svg>
