<svg xmlns="http://www.w3.org/2000/svg" width="48" height="48" viewBox="0 0 48 48">
    <path fill="#80DEEA" d="M37,38c0,2.209-1.791,4-4,4H16c-2.209,0-4-1.791-4-4V21c0-2.209,1.791-4,4-4h17c2.209,0,4,1.791,4,4V38z"/>
    <g fill="#546E7A">
        <path d="M13.109,11.832L12,10.168C15.161,8.061,17.319,8,17.555,8h6v2h-6C17.548,10,15.77,10.059,13.109,11.832z"/>
        <rect x="21" y="14" width="7" height="3"/>
    </g>
    <path fill="#00ACC1" d="M12,26v12c0,2.209,1.791,4,4,4h17c2.209,0,4-1.791,4-4V26H12z"/>
    <path fill="#80DEEA" d="M30,35c-1.654,0-3-1.346-3-3s1.346-3,3-3s3,1.346,3,3S31.654,35,30,35z"/>
    <path fill="#4DD0E1" d="M22.506,39C21.124,39,20,37.879,20,36.5s1.124-2.5,2.506-2.5C23.881,34,25,35.121,25,36.5 S23.881,39,22.506,39z"/>
    <path fill="#B0BEC5" d="M28,14V7c0-0.553-0.447-1-1-1h-5c-0.553,0-1,0.447-1,1v7H28z"/>
    <path fill="#E0F7FA" d="M21.502,30C19.02,30,17,27.98,17,25.497C17,23.018,19.02,21,21.502,21C23.982,21,26,23.018,26,25.497 C26,27.98,23.982,30,21.502,30z"/>
    <path fill="#B2EBF2" d="M17.051,26c0.254,2.244,2.141,4,4.451,4c2.309,0,4.193-1.756,4.447-4H17.051z"/>
</svg>
