<svg xmlns="http://www.w3.org/2000/svg" width="48" height="48" viewBox="0 0 48 48">
    <path fill="#546E7A" d="M7,20H5v-9c0-1.729,1.045-5,5-5h28c1.729,0,5,1.254,5,6v8h-2v-8c0-3.954-2.877-4-3-4H10 c-2.823,0-2.994,2.504-3,3.006V20z"/>
    <path fill="#E91E63" d="M33.535,20c-1.275,4.056-5.059,7-9.535,7s-8.26-2.944-9.535-7H4l4.821,22h30.357L44,20H33.535z M25,39h-2v-4 h2V39z M25,33h-2v-4h2V33z M30,39h-2v-4h2V39z M30,33h-2v-4h2V33z M35,39h-2v-4h2V39z M35,33h-2v-4h2V33z M20,39h-2v-4h2V39z M20,33 h-2v-4h2V33z M15,39h-2v-4h2V39z M15,33h-2v-4h2V33z"/>
    <path fill="#AD1457" d="M43,19H29.651c-0.825,2.329-3.04,4-5.651,4s-4.827-1.671-5.651-4H17H5c-1.104,0-2,0.896-2,2v1 c0,1.104,0.896,2,2,2h10.434c1.949,2.335,4.894,4,8.566,4s6.617-1.665,8.566-4H43c1.104,0,2-0.896,2-2v-1C45,19.896,44.104,19,43,19 z"/>
</svg>
