<svg xmlns="http://www.w3.org/2000/svg" viewBox="0 0 48 48" enable-background="new 0 0 48 48">
    <rect x="25.6" y="7.6" transform="matrix(.707 .707 -.707 .707 19.272 -18.527)" fill="#F57C00" width="12.7" height="12.7"/>
    <rect x="15.9" y="4.9" transform="matrix(.707 .707 -.707 .707 15.222 -12.749)" fill="#FF9800" width="14.1" height="14.1"/>
    <g fill="#009688">
        <path d="M18,32c-1.1,0-2-0.9-2-2l0-10l-4,0l0,10c0,3.3,2.7,6,6,6h19v-4H18z"/>
        <path d="M12.8,10l-0.4-1.3C11.8,7.1,10.3,6,8.6,6H5v4h3.6l5.5,16.6c0.3,0.8,1,1.4,1.9,1.4h19c0.8,0,1.5-0.5,1.8-1.2 L44.4,10H12.8z"/>
    </g>
    <circle fill="#00695C" cx="5" cy="8" r="2"/>
    <g fill="#37474F">
        <circle cx="34" cy="39" r="3"/>
        <circle cx="19" cy="39" r="3"/>
    </g>
    <g fill="#607D8B">
        <circle cx="34" cy="39" r="1"/>
        <circle cx="19" cy="39" r="1"/>
    </g>
</svg>
