<svg xmlns="http://www.w3.org/2000/svg" width="48" height="48" viewBox="0 0 48 48">
    <g fill="#891212">
        <polygon points="24,28 6,35 6,20 24,13"/>
        <polygon points="42,20 24,13 24,28 42,35"/>
    </g>
    <circle fill="#37474F" cx="23.5" cy="18.5" r="2.5"/>
    <path fill="#90CAF9" d="M23.5,6C16.597,6,11,11.597,11,18.5S16.597,31,23.5,31S36,25.403,36,18.5S30.403,6,23.5,6z M23.5,20.803 c-1.272,0-2.303-1.03-2.303-2.303s1.03-2.303,2.303-2.303s2.303,1.03,2.303,2.303S24.772,20.803,23.5,20.803z"/>
    <g fill="#CFE8F9">
        <path d="M20.677,19.843L13,25.344c0.878,1.316,2.516,2.938,4.188,4l5.429-7.533 C21.685,21.517,20.958,20.781,20.677,19.843z"/>
        <path d="M30.269,8.001l-5.966,8.163c0.938,0.267,1.68,0.977,1.99,1.895l8.118-5.648 C33.411,10.622,31.984,9.109,30.269,8.001z"/>
    </g>
    <polygon fill="#F44336" points="24,27 6,20 6,35 24,42"/>
    <polygon fill="#C62828" points="42,35 24,42 24,27 42,20"/>
    <path fill="#1E88E5" d="M23.5,15c-1.933,0-3.5,1.567-3.5,3.5s1.567,3.5,3.5,3.5s3.5-1.567,3.5-3.5S25.433,15,23.5,15z M23.5,20 c-0.828,0-1.5-0.672-1.5-1.5s0.672-1.5,1.5-1.5s1.5,0.672,1.5,1.5S24.328,20,23.5,20z"/>
</svg>
