<svg xmlns="http://www.w3.org/2000/svg" viewBox="0 0 48 48" enable-background="new 0 0 48 48">
    <g fill="#FF9800">
        <rect x="18.3" y="7.3" transform="matrix(.707 .707 -.707 .707 16.222 -13.163)" width="11.3" height="11.3"/>
        <rect x="18" y="7" width="12" height="12"/>
    </g>
    <circle fill="#FFEB3B" cx="24" cy="13" r="4"/>
    <path fill="#BF360C" d="M8.6,24.5L5,39h38l-3.6-14.5c-0.2-0.9-1-1.5-1.9-1.5H10.6C9.6,23,8.8,23.6,8.6,24.5z"/>
    <path fill="#9E2D0A" d="M5,41v-2h38v2c0,1.1-0.9,2-2,2H7C5.9,43,5,42.1,5,41z"/>
    <g fill="#F57C00">
        <polygon points="17.6,29 18,25 11,25 10,29"/>
        <polygon points="28.3,29 28,25 20,25 19.7,29"/>
        <polygon points="38,29 37,25 30,25 30.4,29"/>
        <polygon points="9.5,31 8,37 16.7,37 17.3,31"/>
        <polygon points="30.7,31 31.3,37 40,37 38.5,31"/>
        <polygon points="19.5,31 19.1,37 28.9,37 28.5,31"/>
    </g>
</svg>
