<svg xmlns="http://www.w3.org/2000/svg" width="48" height="48" viewBox="0 0 48 48">
    <rect x="3" y="16" fill="#CFD8DC" width="42" height="14"/>
    <g fill="#37474F">
        <path d="M38.521,17H27.48C25.948,18.537,25,20.657,25,23s0.948,4.463,2.48,6h11.041C40.053,27.463,41,25.343,41,23 S40.053,18.537,38.521,17z M33,25c-1.104,0-2-0.896-2-2s0.896-2,2-2s2,0.896,2,2S34.104,25,33,25z"/>
        <path d="M21.521,17H9.481C7.948,18.537,7,20.657,7,23s0.948,4.463,2.481,6h12.041C23.053,27.463,24,25.343,24,23 S23.053,18.537,21.521,17z M15,25c-1.104,0-2-0.896-2-2s0.896-2,2-2s2,0.896,2,2S16.104,25,15,25z"/>
    </g>
    <g fill="#546E7A">
        <path d="M2,11v25h44V11H2z M44,29H4V17h40V29z"/>
        <rect x="16" y="16" width="16" height="14"/>
    </g>
    <rect x="18" y="17" fill="#FAFAFA" width="12" height="12"/>
    <rect x="18" y="25" fill="#FF1744" width="12" height="4"/>
</svg>
