<?xml version="1.0" encoding="UTF-8" standalone="no"?>
<svg
   xmlns:dc="http://purl.org/dc/elements/1.1/"
   xmlns:cc="http://creativecommons.org/ns#"
   xmlns:rdf="http://www.w3.org/1999/02/22-rdf-syntax-ns#"
   xmlns:svg="http://www.w3.org/2000/svg"
   xmlns="http://www.w3.org/2000/svg"
   xmlns:sodipodi="http://sodipodi.sourceforge.net/DTD/sodipodi-0.dtd"
   xmlns:inkscape="http://www.inkscape.org/namespaces/inkscape"
   width="48"
   height="48"
   viewBox="0 0 48 48"
   id="svg2"
   version="1.1"
   inkscape:version="0.91 r13725"
   sodipodi:docname="towel.svg">
  <metadata
     id="metadata24">
    <rdf:RDF>
      <cc:Work
         rdf:about="">
        <dc:format>image/svg+xml</dc:format>
        <dc:type
           rdf:resource="http://purl.org/dc/dcmitype/StillImage" />
        <dc:title></dc:title>
        <cc:license
           rdf:resource="http://creativecommons.org/licenses/by-sa/3.0/" />
      </cc:Work>
      <cc:License
         rdf:about="http://creativecommons.org/licenses/by-sa/3.0/">
        <cc:permits
           rdf:resource="http://creativecommons.org/ns#Reproduction" />
        <cc:permits
           rdf:resource="http://creativecommons.org/ns#Distribution" />
        <cc:requires
           rdf:resource="http://creativecommons.org/ns#Notice" />
        <cc:requires
           rdf:resource="http://creativecommons.org/ns#Attribution" />
        <cc:permits
           rdf:resource="http://creativecommons.org/ns#DerivativeWorks" />
        <cc:requires
           rdf:resource="http://creativecommons.org/ns#ShareAlike" />
      </cc:License>
    </rdf:RDF>
  </metadata>
  <defs
     id="defs22" />
  <sodipodi:namedview
     pagecolor="#ffffff"
     bordercolor="#666666"
     borderopacity="1"
     objecttolerance="10"
     gridtolerance="10"
     guidetolerance="10"
     inkscape:pageopacity="0"
     inkscape:pageshadow="2"
     inkscape:window-width="1280"
     inkscape:window-height="973"
     id="namedview20"
     showgrid="false"
     inkscape:zoom="4.9166667"
     inkscape:cx="24"
     inkscape:cy="22.372881"
     inkscape:window-x="0"
     inkscape:window-y="23"
     inkscape:window-maximized="1"
     inkscape:current-layer="svg2" />
  <g
     fill="#B0BEC5"
     id="g4">
    <circle
       cx="9"
       cy="9"
       r="3"
       id="circle6" />
    <circle
       cx="39"
       cy="9"
       r="3"
       id="circle8" />
  </g>
  <path
     fill="#E91E63"
     d="M35,8c0-0.931-0.639-1.706-1.5-1.929C32.639,6.294,32,7.069,32,8v26h3V8z"
     id="path10" />
  <polygon
     fill="#AD1457"
     points="32.728,22.343 32.727,22.343 29.898,25.171 29,24.271 29,27.101 29.898,28 31.111,26.787 32.728,25.171 35,27.444 35,24.615"
     id="polygon12" />
  <path
     fill="#546E7A"
     d="M39,10H9c-0.552,0-1-0.447-1-1s0.448-1,1-1h30c0.553,0,1,0.447,1,1S39.553,10,39,10z"
     id="path14" />
  <path
     fill="#F8BBD0"
     d="M33,6h-1c-4.552,0-15.426,0-17,0c-2,0-2,2-2,2v34h19v-8V8c0-0.931,0.639-1.706,1.5-1.929 C33.339,6.029,33.174,6,33,6z"
     id="path16" />
  <polygon
     fill="#F48FB1"
     points="32,35.444 32,32.615 29.728,30.343 29.728,30.343 29.727,30.343 26.898,33.171 24.071,30.343 24.07,30.343 24.07,30.343 21.242,33.171 18.415,30.343 18.414,30.343 18.414,30.343 15.585,33.171 13,30.585 13,33.414 15.585,36 16.191,35.394 18.414,33.171 19.828,34.585 19.828,34.585 20.394,35.151 21.243,36 22.657,34.585 22.657,34.585 24.07,33.171 26.898,36 28.111,34.787 29.728,33.171"
     id="polygon18" />
</svg>
