<svg xmlns="http://www.w3.org/2000/svg" width="48" height="48" viewBox="0 0 48 48">
    <g fill="#37474F">
        <path d="M15,36c0-0.553-0.447-1-1-1h-3c-0.553,0-1,0.447-1,1v5c0,0.553,0.447,1,1,1h3c0.553,0,1-0.447,1-1V36z"/>
        <path d="M38,36c0-0.553-0.447-1-1-1h-3c-0.553,0-1,0.447-1,1v5c0,0.553,0.447,1,1,1h3c0.553,0,1-0.447,1-1V36z"/>
        <path d="M41,21v3h-2v2h2c0.97,0,2-0.701,2-2v-3H41z"/>
        <path d="M9,24H7v-3H5v3c0,1.299,1.03,2,2,2h2V24z"/>
    </g>
    <path fill="#B71C1C" d="M39,13V7c0-0.553-0.447-1-1-1H10C9.448,6,9,6.447,9,7v6H39z"/>
    <g fill="#FF5722">
        <path d="M44,22c0,0.553-0.447,1-1,1h-2c-0.553,0-1-0.447-1-1v-6c0-0.553,0.447-1,1-1h2c0.553,0,1,0.447,1,1V22z"/>
        <path d="M39,13c0-1.104-0.896-2-2-2H11c-1.104,0-2,0.896-2,2v23c0,1.104,0.896,2,2,2h26c1.104,0,2-0.896,2-2V13z"/>
        <path d="M4,22c0,0.553,0.448,1,1,1h2c0.552,0,1-0.447,1-1v-6c0-0.553-0.448-1-1-1H5c-0.552,0-1,0.447-1,1V22z"/>
    </g>
    <rect x="16" y="26" fill="#37474F" width="16" height="10"/>
    <path fill="#455A64" d="M37,14c0-0.553-0.447-1-1-1H12c-0.552,0-1,0.447-1,1v9c0,0.553,0.448,1,1,1h24c0.553,0,1-0.447,1-1V14z"/>
    <g fill="#546E7A">
        <rect x="16" y="28" width="16" height="2"/>
        <rect x="16" y="32" width="16" height="2"/>
    </g>
    <g fill="#fff">
        <circle cx="12" cy="31" r="2"/>
        <circle cx="36" cy="31" r="2"/>
    </g>
</svg>
