<svg xmlns="http://www.w3.org/2000/svg" width="48" height="48" viewBox="0 0 48 48">
    <rect x="16" y="3" fill="#CFD8DC" width="16" height="15"/>
    <g fill="#546E7A">
        <path d="M27,38c0-0.553-0.447-1-1-1h-4c-0.552,0-1,0.447-1,1v7h6V38z"/>
        <path d="M35,21c0-1.657-1.344-3-3-3H16c-1.657,0-3,1.343-3,3v12c0,4,3,7,7,7h8c3,0,7-3,7-7V21z"/>
        <rect x="18" y="9" width="4" height="3"/>
        <rect x="26" y="9" width="4" height="3"/>
    </g>
    <circle fill="#263238" cx="24" cy="25" r="4"/>
    <circle fill="#64DD17" cx="24" cy="25" r="2"/>
</svg>
