<svg xmlns="http://www.w3.org/2000/svg" width="48" height="48" viewBox="0 0 48 48">
    <g fill="#546E7A">
        <path d="M30,18c-3.865,0-7,3.135-7,7v13c0,0.568,0.087,1.048,0.226,1.466C24.062,41.992,27,42,27,42h6c0,0,4,0,4-4 v-1.17v-3.225V25C37,21.135,33.865,18,30,18z M30,22c-1.519,0-2.273,0.689-2.305,0.719c-0.399,0.373-1.028,0.362-1.408-0.029 c-0.379-0.393-0.38-1.011,0.006-1.396C26.425,21.16,27.653,20,30,20s3.575,1.16,3.707,1.293c0.391,0.391,0.391,1.023,0,1.414 C33.512,22.902,33.256,23,33,23s-0.512-0.098-0.707-0.293C32.273,22.689,31.519,22,30,22z"/>
        <path d="M18,42v-2c0-1.104-0.896-2-2-2H8c-1.104,0-2,0.896-2,2v2H18z"/>
    </g>
    <circle fill="#37474F" cx="30" cy="27" r="3"/>
    <path fill="#CFD8DC" d="M35,35c0-1.104-0.896-2-2-2h-6c-1.104,0-2,0.896-2,2v3c0,1.104,0.896,2,2,2h6c1.104,0,2-0.896,2-2V35z"/>
    <circle fill="#FF1744" cx="32.5" cy="36.5" r="1.5"/>
    <g fill="#90A4AE">
        <path d="M30,26c-1.924,0-4.711,0.484-7,1.879c-2.238,1.365-4,3.601-4,7.121c0,2.484,0.79,4.378,2.348,5.628 C22.952,41.915,25.371,42,27,42c0,0-2.938-0.008-3.774-2.534c-0.219-0.119-0.434-0.243-0.627-0.398C21.538,38.217,21,36.848,21,35 c0-2.146,0.837-3.633,2-4.665c2.574-2.284,6.748-2.334,7.001-2.335c0.552-0.002,0.999-0.449,0.998-1.001 C30.999,26.447,30.552,26,30,26z"/>
        <path d="M37,36.83c2.669-3.026,5-7.705,5-14.83c0-6.52-1.322-11.12-3.93-13.672C35.593,5.903,32.706,5.969,31.315,6 H24c-0.106,0-2.633,0.029-3.895,2.553c-0.905,1.809-7.12,22.81-9.038,29.447h2.065c3.246-11.532,8.104-27.238,8.762-28.553 C22.593,8.05,23.954,8.001,24,8h7.358c1.197-0.032,3.437-0.079,5.313,1.757C38.88,11.919,40,16.038,40,22 c0,5.185-1.293,8.925-3,11.605V36.83z"/>
    </g>
</svg>
