<svg xmlns="http://www.w3.org/2000/svg" viewBox="0 0 48 48" enable-background="new 0 0 48 48">
    <g fill="#03A9F4">
        <polygon points="5.7,33.3 7.7,36.7 26,28.5 22,21.5"/>
        <polygon points="40.3,36.7 42.3,33.3 26,21.5 22,28.5"/>
        <path d="M18,41c-1.1,0-2,0.9-2,2v2h16v-2c0-1.1-0.9-2-2-2H18z"/>
        <polygon points="26,5 22,5 20,25 28,25"/>
    </g>
    <g fill="#4FC3F7">
        <polygon points="24,5 22,5 20.2,22.8 24,25"/>
        <polygon points="6.7,35 7.7,36.7 24,29.4 24,25"/>
        <polygon points="41.3,35 42.3,33.3 27.8,22.8 24,25"/>
    </g>
    <g fill="#455A64">
        <circle cx="24" cy="25" r="2"/>
        <polygon points="24,29.4 22,30.3 22,41 26,41 26,30.3"/>
    </g>
</svg>
