<?xml version="1.0" encoding="UTF-8" standalone="no"?>
<!-- Created with Inkscape (http://www.inkscape.org/) -->

<svg
   xmlns:dc="http://purl.org/dc/elements/1.1/"
   xmlns:cc="http://creativecommons.org/ns#"
   xmlns:rdf="http://www.w3.org/1999/02/22-rdf-syntax-ns#"
   xmlns:svg="http://www.w3.org/2000/svg"
   xmlns="http://www.w3.org/2000/svg"
   xmlns:sodipodi="http://sodipodi.sourceforge.net/DTD/sodipodi-0.dtd"
   xmlns:inkscape="http://www.inkscape.org/namespaces/inkscape"
   width="96"
   height="96"
   viewBox="0 0 96.000001 96.000002"
   id="svg2"
   version="1.1"
   inkscape:version="0.92.4 5da689c313, 2019-01-14"
   sodipodi:docname="pattern-20.svg">
  <defs
     id="defs4" />
  <sodipodi:namedview
     id="base"
     pagecolor="#ffffff"
     bordercolor="#666666"
     borderopacity="1.0"
     inkscape:pageopacity="0.0"
     inkscape:pageshadow="2"
     inkscape:zoom="3.8541667"
     inkscape:cx="-57.989188"
     inkscape:cy="48"
     inkscape:document-units="px"
     inkscape:current-layer="layer1"
     showgrid="false"
     units="px"
     inkscape:showpageshadow="false"
     inkscape:window-width="1919"
     inkscape:window-height="1026"
     inkscape:window-x="1"
     inkscape:window-y="28"
     inkscape:window-maximized="1" />
  <metadata
     id="metadata7">
    <rdf:RDF>
      <cc:Work
         rdf:about="">
        <dc:format>image/svg+xml</dc:format>
        <dc:type
           rdf:resource="http://purl.org/dc/dcmitype/StillImage" />
        <dc:title></dc:title>
        <cc:license
           rdf:resource="http://creativecommons.org/licenses/by-sa/4.0/" />
        <dc:date>2019</dc:date>
        <dc:creator>
          <cc:Agent>
            <dc:title>Cristian Pozzessere  &lt; ilnanny &gt;</dc:title>
          </cc:Agent>
        </dc:creator>
        <dc:subject>
          <rdf:Bag>
            <rdf:li>ilnanny</rdf:li>
          </rdf:Bag>
        </dc:subject>
      </cc:Work>
      <cc:License
         rdf:about="http://creativecommons.org/licenses/by-sa/4.0/">
        <cc:permits
           rdf:resource="http://creativecommons.org/ns#Reproduction" />
        <cc:permits
           rdf:resource="http://creativecommons.org/ns#Distribution" />
        <cc:requires
           rdf:resource="http://creativecommons.org/ns#Notice" />
        <cc:requires
           rdf:resource="http://creativecommons.org/ns#Attribution" />
        <cc:permits
           rdf:resource="http://creativecommons.org/ns#DerivativeWorks" />
        <cc:requires
           rdf:resource="http://creativecommons.org/ns#ShareAlike" />
      </cc:License>
    </rdf:RDF>
  </metadata>
  <g
     inkscape:label="Livello 1"
     inkscape:groupmode="layer"
     id="layer1"
     transform="translate(0,-956.36218)">
    <path
       inkscape:connector-curvature="0"
       style="fill:#000000;stroke-width:4.53543186"
       d="m -2e-6,956.36218 v 6.75884 c 3.000007,0 4.500011,0.74998 4.500011,2.24993 0,1.50005 -1.500004,2.25 -4.500011,2.25 v 7.5 c 3.000007,0 4.500011,0.75012 4.500011,2.25 0,1.5 -1.500004,2.25 -4.500011,2.25 v 7.50003 c 3.000007,0 4.500011,0.75 4.500011,2.25 0,1.5 -1.500004,2.25 -4.500011,2.25 v 7.5001 c 3.000007,0 4.500011,0.7499 4.500011,2.24992 0,1.5001 -1.500004,2.2501 -4.500011,2.2501 v 7.4999 c 3.000007,0 4.500011,0.7501 4.500011,2.25 0,1.5 -1.500004,2.25 -4.500011,2.25 v 7.5 c 3.000007,0 4.500011,0.75 4.500011,2.25 0,1.5 -1.500004,2.25 -4.500011,2.25 v 7.5 c 3.000007,0 4.500011,0.75 4.500011,2.25 0,1.5 -1.500004,2.2501 -4.500011,2.2501 v 7.4999 c 3.000007,0 4.500011,0.7501 4.500011,2.25 0,1.5 -1.500004,2.25 -4.500011,2.25 v 0.7412 h 96.000004 v -0.7412 c -2.99997,0 -4.49997,-0.75 -4.49997,-2.25 0,-1.4999 1.5,-2.25 4.49997,-2.25 v -7.4999 c -2.99997,0 -4.49997,-0.7501 -4.49997,-2.2501 0,-1.5 1.5,-2.25 4.49997,-2.25 v -7.5 c -2.99997,0 -4.49997,-0.75 -4.49997,-2.25 0,-1.5 1.5,-2.25 4.49997,-2.25 v -7.5 c -2.99997,0 -4.49997,-0.75 -4.49997,-2.25 0,-1.4999 1.5,-2.25 4.49997,-2.25 v -7.4999 c -2.99997,0 -4.49997,-0.75 -4.49997,-2.2501 0,-1.50002 1.5,-2.24992 4.49997,-2.24992 v -7.5001 c -2.99997,0 -4.49997,-0.75 -4.49997,-2.25 0,-1.5 1.5,-2.25 4.49997,-2.25 v -7.50003 c -2.99997,0 -4.49997,-0.75 -4.49997,-2.25 0,-1.49988 1.5,-2.25 4.49997,-2.25 v -7.5 c -2.99997,0 -4.49997,-0.74995 -4.49997,-2.25 0,-1.49995 1.5,-2.24993 4.49997,-2.24993 v -6.75884 z m 6.000014,0.75877 c 3.000006,0 4.50001,0.75007 4.50001,2.25004 0,1.5 -1.500004,2.24997 -4.50001,2.24997 -3.000007,0 -4.50001,-0.74997 -4.50001,-2.24997 0,-1.49997 1.500003,-2.25004 4.50001,-2.25004 z m 11.99998,0 c 3.000007,0 4.500011,0.75007 4.500011,2.25004 0,1.5 -1.500004,2.24997 -4.500011,2.24997 -3.000006,0 -4.499965,-0.74997 -4.499965,-2.24997 0,-1.49997 1.499959,-2.25004 4.499965,-2.25004 z m 12.000027,0 c 3.000007,0 4.50001,0.75007 4.50001,2.25004 0,1.5 -1.500003,2.24997 -4.50001,2.24997 -3.000007,0 -4.499964,-0.74997 -4.499964,-2.24997 0,-1.49997 1.499957,-2.25004 4.499964,-2.25004 z m 11.999981,0 c 3.000007,0 4.50001,0.75007 4.50001,2.25004 0,1.5 -1.500003,2.24997 -4.50001,2.24997 -2.999961,0 -4.499965,-0.74997 -4.499965,-2.24997 0,-1.49997 1.500004,-2.25004 4.499965,-2.25004 z m 12.000027,0 c 3.000007,0 4.50001,0.75007 4.50001,2.25004 0,1.5 -1.500003,2.24997 -4.50001,2.24997 -3.000007,0 -4.50001,-0.74997 -4.50001,-2.24997 0,-1.49997 1.500003,-2.25004 4.50001,-2.25004 z m 12.000027,0 c 2.999961,0 4.499964,0.75007 4.499964,2.25004 0,1.5 -1.500003,2.24997 -4.499964,2.24997 -3.000053,0 -4.50001,-0.74997 -4.50001,-2.24997 0,-1.49997 1.499957,-2.25004 4.50001,-2.25004 z m 11.999935,0 c 3.000008,0 4.500013,0.75007 4.500013,2.25004 0,1.5 -1.500005,2.24997 -4.500013,2.24997 -2.99996,0 -4.499964,-0.74997 -4.499964,-2.24997 0,-1.49997 1.500004,-2.25004 4.499964,-2.25004 z m 12.000043,0 c 3,0 4.50001,0.75007 4.50001,2.25004 0,1.5 -1.50001,2.24997 -4.50001,2.24997 -3.00001,0 -4.50001,-0.74997 -4.50001,-2.24997 0,-1.49997 1.5,-2.25004 4.50001,-2.25004 z m -78.000008,6.00007 c 2.999962,0 4.500011,0.74998 4.500011,2.24993 0,1.50005 -1.500049,2.25 -4.500011,2.25 -3.000006,0 -4.500009,-0.74995 -4.500009,-2.25 0,-1.49995 1.500003,-2.24993 4.500009,-2.24993 z m 11.999982,0 c 3.000006,0 4.500009,0.74998 4.500009,2.24993 0,1.50005 -1.500003,2.25 -4.500009,2.25 -3.000007,0 -4.50001,-0.74995 -4.50001,-2.25 0,-1.49995 1.500003,-2.24993 4.50001,-2.24993 z m 12.000026,0 c 3.000007,0 4.500011,0.74998 4.500011,2.24993 0,1.50005 -1.500004,2.25 -4.500011,2.25 -3.000006,0 -4.500009,-0.74995 -4.500009,-2.25 0,-1.49995 1.500003,-2.24993 4.500009,-2.24993 z m 11.999982,0 c 3.000006,0 4.50001,0.74998 4.50001,2.24993 0,1.50005 -1.500004,2.25 -4.50001,2.25 -3.000007,0 -4.50001,-0.74995 -4.50001,-2.25 0,-1.49995 1.500003,-2.24993 4.50001,-2.24993 z m 11.999981,0 c 3.000006,0 4.50001,0.74998 4.50001,2.24993 0,1.50005 -1.500004,2.25 -4.50001,2.25 -2.999961,0 -4.50001,-0.74995 -4.50001,-2.25 0,-1.49995 1.500049,-2.24993 4.50001,-2.24993 z m 12.000026,0 c 3.000008,0 4.500011,0.74998 4.500011,2.24993 0,1.50005 -1.500003,2.25 -4.500011,2.25 -3.000006,0 -4.500009,-0.74995 -4.500009,-2.25 0,-1.49995 1.500003,-2.24993 4.500009,-2.24993 z m 12.000031,0 c 2.99997,0 4.49997,0.74998 4.49997,2.24993 0,1.50005 -1.5,2.25 -4.49997,2.25 -3.000055,0 -4.500014,-0.74995 -4.500014,-2.25 0,-1.49995 1.499959,-2.24993 4.500014,-2.24993 z m -78.00004,5.99993 c 3.000006,0 4.50001,0.75 4.50001,2.25 0,1.5 -1.500004,2.25 -4.50001,2.25 -3.000007,0 -4.50001,-0.75 -4.50001,-2.25 0,-1.5 1.500003,-2.25 4.50001,-2.25 z m 11.99998,0 c 3.000007,0 4.500011,0.75 4.500011,2.25 0,1.5 -1.500004,2.25 -4.500011,2.25 -3.000006,0 -4.499965,-0.75 -4.499965,-2.25 0,-1.5 1.499959,-2.25 4.499965,-2.25 z m 12.000027,0 c 3.000007,0 4.50001,0.75 4.50001,2.25 0,1.5 -1.500003,2.25 -4.50001,2.25 -3.000007,0 -4.499964,-0.75 -4.499964,-2.25 0,-1.5 1.499957,-2.25 4.499964,-2.25 z m 11.999981,0 c 3.000007,0 4.50001,0.75 4.50001,2.25 0,1.5 -1.500003,2.25 -4.50001,2.25 -2.999961,0 -4.499965,-0.75 -4.499965,-2.25 0,-1.5 1.500004,-2.25 4.499965,-2.25 z m 12.000027,0 c 3.000007,0 4.50001,0.75 4.50001,2.25 0,1.5 -1.500003,2.25 -4.50001,2.25 -3.000007,0 -4.50001,-0.75 -4.50001,-2.25 0,-1.5 1.500003,-2.25 4.50001,-2.25 z m 12.000027,0 c 2.999961,0 4.499964,0.75 4.499964,2.25 0,1.5 -1.500003,2.25 -4.499964,2.25 -3.000053,0 -4.50001,-0.75 -4.50001,-2.25 0,-1.5 1.499957,-2.25 4.50001,-2.25 z m 11.999935,0 c 3.000008,0 4.500013,0.75 4.500013,2.25 0,1.5 -1.500005,2.25 -4.500013,2.25 -2.99996,0 -4.499964,-0.75 -4.499964,-2.25 0,-1.5 1.500004,-2.25 4.499964,-2.25 z m 12.000043,0 c 3,0 4.50001,0.75 4.50001,2.25 0,1.5 -1.50001,2.25 -4.50001,2.25 -3.00001,0 -4.50001,-0.75 -4.50001,-2.25 0,-1.5 1.5,-2.25 4.50001,-2.25 z m -78.000008,6 c 2.999962,0 4.500011,0.75012 4.500011,2.25 0,1.5 -1.500049,2.25 -4.500011,2.25 -3.000006,0 -4.500009,-0.75 -4.500009,-2.25 0,-1.49988 1.500003,-2.25 4.500009,-2.25 z m 11.999982,0 c 3.000006,0 4.500009,0.75012 4.500009,2.25 0,1.5 -1.500003,2.25 -4.500009,2.25 -3.000007,0 -4.50001,-0.75 -4.50001,-2.25 0,-1.49988 1.500003,-2.25 4.50001,-2.25 z m 12.000026,0 c 3.000007,0 4.500011,0.75012 4.500011,2.25 0,1.5 -1.500004,2.25 -4.500011,2.25 -3.000006,0 -4.500009,-0.75 -4.500009,-2.25 0,-1.49988 1.500003,-2.25 4.500009,-2.25 z m 11.999982,0 c 3.000006,0 4.50001,0.75012 4.50001,2.25 0,1.5 -1.500004,2.25 -4.50001,2.25 -3.000007,0 -4.50001,-0.75 -4.50001,-2.25 0,-1.49988 1.500003,-2.25 4.50001,-2.25 z m 11.999981,0 c 3.000006,0 4.50001,0.75012 4.50001,2.25 0,1.5 -1.500004,2.25 -4.50001,2.25 -2.999961,0 -4.50001,-0.75 -4.50001,-2.25 0,-1.49988 1.500049,-2.25 4.50001,-2.25 z m 12.000026,0 c 3.000008,0 4.500011,0.75012 4.500011,2.25 0,1.5 -1.500003,2.25 -4.500011,2.25 -3.000006,0 -4.500009,-0.75 -4.500009,-2.25 0,-1.49988 1.500003,-2.25 4.500009,-2.25 z m 12.000031,0 c 2.99997,0 4.49997,0.75012 4.49997,2.25 0,1.5 -1.5,2.25 -4.49997,2.25 -3.000055,0 -4.500014,-0.75 -4.500014,-2.25 0,-1.49988 1.499959,-2.25 4.500014,-2.25 z m -78.00004,6.00012 c 3.000006,0 4.50001,0.74991 4.50001,2.24991 0,1.5001 -1.500004,2.2501 -4.50001,2.2501 -3.000007,0 -4.50001,-0.75 -4.50001,-2.2501 0,-1.5 1.500003,-2.24991 4.50001,-2.24991 z m 11.99998,0 c 3.000007,0 4.500011,0.74991 4.500011,2.24991 0,1.5001 -1.500004,2.2501 -4.500011,2.2501 -3.000006,0 -4.499965,-0.75 -4.499965,-2.2501 0,-1.5 1.499959,-2.24991 4.499965,-2.24991 z m 12.000027,0 c 3.000007,0 4.50001,0.74991 4.50001,2.24991 0,1.5001 -1.500003,2.2501 -4.50001,2.2501 -3.000007,0 -4.499964,-0.75 -4.499964,-2.2501 0,-1.5 1.499957,-2.24991 4.499964,-2.24991 z m 11.999981,0 c 3.000007,0 4.50001,0.74991 4.50001,2.24991 0,1.5001 -1.500003,2.2501 -4.50001,2.2501 -2.999961,0 -4.499965,-0.75 -4.499965,-2.2501 0,-1.5 1.500004,-2.24991 4.499965,-2.24991 z m 12.000027,0 c 3.000007,0 4.50001,0.74991 4.50001,2.24991 0,1.5001 -1.500003,2.2501 -4.50001,2.2501 -3.000007,0 -4.50001,-0.75 -4.50001,-2.2501 0,-1.5 1.500003,-2.24991 4.50001,-2.24991 z m 12.000027,0 c 2.999961,0 4.499964,0.74991 4.499964,2.24991 0,1.5001 -1.500003,2.2501 -4.499964,2.2501 -3.000053,0 -4.50001,-0.75 -4.50001,-2.2501 0,-1.5 1.499957,-2.24991 4.50001,-2.24991 z m 11.999935,0 c 3.000008,0 4.500013,0.74991 4.500013,2.24991 0,1.5001 -1.500005,2.2501 -4.500013,2.2501 -2.99996,0 -4.499964,-0.75 -4.499964,-2.2501 0,-1.5 1.500004,-2.24991 4.499964,-2.24991 z m 12.000043,0 c 3,0 4.50001,0.74991 4.50001,2.24991 0,1.5001 -1.50001,2.2501 -4.50001,2.2501 -3.00001,0 -4.50001,-0.75 -4.50001,-2.2501 0,-1.5 1.5,-2.24991 4.50001,-2.24991 z m -78.000008,5.99991 c 2.999962,0 4.500011,0.75 4.500011,2.25 0,1.5 -1.500049,2.25 -4.500011,2.25 -3.000006,0 -4.500009,-0.75 -4.500009,-2.25 0,-1.5 1.500003,-2.25 4.500009,-2.25 z m 11.999982,0 c 3.000006,0 4.500009,0.75 4.500009,2.25 0,1.5 -1.500003,2.25 -4.500009,2.25 -3.000007,0 -4.50001,-0.75 -4.50001,-2.25 0,-1.5 1.500003,-2.25 4.50001,-2.25 z m 12.000026,0 c 3.000007,0 4.500011,0.75 4.500011,2.25 0,1.5 -1.500004,2.25 -4.500011,2.25 -3.000006,0 -4.500009,-0.75 -4.500009,-2.25 0,-1.5 1.500003,-2.25 4.500009,-2.25 z m 11.999982,0 c 3.000006,0 4.50001,0.75 4.50001,2.25 0,1.5 -1.500004,2.25 -4.50001,2.25 -3.000007,0 -4.50001,-0.75 -4.50001,-2.25 0,-1.5 1.500003,-2.25 4.50001,-2.25 z m 11.999981,0 c 3.000006,0 4.50001,0.75 4.50001,2.25 0,1.5 -1.500004,2.25 -4.50001,2.25 -2.999961,0 -4.50001,-0.75 -4.50001,-2.25 0,-1.5 1.500049,-2.25 4.50001,-2.25 z m 12.000026,0 c 3.000008,0 4.500011,0.75 4.500011,2.25 0,1.5 -1.500003,2.25 -4.500011,2.25 -3.000006,0 -4.500009,-0.75 -4.500009,-2.25 0,-1.5 1.500003,-2.25 4.500009,-2.25 z m 12.000031,0 c 2.99997,0 4.49997,0.75 4.49997,2.25 0,1.5 -1.5,2.25 -4.49997,2.25 -3.000055,0 -4.500014,-0.75 -4.500014,-2.25 0,-1.5 1.499959,-2.25 4.500014,-2.25 z m -78.00004,6 c 3.000006,0 4.50001,0.7501 4.50001,2.25 0,1.5 -1.500004,2.25 -4.50001,2.25 -3.000007,0 -4.50001,-0.75 -4.50001,-2.25 0,-1.4999 1.500003,-2.25 4.50001,-2.25 z m 11.99998,0 c 3.000007,0 4.500011,0.7501 4.500011,2.25 0,1.5 -1.500004,2.25 -4.500011,2.25 -3.000006,0 -4.499965,-0.75 -4.499965,-2.25 0,-1.4999 1.499959,-2.25 4.499965,-2.25 z m 12.000027,0 c 3.000007,0 4.50001,0.7501 4.50001,2.25 0,1.5 -1.500003,2.25 -4.50001,2.25 -3.000007,0 -4.499964,-0.75 -4.499964,-2.25 0,-1.4999 1.499957,-2.25 4.499964,-2.25 z m 11.999981,0 c 3.000007,0 4.50001,0.7501 4.50001,2.25 0,1.5 -1.500003,2.25 -4.50001,2.25 -2.999961,0 -4.499965,-0.75 -4.499965,-2.25 0,-1.4999 1.500004,-2.25 4.499965,-2.25 z m 12.000027,0 c 3.000007,0 4.50001,0.7501 4.50001,2.25 0,1.5 -1.500003,2.25 -4.50001,2.25 -3.000007,0 -4.50001,-0.75 -4.50001,-2.25 0,-1.4999 1.500003,-2.25 4.50001,-2.25 z m 12.000027,0 c 2.999961,0 4.499964,0.7501 4.499964,2.25 0,1.5 -1.500003,2.25 -4.499964,2.25 -3.000053,0 -4.50001,-0.75 -4.50001,-2.25 0,-1.4999 1.499957,-2.25 4.50001,-2.25 z m 11.999935,0 c 3.000008,0 4.500013,0.7501 4.500013,2.25 0,1.5 -1.500005,2.25 -4.500013,2.25 -2.99996,0 -4.499964,-0.75 -4.499964,-2.25 0,-1.4999 1.500004,-2.25 4.499964,-2.25 z m 12.000043,0 c 3,0 4.50001,0.7501 4.50001,2.25 0,1.5 -1.50001,2.25 -4.50001,2.25 -3.00001,0 -4.50001,-0.75 -4.50001,-2.25 0,-1.4999 1.5,-2.25 4.50001,-2.25 z m -78.000008,6.0001 c 2.999962,0 4.500011,0.7499 4.500011,2.24992 0,1.5001 -1.500049,2.2501 -4.500011,2.2501 -3.000006,0 -4.500009,-0.75 -4.500009,-2.2501 0,-1.50002 1.500003,-2.24992 4.500009,-2.24992 z m 11.999982,0 c 3.000006,0 4.500009,0.7499 4.500009,2.24992 0,1.5001 -1.500003,2.2501 -4.500009,2.2501 -3.000007,0 -4.50001,-0.75 -4.50001,-2.2501 0,-1.50002 1.500003,-2.24992 4.50001,-2.24992 z m 12.000026,0 c 3.000007,0 4.500011,0.7499 4.500011,2.24992 0,1.5001 -1.500004,2.2501 -4.500011,2.2501 -3.000006,0 -4.500009,-0.75 -4.500009,-2.2501 0,-1.50002 1.500003,-2.24992 4.500009,-2.24992 z m 11.999982,0 c 3.000006,0 4.50001,0.7499 4.50001,2.24992 0,1.5001 -1.500004,2.2501 -4.50001,2.2501 -3.000007,0 -4.50001,-0.75 -4.50001,-2.2501 0,-1.50002 1.500003,-2.24992 4.50001,-2.24992 z m 11.999981,0 c 3.000006,0 4.50001,0.7499 4.50001,2.24992 0,1.5001 -1.500004,2.2501 -4.50001,2.2501 -2.999961,0 -4.50001,-0.75 -4.50001,-2.2501 0,-1.50002 1.500049,-2.24992 4.50001,-2.24992 z m 12.000026,0 c 3.000008,0 4.500011,0.7499 4.500011,2.24992 0,1.5001 -1.500003,2.2501 -4.500011,2.2501 -3.000006,0 -4.500009,-0.75 -4.500009,-2.2501 0,-1.50002 1.500003,-2.24992 4.500009,-2.24992 z m 12.000031,0 c 2.99997,0 4.49997,0.7499 4.49997,2.24992 0,1.5001 -1.5,2.2501 -4.49997,2.2501 -3.000055,0 -4.500014,-0.75 -4.500014,-2.2501 0,-1.50002 1.499959,-2.24992 4.500014,-2.24992 z m -78.00004,5.99992 c 3.000006,0 4.50001,0.75 4.50001,2.25 0,1.5 -1.500004,2.25 -4.50001,2.25 -3.000007,0 -4.50001,-0.75 -4.50001,-2.25 0,-1.5 1.500003,-2.25 4.50001,-2.25 z m 11.99998,0 c 3.000007,0 4.500011,0.75 4.500011,2.25 0,1.5 -1.500004,2.25 -4.500011,2.25 -3.000006,0 -4.499965,-0.75 -4.499965,-2.25 0,-1.5 1.499959,-2.25 4.499965,-2.25 z m 12.000027,0 c 3.000007,0 4.50001,0.75 4.50001,2.25 0,1.5 -1.500003,2.25 -4.50001,2.25 -3.000007,0 -4.499964,-0.75 -4.499964,-2.25 0,-1.5 1.499957,-2.25 4.499964,-2.25 z m 11.999981,0 c 3.000007,0 4.50001,0.75 4.50001,2.25 0,1.5 -1.500003,2.25 -4.50001,2.25 -2.999961,0 -4.499965,-0.75 -4.499965,-2.25 0,-1.5 1.500004,-2.25 4.499965,-2.25 z m 12.000027,0 c 3.000007,0 4.50001,0.75 4.50001,2.25 0,1.5 -1.500003,2.25 -4.50001,2.25 -3.000007,0 -4.50001,-0.75 -4.50001,-2.25 0,-1.5 1.500003,-2.25 4.50001,-2.25 z m 12.000027,0 c 2.999961,0 4.499964,0.75 4.499964,2.25 0,1.5 -1.500003,2.25 -4.499964,2.25 -3.000053,0 -4.50001,-0.75 -4.50001,-2.25 0,-1.5 1.499957,-2.25 4.50001,-2.25 z m 11.999935,0 c 3.000008,0 4.500013,0.75 4.500013,2.25 0,1.5 -1.500005,2.25 -4.500013,2.25 -2.99996,0 -4.499964,-0.75 -4.499964,-2.25 0,-1.5 1.500004,-2.25 4.499964,-2.25 z m 12.000043,0 c 3,0 4.50001,0.75 4.50001,2.25 0,1.5 -1.50001,2.25 -4.50001,2.25 -3.00001,0 -4.50001,-0.75 -4.50001,-2.25 0,-1.5 1.5,-2.25 4.50001,-2.25 z m -78.000008,6 c 2.999962,0 4.500011,0.7501 4.500011,2.25 0,1.5 -1.500049,2.25 -4.500011,2.25 -3.000006,0 -4.500009,-0.75 -4.500009,-2.25 0,-1.4999 1.500003,-2.25 4.500009,-2.25 z m 11.999982,0 c 3.000006,0 4.500009,0.7501 4.500009,2.25 0,1.5 -1.500003,2.25 -4.500009,2.25 -3.000007,0 -4.50001,-0.75 -4.50001,-2.25 0,-1.4999 1.500003,-2.25 4.50001,-2.25 z m 12.000026,0 c 3.000007,0 4.500011,0.7501 4.500011,2.25 0,1.5 -1.500004,2.25 -4.500011,2.25 -3.000006,0 -4.500009,-0.75 -4.500009,-2.25 0,-1.4999 1.500003,-2.25 4.500009,-2.25 z m 11.999982,0 c 3.000006,0 4.50001,0.7501 4.50001,2.25 0,1.5 -1.500004,2.25 -4.50001,2.25 -3.000007,0 -4.50001,-0.75 -4.50001,-2.25 0,-1.4999 1.500003,-2.25 4.50001,-2.25 z m 11.999981,0 c 3.000006,0 4.50001,0.7501 4.50001,2.25 0,1.5 -1.500004,2.25 -4.50001,2.25 -2.999961,0 -4.50001,-0.75 -4.50001,-2.25 0,-1.4999 1.500049,-2.25 4.50001,-2.25 z m 12.000026,0 c 3.000008,0 4.500011,0.7501 4.500011,2.25 0,1.5 -1.500003,2.25 -4.500011,2.25 -3.000006,0 -4.500009,-0.75 -4.500009,-2.25 0,-1.4999 1.500003,-2.25 4.500009,-2.25 z m 12.000031,0 c 2.99997,0 4.49997,0.7501 4.49997,2.25 0,1.5 -1.5,2.25 -4.49997,2.25 -3.000055,0 -4.500014,-0.75 -4.500014,-2.25 0,-1.4999 1.499959,-2.25 4.500014,-2.25 z m -78.00004,6 c 3.000006,0 4.50001,0.75 4.50001,2.25 0,1.5 -1.500004,2.2501 -4.50001,2.2501 -3.000007,0 -4.50001,-0.7501 -4.50001,-2.2501 0,-1.5 1.500003,-2.25 4.50001,-2.25 z m 11.99998,0 c 3.000007,0 4.500011,0.75 4.500011,2.25 0,1.5 -1.500004,2.2501 -4.500011,2.2501 -3.000006,0 -4.499965,-0.7501 -4.499965,-2.2501 0,-1.5 1.499959,-2.25 4.499965,-2.25 z m 12.000027,0 c 3.000007,0 4.50001,0.75 4.50001,2.25 0,1.5 -1.500003,2.2501 -4.50001,2.2501 -3.000007,0 -4.499964,-0.7501 -4.499964,-2.2501 0,-1.5 1.499957,-2.25 4.499964,-2.25 z m 11.999981,0 c 3.000007,0 4.50001,0.75 4.50001,2.25 0,1.5 -1.500003,2.2501 -4.50001,2.2501 -2.999961,0 -4.499965,-0.7501 -4.499965,-2.2501 0,-1.5 1.500004,-2.25 4.499965,-2.25 z m 12.000027,0 c 3.000007,0 4.50001,0.75 4.50001,2.25 0,1.5 -1.500003,2.2501 -4.50001,2.2501 -3.000007,0 -4.50001,-0.7501 -4.50001,-2.2501 0,-1.5 1.500003,-2.25 4.50001,-2.25 z m 12.000027,0 c 2.999961,0 4.499964,0.75 4.499964,2.25 0,1.5 -1.500003,2.2501 -4.499964,2.2501 -3.000053,0 -4.50001,-0.7501 -4.50001,-2.2501 0,-1.5 1.499957,-2.25 4.50001,-2.25 z m 11.999935,0 c 3.000008,0 4.500013,0.75 4.500013,2.25 0,1.5 -1.500005,2.2501 -4.500013,2.2501 -2.99996,0 -4.499964,-0.7501 -4.499964,-2.2501 0,-1.5 1.500004,-2.25 4.499964,-2.25 z m 12.000043,0 c 3,0 4.50001,0.75 4.50001,2.25 0,1.5 -1.50001,2.2501 -4.50001,2.2501 -3.00001,0 -4.50001,-0.7501 -4.50001,-2.2501 0,-1.5 1.5,-2.25 4.50001,-2.25 z m -78.000008,6 c 2.999962,0 4.500011,0.75 4.500011,2.25 0,1.5 -1.500049,2.25 -4.500011,2.25 -3.000006,0 -4.500009,-0.75 -4.500009,-2.25 0,-1.5 1.500003,-2.25 4.500009,-2.25 z m 11.999982,0 c 3.000006,0 4.500009,0.75 4.500009,2.25 0,1.5 -1.500003,2.25 -4.500009,2.25 -3.000007,0 -4.50001,-0.75 -4.50001,-2.25 0,-1.5 1.500003,-2.25 4.50001,-2.25 z m 12.000026,0 c 3.000007,0 4.500011,0.75 4.500011,2.25 0,1.5 -1.500004,2.25 -4.500011,2.25 -3.000006,0 -4.500009,-0.75 -4.500009,-2.25 0,-1.5 1.500003,-2.25 4.500009,-2.25 z m 11.999982,0 c 3.000006,0 4.50001,0.75 4.50001,2.25 0,1.5 -1.500004,2.25 -4.50001,2.25 -3.000007,0 -4.50001,-0.75 -4.50001,-2.25 0,-1.5 1.500003,-2.25 4.50001,-2.25 z m 11.999981,0 c 3.000006,0 4.50001,0.75 4.50001,2.25 0,1.5 -1.500004,2.25 -4.50001,2.25 -2.999961,0 -4.50001,-0.75 -4.50001,-2.25 0,-1.5 1.500049,-2.25 4.50001,-2.25 z m 12.000026,0 c 3.000008,0 4.500011,0.75 4.500011,2.25 0,1.5 -1.500003,2.25 -4.500011,2.25 -3.000006,0 -4.500009,-0.75 -4.500009,-2.25 0,-1.5 1.500003,-2.25 4.500009,-2.25 z m 12.000031,0 c 2.99997,0 4.49997,0.75 4.49997,2.25 0,1.5 -1.5,2.25 -4.49997,2.25 -3.000055,0 -4.500014,-0.75 -4.500014,-2.25 0,-1.5 1.499959,-2.25 4.500014,-2.25 z m -78.00004,6 c 3.000006,0 4.50001,0.7501 4.50001,2.25 0,1.5 -1.500004,2.25 -4.50001,2.25 -3.000007,0 -4.50001,-0.75 -4.50001,-2.25 0,-1.4999 1.500003,-2.25 4.50001,-2.25 z m 11.99998,0 c 3.000007,0 4.500011,0.7501 4.500011,2.25 0,1.5 -1.500004,2.25 -4.500011,2.25 -3.000006,0 -4.499965,-0.75 -4.499965,-2.25 0,-1.4999 1.499959,-2.25 4.499965,-2.25 z m 12.000027,0 c 3.000007,0 4.50001,0.7501 4.50001,2.25 0,1.5 -1.500003,2.25 -4.50001,2.25 -3.000007,0 -4.499964,-0.75 -4.499964,-2.25 0,-1.4999 1.499957,-2.25 4.499964,-2.25 z m 11.999981,0 c 3.000007,0 4.50001,0.7501 4.50001,2.25 0,1.5 -1.500003,2.25 -4.50001,2.25 -2.999961,0 -4.499965,-0.75 -4.499965,-2.25 0,-1.4999 1.500004,-2.25 4.499965,-2.25 z m 12.000027,0 c 3.000007,0 4.50001,0.7501 4.50001,2.25 0,1.5 -1.500003,2.25 -4.50001,2.25 -3.000007,0 -4.50001,-0.75 -4.50001,-2.25 0,-1.4999 1.500003,-2.25 4.50001,-2.25 z m 12.000027,0 c 2.999961,0 4.499964,0.7501 4.499964,2.25 0,1.5 -1.500003,2.25 -4.499964,2.25 -3.000053,0 -4.50001,-0.75 -4.50001,-2.25 0,-1.4999 1.499957,-2.25 4.50001,-2.25 z m 11.999935,0 c 3.000008,0 4.500013,0.7501 4.500013,2.25 0,1.5 -1.500005,2.25 -4.500013,2.25 -2.99996,0 -4.499964,-0.75 -4.499964,-2.25 0,-1.4999 1.500004,-2.25 4.499964,-2.25 z m 12.000043,0 c 3,0 4.50001,0.7501 4.50001,2.25 0,1.5 -1.50001,2.25 -4.50001,2.25 -3.00001,0 -4.50001,-0.75 -4.50001,-2.25 0,-1.4999 1.5,-2.25 4.50001,-2.25 z m -78.000008,6 c 2.999962,0 4.500011,0.75 4.500011,2.25 0,1.5 -1.500049,2.2501 -4.500011,2.2501 -3.000006,0 -4.500009,-0.7501 -4.500009,-2.2501 0,-1.5 1.500003,-2.25 4.500009,-2.25 z m 11.999982,0 c 3.000006,0 4.500009,0.75 4.500009,2.25 0,1.5 -1.500003,2.2501 -4.500009,2.2501 -3.000007,0 -4.50001,-0.7501 -4.50001,-2.2501 0,-1.5 1.500003,-2.25 4.50001,-2.25 z m 12.000026,0 c 3.000007,0 4.500011,0.75 4.500011,2.25 0,1.5 -1.500004,2.2501 -4.500011,2.2501 -3.000006,0 -4.500009,-0.7501 -4.500009,-2.2501 0,-1.5 1.500003,-2.25 4.500009,-2.25 z m 11.999982,0 c 3.000006,0 4.50001,0.75 4.50001,2.25 0,1.5 -1.500004,2.2501 -4.50001,2.2501 -3.000007,0 -4.50001,-0.7501 -4.50001,-2.2501 0,-1.5 1.500003,-2.25 4.50001,-2.25 z m 11.999981,0 c 3.000006,0 4.50001,0.75 4.50001,2.25 0,1.5 -1.500004,2.2501 -4.50001,2.2501 -2.999961,0 -4.50001,-0.7501 -4.50001,-2.2501 0,-1.5 1.500049,-2.25 4.50001,-2.25 z m 12.000026,0 c 3.000008,0 4.500011,0.75 4.500011,2.25 0,1.5 -1.500003,2.2501 -4.500011,2.2501 -3.000006,0 -4.500009,-0.7501 -4.500009,-2.2501 0,-1.5 1.500003,-2.25 4.500009,-2.25 z m 12.000031,0 c 2.99997,0 4.49997,0.75 4.49997,2.25 0,1.5 -1.5,2.2501 -4.49997,2.2501 -3.000055,0 -4.500014,-0.7501 -4.500014,-2.2501 0,-1.5 1.499959,-2.25 4.500014,-2.25 z m -78.00004,6 c 3.000006,0 4.50001,0.75 4.50001,2.25 0,1.5 -1.500004,2.25 -4.50001,2.25 -3.000007,0 -4.50001,-0.75 -4.50001,-2.25 0,-1.5 1.500003,-2.25 4.50001,-2.25 z m 11.99998,0 c 3.000007,0 4.500011,0.75 4.500011,2.25 0,1.5 -1.500004,2.25 -4.500011,2.25 -3.000006,0 -4.499965,-0.75 -4.499965,-2.25 0,-1.5 1.499959,-2.25 4.499965,-2.25 z m 12.000027,0 c 3.000007,0 4.50001,0.75 4.50001,2.25 0,1.5 -1.500003,2.25 -4.50001,2.25 -3.000007,0 -4.499964,-0.75 -4.499964,-2.25 0,-1.5 1.499957,-2.25 4.499964,-2.25 z m 11.999981,0 c 3.000007,0 4.50001,0.75 4.50001,2.25 0,1.5 -1.500003,2.25 -4.50001,2.25 -2.999961,0 -4.499965,-0.75 -4.499965,-2.25 0,-1.5 1.500004,-2.25 4.499965,-2.25 z m 12.000027,0 c 3.000007,0 4.50001,0.75 4.50001,2.25 0,1.5 -1.500003,2.25 -4.50001,2.25 -3.000007,0 -4.50001,-0.75 -4.50001,-2.25 0,-1.5 1.500003,-2.25 4.50001,-2.25 z m 12.000027,0 c 2.999961,0 4.499964,0.75 4.499964,2.25 0,1.5 -1.500003,2.25 -4.499964,2.25 -3.000053,0 -4.50001,-0.75 -4.50001,-2.25 0,-1.5 1.499957,-2.25 4.50001,-2.25 z m 11.999935,0 c 3.000008,0 4.500013,0.75 4.500013,2.25 0,1.5 -1.500005,2.25 -4.500013,2.25 -2.99996,0 -4.499964,-0.75 -4.499964,-2.25 0,-1.5 1.500004,-2.25 4.499964,-2.25 z m 12.000043,0 c 3,0 4.50001,0.75 4.50001,2.25 0,1.5 -1.50001,2.25 -4.50001,2.25 -3.00001,0 -4.50001,-0.75 -4.50001,-2.25 0,-1.5 1.5,-2.25 4.50001,-2.25 z m -78.000008,6 c 2.999962,0 4.500011,0.7501 4.500011,2.25 0,1.5 -1.500049,2.25 -4.500011,2.25 -3.000006,0 -4.500009,-0.75 -4.500009,-2.25 0,-1.4999 1.500003,-2.25 4.500009,-2.25 z m 11.999982,0 c 3.000006,0 4.500009,0.7501 4.500009,2.25 0,1.5 -1.500003,2.25 -4.500009,2.25 -3.000007,0 -4.50001,-0.75 -4.50001,-2.25 0,-1.4999 1.500003,-2.25 4.50001,-2.25 z m 12.000026,0 c 3.000007,0 4.500011,0.7501 4.500011,2.25 0,1.5 -1.500004,2.25 -4.500011,2.25 -3.000006,0 -4.500009,-0.75 -4.500009,-2.25 0,-1.4999 1.500003,-2.25 4.500009,-2.25 z m 11.999982,0 c 3.000006,0 4.50001,0.7501 4.50001,2.25 0,1.5 -1.500004,2.25 -4.50001,2.25 -3.000007,0 -4.50001,-0.75 -4.50001,-2.25 0,-1.4999 1.500003,-2.25 4.50001,-2.25 z m 11.999981,0 c 3.000006,0 4.50001,0.7501 4.50001,2.25 0,1.5 -1.500004,2.25 -4.50001,2.25 -2.999961,0 -4.50001,-0.75 -4.50001,-2.25 0,-1.4999 1.500049,-2.25 4.50001,-2.25 z m 12.000026,0 c 3.000008,0 4.500011,0.7501 4.500011,2.25 0,1.5 -1.500003,2.25 -4.500011,2.25 -3.000006,0 -4.500009,-0.75 -4.500009,-2.25 0,-1.4999 1.500003,-2.25 4.500009,-2.25 z m 12.000031,0 c 2.99997,0 4.49997,0.7501 4.49997,2.25 0,1.5 -1.5,2.25 -4.49997,2.25 -3.000055,0 -4.500014,-0.75 -4.500014,-2.25 0,-1.4999 1.499959,-2.25 4.500014,-2.25 z"
       id="path21" />
  </g>
</svg>
