<?xml version="1.0" encoding="UTF-8" standalone="no"?>
<!-- Created with Inkscape (http://www.inkscape.org/) -->

<svg
   xmlns:dc="http://purl.org/dc/elements/1.1/"
   xmlns:cc="http://creativecommons.org/ns#"
   xmlns:rdf="http://www.w3.org/1999/02/22-rdf-syntax-ns#"
   xmlns:svg="http://www.w3.org/2000/svg"
   xmlns="http://www.w3.org/2000/svg"
   xmlns:sodipodi="http://sodipodi.sourceforge.net/DTD/sodipodi-0.dtd"
   xmlns:inkscape="http://www.inkscape.org/namespaces/inkscape"
   width="96"
   height="96"
   viewBox="0 0 96.000001 96.000002"
   id="svg2"
   version="1.1"
   inkscape:version="0.92.4 5da689c313, 2019-01-14"
   sodipodi:docname="pattern-22.svg">
  <defs
     id="defs4" />
  <sodipodi:namedview
     id="base"
     pagecolor="#ffffff"
     bordercolor="#666666"
     borderopacity="1.0"
     inkscape:pageopacity="0.0"
     inkscape:pageshadow="2"
     inkscape:zoom="3.8541667"
     inkscape:cx="-57.989188"
     inkscape:cy="48"
     inkscape:document-units="px"
     inkscape:current-layer="layer1"
     showgrid="false"
     units="px"
     inkscape:showpageshadow="false"
     inkscape:window-width="1919"
     inkscape:window-height="1026"
     inkscape:window-x="1"
     inkscape:window-y="28"
     inkscape:window-maximized="1" />
  <metadata
     id="metadata7">
    <rdf:RDF>
      <cc:Work
         rdf:about="">
        <dc:format>image/svg+xml</dc:format>
        <dc:type
           rdf:resource="http://purl.org/dc/dcmitype/StillImage" />
        <dc:title></dc:title>
        <cc:license
           rdf:resource="http://creativecommons.org/licenses/by-sa/4.0/" />
        <dc:date>2019</dc:date>
        <dc:creator>
          <cc:Agent>
            <dc:title>Cristian Pozzessere  &lt; ilnanny &gt;</dc:title>
          </cc:Agent>
        </dc:creator>
        <dc:subject>
          <rdf:Bag>
            <rdf:li>ilnanny</rdf:li>
          </rdf:Bag>
        </dc:subject>
      </cc:Work>
      <cc:License
         rdf:about="http://creativecommons.org/licenses/by-sa/4.0/">
        <cc:permits
           rdf:resource="http://creativecommons.org/ns#Reproduction" />
        <cc:permits
           rdf:resource="http://creativecommons.org/ns#Distribution" />
        <cc:requires
           rdf:resource="http://creativecommons.org/ns#Notice" />
        <cc:requires
           rdf:resource="http://creativecommons.org/ns#Attribution" />
        <cc:permits
           rdf:resource="http://creativecommons.org/ns#DerivativeWorks" />
        <cc:requires
           rdf:resource="http://creativecommons.org/ns#ShareAlike" />
      </cc:License>
    </rdf:RDF>
  </metadata>
  <g
     inkscape:label="Livello 1"
     inkscape:groupmode="layer"
     id="layer1"
     transform="translate(0,-956.36218)">
    <path
       style="fill:#000000;stroke-width:3.80940032"
       d="m 4.9999999e-6,956.3624 v 0.67261 L 0.547659,956.3624 Z M 3.536169,956.3624 1.675791,958.64807 4.9999999e-6,960.70765 v 0.22625 H 4.297891 8.7803167 l 1.8603213,-2.28572 1.860374,-2.28567 H 8.0185907 Z m 11.953122,0 -1.860359,2.28567 -1.857441,2.28572 h 4.482437 4.482406 l 1.860397,-2.28572 1.860321,-2.28567 h -4.482444 z m 11.956045,0 -1.860322,2.28567 -1.860359,2.28572 h 4.482407 4.482444 l 1.860321,-2.28572 1.860359,-2.28567 H 31.92778 Z m 11.953134,0 -1.860322,2.28567 -1.860359,2.28572 h 4.482407 4.485316 l 1.860359,-2.28572 1.860397,-2.28567 h -4.485354 z m 11.956082,0 -1.860397,2.28567 -1.860321,2.28572 h 4.482368 4.482444 l 1.860359,-2.28572 1.860322,-2.28567 h -4.482369 z m 11.953058,0 -1.860321,2.28567 -1.860359,2.28572 h 4.482406 4.482444 l 1.860359,-2.28572 1.860322,-2.28567 h -4.482407 z m 11.953134,0 -1.860321,2.28567 -1.860397,2.28572 h 4.485392 4.482406 l 1.860322,-2.28572 1.860359,-2.28567 h -4.482407 z m 11.956044,0 -1.860359,2.28567 -1.860321,2.28572 h 4.482406 4.482369 l 1.860397,-2.28572 1.678715,-2.06248 v -0.22342 h -4.300763 z m 8.783207,3.89582 -0.550488,0.67557 h 0.550488 z M 5e-6,962.4576 v 4.57139 H 2.042028 6.524449 L 4.664071,964.74333 2.803754,962.4576 Z m 5.792028,0 1.8603215,2.28573 1.8603779,2.28566 h 4.4824366 4.485316 l -1.860321,-2.28566 -1.860397,-2.28573 h -4.482418 z m 11.956018,0 1.860396,2.28573 1.860322,2.28566 h 4.482444 4.482406 l -1.860321,-2.28566 -1.860359,-2.28573 h -4.482444 z m 11.953171,0 1.860359,2.28573 1.860322,2.28566 h 4.482444 4.482406 l -1.860321,-2.28566 -1.860359,-2.28573 h -4.482444 z m 11.956007,0 1.857449,2.28573 1.860359,2.28566 h 4.485316 4.482482 l -1.860397,-2.28566 -1.860321,-2.28573 h -4.482482 z m 11.953134,0 1.860359,2.28573 1.860321,2.28566 h 4.482444 4.482407 l -1.860322,-2.28566 -1.860359,-2.28573 h -4.482444 z m 11.953134,0 1.860359,2.28573 1.860321,2.28566 h 4.482406 4.482407 l -1.857411,-2.28566 -1.860322,-2.28573 h -4.485354 z m 11.956044,0 1.860321,2.28573 1.860359,2.28566 h 4.482444 4.482407 l -1.860359,-2.28566 -1.860322,-2.28573 h -4.482444 z m 11.953134,0 1.860321,2.28573 1.860359,2.28566 h 2.80664 V 962.4576 H 93.955081 Z M 5e-6,968.55283 v 0.67261 l 0.547654,-0.67261 z m 3.536164,0 -1.860378,2.28571 L 5e-6,972.89798 v 0.2264 h 4.297886 4.4824257 l 1.8603213,-2.28567 1.860374,-2.28571 H 8.0185907 Z m 11.953122,0 -1.860359,2.28571 -1.857441,2.28567 h 4.482437 4.482406 l 1.860397,-2.28567 1.860321,-2.28571 h -4.482444 z m 11.956045,0 -1.860322,2.28571 -1.860359,2.28567 h 4.482407 4.482444 l 1.860321,-2.28567 1.860359,-2.28571 H 31.92778 Z m 11.953134,0 -1.860322,2.28571 -1.860359,2.28567 h 4.482407 4.485316 l 1.860359,-2.28567 1.860397,-2.28571 h -4.485354 z m 11.956082,0 -1.860397,2.28571 -1.860321,2.28567 h 4.482368 4.482444 l 1.860359,-2.28567 1.860322,-2.28571 h -4.482369 z m 11.953058,0 -1.860321,2.28571 -1.860359,2.28567 h 4.482406 4.482444 l 1.860359,-2.28567 1.860322,-2.28571 h -4.482407 z m 11.953134,0 -1.860321,2.28571 -1.860397,2.28567 h 4.485392 4.482406 l 1.860322,-2.28567 1.860359,-2.28571 h -4.482407 z m 11.956044,0 -1.860359,2.28571 -1.860321,2.28567 h 4.482406 4.482369 l 1.860397,-2.28567 1.678715,-2.06252 v -0.22342 h -4.300763 z m 8.783207,3.89586 -0.550488,0.67552 h 0.550488 z M 5e-6,974.64809 v 4.57139 h 2.042023 4.482421 l -1.860378,-2.28572 -1.860317,-2.28567 z m 5.792028,0 1.8603215,2.28567 1.8603779,2.28572 h 4.4824366 4.485316 l -1.860321,-2.28572 -1.860397,-2.28567 h -4.482418 z m 11.956018,0 1.860396,2.28567 1.860322,2.28572 h 4.482444 4.482406 l -1.860321,-2.28572 -1.860359,-2.28567 h -4.482444 z m 11.953171,0 1.860359,2.28567 1.860322,2.28572 h 4.482444 4.482406 l -1.860321,-2.28572 -1.860359,-2.28567 h -4.482444 z m 11.956007,0 1.857449,2.28567 1.860359,2.28572 h 4.485316 4.482482 l -1.860397,-2.28572 -1.860321,-2.28567 h -4.482482 z m 11.953134,0 1.860359,2.28567 1.860321,2.28572 h 4.482444 4.482407 l -1.860322,-2.28572 -1.860359,-2.28567 h -4.482444 z m 11.953134,0 1.860359,2.28567 1.860321,2.28572 h 4.482406 4.482407 l -1.857411,-2.28572 -1.860322,-2.28567 h -4.485354 z m 11.956044,0 1.860321,2.28567 1.860359,2.28572 h 4.482444 4.482407 l -1.860359,-2.28572 -1.860322,-2.28567 h -4.482444 z m 11.953134,0 1.860321,2.28567 1.860359,2.28572 h 2.80664 v -4.57139 H 93.955081 Z M 5e-6,980.7433 v 0.67261 l 0.547654,-0.67261 z m 3.536164,0 -1.860378,2.28573 L 5e-6,985.08846 v 0.2264 h 4.297886 4.4824257 l 1.8603213,-2.28566 1.860374,-2.28573 H 8.0185907 Z m 11.953122,0 -1.860359,2.28573 -1.857441,2.28566 h 4.482437 4.482406 l 1.860397,-2.28566 1.860321,-2.28573 h -4.482444 z m 11.956045,0 -1.860322,2.28573 -1.860359,2.28566 h 4.482407 4.482444 l 1.860321,-2.28566 1.860359,-2.28573 H 31.92778 Z m 11.953134,0 -1.860322,2.28573 -1.860359,2.28566 h 4.482407 4.485316 l 1.860359,-2.28566 1.860397,-2.28573 h -4.485354 z m 11.956082,0 -1.860397,2.28573 -1.860321,2.28566 h 4.482368 4.482444 l 1.860359,-2.28566 1.860322,-2.28573 h -4.482369 z m 11.953058,0 -1.860321,2.28573 -1.860359,2.28566 h 4.482406 4.482444 l 1.860359,-2.28566 1.860322,-2.28573 h -4.482407 z m 11.953134,0 -1.860321,2.28573 -1.860397,2.28566 h 4.485392 4.482406 l 1.860322,-2.28566 1.860359,-2.28573 h -4.482407 z m 11.956044,0 -1.860359,2.28573 -1.860321,2.28566 h 4.482406 4.482369 l 1.860397,-2.28566 1.678715,-2.06253 v -0.22343 h -4.300763 z m 8.783207,3.89582 -0.550488,0.67557 h 0.550488 z M 5e-6,986.83851 v 4.57139 h 2.042023 4.482421 l -1.860378,-2.28567 -1.860317,-2.28572 z m 5.792028,0 1.8603215,2.28572 1.8603779,2.28567 h 4.4824366 4.485316 l -1.860321,-2.28567 -1.860397,-2.28572 h -4.482418 z m 11.956018,0 1.860396,2.28572 1.860322,2.28567 h 4.482444 4.482406 l -1.860321,-2.28567 -1.860359,-2.28572 h -4.482444 z m 11.953171,0 1.860359,2.28572 1.860322,2.28567 h 4.482444 4.482406 l -1.860321,-2.28567 -1.860359,-2.28572 h -4.482444 z m 11.956007,0 1.857449,2.28572 1.860359,2.28567 h 4.485316 4.482482 l -1.860397,-2.28567 -1.860321,-2.28572 h -4.482482 z m 11.953134,0 1.860359,2.28572 1.860321,2.28567 h 4.482444 4.482407 l -1.860322,-2.28567 -1.860359,-2.28572 h -4.482444 z m 11.953134,0 1.860359,2.28572 1.860321,2.28567 h 4.482406 4.482407 l -1.857411,-2.28567 -1.860322,-2.28572 h -4.485354 z m 11.956044,0 1.860321,2.28572 1.860359,2.28567 h 4.482444 4.482407 l -1.860359,-2.28567 -1.860322,-2.28572 h -4.482444 z m 11.953134,0 1.860321,2.28572 1.860359,2.28567 h 2.80664 v -4.57139 H 93.955081 Z M 5e-6,992.93378 v 0.67262 l 0.547654,-0.67262 z m 3.536164,0 -1.860378,2.28567 L 5e-6,997.27889 v 0.22639 h 4.297886 4.4824257 l 1.8603213,-2.28572 1.860374,-2.28566 H 8.0185907 Z m 11.953122,0 -1.860359,2.28567 -1.857441,2.28572 h 4.482437 4.482406 l 1.860397,-2.28572 1.860321,-2.28567 h -4.482444 z m 11.956045,0 -1.860322,2.28567 -1.860359,2.28572 h 4.482407 4.482444 l 1.860321,-2.28572 1.860359,-2.28567 H 31.92778 Z m 11.953134,0 -1.860322,2.28567 -1.860359,2.28572 h 4.482407 4.485316 l 1.860359,-2.28572 1.860397,-2.28567 h -4.485354 z m 11.956082,0 -1.860397,2.28567 -1.860321,2.28572 h 4.482368 4.482444 l 1.860359,-2.28572 1.860322,-2.28567 h -4.482369 z m 11.953058,0 -1.860321,2.28567 -1.860359,2.28572 h 4.482406 4.482444 l 1.860359,-2.28572 1.860322,-2.28567 h -4.482407 z m 11.953134,0 -1.860321,2.28567 -1.860397,2.28572 h 4.485392 4.482406 l 1.860322,-2.28572 1.860359,-2.28567 h -4.482407 z m 11.956044,0 -1.860359,2.28567 -1.860321,2.28572 h 4.482406 4.482369 l 1.860397,-2.28572 1.678715,-2.06248 v -0.22341 h -4.300763 z m 8.783207,3.89568 -0.550488,0.67571 h 0.550488 z M 5e-6,999.02885 v 4.57145 h 2.042023 4.482421 l -1.860378,-2.2859 -1.860317,-2.28555 z m 5.792028,0 1.8603215,2.28555 1.8603779,2.2859 h 4.4824366 4.485316 l -1.860321,-2.2859 -1.860397,-2.28555 h -4.482418 z m 11.956018,0 1.860396,2.28555 1.860322,2.2859 h 4.482444 4.482406 l -1.860321,-2.2859 -1.860359,-2.28555 h -4.482444 z m 11.953171,0 1.860359,2.28555 1.860322,2.2859 h 4.482444 4.482406 l -1.860321,-2.2859 -1.860359,-2.28555 h -4.482444 z m 11.956007,0 1.857449,2.28555 1.860359,2.2859 h 4.485316 4.482482 l -1.860397,-2.2859 -1.860321,-2.28555 h -4.482482 z m 11.953134,0 1.860359,2.28555 1.860321,2.2859 h 4.482444 4.482407 l -1.860322,-2.2859 -1.860359,-2.28555 h -4.482444 z m 11.953134,0 1.860359,2.28555 1.860321,2.2859 h 4.482406 4.482407 l -1.857411,-2.2859 -1.860322,-2.28555 h -4.485354 z m 11.956044,0 1.860321,2.28555 1.860359,2.2859 h 4.482444 4.482407 l -1.860359,-2.2859 -1.860322,-2.28555 h -4.482444 z m 11.953134,0 1.860321,2.28555 1.860359,2.2859 h 2.80664 v -4.57145 H 93.955081 Z M 5e-6,1005.1242 v 0.6727 l 0.547654,-0.6727 z m 3.536164,0 -1.860378,2.2861 -1.675786,2.0588 v 0.2273 h 4.297886 4.4824257 l 1.8603213,-2.286 1.860374,-2.286 H 8.0185907 Z m 11.953122,0 -1.860359,2.2861 -1.857441,2.2859 h 4.482437 4.482406 l 1.860397,-2.2859 1.860321,-2.2861 h -4.482444 z m 11.956045,0 -1.860322,2.2861 -1.860359,2.2859 h 4.482407 4.482444 l 1.860321,-2.2859 1.860359,-2.2861 H 31.92778 Z m 11.953134,0 -1.860322,2.2861 -1.860359,2.2859 h 4.482407 4.485316 l 1.860359,-2.2859 1.860397,-2.2861 h -4.485354 z m 11.956082,0 -1.860397,2.2861 -1.860321,2.2859 h 4.482368 4.482444 l 1.860359,-2.2859 1.860322,-2.2861 h -4.482369 z m 11.953058,0 -1.860321,2.2861 -1.860359,2.2859 h 4.482406 4.482444 l 1.860359,-2.2859 1.860322,-2.2861 h -4.482407 z m 11.953134,0 -1.860321,2.2861 -1.860397,2.2859 h 4.485392 4.482406 l 1.860322,-2.2859 1.860359,-2.2861 h -4.482407 z m 11.956044,0 -1.860359,2.2861 -1.860321,2.2859 h 4.482406 4.482369 l 1.860397,-2.2859 1.678715,-2.0633 v -0.223 h -4.300763 z m 8.783207,3.8965 -0.550488,0.6755 h 0.550488 z M 5e-6,1011.2189 v 4.5719 h 2.042023 4.482421 l -1.860378,-2.286 -1.860317,-2.2859 z m 5.792028,0 1.8603215,2.2859 1.8603779,2.286 h 4.4824366 4.485316 l -1.860321,-2.286 -1.860397,-2.2859 h -4.482418 z m 11.956018,0 1.860396,2.2859 1.860322,2.286 h 4.482444 4.482406 l -1.860321,-2.286 -1.860359,-2.2859 h -4.482444 z m 11.953171,0 1.860359,2.2859 1.860322,2.286 h 4.482444 4.482406 l -1.860321,-2.286 -1.860359,-2.2859 h -4.482444 z m 11.956007,0 1.857449,2.2859 1.860359,2.286 h 4.485316 4.482482 l -1.860397,-2.286 -1.860321,-2.2859 h -4.482482 z m 11.953134,0 1.860359,2.2859 1.860321,2.286 h 4.482444 4.482407 l -1.860322,-2.286 -1.860359,-2.2859 h -4.482444 z m 11.953134,0 1.860359,2.2859 1.860321,2.286 h 4.482406 4.482407 l -1.857411,-2.286 -1.860322,-2.2859 h -4.485354 z m 11.956044,0 1.860321,2.2859 1.860359,2.286 h 4.482444 4.482407 l -1.860359,-2.286 -1.860322,-2.2859 h -4.482444 z m 11.953134,0 1.860321,2.2859 1.860359,2.286 h 2.80664 v -4.5719 H 93.955081 Z M 5e-6,1017.3148 v 0.6726 l 0.547654,-0.6726 z m 3.536164,0 -1.860378,2.286 -1.675786,2.0588 v 0.2272 h 4.297886 4.4824257 l 1.8603213,-2.2858 1.860374,-2.2861 H 8.0185907 Z m 11.953122,0 -1.860359,2.286 -1.857441,2.2859 h 4.482437 4.482406 l 1.860397,-2.2859 1.860321,-2.286 h -4.482444 z m 11.956045,0 -1.860322,2.286 -1.860359,2.2859 h 4.482407 4.482444 l 1.860321,-2.2859 1.860359,-2.286 H 31.92778 Z m 11.953134,0 -1.860322,2.286 -1.860359,2.2859 h 4.482407 4.485316 l 1.860359,-2.2859 1.860397,-2.286 h -4.485354 z m 11.956082,0 -1.860397,2.286 -1.860321,2.2859 h 4.482368 4.482444 l 1.860359,-2.2859 1.860322,-2.286 h -4.482369 z m 11.953058,0 -1.860321,2.286 -1.860359,2.2859 h 4.482406 4.482444 l 1.860359,-2.2859 1.860322,-2.286 h -4.482407 z m 11.953134,0 -1.860321,2.286 -1.860397,2.2859 h 4.485392 4.482406 l 1.860322,-2.2859 1.860359,-2.286 h -4.482407 z m 11.956044,0 -1.860359,2.286 -1.860321,2.2859 h 4.482406 4.482369 l 1.860397,-2.2859 1.678715,-2.0633 v -0.223 h -4.300763 z m 8.783207,3.8963 -0.550488,0.6756 h 0.550488 z M 5e-6,1023.4092 v 4.572 h 2.042023 4.482421 l -1.860378,-2.2859 -1.860317,-2.2861 z m 5.792028,0 1.8603215,2.2861 1.8603779,2.2859 h 4.4824366 4.485316 l -1.860321,-2.2859 -1.860397,-2.2861 h -4.482418 z m 11.956018,0 1.860396,2.2861 1.860322,2.2859 h 4.482444 4.482406 l -1.860321,-2.2859 -1.860359,-2.2861 h -4.482444 z m 11.953171,0 1.860359,2.2861 1.860322,2.2859 h 4.482444 4.482406 l -1.860321,-2.2859 -1.860359,-2.2861 h -4.482444 z m 11.956007,0 1.857449,2.2861 1.860359,2.2859 h 4.485316 4.482482 l -1.860397,-2.2859 -1.860321,-2.2861 h -4.482482 z m 11.953134,0 1.860359,2.2861 1.860321,2.2859 h 4.482444 4.482407 l -1.860322,-2.2859 -1.860359,-2.2861 h -4.482444 z m 11.953134,0 1.860359,2.2861 1.860321,2.2859 h 4.482406 4.482407 l -1.857411,-2.2859 -1.860322,-2.2861 h -4.485354 z m 11.956044,0 1.860321,2.2861 1.860359,2.2859 h 4.482444 4.482407 l -1.860359,-2.2859 -1.860322,-2.2861 h -4.482444 z m 11.953134,0 1.860321,2.2861 1.860359,2.2859 h 2.80664 v -4.572 H 93.955081 Z M 5e-6,1029.5053 v 0.6725 l 0.547654,-0.6725 z m 3.536164,0 -1.860378,2.2858 -1.675786,2.059 v 0.2272 h 4.297886 4.4824257 l 1.8603213,-2.286 1.860374,-2.2859 H 8.0185907 Z m 11.953122,0 -1.860359,2.2858 -1.857441,2.2861 h 4.482437 4.482406 l 1.860397,-2.2861 1.860321,-2.2858 h -4.482444 z m 11.956045,0 -1.860322,2.2858 -1.860359,2.2861 h 4.482407 4.482444 l 1.860321,-2.2861 1.860359,-2.2858 H 31.92778 Z m 11.953134,0 -1.860322,2.2858 -1.860359,2.2861 h 4.482407 4.485316 l 1.860359,-2.2861 1.860397,-2.2858 h -4.485354 z m 11.956082,0 -1.860397,2.2858 -1.860321,2.2861 h 4.482368 4.482444 l 1.860359,-2.2861 1.860322,-2.2858 h -4.482369 z m 11.953058,0 -1.860321,2.2858 -1.860359,2.2861 h 4.482406 4.482444 l 1.860359,-2.2861 1.860322,-2.2858 h -4.482407 z m 11.953134,0 -1.860321,2.2858 -1.860397,2.2861 h 4.485392 4.482406 l 1.860322,-2.2861 1.860359,-2.2858 h -4.482407 z m 11.956044,0 -1.860359,2.2858 -1.860321,2.2861 h 4.482406 4.482369 l 1.860397,-2.2861 1.678715,-2.0631 v -0.2231 h -4.300763 z m 8.783207,3.8949 -0.550488,0.677 h 0.550488 z M 5e-6,1035.5998 v 4.5719 h 2.042023 4.482421 l -1.860378,-2.286 -1.860317,-2.2859 z m 5.792028,0 1.8603215,2.2859 1.8603779,2.286 h 4.4824366 4.485316 l -1.860321,-2.286 -1.860397,-2.2859 h -4.482418 z m 11.956018,0 1.860396,2.2859 1.860322,2.286 h 4.482444 4.482406 l -1.860321,-2.286 -1.860359,-2.2859 h -4.482444 z m 11.953171,0 1.860359,2.2859 1.860322,2.286 h 4.482444 4.482406 l -1.860321,-2.286 -1.860359,-2.2859 h -4.482444 z m 11.956007,0 1.857449,2.2859 1.860359,2.286 h 4.485316 4.482482 l -1.860397,-2.286 -1.860321,-2.2859 h -4.482482 z m 11.953134,0 1.860359,2.2859 1.860321,2.286 h 4.482444 4.482407 l -1.860322,-2.286 -1.860359,-2.2859 h -4.482444 z m 11.953134,0 1.860359,2.2859 1.860321,2.286 h 4.482406 4.482407 l -1.857411,-2.286 -1.860322,-2.2859 h -4.485354 z m 11.956044,0 1.860321,2.2859 1.860359,2.286 h 4.482444 4.482407 l -1.860359,-2.286 -1.860322,-2.2859 h -4.482444 z m 11.953134,0 1.860321,2.2859 1.860359,2.286 h 2.80664 v -4.5719 H 93.955081 Z M 5e-6,1041.6956 v 0.6726 l 0.547654,-0.6726 z m 3.536164,0 -1.860378,2.2861 -1.675786,2.0588 v 0.2273 h 4.297886 4.4824257 l 1.8603213,-2.286 1.860374,-2.286 H 8.0185907 Z m 11.953122,0 -1.860359,2.2861 -1.857441,2.2859 h 4.482437 4.482406 l 1.860397,-2.2859 1.860321,-2.2861 h -4.482444 z m 11.956045,0 -1.860322,2.2861 -1.860359,2.2859 h 4.482407 4.482444 l 1.860321,-2.2859 1.860359,-2.2861 H 31.92778 Z m 11.953134,0 -1.860322,2.2861 -1.860359,2.2859 h 4.482407 4.485316 l 1.860359,-2.2859 1.860397,-2.2861 h -4.485354 z m 11.956082,0 -1.860397,2.2861 -1.860321,2.2859 h 4.482368 4.482444 l 1.860359,-2.2859 1.860322,-2.2861 h -4.482369 z m 11.953058,0 -1.860321,2.2861 -1.860359,2.2859 h 4.482406 4.482444 l 1.860359,-2.2859 1.860322,-2.2861 h -4.482407 z m 11.953134,0 -1.860321,2.2861 -1.860397,2.2859 h 4.485392 4.482406 l 1.860322,-2.2859 1.860359,-2.2861 h -4.482407 z m 11.956044,0 -1.860359,2.2861 -1.860321,2.2859 h 4.482406 4.482369 l 1.860397,-2.2859 1.678715,-2.0633 v -0.223 h -4.300763 z m 8.783207,3.8951 -0.550488,0.6769 h 0.550488 z M 5.0000001e-6,1047.7903 v 4.5719 H 2.042028 6.524449 l -1.860378,-2.2861 -1.860317,-2.2858 z m 5.7920279999999,0 1.8603215,2.2858 1.8603779,2.2861 h 4.4824366 4.485316 l -1.860321,-2.2861 -1.860397,-2.2858 h -4.482418 z m 11.956018,0 1.860396,2.2858 1.860322,2.2861 h 4.482444 4.482406 l -1.860321,-2.2861 -1.860359,-2.2858 h -4.482444 z m 11.953171,0 1.860359,2.2858 1.860322,2.2861 h 4.482444 4.482406 l -1.860321,-2.2861 -1.860359,-2.2858 h -4.482444 z m 11.956007,0 1.857449,2.2858 1.860359,2.2861 h 4.485316 4.482482 l -1.860397,-2.2861 -1.860321,-2.2858 h -4.482482 z m 11.953134,0 1.860359,2.2858 1.860321,2.2861 h 4.482444 4.482407 l -1.860322,-2.2861 -1.860359,-2.2858 h -4.482444 z m 11.953134,0 1.860359,2.2858 1.860321,2.2861 h 4.482406 4.482407 l -1.857411,-2.2861 -1.860322,-2.2858 h -4.485354 z m 11.956044,0 1.860321,2.2858 1.860359,2.2861 h 4.482444 4.482407 l -1.860359,-2.2861 -1.860322,-2.2858 h -4.482444 z m 11.953134,0 1.860321,2.2858 1.860359,2.2861 h 2.80664 v -4.5719 h -2.044914 z"
       id="path2478"
       inkscape:connector-curvature="0" />
  </g>
</svg>
