<?xml version="1.0" encoding="UTF-8" standalone="no"?>
<!-- Created with Inkscape (http://www.inkscape.org/) -->

<svg
   xmlns:dc="http://purl.org/dc/elements/1.1/"
   xmlns:cc="http://creativecommons.org/ns#"
   xmlns:rdf="http://www.w3.org/1999/02/22-rdf-syntax-ns#"
   xmlns:svg="http://www.w3.org/2000/svg"
   xmlns="http://www.w3.org/2000/svg"
   xmlns:sodipodi="http://sodipodi.sourceforge.net/DTD/sodipodi-0.dtd"
   xmlns:inkscape="http://www.inkscape.org/namespaces/inkscape"
   width="96"
   height="96"
   viewBox="0 0 96.000001 96.000002"
   id="svg2"
   version="1.1"
   inkscape:version="0.92.4 5da689c313, 2019-01-14"
   sodipodi:docname="pattern-19.svg">
  <defs
     id="defs4" />
  <sodipodi:namedview
     id="base"
     pagecolor="#ffffff"
     bordercolor="#666666"
     borderopacity="1.0"
     inkscape:pageopacity="0.0"
     inkscape:pageshadow="2"
     inkscape:zoom="3.8541667"
     inkscape:cx="-57.989188"
     inkscape:cy="48"
     inkscape:document-units="px"
     inkscape:current-layer="layer1"
     showgrid="false"
     units="px"
     inkscape:showpageshadow="false"
     inkscape:window-width="1919"
     inkscape:window-height="1026"
     inkscape:window-x="1"
     inkscape:window-y="28"
     inkscape:window-maximized="1" />
  <metadata
     id="metadata7">
    <rdf:RDF>
      <cc:Work
         rdf:about="">
        <dc:format>image/svg+xml</dc:format>
        <dc:type
           rdf:resource="http://purl.org/dc/dcmitype/StillImage" />
        <dc:title></dc:title>
        <cc:license
           rdf:resource="http://creativecommons.org/licenses/by-sa/4.0/" />
        <dc:date>2019</dc:date>
        <dc:creator>
          <cc:Agent>
            <dc:title>Cristian Pozzessere  &lt; ilnanny &gt;</dc:title>
          </cc:Agent>
        </dc:creator>
        <dc:subject>
          <rdf:Bag>
            <rdf:li>ilnanny</rdf:li>
          </rdf:Bag>
        </dc:subject>
      </cc:Work>
      <cc:License
         rdf:about="http://creativecommons.org/licenses/by-sa/4.0/">
        <cc:permits
           rdf:resource="http://creativecommons.org/ns#Reproduction" />
        <cc:permits
           rdf:resource="http://creativecommons.org/ns#Distribution" />
        <cc:requires
           rdf:resource="http://creativecommons.org/ns#Notice" />
        <cc:requires
           rdf:resource="http://creativecommons.org/ns#Attribution" />
        <cc:permits
           rdf:resource="http://creativecommons.org/ns#DerivativeWorks" />
        <cc:requires
           rdf:resource="http://creativecommons.org/ns#ShareAlike" />
      </cc:License>
    </rdf:RDF>
  </metadata>
  <g
     inkscape:label="Livello 1"
     inkscape:groupmode="layer"
     id="layer1"
     transform="translate(0,-956.36218)">
    <path
       inkscape:connector-curvature="0"
       style="fill:#000000;stroke-width:3.77952743"
       d="m 2.2e-6,956.36219 v 3 h 1.5000189 v 3 3 h 0.7499717 0.7499981 v -4.49998 -4.50002 z m 5.9999886,0 v 4.50002 7.49998 H 2.2499928 2.2e-6 v 3 h 2.2499906 5.250021 v -9 -6 z m 4.5000222,0 v 1.50002 1.49998 h 1.499978 1.500022 v -1.49998 -1.50002 z m 6.000001,0 v 6 h -3.000001 -3 v 6 6 H 2.2499928 2.2e-6 v 3 h 5.9999886 v 7.50002 7.49995 H 2.2499928 2.2e-6 v 3 h 2.2499906 5.250021 v -9 -8.99997 h 2.9999992 3 v -6 -6 H 21.75 29.999991 v 7.50002 7.49998 h -3.75001 -3.749967 v -3 -3 H 21.75 20.999991 v 4.50002 4.49998 h 5.24999 5.250033 v -9 -9 h 3 3 v -6 -3 h -3 v 6 h -8.250033 -8.24999 v -6 z m 4.499977,0 v 3 h 5.24999 5.250033 v -3 h -1.500023 -7.499977 z m 19.500023,0 v 9 9 h -3 -3 v 6 5.99997 h -8.250033 -8.24999 v -7.49995 -7.50002 H 21.75 25.500014 v 3 3 h 0.749967 0.75001 v -4.49998 -4.50002 H 21.75 16.500014 v 9 8.99997 h -3.000001 -3 v 6 6 H 2.2499928 2.2e-6 v 3.00004 h 5.9999886 v 3 4.5001 7.4999 H 2.2499928 2.2e-6 v 3 h 2.2499906 5.250021 v -9 -6 -3 h 2.9999992 3 v -6.00004 -6 H 21.75 29.999991 v 7.5 7.50004 h -7.499977 v -3 -3.00004 H 21.75 20.999991 v 4.50014 1.4999 3 h 5.24999 5.250033 v -3 -6.00004 -9 h 3 3 v -5.99997 -6 h 8.249987 2.24999 6 v 7.50002 7.49995 h -3.750009 -2.249991 -1.499977 v -3 -3 h -0.750013 -0.75001 v 4.5001 4.4999 h 3 2.249991 5.250032 v -9 -8.99997 h 3 3 v -6 -6 h 8.249987 8.249991 v 7.50002 7.49998 h -3.75001 -3.749968 v -3 -3 h -0.750013 -0.75001 v 4.50002 4.49998 h 5.249991 5.250032 v -9 -9 h 2.999996 3 v -6 -3 h -3 v 6 h -8.250028 -8.249991 v -6 h -1.499977 v 6 h -3 -3 v 6 6 h -8.250032 -2.249991 -6 v -7.49998 -7.50002 h 3.75001 2.24999 1.500023 v 3 3 h 0.749968 0.750009 v -4.49998 -4.50002 h -3 z m 13.499977,0 v 4.50002 7.49998 h -3.750009 -2.249991 -1.499977 v -3 -3 h -0.750013 -0.75001 v 4.50002 4.49998 h 3 2.249991 5.250032 v -9 -6 z m 4.500023,0 v 1.50002 1.49998 h 1.499977 1.500023 v -1.49998 -1.50002 z m 10.499977,0 v 3 h 5.249991 5.250032 v -3 h -1.500022 -7.499978 z m 19.500023,0 v 9 9 h -3.000004 -3 v 6 5.99997 h -8.250028 -8.249991 v -7.49995 -7.50002 h 3.75001 3.750013 v 3 3 h 0.749968 0.750009 v -4.49998 -4.50002 h -5.24999 -5.249987 v 9 8.99997 h -3 -3 v 6 6 h -8.250032 -2.249991 -6 v -7.4999 -7.50007 h 3.75001 2.24999 1.500023 v 2.99997 3 h 0.749968 0.750009 v -4.49995 -4.50002 h -3 -2.24999 -5.249987 v 8.99997 9 h -3 -3 v 6.00004 6 h -8.250033 -8.24999 v -6 -1.4999 -7.50014 H 21.75 25.500014 v 3 3.00004 h 0.749967 0.75001 v -4.50004 -4.5 H 21.75 16.500014 v 9.00004 3 6 h -3.000001 -3 v 6 6 H 2.2499928 2.2e-6 v 3 h 5.9999886 v 7.5001 7.4999 H 2.2499928 2.2e-6 v 3 h 2.2499906 5.250021 v -9 -9 h 2.9999992 3 v -6 -6 H 21.75 29.999991 v 7.5001 7.4999 h -3.75001 -3.749967 v -3 -3 H 21.75 20.999991 v 4.5001 4.4999 h 5.24999 5.250033 v -9 -9 h 3 3 v -6 -3 -3 h 8.249987 2.24999 6 v 3 4.5001 7.4999 h -3.750009 -2.249991 -1.499977 v -3 -3 h -0.750013 -0.75001 v 4.5001 4.4999 h 3 2.249991 5.250032 v -9 -6 -3 h 3 3 v -6.00004 -6 h 8.249987 8.249991 v 7.5 7.50004 h -7.499978 v -3 -3.00004 h -0.750013 -0.75001 v 4.50014 1.4999 3 h 5.249991 5.250032 v -3 -6.00004 -9 h 2.999996 3 v -5.99997 -6 h 8.249995 2.249993 v -3 h -6.000003 v -7.49998 -7.50002 h 3.75001 2.249993 v -3 z m 4.499981,6 v 4.50002 4.49998 h 3.000003 v -3 h -1.499984 v -3 -3 h -0.750009 z m -58.499981,6 v 1.50002 1.49998 h 1.499977 1.500023 v -1.49998 -1.50002 h -1.500023 z m 47.999996,0 v 1.50002 1.49998 h 1.499982 1.500018 v -1.49998 -1.50002 h -1.500018 z m -82.5000078,12 v 3 h 1.5000189 v 2.99997 3 h 0.7499717 0.7499981 v -4.49995 -4.50002 z m 10.5000108,0 v 1.50002 1.49998 h 1.499978 1.500022 v -1.49998 -1.50002 h -1.500022 z m 48.000001,0 v 1.50002 1.49998 h 1.499977 1.500023 v -1.49998 -1.50002 h -1.500023 z m 30,0 v 8.99997 9 h -3.000004 -3 v 6.00004 6 h -8.250028 -8.249991 v -6 -1.4999 -7.50014 h 3.75001 3.750013 v 3 3.00004 h 0.749968 0.750009 v -4.50004 -4.5 h -5.24999 -5.249987 v 9.00004 3 6 h -3 -3 v 6 6 h -8.250032 -2.249991 -6 v -7.4999 -7.5001 h 3.75001 2.24999 1.500023 v 3 3 h 0.749968 0.750009 v -4.4999 -4.5001 h -3 -7.499977 v 9 9 h -3 -3 v 6 6 h -8.250033 -8.24999 v -7.4999 -7.5001 H 21.75 25.500014 v 3 3 h 0.749967 0.75001 v -4.4999 -4.5001 H 21.75 16.500014 v 9 9 h -3.000001 -3 v 6 6 H 2.2499928 2.2e-6 v 3 h 5.9999886 v 3 h 1.500023 v -3 h 2.9999992 3 v -6 -6 H 21.75 29.999991 v 7.5001 7.4999 h 1.500023 v -6 -9 h 3 3 v -6 -6 h 8.249987 2.24999 6 v 7.5001 7.4999 h -3.750009 -2.249991 -1.499977 v -3 -3 h -0.750013 -0.75001 v 4.5001 4.4999 h 3 2.249991 5.250032 v -9 -9 h 3 3 v -6 -6 h 8.249987 8.249991 v 7.5001 7.4999 h -3.75001 -3.749968 v -3 -3 h -0.750013 -0.75001 v 4.5001 4.4999 h 5.249991 5.250032 v -9 -9 h 2.999996 3 v -6 -3 -3 h 8.249995 2.249993 v -3.00004 h -6.000003 v -7.4999 -7.50007 h 3.75001 2.249993 v -3 h -2.249993 z m 4.499981,5.99997 v 4.5001 4.4999 h 3.000003 v -3 h -1.499984 v -3 -3 h -0.750009 z m -58.499981,6 v 1.5 1.5 h 1.499977 1.500023 v -1.5 -1.5 h -1.500023 z m 47.999996,0 v 1.5 1.5 h 1.499982 1.500018 v -1.5 -1.5 H 83.999992 Z M 2.2e-6,1004.3622 v 3 h 1.5000189 v 3 3 h 0.7499717 0.7499981 v -4.4999 -4.5001 z m 10.5000108,0 v 1.5001 1.4999 h 1.499978 1.500022 v -1.4999 -1.5001 z m 48.000001,0 v 1.5001 1.4999 h 1.499977 1.500023 v -1.4999 -1.5001 z m 30,0 v 9 9 h -3.000004 -3 v 6 6 h -8.250028 -8.249991 v -7.4999 -7.5001 h 3.75001 3.750013 v 3 3 h 0.749968 0.750009 v -4.4999 -4.5001 h -5.24999 -5.249987 v 9 9 h -3 -3 v 6 6 h -8.250032 -2.249991 -6 v -7.4999 -7.5001 h 3.75001 2.24999 1.500023 v 3 3 h 0.749968 0.750009 v -4.4999 -4.5001 h -3 -2.24999 -5.249987 v 9 9 h -3 -3 v 6 h 3 v -3 h 8.249987 2.24999 6 v 3 h 1.500023 v -3 h 3 3 v -6 -6 h 8.249987 8.249991 v 7.5001 7.4999 h 1.500022 v -6 -9 h 2.999996 3 v -6 -6 h 8.249995 2.249993 v -3 h -6.000003 v -7.4999 -7.5001 h 3.75001 2.249993 v -3 z m 4.499981,6 v 4.5001 4.4999 h 3.000003 v -3 h -1.499984 v -3 -3 h -0.750009 z m -58.499981,6 v 1.5001 1.4999 h 1.499977 1.500023 v -1.4999 -1.5001 h -1.500023 z m 47.999996,0 v 1.5001 1.4999 h 1.499982 1.500018 v -1.4999 -1.5001 h -1.500018 z m -82.5000078,12 v 3 h 1.5000189 v 3 3 h 0.7499717 0.7499981 v -4.4999 -4.5001 z m 10.5000108,0 v 1.5001 1.4999 h 1.499978 1.500022 v -1.4999 -1.5001 h -1.500022 z m 48.000001,0 v 1.5001 1.4999 h 1.499977 1.500023 v -1.4999 -1.5001 h -1.500023 z m 30,0 v 9 9 h -3.000004 -3 v 6 h 3 v -3 h 8.249995 2.249993 v -3 h -6.000003 v -7.4999 -7.5001 h 3.75001 2.249993 v -3 h -2.249993 z m 4.499981,6 v 4.5001 4.4999 h 3.000003 v -3 h -1.499984 v -3 -3 h -0.750009 z m -76.499981,6 v 9 3 h 1.499977 v -1.4999 -7.5001 H 21.75 25.500014 v 3 3 h 0.749967 0.75001 v -4.4999 -4.5001 H 21.75 Z m 18,0 v 1.5001 1.4999 h 1.499977 1.500023 v -1.4999 -1.5001 h -1.500023 z m 30,0 v 9 3 h 1.499977 v -1.4999 -7.5001 h 3.75001 3.750013 v 3 3 h 0.749968 0.750009 v -4.4999 -4.5001 h -5.24999 z m 17.999996,0 v 1.5001 1.4999 h 1.499982 1.500018 v -1.4999 -1.5001 h -1.500018 z m -61.500019,6 v 4.5001 1.4999 h 1.500023 v -3 -3 H 21.75 Z m 48,0 v 4.5001 1.4999 h 1.500023 v -3 -3 h -0.750013 z"
       id="path2496" />
  </g>
</svg>
