<?xml version="1.0" encoding="UTF-8"?>
<!DOCTYPE svg PUBLIC "-//W3C//DTD SVG 1.1//EN" "http://www.w3.org/Graphics/SVG/1.1/DTD/svg11.dtd">
<!-- Creator: CorelDRAW 2017 -->
<svg xmlns="http://www.w3.org/2000/svg" xml:space="preserve" width="188mm" height="246mm" version="1.1" style="shape-rendering:geometricPrecision; text-rendering:geometricPrecision; image-rendering:optimizeQuality; fill-rule:evenodd; clip-rule:evenodd"
viewBox="0 0 18800 24600"
 xmlns:xlink="http://www.w3.org/1999/xlink">
 <defs>
  <style type="text/css">
   <![CDATA[
    .fil2 {fill:none}
    .fil0 {fill:#FEFEFE}
    .fil1 {fill:#2B2A29}
    .fil3 {fill:black}
   ]]>
  </style>
 </defs>
 <g id="Í_x00bc__x00b2_ã_x0020_1">
  <metadata id="CorelCorpID_0Corel-Layer"/>
  <path class="fil0" d="M17048.95 21475.51c0,119.77 -96.58,216.9 -215.67,216.9l-14880.05 0c-119.09,0 -215.67,-97.13 -215.67,-216.9l0 -18542.62c0,-119.81 96.58,-216.9 215.67,-216.9l14880.05 0c119.09,0 215.67,97.09 215.67,216.9l0 18542.62z"/>
  <path class="fil0" d="M1869.58 2364.64l0 -437.9 63.62 0 151.95 380.73 151.43 -380.73 63.63 0 0 437.9 -41.29 0 0 -386.78 -154.41 386.78 -38.92 0 -154.42 -386.78 0 386.78 -41.59 0zm532.19 0l-45.5 0 170.38 -437.9 51.88 0 169.86 437.9 -46.12 0 -52.51 -137.44 -195.48 0 -52.51 137.44zm232.87 -176.86l-83.29 -219.87 -82.04 219.87 165.33 0zm253.2 176.86l-43.14 0 0 -394.89 -87.81 0 0 -43.01 218.76 0 0 43.01 -87.81 0 0 394.89zm210.69 -241.53l184.57 0 0 43.32 -184.57 0 0 155.81 184.57 0 0 42.4 -228.02 0 0 -437.9 228.02 0 0 43.01 -184.57 0 0 153.36zm337.92 -153.36l0 394.89 -42.52 0 0 -437.9 117.98 0c25.94,0 46.74,1.95 62.59,5.85 15.75,3.9 30.06,10.37 42.93,19.41 17.5,12.21 31.3,28.53 41.49,49.06 10.18,20.43 15.24,42.09 15.24,64.98 0,33.87 -10.1,63.02 -30.28,87.46 -20.27,24.53 -45.49,37.87 -75.87,40.02l106.15 171.12 -51.27 0 -130.33 -211.14 41.59 0c27.79,0 50.34,-8.12 67.73,-24.33 17.4,-16.22 26.15,-37.17 26.15,-62.62 0,-15.4 -2.67,-29.46 -8.03,-42.08 -5.25,-12.64 -13.18,-23.62 -23.67,-33.06 -8.65,-7.8 -19.05,-13.34 -31.2,-16.73 -12.14,-3.29 -33.87,-4.93 -65.06,-4.93l-63.62 0zm384.46 394.89l-43.13 0 0 -437.9 43.13 0 0 437.9zm105.99 0l-45.51 0 170.39 -437.9 51.88 0 169.86 437.9 -46.12 0 -52.51 -137.44 -195.48 0 -52.51 137.44zm232.86 -176.86l-83.28 -219.87 -82.05 219.87 165.33 0zm379.31 176.86l-197.85 0 0 -437.9 43.44 0 0 395.5 154.41 0 0 42.4zm68.01 -125.13l41.59 0c0.82,27.1 8.55,48.66 23.06,64.67 14.62,16.12 33.77,24.12 57.44,24.12 25.54,0 45.82,-8 60.85,-23.91 14.92,-15.91 22.44,-37.57 22.44,-64.88 0,-39.62 -30.78,-69.7 -92.34,-89.92 -4.85,-1.64 -8.45,-2.77 -10.82,-3.59 -32.22,-11.09 -55.38,-25.05 -69.48,-41.98 -14.22,-16.94 -21.31,-39.01 -21.31,-66.31 0,-34.9 10.91,-63.45 32.73,-85.71 21.83,-22.28 50.03,-33.36 84.63,-33.36 32.94,0 59.09,10.16 78.44,30.38 19.26,20.22 30.07,48.75 32.23,85.4l-40.78 0c-2.16,-23.92 -9.36,-42.29 -21.41,-55.22 -12.04,-12.94 -28.2,-19.41 -48.48,-19.41 -21.73,0 -39.53,7.08 -53.23,21.26 -13.79,14.06 -20.69,32.12 -20.69,53.98 0,11.4 2.06,21.26 6.18,29.57 4.12,8.31 10.7,15.91 19.77,22.78 9.26,6.79 26.96,14.37 53.11,22.8 15.04,4.82 26.46,8.72 34.39,11.8 28.51,10.98 49.1,25.04 61.66,42.18 12.56,17.15 18.84,39.63 18.84,67.55 0,42.5 -11.63,76.78 -34.79,102.75 -23.27,25.97 -54.05,38.91 -92.46,38.91 -35.82,0 -64.85,-12.32 -87.19,-36.85 -22.34,-24.54 -33.76,-56.87 -34.38,-97.01zm700.55 -81.81l0 165.16 60.63 0c35.61,0 61.87,-6.67 78.85,-20.11 16.99,-13.45 25.54,-34.19 25.54,-62 0,-27.92 -8.66,-48.66 -25.94,-62.41 -17.3,-13.76 -43.45,-20.64 -78.45,-20.64l-60.63 0zm0 -189.18l0 147.41 25.94 0c42.61,0 72.47,-5.85 89.46,-17.56 16.98,-11.8 25.53,-31 25.53,-57.69 0,-25.04 -8.24,-43.32 -24.71,-54.82 -16.57,-11.6 -42.93,-17.34 -79.06,-17.34l-37.16 0zm-41.29 -41.78l81.74 0c49.73,0 86.17,9.35 109.54,28.13 23.36,18.78 35,47.94 35,87.66 0,20.01 -3.91,37.16 -11.74,51.43 -7.92,14.27 -19.66,25.86 -35.31,34.9 23.68,9.85 41.49,23.6 53.33,41.36 11.84,17.76 17.8,39.42 17.8,65.08 0,44.56 -12.35,77.19 -36.95,98.04 -24.6,20.83 -63.42,31.3 -116.33,31.3l-97.08 0 0 -437.9zm372 216.9c0,53.28 17.4,98.03 52.2,134.16 34.8,36.03 77.72,54.1 128.79,54.1 49.82,0 91.93,-18.28 126.31,-54.72 34.39,-36.53 51.58,-81.5 51.58,-134.78 0,-49.78 -17.71,-92.58 -53.13,-128.61 -35.31,-36.03 -77.92,-54 -127.86,-54 -20.28,0 -39.83,3.5 -58.58,10.37 -18.83,6.98 -36.12,17.14 -52.08,30.59 -20.9,17.55 -37.37,39.11 -49.31,64.67 -11.94,25.46 -17.92,51.53 -17.92,78.22zm-45.19 -0.62c0,-30.48 5.87,-59.64 17.61,-87.25 11.84,-27.72 28.82,-52.46 51.16,-74.32 21.52,-21.04 45.2,-36.85 71.03,-47.52 25.84,-10.58 53.84,-15.91 84.01,-15.91 30.68,0 59.2,5.33 85.44,16.11 26.26,10.68 50.24,26.69 71.97,47.94 22.33,21.86 39.12,46.29 50.34,73.39 11.22,27.11 16.88,56.26 16.88,87.56 0,31 -4.84,59.54 -14.51,85.51 -9.58,25.97 -24.1,49.58 -43.35,70.83 -22.33,24.53 -47.55,42.91 -75.77,55.32 -28.1,12.42 -58.67,18.69 -91.62,18.69 -63.1,0 -116.12,-22.08 -158.95,-66.31 -42.82,-44.25 -64.24,-98.96 -64.24,-164.04zm566.26 0.62c0,53.28 17.4,98.03 52.2,134.16 34.79,36.03 77.73,54.1 128.79,54.1 49.82,0 91.92,-18.28 126.31,-54.72 34.39,-36.53 51.58,-81.5 51.58,-134.78 0,-49.78 -17.71,-92.58 -53.13,-128.61 -35.31,-36.03 -77.92,-54 -127.85,-54 -20.29,0 -39.84,3.5 -58.58,10.37 -18.84,6.98 -36.13,17.14 -52.09,30.59 -20.9,17.55 -37.37,39.11 -49.31,64.67 -11.94,25.46 -17.92,51.53 -17.92,78.22zm-45.19 -0.62c0,-30.48 5.87,-59.64 17.6,-87.25 11.84,-27.72 28.83,-52.46 51.16,-74.32 21.52,-21.04 45.21,-36.85 71.04,-47.52 25.84,-10.58 53.84,-15.91 84.01,-15.91 30.68,0 59.19,5.33 85.43,16.11 26.27,10.68 50.24,26.69 71.97,47.94 22.34,21.86 39.12,46.29 50.34,73.39 11.23,27.11 16.89,56.26 16.89,87.56 0,31 -4.85,59.54 -14.52,85.51 -9.57,25.97 -24.1,49.58 -43.34,70.83 -22.34,24.53 -47.56,42.91 -75.76,55.32 -28.11,12.42 -58.69,18.69 -91.63,18.69 -63.1,0 -116.13,-22.08 -158.94,-66.31 -42.84,-44.25 -64.25,-98.96 -64.25,-164.04zm585.31 86.53l0 135.09 -42.52 0 0 -437.9 42.52 0 0 243.28 203.32 -243.28 51.27 0 -177.38 211.77 174.39 226.13 -53.12 0 -148.97 -194 -49.51 58.91z"/>
  <g id="_2570583504608">
   <path class="fil1" d="M5730.84 4329.84l-31.28 -7.82c0,0 -250.3,-164.26 11.73,-187.73 0,0 168.17,-23.46 367.62,105.61 0,0 121.24,23.45 97.78,89.94 0,0 -7.82,89.95 -445.85,0z"/>
   <path class="fil1" d="M6258.81 4322.02l35.2 0c0,0 696.14,-175.99 809.56,15.65 0,0 74.31,86.03 121.24,156.42 46.93,70.41 74.31,-23.46 74.31,-62.57 0,-39.1 -43.02,-23.46 -43.02,-23.46 0,0 -129.07,-398.91 -919.07,-156.44 0,0 -156.43,15.65 -78.22,70.4z"/>
   <path class="fil1" d="M6161.04 4181.24l39.11 -3.92c0,0 -203.37,-132.97 -262.03,-281.58 0,0 -332.42,-191.64 -289.41,-27.38 0,0 125.15,281.59 512.33,312.88z"/>
   <path class="fil1" d="M6415.25 4196.88l-66.48 3.91c0,0 -332.43,-136.88 -328.52,-308.97 0,0 54.75,15.65 136.88,3.92 0,0 164.26,50.84 207.28,258.12 0,0 97.77,-43.02 -113.41,-359.81 0,0 -50.85,-82.12 7.81,-301.13 0,0 15.65,31.28 82.13,109.5 0,0 258.13,324.61 74.31,594.46z"/>
   <path class="fil1" d="M6501.29 4134.3l0 27.37c0,0 31.29,31.29 70.4,-23.46 0,0 222.92,-191.63 39.11,-469.31 0,0 -93.87,-101.69 -93.87,66.49 0,0 23.47,285.49 -15.64,398.91z"/>
   <path class="fil1" d="M6665.55 4153.86l-27.38 -7.82c0,0 121.24,-172.08 144.7,-340.26 0,0 50.85,-105.58 86.05,7.83 0,0 97.77,262.02 -203.37,340.25z"/>
   <path class="fil1" d="M6939.31 3946.58c-39.26,73.14 -23.56,100.46 0,121.24 0,0 82.13,-101.69 187.72,-101.69 0,0 93.86,-43.02 113.42,-93.86 0,0 -136.88,-203.36 -301.14,74.31z"/>
   <path class="fil1" d="M6163.89 3705.71l31.17 13.85c0,0 -3.47,-186.98 20.77,-214.68 24.24,-27.71 -31.17,-148.89 -138.51,-173.13 0,0 -93.49,-6.93 -79.63,114.27 13.84,121.18 114.26,207.75 166.2,259.69z"/>
   <path class="fil1" d="M6049.63 3833.83l152.35 17.31 -186.98 -190.44c0,0 -45.02,-45.02 -65.79,31.17 0,0 -69.26,135.04 100.42,141.96z"/>
   <path class="fil1" d="M6330.11 3525.66l135.04 138.51c0,0 48.48,-193.91 -6.93,-277.02 0,0 -193.9,34.63 -128.11,138.51z"/>
   <path class="fil1" d="M6624.43 3459.87l76.18 342.81 17.31 0c0,0 31.17,-100.42 93.5,-128.13 0,0 65.78,-190.44 -141.98,-297.78 0,0 -58.86,-20.78 -45.01,83.1z"/>
   <path class="fil1" d="M6963.78 3487.57c-48.55,57.67 -91.3,118.82 -93.5,204.3 0,0 69.26,72.71 65.79,145.43l27.71 3.46c0,0 96.95,-65.79 72.71,-349.74 0,0 -6.92,-93.48 -72.71,-3.45z"/>
   <path class="fil1" d="M6991.47 4135.09c0,0 62.33,-20.79 72.72,0 10.39,20.78 -13.85,-69.25 -13.85,-69.25 -51.94,0 -71.56,23.08 -58.87,69.25z"/>
   <path class="fil1" d="M7325.15 4456.94c105.59,-604.86 223.16,-794.8 320.53,-1096.93 0,0 153.24,-211.88 106.97,-53.48 -22.77,77.94 -312.19,614.41 -383.72,1493.54 -136.95,980.65 -64.94,2364.7 896.99,3927.08 0,0 90.72,118.55 -95.41,38.78 -64.69,-79.44 -92.83,-171.22 -148.25,-268.24 -321.65,-562.96 -569.25,-1169.29 -680.33,-1796.8 -134.07,-757.34 -145.85,-1504.54 -16.78,-2243.95z"/>
   <path class="fil1" d="M6191.45 4441.63c126.64,30.42 70.67,-65.77 123.69,-76.57 -97.45,0 -101.71,-18.73 -123.69,76.57z"/>
   <path class="fil1" d="M8483.56 9210.94l-13.95 -20.59c0,0 -104.85,-185.03 67.85,-55.52 172.7,129.53 790.78,1413.35 2798.15,1864.81 0,0 290.22,24.18 72.56,153.16 0,0 -1426.93,-209.6 -2362.09,-1273.74 0,0 -446.72,-487.6 -562.52,-668.12z"/>
   <path class="fil1" d="M10714.75 10554.53l-37.87 -33.66c0,0 -534.37,-513.33 16.82,-984.58 0,0 201.98,-185.14 382.9,-172.52 0,0 -610.11,168.31 -555.41,694.26 0,0 4.21,223 244.05,399.72 0,0 88.36,109.4 -50.49,96.78z"/>
   <path class="fil1" d="M11290.67 10643.77c0,0 27.29,105.78 112.59,81.9 0,0 23.89,-37.54 -51.17,-109.19 0,0 -78.49,-607.38 -78.49,-631.25 0,-23.9 -54.59,-68.25 -54.59,0 0,-68.25 71.66,658.54 71.66,658.54z"/>
   <path class="fil1" d="M11454.45 10684.71l3.41 20.48c0,0 -98.96,105.78 20.47,139.9 0,0 64.83,27.3 58.01,-150.13 0,0 -34.12,-586.9 -122.83,-593.73 0,0 34.11,542.54 40.94,583.48z"/>
   <path class="fil1" d="M11294.08 9899.93l-116.02 -81.9c0,0 -81.88,34.12 -163.78,-68.25 0,0 -10.23,-88.71 105.78,-40.94 0,0 71.65,27.3 102.36,88.72 0,0 249.09,146.72 201.32,211.56 0,0 -71.65,-13.65 -129.66,-109.19z"/>
   <path class="fil1" d="M11356.63 9753.4l-58.53 -682.77c0,0 1.59,-37.24 27.66,-63.16 43.4,-43.16 154.67,-33 164.66,38.29 1.83,13.04 1.33,29.01 -2.68,48.58 139.73,1.86 134.74,164.9 13.71,142.29 -18.97,-3.54 -38.3,-12.21 -51.63,-30.88 0,0 37.5,-0.75 64.4,-10.27 73.61,-26.02 -17.27,-68.96 -55.55,-64.08 -10.79,1.38 -22.48,4.56 -34.93,10.34 0,0 42.57,-67.22 22.19,-103.84 -35.5,-63.83 -103.12,-17.35 -108.46,39.59 -0.9,9.56 -1.4,20.6 -1.39,33.34 0.03,28.55 2.7,65.65 9.44,113.88l61.62 -4.74 -49.77 80.6 52.05 441.57c26.67,199.21 -42.98,125.75 -52.79,11.26z"/>
   <path class="fil1" d="M11577.83 9364.58l-168.32 7.11c0,0 128.02,30.82 137.5,97.2 0,0 61.62,-2.38 30.82,-104.31z"/>
   <path class="fil1" d="M10469.13 9501.18c42.33,0 76.65,27.97 76.65,62.46 0,34.5 -34.32,62.47 -76.65,62.47 -42.35,0 -76.67,-27.97 -76.67,-62.47 0,-34.49 34.32,-62.46 76.67,-62.46z"/>
   <path class="fil1" d="M10684.91 9291.08c42.34,0 76.66,33.05 76.66,73.81 0,40.78 -34.32,73.83 -76.66,73.83 -42.34,0 -76.66,-33.05 -76.66,-73.83 0,-40.76 34.32,-73.81 76.66,-73.81z"/>
   <path class="fil1" d="M10929.9 9188.86c38.75,0 70.17,24.15 70.17,53.94 0,29.8 -31.42,53.96 -70.17,53.96 -38.76,0 -70.18,-24.16 -70.18,-53.96 0,-29.79 31.42,-53.94 70.18,-53.94z"/>
   <path class="fil1" d="M10330 10087.7c0,0 84.71,46.55 82.24,-15.57 -2.73,-68.59 -215.1,-138.14 -298.89,-249.7 -87.47,-66.45 -192.61,-168.69 -305.16,-341.46 -392.59,-602.71 -569.44,-1346.9 -364.92,-2047.89 213.16,-730.55 666.95,-1338.62 1409.28,-1530.55 161.68,-41.8 351.41,-70.85 585.43,-83.77 0,0 77.95,-34.65 -41.15,-34.65 -441.7,-5.22 -878.88,84.65 -1303.54,437.4 -749.93,758.62 -918.5,1640.91 -689.26,2607.85 155.58,456.18 378.5,896.2 925.97,1258.34z"/>
   <path class="fil1" d="M11500.66 5780.39l-5.04 13.46c0,0 136.27,33.65 331.43,-154.79 0,0 186.75,-166.55 223.76,-176.64 0,0 -56.26,-110.45 -218.81,-28.77 -130.17,65.4 -170.89,149.48 -254.23,258.6 -24.59,32.21 -51.35,63.97 -77.11,88.14z"/>
   <path class="fil1" d="M11576.37 5588.6l-143.01 87.48c0,0 -21.87,-8.41 10.1,-42.06 31.96,-33.64 116.09,-127.86 104.31,-254.04 0,0 9.67,-68.35 57.74,-111.73 11.81,-10.65 25.93,-19.79 42.79,-26.06 80.25,-29.79 94.48,-0.48 87.24,77.81 -1.12,12.1 -3.17,25.31 -6.52,39.42 -14.84,62.42 -55.07,143.03 -152.65,229.18z"/>
   <path class="fil1" d="M11159.13 5618.88l0 68.98 28.6 3.36c0,0 38.7,-111.04 117.77,-139.64 0,0 161.52,-45.42 129.55,-287.69 0,0 -19.23,-42.73 -80.68,-11.56 -42.97,21.78 -95.71,67.59 -122.26,106.2 -33.86,49.2 -68.77,130.81 -72.98,260.35z"/>
   <path class="fil1" d="M11090.11 5423.99c0,0 12.98,64.9 43.81,25.96 0,0 53.68,-81.29 44.52,-186.39 -6.87,-78.91 -37.29,-148.26 -112.31,-177.08 -40.96,-15.73 -94.98,-25.4 -112.66,22.37 -25.02,67.61 17.88,122.09 56.71,172.53 17.92,23.29 38.72,46.88 60.46,64.74 41.56,46.49 6.44,74.62 19.47,77.87z"/>
   <path class="fil1" d="M10922.15 5561.35l81.75 15.99c0,0 74.64,-138.62 -163.49,-298.56 -208.8,-120.56 -263.17,34.56 -124.65,164.92 45.45,42.76 112.32,88.88 206.39,117.65z"/>
   <path class="fil1" d="M10874.16 5781.71c0,0 64.43,-28.44 109.07,-61.31 103.61,-76.28 -20.58,-91.31 -78.26,-97.83 -96.71,-10.92 -266.14,-18.35 -310.12,55.64 -44.28,74.5 19.16,99.13 81.42,105.38 66.79,6.7 131.79,-6.29 197.89,-1.88z"/>
   <path class="fil1" d="M8952.65 6642.4c15.67,1.48 27.73,9.51 26.93,17.95 -0.79,8.43 -14.14,14.08 -29.81,12.6 -15.67,-1.48 -27.72,-9.51 -26.92,-17.95 0.79,-8.44 14.13,-14.08 29.8,-12.6zm440.2 315.78c12.04,48.59 78.89,155.43 80.61,29.07 0.67,-49.52 -12.01,-122.09 -84.44,-156.9 -55.59,-26.71 -151.08,-31.74 -208.01,-11.56 -89.41,31.7 -167.39,90.37 -291.2,71.58 -75.64,-11.49 -167.22,-39.69 -135.16,-150.13 0,0 59.92,-103.76 195.83,-16.07 0,0 15.56,5.57 35.61,9.2 123.97,22.49 101.02,-95.03 10.29,-127.52 -42.3,-15.15 -95.82,-14.02 -136.51,54.01 0,0 -115.91,-4.93 -135.02,82.63 -32.87,150.62 104.74,188.57 232.81,192.05 62.07,1.69 106.85,-11.09 149.84,-25.88 57.2,-19.67 122.56,-44.89 184.5,-38.76 64.48,6.38 86.33,29.74 100.85,88.28z"/>
   <path class="fil1" d="M9308.55 6709.84l-27.05 -19.31c0,0 -112.22,-96.93 -31,-124.98 75.58,-26.1 197.66,1.84 208.28,97.27 5.61,50.52 -2.41,119.26 -67.83,96.31 -16.99,-5.96 -39.3,-17.54 -68.23,-38.61 -4.56,-3.32 -9.28,-6.87 -14.17,-10.68z"/>
   <path class="fil1" d="M8912.53 6545.65c0,0 15.66,-0.19 37.07,-4.81 47.11,-10.18 122.07,-41.8 119.41,-140.07 0,0 -45.66,-23.74 -95.54,-10.33 -86.43,23.22 -64.69,84.99 -60.94,155.21z"/>
   <path class="fil1" d="M8730.95 6524.4l17.39 9.66c0,0 88.86,121.7 90.79,-42.5 0.96,-82.1 -29.94,-110.6 -60.85,-116.88 -55.83,-11.34 -73.58,24.68 -71.13,72.74 1.07,21.1 7.14,47.28 23.8,76.98z"/>
   <path class="fil1" d="M8557.09 6605.53l-13.52 -11.59c0,0 -57.96,-144.88 48.29,-119.77 0,0 162.95,79.49 131.2,169.35 -24.1,68.18 -65.21,62.92 -114.9,23.91 -17.97,-14.11 -36.46,-34.02 -51.07,-61.9z"/>
   <path class="fil1" d="M8351.74 6715.49c-12.14,-40.18 -1.59,-82.4 98.71,-79.76 0,0 74.53,14.9 149.05,101.85 0,0 47.2,34.78 59.62,42.23 9.31,5.59 11.64,43.31 -38.08,61.83 -88.07,32.78 -240.51,-30.89 -269.3,-126.15z"/>
   <path class="fil1" d="M8303.88 7020.77l-19.87 -4.97c0,0 -158.98,-114.26 34.78,-149.04 0,0 158.99,17.39 211.15,34.78 52.17,17.39 74.53,42.22 126.69,17.39 0,0 -24.84,72.04 -139.11,76.99 -20.92,-5.2 -144.09,63.14 -213.64,24.85z"/>
   <path class="fil1" d="M8539.88 7214.53l-17.39 0c0,0 -54.65,-228.55 191.29,-218.61 0,0 84.45,67.08 -69.56,171.42 0,0 -52.17,47.19 -104.34,47.19z"/>
   <path class="fil1" d="M8798.76 7060.57l-6.39 -10.65c0,0 -29.83,-78.83 36.22,-74.58 0,0 136.36,23.44 55.39,108.67 0,0 -55.39,51.13 -85.22,-23.44z"/>
   <path class="fil1" d="M11314.56 5697.19l-7.24 1.21c0,0 -85.63,21.18 -25.33,-64.76 0,0 71.76,-66.58 101.91,-19.38 0,0 42.82,32.69 -69.34,82.93z"/>
   <path class="fil1" d="M8253.68 8985.8c25.98,-4.93 45.87,-15.1 44.43,-22.72 -1.45,-7.61 -23.68,-9.78 -49.65,-4.86 -25.98,4.94 -45.87,15.1 -44.42,22.72 1.44,7.61 23.67,9.79 49.64,4.86zm276.38 66.28l11.55 6.6c0,0 57.79,16.51 -1.64,-54.47 0,0 -49.53,-64.39 -163.44,-70.99 0,0 -29.71,-36.32 37.98,-37.97 0,0 10.21,-48.28 -30.65,-51.53 -22.91,-1.83 -58.18,4.84 -67.17,28.63 -2.89,7.63 -4.54,17.12 0.41,24.55 0,0 -244.32,-3.31 -194.8,123.82 0,0 72.64,66.03 245.98,-24.78 0,0 92.45,-46.21 161.78,56.14z"/>
   <path class="fil1" d="M8226.3 9123.07l-11.55 11.56c0,0 -25.75,56.96 -3.75,95.78 25,44.13 74.84,45.32 101.48,5.15 4.51,-6.81 9.24,-15.18 14.06,-25.48 17.46,-37.43 21.66,-67.59 26.47,-106.61 2.06,-16.71 7.02,-34.06 18.57,-36.52 23.12,-4.95 -64.38,-13.22 -145.28,56.12z"/>
   <path class="fil1" d="M10625.89 8923.86c-9.6,-20.46 -15.01,-44.35 -11.47,-71.24 10.31,-78.55 90.16,-139.75 153.96,-175.35 90.83,-50.71 224.18,-76.4 350.85,70.1 0,0 20.38,13.1 34.93,-5.82 14.55,-18.92 -18.21,-264.55 217.18,-326.97 0,0 33.81,0 -24.71,39 0,0 -136.55,27.32 -156.06,304.32 0,0 36.42,14.3 -18.2,50.72 -1.54,30.72 65.89,537.59 81.27,722.01 10.61,127.45 -41.16,179.5 -57.42,39.7 -23.27,-200.08 -51.82,-729.38 -62.68,-726.66 -11.01,2.75 -141.71,-238.24 -339.64,-144.04 -36.53,17.39 -113.58,60.56 -113.41,108.72 0.08,21.41 8.61,52.43 35.72,96.78 55.96,142.52 -47.43,110.13 -90.32,18.73z"/>
   <path class="fil1" d="M10607.48 8672.4l-235.45 22.42c0,0 -41.11,-16.82 9.34,-57.93 0,0 104.64,-121.45 298.99,-20.55 0,0 82.21,42.98 -72.88,56.06z"/>
   <path class="fil1" d="M10702.79 8571.49l14.93 9.35c0,0 65.41,29.89 37.38,-59.8 0,0 14.95,-164.45 -205.55,-138.28 0,0 -102.77,-3.74 -35.5,61.67 0,0 162.57,76.61 188.74,127.06z"/>
   <path class="fil1" d="M10988.69 8315.49l136.4 100.9c0,0 65.41,46.72 44.85,-28.03 0,0 -119.59,-269.08 -250.39,-192.47 0,0 -41.11,48.59 69.14,119.6z"/>
   <path class="fil1" d="M11123.22 8192.15l93.43 121.47c0,0 35.51,28.03 28.04,-18.68 -7.48,-46.72 -16.82,-117.73 -16.82,-117.73 0,0 -53.6,-177.93 -135.87,-198.75 -125.39,-31.72 -53.19,106.02 -24.4,145.8 14.3,19.76 32.5,42.31 55.62,67.89z"/>
   <path class="fil1" d="M11448.37 8345.38l-59.8 16.82c0,0 -46.72,-117.72 134.55,-162.57 0,0 115.85,-72.88 142.01,-3.74 0,0 -11.21,20.56 -44.85,39.25 -33.63,18.68 -46.71,87.82 -171.91,110.24z"/>
   <path class="fil1" d="M11304.48 8225.8l18.69 7.47c0,0 48.59,29.89 42.98,-65.4 0,0 31.76,-241.07 -136.41,-233.59 0,0 -42.98,1.87 -11.21,104.65 0,0 91.56,123.32 85.95,186.87z"/>
   <path class="fil1" d="M11457.71 8164.13l-14.94 0c0,0 -69.14,-102.78 5.6,-123.33 0,0 112.12,-13.08 69.14,91.56 0,0 -22.42,41.11 -59.8,31.77z"/>
  </g>
  <g id="_2570583499168">
   <g>
    <path class="fil2" d="M6509.2 13671.75c-10.94,-51.27 -44.71,-115.08 0,-157.7 -32.74,12.33 -116.45,-26.32 -112.64,22.53 100.8,-31.93 64.75,188.84 112.64,135.17z"/>
    <path class="fil2" d="M5608.08 14347.59c-107.8,-72.42 -249.6,-110.85 -337.91,-202.75 63.2,334.8 16.01,779.98 135.16,1058.82 185.32,-160.87 309.6,-543.42 202.75,-856.07z"/>
    <path class="fil2" d="M5923.47 17433.92c-5.55,-69.55 -22.83,-127.36 -45.05,-180.23 -577.61,90.75 -564.24,1121.2 -292.86,1554.43 -133.82,-534.03 -22.86,-1141.27 337.91,-1374.2z"/>
    <path class="fil2" d="M5585.56 18808.12c-133.82,-534.03 -22.86,-1141.27 337.91,-1374.2 -5.55,-69.55 -22.83,-127.36 -45.05,-180.23 -577.61,90.75 -564.24,1121.2 -292.86,1554.43z"/>
   </g>
   <path class="fil2" d="M6396.56 13536.58c100.8,-31.93 64.75,188.84 112.64,135.17 -10.94,-51.27 -44.71,-115.08 0,-157.7 -32.74,12.33 -116.45,-26.32 -112.64,22.53z"/>
   <g>
    <path class="fil2" d="M6509.2 13671.75c-10.94,-51.27 -44.71,-115.08 0,-157.7 -21.58,8.13 -65.19,-5.78 -91.39,-2.29 -2.4,7.3 -4.99,14.67 -7.7,22.07 83.88,-8.38 53.51,189 99.09,137.92z"/>
    <path class="fil2" d="M6396.56 13536.58c1.01,-0.31 1.91,-0.44 2.88,-0.72 2.66,-7.35 5.13,-14.39 7.32,-20.94 -7.01,3.61 -11.1,10.14 -10.2,21.66z"/>
    <path class="fil3" d="M6424.19 13491.08l0 -35c0,0 -5.41,23.15 -17.43,58.84 3.13,-1.61 6.87,-2.6 11.05,-3.16 2.26,-6.95 4.42,-13.85 6.38,-20.68z"/>
   </g>
   <path class="fil3" d="M6483.41 13536.86c1.59,6.76 2.86,12.85 4.27,19.28 0.31,-2.12 0.59,-4.26 1.06,-6.33 -3.21,-8.16 -5.33,-12.95 -5.33,-12.95z"/>
   <path class="fil3" d="M6506.66 13661.13c0.52,3.9 1.08,7.95 1.5,11.66 0.36,-0.38 0.69,-0.63 1.04,-1.04 -0.75,-3.48 -1.61,-7.04 -2.54,-10.62z"/>
   <g>
    <path class="fil3" d="M5122.19 15504.62c-0.12,-0.48 -0.33,-1.04 -0.48,-1.52 -0.28,0.13 -0.56,0.27 -0.84,0.41 0.44,0.36 0.88,0.74 1.32,1.11z"/>
    <path class="fil3" d="M4256.41 13491.53c-36.22,91.44 -45.43,209.89 -112.64,270.34 -118.52,-106.97 -464.43,-106.02 -608.26,-112.65 117.2,108.09 240.92,209.64 360.45,315.4 -85.61,19.51 -116.35,93.9 -225.28,90.11 97.15,175.94 317.85,134.88 518.14,157.69 467.88,53.3 516.56,432.02 743.43,788.48 -56.17,-349.34 -276.47,-534.54 -428.04,-788.48 149.12,-318.21 -142.2,-515.06 -247.8,-720.89zm4888.56 2613.24c9.08,-74.12 70.26,-106.2 67.58,-180.22 -8.11,-223.18 -226.75,-406.86 -405.5,-563.2 -135.24,-118.28 -282.86,-215.04 -458.06,-246.48 -120.52,-21.63 -257.86,-2.08 -398.01,21.2 71.84,-143.47 194.88,-162.81 292.87,-315.39 181.34,-282.4 37.2,-783.98 174.37,-1047.97 1.9,-3.66 3.85,-7.28 5.85,-10.84 29.68,-52.66 87.54,-111.03 85.29,-109.59 -7.19,4.61 -19.66,12.69 -24.42,15.87 -206.42,137.94 -352.92,335.85 -398.79,634.39 -17.44,-110.71 -181.16,-193.63 -270.33,-157.7 134.57,88.55 68.09,270.6 135.16,428.03 48.91,114.79 129.12,125.45 135.17,202.75 10.28,130.96 -76.82,253.27 -157.69,315.4 -246.38,189.29 -580.82,171.02 -921.3,128.07 -163.03,-20.57 -309.38,-55.72 -458.54,-66.45 -223.03,-16.06 -442.09,11.82 -650.42,139.26 -3.52,11.31 -3.23,3 -5.72,15.34 -4.22,21.09 -8.49,42.13 -18.09,57.87 10.76,-1.99 21.28,-4.94 31.84,-8.22 337.09,-302.17 1200.57,-192.33 1301.34,252.27 -34.18,55.95 -43.5,136.73 -45.06,225.27 10.62,12.89 6.64,107.99 24.08,141.33 15.03,28.75 51.6,-6.49 61.19,32.82 7.77,31.79 12.14,66.35 10.56,102.54 -3.56,82.02 -28.33,171.08 -52.69,246.91 -43.14,107.18 -88.2,264.88 46.97,354.99 67.59,45.05 157.7,45.05 225.28,22.53 112.64,-67.59 90.11,-202.75 80.98,-322.04 -8.03,-59.75 -25.21,-114.86 -59.55,-168.8 -5.95,-9.7 -12.98,-18.85 -21.43,-27.3 11.26,8.45 20.77,17.6 28.91,27.28 41.86,31.41 57.15,86.55 74.97,139.47 17.78,52.91 38.08,103.64 89.94,126.24 9.68,6.73 19.89,12.58 30.49,17.42 42.41,19.39 91.08,22.99 136.14,4.98 37.55,-18.77 59.44,-53.2 61.69,-109.45 0.43,-11.24 0.11,-23.36 -1.06,-36.41 -15.58,-124.48 -105.69,-214.59 -216.55,-275.44 -9.65,-6.21 -19.36,-12.43 -29.06,-18.68 -29.08,-18.81 -58.06,-37.8 -84.98,-59.12 -7.93,-6.64 -15.62,-13.44 -23.19,-20.39 -4.14,-3.8 -35.33,-29.48 -39.36,-47.9 -3.32,-15.21 19.65,-23.32 23.21,-28.78 8.69,-13.27 31.24,-14.44 27.72,-32.61 -11.44,-58.98 -71.39,-167.74 -140.5,-238.22 -68.3,-69.66 -145.83,-101.35 -148.84,-104.96 -18.94,-22.73 -32.19,-60.39 -56.3,-94.44 -31.68,-44.75 -72.86,-84.5 -77.79,-88.17 -56.67,-42.16 -108.58,-79.99 -146.75,-113.92 204.17,20.06 377.02,36.02 525.1,18.8 148.08,-17.24 271.37,-67.67 381.19,-93.38 247.66,-57.99 420.67,-100.92 621.31,36.45 275.21,188.43 -158.53,845.28 292.86,946.17 62.22,9.63 21.14,-84 67.58,-90.11 125.6,171.75 344.36,329.69 270.34,630.78 128.68,-200.11 -22.16,-427.72 0,-608.25zm-833.54 1419.26c109.56,25.61 205.66,64.67 292.87,112.64 -358.84,-489.86 -1582.51,-649.36 -2013.11,-554.32 -67.58,-19.64 -110.06,-25.01 -179.08,-27.96 -65.1,-2.77 -158.56,16.83 -218.3,19.08 97.1,-40.88 241.29,-34.65 312.33,-101.62 5.12,-4.84 62.57,-62.3 55.95,-105.34 -6.52,-42.21 -77,-70.09 -81.67,-71.25 -358.51,-89.33 -495.44,210.18 -647.06,390.85 -581.93,179.43 -556.14,1257.65 -270.33,1757.18 -146.22,-105.07 -277.76,-262.66 -405.5,-428.03 -395.44,-511.88 -397.58,-1449.82 -87.27,-2035.99 -19.71,-5.94 -39.23,-11.95 -58.45,-18.06 -170.12,302.65 -234.97,818.88 -215.93,1237.32 4.09,90.09 62.92,353.34 74.57,431.24 -36.14,-61.27 -115.51,-313.19 -137.53,-396.04 -6.45,-24.29 -12.35,-49.33 -17.7,-74.97 -55.23,-264.62 -53.79,-596.53 -25.69,-876.35 10.9,-108.35 46.43,-247.13 68.25,-321.73 25.74,-88.08 63.34,-157.04 73.12,-216.94 2.51,-15.36 3.24,-25.68 2.94,-32.98 79.09,-45.83 196.86,-146.59 337.34,-367.48 6.23,2.06 12.47,4.12 18.91,5.9 -6.57,35.09 -26.01,93.55 -80.81,176.7 -85.42,129.6 -168.1,300.78 -87.47,414.8 12.23,12.67 27.18,21.45 45.61,24.53 67.58,22.53 157.69,0 225.28,-45.05 5.71,-4.29 60.78,-52.78 78.51,-128.26 17.26,-73.41 -2.75,-173.74 -1.59,-187.71 -1.23,-19.36 -3.16,-38.82 -5.71,-58.29 -8.13,-62.2 -22.53,-124.32 -39.8,-183.15 21.07,-1.6 41.07,-5.24 59.95,-10.34 31.65,61.91 41.02,146.1 47.56,233.1 0.82,10.92 1.6,21.89 2.37,32.85 -6.13,166.63 16.4,369.38 196.62,369.38 157.7,22.53 202.75,-225.28 115.49,-348.72 -7.84,-19.91 -16.81,-39.52 -26.61,-58.81 -65.35,-128.58 -167.7,-242.78 -217,-304.47 1.67,-2.47 3.3,-4.97 4.79,-7.53 164.43,17.03 221.92,141 273.62,270.76 5.87,14.78 11.7,29.61 17.62,44.37 34.84,89.01 79.9,156.6 137.51,225.52 12.34,12.34 25.48,23.37 39.47,32.4 41.95,27.15 91.59,36.66 150.72,11.31 15.78,-9.02 27.94,-18.91 37.01,-29.59 9.06,-10.67 15.04,-22.08 18.45,-34.14 12.13,-206.6 -145.57,-319.24 -291.6,-422.23 -16.17,-8.56 -32.62,-16.84 -49.3,-24.87 -105.43,-50.88 -219.43,-91.64 -315.69,-130.41 0.19,-2.86 0.06,-5.73 0.08,-8.6 140.6,16.59 272.67,58.66 392.49,120.19 14.3,7.32 28.45,14.9 42.64,22.76 100.38,55.2 185.68,126.96 262.74,205.23 11,11.17 21.85,22.48 32.56,33.9 73.37,87.54 163.49,200.18 276.12,177.65 67.59,-22.52 180.23,-90.11 135.17,-180.22 -45.05,-135.17 -180.22,-202.75 -286.88,-259.73 -17.33,-8.42 -34.98,-16.41 -53.08,-23.92 -14.7,-6.11 -29.7,-11.92 -44.97,-17.43 -15.27,-5.53 -30.8,-10.79 -46.6,-15.79 -64.08,-21.05 -131.66,-43.57 -200.17,-49.44 -17.43,-3.38 -34.96,-6.63 -52.65,-9.76 -155.07,-27.44 -319.27,-45.75 -475,-72.54 -0.9,-1.74 -2.02,-3.43 -2.99,-5.16 129.79,-46.94 266.62,-26.2 396.99,-0.59 19.05,3.74 37.97,7.58 56.71,11.33 145.45,37.53 438.31,82.59 415.78,-142.69 -39.78,-139.26 -184.97,-173.11 -314.38,-160.05 -17.14,1.72 -105.57,14.58 -153.84,26.93 -52.45,13.42 -107.1,33.12 -118.4,37.65 -40.19,16.07 -259.99,149.3 -314.04,185.28 -0.06,-0.05 -0.1,-0.12 -0.16,-0.17 45,-83.05 125.73,-130.33 205.07,-179.03 15.89,-9.76 31.73,-19.58 47.22,-29.75 85.33,-61.08 220.5,-151.2 152.92,-286.36 -29.92,-74.83 -129.43,-89.84 -225.89,-78.39 -6.48,1.54 -12.73,3.26 -18.9,5.06 96.49,-189.47 242.88,-339.14 513.8,-353.92 18.24,-1.02 43.32,0.08 62.59,0 11.27,11.37 30.14,61.23 45.89,84.51 15.75,23.26 34.74,41.49 39.6,45.7 87.38,75.65 195.96,58.66 295.86,1.59 8.34,-4.75 16.56,-9.81 24.49,-15.21 12.24,-8.3 23.11,-17.1 32.95,-26.22 63.14,-91.16 130.72,-181.27 243.36,-181.27 -67.58,0 -157.7,0 -214.27,0.41 -13.1,0.17 -26.23,0.36 -39.39,0.63 -78.98,1.6 -158.88,5.55 -237.05,15.43 -12.43,2.11 -24.95,4.19 -37.57,6.11 -25.26,3.85 -224.93,26.64 -238.39,28.79 -121.2,19.15 -230.01,50.66 -314.67,106.32 63.91,-74.73 121.79,-155.49 179.3,-236.62 85.89,-121.19 169.51,-261.84 262.84,-382.03 21.27,-0.03 50,-10.55 88.96,-36.65 13.64,-11.44 27.2,-22.97 41.52,-33.73 33.28,-40.58 76.88,-102.81 102.36,-175.27 7.11,-20.24 28.4,-81.01 26.16,-144.5 2.06,-29.95 2.57,-64.2 -0.2,-100.88 -1.76,-23.41 -4.93,-47.82 -9.81,-72.74 2.6,0.21 5.19,0.42 7.76,0.56 15.21,43.92 35.43,164.06 14.08,260.09 0,0 -67.95,175.89 -37.57,265.01 17.22,36.64 45.14,62.58 90.55,71.04 130.02,-15.71 162.07,-190.75 151.4,-307.16 -22.17,-110.54 -81.75,-213.37 -161.72,-291.79 9.48,-1.59 18.66,-3.64 27.33,-6.37 30.62,36.98 58.32,75.4 81.46,111.51 13.03,20.32 55.62,91.97 90.14,170.95 34.49,78.97 46.39,166.2 58.49,218.09 41.34,177.45 84.44,355.66 271.04,307.52 185.81,-47.93 115.17,-300.55 0.14,-481.21 -139.71,-182.77 -343.29,-303.72 -446.6,-357.25 4.44,-4 8.53,-8.31 12.28,-12.89 80.91,36.84 143.63,82.87 187.35,113.39 37.61,26.24 146.14,84.98 187.28,96.4 35.67,9.9 67.61,16.16 95.15,20.07 143.92,7.05 282.98,-25.59 279.8,-144.46 -6.41,-238.14 -508.6,-91.46 -725.21,-172.62 -0.24,-2.13 -0.8,-4.29 -1.15,-6.44 92.05,6.32 185.2,10.11 267.92,0.31 17.56,-2.09 34.65,-4.78 51.17,-8.19 68.46,-19.17 136.49,-56.91 181.76,-106.76 11.31,-12.46 21.21,-25.68 29.35,-39.56 20.33,-31.59 26.38,-67.67 21.23,-100.06 -2.57,-16.2 -7.94,-31.48 -15.6,-44.9 -102.34,-107.51 -214.98,27.66 -309.45,78.93 -14.89,13.34 -29.14,26.63 -43.51,39.36 -65.25,57.85 -135.41,103.26 -236.37,76.94 -4.8,-5.42 -9.83,-10.72 -15.18,-15.92 70.25,-26.71 141.53,-52.39 207.15,-83.71 14.13,-6.74 27.99,-13.74 41.54,-21.09 78.38,-26.07 168.87,-79.52 214.39,-148.94 1.23,1.58 6.44,0.94 17.73,-3.33 96.25,-36.4 310.02,-129.49 427.07,-147.86 243.9,-38.26 491.05,-10.16 566.65,197.7 4.33,11.92 31.1,69.95 80.73,105.88 48.82,35.35 120.24,48.57 156.12,63.87 164.56,70.16 317.5,151.92 390.28,313.86 -99.35,-415.64 -105.82,-836.8 -540.68,-856.06 -215.11,-9.53 -383.37,108.49 -622.64,131.52 -8.02,0.77 -50.29,5.76 -69.25,9.84 -31.27,6.75 -68.11,15.97 -84.22,20.23 12.54,-8.5 41.87,-28.1 67.32,-46.51 17.78,-12.83 61.14,-55.13 71.11,-66.71 107.73,-125.4 192.58,-273.72 294.6,-404.86 59.75,-76.8 145.81,-69.11 151.2,-75.83 12.28,-13.33 -68.13,-54.59 -55.15,-67.24 16.01,-15.63 36.35,-25.51 57.16,-34.99 18.78,-8.56 110.45,-31.86 138.07,-36.23 170.96,-27 325.13,-123.07 277.09,-262.75 -68.42,-198.86 -384.68,-30.61 -473.09,0 52.71,-255.71 -187.42,-406.87 -362.05,-302.95 -7.53,4.47 -26.16,20.43 -36.37,40.18 -10.23,19.75 -12.01,43.32 -12.12,52.61 -2.31,201.7 158.64,240.14 185.26,412.91 27.83,72.9 -72.89,17.22 -45.06,90.11 133.21,429.59 -216.83,668.94 -538.34,829.8 -8.2,4.56 -25.93,17.6 -35.44,27.05 30.96,-53.22 35.11,-115.13 -11.94,-181.01 -90.12,-135.17 -270.34,0 -326.24,124.9 -8.8,11.48 -17.03,22.68 -24.58,33.28 -10.01,15.05 -19.81,30.38 -29.57,45.74 -44.74,70.45 -88.57,141.22 -144.88,188.96 -1.68,-0.97 -3.41,-1.91 -5.11,-2.86 39.36,-59.1 95.5,-141.89 138.65,-229.01 9.41,-18.98 18.16,-38.15 26,-57.32 72.86,-126.22 72.86,-396.55 -129.89,-374.02 -135.17,22.52 -112.64,180.22 -121.09,297.59 0.62,19.8 1.57,39.53 2.27,59.12 3.1,85.63 1.52,169.15 -40.63,227.87 -6.06,8.42 -12.94,16.33 -20.77,23.67 -7.84,-104.83 -19.39,-236.12 -48.58,-349.6 -4.86,-18.92 -10.23,-37.35 -16.28,-55.14 -47.78,-90.87 -137.89,-293.63 -295.59,-203.51 -135.16,112.64 45.06,270.33 124.8,358.95 14.11,13.85 27.86,27.52 40.77,41.19 41.47,43.94 73.94,87.93 79.22,138.68 1.63,15.71 1.33,58.59 5.81,92.96 -3.49,1.62 -6.8,3.46 -10.1,5.32 -11.7,-15.55 -22.88,-30.37 -27.08,-34.83 -61.34,-64.98 -119.79,-147.12 -179.43,-221.22 -9.79,-12.18 -27.26,-31.21 -37.13,-43.31 -56.44,-59.36 -109.5,-112.47 -186.71,-178.62 -12.76,-11.35 -25.76,-22.3 -39.01,-32.76 -13.24,-10.47 -26.73,-20.45 -40.5,-29.87 -14.86,-10.16 -30.08,-19.69 -45.98,-28.61 -135.21,-67.88 -383.02,-158 -405.55,22.23 0,112.64 135.17,180.22 243.76,227.08 17.31,7.44 34.94,14.46 52.79,21.17 227.51,85.62 492.3,123.1 617.7,345.02 -0.9,1.63 -2,3.14 -2.84,4.83 -0.04,0.06 -0.04,0.14 -0.09,0.21 -133.47,-102.81 -279.73,-184 -450.66,-201.92 -90.01,-9.44 -282.34,-4.28 -284.84,125.84 -1.84,94.88 107.14,141.85 185.22,152.47 99.25,13.51 201.65,-3.16 301.6,2.96 85.36,5.22 169.41,20.29 253.13,37.11 1,2.21 2.13,4.39 3.23,6.58 -110.82,3.82 -224.07,1.23 -333.45,18.18 -84.57,13.11 -190.19,46.46 -213.42,140.85 -20.49,83.27 39.94,157.12 123.09,162.84 105.51,7.27 200.72,-78.78 279.57,-136.81 65.21,-47.97 128.7,-85.22 204.18,-108.1 4.33,3.94 8.89,7.76 13.53,11.54 -46.27,48.33 -96.93,89.59 -156.42,122.08 -66.13,36.11 -137.98,60.56 -188.94,119.11 -51.42,59.1 -80.24,154.05 16.31,181.46 79,22.42 167.17,-20.52 234.65,-64.78 95.26,-78.99 153.21,-200.98 183.61,-283.03 0.24,-0.67 2.66,-8.3 5.94,-18.69 2.31,0.94 4.62,1.68 6.93,2.56 -0.79,4.89 -1.65,9.79 -2.64,14.73 -36.89,97.35 -98.93,201.03 -147.81,275.15 -10.81,16.37 -34.57,66.88 -37.16,78.17 -4.83,21.05 -10.41,42.16 -16.57,63.3 -6.47,41.32 -8.95,84.79 0.28,115.1 -73.03,136.84 -175.51,279.89 -262.46,408.75 -92.87,137.68 -194.42,264.92 -284.67,371.45 22.53,-75.1 37.21,-264.85 81.67,-353.88 98.64,-197.55 248.44,-328.55 227.86,-531.51 -40.76,192.79 -159.47,352.94 -269.47,512.12 -17.72,-116.23 -24.65,-232.75 -23.63,-349.2 0.44,-52 6.82,-66.27 10.19,-118.18 2.23,-34.47 -14.24,-112.6 -10.92,-147.01 2.04,-21.05 10.92,-44.69 21.62,-57.14 -30.24,0.83 -58.78,-7.53 -83.47,4.43 -28.49,13.78 -52.8,48.26 -84.16,51.45 -65.71,6.72 -98.35,-67.46 -125.54,-115.88 -36.04,-64.23 -93.86,-125.25 -129.64,-190.08 -28.45,-51.54 -56.56,-94.81 -70.1,-153.79 -43.14,151.21 -38.03,311.82 26.85,461.53 -3.34,-1.66 -57.58,17.09 -58.42,14.44 -14.12,-44.17 -27.7,-83.07 -36.48,-110.27 -20.55,-63.73 -45.03,-133.03 -67.07,-182.82 -26.32,-59.49 -51.76,-119.41 -76.35,-179.88 -58.45,-143.84 -194.46,-351.54 -212.83,-507.37 -1.8,-15.31 34.15,-80.48 24.39,-104.85 -12.79,-31.98 -83.58,2.69 -75.59,-19.52 26.72,-74.32 156.07,-85.34 217.82,-148.98 71.51,-73.69 20.97,-219.37 -98.05,-239.66 -107.83,-18.37 -180.04,74.13 -229.82,155.06 2.52,-85.53 17.41,-214.38 -52.23,-280.04 -48.82,-46.02 -135.7,-45.9 -191.16,-11.21 -132.17,82.71 17.27,305.32 60.88,403.02 -63.78,-53.56 -170.09,-82.48 -240.82,-29.9 -51.44,38.26 -94.12,123.35 -65.93,186.59 24.77,55.6 97.87,77.53 152.54,87.92 33.51,6.37 67.44,8.17 101.42,5.1 19.4,-1.75 84.64,-27.5 99.38,-20.39 55.4,26.65 -46.16,85.07 22.5,112.6 360.84,59.75 508.98,527.28 630.79,901.13 -55.48,49.66 -147.47,62.79 -157.7,157.69 83.97,-1.36 142.49,22.71 202.76,45.06 42.15,201.87 77.32,476.34 74.63,706.93 -36.73,-23.64 -107.94,-60.51 -156.3,-28.28 -112.64,90.11 -112.64,247.8 -67.77,375.62 5.24,18.89 11,37.74 17.02,56.43 16.35,50.76 34.54,100.3 48.81,145.85 11.34,36.18 35.11,89.01 48.96,132.06 -5.46,1.04 -10.86,2.18 -16.14,3.49 -16.45,-45.78 -56.21,-123.85 -66.24,-150.02 -3.54,-9.24 -6.09,-15.5 -6.86,-17.04 -48.26,-96.7 -130.07,-203.67 -221.24,-289.01 -8.46,-7.9 -16.99,-15.61 -25.6,-23.11 -113.27,-78.5 -248.44,-213.67 -383.61,-101.03 -180.22,180.23 67.59,292.86 234.65,370.25 17.64,9.81 35.18,19.65 52.68,29.53 115.73,65.33 229.53,132.59 326.63,216.55 -3.78,0 -7.57,-0.21 -11.35,-0.67 3.02,2.61 6.06,5.23 9.11,7.83 -0.95,0.76 -1.96,1.48 -2.89,2.24 -113.59,-43.66 -243.13,-124.33 -380.1,-195.15 -17.63,-9.12 -366.07,-130.51 -385.89,-132.29 -102.26,-28.84 -214.9,-6.31 -305.01,61.27 -112.64,90.11 -45.06,270.33 67.58,270.33 90.11,22.53 202.75,-22.52 298.58,-32.17 20.41,-1.2 40.83,-1.94 61.26,-2.24 210.22,-3.11 420.61,40.47 593.57,110.33 -1.86,9.07 -2.4,18.2 -2.3,27.31 -173.18,-23.34 -372.37,-71.35 -540.49,-67.16 -19.65,0.49 -38.87,1.68 -57.64,3.74 -127.7,5.25 -262.87,72.83 -262.87,208 0,137.99 189.73,137.99 326.72,113.95 19.57,-3.43 239.47,-67.61 255.28,-73.06 102.54,-35.35 208.12,-72.93 312.08,-93.41 11.25,15.55 25,30.32 41.12,43.92 -65.3,33.67 -146.96,50.97 -227.79,69.13 -19.71,4.43 -39.35,8.94 -58.64,13.8 -153.16,38.31 -355.91,196 -220.74,308.64 32.31,32.32 141.97,80.32 242.51,56.23 -246.19,503.49 -221.08,1364.61 2.38,1883.93 27.97,64.96 108.88,192.36 142.89,245.25 -41.86,-40.66 -117.76,-101.37 -154.18,-147.49 -135.88,-172.04 -224.71,-390.59 -327.46,-608.65 -142.87,-303.22 -298.08,-609.22 -514.39,-821.02 72.09,-147.7 -115.31,-229.74 -67.58,-428.03 -115.29,-25.17 -90.51,89.72 -180.23,90.12 -21.27,-130.82 -105.41,-274.48 -217.16,-366.22 -63.22,-51.9 -159.85,-115.28 -245.44,-88.81 -93.9,29.02 -142.2,154.11 -74.31,233.73 0,0 -189.73,-6.98 -208.47,186.56 0.52,3.98 1.13,8.01 1.96,12.21 4.26,21.6 12.06,40.19 22.53,56.56 88.48,138.16 379.82,106.59 563.19,191.24 -12.74,46.89 -64.36,72.82 -22.53,112.64 150.88,10.69 225.66,178.99 405.51,90.11 471.17,379.18 523.53,1124.36 968.7,1531.91 187.1,171.29 378.64,293.85 491.66,490.18 9.39,16.3 -131.24,-36.76 -195.26,-74.71 -367.27,-217.69 -437.17,-321.51 -699.24,-496.21 -132.15,-88.11 -272.18,-147.78 -391.55,-246.14 -270.11,-222.55 -495.91,-478.43 -624.87,-799.52 -89.78,67.91 -90.15,225.26 -135.17,337.92 -348.33,-2.91 -486.29,204.56 -720.89,315.39 235.92,-70.95 525.55,-43.14 698.36,67.58 -49.7,85.45 -168.51,101.82 -180.22,225.28 349.47,-18.69 672.81,176.09 878.59,-90.11 403.14,167.57 684,457.42 1036.29,675.84 -446.26,-11.82 -880.34,-35.79 -1081.34,-292.86 -15.16,112.77 20.87,174.37 22.52,270.33 -307.25,53.2 -423.23,297.66 -608.25,473.09 348.25,17.73 681.6,-99.24 811,-225.28 -58.2,97.75 -135.81,318.58 -45.05,428.03 59.36,-120.87 217.03,-143.42 315.39,-225.28 155.33,-547.29 889.23,-353.63 1216.51,-90.11 84.63,170.63 448.75,449.2 540.67,540.67 -28.78,-14.28 -58.2,-26.91 -88.12,-37.95 -565.8,-208.85 -1312.24,148.98 -1376.2,623.68 65.94,-280 344.73,-200.07 563.2,-225.28 239.25,-27.61 245.91,-226.56 411.33,-373.93 12.17,-10.83 161.16,-44.36 242.57,-26.28 121.46,27 290.2,96.58 393.87,141.36 177.65,76.73 339.3,169.46 519.64,243.53 53.78,22.09 310.76,170.42 408.53,215.63 158.62,73.37 345.93,117.03 479.6,70.02 -254.51,-63.69 -567.38,-168.41 -815.69,-327.42 -37.38,-23.94 -175.72,-91.54 -206.69,-114.45 -54.49,-40.32 -100.43,-112.72 -135.79,-167.13 -133.64,-205.66 -136.79,-487.67 54.3,-810.26 207.11,-85.76 357.23,-228.49 428.03,-450.56 -78.73,12.23 -225.47,73.75 -270.33,45.06 39.91,-163.09 108.96,-416.38 45.05,-608.26 -68.59,209.25 -269.96,285.72 -337.92,495.62 -35.08,-93.08 -147.57,-227.21 -225.27,-202.76 108.59,336.37 -31.36,792.91 90.11,1126.4 103.64,310.75 152.68,433.36 256.19,560.1 -67.58,-31.3 -233.31,-122.01 -295.18,-159.85 -180.49,-110.4 -205.43,-155.51 -293.1,-225.48 -498.13,-397.54 -719.63,-1585.32 -124.19,-1991.77 4.66,17.89 18.9,72.45 30.38,88.6 73.18,102.87 266.99,160.19 358.31,38.81 17.14,-86 -84.74,-168.85 -45.05,-202.75 107.89,115.19 283.01,207.54 453.44,144.54 10.6,-3.92 37.27,-14.5 52.49,-40.59 15.93,-27.28 20.22,-70.34 20.18,-84.88 -0.55,-158.64 -81.95,-236.45 -165.67,-311.94 144.87,-27.63 383.6,-8.64 526.02,4.76 212.85,20.02 323.14,53.41 487.74,107.88 170.85,182.19 117.35,708.56 450.56,653.31 -109.6,-48.44 -98.91,-336.16 -90.11,-428.02 119.72,251.52 172.43,570.06 593.73,519.99 4.8,-0.58 9.64,-1.19 14.53,-1.86 70.9,20.09 171.8,122.48 167.57,116.14 -140.32,-209.57 -297.95,-401.82 -482.97,-566.69zm-3082.96 -3405.58c9.09,9.47 60.46,44.76 70.61,53.18 88.26,73.4 212.31,111.01 309,175.96 73.56,215.27 37.51,463.57 -52.55,649.91 -6.52,13.48 -34.63,59.11 -56.86,95.04 -96.8,89.38 -108.8,211.48 -108.8,211.48 -15.42,88.63 -33.63,153.14 -50.56,199.6 -4.18,-1.42 -8.43,-2.75 -12.7,-4.04 18.08,-98.24 48.47,-205.42 48.47,-205.42 13.12,-65.62 18.24,-124.24 17.64,-176.48 -0.17,-15.81 -0.86,-31.03 -2.01,-45.68 -2.23,-3.7 -8.22,-42.11 -13.87,-73.86 -9.57,-53.81 -29.19,-127.71 -69.98,-160.19 -20.56,-226.19 -40.1,-516.59 -78.39,-719.5zm357.09 4689.67c-271.38,-433.23 -284.75,-1463.68 292.86,-1554.43 22.22,52.87 39.5,110.68 45.05,180.23 -360.77,232.93 -471.73,840.17 -337.91,1374.2z"/>
   </g>
  </g>
  <g id="_2570583494944">
   <g>
    <path class="fil3" d="M11303.38 13784.09c15.18,131.2 111.77,259.99 240.56,292.19 -225.38,-171.72 -279.05,-536.62 4.75,-698.52 24.87,-17.59 50.55,-35.48 75.27,-54.25 22.92,-15.72 44.8,-33.55 64.41,-53.3 19.59,-19.74 36.89,-41.39 50.47,-64.65 94.87,-191.78 -87.58,-427.89 -259.3,-503.01 96.59,150.25 53.66,354.16 -49.06,496.13 -16.17,27.21 -32.63,54.06 -48.48,80.48 -15.85,26.41 -31.09,52.38 -44.87,77.84 -11.47,31.71 -19.64,63.66 -26.02,96.23 -6.38,32.49 -11.12,65.65 -14.12,99.67 -3.22,37.46 -4.55,75.6 -3.66,114.23 0.89,38.63 4.09,77.7 10.05,116.96z"/>
    <path class="fil3" d="M14717.37 15142.39c131.55,-81.69 279.57,-122.97 388.69,-230.08 19.21,-18.04 36.81,-37.24 52.35,-57.77 46.65,-61.59 74.93,-135.14 72.77,-225.73 0.27,-172.05 -186.42,-235.93 -309.75,-142.4 -62.09,39.63 -100.63,93.35 -125.6,154.71 -12.48,30.69 -21.55,63.29 -28.51,97.01 -17.81,102.83 -11.28,209.96 -33.97,312 -4.36,32.28 -9.51,63.33 -15.98,92.26z"/>
    <path class="fil3" d="M14636.47 15309.43c-115.58,86.22 -246.48,129.31 -341.69,242.74 -16.79,19.1 -32.13,39.45 -45.58,61.22 -40.45,65.32 -64.35,143.47 -60.94,239.96 2.64,183.24 169.64,252.38 277.71,153.48 54.54,-41.83 87.91,-98.81 109.12,-164.02 10.57,-32.62 18.1,-67.26 23.7,-103.15 14.13,-109.41 6.54,-223.53 24.99,-332.08 3.36,-34.35 7.43,-67.39 12.69,-98.15z"/>
    <path class="fil3" d="M14599.45 15259c-97.5,-41.41 -181.26,-107.42 -282.26,-126.69 -17.36,-3.7 -34.64,-6.07 -51.72,-6.79 -51.28,-2.18 -100.87,10.39 -146.35,46.32 -88.17,65.82 -41.88,193.52 58.19,225.85 46.56,19.14 90.37,19.85 132.33,10.12 20.99,-4.86 41.53,-12.34 61.72,-21.43 60.19,-29.57 112.26,-74.25 174.09,-100.83 18.37,-9.96 36.45,-19.03 54,-26.55z"/>
    <path class="fil3" d="M14731.81 15255.59c124.44,43.65 236.85,117.85 361.54,134.57 21.5,3.35 42.65,5.09 63.28,4.87 61.93,-0.69 119.19,-19.05 167.32,-65.31 93.97,-85.07 15.45,-236.1 -110.48,-268.63 -59.31,-20.09 -112.02,-18.11 -160.63,-3.67 -24.32,7.21 -47.62,17.55 -70.23,29.82 -66.91,39.55 -121.35,96.8 -190.78,132.84 -20.26,13.21 -40.32,25.31 -60.02,35.51z"/>
    <path class="fil3" d="M14690.5 15297.04c6.34,131.73 -20.16,263.79 11.22,385.62 4.98,21.17 11.32,41.44 19.29,60.46 23.92,57.14 62.44,103.29 123.41,130.5 114.16,55.09 224.58,-74.45 207.39,-203.37 -3.68,-62.51 -25.33,-110.61 -56.98,-150.23 -15.83,-19.82 -34.18,-37.52 -54.05,-53.86 -61.8,-47.13 -135.32,-76.06 -194.81,-126.84 -19.85,-13.81 -38.61,-27.85 -55.47,-42.28z"/>
    <path class="fil3" d="M14625.35 15182.04c10.63,-103.2 48.43,-200.31 37.16,-300.69 -1.56,-17.35 -4.37,-34.26 -8.67,-50.53 -12.89,-48.84 -39.2,-92.02 -86.33,-124.84 -87.75,-64.7 -194.67,14.26 -195.97,117.38 -4.48,49.11 7.62,90.52 29.03,127.3 10.69,18.41 23.73,35.66 38.19,52.14 45.44,48.42 102.74,85.01 145.82,135.81 14.76,14.52 28.57,29.01 40.77,43.43z"/>
    <path class="fil3" d="M11235.99 14052.24c-19.65,-15.96 -51.15,-40.1 -67.8,-59.12 -34.03,-44.09 -53.54,-88.56 -53.54,-142.22 -21.47,-332.7 -279.05,-504.42 -482.96,-729.79 -53.66,203.91 -21.46,418.55 118.06,568.81 108.93,118 248.57,197.63 360,311.25 20.32,20.71 39.69,42.55 57.77,65.96 -33.33,9.18 -66.81,19.41 -99.87,30.78 -231.43,79.6 -442.49,214.9 -438.22,435.56 4.78,246.44 308,283.02 251.11,538.09 47.05,-111.11 120.37,-133.45 143.49,-251.11 43.42,-220.94 -152.74,-431.44 -107.62,-573.96 36.47,-115.18 277.22,-172.36 423.13,-88.38 5.72,-15.76 7.21,-21.92 12.94,-38.06 -41.26,-17.77 -83.9,-41.37 -116.49,-67.81z"/>
    <path class="fil3" d="M12267.39 14759.95c81.47,-82.67 113.66,-222.19 38.54,-318.78 -16.1,-21.46 -36.9,-36.22 -59.87,-47.79 -22.97,-11.57 -48.13,-19.95 -72.94,-28.67 -49.64,-9.39 -92.57,-30.86 -124.77,-84.52 64.4,21.47 128.79,32.2 196.52,49.65 35.06,5.74 70.36,9.3 104.52,9.25 25.63,-0.03 50.61,-2.08 74.33,-6.74 118.32,-19.96 214.91,-148.75 150.51,-256.07 -42.93,-75.13 -128.78,-64.4 -209.39,-50.89 -28.14,7.36 -55.29,16.9 -81.85,27.57 -79.69,32.04 -154.14,74.3 -234.64,98.44 118.06,-75.12 225.38,-160.98 306.09,-267.85 15,-21.52 28.18,-43.97 38.53,-66.62 31.01,-67.99 36.38,-137.75 -11.92,-191.41 -17.88,-21.46 -38.76,-35.47 -61.28,-43.1 -22.52,-7.65 -46.7,-8.91 -71.22,-4.94 -162.09,39.19 -225.65,185.8 -262.74,336.43 -9.27,37.66 -23.32,183.83 -44.78,216.03 -21.46,-42.93 -21.46,-96.59 -18.74,-144.36 0.83,-24.4 2.63,-48.83 3.98,-72.97 4.03,-72.44 4.03,-142.2 -38.9,-201.23 -53.66,-75.13 -160.99,-85.86 -246.84,-42.93 -21.47,13.42 -40.92,30.86 -57.19,50.98 -16.3,20.09 -29.41,42.85 -38.26,66.79 -65.54,214.93 181.3,311.52 320.82,408.11 -145.38,-72.69 -313.84,-91.53 -472.82,-69.54 -74.52,37.35 -95.99,133.94 -85.25,198.33 0,75.13 96.59,118.05 171.63,124.82 65.67,0.79 137.22,-25.05 207.57,-56.45 70.36,-31.4 139.52,-68.37 200.34,-89.83 -171.72,139.51 -482.95,236.1 -459.11,504.33 7.28,27.19 20.43,55.76 40.55,85.94 40.24,56.35 116.71,70.43 179.6,42.26 20.96,-9.39 40.41,-23.48 56.51,-42.26 23.25,-25.04 44.12,-51.28 63,-78.5 18.88,-27.23 35.78,-55.45 51.08,-84.47 57.64,-116.07 100.57,-244.86 132.76,-373.64 0,75.12 0,139.52 10.34,214.74 3.44,23.48 8.03,46.31 14.15,67.96 26.39,93.32 81.2,164.75 195.07,172.15 18.24,1.18 83.63,-33.99 96.07,-50.22z"/>
    <path class="fil3" d="M16007.66 14886.98c-21.82,26.82 -43.65,53.18 -65.83,78.67 -88.75,101.95 -183.48,190.33 -308.22,231.46 4.55,-50.04 31.73,-90.84 54.28,-159.06 7.53,-22.74 19.74,-67.15 26.94,-95.32 19.92,-78 19.9,-193.65 39.62,-256.62 18.86,-60.18 51.99,-124.59 54.35,-134.98 35.65,-157.25 42.57,-307.81 -31.7,-430.2 -85.12,-140.25 -248.01,-189.07 -358.72,-322.84 107.46,217.7 -63.92,351.79 -17.93,538.09 35.81,145.08 255.31,202.16 286.97,304.9 15.43,50.06 22.06,145.83 5.98,239.28 -17,98.78 -57.73,195.3 -77.72,245 -40.35,100.37 -140,251.21 -233.18,358.72 -192.33,221.97 -308.47,361.02 -448.4,573.96 -89.41,136.06 -202.57,259.32 -286.98,394.6 27.61,-103.98 35.16,-228.01 36.67,-358.06 0.48,-40.67 -1.11,-149.35 -2.89,-259.29 -13.94,16.85 -25.91,34.88 -36.58,53.66 2.71,40.94 7.5,92.82 5.87,146.29 -3.33,109.62 -19.88,225.7 -23.03,266.69 -5.67,73.78 -14.75,144.16 -33.85,204.51 -258.29,465.13 -534.44,1011.31 -813.48,1397.67 42.61,-72.79 72.58,-188.81 109.38,-303.41 64.57,-201.12 114.54,-448.98 130.15,-681.72 29.63,-441.87 -34.39,-730.84 -36.75,-1039.68 -0.63,-82.26 14.9,-393.22 67.31,-665.4 45.86,-238.17 203.21,-704.76 238.89,-803.82 36.52,-101.41 76.45,-193.33 120.64,-266.72 8.5,-14.12 40.72,-69.92 89.26,-92.8 52.94,-24.96 121.99,-16.91 117.27,-27.72 -9.89,-22.67 -62.91,-49.8 -46.09,-61.02 160.98,-107.32 483.5,-143.12 429.84,-389.96 -10.74,-53.66 -64.4,-75.12 -107.33,-75.12 -128.78,0 -257.57,75.12 -300.5,203.91 10.73,-85.86 -10.73,-171.72 -64.39,-246.84 -75.13,-96.59 -214.65,-128.79 -300.51,-32.2 -128.79,150.25 85.86,364.9 171.72,493.68 -32.2,-10.73 -92.89,-27.24 -103.62,4.96 -2.69,18.78 32.22,36.44 46.24,58.79 14,22.36 7.11,49.42 9.08,65.04 -11.82,32.35 -31.98,106.04 -43.97,139.07 -204.06,561.51 -426.12,1219.02 -376.76,1910.77 -39.32,-118.93 -105.3,-213.57 -185.64,-289.75 -82.85,-78.55 -279.4,-255.91 -289.77,-273.67 -38.89,-66.63 -91.33,-152.72 -115.37,-249.52 -10.15,-40.87 -27.88,-133.33 -32.2,-174.4 -12.56,-108.58 8.05,-203.92 93.91,-289.77 85.86,-75.13 182.45,-32.2 279.04,-32.2 75.12,-10.74 139.52,-42.93 198.2,-100.89 17.09,-17.67 32.78,-37.24 47.35,-58.48 29.14,-42.48 53.8,-91.65 76.21,-145.58 -39.55,-26.19 -76.75,-44.67 -111.84,-56.56 -327.98,-89.25 -435.3,307.85 -607.01,501.03 -10.74,-160.99 0,-332.7 96.59,-440.03 96.59,-118.05 214.64,-236.11 253.81,-385.54 8.53,-33.78 15.16,-68.94 19.93,-105.16 19.12,-144.87 8.62,-306.57 -28.13,-464.35 -51.42,156.39 -181.59,293.03 -276.41,443.32 -18.97,30.04 -36.52,60.63 -51.74,92.13 -24.79,54.71 -46.25,108.37 -56.98,162.03 -6.5,110.5 22.43,217.07 27.18,322.09 3.09,68.37 6.67,179.01 -27.18,246.72 -64.4,-182.45 -171.72,-461.49 -412.99,-397.52 -35.43,2.42 -70.87,6.19 -104.79,9.53 -67.84,6.69 -129.64,11.67 -173.26,0.56 39.33,125.28 133.57,245.93 265.05,289.51 26.29,8.69 54.07,14.33 83.21,16.4 46.32,4.64 98.66,-16.76 140.28,-24.69 7.68,-1.46 45,-16.35 78.15,-6.73 34.37,9.97 64.67,44.87 76.05,67.33 39.83,78.64 77.83,379.91 84,417.61 18.53,113 37.9,220.98 80.38,298.81 -168.61,-114.95 -375.16,-191.97 -568.61,-282.1 -29.92,-13.94 -157.28,-68.1 -195.21,-79.87 -30.21,-9.38 -59.15,-19.51 -80.15,-32.96 -36.96,-16.94 -90.7,-98.07 -146.04,-171.65 -34.3,-45.61 -71.12,-79.11 -98.32,-123.47 -12.44,15.71 -21.4,33.88 -36.68,46.86 125.27,62.84 143.67,186.84 210.27,248.6 -154.56,-53.72 -284.8,-131.75 -407.13,-217.7 -31.37,-22.04 -138.78,-111.75 -169.39,-134.56 0,15.63 -17.43,29.86 -17.43,45.34 25,24.64 147.43,115.53 177.74,136.27 96.88,66.29 212.92,115.42 297.39,165.19 -18.75,-0.01 -97.58,5.88 -115.45,6.74 -247.41,11.86 -413.5,105.05 -553.89,223.95 -25.08,21.25 -49.36,43.26 -73.27,65.01 -325.39,195.53 -518.57,506.77 -356.49,886.34 8.44,36.94 16.79,72.86 24.4,108.75 22.8,107.32 38.9,214.64 28.17,327.33 21.46,-32.2 21.46,-75.13 42.93,-85.86 139.52,-64.39 222.69,-174.4 263.47,-300.74 10.19,-31.58 17.73,-64.19 22.84,-97.4 24.92,-256.53 -93.13,-524.83 40.16,-763.88 16.22,-29.87 34.89,-58.43 55.79,-84.96 125.37,-159.15 331.46,-241.54 542.87,-243.95 307.14,-3.5 626.22,160.92 842.99,286.97 -215.48,34.44 -361.22,138.63 -504.46,245.32 -30.32,22.58 -49.05,27.44 -101.84,100.29 -8.06,11.11 -34.95,66.63 -38.36,81.26 -43.98,188.54 -6.91,425.02 214.2,416.13 155.73,-97.31 -10.19,-333.37 35.87,-520.15 33.93,-137.56 206.33,-264.93 409.62,-284.7 24.5,-2.37 109.75,3.66 163.24,40.15 94.85,64.68 339.63,231.26 516.66,457.58 86.78,110.94 165.43,326.9 183.94,486.48 37.81,325.95 -3.22,697.74 -89.68,986.45 34.54,-115.31 -63.07,-345.95 -111.59,-447.87 -72.5,-152.28 -180.93,-290.21 -309.82,-398.8 -237.67,-200.21 -550.27,-234.74 -844.92,-167.76 -60.1,13.66 -278.11,115.52 -302.97,124.06 -24.85,8.54 -82.58,-13.78 -107.97,-5.7 -33.29,6.82 26.71,60 -5.36,69.76 -136.77,41.58 -306.83,67.39 -402.46,171.71 -96.59,96.59 -107.32,300.5 21.46,332.7 107.33,21.47 203.92,-85.85 246.84,-193.18 -21.46,96.59 -42.92,203.92 10.74,300.51 53.66,85.85 193.18,64.39 236.11,-10.74 53.66,-107.32 21.46,-214.64 0,-321.97 -6.7,-53.57 -18.32,-136.34 3.1,-182.1 5.7,-12.17 26.34,23.18 35.34,32.13 11.4,11.32 25.43,27.09 42.05,15.82 8.75,-8.1 -16.38,-74.9 -16.31,-110.92 0.09,-46.81 24.03,-64.38 27.99,-67.22 156.01,-112.07 371.26,-174.51 621.85,-130.67 342.07,59.84 583.3,287.28 698.81,579.88 80.3,203.4 117.69,327.09 93.16,546.3 -10.13,90.62 -28.46,203.52 -73.24,320.25 -87.98,229.38 -239.89,476.6 -365.02,620.02 -253.28,290.29 -558.25,609.75 -866.86,857.46 141.87,-306.37 288.24,-667.73 260.18,-1012.92 -25.17,-309.6 -198.36,-559.38 -166.92,-877.75 -97.71,165.95 -197.67,345.93 -193.29,544.58 3.81,172.66 98.84,306.68 166.03,458.97 48.68,110.37 90.09,199.85 85.23,296.01 -2.72,53.9 -23.11,142.87 -42.51,222.34 -19.39,79.46 -59.57,164.07 -94.82,238.7 -23.12,48.96 -63.57,124.36 -125.96,203.3 -12.29,15.57 -48.86,61.2 -103.34,105.56 -79.47,64.69 -168.92,127.9 -228.41,168.11 193.86,-378.16 289.99,-791.76 100.89,-1193.48 -164.47,-349.37 -478.1,-607.32 -818.12,-777.12 -204.74,-102.26 -422.82,-166.32 -643.49,-223.89 234.46,75.1 377.13,179.21 474.51,409.16 93.73,221.33 167.79,421.59 410.7,512.18 168.66,62.9 431.79,34.01 559.37,178.82 39.34,44.65 50.73,109.68 61.91,172.74 21.47,121.19 13.61,254.53 1.47,358.1 -9.97,84.89 -26.53,162.86 -54.04,235.7 -31.35,83.04 -118.93,299.65 -185.17,372.06 6.85,-29.05 54.23,-198.3 58.13,-227.12 47.25,-348.69 -121.49,-669 -530.84,-670.01 -341.48,-0.85 -608.93,209.68 -938.33,10.9 231.34,307.76 565.99,530.44 934.23,298.62 103.92,-65.42 222.79,-189.35 353.72,-119.94 118.81,62.99 155.49,243.05 152.77,364.16 -2.55,112.5 -29.27,237.87 -80.82,338.42 -20.42,39.84 -42.25,65.34 -66.11,84.16 -13.9,10.95 -108.16,77.72 -163.16,107.41 -64.64,34.86 -206.87,96.15 -222.36,104.63 -57.77,31.66 -110.49,61.03 -138.46,79.33 -45.99,30.09 19.68,27.1 29.89,24.88 220.91,-48.12 426.56,-188.49 579.09,-280.93 485.83,-294.42 987.34,-757.96 1358.11,-1183.6 85.58,-98.25 218.21,-279.04 313.02,-339.85 34.3,-22 128.93,-22.19 168.14,-23.26 158.71,-4.34 190.13,239.28 328.6,301.04 254.11,113.34 415.61,167.84 546.61,432.82 -42.37,-247.86 -29.75,-520.73 -257.24,-676.35 -116.64,-79.8 -249.14,-131.16 -391.28,-131.63 -131.74,-0.37 -280.39,7.19 -404.58,53.54 27.6,-93.71 264.87,-387.85 373.17,-546.13 18.72,-27.38 86.12,-149.2 108.95,-189.33 135.85,-238.79 302.26,-455.85 541.14,-423.3 41.11,5.59 49.01,32.35 95.46,53.56 -19.01,46.83 -28.75,89.24 -31.17,128.05 -2.27,38.82 2.78,74.03 13.57,106.49 8.68,41.6 30.15,63.07 51.61,95.26 107.33,139.52 311.24,214.65 311.24,407.83 0,9.07 -9.28,111.92 -42.93,182.45 225.38,-214.65 214.65,-590.28 43.64,-834.25 -20.47,-28.58 -43.21,-54.86 -67.91,-78.6 -39.54,-38.03 -84.08,-69.62 -132.24,-93.95 -162.48,-82.09 -374.44,-24.23 -566.55,90.28 175.99,-273.52 290.68,-666.46 578.27,-865.94 97.8,-67.85 212.42,-138.56 359.44,-149.35 9.03,39.55 28.36,97.23 49.79,124.37 21.53,27.14 48.34,48.99 79.1,66.98 22.79,12.31 47.77,22.73 74.09,32.09 26.31,9.36 53.97,17.64 82.14,25.65 165.63,40.68 315.88,158.73 337.35,330.45 75.12,-193.18 150.25,-493.68 -56.32,-622.63 -31.88,-16.48 -66.41,-27.75 -103.29,-34.2 -35.35,-9.59 -72.3,-15.87 -110.27,-19.24 -265.77,-23.6 -582.1,95.39 -726.08,193.53 197.25,-291.08 395.12,-581.55 634.53,-830.47 35.08,-36.48 73.4,-113.57 114.58,-143 125.21,-89.43 264.74,-200.33 382.79,-318.39 27.2,-27.19 142.31,-0.84 161.07,-1.89 308.95,-17.24 692.82,-123.36 733.29,-477.49 -343.44,32.2 -719.07,32.2 -880.95,402.88z"/>
   </g>
   <path class="fil3" d="M14736.92 15276.44c-24.83,50.47 -77.45,75.41 -117.53,55.69 -40.08,-19.73 -52.44,-76.64 -27.61,-127.12 24.84,-50.47 77.47,-75.41 117.57,-55.68 40.06,19.71 52.42,76.63 27.57,127.11z"/>
  </g>
  <path class="fil3" d="M14095.58 8283.96c-226.77,-35.98 -261.34,120.23 -381.56,190.79 177.03,-13.75 327.64,-53.92 381.56,-190.79zm-185.58 1130.63c45.42,248.97 133.45,441.45 424.06,395.64 190.18,-584.2 -196.42,-927.85 -572.35,-1097 73,81.76 124.53,206.46 144.09,340.28 16.71,114.37 -15.49,253.12 4.2,361.08zm2256.64 -2064.66c-286.01,-52.9 -658.07,20.02 -913.35,142.81 0.23,-59.86 -16.79,-191.24 -14.15,-248.69 1.98,-43.28 7.94,-82.58 22.12,-113.66 11.14,-10.71 18.51,-22.54 22.91,-34.6 1.31,-1.37 2.42,-2.92 3.81,-4.22 -0.7,-0.59 -1.3,-1.19 -1.99,-1.78 12.04,-41.49 -6.03,-82.95 -6.03,-82.95 -7.42,24.11 -27.51,32.34 -48.86,29.56 -454.71,-508.07 609.79,-1369.48 112.1,-1809.96 -8.71,-10.33 -18.83,-22.01 -30.67,-35.54 -19.63,-22.43 -27.48,-58.63 -30.09,-92.45 5.36,-118.17 42.66,-268.28 -42.16,-296.28 -239.25,440.1 -692.05,836.71 -667.74,1335.48 15.49,317.53 274,553.02 453.11,825.64 53.83,81.91 97.3,197.38 115.14,321.86 17.83,124.48 10.03,257.97 1.81,262.98 -286.15,174.42 -496.03,619.04 -426.97,974.31 195.79,-488.05 586.28,-1035.07 1097.01,-1049.3 -331.07,107.81 -572.31,264.55 -926.54,802.54 -62.39,94.74 -110.49,214.17 -180.99,334.37 -21.91,37.35 -62.04,63.14 -84.87,103.18 136.32,1155.13 -858.65,1429.03 -763.14,2384.8 60.86,50.34 137.82,84.57 210.74,122.85 93.9,49.3 34,119.02 218.53,211.02 557.13,160.6 927.67,-255.77 1383.18,-190.78 -325.68,-357.91 -1210.24,-827.65 -1573.97,-190.78 -19.7,-203.77 -9.04,-377.19 77.99,-474.22 18.22,-20.3 122.05,-82.71 147.38,-95.9 15.96,-25.94 8.97,-35.26 0,-49.88 -8.5,-13.85 -131.27,24.94 -135.79,10.3 -47.6,-154.3 115.69,-348.05 286.12,-472.66 68.86,-50.35 170.28,-236.02 170.35,-253.89 1.05,-268.03 319.31,-338 264.78,-476.21 -13.31,110.57 -120.42,121.22 -189.48,89.56 12.36,-58.96 28.08,-152.5 48.55,-198.65 149.43,-337 482.12,-377.93 519.33,-788.13 1.56,-17.14 -232.27,392.59 -518.12,499.81 6.57,-97.35 39.33,-179.63 83.39,-247.62 1.03,-1.6 2.04,-3.2 3.06,-4.8 114.42,-172.8 299.98,-251.92 299.98,-251.92 601.04,-96.94 588.11,-368.38 588.11,-368.38 7.77,-90.53 62.15,-166.53 124.54,-225.18 185.72,-155.8 460.55,-170.06 710,-174.04 -91.01,-118.89 -237.52,-186.87 -409.13,-218.6zm-974.05 -2213.89c38.13,224.04 -92.87,466.3 -151.22,734.23 -46.62,213.99 -25.49,444.01 8.13,696.65 -233.48,-431.75 24.94,-976.78 143.09,-1430.88zm-95.39 5818.9c-98.36,26.44 -233.22,-53.5 -379.52,-55.8 -169.56,-2.65 -352.42,74.43 -479.01,151.2 224.9,-231.03 527.95,-322.47 858.53,-95.4zm-491.34 -5238.4c0,0 57.45,-50.32 -3.7,-134.51 -142.81,-222.01 -561.39,-362.08 -840.45,-159.81 0.19,-0.03 0.38,-0.03 0.57,-0.05 -21.51,8.46 -40.67,17.66 -56.14,27.68 0,0 527.04,-19.82 899.72,266.69zm-556.27 -542.06c1.87,27.01 3.63,52.03 4.85,69.2l4.31 40.94c0,0 346.84,-2.16 450.25,137.87 0,0 31.08,-26.04 12.76,-163.21 -19.04,-310.32 -95.41,-563.29 -171.11,-816.92 -42.37,-226.69 -9.69,-366.29 -9.69,-366.29 -29.09,39.32 -45.24,93.29 -54.06,145.97 -0.17,-0.64 -0.35,-1.27 -0.53,-1.91 -0.47,5.63 -1.16,11.04 -1.74,16.57 -1.36,9.5 -2.51,18.91 -3.46,28.13 -47.57,333.26 -292.87,468.79 -233.28,909.21 0.58,0.14 1.12,0.3 1.7,0.44zm374.66 -1021.86c0,0 17.21,-25.85 2.14,-129.25 0,0 -13.49,-57.47 51.7,-135.72 0,0 -137.86,68.93 -99.08,428.7 0,0 32.31,-122.79 45.24,-163.73zm101.97 1818.13c-0.79,1.75 -1.67,3.5 -2.65,5.24 -25.31,45.12 -107.21,83.08 -107.21,83.08 -277.9,99.1 -560.6,-118.21 -560.6,-118.21 0,8.26 1.37,36.33 2.29,54.32 -0.31,-0.21 -0.63,-0.4 -0.95,-0.61 -15.08,189.97 220.61,129.16 238.48,286.17 -161.2,-18.11 -203.5,82.68 -286.17,143.09 60.75,66.44 233.64,20.74 238.48,143.09 -13.17,42.47 -152.17,103.32 -141.14,153.52 117.11,-11.33 270.48,-60.32 270.48,-60.32 178.94,-37.58 308.75,-155.35 347.62,-194.19l0 -328.28c-0.23,0.03 -0.45,0.04 -0.68,0.07 2.31,-71.61 21.52,-209.78 2.05,-166.97zm-1146.08 977.74c374.2,67.9 648.5,235.7 864.04,462.25 160.18,180.58 380.45,488.13 404.84,834.91l6.95 43.91c0,0 46.82,-54.23 59.47,-149.08 0.06,0.14 0.13,0.27 0.19,0.4 0.31,-2.95 0.51,-5.84 0.8,-8.78 0.43,-3.9 0.8,-7.87 1.1,-11.89 80.59,-875.4 -702.64,-1328.56 -1337.39,-1171.72zm439.94 1560.93c27.11,0 56.91,5.41 86.59,13.63 204.71,61.61 299.65,233 598.64,200.35 18.67,-1.43 34.35,-3.76 47.35,-6.72 6.59,-1.11 13.1,-2.15 19.88,-3.45 0.16,-0.78 0.25,-1.48 0.4,-2.27 41.15,-14.17 44.9,-34.01 44.9,-34.01 90.42,-109.04 -87.75,-247.31 -87.75,-247.31 -69.14,-31.91 -228.7,-151.57 -228.7,-151.57 -172.85,-101.05 -170.19,15.95 -170.19,15.95 -21.28,146.26 -311.12,215.4 -311.12,215.4zm-407.43 -2918.12c-16,-12.94 -32.38,-23.22 -48.39,-31.07 -322.83,-102.75 -638.49,91.27 -604.16,291.25 146.21,-232.59 497.91,-22.49 652.55,-260.18zm51.28 -0.02c261.42,196.61 866.19,795.07 1108.61,212.51 -19.4,-258.1 -1333.17,-441.33 -1255.19,-291.02 63.82,16.39 124.15,60.71 146.58,78.51zm-746.61 1348.54c-3.17,-0.88 -6.22,-1.46 -8.98,-1.37 0,0 -59.18,1.78 -134.98,9.73 -1.36,0.12 -2.69,0.19 -4.05,0.31 -0.01,0.05 -0.01,0.09 -0.02,0.13 -65.64,7.04 -142.96,18.69 -205.01,37.78l-45.88 14.6c0,0 61.06,-9.54 166.7,8.85 118.12,14.46 221.32,58.48 295.28,99.2 19.73,9.64 39.9,20.03 60.57,31.36 631.61,390.37 1119.62,924.34 1779.29,1286.64 -98.46,-859.31 -738.56,-1527.93 -1902.92,-1487.23zm-148.01 151.75c-188.15,-43.5 -458.95,-98.88 -476.96,143.09 277.22,-110.69 449.9,99.01 715.44,0 7.31,-11.02 11.67,-20.76 13.9,-29.51 -72.16,-54.85 -170,-91.18 -251.23,-113.96 -0.4,0.12 -0.73,0.26 -1.15,0.38z"/>
  <path class="fil3" d="M3140.66 9912.23c0,0 64.24,-81.68 57.3,-231.11 0,0 -7.84,-162.51 2.53,-201.21 0,0 -38.45,31.06 -153.99,79.11 0,0 -51.18,20.61 -96.13,71.62 -44.89,51.01 -70.6,117.29 -75.73,178.97 -5.47,61.49 27.55,363.93 266.02,102.62zm-208.79 -620.37c-57.33,-5.34 -112.36,12.62 -152.31,43.44 -40.08,30.74 -201.35,227.21 97.62,261.23 0,0 87.31,3.05 172.64,-86.86 0,0 73.2,-77.42 110.01,-104.43 8.06,36.49 40.56,63.82 79.5,63.82 14.03,0 27.23,-3.56 38.75,-9.81 1.75,39.96 -30.07,173.44 -30.07,173.44 -30.74,130.18 19.52,209.44 19.52,209.44 193.12,257.3 274.12,-3.96 278.72,-58.59 4.74,-54.69 -9.87,-115.77 -45.94,-165.86 -36.14,-50.03 -83.3,-74.25 -83.3,-74.25 -90.76,-47.54 -127.89,-77.64 -136.84,-85.44 18.09,-10.53 31.72,-27.8 37.49,-48.39 44.42,24.3 132.79,93.09 132.79,93.09 105.81,81.95 198.72,68.98 198.72,68.98 314.22,-69.19 109.95,-251.17 62.19,-278.03 -47.78,-26.93 -109.48,-38.97 -169.98,-26.86 -60.49,12.17 -102.08,45.09 -102.08,45.09 -59.16,46.06 -98.01,69.87 -118.83,81.25 0.12,-1.83 0.28,-3.64 0.28,-5.5 0,-29.2 -15.4,-54.7 -38.45,-69.08 41.85,-29.72 175.98,-89.36 175.98,-89.36 139.67,-62.45 186.14,-157.89 186.14,-157.89 134.45,-334.9 -156.56,-225.64 -210.52,-192.53 -54.01,33.04 -103.41,86.55 -130.36,150.46 -26.93,63.92 -23.37,119.6 -23.37,119.6 5.26,96.7 -0.34,147.91 -3.25,166.61 -11.25,-5.87 -24.02,-9.23 -37.59,-9.23 -18.29,0 -35.1,6.08 -48.69,16.24 -2.63,-36.82 22.65,-150.63 22.65,-150.63 25.34,-115.46 -30.41,-178.65 -30.41,-178.65 -212.04,-202.01 -282.74,31.92 -284.84,79.57 -2.08,47.66 15.93,98.8 55.68,138.22 39.7,39.43 89.65,55.44 89.65,55.44 91.31,30.07 131.89,51.62 143.86,58.63 -17.93,14.93 -29.36,37.41 -29.36,62.6 0,1.7 0.15,3.36 0.25,5.03 -19.23,-7.78 -59.62,-26.48 -125.77,-67.83 0,0 -43.12,-27.5 -100.48,-32.96zm2378.57 -3560.63c170.74,-92.53 263.47,-165.86 378.97,-157.13 0,0 50.22,17.27 60.93,1.7 0,0 -11.91,-22.43 -30.09,-47.93 34.16,-4.78 69.22,0.32 88.7,32.19 24.16,39.54 31.15,58.48 34.71,74.12 0.64,14.36 4.34,55.23 25.42,97.58 26.26,52.55 71.52,92.3 119.81,112.91 48.28,20.79 305.76,70.64 174.11,-206.27 0,0 -36.84,-63.96 -136.47,-100.37 12.54,0.66 25.96,0.59 39.99,-0.77 66.57,-6.55 126.3,-38.97 166.46,-82.63 40.31,-43.58 189.37,-301.33 -158.95,-274.06 0,0 -48.5,7.68 -105.41,52.7 0.29,-1.59 0.63,-3.14 0.89,-4.75 10.6,-66.05 -5.56,-132.06 -37.56,-182.01 -27.28,-42.82 -185.75,-202.35 -270.02,-32.78 -10.37,20.86 -19.62,46.7 -27.35,78.34 -2.93,11.97 -7.85,51.29 -1.55,72 5.42,17.85 15.33,41.53 33.4,67.87 15.53,22.62 44.46,45.05 71.4,70.42 9.45,8.9 27.42,65.29 15.99,85.74 -15.06,26.95 -40.35,53.6 -63.07,70.64l-16.21 17.69c-11.01,-9.2 -22.51,-16.41 -34.05,-19.62 0,0 -21.1,59.44 -80.52,102.65 -86.5,62.9 -192.68,99.34 -284.31,153.78 -31.6,18.78 -60.11,42.15 -88.53,65.33 -11.95,9.75 -23.95,19.41 -35.99,29.04 -5.72,4.57 -34.55,33.72 -40.8,32.74 13.33,2.1 26.67,4.09 39.99,5.9 64.3,-52.04 120.88,-93.77 160.11,-115.02zm-2315.39 2564.86c-4.24,31.19 -2.58,63.42 7.02,97.5 53.66,93.41 131.43,171.18 192.59,244.65 15.47,20.53 29.63,41.89 41.73,64.57 12.09,22.66 22.13,46.66 29.35,72.48 6.26,28.24 8.54,57.08 5.86,86.57 8.7,-27.53 19.06,-54.54 29.16,-81.76 16.36,-41 30.1,-86.5 34.2,-131.47 4.09,-44.97 -1.29,-89.51 -22.16,-128.95 -30.93,-52.62 -51.36,-108.05 -65.64,-165.07 -7.14,-28.51 -12.74,-57.43 -17.44,-86.58 -29.55,-158.79 -51.77,-303.23 -107.33,-447.67 22.23,144.44 -55.55,266.66 -104.34,397.07 -10.06,25.26 -18.44,51.22 -23,78.66zm1763.32 -3190.57c-274.93,324.78 317.29,434.7 177.66,747.21 47.36,-47.36 40.59,-108.25 60.91,-162.37 33.82,-263.85 -20.32,-548.03 -243.57,-717.16 0,0 29.35,47.4 31.1,85.5 1.11,24.18 -24.22,44.61 -26.1,46.82zm-1924.29 4103.04c-94.71,-297.69 -534.48,-372.12 -764.51,-142.09 196.2,277.4 507.43,0 764.51,142.09zm3528.92 -2670.12c-5.18,-24.84 -13.64,-48.53 -27.09,-70.76 -180.33,-347.24 -613.64,-458.34 -967.9,-314.29 -37.87,12.31 -74.65,27.35 -109.97,45.16 -32.34,17.23 -63.35,37.09 -92.67,59.64 24.8,-12.4 52.25,-22.73 81.4,-30.96 23.7,-6.69 48.38,-12.88 73.42,-18.08 25.07,-5.23 50.49,-9.47 75.73,-12.48 81.91,-20.67 170.8,-20.67 215.24,34.88 92.45,104 208.62,259.72 322.61,315.93 105.22,51.88 207.3,6.43 316.96,47.59 29.02,17.41 54.53,39.75 74.89,69.58 20.36,29.83 35.59,67.15 44.04,114.52 -5.08,-81.19 8.88,-166.2 -6.66,-240.73zm-3543.76 4115.87c-74.61,-156.3 69.83,-367.4 -59.76,-505.48 -52.76,-56.22 -135.04,-91.49 -118.03,-183.08 13.76,-74.04 66.69,-140.1 118.95,-191.54 31.85,-31.34 66.83,-59.2 101.84,-86.87 -23.72,18.76 -57.9,28.49 -83.43,46.05 -27.36,18.81 -52.59,39.67 -75.5,63.68 -44.53,46.65 -77.72,103.45 -94.87,165.76 -37.99,60.44 -64.56,124.61 -96.92,186.56 -10.75,30.85 -19.13,62.19 -24.5,93.56 -21.52,125.48 4.88,251.44 118.8,347.82 19.29,19.42 39.96,37.45 61.67,53.81 43.41,32.7 90.96,58.63 139.88,75.3 24.47,8.33 49.28,14.35 74.09,17.73 -30.21,-25.11 -49.83,-53.15 -62.22,-83.3zm3430.9 -601.27c9.26,12.01 18.5,23.72 27.73,35.06 -8.16,-13.59 -17.47,-25.16 -27.73,-35.06zm-1840.14 -3909.91c0,0 157.3,5.29 210.9,18.07 -4.05,8.92 -6.76,18.6 -7.63,28.89 -1.41,16.65 2.03,32.56 9.03,46.51 -49.97,-5.24 -180.6,-47.51 -180.6,-47.51 -139.69,-44.9 -231.04,2.44 -231.04,2.44 -299.37,186.14 -20.81,297.11 38.57,306.98 59.44,10 127.64,-0.37 185.77,-34.96 58.08,-34.65 88.92,-83.55 88.92,-83.55 53.86,-83.91 88.62,-122.82 102.16,-136.62 11.88,19.27 31.06,33.79 54.12,39.59 -29.16,42.66 -110.18,125.94 -110.18,125.94 -96.07,99.25 -88.13,195.66 -88.13,195.66 54.28,328.81 265.55,139.79 297.91,93.89 32.41,-45.91 49.59,-107.7 40.46,-170.86 -9.21,-63.18 -42.2,-109.3 -42.2,-109.3 -47.9,-68.06 -71.08,-110.94 -81.5,-132.75 48.6,3.09 90.9,-32.8 94.98,-80.94 0.79,-9.43 0.03,-18.63 -2.02,-27.39 46.07,1.77 171.7,38.4 171.7,38.4 132.94,38.37 212.89,-18.45 212.89,-18.45 259.09,-219.52 -8.27,-318.93 -64.03,-325.44 -55.72,-6.46 -117.62,9.22 -168.03,50.23 -50.41,40.96 -74.33,95.41 -74.33,95.41 -40.72,90.53 -68.76,134.62 -80.61,151.48 -8.67,-25.27 -28.64,-45.6 -54.45,-54.73 12.43,-24.06 36.81,-66.08 82.31,-128.89 0,0 34.76,-47.03 45.47,-113.14 10.6,-66.05 -5.56,-132.06 -37.56,-182 -31.91,-50.08 -243.25,-259.8 -305.49,84 0,0 -10.35,101.19 85.46,210.58 0,0 66.51,75.62 100.36,124.3 -33.43,-0.29 -63.29,17.83 -78.86,45.39 -10.68,-18.88 -35.54,-68.03 -66.79,-164.31 0,0 -17.87,-57.24 -69.6,-110.45 -51.72,-53.15 -121.92,-86.89 -188.95,-97.96 -66.82,-11.39 -400.91,-2.63 -136.72,278.84 0,0 83.51,76.84 247.71,82.65zm367.2 103.13c26.87,35.81 86.93,206.45 86.93,206.45 55.56,156.77 155.78,215.59 155.78,215.59 354.27,175.41 261.34,-149.37 230.04,-210.74 -31.21,-61.41 -85.25,-119.67 -152.76,-154.54 -67.5,-34.86 -128.77,-35.97 -128.77,-35.97 -138.69,-3.81 -191.22,-20.79 -191.22,-20.79zm-96.05 4457.54c-10.33,-5.18 -21.4,-8.89 -32.98,-11.59 10.78,4.39 21.75,8.31 32.98,11.59zm1471.65 405.29c-116.66,-199.99 -232.03,-275.48 -414.83,-449.14 -53.48,-50.81 -212.45,-191.55 -234.2,-230.45 -31.91,-57.06 -49.88,-100.25 -59.25,-175.91 -8.87,-71.54 -10.35,-175.07 1.14,-246.69 27.06,-67.66 94.72,-94.71 162.38,-81.16 164.15,183.05 499.04,-10.78 642.1,127.3 -140.14,-181.56 -288.04,-427.99 -560.9,-370.87 -121.76,40.59 -202.96,169.14 -257.08,277.38l-11.46 49.55c-0.69,-10.56 -10.46,-91 -11.64,-101.57 -20.83,-188.73 -120.27,-373.57 -332.71,-387.1 -11.85,-0.76 -67.08,-16.34 -79.64,-16 6.98,3.14 32.57,13.26 39.13,18.28 9.92,7.59 12.91,26.24 14.48,30.76 24.3,70.61 60.78,136.84 112.38,195.75 4.11,4.7 25.06,26.43 48.48,39.1 23.43,12.67 49.35,16.28 61.13,23.51 196.95,120.98 106.89,425.78 173.35,601.02 -295.59,-231.49 -526.41,-344.37 -650.11,-436.13 -2.75,-8.03 -5.11,0.66 -8.22,-7.25 -80.77,-205.27 -273.07,-371.04 -214.43,-612.1 91.33,-286.16 -118.75,-681.96 124.38,-916.09 27.02,-26 59.63,-50.03 98.91,-71.73 48.34,-4.77 103.89,-26.99 137.22,6.34 66.67,66.66 144.44,100 233.33,100 211.1,-11.12 444.42,-177.77 655.52,-44.45 -244.43,-311.09 -722.19,-455.53 -1030.71,-151.3 -28.8,24.44 -56.39,51.04 -82.71,79.55 -26.32,28.51 -51.39,58.95 -75.06,91.09 -230.03,270.62 20.32,635.98 -128.55,920.15 -115.02,-297.69 -230.03,-602.15 -277.39,-940.43 -30.44,-274.01 -82.81,-630.23 59.93,-876.3 15.85,-27.34 34.12,-53.33 55.09,-77.68 90.58,-78.36 190.57,21.64 223.91,110.52 5.55,11.11 49.95,39.06 97.05,40.14 47.1,1.09 96.92,-24.69 117.84,-27.19 146.65,-17.54 250.5,7.97 285.08,198.15 -11.11,-199.99 -11.11,-433.31 -211.1,-533.31 -177.77,-77.77 -377.76,-11.11 -504.92,135.02 -16.95,17.14 -32.89,35.1 -47.57,53.67 -14.67,18.59 -28.09,37.78 -39.99,57.39 -5.31,8.75 -54.53,101.29 -59.22,110.2 1.36,-155.99 31.22,-354.08 83.67,-534.04 30.79,-105.67 62.5,-213.86 94.91,-305.54 22.8,-64.47 69.64,-144.62 81.47,-200.92 7.94,-37.75 -43.7,23.59 -45.56,27.21 -85.21,165.82 -168.19,413.69 -207.9,599.08 0,0 5.68,-253.56 -75.22,-488.33 -38.62,-112.09 -72.21,-200.89 -118.51,-278.69 -53.21,-89.4 -118.11,-164.47 -141.51,-247.1 -4.33,-15.27 0.1,-109.44 -6.61,-133.7 -7.18,-25.93 -26.58,-52.86 -29.56,-57.28 -39.65,-58.93 -89.61,-99.07 -145.55,-127.59 -27.96,-14.26 -57.42,-25.62 -87.83,-34.96 -105.59,-29.9 -216.69,-52.12 -338.91,-29.9 100,11.11 166.66,88.88 206.83,180.58 13.01,25.98 25.62,52.23 39.44,77.79 6.2,11.45 23.46,58.63 60.1,97 32.02,33.53 82.47,58.66 105.65,69.33 40.27,18.55 107.84,-0.5 140.31,28.07 159.6,140.4 247.52,356.48 299.49,565.7 48.61,195.68 43.37,409.59 40.73,605.52 -25.37,-86.26 -73.46,-168.35 -135.8,-239.77 -20.78,-23.81 -43.14,-46.43 -66.77,-67.62 -20.55,-15.74 -41.7,-30.71 -63.38,-44.67 -21.69,-13.97 -43.92,-26.93 -66.67,-38.66 -104.4,-44.44 -215.5,-66.66 -326.61,-44.44 30.56,8.33 57.64,22.22 82.05,39.99 24.42,17.78 46.16,39.44 66.03,63.31 74.13,130.02 163.02,307.79 345.29,296.41 25.14,7.61 49.02,16.62 70.19,29.03 42.35,24.81 73.93,63.14 82.96,130.8 -26.54,269.75 -12.88,557.5 25.42,821.71 20.31,140.01 41.21,264.1 76.06,396.13 -2.08,-1.7 -4,-3.46 -6.07,-5.17 -57.72,-47.69 -103.2,-114.37 -149.94,-172.22 -89.05,-110.29 -165.94,-219.87 -227.33,-348.29 -60.84,-127.28 -110.84,-259.53 -174.91,-385.29 -53.83,-105.66 -103.09,-218.55 -172.26,-315.33 -45.66,-63.91 -97.95,-127.3 -147.49,-188.3 -42.32,-52.11 -74.32,-106.68 -73.42,-177.31 -15.89,-2.08 -32.06,0.58 -47.95,6.09 -2.49,-21.64 -3.41,-42.58 -5.03,-60.48 -0.85,-25.14 0.82,-51.61 7.03,-78.11 41.05,-70.56 29.94,-159.45 -3.39,-226.11 -33.33,-55.56 -111.11,-88.89 -166.66,-66.66 -50,22.22 -77.77,63.88 -93.05,112.49 -7.64,24.3 -12.15,50.35 -14.75,76.57 -0.29,1.96 -0.53,4.11 -0.78,6.23 -37.21,-7.01 -97.59,-22.53 -119.6,-20.37 -35.95,3.53 -75.25,21.01 -86.61,28.64 -22.29,14.97 -40.42,37.93 -52.53,66.52 -3.67,8.66 -9.77,46.94 -8.52,57.39 3.56,29.61 14.93,62.1 32.77,89.58 7.13,10.99 33.06,47.4 76.1,64.17 43.54,16.96 104.39,14.13 143.41,0.74 13.38,-4.59 128.71,-22.51 155.15,-22.22 22.11,1.39 48.56,1.84 75.5,4.84 -12.88,9.04 -24.94,18.41 -35.71,26.76 25.99,19.15 56.36,22.61 85.18,35.4 43.73,19.4 76.92,55.49 107.27,91.4 74.65,88.31 149.26,183.67 206.06,284.6 119.59,212.46 215.42,439.45 310.98,663.44 4.36,10.21 21.89,50.11 50.64,95.69 40.19,63.68 97.8,140.54 132.33,181.56 42.7,50.72 205.19,252.92 209.77,262.58 165.93,349.99 255.5,741.11 456.31,1072.88 -15.24,-3.22 -39.7,-18.16 -54.94,-21.72 -336.63,-78.67 -674.61,-235.44 -1043.57,-280.76l0 33.81c236.82,67.66 493.93,101.51 717.18,209.76l-15.42 15.42c0,0 -105.23,33.51 -200.7,87.89 -79.16,45.09 -150.19,111.3 -161.84,123.2 -25.68,26.25 -50.98,52.56 -76.23,77.18 -48.6,52.43 -109.02,98.09 -170.76,115.45 -30.87,8.67 -62.07,10.28 -92.31,2.13 -100.79,-46.05 -167.46,-179.38 -289.68,-146.05 -99.99,33.34 -244.43,144.44 -322.2,22.22 111.1,177.77 333.31,277.77 541.19,224.49 29.82,-5.77 59.28,-13.69 88.33,-23.35 87.11,-28.92 179.85,-99.35 257.62,-149.35 -7.97,13.29 -25.22,52.69 -32.91,66.22 -148.34,261.27 -235.2,564.53 11.12,804.6 3.75,3.65 15.27,13.28 20.63,22.3 5.38,9.04 4.61,17.48 2.75,21.93 -4.24,10.17 -16.18,21.27 -22.11,33.12 88.89,-44.45 166.66,-133.33 166.66,-233.32 0,-45.64 6.39,-123.78 -8.09,-195.37 -13.72,-67.85 -48.21,-130.12 -53.02,-142.13 -47.23,-117.87 -120.38,-203.72 -69.51,-337.34 41.71,-109.57 120.49,-184.73 217.93,-245.59 -28.29,17.68 -48.67,142.98 -56.54,175.47 -14.65,60.53 -23.82,124.1 -15.37,186.29 17.25,126.87 129.19,233.39 247.38,275.85 28.21,13.49 57.4,24.84 87.2,33.52 89.41,26.04 184.72,27.08 272.21,-6.25 -74.86,-24.95 -125.21,-81.44 -171.92,-141.43 -16.95,-21.77 -70.67,-166.95 -139.18,-232.63 -54,-51.77 -116.47,-58.78 -154.43,-65.48 -12.66,-2.24 -61.63,-2.71 -78.88,-12.29 -47.78,-23.9 -4.85,-151.89 57.17,-225.78 24.51,-29.21 62.01,-35.48 85.32,-52.7 28.27,-17.33 54.67,-16.27 87.54,-23.98 32.88,-7.72 67.55,-10.24 103.07,-6.86 135.33,0 277.41,40.56 351.81,162.36 345.06,602.14 981.02,967.49 1562.89,1170.45 -13.51,-47.32 -172.42,-129.13 -206.24,-149.46zm-1305.76 -1037.85c22.67,12.91 75.64,42.9 98.24,56.25 415.57,245.38 815.52,564.46 1136.35,968.7 -460.04,-196.2 -970.74,-558.12 -1234.59,-1024.95z"/>
 </g>
</svg>
