<?xml version="1.0" encoding="UTF-8" standalone="no"?>
<!-- Created with Inkscape (http://www.inkscape.org/) -->

<svg
   xmlns:dc="http://purl.org/dc/elements/1.1/"
   xmlns:cc="http://creativecommons.org/ns#"
   xmlns:rdf="http://www.w3.org/1999/02/22-rdf-syntax-ns#"
   xmlns:svg="http://www.w3.org/2000/svg"
   xmlns="http://www.w3.org/2000/svg"
   xmlns:sodipodi="http://sodipodi.sourceforge.net/DTD/sodipodi-0.dtd"
   xmlns:inkscape="http://www.inkscape.org/namespaces/inkscape"
   width="96"
   height="96"
   viewBox="0 0 96.000001 96.000002"
   id="svg2"
   version="1.1"
   inkscape:version="0.92.2 2405546, 2018-03-11"
   sodipodi:docname="pattern-21.svg">
  <title
     id="title3223">Pattern-21</title>
  <defs
     id="defs4">
    <pattern
       patternUnits="userSpaceOnUse"
       width="96"
       height="96.00002"
       patternTransform="translate(0,956.36218)"
       id="pattern3244">
      <path
         inkscape:connector-curvature="0"
         id="rect2544"
         d="M 3.733563,0 3.814623,0.14034 3.895683,0 Z m 0.08106,0.14034 H 0 v 5.06562 l 1.76302,-3.05558 2.110892,3.65445 2.110891,-3.65445 2.110892,3.65445 2.110892,-3.65445 2.110882,3.65445 2.110892,-3.65445 2.110892,3.65445 2.110881,-3.65445 2.110892,3.65445 2.110892,-3.65445 2.110892,3.65445 2.110892,-3.65445 2.110881,3.65445 2.110892,-3.65445 2.110892,3.65445 2.110882,-3.65445 2.110892,3.65445 2.110891,-3.65445 2.110892,3.65445 2.110892,-3.65445 2.110882,3.65445 2.110892,-3.65445 2.110892,3.65445 2.110881,-3.65445 2.108919,3.65445 2.110892,-3.65445 2.112865,3.65445 2.108908,-3.65445 2.112865,3.65445 2.110892,-3.65445 2.110892,3.65445 2.108908,-3.65445 2.110892,3.65445 2.112865,-3.65445 2.108909,3.65445 2.110892,-3.65445 2.110892,3.65445 2.110891,-3.65445 2.110885,3.65445 2.11089,-3.65445 2.11089,3.65445 2.11089,-3.65445 2.11088,3.65445 2.1109,-3.65445 L 96,4.50432 V 0.14034 H 94.11246 90.00729 85.9041 81.798936 77.695744 73.588606 69.485414 65.382222 61.277057 57.171892 53.0687 48.963534 44.860353 40.755188 36.650012 32.54683 28.441665 24.338473 20.233308 16.128143 12.022978 7.919786 Z m 4.105165,0 L 8.000848,0 H 7.838772 Z m 4.103192,0 L 12.10596,0 h -0.162076 z m 4.105165,0 L 16.209205,0 h -0.164049 z m 4.105165,0 L 20.31234,0 h -0.16009 z m 4.105165,0 L 24.417505,0 h -0.162066 z m 4.103192,0 L 28.522727,0 h -0.162065 z m 4.105165,0 L 32.627892,0 H 32.46385 Z m 4.103182,0 L 36.731074,0 h -0.160092 z m 4.105176,0 L 40.83625,0 h -0.16207 z m 4.105165,0 L 44.941415,0 h -0.162066 z m 4.103181,0 L 49.044596,0 H 48.88252 Z m 4.105166,0 L 53.149762,0 h -0.162066 z m 4.103192,0 L 57.252954,0 h -0.160093 z m 4.105165,0 L 61.358119,0 h -0.162076 z m 4.105165,0 L 65.463284,0 h -0.162076 z m 4.103192,0 L 69.566476,0 H 69.40436 Z m 4.103192,0 L 73.671588,0 h -0.162076 z m 4.107138,0 L 77.776806,0 H 77.61473 Z m 4.103192,0 L 81.879998,0 h -0.162076 z m 4.105162,0 L 85.9831,0 H 85.823 Z m 4.10319,0 L 90.09029,0 h -0.16207 z m 4.10517,0 L 94.19356,0 h -0.16208 z m -1.58318,5.66449 h -4.22177 -4.22178 -4.221774 -4.221784 -4.221774 -4.2198 -4.221784 -4.221773 -4.223757 -4.2198 H 46.091698 41.869924 37.648141 33.426367 29.204583 24.98281 20.761026 16.539253 12.317469 8.095695 3.873912 0 v 4.96286 l 1.76302,-3.0556 2.170193,3.75723 2.168199,-3.75723 2.170193,3.75723 2.170182,-3.75723 2.16821,3.75723 2.168199,-3.75723 2.172166,3.75723 2.168209,-3.75723 2.170183,3.75723 2.170183,-3.75723 2.168209,3.75723 2.170183,-3.75723 2.170183,3.75723 2.170182,-3.75723 2.16821,3.75723 2.168209,-3.75723 2.170183,3.75723 2.170182,-3.75723 2.16821,3.75723 2.170182,-3.75723 2.170183,3.75723 2.168209,-3.75723 2.170183,3.75723 2.170183,-3.75723 2.168209,3.75723 2.170183,-3.75723 2.170183,3.75723 2.170182,-3.75723 2.16821,3.75723 2.168209,-3.75723 2.170183,3.75723 2.170182,-3.75723 2.16821,3.75723 2.170182,-3.75723 2.170183,3.75723 2.16821,-3.75723 2.170182,3.75723 2.168214,-3.75723 2.17018,3.75723 2.17018,-3.75723 2.17018,3.75723 2.16821,-3.75723 2.17019,3.75723 L 96,9.8269 V 5.80483 Z m 2.52201,5.66449 H 90.71289 86.37253 82.034138 77.695746 73.355381 69.016989 64.678597 60.340205 55.999839 51.661447 47.323055 42.98269 38.644298 34.305906 29.967514 25.627148 21.288756 16.950364 12.609999 8.271607 3.933215 2e-6 v 4.86206 l 1.76302,-3.05757 2.22751,3.86 2.229474,-3.86 2.2275,3.86 2.229484,-3.86 2.2275,3.86 2.2275,-3.86 2.229484,3.86 2.2275,-3.86 2.2275,3.86 2.229484,-3.86 2.225527,3.86 2.229473,-3.86 2.2275,3.86 2.229484,-3.86 2.2275,3.86 2.2275,-3.86 2.229484,3.86 2.2275,-3.86 2.229474,3.86 2.2275,-3.86 2.225527,3.86 2.229484,-3.86 2.2275,3.86 2.229483,-3.86 2.227501,3.86 2.2275,-3.86 2.2275,3.86 2.229484,-3.86 2.2275,3.86 2.2275,-3.86 2.229474,3.86 2.22751,-3.86 2.229474,3.86 2.2275,-3.86 2.2275,3.86 2.22751,-3.86 2.227503,3.86 2.2275,-3.86 2.22948,3.86 2.22947,-3.86 2.2275,3.86 2.2275,-3.86 L 96,14.41027 v -2.94095 z m -1.93499,5.66449 h -4.45697 -4.45698 -4.455013 -4.455 -4.456984 -4.456974 -4.456984 -4.455 -4.456984 -4.456984 -4.453027 -4.456974 -4.456984 -4.456984 -4.456973 -4.455011 -4.455 H 12.90449 8.447506 3.990532 2e-6 v 4.75929 l 1.76302,-3.05559 2.286801,3.96079 2.286801,-3.96079 2.286791,3.96079 2.286801,-3.96079 2.286791,3.96079 2.284828,-3.96079 2.290748,3.96079 2.286791,-3.96079 2.282845,3.96079 2.288774,-3.96079 2.286801,3.96079 2.286791,-3.96079 2.286802,3.96079 2.286791,-3.96079 2.286801,3.96079 2.284818,-3.96079 2.286801,3.96079 2.286791,-3.96079 2.286801,3.96079 2.286791,-3.96079 2.288775,3.96079 2.286801,-3.96079 2.286791,3.96079 2.284828,-3.96079 2.286791,3.96079 2.288774,-3.96079 2.284818,3.96079 2.286801,-3.96079 2.286801,3.96079 2.288765,-3.96079 2.286801,3.96079 2.284818,-3.96079 2.286801,3.96079 2.286791,-3.96079 2.286801,3.96079 2.286792,-3.96079 2.2868,3.96079 2.2868,-3.96079 2.28679,3.96079 2.2868,-3.96079 2.28679,3.96079 L 96,21.9662 v -4.83239 z m 2.40341,5.66449 H 90.94612 86.37253 81.798938 77.225346 72.653727 68.078161 63.504559 58.930967 54.359348 49.785756 45.21019 40.636598 36.064979 31.491387 26.917794 22.342219 17.772583 13.197007 8.623415 4.049823 2e-6 v 4.6585 l 1.76302,-3.0576 2.346092,4.0616 2.344119,-4.0616 2.346092,4.0616 2.346092,-4.0616 2.344118,4.0616 2.346092,-4.0616 2.344109,4.0616 2.346092,-4.0616 2.346092,4.0616 2.346092,-4.0616 2.344119,4.0616 2.346082,-4.0616 2.346092,4.0616 2.344118,-4.0616 2.346092,4.0616 2.344119,-4.0616 2.346092,4.0616 2.346092,-4.0616 2.346082,4.0616 2.344119,-4.0616 2.346092,4.0616 2.344119,-4.0616 2.346092,4.0616 2.346081,-4.0616 2.344119,4.0616 2.346092,-4.0616 2.346092,4.0616 2.344119,-4.0616 2.346092,4.0616 2.344109,-4.0616 2.346092,4.0616 2.346092,-4.0616 2.346092,4.0616 2.344118,-4.0616 2.34609,4.0616 2.34411,-4.0616 2.34609,4.0616 2.34609,-4.0616 2.34412,4.0616 2.34411,-4.0616 L 96,25.1305 v -2.3322 z m -2.28679,5.6625 h -4.69021 -4.6902 -4.690208 -4.692184 -4.690201 -4.690211 -4.692184 -4.6902 H 51.017111 46.3269 41.634726 36.944515 32.254305 27.562131 22.87192 18.179736 13.489535 8.799325 4.109114 2e-6 v 4.5558 l 1.76302,-3.0556 2.405393,4.1643 2.403409,-4.1643 2.40341,4.1643 2.405383,-4.1643 2.401436,4.1643 2.405383,-4.1643 2.403409,4.1643 2.405383,-4.1643 2.40341,4.1643 2.403409,-4.1643 2.405393,4.1643 2.40341,-4.1643 2.40341,4.1643 2.405382,-4.1643 2.40341,4.1643 2.40341,-4.1643 2.405382,4.1643 2.40341,-4.1643 2.40341,4.1643 2.405393,-4.1643 2.403409,4.1643 2.40341,-4.1643 2.403409,4.1643 2.40341,-4.1643 2.405383,4.1643 2.403409,-4.1643 2.405383,4.1643 2.40341,-4.1643 2.403409,4.1643 2.40341,-4.1643 2.405393,4.1643 2.403409,-4.1643 2.40341,4.1643 2.403409,-4.1643 2.40538,4.1643 2.40341,-4.1643 2.40538,4.1643 2.40341,-4.1643 2.4054,4.1643 L 96,33.2952 v -4.8344 z m 2.28878,5.6645 H 90.71289 85.9041 81.095311 76.288492 71.479689 66.67287 61.864078 57.055285 52.248466 47.439664 42.632844 37.824052 33.01526 28.20844 23.399638 18.590845 13.782053 8.975234 4.168415 2e-6 v 4.455 l 1.76302,-3.0557 2.460737,4.2653 2.464674,-4.2653 2.464684,4.2653 2.460727,-4.2653 2.4627,4.2653 2.462711,-4.2653 2.460727,4.2653 2.464684,-4.2653 2.4627,4.2653 2.4627,-4.2653 2.462711,4.2653 2.4627,-4.2653 2.462701,4.2653 2.46271,-4.2653 2.462701,4.2653 2.4627,-4.2653 2.46271,4.2653 2.462701,-4.2653 2.460727,4.2653 2.464684,-4.2653 2.460727,4.2653 2.464684,-4.2653 2.4627,4.2653 2.460727,-4.2653 2.464684,4.2653 2.460727,-4.2653 2.462701,4.2653 2.464683,-4.2653 2.460727,4.2653 2.462701,-4.2653 2.46271,4.2653 2.462701,-4.2653 2.464677,4.2653 2.46271,-4.2653 2.46072,4.2653 2.46271,-4.2653 2.4627,4.2653 2.4627,-4.2653 L 96,36.6611 v -2.5358 z m -2.6406,5.6646 H 87.95569 83.03226 78.104882 73.179471 68.254061 63.330633 58.405222 53.477838 48.552427 43.628999 38.703589 33.778178 28.852777 23.927366 18.999982 14.076544 9.153117 4.223759 2e-6 v 4.35402 l 1.76302,-3.05752 2.522001,4.36602 2.522002,-4.36602 2.520017,4.36602 2.522002,-4.36602 2.520028,4.36602 2.521991,-4.36602 2.520028,4.36602 2.522002,-4.36602 2.521991,4.36602 2.522001,-4.36602 2.520028,4.36602 2.521991,-4.36602 2.522002,4.36602 2.520018,-4.36602 2.522001,4.36602 2.520028,-4.36602 2.521991,4.36602 2.520028,-4.36602 2.522002,4.36602 2.521991,-4.36602 2.522001,4.36602 2.520018,-4.36602 2.522002,4.36602 2.520028,-4.36602 2.523974,4.36602 2.520018,-4.36602 2.520028,4.36602 2.520018,-4.36602 2.523975,4.36602 2.520028,-4.36602 2.521991,4.36602 2.522002,-4.36602 2.522002,4.36602 2.52002,-4.36602 2.522,4.36602 2.52001,-4.36602 2.52201,4.36602 L 96,43.80992 V 39.7899 Z m 2.17019,5.66252 H 90.00927 84.96725 79.923246 74.881227 69.837234 64.797188 59.753186 54.711166 49.667174 44.625144 39.583125 34.541106 29.497113 24.455084 19.411091 14.369072 9.327042 4.285023 2e-6 v 4.2533 l 1.76302,-3.0576 2.579319,4.4688 2.581292,-4.4688 2.579319,4.4688 2.581292,-4.4688 2.579319,4.4688 2.579319,-4.4688 2.579319,4.4688 2.579319,-4.4688 2.581292,4.4688 2.579319,-4.4688 2.581292,4.4688 2.577335,-4.4688 2.581293,4.4688 2.581292,-4.4688 2.579319,4.4688 2.579319,-4.4688 2.579318,4.4688 2.581293,-4.4688 2.579319,4.4688 2.579319,-4.4688 2.581292,4.4688 2.579319,-4.4688 2.579308,4.4688 2.579319,-4.4688 2.581292,4.4688 2.579319,-4.4688 2.579319,4.4688 2.579319,-4.4688 2.579319,4.4688 2.583266,-4.4688 2.579319,4.4688 2.579319,-4.4688 2.57931,4.4688 2.5813,-4.4688 2.57931,4.4688 2.57932,-4.4688 1.35982,2.354 v -3.5497 z m -2.99043,5.6645 H 86.90025 81.741619 76.579034 71.420396 66.261758 61.101147 55.94252 50.781909 45.621297 40.46266 35.302049 30.143421 24.98281 19.822199 14.663561 9.50295 4.342339 0 v 4.1505 l 1.76302,-3.0556 2.63862,4.5695 2.638609,-4.5695 2.63861,4.5695 2.63861,-4.5695 2.63861,4.5695 2.640593,-4.5695 2.636636,4.5695 2.63861,-4.5695 2.63861,4.5695 2.636636,-4.5695 2.640593,4.5695 2.63861,-4.5695 2.63861,4.5695 2.63861,-4.5695 2.638609,4.5695 2.63862,-4.5695 2.63861,4.5695 2.636636,-4.5695 2.640583,4.5695 2.636637,-4.5695 2.63861,4.5695 2.638609,-4.5695 2.640593,4.5695 2.63861,-4.5695 2.636637,4.5695 2.640583,-4.5695 2.63862,4.5695 2.636626,-4.5695 2.63862,4.5695 2.640583,-4.5695 2.636637,4.5695 2.63861,-4.5695 2.63861,4.5695 2.63862,-4.5695 2.63861,4.5695 L 96,53.51232 v -2.3954 z m 2.0516,5.6644 H 88.83523 83.55801 78.280792 73.005546 67.726343 62.451096 57.171894 51.896647 46.619428 41.342198 36.064979 30.787759 25.51053 20.23331 14.956081 9.678861 4.401642 2e-6 v 4.0478 l 1.76302,-3.0536 2.697911,4.6684 2.695927,-4.6684 2.69791,4.6684 2.697901,-4.6684 2.695937,4.6684 2.695928,-4.6684 2.69791,4.6684 2.697901,-4.6684 2.697911,4.6684 2.695927,-4.6684 2.697901,4.6684 2.69791,-4.6684 2.695928,4.6684 2.69791,-4.6684 2.697901,4.6684 2.695937,-4.6684 2.697901,4.6684 2.697911,-4.6684 2.695927,4.6684 2.697911,-4.6684 2.6979,4.6684 2.695927,-4.6684 2.697911,4.6684 2.697911,-4.6684 2.695927,4.6684 2.697901,-4.6684 2.69791,4.6684 2.695928,-4.6684 2.69791,4.6684 2.695928,-4.6684 2.699885,4.6684 2.69395,-4.6684 2.6979,4.6684 2.69594,-4.6684 L 96,62.15932 v -5.378 z m -3.34225,5.6626 H 85.37836 79.982545 74.588707 69.192896 63.799058 58.40522 53.009409 47.615571 42.221733 36.825922 31.432084 26.038256 20.642444 15.248606 9.854768 4.460931 0 v 3.9489 l 1.76302,-3.0556 2.757201,4.7712 2.755229,-4.7712 2.755228,4.7712 2.757201,-4.7712 2.755219,4.7712 2.755228,-4.7712 2.757201,4.7712 2.755218,-4.7712 2.755229,4.7712 2.755228,-4.7712 2.755218,4.7712 2.757202,-4.7712 2.753254,4.7712 2.759175,-4.7712 2.753245,4.7712 2.757202,-4.7712 2.755228,4.7712 2.757201,-4.7712 2.755219,4.7712 2.757201,-4.7712 2.753245,4.7712 2.757201,-4.7712 2.755229,4.7712 2.755228,-4.7712 2.757202,4.7712 2.755218,-4.7712 2.755228,4.7712 2.757201,-4.7712 2.755219,4.7712 2.755232,-4.7712 2.7572,4.7712 2.75324,-4.7712 2.7572,4.7712 2.75721,-4.7712 0.5376,0.931 v -1.8243 z m 1.93498,5.6645 h -5.51044 -5.51243 -5.51242 -5.510446 -5.51243 -5.51243 -5.510446 -5.51242 -5.51243 -5.51242 H 32.076422 26.565976 21.055529 15.5431 10.03068 4.520223 2e-6 v 3.8461 l 1.76302,-3.0556 2.814529,4.8759 2.816492,-4.8759 2.812546,4.8759 2.814509,-4.8759 2.814529,4.8759 2.814509,-4.8759 2.81453,4.8759 2.812535,-4.8759 2.816503,4.8759 2.814509,-4.8759 2.812545,4.8759 2.816493,-4.8759 2.812546,4.8759 2.816492,-4.8759 2.814529,4.8759 2.814509,-4.8759 2.814529,4.8759 2.814509,-4.8759 2.814529,4.8759 2.814509,-4.8759 2.812546,4.8759 2.814519,-4.8759 2.816503,4.8759 2.812535,-4.8759 2.81452,4.8759 2.814519,-4.8759 2.814519,4.8759 2.814519,-4.8759 2.814517,4.8759 2.81452,-4.8759 2.81452,4.8759 2.81452,-4.8759 2.81452,4.8759 L 96,71.41892 v -3.3105 z m 1.93499,5.6664 H 89.01114 83.3821 77.753064 72.124026 66.496971 60.865949 55.238894 49.609856 43.980818 38.349797 32.720758 27.093704 21.464666 15.835627 10.206589 4.577551 2e-6 v 3.7415 l 1.76302,-3.0536 2.871847,4.9747 2.875783,-4.9747 2.871836,4.9747 2.87382,-4.9747 2.871837,4.9747 2.871837,-4.9747 2.875783,4.9747 2.871847,-4.9747 2.87381,4.9747 2.871836,-4.9747 2.87381,4.9747 2.87382,-4.9747 2.871837,4.9747 2.87381,-4.9747 2.87382,4.9747 2.871836,-4.9747 2.87381,4.9747 2.871837,-4.9747 2.875793,4.9747 2.869864,-4.9747 2.875783,4.9747 2.871836,-4.9747 2.871837,4.9747 2.875793,-4.9747 2.871837,4.9747 2.87381,-4.9747 2.871847,4.9747 2.87381,-4.9747 2.873812,4.9747 2.87183,-4.9747 2.87382,4.9747 2.87184,-4.9747 L 96,78.44122 v -4.6664 z m -3.81067,5.6626 h -5.74565 -5.747622 -5.745657 -5.74763 -5.743673 -5.745647 -5.74763 -5.745646 -5.74763 -5.745657 -5.745646 -5.745657 -5.74762 H 10.382488 4.634869 2e-6 v 3.6426 l 1.76302,-3.0557 2.933111,5.0776 2.931137,-5.0776 2.931128,5.0776 2.931137,-5.0776 2.933101,5.0776 2.931138,-5.0776 2.931127,5.0776 2.933111,-5.0776 2.929154,5.0776 2.933111,-5.0776 2.933111,5.0776 2.931127,-5.0776 2.931128,5.0776 2.931137,-5.0776 2.931128,5.0776 2.933111,-5.0776 2.931127,5.0776 2.931138,-5.0776 2.933111,5.0776 2.931127,-5.0776 2.933111,5.0776 2.931127,-5.0776 2.931138,5.0776 2.931128,-5.0776 2.93311,5.0776 2.931128,-5.0776 2.933111,5.0776 2.931135,-5.0776 2.93113,5.0776 2.93113,-5.0776 2.93113,5.0776 2.93113,-5.0776 L 96,80.75572 v -1.3183 z m 1.81639,5.6645 H 86.78364 80.921375 75.057136 69.192898 63.330633 57.466395 51.602146 45.737908 39.875643 34.013388 28.147166 22.284901 16.422636 10.558398 4.696133 2e-6 v 3.5417 l 1.76302,-3.0575 2.990428,5.1783 2.990429,-5.1783 2.990428,5.1783 2.992402,-5.1783 2.988455,5.1783 2.990418,-5.1783 2.990429,5.1783 2.990428,-5.1783 2.990428,5.1783 2.988445,-5.1783 2.992402,5.1783 2.990429,-5.1783 2.988455,5.1783 2.992401,-5.1783 2.990429,5.1783 2.990428,-5.1783 2.990419,5.1783 2.988455,-5.1783 2.992401,5.1783 2.988445,-5.1783 2.992412,5.1783 2.988445,-5.1783 2.992402,5.1783 2.990428,-5.1783 2.990429,5.1783 2.988445,-5.1783 2.990428,5.1783 2.992405,-5.1783 2.98845,5.1783 2.99043,-5.1783 2.99042,5.1783 L 96,88.10612 v -3.0042 z m 1.81837,5.6625 H 88.48342 82.502565 76.523692 70.542835 64.561988 58.581131 52.600275 46.619428 40.636598 34.657714 28.676867 22.696011 16.715164 10.734307 4.75345 2e-6 v 3.439 l 1.76302,-3.0556 2.802669,4.8522 H 5.05981 l 2.800685,-4.8522 2.802659,4.8522 h 0.494121 l 2.800685,-4.8522 2.802659,4.8522 h 0.494121 l 2.804632,-4.8522 2.800686,4.8522 h 0.492147 l 2.802659,-4.8522 2.802659,4.8522 h 0.494121 l 2.802659,-4.8522 2.802669,4.8522 h 0.492137 l 2.800686,-4.8522 2.802658,4.8522 h 0.494121 l 2.802669,-4.8522 2.802659,4.8522 h 0.494121 l 2.802659,-4.8522 2.800685,4.8522 h 0.494121 l 2.800686,-4.8522 2.802659,4.8522 h 0.49412 l 2.802659,-4.8522 2.802659,4.8522 h 0.494121 l 2.800685,-4.8522 2.802659,4.8522 h 0.492148 l 2.802659,-4.8522 2.802658,4.8522 h 0.494121 l 2.802669,-4.8522 2.800679,4.8522 h 0.49413 l 2.80067,-4.8522 2.80465,4.8522 h 0.49412 L 93.23292,91.14782 96,95.93872 v -5.1743 z"
         style="opacity:1;fill:#6a6a6a;fill-opacity:1;stroke:none;stroke-width:4.27838421;stroke-linecap:round;stroke-linejoin:bevel;stroke-miterlimit:4;stroke-dasharray:none;stroke-opacity:1;paint-order:stroke fill markers" />
    </pattern>
  </defs>
  <sodipodi:namedview
     id="base"
     pagecolor="#ffffff"
     bordercolor="#666666"
     borderopacity="1.0"
     inkscape:pageopacity="0.0"
     inkscape:pageshadow="2"
     inkscape:zoom="3.8541667"
     inkscape:cx="-59.156756"
     inkscape:cy="45.924324"
     inkscape:document-units="px"
     inkscape:current-layer="layer1"
     showgrid="false"
     units="px"
     inkscape:showpageshadow="false"
     inkscape:window-width="1920"
     inkscape:window-height="991"
     inkscape:window-x="0"
     inkscape:window-y="25"
     inkscape:window-maximized="1" />
  <metadata
     id="metadata7">
    <rdf:RDF>
      <cc:Work
         rdf:about="">
        <dc:format>image/svg+xml</dc:format>
        <dc:type
           rdf:resource="http://purl.org/dc/dcmitype/StillImage" />
        <dc:title>Pattern-21</dc:title>
        <cc:license
           rdf:resource="http://creativecommons.org/licenses/by-sa/4.0/" />
        <dc:date>2019</dc:date>
        <dc:creator>
          <cc:Agent>
            <dc:title>Cristian Pozzessere  &lt; ilnanny &gt;</dc:title>
          </cc:Agent>
        </dc:creator>
        <dc:subject>
          <rdf:Bag>
            <rdf:li>ilnanny</rdf:li>
          </rdf:Bag>
        </dc:subject>
        <dc:description>Playing with Inkscape on Gnu/Linux O. S.</dc:description>
        <dc:contributor>
          <cc:Agent>
            <dc:title>In the night, alone like a dog.</dc:title>
          </cc:Agent>
        </dc:contributor>
      </cc:Work>
      <cc:License
         rdf:about="http://creativecommons.org/licenses/by-sa/4.0/">
        <cc:permits
           rdf:resource="http://creativecommons.org/ns#Reproduction" />
        <cc:permits
           rdf:resource="http://creativecommons.org/ns#Distribution" />
        <cc:requires
           rdf:resource="http://creativecommons.org/ns#Notice" />
        <cc:requires
           rdf:resource="http://creativecommons.org/ns#Attribution" />
        <cc:permits
           rdf:resource="http://creativecommons.org/ns#DerivativeWorks" />
        <cc:requires
           rdf:resource="http://creativecommons.org/ns#ShareAlike" />
      </cc:License>
    </rdf:RDF>
  </metadata>
  <g
     inkscape:label="Livello 1"
     inkscape:groupmode="layer"
     id="layer1"
     transform="translate(0,-956.36218)">
    <rect
       style="stroke:none;fill:url(#pattern3244)"
       width="96"
       height="96.00002"
       x="0"
       y="956.36218"
       id="rect3247" />
  </g>
</svg>
