<?xml version="1.0" encoding="UTF-8" standalone="no"?>
<!-- Created with Inkscape (http://www.inkscape.org/) -->

<svg
   xmlns:dc="http://purl.org/dc/elements/1.1/"
   xmlns:cc="http://creativecommons.org/ns#"
   xmlns:rdf="http://www.w3.org/1999/02/22-rdf-syntax-ns#"
   xmlns:svg="http://www.w3.org/2000/svg"
   xmlns="http://www.w3.org/2000/svg"
   xmlns:xlink="http://www.w3.org/1999/xlink"
   xmlns:sodipodi="http://sodipodi.sourceforge.net/DTD/sodipodi-0.dtd"
   xmlns:inkscape="http://www.inkscape.org/namespaces/inkscape"
   width="481"
   height="108"
   viewBox="0 0 481.00002 108"
   id="svg2"
   version="1.1"
   inkscape:version="0.92.2 2405546, 2018-03-11"
   sodipodi:docname="pattern1639.svg">
  <defs
     id="defs4">
    <pattern
       patternTransform="matrix(1.1326921,0,0,1.1338723,0.47452209,944.50334)"
       id="pattern1786"
       xlink:href="#pattern1639"
       inkscape:collect="always" />
    <pattern
       patternUnits="userSpaceOnUse"
       width="423.81428"
       height="94.999993"
       patternTransform="translate(-832.3444,825.17274)"
       id="pattern1639">
      <path
         inkscape:connector-curvature="0"
         id="path1280"
         style="fill:#85898b;fill-opacity:1;fill-rule:nonzero;stroke:#a5c7e9;stroke-width:0.13333333;stroke-opacity:1"
         d="M 0.06670666,94.933327 H 4.5792267 l -2.76929,-4.796 -1.74323004,3.02134 z m 5.00159004,0 h 5.5358603 l -2.7686603,-4.796 z m 6.0249303,0 h 5.53653 l -2.7688,-4.796 z m 6.0256,0 h 5.538 l -2.76773,-4.796 z m 6.02547,0 h 5.538 l -2.7692,-4.796 z m 6.02653,0 h 5.53853 l -2.76866,-4.796 z m 6.02507,0 h 5.53746 l -2.76866,-4.796 z m 6.02653,0 h 5.53747 l -2.76867,-4.796 z m 6.02653,0 h 5.53654 l -2.76774,-4.796 z m 6.0256,0 h 5.53694 l -2.7692,-4.796 z m 6.02494,0 h 5.53853 l -2.76867,-4.796 z m 6.0276,0 h 5.53653 l -2.7688,-4.796 z m 6.024,0 h 5.538 l -2.7688,-4.796 z m 6.02653,0 h 5.538 l -2.76867,-4.796 z m 6.0256,0 h 5.53853 l -2.76986,-4.796 z m 6.02707,0 h 5.53693 l -2.7692,-4.796 z m 6.026,0 h 5.537463 l -2.770263,-4.796 z m 6.025063,0 h 5.538 l -2.76934,-4.796 z m 6.02706,0 h 5.53587 l -2.76867,-4.796 z m 6.02494,0 h 5.53693 l -2.7692,-4.796 z m 6.0256,0 h 5.53666 l -2.76693,-4.796 z m 6.02733,0 h 5.53733 l -2.76933,-4.796 z m 6.02533,0 h 5.536 l -2.76666,-4.796 z m 6.02534,0 h 5.53866 l -2.76933,-4.796 z m 6.02666,0 h 5.53734 l -2.76934,-4.796 z m 6.024,0 h 5.53867 l -2.76933,-4.796 z m 6.028,0 h 5.536 l -2.768,-4.796 z m 6.02667,0 h 5.536 l -2.76933,-4.796 z m 6.02533,0 h 5.536 l -2.76933,-4.796 z m 6.02534,0 h 5.53866 l -2.772,-4.796 z m 6.02533,0 h 5.53733 l -2.768,-4.796 z m 6.02533,0 h 5.53867 l -2.76933,-4.796 z m 6.02534,0 h 5.53866 l -2.768,-4.796 z m 6.028,0 h 5.53599 l -2.768,-4.796 z m 6.02666,0 h 5.536 l -2.768,-4.796 z m 6.02267,0 h 5.53866 l -2.76933,-4.796 z m 6.028,0 h 5.536 l -2.768,-4.796 z m 6.02666,0 h 5.536 l -2.768,-4.796 z m 6.02534,0 h 5.53733 l -2.76933,-4.796 z m 6.02533,0 h 5.53867 l -2.76934,-4.796 z m 6.02667,0 h 5.536 l -2.768,-4.796 z m 6.02533,0 h 5.53733 l -2.76933,-4.796 z m 6.02533,0 h 5.53734 l -2.76934,-4.796 z m 6.02667,0 h 5.536 l -2.768,-4.796 z m 6.024,0 h 5.54 l -2.77067,-4.796 z m 6.02667,0 h 5.53733 l -2.76667,-4.796 z m 6.02666,0 h 5.53734 l -2.76934,-4.796 z m 6.02534,0 h 5.53733 l -2.768,-4.796 z m 6.02666,0 h 5.53734 l -2.76934,-4.796 z m 6.02534,0 h 5.53866 l -2.76933,-4.796 z m 6.02666,0 h 5.536 l -2.76933,-4.796 z m 6.024,0 h 5.53867 l -2.76933,-4.796 z m 6.02667,0 h 5.536 l -2.76667,-4.796 z m 6.024,0 h 5.54 l -2.768,-4.796 z m 6.028,0 h 5.536 l -2.768,-4.796 z m 6.028,0 h 5.536 l -2.768,-4.796 z m 6.024,0 h 5.53466 l -2.768,-4.796 z m 6.02666,0 h 5.536 l -2.76666,-4.796 z m 6.02934,0 h 5.53466 l -2.77333,-4.796 z m 6.02133,0 h 5.53733 l -2.76933,-4.796 z m 6.02933,0 h 5.53467 l -2.772,-4.796 z m 6.02267,0 h 5.536 l -2.76933,-4.796 z m 6.028,0 h 5.53467 l -2.76667,-4.796 z m 6.024,0 h 5.54 l -2.77333,-4.796 z m 6.02667,0 h 5.536 l -2.768,-4.796 z m 6.024,0 h 5.54 l -2.76667,-4.796 z m 6.028,0 h 5.536 l -2.76934,-4.796 z m 6.02266,0 h 5.54 l -2.76666,-4.796 z m 6.028,0 h 5.53467 l -2.768,-4.796 z m 6.028,0 h 5.536 l -2.768,-4.796 z m 6.02267,0 h 2.89467 v -4.58 l -0.12134,-0.216 z m 2.89467,-5.17466 v -1.08667 l -2.32534,-4.032 -2.956,5.11867 h -5.912 l -2.95466,-5.11867 -2.956,5.11867 h -5.90667 l -2.956,-5.11867 -2.956,5.11867 h -5.90933 l -2.956,-5.11867 -2.95067,5.11867 h -5.91067 l -2.956,-5.11867 -2.956,5.11867 h -5.90666 l -2.96,-5.11867 -2.956,5.11867 h -5.90667 l -2.956,-5.11867 -2.95467,5.11867 h -5.91066 l -2.956,-5.11867 -2.95467,5.11867 h -5.90666 l -2.956,-5.11867 -2.956,5.11867 h -5.91067 l -2.956,-5.11867 -2.95467,5.11867 h -5.908 l -2.956,-5.11867 -2.95733,5.11867 h -5.90667 l -2.95466,-5.11867 -2.956,5.11867 h -5.91067 l -2.95467,-5.11867 -2.956,5.11867 h -5.90933 l -2.95467,-5.11867 -2.956,5.11867 h -5.908 l -2.956,-5.11867 -2.956,5.11867 h -5.908 l -2.956,-5.11867 -2.95466,5.11867 h -5.90934 l -2.956,-5.11867 -2.956,5.11867 h -5.90933 l -2.95467,-5.11867 -2.956,5.11867 h -5.908 l -2.956,-5.11867 -2.956,5.11867 h -5.90799 l -2.956,-5.11867 -2.95467,5.11867 h -5.91067 l -2.95466,-5.11867 -2.956,5.11867 h -5.90934 l -2.95466,-5.11867 -2.95467,5.11867 h -5.90933 l -2.95734,-5.11867 -2.95466,5.11867 h -5.90934 l -2.956,-5.11867 -2.95333,5.11867 h -5.91067 l -2.95466,-5.11867 -2.956,5.11867 h -5.90934 l -2.95466,-5.11867 -2.95534,5.11867 h -5.90986 l -2.95574,-5.11867 -2.95466,5.11867 h -5.90987 l -2.95573,-5.11867 -2.954133,5.11867 h -5.91 l -2.95573,-5.11867 -2.95467,5.11867 h -5.90987 l -2.95573,-5.11867 -2.9536,5.11867 h -5.9104 l -2.95573,-5.11867 -2.95427,5.11867 h -5.9104 l -2.95573,-5.11867 -2.9536,5.11867 h -5.90987 l -2.95573,-5.11867 -2.95574,5.11867 h -5.90946 l -2.95574,-5.11867 -2.95413,5.11867 h -5.91093 l -2.95414,-5.11867 -2.95466,5.11867 h -5.90987 l -2.9557303,-5.11867 -2.9548,5.11867 H 0.06670666 v -2.09734 l 1.74323004,-3.02133 2.95516,5.11867 h 5.9105303 l 2.95573,-5.11867 2.95414,5.11867 h 5.9088 l 2.95573,-5.11867 2.9552,5.11867 h 5.90987 l 2.95573,-5.11867 2.95373,5.11867 h 5.91147 l 2.95413,-5.11867 2.95574,5.11867 h 5.90933 l 2.95467,-5.11867 2.95573,5.11867 h 5.91 l 2.95573,-5.11867 2.95467,5.11867 h 5.90933 l 2.95574,-5.11867 2.95413,5.11867 h 5.9104 l 2.95467,-5.11867 2.95533,5.11867 h 5.909863 l 2.95573,-5.11867 2.95414,5.11867 h 5.9104 l 2.95413,-5.11867 2.95573,5.11867 h 5.91 l 2.956,-5.11867 2.95334,5.11867 h 5.91066 l 2.95467,-5.11867 2.956,5.11867 h 5.90933 l 2.95467,-5.11867 2.95467,5.11867 h 5.912 l 2.95333,-5.11867 2.956,5.11867 h 5.90933 l 2.956,-5.11867 2.95334,5.11867 h 5.91066 l 2.95467,-5.11867 2.956,5.11867 h 5.91067 l 2.95466,-5.11867 2.95333,5.11867 h 5.912 l 2.95334,-5.11867 2.95466,5.11867 h 5.91067 l 2.956,-5.11867 2.95333,5.11867 h 5.912 l 2.95467,-5.11867 2.95467,5.11867 h 5.91066 l 2.95334,-5.11867 2.95466,5.11867 h 5.912 l 2.95334,-5.11867 2.95466,5.11867 h 5.91067 l 2.95733,-5.11867 2.952,5.11867 h 5.91067 l 2.95467,-5.11867 2.956,5.11867 h 5.91066 l 2.952,-5.11867 2.95467,5.11867 h 5.91333 l 2.95334,-5.11867 2.95466,5.11867 h 5.91067 l 2.956,-5.11867 2.95467,5.11867 h 5.912 l 2.956,-5.11867 2.95066,5.11867 h 5.91067 l 2.95466,-5.11867 2.956,5.11867 h 5.91067 l 2.95067,-5.11867 2.956,5.11867 h 5.916 l 2.95066,-5.11867 2.956,5.11867 h 5.912 l 2.956,-5.11867 2.95467,5.11867 h 5.90667 l 2.95466,-5.11867 2.95467,5.11867 h 5.912 l 2.95067,-5.11867 2.956,5.11867 h 5.91066 l 2.956,-5.11867 2.956,5.11867 z m 0,-5.59734 v -3.22666 l -1.86267,3.22666 h -5.79467 l -2.896,-5.01733 -2.9,5.01733 h -5.79333 l -2.9,-5.01733 -2.89467,5.01733 h -5.79466 l -2.89467,-5.01733 -2.89867,5.01733 h -5.78933 l -2.9,-5.01733 -2.896,5.01733 h -5.79467 l -2.89866,-5.01733 -2.89467,5.01733 h -5.79467 l -2.9,-5.01733 -2.89466,5.01733 h -5.79467 l -2.89867,-5.01733 -2.89466,5.01733 h -5.796 l -2.9,-5.01733 -2.89467,5.01733 h -5.79466 l -2.89334,-5.01733 -2.9,5.01733 h -5.79466 l -2.89467,-5.01733 -2.896,5.01733 h -5.796 l -2.89867,-5.01733 -2.89466,5.01733 h -5.796 l -2.89467,-5.01733 -2.89867,5.01733 h -5.79466 l -2.896,-5.01733 -2.896,5.01733 h -5.79334 l -2.89866,-5.01733 -2.89734,5.01733 h -5.79466 l -2.896,-5.01733 -2.89734,5.01733 h -5.79333 l -2.89733,-5.01733 -2.89734,5.01733 h -5.79466 l -2.89734,-5.01733 -2.89733,5.01733 h -5.79333 l -2.89867,-5.01733 -2.896,5.01733 h -5.79467 l -2.89733,-5.01733 -2.896,5.01733 h -5.79466 l -2.896,-5.01733 -2.896,5.01733 h -5.796 l -2.89734,-5.01733 -2.89733,5.01733 h -5.792 l -2.89867,-5.01733 -2.89733,5.01733 h -5.79333 l -2.896,-5.01733 -2.89867,5.01733 h -5.79467 l -2.896,-5.01733 -2.89733,5.01733 h -5.79333 l -2.89734,-5.01733 -2.89733,5.01733 h -5.796 l -2.89627,-5.01733 -2.89586,5.01733 h -5.79427 l -2.8964,-5.01733 -2.8984,5.01733 h -5.79427 l -2.89586,-5.01733 -2.897333,5.01733 h -5.7948 l -2.89747,-5.01733 -2.89573,5.01733 h -5.79427 l -2.89693,-5.01733 -2.89787,5.01733 h -5.79426 l -2.89694,-5.01733 -2.89586,5.01733 h -5.79427 l -2.89893,-5.01733 -2.8964,5.01733 h -5.79427 l -2.8968,-5.01733 -2.89747,5.01733 h -5.7932 l -2.8984,-5.01733 -2.89746,5.01733 h -5.79267 l -2.89733,-5.01733 -2.8964,5.01733 h -5.79427 l -2.8974703,-5.01733 -2.8968,5.01733 H 0.06670666 v -1.99733 l 1.74323004,-3.02 2.89742,5.01733 h 5.7942703 l 2.8968,-5.01733 2.89747,5.01733 h 5.79373 l 2.89693,-5.01733 2.89574,5.01733 h 5.79586 l 2.89694,-5.01733 2.89626,5.01733 h 5.79427 l 2.89747,-5.01733 2.8968,5.01733 h 5.79533 l 2.89587,-5.01733 2.8984,5.01733 h 5.7928 l 2.89733,-5.01733 2.89693,5.01733 h 5.7948 l 2.89734,-5.01733 2.89693,5.01733 h 5.7932 l 2.89627,-5.01733 2.89853,5.01733 h 5.793193 l 2.8968,-5.01733 2.89747,5.01733 h 5.7948 l 2.8968,-5.01733 2.89747,5.01733 h 5.79213 l 2.89867,-5.01733 2.89733,5.01733 h 5.79467 l 2.896,-5.01733 2.89733,5.01733 h 5.79333 l 2.89734,-5.01733 2.89733,5.01733 h 5.79467 l 2.89733,-5.01733 2.896,5.01733 h 5.796 l 2.896,-5.01733 2.896,5.01733 h 5.79467 l 2.896,-5.01733 2.9,5.01733 h 5.792 l 2.89733,-5.01733 2.89733,5.01733 h 5.79333 l 2.89867,-5.01733 2.896,5.01733 h 5.79467 l 2.896,-5.01733 2.89733,5.01733 h 5.79467 l 2.89733,-5.01733 2.89733,5.01733 h 5.79467 l 2.89733,-5.01733 2.896,5.01733 h 5.79334 l 2.89733,-5.01733 2.89733,5.01733 h 5.796 l 2.89734,-5.01733 2.896,5.01733 h 5.792 l 2.89866,-5.01733 2.896,5.01733 h 5.79334 l 2.89866,-5.01733 2.89734,5.01733 h 5.79333 l 2.896,-5.01733 2.9,5.01733 h 5.79067 l 2.9,-5.01733 2.89466,5.01733 h 5.79334 l 2.9,-5.01733 2.89466,5.01733 h 5.79467 l 2.896,-5.01733 2.9,5.01733 h 5.79333 l 2.9,-5.01733 2.89467,5.01733 h 5.79466 l 2.89467,-5.01733 2.9,5.01733 h 5.79333 l 2.89467,-5.01733 2.9,5.01733 h 5.796 l 2.89467,-5.01733 2.89466,5.01733 h 5.79334 l 2.9,-5.01733 2.89466,5.01733 h 5.79467 l 2.89867,-5.01733 2.89466,5.01733 h 5.796 l 2.9,-5.01733 2.89467,5.01733 z m 0,-5.59733 v -1.89067 l -1.74667,-3.02533 -2.83867,4.916 h -5.67733 l -2.844,-4.916 -2.84,4.916 h -5.67733 l -2.83334,-4.916 -2.83866,4.916 h -5.67734 l -2.844,-4.916 -2.83866,4.916 h -5.67867 l -2.83867,-4.916 -2.83866,4.916 h -5.67734 l -2.83866,-4.916 -2.83867,4.916 h -5.67867 l -2.844,-4.916 -2.83866,4.916 h -5.67734 l -2.83866,-4.916 -2.83867,4.916 h -5.67733 l -2.83867,-4.916 -2.84,4.916 h -5.67733 l -2.83867,-4.916 -2.83866,4.916 h -5.67867 l -2.83867,-4.916 -2.84,4.916 h -5.67733 l -2.84,-4.916 -2.83867,4.916 h -5.68 l -2.83733,-4.916 -2.83867,4.916 h -5.67866 l -2.84134,-4.916 -2.83866,4.916 h -5.676 l -2.84,-4.916 -2.84,4.916 h -5.67867 l -2.83733,-4.916 -2.84,4.916 h -5.67867 l -2.83867,-4.916 -2.83866,4.916 h -5.67867 l -2.83867,-4.916 -2.84,4.916 h -5.67733 l -2.84,-4.916 -2.83867,4.916 h -5.67733 l -2.84,-4.916 -2.84,4.916 h -5.67866 l -2.83867,-4.916 -2.83867,4.916 h -5.67866 l -2.83867,-4.916 -2.84,4.916 h -5.67733 l -2.84,-4.916 -2.84,4.916 h -5.67734 l -2.83866,-4.916 -2.83867,4.916 h -5.68 l -2.83733,-4.916 -2.83867,4.916 h -5.68 l -2.83867,-4.916 -2.83866,4.916 h -5.67734 l -2.83866,-4.916 -2.84067,4.916 h -5.6776 l -2.83867,-4.916 -2.84053,4.916 h -5.67813 l -2.8396,-4.916 -2.83854,4.916 h -5.677593 l -2.84067,-4.916 -2.83693,4.916 h -5.6792 l -2.83853,-4.916 -2.84067,4.916 h -5.6776 l -2.83853,-4.916 -2.84014,4.916 h -5.6776 l -2.84,-4.916 -2.8376,4.916 h -5.67906 l -2.83907,-4.916 -2.83853,4.916 h -5.6792 l -2.83854,-4.916 -2.84013,4.916 h -5.67707 l -2.8396,-4.916 -2.83853,4.916 h -5.6792 l -2.83907,-4.916 -2.83853,4.916 H 4.6484267 l -2.83849,-4.916 -1.74323004,3.01867 v 1.89733 H 4.6484267 l 2.84013,-4.916 2.8390703,4.916 h 5.6776 l 2.83853,-4.916 2.84067,4.916 h 5.67813 l 2.83854,-4.916 2.83853,4.916 h 5.67867 l 2.8396,-4.916 2.8396,4.916 h 5.6776 l 2.83853,-4.916 2.84053,4.916 h 5.6776 l 2.83854,-4.916 2.83906,4.916 h 5.67867 l 2.83907,-4.916 2.83853,4.916 h 5.6792 l 2.83907,-4.916 2.84013,4.916 h 5.6776 l 2.83853,-4.916 2.839063,4.916 h 5.67814 l 2.8396,-4.916 2.83853,4.916 h 5.6792 l 2.83893,-4.916 2.83867,4.916 h 5.67933 l 2.83734,-4.916 2.84,4.916 h 5.67733 l 2.84,-4.916 2.84,4.916 h 5.676 l 2.84133,-4.916 2.83867,4.916 h 5.67733 l 2.84,-4.916 2.83734,4.916 h 5.68 l 2.84,-4.916 2.83733,4.916 h 5.67867 l 2.84,-4.916 2.83866,4.916 h 5.67734 l 2.83999,-4.916 2.83867,4.916 h 5.68 l 2.83733,-4.916 2.84,4.916 h 5.67867 l 2.83733,-4.916 2.84,4.916 h 5.67867 l 2.83867,-4.916 2.84,4.916 h 5.67733 l 2.84,-4.916 2.83867,4.916 h 5.67733 l 2.84,-4.916 2.83867,4.916 h 5.68 l 2.83733,-4.916 2.83867,4.916 h 5.68 l 2.83733,-4.916 2.84133,4.916 h 5.676 l 2.84134,-4.916 2.83866,4.916 h 5.67867 l 2.83733,-4.916 2.84,4.916 h 5.67867 l 2.83867,-4.916 2.84,4.916 h 5.67733 l 2.83867,-4.916 2.83866,4.916 h 5.67867 l 2.83733,-4.916 2.84,4.916 h 5.67733 l 2.83867,-4.916 2.83867,4.916 h 5.68266 l 2.83467,-4.916 2.844,4.916 h 5.67733 l 2.83867,-4.916 2.83867,4.916 h 5.67733 l 2.83867,-4.916 2.84,4.916 h 5.68266 l 2.83334,-4.916 2.844,4.916 h 5.672 l 2.844,-4.916 2.83333,4.916 h 5.684 l 2.83867,-4.916 2.83866,4.916 z m 0,-5.59866 v -3.42667 l -1.98,3.42667 h -5.56134 l -2.78266,-4.816 -2.78267,4.816 h -5.56133 l -2.77734,-4.816 -2.784,4.816 h -5.56133 l -2.78133,-4.816 -2.784,4.816 h -5.56 l -2.77734,-4.816 -2.784,4.816 h -5.56 l -2.784,-4.816 -2.78266,4.816 h -5.56134 l -2.78266,-4.816 -2.77734,4.816 h -5.56133 l -2.784,-4.816 -2.78267,4.816 h -5.56 l -2.78266,-4.816 -2.77733,4.816 h -5.56667 l -2.77733,-4.816 -2.784,4.816 h -5.56534 l -2.77866,-4.816 -2.78134,4.816 h -5.56266 l -2.78,-4.816 -2.78134,4.816 h -5.56266 l -2.78134,-4.816 -2.78266,4.816 h -5.56 l -2.78134,-4.816 -2.78133,4.816 h -5.56267 l -2.78133,-4.816 -2.78133,4.816 h -5.56134 l -2.78133,-4.816 -2.78267,4.816 h -5.56 l -2.78266,-4.816 -2.78134,4.816 h -5.56133 l -2.78267,-4.816 -2.78133,4.816 h -5.56267 l -2.78,-4.816 -2.78133,4.816 h -5.56267 l -2.78,-4.816 -2.78133,4.816 h -5.56267 l -2.78,-4.816 -2.78133,4.816 h -5.564 l -2.78133,-4.816 -2.78133,4.816 h -5.56134 l -2.78133,-4.816 -2.78133,4.816 h -5.56267 l -2.78133,-4.816 -2.78134,4.816 h -5.56266 l -2.78,-4.816 -2.78134,4.816 h -5.56266 l -2.78134,-4.816 -2.78133,4.816 h -5.56267 l -2.78,-4.816 -2.78266,4.816 h -5.56134 l -2.78133,-4.816 -2.78067,4.816 h -5.562 l -2.78173,-4.816 -2.78227,4.816 h -5.56146 l -2.7808,-4.816 -2.781733,4.816 h -5.562 l -2.78173,-4.816 -2.78187,4.816 h -5.56187 l -2.7824,-4.816 -2.7796,4.816 h -5.56253 l -2.7812,-4.816 -2.7808,4.816 h -5.56347 l -2.78026,-4.816 -2.78067,4.816 h -5.56307 l -2.7808,-4.816 -2.78013,4.816 h -5.56453 l -2.7808,-4.816 -2.78174,4.816 h -5.562 l -2.78173,-4.816 -2.78027,4.816 h -5.56253 l -2.78173,-4.816 -2.78027,4.816 H 4.5917567 l -2.78182,-4.816 -1.74323004,3.02133 v 1.79467 H 4.5917567 l 2.78174,-4.816 2.7801303,4.816 h 5.562 l 2.7824,-4.816 2.78013,4.816 h 5.562 l 2.78174,-4.816 2.78026,4.816 h 5.56254 l 2.78173,-4.816 2.7828,4.816 h 5.56093 l 2.7812,-4.816 2.78187,4.816 h 5.56093 l 2.78174,-4.816 2.78173,4.816 h 5.562 l 2.78067,-4.816 2.78186,4.816 h 5.562 l 2.78174,-4.816 2.78013,4.816 h 5.5636 l 2.78067,-4.816 2.78133,4.816 h 5.562533 l 2.7812,-4.816 2.78026,4.816 h 5.564 l 2.77974,-4.816 2.78226,4.816 h 5.562 l 2.78134,-4.816 2.78,4.816 h 5.56266 l 2.78134,-4.816 2.78133,4.816 h 5.56267 l 2.78266,-4.816 2.78,4.816 h 5.56134 l 2.78133,-4.816 2.78133,4.816 h 5.56267 l 2.78133,-4.816 2.78134,4.816 h 5.56266 l 2.78,-4.816 2.78134,4.816 h 5.56266 l 2.78134,-4.816 2.78266,4.816 h 5.56133 l 2.78134,-4.816 2.78133,4.816 h 5.56133 l 2.78134,-4.816 2.78133,4.816 h 5.56133 l 2.78267,-4.816 2.78,4.816 h 5.564 l 2.78,-4.816 2.78133,4.816 h 5.564 l 2.78,-4.816 2.78,4.816 h 5.564 l 2.78,-4.816 2.78134,4.816 h 5.56266 l 2.78,-4.816 2.78267,4.816 h 5.56267 l 2.78,-4.816 2.78,4.816 h 5.564 l 2.78,-4.816 2.78266,4.816 h 5.56134 l 2.78266,-4.816 2.78,4.816 h 5.56 l 2.78267,-4.816 2.78267,4.816 h 5.56133 l 2.78267,-4.816 2.784,4.816 h 5.55999 l 2.77867,-4.816 2.78133,4.816 h 5.56667 l 2.77733,-4.816 2.784,4.816 h 5.56 l 2.77867,-4.816 2.78267,4.816 h 5.56666 l 2.77734,-4.816 2.78266,4.816 h 5.56134 l 2.78133,-4.816 2.77867,4.816 h 5.56533 l 2.77867,-4.816 2.78266,4.816 h 5.56134 l 2.78266,-4.816 2.77867,4.816 h 5.56533 l 2.784,-4.816 2.77734,4.816 z m 0,-5.596 v -0.28534 l -2.56,-4.43066 -2.72134,4.716 h -5.444 l -2.728,-4.716 -2.72133,4.716 h -5.44933 l -2.72267,-4.716 -2.72133,4.716 h -5.444 l -2.72667,-4.716 -2.72133,4.716 h -5.45067 l -2.72133,-4.716 -2.72267,4.716 h -5.444 l -2.72533,-4.716 -2.72267,4.716 h -5.444 l -2.72667,-4.716 -2.72266,4.716 h -5.444 l -2.72134,-4.716 -2.72266,4.716 h -5.44934 l -2.72666,-4.716 -2.72267,4.716 h -5.444 l -2.72133,-4.716 -2.72267,4.716 h -5.44933 l -2.72267,-4.716 -2.72533,4.716 h -5.44533 l -2.72267,-4.716 -2.724,4.716 h -5.44533 l -2.724,-4.716 -2.724,4.716 h -5.44534 l -2.724,-4.716 -2.724,4.716 h -5.44666 l -2.72267,-4.716 -2.724,4.716 h -5.44533 l -2.724,-4.716 -2.72267,4.716 h -5.44667 l -2.72266,-4.716 -2.724,4.716 h -5.44534 l -2.724,-4.716 -2.724,4.716 h -5.44533 l -2.724,-4.716 -2.72267,4.716 h -5.44666 l -2.72267,-4.716 -2.72533,4.716 h -5.44534 l -2.72266,-4.716 -2.724,4.716 h -5.44533 l -2.724,-4.716 -2.72267,4.716 h -5.44667 l -2.724,-4.716 -2.72266,4.716 h -5.44534 l -2.72533,-4.716 -2.72267,4.716 h -5.44533 l -2.724,-4.716 -2.724,4.716 h -5.44533 l -2.72267,-4.716 -2.724,4.716 h -5.44667 l -2.72266,-4.716 -2.724,4.716 h -5.44667 l -2.72267,-4.716 -2.72266,4.716 h -5.44654 l -2.7244,-4.716 -2.72186,4.716 h -5.44694 l -2.72453,-4.716 -2.7224,4.716 h -5.447333 l -2.7224,-4.716 -2.72346,4.716 h -5.44627 l -2.72347,-4.716 -2.72293,4.716 h -5.44693 l -2.72334,-4.716 -2.72293,4.716 h -5.44693 l -2.72347,-4.716 -2.7228,4.716 h -5.44693 l -2.72187,-4.716 -2.72507,4.716 h -5.44626 l -2.72187,-4.716 -2.72507,4.716 h -5.44626 l -2.722,-4.716 -2.72387,4.716 h -5.44533 l -2.72347,-4.716 -2.72347,4.716 H 9.9802967 l -2.72347,-4.716 -2.72347,4.716 H 0.06670666 v -1.696 l 1.74323004,-3.02 2.72342,4.716 h 5.44694 l 2.7244003,-4.716 2.72186,4.716 h 5.44694 l 2.7224,-4.716 2.72293,4.716 h 5.44587 l 2.7244,-4.716 2.72186,4.716 h 5.44694 l 2.7244,-4.716 2.72186,4.716 h 5.44694 l 2.72453,-4.716 2.7224,4.716 h 5.44627 l 2.72186,-4.716 2.72507,4.716 h 5.44627 l 2.72453,-4.716 2.7224,4.716 h 5.4464 l 2.72187,-4.716 2.7244,4.716 h 5.44586 l 2.72454,-4.716 2.722793,4.716 h 5.44693 l 2.72187,-4.716 2.72507,4.716 h 5.44626 l 2.72187,-4.716 2.72467,4.716 h 5.44533 l 2.72267,-4.716 2.724,4.716 h 5.44666 l 2.72267,-4.716 2.724,4.716 h 5.44667 l 2.72266,-4.716 2.72267,4.716 h 5.448 l 2.72267,-4.716 2.72266,4.716 h 5.448 l 2.72134,-4.716 2.724,4.716 h 5.44666 l 2.72267,-4.716 2.724,4.716 h 5.44667 l 2.72133,-4.716 2.724,4.716 h 5.44666 l 2.72267,-4.716 2.72267,4.716 h 5.448 l 2.724,-4.716 2.72266,4.716 h 5.44667 l 2.724,-4.716 2.72133,4.716 h 5.448 l 2.724,-4.716 2.72134,4.716 h 5.44666 l 2.72267,-4.716 2.724,4.716 h 5.44667 l 2.72266,-4.716 2.72267,4.716 h 5.44667 l 2.724,-4.716 2.72266,4.716 h 5.448 l 2.72267,-4.716 2.72267,4.716 h 5.448 l 2.724,-4.716 2.72133,4.716 h 5.44667 l 2.72266,-4.716 2.72267,4.716 h 5.448 l 2.72267,-4.716 2.72666,4.716 h 5.444 l 2.72267,-4.716 2.72133,4.716 h 5.44933 l 2.72134,-4.716 2.728,4.716 h 5.444 l 2.72266,-4.716 2.72134,4.716 h 5.44933 l 2.72267,-4.716 2.72133,4.716 h 5.448 l 2.724,-4.716 2.72,4.716 h 5.444 l 2.728,-4.716 2.72267,4.716 h 5.448 l 2.72133,-4.716 2.72267,4.716 h 5.444 l 2.72666,-4.716 2.72267,4.716 h 5.44933 l 2.72134,-4.716 2.72266,4.716 z m 0,-5.596 v -3.19734 l -0.82267,-1.42 -2.66,4.61734 h -5.33333 l -2.66534,-4.61734 -2.66666,4.61734 h -5.32667 l -2.672,-4.61734 -2.66,4.61734 h -5.33333 l -2.66534,-4.61734 -2.66266,4.61734 h -5.332 l -2.66667,-4.61734 -2.66533,4.61734 h -5.328 l -2.664,-4.61734 -2.66667,4.61734 h -5.33333 l -2.66134,-4.61734 -2.66666,4.61734 h -5.332 l -2.66534,-4.61734 -2.66666,4.61734 h -5.332 l -2.66134,-4.61734 -2.66666,4.61734 h -5.332 l -2.66,-4.61734 -2.672,4.61734 h -5.32667 l -2.66666,-4.61734 -2.66667,4.61734 h -5.328 l -2.664,-4.61734 -2.66533,4.61734 h -5.32934 l -2.66666,-4.61734 -2.66667,4.61734 h -5.32933 l -2.66534,-4.61734 -2.66666,4.61734 h -5.32934 l -2.66666,-4.61734 -2.66667,4.61734 h -5.33067 l -2.66266,-4.61734 -2.66667,4.61734 h -5.32933 l -2.66667,-4.61734 -2.664,4.61734 h -5.33067 l -2.66533,-4.61734 -2.66533,4.61734 h -5.33067 l -2.66667,-4.61734 -2.664,4.61734 h -5.33066 l -2.664,-4.61734 -2.66534,4.61734 h -5.332 l -2.66533,-4.61734 -2.66533,4.61734 h -5.33067 l -2.66533,-4.61734 -2.664,4.61734 h -5.332 l -2.664,-4.61734 -2.66667,4.61734 h -5.32933 l -2.66667,-4.61734 -2.66533,4.61734 h -5.33067 l -2.66533,-4.61734 -2.66533,4.61734 h -5.332 l -2.664,-4.61734 -2.664,4.61734 h -5.33067 l -2.66533,-4.61734 -2.66667,4.61734 h -5.32933 l -2.66534,-4.61734 -2.66666,4.61734 h -5.32934 l -2.66533,-4.61734 -2.66533,4.61734 h -5.33067 l -2.66467,-4.61734 -2.66666,4.61734 h -5.3296 l -2.6656,-4.61734 -2.66574,4.61734 h -5.330663 l -2.66613,-4.61734 -2.66507,4.61734 h -5.32813 l -2.66667,-4.61734 -2.6652,4.61734 h -5.33013 l -2.6656,-4.61734 -2.66613,4.61734 h -5.3308 l -2.66507,-4.61734 -2.66507,4.61734 h -5.33026 l -2.6656,-4.61734 -2.66467,4.61734 h -5.33067 l -2.6656,-4.61734 -2.6656,4.61734 h -5.33026 l -2.66614,-4.61734 -2.66453,4.61734 h -5.33187 l -2.6656,-4.61734 -2.66453,4.61734 H 9.8057567 l -2.66613,-4.61734 -2.6636,4.61734 H 0.06670666 v -1.59734 l 1.74323004,-3.02 2.66609,4.61734 h 5.32973 l 2.6650703,-4.61734 2.6652,4.61734 h 5.33013 l 2.6656,-4.61734 2.66627,4.61734 h 5.33067 l 2.66506,-4.61734 2.6652,4.61734 h 5.3312 l 2.66454,-4.61734 2.66613,4.61734 h 5.33027 l 2.66453,-4.61734 2.66573,4.61734 h 5.33014 l 2.66613,-4.61734 2.66467,4.61734 h 5.33173 l 2.66453,-4.61734 2.6656,4.61734 h 5.33187 l 2.66293,-4.61734 2.6652,4.61734 h 5.3312 l 2.66614,-4.61734 2.664523,4.61734 h 5.33134 l 2.66453,-4.61734 2.66507,4.61734 h 5.33133 l 2.66453,-4.61734 2.66614,4.61734 h 5.33066 l 2.66534,-4.61734 2.664,4.61734 h 5.332 l 2.66533,-4.61734 2.664,4.61734 h 5.332 l 2.664,-4.61734 2.66667,4.61734 h 5.328 l 2.66666,-4.61734 2.66534,4.61734 h 5.33066 l 2.66667,-4.61734 2.664,4.61734 h 5.332 l 2.664,-4.61734 2.66533,4.61734 h 5.33067 l 2.66533,-4.61734 2.66667,4.61734 h 5.32933 l 2.66533,-4.61734 2.66534,4.61734 h 5.33066 l 2.66534,-4.61734 2.66666,4.61734 h 5.32934 l 2.66533,-4.61734 2.66533,4.61734 h 5.33067 l 2.66533,-4.61734 2.66534,4.61734 h 5.33066 l 2.664,-4.61734 2.66667,4.61734 h 5.33067 l 2.66533,-4.61734 2.664,4.61734 h 5.32933 l 2.66934,-4.61734 2.66133,4.61734 h 5.33333 l 2.664,-4.61734 2.66534,4.61734 h 5.332 l 2.66666,-4.61734 2.66267,4.61734 h 5.33333 l 2.66134,-4.61734 2.668,4.61734 h 5.32933 l 2.66533,-4.61734 2.66267,4.61734 h 5.33333 l 2.66534,-4.61734 2.66133,4.61734 h 5.332 l 2.66667,-4.61734 2.66533,4.61734 h 5.328 l 2.67066,-4.61734 2.66134,4.61734 h 5.332 l 2.66666,-4.61734 2.66534,4.61734 h 5.328 l 2.66666,-4.61734 2.66667,4.61734 h 5.33067 l 2.66666,-4.61734 2.66134,4.61734 h 5.332 l 2.66533,-4.61734 2.66667,4.61734 h 5.328 l 2.66666,-4.61734 2.66667,4.61734 h 5.332 l 2.66133,-4.61734 2.66534,4.61734 h 5.332 l 2.66666,-4.61734 2.66667,4.61734 z m 0,-5.59734 v -3.73066 l -2.15334,3.73066 h -5.21466 l -2.60534,-4.516 -2.61066,4.516 h -5.20934 l -2.612,-4.516 -2.60533,4.516 h -5.21467 l -2.61066,-4.516 -2.60534,4.516 h -5.21466 l -2.60534,-4.516 -2.61066,4.516 h -5.20934 l -2.612,-4.516 -2.60533,4.516 h -5.21467 l -2.61066,-4.516 -2.60534,4.516 h -5.216 l -2.604,-4.516 -2.61066,4.516 h -5.216 l -2.604,-4.516 -2.60534,4.516 h -5.21599 l -2.60934,-4.516 -2.60666,4.516 h -5.216 l -2.60534,-4.516 -2.60933,4.516 h -5.21467 l -2.60666,-4.516 -2.60667,4.516 h -5.21333 l -2.61067,-4.516 -2.60533,4.516 h -5.216 l -2.608,-4.516 -2.60534,4.516 h -5.21466 l -2.608,-4.516 -2.608,4.516 h -5.21334 l -2.608,-4.516 -2.608,4.516 h -5.21333 l -2.608,-4.516 -2.608,4.516 h -5.21467 l -2.60666,-4.516 -2.60667,4.516 h -5.216 l -2.60667,-4.516 -2.608,4.516 h -5.21466 l -2.60667,-4.516 -2.608,4.516 h -5.21467 l -2.608,-4.516 -2.60666,4.516 h -5.21467 l -2.60667,-4.516 -2.608,4.516 h -5.21333 l -2.60933,-4.516 -2.60667,4.516 h -5.21466 l -2.608,-4.516 -2.60667,4.516 h -5.21467 l -2.60666,-4.516 -2.60667,4.516 h -5.216 l -2.608,-4.516 -2.608,4.516 h -5.21467 l -2.60666,-4.516 -2.608,4.516 h -5.21334 l -2.608,-4.516 -2.608,4.516 h -5.21466 l -2.60667,-4.516 -2.60667,4.516 h -5.21466 l -2.608,-4.516 -2.6072,4.516 h -5.21574 l -2.60666,-4.516 -2.60734,4.516 h -5.214 l -2.61,-4.516 -2.605193,4.516 h -5.2156 l -2.60733,-4.516 -2.60667,4.516 h -5.21573 l -2.60614,-4.516 -2.60786,4.516 h -5.21414 l -2.6072,-4.516 -2.6084,4.516 h -5.214 l -2.6084,-4.516 -2.6072,4.516 h -5.21413 l -2.60827,-4.516 -2.60573,4.516 h -5.21573 l -2.60667,-4.516 -2.60733,4.516 h -5.21454 l -2.60946,-4.516 -2.60667,4.516 h -5.21413 l -2.60627,-4.516 -2.60773,4.516 H 9.6317567 l -2.6072,-4.516 -2.6084,4.516 H 0.06670666 v -1.49733 l 1.74323004,-3.01867 2.60622,4.516 h 5.2156 l 2.6084003,-4.516 2.60734,4.516 h 5.214 l 2.6084,-4.516 2.60573,4.516 h 5.21613 l 2.60627,-4.516 2.60827,4.516 h 5.214 l 2.60893,-4.516 2.6068,4.516 h 5.214 l 2.60627,-4.516 2.60786,4.516 h 5.2156 l 2.60774,-4.516 2.60626,4.516 h 5.2156 l 2.6068,-4.516 2.60734,4.516 h 5.214 l 2.6084,-4.516 2.60733,4.516 h 5.214 l 2.6084,-4.516 2.6072,4.516 h 5.215193 l 2.6056,-4.516 2.6084,4.516 h 5.214 l 2.60894,-4.516 2.6068,4.516 h 5.2152 l 2.60666,-4.516 2.608,4.516 h 5.21334 l 2.608,-4.516 2.60666,4.516 h 5.216 l 2.60667,-4.516 2.60667,4.516 h 5.21466 l 2.60934,-4.516 2.60533,4.516 h 5.216 l 2.60667,-4.516 2.60933,4.516 h 5.21333 l 2.608,-4.516 2.60667,4.516 h 5.21467 l 2.60666,-4.516 2.608,4.516 h 5.216 l 2.60534,-4.516 2.60799,4.516 h 5.21467 l 2.608,-4.516 2.60667,4.516 h 5.21466 l 2.60667,-4.516 2.608,4.516 h 5.21467 l 2.60666,-4.516 2.608,4.516 h 5.21467 l 2.608,-4.516 2.608,4.516 h 5.21333 l 2.608,-4.516 2.60667,4.516 h 5.216 l 2.60667,-4.516 2.60666,4.516 h 5.216 l 2.608,-4.516 2.60534,4.516 h 5.216 l 2.60666,-4.516 2.608,4.516 h 5.21334 l 2.608,-4.516 2.608,4.516 h 5.216 l 2.604,-4.516 2.60933,4.516 h 5.21333 l 2.60934,-4.516 2.60533,4.516 h 5.21467 l 2.60666,-4.516 2.60934,4.516 h 5.216 l 2.60533,-4.516 2.61066,4.516 h 5.20934 l 2.61066,-4.516 2.60534,4.516 h 5.21466 l 2.60534,-4.516 2.61066,4.516 h 5.216 l 2.60534,-4.516 2.60933,4.516 h 5.21733 l 2.604,-4.516 2.60534,4.516 h 5.216 l 2.60933,-4.516 2.60533,4.516 h 5.216 l 2.60534,-4.516 2.60933,4.516 h 5.21733 l 2.604,-4.516 2.60534,4.516 h 5.216 l 2.61066,-4.516 2.604,4.516 z m 0,-5.6 v -2.22133 l -1.28534,2.22133 h -5.09733 l -2.54933,-4.41333 -2.54934,4.41333 h -5.09866 l -2.54934,-4.41333 -2.55066,4.41333 h -5.09867 l -2.54933,-4.41333 -2.54934,4.41333 h -5.09733 l -2.54933,-4.41333 -2.55067,4.41333 h -5.09867 l -2.54933,-4.41333 -2.54933,4.41333 h -5.09867 l -2.54933,-4.41333 -2.548,4.41333 h -5.1 l -2.54934,-4.41333 -2.54933,4.41333 h -5.09867 l -2.54933,-4.41333 -2.55067,4.41333 h -5.10266 l -2.544,-4.41333 -2.54933,4.41333 h -5.09867 l -2.54933,-4.41333 -2.54934,4.41333 h -5.09866 l -2.55067,-4.41333 -2.552,4.41333 h -5.096 l -2.54933,-4.41333 -2.54934,4.41333 h -5.09866 l -2.552,-4.41333 -2.548,4.41333 h -5.09867 l -2.55067,-4.41333 -2.548,4.41333 h -5.09866 l -2.54934,-4.41333 -2.55066,4.41333 h -5.09867 l -2.54933,-4.41333 -2.54934,4.41333 h -5.09866 l -2.548,-4.41333 -2.55067,4.41333 h -5.1 l -2.54667,-4.41333 -2.55066,4.41333 h -5.09734 l -2.552,-4.41333 -2.54933,4.41333 h -5.09867 l -2.54933,-4.41333 -2.54933,4.41333 h -5.09867 l -2.54933,-4.41333 -2.54934,4.41333 h -5.09866 l -2.54934,-4.41333 -2.55066,4.41333 h -5.09733 l -2.54934,-4.41333 -2.55066,4.41333 h -5.09734 l -2.55066,-4.41333 -2.54934,4.41333 h -5.09866 l -2.54934,-4.41333 -2.54933,4.41333 h -5.09867 l -2.55066,-4.41333 -2.548,4.41333 h -5.09867 l -2.54933,-4.41333 -2.55067,4.41333 h -5.09867 l -2.54933,-4.41333 -2.54933,4.41333 h -5.09734 l -2.55066,-4.41333 -2.548,4.41333 h -5.10067 l -2.54947,-4.41333 -2.54786,4.41333 h -5.09947 l -2.54947,-4.41333 -2.54946,4.41333 h -5.0996 l -2.548403,-4.41333 -2.54946,4.41333 h -5.09894 l -2.54946,-4.41333 -2.55,4.41333 h -5.098 l -2.54947,-4.41333 -2.55093,4.41333 h -5.098 l -2.54947,-4.41333 -2.54947,4.41333 h -5.09893 l -2.54893,-4.41333 -2.54947,4.41333 h -5.09907 l -2.54946,-4.41333 -2.54947,4.41333 h -5.0984 l -2.54947,-4.41333 -2.54946,4.41333 h -5.09854 l -2.54946,-4.41333 -2.55054,4.41333 h -5.09893 l -2.54893,-4.41333 -2.54787,4.41333 H 9.4578967 l -2.54947,-4.41333 -2.54947,4.41333 H 0.06670666 v -1.39466 l 1.74323004,-3.01867 2.54902,4.41333 h 5.09894 l 2.5510603,-4.41333 2.54947,4.41333 h 5.0968 l 2.54947,-4.41333 2.54946,4.41333 h 5.1 l 2.548,-4.41333 2.55054,4.41333 h 5.09893 l 2.54947,-4.41333 2.54893,4.41333 h 5.09893 l 2.54947,-4.41333 2.5496,4.41333 h 5.0984 l 2.54947,-4.41333 2.54946,4.41333 h 5.09894 l 2.5484,-4.41333 2.5496,4.41333 h 5.1004 l 2.54853,-4.41333 2.54947,4.41333 h 5.09946 l 2.54947,-4.41333 2.54947,4.41333 h 5.097863 l 2.55,-4.41333 2.5496,4.41333 h 5.09893 l 2.5484,-4.41333 2.55107,4.41333 h 5.09733 l 2.55,-4.41333 2.55067,4.41333 h 5.09866 l 2.54934,-4.41333 2.548,4.41333 h 5.09866 l 2.55067,-4.41333 2.548,4.41333 h 5.1 l 2.54933,-4.41333 2.54934,4.41333 h 5.09866 l 2.54934,-4.41333 2.54933,4.41333 h 5.09867 l 2.54933,-4.41333 2.54933,4.41333 h 5.1 l 2.548,-4.41333 2.54934,4.41333 h 5.1 l 2.54933,-4.41333 2.548,4.41333 h 5.1 l 2.54933,-4.41333 2.54933,4.41333 h 5.09867 l 2.54933,-4.41333 2.54934,4.41333 h 5.09866 l 2.54934,-4.41333 2.54933,4.41333 h 5.10133 l 2.548,-4.41333 2.54934,4.41333 h 5.09733 l 2.55067,-4.41333 2.54933,4.41333 h 5.09867 l 2.54933,-4.41333 2.54933,4.41333 h 5.09867 l 2.54933,-4.41333 2.54934,4.41333 h 5.1 l 2.54933,-4.41333 2.54933,4.41333 h 5.09867 l 2.548,-4.41333 2.55067,4.41333 h 5.1 l 2.548,-4.41333 2.55066,4.41333 h 5.09867 l 2.54933,-4.41333 2.54667,4.41333 h 5.10267 l 2.54933,-4.41333 2.54933,4.41333 h 5.09867 l 2.54933,-4.41333 2.54934,4.41333 h 5.09333 l 2.55466,-4.41333 2.548,4.41333 h 5.1 l 2.54934,-4.41333 2.54933,4.41333 h 5.09867 l 2.55066,-4.41333 2.54934,4.41333 h 5.09733 l 2.54933,-4.41333 2.54934,4.41333 h 5.09866 l 2.54934,-4.41333 2.54933,4.41333 h 5.1 l 2.54933,-4.41333 2.548,4.41333 h 5.09867 l 2.54933,-4.41333 2.54934,4.41333 h 5.1 l 2.548,-4.41333 2.55066,4.41333 h 5.09867 l 2.548,-4.41333 2.54933,4.41333 z m 0,-5.596 v -1.52 l -0.87867,1.52 h -4.98133 l -2.49467,-4.31466 -2.488,4.31466 h -4.98667 l -2.488,-4.31466 -2.49333,4.31466 h -4.98267 l -2.49333,-4.31466 -2.488,4.31466 h -4.98133 l -2.49334,-4.31466 -2.48933,4.31466 h -4.98667 l -2.48933,-4.31466 -2.49333,4.31466 h -4.98134 l -2.49466,-4.31466 -2.488,4.31466 h -4.98667 l -2.488,-4.31466 -2.49333,4.31466 h -4.98267 l -2.49333,-4.31466 -2.488,4.31466 h -4.98134 l -2.49466,-4.31466 -2.488,4.31466 h -4.98667 l -2.488,-4.31466 -2.49333,4.31466 h -4.984 l -2.49333,-4.31466 -2.49334,4.31466 h -4.98133 l -2.49067,-4.31466 -2.49066,4.31466 h -4.98267 l -2.49333,-4.31466 -2.49067,4.31466 h -4.98133 l -2.49067,-4.31466 -2.49333,4.31466 h -4.98134 l -2.492,-4.31466 -2.49066,4.31466 h -4.984 l -2.49067,-4.31466 -2.49333,4.31466 h -4.98267 l -2.49067,-4.31466 -2.49066,4.31466 h -4.984 l -2.49067,-4.31466 -2.492,4.31466 h -4.98267 l -2.492,-4.31466 -2.492,4.31466 h -4.984 l -2.48933,-4.31466 -2.49067,4.31466 h -4.984 l -2.492,-4.31466 -2.492,4.31466 h -4.98266 l -2.492,-4.31466 -2.48934,4.31466 h -4.98399 l -2.492,-4.31466 -2.49067,4.31466 h -4.984 l -2.492,-4.31466 -2.49067,4.31466 h -4.98266 l -2.49067,-4.31466 -2.49333,4.31466 h -4.98134 l -2.492,-4.31466 -2.49066,4.31466 h -4.984 l -2.492,-4.31466 -2.49067,4.31466 h -4.98133 l -2.49467,-4.31466 -2.49067,4.31466 h -4.98133 l -2.492,-4.31466 -2.492,4.31466 h -4.98267 l -2.49333,-4.31466 -2.49,4.31466 h -4.98187 l -2.49213,-4.31466 -2.49227,4.31466 h -4.98173 l -2.49267,-4.31466 -2.4912,4.31466 h -4.982793 l -2.49107,-4.31466 -2.49226,4.31466 h -4.98174 l -2.49226,-4.31466 -2.49054,4.31466 h -4.98386 l -2.4912,-4.31466 -2.4916,4.31466 h -4.98334 l -2.4912,-4.31466 -2.49053,4.31466 h -4.9844 l -2.49067,-4.31466 -2.4912,4.31466 h -4.98373 l -2.49227,-4.31466 -2.49066,4.31466 h -4.98334 l -2.49053,-4.31466 -2.4912,4.31466 h -4.9844 l -2.49053,-4.31466 -2.49174,4.31466 h -4.9844 l -2.49053,-4.31466 -2.4912,4.31466 H 9.2844267 l -2.4912,-4.31466 -2.49053,4.31466 H 0.06670666 v -1.296 l 1.74323004,-3.01866 2.49276,4.31466 h 4.98173 l 2.4916003,-4.31466 2.4912,4.31466 h 4.98173 l 2.49334,-4.31466 2.49106,4.31466 h 4.98227 l 2.49227,-4.31466 2.49213,4.31466 h 4.98173 l 2.4912,-4.31466 2.49214,4.31466 h 4.98293 l 2.49107,-4.31466 2.49266,4.31466 h 4.98187 l 2.49053,-4.31466 2.49387,4.31466 h 4.98173 l 2.49054,-4.31466 2.4928,4.31466 h 4.9828 l 2.4916,-4.31466 2.49226,4.31466 h 4.9828 l 2.49107,-4.31466 2.49067,4.31466 h 4.98333 l 2.490663,-4.31466 2.49213,4.31466 h 4.98387 l 2.4912,-4.31466 2.49053,4.31466 h 4.9844 l 2.4912,-4.31466 2.49067,4.31466 h 4.98333 l 2.492,-4.31466 2.49067,4.31466 h 4.984 l 2.49067,-4.31466 2.49066,4.31466 h 4.98534 l 2.49066,-4.31466 2.49067,4.31466 h 4.98267 l 2.492,-4.31466 2.492,4.31466 h 4.98266 l 2.49067,-4.31466 2.49067,4.31466 h 4.984 l 2.492,-4.31466 2.49066,4.31466 h 4.98267 l 2.492,-4.31466 2.492,4.31466 h 4.98267 l 2.49199,-4.31466 2.492,4.31466 h 4.98134 l 2.49066,-4.31466 2.492,4.31466 h 4.984 l 2.49067,-4.31466 2.49333,4.31466 h 4.98 l 2.492,-4.31466 2.492,4.31466 h 4.984 l 2.49067,-4.31466 2.492,4.31466 h 4.98267 l 2.492,-4.31466 2.492,4.31466 h 4.98133 l 2.492,-4.31466 2.49067,4.31466 h 4.984 l 2.492,-4.31466 2.492,4.31466 h 4.98266 l 2.48934,-4.31466 2.492,4.31466 h 4.984 l 2.49066,-4.31466 2.49067,4.31466 h 4.984 l 2.492,-4.31466 2.49067,4.31466 h 4.98133 l 2.49333,-4.31466 2.488,4.31466 h 4.98667 l 2.49333,-4.31466 2.49067,4.31466 h 4.98133 l 2.49334,-4.31466 2.49333,4.31466 h 4.98266 l 2.488,-4.31466 2.49334,4.31466 h 4.98133 l 2.488,-4.31466 2.49467,4.31466 h 4.98133 l 2.49333,-4.31466 2.49334,4.31466 h 4.98266 l 2.49334,-4.31466 2.488,4.31466 h 4.98266 l 2.49334,-4.31466 2.49333,4.31466 h 4.98267 l 2.488,-4.31466 2.49333,4.31466 h 4.98133 l 2.49334,-4.31466 2.48933,4.31466 h 4.98133 l 2.49334,-4.31466 2.49333,4.31466 h 4.98267 l 2.488,-4.31466 2.49333,4.31466 z m 0,-5.59466 v -1.62267 l -0.93467,1.62267 h -4.87067 l -2.432,-4.216 -2.432,4.216 h -4.87066 l -2.432,-4.216 -2.43334,4.216 h -4.864 l -2.43333,-4.216 -2.43733,4.216 h -4.86534 l -2.432,-4.216 -2.43733,4.216 h -4.86667 l -2.432,-4.216 -2.432,4.216 h -4.86933 l -2.43333,-4.216 -2.43334,4.216 h -4.86933 l -2.43333,-4.216 -2.43334,4.216 h -4.864 l -2.432,-4.216 -2.432,4.216 h -4.872 l -2.432,-4.216 -2.432,4.216 h -4.86933 l -2.43466,-4.216 -2.432,4.216 h -4.86934 l -2.43333,-4.216 -2.43333,4.216 h -4.86534 l -2.432,-4.216 -2.43333,4.216 h -4.86933 l -2.43334,-4.216 -2.43333,4.216 h -4.86533 l -2.436,-4.216 -2.432,4.216 h -4.868 l -2.43467,-4.216 -2.43333,4.216 h -4.86667 l -2.43333,-4.216 -2.432,4.216 h -4.86667 l -2.43467,-4.216 -2.43333,4.216 h -4.868 l -2.43333,-4.216 -2.432,4.216 h -4.868 l -2.43334,-4.216 -2.43333,4.216 h -4.86667 l -2.43333,-4.216 -2.43467,4.216 h -4.868 l -2.43333,-4.216 -2.43333,4.216 h -4.86667 l -2.43467,-4.216 -2.432,4.216 h -4.86666 l -2.43467,-4.216 -2.43333,4.216 h -4.86667 l -2.43466,-4.216 -2.432,4.216 h -4.868 l -2.432,-4.216 -2.43467,4.216 h -4.86667 l -2.43466,-4.216 -2.43334,4.216 h -4.86666 l -2.43334,-4.216 -2.43333,4.216 h -4.86667 l -2.43466,-4.216 -2.43334,4.216 h -4.86666 l -2.43334,-4.216 -2.43333,4.216 h -4.86667 l -2.43466,-4.216 -2.43334,4.216 h -4.86666 l -2.43494,-4.216 -2.4324,4.216 h -4.8676 l -2.4324,-4.216 -2.43426,4.216 h -4.86774 l -2.43386,-4.216 -2.43334,4.216 h -4.865063 l -2.43493,-4.216 -2.4344,4.216 h -4.86613 l -2.4328,-4.216 -2.43334,4.216 h -4.86826 l -2.43334,-4.216 -2.4344,4.216 h -4.86613 l -2.43387,-4.216 -2.43226,4.216 h -4.86814 l -2.43333,-4.216 -2.4344,4.216 h -4.8672 l -2.4328,-4.216 -2.43333,4.216 h -4.86667 l -2.43387,-4.216 -2.43386,4.216 h -4.8672 l -2.43334,-4.216 -2.43333,4.216 h -4.86827 l -2.43173,-4.216 -2.4344,4.216 H 9.1114967 l -2.4344,-4.216 -2.4348,4.216 H 0.06670666 v -1.19734 l 1.74323004,-3.01866 2.43236,4.216 h 4.8692 l 2.4322603,-4.216 2.43387,4.216 h 4.86613 l 2.4344,-4.216 2.43387,4.216 h 4.86667 l 2.43333,-4.216 2.43387,4.216 h 4.86773 l 2.4328,-4.216 2.43387,4.216 h 4.86613 l 2.43493,-4.216 2.43227,4.216 h 4.86773 l 2.4328,-4.216 2.43534,4.216 h 4.86613 l 2.43387,-4.216 2.43226,4.216 h 4.86774 l 2.43226,-4.216 2.436,4.216 h 4.86614 l 2.43386,-4.216 2.43227,4.216 h 4.86933 l 2.43227,-4.216 2.432793,4.216 h 4.8672 l 2.4344,-4.216 2.43334,4.216 h 4.86666 l 2.43334,-4.216 2.43426,4.216 h 4.86734 l 2.43333,-4.216 2.43333,4.216 h 4.868 l 2.432,-4.216 2.43467,4.216 h 4.86667 l 2.43333,-4.216 2.43333,4.216 h 4.868 l 2.43334,-4.216 2.43333,4.216 h 4.86667 l 2.43333,-4.216 2.43333,4.216 h 4.868 l 2.43334,-4.216 2.43333,4.216 h 4.86667 l 2.43466,-4.216 2.43334,4.216 h 4.86666 l 2.43334,-4.216 2.43333,4.216 h 4.868 l 2.43333,-4.216 2.43333,4.216 h 4.86667 l 2.43333,-4.216 2.43334,4.216 h 4.86666 l 2.43467,-4.216 2.43333,4.216 h 4.868 l 2.432,-4.216 2.43467,4.216 h 4.86667 l 2.43466,-4.216 2.43334,4.216 h 4.86533 l 2.43333,-4.216 2.43467,4.216 h 4.868 l 2.43467,-4.216 2.432,4.216 h 4.86533 l 2.43333,-4.216 2.43334,4.216 h 4.868 l 2.43466,-4.216 2.43334,4.216 h 4.868 l 2.432,-4.216 2.43333,4.216 h 4.86667 l 2.43333,-4.216 2.436,4.216 h 4.86533 l 2.43334,-4.216 2.432,4.216 h 4.86666 l 2.43734,-4.216 2.432,4.216 h 4.86666 l 2.43734,-4.216 2.43199,4.216 h 4.864 l 2.43334,-4.216 2.43866,4.216 h 4.864 l 2.432,-4.216 2.432,4.216 h 4.86667 l 2.43733,-4.216 2.432,4.216 h 4.86667 l 2.43733,-4.216 2.432,4.216 h 4.864 l 2.43334,-4.216 2.43333,4.216 h 4.86933 l 2.43334,-4.216 2.432,4.216 h 4.87066 l 2.432,-4.216 2.432,4.216 h 4.86534 l 2.43333,-4.216 2.43733,4.216 h 4.864 l 2.43334,-4.216 2.43733,4.216 z m 0,-5.59734 v -2.52533 l -1.45734,2.52533 h -4.748 l -2.38133,-4.11466 -2.37333,4.11466 h -4.752 l -2.37734,-4.11466 -2.37066,4.11466 h -4.75334 l -2.37733,-4.11466 -2.37733,4.11466 h -4.748 l -2.376,-4.11466 -2.376,4.11466 h -4.74934 l -2.376,-4.11466 -2.37866,4.11466 h -4.74667 l -2.37733,-4.11466 -2.372,4.11466 h -4.75867 l -2.37067,-4.11466 -2.376,4.11466 h -4.75466 l -2.37067,-4.11466 -2.37867,4.11466 h -4.752 l -2.376,-4.11466 -2.372,4.11466 h -4.75333 l -2.37733,-4.11466 -2.376,4.11466 h -4.74933 l -2.376,-4.11466 -2.376,4.11466 h -4.74934 l -2.37466,-4.11466 -2.37867,4.11466 h -4.75067 l -2.37466,-4.11466 -2.376,4.11466 h -4.752 l -2.37334,-4.11466 -2.37466,4.11466 h -4.752 l -2.376,-4.11466 -2.37467,4.11466 h -4.752 l -2.37733,-4.11466 -2.37467,4.11466 h -4.75067 l -2.37466,-4.11466 -2.376,4.11466 h -4.75067 l -2.376,-4.11466 -2.376,4.11466 h -4.75067 l -2.376,-4.11466 -2.376,4.11466 h -4.75066 l -2.376,-4.11466 -2.376,4.11466 h -4.75067 l -2.376,-4.11466 -2.37467,4.11466 h -4.752 l -2.376,-4.11466 -2.37466,4.11466 h -4.75067 l -2.37733,-4.11466 -2.37467,4.11466 h -4.75066 l -2.376,-4.11466 -2.376,4.11466 h -4.752 l -2.37467,-4.11466 -2.376,4.11466 h -4.75067 l -2.37466,-4.11466 -2.376,4.11466 h -4.75067 l -2.37733,-4.11466 -2.376,4.11466 h -4.74934 l -2.376,-4.11466 -2.37466,4.11466 h -4.752 l -2.37467,-4.11466 -2.37733,4.11466 h -4.75067 l -2.376,-4.11466 -2.37467,4.11466 h -4.752 l -2.376,-4.11466 -2.376,4.11466 h -4.75 l -2.37546,-4.11466 -2.37547,4.11466 h -4.75053 l -2.3772,-4.11466 -2.37494,4.11466 h -4.75266 l -2.37494,-4.11466 -2.375463,4.11466 h -4.7496 l -2.37706,-4.11466 -2.37494,4.11466 h -4.75106 l -2.37654,-4.11466 -2.3756,4.11466 h -4.75053 l -2.376,-4.11466 -2.37547,4.11466 h -4.75053 l -2.376,-4.11466 -2.37613,4.11466 h -4.75147 l -2.37453,-4.11466 -2.376,4.11466 h -4.7516 l -2.37454,-4.11466 -2.37493,4.11466 h -4.75267 l -2.37493,-4.11466 -2.37613,4.11466 h -4.7504 l -2.3772,-4.11466 -2.37387,4.11466 h -4.75213 l -2.37547,-4.11466 -2.37667,4.11466 H 8.9374967 l -2.37547,-4.11466 -2.37547,4.11466 H 0.06670666 v -1.096 l 1.74323004,-3.01866 2.37662,4.11466 h 4.75094 l 2.3756003,-4.11466 2.37386,4.11466 h 4.75214 l 2.3756,-4.11466 2.37653,4.11466 h 4.75107 l 2.37493,-4.11466 2.37547,4.11466 h 4.75106 l 2.3756,-4.11466 2.37707,4.11466 h 4.74947 l 2.37653,-4.11466 2.37507,4.11466 h 4.75053 l 2.376,-4.11466 2.37547,4.11466 h 4.75213 l 2.37547,-4.11466 2.37506,4.11466 h 4.75147 l 2.37507,-4.11466 2.37546,4.11466 h 4.75214 l 2.374,-4.11466 2.37706,4.11466 h 4.752 l 2.37347,-4.11466 2.37613,4.11466 h 4.750403 l 2.3772,-4.11466 2.37546,4.11466 h 4.75214 l 2.37546,-4.11466 2.37507,4.11466 h 4.75093 l 2.374,-4.11466 2.376,4.11466 h 4.752 l 2.37467,-4.11466 2.37733,4.11466 h 4.75067 l 2.37467,-4.11466 2.376,4.11466 h 4.752 l 2.376,-4.11466 2.376,4.11466 h 4.75066 l 2.37467,-4.11466 2.37467,4.11466 h 4.75333 l 2.37467,-4.11466 2.376,4.11466 h 4.75066 l 2.376,-4.11466 2.37467,4.11466 h 4.75067 l 2.37733,-4.11466 2.37467,4.11466 h 4.752 l 2.37466,-4.11466 2.376,4.11466 h 4.752 l 2.37467,-4.11466 2.376,4.11466 h 4.75066 l 2.37734,-4.11466 2.37466,4.11466 h 4.75067 l 2.376,-4.11466 2.37467,4.11466 h 4.752 l 2.37466,-4.11466 2.376,4.11466 h 4.752 l 2.37467,-4.11466 2.376,4.11466 h 4.752 l 2.37467,-4.11466 2.376,4.11466 h 4.75066 l 2.376,-4.11466 2.37467,4.11466 h 4.752 l 2.376,-4.11466 2.376,4.11466 h 4.75067 l 2.37466,-4.11466 2.37734,4.11466 h 4.748 l 2.37866,-4.11466 2.37334,4.11466 h 4.75066 l 2.37867,-4.11466 2.372,4.11466 h 4.75333 l 2.37734,-4.11466 2.372,4.11466 h 4.752 l 2.37733,-4.11466 2.372,4.11466 h 4.75333 l 2.376,-4.11466 2.37733,4.11466 h 4.748 l 2.376,-4.11466 2.376,4.11466 h 4.74934 l 2.37733,-4.11466 2.37733,4.11466 h 4.74667 l 2.37733,-4.11466 2.38134,4.11466 h 4.74933 l 2.37067,-4.11466 2.376,4.11466 h 4.75466 l 2.37067,-4.11466 2.37867,4.11466 h 4.752 l 2.37733,-4.11466 2.37067,4.11466 h 4.75466 l 2.376,-4.11466 2.37734,4.11466 h 4.748 l 2.376,-4.11466 2.376,4.11466 h 4.75466 l 2.37067,-4.11466 2.37733,4.11466 z m 0,-5.6 v -3.79466 l -0.12134,-0.21734 -2.32133,4.012 h -4.63733 l -2.31467,-4.012 -2.316,4.012 h -4.63733 l -2.32,-4.012 -2.316,4.012 h -4.636 l -2.316,-4.012 -2.31467,4.012 h -4.64267 l -2.316,-4.012 -2.31466,4.012 h -4.63734 l -2.316,-4.012 -2.316,4.012 h -4.64133 l -2.31467,-4.012 -2.31733,4.012 h -4.636 l -2.31467,-4.012 -2.32266,4.012 h -4.632 l -2.31467,-4.012 -2.32133,4.012 h -4.636 l -2.316,-4.012 -2.32,4.012 h -4.632 l -2.32133,-4.012 -2.31467,4.012 h -4.632 l -2.32133,-4.012 -2.32134,4.012 h -4.63066 l -2.32,-4.012 -2.31734,4.012 h -4.63333 l -2.32,-4.012 -2.316,4.012 h -4.63467 l -2.31866,-4.012 -2.32,4.012 h -4.63334 l -2.31733,-4.012 -2.31867,4.012 h -4.63333 l -2.31867,-4.012 -2.316,4.012 h -4.63466 l -2.32,-4.012 -2.31734,4.012 h -4.636 l -2.31733,-4.012 -2.31733,4.012 h -4.63334 l -2.32,-4.012 -2.316,4.012 h -4.63466 l -2.31867,-4.012 -2.31733,4.012 h -4.63734 l -2.316,-4.012 -2.31733,4.012 h -4.63733 l -2.316,-4.012 -2.31734,4.012 h -4.63733 l -2.316,-4.012 -2.31867,4.012 h -4.63466 l -2.31734,-4.012 -2.31866,4.012 h -4.63467 l -2.31733,-4.012 -2.31867,4.012 h -4.63466 l -2.31734,-4.012 -2.31866,4.012 h -4.63467 l -2.31867,-4.012 -2.316,4.012 h -4.636 l -2.31733,-4.012 -2.31867,4.012 h -4.636 l -2.316,-4.012 -2.31866,4.012 h -4.63467 l -2.31867,-4.012 -2.31733,4.012 h -4.63467 l -2.31866,-4.012 -2.316,4.012 h -4.636 l -2.31734,-4.012 -2.31733,4.012 h -4.6364 l -2.3172,-4.012 -2.31667,4.012 h -4.63693 l -2.3172,-4.012 -2.31827,4.012 h -4.63533 l -2.316663,-4.012 -2.3188,4.012 h -4.6348 l -2.31667,-4.012 -2.31826,4.012 h -4.6344 l -2.31827,-4.012 -2.3172,4.012 h -4.63533 l -2.31827,-4.012 -2.3172,4.012 h -4.63493 l -2.31814,-4.012 -2.31826,4.012 h -4.63547 l -2.3172,-4.012 -2.31707,4.012 h -4.63546 l -2.31667,-4.012 -2.3188,4.012 h -4.63533 l -2.31774,-4.012 -2.31666,4.012 h -4.636 l -2.31814,-4.012 -2.31666,4.012 h -4.63707 l -2.3172,-4.012 -2.3172,4.012 H 8.7620267 l -2.3172,-4.012 -2.31769,4.012 H 0.06670666 v -0.99333 l 1.74323004,-3.01867 2.3172,4.012 h 4.63489 l 2.3182703,-4.012 2.31813,4.012 h 4.6344 l 2.31827,-4.012 2.3188,4.012 h 4.6348 l 2.3172,-4.012 2.3188,4.012 h 4.6344 l 2.3172,-4.012 2.31813,4.012 h 4.63547 l 2.3172,-4.012 2.31826,4.012 h 4.63427 l 2.31827,-4.012 2.3172,4.012 h 4.6364 l 2.31666,-4.012 2.31827,4.012 h 4.63547 l 2.3172,-4.012 2.31813,4.012 h 4.63547 l 2.3172,-4.012 2.3172,4.012 h 4.63493 l 2.31707,-4.012 2.31773,4.012 h 4.635463 l 2.31867,-4.012 2.31666,4.012 h 4.63547 l 2.3188,-4.012 2.31813,4.012 h 4.63387 l 2.3188,-4.012 2.3176,4.012 h 4.63467 l 2.31733,-4.012 2.31867,4.012 h 4.63466 l 2.31734,-4.012 2.31733,4.012 h 4.636 l 2.31733,-4.012 2.31734,4.012 h 4.63466 l 2.31867,-4.012 2.31733,4.012 h 4.636 l 2.31734,-4.012 2.31866,4.012 h 4.63467 l 2.31733,-4.012 2.31734,4.012 h 4.636 l 2.316,-4.012 2.31866,4.012 h 4.636 l 2.31734,-4.012 2.31733,4.012 h 4.636 l 2.31733,-4.012 2.31733,4.012 h 4.63467 l 2.31867,-4.012 2.31866,4.012 h 4.63334 l 2.31866,-4.012 2.31867,4.012 h 4.63333 l 2.31867,-4.012 2.31867,4.012 h 4.636 l 2.316,-4.012 2.31866,4.012 h 4.636 l 2.316,-4.012 2.31734,4.012 h 4.63466 l 2.31867,-4.012 2.31733,4.012 h 4.63734 l 2.316,-4.012 2.31866,4.012 h 4.63467 l 2.31733,-4.012 2.316,4.012 h 4.636 l 2.31734,-4.012 2.316,4.012 h 4.63866 l 2.31734,-4.012 2.31733,4.012 h 4.636 l 2.31733,-4.012 2.316,4.012 h 4.63734 l 2.31466,-4.012 2.316,4.012 h 4.64267 l 2.31467,-4.012 2.31733,4.012 h 4.636 l 2.316,-4.012 2.316,4.012 h 4.636 l 2.316,-4.012 2.32,4.012 h 4.636 l 2.31733,-4.012 2.31467,4.012 h 4.63733 l 2.316,-4.012 2.32,4.012 h 4.632 l 2.32,-4.012 2.32133,4.012 h 4.632 l 2.31467,-4.012 2.32267,4.012 h 4.63066 l 2.32134,-4.012 2.32133,4.012 h 4.63067 l 2.32,-4.012 2.316,4.012 h 4.636 l 2.316,-4.012 2.32133,4.012 h 4.63067 l 2.32266,-4.012 2.31467,4.012 z m 0,-5.596 v -1.088 l -1.62934,-2.82533 -2.26,3.91333 h -4.52133 l -2.25867,-3.91333 -2.26,3.91333 h -4.52 l -2.26,-3.91333 -2.25866,3.91333 h -4.52 l -2.26,-3.91333 -2.26134,3.91333 h -4.51866 l -2.26,-3.91333 -2.26,3.91333 h -4.51467 l -2.26533,-3.91333 -2.25334,3.91333 h -4.52133 l -2.264,-3.91333 -2.256,3.91333 h -4.51867 l -2.26666,-3.91333 -2.25334,3.91333 h -4.52 l -2.26,-3.91333 -2.26,3.91333 h -4.52 l -2.25866,-3.91333 -2.26134,3.91333 h -4.51866 l -2.26133,-3.91333 -2.25867,3.91333 h -4.516 l -2.264,-3.91333 -2.25467,3.91333 h -4.52 l -2.26533,-3.91333 -2.256,3.91333 h -4.52 l -2.26,-3.91333 -2.26133,3.91333 h -4.51867 l -2.25867,-3.91333 -2.26133,3.91333 h -4.51867 l -2.25866,-3.91333 -2.26,3.91333 h -4.51867 l -2.26,-3.91333 -2.26267,3.91333 h -4.51733 l -2.25867,-3.91333 -2.26,3.91333 h -4.52 l -2.25866,-3.91333 -2.26134,3.91333 h -4.52 l -2.25733,-3.91333 -2.26,3.91333 h -4.51867 l -2.26,-3.91333 -2.26133,3.91333 h -4.51867 l -2.26,-3.91333 -2.26,3.91333 h -4.52 l -2.26,-3.91333 -2.26,3.91333 h -4.51733 l -2.26,-3.91333 -2.26,3.91333 h -4.51867 l -2.26133,-3.91333 -2.25867,3.91333 h -4.51999 l -2.26,-3.91333 -2.25867,3.91333 h -4.52 l -2.26,-3.91333 -2.25867,3.91333 h -4.52 l -2.26,-3.91333 -2.26,3.91333 h -4.51733 l -2.26133,-3.91333 -2.26,3.91333 h -4.52 l -2.25867,-3.91333 -2.26,3.91333 h -4.51867 l -2.26,-3.91333 -2.26,3.91333 h -4.51866 l -2.26,-3.91333 -2.26,3.91333 h -4.52 l -2.26,-3.91333 -2.25867,3.91333 h -4.51867 l -2.26066,-3.91333 -2.25987,3.91333 h -4.51933 l -2.25987,-3.91333 -2.2604,3.91333 h -4.51827 l -2.25986,-3.91333 -2.25934,3.91333 h -4.520393 l -2.25827,-3.91333 -2.26146,3.91333 h -4.5188 l -2.25987,-3.91333 -2.25933,3.91333 h -4.51987 l -2.2604,-3.91333 -2.25987,3.91333 h -4.51826 l -2.25934,-3.91333 -2.2604,3.91333 h -4.51986 l -2.25827,-3.91333 -2.26093,3.91333 h -4.51934 l -2.25933,-3.91333 -2.25987,3.91333 h -4.5204 l -2.25986,-3.91333 -2.25934,3.91333 h -4.51826 l -2.2604,-3.91333 -2.25987,3.91333 h -4.51987 l -2.25933,-3.91333 -2.2604,3.91333 h -4.5172 l -2.26253,-3.91333 -2.25734,3.91333 H 8.5896267 l -2.25987,-3.91333 -2.25992,3.91333 H 0.06670666 v -0.89333 l 1.74323004,-3.02 2.2599,3.91333 h 4.51979 l 2.2593303,-3.91333 2.2604,3.91333 h 4.51987 l 2.25987,-3.91333 2.25733,3.91333 h 4.51973 l 2.25987,-3.91333 2.26,3.91333 h 4.52027 l 2.2584,-3.91333 2.25986,3.91333 h 4.5192 l 2.25947,-3.91333 2.26093,3.91333 h 4.5192 l 2.25894,-3.91333 2.2604,3.91333 h 4.5192 l 2.25986,-3.91333 2.26,3.91333 h 4.51974 l 2.2588,-3.91333 2.25946,3.91333 h 4.52027 l 2.25987,-3.91333 2.26,3.91333 h 4.5192 l 2.25893,-3.91333 2.25987,3.91333 h 4.51973 l 2.259333,-3.91333 2.26106,3.91333 h 4.5192 l 2.2584,-3.91333 2.25987,3.91333 h 4.52027 l 2.25933,-3.91333 2.26,3.91333 h 4.52053 l 2.25867,-3.91333 2.26,3.91333 h 4.51867 l 2.26,-3.91333 2.26,3.91333 h 4.52 l 2.25866,-3.91333 2.26,3.91333 h 4.52 l 2.25867,-3.91333 2.26,3.91333 h 4.51867 l 2.26,-3.91333 2.26,3.91333 h 4.52133 l 2.25733,-3.91333 2.26,3.91333 h 4.52 l 2.26,-3.91333 2.26,3.91333 h 4.51867 l 2.25867,-3.91333 2.26133,3.91333 h 4.51867 l 2.25999,-3.91333 2.26,3.91333 h 4.52 l 2.25867,-3.91333 2.26,3.91333 h 4.52 l 2.25867,-3.91333 2.25866,3.91333 h 4.52 l 2.26,-3.91333 2.26,3.91333 h 4.52 l 2.26,-3.91333 2.25867,3.91333 h 4.52133 l 2.25734,-3.91333 2.26133,3.91333 h 4.51733 l 2.26,-3.91333 2.26,3.91333 h 4.52 l 2.26,-3.91333 2.26,3.91333 h 4.51867 l 2.26133,-3.91333 2.256,3.91333 h 4.52267 l 2.25867,-3.91333 2.26,3.91333 h 4.51866 l 2.26,-3.91333 2.25867,3.91333 h 4.52 l 2.26133,-3.91333 2.25734,3.91333 h 4.52133 l 2.25867,-3.91333 2.26133,3.91333 h 4.52133 l 2.25467,-3.91333 2.26533,3.91333 h 4.51867 l 2.256,-3.91333 2.26,3.91333 h 4.52 l 2.25866,-3.91333 2.26,3.91333 h 4.52 l 2.26134,-3.91333 2.25866,3.91333 h 4.52 l 2.25467,-3.91333 2.26533,3.91333 h 4.52 l 2.25467,-3.91333 2.264,3.91333 h 4.52 l 2.25467,-3.91333 2.26666,3.91333 h 4.51867 l 2.25467,-3.91333 2.26,3.91333 h 4.52 l 2.26,-3.91333 2.25866,3.91333 h 4.52134 l 2.25866,-3.91333 2.26134,3.91333 h 4.51866 l 2.26,-3.91333 2.26,3.91333 h 4.51867 l 2.26133,-3.91333 2.26,3.91333 z m 0,-5.596 v -2.424 l -1.40134,2.424 h -4.404 l -2.19866,-3.81466 -2.20267,3.81466 h -4.404 l -2.20267,-3.81466 -2.2,3.81466 h -4.40266 l -2.204,-3.81466 -2.19867,3.81466 h -4.404 l -2.20267,-3.81466 -2.204,3.81466 h -4.404 l -2.19866,-3.81466 -2.204,3.81466 h -4.404 l -2.19734,-3.81466 -2.204,3.81466 h -4.404 l -2.204,-3.81466 -2.19866,3.81466 h -4.404 l -2.20267,-3.81466 -2.20533,3.81466 h -4.396 l -2.204,-3.81466 -2.20534,3.81466 h -4.40266 l -2.19867,-3.81466 -2.20533,3.81466 h -4.40133 l -2.19867,-3.81466 -2.20533,3.81466 h -4.40267 l -2.204,-3.81466 -2.19867,3.81466 h -4.404 l -2.204,-3.81466 -2.20133,3.81466 h -4.404 l -2.2,-3.81466 -2.204,3.81466 h -4.4 l -2.20533,-3.81466 -2.20267,3.81466 h -4.4 l -2.20267,-3.81466 -2.20266,3.81466 h -4.404 l -2.20267,-3.81466 -2.20133,3.81466 h -4.40134 l -2.20266,-3.81466 -2.20134,3.81466 h -4.40266 l -2.20267,-3.81466 -2.20133,3.81466 h -4.404 l -2.20134,-3.81466 -2.20133,3.81466 h -4.404 l -2.20267,-3.81466 -2.20133,3.81466 h -4.40267 l -2.20266,-3.81466 -2.20134,3.81466 h -4.404 l -2.20266,-3.81466 -2.20134,3.81466 h -4.404 l -2.20133,-3.81466 -2.20133,3.81466 h -4.404 l -2.20134,-3.81466 -2.2,3.81466 h -4.40533 l -2.20133,-3.81466 -2.20267,3.81466 h -4.40266 l -2.20134,-3.81466 -2.20266,3.81466 h -4.404 l -2.20134,-3.81466 -2.20133,3.81466 h -4.404 l -2.20267,-3.81466 -2.20133,3.81466 h -4.404 l -2.20133,-3.81466 -2.20134,3.81466 h -4.40266 l -2.20267,-3.81466 -2.20133,3.81466 h -4.404 l -2.20134,-3.81466 -2.20133,3.81466 h -4.404 l -2.20133,-3.81466 -2.204,3.81466 h -4.40134 l -2.20266,-3.81466 -2.2016,3.81466 h -4.4032 l -2.20307,-3.81466 -2.20107,3.81466 h -4.40306 l -2.2016,-3.81466 -2.20267,3.81466 h -4.40467 l -2.199463,-3.81466 -2.202,3.81466 h -4.40426 l -2.20094,-3.81466 -2.20213,3.81466 h -4.40413 l -2.20107,-3.81466 -2.20213,3.81466 h -4.40254 l -2.20266,-3.81466 -2.20054,3.81466 h -4.40413 l -2.20267,-3.81466 -2.202,3.81466 h -4.40213 l -2.202,-3.81466 -2.20213,3.81466 h -4.40467 l -2.20053,-3.81466 -2.20107,3.81466 h -4.40413 l -2.2032,-3.81466 -2.20094,3.81466 h -4.4032 l -2.202,-3.81466 -2.20213,3.81466 h -4.4032 l -2.202,-3.81466 -2.20107,3.81466 h -4.40306 l -2.20214,-3.81466 -2.2021303,3.81466 h -4.40412 l -2.20157,-3.81466 -1.74323004,3.02 v 0.79466 H 4.0115067 l 2.20319,-3.81466 2.20093,3.81466 h 4.4042703 l 2.2004,-3.81466 2.20266,3.81466 h 4.40307 l 2.20267,-3.81466 2.20053,3.81466 h 4.40413 l 2.20267,-3.81466 2.20053,3.81466 h 4.40414 l 2.20106,-3.81466 2.20307,3.81466 h 4.4016 l 2.20253,-3.81466 2.20214,3.81466 h 4.40413 l 2.20107,-3.81466 2.20106,3.81466 h 4.40467 l 2.20053,-3.81466 2.2036,3.81466 h 4.4032 l 2.20147,-3.81466 2.20107,3.81466 h 4.4032 l 2.20146,-3.81466 2.20267,3.81466 h 4.40307 l 2.20213,-3.81466 2.20213,3.81466 h 4.401463 l 2.20374,-3.81466 2.20093,3.81466 h 4.40427 l 2.20253,-3.81466 2.20053,3.81466 h 4.40414 l 2.20106,-3.81466 2.20214,3.81466 h 4.40426 l 2.20134,-3.81466 2.2,3.81466 h 4.40533 l 2.20133,-3.81466 2.20267,3.81466 h 4.40267 l 2.20133,-3.81466 2.20267,3.81466 h 4.404 l 2.20133,-3.81466 2.20133,3.81466 h 4.40267 l 2.204,-3.81466 2.2,3.81466 h 4.404 l 2.20133,-3.81466 2.20267,3.81466 h 4.40267 l 2.20266,-3.81466 2.20134,3.81466 h 4.404 l 2.20133,-3.81466 2.20133,3.81466 h 4.404 l 2.20134,-3.81466 2.20399,3.81466 h 4.40134 l 2.20133,-3.81466 2.20267,3.81466 h 4.40266 l 2.20267,-3.81466 2.20133,3.81466 h 4.404 l 2.20267,-3.81466 2.20133,3.81466 h 4.404 l 2.20134,-3.81466 2.20133,3.81466 h 4.404 l 2.2,-3.81466 2.204,3.81466 h 4.40267 l 2.20133,-3.81466 2.20267,3.81466 h 4.404 l 2.2,-3.81466 2.20266,3.81466 h 4.404 l 2.20134,-3.81466 2.2,3.81466 h 4.404 l 2.20133,-3.81466 2.20267,3.81466 h 4.40533 l 2.20133,-3.81466 2.19867,3.81466 h 4.408 l 2.2,-3.81466 2.2,3.81466 h 4.404 l 2.204,-3.81466 2.2,3.81466 h 4.40533 l 2.19867,-3.81466 2.20533,3.81466 h 4.40267 l 2.19867,-3.81466 2.204,3.81466 h 4.404 l 2.19733,-3.81466 2.204,3.81466 h 4.404 l 2.20266,-3.81466 2.2,3.81466 h 4.40934 l 2.19733,-3.81466 2.19867,3.81466 h 4.408 l 2.2,-3.81466 2.204,3.81466 h 4.40266 l 2.19867,-3.81466 2.20533,3.81466 h 4.40134 l 2.2,-3.81466 2.204,3.81466 h 4.40266 l 2.204,-3.81466 2.2,3.81466 h 4.40667 l 2.2,-3.81466 2.204,3.81466 h 4.40267 l 2.19866,-3.81466 2.204,3.81466 h 4.40267 l 2.20533,-3.81466 2.19867,3.81466 h 4.40133 l 2.20534,-3.81466 2.19866,3.81466 z m 0,-5.59866 v -0.68667 l -1.74667,-3.0266703 -2.14267,3.7133403 h -4.292 l -2.14266,-3.7133403 -2.144,3.7133403 h -4.28534 l -2.144,-3.7133403 -2.14133,3.7133403 h -4.292 l -2.14267,-3.7133403 -2.144,3.7133403 h -4.28666 l -2.14267,-3.7133403 -2.14667,3.7133403 h -4.28666 l -2.144,-3.7133403 -2.14267,3.7133403 h -4.28667 l -2.14266,-3.7133403 -2.148,3.7133403 h -4.28534 l -2.144,-3.7133403 -2.14266,3.7133403 h -4.292 l -2.14267,-3.7133403 -2.14267,3.7133403 h -4.28666 l -2.148,-3.7133403 -2.13867,3.7133403 h -4.29067 l -2.144,-3.7133403 -2.14266,3.7133403 h -4.28533 l -2.14267,-3.7133403 -2.14933,3.7133403 h -4.28667 l -2.14267,-3.7133403 -2.14266,3.7133403 h -4.28667 l -2.14667,-3.7133403 -2.14266,3.7133403 h -4.288 l -2.14534,-3.7133403 -2.14266,3.7133403 h -4.28934 l -2.14133,-3.7133403 -2.14533,3.7133403 h -4.28667 l -2.144,-3.7133403 -2.144,3.7133403 h -4.28667 l -2.14533,-3.7133403 -2.14267,3.7133403 h -4.28933 l -2.14267,-3.7133403 -2.144,3.7133403 h -4.28666 l -2.14534,-3.7133403 -2.144,3.7133403 h -4.288 l -2.14266,-3.7133403 -2.144,3.7133403 h -4.28667 l -2.14533,-3.7133403 -2.14267,3.7133403 h -4.28933 l -2.14267,-3.7133403 -2.144,3.7133403 h -4.288 l -2.14267,-3.7133403 -2.14533,3.7133403 h -4.28667 l -2.14533,-3.7133403 -2.14267,3.7133403 h -4.28666 l -2.144,-3.7133403 -2.144,3.7133403 h -4.288 l -2.144,-3.7133403 -2.14267,3.7133403 h -4.288 l -2.144,-3.7133403 -2.144,3.7133403 h -4.288 l -2.14266,-3.7133403 -2.144,3.7133403 h -4.288 l -2.14534,-3.7133403 -2.144,3.7133403 h -4.288 l -2.14133,-3.7133403 -2.14533,3.7133403 h -4.28667 l -2.144,-3.7133403 -2.144,3.7133403 h -4.28667 l -2.14533,-3.7133403 -2.144,3.7133403 h -4.288 l -2.14267,-3.7133403 -2.14533,3.7133403 h -4.28533 l -2.14534,-3.7133403 -2.14266,3.7133403 h -4.28854 l -2.1448,-3.7133403 -2.14226,3.7133403 h -4.288 l -2.1448,-3.7133403 -2.1432,3.7133403 h -4.288 l -2.1432,-3.7133403 -2.14387,3.7133403 h -4.287463 l -2.14373,-3.7133403 -2.1448,3.7133403 h -4.28694 l -2.14426,-3.7133403 -2.1432,3.7133403 h -4.28854 l -2.14333,-3.7133403 -2.1432,3.7133403 h -4.28907 l -2.14266,-3.7133403 -2.14427,3.7133403 h -4.288 l -2.1428,-3.7133403 -2.14427,3.7133403 h -4.288 l -2.14373,-3.7133403 -2.14427,3.7133403 h -4.2864 l -2.1444,-3.7133403 -2.14426,3.7133403 h -4.288 l -2.14374,-3.7133403 -2.1432,3.7133403 h -4.28746 l -2.14427,-3.7133403 -2.14427,3.7133403 h -4.28813 l -2.14267,-3.7133403 -2.14426,3.7133403 h -4.28747 L 10.384957,7.6839967 8.2417567,11.397337 h -4.28754 L 1.8099367,7.6839967 0.06670666,10.705337 v 0.692 H 3.9542167 l 2.14328,-3.7133403 2.14426,3.7133403 h 4.2874703 l 2.14267,-3.7133403 2.1448,3.7133403 h 4.28693 l 2.1448,-3.7133403 2.14333,3.7133403 h 4.28854 l 2.14426,-3.7133403 2.1432,3.7133403 h 4.28694 l 2.1448,-3.7133403 2.1432,3.7133403 h 4.28866 l 2.1432,-3.7133403 2.1432,3.7133403 h 4.288 l 2.1432,-3.7133403 2.1448,3.7133403 h 4.28707 l 2.1432,-3.7133403 2.1448,3.7133403 h 4.28693 l 2.14427,-3.7133403 2.1448,3.7133403 h 4.28653 l 2.14374,-3.7133403 2.1448,3.7133403 h 4.28746 l 2.14267,-3.7133403 2.14427,3.7133403 h 4.28853 l 2.143193,-3.7133403 2.14427,3.7133403 h 4.28707 l 2.14373,-3.7133403 2.14427,3.7133403 h 4.288 l 2.14373,-3.7133403 2.14427,3.7133403 h 4.28706 l 2.1432,-3.7133403 2.14534,3.7133403 h 4.288 l 2.14133,-3.7133403 2.144,3.7133403 h 4.288 l 2.14267,-3.7133403 2.14533,3.7133403 h 4.28933 l 2.14134,-3.7133403 2.14533,3.7133403 h 4.288 l 2.144,-3.7133403 2.14267,3.7133403 h 4.28666 l 2.14534,-3.7133403 2.14266,3.7133403 h 4.28934 l 2.14266,-3.7133403 2.14534,3.7133403 h 4.28666 l 2.14267,-3.7133403 2.14533,3.7133403 h 4.288 l 2.14267,-3.7133403 2.14533,3.7133403 h 4.28667 l 2.144,-3.7133403 2.144,3.7133403 h 4.288 l 2.14266,-3.7133403 2.144,3.7133403 h 4.288 l 2.144,-3.7133403 2.14267,3.7133403 h 4.288 l 2.144,-3.7133403 2.144,3.7133403 h 4.28667 l 2.144,-3.7133403 2.14533,3.7133403 h 4.288 l 2.144,-3.7133403 2.14267,3.7133403 h 4.28666 l 2.14534,-3.7133403 2.14266,3.7133403 h 4.28934 l 2.14266,-3.7133403 2.144,3.7133403 h 4.28667 l 2.144,-3.7133403 2.14533,3.7133403 h 4.288 l 2.144,-3.7133403 2.14267,3.7133403 h 4.288 l 2.14267,-3.7133403 2.144,3.7133403 h 4.28666 l 2.148,-3.7133403 2.14134,3.7133403 h 4.288 l 2.14266,-3.7133403 2.14534,3.7133403 h 4.28933 l 2.13867,-3.7133403 2.148,3.7133403 h 4.28533 l 2.14267,-3.7133403 2.144,3.7133403 h 4.292 l 2.14266,-3.7133403 2.14267,3.7133403 h 4.28666 l 2.14267,-3.7133403 2.148,3.7133403 h 4.28667 l 2.144,-3.7133403 2.14266,3.7133403 h 4.28534 l 2.148,-3.7133403 2.144,3.7133403 h 4.28666 l 2.14267,-3.7133403 2.14267,3.7133403 h 4.29066 l 2.13867,-3.7133403 2.148,3.7133403 h 4.28667 l 2.14266,-3.7133403 2.144,3.7133403 h 4.28934 l 2.144,-3.7133403 2.14266,3.7133403 h 4.28667 l 2.148,-3.7133403 2.144,3.7133403 h 4.28533 l 2.14267,-3.7133403 2.14267,3.7133403 h 4.28666 l 2.14934,-3.7133403 2.14266,3.7133403 z m 0,-5.5973403 v -2.592 l -0.58934,-1.02133 -2.08666,3.61333 h -4.16934 l -2.08666,-3.61333 -2.088,3.61333 h -4.16934 l -2.08666,-3.61333 -2.08667,3.61333 h -4.16933 l -2.088,-3.61333 -2.08267,3.61333 h -4.17467 l -2.08266,-3.61333 -2.08667,3.61333 h -4.17467 l -2.08666,-3.61333 -2.088,3.61333 h -4.16934 l -2.08666,-3.61333 -2.08267,3.61333 h -4.17333 l -2.088,-3.61333 -2.08134,3.61333 h -4.17466 l -2.088,-3.61333 -2.08667,3.61333 h -4.16933 l -2.088,-3.61333 -2.08134,3.61333 h -4.17466 l -2.08267,-3.61333 -2.08667,3.61333 h -4.16933 l -2.08666,-3.61333 -2.088,3.61333 h -4.17334 l -2.08266,-3.61333 -2.08667,3.61333 h -4.17067 l -2.08666,-3.61333 -2.08667,3.61333 h -4.17067 l -2.088,-3.61333 -2.08666,3.61333 h -4.16934 l -2.08666,-3.61333 -2.084,3.61333 h -4.17334 l -2.084,-3.61333 -2.088,3.61333 h -4.172 l -2.08533,-3.61333 -2.088,3.61333 h -4.17067 l -2.084,-3.61333 -2.08666,3.61333 h -4.17067 l -2.08533,-3.61333 -2.088,3.61333 h -4.172 l -2.08667,-3.61333 -2.08533,3.61333 h -4.172 l -2.08534,-3.61333 -2.08666,3.61333 h -4.17067 l -2.08667,-3.61333 -2.084,3.61333 h -4.17333 l -2.08667,-3.61333 -2.08533,3.61333 h -4.17067 l -2.08533,-3.61333 -2.088,3.61333 h -4.17067 l -2.08666,-3.61333 -2.08534,3.61333 h -4.172 l -2.08533,-3.61333 -2.08533,3.61333 h -4.17333 l -2.08667,-3.61333 -2.08533,3.61333 h -4.172 l -2.08534,-3.61333 -2.08533,3.61333 h -4.17333 l -2.084,-3.61333 -2.08534,3.61333 h -4.172 l -2.08666,-3.61333 -2.08667,3.61333 h -4.17067 l -2.08666,-3.61333 -2.08534,3.61333 h -4.17066 l -2.08667,-3.61333 -2.08667,3.61333 h -4.172 l -2.08533,-3.61333 -2.08533,3.61333 h -4.17334 l -2.08533,-3.61333 -2.08533,3.61333 h -4.172 l -2.08667,-3.61333 -2.08533,3.61333 h -4.172 l -2.08574,-3.61333 -2.086,3.61333 h -4.17026 l -2.08747,-3.61333 -2.086,3.61333 h -4.17027 l -2.0876,-3.61333 -2.08586,3.61333 h -4.170263 l -2.0876,-3.61333 -2.08427,3.61333 h -4.172 l -2.08587,-3.61333 -2.08746,3.61333 h -4.1704 l -2.08587,-3.61333 -2.086,3.61333 h -4.17187 l -2.0848,-3.61333 -2.08706,3.61333 h -4.1708 l -2.086,-3.61333 -2.0864,3.61333 h -4.17187 l -2.08693,-3.61333 -2.086,3.61333 h -4.1708 l -2.086,-3.61333 -2.08587,3.61333 h -4.17187 l -2.086,-3.61333 -2.08493,3.61333 h -4.1728 l -2.086,-3.61333 -2.086,3.61333 h -4.17187 l -2.08426,-3.61333 -2.0876,3.61333 h -4.17027 l -2.08747,-3.61333 -2.0844,3.61333 H 8.0682967 l -2.08654,-3.61333 -2.08536,3.61333 H 0.06670666 v -0.592 l 1.74323004,-3.02133 2.08646,3.61333 h 4.1719 l 2.0853303,-3.61333 2.08653,3.61333 h 4.17187 l 2.086,-3.61333 2.08427,3.61333 h 4.17186 l 2.086,-3.61333 2.08587,3.61333 h 4.172 l 2.08587,-3.61333 2.08693,3.61333 h 4.17093 l 2.08747,-3.61333 2.0844,3.61333 h 4.17187 l 2.08586,-3.61333 2.08494,3.61333 h 4.17293 l 2.08493,-3.61333 2.08694,3.61333 h 4.1724 l 2.08493,-3.61333 2.08587,3.61333 h 4.17186 l 2.086,-3.61333 2.08587,3.61333 h 4.17187 l 2.086,-3.61333 2.0844,3.61333 h 4.17333 l 2.086,-3.61333 2.086,3.61333 h 4.17187 l 2.085863,-3.61333 2.0844,3.61333 h 4.17346 l 2.0844,-3.61333 2.08587,3.61333 h 4.17347 l 2.0844,-3.61333 2.08586,3.61333 h 4.17174 l 2.08533,-3.61333 2.08667,3.61333 h 4.172 l 2.08666,-3.61333 2.08534,3.61333 h 4.17066 l 2.08667,-3.61333 2.08667,3.61333 h 4.17066 l 2.088,-3.61333 2.084,3.61333 h 4.17334 l 2.084,-3.61333 2.08666,3.61333 h 4.172 l 2.08534,-3.61333 2.08533,3.61333 h 4.17333 l 2.08534,-3.61333 2.08666,3.61333 h 4.16934 l 2.08666,-3.61333 2.08667,3.61333 h 4.17067 l 2.08666,-3.61333 2.08534,3.61333 h 4.172 l 2.08799,-3.61333 2.08534,3.61333 h 4.17066 l 2.08667,-3.61333 2.08533,3.61333 h 4.172 l 2.08534,-3.61333 2.08533,3.61333 h 4.17333 l 2.084,-3.61333 2.08667,3.61333 h 4.172 l 2.08533,-3.61333 2.088,3.61333 h 4.17067 l 2.08533,-3.61333 2.08534,3.61333 h 4.172 l 2.08666,-3.61333 2.08534,3.61333 h 4.172 l 2.08666,-3.61333 2.08534,3.61333 h 4.17333 l 2.084,-3.61333 2.08667,3.61333 h 4.17066 l 2.08667,-3.61333 2.084,3.61333 h 4.17333 l 2.08534,-3.61333 2.08666,3.61333 h 4.172 l 2.08534,-3.61333 2.088,3.61333 h 4.17066 l 2.08534,-3.61333 2.084,3.61333 h 4.17466 l 2.084,-3.61333 2.08667,3.61333 h 4.17333 l 2.08267,-3.61333 2.088,3.61333 h 4.16933 l 2.08667,-3.61333 2.08667,3.61333 h 4.17466 l 2.08267,-3.61333 2.08666,3.61333 h 4.16934 l 2.08666,-3.61333 2.088,3.61333 h 4.16934 l 2.08666,-3.61333 2.08267,3.61333 h 4.17467 l 2.08666,-3.61333 2.088,3.61333 h 4.16934 l 2.08666,-3.61333 2.08667,3.61333 h 4.16933 l 2.088,-3.61333 2.08134,3.61333 h 4.17466 l 2.08667,-3.61333 2.088,3.61333 h 4.16933 l 2.08667,-3.61333 2.088,3.61333 h 4.17067 l 2.08666,-3.61333 2.08267,3.61333 h 4.17333 l 2.08267,-3.61333 2.08667,3.61333 h 4.17466 l 2.088,-3.61333 2.08134,3.61333 z m 0,-5.59733004 v -0.136 h -2.072 l -0.0813,0.136 h -4.052 l -0.0813,-0.136 h -3.90133 l -0.0747,0.136 h -4.05733 l -0.0773,-0.136 h -3.89866 l -0.0827,0.136 h -4.052 l -0.0827,-0.136 h -3.89466 l -0.08,0.136 h -4.05334 l -0.0813,-0.136 h -3.89467 l -0.0813,0.136 h -4.05733 l -0.0773,-0.136 h -3.9 l -0.0813,0.136 h -4.052 l -0.0813,-0.136 h -3.896 l -0.08,0.136 h -4.05734 l -0.076,-0.136 h -3.896 l -0.0813,0.136 h -4.052 l -0.088,-0.136 h -3.89333 l -0.0773,0.136 h -4.05733 l -0.076,-0.136 h -3.90133 l -0.08,0.136 h -4.052 l -0.0813,-0.136 h -3.896 l -0.0813,0.136 h -4.05733 l -0.076,-0.136 h -3.896 l -0.08,0.136 h -4.05867 l -0.0813,-0.136 h -3.89333 l -0.0827,0.136 h -4.05733 l -0.076,-0.136 h -3.89467 l -0.0827,0.136 h -4.056 l -0.076,-0.136 h -3.89733 l -0.0827,0.136 h -4.05333 l -0.0827,-0.136 h -3.89466 l -0.0787,0.136 h -4.056 l -0.0813,-0.136 h -3.896 l -0.08,0.136 h -4.056 l -0.08,-0.136 h -3.89467 l -0.0813,0.136 h -4.056 l -0.08,-0.136 h -3.89467 l -0.0813,0.136 h -4.056 l -0.08,-0.136 h -3.89734 l -0.0773,0.136 h -4.05733 l -0.0787,-0.136 h -3.896 l -0.0813,0.136 h -4.05467 l -0.0813,-0.136 h -3.89467 l -0.08,0.136 h -4.056 l -0.0787,-0.136 h -3.896 l -0.0813,0.136 h -4.056 l -0.08,-0.136 h -3.896 l -0.0787,0.136 h -4.05733 l -0.08,-0.136 h -3.89467 l -0.0813,0.136 h -4.05467 l -0.0813,-0.136 h -3.896 l -0.0787,0.136 h -4.056 l -0.08,-0.136 h -3.896 l -0.0813,0.136 h -4.05467 l -0.0787,-0.136 h -3.89867 l -0.0787,0.136 h -4.05599 l -0.08,-0.136 h -3.89467 l -0.08,0.136 h -4.05733 l -0.08,-0.136 h -3.896 l -0.08,0.136 h -4.056 l -0.0813,-0.136 h -3.89466 l -0.08,0.136 h -4.05467 l -0.08,-0.136 h -3.89733 l -0.0787,0.136 h -4.056 l -0.08,-0.136 h -3.896 l -0.08,0.136 h -4.056 l -0.08,-0.136 h -3.896 l -0.08,0.136 h -4.056 l -0.0813,-0.136 h -3.89467 l -0.08,0.136 h -4.056 l -0.08,-0.136 h -3.896 l -0.0813,0.136 H 133.628 l -0.08,-0.136 h -3.896 l -0.08,0.136 h -4.05733 l -0.08,-0.136 h -3.89413 l -0.0803,0.136 h -4.05773 l -0.0787,-0.136 h -3.89693 l -0.0791,0.136 h -4.0568 l -0.0787,-0.136 h -3.89693 l -0.0796,0.136 h -4.05627 l -0.0787,-0.136 h -3.897863 l -0.0797,0.136 h -4.05574 l -0.0792,-0.136 h -3.89533 l -0.0812,0.136 h -4.0552 l -0.0803,-0.136 h -3.89627 l -0.0797,0.136 h -4.0552 l -0.0801,-0.136 h -3.8964 l -0.0813,0.136 h -4.0552 l -0.0796,-0.136 h -3.89533 l -0.0803,0.136 h -4.05573 l -0.0812,-0.136 h -3.89534 l -0.0801,0.136 h -4.0552 l -0.0803,-0.136 h -3.89586 l -0.0801,0.136 h -4.0552 l -0.0803,-0.136 h -3.8964 l -0.0801,0.136 h -4.05574 l -0.0787,-0.136 h -3.89693 l -0.0796,0.136 h -4.05627 l -0.0803,-0.136 h -3.89626 l -0.0787,0.136 h -4.0568 l -0.0799,-0.136 h -3.89627 l -0.0803,0.136 h -4.05627 l -0.0787,-0.136 H 7.9734867 l -0.0792,0.136 h -4.05779 l -0.0792,-0.136 H 0.06666666 v 0.136 H 3.8364667 l 0.0812,-0.136 h 3.89641 l 0.0801,0.136 h 4.0546603 l 0.0813,-0.136 h 3.89374 l 0.0812,0.136 h 4.05626 l 0.0787,-0.136 h 3.8968 l 0.0813,0.136 h 4.0552 l 0.0797,-0.136 h 3.8948 l 0.0817,0.136 h 4.0552 l 0.0797,-0.136 h 3.8968 l 0.0792,0.136 h 4.0568 l 0.0801,-0.136 h 3.89534 l 0.0797,0.136 h 4.05626 l 0.0796,-0.136 h 3.89694 l 0.0787,0.136 h 4.05666 l 0.0792,-0.136 h 3.89694 l 0.0796,0.136 h 4.0552 l 0.0803,-0.136 h 3.89693 l 0.078,0.136 h 4.05787 l 0.0803,-0.136 h 3.8948 l 0.0801,0.136 h 4.05626 l 0.0787,-0.136 h 3.89734 l 0.0792,0.136 h 4.05573 l 0.0803,-0.136 h 3.89627 l 0.0792,0.136 h 4.056253 l 0.0801,-0.136 h 3.89586 l 0.0803,0.136 h 4.0552 l 0.0801,-0.136 h 3.8964 l 0.0803,0.136 h 4.05467 l 0.0812,-0.136 h 3.89533 l 0.0812,0.136 h 4.0544 l 0.0787,-0.136 h 3.89866 l 0.08,0.136 h 4.056 l 0.08,-0.136 h 3.89467 l 0.0787,0.136 h 4.05733 l 0.08,-0.136 h 3.896 l 0.08,0.136 h 4.056 l 0.08,-0.136 h 3.89467 l 0.0813,0.136 h 4.056 l 0.08,-0.136 h 3.896 l 0.08,0.136 h 4.056 l 0.0787,-0.136 h 3.896 l 0.0813,0.136 h 4.056 l 0.0787,-0.136 h 3.896 l 0.08,0.136 h 4.056 l 0.0813,-0.136 h 3.89467 l 0.08,0.136 h 4.056 l 0.08,-0.136 h 3.89733 l 0.08,0.136 h 4.05467 l 0.08,-0.136 h 3.89466 l 0.0813,0.136 h 4.056 l 0.08,-0.136 h 3.896 l 0.0787,0.136 h 4.05733 l 0.0787,-0.136 h 3.89733 l 0.08,0.136 h 4.056 l 0.08,-0.136 h 3.89467 l 0.08,0.136 h 4.056 l 0.08,-0.136 h 3.89733 l 0.08,0.136 h 4.05467 l 0.08,-0.136 h 3.89733 l 0.0787,0.136 h 4.056 l 0.0813,-0.136 h 3.896 l 0.0787,0.136 h 4.056 l 0.08,-0.136 h 3.896 l 0.0787,0.136 h 4.056 l 0.0813,-0.136 h 3.896 l 0.08,0.136 h 4.05467 l 0.0827,-0.136 h 3.89467 l 0.0787,0.136 h 4.056 l 0.08,-0.136 h 3.89466 l 0.0813,0.136 h 4.056 l 0.0813,-0.136 h 3.89467 l 0.08,0.136 h 4.05733 l 0.0773,-0.136 h 3.896 l 0.0827,0.136 h 4.056 l 0.0787,-0.136 h 3.89466 l 0.08,0.136 h 4.056 l 0.0827,-0.136 h 3.892 l 0.0813,0.136 h 4.05334 l 0.0813,-0.136 h 3.9 l 0.076,0.136 h 4.05733 l 0.0827,-0.136 h 3.89333 l 0.0827,0.136 h 4.052 l 0.0813,-0.136 h 3.896 l 0.08,0.136 h 4.05867 l 0.076,-0.136 h 3.89866 l 0.0773,0.136 h 4.05733 l 0.076,-0.136 h 3.9 l 0.0813,0.136 h 4.05867 l 0.076,-0.136 h 3.89467 l 0.0813,0.136 h 4.05333 l 0.08,-0.136 h 3.896 l 0.0813,0.136 h 4.05733 l 0.08,-0.136 h 3.896 l 0.076,0.136 h 4.05867 l 0.0813,-0.136 h 3.89467 l 0.0813,0.136 h 4.05733 l 0.076,-0.136 h 3.89467 l 0.0827,0.136 h 4.05733 l 0.08,-0.136 h 3.896 l 0.076,0.136 h 4.05867 l 0.0813,-0.136 h 3.89333 l 0.0827,0.136 h 4.05733 l 0.076,-0.136 h 3.89467 l 0.0813,0.136 h 2.15334" />
    </pattern>
  </defs>
  <sodipodi:namedview
     id="base"
     pagecolor="#ffffff"
     bordercolor="#666666"
     borderopacity="1.0"
     inkscape:pageopacity="0.0"
     inkscape:pageshadow="2"
     inkscape:zoom="2.8142843"
     inkscape:cx="240.5"
     inkscape:cy="44.429907"
     inkscape:document-units="px"
     inkscape:current-layer="layer1"
     showgrid="false"
     units="px"
     inkscape:showpageshadow="false"
     inkscape:window-width="1920"
     inkscape:window-height="994"
     inkscape:window-x="0"
     inkscape:window-y="21"
     inkscape:window-maximized="1" />
  <metadata
     id="metadata7">
    <rdf:RDF>
      <cc:Work
         rdf:about="">
        <dc:format>image/svg+xml</dc:format>
        <dc:type
           rdf:resource="http://purl.org/dc/dcmitype/StillImage" />
        <dc:title></dc:title>
        <cc:license
           rdf:resource="http://creativecommons.org/licenses/by-sa/4.0/" />
        <dc:date>2019</dc:date>
        <dc:creator>
          <cc:Agent>
            <dc:title>Cristian Pozzessere  &lt; ilnanny &gt;</dc:title>
          </cc:Agent>
        </dc:creator>
        <dc:subject>
          <rdf:Bag>
            <rdf:li>ilnanny</rdf:li>
          </rdf:Bag>
        </dc:subject>
      </cc:Work>
      <cc:License
         rdf:about="http://creativecommons.org/licenses/by-sa/4.0/">
        <cc:permits
           rdf:resource="http://creativecommons.org/ns#Reproduction" />
        <cc:permits
           rdf:resource="http://creativecommons.org/ns#Distribution" />
        <cc:requires
           rdf:resource="http://creativecommons.org/ns#Notice" />
        <cc:requires
           rdf:resource="http://creativecommons.org/ns#Attribution" />
        <cc:permits
           rdf:resource="http://creativecommons.org/ns#DerivativeWorks" />
        <cc:requires
           rdf:resource="http://creativecommons.org/ns#ShareAlike" />
      </cc:License>
    </rdf:RDF>
  </metadata>
  <g
     inkscape:label="Livello 1"
     inkscape:groupmode="layer"
     id="layer1"
     transform="translate(0,-944.3622)">
    <rect
       style="fill:url(#pattern1786);stroke:none;stroke-width:1.13328195"
       width="480.05099"
       height="107.71786"
       x="0.47450256"
       y="944.5033"
       id="rect1642" />
  </g>
</svg>
