<?xml version="1.0" encoding="UTF-8" standalone="no"?>
<!-- Created with Inkscape (http://www.inkscape.org/) -->

<svg
   xmlns:dc="http://purl.org/dc/elements/1.1/"
   xmlns:cc="http://creativecommons.org/ns#"
   xmlns:rdf="http://www.w3.org/1999/02/22-rdf-syntax-ns#"
   xmlns:svg="http://www.w3.org/2000/svg"
   xmlns="http://www.w3.org/2000/svg"
   xmlns:xlink="http://www.w3.org/1999/xlink"
   xmlns:sodipodi="http://sodipodi.sourceforge.net/DTD/sodipodi-0.dtd"
   xmlns:inkscape="http://www.inkscape.org/namespaces/inkscape"
   width="1280"
   height="1024"
   viewBox="0 0 338.66668 270.93333"
   version="1.1"
   id="svg4204"
   inkscape:version="0.92.0 r15299"
   sodipodi:docname="cow-1280.svg"
   inkscape:export-filename="/media/DATI/3-Digital-Art/WALLPAPERS/1280x1024/cow-2-no-shadow--1280.png"
   inkscape:export-xdpi="192"
   inkscape:export-ydpi="192">
  <title
     id="title4797">mucca :D</title>
  <defs
     id="defs4198">
    <pattern
       inkscape:collect="always"
       xlink:href="#pattern2296"
       id="pattern2392"
       patternTransform="matrix(0.08210872,0.03365937,-0.08049274,0.19635408,6.4648906e-8,-1.036556e-5)" />
    <pattern
       inkscape:collect="always"
       xlink:href="#pattern2296"
       id="pattern2300"
       patternTransform="matrix(0.08210872,0.03365937,-0.08049274,0.19635408,-338.66669,8.5016276e-6)" />
    <pattern
       inkscape:collect="always"
       xlink:href="#Wavywhite"
       id="pattern2296"
       patternTransform="matrix(0.08210872,0.03365937,-0.08049274,0.19635408,6.4648917e-8,-1.468099e-6)" />
    <pattern
       inkscape:stockid="Wavy white"
       id="Wavywhite"
       height="5.1805778"
       width="30.066020"
       patternUnits="userSpaceOnUse"
       inkscape:collect="always">
      <path
         id="path2197"
         d="M 7.597,0.061 C 5.079,-0.187 2.656,0.302 -0.01,1.788 L -0.01,3.061 C 2.773,1.431 5.173,1.052 7.472,1.280 C 9.770,1.508 11.969,2.361 14.253,3.218 C 18.820,4.931 23.804,6.676 30.066,3.061 L 30.062,1.788 C 23.622,5.497 19.246,3.770 14.691,2.061 C 12.413,1.207 10.115,0.311 7.597,0.061 z "
         style="fill:white;stroke:none;" />
    </pattern>
  </defs>
  <sodipodi:namedview
     id="base"
     pagecolor="#ffffff"
     bordercolor="#666666"
     borderopacity="1.0"
     inkscape:pageopacity="0.0"
     inkscape:pageshadow="2"
     inkscape:zoom="0.49497475"
     inkscape:cx="457.8549"
     inkscape:cy="516.62996"
     inkscape:document-units="mm"
     inkscape:current-layer="layer1"
     showgrid="false"
     units="px"
     inkscape:showpageshadow="false"
     inkscape:snap-page="true"
     inkscape:window-width="1280"
     inkscape:window-height="971"
     inkscape:window-x="0"
     inkscape:window-y="27"
     inkscape:window-maximized="1" />
  <metadata
     id="metadata4201">
    <rdf:RDF>
      <cc:Work
         rdf:about="">
        <dc:format>image/svg+xml</dc:format>
        <dc:type
           rdf:resource="http://purl.org/dc/dcmitype/StillImage" />
        <dc:title>mucca :D</dc:title>
        <dc:date>2017</dc:date>
        <dc:creator>
          <cc:Agent>
            <dc:title>Cristian Pozzessere &quot;ilnanny&quot;</dc:title>
          </cc:Agent>
        </dc:creator>
        <dc:subject>
          <rdf:Bag>
            <rdf:li>All</rdf:li>
          </rdf:Bag>
        </dc:subject>
        <dc:description>personal wallpaper</dc:description>
      </cc:Work>
    </rdf:RDF>
  </metadata>
  <g
     inkscape:label="Livello 1"
     inkscape:groupmode="layer"
     id="layer1"
     transform="translate(0,-26.066676)">
    <rect
       y="26.066683"
       x="5.0862632e-06"
       height="270.93332"
       width="338.66666"
       id="rect6436"
       style="opacity:1;fill:#364e59;fill-opacity:1;stroke:none;stroke-width:0.21208128;stroke-linejoin:miter;stroke-miterlimit:4;stroke-dasharray:none;stroke-opacity:1" />
    <g
       id="g6434"
       transform="matrix(0.62281414,0,0,0.62281414,78.949238,77.241159)">
      <path
         id="circle4803"
         transform="matrix(0.26458333,0,0,0.26458333,0,26.066676)"
         d="M 633.32617,501.02539 A 119.198,119.198 0 0 1 665.69141,582.5625 119.198,119.198 0 0 1 546.49219,701.76172 119.198,119.198 0 0 1 463.6582,668.10156 119.198,119.198 0 0 0 550.49219,705.76172 119.198,119.198 0 0 0 669.69141,586.5625 119.198,119.198 0 0 0 633.32617,501.02539 Z"
         style="opacity:1;fill:#050505;fill-opacity:0.27516779;stroke:none;stroke-width:0.82807022;stroke-linejoin:miter;stroke-miterlimit:4;stroke-dasharray:none;stroke-opacity:1"
         inkscape:connector-curvature="0" />
      <circle
         r="31.537804"
         cy="180.20322"
         cx="144.59282"
         id="path4801"
         style="opacity:1;fill:#050505;fill-opacity:0.15100672;stroke:none;stroke-width:0.21909358;stroke-linejoin:miter;stroke-miterlimit:4;stroke-dasharray:none;stroke-opacity:1" />
      <g
         style="stroke:none"
         id="g4121"
         transform="matrix(1.6064014,0,0,1.6064014,105.23738,65.789475)">
        <path
           d="M 15.375,60.584 C 13.687,60.532 11,63.143 11,63.143 c 0,0 2.784,3.641 4.787,3.879 0.681,0.081 1.517,-0.199 2.326,-0.59 l -1.594,4.775 c 0,0 -2.185,4.226 -1.879,6.441 0.091,0.661 0.532,1.468 1.029,2.205 1.01,3.237 4.794,5.646 9.32,5.646 3.81,0 7.09,-1.709 8.639,-4.18 0.732,-0.87 1.985,-2.49 2.148,-3.672 0.306,-2.215 -1.877,-6.441 -1.877,-6.441 l -1.518,-4.551 c 0.647,0.264 1.288,0.429 1.83,0.365 2,-0.238 4.787,-3.879 4.787,-3.879 0,0 -2.687,-2.611 -4.375,-2.559 -1.636,0.051 -3.817,1.944 -4.973,3.064 -1.077,-0.423 -2.536,-0.892 -4.408,-0.889 -2.045,0.003 -3.682,0.541 -4.775,1.01 -1.12,-1.1 -3.403,-3.129 -5.094,-3.182 z"
           style="opacity:0.1;fill:#000000;fill-opacity:1;stroke:none"
           id="path19"
           inkscape:connector-curvature="0" />
        <g
           style="stroke:none"
           transform="matrix(0.89240973,0,0,0.89240973,2.5718496,51.660635)"
           id="g61">
          <path
             d="m 39.699,11.746 c 0,0 -3.01,-2.926 -4.902,-2.867 -2.598,0.081 -6.474,4.347 -6.474,4.347 0,0 3.767,3.133 6.01,2.867 2.245,-0.266 5.364,-4.347 5.364,-4.347 z"
             style="fill:#1a1a1a;fill-rule:evenodd;stroke:none"
             id="path25"
             inkscape:connector-curvature="0" />
          <path
             d="m 33.663,10.951 c 0.549,-0.121 1.125,0.133 1.656,0.316 0.867,0.299 2.445,1.261 2.445,1.261 l -0.042,0.108 c -0.926,1.047 -2.534,2.657 -3.823,2.81 -1.248,0.148 -3.034,-0.928 -4.136,-1.701 0,0 2.337,-2.451 3.899,-2.795 z"
             style="fill:#d7a2a2;fill-opacity:1;fill-rule:evenodd;stroke:none"
             id="path27"
             inkscape:connector-curvature="0" />
          <path
             d="m 24.21,11.311 v 0.006 c -4.76,0.171 -7.293,2.248 -7.293,2.248 l -2.406,7.219 c 0,0 -2.449,4.735 -2.105,7.217 0.259,1.874 3.01,4.812 3.01,4.812 h 17.67 c 0,0 2.747,-2.939 3.01,-4.813 0.343,-2.482 -2.104,-7.217 -2.104,-7.217 l -2.406,-7.219 c 0,0 -2.533,-2.077 -7.293,-2.248 V 11.31 c -0.014,0 -0.025,0.003 -0.039,0.004 -0.013,0 -0.024,-0.004 -0.037,-0.004 z"
             style="fill:#f9f9f9;fill-rule:evenodd;stroke:none"
             id="path29"
             inkscape:connector-curvature="0" />
          <path
             d="m 8.324,11.746 c 0,0 3.01,-2.926 4.902,-2.867 2.598,0.081 6.474,4.347 6.474,4.347 0,0 -3.767,3.133 -6.01,2.867 -2.245,-0.266 -5.364,-4.347 -5.364,-4.347 z"
             style="fill:#1a1a1a;fill-rule:evenodd;stroke:none"
             id="path31"
             inkscape:connector-curvature="0" />
          <path
             d="m 14.425,11.04 c -0.549,-0.121 -1.125,0.133 -1.656,0.316 -0.867,0.299 -2.445,1.261 -2.445,1.261 l 0.042,0.108 c 0.926,1.047 2.534,2.657 3.823,2.81 1.248,0.148 3.034,-0.928 4.136,-1.701 0,0 -2.337,-2.451 -3.899,-2.795 z"
             style="fill:#d7a2a2;fill-opacity:1;fill-rule:evenodd;stroke:none"
             id="path33"
             inkscape:connector-curvature="0" />
          <path
             d="m 24.21,11.311 v 0.006 c -4.76,0.171 -7.293,2.248 -7.293,2.248 l -2.406,7.219 c 0,0 -0.359,0.751 -0.766,1.697 0,0 8.775,6.428 12.02,3.763 2.774,-2.279 -0.819,-7.133 -1.162,-10.707 -0.135,-1.406 -0.352,-4.223 -0.352,-4.223 -0.014,0 -0.029,-0.003 -0.041,-0.004 z"
             style="fill:#1a1a1a;fill-rule:evenodd;stroke:none"
             id="path35"
             inkscape:connector-curvature="0" />
          <path
             d="m 32.902,17.535 c 0,0 -2.038,0.095 -2.66,0.777 -1.417,1.555 -1.665,4.144 -1.201,6.195 0.389,1.72 3.145,4.256 3.145,4.256 l 2.248,2.414 c 0.737,-0.982 1.521,-2.215 1.654,-3.178 0.343,-2.482 -2.104,-7.217 -2.104,-7.217"
             style="fill:#1a1a1a;fill-rule:evenodd;stroke:none"
             id="path37"
             inkscape:connector-curvature="0" />
          <g
             style="stroke:none"
             transform="matrix(0.54461206,0,0,0.54461206,10.751382,8.4752945)"
             id="g51">
            <ellipse
               cx="25.190001"
               cy="8"
               rx="7.177"
               ry="10.253"
               transform="rotate(30.299747)"
               style="fill:#1a1a1a;stroke:none"
               id="ellipse39" />
            <ellipse
               transform="matrix(-0.86339778,0.50452381,0.50452381,0.86339778,0,0)"
               ry="10.253"
               rx="7.177"
               cy="32.550999"
               cx="-16.819"
               style="fill:#1a1a1a;stroke:none"
               id="ellipse41" />
            <ellipse
               transform="rotate(30.299747)"
               ry="9.526"
               rx="6.6680002"
               cy="8"
               cx="25.190001"
               style="fill:#f9f9f9;stroke:none"
               id="ellipse43" />
            <ellipse
               cx="-16.819"
               cy="32.550999"
               rx="6.6680002"
               ry="9.526"
               transform="matrix(-0.86339778,0.50452381,0.50452381,0.86339778,0,0)"
               style="fill:#f9f9f9;stroke:none"
               id="ellipse45" />
            <path
               d="m 24.76,18.19 a 2.5,2.5 0 0 1 -2.5,2.5 2.5,2.5 0 0 1 -2.5,-2.5 2.5,2.5 0 0 1 2.5,-2.5 2.5,2.5 0 0 1 2.5,2.5 z"
               style="fill:#1a1a1a;stroke:none"
               id="path47"
               inkscape:connector-curvature="0" />
            <path
               d="m 31.488,18.09 a 4,4 0 0 1 -4,4 4,4 0 0 1 -4,-4 4,4 0 0 1 4,-4 4,4 0 0 1 4,4 z"
               style="fill:#1a1a1a;stroke:none"
               id="path49"
               inkscape:connector-curvature="0" />
          </g>
          <g
             style="stroke:none"
             transform="translate(-1.046243,0.18497115)"
             id="g59">
            <path
               d="m 35.796,28.361 c 0,4.558 -4.813,8.253 -10.75,8.253 -5.937,0 -10.75,-3.695 -10.75,-8.253 0,-2.279 1.268,-4.43 3.403,-5.497 2.134,-1.067 4.785,0.799 7.347,0.799 2.562,0 5.467,-1.867 7.601,-0.799 2.134,1.067 3.149,3.218 3.149,5.497 z"
               style="fill:#d7a2a2;fill-opacity:1;stroke:none"
               id="path53"
               inkscape:connector-curvature="0" />
            <circle
               cx="20.01"
               cy="27.07"
               r="2.25"
               style="fill:#1a1a1a;stroke:none"
               id="circle55" />
            <circle
               r="2.25"
               cy="27.07"
               cx="29.672001"
               style="fill:#1a1a1a;stroke:none"
               id="circle57" />
          </g>
        </g>
      </g>
    </g>
    <rect
       style="opacity:0.06400003;fill:url(#pattern2392);fill-opacity:1;stroke:none;stroke-width:0.21208128;stroke-linejoin:miter;stroke-miterlimit:4;stroke-dasharray:none;stroke-opacity:1"
       id="rect4799"
       width="338.66666"
       height="270.93332"
       x="5.0862632e-06"
       y="26.066683" />
    <rect
       y="26.066683"
       x="-338.66666"
       height="270.93332"
       width="338.66666"
       id="rect2298"
       style="opacity:0.06400003;fill:url(#pattern2300);fill-opacity:1;stroke:none;stroke-width:0.21208128;stroke-linejoin:miter;stroke-miterlimit:4;stroke-dasharray:none;stroke-opacity:1"
       transform="scale(-1,1)" />
  </g>
</svg>
