<?xml version="1.0" encoding="UTF-8" standalone="no"?>
<!-- Created with Inkscape (http://www.inkscape.org/) -->

<svg
   xmlns:dc="http://purl.org/dc/elements/1.1/"
   xmlns:cc="http://creativecommons.org/ns#"
   xmlns:rdf="http://www.w3.org/1999/02/22-rdf-syntax-ns#"
   xmlns:svg="http://www.w3.org/2000/svg"
   xmlns="http://www.w3.org/2000/svg"
   xmlns:sodipodi="http://sodipodi.sourceforge.net/DTD/sodipodi-0.dtd"
   xmlns:inkscape="http://www.inkscape.org/namespaces/inkscape"
   width="512"
   height="512"
   viewBox="0 0 512.00002 512.00002"
   id="svg2"
   version="1.1"
   inkscape:version="0.92.2 2405546, 2018-03-11"
   sodipodi:docname="behance.svg">
  <defs
     id="defs4" />
  <sodipodi:namedview
     id="base"
     pagecolor="#ffffff"
     bordercolor="#666666"
     borderopacity="1.0"
     inkscape:pageopacity="0.0"
     inkscape:pageshadow="2"
     inkscape:zoom="1.0344199"
     inkscape:cx="114.15754"
     inkscape:cy="250.53138"
     inkscape:document-units="px"
     inkscape:current-layer="g1198"
     showgrid="false"
     units="px"
     inkscape:showpageshadow="false"
     inkscape:window-width="1920"
     inkscape:window-height="991"
     inkscape:window-x="0"
     inkscape:window-y="25"
     inkscape:window-maximized="1" />
  <metadata
     id="metadata7">
    <rdf:RDF>
      <cc:Work
         rdf:about="">
        <dc:format>image/svg+xml</dc:format>
        <dc:type
           rdf:resource="http://purl.org/dc/dcmitype/StillImage" />
        <dc:title></dc:title>
        <cc:license
           rdf:resource="http://creativecommons.org/licenses/by-sa/4.0/" />
        <dc:date>2019</dc:date>
        <dc:creator>
          <cc:Agent>
            <dc:title>Cristian Pozzessere  &lt; ilnanny &gt;</dc:title>
          </cc:Agent>
        </dc:creator>
        <dc:subject>
          <rdf:Bag>
            <rdf:li>ilnanny</rdf:li>
          </rdf:Bag>
        </dc:subject>
      </cc:Work>
      <cc:License
         rdf:about="http://creativecommons.org/licenses/by-sa/4.0/">
        <cc:permits
           rdf:resource="http://creativecommons.org/ns#Reproduction" />
        <cc:permits
           rdf:resource="http://creativecommons.org/ns#Distribution" />
        <cc:requires
           rdf:resource="http://creativecommons.org/ns#Notice" />
        <cc:requires
           rdf:resource="http://creativecommons.org/ns#Attribution" />
        <cc:permits
           rdf:resource="http://creativecommons.org/ns#DerivativeWorks" />
        <cc:requires
           rdf:resource="http://creativecommons.org/ns#ShareAlike" />
      </cc:License>
    </rdf:RDF>
  </metadata>
  <g
     inkscape:label="Livello 1"
     inkscape:groupmode="layer"
     id="layer1"
     transform="translate(0,-540.3622)">
    <g
       id="g1262"
       transform="translate(28.134506,568.49671)">
      <g
         id="g1200">
	<rect
   id="rect1187"
   height="455.73099"
   width="455.73099"
   style="fill:#0071b9"
   y="0"
   x="0" />

	<g
   id="g1198">
		<g
   id="XMLID_5_">
			<g
   id="g1195">
				<rect
   id="rect1189"
   height="22.091999"
   width="88.811996"
   style="fill:#ffffff"
   y="131.10001"
   x="280.88699" />

				<path
   id="path1191"
   d="m 405.047,255.26 c 0,3.985 -0.159,7.821 -0.477,11.488 h -113.962 -0.265 c -1.06,25.185 17.32,40.173 38.22,40.173 14.811,0 27.828,-7.856 35.33,-21.173 h 37.389 c -10.26,37.442 -40.403,53.022 -75.989,53.022 -46.615,0 -79.754,-37.389 -79.754,-83.509 0,-46.12 35.71,-83.509 79.754,-83.509 44.044,0 79.754,37.388 79.754,83.508 z M 290.343,238.868 h 70.254 c -2.792,-20.749 -17.453,-33.978 -35.127,-33.978 -17.674,-10e-4 -32.335,13.228 -35.127,33.978 z"
   style="fill:#ffffff"
   inkscape:connector-curvature="0" />

				<path
   id="path1193"
   d="m 231.842,258.795 c 2.872,32.034 -2.872,51.917 -35.569,68.045 -12.239,6.036 -27.58,7.927 -41.976,7.927 H 50.684 V 116.962 c 0,0 99.858,0 113.997,0 14.139,0 57.811,8.395 58.059,50.371 0.168,29.021 -16.26,42.285 -29.984,48.639 0,-0.001 36.214,10.789 39.086,42.823 z m -46.668,9.217 c 0,-30.567 -34.517,-29.772 -34.517,-29.772 H 98.625 v 59.543 h 52.032 c 0,10e-4 34.517,0.796 34.517,-29.771 z m -8.563,-88.529 c 0,-25.627 -28.941,-24.964 -28.941,-24.964 H 98.625 v 49.929 h 49.045 c 0,0 28.941,0.662 28.941,-24.965 z"
   style="fill:#ffffff"
   inkscape:connector-curvature="0" />

			</g>

		</g>

	</g>

</g>
      <g
         id="g1202">
</g>
      <g
         id="g1204">
</g>
      <g
         id="g1206">
</g>
      <g
         id="g1208">
</g>
      <g
         id="g1210">
</g>
      <g
         id="g1212">
</g>
      <g
         id="g1214">
</g>
      <g
         id="g1216">
</g>
      <g
         id="g1218">
</g>
      <g
         id="g1220">
</g>
      <g
         id="g1222">
</g>
      <g
         id="g1224">
</g>
      <g
         id="g1226">
</g>
      <g
         id="g1228">
</g>
      <g
         id="g1230">
</g>
    </g>
  </g>
</svg>
