<?xml version="1.0" encoding="UTF-8" standalone="no"?>
<!-- Created with Inkscape (http://www.inkscape.org/) -->

<svg
   xmlns:dc="http://purl.org/dc/elements/1.1/"
   xmlns:cc="http://creativecommons.org/ns#"
   xmlns:rdf="http://www.w3.org/1999/02/22-rdf-syntax-ns#"
   xmlns:svg="http://www.w3.org/2000/svg"
   xmlns="http://www.w3.org/2000/svg"
   xmlns:sodipodi="http://sodipodi.sourceforge.net/DTD/sodipodi-0.dtd"
   xmlns:inkscape="http://www.inkscape.org/namespaces/inkscape"
   width="512"
   height="512"
   viewBox="0 0 512.00002 512.00002"
   id="svg2"
   version="1.1"
   inkscape:version="0.92.2 2405546, 2018-03-11"
   sodipodi:docname="instagram.svg">
  <defs
     id="defs4" />
  <sodipodi:namedview
     id="base"
     pagecolor="#ffffff"
     bordercolor="#666666"
     borderopacity="1.0"
     inkscape:pageopacity="0.0"
     inkscape:pageshadow="2"
     inkscape:zoom="1.0344199"
     inkscape:cx="114.15754"
     inkscape:cy="250.53138"
     inkscape:document-units="px"
     inkscape:current-layer="g1198"
     showgrid="false"
     units="px"
     inkscape:showpageshadow="false"
     inkscape:window-width="1920"
     inkscape:window-height="991"
     inkscape:window-x="0"
     inkscape:window-y="25"
     inkscape:window-maximized="1" />
  <metadata
     id="metadata7">
    <rdf:RDF>
      <cc:Work
         rdf:about="">
        <dc:format>image/svg+xml</dc:format>
        <dc:type
           rdf:resource="http://purl.org/dc/dcmitype/StillImage" />
        <dc:title></dc:title>
        <cc:license
           rdf:resource="http://creativecommons.org/licenses/by-sa/4.0/" />
        <dc:date>2019</dc:date>
        <dc:creator>
          <cc:Agent>
            <dc:title>Cristian Pozzessere  &lt; ilnanny &gt;</dc:title>
          </cc:Agent>
        </dc:creator>
        <dc:subject>
          <rdf:Bag>
            <rdf:li>ilnanny</rdf:li>
          </rdf:Bag>
        </dc:subject>
      </cc:Work>
      <cc:License
         rdf:about="http://creativecommons.org/licenses/by-sa/4.0/">
        <cc:permits
           rdf:resource="http://creativecommons.org/ns#Reproduction" />
        <cc:permits
           rdf:resource="http://creativecommons.org/ns#Distribution" />
        <cc:requires
           rdf:resource="http://creativecommons.org/ns#Notice" />
        <cc:requires
           rdf:resource="http://creativecommons.org/ns#Attribution" />
        <cc:permits
           rdf:resource="http://creativecommons.org/ns#DerivativeWorks" />
        <cc:requires
           rdf:resource="http://creativecommons.org/ns#ShareAlike" />
      </cc:License>
    </rdf:RDF>
  </metadata>
  <g
     inkscape:label="Livello 1"
     inkscape:groupmode="layer"
     id="layer1"
     transform="translate(0,-540.3622)">
    <g
       id="g1262"
       transform="translate(28.134506,568.49671)">
      <g
         id="g1200">
	
	<g
   id="g1198">
		
	<g
   id="g2415"
   transform="translate(4.94e-4,4.9e-4)">
  <path
     id="path2360"
     d="m 227.86,182.55 c -24.98,0 -45.32,20.33 -45.32,45.31 0,24.99 20.34,45.33 45.32,45.33 24.99,0 45.32,-20.34 45.32,-45.33 0,-24.98 -20.33,-45.31 -45.32,-45.31 z m 0,0 c -24.98,0 -45.32,20.33 -45.32,45.31 0,24.99 20.34,45.33 45.32,45.33 24.99,0 45.32,-20.34 45.32,-45.33 0,-24.98 -20.33,-45.31 -45.32,-45.31 z m 75.5,-73.89 H 152.37 c -24.1,0 -43.71,19.61 -43.71,43.71 v 150.99 c 0,24.1 19.61,43.71 43.71,43.71 h 150.99 c 24.1,0 43.71,-19.61 43.71,-43.71 V 152.37 c 0,-24.1 -19.61,-43.71 -43.71,-43.71 z m -75.5,197.69 c -43.27,0 -78.48,-35.21 -78.48,-78.49 0,-43.27 35.21,-78.48 78.48,-78.48 43.28,0 78.49,35.21 78.49,78.48 0,43.28 -35.21,78.49 -78.49,78.49 z m 81.01,-140.74 c -10.24,0 -18.57,-8.33 -18.57,-18.57 0,-10.24 8.33,-18.57 18.57,-18.57 10.24,0 18.57,8.33 18.57,18.57 0,10.24 -8.33,18.57 -18.57,18.57 z m -81.01,16.94 c -24.98,0 -45.32,20.33 -45.32,45.31 0,24.99 20.34,45.33 45.32,45.33 24.99,0 45.32,-20.34 45.32,-45.33 0,-24.98 -20.33,-45.31 -45.32,-45.31 z m 75.5,-73.89 H 152.37 c -24.1,0 -43.71,19.61 -43.71,43.71 v 150.99 c 0,24.1 19.61,43.71 43.71,43.71 h 150.99 c 24.1,0 43.71,-19.61 43.71,-43.71 V 152.37 c 0,-24.1 -19.61,-43.71 -43.71,-43.71 z m -75.5,197.69 c -43.27,0 -78.48,-35.21 -78.48,-78.49 0,-43.27 35.21,-78.48 78.48,-78.48 43.28,0 78.49,35.21 78.49,78.48 0,43.28 -35.21,78.49 -78.49,78.49 z m 81.01,-140.74 c -10.24,0 -18.57,-8.33 -18.57,-18.57 0,-10.24 8.33,-18.57 18.57,-18.57 10.24,0 18.57,8.33 18.57,18.57 0,10.24 -8.33,18.57 -18.57,18.57 z m -81.01,16.94 c -24.98,0 -45.32,20.33 -45.32,45.31 0,24.99 20.34,45.33 45.32,45.33 24.99,0 45.32,-20.34 45.32,-45.33 0,-24.98 -20.33,-45.31 -45.32,-45.31 z M 0,0 V 455.73 H 455.73 V 0 Z m 380.23,303.36 c 0,42.39 -34.48,76.87 -76.87,76.87 H 152.37 c -42.39,0 -76.87,-34.48 -76.87,-76.87 V 152.37 c 0,-42.39 34.48,-76.87 76.87,-76.87 h 150.99 c 42.39,0 76.87,34.48 76.87,76.87 z M 303.36,108.66 H 152.37 c -24.1,0 -43.71,19.61 -43.71,43.71 v 150.99 c 0,24.1 19.61,43.71 43.71,43.71 h 150.99 c 24.1,0 43.71,-19.61 43.71,-43.71 V 152.37 c 0,-24.1 -19.61,-43.71 -43.71,-43.71 z m -75.5,197.69 c -43.27,0 -78.48,-35.21 -78.48,-78.49 0,-43.27 35.21,-78.48 78.48,-78.48 43.28,0 78.49,35.21 78.49,78.48 0,43.28 -35.21,78.49 -78.49,78.49 z m 81.01,-140.74 c -10.24,0 -18.57,-8.33 -18.57,-18.57 0,-10.24 8.33,-18.57 18.57,-18.57 10.24,0 18.57,8.33 18.57,18.57 0,10.24 -8.33,18.57 -18.57,18.57 z m -81.01,16.94 c -24.98,0 -45.32,20.33 -45.32,45.31 0,24.99 20.34,45.33 45.32,45.33 24.99,0 45.32,-20.34 45.32,-45.33 0,-24.98 -20.33,-45.31 -45.32,-45.31 z m 0,0 c -24.98,0 -45.32,20.33 -45.32,45.31 0,24.99 20.34,45.33 45.32,45.33 24.99,0 45.32,-20.34 45.32,-45.33 0,-24.98 -20.33,-45.31 -45.32,-45.31 z m 0,0 c -24.98,0 -45.32,20.33 -45.32,45.31 0,24.99 20.34,45.33 45.32,45.33 24.99,0 45.32,-20.34 45.32,-45.33 0,-24.98 -20.33,-45.31 -45.32,-45.31 z m 75.5,-73.89 H 152.37 c -24.1,0 -43.71,19.61 -43.71,43.71 v 150.99 c 0,24.1 19.61,43.71 43.71,43.71 h 150.99 c 24.1,0 43.71,-19.61 43.71,-43.71 V 152.37 c 0,-24.1 -19.61,-43.71 -43.71,-43.71 z m -75.5,197.69 c -43.27,0 -78.48,-35.21 -78.48,-78.49 0,-43.27 35.21,-78.48 78.48,-78.48 43.28,0 78.49,35.21 78.49,78.48 0,43.28 -35.21,78.49 -78.49,78.49 z m 81.01,-140.74 c -10.24,0 -18.57,-8.33 -18.57,-18.57 0,-10.24 8.33,-18.57 18.57,-18.57 10.24,0 18.57,8.33 18.57,18.57 0,10.24 -8.33,18.57 -18.57,18.57 z m -81.01,16.94 c -24.98,0 -45.32,20.33 -45.32,45.31 0,24.99 20.34,45.33 45.32,45.33 24.99,0 45.32,-20.34 45.32,-45.33 0,-24.98 -20.33,-45.31 -45.32,-45.31 z m 0,0 c -24.98,0 -45.32,20.33 -45.32,45.31 0,24.99 20.34,45.33 45.32,45.33 24.99,0 45.32,-20.34 45.32,-45.33 0,-24.98 -20.33,-45.31 -45.32,-45.31 z m 0,0 c -24.98,0 -45.32,20.33 -45.32,45.31 0,24.99 20.34,45.33 45.32,45.33 24.99,0 45.32,-20.34 45.32,-45.33 0,-24.98 -20.33,-45.31 -45.32,-45.31 z m 75.5,-73.89 H 152.37 c -24.1,0 -43.71,19.61 -43.71,43.71 v 150.99 c 0,24.1 19.61,43.71 43.71,43.71 h 150.99 c 24.1,0 43.71,-19.61 43.71,-43.71 V 152.37 c 0,-24.1 -19.61,-43.71 -43.71,-43.71 z m -75.5,197.69 c -43.27,0 -78.48,-35.21 -78.48,-78.49 0,-43.27 35.21,-78.48 78.48,-78.48 43.28,0 78.49,35.21 78.49,78.48 0,43.28 -35.21,78.49 -78.49,78.49 z m 81.01,-140.74 c -10.24,0 -18.57,-8.33 -18.57,-18.57 0,-10.24 8.33,-18.57 18.57,-18.57 10.24,0 18.57,8.33 18.57,18.57 0,10.24 -8.33,18.57 -18.57,18.57 z m -81.01,16.94 c -24.98,0 -45.32,20.33 -45.32,45.31 0,24.99 20.34,45.33 45.32,45.33 24.99,0 45.32,-20.34 45.32,-45.33 0,-24.98 -20.33,-45.31 -45.32,-45.31 z"
     style="fill:#c536a4"
     inkscape:connector-curvature="0" />
  <g
     id="g2362">
</g>
  <g
     id="g2364">
</g>
  <g
     id="g2366">
</g>
  <g
     id="g2368">
</g>
  <g
     id="g2370">
</g>
  <g
     id="g2372">
</g>
  <g
     id="g2374">
</g>
  <g
     id="g2376">
</g>
  <g
     id="g2378">
</g>
  <g
     id="g2380">
</g>
  <g
     id="g2382">
</g>
  <g
     id="g2384">
</g>
  <g
     id="g2386">
</g>
  <g
     id="g2388">
</g>
  <g
     id="g2390">
</g>
</g>
</g>

</g>
      <g
         id="g1202">
</g>
      <g
         id="g1204">
</g>
      <g
         id="g1206">
</g>
      <g
         id="g1208">
</g>
      <g
         id="g1210">
</g>
      <g
         id="g1212">
</g>
      <g
         id="g1214">
</g>
      <g
         id="g1216">
</g>
      <g
         id="g1218">
</g>
      <g
         id="g1220">
</g>
      <g
         id="g1222">
</g>
      <g
         id="g1224">
</g>
      <g
         id="g1226">
</g>
      <g
         id="g1228">
</g>
      <g
         id="g1230">
</g>
    </g>
  </g>
</svg>
