<?xml version="1.0" encoding="UTF-8" standalone="no"?>
<!-- Created with Inkscape (http://www.inkscape.org/) -->

<svg
   xmlns:dc="http://purl.org/dc/elements/1.1/"
   xmlns:cc="http://creativecommons.org/ns#"
   xmlns:rdf="http://www.w3.org/1999/02/22-rdf-syntax-ns#"
   xmlns:svg="http://www.w3.org/2000/svg"
   xmlns="http://www.w3.org/2000/svg"
   xmlns:sodipodi="http://sodipodi.sourceforge.net/DTD/sodipodi-0.dtd"
   xmlns:inkscape="http://www.inkscape.org/namespaces/inkscape"
   width="512"
   height="512"
   viewBox="0 0 512.00002 512.00002"
   id="svg2"
   version="1.1"
   inkscape:version="0.92.2 2405546, 2018-03-11"
   sodipodi:docname="linkedin.svg">
  <defs
     id="defs4" />
  <sodipodi:namedview
     id="base"
     pagecolor="#ffffff"
     bordercolor="#666666"
     borderopacity="1.0"
     inkscape:pageopacity="0.0"
     inkscape:pageshadow="2"
     inkscape:zoom="1.0344199"
     inkscape:cx="114.15754"
     inkscape:cy="250.53138"
     inkscape:document-units="px"
     inkscape:current-layer="g1198"
     showgrid="false"
     units="px"
     inkscape:showpageshadow="false"
     inkscape:window-width="1920"
     inkscape:window-height="991"
     inkscape:window-x="0"
     inkscape:window-y="25"
     inkscape:window-maximized="1" />
  <metadata
     id="metadata7">
    <rdf:RDF>
      <cc:Work
         rdf:about="">
        <dc:format>image/svg+xml</dc:format>
        <dc:type
           rdf:resource="http://purl.org/dc/dcmitype/StillImage" />
        <dc:title></dc:title>
        <cc:license
           rdf:resource="http://creativecommons.org/licenses/by-sa/4.0/" />
        <dc:date>2019</dc:date>
        <dc:creator>
          <cc:Agent>
            <dc:title>Cristian Pozzessere  &lt; ilnanny &gt;</dc:title>
          </cc:Agent>
        </dc:creator>
        <dc:subject>
          <rdf:Bag>
            <rdf:li>ilnanny</rdf:li>
          </rdf:Bag>
        </dc:subject>
      </cc:Work>
      <cc:License
         rdf:about="http://creativecommons.org/licenses/by-sa/4.0/">
        <cc:permits
           rdf:resource="http://creativecommons.org/ns#Reproduction" />
        <cc:permits
           rdf:resource="http://creativecommons.org/ns#Distribution" />
        <cc:requires
           rdf:resource="http://creativecommons.org/ns#Notice" />
        <cc:requires
           rdf:resource="http://creativecommons.org/ns#Attribution" />
        <cc:permits
           rdf:resource="http://creativecommons.org/ns#DerivativeWorks" />
        <cc:requires
           rdf:resource="http://creativecommons.org/ns#ShareAlike" />
      </cc:License>
    </rdf:RDF>
  </metadata>
  <g
     inkscape:label="Livello 1"
     inkscape:groupmode="layer"
     id="layer1"
     transform="translate(0,-540.3622)">
    <g
       id="g1262"
       transform="translate(28.134506,568.49671)">
      <g
         id="g1200">
	
	<g
   id="g1198">
		
	<g
   id="g2695"
   transform="translate(2.2558596e-7,-3.774414e-6)">
  <g
     id="g2635">
	<rect
   id="rect2625"
   height="455.73099"
   width="455.73099"
   style="fill:#0084b1"
   y="0"
   x="0" />

	<g
   id="g2633">
		<path
   id="path2627"
   d="m 107.255,69.215 c 20.873,0.017 38.088,17.257 38.043,38.234 -0.05,21.965 -18.278,38.52 -38.3,38.043 -20.308,0.411 -38.155,-16.551 -38.151,-38.188 0,-20.985 17.282,-38.105 38.408,-38.089 z"
   style="fill:#ffffff"
   inkscape:connector-curvature="0" />

		<path
   id="path2629"
   d="M 129.431,386.471 H 84.71 c -5.804,0 -10.509,-4.705 -10.509,-10.509 V 185.18 c 0,-5.804 4.705,-10.509 10.509,-10.509 h 44.721 c 5.804,0 10.509,4.705 10.509,10.509 v 190.783 c -0.001,5.803 -4.705,10.508 -10.509,10.508 z"
   style="fill:#ffffff"
   inkscape:connector-curvature="0" />

		<path
   id="path2631"
   d="m 386.884,241.682 c 0,-39.996 -32.423,-72.42 -72.42,-72.42 h -11.47 c -21.882,0 -41.214,10.918 -52.842,27.606 -1.268,1.819 -2.442,3.708 -3.52,5.658 -0.373,-0.056 -0.594,-0.085 -0.599,-0.075 v -23.418 c 0,-2.409 -1.953,-4.363 -4.363,-4.363 h -55.795 c -2.409,0 -4.363,1.953 -4.363,4.363 V 382.11 c 0,2.409 1.952,4.362 4.361,4.363 l 57.011,0.014 c 2.41,10e-4 4.364,-1.953 4.364,-4.363 V 264.801 c 0,-20.28 16.175,-37.119 36.454,-37.348 10.352,-0.117 19.737,4.031 26.501,10.799 6.675,6.671 10.802,15.895 10.802,26.079 v 117.808 c 0,2.409 1.953,4.362 4.361,4.363 l 57.152,0.014 c 2.41,10e-4 4.364,-1.953 4.364,-4.363 V 241.682 Z"
   style="fill:#ffffff"
   inkscape:connector-curvature="0" />

	</g>

</g>
  <g
     id="g2637">
</g>
  <g
     id="g2639">
</g>
  <g
     id="g2641">
</g>
  <g
     id="g2643">
</g>
  <g
     id="g2645">
</g>
  <g
     id="g2647">
</g>
  <g
     id="g2649">
</g>
  <g
     id="g2651">
</g>
  <g
     id="g2653">
</g>
  <g
     id="g2655">
</g>
  <g
     id="g2657">
</g>
  <g
     id="g2659">
</g>
  <g
     id="g2661">
</g>
  <g
     id="g2663">
</g>
  <g
     id="g2665">
</g>
</g>
</g>

</g>
      <g
         id="g1202">
</g>
      <g
         id="g1204">
</g>
      <g
         id="g1206">
</g>
      <g
         id="g1208">
</g>
      <g
         id="g1210">
</g>
      <g
         id="g1212">
</g>
      <g
         id="g1214">
</g>
      <g
         id="g1216">
</g>
      <g
         id="g1218">
</g>
      <g
         id="g1220">
</g>
      <g
         id="g1222">
</g>
      <g
         id="g1224">
</g>
      <g
         id="g1226">
</g>
      <g
         id="g1228">
</g>
      <g
         id="g1230">
</g>
    </g>
  </g>
</svg>
