<?xml version="1.0" encoding="UTF-8" standalone="no"?>
<!-- Created with Inkscape (http://www.inkscape.org/) -->

<svg
   xmlns:dc="http://purl.org/dc/elements/1.1/"
   xmlns:cc="http://creativecommons.org/ns#"
   xmlns:rdf="http://www.w3.org/1999/02/22-rdf-syntax-ns#"
   xmlns:svg="http://www.w3.org/2000/svg"
   xmlns="http://www.w3.org/2000/svg"
   xmlns:sodipodi="http://sodipodi.sourceforge.net/DTD/sodipodi-0.dtd"
   xmlns:inkscape="http://www.inkscape.org/namespaces/inkscape"
   width="512"
   height="512"
   viewBox="0 0 512.00002 512.00002"
   id="svg2"
   version="1.1"
   inkscape:version="0.92.2 2405546, 2018-03-11"
   sodipodi:docname="pinterest.svg">
  <defs
     id="defs4" />
  <sodipodi:namedview
     id="base"
     pagecolor="#ffffff"
     bordercolor="#666666"
     borderopacity="1.0"
     inkscape:pageopacity="0.0"
     inkscape:pageshadow="2"
     inkscape:zoom="1.0344199"
     inkscape:cx="114.15754"
     inkscape:cy="250.53138"
     inkscape:document-units="px"
     inkscape:current-layer="g1198"
     showgrid="false"
     units="px"
     inkscape:showpageshadow="false"
     inkscape:window-width="1920"
     inkscape:window-height="991"
     inkscape:window-x="0"
     inkscape:window-y="25"
     inkscape:window-maximized="1" />
  <metadata
     id="metadata7">
    <rdf:RDF>
      <cc:Work
         rdf:about="">
        <dc:format>image/svg+xml</dc:format>
        <dc:type
           rdf:resource="http://purl.org/dc/dcmitype/StillImage" />
        <dc:title></dc:title>
        <cc:license
           rdf:resource="http://creativecommons.org/licenses/by-sa/4.0/" />
        <dc:date>2019</dc:date>
        <dc:creator>
          <cc:Agent>
            <dc:title>Cristian Pozzessere  &lt; ilnanny &gt;</dc:title>
          </cc:Agent>
        </dc:creator>
        <dc:subject>
          <rdf:Bag>
            <rdf:li>ilnanny</rdf:li>
          </rdf:Bag>
        </dc:subject>
      </cc:Work>
      <cc:License
         rdf:about="http://creativecommons.org/licenses/by-sa/4.0/">
        <cc:permits
           rdf:resource="http://creativecommons.org/ns#Reproduction" />
        <cc:permits
           rdf:resource="http://creativecommons.org/ns#Distribution" />
        <cc:requires
           rdf:resource="http://creativecommons.org/ns#Notice" />
        <cc:requires
           rdf:resource="http://creativecommons.org/ns#Attribution" />
        <cc:permits
           rdf:resource="http://creativecommons.org/ns#DerivativeWorks" />
        <cc:requires
           rdf:resource="http://creativecommons.org/ns#ShareAlike" />
      </cc:License>
    </rdf:RDF>
  </metadata>
  <g
     inkscape:label="Livello 1"
     inkscape:groupmode="layer"
     id="layer1"
     transform="translate(0,-540.3622)">
    <g
       id="g1262"
       transform="translate(28.134506,568.49671)">
      <g
         id="g1200">
	
	<g
   id="g1198">
		
	<g
   id="g2966"
   transform="translate(2.2558594e-7,-3.774414e-6)">
  <g
     id="g2909">
	<rect
   id="rect2905"
   height="455.73099"
   width="455.73099"
   style="fill:#c9353d"
   y="0"
   x="0" />

	<path
   id="path2907"
   d="M 160.601,382 C 86.223,350.919 37.807,262.343 68.598,172.382 99.057,83.391 197.589,36.788 286.309,69.734 c 88.972,33.04 132.978,131.213 98.486,219.22 -35.709,91.112 -131.442,123.348 -203.22,100.617 5.366,-13.253 11.472,-26.33 15.945,-39.943 4.492,-13.672 7.356,-27.878 10.725,-41.037 2.9,2.44 5.814,5.027 8.866,7.439 15.861,12.535 33.805,13.752 52.605,9.232 19.977,-4.803 35.764,-16.13 47.455,-32.78 19.773,-28.16 26.751,-60.019 21.972,-93.546 -4.942,-34.668 -25.469,-59.756 -57.65,-72.389 -48.487,-19.034 -94.453,-12.626 -134.269,22.259 -30.622,26.83 -40.916,72.314 -26.187,107.724 5.105,12.274 13.173,21.907 25.379,27.695 6.186,2.933 8.812,1.737 10.602,-4.724 0.133,-0.481 0.295,-0.955 0.471,-1.422 3.428,-9.04 2.628,-16.472 -3.473,-25.199 -11.118,-15.906 -9.135,-34.319 -3.771,-51.961 10.172,-33.455 40.062,-55.777 75.116,-56.101 9.39,-0.087 19.056,0.718 28.15,2.937 27.049,6.599 44.514,27.518 46.264,55.253 1.404,22.242 -2.072,43.849 -11.742,64.159 -4.788,10.055 -11.107,18.996 -20.512,25.325 -8.835,5.945 -18.496,8.341 -28.979,5.602 -14.443,-3.774 -22.642,-16.95 -18.989,-31.407 3.786,-14.985 8.685,-29.69 12.399,-44.69 1.57,-6.344 2.395,-13.234 1.751,-19.696 -1.757,-17.601 -18.387,-25.809 -33.933,-17.216 -10.889,6.019 -16.132,16.079 -18.564,27.719 -2.505,11.992 -1.292,23.811 2.61,35.439 0.784,2.337 0.9,5.224 0.347,7.634 -7.063,30.799 -14.617,61.49 -21.306,92.369 -1.952,9.011 -1.59,18.527 -2.239,27.815 -0.123,1.778 -0.017,3.574 -0.017,5.939 z"
   style="fill:#ffffff"
   inkscape:connector-curvature="0" />

</g>
  <g
     id="g2911">
</g>
  <g
     id="g2913">
</g>
  <g
     id="g2915">
</g>
  <g
     id="g2917">
</g>
  <g
     id="g2919">
</g>
  <g
     id="g2921">
</g>
  <g
     id="g2923">
</g>
  <g
     id="g2925">
</g>
  <g
     id="g2927">
</g>
  <g
     id="g2929">
</g>
  <g
     id="g2931">
</g>
  <g
     id="g2933">
</g>
  <g
     id="g2935">
</g>
  <g
     id="g2937">
</g>
  <g
     id="g2939">
</g>
</g>
</g>

</g>
      <g
         id="g1202">
</g>
      <g
         id="g1204">
</g>
      <g
         id="g1206">
</g>
      <g
         id="g1208">
</g>
      <g
         id="g1210">
</g>
      <g
         id="g1212">
</g>
      <g
         id="g1214">
</g>
      <g
         id="g1216">
</g>
      <g
         id="g1218">
</g>
      <g
         id="g1220">
</g>
      <g
         id="g1222">
</g>
      <g
         id="g1224">
</g>
      <g
         id="g1226">
</g>
      <g
         id="g1228">
</g>
      <g
         id="g1230">
</g>
    </g>
  </g>
</svg>
