<?xml version="1.0" encoding="UTF-8" standalone="no"?>
<!-- Created with Inkscape (http://www.inkscape.org/) -->

<svg
   xmlns:dc="http://purl.org/dc/elements/1.1/"
   xmlns:cc="http://creativecommons.org/ns#"
   xmlns:rdf="http://www.w3.org/1999/02/22-rdf-syntax-ns#"
   xmlns:svg="http://www.w3.org/2000/svg"
   xmlns="http://www.w3.org/2000/svg"
   xmlns:sodipodi="http://sodipodi.sourceforge.net/DTD/sodipodi-0.dtd"
   xmlns:inkscape="http://www.inkscape.org/namespaces/inkscape"
   width="512"
   height="512"
   viewBox="0 0 512.00002 512.00002"
   id="svg2"
   version="1.1"
   inkscape:version="0.92.2 2405546, 2018-03-11"
   sodipodi:docname="skype.svg">
  <defs
     id="defs4" />
  <sodipodi:namedview
     id="base"
     pagecolor="#ffffff"
     bordercolor="#666666"
     borderopacity="1.0"
     inkscape:pageopacity="0.0"
     inkscape:pageshadow="2"
     inkscape:zoom="1.0344199"
     inkscape:cx="114.15754"
     inkscape:cy="250.53138"
     inkscape:document-units="px"
     inkscape:current-layer="g1198"
     showgrid="false"
     units="px"
     inkscape:showpageshadow="false"
     inkscape:window-width="1920"
     inkscape:window-height="991"
     inkscape:window-x="0"
     inkscape:window-y="25"
     inkscape:window-maximized="1" />
  <metadata
     id="metadata7">
    <rdf:RDF>
      <cc:Work
         rdf:about="">
        <dc:format>image/svg+xml</dc:format>
        <dc:type
           rdf:resource="http://purl.org/dc/dcmitype/StillImage" />
        <dc:title></dc:title>
        <cc:license
           rdf:resource="http://creativecommons.org/licenses/by-sa/4.0/" />
        <dc:date>2019</dc:date>
        <dc:creator>
          <cc:Agent>
            <dc:title>Cristian Pozzessere  &lt; ilnanny &gt;</dc:title>
          </cc:Agent>
        </dc:creator>
        <dc:subject>
          <rdf:Bag>
            <rdf:li>ilnanny</rdf:li>
          </rdf:Bag>
        </dc:subject>
      </cc:Work>
      <cc:License
         rdf:about="http://creativecommons.org/licenses/by-sa/4.0/">
        <cc:permits
           rdf:resource="http://creativecommons.org/ns#Reproduction" />
        <cc:permits
           rdf:resource="http://creativecommons.org/ns#Distribution" />
        <cc:requires
           rdf:resource="http://creativecommons.org/ns#Notice" />
        <cc:requires
           rdf:resource="http://creativecommons.org/ns#Attribution" />
        <cc:permits
           rdf:resource="http://creativecommons.org/ns#DerivativeWorks" />
        <cc:requires
           rdf:resource="http://creativecommons.org/ns#ShareAlike" />
      </cc:License>
    </rdf:RDF>
  </metadata>
  <g
     inkscape:label="Livello 1"
     inkscape:groupmode="layer"
     id="layer1"
     transform="translate(0,-540.3622)">
    <g
       id="g1262"
       transform="translate(28.134506,568.49671)">
      <g
         id="g1200">
	
	<g
   id="g1198">
		
	<g
   id="g3366"
   transform="translate(2.2558597e-7,-3.774414e-6)">
  <g
     id="g3309">
	<rect
   id="rect3305"
   height="455.73099"
   width="455.73099"
   style="fill:#15ace5"
   y="0"
   x="0" />

	<path
   id="path3307"
   d="m 379.742,257.242 c 1.77,-9.097 2.708,-18.492 2.708,-28.107 0,-80.82 -65.518,-146.338 -146.338,-146.338 -9.615,0 -19.01,0.938 -28.107,2.708 -12.507,-7.319 -27.052,-11.532 -42.589,-11.532 -46.65,0 -84.467,37.817 -84.467,84.467 0,15.537 4.214,30.082 11.532,42.588 -1.77,9.097 -2.708,18.492 -2.708,28.107 0,80.82 65.518,146.338 146.338,146.338 9.615,0 19.01,-0.938 28.107,-2.708 12.507,7.319 27.052,11.532 42.588,11.532 46.65,0 84.467,-37.817 84.467,-84.467 0.002,-15.537 -4.212,-30.081 -11.531,-42.588 z m -140.85,72.392 c -52,0 -78,-19.5 -86,-44 -8,-24.5 9.5,-31.5 15,-32 5.5,-0.5 17.167,0.833 20.5,11 3.465,10.567 15,31.5 40,34 25,2.5 41.5,-9 46.5,-21 5,-12 -4,-28.5 -42.5,-34 -38.5,-5.5 -78.5,-22.5 -78.5,-61 0,-38.5 44,-54 86,-54 42,0 63.293,23.721 68,33 5.833,11.5 3.833,30.661 -10,34 -14.5,3.5 -22,-4.5 -32.5,-24 -10.858,-20.165 -49.5,-15 -62.5,-3.5 -13,11.5 -9.5,28 44.5,38.5 54,10.5 74,30 74,60.5 0,30.5 -30.5,62.5 -82.5,62.5 z"
   style="fill:#ffffff"
   inkscape:connector-curvature="0" />

</g>
  <g
     id="g3311">
</g>
  <g
     id="g3313">
</g>
  <g
     id="g3315">
</g>
  <g
     id="g3317">
</g>
  <g
     id="g3319">
</g>
  <g
     id="g3321">
</g>
  <g
     id="g3323">
</g>
  <g
     id="g3325">
</g>
  <g
     id="g3327">
</g>
  <g
     id="g3329">
</g>
  <g
     id="g3331">
</g>
  <g
     id="g3333">
</g>
  <g
     id="g3335">
</g>
  <g
     id="g3337">
</g>
  <g
     id="g3339">
</g>
</g>
</g>

</g>
      <g
         id="g1202">
</g>
      <g
         id="g1204">
</g>
      <g
         id="g1206">
</g>
      <g
         id="g1208">
</g>
      <g
         id="g1210">
</g>
      <g
         id="g1212">
</g>
      <g
         id="g1214">
</g>
      <g
         id="g1216">
</g>
      <g
         id="g1218">
</g>
      <g
         id="g1220">
</g>
      <g
         id="g1222">
</g>
      <g
         id="g1224">
</g>
      <g
         id="g1226">
</g>
      <g
         id="g1228">
</g>
      <g
         id="g1230">
</g>
    </g>
  </g>
</svg>
