<?xml version="1.0" encoding="UTF-8" standalone="no"?>
<!-- Created with Inkscape (http://www.inkscape.org/) -->

<svg
   xmlns:dc="http://purl.org/dc/elements/1.1/"
   xmlns:cc="http://creativecommons.org/ns#"
   xmlns:rdf="http://www.w3.org/1999/02/22-rdf-syntax-ns#"
   xmlns:svg="http://www.w3.org/2000/svg"
   xmlns="http://www.w3.org/2000/svg"
   xmlns:sodipodi="http://sodipodi.sourceforge.net/DTD/sodipodi-0.dtd"
   xmlns:inkscape="http://www.inkscape.org/namespaces/inkscape"
   width="512"
   height="512"
   viewBox="0 0 512.00002 512.00002"
   id="svg2"
   version="1.1"
   inkscape:version="0.92.2 2405546, 2018-03-11"
   sodipodi:docname="tumblr.svg">
  <defs
     id="defs4" />
  <sodipodi:namedview
     id="base"
     pagecolor="#ffffff"
     bordercolor="#666666"
     borderopacity="1.0"
     inkscape:pageopacity="0.0"
     inkscape:pageshadow="2"
     inkscape:zoom="1.0344199"
     inkscape:cx="114.15754"
     inkscape:cy="250.53138"
     inkscape:document-units="px"
     inkscape:current-layer="g1198"
     showgrid="false"
     units="px"
     inkscape:showpageshadow="false"
     inkscape:window-width="1920"
     inkscape:window-height="991"
     inkscape:window-x="0"
     inkscape:window-y="25"
     inkscape:window-maximized="1" />
  <metadata
     id="metadata7">
    <rdf:RDF>
      <cc:Work
         rdf:about="">
        <dc:format>image/svg+xml</dc:format>
        <dc:type
           rdf:resource="http://purl.org/dc/dcmitype/StillImage" />
        <dc:title></dc:title>
        <cc:license
           rdf:resource="http://creativecommons.org/licenses/by-sa/4.0/" />
        <dc:date>2019</dc:date>
        <dc:creator>
          <cc:Agent>
            <dc:title>Cristian Pozzessere  &lt; ilnanny &gt;</dc:title>
          </cc:Agent>
        </dc:creator>
        <dc:subject>
          <rdf:Bag>
            <rdf:li>ilnanny</rdf:li>
          </rdf:Bag>
        </dc:subject>
      </cc:Work>
      <cc:License
         rdf:about="http://creativecommons.org/licenses/by-sa/4.0/">
        <cc:permits
           rdf:resource="http://creativecommons.org/ns#Reproduction" />
        <cc:permits
           rdf:resource="http://creativecommons.org/ns#Distribution" />
        <cc:requires
           rdf:resource="http://creativecommons.org/ns#Notice" />
        <cc:requires
           rdf:resource="http://creativecommons.org/ns#Attribution" />
        <cc:permits
           rdf:resource="http://creativecommons.org/ns#DerivativeWorks" />
        <cc:requires
           rdf:resource="http://creativecommons.org/ns#ShareAlike" />
      </cc:License>
    </rdf:RDF>
  </metadata>
  <g
     inkscape:label="Livello 1"
     inkscape:groupmode="layer"
     id="layer1"
     transform="translate(0,-540.3622)">
    <g
       id="g1262"
       transform="translate(28.134506,568.49671)">
      <g
         id="g1200">
	
	<g
   id="g1198">
		
	<g
   id="g3616"
   transform="translate(2.2558594e-7,-3.774414e-6)">
  <g
     id="g3559">
	<rect
   id="rect3555"
   height="455.73099"
   width="455.73099"
   style="fill:#2f4f6e"
   y="0"
   x="0" />

	<path
   id="path3557"
   d="m 336.473,330.067 v 55.802 c -0.103,0.043 -0.214,0.086 -0.317,0.129 -6.631,3.105 -13.374,5.953 -20.228,8.544 -16.307,6.159 -33.172,9.591 -50.586,10.337 -1.536,0.06 -3.071,0.163 -4.615,0.24 -3.371,0 -10.56,-0.086 -10.791,-0.094 -5.379,-0.146 -10.731,-0.566 -16.067,-1.27 -8.758,-1.167 -17.311,-3.165 -25.598,-6.271 -13.168,-4.915 -24.774,-12.198 -34.399,-22.527 -7.463,-8.012 -12.464,-17.242 -14.437,-28.085 -1.501,-8.278 -2.093,-16.616 -2.093,-25.006 -0.034,-41.613 -0.017,-84.179 -0.017,-125.792 h -38.066 v -50.749 c 4.212,-1.664 8.445,-3.122 12.554,-5.027 21.729,-10.097 37.624,-26.095 47.712,-47.815 4.933,-10.637 7.703,-21.926 9.608,-33.455 0.463,-2.797 0.832,-5.61 1.244,-8.415 h 50.269 l 0.017,89.806 h 84.102 v 55.656 h -84.144 c 0,0 0.051,99.011 0.129,102.313 0.18,7.523 0.54,15.029 1.69,22.484 1.244,8.012 5.25,14.223 12.001,18.666 6.614,4.349 13.914,6.837 21.772,7.678 7.815,0.841 15.57,0.249 23.264,-1.304 13.431,-2.703 25.613,-8.347 36.996,-15.845 z"
   style="fill:#ffffff"
   inkscape:connector-curvature="0" />

</g>
  <g
     id="g3561">
</g>
  <g
     id="g3563">
</g>
  <g
     id="g3565">
</g>
  <g
     id="g3567">
</g>
  <g
     id="g3569">
</g>
  <g
     id="g3571">
</g>
  <g
     id="g3573">
</g>
  <g
     id="g3575">
</g>
  <g
     id="g3577">
</g>
  <g
     id="g3579">
</g>
  <g
     id="g3581">
</g>
  <g
     id="g3583">
</g>
  <g
     id="g3585">
</g>
  <g
     id="g3587">
</g>
  <g
     id="g3589">
</g>
</g>
</g>

</g>
      <g
         id="g1202">
</g>
      <g
         id="g1204">
</g>
      <g
         id="g1206">
</g>
      <g
         id="g1208">
</g>
      <g
         id="g1210">
</g>
      <g
         id="g1212">
</g>
      <g
         id="g1214">
</g>
      <g
         id="g1216">
</g>
      <g
         id="g1218">
</g>
      <g
         id="g1220">
</g>
      <g
         id="g1222">
</g>
      <g
         id="g1224">
</g>
      <g
         id="g1226">
</g>
      <g
         id="g1228">
</g>
      <g
         id="g1230">
</g>
    </g>
  </g>
</svg>
