<?xml version="1.0" encoding="UTF-8" standalone="no"?>
<!-- Created with Inkscape (http://www.inkscape.org/) -->

<svg
   xmlns:dc="http://purl.org/dc/elements/1.1/"
   xmlns:cc="http://creativecommons.org/ns#"
   xmlns:rdf="http://www.w3.org/1999/02/22-rdf-syntax-ns#"
   xmlns:svg="http://www.w3.org/2000/svg"
   xmlns="http://www.w3.org/2000/svg"
   xmlns:sodipodi="http://sodipodi.sourceforge.net/DTD/sodipodi-0.dtd"
   xmlns:inkscape="http://www.inkscape.org/namespaces/inkscape"
   width="512"
   height="512"
   viewBox="0 0 512.00002 512.00002"
   id="svg2"
   version="1.1"
   inkscape:version="0.92.2 2405546, 2018-03-11"
   sodipodi:docname="twitter.svg">
  <defs
     id="defs4" />
  <sodipodi:namedview
     id="base"
     pagecolor="#ffffff"
     bordercolor="#666666"
     borderopacity="1.0"
     inkscape:pageopacity="0.0"
     inkscape:pageshadow="2"
     inkscape:zoom="1.0344199"
     inkscape:cx="114.15754"
     inkscape:cy="250.53138"
     inkscape:document-units="px"
     inkscape:current-layer="g1198"
     showgrid="false"
     units="px"
     inkscape:showpageshadow="false"
     inkscape:window-width="1920"
     inkscape:window-height="991"
     inkscape:window-x="0"
     inkscape:window-y="25"
     inkscape:window-maximized="1" />
  <metadata
     id="metadata7">
    <rdf:RDF>
      <cc:Work
         rdf:about="">
        <dc:format>image/svg+xml</dc:format>
        <dc:type
           rdf:resource="http://purl.org/dc/dcmitype/StillImage" />
        <dc:title></dc:title>
        <cc:license
           rdf:resource="http://creativecommons.org/licenses/by-sa/4.0/" />
        <dc:date>2019</dc:date>
        <dc:creator>
          <cc:Agent>
            <dc:title>Cristian Pozzessere  &lt; ilnanny &gt;</dc:title>
          </cc:Agent>
        </dc:creator>
        <dc:subject>
          <rdf:Bag>
            <rdf:li>ilnanny</rdf:li>
          </rdf:Bag>
        </dc:subject>
      </cc:Work>
      <cc:License
         rdf:about="http://creativecommons.org/licenses/by-sa/4.0/">
        <cc:permits
           rdf:resource="http://creativecommons.org/ns#Reproduction" />
        <cc:permits
           rdf:resource="http://creativecommons.org/ns#Distribution" />
        <cc:requires
           rdf:resource="http://creativecommons.org/ns#Notice" />
        <cc:requires
           rdf:resource="http://creativecommons.org/ns#Attribution" />
        <cc:permits
           rdf:resource="http://creativecommons.org/ns#DerivativeWorks" />
        <cc:requires
           rdf:resource="http://creativecommons.org/ns#ShareAlike" />
      </cc:License>
    </rdf:RDF>
  </metadata>
  <g
     inkscape:label="Livello 1"
     inkscape:groupmode="layer"
     id="layer1"
     transform="translate(0,-540.3622)">
    <g
       id="g1262"
       transform="translate(28.134506,568.49671)">
      <g
         id="g1200">
	
	<g
   id="g1198">
		
	<g
   id="g3741"
   transform="translate(2.2558595e-7,-3.774414e-6)">
  <g
     id="g3684">
	<rect
   id="rect3680"
   height="455.73099"
   width="455.73099"
   style="fill:#50abf1"
   y="0"
   x="0" />

	<path
   id="path3682"
   d="m 60.377,337.822 c 30.33,19.236 66.308,30.368 104.875,30.368 108.349,0 196.18,-87.841 196.18,-196.18 0,-2.705 -0.057,-5.39 -0.161,-8.067 3.919,-3.084 28.157,-22.511 34.098,-35 0,0 -19.683,8.18 -38.947,10.107 -0.038,0 -0.085,0.009 -0.123,0.009 0,0 0.038,-0.019 0.104,-0.066 1.775,-1.186 26.591,-18.079 29.951,-38.207 0,0 -13.922,7.431 -33.415,13.932 -3.227,1.072 -6.605,2.126 -10.088,3.103 -12.565,-13.41 -30.425,-21.78 -50.25,-21.78 -38.027,0 -68.841,30.805 -68.841,68.803 0,5.362 0.617,10.581 1.784,15.592 -5.314,-0.218 -86.237,-4.755 -141.289,-71.423 0,0 -32.902,44.917 19.607,91.105 0,0 -15.962,-0.636 -29.733,-8.864 0,0 -5.058,54.416 54.407,68.329 0,0 -11.701,4.432 -30.368,1.272 0,0 10.439,43.968 63.271,48.077 0,0 -41.777,37.74 -101.081,28.885 z"
   style="fill:#ffffff"
   inkscape:connector-curvature="0" />

</g>
  <g
     id="g3686">
</g>
  <g
     id="g3688">
</g>
  <g
     id="g3690">
</g>
  <g
     id="g3692">
</g>
  <g
     id="g3694">
</g>
  <g
     id="g3696">
</g>
  <g
     id="g3698">
</g>
  <g
     id="g3700">
</g>
  <g
     id="g3702">
</g>
  <g
     id="g3704">
</g>
  <g
     id="g3706">
</g>
  <g
     id="g3708">
</g>
  <g
     id="g3710">
</g>
  <g
     id="g3712">
</g>
  <g
     id="g3714">
</g>
</g>
</g>

</g>
      <g
         id="g1202">
</g>
      <g
         id="g1204">
</g>
      <g
         id="g1206">
</g>
      <g
         id="g1208">
</g>
      <g
         id="g1210">
</g>
      <g
         id="g1212">
</g>
      <g
         id="g1214">
</g>
      <g
         id="g1216">
</g>
      <g
         id="g1218">
</g>
      <g
         id="g1220">
</g>
      <g
         id="g1222">
</g>
      <g
         id="g1224">
</g>
      <g
         id="g1226">
</g>
      <g
         id="g1228">
</g>
      <g
         id="g1230">
</g>
    </g>
  </g>
</svg>
