<?xml version="1.0" encoding="UTF-8" standalone="no"?>
<!-- Created with Inkscape (http://www.inkscape.org/) -->

<svg
   xmlns:dc="http://purl.org/dc/elements/1.1/"
   xmlns:cc="http://creativecommons.org/ns#"
   xmlns:rdf="http://www.w3.org/1999/02/22-rdf-syntax-ns#"
   xmlns:svg="http://www.w3.org/2000/svg"
   xmlns="http://www.w3.org/2000/svg"
   xmlns:sodipodi="http://sodipodi.sourceforge.net/DTD/sodipodi-0.dtd"
   xmlns:inkscape="http://www.inkscape.org/namespaces/inkscape"
   width="512"
   height="512"
   viewBox="0 0 512.00002 512.00002"
   id="svg2"
   version="1.1"
   inkscape:version="0.92.2 2405546, 2018-03-11"
   sodipodi:docname="vk.svg">
  <defs
     id="defs4" />
  <sodipodi:namedview
     id="base"
     pagecolor="#ffffff"
     bordercolor="#666666"
     borderopacity="1.0"
     inkscape:pageopacity="0.0"
     inkscape:pageshadow="2"
     inkscape:zoom="1.0344199"
     inkscape:cx="114.15754"
     inkscape:cy="250.53138"
     inkscape:document-units="px"
     inkscape:current-layer="g1198"
     showgrid="false"
     units="px"
     inkscape:showpageshadow="false"
     inkscape:window-width="1920"
     inkscape:window-height="991"
     inkscape:window-x="0"
     inkscape:window-y="25"
     inkscape:window-maximized="1" />
  <metadata
     id="metadata7">
    <rdf:RDF>
      <cc:Work
         rdf:about="">
        <dc:format>image/svg+xml</dc:format>
        <dc:type
           rdf:resource="http://purl.org/dc/dcmitype/StillImage" />
        <dc:title></dc:title>
        <cc:license
           rdf:resource="http://creativecommons.org/licenses/by-sa/4.0/" />
        <dc:date>2019</dc:date>
        <dc:creator>
          <cc:Agent>
            <dc:title>Cristian Pozzessere  &lt; ilnanny &gt;</dc:title>
          </cc:Agent>
        </dc:creator>
        <dc:subject>
          <rdf:Bag>
            <rdf:li>ilnanny</rdf:li>
          </rdf:Bag>
        </dc:subject>
      </cc:Work>
      <cc:License
         rdf:about="http://creativecommons.org/licenses/by-sa/4.0/">
        <cc:permits
           rdf:resource="http://creativecommons.org/ns#Reproduction" />
        <cc:permits
           rdf:resource="http://creativecommons.org/ns#Distribution" />
        <cc:requires
           rdf:resource="http://creativecommons.org/ns#Notice" />
        <cc:requires
           rdf:resource="http://creativecommons.org/ns#Attribution" />
        <cc:permits
           rdf:resource="http://creativecommons.org/ns#DerivativeWorks" />
        <cc:requires
           rdf:resource="http://creativecommons.org/ns#ShareAlike" />
      </cc:License>
    </rdf:RDF>
  </metadata>
  <g
     inkscape:label="Livello 1"
     inkscape:groupmode="layer"
     id="layer1"
     transform="translate(0,-540.3622)">
    <g
       id="g1262"
       transform="translate(28.134506,568.49671)">
      <g
         id="g1200">
	
	<g
   id="g1198">
		
	<g
   id="g4266"
   transform="translate(2.2558596e-7,-3.774414e-6)">
  <g
     id="g4209">
	<rect
   id="rect4205"
   height="455.73099"
   width="455.73099"
   style="fill:#44678d"
   y="0"
   x="0" />

	<path
   id="path4207"
   d="m 118.06,138.69 c 10.922,26.972 24.764,52.402 42.995,75.231 2.418,3.038 5.466,5.739 8.677,7.938 4.69,3.221 9.115,2.089 11.022,-3.276 2.017,-5.63 3.868,-17.04 3.978,-22.952 0.301,-15.448 -0.045,-25.572 -0.875,-41.001 -0.538,-9.882 -4.051,-18.559 -18.587,-21.178 -4.489,-0.812 -4.906,-4.507 -2.022,-8.193 6.004,-7.674 14.368,-8.897 23.438,-9.381 14.7,-0.794 29.454,-0.146 44.172,0 5.995,0.055 12.026,0.538 17.93,1.825 7.701,1.679 11.825,7.081 13.094,14.599 0.657,3.878 0.995,7.865 0.903,11.789 -0.383,16.862 -1.195,33.715 -1.387,50.568 -0.082,6.615 0.401,13.395 1.816,19.837 1.98,8.978 8.093,11.232 14.344,4.745 7.938,-8.239 14.937,-17.51 21.506,-26.926 11.935,-17.127 20.849,-35.923 28.523,-55.303 3.969,-10 7.008,-12.172 17.765,-12.199 20.22,-0.046 40.44,-0.064 60.66,0 3.586,0.018 7.336,0.356 10.721,1.433 5.493,1.752 7.674,6.232 6.387,11.917 -3.002,13.322 -10.201,24.645 -17.911,35.531 -12.373,17.464 -25.339,34.509 -38.003,51.772 -1.615,2.199 -3.038,4.544 -4.362,6.925 -4.736,8.559 -4.407,13.358 2.5,20.484 10.995,11.342 22.766,21.953 33.414,33.605 7.738,8.477 14.9,17.674 21.032,27.355 7.756,12.245 2.965,23.778 -11.524,25.831 -9.115,1.287 -53.641,0.01 -55.942,0 -11.971,-0.054 -22.464,-4.206 -30.914,-12.336 -9.398,-9.051 -17.939,-18.979 -26.963,-28.423 -2.719,-2.847 -5.621,-5.575 -8.75,-7.957 -7.382,-5.63 -14.627,-4.38 -18.076,4.289 -2.947,7.446 -5.493,26.999 -5.612,28.669 -0.62,8.732 -6.177,14.298 -15.959,14.836 -28.24,1.533 -55.605,-1.615 -81.098,-15.274 C 143.345,311.9 126.091,295.54 111.145,276.461 87.403,246.157 68.65,212.846 51.529,178.557 50.654,176.804 33.313,139.904 32.847,138.161 c -1.549,-5.836 -0.104,-11.411 4.827,-13.33 3.074,-1.196 60.248,-0.004 61.199,0.047 9.123,0.494 15.344,4.343 19.187,13.812 z"
   style="fill:#ffffff"
   inkscape:connector-curvature="0" />

</g>
  <g
     id="g4211">
</g>
  <g
     id="g4213">
</g>
  <g
     id="g4215">
</g>
  <g
     id="g4217">
</g>
  <g
     id="g4219">
</g>
  <g
     id="g4221">
</g>
  <g
     id="g4223">
</g>
  <g
     id="g4225">
</g>
  <g
     id="g4227">
</g>
  <g
     id="g4229">
</g>
  <g
     id="g4231">
</g>
  <g
     id="g4233">
</g>
  <g
     id="g4235">
</g>
  <g
     id="g4237">
</g>
  <g
     id="g4239">
</g>
</g>
</g>

</g>
      <g
         id="g1202">
</g>
      <g
         id="g1204">
</g>
      <g
         id="g1206">
</g>
      <g
         id="g1208">
</g>
      <g
         id="g1210">
</g>
      <g
         id="g1212">
</g>
      <g
         id="g1214">
</g>
      <g
         id="g1216">
</g>
      <g
         id="g1218">
</g>
      <g
         id="g1220">
</g>
      <g
         id="g1222">
</g>
      <g
         id="g1224">
</g>
      <g
         id="g1226">
</g>
      <g
         id="g1228">
</g>
      <g
         id="g1230">
</g>
    </g>
  </g>
</svg>
