<?xml version="1.0" encoding="UTF-8" standalone="no"?>
<!-- Created with Inkscape (http://www.inkscape.org/) -->

<svg
   xmlns:dc="http://purl.org/dc/elements/1.1/"
   xmlns:cc="http://creativecommons.org/ns#"
   xmlns:rdf="http://www.w3.org/1999/02/22-rdf-syntax-ns#"
   xmlns:svg="http://www.w3.org/2000/svg"
   xmlns="http://www.w3.org/2000/svg"
   xmlns:sodipodi="http://sodipodi.sourceforge.net/DTD/sodipodi-0.dtd"
   xmlns:inkscape="http://www.inkscape.org/namespaces/inkscape"
   width="512"
   height="512"
   viewBox="0 0 512.00002 512.00002"
   id="svg2"
   version="1.1"
   inkscape:version="0.92.2 2405546, 2018-03-11"
   sodipodi:docname="whatsapp.svg">
  <defs
     id="defs4" />
  <sodipodi:namedview
     id="base"
     pagecolor="#ffffff"
     bordercolor="#666666"
     borderopacity="1.0"
     inkscape:pageopacity="0.0"
     inkscape:pageshadow="2"
     inkscape:zoom="1.0344199"
     inkscape:cx="114.15754"
     inkscape:cy="250.53138"
     inkscape:document-units="px"
     inkscape:current-layer="g1198"
     showgrid="false"
     units="px"
     inkscape:showpageshadow="false"
     inkscape:window-width="1920"
     inkscape:window-height="991"
     inkscape:window-x="0"
     inkscape:window-y="25"
     inkscape:window-maximized="1" />
  <metadata
     id="metadata7">
    <rdf:RDF>
      <cc:Work
         rdf:about="">
        <dc:format>image/svg+xml</dc:format>
        <dc:type
           rdf:resource="http://purl.org/dc/dcmitype/StillImage" />
        <dc:title></dc:title>
        <cc:license
           rdf:resource="http://creativecommons.org/licenses/by-sa/4.0/" />
        <dc:date>2019</dc:date>
        <dc:creator>
          <cc:Agent>
            <dc:title>Cristian Pozzessere  &lt; ilnanny &gt;</dc:title>
          </cc:Agent>
        </dc:creator>
        <dc:subject>
          <rdf:Bag>
            <rdf:li>ilnanny</rdf:li>
          </rdf:Bag>
        </dc:subject>
      </cc:Work>
      <cc:License
         rdf:about="http://creativecommons.org/licenses/by-sa/4.0/">
        <cc:permits
           rdf:resource="http://creativecommons.org/ns#Reproduction" />
        <cc:permits
           rdf:resource="http://creativecommons.org/ns#Distribution" />
        <cc:requires
           rdf:resource="http://creativecommons.org/ns#Notice" />
        <cc:requires
           rdf:resource="http://creativecommons.org/ns#Attribution" />
        <cc:permits
           rdf:resource="http://creativecommons.org/ns#DerivativeWorks" />
        <cc:requires
           rdf:resource="http://creativecommons.org/ns#ShareAlike" />
      </cc:License>
    </rdf:RDF>
  </metadata>
  <g
     inkscape:label="Livello 1"
     inkscape:groupmode="layer"
     id="layer1"
     transform="translate(0,-540.3622)">
    <g
       id="g1262"
       transform="translate(28.134506,568.49671)">
      <g
         id="g1200">
	
	<g
   id="g1198">
		
	<g
   id="g4397"
   transform="translate(2.2558591e-7,-3.774414e-6)">
  <g
     id="g4338">
	<rect
   id="rect4330"
   height="455.73099"
   width="455.73099"
   style="fill:#1bd741"
   y="0"
   x="0" />

	<g
   id="g4336">
		<path
   id="path4332"
   d="M 68.494,387.41 90.817,308.126 C 76.462,283.739 68.904,255.992 68.904,227.488 c 0,-87.765 71.402,-159.167 159.167,-159.167 87.765,0 159.166,71.402 159.166,159.167 0,87.765 -71.401,159.167 -159.166,159.167 -27.347,0 -54.125,-7 -77.814,-20.292 z m 85.943,-50.004 4.872,2.975 c 20.654,12.609 44.432,19.274 68.762,19.274 72.877,0 132.166,-59.29 132.166,-132.167 0,-72.877 -59.289,-132.167 -132.166,-132.167 -72.877,0 -132.167,59.29 -132.167,132.167 0,25.393 7.217,50.052 20.869,71.311 l 3.281,5.109 -12.855,45.658 z"
   style="fill:#ffffff"
   inkscape:connector-curvature="0" />

		<path
   id="path4334"
   d="m 183.359,153.407 -10.328,-0.563 c -3.244,-0.177 -6.426,0.907 -8.878,3.037 -5.007,4.348 -13.013,12.754 -15.472,23.708 -3.667,16.333 2,36.333 16.667,56.333 14.667,20 42,52 90.333,65.667 15.575,4.404 27.827,1.435 37.28,-4.612 7.487,-4.789 12.648,-12.476 14.508,-21.166 l 1.649,-7.702 c 0.524,-2.448 -0.719,-4.932 -2.993,-5.98 L 271.22,246.04 c -2.266,-1.044 -4.953,-0.384 -6.477,1.591 l -13.703,17.764 c -1.035,1.342 -2.807,1.874 -4.407,1.312 -9.384,-3.298 -40.818,-16.463 -58.066,-49.687 -0.748,-1.441 -0.562,-3.19 0.499,-4.419 l 13.096,-15.15 c 1.338,-1.547 1.676,-3.722 0.872,-5.602 l -15.046,-35.201 c -0.801,-1.874 -2.596,-3.13 -4.629,-3.241 z"
   style="fill:#ffffff"
   inkscape:connector-curvature="0" />

	</g>

</g>
  <g
     id="g4340">
</g>
  <g
     id="g4342">
</g>
  <g
     id="g4344">
</g>
  <g
     id="g4346">
</g>
  <g
     id="g4348">
</g>
  <g
     id="g4350">
</g>
  <g
     id="g4352">
</g>
  <g
     id="g4354">
</g>
  <g
     id="g4356">
</g>
  <g
     id="g4358">
</g>
  <g
     id="g4360">
</g>
  <g
     id="g4362">
</g>
  <g
     id="g4364">
</g>
  <g
     id="g4366">
</g>
  <g
     id="g4368">
</g>
</g>
</g>

</g>
      <g
         id="g1202">
</g>
      <g
         id="g1204">
</g>
      <g
         id="g1206">
</g>
      <g
         id="g1208">
</g>
      <g
         id="g1210">
</g>
      <g
         id="g1212">
</g>
      <g
         id="g1214">
</g>
      <g
         id="g1216">
</g>
      <g
         id="g1218">
</g>
      <g
         id="g1220">
</g>
      <g
         id="g1222">
</g>
      <g
         id="g1224">
</g>
      <g
         id="g1226">
</g>
      <g
         id="g1228">
</g>
      <g
         id="g1230">
</g>
    </g>
  </g>
</svg>
