<?xml version="1.0" encoding="UTF-8" standalone="no"?>
<!-- Created with Inkscape (http://www.inkscape.org/) -->

<svg
   xmlns:dc="http://purl.org/dc/elements/1.1/"
   xmlns:cc="http://creativecommons.org/ns#"
   xmlns:rdf="http://www.w3.org/1999/02/22-rdf-syntax-ns#"
   xmlns:svg="http://www.w3.org/2000/svg"
   xmlns="http://www.w3.org/2000/svg"
   xmlns:sodipodi="http://sodipodi.sourceforge.net/DTD/sodipodi-0.dtd"
   xmlns:inkscape="http://www.inkscape.org/namespaces/inkscape"
   width="512"
   height="512"
   viewBox="0 0 512.00002 512.00002"
   id="svg2"
   version="1.1"
   inkscape:version="0.92.2 2405546, 2018-03-11"
   sodipodi:docname="youtube.svg">
  <defs
     id="defs4" />
  <sodipodi:namedview
     id="base"
     pagecolor="#ffffff"
     bordercolor="#666666"
     borderopacity="1.0"
     inkscape:pageopacity="0.0"
     inkscape:pageshadow="2"
     inkscape:zoom="1.0344199"
     inkscape:cx="114.15754"
     inkscape:cy="250.53138"
     inkscape:document-units="px"
     inkscape:current-layer="g1198"
     showgrid="false"
     units="px"
     inkscape:showpageshadow="false"
     inkscape:window-width="1920"
     inkscape:window-height="991"
     inkscape:window-x="0"
     inkscape:window-y="25"
     inkscape:window-maximized="1" />
  <metadata
     id="metadata7">
    <rdf:RDF>
      <cc:Work
         rdf:about="">
        <dc:format>image/svg+xml</dc:format>
        <dc:type
           rdf:resource="http://purl.org/dc/dcmitype/StillImage" />
        <dc:title></dc:title>
        <cc:license
           rdf:resource="http://creativecommons.org/licenses/by-sa/4.0/" />
        <dc:date>2019</dc:date>
        <dc:creator>
          <cc:Agent>
            <dc:title>Cristian Pozzessere  &lt; ilnanny &gt;</dc:title>
          </cc:Agent>
        </dc:creator>
        <dc:subject>
          <rdf:Bag>
            <rdf:li>ilnanny</rdf:li>
          </rdf:Bag>
        </dc:subject>
      </cc:Work>
      <cc:License
         rdf:about="http://creativecommons.org/licenses/by-sa/4.0/">
        <cc:permits
           rdf:resource="http://creativecommons.org/ns#Reproduction" />
        <cc:permits
           rdf:resource="http://creativecommons.org/ns#Distribution" />
        <cc:requires
           rdf:resource="http://creativecommons.org/ns#Notice" />
        <cc:requires
           rdf:resource="http://creativecommons.org/ns#Attribution" />
        <cc:permits
           rdf:resource="http://creativecommons.org/ns#DerivativeWorks" />
        <cc:requires
           rdf:resource="http://creativecommons.org/ns#ShareAlike" />
      </cc:License>
    </rdf:RDF>
  </metadata>
  <g
     inkscape:label="Livello 1"
     inkscape:groupmode="layer"
     id="layer1"
     transform="translate(0,-540.3622)">
    <g
       id="g1262"
       transform="translate(28.134506,568.49671)">
      <g
         id="g1200">
	
	<g
   id="g1198">
		
	<g
   id="g4673"
   transform="translate(2.2558593e-7,-3.774414e-6)">
  <g
     id="g4612">
	<rect
   id="rect4600"
   height="455.73099"
   width="455.73099"
   style="fill:#dc472e"
   y="0"
   x="0" />

	<g
   id="g4610">
		<path
   id="path4602"
   d="m 263.259,291.734 c -0.01,-1.7 -0.51,-3.47 -1.14,-5.06 -0.84,-2.09 -2.64,-3.13 -4.9,-3.35 -2.65,-0.26 -4.77,0.81 -6.69,2.51 -0.77,0.67 -1.12,1.67 -1.12,1.67 l 0.04,53.97 v 1.33 c 0,0 0.46,0.62 0.53,0.7 1.56,1.69 3.38,3.03 5.71,3.51 3.84,0.79 6.55,-0.81 7.3,-4.37 0.19,-0.89 0.3,-1.81 0.3,-2.72 0.02,-16.07 0.05,-32.13 -0.03,-48.19 z m 0,0 c -0.01,-1.7 -0.51,-3.47 -1.14,-5.06 -0.84,-2.09 -2.64,-3.13 -4.9,-3.35 -2.65,-0.26 -4.77,0.81 -6.69,2.51 -0.77,0.67 -1.12,1.67 -1.12,1.67 l 0.04,53.97 v 1.33 c 0,0 0.46,0.62 0.53,0.7 1.56,1.69 3.38,3.03 5.71,3.51 3.84,0.79 6.55,-0.81 7.3,-4.37 0.19,-0.89 0.3,-1.81 0.3,-2.72 0.02,-16.07 0.05,-32.13 -0.03,-48.19 z m 60.43,-81.39 c -63.87,-1.37 -127.77,-1.37 -191.65,0 -22.16,0.47 -39.88,18.59 -39.88,40.76 v 99.76 c 0,22.18 17.72,40.3 39.88,40.77 63.88,1.37 127.78,1.37 191.65,0 22.17,-0.47 39.89,-18.59 39.89,-40.77 v -99.76 c 0,-22.169 -17.72,-40.29 -39.89,-40.76 z m -172.89,149.611 h -18.42 v -104.13 h -19.07 v -17.42 h 56.6 v 17.38 h -19.11 z m 65.92,-43.221 v 43.23 h -16.31 v -9.88 c -0.59,0.63 -0.92,0.97 -1.23,1.32 -3.51,3.96 -7.49,7.26 -12.57,9.01 -2.48,0.85 -5.03,1.14 -7.64,0.69 -3.56,-0.59 -5.95,-2.64 -7.39,-5.88 -1.34,-2.99 -1.68,-6.19 -1.69,-9.41 -0.04,-11.9 -0.02,-74.88 -0.02,-75.49 h 16.27 c 0.03,0.55 0.09,45.76 0.1,67.81 0,1.2 0.01,2.43 0.25,3.6 0.6,2.96 2.87,4.23 5.72,3.19 3.28,-1.2 5.78,-3.46 7.88,-6.17 0.31,-0.39 0.31,-1.09 0.31,-1.65 v -66.88 l 16.32,-0.04 c 0,10e-4 0,31.57 0,46.55 z m 62.05,34.59 c -2.18,6.56 -6.98,9.9 -13.88,9.83 -5.61,-0.05 -10.16,-2.28 -13.91,-6.35 -0.42,-0.45 -1.58,-1.68 -1.58,-1.68 v 6.82 h -16.34 v -121.55 h 16.34 c 0,12.94 0,40.01 0,40.01 0,0 0.92,-1.84 1.76,-2.79 2.53,-2.83 5.61,-5.02 9.41,-5.98 6.27,-1.57 13.5,0.37 16.94,7.7 2.03,4.33 2.6,8.95 2.6,13.65 0.03,16.99 0.03,33.98 0.01,50.97 -0.01,3.18 -0.34,6.321 -1.35,9.37 z m 60.35,-3.419 c -2.83,8.29 -8.68,12.89 -17.26,14.15 -5.32,0.78 -10.59,0.67 -15.58,-1.59 -6.83,-3.08 -10.7,-8.65 -12.36,-15.74 -0.77,-3.3 -1.15,-6.76 -1.19,-10.15 -0.13,-13.31 -0.07,-26.63 -0.04,-39.94 0.01,-6.96 1.67,-13.38 6.44,-18.71 5.44,-6.09 12.4,-8.36 20.35,-7.85 2.39,0.15 4.83,0.54 7.1,1.29 7.73,2.54 11.86,8.33 13.48,16.01 0.62,2.96 0.85,6.03 0.9,9.06 0.13,7.1 -0.05,22.75 -0.05,22.75 h -31.29 v 22.43 c 0,4.03 3.26,7.29 7.29,7.29 4.02,0 7.28,-3.26 7.28,-7.29 v -11.53 h 16.81 c 0,-10e-4 0.25,13.61 -1.88,19.82 z m -14.93,-57.22 c 0,-4.02 -3.26,-7.29 -7.28,-7.29 -4.03,0 -7.29,3.27 -7.29,7.29 v 12.59 h 14.57 z m -62.07,-4.01 c -0.84,-2.09 -2.64,-3.13 -4.9,-3.35 -2.65,-0.26 -4.77,0.81 -6.69,2.51 -0.77,0.67 -1.12,1.67 -1.12,1.67 l 0.04,53.97 v 1.33 c 0,0 0.46,0.62 0.53,0.7 1.56,1.69 3.38,3.03 5.71,3.51 3.84,0.79 6.55,-0.81 7.3,-4.37 0.19,-0.89 0.3,-1.81 0.3,-2.72 0.02,-16.07 0.05,-32.13 -0.03,-48.19 -0.01,-1.701 -0.51,-3.471 -1.14,-5.06 z"
   style="fill:#ffffff"
   inkscape:connector-curvature="0" />

		<path
   id="path4604"
   d="m 303.887,94.99 -0.005,90.244 H 287.16 l 0.02,-9.695 c -1.849,1.821 -3.427,3.522 -5.161,5.05 -3.074,2.708 -6.556,4.727 -10.629,5.524 -6.253,1.223 -11.579,-0.754 -13.573,-7.23 -0.664,-2.157 -1.065,-4.482 -1.082,-6.734 V 94.99 h 16.596 v 68.821 c 0,0.912 0.073,1.834 0.233,2.728 0.504,2.836 2.6,4.171 5.331,3.224 3.329,-1.152 5.869,-3.457 8.024,-6.173 0.306,-0.388 0.251,-1.112 0.251,-1.681 V 94.99 Z"
   style="fill:#ffffff"
   inkscape:connector-curvature="0" />

		<path
   id="path4606"
   d="M 165.578,110.672 C 161.948,95.371 154.343,63.07 154.343,63.07 h -19.029 c 0,0 14.62,48.487 21.158,70.111 0.235,0.782 0.343,1.631 0.343,2.45 l -0.007,49.584 h 17.547 l -0.007,-49.584 c 0,-0.819 0.108,-1.668 0.343,-2.45 6.538,-21.624 21.158,-70.111 21.158,-70.111 H 176.82 c 0,0 -7.606,32.301 -11.235,47.602 z"
   style="fill:#ffffff"
   inkscape:connector-curvature="0" />

		<path
   id="path4608"
   d="m 218.752,92.731 v 0 c -13.224,0 -23.944,10.72 -23.944,23.944 v 46.859 c 0,13.224 10.72,23.944 23.944,23.944 v 0 c 13.224,0 23.944,-10.72 23.944,-23.944 v -46.859 c 0.001,-13.224 -10.72,-23.944 -23.944,-23.944 z m 6.91,71.749 c 0,3.81 -3.1,6.909 -6.909,6.909 -3.809,0 -6.909,-3.099 -6.909,-6.909 v -48.752 c 0,-3.81 3.1,-6.909 6.909,-6.909 3.809,0 6.909,3.1 6.909,6.909 z"
   style="fill:#ffffff"
   inkscape:connector-curvature="0" />

	</g>

</g>
  <g
     id="g4614">
</g>
  <g
     id="g4616">
</g>
  <g
     id="g4618">
</g>
  <g
     id="g4620">
</g>
  <g
     id="g4622">
</g>
  <g
     id="g4624">
</g>
  <g
     id="g4626">
</g>
  <g
     id="g4628">
</g>
  <g
     id="g4630">
</g>
  <g
     id="g4632">
</g>
  <g
     id="g4634">
</g>
  <g
     id="g4636">
</g>
  <g
     id="g4638">
</g>
  <g
     id="g4640">
</g>
  <g
     id="g4642">
</g>
</g>
</g>

</g>
      <g
         id="g1202">
</g>
      <g
         id="g1204">
</g>
      <g
         id="g1206">
</g>
      <g
         id="g1208">
</g>
      <g
         id="g1210">
</g>
      <g
         id="g1212">
</g>
      <g
         id="g1214">
</g>
      <g
         id="g1216">
</g>
      <g
         id="g1218">
</g>
      <g
         id="g1220">
</g>
      <g
         id="g1222">
</g>
      <g
         id="g1224">
</g>
      <g
         id="g1226">
</g>
      <g
         id="g1228">
</g>
      <g
         id="g1230">
</g>
    </g>
  </g>
</svg>
